<?xml version="1.0" encoding="UTF-8" standalone="no"?>
<!DOCTYPE svg PUBLIC "-//W3C//DTD SVG 1.1//EN"
 "http://www.w3.org/Graphics/SVG/1.1/DTD/svg11.dtd">
<!-- Generated by graphviz version 2.24.0 (20090616.2323)
 -->
<!-- Title: hfautils_matchcb Pages: 1 -->
<svg width="328pt" height="70pt"
 viewBox="0.00 0.00 328.00 70.00" xmlns="http://www.w3.org/2000/svg" xmlns:xlink="http://www.w3.org/1999/xlink">
<g id="graph1" class="graph" transform="scale(1 1) rotate(0) translate(4 66)">
<title>hfautils_matchcb</title>
<polygon fill="white" stroke="white" points="-4,5 -4,-66 325,-66 325,5 -4,5"/>
<!-- Node1 -->
<g id="node1" class="node"><title>Node1</title>
<polygon fill="#bfbfbf" stroke="black" points="0.5,-20.5 0.5,-41.5 99.5,-41.5 99.5,-20.5 0.5,-20.5"/>
<text text-anchor="middle" x="50" y="-28.5" font-family="FreeSans" font-size="10.00">hfautils_matchcb</text>
</g>
<!-- Node2 -->
<g id="node3" class="node"><title>Node2</title>
<a xlink:href="hfa-lnx-ctx_8c.html#a1bf8357c95e9c9afcbc15f7f45d349a8" target="_top" xlink:title="get_sparam">
<polygon fill="white" stroke="black" points="136.5,-40.5 136.5,-61.5 209.5,-61.5 209.5,-40.5 136.5,-40.5"/>
<text text-anchor="middle" x="173" y="-48.5" font-family="FreeSans" font-size="10.00">get_sparam</text>
</a>
</g>
<!-- Node1&#45;&gt;Node2 -->
<g id="edge2" class="edge"><title>Node1&#45;&gt;Node2</title>
<path fill="none" stroke="midnightblue" d="M109.55,-40.6829C118.707,-42.1719 127.923,-43.6703 136.382,-45.0459"/>
<polygon fill="midnightblue" stroke="midnightblue" points="110.106,-37.2275 99.6743,-39.0771 108.983,-44.1368 110.106,-37.2275"/>
</g>
<!-- Node4 -->
<g id="node7" class="node"><title>Node4</title>
<a xlink:href="hfa-se-flow-wqe_8c.html#a98871b329f369c72a6d033310e1fd576" target="_top" xlink:title="Allocate and set parameters for search.">
<polygon fill="white" stroke="black" points="137,-0.5 137,-21.5 209,-21.5 209,-0.5 137,-0.5"/>
<text text-anchor="middle" x="173" y="-8.5" font-family="FreeSans" font-size="10.00">get_fparam</text>
</a>
</g>
<!-- Node1&#45;&gt;Node4 -->
<g id="edge6" class="edge"><title>Node1&#45;&gt;Node4</title>
<path fill="none" stroke="midnightblue" d="M109.658,-21.2995C118.915,-19.7942 128.229,-18.2799 136.757,-16.8931"/>
<polygon fill="midnightblue" stroke="midnightblue" points="108.983,-17.8632 99.6743,-22.9229 110.106,-24.7725 108.983,-17.8632"/>
</g>
<!-- Node3 -->
<g id="node5" class="node"><title>Node3</title>
<a xlink:href="hfa-lnx-ctx_8c.html#a97df0ba8293c1b8436547946fd9d0d17" target="_top" xlink:title="process_pkt">
<polygon fill="white" stroke="black" points="246,-40.5 246,-61.5 320,-61.5 320,-40.5 246,-40.5"/>
<text text-anchor="middle" x="283" y="-48.5" font-family="FreeSans" font-size="10.00">process_pkt</text>
</a>
</g>
<!-- Node2&#45;&gt;Node3 -->
<g id="edge4" class="edge"><title>Node2&#45;&gt;Node3</title>
<path fill="none" stroke="midnightblue" d="M219.676,-51C228.393,-51 237.396,-51 245.781,-51"/>
<polygon fill="midnightblue" stroke="midnightblue" points="219.628,-47.5001 209.628,-51 219.628,-54.5001 219.628,-47.5001"/>
</g>
</g>
</svg>
