<?xml version="1.0" encoding="UTF-8" standalone="no"?>
<!DOCTYPE svg PUBLIC "-//W3C//DTD SVG 1.1//EN"
 "http://www.w3.org/Graphics/SVG/1.1/DTD/svg11.dtd">
<!-- Generated by graphviz version 2.24.0 (20090616.2323)
 -->
<!-- Title: hfautils_cleanup_payload_attributes Pages: 1 -->
<svg width="482pt" height="338pt"
 viewBox="0.00 0.00 482.00 338.00" xmlns="http://www.w3.org/2000/svg" xmlns:xlink="http://www.w3.org/1999/xlink">
<g id="graph1" class="graph" transform="scale(1 1) rotate(0) translate(4 334)">
<title>hfautils_cleanup_payload_attributes</title>
<polygon fill="white" stroke="white" points="-4,5 -4,-334 479,-334 479,5 -4,5"/>
<!-- Node1 -->
<g id="node1" class="node"><title>Node1</title>
<polygon fill="#bfbfbf" stroke="black" points="0,-134 0,-168 138,-168 138,-134 0,-134"/>
<text text-anchor="start" x="8" y="-155" font-family="FreeSans" font-size="10.00">hfautils_cleanup_payload</text>
<text text-anchor="middle" x="69" y="-142" font-family="FreeSans" font-size="10.00">_attributes</text>
</g>
<!-- Node2 -->
<g id="node3" class="node"><title>Node2</title>
<a xlink:href="hfa-lnx-async_8c.html#a972f8b60ef804914c009c2ef85bac50e" target="_top" xlink:title="Process search for given payload and graph.">
<polygon fill="white" stroke="black" points="175,-278.5 175,-299.5 267,-299.5 267,-278.5 175,-278.5"/>
<text text-anchor="middle" x="221" y="-286.5" font-family="FreeSans" font-size="10.00">process_search</text>
</a>
</g>
<!-- Node1&#45;&gt;Node2 -->
<g id="edge2" class="edge"><title>Node1&#45;&gt;Node2</title>
<path fill="none" stroke="midnightblue" d="M86.5798,-176.698C105.57,-202.852 137.984,-243.126 174,-269 179.041,-272.622 184.84,-275.758 190.604,-278.404"/>
<polygon fill="midnightblue" stroke="midnightblue" points="89.3249,-174.519 80.6684,-168.41 83.6261,-178.584 89.3249,-174.519"/>
</g>
<!-- Node6 -->
<g id="node12" class="node"><title>Node6</title>
<a xlink:href="hfa-lnx-ctx_8c.html#a4c3443f524b4c0d95639694f0b74e850" target="_top" xlink:title="Process command line options, Read graph and payload.">
<polygon fill="white" stroke="black" points="174,-238.5 174,-259.5 268,-259.5 268,-238.5 174,-238.5"/>
<text text-anchor="middle" x="221" y="-246.5" font-family="FreeSans" font-size="10.00">process_options</text>
</a>
</g>
<!-- Node1&#45;&gt;Node6 -->
<g id="edge12" class="edge"><title>Node1&#45;&gt;Node6</title>
<path fill="none" stroke="midnightblue" d="M100.168,-174.123C120.722,-189.006 148.467,-208.409 174,-224 182.204,-229.009 191.498,-234.074 199.644,-238.323"/>
<polygon fill="midnightblue" stroke="midnightblue" points="101.97,-171.106 91.8263,-168.046 97.8476,-176.763 101.97,-171.106"/>
</g>
<!-- Node7 -->
<g id="node14" class="node"><title>Node7</title>
<a xlink:href="hfa-lnx-ctx_8c.html#a78ffddbcd7cdd164889cfb53ea367886" target="_top" xlink:title="entry">
<polygon fill="white" stroke="black" points="329.5,-219.5 329.5,-240.5 370.5,-240.5 370.5,-219.5 329.5,-219.5"/>
<text text-anchor="middle" x="350" y="-227.5" font-family="FreeSans" font-size="10.00">entry</text>
</a>
</g>
<!-- Node1&#45;&gt;Node7 -->
<g id="edge16" class="edge"><title>Node1&#45;&gt;Node7</title>
<path fill="none" stroke="midnightblue" d="M118.982,-171.747C136.227,-178.447 155.789,-185.545 174,-191 229.314,-207.568 296.315,-220.512 329.426,-226.45"/>
<polygon fill="midnightblue" stroke="midnightblue" points="120.25,-168.485 109.662,-168.079 117.686,-174.998 120.25,-168.485"/>
</g>
<!-- Node8 -->
<g id="node17" class="node"><title>Node8</title>
<a xlink:href="hfa-lnx-ctx_8c.html#aaf98ef7cdde3a0dfb2e49919de3298b1" target="_top" xlink:title="exit">
<polygon fill="white" stroke="black" points="204.5,-160.5 204.5,-181.5 237.5,-181.5 237.5,-160.5 204.5,-160.5"/>
<text text-anchor="middle" x="221" y="-168.5" font-family="FreeSans" font-size="10.00">exit</text>
</a>
</g>
<!-- Node1&#45;&gt;Node8 -->
<g id="edge18" class="edge"><title>Node1&#45;&gt;Node8</title>
<path fill="none" stroke="midnightblue" d="M148.374,-161.444C169.517,-164.226 190.311,-166.962 204.194,-168.789"/>
<polygon fill="midnightblue" stroke="midnightblue" points="148.699,-157.957 138.328,-160.122 147.786,-164.897 148.699,-157.957"/>
</g>
<!-- Node9 -->
<g id="node19" class="node"><title>Node9</title>
<a xlink:href="hfa-lnx-linkgraph_8c.html#acd9e54f020b77f14d54c200b65423a15" target="_top" xlink:title="Cleanup will be done by this routine.">
<polygon fill="white" stroke="black" points="194,-120.5 194,-141.5 248,-141.5 248,-120.5 194,-120.5"/>
<text text-anchor="middle" x="221" y="-128.5" font-family="FreeSans" font-size="10.00">cleanup</text>
</a>
</g>
<!-- Node1&#45;&gt;Node9 -->
<g id="edge20" class="edge"><title>Node1&#45;&gt;Node9</title>
<path fill="none" stroke="midnightblue" d="M148.528,-140.536C164.908,-138.38 181.07,-136.254 193.96,-134.558"/>
<polygon fill="midnightblue" stroke="midnightblue" points="147.786,-137.103 138.328,-141.878 148.699,-144.043 147.786,-137.103"/>
</g>
<!-- Node12 -->
<g id="node25" class="node"><title>Node12</title>
<a xlink:href="hfa-se-async_8c.html#a1b239994494fe75dc3fd1287ea790f77" target="_top" xlink:title="Cleanup per core parameters.">
<polygon fill="white" stroke="black" points="180.5,-80.5 180.5,-101.5 261.5,-101.5 261.5,-80.5 180.5,-80.5"/>
<text text-anchor="middle" x="221" y="-88.5" font-family="FreeSans" font-size="10.00">core_cleanup</text>
</a>
</g>
<!-- Node1&#45;&gt;Node12 -->
<g id="edge26" class="edge"><title>Node1&#45;&gt;Node12</title>
<path fill="none" stroke="midnightblue" d="M121.649,-130.218C146.04,-120.59 173.985,-109.559 194.012,-101.653"/>
<polygon fill="midnightblue" stroke="midnightblue" points="120.167,-127.04 112.151,-133.967 122.737,-133.551 120.167,-127.04"/>
</g>
<!-- Node14 -->
<g id="node29" class="node"><title>Node14</title>
<a xlink:href="hfa-se-nctx-lock_8c.html#a3c04138a5bfe5d72780bb7e82a18e627" target="_top" xlink:title="main">
<polygon fill="white" stroke="black" points="201,-40.5 201,-61.5 241,-61.5 241,-40.5 201,-40.5"/>
<text text-anchor="middle" x="221" y="-48.5" font-family="FreeSans" font-size="10.00">main</text>
</a>
</g>
<!-- Node1&#45;&gt;Node14 -->
<g id="edge30" class="edge"><title>Node1&#45;&gt;Node14</title>
<path fill="none" stroke="midnightblue" d="M96.1276,-127.316C116.584,-110.226 145.842,-87.3739 174,-71 182.433,-66.0966 192.296,-61.7144 200.804,-58.3108"/>
<polygon fill="midnightblue" stroke="midnightblue" points="93.8479,-124.66 88.4697,-133.789 98.3665,-130.006 93.8479,-124.66"/>
</g>
<!-- Node15 -->
<g id="node31" class="node"><title>Node15</title>
<a xlink:href="hfa-se-wqe-lock_8c.html#a06b5fcfab0e1d5eb36b633ec080ad7f9" target="_top" xlink:title="Process search for given contexts.">
<polygon fill="white" stroke="black" points="181,-0.5 181,-21.5 261,-21.5 261,-0.5 181,-0.5"/>
<text text-anchor="middle" x="221" y="-8.5" font-family="FreeSans" font-size="10.00">process_nctx</text>
</a>
</g>
<!-- Node1&#45;&gt;Node15 -->
<g id="edge32" class="edge"><title>Node1&#45;&gt;Node15</title>
<path fill="none" stroke="midnightblue" d="M86.1711,-125.292C105.039,-98.6939 137.55,-57.4174 174,-31 179.026,-27.3573 184.818,-24.2113 190.58,-21.5628"/>
<polygon fill="midnightblue" stroke="midnightblue" points="83.1533,-123.501 80.3094,-133.707 88.8971,-127.502 83.1533,-123.501"/>
</g>
<!-- Node3 -->
<g id="node5" class="node"><title>Node3</title>
<a xlink:href="hfa-lnx-async_8c.html#a1e97b1d598034fdc92d57054a6c386e6" target="_top" xlink:title="tasklet_callback">
<polygon fill="white" stroke="black" points="304,-308.5 304,-329.5 396,-329.5 396,-308.5 304,-308.5"/>
<text text-anchor="middle" x="350" y="-316.5" font-family="FreeSans" font-size="10.00">tasklet_callback</text>
</a>
</g>
<!-- Node2&#45;&gt;Node3 -->
<g id="edge4" class="edge"><title>Node2&#45;&gt;Node3</title>
<path fill="none" stroke="midnightblue" d="M276.485,-301.903C285.833,-304.077 295.438,-306.311 304.495,-308.418"/>
<polygon fill="midnightblue" stroke="midnightblue" points="277.013,-298.433 266.481,-299.577 275.428,-305.251 277.013,-298.433"/>
</g>
<!-- Node5 -->
<g id="node9" class="node"><title>Node5</title>
<a xlink:href="hfa-lnx-async_8c.html#a7dea7d59754828b1173c4c7ec5d42f3e" target="_top" xlink:title="thread_callback">
<polygon fill="white" stroke="black" points="304,-268.5 304,-289.5 396,-289.5 396,-268.5 304,-268.5"/>
<text text-anchor="middle" x="350" y="-276.5" font-family="FreeSans" font-size="10.00">thread_callback</text>
</a>
</g>
<!-- Node2&#45;&gt;Node5 -->
<g id="edge8" class="edge"><title>Node2&#45;&gt;Node5</title>
<path fill="none" stroke="midnightblue" d="M277.385,-284.629C286.168,-283.948 295.156,-283.252 303.681,-282.591"/>
<polygon fill="midnightblue" stroke="midnightblue" points="276.907,-281.156 267.208,-285.418 277.448,-288.135 276.907,-281.156"/>
</g>
<!-- Node4 -->
<g id="node7" class="node"><title>Node4</title>
<a xlink:href="hfa-lnx-async_8c.html#a78ffddbcd7cdd164889cfb53ea367886" target="_top" xlink:title="entry">
<polygon fill="white" stroke="black" points="432.5,-288.5 432.5,-309.5 473.5,-309.5 473.5,-288.5 432.5,-288.5"/>
<text text-anchor="middle" x="453" y="-296.5" font-family="FreeSans" font-size="10.00">entry</text>
</a>
</g>
<!-- Node3&#45;&gt;Node4 -->
<g id="edge6" class="edge"><title>Node3&#45;&gt;Node4</title>
<path fill="none" stroke="midnightblue" d="M405.972,-308.132C415.449,-306.292 424.722,-304.491 432.495,-302.982"/>
<polygon fill="midnightblue" stroke="midnightblue" points="405.227,-304.711 396.077,-310.053 406.561,-311.583 405.227,-304.711"/>
</g>
<!-- Node5&#45;&gt;Node4 -->
<g id="edge10" class="edge"><title>Node5&#45;&gt;Node4</title>
<path fill="none" stroke="midnightblue" d="M405.972,-289.868C415.449,-291.708 424.722,-293.509 432.495,-295.018"/>
<polygon fill="midnightblue" stroke="midnightblue" points="406.561,-286.417 396.077,-287.947 405.227,-293.289 406.561,-286.417"/>
</g>
<!-- Node6&#45;&gt;Node7 -->
<g id="edge14" class="edge"><title>Node6&#45;&gt;Node7</title>
<path fill="none" stroke="midnightblue" d="M278.299,-240.561C296.505,-237.879 315.485,-235.084 329.341,-233.043"/>
<polygon fill="midnightblue" stroke="midnightblue" points="277.686,-237.113 268.302,-242.033 278.706,-244.038 277.686,-237.113"/>
</g>
<!-- Node10 -->
<g id="node21" class="node"><title>Node10</title>
<a xlink:href="hfa-lnx-linkgraph_8c.html#a78ffddbcd7cdd164889cfb53ea367886" target="_top" xlink:title="entry">
<polygon fill="white" stroke="black" points="329.5,-160.5 329.5,-181.5 370.5,-181.5 370.5,-160.5 329.5,-160.5"/>
<text text-anchor="middle" x="350" y="-168.5" font-family="FreeSans" font-size="10.00">entry</text>
</a>
</g>
<!-- Node9&#45;&gt;Node10 -->
<g id="edge22" class="edge"><title>Node9&#45;&gt;Node10</title>
<path fill="none" stroke="midnightblue" d="M257.901,-142.442C281.09,-149.633 310.145,-158.642 329.35,-164.597"/>
<polygon fill="midnightblue" stroke="midnightblue" points="258.631,-139.004 248.043,-139.385 256.557,-145.69 258.631,-139.004"/>
</g>
<!-- Node11 -->
<g id="node23" class="node"><title>Node11</title>
<a xlink:href="hfa-lnx-linkgraph_8c.html#aaf98ef7cdde3a0dfb2e49919de3298b1" target="_top" xlink:title="exit">
<polygon fill="white" stroke="black" points="333.5,-120.5 333.5,-141.5 366.5,-141.5 366.5,-120.5 333.5,-120.5"/>
<text text-anchor="middle" x="350" y="-128.5" font-family="FreeSans" font-size="10.00">exit</text>
</a>
</g>
<!-- Node9&#45;&gt;Node11 -->
<g id="edge24" class="edge"><title>Node9&#45;&gt;Node11</title>
<path fill="none" stroke="midnightblue" d="M258.198,-131C282.965,-131 314.317,-131 333.233,-131"/>
<polygon fill="midnightblue" stroke="midnightblue" points="258.043,-127.5 248.043,-131 258.043,-134.5 258.043,-127.5"/>
</g>
<!-- Node13 -->
<g id="node27" class="node"><title>Node13</title>
<a xlink:href="hfa-se-async_8c.html#a3c04138a5bfe5d72780bb7e82a18e627" target="_top" xlink:title="main">
<polygon fill="white" stroke="black" points="330,-80.5 330,-101.5 370,-101.5 370,-80.5 330,-80.5"/>
<text text-anchor="middle" x="350" y="-88.5" font-family="FreeSans" font-size="10.00">main</text>
</a>
</g>
<!-- Node12&#45;&gt;Node13 -->
<g id="edge28" class="edge"><title>Node12&#45;&gt;Node13</title>
<path fill="none" stroke="midnightblue" d="M271.918,-91C292.25,-91 314.467,-91 329.985,-91"/>
<polygon fill="midnightblue" stroke="midnightblue" points="271.816,-87.5001 261.816,-91 271.816,-94.5001 271.816,-87.5001"/>
</g>
<!-- Node16 -->
<g id="node33" class="node"><title>Node16</title>
<a xlink:href="hfa-se-wqe-lock_8c.html#a3c04138a5bfe5d72780bb7e82a18e627" target="_top" xlink:title="main">
<polygon fill="white" stroke="black" points="330,-0.5 330,-21.5 370,-21.5 370,-0.5 330,-0.5"/>
<text text-anchor="middle" x="350" y="-8.5" font-family="FreeSans" font-size="10.00">main</text>
</a>
</g>
<!-- Node15&#45;&gt;Node16 -->
<g id="edge34" class="edge"><title>Node15&#45;&gt;Node16</title>
<path fill="none" stroke="midnightblue" d="M271.243,-11C291.658,-11 314.079,-11 329.76,-11"/>
<polygon fill="midnightblue" stroke="midnightblue" points="271.109,-7.5001 261.109,-11 271.109,-14.5001 271.109,-7.5001"/>
</g>
</g>
</svg>
