<?xml version="1.0" encoding="UTF-8" standalone="no"?>
<!DOCTYPE svg PUBLIC "-//W3C//DTD SVG 1.1//EN"
 "http://www.w3.org/Graphics/SVG/1.1/DTD/svg11.dtd">
<!-- Generated by graphviz version 2.24.0 (20090616.2323)
 -->
<!-- Title: hfautils_printstats Pages: 1 -->
<svg width="318pt" height="110pt"
 viewBox="0.00 0.00 318.00 110.00" xmlns="http://www.w3.org/2000/svg" xmlns:xlink="http://www.w3.org/1999/xlink">
<g id="graph1" class="graph" transform="scale(1 1) rotate(0) translate(4 106)">
<title>hfautils_printstats</title>
<polygon fill="white" stroke="white" points="-4,5 -4,-106 315,-106 315,5 -4,5"/>
<!-- Node1 -->
<g id="node1" class="node"><title>Node1</title>
<polygon fill="#bfbfbf" stroke="black" points="0.5,-40.5 0.5,-61.5 99.5,-61.5 99.5,-40.5 0.5,-40.5"/>
<text text-anchor="middle" x="50" y="-48.5" font-family="FreeSans" font-size="10.00">hfautils_printstats</text>
</g>
<!-- Node2 -->
<g id="node3" class="node"><title>Node2</title>
<a xlink:href="hfa-lnx-ctx_8c.html#a98ccfafda9b48c2df611a6846ac1bf42" target="_top" xlink:title="printstats">
<polygon fill="white" stroke="black" points="154,-80.5 154,-101.5 214,-101.5 214,-80.5 154,-80.5"/>
<text text-anchor="middle" x="184" y="-88.5" font-family="FreeSans" font-size="10.00">printstats</text>
</a>
</g>
<!-- Node1&#45;&gt;Node2 -->
<g id="edge2" class="edge"><title>Node1&#45;&gt;Node2</title>
<path fill="none" stroke="midnightblue" d="M94.9961,-64.4317C114.267,-70.1842 136.27,-76.7523 153.578,-81.9187"/>
<polygon fill="midnightblue" stroke="midnightblue" points="95.7903,-61.0162 85.2069,-61.5095 93.788,-67.7237 95.7903,-61.0162"/>
</g>
<!-- Node4 -->
<g id="node7" class="node"><title>Node4</title>
<a xlink:href="hfa-lnx-ctx_8c.html#a97df0ba8293c1b8436547946fd9d0d17" target="_top" xlink:title="process_pkt">
<polygon fill="white" stroke="black" points="147,-40.5 147,-61.5 221,-61.5 221,-40.5 147,-40.5"/>
<text text-anchor="middle" x="184" y="-48.5" font-family="FreeSans" font-size="10.00">process_pkt</text>
</a>
</g>
<!-- Node1&#45;&gt;Node4 -->
<g id="edge6" class="edge"><title>Node1&#45;&gt;Node4</title>
<path fill="none" stroke="midnightblue" d="M109.571,-51C122.249,-51 135.286,-51 146.836,-51"/>
<polygon fill="midnightblue" stroke="midnightblue" points="109.516,-47.5001 99.5159,-51 109.516,-54.5001 109.516,-47.5001"/>
</g>
<!-- Node5 -->
<g id="node9" class="node"><title>Node5</title>
<a xlink:href="hfa-se-flow_8c.html#aba72a61590283e37ffd78b4defd38220" target="_top" xlink:title="Receive network packets and process.">
<polygon fill="white" stroke="black" points="136,-0.5 136,-21.5 232,-21.5 232,-0.5 136,-0.5"/>
<text text-anchor="middle" x="184" y="-8.5" font-family="FreeSans" font-size="10.00">process_packets</text>
</a>
</g>
<!-- Node1&#45;&gt;Node5 -->
<g id="edge8" class="edge"><title>Node1&#45;&gt;Node5</title>
<path fill="none" stroke="midnightblue" d="M95.1626,-37.5186C112.575,-32.3208 132.197,-26.4635 148.563,-21.5782"/>
<polygon fill="midnightblue" stroke="midnightblue" points="93.788,-34.2763 85.2069,-40.4905 95.7903,-40.9838 93.788,-34.2763"/>
</g>
<!-- Node3 -->
<g id="node5" class="node"><title>Node3</title>
<a xlink:href="hfa-lnx-ctx_8c.html#a78ffddbcd7cdd164889cfb53ea367886" target="_top" xlink:title="entry">
<polygon fill="white" stroke="black" points="268.5,-80.5 268.5,-101.5 309.5,-101.5 309.5,-80.5 268.5,-80.5"/>
<text text-anchor="middle" x="289" y="-88.5" font-family="FreeSans" font-size="10.00">entry</text>
</a>
</g>
<!-- Node2&#45;&gt;Node3 -->
<g id="edge4" class="edge"><title>Node2&#45;&gt;Node3</title>
<path fill="none" stroke="midnightblue" d="M224.196,-91C239.218,-91 255.663,-91 268.229,-91"/>
<polygon fill="midnightblue" stroke="midnightblue" points="224.089,-87.5001 214.089,-91 224.089,-94.5001 224.089,-87.5001"/>
</g>
<!-- Node6 -->
<g id="node11" class="node"><title>Node6</title>
<a xlink:href="hfa-se-flow-wqe_8c.html#a3c04138a5bfe5d72780bb7e82a18e627" target="_top" xlink:title="Implementation.">
<polygon fill="white" stroke="black" points="269,-0.5 269,-21.5 309,-21.5 309,-0.5 269,-0.5"/>
<text text-anchor="middle" x="289" y="-8.5" font-family="FreeSans" font-size="10.00">main</text>
</a>
</g>
<!-- Node5&#45;&gt;Node6 -->
<g id="edge10" class="edge"><title>Node5&#45;&gt;Node6</title>
<path fill="none" stroke="midnightblue" d="M242.221,-11C251.801,-11 261.125,-11 268.895,-11"/>
<polygon fill="midnightblue" stroke="midnightblue" points="242.198,-7.5001 232.198,-11 242.198,-14.5001 242.198,-7.5001"/>
</g>
</g>
</svg>
