<?xml version="1.0" encoding="UTF-8" standalone="no"?>
<!DOCTYPE svg PUBLIC "-//W3C//DTD SVG 1.1//EN"
 "http://www.w3.org/Graphics/SVG/1.1/DTD/svg11.dtd">
<!-- Generated by graphviz version 2.24.0 (20090616.2323)
 -->
<!-- Title: hfautils_file_size Pages: 1 -->
<svg width="486pt" height="110pt"
 viewBox="0.00 0.00 486.00 110.00" xmlns="http://www.w3.org/2000/svg" xmlns:xlink="http://www.w3.org/1999/xlink">
<g id="graph1" class="graph" transform="scale(1 1) rotate(0) translate(4 106)">
<title>hfautils_file_size</title>
<polygon fill="white" stroke="white" points="-4,5 -4,-106 483,-106 483,5 -4,5"/>
<!-- Node1 -->
<g id="node1" class="node"><title>Node1</title>
<polygon fill="#bfbfbf" stroke="black" points="0.5,-40.5 0.5,-61.5 95.5,-61.5 95.5,-40.5 0.5,-40.5"/>
<text text-anchor="middle" x="48" y="-48.5" font-family="FreeSans" font-size="10.00">hfautils_file_size</text>
</g>
<!-- Node2 -->
<g id="node3" class="node"><title>Node2</title>
<a xlink:href="app-utils_8c.html#ae04c31b3e2ff1468333729059052375c" target="_top" xlink:title="Parse command line arguments.">
<polygon fill="white" stroke="black" points="132,-80.5 132,-101.5 272,-101.5 272,-80.5 132,-80.5"/>
<text text-anchor="middle" x="202" y="-88.5" font-family="FreeSans" font-size="10.00">hfautils_parse_arguments</text>
</a>
</g>
<!-- Node1&#45;&gt;Node2 -->
<g id="edge2" class="edge"><title>Node1&#45;&gt;Node2</title>
<path fill="none" stroke="midnightblue" d="M98.266,-64.0561C118.772,-69.3823 142.166,-75.4587 161.541,-80.4913"/>
<polygon fill="midnightblue" stroke="midnightblue" points="99.0204,-60.636 88.4617,-61.5095 97.2606,-67.4112 99.0204,-60.636"/>
</g>
<!-- Node5 -->
<g id="node9" class="node"><title>Node5</title>
<a xlink:href="hfa-lnx-async_8c.html#a4c3443f524b4c0d95639694f0b74e850" target="_top" xlink:title="Process command line options, Read graph and payload.">
<polygon fill="white" stroke="black" points="155,-40.5 155,-61.5 249,-61.5 249,-40.5 155,-40.5"/>
<text text-anchor="middle" x="202" y="-48.5" font-family="FreeSans" font-size="10.00">process_options</text>
</a>
</g>
<!-- Node1&#45;&gt;Node5 -->
<g id="edge8" class="edge"><title>Node1&#45;&gt;Node5</title>
<path fill="none" stroke="midnightblue" d="M106.252,-51C122.334,-51 139.579,-51 154.94,-51"/>
<polygon fill="midnightblue" stroke="midnightblue" points="105.882,-47.5001 95.8824,-51 105.882,-54.5001 105.882,-47.5001"/>
</g>
<!-- Node7 -->
<g id="node13" class="node"><title>Node7</title>
<a xlink:href="hfa-se-ngraphs_8c.html#aec36c5b3621964d19698bd5331990827" target="_top" xlink:title="Allocate memory to store graph pointers and graph size and read graphs.">
<polygon fill="white" stroke="black" points="161,-0.5 161,-21.5 243,-21.5 243,-0.5 161,-0.5"/>
<text text-anchor="middle" x="202" y="-8.5" font-family="FreeSans" font-size="10.00">ngraphs_read</text>
</a>
</g>
<!-- Node1&#45;&gt;Node7 -->
<g id="edge12" class="edge"><title>Node1&#45;&gt;Node7</title>
<path fill="none" stroke="midnightblue" d="M98.266,-37.9439C118.772,-32.6177 142.166,-26.5413 161.541,-21.5087"/>
<polygon fill="midnightblue" stroke="midnightblue" points="97.2606,-34.5888 88.4617,-40.4905 99.0204,-41.364 97.2606,-34.5888"/>
</g>
<!-- Node3 -->
<g id="node5" class="node"><title>Node3</title>
<a xlink:href="hfa-se-async_8c.html#ab42726e951c529a41b8e09fd6e84ada2" target="_top" xlink:title="Process command line options, and read graph.">
<polygon fill="white" stroke="black" points="308,-80.5 308,-101.5 402,-101.5 402,-80.5 308,-80.5"/>
<text text-anchor="middle" x="355" y="-88.5" font-family="FreeSans" font-size="10.00">process_options</text>
</a>
</g>
<!-- Node2&#45;&gt;Node3 -->
<g id="edge4" class="edge"><title>Node2&#45;&gt;Node3</title>
<path fill="none" stroke="midnightblue" d="M282.461,-91C291.172,-91 299.814,-91 307.935,-91"/>
<polygon fill="midnightblue" stroke="midnightblue" points="282.231,-87.5001 272.231,-91 282.231,-94.5001 282.231,-87.5001"/>
</g>
<!-- Node4 -->
<g id="node7" class="node"><title>Node4</title>
<a xlink:href="hfa-se-async_8c.html#a3c04138a5bfe5d72780bb7e82a18e627" target="_top" xlink:title="main">
<polygon fill="white" stroke="black" points="438,-80.5 438,-101.5 478,-101.5 478,-80.5 438,-80.5"/>
<text text-anchor="middle" x="458" y="-88.5" font-family="FreeSans" font-size="10.00">main</text>
</a>
</g>
<!-- Node3&#45;&gt;Node4 -->
<g id="edge6" class="edge"><title>Node3&#45;&gt;Node4</title>
<path fill="none" stroke="midnightblue" d="M412.532,-91C421.572,-91 430.36,-91 437.762,-91"/>
<polygon fill="midnightblue" stroke="midnightblue" points="412.28,-87.5001 402.28,-91 412.28,-94.5001 412.28,-87.5001"/>
</g>
<!-- Node6 -->
<g id="node11" class="node"><title>Node6</title>
<a xlink:href="hfa-lnx-async_8c.html#a78ffddbcd7cdd164889cfb53ea367886" target="_top" xlink:title="entry">
<polygon fill="white" stroke="black" points="334.5,-40.5 334.5,-61.5 375.5,-61.5 375.5,-40.5 334.5,-40.5"/>
<text text-anchor="middle" x="355" y="-48.5" font-family="FreeSans" font-size="10.00">entry</text>
</a>
</g>
<!-- Node5&#45;&gt;Node6 -->
<g id="edge10" class="edge"><title>Node5&#45;&gt;Node6</title>
<path fill="none" stroke="midnightblue" d="M259.386,-51C285.585,-51 314.979,-51 334.174,-51"/>
<polygon fill="midnightblue" stroke="midnightblue" points="259.154,-47.5001 249.153,-51 259.153,-54.5001 259.154,-47.5001"/>
</g>
<!-- Node8 -->
<g id="node15" class="node"><title>Node8</title>
<a xlink:href="hfa-se-ngraphs_8c.html#ab42726e951c529a41b8e09fd6e84ada2" target="_top" xlink:title="Process command line options, read graph.">
<polygon fill="white" stroke="black" points="308,-0.5 308,-21.5 402,-21.5 402,-0.5 308,-0.5"/>
<text text-anchor="middle" x="355" y="-8.5" font-family="FreeSans" font-size="10.00">process_options</text>
</a>
</g>
<!-- Node7&#45;&gt;Node8 -->
<g id="edge14" class="edge"><title>Node7&#45;&gt;Node8</title>
<path fill="none" stroke="midnightblue" d="M253.15,-11C270.844,-11 290.577,-11 307.928,-11"/>
<polygon fill="midnightblue" stroke="midnightblue" points="253.001,-7.5001 243.001,-11 253.001,-14.5001 253.001,-7.5001"/>
</g>
<!-- Node9 -->
<g id="node17" class="node"><title>Node9</title>
<a xlink:href="hfa-se-ngraphs_8c.html#a3c04138a5bfe5d72780bb7e82a18e627" target="_top" xlink:title="main">
<polygon fill="white" stroke="black" points="438,-0.5 438,-21.5 478,-21.5 478,-0.5 438,-0.5"/>
<text text-anchor="middle" x="458" y="-8.5" font-family="FreeSans" font-size="10.00">main</text>
</a>
</g>
<!-- Node8&#45;&gt;Node9 -->
<g id="edge16" class="edge"><title>Node8&#45;&gt;Node9</title>
<path fill="none" stroke="midnightblue" d="M412.532,-11C421.572,-11 430.36,-11 437.762,-11"/>
<polygon fill="midnightblue" stroke="midnightblue" points="412.28,-7.5001 402.28,-11 412.28,-14.5001 412.28,-7.5001"/>
</g>
</g>
</svg>
