<?xml version="1.0" encoding="UTF-8" standalone="no"?>
<!DOCTYPE svg PUBLIC "-//W3C//DTD SVG 1.1//EN"
 "http://www.w3.org/Graphics/SVG/1.1/DTD/svg11.dtd">
<!-- Generated by graphviz version 2.24.0 (20090616.2323)
 -->
<!-- Title: hfautils_print_matches Pages: 1 -->
<svg width="370pt" height="70pt"
 viewBox="0.00 0.00 370.00 70.00" xmlns="http://www.w3.org/2000/svg" xmlns:xlink="http://www.w3.org/1999/xlink">
<g id="graph1" class="graph" transform="scale(1 1) rotate(0) translate(4 66)">
<title>hfautils_print_matches</title>
<polygon fill="white" stroke="white" points="-4,5 -4,-66 367,-66 367,5 -4,5"/>
<!-- Node1 -->
<g id="node1" class="node"><title>Node1</title>
<polygon fill="#bfbfbf" stroke="black" points="0,-20.5 0,-41.5 124,-41.5 124,-20.5 0,-20.5"/>
<text text-anchor="middle" x="62" y="-28.5" font-family="FreeSans" font-size="10.00">hfautils_print_matches</text>
</g>
<!-- Node2 -->
<g id="node3" class="node"><title>Node2</title>
<a xlink:href="cvm-hfa-search_8c.html#a0ac0bca99358ad294a18f86696acf218" target="_top" xlink:title="This routine returns a match by parsing through the match buffer.">
<polygon fill="white" stroke="black" points="178,-40.5 178,-61.5 266,-61.5 266,-40.5 178,-40.5"/>
<text text-anchor="middle" x="222" y="-48.5" font-family="FreeSans" font-size="10.00">hfa_match_get</text>
</a>
</g>
<!-- Node1&#45;&gt;Node2 -->
<g id="edge2" class="edge"><title>Node1&#45;&gt;Node2</title>
<path fill="none" stroke="midnightblue" d="M124.318,-38.7898C138.722,-40.5903 153.931,-42.4914 167.948,-44.2435"/>
<polygon fill="midnightblue" stroke="midnightblue" points="167.558,-47.722 177.915,-45.4894 168.427,-40.776 167.558,-47.722"/>
</g>
<!-- Node3 -->
<g id="node5" class="node"><title>Node3</title>
<a xlink:href="cvm-hfa-search_8c.html#a543990bc2a5e1726298e5053391e3bf5" target="_top" xlink:title="This routine cleans&#45;up the match&#45;buffers allocated by hfa_searchctx_getmatches().">
<polygon fill="white" stroke="black" points="160.5,-0.5 160.5,-21.5 283.5,-21.5 283.5,-0.5 160.5,-0.5"/>
<text text-anchor="middle" x="222" y="-8.5" font-family="FreeSans" font-size="10.00">hfa_matches_cleanup</text>
</a>
</g>
<!-- Node1&#45;&gt;Node3 -->
<g id="edge4" class="edge"><title>Node1&#45;&gt;Node3</title>
<path fill="none" stroke="midnightblue" d="M124.318,-23.2102C132.832,-22.146 141.628,-21.0466 150.292,-19.9635"/>
<polygon fill="midnightblue" stroke="midnightblue" points="150.889,-23.4162 160.378,-18.7028 150.021,-16.4703 150.889,-23.4162"/>
</g>
<!-- Node4 -->
<g id="node7" class="node"><title>Node4</title>
<a xlink:href="cvm-hfa-res_8c.html#a78813e2d747c1d659277b705ebdffc50" target="_top" xlink:title="Rfree">
<polygon fill="white" stroke="black" points="320,-0.5 320,-21.5 362,-21.5 362,-0.5 320,-0.5"/>
<text text-anchor="middle" x="341" y="-8.5" font-family="FreeSans" font-size="10.00">Rfree</text>
</a>
</g>
<!-- Node3&#45;&gt;Node4 -->
<g id="edge6" class="edge"><title>Node3&#45;&gt;Node4</title>
<path fill="none" stroke="midnightblue" d="M283.591,-11C292.661,-11 301.666,-11 309.761,-11"/>
<polygon fill="midnightblue" stroke="midnightblue" points="309.809,-14.5001 319.809,-11 309.809,-7.5001 309.809,-14.5001"/>
</g>
</g>
</svg>
