<?xml version="1.0" encoding="UTF-8" standalone="no"?>
<!DOCTYPE svg PUBLIC "-//W3C//DTD SVG 1.1//EN"
 "http://www.w3.org/Graphics/SVG/1.1/DTD/svg11.dtd">
<!-- Generated by graphviz version 2.24.0 (20090616.2323)
 -->
<!-- Title: hfautils_read_file Pages: 1 -->
<svg width="250pt" height="70pt"
 viewBox="0.00 0.00 250.00 70.00" xmlns="http://www.w3.org/2000/svg" xmlns:xlink="http://www.w3.org/1999/xlink">
<g id="graph1" class="graph" transform="scale(1 1) rotate(0) translate(4 66)">
<title>hfautils_read_file</title>
<polygon fill="white" stroke="white" points="-4,5 -4,-66 247,-66 247,5 -4,5"/>
<!-- Node1 -->
<g id="node1" class="node"><title>Node1</title>
<polygon fill="#bfbfbf" stroke="black" points="0.5,-20.5 0.5,-41.5 97.5,-41.5 97.5,-20.5 0.5,-20.5"/>
<text text-anchor="middle" x="49" y="-28.5" font-family="FreeSans" font-size="10.00">hfautils_read_file</text>
</g>
<!-- Node2 -->
<g id="node3" class="node"><title>Node2</title>
<a xlink:href="app-utils_8c.html#a7fbf4d982c3e4493bda83be020e7274c" target="_top" xlink:title="Read file data from a gzip&#45;stream(compressed or uncompressed).">
<polygon fill="white" stroke="black" points="161.5,-40.5 161.5,-61.5 214.5,-61.5 214.5,-40.5 161.5,-40.5"/>
<text text-anchor="middle" x="188" y="-48.5" font-family="FreeSans" font-size="10.00">fd_read</text>
</a>
</g>
<!-- Node1&#45;&gt;Node2 -->
<g id="edge2" class="edge"><title>Node1&#45;&gt;Node2</title>
<path fill="none" stroke="midnightblue" d="M97.6155,-37.995C115.212,-40.5269 134.778,-43.3421 151.192,-45.7039"/>
<polygon fill="midnightblue" stroke="midnightblue" points="151.075,-49.223 161.472,-47.183 152.072,-42.2944 151.075,-49.223"/>
</g>
<!-- Node3 -->
<g id="node5" class="node"><title>Node3</title>
<a xlink:href="cvmx-hfa_8c.html#a3db44a30b1033c1ab4ac64bac81a41f6" target="_top" xlink:title="hfa_bootmem_free">
<polygon fill="white" stroke="black" points="134,-0.5 134,-21.5 242,-21.5 242,-0.5 134,-0.5"/>
<text text-anchor="middle" x="188" y="-8.5" font-family="FreeSans" font-size="10.00">hfa_bootmem_free</text>
</a>
</g>
<!-- Node1&#45;&gt;Node3 -->
<g id="edge4" class="edge"><title>Node1&#45;&gt;Node3</title>
<path fill="none" stroke="midnightblue" d="M97.6155,-24.005C106.148,-22.7773 115.143,-21.4831 124.017,-20.2062"/>
<polygon fill="midnightblue" stroke="midnightblue" points="124.555,-23.665 133.954,-18.7764 123.558,-16.7363 124.555,-23.665"/>
</g>
</g>
</svg>
