<?xml version="1.0" encoding="UTF-8" standalone="no"?>
<!DOCTYPE svg PUBLIC "-//W3C//DTD SVG 1.1//EN"
 "http://www.w3.org/Graphics/SVG/1.1/DTD/svg11.dtd">
<!-- Generated by graphviz version 2.24.0 (20090616.2323)
 -->
<!-- Title: fd_read Pages: 1 -->
<svg width="634pt" height="309pt"
 viewBox="0.00 0.00 634.00 309.00" xmlns="http://www.w3.org/2000/svg" xmlns:xlink="http://www.w3.org/1999/xlink">
<g id="graph1" class="graph" transform="scale(1 1) rotate(0) translate(4 305)">
<title>fd_read</title>
<polygon fill="white" stroke="white" points="-4,5 -4,-305 631,-305 631,5 -4,5"/>
<!-- Node1 -->
<g id="node1" class="node"><title>Node1</title>
<polygon fill="#bfbfbf" stroke="black" points="0.5,-150.5 0.5,-171.5 53.5,-171.5 53.5,-150.5 0.5,-150.5"/>
<text text-anchor="middle" x="27" y="-158.5" font-family="FreeSans" font-size="10.00">fd_read</text>
</g>
<!-- Node2 -->
<g id="node3" class="node"><title>Node2</title>
<a xlink:href="app-utils_8c.html#a12339c67618c4b3a54c32f43d378c273" target="_top" xlink:title="Read data from a file to a buffer(compressed or uncompressed).">
<polygon fill="white" stroke="black" points="104.5,-239.5 104.5,-260.5 201.5,-260.5 201.5,-239.5 104.5,-239.5"/>
<text text-anchor="middle" x="153" y="-247.5" font-family="FreeSans" font-size="10.00">hfautils_read_file</text>
</a>
</g>
<!-- Node1&#45;&gt;Node2 -->
<g id="edge2" class="edge"><title>Node1&#45;&gt;Node2</title>
<path fill="none" stroke="midnightblue" d="M50.3469,-177.491C75.9862,-195.601 116.39,-224.14 138.071,-239.455"/>
<polygon fill="midnightblue" stroke="midnightblue" points="52.1358,-174.47 41.9486,-171.559 48.0973,-180.187 52.1358,-174.47"/>
</g>
<!-- Node8 -->
<g id="node15" class="node"><title>Node8</title>
<a xlink:href="app-utils_8c.html#a1944a739d03e86dcaee1a7d245cfeba0" target="_top" xlink:title="Initialize the attributes needed for parsing the payload file.">
<polygon fill="white" stroke="black" points="96.5,-144 96.5,-178 209.5,-178 209.5,-144 96.5,-144"/>
<text text-anchor="start" x="104.5" y="-165" font-family="FreeSans" font-size="10.00">hfautils_init_payload</text>
<text text-anchor="middle" x="153" y="-152" font-family="FreeSans" font-size="10.00">_attributes</text>
</a>
</g>
<!-- Node1&#45;&gt;Node8 -->
<g id="edge14" class="edge"><title>Node1&#45;&gt;Node8</title>
<path fill="none" stroke="midnightblue" d="M63.8439,-161C73.9947,-161 85.2471,-161 96.2432,-161"/>
<polygon fill="midnightblue" stroke="midnightblue" points="63.7214,-157.5 53.7214,-161 63.7213,-164.5 63.7214,-157.5"/>
</g>
<!-- Node17 -->
<g id="node35" class="node"><title>Node17</title>
<a xlink:href="app-utils_8c.html#a4b47f3c9c5a0b3eaee64e264171628a3" target="_top" xlink:title="This routine reads data of chunksize/a packet from given payload(Normal/PCAP) file and returns data b...">
<polygon fill="white" stroke="black" points="90,-88.5 90,-109.5 216,-109.5 216,-88.5 90,-88.5"/>
<text text-anchor="middle" x="153" y="-96.5" font-family="FreeSans" font-size="10.00">hfautils_parse_payload</text>
</a>
</g>
<!-- Node1&#45;&gt;Node17 -->
<g id="edge36" class="edge"><title>Node1&#45;&gt;Node17</title>
<path fill="none" stroke="midnightblue" d="M57.6472,-145.92C80.5238,-134.663 111.212,-119.563 131.521,-109.569"/>
<polygon fill="midnightblue" stroke="midnightblue" points="55.8015,-142.927 48.3742,-150.483 58.8921,-149.208 55.8015,-142.927"/>
</g>
<!-- Node3 -->
<g id="node5" class="node"><title>Node3</title>
<a xlink:href="hfa-lnx-async_8c.html#a4c3443f524b4c0d95639694f0b74e850" target="_top" xlink:title="Process command line options, Read graph and payload.">
<polygon fill="white" stroke="black" points="434,-239.5 434,-260.5 528,-260.5 528,-239.5 434,-239.5"/>
<text text-anchor="middle" x="481" y="-247.5" font-family="FreeSans" font-size="10.00">process_options</text>
</a>
</g>
<!-- Node2&#45;&gt;Node3 -->
<g id="edge4" class="edge"><title>Node2&#45;&gt;Node3</title>
<path fill="none" stroke="midnightblue" d="M212.01,-250C275.54,-250 375.334,-250 433.846,-250"/>
<polygon fill="midnightblue" stroke="midnightblue" points="211.751,-246.5 201.751,-250 211.751,-253.5 211.751,-246.5"/>
</g>
<!-- Node5 -->
<g id="node9" class="node"><title>Node5</title>
<a xlink:href="hfa-se-ngraphs_8c.html#aec36c5b3621964d19698bd5331990827" target="_top" xlink:title="Allocate memory to store graph pointers and graph size and read graphs.">
<polygon fill="white" stroke="black" points="274,-278.5 274,-299.5 356,-299.5 356,-278.5 274,-278.5"/>
<text text-anchor="middle" x="315" y="-286.5" font-family="FreeSans" font-size="10.00">ngraphs_read</text>
</a>
</g>
<!-- Node2&#45;&gt;Node5 -->
<g id="edge8" class="edge"><title>Node2&#45;&gt;Node5</title>
<path fill="none" stroke="midnightblue" d="M206.664,-262.919C228.569,-268.192 253.495,-274.193 273.911,-279.108"/>
<polygon fill="midnightblue" stroke="midnightblue" points="207.381,-259.492 196.84,-260.554 205.743,-266.297 207.381,-259.492"/>
</g>
<!-- Node4 -->
<g id="node7" class="node"><title>Node4</title>
<a xlink:href="hfa-lnx-async_8c.html#a78ffddbcd7cdd164889cfb53ea367886" target="_top" xlink:title="entry">
<polygon fill="white" stroke="black" points="584.5,-199.5 584.5,-220.5 625.5,-220.5 625.5,-199.5 584.5,-199.5"/>
<text text-anchor="middle" x="605" y="-207.5" font-family="FreeSans" font-size="10.00">entry</text>
</a>
</g>
<!-- Node3&#45;&gt;Node4 -->
<g id="edge6" class="edge"><title>Node3&#45;&gt;Node4</title>
<path fill="none" stroke="midnightblue" d="M527.544,-236.417C534.42,-234.32 541.406,-232.14 548,-230 560.07,-226.083 573.464,-221.401 584.234,-217.552"/>
<polygon fill="midnightblue" stroke="midnightblue" points="526.172,-233.175 517.609,-239.413 528.193,-239.876 526.172,-233.175"/>
</g>
<!-- Node6 -->
<g id="node11" class="node"><title>Node6</title>
<a xlink:href="hfa-se-ngraphs_8c.html#ab42726e951c529a41b8e09fd6e84ada2" target="_top" xlink:title="Process command line options, read graph.">
<polygon fill="white" stroke="black" points="434,-279.5 434,-300.5 528,-300.5 528,-279.5 434,-279.5"/>
<text text-anchor="middle" x="481" y="-287.5" font-family="FreeSans" font-size="10.00">process_options</text>
</a>
</g>
<!-- Node5&#45;&gt;Node6 -->
<g id="edge10" class="edge"><title>Node5&#45;&gt;Node6</title>
<path fill="none" stroke="midnightblue" d="M366.037,-289.307C387.695,-289.438 412.781,-289.589 433.982,-289.717"/>
<polygon fill="midnightblue" stroke="midnightblue" points="366.055,-285.808 356.034,-289.247 366.012,-292.807 366.055,-285.808"/>
</g>
<!-- Node7 -->
<g id="node13" class="node"><title>Node7</title>
<a xlink:href="hfa-se-ngraphs_8c.html#a3c04138a5bfe5d72780bb7e82a18e627" target="_top" xlink:title="main">
<polygon fill="white" stroke="black" points="585,-279.5 585,-300.5 625,-300.5 625,-279.5 585,-279.5"/>
<text text-anchor="middle" x="605" y="-287.5" font-family="FreeSans" font-size="10.00">main</text>
</a>
</g>
<!-- Node6&#45;&gt;Node7 -->
<g id="edge12" class="edge"><title>Node6&#45;&gt;Node7</title>
<path fill="none" stroke="midnightblue" d="M538.468,-290C555.065,-290 572.098,-290 584.774,-290"/>
<polygon fill="midnightblue" stroke="midnightblue" points="538.233,-286.5 528.233,-290 538.233,-293.5 538.233,-286.5"/>
</g>
<!-- Node9 -->
<g id="node17" class="node"><title>Node9</title>
<a xlink:href="hfa-lnx-async_8c.html#a972f8b60ef804914c009c2ef85bac50e" target="_top" xlink:title="Process search for given payload and graph.">
<polygon fill="white" stroke="black" points="269,-198.5 269,-219.5 361,-219.5 361,-198.5 269,-198.5"/>
<text text-anchor="middle" x="315" y="-206.5" font-family="FreeSans" font-size="10.00">process_search</text>
</a>
</g>
<!-- Node8&#45;&gt;Node9 -->
<g id="edge16" class="edge"><title>Node8&#45;&gt;Node9</title>
<path fill="none" stroke="midnightblue" d="M219.308,-180.647C239.868,-186.739 261.734,-193.218 279.367,-198.442"/>
<polygon fill="midnightblue" stroke="midnightblue" points="220.242,-177.273 209.66,-177.788 218.253,-183.985 220.242,-177.273"/>
</g>
<!-- Node12 -->
<g id="node25" class="node"><title>Node12</title>
<a xlink:href="hfa-lnx-ctx_8c.html#a4c3443f524b4c0d95639694f0b74e850" target="_top" xlink:title="Process command line options, Read graph and payload.">
<polygon fill="white" stroke="black" points="434,-119.5 434,-140.5 528,-140.5 528,-119.5 434,-119.5"/>
<text text-anchor="middle" x="481" y="-127.5" font-family="FreeSans" font-size="10.00">process_options</text>
</a>
</g>
<!-- Node8&#45;&gt;Node12 -->
<g id="edge26" class="edge"><title>Node8&#45;&gt;Node12</title>
<path fill="none" stroke="midnightblue" d="M219.805,-160.768C264.687,-159.941 325.077,-157.53 378,-151 397.561,-148.586 418.95,-144.472 437.142,-140.521"/>
<polygon fill="midnightblue" stroke="midnightblue" points="219.551,-157.271 209.61,-160.933 219.665,-164.27 219.551,-157.271"/>
</g>
<!-- Node14 -->
<g id="node29" class="node"><title>Node14</title>
<a xlink:href="hfa-se-async_8c.html#a3c04138a5bfe5d72780bb7e82a18e627" target="_top" xlink:title="main">
<polygon fill="white" stroke="black" points="295,-120.5 295,-141.5 335,-141.5 335,-120.5 295,-120.5"/>
<text text-anchor="middle" x="315" y="-128.5" font-family="FreeSans" font-size="10.00">main</text>
</a>
</g>
<!-- Node8&#45;&gt;Node14 -->
<g id="edge30" class="edge"><title>Node8&#45;&gt;Node14</title>
<path fill="none" stroke="midnightblue" d="M219.508,-148.684C246.575,-143.671 275.875,-138.245 294.78,-134.745"/>
<polygon fill="midnightblue" stroke="midnightblue" points="218.855,-145.245 209.66,-150.507 220.13,-152.128 218.855,-145.245"/>
</g>
<!-- Node15 -->
<g id="node31" class="node"><title>Node15</title>
<a xlink:href="hfa-se-wqe-lock_8c.html#a06b5fcfab0e1d5eb36b633ec080ad7f9" target="_top" xlink:title="Process search for given contexts.">
<polygon fill="white" stroke="black" points="275,-80.5 275,-101.5 355,-101.5 355,-80.5 275,-80.5"/>
<text text-anchor="middle" x="315" y="-88.5" font-family="FreeSans" font-size="10.00">process_nctx</text>
</a>
</g>
<!-- Node8&#45;&gt;Node15 -->
<g id="edge32" class="edge"><title>Node8&#45;&gt;Node15</title>
<path fill="none" stroke="midnightblue" d="M192.587,-139.175C210.433,-129.816 231.961,-119.18 252,-111 260.393,-107.574 269.606,-104.358 278.333,-101.548"/>
<polygon fill="midnightblue" stroke="midnightblue" points="190.811,-136.154 183.617,-143.932 194.092,-142.338 190.811,-136.154"/>
</g>
<!-- Node10 -->
<g id="node19" class="node"><title>Node10</title>
<a xlink:href="hfa-lnx-async_8c.html#a1e97b1d598034fdc92d57054a6c386e6" target="_top" xlink:title="tasklet_callback">
<polygon fill="white" stroke="black" points="435,-199.5 435,-220.5 527,-220.5 527,-199.5 435,-199.5"/>
<text text-anchor="middle" x="481" y="-207.5" font-family="FreeSans" font-size="10.00">tasklet_callback</text>
</a>
</g>
<!-- Node9&#45;&gt;Node10 -->
<g id="edge18" class="edge"><title>Node9&#45;&gt;Node10</title>
<path fill="none" stroke="midnightblue" d="M371.447,-209.34C392.054,-209.464 415.101,-209.603 434.72,-209.721"/>
<polygon fill="midnightblue" stroke="midnightblue" points="371.261,-205.839 361.24,-209.279 371.219,-212.839 371.261,-205.839"/>
</g>
<!-- Node11 -->
<g id="node22" class="node"><title>Node11</title>
<a xlink:href="hfa-lnx-async_8c.html#a7dea7d59754828b1173c4c7ec5d42f3e" target="_top" xlink:title="thread_callback">
<polygon fill="white" stroke="black" points="435,-159.5 435,-180.5 527,-180.5 527,-159.5 435,-159.5"/>
<text text-anchor="middle" x="481" y="-167.5" font-family="FreeSans" font-size="10.00">thread_callback</text>
</a>
</g>
<!-- Node9&#45;&gt;Node11 -->
<g id="edge22" class="edge"><title>Node9&#45;&gt;Node11</title>
<path fill="none" stroke="midnightblue" d="M369.878,-196.107C391.34,-191.065 415.646,-185.354 436.042,-180.562"/>
<polygon fill="midnightblue" stroke="midnightblue" points="368.856,-192.752 359.922,-198.446 370.457,-199.566 368.856,-192.752"/>
</g>
<!-- Node10&#45;&gt;Node4 -->
<g id="edge20" class="edge"><title>Node10&#45;&gt;Node4</title>
<path fill="none" stroke="midnightblue" d="M537.486,-210C554.231,-210 571.518,-210 584.406,-210"/>
<polygon fill="midnightblue" stroke="midnightblue" points="537.173,-206.5 527.173,-210 537.173,-213.5 537.173,-206.5"/>
</g>
<!-- Node11&#45;&gt;Node4 -->
<g id="edge24" class="edge"><title>Node11&#45;&gt;Node4</title>
<path fill="none" stroke="midnightblue" d="M527.544,-183.583C534.42,-185.68 541.406,-187.86 548,-190 560.07,-193.917 573.464,-198.599 584.234,-202.448"/>
<polygon fill="midnightblue" stroke="midnightblue" points="528.193,-180.124 517.609,-180.587 526.172,-186.825 528.193,-180.124"/>
</g>
<!-- Node13 -->
<g id="node27" class="node"><title>Node13</title>
<a xlink:href="hfa-lnx-ctx_8c.html#a78ffddbcd7cdd164889cfb53ea367886" target="_top" xlink:title="entry">
<polygon fill="white" stroke="black" points="584.5,-80.5 584.5,-101.5 625.5,-101.5 625.5,-80.5 584.5,-80.5"/>
<text text-anchor="middle" x="605" y="-88.5" font-family="FreeSans" font-size="10.00">entry</text>
</a>
</g>
<!-- Node12&#45;&gt;Node13 -->
<g id="edge28" class="edge"><title>Node12&#45;&gt;Node13</title>
<path fill="none" stroke="midnightblue" d="M527.271,-116.396C534.229,-114.29 541.312,-112.112 548,-110 560.135,-106.167 573.649,-101.673 584.472,-98.0172"/>
<polygon fill="midnightblue" stroke="midnightblue" points="525.797,-113.185 517.227,-119.414 527.811,-119.888 525.797,-113.185"/>
</g>
<!-- Node16 -->
<g id="node33" class="node"><title>Node16</title>
<a xlink:href="hfa-se-wqe-lock_8c.html#a3c04138a5bfe5d72780bb7e82a18e627" target="_top" xlink:title="main">
<polygon fill="white" stroke="black" points="461,-79.5 461,-100.5 501,-100.5 501,-79.5 461,-79.5"/>
<text text-anchor="middle" x="481" y="-87.5" font-family="FreeSans" font-size="10.00">main</text>
</a>
</g>
<!-- Node15&#45;&gt;Node16 -->
<g id="edge34" class="edge"><title>Node15&#45;&gt;Node16</title>
<path fill="none" stroke="midnightblue" d="M365.301,-90.697C397.394,-90.5037 437.25,-90.2636 460.821,-90.1216"/>
<polygon fill="midnightblue" stroke="midnightblue" points="365.163,-87.1977 355.184,-90.7579 365.205,-94.1975 365.163,-87.1977"/>
</g>
<!-- Node17&#45;&gt;Node9 -->
<g id="edge46" class="edge"><title>Node17&#45;&gt;Node9</title>
<path fill="none" stroke="midnightblue" d="M182.027,-114.604C192.865,-120.685 205.164,-127.893 216,-135 247.939,-155.949 283.325,-183.542 301.924,-198.411"/>
<polygon fill="midnightblue" stroke="midnightblue" points="183.397,-111.362 172.953,-109.582 180.007,-117.487 183.397,-111.362"/>
</g>
<!-- Node17&#45;&gt;Node14 -->
<g id="edge50" class="edge"><title>Node17&#45;&gt;Node14</title>
<path fill="none" stroke="midnightblue" d="M216.595,-111.562C244.436,-117.062 275.157,-123.13 294.744,-126.999"/>
<polygon fill="midnightblue" stroke="midnightblue" points="216.983,-108.071 206.494,-109.567 215.626,-114.938 216.983,-108.071"/>
</g>
<!-- Node17&#45;&gt;Node15 -->
<g id="edge52" class="edge"><title>Node17&#45;&gt;Node15</title>
<path fill="none" stroke="midnightblue" d="M226.374,-95.3766C243.009,-94.5551 260.076,-93.7123 274.737,-92.9883"/>
<polygon fill="midnightblue" stroke="midnightblue" points="225.912,-91.895 216.097,-95.8841 226.258,-98.8865 225.912,-91.895"/>
</g>
<!-- Node18 -->
<g id="node37" class="node"><title>Node18</title>
<a xlink:href="app-utils_8c.html#a0a399c2d3269d95b12dfc65ea2f6eed8" target="_top" xlink:title="Create local packets for pcap/normal payload.">
<polygon fill="white" stroke="black" points="252,-0.5 252,-21.5 378,-21.5 378,-0.5 252,-0.5"/>
<text text-anchor="middle" x="315" y="-8.5" font-family="FreeSans" font-size="10.00">hfautils_create_pktwqe</text>
</a>
</g>
<!-- Node17&#45;&gt;Node18 -->
<g id="edge38" class="edge"><title>Node17&#45;&gt;Node18</title>
<path fill="none" stroke="midnightblue" d="M173.751,-82.0381C193.045,-66.9459 223.083,-45.1338 252,-31 259.423,-27.3718 267.654,-24.2024 275.651,-21.5208"/>
<polygon fill="midnightblue" stroke="midnightblue" points="171.336,-79.4862 165.684,-88.4478 175.691,-84.9666 171.336,-79.4862"/>
</g>
<!-- Node21 -->
<g id="node45" class="node"><title>Node21</title>
<a xlink:href="hfa-lnx-linkgraph_8c.html#a78ffddbcd7cdd164889cfb53ea367886" target="_top" xlink:title="entry">
<polygon fill="white" stroke="black" points="294.5,-40.5 294.5,-61.5 335.5,-61.5 335.5,-40.5 294.5,-40.5"/>
<text text-anchor="middle" x="315" y="-48.5" font-family="FreeSans" font-size="10.00">entry</text>
</a>
</g>
<!-- Node17&#45;&gt;Node21 -->
<g id="edge48" class="edge"><title>Node17&#45;&gt;Node21</title>
<path fill="none" stroke="midnightblue" d="M198.426,-85.5404C229.906,-76.2129 270.333,-64.2347 294.367,-57.1135"/>
<polygon fill="midnightblue" stroke="midnightblue" points="197.145,-82.2694 188.552,-88.4662 199.134,-88.981 197.145,-82.2694"/>
</g>
<!-- Node19 -->
<g id="node39" class="node"><title>Node19</title>
<a xlink:href="app-utils_8c.html#aee7db6558918026994ba7bf827d9fc26" target="_top" xlink:title="Create local packets for pcap/normal payload.">
<polygon fill="white" stroke="black" points="414,-20.5 414,-41.5 548,-41.5 548,-20.5 414,-20.5"/>
<text text-anchor="middle" x="481" y="-28.5" font-family="FreeSans" font-size="10.00">hfautils_create_localpkts</text>
</a>
</g>
<!-- Node18&#45;&gt;Node19 -->
<g id="edge40" class="edge"><title>Node18&#45;&gt;Node19</title>
<path fill="none" stroke="midnightblue" d="M388.436,-19.8477C396.876,-20.8646 405.45,-21.8976 413.802,-22.9039"/>
<polygon fill="midnightblue" stroke="midnightblue" points="388.578,-16.3396 378.231,-18.6182 387.741,-23.2893 388.578,-16.3396"/>
</g>
<!-- Node19&#45;&gt;Node13 -->
<g id="edge42" class="edge"><title>Node19&#45;&gt;Node13</title>
<path fill="none" stroke="midnightblue" d="M512.038,-46.0186C534.568,-56.9198 564.434,-71.3715 584.161,-80.9167"/>
<polygon fill="midnightblue" stroke="midnightblue" points="513.409,-42.7938 502.883,-41.5887 510.36,-49.0949 513.409,-42.7938"/>
</g>
<!-- Node20 -->
<g id="node42" class="node"><title>Node20</title>
<a xlink:href="hfa-se-ctx_8c.html#a3c04138a5bfe5d72780bb7e82a18e627" target="_top" xlink:title="main">
<polygon fill="white" stroke="black" points="585,-20.5 585,-41.5 625,-41.5 625,-20.5 585,-20.5"/>
<text text-anchor="middle" x="605" y="-28.5" font-family="FreeSans" font-size="10.00">main</text>
</a>
</g>
<!-- Node19&#45;&gt;Node20 -->
<g id="edge44" class="edge"><title>Node19&#45;&gt;Node20</title>
<path fill="none" stroke="midnightblue" d="M558.081,-31C567.94,-31 577.258,-31 584.952,-31"/>
<polygon fill="midnightblue" stroke="midnightblue" points="558.081,-27.5001 548.081,-31 558.081,-34.5001 558.081,-27.5001"/>
</g>
</g>
</svg>
