<?xml version="1.0" encoding="UTF-8" standalone="no"?>
<!DOCTYPE svg PUBLIC "-//W3C//DTD SVG 1.1//EN"
 "http://www.w3.org/Graphics/SVG/1.1/DTD/svg11.dtd">
<!-- Generated by graphviz version 2.24.0 (20090616.2323)
 -->
<!-- Title: hfautils_reset_octeon Pages: 1 -->
<svg width="292pt" height="30pt"
 viewBox="0.00 0.00 292.00 30.00" xmlns="http://www.w3.org/2000/svg" xmlns:xlink="http://www.w3.org/1999/xlink">
<g id="graph1" class="graph" transform="scale(1 1) rotate(0) translate(4 26)">
<title>hfautils_reset_octeon</title>
<polygon fill="white" stroke="white" points="-4,5 -4,-26 289,-26 289,5 -4,5"/>
<!-- Node1 -->
<g id="node1" class="node"><title>Node1</title>
<polygon fill="#bfbfbf" stroke="black" points="0,-0.5 0,-21.5 118,-21.5 118,-0.5 0,-0.5"/>
<text text-anchor="middle" x="59" y="-8.5" font-family="FreeSans" font-size="10.00">hfautils_reset_octeon</text>
</g>
<!-- Node2 -->
<g id="node3" class="node"><title>Node2</title>
<a xlink:href="hfa-se-async_8c.html#acd9e54f020b77f14d54c200b65423a15" target="_top" xlink:title="Application cleanup will be done by this routine.">
<polygon fill="white" stroke="black" points="154,-0.5 154,-21.5 208,-21.5 208,-0.5 154,-0.5"/>
<text text-anchor="middle" x="181" y="-8.5" font-family="FreeSans" font-size="10.00">cleanup</text>
</a>
</g>
<!-- Node1&#45;&gt;Node2 -->
<g id="edge2" class="edge"><title>Node1&#45;&gt;Node2</title>
<path fill="none" stroke="midnightblue" d="M128.452,-11C137.464,-11 146.225,-11 153.928,-11"/>
<polygon fill="midnightblue" stroke="midnightblue" points="128.213,-7.5001 118.213,-11 128.213,-14.5001 128.213,-7.5001"/>
</g>
<!-- Node3 -->
<g id="node5" class="node"><title>Node3</title>
<a xlink:href="hfa-se-async_8c.html#a3c04138a5bfe5d72780bb7e82a18e627" target="_top" xlink:title="main">
<polygon fill="white" stroke="black" points="244,-0.5 244,-21.5 284,-21.5 284,-0.5 244,-0.5"/>
<text text-anchor="middle" x="264" y="-8.5" font-family="FreeSans" font-size="10.00">main</text>
</a>
</g>
<!-- Node2&#45;&gt;Node3 -->
<g id="edge4" class="edge"><title>Node2&#45;&gt;Node3</title>
<path fill="none" stroke="midnightblue" d="M218.3,-11C227.105,-11 236.164,-11 243.872,-11"/>
<polygon fill="midnightblue" stroke="midnightblue" points="218.177,-7.5001 208.177,-11 218.177,-14.5001 218.177,-7.5001"/>
</g>
</g>
</svg>
