<?xml version="1.0" encoding="UTF-8" standalone="no"?>
<!DOCTYPE svg PUBLIC "-//W3C//DTD SVG 1.1//EN"
 "http://www.w3.org/Graphics/SVG/1.1/DTD/svg11.dtd">
<!-- Generated by graphviz version 2.24.0 (20090616.2323)
 -->
<!-- Title: gz_fsinit Pages: 1 -->
<svg width="560pt" height="50pt"
 viewBox="0.00 0.00 560.00 50.00" xmlns="http://www.w3.org/2000/svg" xmlns:xlink="http://www.w3.org/1999/xlink">
<g id="graph1" class="graph" transform="scale(1 1) rotate(0) translate(4 46)">
<title>gz_fsinit</title>
<polygon fill="white" stroke="white" points="-4,5 -4,-46 557,-46 557,5 -4,5"/>
<!-- Node1 -->
<g id="node1" class="node"><title>Node1</title>
<polygon fill="#bfbfbf" stroke="black" points="0,-0.5 0,-21.5 56,-21.5 56,-0.5 0,-0.5"/>
<text text-anchor="middle" x="28" y="-8.5" font-family="FreeSans" font-size="10.00">gz_fsinit</text>
</g>
<!-- Node2 -->
<g id="node3" class="node"><title>Node2</title>
<a xlink:href="app-utils_8c.html#ad9aef676c72e2455ff8cc29b0451a533" target="_top" xlink:title="initialize the tar for gzip.">
<polygon fill="white" stroke="black" points="92,-20.5 92,-41.5 170,-41.5 170,-20.5 92,-20.5"/>
<text text-anchor="middle" x="131" y="-28.5" font-family="FreeSans" font-size="10.00">hfautils_fsinit</text>
</a>
</g>
<!-- Node1&#45;&gt;Node2 -->
<g id="edge2" class="edge"><title>Node1&#45;&gt;Node2</title>
<path fill="none" stroke="midnightblue" d="M66.0328,-18.385C74.3997,-20.0097 83.2767,-21.7333 91.6928,-23.3675"/>
<polygon fill="midnightblue" stroke="midnightblue" points="66.629,-14.9355 56.1452,-16.4651 65.2947,-21.8071 66.629,-14.9355"/>
</g>
<!-- Node3 -->
<g id="node5" class="node"><title>Node3</title>
<a xlink:href="app-utils_8c.html#ae04c31b3e2ff1468333729059052375c" target="_top" xlink:title="Parse command line arguments.">
<polygon fill="white" stroke="black" points="206,-0.5 206,-21.5 346,-21.5 346,-0.5 206,-0.5"/>
<text text-anchor="middle" x="276" y="-8.5" font-family="FreeSans" font-size="10.00">hfautils_parse_arguments</text>
</a>
</g>
<!-- Node1&#45;&gt;Node3 -->
<g id="edge10" class="edge"><title>Node1&#45;&gt;Node3</title>
<path fill="none" stroke="midnightblue" d="M66.8421,-11C103.987,-11 160.854,-11 205.92,-11"/>
<polygon fill="midnightblue" stroke="midnightblue" points="66.4488,-7.5001 56.4488,-11 66.4487,-14.5001 66.4488,-7.5001"/>
</g>
<!-- Node2&#45;&gt;Node3 -->
<g id="edge4" class="edge"><title>Node2&#45;&gt;Node3</title>
<path fill="none" stroke="midnightblue" d="M180.411,-24.1846C188.66,-23.047 197.353,-21.8479 205.999,-20.6554"/>
<polygon fill="midnightblue" stroke="midnightblue" points="179.667,-20.7541 170.239,-25.5877 180.624,-27.6884 179.667,-20.7541"/>
</g>
<!-- Node4 -->
<g id="node7" class="node"><title>Node4</title>
<a xlink:href="hfa-se-async_8c.html#ab42726e951c529a41b8e09fd6e84ada2" target="_top" xlink:title="Process command line options, and read graph.">
<polygon fill="white" stroke="black" points="382,-0.5 382,-21.5 476,-21.5 476,-0.5 382,-0.5"/>
<text text-anchor="middle" x="429" y="-8.5" font-family="FreeSans" font-size="10.00">process_options</text>
</a>
</g>
<!-- Node3&#45;&gt;Node4 -->
<g id="edge6" class="edge"><title>Node3&#45;&gt;Node4</title>
<path fill="none" stroke="midnightblue" d="M356.461,-11C365.172,-11 373.814,-11 381.935,-11"/>
<polygon fill="midnightblue" stroke="midnightblue" points="356.231,-7.5001 346.231,-11 356.231,-14.5001 356.231,-7.5001"/>
</g>
<!-- Node5 -->
<g id="node9" class="node"><title>Node5</title>
<a xlink:href="hfa-se-async_8c.html#a3c04138a5bfe5d72780bb7e82a18e627" target="_top" xlink:title="main">
<polygon fill="white" stroke="black" points="512,-0.5 512,-21.5 552,-21.5 552,-0.5 512,-0.5"/>
<text text-anchor="middle" x="532" y="-8.5" font-family="FreeSans" font-size="10.00">main</text>
</a>
</g>
<!-- Node4&#45;&gt;Node5 -->
<g id="edge8" class="edge"><title>Node4&#45;&gt;Node5</title>
<path fill="none" stroke="midnightblue" d="M486.532,-11C495.572,-11 504.36,-11 511.762,-11"/>
<polygon fill="midnightblue" stroke="midnightblue" points="486.28,-7.5001 476.28,-11 486.28,-14.5001 486.28,-7.5001"/>
</g>
</g>
</svg>
