<?xml version="1.0" encoding="UTF-8" standalone="no"?>
<!DOCTYPE svg PUBLIC "-//W3C//DTD SVG 1.1//EN"
 "http://www.w3.org/Graphics/SVG/1.1/DTD/svg11.dtd">
<!-- Generated by graphviz version 2.24.0 (20090616.2323)
 -->
<!-- Title: hfautils_read_nb Pages: 1 -->
<svg width="364pt" height="42pt"
 viewBox="0.00 0.00 364.00 42.00" xmlns="http://www.w3.org/2000/svg" xmlns:xlink="http://www.w3.org/1999/xlink">
<g id="graph1" class="graph" transform="scale(1 1) rotate(0) translate(4 38)">
<title>hfautils_read_nb</title>
<polygon fill="white" stroke="white" points="-4,5 -4,-38 361,-38 361,5 -4,5"/>
<!-- Node1 -->
<g id="node1" class="node"><title>Node1</title>
<polygon fill="#bfbfbf" stroke="black" points="0.5,-6.5 0.5,-27.5 95.5,-27.5 95.5,-6.5 0.5,-6.5"/>
<text text-anchor="middle" x="48" y="-14.5" font-family="FreeSans" font-size="10.00">hfautils_read_nb</text>
</g>
<!-- Node2 -->
<g id="node3" class="node"><title>Node2</title>
<a xlink:href="hfa-lnx-async_8c.html#abc17fab65a320998a273d112ff24d658" target="_top" xlink:title="Configure cluster memory resources.">
<polygon fill="white" stroke="black" points="132,-0 132,-34 278,-34 278,-0 132,-0"/>
<text text-anchor="start" x="140" y="-21" font-family="FreeSans" font-size="10.00">configure_cluster_memory</text>
<text text-anchor="middle" x="205" y="-8" font-family="FreeSans" font-size="10.00">_resources</text>
</a>
</g>
<!-- Node1&#45;&gt;Node2 -->
<g id="edge2" class="edge"><title>Node1&#45;&gt;Node2</title>
<path fill="none" stroke="midnightblue" d="M105.704,-17C114.212,-17 123.07,-17 131.839,-17"/>
<polygon fill="midnightblue" stroke="midnightblue" points="105.531,-13.5001 95.5312,-17 105.531,-20.5001 105.531,-13.5001"/>
</g>
<!-- Node3 -->
<g id="node5" class="node"><title>Node3</title>
<a xlink:href="hfa-lnx-async_8c.html#a78ffddbcd7cdd164889cfb53ea367886" target="_top" xlink:title="entry">
<polygon fill="white" stroke="black" points="314.5,-6.5 314.5,-27.5 355.5,-27.5 355.5,-6.5 314.5,-6.5"/>
<text text-anchor="middle" x="335" y="-14.5" font-family="FreeSans" font-size="10.00">entry</text>
</a>
</g>
<!-- Node2&#45;&gt;Node3 -->
<g id="edge4" class="edge"><title>Node2&#45;&gt;Node3</title>
<path fill="none" stroke="midnightblue" d="M288.471,-17C298.011,-17 306.972,-17 314.435,-17"/>
<polygon fill="midnightblue" stroke="midnightblue" points="288.358,-13.5001 278.358,-17 288.358,-20.5001 288.358,-13.5001"/>
</g>
</g>
</svg>
