<?xml version="1.0" encoding="UTF-8" standalone="no"?>
<!DOCTYPE svg PUBLIC "-//W3C//DTD SVG 1.1//EN"
 "http://www.w3.org/Graphics/SVG/1.1/DTD/svg11.dtd">
<!-- Generated by graphviz version 2.24.0 (20090616.2323)
 -->
<!-- Title: hfautils_create_pktwqe Pages: 1 -->
<svg width="382pt" height="70pt"
 viewBox="0.00 0.00 382.00 70.00" xmlns="http://www.w3.org/2000/svg" xmlns:xlink="http://www.w3.org/1999/xlink">
<g id="graph1" class="graph" transform="scale(1 1) rotate(0) translate(4 66)">
<title>hfautils_create_pktwqe</title>
<polygon fill="white" stroke="white" points="-4,5 -4,-66 379,-66 379,5 -4,5"/>
<!-- Node1 -->
<g id="node1" class="node"><title>Node1</title>
<polygon fill="#bfbfbf" stroke="black" points="0,-20.5 0,-41.5 126,-41.5 126,-20.5 0,-20.5"/>
<text text-anchor="middle" x="63" y="-28.5" font-family="FreeSans" font-size="10.00">hfautils_create_pktwqe</text>
</g>
<!-- Node2 -->
<g id="node3" class="node"><title>Node2</title>
<a xlink:href="app-utils_8c.html#aee7db6558918026994ba7bf827d9fc26" target="_top" xlink:title="Create local packets for pcap/normal payload.">
<polygon fill="white" stroke="black" points="162,-20.5 162,-41.5 296,-41.5 296,-20.5 162,-20.5"/>
<text text-anchor="middle" x="229" y="-28.5" font-family="FreeSans" font-size="10.00">hfautils_create_localpkts</text>
</a>
</g>
<!-- Node1&#45;&gt;Node2 -->
<g id="edge2" class="edge"><title>Node1&#45;&gt;Node2</title>
<path fill="none" stroke="midnightblue" d="M136.436,-31C144.876,-31 153.45,-31 161.802,-31"/>
<polygon fill="midnightblue" stroke="midnightblue" points="136.231,-27.5001 126.231,-31 136.231,-34.5001 136.231,-27.5001"/>
</g>
<!-- Node3 -->
<g id="node5" class="node"><title>Node3</title>
<a xlink:href="hfa-lnx-ctx_8c.html#a78ffddbcd7cdd164889cfb53ea367886" target="_top" xlink:title="entry">
<polygon fill="white" stroke="black" points="332.5,-40.5 332.5,-61.5 373.5,-61.5 373.5,-40.5 332.5,-40.5"/>
<text text-anchor="middle" x="353" y="-48.5" font-family="FreeSans" font-size="10.00">entry</text>
</a>
</g>
<!-- Node2&#45;&gt;Node3 -->
<g id="edge4" class="edge"><title>Node2&#45;&gt;Node3</title>
<path fill="none" stroke="midnightblue" d="M304.279,-43.1418C314.598,-44.8061 324.401,-46.3873 332.473,-47.6892"/>
<polygon fill="midnightblue" stroke="midnightblue" points="304.698,-39.6642 294.268,-41.5271 303.583,-46.5749 304.698,-39.6642"/>
</g>
<!-- Node4 -->
<g id="node7" class="node"><title>Node4</title>
<a xlink:href="hfa-se-ctx_8c.html#a3c04138a5bfe5d72780bb7e82a18e627" target="_top" xlink:title="main">
<polygon fill="white" stroke="black" points="333,-0.5 333,-21.5 373,-21.5 373,-0.5 333,-0.5"/>
<text text-anchor="middle" x="353" y="-8.5" font-family="FreeSans" font-size="10.00">main</text>
</a>
</g>
<!-- Node2&#45;&gt;Node4 -->
<g id="edge6" class="edge"><title>Node2&#45;&gt;Node4</title>
<path fill="none" stroke="midnightblue" d="M304.362,-18.8448C314.765,-17.167 324.64,-15.5742 332.741,-14.2676"/>
<polygon fill="midnightblue" stroke="midnightblue" points="303.583,-15.4251 294.268,-20.4729 304.698,-22.3358 303.583,-15.4251"/>
</g>
</g>
</svg>
