<?xml version="1.0" encoding="UTF-8" standalone="no"?>
<!DOCTYPE svg PUBLIC "-//W3C//DTD SVG 1.1//EN"
 "http://www.w3.org/Graphics/SVG/1.1/DTD/svg11.dtd">
<!-- Generated by graphviz version 2.24.0 (20090616.2323)
 -->
<!-- Title: hfautils_parse_payload Pages: 1 -->
<svg width="544pt" height="220pt"
 viewBox="0.00 0.00 544.00 220.00" xmlns="http://www.w3.org/2000/svg" xmlns:xlink="http://www.w3.org/1999/xlink">
<g id="graph1" class="graph" transform="scale(1 1) rotate(0) translate(4 216)">
<title>hfautils_parse_payload</title>
<polygon fill="white" stroke="white" points="-4,5 -4,-216 541,-216 541,5 -4,5"/>
<!-- Node1 -->
<g id="node1" class="node"><title>Node1</title>
<polygon fill="#bfbfbf" stroke="black" points="0,-80.5 0,-101.5 126,-101.5 126,-80.5 0,-80.5"/>
<text text-anchor="middle" x="63" y="-88.5" font-family="FreeSans" font-size="10.00">hfautils_parse_payload</text>
</g>
<!-- Node2 -->
<g id="node3" class="node"><title>Node2</title>
<a xlink:href="app-utils_8c.html#a0a399c2d3269d95b12dfc65ea2f6eed8" target="_top" xlink:title="Create local packets for pcap/normal payload.">
<polygon fill="white" stroke="black" points="162,-160.5 162,-181.5 288,-181.5 288,-160.5 162,-160.5"/>
<text text-anchor="middle" x="225" y="-168.5" font-family="FreeSans" font-size="10.00">hfautils_create_pktwqe</text>
</a>
</g>
<!-- Node1&#45;&gt;Node2 -->
<g id="edge2" class="edge"><title>Node1&#45;&gt;Node2</title>
<path fill="none" stroke="midnightblue" d="M86.34,-107.333C105.87,-120.454 134.827,-138.665 162,-151 169.837,-154.558 178.489,-157.747 186.806,-160.479"/>
<polygon fill="midnightblue" stroke="midnightblue" points="88.0501,-104.263 77.815,-101.525 84.1091,-110.048 88.0501,-104.263"/>
</g>
<!-- Node6 -->
<g id="node11" class="node"><title>Node6</title>
<a xlink:href="hfa-lnx-async_8c.html#a972f8b60ef804914c009c2ef85bac50e" target="_top" xlink:title="Process search for given payload and graph.">
<polygon fill="white" stroke="black" points="179,-120.5 179,-141.5 271,-141.5 271,-120.5 179,-120.5"/>
<text text-anchor="middle" x="225" y="-128.5" font-family="FreeSans" font-size="10.00">process_search</text>
</a>
</g>
<!-- Node1&#45;&gt;Node6 -->
<g id="edge10" class="edge"><title>Node1&#45;&gt;Node6</title>
<path fill="none" stroke="midnightblue" d="M115.29,-103.911C137.001,-109.272 161.873,-115.413 182.44,-120.491"/>
<polygon fill="midnightblue" stroke="midnightblue" points="116.111,-100.509 105.564,-101.51 114.433,-107.305 116.111,-100.509"/>
</g>
<!-- Node10 -->
<g id="node20" class="node"><title>Node10</title>
<a xlink:href="hfa-lnx-linkgraph_8c.html#a78ffddbcd7cdd164889cfb53ea367886" target="_top" xlink:title="entry">
<polygon fill="white" stroke="black" points="204.5,-80.5 204.5,-101.5 245.5,-101.5 245.5,-80.5 204.5,-80.5"/>
<text text-anchor="middle" x="225" y="-88.5" font-family="FreeSans" font-size="10.00">entry</text>
</a>
</g>
<!-- Node1&#45;&gt;Node10 -->
<g id="edge20" class="edge"><title>Node1&#45;&gt;Node10</title>
<path fill="none" stroke="midnightblue" d="M136.272,-91C161.082,-91 186.867,-91 204.205,-91"/>
<polygon fill="midnightblue" stroke="midnightblue" points="136.097,-87.5001 126.097,-91 136.097,-94.5001 136.097,-87.5001"/>
</g>
<!-- Node11 -->
<g id="node22" class="node"><title>Node11</title>
<a xlink:href="hfa-se-async_8c.html#a3c04138a5bfe5d72780bb7e82a18e627" target="_top" xlink:title="main">
<polygon fill="white" stroke="black" points="205,-40.5 205,-61.5 245,-61.5 245,-40.5 205,-40.5"/>
<text text-anchor="middle" x="225" y="-48.5" font-family="FreeSans" font-size="10.00">main</text>
</a>
</g>
<!-- Node1&#45;&gt;Node11 -->
<g id="edge22" class="edge"><title>Node1&#45;&gt;Node11</title>
<path fill="none" stroke="midnightblue" d="M115.626,-78.0059C146.078,-70.487 182.653,-61.456 204.846,-55.9763"/>
<polygon fill="midnightblue" stroke="midnightblue" points="114.433,-74.6953 105.564,-80.4905 116.111,-81.4912 114.433,-74.6953"/>
</g>
<!-- Node12 -->
<g id="node24" class="node"><title>Node12</title>
<a xlink:href="hfa-se-wqe-lock_8c.html#a06b5fcfab0e1d5eb36b633ec080ad7f9" target="_top" xlink:title="Process search for given contexts.">
<polygon fill="white" stroke="black" points="185,-0.5 185,-21.5 265,-21.5 265,-0.5 185,-0.5"/>
<text text-anchor="middle" x="225" y="-8.5" font-family="FreeSans" font-size="10.00">process_nctx</text>
</a>
</g>
<!-- Node1&#45;&gt;Node12 -->
<g id="edge24" class="edge"><title>Node1&#45;&gt;Node12</title>
<path fill="none" stroke="midnightblue" d="M86.34,-74.6673C105.87,-61.5463 134.827,-43.3352 162,-31 169.837,-27.4425 178.489,-24.2528 186.806,-21.5208"/>
<polygon fill="midnightblue" stroke="midnightblue" points="84.1091,-71.9521 77.815,-80.4747 88.0501,-77.7373 84.1091,-71.9521"/>
</g>
<!-- Node3 -->
<g id="node5" class="node"><title>Node3</title>
<a xlink:href="app-utils_8c.html#aee7db6558918026994ba7bf827d9fc26" target="_top" xlink:title="Create local packets for pcap/normal payload.">
<polygon fill="white" stroke="black" points="324,-160.5 324,-181.5 458,-181.5 458,-160.5 324,-160.5"/>
<text text-anchor="middle" x="391" y="-168.5" font-family="FreeSans" font-size="10.00">hfautils_create_localpkts</text>
</a>
</g>
<!-- Node2&#45;&gt;Node3 -->
<g id="edge4" class="edge"><title>Node2&#45;&gt;Node3</title>
<path fill="none" stroke="midnightblue" d="M298.436,-171C306.876,-171 315.45,-171 323.802,-171"/>
<polygon fill="midnightblue" stroke="midnightblue" points="298.231,-167.5 288.231,-171 298.231,-174.5 298.231,-167.5"/>
</g>
<!-- Node4 -->
<g id="node7" class="node"><title>Node4</title>
<a xlink:href="hfa-lnx-ctx_8c.html#a78ffddbcd7cdd164889cfb53ea367886" target="_top" xlink:title="entry">
<polygon fill="white" stroke="black" points="494.5,-190.5 494.5,-211.5 535.5,-211.5 535.5,-190.5 494.5,-190.5"/>
<text text-anchor="middle" x="515" y="-198.5" font-family="FreeSans" font-size="10.00">entry</text>
</a>
</g>
<!-- Node3&#45;&gt;Node4 -->
<g id="edge6" class="edge"><title>Node3&#45;&gt;Node4</title>
<path fill="none" stroke="midnightblue" d="M444.857,-184.03C462.324,-188.256 480.667,-192.694 494.214,-195.971"/>
<polygon fill="midnightblue" stroke="midnightblue" points="445.26,-180.527 434.718,-181.577 443.614,-187.33 445.26,-180.527"/>
</g>
<!-- Node5 -->
<g id="node9" class="node"><title>Node5</title>
<a xlink:href="hfa-se-ctx_8c.html#a3c04138a5bfe5d72780bb7e82a18e627" target="_top" xlink:title="main">
<polygon fill="white" stroke="black" points="495,-150.5 495,-171.5 535,-171.5 535,-150.5 495,-150.5"/>
<text text-anchor="middle" x="515" y="-158.5" font-family="FreeSans" font-size="10.00">main</text>
</a>
</g>
<!-- Node3&#45;&gt;Node5 -->
<g id="edge8" class="edge"><title>Node3&#45;&gt;Node5</title>
<path fill="none" stroke="midnightblue" d="M468.081,-164.784C477.94,-163.989 487.258,-163.237 494.952,-162.617"/>
<polygon fill="midnightblue" stroke="midnightblue" points="467.767,-161.298 458.081,-165.59 468.33,-168.275 467.767,-161.298"/>
</g>
<!-- Node7 -->
<g id="node13" class="node"><title>Node7</title>
<a xlink:href="hfa-lnx-async_8c.html#a1e97b1d598034fdc92d57054a6c386e6" target="_top" xlink:title="tasklet_callback">
<polygon fill="white" stroke="black" points="345,-120.5 345,-141.5 437,-141.5 437,-120.5 345,-120.5"/>
<text text-anchor="middle" x="391" y="-128.5" font-family="FreeSans" font-size="10.00">tasklet_callback</text>
</a>
</g>
<!-- Node6&#45;&gt;Node7 -->
<g id="edge12" class="edge"><title>Node6&#45;&gt;Node7</title>
<path fill="none" stroke="midnightblue" d="M281.447,-131C302.054,-131 325.101,-131 344.72,-131"/>
<polygon fill="midnightblue" stroke="midnightblue" points="281.24,-127.5 271.24,-131 281.24,-134.5 281.24,-127.5"/>
</g>
<!-- Node9 -->
<g id="node17" class="node"><title>Node9</title>
<a xlink:href="hfa-lnx-async_8c.html#a7dea7d59754828b1173c4c7ec5d42f3e" target="_top" xlink:title="thread_callback">
<polygon fill="white" stroke="black" points="345,-80.5 345,-101.5 437,-101.5 437,-80.5 345,-80.5"/>
<text text-anchor="middle" x="391" y="-88.5" font-family="FreeSans" font-size="10.00">thread_callback</text>
</a>
</g>
<!-- Node6&#45;&gt;Node9 -->
<g id="edge16" class="edge"><title>Node6&#45;&gt;Node9</title>
<path fill="none" stroke="midnightblue" d="M278.581,-118.089C300.828,-112.728 326.314,-106.587 347.389,-101.509"/>
<polygon fill="midnightblue" stroke="midnightblue" points="277.516,-114.745 268.615,-120.49 279.156,-121.55 277.516,-114.745"/>
</g>
<!-- Node8 -->
<g id="node15" class="node"><title>Node8</title>
<a xlink:href="hfa-lnx-async_8c.html#a78ffddbcd7cdd164889cfb53ea367886" target="_top" xlink:title="entry">
<polygon fill="white" stroke="black" points="494.5,-90.5 494.5,-111.5 535.5,-111.5 535.5,-90.5 494.5,-90.5"/>
<text text-anchor="middle" x="515" y="-98.5" font-family="FreeSans" font-size="10.00">entry</text>
</a>
</g>
<!-- Node7&#45;&gt;Node8 -->
<g id="edge14" class="edge"><title>Node7&#45;&gt;Node8</title>
<path fill="none" stroke="midnightblue" d="M444.857,-117.97C462.324,-113.744 480.667,-109.306 494.214,-106.029"/>
<polygon fill="midnightblue" stroke="midnightblue" points="443.614,-114.67 434.718,-120.423 445.26,-121.473 443.614,-114.67"/>
</g>
<!-- Node9&#45;&gt;Node8 -->
<g id="edge18" class="edge"><title>Node9&#45;&gt;Node8</title>
<path fill="none" stroke="midnightblue" d="M447.486,-95.5553C464.231,-96.9057 481.518,-98.2998 494.406,-99.3392"/>
<polygon fill="midnightblue" stroke="midnightblue" points="447.422,-92.0389 437.173,-94.7236 446.859,-99.0162 447.422,-92.0389"/>
</g>
<!-- Node13 -->
<g id="node26" class="node"><title>Node13</title>
<a xlink:href="hfa-se-wqe-lock_8c.html#a3c04138a5bfe5d72780bb7e82a18e627" target="_top" xlink:title="main">
<polygon fill="white" stroke="black" points="371,-0.5 371,-21.5 411,-21.5 411,-0.5 371,-0.5"/>
<text text-anchor="middle" x="391" y="-8.5" font-family="FreeSans" font-size="10.00">main</text>
</a>
</g>
<!-- Node12&#45;&gt;Node13 -->
<g id="edge26" class="edge"><title>Node12&#45;&gt;Node13</title>
<path fill="none" stroke="midnightblue" d="M275.301,-11C307.394,-11 347.25,-11 370.821,-11"/>
<polygon fill="midnightblue" stroke="midnightblue" points="275.184,-7.5001 265.184,-11 275.184,-14.5001 275.184,-7.5001"/>
</g>
</g>
</svg>
