<?xml version="1.0" encoding="UTF-8" standalone="no"?>
<!DOCTYPE svg PUBLIC "-//W3C//DTD SVG 1.1//EN"
 "http://www.w3.org/Graphics/SVG/1.1/DTD/svg11.dtd">
<!-- Generated by graphviz version 2.24.0 (20090616.2323)
 -->
<!-- Title: hfautils_init_payload_attributes Pages: 1 -->
<svg width="458pt" height="190pt"
 viewBox="0.00 0.00 458.00 190.00" xmlns="http://www.w3.org/2000/svg" xmlns:xlink="http://www.w3.org/1999/xlink">
<g id="graph1" class="graph" transform="scale(1 1) rotate(0) translate(4 186)">
<title>hfautils_init_payload_attributes</title>
<polygon fill="white" stroke="white" points="-4,5 -4,-186 455,-186 455,5 -4,5"/>
<!-- Node1 -->
<g id="node1" class="node"><title>Node1</title>
<polygon fill="#bfbfbf" stroke="black" points="0.5,-54 0.5,-88 113.5,-88 113.5,-54 0.5,-54"/>
<text text-anchor="start" x="8.5" y="-75" font-family="FreeSans" font-size="10.00">hfautils_init_payload</text>
<text text-anchor="middle" x="57" y="-62" font-family="FreeSans" font-size="10.00">_attributes</text>
</g>
<!-- Node2 -->
<g id="node3" class="node"><title>Node2</title>
<a xlink:href="hfa-lnx-async_8c.html#a972f8b60ef804914c009c2ef85bac50e" target="_top" xlink:title="Process search for given payload and graph.">
<polygon fill="white" stroke="black" points="151,-120.5 151,-141.5 243,-141.5 243,-120.5 151,-120.5"/>
<text text-anchor="middle" x="197" y="-128.5" font-family="FreeSans" font-size="10.00">process_search</text>
</a>
</g>
<!-- Node1&#45;&gt;Node2 -->
<g id="edge2" class="edge"><title>Node1&#45;&gt;Node2</title>
<path fill="none" stroke="midnightblue" d="M106.336,-92.2617C120.435,-98.3263 135.82,-104.934 150,-111 157.175,-114.069 164.97,-117.392 172.113,-120.431"/>
<polygon fill="midnightblue" stroke="midnightblue" points="107.38,-88.9009 96.8109,-88.163 104.613,-95.3308 107.38,-88.9009"/>
</g>
<!-- Node6 -->
<g id="node12" class="node"><title>Node6</title>
<a xlink:href="hfa-lnx-ctx_8c.html#a4c3443f524b4c0d95639694f0b74e850" target="_top" xlink:title="Process command line options, Read graph and payload.">
<polygon fill="white" stroke="black" points="150,-80.5 150,-101.5 244,-101.5 244,-80.5 150,-80.5"/>
<text text-anchor="middle" x="197" y="-88.5" font-family="FreeSans" font-size="10.00">process_options</text>
</a>
</g>
<!-- Node1&#45;&gt;Node6 -->
<g id="edge12" class="edge"><title>Node1&#45;&gt;Node6</title>
<path fill="none" stroke="midnightblue" d="M123.468,-80.4955C132.317,-81.7596 141.242,-83.0345 149.674,-84.2392"/>
<polygon fill="midnightblue" stroke="midnightblue" points="123.934,-77.0266 113.54,-79.0771 122.944,-83.9562 123.934,-77.0266"/>
</g>
<!-- Node8 -->
<g id="node16" class="node"><title>Node8</title>
<a xlink:href="hfa-se-async_8c.html#a3c04138a5bfe5d72780bb7e82a18e627" target="_top" xlink:title="main">
<polygon fill="white" stroke="black" points="177,-40.5 177,-61.5 217,-61.5 217,-40.5 177,-40.5"/>
<text text-anchor="middle" x="197" y="-48.5" font-family="FreeSans" font-size="10.00">main</text>
</a>
</g>
<!-- Node1&#45;&gt;Node8 -->
<g id="edge16" class="edge"><title>Node1&#45;&gt;Node8</title>
<path fill="none" stroke="midnightblue" d="M123.638,-61.4803C143.07,-58.7043 162.848,-55.8788 176.965,-53.8622"/>
<polygon fill="midnightblue" stroke="midnightblue" points="122.944,-58.0438 113.54,-62.9229 123.934,-64.9734 122.944,-58.0438"/>
</g>
<!-- Node9 -->
<g id="node18" class="node"><title>Node9</title>
<a xlink:href="hfa-se-wqe-lock_8c.html#a06b5fcfab0e1d5eb36b633ec080ad7f9" target="_top" xlink:title="Process search for given contexts.">
<polygon fill="white" stroke="black" points="157,-0.5 157,-21.5 237,-21.5 237,-0.5 157,-0.5"/>
<text text-anchor="middle" x="197" y="-8.5" font-family="FreeSans" font-size="10.00">process_nctx</text>
</a>
</g>
<!-- Node1&#45;&gt;Node9 -->
<g id="edge18" class="edge"><title>Node1&#45;&gt;Node9</title>
<path fill="none" stroke="midnightblue" d="M106.336,-49.7383C120.435,-43.6737 135.82,-37.0663 150,-31 157.175,-27.9306 164.97,-24.6081 172.113,-21.5692"/>
<polygon fill="midnightblue" stroke="midnightblue" points="104.613,-46.6692 96.8109,-53.837 107.38,-53.0991 104.613,-46.6692"/>
</g>
<!-- Node3 -->
<g id="node5" class="node"><title>Node3</title>
<a xlink:href="hfa-lnx-async_8c.html#a1e97b1d598034fdc92d57054a6c386e6" target="_top" xlink:title="tasklet_callback">
<polygon fill="white" stroke="black" points="280,-160.5 280,-181.5 372,-181.5 372,-160.5 280,-160.5"/>
<text text-anchor="middle" x="326" y="-168.5" font-family="FreeSans" font-size="10.00">tasklet_callback</text>
</a>
</g>
<!-- Node2&#45;&gt;Node3 -->
<g id="edge4" class="edge"><title>Node2&#45;&gt;Node3</title>
<path fill="none" stroke="midnightblue" d="M240.477,-144.481C257.24,-149.679 276.13,-155.537 291.885,-160.422"/>
<polygon fill="midnightblue" stroke="midnightblue" points="241.481,-141.128 230.893,-141.51 239.408,-147.814 241.481,-141.128"/>
</g>
<!-- Node5 -->
<g id="node9" class="node"><title>Node5</title>
<a xlink:href="hfa-lnx-async_8c.html#a7dea7d59754828b1173c4c7ec5d42f3e" target="_top" xlink:title="thread_callback">
<polygon fill="white" stroke="black" points="280,-120.5 280,-141.5 372,-141.5 372,-120.5 280,-120.5"/>
<text text-anchor="middle" x="326" y="-128.5" font-family="FreeSans" font-size="10.00">thread_callback</text>
</a>
</g>
<!-- Node2&#45;&gt;Node5 -->
<g id="edge8" class="edge"><title>Node2&#45;&gt;Node5</title>
<path fill="none" stroke="midnightblue" d="M253.385,-131C262.168,-131 271.156,-131 279.681,-131"/>
<polygon fill="midnightblue" stroke="midnightblue" points="253.208,-127.5 243.208,-131 253.208,-134.5 253.208,-127.5"/>
</g>
<!-- Node4 -->
<g id="node7" class="node"><title>Node4</title>
<a xlink:href="hfa-lnx-async_8c.html#a78ffddbcd7cdd164889cfb53ea367886" target="_top" xlink:title="entry">
<polygon fill="white" stroke="black" points="408.5,-140.5 408.5,-161.5 449.5,-161.5 449.5,-140.5 408.5,-140.5"/>
<text text-anchor="middle" x="429" y="-148.5" font-family="FreeSans" font-size="10.00">entry</text>
</a>
</g>
<!-- Node3&#45;&gt;Node4 -->
<g id="edge6" class="edge"><title>Node3&#45;&gt;Node4</title>
<path fill="none" stroke="midnightblue" d="M381.972,-160.132C391.449,-158.292 400.722,-156.491 408.495,-154.982"/>
<polygon fill="midnightblue" stroke="midnightblue" points="381.227,-156.711 372.077,-162.053 382.561,-163.583 381.227,-156.711"/>
</g>
<!-- Node5&#45;&gt;Node4 -->
<g id="edge10" class="edge"><title>Node5&#45;&gt;Node4</title>
<path fill="none" stroke="midnightblue" d="M381.972,-141.868C391.449,-143.708 400.722,-145.509 408.495,-147.018"/>
<polygon fill="midnightblue" stroke="midnightblue" points="382.561,-138.417 372.077,-139.947 381.227,-145.289 382.561,-138.417"/>
</g>
<!-- Node7 -->
<g id="node14" class="node"><title>Node7</title>
<a xlink:href="hfa-lnx-ctx_8c.html#a78ffddbcd7cdd164889cfb53ea367886" target="_top" xlink:title="entry">
<polygon fill="white" stroke="black" points="305.5,-80.5 305.5,-101.5 346.5,-101.5 346.5,-80.5 305.5,-80.5"/>
<text text-anchor="middle" x="326" y="-88.5" font-family="FreeSans" font-size="10.00">entry</text>
</a>
</g>
<!-- Node6&#45;&gt;Node7 -->
<g id="edge14" class="edge"><title>Node6&#45;&gt;Node7</title>
<path fill="none" stroke="midnightblue" d="M254.552,-91C272.68,-91 291.549,-91 305.341,-91"/>
<polygon fill="midnightblue" stroke="midnightblue" points="254.302,-87.5001 244.302,-91 254.302,-94.5001 254.302,-87.5001"/>
</g>
<!-- Node10 -->
<g id="node20" class="node"><title>Node10</title>
<a xlink:href="hfa-se-wqe-lock_8c.html#a3c04138a5bfe5d72780bb7e82a18e627" target="_top" xlink:title="main">
<polygon fill="white" stroke="black" points="306,-0.5 306,-21.5 346,-21.5 346,-0.5 306,-0.5"/>
<text text-anchor="middle" x="326" y="-8.5" font-family="FreeSans" font-size="10.00">main</text>
</a>
</g>
<!-- Node9&#45;&gt;Node10 -->
<g id="edge20" class="edge"><title>Node9&#45;&gt;Node10</title>
<path fill="none" stroke="midnightblue" d="M247.243,-11C267.658,-11 290.079,-11 305.76,-11"/>
<polygon fill="midnightblue" stroke="midnightblue" points="247.109,-7.5001 237.109,-11 247.109,-14.5001 247.109,-7.5001"/>
</g>
</g>
</svg>
