<?xml version="1.0" encoding="UTF-8" standalone="no"?>
<!DOCTYPE svg PUBLIC "-//W3C//DTD SVG 1.1//EN"
 "http://www.w3.org/Graphics/SVG/1.1/DTD/svg11.dtd">
<!-- Generated by graphviz version 2.24.0 (20090616.2323)
 -->
<!-- Title: hfautils_fsinit Pages: 1 -->
<svg width="468pt" height="30pt"
 viewBox="0.00 0.00 468.00 30.00" xmlns="http://www.w3.org/2000/svg" xmlns:xlink="http://www.w3.org/1999/xlink">
<g id="graph1" class="graph" transform="scale(1 1) rotate(0) translate(4 26)">
<title>hfautils_fsinit</title>
<polygon fill="white" stroke="white" points="-4,5 -4,-26 465,-26 465,5 -4,5"/>
<!-- Node1 -->
<g id="node1" class="node"><title>Node1</title>
<polygon fill="#bfbfbf" stroke="black" points="0,-0.5 0,-21.5 78,-21.5 78,-0.5 0,-0.5"/>
<text text-anchor="middle" x="39" y="-8.5" font-family="FreeSans" font-size="10.00">hfautils_fsinit</text>
</g>
<!-- Node2 -->
<g id="node3" class="node"><title>Node2</title>
<a xlink:href="app-utils_8c.html#ae04c31b3e2ff1468333729059052375c" target="_top" xlink:title="Parse command line arguments.">
<polygon fill="white" stroke="black" points="114,-0.5 114,-21.5 254,-21.5 254,-0.5 114,-0.5"/>
<text text-anchor="middle" x="184" y="-8.5" font-family="FreeSans" font-size="10.00">hfautils_parse_arguments</text>
</a>
</g>
<!-- Node1&#45;&gt;Node2 -->
<g id="edge2" class="edge"><title>Node1&#45;&gt;Node2</title>
<path fill="none" stroke="midnightblue" d="M88.4115,-11C96.6596,-11 105.353,-11 113.999,-11"/>
<polygon fill="midnightblue" stroke="midnightblue" points="88.2391,-7.5001 78.2391,-11 88.2391,-14.5001 88.2391,-7.5001"/>
</g>
<!-- Node3 -->
<g id="node5" class="node"><title>Node3</title>
<a xlink:href="hfa-se-async_8c.html#ab42726e951c529a41b8e09fd6e84ada2" target="_top" xlink:title="Process command line options, and read graph.">
<polygon fill="white" stroke="black" points="290,-0.5 290,-21.5 384,-21.5 384,-0.5 290,-0.5"/>
<text text-anchor="middle" x="337" y="-8.5" font-family="FreeSans" font-size="10.00">process_options</text>
</a>
</g>
<!-- Node2&#45;&gt;Node3 -->
<g id="edge4" class="edge"><title>Node2&#45;&gt;Node3</title>
<path fill="none" stroke="midnightblue" d="M264.461,-11C273.172,-11 281.814,-11 289.935,-11"/>
<polygon fill="midnightblue" stroke="midnightblue" points="264.231,-7.5001 254.231,-11 264.231,-14.5001 264.231,-7.5001"/>
</g>
<!-- Node4 -->
<g id="node7" class="node"><title>Node4</title>
<a xlink:href="hfa-se-async_8c.html#a3c04138a5bfe5d72780bb7e82a18e627" target="_top" xlink:title="main">
<polygon fill="white" stroke="black" points="420,-0.5 420,-21.5 460,-21.5 460,-0.5 420,-0.5"/>
<text text-anchor="middle" x="440" y="-8.5" font-family="FreeSans" font-size="10.00">main</text>
</a>
</g>
<!-- Node3&#45;&gt;Node4 -->
<g id="edge6" class="edge"><title>Node3&#45;&gt;Node4</title>
<path fill="none" stroke="midnightblue" d="M394.532,-11C403.572,-11 412.36,-11 419.762,-11"/>
<polygon fill="midnightblue" stroke="midnightblue" points="394.28,-7.5001 384.28,-11 394.28,-14.5001 394.28,-7.5001"/>
</g>
</g>
</svg>
