<?xml version="1.0" encoding="UTF-8" standalone="no"?>
<!DOCTYPE svg PUBLIC "-//W3C//DTD SVG 1.1//EN"
 "http://www.w3.org/Graphics/SVG/1.1/DTD/svg11.dtd">
<!-- Generated by graphviz version 2.24.0 (20090616.2323)
 -->
<!-- Title: hfautils_create_pktwqe Pages: 1 -->
<svg width="386pt" height="30pt"
 viewBox="0.00 0.00 386.00 30.00" xmlns="http://www.w3.org/2000/svg" xmlns:xlink="http://www.w3.org/1999/xlink">
<g id="graph1" class="graph" transform="scale(1 1) rotate(0) translate(4 26)">
<title>hfautils_create_pktwqe</title>
<polygon fill="white" stroke="white" points="-4,5 -4,-26 383,-26 383,5 -4,5"/>
<!-- Node1 -->
<g id="node1" class="node"><title>Node1</title>
<polygon fill="#bfbfbf" stroke="black" points="0,-0.5 0,-21.5 126,-21.5 126,-0.5 0,-0.5"/>
<text text-anchor="middle" x="63" y="-8.5" font-family="FreeSans" font-size="10.00">hfautils_create_pktwqe</text>
</g>
<!-- Node2 -->
<g id="node3" class="node"><title>Node2</title>
<a xlink:href="app-utils_8c.html#a4b47f3c9c5a0b3eaee64e264171628a3" target="_top" xlink:title="This routine reads data of chunksize/a packet from given payload(Normal/PCAP) file and returns data b...">
<polygon fill="white" stroke="black" points="162,-0.5 162,-21.5 288,-21.5 288,-0.5 162,-0.5"/>
<text text-anchor="middle" x="225" y="-8.5" font-family="FreeSans" font-size="10.00">hfautils_parse_payload</text>
</a>
</g>
<!-- Node1&#45;&gt;Node2 -->
<g id="edge2" class="edge"><title>Node1&#45;&gt;Node2</title>
<path fill="none" stroke="midnightblue" d="M126.097,-11C134.435,-11 143.038,-11 151.53,-11"/>
<polygon fill="midnightblue" stroke="midnightblue" points="151.808,-14.5001 161.808,-11 151.808,-7.5001 151.808,-14.5001"/>
</g>
<!-- Node3 -->
<g id="node5" class="node"><title>Node3</title>
<a xlink:href="app-utils_8c.html#a7fbf4d982c3e4493bda83be020e7274c" target="_top" xlink:title="Read file data from a gzip&#45;stream(compressed or uncompressed).">
<polygon fill="white" stroke="black" points="324.5,-0.5 324.5,-21.5 377.5,-21.5 377.5,-0.5 324.5,-0.5"/>
<text text-anchor="middle" x="351" y="-8.5" font-family="FreeSans" font-size="10.00">fd_read</text>
</a>
</g>
<!-- Node2&#45;&gt;Node3 -->
<g id="edge4" class="edge"><title>Node2&#45;&gt;Node3</title>
<path fill="none" stroke="midnightblue" d="M288.369,-11C297.232,-11 306.085,-11 314.227,-11"/>
<polygon fill="midnightblue" stroke="midnightblue" points="314.461,-14.5001 324.461,-11 314.461,-7.5001 314.461,-14.5001"/>
</g>
</g>
</svg>
