<?xml version="1.0" encoding="UTF-8" standalone="no"?>
<!DOCTYPE svg PUBLIC "-//W3C//DTD SVG 1.1//EN"
 "http://www.w3.org/Graphics/SVG/1.1/DTD/svg11.dtd">
<!-- Generated by graphviz version 2.24.0 (20090616.2323)
 -->
<!-- Title: hfautils_parse_arguments Pages: 1 -->
<svg width="390pt" height="108pt"
 viewBox="0.00 0.00 390.00 108.00" xmlns="http://www.w3.org/2000/svg" xmlns:xlink="http://www.w3.org/1999/xlink">
<g id="graph1" class="graph" transform="scale(1 1) rotate(0) translate(4 104)">
<title>hfautils_parse_arguments</title>
<polygon fill="white" stroke="white" points="-4,5 -4,-104 387,-104 387,5 -4,5"/>
<!-- Node1 -->
<g id="node1" class="node"><title>Node1</title>
<polygon fill="#bfbfbf" stroke="black" points="0,-39.5 0,-60.5 140,-60.5 140,-39.5 0,-39.5"/>
<text text-anchor="middle" x="70" y="-47.5" font-family="FreeSans" font-size="10.00">hfautils_parse_arguments</text>
</g>
<!-- Node2 -->
<g id="node3" class="node"><title>Node2</title>
<a xlink:href="app-utils_8c.html#ad9aef676c72e2455ff8cc29b0451a533" target="_top" xlink:title="initialize the tar for gzip.">
<polygon fill="white" stroke="black" points="185,-78.5 185,-99.5 263,-99.5 263,-78.5 185,-78.5"/>
<text text-anchor="middle" x="224" y="-86.5" font-family="FreeSans" font-size="10.00">hfautils_fsinit</text>
</a>
</g>
<!-- Node1&#45;&gt;Node2 -->
<g id="edge2" class="edge"><title>Node1&#45;&gt;Node2</title>
<path fill="none" stroke="midnightblue" d="M111.675,-60.554C131.272,-65.5169 154.766,-71.4668 175.191,-76.6392"/>
<polygon fill="midnightblue" stroke="midnightblue" points="174.387,-80.0461 184.94,-79.1082 176.106,-73.2603 174.387,-80.0461"/>
</g>
<!-- Node3 -->
<g id="node5" class="node"><title>Node3</title>
<a xlink:href="app-utils_8c.html#a091d7c63f67cac17115c60efc4f5ec8b" target="_top" xlink:title="gz_fsinit">
<polygon fill="white" stroke="black" points="317,-59.5 317,-80.5 373,-80.5 373,-59.5 317,-59.5"/>
<text text-anchor="middle" x="345" y="-67.5" font-family="FreeSans" font-size="10.00">gz_fsinit</text>
</a>
</g>
<!-- Node1&#45;&gt;Node3 -->
<g id="edge6" class="edge"><title>Node1&#45;&gt;Node3</title>
<path fill="none" stroke="midnightblue" d="M140.106,-55.0986C193.03,-58.9476 263.651,-64.0837 306.647,-67.2107"/>
<polygon fill="midnightblue" stroke="midnightblue" points="306.467,-70.7067 316.694,-67.9414 306.975,-63.7252 306.467,-70.7067"/>
</g>
<!-- Node4 -->
<g id="node8" class="node"><title>Node4</title>
<a xlink:href="app-utils_8c.html#a8d5ec2ca8ebb2e04916983e6053a5c79" target="_top" xlink:title="Return size of a file(compressed or uncompressed).">
<polygon fill="white" stroke="black" points="176.5,-0.5 176.5,-21.5 271.5,-21.5 271.5,-0.5 176.5,-0.5"/>
<text text-anchor="middle" x="224" y="-8.5" font-family="FreeSans" font-size="10.00">hfautils_file_size</text>
</a>
</g>
<!-- Node1&#45;&gt;Node4 -->
<g id="edge8" class="edge"><title>Node1&#45;&gt;Node4</title>
<path fill="none" stroke="midnightblue" d="M111.675,-39.446C130.421,-34.6987 152.733,-29.0482 172.513,-24.0389"/>
<polygon fill="midnightblue" stroke="midnightblue" points="173.457,-27.4103 182.292,-21.5624 171.739,-20.6245 173.457,-27.4103"/>
</g>
<!-- Node2&#45;&gt;Node3 -->
<g id="edge4" class="edge"><title>Node2&#45;&gt;Node3</title>
<path fill="none" stroke="midnightblue" d="M263.285,-82.8312C277.143,-80.6553 292.7,-78.2124 306.492,-76.0466"/>
<polygon fill="midnightblue" stroke="midnightblue" points="307.302,-79.4625 316.638,-74.4535 306.216,-72.5472 307.302,-79.4625"/>
</g>
<!-- Node5 -->
<g id="node10" class="node"><title>Node5</title>
<a xlink:href="app-utils_8c.html#a7c78f1e7a6e793fea566793e167e22bc" target="_top" xlink:title="gz_get_size">
<polygon fill="white" stroke="black" points="308.5,-0.5 308.5,-21.5 381.5,-21.5 381.5,-0.5 308.5,-0.5"/>
<text text-anchor="middle" x="345" y="-8.5" font-family="FreeSans" font-size="10.00">gz_get_size</text>
</a>
</g>
<!-- Node4&#45;&gt;Node5 -->
<g id="edge10" class="edge"><title>Node4&#45;&gt;Node5</title>
<path fill="none" stroke="midnightblue" d="M271.822,-11C280.464,-11 289.466,-11 298.081,-11"/>
<polygon fill="midnightblue" stroke="midnightblue" points="298.347,-14.5001 308.347,-11 298.347,-7.5001 298.347,-14.5001"/>
</g>
</g>
</svg>
