<?xml version="1.0" encoding="UTF-8" standalone="no"?>
<!DOCTYPE svg PUBLIC "-//W3C//DTD SVG 1.1//EN"
 "http://www.w3.org/Graphics/SVG/1.1/DTD/svg11.dtd">
<!-- Generated by graphviz version 2.24.0 (20090616.2323)
 -->
<!-- Title: hfautils_initialize_wqepool Pages: 1 -->
<svg width="298pt" height="70pt"
 viewBox="0.00 0.00 298.00 70.00" xmlns="http://www.w3.org/2000/svg" xmlns:xlink="http://www.w3.org/1999/xlink">
<g id="graph1" class="graph" transform="scale(1 1) rotate(0) translate(4 66)">
<title>hfautils_initialize_wqepool</title>
<polygon fill="white" stroke="white" points="-4,5 -4,-66 295,-66 295,5 -4,5"/>
<!-- Node1 -->
<g id="node1" class="node"><title>Node1</title>
<polygon fill="#bfbfbf" stroke="black" points="0,-14 0,-48 94,-48 94,-14 0,-14"/>
<text text-anchor="start" x="8" y="-35" font-family="FreeSans" font-size="10.00">hfautils_initialize</text>
<text text-anchor="middle" x="47" y="-22" font-family="FreeSans" font-size="10.00">_wqepool</text>
</g>
<!-- Node2 -->
<g id="node3" class="node"><title>Node2</title>
<a xlink:href="hfa-se-ctx_8c.html#a3c04138a5bfe5d72780bb7e82a18e627" target="_top" xlink:title="main">
<polygon fill="white" stroke="black" points="152,-40.5 152,-61.5 192,-61.5 192,-40.5 152,-40.5"/>
<text text-anchor="middle" x="172" y="-48.5" font-family="FreeSans" font-size="10.00">main</text>
</a>
</g>
<!-- Node1&#45;&gt;Node2 -->
<g id="edge2" class="edge"><title>Node1&#45;&gt;Node2</title>
<path fill="none" stroke="midnightblue" d="M104.196,-40.1514C121.246,-42.8794 138.826,-45.6922 151.812,-47.77"/>
<polygon fill="midnightblue" stroke="midnightblue" points="104.685,-36.6851 94.2571,-38.5611 103.579,-43.5972 104.685,-36.6851"/>
</g>
<!-- Node3 -->
<g id="node5" class="node"><title>Node3</title>
<a xlink:href="hfa-se-flow-wqe_8c.html#ac9d76c71e91aeadf1fe1863b4fbfa134" target="_top" xlink:title="Initialize the interfaces to receive network traffic.">
<polygon fill="white" stroke="black" points="130.5,-0.5 130.5,-21.5 213.5,-21.5 213.5,-0.5 130.5,-0.5"/>
<text text-anchor="middle" x="172" y="-8.5" font-family="FreeSans" font-size="10.00">init_interfaces</text>
</a>
</g>
<!-- Node1&#45;&gt;Node3 -->
<g id="edge4" class="edge"><title>Node1&#45;&gt;Node3</title>
<path fill="none" stroke="midnightblue" d="M104.15,-21.8561C112.999,-20.4401 121.993,-19.0011 130.415,-17.6536"/>
<polygon fill="midnightblue" stroke="midnightblue" points="103.579,-18.4028 94.2571,-23.4389 104.685,-25.3149 103.579,-18.4028"/>
</g>
<!-- Node4 -->
<g id="node7" class="node"><title>Node4</title>
<a xlink:href="hfa-se-flow-wqe_8c.html#a3c04138a5bfe5d72780bb7e82a18e627" target="_top" xlink:title="Implementation.">
<polygon fill="white" stroke="black" points="250,-0.5 250,-21.5 290,-21.5 290,-0.5 250,-0.5"/>
<text text-anchor="middle" x="270" y="-8.5" font-family="FreeSans" font-size="10.00">main</text>
</a>
</g>
<!-- Node3&#45;&gt;Node4 -->
<g id="edge6" class="edge"><title>Node3&#45;&gt;Node4</title>
<path fill="none" stroke="midnightblue" d="M223.615,-11C232.894,-11 242.047,-11 249.739,-11"/>
<polygon fill="midnightblue" stroke="midnightblue" points="223.561,-7.5001 213.561,-11 223.561,-14.5001 223.561,-7.5001"/>
</g>
</g>
</svg>
