<?xml version="1.0" encoding="UTF-8" standalone="no"?>
<!DOCTYPE svg PUBLIC "-//W3C//DTD SVG 1.1//EN"
 "http://www.w3.org/Graphics/SVG/1.1/DTD/svg11.dtd">
<!-- Generated by graphviz version 2.24.0 (20090616.2323)
 -->
<!-- Title: hfautils_getnb_size Pages: 1 -->
<svg width="376pt" height="42pt"
 viewBox="0.00 0.00 376.00 42.00" xmlns="http://www.w3.org/2000/svg" xmlns:xlink="http://www.w3.org/1999/xlink">
<g id="graph1" class="graph" transform="scale(1 1) rotate(0) translate(4 38)">
<title>hfautils_getnb_size</title>
<polygon fill="white" stroke="white" points="-4,5 -4,-38 373,-38 373,5 -4,5"/>
<!-- Node1 -->
<g id="node1" class="node"><title>Node1</title>
<polygon fill="#bfbfbf" stroke="black" points="0,-6.5 0,-27.5 108,-27.5 108,-6.5 0,-6.5"/>
<text text-anchor="middle" x="54" y="-14.5" font-family="FreeSans" font-size="10.00">hfautils_getnb_size</text>
</g>
<!-- Node2 -->
<g id="node3" class="node"><title>Node2</title>
<a xlink:href="hfa-lnx-async_8c.html#abc17fab65a320998a273d112ff24d658" target="_top" xlink:title="Configure cluster memory resources.">
<polygon fill="white" stroke="black" points="144,-0 144,-34 290,-34 290,-0 144,-0"/>
<text text-anchor="start" x="152" y="-21" font-family="FreeSans" font-size="10.00">configure_cluster_memory</text>
<text text-anchor="middle" x="217" y="-8" font-family="FreeSans" font-size="10.00">_resources</text>
</a>
</g>
<!-- Node1&#45;&gt;Node2 -->
<g id="edge2" class="edge"><title>Node1&#45;&gt;Node2</title>
<path fill="none" stroke="midnightblue" d="M118.331,-17C126.697,-17 135.315,-17 143.812,-17"/>
<polygon fill="midnightblue" stroke="midnightblue" points="118.277,-13.5001 108.277,-17 118.277,-20.5001 118.277,-13.5001"/>
</g>
<!-- Node3 -->
<g id="node5" class="node"><title>Node3</title>
<a xlink:href="hfa-lnx-async_8c.html#a78ffddbcd7cdd164889cfb53ea367886" target="_top" xlink:title="entry">
<polygon fill="white" stroke="black" points="326.5,-6.5 326.5,-27.5 367.5,-27.5 367.5,-6.5 326.5,-6.5"/>
<text text-anchor="middle" x="347" y="-14.5" font-family="FreeSans" font-size="10.00">entry</text>
</a>
</g>
<!-- Node2&#45;&gt;Node3 -->
<g id="edge4" class="edge"><title>Node2&#45;&gt;Node3</title>
<path fill="none" stroke="midnightblue" d="M300.471,-17C310.011,-17 318.972,-17 326.435,-17"/>
<polygon fill="midnightblue" stroke="midnightblue" points="300.358,-13.5001 290.358,-17 300.358,-20.5001 300.358,-13.5001"/>
</g>
</g>
</svg>
