<?xml version="1.0" encoding="UTF-8" standalone="no"?>
<!DOCTYPE svg PUBLIC "-//W3C//DTD SVG 1.1//EN"
 "http://www.w3.org/Graphics/SVG/1.1/DTD/svg11.dtd">
<!-- Generated by graphviz version 2.24.0 (20090616.2323)
 -->
<!-- Title: hfautils_download_graph Pages: 1 -->
<!--zoomable 130 -->
<svg id="main" version="1.1" xmlns="http://www.w3.org/2000/svg" xmlns:xlink="http://www.w3.org/1999/xlink" xml:space="preserve" onload="init(evt)">
        <defs>
                <circle id="rim" cx="0" cy="0" r="7"/>
                <circle id="rim2" cx="0" cy="0" r="3.5"/>
                <g id="zoomPlus">
                        <use xlink:href="#rim" fill="#404040">
                                <set attributeName="fill" to="#808080" begin="zoomplus.mouseover" end="zoomplus.mouseout"/>
                        </use>
                        <path d="M-4,0h8M0,-4v8" fill="none" stroke="white" stroke-width="1.5" pointer-events="none"/>
                </g>
                <g id="zoomMin">
                        <use xlink:href="#rim" fill="#404040">
                                <set attributeName="fill" to="#808080" begin="zoomminus.mouseover" end="zoomminus.mouseout"/>
                        </use>
                        <path d="M-4,0h8" fill="none" stroke="white" stroke-width="1.5" pointer-events="none"/>
                </g>
                <g id="dirArrow">
                        <path fill="none" stroke="white" stroke-width="1.5" d="M0,-3.0v7 M-2.5,-0.5L0,-3.0L2.5,-0.5"/>
                </g>
               <g id="resetDef">
                       <use xlink:href="#rim2" fill="#404040">
                               <set attributeName="fill" to="#808080" begin="reset.mouseover" end="reset.mouseout"/>
                       </use>
               </g>
        </defs>

<script type="text/javascript">
var viewWidth = 1044;
var viewHeight = 130;
var sectionId = 'dynsection-9';
</script>
<script xlink:href="svgpan.js"/>
<svg id="graph" class="graph">
<g id="viewport">
<title>hfautils_download_graph</title>
<polygon fill="white" stroke="white" points="-4,5 -4,-126 1041,-126 1041,5 -4,5"/>
<!-- Node1 -->
<g id="node1" class="node"><title>Node1</title>
<polygon fill="#bfbfbf" stroke="black" points="0.5,-43.5 0.5,-64.5 135.5,-64.5 135.5,-43.5 0.5,-43.5"/>
<text text-anchor="middle" x="68" y="-51.5" font-family="FreeSans" font-size="10.00">hfautils_download_graph</text>
</g>
<!-- Node2 -->
<g id="node3" class="node"><title>Node2</title>
<a xlink:href="cvm-hfa-graph_8c.html#a647ccf649077cb5170221218ab2cdccf" target="_top" xlink:title="This routine downloads graph data to the HFA engine in a non&#45;blocking manner.">
<polygon fill="white" stroke="black" points="350,-79 350,-113 492,-113 492,-79 350,-79"/>
<text text-anchor="start" x="358" y="-100" font-family="FreeSans" font-size="10.00">hfa_graph_memload_data</text>
<text text-anchor="middle" x="421" y="-87" font-family="FreeSans" font-size="10.00">_async</text>
</a>
</g>
<!-- Node1&#45;&gt;Node2 -->
<g id="edge2" class="edge"><title>Node1&#45;&gt;Node2</title>
<path fill="none" stroke="midnightblue" d="M117.291,-64.5453C134.534,-67.9503 154.064,-71.4897 172,-74 227.773,-81.806 290.985,-87.3512 339.763,-90.9218"/>
<polygon fill="midnightblue" stroke="midnightblue" points="339.719,-94.4276 349.945,-91.6539 340.221,-87.4457 339.719,-94.4276"/>
</g>
<!-- Node4 -->
<g id="node7" class="node"><title>Node4</title>
<a xlink:href="cvm-hfa-graph_8c.html#a0f2f13fb51e5d56dcf049ff3c7c6ad78" target="_top" xlink:title="This routine is used to check the status of the graph.">
<polygon fill="white" stroke="black" points="549,-40.5 549,-61.5 663,-61.5 663,-40.5 549,-40.5"/>
<text text-anchor="middle" x="606" y="-48.5" font-family="FreeSans" font-size="10.00">hfa_graph_getstatus</text>
</a>
</g>
<!-- Node1&#45;&gt;Node4 -->
<g id="edge20" class="edge"><title>Node1&#45;&gt;Node4</title>
<path fill="none" stroke="midnightblue" d="M112.778,-43.4576C131.034,-39.6662 152.415,-35.8661 172,-34 301.478,-21.6632 453.505,-33.6687 538.913,-42.8144"/>
<polygon fill="midnightblue" stroke="midnightblue" points="538.672,-46.3088 548.993,-43.9138 539.431,-39.3501 538.672,-46.3088"/>
</g>
<!-- Node11 -->
<g id="node22" class="node"><title>Node11</title>
<a xlink:href="cvm-hfa-graph_8c.html#a9e3f1a4bf2be683265108b5131541e89" target="_top" xlink:title="This routine downloads graph data to the HFA engine in a blocking manner.">
<polygon fill="white" stroke="black" points="172,-43.5 172,-64.5 314,-64.5 314,-43.5 172,-43.5"/>
<text text-anchor="middle" x="243" y="-51.5" font-family="FreeSans" font-size="10.00">hfa_graph_memload_data</text>
</a>
</g>
<!-- Node1&#45;&gt;Node11 -->
<g id="edge22" class="edge"><title>Node1&#45;&gt;Node11</title>
<path fill="none" stroke="midnightblue" d="M135.66,-54C144.163,-54 152.93,-54 161.616,-54"/>
<polygon fill="midnightblue" stroke="midnightblue" points="161.755,-57.5001 171.755,-54 161.755,-50.5001 161.755,-57.5001"/>
</g>
<!-- Node3 -->
<g id="node5" class="node"><title>Node3</title>
<a xlink:href="cvm-hfa_8h.html#a760b4a245f0bf0c6823c9edb7eba6425" target="_top" xlink:title="Indicates whether device has its own HFA memory.">
<polygon fill="white" stroke="black" points="528.5,-85.5 528.5,-106.5 683.5,-106.5 683.5,-85.5 528.5,-85.5"/>
<text text-anchor="middle" x="606" y="-93.5" font-family="FreeSans" font-size="10.00">hfa_dev_haspvt_hfamemory</text>
</a>
</g>
<!-- Node2&#45;&gt;Node3 -->
<g id="edge4" class="edge"><title>Node2&#45;&gt;Node3</title>
<path fill="none" stroke="midnightblue" d="M492.261,-96C500.748,-96 509.486,-96 518.17,-96"/>
<polygon fill="midnightblue" stroke="midnightblue" points="518.32,-99.5001 528.32,-96 518.32,-92.5001 518.32,-99.5001"/>
</g>
<!-- Node2&#45;&gt;Node4 -->
<g id="edge6" class="edge"><title>Node2&#45;&gt;Node4</title>
<path fill="none" stroke="midnightblue" d="M490.941,-78.9874C511.504,-73.9855 533.652,-68.5982 552.972,-63.8988"/>
<polygon fill="midnightblue" stroke="midnightblue" points="553.904,-67.2741 562.794,-61.5097 552.25,-60.4724 553.904,-67.2741"/>
</g>
<!-- Node5 -->
<g id="node9" class="node"><title>Node5</title>
<a xlink:href="cvm-hfa_8c.html#a4753d2dd586e19676b1a59dd16baaeed" target="_top" xlink:title="Obtain status of submitted insruction.">
<polygon fill="white" stroke="black" points="727.5,-80.5 727.5,-101.5 860.5,-101.5 860.5,-80.5 727.5,-80.5"/>
<text text-anchor="middle" x="794" y="-88.5" font-family="FreeSans" font-size="10.00">hfa_dev_getasyncstatus</text>
</a>
</g>
<!-- Node4&#45;&gt;Node5 -->
<g id="edge8" class="edge"><title>Node4&#45;&gt;Node5</title>
<path fill="none" stroke="midnightblue" d="M655.395,-61.5095C679.694,-66.6795 709.169,-72.9508 734.68,-78.3788"/>
<polygon fill="midnightblue" stroke="midnightblue" points="734.1,-81.8335 744.609,-80.4913 735.556,-74.9868 734.1,-81.8335"/>
</g>
<!-- Node8 -->
<g id="node15" class="node"><title>Node8</title>
<a xlink:href="cvm-hfa-instr_8h.html#aa7b5661907cf23e01fe784a70980ed4b" target="_top" xlink:title="Gets itype from RWORD0.">
<polygon fill="white" stroke="black" points="733,-40.5 733,-61.5 855,-61.5 855,-40.5 733,-40.5"/>
<text text-anchor="middle" x="794" y="-48.5" font-family="FreeSans" font-size="10.00">cvm_hfa_rslt_getitype</text>
</a>
</g>
<!-- Node4&#45;&gt;Node8 -->
<g id="edge14" class="edge"><title>Node4&#45;&gt;Node8</title>
<path fill="none" stroke="midnightblue" d="M663.172,-51C681.939,-51 703.031,-51 722.711,-51"/>
<polygon fill="midnightblue" stroke="midnightblue" points="722.854,-54.5001 732.854,-51 722.854,-47.5001 722.854,-54.5001"/>
</g>
<!-- Node9 -->
<g id="node17" class="node"><title>Node9</title>
<a xlink:href="cvm-hfa-graph_8c.html#aa4c0667cc4f92a08c249041eb8a4ec58" target="_top" xlink:title="This routine is used to free the buffers and change the graph load status after instruction completio...">
<polygon fill="white" stroke="black" points="720.5,-0.5 720.5,-21.5 867.5,-21.5 867.5,-0.5 720.5,-0.5"/>
<text text-anchor="middle" x="794" y="-8.5" font-family="FreeSans" font-size="10.00">__hfa_graph_processstatus</text>
</a>
</g>
<!-- Node4&#45;&gt;Node9 -->
<g id="edge16" class="edge"><title>Node4&#45;&gt;Node9</title>
<path fill="none" stroke="midnightblue" d="M655.395,-40.4905C679.694,-35.3205 709.169,-29.0492 734.68,-23.6212"/>
<polygon fill="midnightblue" stroke="midnightblue" points="735.556,-27.0132 744.609,-21.5087 734.1,-20.1665 735.556,-27.0132"/>
</g>
<!-- Node6 -->
<g id="node11" class="node"><title>Node6</title>
<a xlink:href="cvm-hfa-instr_8h.html#a56f2522dcba965745a1bc239fc432dca" target="_top" xlink:title="Gets done from RWORD0.">
<polygon fill="white" stroke="black" points="908.5,-60.5 908.5,-81.5 1031.5,-81.5 1031.5,-60.5 908.5,-60.5"/>
<text text-anchor="middle" x="970" y="-68.5" font-family="FreeSans" font-size="10.00">cvm_hfa_rslt_getdone</text>
</a>
</g>
<!-- Node5&#45;&gt;Node6 -->
<g id="edge10" class="edge"><title>Node5&#45;&gt;Node6</title>
<path fill="none" stroke="midnightblue" d="M860.538,-83.4389C872.782,-82.0475 885.616,-80.589 898.012,-79.1804"/>
<polygon fill="midnightblue" stroke="midnightblue" points="898.758,-82.6183 908.299,-78.0115 897.968,-75.6631 898.758,-82.6183"/>
</g>
<!-- Node7 -->
<g id="node13" class="node"><title>Node7</title>
<a xlink:href="cvm-hfa-instr_8h.html#a9700a50b68b6616506528eb725a8bda1" target="_top" xlink:title="Gets reason from RWORD0.">
<polygon fill="white" stroke="black" points="904.5,-100.5 904.5,-121.5 1035.5,-121.5 1035.5,-100.5 904.5,-100.5"/>
<text text-anchor="middle" x="970" y="-108.5" font-family="FreeSans" font-size="10.00">cvm_hfa_rslt_getreason</text>
</a>
</g>
<!-- Node5&#45;&gt;Node7 -->
<g id="edge12" class="edge"><title>Node5&#45;&gt;Node7</title>
<path fill="none" stroke="midnightblue" d="M860.538,-98.5611C871.494,-99.8061 882.922,-101.105 894.086,-102.373"/>
<polygon fill="midnightblue" stroke="midnightblue" points="893.912,-105.876 904.243,-103.528 894.702,-98.9208 893.912,-105.876"/>
</g>
<!-- Node10 -->
<g id="node19" class="node"><title>Node10</title>
<a xlink:href="cvm-hfa-cluster_8c.html#ad8cad96579f5a310b62caaf8c166658f" target="_top" xlink:title="Returns a copy of a cluster of the HFA device.">
<polygon fill="white" stroke="black" points="925,-0.5 925,-21.5 1015,-21.5 1015,-0.5 925,-0.5"/>
<text text-anchor="middle" x="970" y="-8.5" font-family="FreeSans" font-size="10.00">hfa_get_cluster</text>
</a>
</g>
<!-- Node9&#45;&gt;Node10 -->
<g id="edge18" class="edge"><title>Node9&#45;&gt;Node10</title>
<path fill="none" stroke="midnightblue" d="M867.62,-11C883.386,-11 899.785,-11 914.719,-11"/>
<polygon fill="midnightblue" stroke="midnightblue" points="914.797,-14.5001 924.797,-11 914.797,-7.5001 914.797,-14.5001"/>
</g>
<!-- Node11&#45;&gt;Node2 -->
<g id="edge24" class="edge"><title>Node11&#45;&gt;Node2</title>
<path fill="none" stroke="midnightblue" d="M287.917,-64.5984C303.732,-68.3301 322.032,-72.6481 339.904,-76.865"/>
<polygon fill="midnightblue" stroke="midnightblue" points="339.234,-80.3029 349.77,-79.193 340.841,-73.49 339.234,-80.3029"/>
</g>
<!-- Node11&#45;&gt;Node4 -->
<g id="edge26" class="edge"><title>Node11&#45;&gt;Node4</title>
<path fill="none" stroke="midnightblue" d="M314.284,-53.4109C379.317,-52.8734 474.732,-52.0849 538.538,-51.5575"/>
<polygon fill="midnightblue" stroke="midnightblue" points="538.919,-55.0546 548.89,-51.472 538.862,-48.0548 538.919,-55.0546"/>
</g>
</g>
</svg>
        <g id="navigator" transform="translate(0 0)" fill="#404254">
                <rect fill="#f2f5e9" fill-opacity="0.5" stroke="#606060" stroke-width=".5" x="0" y="0" width="60" height="60"/>
                <use id="zoomplus" xlink:href="#zoomPlus" x="17" y="9" onmousedown="handleZoom(evt,'in')"/>
                <use id="zoomminus" xlink:href="#zoomMin" x="42" y="9" onmousedown="handleZoom(evt,'out')"/>
                <use id="reset" xlink:href="#resetDef" x="30" y="36" onmousedown="handleReset()"/>
                <g id="arrowUp" xlink:href="#dirArrow" transform="translate(30 24)" onmousedown="handlePan(0,-1)">
                  <use xlink:href="#rim" fill="#404040">
                        <set attributeName="fill" to="#808080" begin="arrowUp.mouseover" end="arrowUp.mouseout"/>
                  </use>
                  <path fill="none" stroke="white" stroke-width="1.5" d="M0,-3.0v7 M-2.5,-0.5L0,-3.0L2.5,-0.5"/>
                </g>
                <g id="arrowRight" xlink:href="#dirArrow" transform="rotate(90) translate(36 -43)" onmousedown="handlePan(1,0)">
                  <use xlink:href="#rim" fill="#404040">
                        <set attributeName="fill" to="#808080" begin="arrowRight.mouseover" end="arrowRight.mouseout"/>
                  </use>
                  <path fill="none" stroke="white" stroke-width="1.5" d="M0,-3.0v7 M-2.5,-0.5L0,-3.0L2.5,-0.5"/>
                </g>
                <g id="arrowDown" xlink:href="#dirArrow" transform="rotate(180) translate(-30 -48)" onmousedown="handlePan(0,1)">
                  <use xlink:href="#rim" fill="#404040">
                        <set attributeName="fill" to="#808080" begin="arrowDown.mouseover" end="arrowDown.mouseout"/>
                  </use>
                  <path fill="none" stroke="white" stroke-width="1.5" d="M0,-3.0v7 M-2.5,-0.5L0,-3.0L2.5,-0.5"/>
                </g>
                <g id="arrowLeft" xlink:href="#dirArrow" transform="rotate(270) translate(-36 17)" onmousedown="handlePan(-1,0)">
                  <use xlink:href="#rim" fill="#404040">
                        <set attributeName="fill" to="#808080" begin="arrowLeft.mouseover" end="arrowLeft.mouseout"/>
                  </use>
                  <path fill="none" stroke="white" stroke-width="1.5" d="M0,-3.0v7 M-2.5,-0.5L0,-3.0L2.5,-0.5"/>
                </g>
        </g>
        <svg viewBox="0 0 15 15" width="100%" height="30px" preserveAspectRatio="xMaxYMin meet">
         <g id="arrow_out" transform="scale(0.3 0.3)">
          <a xlink:href="app-utils_8c_aed95bb72627cff313c596ebcfcd8af61_cgraph_org.svg" target="_base">
           <rect id="button" ry="5" rx="5" y="6" x="6" height="38" width="38"
                fill="#f2f5e9" fill-opacity="0.5" stroke="#606060" stroke-width="1.0"/>
           <path id="arrow"
             d="M 11.500037,31.436501 C 11.940474,20.09759 22.043105,11.32322 32.158766,21.979434 L 37.068811,17.246167 C 37.068811,17.246167 37.088388,32 37.088388,32 L 22.160133,31.978069 C 22.160133,31.978069 26.997745,27.140456 26.997745,27.140456 C 18.528582,18.264221 13.291696,25.230495 11.500037,31.436501 z"
             style="fill:#404040;"/>
          </a>
         </g>
        </svg>
</svg>
