<?xml version="1.0" encoding="UTF-8" standalone="no"?>
<!DOCTYPE svg PUBLIC "-//W3C//DTD SVG 1.1//EN"
 "http://www.w3.org/Graphics/SVG/1.1/DTD/svg11.dtd">
<!-- Generated by graphviz version 2.24.0 (20090616.2323)
 -->
<!-- Title: hfautils_create_localpkts Pages: 1 -->
<svg width="220pt" height="70pt"
 viewBox="0.00 0.00 220.00 70.00" xmlns="http://www.w3.org/2000/svg" xmlns:xlink="http://www.w3.org/1999/xlink">
<g id="graph1" class="graph" transform="scale(1 1) rotate(0) translate(4 66)">
<title>hfautils_create_localpkts</title>
<polygon fill="white" stroke="white" points="-4,5 -4,-66 217,-66 217,5 -4,5"/>
<!-- Node1 -->
<g id="node1" class="node"><title>Node1</title>
<polygon fill="#bfbfbf" stroke="black" points="0,-20.5 0,-41.5 134,-41.5 134,-20.5 0,-20.5"/>
<text text-anchor="middle" x="67" y="-28.5" font-family="FreeSans" font-size="10.00">hfautils_create_localpkts</text>
</g>
<!-- Node2 -->
<g id="node3" class="node"><title>Node2</title>
<a xlink:href="hfa-lnx-ctx_8c.html#a78ffddbcd7cdd164889cfb53ea367886" target="_top" xlink:title="entry">
<polygon fill="white" stroke="black" points="170.5,-40.5 170.5,-61.5 211.5,-61.5 211.5,-40.5 170.5,-40.5"/>
<text text-anchor="middle" x="191" y="-48.5" font-family="FreeSans" font-size="10.00">entry</text>
</a>
</g>
<!-- Node1&#45;&gt;Node2 -->
<g id="edge2" class="edge"><title>Node1&#45;&gt;Node2</title>
<path fill="none" stroke="midnightblue" d="M142.279,-43.1418C152.598,-44.8061 162.401,-46.3873 170.473,-47.6892"/>
<polygon fill="midnightblue" stroke="midnightblue" points="142.698,-39.6642 132.268,-41.5271 141.583,-46.5749 142.698,-39.6642"/>
</g>
<!-- Node3 -->
<g id="node5" class="node"><title>Node3</title>
<a xlink:href="hfa-se-ctx_8c.html#a3c04138a5bfe5d72780bb7e82a18e627" target="_top" xlink:title="main">
<polygon fill="white" stroke="black" points="171,-0.5 171,-21.5 211,-21.5 211,-0.5 171,-0.5"/>
<text text-anchor="middle" x="191" y="-8.5" font-family="FreeSans" font-size="10.00">main</text>
</a>
</g>
<!-- Node1&#45;&gt;Node3 -->
<g id="edge4" class="edge"><title>Node1&#45;&gt;Node3</title>
<path fill="none" stroke="midnightblue" d="M142.362,-18.8448C152.765,-17.167 162.64,-15.5742 170.741,-14.2676"/>
<polygon fill="midnightblue" stroke="midnightblue" points="141.583,-15.4251 132.268,-20.4729 142.698,-22.3358 141.583,-15.4251"/>
</g>
</g>
</svg>
