<?xml version="1.0" encoding="UTF-8" standalone="no"?>
<!DOCTYPE svg PUBLIC "-//W3C//DTD SVG 1.1//EN"
 "http://www.w3.org/Graphics/SVG/1.1/DTD/svg11.dtd">
<!-- Generated by graphviz version 2.24.0 (20090616.2323)
 -->
<!-- Title: hfautils_parse_arguments Pages: 1 -->
<svg width="354pt" height="30pt"
 viewBox="0.00 0.00 354.00 30.00" xmlns="http://www.w3.org/2000/svg" xmlns:xlink="http://www.w3.org/1999/xlink">
<g id="graph1" class="graph" transform="scale(1 1) rotate(0) translate(4 26)">
<title>hfautils_parse_arguments</title>
<polygon fill="white" stroke="white" points="-4,5 -4,-26 351,-26 351,5 -4,5"/>
<!-- Node1 -->
<g id="node1" class="node"><title>Node1</title>
<polygon fill="#bfbfbf" stroke="black" points="0,-0.5 0,-21.5 140,-21.5 140,-0.5 0,-0.5"/>
<text text-anchor="middle" x="70" y="-8.5" font-family="FreeSans" font-size="10.00">hfautils_parse_arguments</text>
</g>
<!-- Node2 -->
<g id="node3" class="node"><title>Node2</title>
<a xlink:href="hfa-se-async_8c.html#ab42726e951c529a41b8e09fd6e84ada2" target="_top" xlink:title="Process command line options, and read graph.">
<polygon fill="white" stroke="black" points="176,-0.5 176,-21.5 270,-21.5 270,-0.5 176,-0.5"/>
<text text-anchor="middle" x="223" y="-8.5" font-family="FreeSans" font-size="10.00">process_options</text>
</a>
</g>
<!-- Node1&#45;&gt;Node2 -->
<g id="edge2" class="edge"><title>Node1&#45;&gt;Node2</title>
<path fill="none" stroke="midnightblue" d="M150.461,-11C159.172,-11 167.814,-11 175.935,-11"/>
<polygon fill="midnightblue" stroke="midnightblue" points="150.231,-7.5001 140.231,-11 150.231,-14.5001 150.231,-7.5001"/>
</g>
<!-- Node3 -->
<g id="node5" class="node"><title>Node3</title>
<a xlink:href="hfa-se-async_8c.html#a3c04138a5bfe5d72780bb7e82a18e627" target="_top" xlink:title="main">
<polygon fill="white" stroke="black" points="306,-0.5 306,-21.5 346,-21.5 346,-0.5 306,-0.5"/>
<text text-anchor="middle" x="326" y="-8.5" font-family="FreeSans" font-size="10.00">main</text>
</a>
</g>
<!-- Node2&#45;&gt;Node3 -->
<g id="edge4" class="edge"><title>Node2&#45;&gt;Node3</title>
<path fill="none" stroke="midnightblue" d="M280.532,-11C289.572,-11 298.36,-11 305.762,-11"/>
<polygon fill="midnightblue" stroke="midnightblue" points="280.28,-7.5001 270.28,-11 280.28,-14.5001 280.28,-7.5001"/>
</g>
</g>
</svg>
