<?xml version="1.0" encoding="UTF-8" standalone="no"?>
<!DOCTYPE svg PUBLIC "-//W3C//DTD SVG 1.1//EN"
 "http://www.w3.org/Graphics/SVG/1.1/DTD/svg11.dtd">
<!-- Generated by graphviz version 2.24.0 (20090616.2323)
 -->
<!-- Title: hfautils_initinterfaces Pages: 1 -->
<svg width="322pt" height="70pt"
 viewBox="0.00 0.00 322.00 70.00" xmlns="http://www.w3.org/2000/svg" xmlns:xlink="http://www.w3.org/1999/xlink">
<g id="graph1" class="graph" transform="scale(1 1) rotate(0) translate(4 66)">
<title>hfautils_initinterfaces</title>
<polygon fill="white" stroke="white" points="-4,5 -4,-66 319,-66 319,5 -4,5"/>
<!-- Node1 -->
<g id="node1" class="node"><title>Node1</title>
<polygon fill="#bfbfbf" stroke="black" points="0.5,-20.5 0.5,-41.5 117.5,-41.5 117.5,-20.5 0.5,-20.5"/>
<text text-anchor="middle" x="59" y="-28.5" font-family="FreeSans" font-size="10.00">hfautils_initinterfaces</text>
</g>
<!-- Node2 -->
<g id="node3" class="node"><title>Node2</title>
<a xlink:href="hfa-se-ctx_8c.html#a3c04138a5bfe5d72780bb7e82a18e627" target="_top" xlink:title="main">
<polygon fill="white" stroke="black" points="176,-40.5 176,-61.5 216,-61.5 216,-40.5 176,-40.5"/>
<text text-anchor="middle" x="196" y="-48.5" font-family="FreeSans" font-size="10.00">main</text>
</a>
</g>
<!-- Node1&#45;&gt;Node2 -->
<g id="edge2" class="edge"><title>Node1&#45;&gt;Node2</title>
<path fill="none" stroke="midnightblue" d="M128.166,-41.0973C145.658,-43.6508 163.092,-46.1959 175.905,-48.0664"/>
<polygon fill="midnightblue" stroke="midnightblue" points="128.296,-37.5792 117.895,-39.5979 127.285,-44.5058 128.296,-37.5792"/>
</g>
<!-- Node3 -->
<g id="node5" class="node"><title>Node3</title>
<a xlink:href="hfa-se-flow-wqe_8c.html#ac9d76c71e91aeadf1fe1863b4fbfa134" target="_top" xlink:title="Initialize the interfaces to receive network traffic.">
<polygon fill="white" stroke="black" points="154.5,-0.5 154.5,-21.5 237.5,-21.5 237.5,-0.5 154.5,-0.5"/>
<text text-anchor="middle" x="196" y="-8.5" font-family="FreeSans" font-size="10.00">init_interfaces</text>
</a>
</g>
<!-- Node1&#45;&gt;Node3 -->
<g id="edge4" class="edge"><title>Node1&#45;&gt;Node3</title>
<path fill="none" stroke="midnightblue" d="M127.95,-20.9343C136.881,-19.6305 145.801,-18.3283 154.104,-17.1161"/>
<polygon fill="midnightblue" stroke="midnightblue" points="127.285,-17.4942 117.895,-22.4021 128.296,-24.4208 127.285,-17.4942"/>
</g>
<!-- Node4 -->
<g id="node7" class="node"><title>Node4</title>
<a xlink:href="hfa-se-flow-wqe_8c.html#a3c04138a5bfe5d72780bb7e82a18e627" target="_top" xlink:title="Implementation.">
<polygon fill="white" stroke="black" points="274,-0.5 274,-21.5 314,-21.5 314,-0.5 274,-0.5"/>
<text text-anchor="middle" x="294" y="-8.5" font-family="FreeSans" font-size="10.00">main</text>
</a>
</g>
<!-- Node3&#45;&gt;Node4 -->
<g id="edge6" class="edge"><title>Node3&#45;&gt;Node4</title>
<path fill="none" stroke="midnightblue" d="M247.615,-11C256.894,-11 266.047,-11 273.739,-11"/>
<polygon fill="midnightblue" stroke="midnightblue" points="247.561,-7.5001 237.561,-11 247.561,-14.5001 247.561,-7.5001"/>
</g>
</g>
</svg>
