<?xml version="1.0" encoding="UTF-8" standalone="no"?>
<!DOCTYPE svg PUBLIC "-//W3C//DTD SVG 1.1//EN"
 "http://www.w3.org/Graphics/SVG/1.1/DTD/svg11.dtd">
<!-- Generated by graphviz version 2.24.0 (20090616.2323)
 -->
<!-- Title: hfautils_create_localpkts Pages: 1 -->
<svg width="556pt" height="30pt"
 viewBox="0.00 0.00 556.00 30.00" xmlns="http://www.w3.org/2000/svg" xmlns:xlink="http://www.w3.org/1999/xlink">
<g id="graph1" class="graph" transform="scale(1 1) rotate(0) translate(4 26)">
<title>hfautils_create_localpkts</title>
<polygon fill="white" stroke="white" points="-4,5 -4,-26 553,-26 553,5 -4,5"/>
<!-- Node1 -->
<g id="node1" class="node"><title>Node1</title>
<polygon fill="#bfbfbf" stroke="black" points="0,-0.5 0,-21.5 134,-21.5 134,-0.5 0,-0.5"/>
<text text-anchor="middle" x="67" y="-8.5" font-family="FreeSans" font-size="10.00">hfautils_create_localpkts</text>
</g>
<!-- Node2 -->
<g id="node3" class="node"><title>Node2</title>
<a xlink:href="app-utils_8c.html#a0a399c2d3269d95b12dfc65ea2f6eed8" target="_top" xlink:title="Create local packets for pcap/normal payload.">
<polygon fill="white" stroke="black" points="170,-0.5 170,-21.5 296,-21.5 296,-0.5 170,-0.5"/>
<text text-anchor="middle" x="233" y="-8.5" font-family="FreeSans" font-size="10.00">hfautils_create_pktwqe</text>
</a>
</g>
<!-- Node1&#45;&gt;Node2 -->
<g id="edge2" class="edge"><title>Node1&#45;&gt;Node2</title>
<path fill="none" stroke="midnightblue" d="M134.04,-11C142.42,-11 151.026,-11 159.498,-11"/>
<polygon fill="midnightblue" stroke="midnightblue" points="159.742,-14.5001 169.742,-11 159.742,-7.5001 159.742,-14.5001"/>
</g>
<!-- Node3 -->
<g id="node5" class="node"><title>Node3</title>
<a xlink:href="app-utils_8c.html#a4b47f3c9c5a0b3eaee64e264171628a3" target="_top" xlink:title="This routine reads data of chunksize/a packet from given payload(Normal/PCAP) file and returns data b...">
<polygon fill="white" stroke="black" points="332,-0.5 332,-21.5 458,-21.5 458,-0.5 332,-0.5"/>
<text text-anchor="middle" x="395" y="-8.5" font-family="FreeSans" font-size="10.00">hfautils_parse_payload</text>
</a>
</g>
<!-- Node2&#45;&gt;Node3 -->
<g id="edge4" class="edge"><title>Node2&#45;&gt;Node3</title>
<path fill="none" stroke="midnightblue" d="M296.097,-11C304.435,-11 313.038,-11 321.53,-11"/>
<polygon fill="midnightblue" stroke="midnightblue" points="321.808,-14.5001 331.808,-11 321.808,-7.5001 321.808,-14.5001"/>
</g>
<!-- Node4 -->
<g id="node7" class="node"><title>Node4</title>
<a xlink:href="app-utils_8c.html#a7fbf4d982c3e4493bda83be020e7274c" target="_top" xlink:title="Read file data from a gzip&#45;stream(compressed or uncompressed).">
<polygon fill="white" stroke="black" points="494.5,-0.5 494.5,-21.5 547.5,-21.5 547.5,-0.5 494.5,-0.5"/>
<text text-anchor="middle" x="521" y="-8.5" font-family="FreeSans" font-size="10.00">fd_read</text>
</a>
</g>
<!-- Node3&#45;&gt;Node4 -->
<g id="edge6" class="edge"><title>Node3&#45;&gt;Node4</title>
<path fill="none" stroke="midnightblue" d="M458.369,-11C467.232,-11 476.085,-11 484.227,-11"/>
<polygon fill="midnightblue" stroke="midnightblue" points="484.461,-14.5001 494.461,-11 484.461,-7.5001 484.461,-14.5001"/>
</g>
</g>
</svg>
