<?xml version="1.0" encoding="UTF-8" standalone="no"?>
<!DOCTYPE svg PUBLIC "-//W3C//DTD SVG 1.1//EN"
 "http://www.w3.org/Graphics/SVG/1.1/DTD/svg11.dtd">
<!-- Generated by graphviz version 2.24.0 (20090616.2323)
 -->
<!-- Title: hfautils_download_graph Pages: 1 -->
<svg width="328pt" height="70pt"
 viewBox="0.00 0.00 328.00 70.00" xmlns="http://www.w3.org/2000/svg" xmlns:xlink="http://www.w3.org/1999/xlink">
<g id="graph1" class="graph" transform="scale(1 1) rotate(0) translate(4 66)">
<title>hfautils_download_graph</title>
<polygon fill="white" stroke="white" points="-4,5 -4,-66 325,-66 325,5 -4,5"/>
<!-- Node1 -->
<g id="node1" class="node"><title>Node1</title>
<polygon fill="#bfbfbf" stroke="black" points="0.5,-20.5 0.5,-41.5 135.5,-41.5 135.5,-20.5 0.5,-20.5"/>
<text text-anchor="middle" x="68" y="-28.5" font-family="FreeSans" font-size="10.00">hfautils_download_graph</text>
</g>
<!-- Node2 -->
<g id="node3" class="node"><title>Node2</title>
<a xlink:href="hfa-lnx-async_8c.html#a546f3769e735d4bef0bfab1cba56921c" target="_top" xlink:title="Load graph to HFA memory and cache.">
<polygon fill="white" stroke="black" points="172.5,-40.5 172.5,-61.5 241.5,-61.5 241.5,-40.5 172.5,-40.5"/>
<text text-anchor="middle" x="207" y="-48.5" font-family="FreeSans" font-size="10.00">graph_load</text>
</a>
</g>
<!-- Node1&#45;&gt;Node2 -->
<g id="edge2" class="edge"><title>Node1&#45;&gt;Node2</title>
<path fill="none" stroke="midnightblue" d="M145.959,-42.2172C155.212,-43.5485 164.262,-44.8506 172.44,-46.0273"/>
<polygon fill="midnightblue" stroke="midnightblue" points="146.268,-38.7256 135.871,-40.7656 145.271,-45.6542 146.268,-38.7256"/>
</g>
<!-- Node4 -->
<g id="node7" class="node"><title>Node4</title>
<a xlink:href="hfa-lnx-ctx_8c.html#a78ffddbcd7cdd164889cfb53ea367886" target="_top" xlink:title="entry">
<polygon fill="white" stroke="black" points="186.5,-0.5 186.5,-21.5 227.5,-21.5 227.5,-0.5 186.5,-0.5"/>
<text text-anchor="middle" x="207" y="-8.5" font-family="FreeSans" font-size="10.00">entry</text>
</a>
</g>
<!-- Node1&#45;&gt;Node4 -->
<g id="edge6" class="edge"><title>Node1&#45;&gt;Node4</title>
<path fill="none" stroke="midnightblue" d="M146.165,-19.7533C160.959,-17.6246 175.222,-15.5724 186.214,-13.9908"/>
<polygon fill="midnightblue" stroke="midnightblue" points="145.271,-16.3458 135.871,-21.2344 146.268,-23.2744 145.271,-16.3458"/>
</g>
<!-- Node3 -->
<g id="node5" class="node"><title>Node3</title>
<a xlink:href="hfa-lnx-async_8c.html#a78ffddbcd7cdd164889cfb53ea367886" target="_top" xlink:title="entry">
<polygon fill="white" stroke="black" points="278.5,-40.5 278.5,-61.5 319.5,-61.5 319.5,-40.5 278.5,-40.5"/>
<text text-anchor="middle" x="299" y="-48.5" font-family="FreeSans" font-size="10.00">entry</text>
</a>
</g>
<!-- Node2&#45;&gt;Node3 -->
<g id="edge4" class="edge"><title>Node2&#45;&gt;Node3</title>
<path fill="none" stroke="midnightblue" d="M251.612,-51C261.01,-51 270.485,-51 278.466,-51"/>
<polygon fill="midnightblue" stroke="midnightblue" points="251.519,-47.5001 241.519,-51 251.519,-54.5001 251.519,-47.5001"/>
</g>
</g>
</svg>
