<?xml version="1.0" encoding="UTF-8" standalone="no"?>
<!DOCTYPE svg PUBLIC "-//W3C//DTD SVG 1.1//EN"
 "http://www.w3.org/Graphics/SVG/1.1/DTD/svg11.dtd">
<!-- Generated by graphviz version 2.24.0 (20090616.2323)
 -->
<!-- Title: Rfinish Pages: 1 -->
<!--zoomable 289 -->
<svg id="main" version="1.1" xmlns="http://www.w3.org/2000/svg" xmlns:xlink="http://www.w3.org/1999/xlink" xml:space="preserve" onload="init(evt)">
        <defs>
                <circle id="rim" cx="0" cy="0" r="7"/>
                <circle id="rim2" cx="0" cy="0" r="3.5"/>
                <g id="zoomPlus">
                        <use xlink:href="#rim" fill="#404040">
                                <set attributeName="fill" to="#808080" begin="zoomplus.mouseover" end="zoomplus.mouseout"/>
                        </use>
                        <path d="M-4,0h8M0,-4v8" fill="none" stroke="white" stroke-width="1.5" pointer-events="none"/>
                </g>
                <g id="zoomMin">
                        <use xlink:href="#rim" fill="#404040">
                                <set attributeName="fill" to="#808080" begin="zoomminus.mouseover" end="zoomminus.mouseout"/>
                        </use>
                        <path d="M-4,0h8" fill="none" stroke="white" stroke-width="1.5" pointer-events="none"/>
                </g>
                <g id="dirArrow">
                        <path fill="none" stroke="white" stroke-width="1.5" d="M0,-3.0v7 M-2.5,-0.5L0,-3.0L2.5,-0.5"/>
                </g>
               <g id="resetDef">
                       <use xlink:href="#rim2" fill="#404040">
                               <set attributeName="fill" to="#808080" begin="reset.mouseover" end="reset.mouseout"/>
                       </use>
               </g>
        </defs>

<script type="text/javascript">
var viewWidth = 1064;
var viewHeight = 289;
var sectionId = 'dynsection-1';
</script>
<script xlink:href="svgpan.js"/>
<svg id="graph" class="graph">
<g id="viewport">
<title>Rfinish</title>
<polygon fill="white" stroke="white" points="-4,5 -4,-285 1061,-285 1061,5 -4,5"/>
<!-- Node1 -->
<g id="node1" class="node"><title>Node1</title>
<polygon fill="#bfbfbf" stroke="black" points="0,-120.5 0,-141.5 48,-141.5 48,-120.5 0,-120.5"/>
<text text-anchor="middle" x="24" y="-128.5" font-family="FreeSans" font-size="10.00">Rfinish</text>
</g>
<!-- Node2 -->
<g id="node3" class="node"><title>Node2</title>
<a xlink:href="ppdfa_8h.html#a81b3389c2c25a4ba308f71501f980e38" target="_top" xlink:title="pp">
<polygon fill="white" stroke="black" points="84.5,-120.5 84.5,-141.5 113.5,-141.5 113.5,-120.5 84.5,-120.5"/>
<text text-anchor="middle" x="99" y="-128.5" font-family="FreeSans" font-size="10.00">pp</text>
</a>
</g>
<!-- Node1&#45;&gt;Node2 -->
<g id="edge2" class="edge"><title>Node1&#45;&gt;Node2</title>
<path fill="none" stroke="midnightblue" d="M58.1801,-131C67.2705,-131 76.6231,-131 84.0787,-131"/>
<polygon fill="midnightblue" stroke="midnightblue" points="58.1433,-127.5 48.1433,-131 58.1433,-134.5 58.1433,-127.5"/>
</g>
<!-- Node3 -->
<g id="node5" class="node"><title>Node3</title>
<a xlink:href="cvm-hfa-search_8c.html#a6dbb15dc58155b2c94b19784ad42ef89" target="_top" xlink:title="This routine post&#45;processes the search results from the HFA engine and reports the pattern matches fo...">
<polygon fill="white" stroke="black" points="150.5,-120.5 150.5,-141.5 297.5,-141.5 297.5,-120.5 150.5,-120.5"/>
<text text-anchor="middle" x="224" y="-128.5" font-family="FreeSans" font-size="10.00">hfa_searchctx_getmatches</text>
</a>
</g>
<!-- Node2&#45;&gt;Node3 -->
<g id="edge4" class="edge"><title>Node2&#45;&gt;Node3</title>
<path fill="none" stroke="midnightblue" d="M123.986,-131C131.825,-131 140.914,-131 150.354,-131"/>
<polygon fill="midnightblue" stroke="midnightblue" points="123.83,-127.5 113.83,-131 123.83,-134.5 123.83,-127.5"/>
</g>
<!-- Node4 -->
<g id="node7" class="node"><title>Node4</title>
<a xlink:href="flow_8c.html#a2976ab60901b133a56214323fb901663" target="_top" xlink:title="Low level API to poll a flow.">
<polygon fill="white" stroke="black" points="334.5,-259.5 334.5,-280.5 463.5,-280.5 463.5,-259.5 334.5,-259.5"/>
<text text-anchor="middle" x="399" y="-267.5" font-family="FreeSans" font-size="10.00">__hfaf_process_pktflow</text>
</a>
</g>
<!-- Node3&#45;&gt;Node4 -->
<g id="edge6" class="edge"><title>Node3&#45;&gt;Node4</title>
<path fill="none" stroke="midnightblue" d="M241.543,-148.979C262.494,-169.954 299.1,-205.063 334,-231 348.365,-241.676 365.812,-252.015 379.012,-259.363"/>
<polygon fill="midnightblue" stroke="midnightblue" points="243.839,-146.323 234.316,-141.68 238.865,-151.249 243.839,-146.323"/>
</g>
<!-- Node10 -->
<g id="node19" class="node"><title>Node10</title>
<a xlink:href="hfa-lnx-async_8c.html#a972f8b60ef804914c009c2ef85bac50e" target="_top" xlink:title="Process search for given payload and graph.">
<polygon fill="white" stroke="black" points="353,-200.5 353,-221.5 445,-221.5 445,-200.5 353,-200.5"/>
<text text-anchor="middle" x="399" y="-208.5" font-family="FreeSans" font-size="10.00">process_search</text>
</a>
</g>
<!-- Node3&#45;&gt;Node10 -->
<g id="edge18" class="edge"><title>Node3&#45;&gt;Node10</title>
<path fill="none" stroke="midnightblue" d="M249.659,-146.921C271.497,-159.997 304.007,-178.357 334,-191 342.269,-194.485 351.357,-197.664 360.048,-200.411"/>
<polygon fill="midnightblue" stroke="midnightblue" points="251.358,-143.858 240.991,-141.673 247.732,-149.846 251.358,-143.858"/>
</g>
<!-- Node14 -->
<g id="node28" class="node"><title>Node14</title>
<a xlink:href="hfa-lnx-ctx_8c.html#a71e1d3d18cc48b90a1ecde583ffb3f7a" target="_top" xlink:title="poll_searchctx">
<polygon fill="white" stroke="black" points="356,-160.5 356,-181.5 442,-181.5 442,-160.5 356,-160.5"/>
<text text-anchor="middle" x="399" y="-168.5" font-family="FreeSans" font-size="10.00">poll_searchctx</text>
</a>
</g>
<!-- Node3&#45;&gt;Node14 -->
<g id="edge28" class="edge"><title>Node3&#45;&gt;Node14</title>
<path fill="none" stroke="midnightblue" d="M279.885,-143.774C304.439,-149.386 332.83,-155.875 355.735,-161.111"/>
<polygon fill="midnightblue" stroke="midnightblue" points="280.508,-140.326 269.979,-141.51 278.948,-147.15 280.508,-140.326"/>
</g>
<!-- Node17 -->
<g id="node34" class="node"><title>Node17</title>
<a xlink:href="hfa-lnx-linkgraph_8c.html#a78ffddbcd7cdd164889cfb53ea367886" target="_top" xlink:title="entry">
<polygon fill="white" stroke="black" points="378.5,-120.5 378.5,-141.5 419.5,-141.5 419.5,-120.5 378.5,-120.5"/>
<text text-anchor="middle" x="399" y="-128.5" font-family="FreeSans" font-size="10.00">entry</text>
</a>
</g>
<!-- Node3&#45;&gt;Node17 -->
<g id="edge34" class="edge"><title>Node3&#45;&gt;Node17</title>
<path fill="none" stroke="midnightblue" d="M307.738,-131C334.018,-131 360.75,-131 378.431,-131"/>
<polygon fill="midnightblue" stroke="midnightblue" points="307.709,-127.5 297.709,-131 307.709,-134.5 307.709,-127.5"/>
</g>
<!-- Node18 -->
<g id="node36" class="node"><title>Node18</title>
<a xlink:href="hfa-lnx-nctx-lock_8c.html#adb0c831ef0f9af5441a6769c377d9c95" target="_top" xlink:title="Post process the results from HFA and record found matches.">
<polygon fill="white" stroke="black" points="359,-80.5 359,-101.5 439,-101.5 439,-80.5 359,-80.5"/>
<text text-anchor="middle" x="399" y="-88.5" font-family="FreeSans" font-size="10.00">post_process</text>
</a>
</g>
<!-- Node3&#45;&gt;Node18 -->
<g id="edge36" class="edge"><title>Node3&#45;&gt;Node18</title>
<path fill="none" stroke="midnightblue" d="M279.97,-118.207C305.678,-112.331 335.577,-105.497 358.978,-100.148"/>
<polygon fill="midnightblue" stroke="midnightblue" points="278.948,-114.85 269.979,-120.49 280.508,-121.674 278.948,-114.85"/>
</g>
<!-- Node21 -->
<g id="node43" class="node"><title>Node21</title>
<a xlink:href="hfa-se-async_8c.html#a3c04138a5bfe5d72780bb7e82a18e627" target="_top" xlink:title="main">
<polygon fill="white" stroke="black" points="379,-40.5 379,-61.5 419,-61.5 419,-40.5 379,-40.5"/>
<text text-anchor="middle" x="399" y="-48.5" font-family="FreeSans" font-size="10.00">main</text>
</a>
</g>
<!-- Node3&#45;&gt;Node21 -->
<g id="edge44" class="edge"><title>Node3&#45;&gt;Node21</title>
<path fill="none" stroke="midnightblue" d="M249.659,-115.079C271.497,-102.003 304.007,-83.6427 334,-71 348.579,-64.8547 365.705,-59.663 378.717,-56.1103"/>
<polygon fill="midnightblue" stroke="midnightblue" points="247.732,-112.154 240.991,-120.327 251.358,-118.142 247.732,-112.154"/>
</g>
<!-- Node22 -->
<g id="node45" class="node"><title>Node22</title>
<a xlink:href="hfa-se-wqe-lock_8c.html#a06b5fcfab0e1d5eb36b633ec080ad7f9" target="_top" xlink:title="Process search for given contexts.">
<polygon fill="white" stroke="black" points="359,-0.5 359,-21.5 439,-21.5 439,-0.5 359,-0.5"/>
<text text-anchor="middle" x="399" y="-8.5" font-family="FreeSans" font-size="10.00">process_nctx</text>
</a>
</g>
<!-- Node3&#45;&gt;Node22 -->
<g id="edge46" class="edge"><title>Node3&#45;&gt;Node22</title>
<path fill="none" stroke="midnightblue" d="M239.6,-112.53C259.402,-90.1933 295.629,-52.876 334,-31 341.59,-26.6727 350.223,-23.176 358.663,-20.3913"/>
<polygon fill="midnightblue" stroke="midnightblue" points="236.768,-110.453 232.845,-120.294 242.049,-115.048 236.768,-110.453"/>
</g>
<!-- Node5 -->
<g id="node9" class="node"><title>Node5</title>
<a xlink:href="flow_8h.html#ab1b3378af88a440a6c3c0851be942e65" target="_top" xlink:title="All submitted search parameters in Paramlist of flow are polled If low level API __hfaf_process_pktfl...">
<polygon fill="white" stroke="black" points="500.5,-259.5 500.5,-280.5 619.5,-280.5 619.5,-259.5 500.5,-259.5"/>
<text text-anchor="middle" x="560" y="-267.5" font-family="FreeSans" font-size="10.00">hfaf_process_pktflow</text>
</a>
</g>
<!-- Node4&#45;&gt;Node5 -->
<g id="edge8" class="edge"><title>Node4&#45;&gt;Node5</title>
<path fill="none" stroke="midnightblue" d="M473.622,-270C482.594,-270 491.665,-270 500.384,-270"/>
<polygon fill="midnightblue" stroke="midnightblue" points="473.557,-266.5 463.557,-270 473.557,-273.5 473.557,-266.5"/>
</g>
<!-- Node6 -->
<g id="node11" class="node"><title>Node6</title>
<a xlink:href="hfa-se-flow_8c.html#a2d83c733eacd7afc955c3af18edcb52a" target="_top" xlink:title="Polls for a submitted search instruction of a flow.">
<polygon fill="white" stroke="black" points="659.5,-259.5 659.5,-280.5 744.5,-280.5 744.5,-259.5 659.5,-259.5"/>
<text text-anchor="middle" x="702" y="-267.5" font-family="FreeSans" font-size="10.00">__processflow</text>
</a>
</g>
<!-- Node5&#45;&gt;Node6 -->
<g id="edge10" class="edge"><title>Node5&#45;&gt;Node6</title>
<path fill="none" stroke="midnightblue" d="M630.083,-270C639.981,-270 649.902,-270 659.078,-270"/>
<polygon fill="midnightblue" stroke="midnightblue" points="629.809,-266.5 619.809,-270 629.809,-273.5 629.809,-266.5"/>
</g>
<!-- Node7 -->
<g id="node13" class="node"><title>Node7</title>
<a xlink:href="hfa-se-flow_8c.html#a786591694a8f8fb46cedbc8a580c88f6" target="_top" xlink:title="Submitting or Polling flows from the software recently used cache IF Cache is empty, it tries to refill it.">
<polygon fill="white" stroke="black" points="784.5,-259.5 784.5,-280.5 847.5,-280.5 847.5,-259.5 784.5,-259.5"/>
<text text-anchor="middle" x="816" y="-267.5" font-family="FreeSans" font-size="10.00">do_cache</text>
</a>
</g>
<!-- Node6&#45;&gt;Node7 -->
<g id="edge12" class="edge"><title>Node6&#45;&gt;Node7</title>
<path fill="none" stroke="midnightblue" d="M754.784,-270C764.902,-270 775.197,-270 784.387,-270"/>
<polygon fill="midnightblue" stroke="midnightblue" points="754.774,-266.5 744.774,-270 754.774,-273.5 754.774,-266.5"/>
</g>
<!-- Node8 -->
<g id="node15" class="node"><title>Node8</title>
<a xlink:href="hfa-se-flow_8c.html#aba72a61590283e37ffd78b4defd38220" target="_top" xlink:title="Receive network packets and process.">
<polygon fill="white" stroke="black" points="884,-259.5 884,-280.5 980,-280.5 980,-259.5 884,-259.5"/>
<text text-anchor="middle" x="932" y="-267.5" font-family="FreeSans" font-size="10.00">process_packets</text>
</a>
</g>
<!-- Node7&#45;&gt;Node8 -->
<g id="edge14" class="edge"><title>Node7&#45;&gt;Node8</title>
<path fill="none" stroke="midnightblue" d="M857.711,-270C866.17,-270 875.131,-270 883.792,-270"/>
<polygon fill="midnightblue" stroke="midnightblue" points="857.698,-266.5 847.698,-270 857.697,-273.5 857.698,-266.5"/>
</g>
<!-- Node9 -->
<g id="node17" class="node"><title>Node9</title>
<a xlink:href="hfa-se-flow-wqe_8c.html#a3c04138a5bfe5d72780bb7e82a18e627" target="_top" xlink:title="Implementation.">
<polygon fill="white" stroke="black" points="1016,-259.5 1016,-280.5 1056,-280.5 1056,-259.5 1016,-259.5"/>
<text text-anchor="middle" x="1036" y="-267.5" font-family="FreeSans" font-size="10.00">main</text>
</a>
</g>
<!-- Node8&#45;&gt;Node9 -->
<g id="edge16" class="edge"><title>Node8&#45;&gt;Node9</title>
<path fill="none" stroke="midnightblue" d="M990.146,-270C999.414,-270 1008.42,-270 1015.96,-270"/>
<polygon fill="midnightblue" stroke="midnightblue" points="990.043,-266.5 980.042,-270 990.042,-273.5 990.043,-266.5"/>
</g>
<!-- Node11 -->
<g id="node21" class="node"><title>Node11</title>
<a xlink:href="hfa-lnx-async_8c.html#a1e97b1d598034fdc92d57054a6c386e6" target="_top" xlink:title="tasklet_callback">
<polygon fill="white" stroke="black" points="514,-219.5 514,-240.5 606,-240.5 606,-219.5 514,-219.5"/>
<text text-anchor="middle" x="560" y="-227.5" font-family="FreeSans" font-size="10.00">tasklet_callback</text>
</a>
</g>
<!-- Node10&#45;&gt;Node11 -->
<g id="edge20" class="edge"><title>Node10&#45;&gt;Node11</title>
<path fill="none" stroke="midnightblue" d="M455.242,-217.637C474.401,-219.898 495.583,-222.398 513.857,-224.555"/>
<polygon fill="midnightblue" stroke="midnightblue" points="455.477,-214.141 445.136,-216.445 454.657,-221.093 455.477,-214.141"/>
</g>
<!-- Node13 -->
<g id="node25" class="node"><title>Node13</title>
<a xlink:href="hfa-lnx-async_8c.html#a7dea7d59754828b1173c4c7ec5d42f3e" target="_top" xlink:title="thread_callback">
<polygon fill="white" stroke="black" points="514,-179.5 514,-200.5 606,-200.5 606,-179.5 514,-179.5"/>
<text text-anchor="middle" x="560" y="-187.5" font-family="FreeSans" font-size="10.00">thread_callback</text>
</a>
</g>
<!-- Node10&#45;&gt;Node13 -->
<g id="edge24" class="edge"><title>Node10&#45;&gt;Node13</title>
<path fill="none" stroke="midnightblue" d="M455.242,-203.664C474.401,-201.165 495.583,-198.402 513.857,-196.019"/>
<polygon fill="midnightblue" stroke="midnightblue" points="454.599,-200.218 445.136,-204.982 455.505,-207.159 454.599,-200.218"/>
</g>
<!-- Node12 -->
<g id="node23" class="node"><title>Node12</title>
<a xlink:href="hfa-lnx-async_8c.html#a78ffddbcd7cdd164889cfb53ea367886" target="_top" xlink:title="entry">
<polygon fill="white" stroke="black" points="681.5,-199.5 681.5,-220.5 722.5,-220.5 722.5,-199.5 681.5,-199.5"/>
<text text-anchor="middle" x="702" y="-207.5" font-family="FreeSans" font-size="10.00">entry</text>
</a>
</g>
<!-- Node11&#45;&gt;Node12 -->
<g id="edge22" class="edge"><title>Node11&#45;&gt;Node12</title>
<path fill="none" stroke="midnightblue" d="M616.147,-222.092C639.168,-218.85 664.37,-215.3 681.476,-212.891"/>
<polygon fill="midnightblue" stroke="midnightblue" points="615.517,-218.646 606.103,-223.507 616.494,-225.578 615.517,-218.646"/>
</g>
<!-- Node13&#45;&gt;Node12 -->
<g id="edge26" class="edge"><title>Node13&#45;&gt;Node12</title>
<path fill="none" stroke="midnightblue" d="M616.147,-197.908C639.168,-201.15 664.37,-204.7 681.476,-207.109"/>
<polygon fill="midnightblue" stroke="midnightblue" points="616.494,-194.422 606.103,-196.493 615.517,-201.354 616.494,-194.422"/>
</g>
<!-- Node15 -->
<g id="node30" class="node"><title>Node15</title>
<a xlink:href="hfa-lnx-ctx_8c.html#a934a9fc08c4aab25d6f0d861e4a4f762" target="_top" xlink:title="poll">
<polygon fill="white" stroke="black" points="543.5,-139.5 543.5,-160.5 576.5,-160.5 576.5,-139.5 543.5,-139.5"/>
<text text-anchor="middle" x="560" y="-147.5" font-family="FreeSans" font-size="10.00">poll</text>
</a>
</g>
<!-- Node14&#45;&gt;Node15 -->
<g id="edge30" class="edge"><title>Node14&#45;&gt;Node15</title>
<path fill="none" stroke="midnightblue" d="M452.199,-164.061C483.953,-159.919 522.135,-154.939 543.478,-152.155"/>
<polygon fill="midnightblue" stroke="midnightblue" points="451.608,-160.608 442.145,-165.372 452.514,-167.55 451.608,-160.608"/>
</g>
<!-- Node16 -->
<g id="node32" class="node"><title>Node16</title>
<a xlink:href="hfa-lnx-ctx_8c.html#a97df0ba8293c1b8436547946fd9d0d17" target="_top" xlink:title="process_pkt">
<polygon fill="white" stroke="black" points="665,-139.5 665,-160.5 739,-160.5 739,-139.5 665,-139.5"/>
<text text-anchor="middle" x="702" y="-147.5" font-family="FreeSans" font-size="10.00">process_pkt</text>
</a>
</g>
<!-- Node15&#45;&gt;Node16 -->
<g id="edge32" class="edge"><title>Node15&#45;&gt;Node16</title>
<path fill="none" stroke="midnightblue" d="M586.858,-150C608.909,-150 640.376,-150 664.843,-150"/>
<polygon fill="midnightblue" stroke="midnightblue" points="586.567,-146.5 576.567,-150 586.567,-153.5 586.567,-146.5"/>
</g>
<!-- Node19 -->
<g id="node38" class="node"><title>Node19</title>
<a xlink:href="hfa-lnx-nctx-lock_8c.html#a48d3743fb7abc7d3c6b68359678e52a1" target="_top" xlink:title="Poll for the pending search instructions in the HW (blocked till instruction completes) and process t...">
<polygon fill="white" stroke="black" points="543.5,-90.5 543.5,-111.5 576.5,-111.5 576.5,-90.5 543.5,-90.5"/>
<text text-anchor="middle" x="560" y="-98.5" font-family="FreeSans" font-size="10.00">poll</text>
</a>
</g>
<!-- Node18&#45;&gt;Node19 -->
<g id="edge38" class="edge"><title>Node18&#45;&gt;Node19</title>
<path fill="none" stroke="midnightblue" d="M449.363,-94.1281C481.538,-96.1266 521.22,-98.5913 543.249,-99.9596"/>
<polygon fill="midnightblue" stroke="midnightblue" points="449.41,-90.6244 439.212,-93.4976 448.976,-97.6109 449.41,-90.6244"/>
</g>
<!-- Node20 -->
<g id="node40" class="node"><title>Node20</title>
<a xlink:href="hfa-lnx-nctx-lock_8c.html#a972f8b60ef804914c009c2ef85bac50e" target="_top" xlink:title="Performs search process for each core.">
<polygon fill="white" stroke="black" points="656,-71.5 656,-92.5 748,-92.5 748,-71.5 656,-71.5"/>
<text text-anchor="middle" x="702" y="-79.5" font-family="FreeSans" font-size="10.00">process_search</text>
</a>
</g>
<!-- Node18&#45;&gt;Node20 -->
<g id="edge42" class="edge"><title>Node18&#45;&gt;Node20</title>
<path fill="none" stroke="midnightblue" d="M449.524,-85.0106C465.631,-83.3661 483.542,-81.8128 500,-81 553.268,-78.3694 566.668,-80.6748 620,-81 631.532,-81.0703 643.976,-81.1962 655.599,-81.3356"/>
<polygon fill="midnightblue" stroke="midnightblue" points="448.81,-81.5664 439.233,-86.0975 449.546,-88.5277 448.81,-81.5664"/>
</g>
<!-- Node19&#45;&gt;Node20 -->
<g id="edge40" class="edge"><title>Node19&#45;&gt;Node20</title>
<path fill="none" stroke="midnightblue" d="M586.532,-97.4499C605.979,-94.8479 632.875,-91.2491 655.817,-88.1794"/>
<polygon fill="midnightblue" stroke="midnightblue" points="586.015,-93.9879 576.567,-98.7833 586.943,-100.926 586.015,-93.9879"/>
</g>
<!-- Node23 -->
<g id="node47" class="node"><title>Node23</title>
<a xlink:href="hfa-se-wqe-lock_8c.html#a3c04138a5bfe5d72780bb7e82a18e627" target="_top" xlink:title="main">
<polygon fill="white" stroke="black" points="540,-0.5 540,-21.5 580,-21.5 580,-0.5 540,-0.5"/>
<text text-anchor="middle" x="560" y="-8.5" font-family="FreeSans" font-size="10.00">main</text>
</a>
</g>
<!-- Node22&#45;&gt;Node23 -->
<g id="edge48" class="edge"><title>Node22&#45;&gt;Node23</title>
<path fill="none" stroke="midnightblue" d="M449.298,-11C479.9,-11 517.313,-11 539.869,-11"/>
<polygon fill="midnightblue" stroke="midnightblue" points="449.212,-7.5001 439.212,-11 449.212,-14.5001 449.212,-7.5001"/>
</g>
</g>
</svg>
        <g id="navigator" transform="translate(0 0)" fill="#404254">
                <rect fill="#f2f5e9" fill-opacity="0.5" stroke="#606060" stroke-width=".5" x="0" y="0" width="60" height="60"/>
                <use id="zoomplus" xlink:href="#zoomPlus" x="17" y="9" onmousedown="handleZoom(evt,'in')"/>
                <use id="zoomminus" xlink:href="#zoomMin" x="42" y="9" onmousedown="handleZoom(evt,'out')"/>
                <use id="reset" xlink:href="#resetDef" x="30" y="36" onmousedown="handleReset()"/>
                <g id="arrowUp" xlink:href="#dirArrow" transform="translate(30 24)" onmousedown="handlePan(0,-1)">
                  <use xlink:href="#rim" fill="#404040">
                        <set attributeName="fill" to="#808080" begin="arrowUp.mouseover" end="arrowUp.mouseout"/>
                  </use>
                  <path fill="none" stroke="white" stroke-width="1.5" d="M0,-3.0v7 M-2.5,-0.5L0,-3.0L2.5,-0.5"/>
                </g>
                <g id="arrowRight" xlink:href="#dirArrow" transform="rotate(90) translate(36 -43)" onmousedown="handlePan(1,0)">
                  <use xlink:href="#rim" fill="#404040">
                        <set attributeName="fill" to="#808080" begin="arrowRight.mouseover" end="arrowRight.mouseout"/>
                  </use>
                  <path fill="none" stroke="white" stroke-width="1.5" d="M0,-3.0v7 M-2.5,-0.5L0,-3.0L2.5,-0.5"/>
                </g>
                <g id="arrowDown" xlink:href="#dirArrow" transform="rotate(180) translate(-30 -48)" onmousedown="handlePan(0,1)">
                  <use xlink:href="#rim" fill="#404040">
                        <set attributeName="fill" to="#808080" begin="arrowDown.mouseover" end="arrowDown.mouseout"/>
                  </use>
                  <path fill="none" stroke="white" stroke-width="1.5" d="M0,-3.0v7 M-2.5,-0.5L0,-3.0L2.5,-0.5"/>
                </g>
                <g id="arrowLeft" xlink:href="#dirArrow" transform="rotate(270) translate(-36 17)" onmousedown="handlePan(-1,0)">
                  <use xlink:href="#rim" fill="#404040">
                        <set attributeName="fill" to="#808080" begin="arrowLeft.mouseover" end="arrowLeft.mouseout"/>
                  </use>
                  <path fill="none" stroke="white" stroke-width="1.5" d="M0,-3.0v7 M-2.5,-0.5L0,-3.0L2.5,-0.5"/>
                </g>
        </g>
        <svg viewBox="0 0 15 15" width="100%" height="30px" preserveAspectRatio="xMaxYMin meet">
         <g id="arrow_out" transform="scale(0.3 0.3)">
          <a xlink:href="cvm-hfa-res_8c_a38aa04fce135199ec3bb8726da163846_icgraph_org.svg" target="_base">
           <rect id="button" ry="5" rx="5" y="6" x="6" height="38" width="38"
                fill="#f2f5e9" fill-opacity="0.5" stroke="#606060" stroke-width="1.0"/>
           <path id="arrow"
             d="M 11.500037,31.436501 C 11.940474,20.09759 22.043105,11.32322 32.158766,21.979434 L 37.068811,17.246167 C 37.068811,17.246167 37.088388,32 37.088388,32 L 22.160133,31.978069 C 22.160133,31.978069 26.997745,27.140456 26.997745,27.140456 C 18.528582,18.264221 13.291696,25.230495 11.500037,31.436501 z"
             style="fill:#404040;"/>
          </a>
         </g>
        </svg>
</svg>
