<?xml version="1.0" encoding="UTF-8" standalone="no"?>
<!DOCTYPE svg PUBLIC "-//W3C//DTD SVG 1.1//EN"
 "http://www.w3.org/Graphics/SVG/1.1/DTD/svg11.dtd">
<!-- Generated by graphviz version 2.24.0 (20090616.2323)
 -->
<!-- Title: hfa_cluster_share_mem Pages: 1 -->
<svg width="400pt" height="42pt"
 viewBox="0.00 0.00 400.00 42.00" xmlns="http://www.w3.org/2000/svg" xmlns:xlink="http://www.w3.org/1999/xlink">
<g id="graph1" class="graph" transform="scale(1 1) rotate(0) translate(4 38)">
<title>hfa_cluster_share_mem</title>
<polygon fill="white" stroke="white" points="-4,5 -4,-38 397,-38 397,5 -4,5"/>
<!-- Node1 -->
<g id="node1" class="node"><title>Node1</title>
<polygon fill="#bfbfbf" stroke="black" points="0,-6.5 0,-27.5 132,-27.5 132,-6.5 0,-6.5"/>
<text text-anchor="middle" x="66" y="-14.5" font-family="FreeSans" font-size="10.00">hfa_cluster_share_mem</text>
</g>
<!-- Node2 -->
<g id="node3" class="node"><title>Node2</title>
<a xlink:href="hfa-lnx-async_8c.html#abc17fab65a320998a273d112ff24d658" target="_top" xlink:title="Configure cluster memory resources.">
<polygon fill="white" stroke="black" points="168,-0 168,-34 314,-34 314,-0 168,-0"/>
<text text-anchor="start" x="176" y="-21" font-family="FreeSans" font-size="10.00">configure_cluster_memory</text>
<text text-anchor="middle" x="241" y="-8" font-family="FreeSans" font-size="10.00">_resources</text>
</a>
</g>
<!-- Node1&#45;&gt;Node2 -->
<g id="edge2" class="edge"><title>Node1&#45;&gt;Node2</title>
<path fill="none" stroke="midnightblue" d="M142.345,-17C150.769,-17 159.334,-17 167.719,-17"/>
<polygon fill="midnightblue" stroke="midnightblue" points="142.16,-13.5001 132.16,-17 142.16,-20.5001 142.16,-13.5001"/>
</g>
<!-- Node3 -->
<g id="node5" class="node"><title>Node3</title>
<a xlink:href="hfa-lnx-async_8c.html#a78ffddbcd7cdd164889cfb53ea367886" target="_top" xlink:title="entry">
<polygon fill="white" stroke="black" points="350.5,-6.5 350.5,-27.5 391.5,-27.5 391.5,-6.5 350.5,-6.5"/>
<text text-anchor="middle" x="371" y="-14.5" font-family="FreeSans" font-size="10.00">entry</text>
</a>
</g>
<!-- Node2&#45;&gt;Node3 -->
<g id="edge4" class="edge"><title>Node2&#45;&gt;Node3</title>
<path fill="none" stroke="midnightblue" d="M324.471,-17C334.011,-17 342.972,-17 350.435,-17"/>
<polygon fill="midnightblue" stroke="midnightblue" points="324.358,-13.5001 314.358,-17 324.358,-20.5001 324.358,-13.5001"/>
</g>
</g>
</svg>
