<?xml version="1.0" encoding="UTF-8" standalone="no"?>
<!DOCTYPE svg PUBLIC "-//W3C//DTD SVG 1.1//EN"
 "http://www.w3.org/Graphics/SVG/1.1/DTD/svg11.dtd">
<!-- Generated by graphviz version 2.24.0 (20090616.2323)
 -->
<!-- Title: hfa_searchctx_search Pages: 1 -->
<svg width="678pt" height="102pt"
 viewBox="0.00 0.00 678.00 102.00" xmlns="http://www.w3.org/2000/svg" xmlns:xlink="http://www.w3.org/1999/xlink">
<g id="graph1" class="graph" transform="scale(1 1) rotate(0) translate(4 98)">
<title>hfa_searchctx_search</title>
<polygon fill="white" stroke="white" points="-4,5 -4,-98 675,-98 675,5 -4,5"/>
<!-- Node1 -->
<g id="node1" class="node"><title>Node1</title>
<polygon fill="#bfbfbf" stroke="black" points="0.5,-43.5 0.5,-64.5 123.5,-64.5 123.5,-43.5 0.5,-43.5"/>
<text text-anchor="middle" x="62" y="-51.5" font-family="FreeSans" font-size="10.00">hfa_searchctx_search</text>
</g>
<!-- Node2 -->
<g id="node3" class="node"><title>Node2</title>
<a xlink:href="cvm-hfa-search_8c.html#a0c36da280b39bd8afdf6081baea24472" target="_top" xlink:title="This routine performs a pattern search using the given parameters in a non&#45;blocking manner...">
<polygon fill="white" stroke="black" points="184.5,-60 184.5,-94 307.5,-94 307.5,-60 184.5,-60"/>
<text text-anchor="start" x="192.5" y="-81" font-family="FreeSans" font-size="10.00">hfa_searchctx_search</text>
<text text-anchor="middle" x="246" y="-68" font-family="FreeSans" font-size="10.00">_async</text>
</a>
</g>
<!-- Node1&#45;&gt;Node2 -->
<g id="edge2" class="edge"><title>Node1&#45;&gt;Node2</title>
<path fill="none" stroke="midnightblue" d="M123.525,-61.6906C139.704,-63.713 157.3,-65.9125 173.976,-67.997"/>
<polygon fill="midnightblue" stroke="midnightblue" points="173.862,-71.51 184.219,-69.2774 174.731,-64.564 173.862,-71.51"/>
</g>
<!-- Node3 -->
<g id="node5" class="node"><title>Node3</title>
<a xlink:href="cvm-hfa-search_8c.html#a6a8e1d7e70e0a10520302df5651e5fc5" target="_top" xlink:title="This routine provides the status of an outstanding pattern search operation initiated using hfa_searc...">
<polygon fill="white" stroke="black" points="160,-20.5 160,-41.5 332,-41.5 332,-20.5 160,-20.5"/>
<text text-anchor="middle" x="246" y="-28.5" font-family="FreeSans" font-size="10.00">hfa_searchctx_get_searchstatus</text>
</a>
</g>
<!-- Node1&#45;&gt;Node3 -->
<g id="edge4" class="edge"><title>Node1&#45;&gt;Node3</title>
<path fill="none" stroke="midnightblue" d="M123.525,-46.3094C132.675,-45.1657 142.278,-43.9653 151.911,-42.7611"/>
<polygon fill="midnightblue" stroke="midnightblue" points="152.455,-46.2205 161.943,-41.5071 151.586,-39.2745 152.455,-46.2205"/>
</g>
<!-- Node4 -->
<g id="node7" class="node"><title>Node4</title>
<a xlink:href="cvm-hfa_8c.html#a4753d2dd586e19676b1a59dd16baaeed" target="_top" xlink:title="Obtain status of submitted insruction.">
<polygon fill="white" stroke="black" points="368.5,-20.5 368.5,-41.5 501.5,-41.5 501.5,-20.5 368.5,-20.5"/>
<text text-anchor="middle" x="435" y="-28.5" font-family="FreeSans" font-size="10.00">hfa_dev_getasyncstatus</text>
</a>
</g>
<!-- Node3&#45;&gt;Node4 -->
<g id="edge6" class="edge"><title>Node3&#45;&gt;Node4</title>
<path fill="none" stroke="midnightblue" d="M332.204,-31C340.951,-31 349.793,-31 358.428,-31"/>
<polygon fill="midnightblue" stroke="midnightblue" points="358.452,-34.5001 368.452,-31 358.452,-27.5001 358.452,-34.5001"/>
</g>
<!-- Node5 -->
<g id="node9" class="node"><title>Node5</title>
<a xlink:href="cvm-hfa-instr_8h.html#a56f2522dcba965745a1bc239fc432dca" target="_top" xlink:title="Gets done from RWORD0.">
<polygon fill="white" stroke="black" points="542.5,-40.5 542.5,-61.5 665.5,-61.5 665.5,-40.5 542.5,-40.5"/>
<text text-anchor="middle" x="604" y="-48.5" font-family="FreeSans" font-size="10.00">cvm_hfa_rslt_getdone</text>
</a>
</g>
<!-- Node4&#45;&gt;Node5 -->
<g id="edge8" class="edge"><title>Node4&#45;&gt;Node5</title>
<path fill="none" stroke="midnightblue" d="M501.793,-38.9045C511.827,-40.0919 522.209,-41.3206 532.339,-42.5194"/>
<polygon fill="midnightblue" stroke="midnightblue" points="532.021,-46.0061 542.363,-43.7057 532.844,-39.0546 532.021,-46.0061"/>
</g>
<!-- Node6 -->
<g id="node11" class="node"><title>Node6</title>
<a xlink:href="cvm-hfa-instr_8h.html#a9700a50b68b6616506528eb725a8bda1" target="_top" xlink:title="Gets reason from RWORD0.">
<polygon fill="white" stroke="black" points="538.5,-0.5 538.5,-21.5 669.5,-21.5 669.5,-0.5 538.5,-0.5"/>
<text text-anchor="middle" x="604" y="-8.5" font-family="FreeSans" font-size="10.00">cvm_hfa_rslt_getreason</text>
</a>
</g>
<!-- Node4&#45;&gt;Node6 -->
<g id="edge10" class="edge"><title>Node4&#45;&gt;Node6</title>
<path fill="none" stroke="midnightblue" d="M501.793,-23.0955C510.414,-22.0753 519.292,-21.0246 528.047,-19.9885"/>
<polygon fill="midnightblue" stroke="midnightblue" points="528.725,-23.4328 538.244,-18.7817 527.902,-16.4813 528.725,-23.4328"/>
</g>
</g>
</svg>
