<?xml version="1.0" encoding="UTF-8" standalone="no"?>
<!DOCTYPE svg PUBLIC "-//W3C//DTD SVG 1.1//EN"
 "http://www.w3.org/Graphics/SVG/1.1/DTD/svg11.dtd">
<!-- Generated by graphviz version 2.24.0 (20090616.2323)
 -->
<!-- Title: hfa_create_fpa_pool Pages: 1 -->
<svg width="200pt" height="70pt"
 viewBox="0.00 0.00 200.00 70.00" xmlns="http://www.w3.org/2000/svg" xmlns:xlink="http://www.w3.org/1999/xlink">
<g id="graph1" class="graph" transform="scale(1 1) rotate(0) translate(4 66)">
<title>hfa_create_fpa_pool</title>
<polygon fill="white" stroke="white" points="-4,5 -4,-66 197,-66 197,5 -4,5"/>
<!-- Node1 -->
<g id="node1" class="node"><title>Node1</title>
<polygon fill="#bfbfbf" stroke="black" points="0,-20.5 0,-41.5 114,-41.5 114,-20.5 0,-20.5"/>
<text text-anchor="middle" x="57" y="-28.5" font-family="FreeSans" font-size="10.00">hfa_create_fpa_pool</text>
</g>
<!-- Node2 -->
<g id="node3" class="node"><title>Node2</title>
<a xlink:href="hfa-lnx-ctx_8c.html#a78ffddbcd7cdd164889cfb53ea367886" target="_top" xlink:title="entry">
<polygon fill="white" stroke="black" points="150.5,-40.5 150.5,-61.5 191.5,-61.5 191.5,-40.5 150.5,-40.5"/>
<text text-anchor="middle" x="171" y="-48.5" font-family="FreeSans" font-size="10.00">entry</text>
</a>
</g>
<!-- Node1&#45;&gt;Node2 -->
<g id="edge2" class="edge"><title>Node1&#45;&gt;Node2</title>
<path fill="none" stroke="midnightblue" d="M124.318,-42.8102C133.806,-44.4747 142.899,-46.0701 150.499,-47.4033"/>
<polygon fill="midnightblue" stroke="midnightblue" points="124.788,-39.3393 114.334,-41.0586 123.579,-46.234 124.788,-39.3393"/>
</g>
<!-- Node3 -->
<g id="node5" class="node"><title>Node3</title>
<a xlink:href="hfa-se-ctx_8c.html#a3c04138a5bfe5d72780bb7e82a18e627" target="_top" xlink:title="main">
<polygon fill="white" stroke="black" points="151,-0.5 151,-21.5 191,-21.5 191,-0.5 151,-0.5"/>
<text text-anchor="middle" x="171" y="-8.5" font-family="FreeSans" font-size="10.00">main</text>
</a>
</g>
<!-- Node1&#45;&gt;Node3 -->
<g id="edge4" class="edge"><title>Node1&#45;&gt;Node3</title>
<path fill="none" stroke="midnightblue" d="M124.403,-19.175C133.969,-17.4966 143.131,-15.8893 150.761,-14.5508"/>
<polygon fill="midnightblue" stroke="midnightblue" points="123.579,-15.766 114.334,-20.9414 124.788,-22.6607 123.579,-15.766"/>
</g>
</g>
</svg>
