<?xml version="1.0" encoding="UTF-8" standalone="no"?>
<!DOCTYPE svg PUBLIC "-//W3C//DTD SVG 1.1//EN"
 "http://www.w3.org/Graphics/SVG/1.1/DTD/svg11.dtd">
<!-- Generated by graphviz version 2.24.0 (20090616.2323)
 -->
<!-- Title: cvm_hfa_instr_setgather Pages: 1 -->
<svg width="640pt" height="110pt"
 viewBox="0.00 0.00 640.00 110.00" xmlns="http://www.w3.org/2000/svg" xmlns:xlink="http://www.w3.org/1999/xlink">
<g id="graph1" class="graph" transform="scale(1 1) rotate(0) translate(4 106)">
<title>cvm_hfa_instr_setgather</title>
<polygon fill="white" stroke="white" points="-4,5 -4,-106 637,-106 637,5 -4,5"/>
<!-- Node1 -->
<g id="node1" class="node"><title>Node1</title>
<polygon fill="#bfbfbf" stroke="black" points="0.5,-20.5 0.5,-41.5 135.5,-41.5 135.5,-20.5 0.5,-20.5"/>
<text text-anchor="middle" x="68" y="-28.5" font-family="FreeSans" font-size="10.00">cvm_hfa_instr_setgather</text>
</g>
<!-- Node2 -->
<g id="node3" class="node"><title>Node2</title>
<a xlink:href="cvm-hfa-graph_8c.html#aa296e0c6b36b3d5b4f8e01c2fe765bed" target="_top" xlink:title="This routine is used to cacheload a cacheable graph in a non&#45;blocking manner.">
<polygon fill="white" stroke="black" points="172,-14 172,-48 292,-48 292,-14 172,-14"/>
<text text-anchor="start" x="180" y="-35" font-family="FreeSans" font-size="10.00">hfa_graph_cacheload</text>
<text text-anchor="middle" x="232" y="-22" font-family="FreeSans" font-size="10.00">_async</text>
</a>
</g>
<!-- Node1&#45;&gt;Node2 -->
<g id="edge2" class="edge"><title>Node1&#45;&gt;Node2</title>
<path fill="none" stroke="midnightblue" d="M145.853,-31C154.588,-31 163.386,-31 171.849,-31"/>
<polygon fill="midnightblue" stroke="midnightblue" points="145.652,-27.5001 135.652,-31 145.652,-34.5001 145.652,-27.5001"/>
</g>
<!-- Node3 -->
<g id="node5" class="node"><title>Node3</title>
<a xlink:href="cvm-hfa-graph_8c.html#a60861d15ed5f6bccc42bbde834aa2b32" target="_top" xlink:title="This routine is used to cacheload a cacheable graph in a blocking manner.">
<polygon fill="white" stroke="black" points="328,-40.5 328,-61.5 448,-61.5 448,-40.5 328,-40.5"/>
<text text-anchor="middle" x="388" y="-48.5" font-family="FreeSans" font-size="10.00">hfa_graph_cacheload</text>
</a>
</g>
<!-- Node2&#45;&gt;Node3 -->
<g id="edge4" class="edge"><title>Node2&#45;&gt;Node3</title>
<path fill="none" stroke="midnightblue" d="M302.259,-40.0076C310.802,-41.1028 319.469,-42.214 327.847,-43.288"/>
<polygon fill="midnightblue" stroke="midnightblue" points="302.678,-36.5327 292.314,-38.7325 301.787,-43.4758 302.678,-36.5327"/>
</g>
<!-- Node7 -->
<g id="node13" class="node"><title>Node7</title>
<a xlink:href="hfa-lnx-async_8c.html#a546f3769e735d4bef0bfab1cba56921c" target="_top" xlink:title="Load graph to HFA memory and cache.">
<polygon fill="white" stroke="black" points="353.5,-0.5 353.5,-21.5 422.5,-21.5 422.5,-0.5 353.5,-0.5"/>
<text text-anchor="middle" x="388" y="-8.5" font-family="FreeSans" font-size="10.00">graph_load</text>
</a>
</g>
<!-- Node2&#45;&gt;Node7 -->
<g id="edge12" class="edge"><title>Node2&#45;&gt;Node7</title>
<path fill="none" stroke="midnightblue" d="M302.554,-21.9546C320.093,-19.706 338.138,-17.3925 353.1,-15.4744"/>
<polygon fill="midnightblue" stroke="midnightblue" points="301.787,-18.5242 292.314,-23.2675 302.678,-25.4673 301.787,-18.5242"/>
</g>
<!-- Node4 -->
<g id="node7" class="node"><title>Node4</title>
<a xlink:href="hfa-lnx-ctx_8c.html#a78ffddbcd7cdd164889cfb53ea367886" target="_top" xlink:title="entry">
<polygon fill="white" stroke="black" points="498.5,-80.5 498.5,-101.5 539.5,-101.5 539.5,-80.5 498.5,-80.5"/>
<text text-anchor="middle" x="519" y="-88.5" font-family="FreeSans" font-size="10.00">entry</text>
</a>
</g>
<!-- Node3&#45;&gt;Node4 -->
<g id="edge6" class="edge"><title>Node3&#45;&gt;Node4</title>
<path fill="none" stroke="midnightblue" d="M432.066,-64.4554C454.441,-71.2875 480.567,-79.2647 498.292,-84.6771"/>
<polygon fill="midnightblue" stroke="midnightblue" points="433.005,-61.0825 422.419,-61.5095 430.961,-67.7774 433.005,-61.0825"/>
</g>
<!-- Node5 -->
<g id="node9" class="node"><title>Node5</title>
<a xlink:href="hfa-lnx-linkgraph_8c.html#a546f3769e735d4bef0bfab1cba56921c" target="_top" xlink:title="Load graph to HFA memory and cache.">
<polygon fill="white" stroke="black" points="484.5,-40.5 484.5,-61.5 553.5,-61.5 553.5,-40.5 484.5,-40.5"/>
<text text-anchor="middle" x="519" y="-48.5" font-family="FreeSans" font-size="10.00">graph_load</text>
</a>
</g>
<!-- Node3&#45;&gt;Node5 -->
<g id="edge8" class="edge"><title>Node3&#45;&gt;Node5</title>
<path fill="none" stroke="midnightblue" d="M458.306,-51C467.303,-51 476.179,-51 484.249,-51"/>
<polygon fill="midnightblue" stroke="midnightblue" points="458.132,-47.5001 448.132,-51 458.132,-54.5001 458.132,-47.5001"/>
</g>
<!-- Node6 -->
<g id="node11" class="node"><title>Node6</title>
<a xlink:href="hfa-lnx-linkgraph_8c.html#a78ffddbcd7cdd164889cfb53ea367886" target="_top" xlink:title="entry">
<polygon fill="white" stroke="black" points="590.5,-40.5 590.5,-61.5 631.5,-61.5 631.5,-40.5 590.5,-40.5"/>
<text text-anchor="middle" x="611" y="-48.5" font-family="FreeSans" font-size="10.00">entry</text>
</a>
</g>
<!-- Node5&#45;&gt;Node6 -->
<g id="edge10" class="edge"><title>Node5&#45;&gt;Node6</title>
<path fill="none" stroke="midnightblue" d="M563.612,-51C573.01,-51 582.485,-51 590.466,-51"/>
<polygon fill="midnightblue" stroke="midnightblue" points="563.519,-47.5001 553.519,-51 563.519,-54.5001 563.519,-47.5001"/>
</g>
<!-- Node8 -->
<g id="node15" class="node"><title>Node8</title>
<a xlink:href="hfa-lnx-async_8c.html#a78ffddbcd7cdd164889cfb53ea367886" target="_top" xlink:title="entry">
<polygon fill="white" stroke="black" points="498.5,-0.5 498.5,-21.5 539.5,-21.5 539.5,-0.5 498.5,-0.5"/>
<text text-anchor="middle" x="519" y="-8.5" font-family="FreeSans" font-size="10.00">entry</text>
</a>
</g>
<!-- Node7&#45;&gt;Node8 -->
<g id="edge14" class="edge"><title>Node7&#45;&gt;Node8</title>
<path fill="none" stroke="midnightblue" d="M433.004,-11C455.215,-11 480.921,-11 498.402,-11"/>
<polygon fill="midnightblue" stroke="midnightblue" points="432.762,-7.5001 422.762,-11 432.762,-14.5001 432.762,-7.5001"/>
</g>
</g>
</svg>
