<?xml version="1.0" encoding="UTF-8" standalone="no"?>
<!DOCTYPE svg PUBLIC "-//W3C//DTD SVG 1.1//EN"
 "http://www.w3.org/Graphics/SVG/1.1/DTD/svg11.dtd">
<!-- Generated by graphviz version 2.24.0 (20090616.2323)
 -->
<!-- Title: hfa_graph_memload_data_async Pages: 1 -->
<svg width="694pt" height="130pt"
 viewBox="0.00 0.00 694.00 130.00" xmlns="http://www.w3.org/2000/svg" xmlns:xlink="http://www.w3.org/1999/xlink">
<g id="graph1" class="graph" transform="scale(1 1) rotate(0) translate(4 126)">
<title>hfa_graph_memload_data_async</title>
<polygon fill="white" stroke="white" points="-4,5 -4,-126 691,-126 691,5 -4,5"/>
<!-- Node1 -->
<g id="node1" class="node"><title>Node1</title>
<polygon fill="#bfbfbf" stroke="black" points="0,-54 0,-88 142,-88 142,-54 0,-54"/>
<text text-anchor="start" x="8" y="-75" font-family="FreeSans" font-size="10.00">hfa_graph_memload_data</text>
<text text-anchor="middle" x="71" y="-62" font-family="FreeSans" font-size="10.00">_async</text>
</g>
<!-- Node2 -->
<g id="node3" class="node"><title>Node2</title>
<a xlink:href="cvm-hfa_8h.html#a760b4a245f0bf0c6823c9edb7eba6425" target="_top" xlink:title="Indicates whether device has its own HFA memory.">
<polygon fill="white" stroke="black" points="178.5,-80.5 178.5,-101.5 333.5,-101.5 333.5,-80.5 178.5,-80.5"/>
<text text-anchor="middle" x="256" y="-88.5" font-family="FreeSans" font-size="10.00">hfa_dev_haspvt_hfamemory</text>
</a>
</g>
<!-- Node1&#45;&gt;Node2 -->
<g id="edge2" class="edge"><title>Node1&#45;&gt;Node2</title>
<path fill="none" stroke="midnightblue" d="M142.261,-78.7039C150.748,-79.6214 159.486,-80.5661 168.17,-81.5049"/>
<polygon fill="midnightblue" stroke="midnightblue" points="168.002,-85.007 178.32,-82.6022 168.754,-78.0476 168.002,-85.007"/>
</g>
<!-- Node3 -->
<g id="node5" class="node"><title>Node3</title>
<a xlink:href="cvm-hfa-graph_8c.html#a0f2f13fb51e5d56dcf049ff3c7c6ad78" target="_top" xlink:title="This routine is used to check the status of the graph.">
<polygon fill="white" stroke="black" points="199,-40.5 199,-61.5 313,-61.5 313,-40.5 199,-40.5"/>
<text text-anchor="middle" x="256" y="-48.5" font-family="FreeSans" font-size="10.00">hfa_graph_getstatus</text>
</a>
</g>
<!-- Node1&#45;&gt;Node3 -->
<g id="edge4" class="edge"><title>Node1&#45;&gt;Node3</title>
<path fill="none" stroke="midnightblue" d="M142.261,-63.2961C157.478,-61.651 173.506,-59.9182 188.574,-58.2893"/>
<polygon fill="midnightblue" stroke="midnightblue" points="189.265,-61.7351 198.83,-57.1805 188.512,-54.7757 189.265,-61.7351"/>
</g>
<!-- Node4 -->
<g id="node7" class="node"><title>Node4</title>
<a xlink:href="cvm-hfa_8c.html#a4753d2dd586e19676b1a59dd16baaeed" target="_top" xlink:title="Obtain status of submitted insruction.">
<polygon fill="white" stroke="black" points="377.5,-80.5 377.5,-101.5 510.5,-101.5 510.5,-80.5 377.5,-80.5"/>
<text text-anchor="middle" x="444" y="-88.5" font-family="FreeSans" font-size="10.00">hfa_dev_getasyncstatus</text>
</a>
</g>
<!-- Node3&#45;&gt;Node4 -->
<g id="edge6" class="edge"><title>Node3&#45;&gt;Node4</title>
<path fill="none" stroke="midnightblue" d="M305.395,-61.5095C329.694,-66.6795 359.169,-72.9508 384.68,-78.3788"/>
<polygon fill="midnightblue" stroke="midnightblue" points="384.1,-81.8335 394.609,-80.4913 385.556,-74.9868 384.1,-81.8335"/>
</g>
<!-- Node7 -->
<g id="node13" class="node"><title>Node7</title>
<a xlink:href="cvm-hfa-instr_8h.html#aa7b5661907cf23e01fe784a70980ed4b" target="_top" xlink:title="Gets itype from RWORD0.">
<polygon fill="white" stroke="black" points="383,-40.5 383,-61.5 505,-61.5 505,-40.5 383,-40.5"/>
<text text-anchor="middle" x="444" y="-48.5" font-family="FreeSans" font-size="10.00">cvm_hfa_rslt_getitype</text>
</a>
</g>
<!-- Node3&#45;&gt;Node7 -->
<g id="edge12" class="edge"><title>Node3&#45;&gt;Node7</title>
<path fill="none" stroke="midnightblue" d="M313.172,-51C331.939,-51 353.031,-51 372.711,-51"/>
<polygon fill="midnightblue" stroke="midnightblue" points="372.854,-54.5001 382.854,-51 372.854,-47.5001 372.854,-54.5001"/>
</g>
<!-- Node8 -->
<g id="node15" class="node"><title>Node8</title>
<a xlink:href="cvm-hfa-graph_8c.html#aa4c0667cc4f92a08c249041eb8a4ec58" target="_top" xlink:title="This routine is used to free the buffers and change the graph load status after instruction completio...">
<polygon fill="white" stroke="black" points="370.5,-0.5 370.5,-21.5 517.5,-21.5 517.5,-0.5 370.5,-0.5"/>
<text text-anchor="middle" x="444" y="-8.5" font-family="FreeSans" font-size="10.00">__hfa_graph_processstatus</text>
</a>
</g>
<!-- Node3&#45;&gt;Node8 -->
<g id="edge14" class="edge"><title>Node3&#45;&gt;Node8</title>
<path fill="none" stroke="midnightblue" d="M305.395,-40.4905C329.694,-35.3205 359.169,-29.0492 384.68,-23.6212"/>
<polygon fill="midnightblue" stroke="midnightblue" points="385.556,-27.0132 394.609,-21.5087 384.1,-20.1665 385.556,-27.0132"/>
</g>
<!-- Node5 -->
<g id="node9" class="node"><title>Node5</title>
<a xlink:href="cvm-hfa-instr_8h.html#a56f2522dcba965745a1bc239fc432dca" target="_top" xlink:title="Gets done from RWORD0.">
<polygon fill="white" stroke="black" points="558.5,-100.5 558.5,-121.5 681.5,-121.5 681.5,-100.5 558.5,-100.5"/>
<text text-anchor="middle" x="620" y="-108.5" font-family="FreeSans" font-size="10.00">cvm_hfa_rslt_getdone</text>
</a>
</g>
<!-- Node4&#45;&gt;Node5 -->
<g id="edge8" class="edge"><title>Node4&#45;&gt;Node5</title>
<path fill="none" stroke="midnightblue" d="M510.538,-98.5611C522.782,-99.9525 535.616,-101.411 548.012,-102.82"/>
<polygon fill="midnightblue" stroke="midnightblue" points="547.968,-106.337 558.299,-103.989 548.758,-99.3817 547.968,-106.337"/>
</g>
<!-- Node6 -->
<g id="node11" class="node"><title>Node6</title>
<a xlink:href="cvm-hfa-instr_8h.html#a9700a50b68b6616506528eb725a8bda1" target="_top" xlink:title="Gets reason from RWORD0.">
<polygon fill="white" stroke="black" points="554.5,-60.5 554.5,-81.5 685.5,-81.5 685.5,-60.5 554.5,-60.5"/>
<text text-anchor="middle" x="620" y="-68.5" font-family="FreeSans" font-size="10.00">cvm_hfa_rslt_getreason</text>
</a>
</g>
<!-- Node4&#45;&gt;Node6 -->
<g id="edge10" class="edge"><title>Node4&#45;&gt;Node6</title>
<path fill="none" stroke="midnightblue" d="M510.538,-83.4389C521.494,-82.1939 532.922,-80.8952 544.086,-79.6266"/>
<polygon fill="midnightblue" stroke="midnightblue" points="544.702,-83.0792 554.243,-78.4724 543.912,-76.1239 544.702,-83.0792"/>
</g>
<!-- Node9 -->
<g id="node17" class="node"><title>Node9</title>
<a xlink:href="cvm-hfa-cluster_8c.html#ad8cad96579f5a310b62caaf8c166658f" target="_top" xlink:title="Returns a copy of a cluster of the HFA device.">
<polygon fill="white" stroke="black" points="575,-0.5 575,-21.5 665,-21.5 665,-0.5 575,-0.5"/>
<text text-anchor="middle" x="620" y="-8.5" font-family="FreeSans" font-size="10.00">hfa_get_cluster</text>
</a>
</g>
<!-- Node8&#45;&gt;Node9 -->
<g id="edge16" class="edge"><title>Node8&#45;&gt;Node9</title>
<path fill="none" stroke="midnightblue" d="M517.62,-11C533.386,-11 549.785,-11 564.719,-11"/>
<polygon fill="midnightblue" stroke="midnightblue" points="564.797,-14.5001 574.797,-11 564.797,-7.5001 564.797,-14.5001"/>
</g>
</g>
</svg>
