<?xml version="1.0" encoding="UTF-8" standalone="no"?>
<!DOCTYPE svg PUBLIC "-//W3C//DTD SVG 1.1//EN"
 "http://www.w3.org/Graphics/SVG/1.1/DTD/svg11.dtd">
<!-- Generated by graphviz version 2.24.0 (20090616.2323)
 -->
<!-- Title: hfa_oct_fill_hw_memory Pages: 1 -->
<svg width="370pt" height="70pt"
 viewBox="0.00 0.00 370.00 70.00" xmlns="http://www.w3.org/2000/svg" xmlns:xlink="http://www.w3.org/1999/xlink">
<g id="graph1" class="graph" transform="scale(1 1) rotate(0) translate(4 66)">
<title>hfa_oct_fill_hw_memory</title>
<polygon fill="white" stroke="white" points="-4,5 -4,-66 367,-66 367,5 -4,5"/>
<!-- Node1 -->
<g id="node1" class="node"><title>Node1</title>
<polygon fill="#bfbfbf" stroke="black" points="0,-20.5 0,-41.5 134,-41.5 134,-20.5 0,-20.5"/>
<text text-anchor="middle" x="67" y="-28.5" font-family="FreeSans" font-size="10.00">hfa_oct_fill_hw_memory</text>
</g>
<!-- Node2 -->
<g id="node3" class="node"><title>Node2</title>
<a xlink:href="cvm-hfa_8c.html#a889a27e88a8ec2d15634a89f8dbe5613" target="_top" xlink:title="Create FPA pools for HFA This is a utility routine which applications can use to intialize an FPA poo...">
<polygon fill="white" stroke="black" points="170,-20.5 170,-41.5 284,-41.5 284,-20.5 170,-20.5"/>
<text text-anchor="middle" x="227" y="-28.5" font-family="FreeSans" font-size="10.00">hfa_create_fpa_pool</text>
</a>
</g>
<!-- Node1&#45;&gt;Node2 -->
<g id="edge2" class="edge"><title>Node1&#45;&gt;Node2</title>
<path fill="none" stroke="midnightblue" d="M144.4,-31C152.963,-31 161.565,-31 169.813,-31"/>
<polygon fill="midnightblue" stroke="midnightblue" points="144.391,-27.5001 134.391,-31 144.391,-34.5001 144.391,-27.5001"/>
</g>
<!-- Node3 -->
<g id="node5" class="node"><title>Node3</title>
<a xlink:href="hfa-lnx-ctx_8c.html#a78ffddbcd7cdd164889cfb53ea367886" target="_top" xlink:title="entry">
<polygon fill="white" stroke="black" points="320.5,-40.5 320.5,-61.5 361.5,-61.5 361.5,-40.5 320.5,-40.5"/>
<text text-anchor="middle" x="341" y="-48.5" font-family="FreeSans" font-size="10.00">entry</text>
</a>
</g>
<!-- Node2&#45;&gt;Node3 -->
<g id="edge4" class="edge"><title>Node2&#45;&gt;Node3</title>
<path fill="none" stroke="midnightblue" d="M294.318,-42.8102C303.806,-44.4747 312.899,-46.0701 320.499,-47.4033"/>
<polygon fill="midnightblue" stroke="midnightblue" points="294.788,-39.3393 284.334,-41.0586 293.579,-46.234 294.788,-39.3393"/>
</g>
<!-- Node4 -->
<g id="node7" class="node"><title>Node4</title>
<a xlink:href="hfa-se-ctx_8c.html#a3c04138a5bfe5d72780bb7e82a18e627" target="_top" xlink:title="main">
<polygon fill="white" stroke="black" points="321,-0.5 321,-21.5 361,-21.5 361,-0.5 321,-0.5"/>
<text text-anchor="middle" x="341" y="-8.5" font-family="FreeSans" font-size="10.00">main</text>
</a>
</g>
<!-- Node2&#45;&gt;Node4 -->
<g id="edge6" class="edge"><title>Node2&#45;&gt;Node4</title>
<path fill="none" stroke="midnightblue" d="M294.403,-19.175C303.969,-17.4966 313.131,-15.8893 320.761,-14.5508"/>
<polygon fill="midnightblue" stroke="midnightblue" points="293.579,-15.766 284.334,-20.9414 294.788,-22.6607 293.579,-15.766"/>
</g>
</g>
</svg>
