<?xml version="1.0" encoding="UTF-8" standalone="no"?>
<!DOCTYPE svg PUBLIC "-//W3C//DTD SVG 1.1//EN"
 "http://www.w3.org/Graphics/SVG/1.1/DTD/svg11.dtd">
<!-- Generated by graphviz version 2.24.0 (20090616.2323)
 -->
<!-- Title: hfa_searchctx_search_async Pages: 1 -->
<!--zoomable 408 -->
<svg id="main" version="1.1" xmlns="http://www.w3.org/2000/svg" xmlns:xlink="http://www.w3.org/1999/xlink" xml:space="preserve" onload="init(evt)">
        <defs>
                <circle id="rim" cx="0" cy="0" r="7"/>
                <circle id="rim2" cx="0" cy="0" r="3.5"/>
                <g id="zoomPlus">
                        <use xlink:href="#rim" fill="#404040">
                                <set attributeName="fill" to="#808080" begin="zoomplus.mouseover" end="zoomplus.mouseout"/>
                        </use>
                        <path d="M-4,0h8M0,-4v8" fill="none" stroke="white" stroke-width="1.5" pointer-events="none"/>
                </g>
                <g id="zoomMin">
                        <use xlink:href="#rim" fill="#404040">
                                <set attributeName="fill" to="#808080" begin="zoomminus.mouseover" end="zoomminus.mouseout"/>
                        </use>
                        <path d="M-4,0h8" fill="none" stroke="white" stroke-width="1.5" pointer-events="none"/>
                </g>
                <g id="dirArrow">
                        <path fill="none" stroke="white" stroke-width="1.5" d="M0,-3.0v7 M-2.5,-0.5L0,-3.0L2.5,-0.5"/>
                </g>
               <g id="resetDef">
                       <use xlink:href="#rim2" fill="#404040">
                               <set attributeName="fill" to="#808080" begin="reset.mouseover" end="reset.mouseout"/>
                       </use>
               </g>
        </defs>

<script type="text/javascript">
var viewWidth = 878;
var viewHeight = 408;
var sectionId = 'dynsection-18';
</script>
<script xlink:href="svgpan.js"/>
<svg id="graph" class="graph">
<g id="viewport">
<title>hfa_searchctx_search_async</title>
<polygon fill="white" stroke="white" points="-4,5 -4,-404 875,-404 875,5 -4,5"/>
<!-- Node1 -->
<g id="node1" class="node"><title>Node1</title>
<polygon fill="#bfbfbf" stroke="black" points="0.5,-152 0.5,-186 123.5,-186 123.5,-152 0.5,-152"/>
<text text-anchor="start" x="8.5" y="-173" font-family="FreeSans" font-size="10.00">hfa_searchctx_search</text>
<text text-anchor="middle" x="62" y="-160" font-family="FreeSans" font-size="10.00">_async</text>
</g>
<!-- Node2 -->
<g id="node3" class="node"><title>Node2</title>
<a xlink:href="cvm-hfa-search_8c.html#a57d7540278164eb6b6c132be00db0de5" target="_top" xlink:title="This routine performs a pattern search using the given parameters in a blocking manner.">
<polygon fill="white" stroke="black" points="160.5,-338.5 160.5,-359.5 283.5,-359.5 283.5,-338.5 160.5,-338.5"/>
<text text-anchor="middle" x="222" y="-346.5" font-family="FreeSans" font-size="10.00">hfa_searchctx_search</text>
</a>
</g>
<!-- Node1&#45;&gt;Node2 -->
<g id="edge2" class="edge"><title>Node1&#45;&gt;Node2</title>
<path fill="none" stroke="midnightblue" d="M81.324,-194.381C100.522,-219.172 131.18,-257.645 160,-289 176.624,-307.086 197.393,-326.623 210.174,-338.33"/>
<polygon fill="midnightblue" stroke="midnightblue" points="83.9091,-192.001 75.0332,-186.216 78.3642,-196.274 83.9091,-192.001"/>
</g>
<!-- Node5 -->
<g id="node9" class="node"><title>Node5</title>
<a xlink:href="flow_8c.html#a5034d9a3ed0a1dac918c6a8d84fae8c6" target="_top" xlink:title="Low level API to submit search parameter to flow.">
<polygon fill="white" stroke="black" points="160.5,-258.5 160.5,-279.5 283.5,-279.5 283.5,-258.5 160.5,-258.5"/>
<text text-anchor="middle" x="222" y="-266.5" font-family="FreeSans" font-size="10.00">__hfaf_submit_pktflow</text>
</a>
</g>
<!-- Node1&#45;&gt;Node5 -->
<g id="edge8" class="edge"><title>Node1&#45;&gt;Node5</title>
<path fill="none" stroke="midnightblue" d="M86.4486,-193.365C105.21,-210.907 132.485,-234.028 160,-249 166.756,-252.676 174.297,-255.81 181.729,-258.431"/>
<polygon fill="midnightblue" stroke="midnightblue" points="88.609,-190.589 78.9532,-186.228 83.782,-195.659 88.609,-190.589"/>
</g>
<!-- Node13 -->
<g id="node25" class="node"><title>Node13</title>
<a xlink:href="hfa-lnx-async_8c.html#a972f8b60ef804914c009c2ef85bac50e" target="_top" xlink:title="Process search for given payload and graph.">
<polygon fill="white" stroke="black" points="176,-218.5 176,-239.5 268,-239.5 268,-218.5 176,-218.5"/>
<text text-anchor="middle" x="222" y="-226.5" font-family="FreeSans" font-size="10.00">process_search</text>
</a>
</g>
<!-- Node1&#45;&gt;Node13 -->
<g id="edge24" class="edge"><title>Node1&#45;&gt;Node13</title>
<path fill="none" stroke="midnightblue" d="M111.195,-189.927C126.714,-196.3 143.988,-203.159 160,-209 168.925,-212.256 178.668,-215.528 187.732,-218.456"/>
<polygon fill="midnightblue" stroke="midnightblue" points="112.365,-186.623 101.786,-186.035 109.689,-193.092 112.365,-186.623"/>
</g>
<!-- Node17 -->
<g id="node34" class="node"><title>Node17</title>
<a xlink:href="hfa-lnx-ctx_8c.html#a77695c0833b3a3ee78df0d66b41c510e" target="_top" xlink:title="submit">
<polygon fill="white" stroke="black" points="198,-178.5 198,-199.5 246,-199.5 246,-178.5 198,-178.5"/>
<text text-anchor="middle" x="222" y="-186.5" font-family="FreeSans" font-size="10.00">submit</text>
</a>
</g>
<!-- Node1&#45;&gt;Node17 -->
<g id="edge34" class="edge"><title>Node1&#45;&gt;Node17</title>
<path fill="none" stroke="midnightblue" d="M133.966,-177.996C156.919,-180.865 180.762,-183.845 197.837,-185.98"/>
<polygon fill="midnightblue" stroke="midnightblue" points="134.217,-174.5 123.86,-176.733 133.349,-181.446 134.217,-174.5"/>
</g>
<!-- Node18 -->
<g id="node36" class="node"><title>Node18</title>
<a xlink:href="hfa-lnx-ctx_8c.html#a97df0ba8293c1b8436547946fd9d0d17" target="_top" xlink:title="process_pkt">
<polygon fill="white" stroke="black" points="343,-138.5 343,-159.5 417,-159.5 417,-138.5 343,-138.5"/>
<text text-anchor="middle" x="380" y="-146.5" font-family="FreeSans" font-size="10.00">process_pkt</text>
</a>
</g>
<!-- Node1&#45;&gt;Node18 -->
<g id="edge38" class="edge"><title>Node1&#45;&gt;Node18</title>
<path fill="none" stroke="midnightblue" d="M133.859,-164.481C198.78,-160.397 291.746,-154.551 342.836,-151.337"/>
<polygon fill="midnightblue" stroke="midnightblue" points="133.451,-160.999 123.691,-165.12 133.891,-167.985 133.451,-160.999"/>
</g>
<!-- Node19 -->
<g id="node39" class="node"><title>Node19</title>
<a xlink:href="hfa-lnx-wqe-lock_8c.html#a29828fc1776b5cb9f79e7d20fec69927" target="_top" xlink:title="Set search parameters and submit WQE to the HW.">
<polygon fill="white" stroke="black" points="185,-100.5 185,-121.5 259,-121.5 259,-100.5 185,-100.5"/>
<text text-anchor="middle" x="222" y="-108.5" font-family="FreeSans" font-size="10.00">submit_wqe</text>
</a>
</g>
<!-- Node1&#45;&gt;Node19 -->
<g id="edge40" class="edge"><title>Node1&#45;&gt;Node19</title>
<path fill="none" stroke="midnightblue" d="M118.561,-148.497C143.634,-139.408 172.076,-129.097 192.781,-121.592"/>
<polygon fill="midnightblue" stroke="midnightblue" points="117.348,-145.213 109.14,-151.912 119.734,-151.794 117.348,-145.213"/>
</g>
<!-- Node20 -->
<g id="node41" class="node"><title>Node20</title>
<a xlink:href="hfa-se-async_8c.html#a3c04138a5bfe5d72780bb7e82a18e627" target="_top" xlink:title="main">
<polygon fill="white" stroke="black" points="202,-60.5 202,-81.5 242,-81.5 242,-60.5 202,-60.5"/>
<text text-anchor="middle" x="222" y="-68.5" font-family="FreeSans" font-size="10.00">main</text>
</a>
</g>
<!-- Node1&#45;&gt;Node20 -->
<g id="edge42" class="edge"><title>Node1&#45;&gt;Node20</title>
<path fill="none" stroke="midnightblue" d="M86.9028,-144.963C105.706,-127.915 132.834,-105.565 160,-91 173.257,-83.8922 189.474,-78.7716 201.997,-75.4919"/>
<polygon fill="midnightblue" stroke="midnightblue" points="84.3537,-142.553 79.3781,-151.906 89.1009,-147.697 84.3537,-142.553"/>
</g>
<!-- Node21 -->
<g id="node43" class="node"><title>Node21</title>
<a xlink:href="hfa-se-ctx_8c.html#aaf2d1bda55a80b5467e3ef350c514243" target="_top" xlink:title="Process search on recieved packet wqe.">
<polygon fill="white" stroke="black" points="182,-20.5 182,-41.5 262,-41.5 262,-20.5 182,-20.5"/>
<text text-anchor="middle" x="222" y="-28.5" font-family="FreeSans" font-size="10.00">process_wqe</text>
</a>
</g>
<!-- Node1&#45;&gt;Node21 -->
<g id="edge44" class="edge"><title>Node1&#45;&gt;Node21</title>
<path fill="none" stroke="midnightblue" d="M77.231,-143.131C94.2214,-116.414 124.093,-75.2966 160,-51 166.557,-46.5632 174.164,-43.0574 181.756,-40.3052"/>
<polygon fill="midnightblue" stroke="midnightblue" points="74.0698,-141.587 71.7697,-151.929 80.0172,-145.279 74.0698,-141.587"/>
</g>
<!-- Node3 -->
<g id="node5" class="node"><title>Node3</title>
<a xlink:href="hfa-lnx-linkgraph_8c.html#a78ffddbcd7cdd164889cfb53ea367886" target="_top" xlink:title="entry">
<polygon fill="white" stroke="black" points="359.5,-378.5 359.5,-399.5 400.5,-399.5 400.5,-378.5 359.5,-378.5"/>
<text text-anchor="middle" x="380" y="-386.5" font-family="FreeSans" font-size="10.00">entry</text>
</a>
</g>
<!-- Node2&#45;&gt;Node3 -->
<g id="edge4" class="edge"><title>Node2&#45;&gt;Node3</title>
<path fill="none" stroke="midnightblue" d="M273.209,-361.964C302.546,-369.391 337.742,-378.302 359.491,-383.808"/>
<polygon fill="midnightblue" stroke="midnightblue" points="274.066,-358.571 263.513,-359.51 272.348,-365.357 274.066,-358.571"/>
</g>
<!-- Node4 -->
<g id="node7" class="node"><title>Node4</title>
<a xlink:href="hfa-se-linkgraph_8c.html#a3c04138a5bfe5d72780bb7e82a18e627" target="_top" xlink:title="main">
<polygon fill="white" stroke="black" points="360,-338.5 360,-359.5 400,-359.5 400,-338.5 360,-338.5"/>
<text text-anchor="middle" x="380" y="-346.5" font-family="FreeSans" font-size="10.00">main</text>
</a>
</g>
<!-- Node2&#45;&gt;Node4 -->
<g id="edge6" class="edge"><title>Node2&#45;&gt;Node4</title>
<path fill="none" stroke="midnightblue" d="M293.785,-349C317.883,-349 342.884,-349 359.718,-349"/>
<polygon fill="midnightblue" stroke="midnightblue" points="293.539,-345.5 283.539,-349 293.539,-352.5 293.539,-345.5"/>
</g>
<!-- Node6 -->
<g id="node11" class="node"><title>Node6</title>
<a xlink:href="flow_8h.html#a18bf649957e692c30595a05f9c9516e6" target="_top" xlink:title="High Level API to submit Search Parameter to a Flow.">
<polygon fill="white" stroke="black" points="323.5,-298.5 323.5,-319.5 436.5,-319.5 436.5,-298.5 323.5,-298.5"/>
<text text-anchor="middle" x="380" y="-306.5" font-family="FreeSans" font-size="10.00">hfaf_submit_pktflow</text>
</a>
</g>
<!-- Node5&#45;&gt;Node6 -->
<g id="edge10" class="edge"><title>Node5&#45;&gt;Node6</title>
<path fill="none" stroke="midnightblue" d="M273.285,-281.984C294.392,-287.327 318.522,-293.436 338.491,-298.491"/>
<polygon fill="midnightblue" stroke="midnightblue" points="274.066,-278.571 263.513,-279.51 272.348,-285.357 274.066,-278.571"/>
</g>
<!-- Node8 -->
<g id="node15" class="node"><title>Node8</title>
<a xlink:href="flow_8h.html#ab1b3378af88a440a6c3c0851be942e65" target="_top" xlink:title="All submitted search parameters in Paramlist of flow are polled If low level API __hfaf_process_pktfl...">
<polygon fill="white" stroke="black" points="320.5,-258.5 320.5,-279.5 439.5,-279.5 439.5,-258.5 320.5,-258.5"/>
<text text-anchor="middle" x="380" y="-266.5" font-family="FreeSans" font-size="10.00">hfaf_process_pktflow</text>
</a>
</g>
<!-- Node5&#45;&gt;Node8 -->
<g id="edge14" class="edge"><title>Node5&#45;&gt;Node8</title>
<path fill="none" stroke="midnightblue" d="M293.595,-269C302.572,-269 311.678,-269 320.443,-269"/>
<polygon fill="midnightblue" stroke="midnightblue" points="293.539,-265.5 283.539,-269 293.539,-272.5 293.539,-265.5"/>
</g>
<!-- Node7 -->
<g id="node13" class="node"><title>Node7</title>
<a xlink:href="hfa-se-flow-wqe_8c.html#a779659fedbbc8e698802f2d8e2da9067" target="_top" xlink:title="Submits a packet of a flow to the HFA Engine if no pending instruction on that flow.">
<polygon fill="white" stroke="black" points="479.5,-298.5 479.5,-319.5 558.5,-319.5 558.5,-298.5 479.5,-298.5"/>
<text text-anchor="middle" x="519" y="-306.5" font-family="FreeSans" font-size="10.00">__submitflow</text>
</a>
</g>
<!-- Node6&#45;&gt;Node7 -->
<g id="edge12" class="edge"><title>Node6&#45;&gt;Node7</title>
<path fill="none" stroke="midnightblue" d="M446.67,-309C457.769,-309 468.965,-309 479.122,-309"/>
<polygon fill="midnightblue" stroke="midnightblue" points="446.537,-305.5 436.537,-309 446.537,-312.5 446.537,-305.5"/>
</g>
<!-- Node9 -->
<g id="node17" class="node"><title>Node9</title>
<a xlink:href="hfa-se-flow_8c.html#a2d83c733eacd7afc955c3af18edcb52a" target="_top" xlink:title="Polls for a submitted search instruction of a flow.">
<polygon fill="white" stroke="black" points="476.5,-258.5 476.5,-279.5 561.5,-279.5 561.5,-258.5 476.5,-258.5"/>
<text text-anchor="middle" x="519" y="-266.5" font-family="FreeSans" font-size="10.00">__processflow</text>
</a>
</g>
<!-- Node8&#45;&gt;Node9 -->
<g id="edge16" class="edge"><title>Node8&#45;&gt;Node9</title>
<path fill="none" stroke="midnightblue" d="M449.957,-269C459.018,-269 468.069,-269 476.493,-269"/>
<polygon fill="midnightblue" stroke="midnightblue" points="449.755,-265.5 439.755,-269 449.755,-272.5 449.755,-265.5"/>
</g>
<!-- Node10 -->
<g id="node19" class="node"><title>Node10</title>
<a xlink:href="hfa-se-flow_8c.html#a786591694a8f8fb46cedbc8a580c88f6" target="_top" xlink:title="Submitting or Polling flows from the software recently used cache IF Cache is empty, it tries to refill it.">
<polygon fill="white" stroke="black" points="598.5,-258.5 598.5,-279.5 661.5,-279.5 661.5,-258.5 598.5,-258.5"/>
<text text-anchor="middle" x="630" y="-266.5" font-family="FreeSans" font-size="10.00">do_cache</text>
</a>
</g>
<!-- Node9&#45;&gt;Node10 -->
<g id="edge18" class="edge"><title>Node9&#45;&gt;Node10</title>
<path fill="none" stroke="midnightblue" d="M571.775,-269C580.871,-269 590.066,-269 598.378,-269"/>
<polygon fill="midnightblue" stroke="midnightblue" points="571.598,-265.5 561.598,-269 571.598,-272.5 571.598,-265.5"/>
</g>
<!-- Node11 -->
<g id="node21" class="node"><title>Node11</title>
<a xlink:href="hfa-se-flow_8c.html#aba72a61590283e37ffd78b4defd38220" target="_top" xlink:title="Receive network packets and process.">
<polygon fill="white" stroke="black" points="698,-258.5 698,-279.5 794,-279.5 794,-258.5 698,-258.5"/>
<text text-anchor="middle" x="746" y="-266.5" font-family="FreeSans" font-size="10.00">process_packets</text>
</a>
</g>
<!-- Node10&#45;&gt;Node11 -->
<g id="edge20" class="edge"><title>Node10&#45;&gt;Node11</title>
<path fill="none" stroke="midnightblue" d="M671.711,-269C680.17,-269 689.131,-269 697.792,-269"/>
<polygon fill="midnightblue" stroke="midnightblue" points="671.698,-265.5 661.698,-269 671.697,-272.5 671.698,-265.5"/>
</g>
<!-- Node12 -->
<g id="node23" class="node"><title>Node12</title>
<a xlink:href="hfa-se-flow-wqe_8c.html#a3c04138a5bfe5d72780bb7e82a18e627" target="_top" xlink:title="Implementation.">
<polygon fill="white" stroke="black" points="830,-258.5 830,-279.5 870,-279.5 870,-258.5 830,-258.5"/>
<text text-anchor="middle" x="850" y="-266.5" font-family="FreeSans" font-size="10.00">main</text>
</a>
</g>
<!-- Node11&#45;&gt;Node12 -->
<g id="edge22" class="edge"><title>Node11&#45;&gt;Node12</title>
<path fill="none" stroke="midnightblue" d="M804.146,-269C813.414,-269 822.419,-269 829.958,-269"/>
<polygon fill="midnightblue" stroke="midnightblue" points="804.043,-265.5 794.042,-269 804.042,-272.5 804.043,-265.5"/>
</g>
<!-- Node14 -->
<g id="node27" class="node"><title>Node14</title>
<a xlink:href="hfa-lnx-async_8c.html#a1e97b1d598034fdc92d57054a6c386e6" target="_top" xlink:title="tasklet_callback">
<polygon fill="white" stroke="black" points="334,-218.5 334,-239.5 426,-239.5 426,-218.5 334,-218.5"/>
<text text-anchor="middle" x="380" y="-226.5" font-family="FreeSans" font-size="10.00">tasklet_callback</text>
</a>
</g>
<!-- Node13&#45;&gt;Node14 -->
<g id="edge26" class="edge"><title>Node13&#45;&gt;Node14</title>
<path fill="none" stroke="midnightblue" d="M278.311,-229C296.502,-229 316.447,-229 333.818,-229"/>
<polygon fill="midnightblue" stroke="midnightblue" points="278.125,-225.5 268.125,-229 278.125,-232.5 278.125,-225.5"/>
</g>
<!-- Node16 -->
<g id="node31" class="node"><title>Node16</title>
<a xlink:href="hfa-lnx-async_8c.html#a7dea7d59754828b1173c4c7ec5d42f3e" target="_top" xlink:title="thread_callback">
<polygon fill="white" stroke="black" points="334,-178.5 334,-199.5 426,-199.5 426,-178.5 334,-178.5"/>
<text text-anchor="middle" x="380" y="-186.5" font-family="FreeSans" font-size="10.00">thread_callback</text>
</a>
</g>
<!-- Node13&#45;&gt;Node16 -->
<g id="edge30" class="edge"><title>Node13&#45;&gt;Node16</title>
<path fill="none" stroke="midnightblue" d="M273.285,-216.016C294.392,-210.673 318.522,-204.564 338.491,-199.509"/>
<polygon fill="midnightblue" stroke="midnightblue" points="272.348,-212.643 263.513,-218.49 274.066,-219.429 272.348,-212.643"/>
</g>
<!-- Node15 -->
<g id="node29" class="node"><title>Node15</title>
<a xlink:href="hfa-lnx-async_8c.html#a78ffddbcd7cdd164889cfb53ea367886" target="_top" xlink:title="entry">
<polygon fill="white" stroke="black" points="498.5,-198.5 498.5,-219.5 539.5,-219.5 539.5,-198.5 498.5,-198.5"/>
<text text-anchor="middle" x="519" y="-206.5" font-family="FreeSans" font-size="10.00">entry</text>
</a>
</g>
<!-- Node14&#45;&gt;Node15 -->
<g id="edge28" class="edge"><title>Node14&#45;&gt;Node15</title>
<path fill="none" stroke="midnightblue" d="M436.466,-220.875C458.252,-217.741 481.809,-214.351 498.157,-211.999"/>
<polygon fill="midnightblue" stroke="midnightblue" points="435.685,-217.452 426.285,-222.34 436.682,-224.38 435.685,-217.452"/>
</g>
<!-- Node16&#45;&gt;Node15 -->
<g id="edge32" class="edge"><title>Node16&#45;&gt;Node15</title>
<path fill="none" stroke="midnightblue" d="M436.466,-197.125C458.252,-200.259 481.809,-203.649 498.157,-206.001"/>
<polygon fill="midnightblue" stroke="midnightblue" points="436.682,-193.62 426.285,-195.66 435.685,-200.548 436.682,-193.62"/>
</g>
<!-- Node17&#45;&gt;Node18 -->
<g id="edge36" class="edge"><title>Node17&#45;&gt;Node18</title>
<path fill="none" stroke="midnightblue" d="M256.336,-180.307C281.913,-173.832 316.792,-165.002 342.989,-158.37"/>
<polygon fill="midnightblue" stroke="midnightblue" points="255.176,-176.99 246.341,-182.838 256.894,-183.776 255.176,-176.99"/>
</g>
<!-- Node22 -->
<g id="node45" class="node"><title>Node22</title>
<a xlink:href="hfa-se-ctx_8c.html#ac6740f043d197065a62fbd0570b4f735" target="_top" xlink:title="Do asynchrounous get work operation then pre&#45;fetch recieved wqe and process search on recieved packet...">
<polygon fill="white" stroke="black" points="343,-40.5 343,-61.5 417,-61.5 417,-40.5 343,-40.5"/>
<text text-anchor="middle" x="380" y="-48.5" font-family="FreeSans" font-size="10.00">process_pkt</text>
</a>
</g>
<!-- Node21&#45;&gt;Node22 -->
<g id="edge46" class="edge"><title>Node21&#45;&gt;Node22</title>
<path fill="none" stroke="midnightblue" d="M272.475,-37.3893C295.301,-40.2787 321.797,-43.6326 342.776,-46.2881"/>
<polygon fill="midnightblue" stroke="midnightblue" points="272.639,-33.8822 262.279,-36.0986 271.76,-40.8268 272.639,-33.8822"/>
</g>
<!-- Node25 -->
<g id="node51" class="node"><title>Node25</title>
<a xlink:href="hfa-se-wqe-lock_8c.html#a06b5fcfab0e1d5eb36b633ec080ad7f9" target="_top" xlink:title="Process search for given contexts.">
<polygon fill="white" stroke="black" points="340,-0.5 340,-21.5 420,-21.5 420,-0.5 340,-0.5"/>
<text text-anchor="middle" x="380" y="-8.5" font-family="FreeSans" font-size="10.00">process_nctx</text>
</a>
</g>
<!-- Node21&#45;&gt;Node25 -->
<g id="edge52" class="edge"><title>Node21&#45;&gt;Node25</title>
<path fill="none" stroke="midnightblue" d="M272.346,-24.6271C294.133,-21.8692 319.284,-18.6855 339.795,-16.0893"/>
<polygon fill="midnightblue" stroke="midnightblue" points="271.76,-21.1732 262.279,-25.9014 272.639,-28.1178 271.76,-21.1732"/>
</g>
<!-- Node23 -->
<g id="node47" class="node"><title>Node23</title>
<a xlink:href="hfa-lnx-ctx_8c.html#a78ffddbcd7cdd164889cfb53ea367886" target="_top" xlink:title="entry">
<polygon fill="white" stroke="black" points="498.5,-80.5 498.5,-101.5 539.5,-101.5 539.5,-80.5 498.5,-80.5"/>
<text text-anchor="middle" x="519" y="-88.5" font-family="FreeSans" font-size="10.00">entry</text>
</a>
</g>
<!-- Node22&#45;&gt;Node23 -->
<g id="edge48" class="edge"><title>Node22&#45;&gt;Node23</title>
<path fill="none" stroke="midnightblue" d="M426.306,-64.3254C450.66,-71.3338 479.306,-79.5772 498.237,-85.0251"/>
<polygon fill="midnightblue" stroke="midnightblue" points="427.099,-60.9116 416.521,-61.5095 425.163,-67.6386 427.099,-60.9116"/>
</g>
<!-- Node24 -->
<g id="node49" class="node"><title>Node24</title>
<a xlink:href="hfa-se-ctx_8c.html#a3c04138a5bfe5d72780bb7e82a18e627" target="_top" xlink:title="main">
<polygon fill="white" stroke="black" points="499,-40.5 499,-61.5 539,-61.5 539,-40.5 499,-40.5"/>
<text text-anchor="middle" x="519" y="-48.5" font-family="FreeSans" font-size="10.00">main</text>
</a>
</g>
<!-- Node22&#45;&gt;Node24 -->
<g id="edge50" class="edge"><title>Node22&#45;&gt;Node24</title>
<path fill="none" stroke="midnightblue" d="M427.409,-51C451.786,-51 480.211,-51 498.851,-51"/>
<polygon fill="midnightblue" stroke="midnightblue" points="427.249,-47.5001 417.249,-51 427.249,-54.5001 427.249,-47.5001"/>
</g>
<!-- Node26 -->
<g id="node53" class="node"><title>Node26</title>
<a xlink:href="hfa-se-wqe-lock_8c.html#a3c04138a5bfe5d72780bb7e82a18e627" target="_top" xlink:title="main">
<polygon fill="white" stroke="black" points="499,-0.5 499,-21.5 539,-21.5 539,-0.5 499,-0.5"/>
<text text-anchor="middle" x="519" y="-8.5" font-family="FreeSans" font-size="10.00">main</text>
</a>
</g>
<!-- Node25&#45;&gt;Node26 -->
<g id="edge54" class="edge"><title>Node25&#45;&gt;Node26</title>
<path fill="none" stroke="midnightblue" d="M430.478,-11C454.183,-11 481.085,-11 498.948,-11"/>
<polygon fill="midnightblue" stroke="midnightblue" points="430.205,-7.5001 420.205,-11 430.205,-14.5001 430.205,-7.5001"/>
</g>
</g>
</svg>
        <g id="navigator" transform="translate(0 0)" fill="#404254">
                <rect fill="#f2f5e9" fill-opacity="0.5" stroke="#606060" stroke-width=".5" x="0" y="0" width="60" height="60"/>
                <use id="zoomplus" xlink:href="#zoomPlus" x="17" y="9" onmousedown="handleZoom(evt,'in')"/>
                <use id="zoomminus" xlink:href="#zoomMin" x="42" y="9" onmousedown="handleZoom(evt,'out')"/>
                <use id="reset" xlink:href="#resetDef" x="30" y="36" onmousedown="handleReset()"/>
                <g id="arrowUp" xlink:href="#dirArrow" transform="translate(30 24)" onmousedown="handlePan(0,-1)">
                  <use xlink:href="#rim" fill="#404040">
                        <set attributeName="fill" to="#808080" begin="arrowUp.mouseover" end="arrowUp.mouseout"/>
                  </use>
                  <path fill="none" stroke="white" stroke-width="1.5" d="M0,-3.0v7 M-2.5,-0.5L0,-3.0L2.5,-0.5"/>
                </g>
                <g id="arrowRight" xlink:href="#dirArrow" transform="rotate(90) translate(36 -43)" onmousedown="handlePan(1,0)">
                  <use xlink:href="#rim" fill="#404040">
                        <set attributeName="fill" to="#808080" begin="arrowRight.mouseover" end="arrowRight.mouseout"/>
                  </use>
                  <path fill="none" stroke="white" stroke-width="1.5" d="M0,-3.0v7 M-2.5,-0.5L0,-3.0L2.5,-0.5"/>
                </g>
                <g id="arrowDown" xlink:href="#dirArrow" transform="rotate(180) translate(-30 -48)" onmousedown="handlePan(0,1)">
                  <use xlink:href="#rim" fill="#404040">
                        <set attributeName="fill" to="#808080" begin="arrowDown.mouseover" end="arrowDown.mouseout"/>
                  </use>
                  <path fill="none" stroke="white" stroke-width="1.5" d="M0,-3.0v7 M-2.5,-0.5L0,-3.0L2.5,-0.5"/>
                </g>
                <g id="arrowLeft" xlink:href="#dirArrow" transform="rotate(270) translate(-36 17)" onmousedown="handlePan(-1,0)">
                  <use xlink:href="#rim" fill="#404040">
                        <set attributeName="fill" to="#808080" begin="arrowLeft.mouseover" end="arrowLeft.mouseout"/>
                  </use>
                  <path fill="none" stroke="white" stroke-width="1.5" d="M0,-3.0v7 M-2.5,-0.5L0,-3.0L2.5,-0.5"/>
                </g>
        </g>
        <svg viewBox="0 0 15 15" width="100%" height="30px" preserveAspectRatio="xMaxYMin meet">
         <g id="arrow_out" transform="scale(0.3 0.3)">
          <a xlink:href="cvm-hfa-search_8c_a0c36da280b39bd8afdf6081baea24472_icgraph_org.svg" target="_base">
           <rect id="button" ry="5" rx="5" y="6" x="6" height="38" width="38"
                fill="#f2f5e9" fill-opacity="0.5" stroke="#606060" stroke-width="1.0"/>
           <path id="arrow"
             d="M 11.500037,31.436501 C 11.940474,20.09759 22.043105,11.32322 32.158766,21.979434 L 37.068811,17.246167 C 37.068811,17.246167 37.088388,32 37.088388,32 L 22.160133,31.978069 C 22.160133,31.978069 26.997745,27.140456 26.997745,27.140456 C 18.528582,18.264221 13.291696,25.230495 11.500037,31.436501 z"
             style="fill:#404040;"/>
          </a>
         </g>
        </svg>
</svg>
