<?xml version="1.0" encoding="UTF-8" standalone="no"?>
<!DOCTYPE svg PUBLIC "-//W3C//DTD SVG 1.1//EN"
 "http://www.w3.org/Graphics/SVG/1.1/DTD/svg11.dtd">
<!-- Generated by graphviz version 2.24.0 (20090616.2323)
 -->
<!-- Title: hfa_stats_create_arena Pages: 1 -->
<svg width="462pt" height="70pt"
 viewBox="0.00 0.00 462.00 70.00" xmlns="http://www.w3.org/2000/svg" xmlns:xlink="http://www.w3.org/1999/xlink">
<g id="graph1" class="graph" transform="scale(1 1) rotate(0) translate(4 66)">
<title>hfa_stats_create_arena</title>
<polygon fill="white" stroke="white" points="-4,5 -4,-66 459,-66 459,5 -4,5"/>
<!-- Node1 -->
<g id="node1" class="node"><title>Node1</title>
<polygon fill="#bfbfbf" stroke="black" points="0,-20.5 0,-41.5 128,-41.5 128,-20.5 0,-20.5"/>
<text text-anchor="middle" x="64" y="-28.5" font-family="FreeSans" font-size="10.00">hfa_stats_create_arena</text>
</g>
<!-- Node2 -->
<g id="node3" class="node"><title>Node2</title>
<a xlink:href="cvm-hfa-stats_8h.html#a69100ad9ae17fc0ec07982ea8b90c5df" target="_top" xlink:title="This routine allocates memory for counters to maintain statistics of each processing core...">
<polygon fill="white" stroke="black" points="164,-20.5 164,-41.5 266,-41.5 266,-20.5 164,-20.5"/>
<text text-anchor="middle" x="215" y="-28.5" font-family="FreeSans" font-size="10.00">hfa_dev_stats_init</text>
</a>
</g>
<!-- Node1&#45;&gt;Node2 -->
<g id="edge2" class="edge"><title>Node1&#45;&gt;Node2</title>
<path fill="none" stroke="midnightblue" d="M138.14,-31C146.779,-31 155.441,-31 163.674,-31"/>
<polygon fill="midnightblue" stroke="midnightblue" points="138.038,-27.5001 128.038,-31 138.038,-34.5001 138.038,-27.5001"/>
</g>
<!-- Node3 -->
<g id="node5" class="node"><title>Node3</title>
<a xlink:href="cvm-hfa_8c.html#a873768042b716d60996ec5d858fc8fd9" target="_top" xlink:title="This function must be called by application to initialize HFA engine and setup resources for HFA hard...">
<polygon fill="white" stroke="black" points="302,-20.5 302,-41.5 376,-41.5 376,-20.5 302,-20.5"/>
<text text-anchor="middle" x="339" y="-28.5" font-family="FreeSans" font-size="10.00">hfa_dev_init</text>
</a>
</g>
<!-- Node2&#45;&gt;Node3 -->
<g id="edge4" class="edge"><title>Node2&#45;&gt;Node3</title>
<path fill="none" stroke="midnightblue" d="M276.375,-31C285.126,-31 293.893,-31 301.98,-31"/>
<polygon fill="midnightblue" stroke="midnightblue" points="276.151,-27.5001 266.151,-31 276.151,-34.5001 276.151,-27.5001"/>
</g>
<!-- Node4 -->
<g id="node7" class="node"><title>Node4</title>
<a xlink:href="hfa-lnx-async_8c.html#a78ffddbcd7cdd164889cfb53ea367886" target="_top" xlink:title="entry">
<polygon fill="white" stroke="black" points="412.5,-40.5 412.5,-61.5 453.5,-61.5 453.5,-40.5 412.5,-40.5"/>
<text text-anchor="middle" x="433" y="-48.5" font-family="FreeSans" font-size="10.00">entry</text>
</a>
</g>
<!-- Node3&#45;&gt;Node4 -->
<g id="edge6" class="edge"><title>Node3&#45;&gt;Node4</title>
<path fill="none" stroke="midnightblue" d="M386.098,-41.0209C395.326,-42.9842 404.548,-44.9463 412.342,-46.6047"/>
<polygon fill="midnightblue" stroke="midnightblue" points="386.661,-37.5623 376.151,-38.9045 385.204,-44.4091 386.661,-37.5623"/>
</g>
<!-- Node5 -->
<g id="node9" class="node"><title>Node5</title>
<a xlink:href="hfa-se-async_8c.html#a3c04138a5bfe5d72780bb7e82a18e627" target="_top" xlink:title="main">
<polygon fill="white" stroke="black" points="413,-0.5 413,-21.5 453,-21.5 453,-0.5 413,-0.5"/>
<text text-anchor="middle" x="433" y="-8.5" font-family="FreeSans" font-size="10.00">main</text>
</a>
</g>
<!-- Node3&#45;&gt;Node5 -->
<g id="edge8" class="edge"><title>Node3&#45;&gt;Node5</title>
<path fill="none" stroke="midnightblue" d="M385.966,-21.0073C395.447,-18.9901 404.929,-16.9725 412.871,-15.2828"/>
<polygon fill="midnightblue" stroke="midnightblue" points="385.204,-17.5909 376.151,-23.0955 386.661,-24.4377 385.204,-17.5909"/>
</g>
</g>
</svg>
