<?xml version="1.0" encoding="UTF-8" standalone="no"?>
<!DOCTYPE svg PUBLIC "-//W3C//DTD SVG 1.1//EN"
 "http://www.w3.org/Graphics/SVG/1.1/DTD/svg11.dtd">
<!-- Generated by graphviz version 2.24.0 (20090616.2323)
 -->
<!-- Title: hfa_dev_graph_cleanup Pages: 1 -->
<svg width="324pt" height="150pt"
 viewBox="0.00 0.00 324.00 150.00" xmlns="http://www.w3.org/2000/svg" xmlns:xlink="http://www.w3.org/1999/xlink">
<g id="graph1" class="graph" transform="scale(1 1) rotate(0) translate(4 146)">
<title>hfa_dev_graph_cleanup</title>
<polygon fill="white" stroke="white" points="-4,5 -4,-146 321,-146 321,5 -4,5"/>
<!-- Node1 -->
<g id="node1" class="node"><title>Node1</title>
<polygon fill="#bfbfbf" stroke="black" points="0,-60.5 0,-81.5 132,-81.5 132,-60.5 0,-60.5"/>
<text text-anchor="middle" x="66" y="-68.5" font-family="FreeSans" font-size="10.00">hfa_dev_graph_cleanup</text>
</g>
<!-- Node2 -->
<g id="node3" class="node"><title>Node2</title>
<a xlink:href="hfa-lnx-async_8c.html#acd9e54f020b77f14d54c200b65423a15" target="_top" xlink:title="Application cleanup will be done by this routine.">
<polygon fill="white" stroke="black" points="176,-80.5 176,-101.5 230,-101.5 230,-80.5 176,-80.5"/>
<text text-anchor="middle" x="203" y="-88.5" font-family="FreeSans" font-size="10.00">cleanup</text>
</a>
</g>
<!-- Node1&#45;&gt;Node2 -->
<g id="edge2" class="edge"><title>Node1&#45;&gt;Node2</title>
<path fill="none" stroke="midnightblue" d="M142.231,-82.1286C154.25,-83.8832 165.948,-85.5909 175.818,-87.0318"/>
<polygon fill="midnightblue" stroke="midnightblue" points="142.493,-78.6298 132.092,-80.6485 141.482,-85.5564 142.493,-78.6298"/>
</g>
<!-- Node5 -->
<g id="node9" class="node"><title>Node5</title>
<a xlink:href="hfa-lnx-async_8c.html#a546f3769e735d4bef0bfab1cba56921c" target="_top" xlink:title="Load graph to HFA memory and cache.">
<polygon fill="white" stroke="black" points="168.5,-120.5 168.5,-141.5 237.5,-141.5 237.5,-120.5 168.5,-120.5"/>
<text text-anchor="middle" x="203" y="-128.5" font-family="FreeSans" font-size="10.00">graph_load</text>
</a>
</g>
<!-- Node1&#45;&gt;Node5 -->
<g id="edge8" class="edge"><title>Node1&#45;&gt;Node5</title>
<path fill="none" stroke="midnightblue" d="M99.4471,-85.6484C123.919,-96.3659 156.561,-110.662 178.603,-120.315"/>
<polygon fill="midnightblue" stroke="midnightblue" points="100.742,-82.3944 90.1775,-81.5887 97.9334,-88.8065 100.742,-82.3944"/>
</g>
<!-- Node6 -->
<g id="node12" class="node"><title>Node6</title>
<a xlink:href="hfa-lnx-ctx_8c.html#a78ffddbcd7cdd164889cfb53ea367886" target="_top" xlink:title="entry">
<polygon fill="white" stroke="black" points="182.5,-40.5 182.5,-61.5 223.5,-61.5 223.5,-40.5 182.5,-40.5"/>
<text text-anchor="middle" x="203" y="-48.5" font-family="FreeSans" font-size="10.00">entry</text>
</a>
</g>
<!-- Node1&#45;&gt;Node6 -->
<g id="edge12" class="edge"><title>Node1&#45;&gt;Node6</title>
<path fill="none" stroke="midnightblue" d="M142.32,-59.8584C157.031,-57.7109 171.254,-55.6345 182.228,-54.0325"/>
<polygon fill="midnightblue" stroke="midnightblue" points="141.482,-56.4436 132.092,-61.3515 142.493,-63.3702 141.482,-56.4436"/>
</g>
<!-- Node7 -->
<g id="node14" class="node"><title>Node7</title>
<a xlink:href="hfa-lnx-ctx_8c.html#aaf98ef7cdde3a0dfb2e49919de3298b1" target="_top" xlink:title="exit">
<polygon fill="white" stroke="black" points="186.5,-0.5 186.5,-21.5 219.5,-21.5 219.5,-0.5 186.5,-0.5"/>
<text text-anchor="middle" x="203" y="-8.5" font-family="FreeSans" font-size="10.00">exit</text>
</a>
</g>
<!-- Node1&#45;&gt;Node7 -->
<g id="edge14" class="edge"><title>Node1&#45;&gt;Node7</title>
<path fill="none" stroke="midnightblue" d="M99.4471,-56.3516C126.999,-44.2852 164.907,-27.683 186.385,-18.2766"/>
<polygon fill="midnightblue" stroke="midnightblue" points="97.9334,-53.1935 90.1775,-60.4113 100.742,-59.6056 97.9334,-53.1935"/>
</g>
<!-- Node3 -->
<g id="node5" class="node"><title>Node3</title>
<a xlink:href="hfa-lnx-async_8c.html#a78ffddbcd7cdd164889cfb53ea367886" target="_top" xlink:title="entry">
<polygon fill="white" stroke="black" points="274.5,-120.5 274.5,-141.5 315.5,-141.5 315.5,-120.5 274.5,-120.5"/>
<text text-anchor="middle" x="295" y="-128.5" font-family="FreeSans" font-size="10.00">entry</text>
</a>
</g>
<!-- Node2&#45;&gt;Node3 -->
<g id="edge4" class="edge"><title>Node2&#45;&gt;Node3</title>
<path fill="none" stroke="midnightblue" d="M236.534,-105.58C249.218,-111.095 263.27,-117.204 274.418,-122.051"/>
<polygon fill="midnightblue" stroke="midnightblue" points="237.738,-102.287 227.172,-101.51 234.947,-108.707 237.738,-102.287"/>
</g>
<!-- Node4 -->
<g id="node7" class="node"><title>Node4</title>
<a xlink:href="hfa-lnx-async_8c.html#aaf98ef7cdde3a0dfb2e49919de3298b1" target="_top" xlink:title="exit">
<polygon fill="white" stroke="black" points="278.5,-80.5 278.5,-101.5 311.5,-101.5 311.5,-80.5 278.5,-80.5"/>
<text text-anchor="middle" x="295" y="-88.5" font-family="FreeSans" font-size="10.00">exit</text>
</a>
</g>
<!-- Node2&#45;&gt;Node4 -->
<g id="edge6" class="edge"><title>Node2&#45;&gt;Node4</title>
<path fill="none" stroke="midnightblue" d="M240.42,-91C253.653,-91 267.868,-91 278.473,-91"/>
<polygon fill="midnightblue" stroke="midnightblue" points="240.105,-87.5001 230.105,-91 240.105,-94.5001 240.105,-87.5001"/>
</g>
<!-- Node5&#45;&gt;Node3 -->
<g id="edge10" class="edge"><title>Node5&#45;&gt;Node3</title>
<path fill="none" stroke="midnightblue" d="M247.612,-131C257.01,-131 266.485,-131 274.466,-131"/>
<polygon fill="midnightblue" stroke="midnightblue" points="247.519,-127.5 237.519,-131 247.519,-134.5 247.519,-127.5"/>
</g>
</g>
</svg>
