<?xml version="1.0" encoding="UTF-8" standalone="no"?>
<!DOCTYPE svg PUBLIC "-//W3C//DTD SVG 1.1//EN"
 "http://www.w3.org/Graphics/SVG/1.1/DTD/svg11.dtd">
<!-- Generated by graphviz version 2.24.0 (20090616.2323)
 -->
<!-- Title: hfa_graph_getgraph_count Pages: 1 -->
<svg width="200pt" height="70pt"
 viewBox="0.00 0.00 200.00 70.00" xmlns="http://www.w3.org/2000/svg" xmlns:xlink="http://www.w3.org/1999/xlink">
<g id="graph1" class="graph" transform="scale(1 1) rotate(0) translate(4 66)">
<title>hfa_graph_getgraph_count</title>
<polygon fill="white" stroke="white" points="-4,5 -4,-66 197,-66 197,5 -4,5"/>
<!-- Node1 -->
<g id="node1" class="node"><title>Node1</title>
<polygon fill="#bfbfbf" stroke="black" points="0.5,-14 0.5,-48 113.5,-48 113.5,-14 0.5,-14"/>
<text text-anchor="start" x="8.5" y="-35" font-family="FreeSans" font-size="10.00">hfa_graph_getgraph</text>
<text text-anchor="middle" x="57" y="-22" font-family="FreeSans" font-size="10.00">_count</text>
</g>
<!-- Node2 -->
<g id="node3" class="node"><title>Node2</title>
<a xlink:href="hfa-lnx-linkgraph_8c.html#a78ffddbcd7cdd164889cfb53ea367886" target="_top" xlink:title="entry">
<polygon fill="white" stroke="black" points="150.5,-40.5 150.5,-61.5 191.5,-61.5 191.5,-40.5 150.5,-40.5"/>
<text text-anchor="middle" x="171" y="-48.5" font-family="FreeSans" font-size="10.00">entry</text>
</a>
</g>
<!-- Node1&#45;&gt;Node2 -->
<g id="edge2" class="edge"><title>Node1&#45;&gt;Node2</title>
<path fill="none" stroke="midnightblue" d="M123.517,-42.6697C133.285,-44.3833 142.668,-46.0295 150.477,-47.3995"/>
<polygon fill="midnightblue" stroke="midnightblue" points="124.12,-39.2221 113.666,-40.9414 122.911,-46.1168 124.12,-39.2221"/>
</g>
<!-- Node3 -->
<g id="node5" class="node"><title>Node3</title>
<a xlink:href="hfa-se-linkgraph_8c.html#a3c04138a5bfe5d72780bb7e82a18e627" target="_top" xlink:title="main">
<polygon fill="white" stroke="black" points="151,-0.5 151,-21.5 191,-21.5 191,-0.5 151,-0.5"/>
<text text-anchor="middle" x="171" y="-8.5" font-family="FreeSans" font-size="10.00">main</text>
</a>
</g>
<!-- Node1&#45;&gt;Node3 -->
<g id="edge4" class="edge"><title>Node1&#45;&gt;Node3</title>
<path fill="none" stroke="midnightblue" d="M123.6,-19.3158C133.448,-17.5881 142.902,-15.9294 150.741,-14.5542"/>
<polygon fill="midnightblue" stroke="midnightblue" points="122.911,-15.8832 113.666,-21.0586 124.12,-22.7779 122.911,-15.8832"/>
</g>
</g>
</svg>
