<?xml version="1.0" encoding="UTF-8" standalone="no"?>
<!DOCTYPE svg PUBLIC "-//W3C//DTD SVG 1.1//EN"
 "http://www.w3.org/Graphics/SVG/1.1/DTD/svg11.dtd">
<!-- Generated by graphviz version 2.24.0 (20090616.2323)
 -->
<!-- Title: cvm_hfa_instr_setdsize Pages: 1 -->
<svg width="634pt" height="110pt"
 viewBox="0.00 0.00 634.00 110.00" xmlns="http://www.w3.org/2000/svg" xmlns:xlink="http://www.w3.org/1999/xlink">
<g id="graph1" class="graph" transform="scale(1 1) rotate(0) translate(4 106)">
<title>cvm_hfa_instr_setdsize</title>
<polygon fill="white" stroke="white" points="-4,5 -4,-106 631,-106 631,5 -4,5"/>
<!-- Node1 -->
<g id="node1" class="node"><title>Node1</title>
<polygon fill="#bfbfbf" stroke="black" points="0.5,-20.5 0.5,-41.5 129.5,-41.5 129.5,-20.5 0.5,-20.5"/>
<text text-anchor="middle" x="65" y="-28.5" font-family="FreeSans" font-size="10.00">cvm_hfa_instr_setdsize</text>
</g>
<!-- Node2 -->
<g id="node3" class="node"><title>Node2</title>
<a xlink:href="cvm-hfa-graph_8c.html#aa296e0c6b36b3d5b4f8e01c2fe765bed" target="_top" xlink:title="This routine is used to cacheload a cacheable graph in a non&#45;blocking manner.">
<polygon fill="white" stroke="black" points="166,-14 166,-48 286,-48 286,-14 166,-14"/>
<text text-anchor="start" x="174" y="-35" font-family="FreeSans" font-size="10.00">hfa_graph_cacheload</text>
<text text-anchor="middle" x="226" y="-22" font-family="FreeSans" font-size="10.00">_async</text>
</a>
</g>
<!-- Node1&#45;&gt;Node2 -->
<g id="edge2" class="edge"><title>Node1&#45;&gt;Node2</title>
<path fill="none" stroke="midnightblue" d="M139.761,-31C148.511,-31 157.351,-31 165.865,-31"/>
<polygon fill="midnightblue" stroke="midnightblue" points="139.557,-27.5001 129.557,-31 139.557,-34.5001 139.557,-27.5001"/>
</g>
<!-- Node3 -->
<g id="node5" class="node"><title>Node3</title>
<a xlink:href="cvm-hfa-graph_8c.html#a60861d15ed5f6bccc42bbde834aa2b32" target="_top" xlink:title="This routine is used to cacheload a cacheable graph in a blocking manner.">
<polygon fill="white" stroke="black" points="322,-40.5 322,-61.5 442,-61.5 442,-40.5 322,-40.5"/>
<text text-anchor="middle" x="382" y="-48.5" font-family="FreeSans" font-size="10.00">hfa_graph_cacheload</text>
</a>
</g>
<!-- Node2&#45;&gt;Node3 -->
<g id="edge4" class="edge"><title>Node2&#45;&gt;Node3</title>
<path fill="none" stroke="midnightblue" d="M296.259,-40.0076C304.802,-41.1028 313.469,-42.214 321.847,-43.288"/>
<polygon fill="midnightblue" stroke="midnightblue" points="296.678,-36.5327 286.314,-38.7325 295.787,-43.4758 296.678,-36.5327"/>
</g>
<!-- Node7 -->
<g id="node13" class="node"><title>Node7</title>
<a xlink:href="hfa-lnx-async_8c.html#a546f3769e735d4bef0bfab1cba56921c" target="_top" xlink:title="Load graph to HFA memory and cache.">
<polygon fill="white" stroke="black" points="347.5,-0.5 347.5,-21.5 416.5,-21.5 416.5,-0.5 347.5,-0.5"/>
<text text-anchor="middle" x="382" y="-8.5" font-family="FreeSans" font-size="10.00">graph_load</text>
</a>
</g>
<!-- Node2&#45;&gt;Node7 -->
<g id="edge12" class="edge"><title>Node2&#45;&gt;Node7</title>
<path fill="none" stroke="midnightblue" d="M296.554,-21.9546C314.093,-19.706 332.138,-17.3925 347.1,-15.4744"/>
<polygon fill="midnightblue" stroke="midnightblue" points="295.787,-18.5242 286.314,-23.2675 296.678,-25.4673 295.787,-18.5242"/>
</g>
<!-- Node4 -->
<g id="node7" class="node"><title>Node4</title>
<a xlink:href="hfa-lnx-ctx_8c.html#a78ffddbcd7cdd164889cfb53ea367886" target="_top" xlink:title="entry">
<polygon fill="white" stroke="black" points="492.5,-80.5 492.5,-101.5 533.5,-101.5 533.5,-80.5 492.5,-80.5"/>
<text text-anchor="middle" x="513" y="-88.5" font-family="FreeSans" font-size="10.00">entry</text>
</a>
</g>
<!-- Node3&#45;&gt;Node4 -->
<g id="edge6" class="edge"><title>Node3&#45;&gt;Node4</title>
<path fill="none" stroke="midnightblue" d="M426.066,-64.4554C448.441,-71.2875 474.567,-79.2647 492.292,-84.6771"/>
<polygon fill="midnightblue" stroke="midnightblue" points="427.005,-61.0825 416.419,-61.5095 424.961,-67.7774 427.005,-61.0825"/>
</g>
<!-- Node5 -->
<g id="node9" class="node"><title>Node5</title>
<a xlink:href="hfa-lnx-linkgraph_8c.html#a546f3769e735d4bef0bfab1cba56921c" target="_top" xlink:title="Load graph to HFA memory and cache.">
<polygon fill="white" stroke="black" points="478.5,-40.5 478.5,-61.5 547.5,-61.5 547.5,-40.5 478.5,-40.5"/>
<text text-anchor="middle" x="513" y="-48.5" font-family="FreeSans" font-size="10.00">graph_load</text>
</a>
</g>
<!-- Node3&#45;&gt;Node5 -->
<g id="edge8" class="edge"><title>Node3&#45;&gt;Node5</title>
<path fill="none" stroke="midnightblue" d="M452.306,-51C461.303,-51 470.179,-51 478.249,-51"/>
<polygon fill="midnightblue" stroke="midnightblue" points="452.132,-47.5001 442.132,-51 452.132,-54.5001 452.132,-47.5001"/>
</g>
<!-- Node6 -->
<g id="node11" class="node"><title>Node6</title>
<a xlink:href="hfa-lnx-linkgraph_8c.html#a78ffddbcd7cdd164889cfb53ea367886" target="_top" xlink:title="entry">
<polygon fill="white" stroke="black" points="584.5,-40.5 584.5,-61.5 625.5,-61.5 625.5,-40.5 584.5,-40.5"/>
<text text-anchor="middle" x="605" y="-48.5" font-family="FreeSans" font-size="10.00">entry</text>
</a>
</g>
<!-- Node5&#45;&gt;Node6 -->
<g id="edge10" class="edge"><title>Node5&#45;&gt;Node6</title>
<path fill="none" stroke="midnightblue" d="M557.612,-51C567.01,-51 576.485,-51 584.466,-51"/>
<polygon fill="midnightblue" stroke="midnightblue" points="557.519,-47.5001 547.519,-51 557.519,-54.5001 557.519,-47.5001"/>
</g>
<!-- Node8 -->
<g id="node15" class="node"><title>Node8</title>
<a xlink:href="hfa-lnx-async_8c.html#a78ffddbcd7cdd164889cfb53ea367886" target="_top" xlink:title="entry">
<polygon fill="white" stroke="black" points="492.5,-0.5 492.5,-21.5 533.5,-21.5 533.5,-0.5 492.5,-0.5"/>
<text text-anchor="middle" x="513" y="-8.5" font-family="FreeSans" font-size="10.00">entry</text>
</a>
</g>
<!-- Node7&#45;&gt;Node8 -->
<g id="edge14" class="edge"><title>Node7&#45;&gt;Node8</title>
<path fill="none" stroke="midnightblue" d="M427.004,-11C449.215,-11 474.921,-11 492.402,-11"/>
<polygon fill="midnightblue" stroke="midnightblue" points="426.762,-7.5001 416.762,-11 426.762,-14.5001 426.762,-7.5001"/>
</g>
</g>
</svg>
