<?xml version="1.0" encoding="UTF-8" standalone="no"?>
<!DOCTYPE svg PUBLIC "-//W3C//DTD SVG 1.1//EN"
 "http://www.w3.org/Graphics/SVG/1.1/DTD/svg11.dtd">
<!-- Generated by graphviz version 2.24.0 (20090616.2323)
 -->
<!-- Title: hfa_dev_cleanup Pages: 1 -->
<svg width="432pt" height="70pt"
 viewBox="0.00 0.00 432.00 70.00" xmlns="http://www.w3.org/2000/svg" xmlns:xlink="http://www.w3.org/1999/xlink">
<g id="graph1" class="graph" transform="scale(1 1) rotate(0) translate(4 66)">
<title>hfa_dev_cleanup</title>
<polygon fill="white" stroke="white" points="-4,5 -4,-66 429,-66 429,5 -4,5"/>
<!-- Node1 -->
<g id="node1" class="node"><title>Node1</title>
<polygon fill="#bfbfbf" stroke="black" points="0.5,-20.5 0.5,-41.5 99.5,-41.5 99.5,-20.5 0.5,-20.5"/>
<text text-anchor="middle" x="50" y="-28.5" font-family="FreeSans" font-size="10.00">hfa_dev_cleanup</text>
</g>
<!-- Node2 -->
<g id="node3" class="node"><title>Node2</title>
<a xlink:href="cvm-hfa-stats_8c.html#ad6d5ab096d9d84d2b2f52bd551443592" target="_top" xlink:title="This routine is the counterpart of hfa_dev_init_stats().">
<polygon fill="white" stroke="black" points="136,-40.5 136,-61.5 262,-61.5 262,-40.5 136,-40.5"/>
<text text-anchor="middle" x="199" y="-48.5" font-family="FreeSans" font-size="10.00">hfa_dev_stats_cleanup</text>
</a>
</g>
<!-- Node1&#45;&gt;Node2 -->
<g id="edge2" class="edge"><title>Node1&#45;&gt;Node2</title>
<path fill="none" stroke="midnightblue" d="M99.6148,-37.6597C108.041,-38.7908 116.948,-39.9863 125.829,-41.1784"/>
<polygon fill="midnightblue" stroke="midnightblue" points="125.442,-44.6578 135.819,-42.5193 126.374,-37.72 125.442,-44.6578"/>
</g>
<!-- Node4 -->
<g id="node7" class="node"><title>Node4</title>
<a xlink:href="cvm-hfa-stats_8c.html#a75504ae5d9797d314ee11704fc86cdb1" target="_top" xlink:title="This routine prints statistics of each core.">
<polygon fill="white" stroke="black" points="144.5,-0.5 144.5,-21.5 253.5,-21.5 253.5,-0.5 144.5,-0.5"/>
<text text-anchor="middle" x="199" y="-8.5" font-family="FreeSans" font-size="10.00">hfa_dev_stats_print</text>
</a>
</g>
<!-- Node1&#45;&gt;Node4 -->
<g id="edge6" class="edge"><title>Node1&#45;&gt;Node4</title>
<path fill="none" stroke="midnightblue" d="M99.6148,-24.3403C110.746,-22.8462 122.714,-21.2397 134.356,-19.6771"/>
<polygon fill="midnightblue" stroke="midnightblue" points="135.027,-23.1184 144.473,-18.3191 134.096,-16.1806 135.027,-23.1184"/>
</g>
<!-- Node3 -->
<g id="node5" class="node"><title>Node3</title>
<a xlink:href="cvm-hfa-stats_8c.html#a7a2acbe48c3850d43256938ee996aa16" target="_top" xlink:title="This routine frees memory to STATS ARENA.">
<polygon fill="white" stroke="black" points="298.5,-40.5 298.5,-61.5 423.5,-61.5 423.5,-40.5 298.5,-40.5"/>
<text text-anchor="middle" x="361" y="-48.5" font-family="FreeSans" font-size="10.00">hfa_stats_memoryfree</text>
</a>
</g>
<!-- Node2&#45;&gt;Node3 -->
<g id="edge4" class="edge"><title>Node2&#45;&gt;Node3</title>
<path fill="none" stroke="midnightblue" d="M262.097,-51C270.654,-51 279.491,-51 288.2,-51"/>
<polygon fill="midnightblue" stroke="midnightblue" points="288.341,-54.5001 298.341,-51 288.341,-47.5001 288.341,-54.5001"/>
</g>
</g>
</svg>
