<?xml version="1.0" encoding="UTF-8" standalone="no"?>
<!DOCTYPE svg PUBLIC "-//W3C//DTD SVG 1.1//EN"
 "http://www.w3.org/Graphics/SVG/1.1/DTD/svg11.dtd">
<!-- Generated by graphviz version 2.24.0 (20090616.2323)
 -->
<!-- Title: hfa_searchctx_get_searchstatus Pages: 1 -->
<svg width="988pt" height="469pt"
 viewBox="0.00 0.00 988.00 469.00" xmlns="http://www.w3.org/2000/svg" xmlns:xlink="http://www.w3.org/1999/xlink">
<g id="graph1" class="graph" transform="scale(1 1) rotate(0) translate(4 465)">
<title>hfa_searchctx_get_searchstatus</title>
<polygon fill="white" stroke="white" points="-4,5 -4,-465 985,-465 985,5 -4,5"/>
<!-- Node1 -->
<g id="node1" class="node"><title>Node1</title>
<polygon fill="#bfbfbf" stroke="black" points="0,-140.5 0,-161.5 172,-161.5 172,-140.5 0,-140.5"/>
<text text-anchor="middle" x="86" y="-148.5" font-family="FreeSans" font-size="10.00">hfa_searchctx_get_searchstatus</text>
</g>
<!-- Node2 -->
<g id="node3" class="node"><title>Node2</title>
<a xlink:href="cvm-hfa-search_8c.html#a57d7540278164eb6b6c132be00db0de5" target="_top" xlink:title="This routine performs a pattern search using the given parameters in a blocking manner.">
<polygon fill="white" stroke="black" points="211.5,-399.5 211.5,-420.5 334.5,-420.5 334.5,-399.5 211.5,-399.5"/>
<text text-anchor="middle" x="273" y="-407.5" font-family="FreeSans" font-size="10.00">hfa_searchctx_search</text>
</a>
</g>
<!-- Node1&#45;&gt;Node2 -->
<g id="edge2" class="edge"><title>Node1&#45;&gt;Node2</title>
<path fill="none" stroke="midnightblue" d="M99.7217,-170.005C136.587,-221.064 236.909,-360.013 265.376,-399.441"/>
<polygon fill="midnightblue" stroke="midnightblue" points="102.489,-167.858 93.7971,-161.799 96.8132,-171.956 102.489,-167.858"/>
</g>
<!-- Node5 -->
<g id="node9" class="node"><title>Node5</title>
<a xlink:href="flow_8c.html#a696ee2b7ad7078c47242360be84d89bf" target="_top" xlink:title="Counterpart of __hfaf_create_flow.">
<polygon fill="white" stroke="black" points="216.5,-288.5 216.5,-309.5 329.5,-309.5 329.5,-288.5 216.5,-288.5"/>
<text text-anchor="middle" x="273" y="-296.5" font-family="FreeSans" font-size="10.00">__hfaf_destroy_flow</text>
</a>
</g>
<!-- Node1&#45;&gt;Node5 -->
<g id="edge8" class="edge"><title>Node1&#45;&gt;Node5</title>
<path fill="none" stroke="midnightblue" d="M103.822,-168.894C126.802,-191.489 168.517,-230.921 208,-260 222.517,-270.692 240.112,-281.109 253.333,-288.484"/>
<polygon fill="midnightblue" stroke="midnightblue" points="106.077,-166.201 96.5098,-161.649 101.15,-171.173 106.077,-166.201"/>
</g>
<!-- Node12 -->
<g id="node23" class="node"><title>Node12</title>
<a xlink:href="flow_8c.html#a2976ab60901b133a56214323fb901663" target="_top" xlink:title="Low level API to poll a flow.">
<polygon fill="white" stroke="black" points="208.5,-229.5 208.5,-250.5 337.5,-250.5 337.5,-229.5 208.5,-229.5"/>
<text text-anchor="middle" x="273" y="-237.5" font-family="FreeSans" font-size="10.00">__hfaf_process_pktflow</text>
</a>
</g>
<!-- Node1&#45;&gt;Node12 -->
<g id="edge22" class="edge"><title>Node1&#45;&gt;Node12</title>
<path fill="none" stroke="midnightblue" d="M117.223,-165.86C155.01,-183.844 217.682,-213.672 250.843,-229.455"/>
<polygon fill="midnightblue" stroke="midnightblue" points="118.719,-162.696 108.186,-161.559 115.711,-169.017 118.719,-162.696"/>
</g>
<!-- Node17 -->
<g id="node34" class="node"><title>Node17</title>
<a xlink:href="hfa-lnx-async_8c.html#a972f8b60ef804914c009c2ef85bac50e" target="_top" xlink:title="Process search for given payload and graph.">
<polygon fill="white" stroke="black" points="227,-160.5 227,-181.5 319,-181.5 319,-160.5 227,-160.5"/>
<text text-anchor="middle" x="273" y="-168.5" font-family="FreeSans" font-size="10.00">process_search</text>
</a>
</g>
<!-- Node1&#45;&gt;Node17 -->
<g id="edge34" class="edge"><title>Node1&#45;&gt;Node17</title>
<path fill="none" stroke="midnightblue" d="M182.312,-161.301C197.839,-162.961 213.263,-164.611 226.869,-166.066"/>
<polygon fill="midnightblue" stroke="midnightblue" points="182.426,-157.793 172.111,-160.21 181.682,-164.753 182.426,-157.793"/>
</g>
<!-- Node21 -->
<g id="node43" class="node"><title>Node21</title>
<a xlink:href="hfa-lnx-ctx_8c.html#a630ea21ffa0ae1e09e74fc5add8c2715" target="_top" xlink:title="destroyctx">
<polygon fill="white" stroke="black" points="239.5,-120.5 239.5,-141.5 306.5,-141.5 306.5,-120.5 239.5,-120.5"/>
<text text-anchor="middle" x="273" y="-128.5" font-family="FreeSans" font-size="10.00">destroyctx</text>
</a>
</g>
<!-- Node1&#45;&gt;Node21 -->
<g id="edge44" class="edge"><title>Node1&#45;&gt;Node21</title>
<path fill="none" stroke="midnightblue" d="M182.161,-140.715C202.64,-138.525 222.948,-136.353 239.153,-134.62"/>
<polygon fill="midnightblue" stroke="midnightblue" points="181.682,-137.247 172.111,-141.79 182.426,-144.207 181.682,-137.247"/>
</g>
<!-- Node26 -->
<g id="node54" class="node"><title>Node26</title>
<a xlink:href="hfa-lnx-ctx_8c.html#a71e1d3d18cc48b90a1ecde583ffb3f7a" target="_top" xlink:title="poll_searchctx">
<polygon fill="white" stroke="black" points="230,-80.5 230,-101.5 316,-101.5 316,-80.5 230,-80.5"/>
<text text-anchor="middle" x="273" y="-88.5" font-family="FreeSans" font-size="10.00">poll_searchctx</text>
</a>
</g>
<!-- Node1&#45;&gt;Node26 -->
<g id="edge56" class="edge"><title>Node1&#45;&gt;Node26</title>
<path fill="none" stroke="midnightblue" d="M127.233,-137.273C150.844,-129.464 181.048,-119.564 208,-111 217.79,-107.889 228.432,-104.583 238.218,-101.573"/>
<polygon fill="midnightblue" stroke="midnightblue" points="125.938,-134.015 117.546,-140.481 128.139,-140.66 125.938,-134.015"/>
</g>
<!-- Node29 -->
<g id="node60" class="node"><title>Node29</title>
<a xlink:href="hfa-lnx-nctx-lock_8c.html#a48d3743fb7abc7d3c6b68359678e52a1" target="_top" xlink:title="Poll for the pending search instructions in the HW (blocked till instruction completes) and process t...">
<polygon fill="white" stroke="black" points="256.5,-40.5 256.5,-61.5 289.5,-61.5 289.5,-40.5 256.5,-40.5"/>
<text text-anchor="middle" x="273" y="-48.5" font-family="FreeSans" font-size="10.00">poll</text>
</a>
</g>
<!-- Node1&#45;&gt;Node29 -->
<g id="edge62" class="edge"><title>Node1&#45;&gt;Node29</title>
<path fill="none" stroke="midnightblue" d="M107.744,-134.002C131.319,-116.247 170.602,-88.5811 208,-71 223.814,-63.5658 243.068,-58.0428 256.499,-54.7059"/>
<polygon fill="midnightblue" stroke="midnightblue" points="105.342,-131.432 99.5143,-140.28 109.588,-136.998 105.342,-131.432"/>
</g>
<!-- Node31 -->
<g id="node64" class="node"><title>Node31</title>
<a xlink:href="hfa-se-async_8c.html#a3c04138a5bfe5d72780bb7e82a18e627" target="_top" xlink:title="main">
<polygon fill="white" stroke="black" points="253,-0.5 253,-21.5 293,-21.5 293,-0.5 253,-0.5"/>
<text text-anchor="middle" x="273" y="-8.5" font-family="FreeSans" font-size="10.00">main</text>
</a>
</g>
<!-- Node1&#45;&gt;Node31 -->
<g id="edge66" class="edge"><title>Node1&#45;&gt;Node31</title>
<path fill="none" stroke="midnightblue" d="M100.15,-132.262C120.976,-105.944 162.382,-58.2098 208,-31 221.892,-22.714 239.531,-17.5687 252.927,-14.5757"/>
<polygon fill="midnightblue" stroke="midnightblue" points="97.2717,-130.262 93.8997,-140.306 102.799,-134.557 97.2717,-130.262"/>
</g>
<!-- Node3 -->
<g id="node5" class="node"><title>Node3</title>
<a xlink:href="hfa-lnx-linkgraph_8c.html#a78ffddbcd7cdd164889cfb53ea367886" target="_top" xlink:title="entry">
<polygon fill="white" stroke="black" points="426.5,-439.5 426.5,-460.5 467.5,-460.5 467.5,-439.5 426.5,-439.5"/>
<text text-anchor="middle" x="447" y="-447.5" font-family="FreeSans" font-size="10.00">entry</text>
</a>
</g>
<!-- Node2&#45;&gt;Node3 -->
<g id="edge4" class="edge"><title>Node2&#45;&gt;Node3</title>
<path fill="none" stroke="midnightblue" d="M328.792,-422.826C362.068,-430.475 402.365,-439.739 426.276,-445.236"/>
<polygon fill="midnightblue" stroke="midnightblue" points="329.246,-419.339 318.716,-420.51 327.678,-426.161 329.246,-419.339"/>
</g>
<!-- Node4 -->
<g id="node7" class="node"><title>Node4</title>
<a xlink:href="hfa-se-linkgraph_8c.html#a3c04138a5bfe5d72780bb7e82a18e627" target="_top" xlink:title="main">
<polygon fill="white" stroke="black" points="427,-399.5 427,-420.5 467,-420.5 467,-399.5 427,-399.5"/>
<text text-anchor="middle" x="447" y="-407.5" font-family="FreeSans" font-size="10.00">main</text>
</a>
</g>
<!-- Node2&#45;&gt;Node4 -->
<g id="edge6" class="edge"><title>Node2&#45;&gt;Node4</title>
<path fill="none" stroke="midnightblue" d="M345.18,-410C374.769,-410 406.714,-410 426.777,-410"/>
<polygon fill="midnightblue" stroke="midnightblue" points="344.836,-406.5 334.836,-410 344.836,-413.5 344.836,-406.5"/>
</g>
<!-- Node6 -->
<g id="node11" class="node"><title>Node6</title>
<a xlink:href="flow_8c.html#a93974ea83df979435eb77f3c5d4ab848" target="_top" xlink:title="Cleanup Flowdb Node (Per Index)">
<polygon fill="white" stroke="black" points="374,-359.5 374,-380.5 520,-380.5 520,-359.5 374,-359.5"/>
<text text-anchor="middle" x="447" y="-367.5" font-family="FreeSans" font-size="10.00">hfaf_flowdb_node_cleanup</text>
</a>
</g>
<!-- Node5&#45;&gt;Node6 -->
<g id="edge10" class="edge"><title>Node5&#45;&gt;Node6</title>
<path fill="none" stroke="midnightblue" d="M299.94,-314.469C319.908,-325.469 348.046,-340.008 374,-350 383.197,-353.541 393.271,-356.724 402.919,-359.454"/>
<polygon fill="midnightblue" stroke="midnightblue" points="301.547,-311.358 291.109,-309.541 298.136,-317.47 301.547,-311.358"/>
</g>
<!-- Node9 -->
<g id="node17" class="node"><title>Node9</title>
<a xlink:href="flow_8h.html#abdb62c6f71f5ca9ecddc66c90166d37b" target="_top" xlink:title="Create Packet Flow in Flowdb.">
<polygon fill="white" stroke="black" points="391.5,-319.5 391.5,-340.5 502.5,-340.5 502.5,-319.5 391.5,-319.5"/>
<text text-anchor="middle" x="447" y="-327.5" font-family="FreeSans" font-size="10.00">hfaf_create_pktflow</text>
</a>
</g>
<!-- Node5&#45;&gt;Node9 -->
<g id="edge16" class="edge"><title>Node5&#45;&gt;Node9</title>
<path fill="none" stroke="midnightblue" d="M339.85,-310.91C356.873,-313.943 374.985,-317.17 391.381,-320.091"/>
<polygon fill="midnightblue" stroke="midnightblue" points="340.433,-307.459 329.974,-309.151 339.205,-314.35 340.433,-307.459"/>
</g>
<!-- Node11 -->
<g id="node21" class="node"><title>Node11</title>
<a xlink:href="flow_8h.html#a8d99fe33dc3203530d360196cc7decb4" target="_top" xlink:title="Counterpart of hfaf_create_pktflow().">
<polygon fill="white" stroke="black" points="389,-279.5 389,-300.5 505,-300.5 505,-279.5 389,-279.5"/>
<text text-anchor="middle" x="447" y="-287.5" font-family="FreeSans" font-size="10.00">hfaf_destroy_pktflow</text>
</a>
</g>
<!-- Node5&#45;&gt;Node11 -->
<g id="edge20" class="edge"><title>Node5&#45;&gt;Node11</title>
<path fill="none" stroke="midnightblue" d="M340.308,-295.519C356.276,-294.693 373.178,-293.818 388.705,-293.015"/>
<polygon fill="midnightblue" stroke="midnightblue" points="339.78,-292.041 329.974,-296.053 340.142,-299.032 339.78,-292.041"/>
</g>
<!-- Node7 -->
<g id="node13" class="node"><title>Node7</title>
<a xlink:href="flow_8h.html#a2a51025bf645e4e1eec8cac2b4f8a8c0" target="_top" xlink:title="Cleanups Flow database which was created in hfaf_flowdb_init()">
<polygon fill="white" stroke="black" points="786.5,-350.5 786.5,-371.5 903.5,-371.5 903.5,-350.5 786.5,-350.5"/>
<text text-anchor="middle" x="845" y="-358.5" font-family="FreeSans" font-size="10.00">hfaf_flowdb_cleanup</text>
</a>
</g>
<!-- Node6&#45;&gt;Node7 -->
<g id="edge12" class="edge"><title>Node6&#45;&gt;Node7</title>
<path fill="none" stroke="midnightblue" d="M530.561,-368.11C607.152,-366.378 718.616,-363.858 786.209,-362.329"/>
<polygon fill="midnightblue" stroke="midnightblue" points="530.381,-364.613 520.463,-368.339 530.54,-371.612 530.381,-364.613"/>
</g>
<!-- Node8 -->
<g id="node15" class="node"><title>Node8</title>
<a xlink:href="hfa-se-flow-wqe_8c.html#a3c04138a5bfe5d72780bb7e82a18e627" target="_top" xlink:title="Implementation.">
<polygon fill="white" stroke="black" points="940,-315.5 940,-336.5 980,-336.5 980,-315.5 940,-315.5"/>
<text text-anchor="middle" x="960" y="-323.5" font-family="FreeSans" font-size="10.00">main</text>
</a>
</g>
<!-- Node7&#45;&gt;Node8 -->
<g id="edge14" class="edge"><title>Node7&#45;&gt;Node8</title>
<path fill="none" stroke="midnightblue" d="M889.505,-347.455C906.907,-342.159 925.985,-336.352 939.901,-332.117"/>
<polygon fill="midnightblue" stroke="midnightblue" points="888.051,-344.239 879.504,-350.499 890.09,-350.936 888.051,-344.239"/>
</g>
<!-- Node10 -->
<g id="node19" class="node"><title>Node10</title>
<a xlink:href="hfa-se-flow-wqe_8c.html#a6d3e23d8f7a3aaf1b0d6e350b7631a0e" target="_top" xlink:title="Get flow pointer from Flow database, If flow ptr is NULL then create at runtime.">
<polygon fill="white" stroke="black" points="568.5,-319.5 568.5,-340.5 637.5,-340.5 637.5,-319.5 568.5,-319.5"/>
<text text-anchor="middle" x="603" y="-327.5" font-family="FreeSans" font-size="10.00">get_flowptr</text>
</a>
</g>
<!-- Node9&#45;&gt;Node10 -->
<g id="edge18" class="edge"><title>Node9&#45;&gt;Node10</title>
<path fill="none" stroke="midnightblue" d="M513.017,-330C532.045,-330 552.048,-330 568.35,-330"/>
<polygon fill="midnightblue" stroke="midnightblue" points="512.879,-326.5 502.879,-330 512.879,-333.5 512.879,-326.5"/>
</g>
<!-- Node13 -->
<g id="node25" class="node"><title>Node13</title>
<a xlink:href="flow_8h.html#ab1b3378af88a440a6c3c0851be942e65" target="_top" xlink:title="All submitted search parameters in Paramlist of flow are polled If low level API __hfaf_process_pktfl...">
<polygon fill="white" stroke="black" points="387.5,-239.5 387.5,-260.5 506.5,-260.5 506.5,-239.5 387.5,-239.5"/>
<text text-anchor="middle" x="447" y="-247.5" font-family="FreeSans" font-size="10.00">hfaf_process_pktflow</text>
</a>
</g>
<!-- Node12&#45;&gt;Node13 -->
<g id="edge24" class="edge"><title>Node12&#45;&gt;Node13</title>
<path fill="none" stroke="midnightblue" d="M347.799,-244.299C361.011,-245.058 374.606,-245.839 387.332,-246.571"/>
<polygon fill="midnightblue" stroke="midnightblue" points="347.976,-240.803 337.791,-243.724 347.574,-247.792 347.976,-240.803"/>
</g>
<!-- Node14 -->
<g id="node27" class="node"><title>Node14</title>
<a xlink:href="hfa-se-flow_8c.html#a2d83c733eacd7afc955c3af18edcb52a" target="_top" xlink:title="Polls for a submitted search instruction of a flow.">
<polygon fill="white" stroke="black" points="560.5,-259.5 560.5,-280.5 645.5,-280.5 645.5,-259.5 560.5,-259.5"/>
<text text-anchor="middle" x="603" y="-267.5" font-family="FreeSans" font-size="10.00">__processflow</text>
</a>
</g>
<!-- Node13&#45;&gt;Node14 -->
<g id="edge26" class="edge"><title>Node13&#45;&gt;Node14</title>
<path fill="none" stroke="midnightblue" d="M517.036,-258.979C531.851,-260.878 547.054,-262.827 560.475,-264.548"/>
<polygon fill="midnightblue" stroke="midnightblue" points="517.231,-255.475 506.868,-257.675 516.341,-262.419 517.231,-255.475"/>
</g>
<!-- Node15 -->
<g id="node29" class="node"><title>Node15</title>
<a xlink:href="hfa-se-flow_8c.html#a786591694a8f8fb46cedbc8a580c88f6" target="_top" xlink:title="Submitting or Polling flows from the software recently used cache IF Cache is empty, it tries to refill it.">
<polygon fill="white" stroke="black" points="686.5,-266.5 686.5,-287.5 749.5,-287.5 749.5,-266.5 686.5,-266.5"/>
<text text-anchor="middle" x="718" y="-274.5" font-family="FreeSans" font-size="10.00">do_cache</text>
</a>
</g>
<!-- Node14&#45;&gt;Node15 -->
<g id="edge28" class="edge"><title>Node14&#45;&gt;Node15</title>
<path fill="none" stroke="midnightblue" d="M656.044,-273.229C666.38,-273.858 676.91,-274.499 686.286,-275.07"/>
<polygon fill="midnightblue" stroke="midnightblue" points="656.016,-269.721 645.822,-272.607 655.591,-276.708 656.016,-269.721"/>
</g>
<!-- Node16 -->
<g id="node31" class="node"><title>Node16</title>
<a xlink:href="hfa-se-flow_8c.html#aba72a61590283e37ffd78b4defd38220" target="_top" xlink:title="Receive network packets and process.">
<polygon fill="white" stroke="black" points="797,-281.5 797,-302.5 893,-302.5 893,-281.5 797,-281.5"/>
<text text-anchor="middle" x="845" y="-289.5" font-family="FreeSans" font-size="10.00">process_packets</text>
</a>
</g>
<!-- Node15&#45;&gt;Node16 -->
<g id="edge30" class="edge"><title>Node15&#45;&gt;Node16</title>
<path fill="none" stroke="midnightblue" d="M759.802,-281.937C771.666,-283.339 784.68,-284.876 796.886,-286.317"/>
<polygon fill="midnightblue" stroke="midnightblue" points="760.061,-278.444 749.72,-280.746 759.24,-285.395 760.061,-278.444"/>
</g>
<!-- Node16&#45;&gt;Node8 -->
<g id="edge32" class="edge"><title>Node16&#45;&gt;Node8</title>
<path fill="none" stroke="midnightblue" d="M890.562,-305.47C907.583,-310.503 926.064,-315.967 939.678,-319.992"/>
<polygon fill="midnightblue" stroke="midnightblue" points="891.338,-302.05 880.756,-302.571 889.354,-308.763 891.338,-302.05"/>
</g>
<!-- Node18 -->
<g id="node36" class="node"><title>Node18</title>
<a xlink:href="hfa-lnx-async_8c.html#a1e97b1d598034fdc92d57054a6c386e6" target="_top" xlink:title="tasklet_callback">
<polygon fill="white" stroke="black" points="401,-199.5 401,-220.5 493,-220.5 493,-199.5 401,-199.5"/>
<text text-anchor="middle" x="447" y="-207.5" font-family="FreeSans" font-size="10.00">tasklet_callback</text>
</a>
</g>
<!-- Node17&#45;&gt;Node18 -->
<g id="edge36" class="edge"><title>Node17&#45;&gt;Node18</title>
<path fill="none" stroke="midnightblue" d="M329.215,-183.6C352.391,-188.795 378.913,-194.739 400.914,-199.67"/>
<polygon fill="midnightblue" stroke="midnightblue" points="329.695,-180.121 319.172,-181.349 328.164,-186.951 329.695,-180.121"/>
</g>
<!-- Node20 -->
<g id="node40" class="node"><title>Node20</title>
<a xlink:href="hfa-lnx-async_8c.html#a7dea7d59754828b1173c4c7ec5d42f3e" target="_top" xlink:title="thread_callback">
<polygon fill="white" stroke="black" points="401,-159.5 401,-180.5 493,-180.5 493,-159.5 401,-159.5"/>
<text text-anchor="middle" x="447" y="-167.5" font-family="FreeSans" font-size="10.00">thread_callback</text>
</a>
</g>
<!-- Node17&#45;&gt;Node20 -->
<g id="edge40" class="edge"><title>Node17&#45;&gt;Node20</title>
<path fill="none" stroke="midnightblue" d="M329.215,-170.677C352.391,-170.544 378.913,-170.391 400.914,-170.265"/>
<polygon fill="midnightblue" stroke="midnightblue" points="329.152,-167.177 319.172,-170.735 329.192,-174.177 329.152,-167.177"/>
</g>
<!-- Node19 -->
<g id="node38" class="node"><title>Node19</title>
<a xlink:href="hfa-lnx-async_8c.html#a78ffddbcd7cdd164889cfb53ea367886" target="_top" xlink:title="entry">
<polygon fill="white" stroke="black" points="582.5,-179.5 582.5,-200.5 623.5,-200.5 623.5,-179.5 582.5,-179.5"/>
<text text-anchor="middle" x="603" y="-187.5" font-family="FreeSans" font-size="10.00">entry</text>
</a>
</g>
<!-- Node18&#45;&gt;Node19 -->
<g id="edge38" class="edge"><title>Node18&#45;&gt;Node19</title>
<path fill="none" stroke="midnightblue" d="M503.642,-202.738C530.976,-199.234 562.101,-195.244 582.118,-192.677"/>
<polygon fill="midnightblue" stroke="midnightblue" points="502.856,-199.31 493.383,-204.053 503.747,-206.253 502.856,-199.31"/>
</g>
<!-- Node20&#45;&gt;Node19 -->
<g id="edge42" class="edge"><title>Node20&#45;&gt;Node19</title>
<path fill="none" stroke="midnightblue" d="M503.642,-177.262C530.976,-180.766 562.101,-184.756 582.118,-187.323"/>
<polygon fill="midnightblue" stroke="midnightblue" points="503.747,-173.747 493.383,-175.947 502.856,-180.69 503.747,-173.747"/>
</g>
<!-- Node22 -->
<g id="node45" class="node"><title>Node22</title>
<a xlink:href="hfa-lnx-ctx_8c.html#a78ffddbcd7cdd164889cfb53ea367886" target="_top" xlink:title="entry">
<polygon fill="white" stroke="black" points="697.5,-101.5 697.5,-122.5 738.5,-122.5 738.5,-101.5 697.5,-101.5"/>
<text text-anchor="middle" x="718" y="-109.5" font-family="FreeSans" font-size="10.00">entry</text>
</a>
</g>
<!-- Node21&#45;&gt;Node22 -->
<g id="edge46" class="edge"><title>Node21&#45;&gt;Node22</title>
<path fill="none" stroke="midnightblue" d="M316.864,-129.127C411.023,-125.107 629.472,-115.78 697.438,-112.878"/>
<polygon fill="midnightblue" stroke="midnightblue" points="316.654,-125.633 306.813,-129.556 316.953,-132.626 316.654,-125.633"/>
</g>
<!-- Node23 -->
<g id="node47" class="node"><title>Node23</title>
<a xlink:href="hfa-lnx-ctx_8c.html#a3c1f07835ef5be8d3adfbaf09af5ca28" target="_top" xlink:title="core_exit">
<polygon fill="white" stroke="black" points="417,-81.5 417,-102.5 477,-102.5 477,-81.5 417,-81.5"/>
<text text-anchor="middle" x="447" y="-89.5" font-family="FreeSans" font-size="10.00">core_exit</text>
</a>
</g>
<!-- Node21&#45;&gt;Node23 -->
<g id="edge48" class="edge"><title>Node21&#45;&gt;Node23</title>
<path fill="none" stroke="midnightblue" d="M316.312,-121.292C347.573,-114.285 388.999,-105 416.754,-98.7794"/>
<polygon fill="midnightblue" stroke="midnightblue" points="315.541,-117.878 306.549,-123.48 317.072,-124.708 315.541,-117.878"/>
</g>
<!-- Node24 -->
<g id="node49" class="node"><title>Node24</title>
<a xlink:href="hfa-lnx-ctx_8c.html#a4c3443f524b4c0d95639694f0b74e850" target="_top" xlink:title="Process command line options, Read graph and payload.">
<polygon fill="white" stroke="black" points="556,-81.5 556,-102.5 650,-102.5 650,-81.5 556,-81.5"/>
<text text-anchor="middle" x="603" y="-89.5" font-family="FreeSans" font-size="10.00">process_options</text>
</a>
</g>
<!-- Node23&#45;&gt;Node24 -->
<g id="edge50" class="edge"><title>Node23&#45;&gt;Node24</title>
<path fill="none" stroke="midnightblue" d="M487.246,-92C508.198,-92 533.94,-92 555.824,-92"/>
<polygon fill="midnightblue" stroke="midnightblue" points="487.078,-88.5001 477.078,-92 487.078,-95.5001 487.078,-88.5001"/>
</g>
<!-- Node25 -->
<g id="node52" class="node"><title>Node25</title>
<a xlink:href="hfa-lnx-ctx_8c.html#aaf98ef7cdde3a0dfb2e49919de3298b1" target="_top" xlink:title="exit">
<polygon fill="white" stroke="black" points="586.5,-41.5 586.5,-62.5 619.5,-62.5 619.5,-41.5 586.5,-41.5"/>
<text text-anchor="middle" x="603" y="-49.5" font-family="FreeSans" font-size="10.00">exit</text>
</a>
</g>
<!-- Node23&#45;&gt;Node25 -->
<g id="edge54" class="edge"><title>Node23&#45;&gt;Node25</title>
<path fill="none" stroke="midnightblue" d="M487.105,-81.7167C519.345,-73.4499 562.996,-62.2575 586.453,-56.2428"/>
<polygon fill="midnightblue" stroke="midnightblue" points="485.896,-78.4134 477.078,-84.2876 487.634,-85.1941 485.896,-78.4134"/>
</g>
<!-- Node24&#45;&gt;Node22 -->
<g id="edge52" class="edge"><title>Node24&#45;&gt;Node22</title>
<path fill="none" stroke="midnightblue" d="M660.26,-101.958C673.604,-104.279 686.965,-106.603 697.468,-108.429"/>
<polygon fill="midnightblue" stroke="midnightblue" points="660.559,-98.4577 650.107,-100.192 659.359,-105.354 660.559,-98.4577"/>
</g>
<!-- Node27 -->
<g id="node56" class="node"><title>Node27</title>
<a xlink:href="hfa-lnx-ctx_8c.html#a934a9fc08c4aab25d6f0d861e4a4f762" target="_top" xlink:title="poll">
<polygon fill="white" stroke="black" points="430.5,-41.5 430.5,-62.5 463.5,-62.5 463.5,-41.5 430.5,-41.5"/>
<text text-anchor="middle" x="447" y="-49.5" font-family="FreeSans" font-size="10.00">poll</text>
</a>
</g>
<!-- Node26&#45;&gt;Node27 -->
<g id="edge58" class="edge"><title>Node26&#45;&gt;Node27</title>
<path fill="none" stroke="midnightblue" d="M325.799,-79.1658C361.445,-71.1762 406.201,-61.1447 430.106,-55.7866"/>
<polygon fill="midnightblue" stroke="midnightblue" points="325.004,-75.7571 316.011,-81.3595 326.535,-82.5876 325.004,-75.7571"/>
</g>
<!-- Node28 -->
<g id="node58" class="node"><title>Node28</title>
<a xlink:href="hfa-lnx-ctx_8c.html#a97df0ba8293c1b8436547946fd9d0d17" target="_top" xlink:title="process_pkt">
<polygon fill="white" stroke="black" points="566,-1.5 566,-22.5 640,-22.5 640,-1.5 566,-1.5"/>
<text text-anchor="middle" x="603" y="-9.5" font-family="FreeSans" font-size="10.00">process_pkt</text>
</a>
</g>
<!-- Node27&#45;&gt;Node28 -->
<g id="edge60" class="edge"><title>Node27&#45;&gt;Node28</title>
<path fill="none" stroke="midnightblue" d="M473.704,-45.1529C499.073,-38.648 537.449,-28.8079 565.808,-21.5365"/>
<polygon fill="midnightblue" stroke="midnightblue" points="472.512,-41.8451 463.695,-47.7193 474.251,-48.6258 472.512,-41.8451"/>
</g>
<!-- Node30 -->
<g id="node62" class="node"><title>Node30</title>
<a xlink:href="hfa-lnx-nctx-lock_8c.html#a972f8b60ef804914c009c2ef85bac50e" target="_top" xlink:title="Performs search process for each core.">
<polygon fill="white" stroke="black" points="401,-1.5 401,-22.5 493,-22.5 493,-1.5 401,-1.5"/>
<text text-anchor="middle" x="447" y="-9.5" font-family="FreeSans" font-size="10.00">process_search</text>
</a>
</g>
<!-- Node29&#45;&gt;Node30 -->
<g id="edge64" class="edge"><title>Node29&#45;&gt;Node30</title>
<path fill="none" stroke="midnightblue" d="M299.517,-45.0566C326.376,-39.0364 368.46,-29.6038 400.81,-22.3529"/>
<polygon fill="midnightblue" stroke="midnightblue" points="298.676,-41.6581 289.684,-47.2605 300.207,-48.4886 298.676,-41.6581"/>
</g>
</g>
</svg>
