<?xml version="1.0" encoding="UTF-8" standalone="no"?>
<!DOCTYPE svg PUBLIC "-//W3C//DTD SVG 1.1//EN"
 "http://www.w3.org/Graphics/SVG/1.1/DTD/svg11.dtd">
<!-- Generated by graphviz version 2.24.0 (20090616.2323)
 -->
<!-- Title: hfa_find_named_block Pages: 1 -->
<svg width="504pt" height="108pt"
 viewBox="0.00 0.00 504.00 108.00" xmlns="http://www.w3.org/2000/svg" xmlns:xlink="http://www.w3.org/1999/xlink">
<g id="graph1" class="graph" transform="scale(1 1) rotate(0) translate(4 104)">
<title>hfa_find_named_block</title>
<polygon fill="white" stroke="white" points="-4,5 -4,-104 501,-104 501,5 -4,5"/>
<!-- Node1 -->
<g id="node1" class="node"><title>Node1</title>
<polygon fill="#bfbfbf" stroke="black" points="0.5,-40.5 0.5,-61.5 125.5,-61.5 125.5,-40.5 0.5,-40.5"/>
<text text-anchor="middle" x="63" y="-48.5" font-family="FreeSans" font-size="10.00">hfa_find_named_block</text>
</g>
<!-- Node2 -->
<g id="node3" class="node"><title>Node2</title>
<a xlink:href="cvmx-hfa_8c.html#a547dc48185d98dcfe05c3f2cf49429fd" target="_top" xlink:title="Finds a named bootmem block by name.">
<polygon fill="white" stroke="black" points="349,-66 349,-100 495,-100 495,-66 349,-66"/>
<text text-anchor="start" x="357" y="-87" font-family="FreeSans" font-size="10.00">hfa_bootmem_find_named</text>
<text text-anchor="middle" x="422" y="-74" font-family="FreeSans" font-size="10.00">_block</text>
</a>
</g>
<!-- Node1&#45;&gt;Node2 -->
<g id="edge2" class="edge"><title>Node1&#45;&gt;Node2</title>
<path fill="none" stroke="midnightblue" d="M82.7763,-61.6405C102.276,-71.4843 133.249,-85.4112 162,-91 220.288,-102.33 287.288,-99.9115 338.675,-94.8781"/>
<polygon fill="midnightblue" stroke="midnightblue" points="339.149,-98.3479 348.737,-93.8399 338.431,-91.3848 339.149,-98.3479"/>
</g>
<!-- Node3 -->
<g id="node5" class="node"><title>Node3</title>
<a xlink:href="cvmx-hfa_8c.html#ae7d614919dc1b610fef50491246901ce" target="_top" xlink:title="Create a named bootmem block by name.">
<polygon fill="white" stroke="black" points="162,-60.5 162,-81.5 312,-81.5 312,-60.5 162,-60.5"/>
<text text-anchor="middle" x="237" y="-68.5" font-family="FreeSans" font-size="10.00">hfa_bootmem_alloc_named</text>
</a>
</g>
<!-- Node1&#45;&gt;Node3 -->
<g id="edge4" class="edge"><title>Node1&#45;&gt;Node3</title>
<path fill="none" stroke="midnightblue" d="M125.818,-58.2205C134.214,-59.1855 142.936,-60.1881 151.637,-61.1881"/>
<polygon fill="midnightblue" stroke="midnightblue" points="151.485,-64.6937 161.819,-62.3586 152.285,-57.7395 151.485,-64.6937"/>
</g>
<!-- Node4 -->
<g id="node7" class="node"><title>Node4</title>
<a xlink:href="cvm-hfa_8c.html#a741c1a0561a8b5a320f061afee14ecf4" target="_top" xlink:title="Free the named block allocated using hfa_find_named_block().">
<polygon fill="white" stroke="black" points="174,-20.5 174,-41.5 300,-41.5 300,-20.5 174,-20.5"/>
<text text-anchor="middle" x="237" y="-28.5" font-family="FreeSans" font-size="10.00">hfa_free_named_block</text>
</a>
</g>
<!-- Node1&#45;&gt;Node4 -->
<g id="edge6" class="edge"><title>Node1&#45;&gt;Node4</title>
<path fill="none" stroke="midnightblue" d="M125.818,-43.7795C138.185,-42.3581 151.259,-40.8553 163.929,-39.399"/>
<polygon fill="midnightblue" stroke="midnightblue" points="164.447,-42.8625 173.982,-38.2434 163.648,-35.9083 164.447,-42.8625"/>
</g>
<!-- Node5 -->
<g id="node10" class="node"><title>Node5</title>
<a xlink:href="cvmx-hfa_8c.html#a96a2b8d673269a4c41c3a151e4e56abb" target="_top" xlink:title="Frees a named bootmem block by name.">
<polygon fill="white" stroke="black" points="348.5,-0.5 348.5,-21.5 495.5,-21.5 495.5,-0.5 348.5,-0.5"/>
<text text-anchor="middle" x="422" y="-8.5" font-family="FreeSans" font-size="10.00">hfa_bootmem_free_named</text>
</a>
</g>
<!-- Node1&#45;&gt;Node5 -->
<g id="edge12" class="edge"><title>Node1&#45;&gt;Node5</title>
<path fill="none" stroke="midnightblue" d="M82.7763,-40.3595C102.276,-30.5157 133.249,-16.5888 162,-11 220.156,0.304794 287.022,0.0177578 338.38,-2.94649"/>
<polygon fill="midnightblue" stroke="midnightblue" points="338.24,-6.44443 348.438,-3.5724 338.675,0.542051 338.24,-6.44443"/>
</g>
<!-- Node4&#45;&gt;Node2 -->
<g id="edge8" class="edge"><title>Node4&#45;&gt;Node2</title>
<path fill="none" stroke="midnightblue" d="M277.136,-41.5246C288.427,-44.5337 300.707,-47.852 312,-51 325.854,-54.8618 340.658,-59.0952 354.77,-63.1821"/>
<polygon fill="midnightblue" stroke="midnightblue" points="353.83,-66.5536 364.409,-65.9817 355.783,-59.8314 353.83,-66.5536"/>
</g>
<!-- Node4&#45;&gt;Node5 -->
<g id="edge10" class="edge"><title>Node4&#45;&gt;Node5</title>
<path fill="none" stroke="midnightblue" d="M300.149,-24.1731C312.373,-22.8516 325.36,-21.4476 338.126,-20.0675"/>
<polygon fill="midnightblue" stroke="midnightblue" points="338.732,-23.5225 348.298,-18.9678 337.979,-16.563 338.732,-23.5225"/>
</g>
</g>
</svg>
