<?xml version="1.0" encoding="UTF-8" standalone="no"?>
<!DOCTYPE svg PUBLIC "-//W3C//DTD SVG 1.1//EN"
 "http://www.w3.org/Graphics/SVG/1.1/DTD/svg11.dtd">
<!-- Generated by graphviz version 2.24.0 (20090616.2323)
 -->
<!-- Title: hfa_oct_free_hw_memory Pages: 1 -->
<svg width="380pt" height="70pt"
 viewBox="0.00 0.00 380.00 70.00" xmlns="http://www.w3.org/2000/svg" xmlns:xlink="http://www.w3.org/1999/xlink">
<g id="graph1" class="graph" transform="scale(1 1) rotate(0) translate(4 66)">
<title>hfa_oct_free_hw_memory</title>
<polygon fill="white" stroke="white" points="-4,5 -4,-66 377,-66 377,5 -4,5"/>
<!-- Node1 -->
<g id="node1" class="node"><title>Node1</title>
<polygon fill="#bfbfbf" stroke="black" points="0.5,-20.5 0.5,-41.5 143.5,-41.5 143.5,-20.5 0.5,-20.5"/>
<text text-anchor="middle" x="72" y="-28.5" font-family="FreeSans" font-size="10.00">hfa_oct_free_hw_memory</text>
</g>
<!-- Node2 -->
<g id="node3" class="node"><title>Node2</title>
<a xlink:href="cvm-hfa_8c.html#a889a27e88a8ec2d15634a89f8dbe5613" target="_top" xlink:title="Create FPA pools for HFA This is a utility routine which applications can use to intialize an FPA poo...">
<polygon fill="white" stroke="black" points="180,-20.5 180,-41.5 294,-41.5 294,-20.5 180,-20.5"/>
<text text-anchor="middle" x="237" y="-28.5" font-family="FreeSans" font-size="10.00">hfa_create_fpa_pool</text>
</a>
</g>
<!-- Node1&#45;&gt;Node2 -->
<g id="edge2" class="edge"><title>Node1&#45;&gt;Node2</title>
<path fill="none" stroke="midnightblue" d="M154.126,-31C162.867,-31 171.613,-31 179.973,-31"/>
<polygon fill="midnightblue" stroke="midnightblue" points="153.891,-27.5001 143.891,-31 153.891,-34.5001 153.891,-27.5001"/>
</g>
<!-- Node3 -->
<g id="node5" class="node"><title>Node3</title>
<a xlink:href="hfa-lnx-ctx_8c.html#a78ffddbcd7cdd164889cfb53ea367886" target="_top" xlink:title="entry">
<polygon fill="white" stroke="black" points="330.5,-40.5 330.5,-61.5 371.5,-61.5 371.5,-40.5 330.5,-40.5"/>
<text text-anchor="middle" x="351" y="-48.5" font-family="FreeSans" font-size="10.00">entry</text>
</a>
</g>
<!-- Node2&#45;&gt;Node3 -->
<g id="edge4" class="edge"><title>Node2&#45;&gt;Node3</title>
<path fill="none" stroke="midnightblue" d="M304.318,-42.8102C313.806,-44.4747 322.899,-46.0701 330.499,-47.4033"/>
<polygon fill="midnightblue" stroke="midnightblue" points="304.788,-39.3393 294.334,-41.0586 303.579,-46.234 304.788,-39.3393"/>
</g>
<!-- Node4 -->
<g id="node7" class="node"><title>Node4</title>
<a xlink:href="hfa-se-ctx_8c.html#a3c04138a5bfe5d72780bb7e82a18e627" target="_top" xlink:title="main">
<polygon fill="white" stroke="black" points="331,-0.5 331,-21.5 371,-21.5 371,-0.5 331,-0.5"/>
<text text-anchor="middle" x="351" y="-8.5" font-family="FreeSans" font-size="10.00">main</text>
</a>
</g>
<!-- Node2&#45;&gt;Node4 -->
<g id="edge6" class="edge"><title>Node2&#45;&gt;Node4</title>
<path fill="none" stroke="midnightblue" d="M304.403,-19.175C313.969,-17.4966 323.131,-15.8893 330.761,-14.5508"/>
<polygon fill="midnightblue" stroke="midnightblue" points="303.579,-15.766 294.334,-20.9414 304.788,-22.6607 303.579,-15.766"/>
</g>
</g>
</svg>
