<?xml version="1.0" encoding="UTF-8" standalone="no"?>
<!DOCTYPE svg PUBLIC "-//W3C//DTD SVG 1.1//EN"
 "http://www.w3.org/Graphics/SVG/1.1/DTD/svg11.dtd">
<!-- Generated by graphviz version 2.24.0 (20090616.2323)
 -->
<!-- Title: hfa_searchctx_stats_print Pages: 1 -->
<svg width="510pt" height="42pt"
 viewBox="0.00 0.00 510.00 42.00" xmlns="http://www.w3.org/2000/svg" xmlns:xlink="http://www.w3.org/1999/xlink">
<g id="graph1" class="graph" transform="scale(1 1) rotate(0) translate(4 38)">
<title>hfa_searchctx_stats_print</title>
<polygon fill="white" stroke="white" points="-4,5 -4,-38 507,-38 507,5 -4,5"/>
<!-- Node1 -->
<g id="node1" class="node"><title>Node1</title>
<polygon fill="#bfbfbf" stroke="black" points="0.5,-0 0.5,-34 113.5,-34 113.5,-0 0.5,-0"/>
<text text-anchor="start" x="8.5" y="-21" font-family="FreeSans" font-size="10.00">hfa_searchctx_stats</text>
<text text-anchor="middle" x="57" y="-8" font-family="FreeSans" font-size="10.00">_print</text>
</g>
<!-- Node2 -->
<g id="node3" class="node"><title>Node2</title>
<a xlink:href="cvm-hfa-search_8c.html#a48920dcf6a80687b7f6c86056f29523a" target="_top" xlink:title="This routine is used to print PP statistics while post processing is going on.">
<polygon fill="white" stroke="black" points="150.5,-0 150.5,-34 275.5,-34 275.5,-0 150.5,-0"/>
<text text-anchor="start" x="158.5" y="-21" font-family="FreeSans" font-size="10.00">hfa_searchctx_ppstats</text>
<text text-anchor="middle" x="213" y="-8" font-family="FreeSans" font-size="10.00">_print</text>
</a>
</g>
<!-- Node1&#45;&gt;Node2 -->
<g id="edge2" class="edge"><title>Node1&#45;&gt;Node2</title>
<path fill="none" stroke="midnightblue" d="M113.761,-17C122.432,-17 131.483,-17 140.438,-17"/>
<polygon fill="midnightblue" stroke="midnightblue" points="140.482,-20.5001 150.482,-17 140.482,-13.5001 140.482,-20.5001"/>
</g>
<!-- Node3 -->
<g id="node5" class="node"><title>Node3</title>
<a xlink:href="cvm-hfa-pp_8c.html#add6064138ec2e35741929056a0992d8d" target="_top" xlink:title="ppgetstats">
<polygon fill="white" stroke="black" points="312,-6.5 312,-27.5 378,-27.5 378,-6.5 312,-6.5"/>
<text text-anchor="middle" x="345" y="-14.5" font-family="FreeSans" font-size="10.00">ppgetstats</text>
</a>
</g>
<!-- Node2&#45;&gt;Node3 -->
<g id="edge4" class="edge"><title>Node2&#45;&gt;Node3</title>
<path fill="none" stroke="midnightblue" d="M275.521,-17C284.329,-17 293.221,-17 301.565,-17"/>
<polygon fill="midnightblue" stroke="midnightblue" points="301.795,-20.5001 311.795,-17 301.795,-13.5001 301.795,-20.5001"/>
</g>
<!-- Node4 -->
<g id="node7" class="node"><title>Node4</title>
<a xlink:href="pp_8h.html#a808d5057ee5670ce724a6a88fc22b799" target="_top" xlink:title="pphfa_getstats">
<polygon fill="white" stroke="black" points="414.5,-6.5 414.5,-27.5 501.5,-27.5 501.5,-6.5 414.5,-6.5"/>
<text text-anchor="middle" x="458" y="-14.5" font-family="FreeSans" font-size="10.00">pphfa_getstats</text>
</a>
</g>
<!-- Node3&#45;&gt;Node4 -->
<g id="edge6" class="edge"><title>Node3&#45;&gt;Node4</title>
<path fill="none" stroke="midnightblue" d="M378.293,-17C386.434,-17 395.354,-17 404.187,-17"/>
<polygon fill="midnightblue" stroke="midnightblue" points="404.463,-20.5001 414.463,-17 404.463,-13.5001 404.463,-20.5001"/>
</g>
</g>
</svg>
