<?xml version="1.0" encoding="UTF-8" standalone="no"?>
<!DOCTYPE svg PUBLIC "-//W3C//DTD SVG 1.1//EN"
 "http://www.w3.org/Graphics/SVG/1.1/DTD/svg11.dtd">
<!-- Generated by graphviz version 2.24.0 (20090616.2323)
 -->
<!-- Title: hfa_dev_graph_init Pages: 1 -->
<svg width="300pt" height="70pt"
 viewBox="0.00 0.00 300.00 70.00" xmlns="http://www.w3.org/2000/svg" xmlns:xlink="http://www.w3.org/1999/xlink">
<g id="graph1" class="graph" transform="scale(1 1) rotate(0) translate(4 66)">
<title>hfa_dev_graph_init</title>
<polygon fill="white" stroke="white" points="-4,5 -4,-66 297,-66 297,5 -4,5"/>
<!-- Node1 -->
<g id="node1" class="node"><title>Node1</title>
<polygon fill="#bfbfbf" stroke="black" points="0.5,-20.5 0.5,-41.5 107.5,-41.5 107.5,-20.5 0.5,-20.5"/>
<text text-anchor="middle" x="54" y="-28.5" font-family="FreeSans" font-size="10.00">hfa_dev_graph_init</text>
</g>
<!-- Node2 -->
<g id="node3" class="node"><title>Node2</title>
<a xlink:href="hfa-lnx-async_8c.html#a546f3769e735d4bef0bfab1cba56921c" target="_top" xlink:title="Load graph to HFA memory and cache.">
<polygon fill="white" stroke="black" points="144.5,-40.5 144.5,-61.5 213.5,-61.5 213.5,-40.5 144.5,-40.5"/>
<text text-anchor="middle" x="179" y="-48.5" font-family="FreeSans" font-size="10.00">graph_load</text>
</a>
</g>
<!-- Node1&#45;&gt;Node2 -->
<g id="edge2" class="edge"><title>Node1&#45;&gt;Node2</title>
<path fill="none" stroke="midnightblue" d="M117.712,-41.1939C126.927,-42.6683 136.107,-44.1371 144.45,-45.472"/>
<polygon fill="midnightblue" stroke="midnightblue" points="118.164,-37.7218 107.737,-39.5979 117.058,-44.6339 118.164,-37.7218"/>
</g>
<!-- Node4 -->
<g id="node7" class="node"><title>Node4</title>
<a xlink:href="hfa-lnx-ctx_8c.html#a78ffddbcd7cdd164889cfb53ea367886" target="_top" xlink:title="entry">
<polygon fill="white" stroke="black" points="158.5,-0.5 158.5,-21.5 199.5,-21.5 199.5,-0.5 158.5,-0.5"/>
<text text-anchor="middle" x="179" y="-8.5" font-family="FreeSans" font-size="10.00">entry</text>
</a>
</g>
<!-- Node1&#45;&gt;Node4 -->
<g id="edge6" class="edge"><title>Node1&#45;&gt;Node4</title>
<path fill="none" stroke="midnightblue" d="M117.85,-20.7841C132.491,-18.4414 147.034,-16.1145 158.262,-14.318"/>
<polygon fill="midnightblue" stroke="midnightblue" points="117.058,-17.3661 107.737,-22.4021 118.164,-24.2782 117.058,-17.3661"/>
</g>
<!-- Node3 -->
<g id="node5" class="node"><title>Node3</title>
<a xlink:href="hfa-lnx-async_8c.html#a78ffddbcd7cdd164889cfb53ea367886" target="_top" xlink:title="entry">
<polygon fill="white" stroke="black" points="250.5,-40.5 250.5,-61.5 291.5,-61.5 291.5,-40.5 250.5,-40.5"/>
<text text-anchor="middle" x="271" y="-48.5" font-family="FreeSans" font-size="10.00">entry</text>
</a>
</g>
<!-- Node2&#45;&gt;Node3 -->
<g id="edge4" class="edge"><title>Node2&#45;&gt;Node3</title>
<path fill="none" stroke="midnightblue" d="M223.612,-51C233.01,-51 242.485,-51 250.466,-51"/>
<polygon fill="midnightblue" stroke="midnightblue" points="223.519,-47.5001 213.519,-51 223.519,-54.5001 223.519,-47.5001"/>
</g>
</g>
</svg>
