<?xml version="1.0" encoding="UTF-8" standalone="no"?>
<!DOCTYPE svg PUBLIC "-//W3C//DTD SVG 1.1//EN"
 "http://www.w3.org/Graphics/SVG/1.1/DTD/svg11.dtd">
<!-- Generated by graphviz version 2.24.0 (20090616.2323)
 -->
<!-- Title: hfa_searchctx_getmatches Pages: 1 -->
<!--zoomable 289 -->
<svg id="main" version="1.1" xmlns="http://www.w3.org/2000/svg" xmlns:xlink="http://www.w3.org/1999/xlink" xml:space="preserve" onload="init(evt)">
        <defs>
                <circle id="rim" cx="0" cy="0" r="7"/>
                <circle id="rim2" cx="0" cy="0" r="3.5"/>
                <g id="zoomPlus">
                        <use xlink:href="#rim" fill="#404040">
                                <set attributeName="fill" to="#808080" begin="zoomplus.mouseover" end="zoomplus.mouseout"/>
                        </use>
                        <path d="M-4,0h8M0,-4v8" fill="none" stroke="white" stroke-width="1.5" pointer-events="none"/>
                </g>
                <g id="zoomMin">
                        <use xlink:href="#rim" fill="#404040">
                                <set attributeName="fill" to="#808080" begin="zoomminus.mouseover" end="zoomminus.mouseout"/>
                        </use>
                        <path d="M-4,0h8" fill="none" stroke="white" stroke-width="1.5" pointer-events="none"/>
                </g>
                <g id="dirArrow">
                        <path fill="none" stroke="white" stroke-width="1.5" d="M0,-3.0v7 M-2.5,-0.5L0,-3.0L2.5,-0.5"/>
                </g>
               <g id="resetDef">
                       <use xlink:href="#rim2" fill="#404040">
                               <set attributeName="fill" to="#808080" begin="reset.mouseover" end="reset.mouseout"/>
                       </use>
               </g>
        </defs>

<script type="text/javascript">
var viewWidth = 914;
var viewHeight = 289;
var sectionId = 'dynsection-12';
</script>
<script xlink:href="svgpan.js"/>
<svg id="graph" class="graph">
<g id="viewport">
<title>hfa_searchctx_getmatches</title>
<polygon fill="white" stroke="white" points="-4,5 -4,-285 911,-285 911,5 -4,5"/>
<!-- Node1 -->
<g id="node1" class="node"><title>Node1</title>
<polygon fill="#bfbfbf" stroke="black" points="0.5,-120.5 0.5,-141.5 147.5,-141.5 147.5,-120.5 0.5,-120.5"/>
<text text-anchor="middle" x="74" y="-128.5" font-family="FreeSans" font-size="10.00">hfa_searchctx_getmatches</text>
</g>
<!-- Node2 -->
<g id="node3" class="node"><title>Node2</title>
<a xlink:href="flow_8c.html#a2976ab60901b133a56214323fb901663" target="_top" xlink:title="Low level API to poll a flow.">
<polygon fill="white" stroke="black" points="184.5,-259.5 184.5,-280.5 313.5,-280.5 313.5,-259.5 184.5,-259.5"/>
<text text-anchor="middle" x="249" y="-267.5" font-family="FreeSans" font-size="10.00">__hfaf_process_pktflow</text>
</a>
</g>
<!-- Node1&#45;&gt;Node2 -->
<g id="edge2" class="edge"><title>Node1&#45;&gt;Node2</title>
<path fill="none" stroke="midnightblue" d="M91.5431,-148.979C112.494,-169.954 149.1,-205.063 184,-231 198.365,-241.676 215.812,-252.015 229.012,-259.363"/>
<polygon fill="midnightblue" stroke="midnightblue" points="93.8394,-146.323 84.3161,-141.68 88.8654,-151.249 93.8394,-146.323"/>
</g>
<!-- Node8 -->
<g id="node15" class="node"><title>Node8</title>
<a xlink:href="hfa-lnx-async_8c.html#a972f8b60ef804914c009c2ef85bac50e" target="_top" xlink:title="Process search for given payload and graph.">
<polygon fill="white" stroke="black" points="203,-200.5 203,-221.5 295,-221.5 295,-200.5 203,-200.5"/>
<text text-anchor="middle" x="249" y="-208.5" font-family="FreeSans" font-size="10.00">process_search</text>
</a>
</g>
<!-- Node1&#45;&gt;Node8 -->
<g id="edge14" class="edge"><title>Node1&#45;&gt;Node8</title>
<path fill="none" stroke="midnightblue" d="M99.6587,-146.921C121.497,-159.997 154.007,-178.357 184,-191 192.269,-194.485 201.357,-197.664 210.048,-200.411"/>
<polygon fill="midnightblue" stroke="midnightblue" points="101.358,-143.858 90.991,-141.673 97.7323,-149.846 101.358,-143.858"/>
</g>
<!-- Node12 -->
<g id="node24" class="node"><title>Node12</title>
<a xlink:href="hfa-lnx-ctx_8c.html#a71e1d3d18cc48b90a1ecde583ffb3f7a" target="_top" xlink:title="poll_searchctx">
<polygon fill="white" stroke="black" points="206,-160.5 206,-181.5 292,-181.5 292,-160.5 206,-160.5"/>
<text text-anchor="middle" x="249" y="-168.5" font-family="FreeSans" font-size="10.00">poll_searchctx</text>
</a>
</g>
<!-- Node1&#45;&gt;Node12 -->
<g id="edge24" class="edge"><title>Node1&#45;&gt;Node12</title>
<path fill="none" stroke="midnightblue" d="M129.885,-143.774C154.439,-149.386 182.83,-155.875 205.735,-161.111"/>
<polygon fill="midnightblue" stroke="midnightblue" points="130.508,-140.326 119.979,-141.51 128.948,-147.15 130.508,-140.326"/>
</g>
<!-- Node15 -->
<g id="node30" class="node"><title>Node15</title>
<a xlink:href="hfa-lnx-linkgraph_8c.html#a78ffddbcd7cdd164889cfb53ea367886" target="_top" xlink:title="entry">
<polygon fill="white" stroke="black" points="228.5,-120.5 228.5,-141.5 269.5,-141.5 269.5,-120.5 228.5,-120.5"/>
<text text-anchor="middle" x="249" y="-128.5" font-family="FreeSans" font-size="10.00">entry</text>
</a>
</g>
<!-- Node1&#45;&gt;Node15 -->
<g id="edge30" class="edge"><title>Node1&#45;&gt;Node15</title>
<path fill="none" stroke="midnightblue" d="M157.738,-131C184.018,-131 210.75,-131 228.431,-131"/>
<polygon fill="midnightblue" stroke="midnightblue" points="157.709,-127.5 147.709,-131 157.709,-134.5 157.709,-127.5"/>
</g>
<!-- Node16 -->
<g id="node32" class="node"><title>Node16</title>
<a xlink:href="hfa-lnx-nctx-lock_8c.html#adb0c831ef0f9af5441a6769c377d9c95" target="_top" xlink:title="Post process the results from HFA and record found matches.">
<polygon fill="white" stroke="black" points="209,-80.5 209,-101.5 289,-101.5 289,-80.5 209,-80.5"/>
<text text-anchor="middle" x="249" y="-88.5" font-family="FreeSans" font-size="10.00">post_process</text>
</a>
</g>
<!-- Node1&#45;&gt;Node16 -->
<g id="edge32" class="edge"><title>Node1&#45;&gt;Node16</title>
<path fill="none" stroke="midnightblue" d="M129.97,-118.207C155.678,-112.331 185.577,-105.497 208.978,-100.148"/>
<polygon fill="midnightblue" stroke="midnightblue" points="128.948,-114.85 119.979,-120.49 130.508,-121.674 128.948,-114.85"/>
</g>
<!-- Node19 -->
<g id="node39" class="node"><title>Node19</title>
<a xlink:href="hfa-se-async_8c.html#a3c04138a5bfe5d72780bb7e82a18e627" target="_top" xlink:title="main">
<polygon fill="white" stroke="black" points="229,-40.5 229,-61.5 269,-61.5 269,-40.5 229,-40.5"/>
<text text-anchor="middle" x="249" y="-48.5" font-family="FreeSans" font-size="10.00">main</text>
</a>
</g>
<!-- Node1&#45;&gt;Node19 -->
<g id="edge40" class="edge"><title>Node1&#45;&gt;Node19</title>
<path fill="none" stroke="midnightblue" d="M99.6587,-115.079C121.497,-102.003 154.007,-83.6427 184,-71 198.579,-64.8547 215.705,-59.663 228.717,-56.1103"/>
<polygon fill="midnightblue" stroke="midnightblue" points="97.7323,-112.154 90.991,-120.327 101.358,-118.142 97.7323,-112.154"/>
</g>
<!-- Node20 -->
<g id="node41" class="node"><title>Node20</title>
<a xlink:href="hfa-se-wqe-lock_8c.html#a06b5fcfab0e1d5eb36b633ec080ad7f9" target="_top" xlink:title="Process search for given contexts.">
<polygon fill="white" stroke="black" points="209,-0.5 209,-21.5 289,-21.5 289,-0.5 209,-0.5"/>
<text text-anchor="middle" x="249" y="-8.5" font-family="FreeSans" font-size="10.00">process_nctx</text>
</a>
</g>
<!-- Node1&#45;&gt;Node20 -->
<g id="edge42" class="edge"><title>Node1&#45;&gt;Node20</title>
<path fill="none" stroke="midnightblue" d="M89.5998,-112.53C109.402,-90.1933 145.629,-52.876 184,-31 191.59,-26.6727 200.223,-23.176 208.663,-20.3913"/>
<polygon fill="midnightblue" stroke="midnightblue" points="86.768,-110.453 82.8445,-120.294 92.049,-115.048 86.768,-110.453"/>
</g>
<!-- Node3 -->
<g id="node5" class="node"><title>Node3</title>
<a xlink:href="flow_8h.html#ab1b3378af88a440a6c3c0851be942e65" target="_top" xlink:title="All submitted search parameters in Paramlist of flow are polled If low level API __hfaf_process_pktfl...">
<polygon fill="white" stroke="black" points="350.5,-259.5 350.5,-280.5 469.5,-280.5 469.5,-259.5 350.5,-259.5"/>
<text text-anchor="middle" x="410" y="-267.5" font-family="FreeSans" font-size="10.00">hfaf_process_pktflow</text>
</a>
</g>
<!-- Node2&#45;&gt;Node3 -->
<g id="edge4" class="edge"><title>Node2&#45;&gt;Node3</title>
<path fill="none" stroke="midnightblue" d="M323.622,-270C332.594,-270 341.665,-270 350.384,-270"/>
<polygon fill="midnightblue" stroke="midnightblue" points="323.557,-266.5 313.557,-270 323.557,-273.5 323.557,-266.5"/>
</g>
<!-- Node4 -->
<g id="node7" class="node"><title>Node4</title>
<a xlink:href="hfa-se-flow_8c.html#a2d83c733eacd7afc955c3af18edcb52a" target="_top" xlink:title="Polls for a submitted search instruction of a flow.">
<polygon fill="white" stroke="black" points="509.5,-259.5 509.5,-280.5 594.5,-280.5 594.5,-259.5 509.5,-259.5"/>
<text text-anchor="middle" x="552" y="-267.5" font-family="FreeSans" font-size="10.00">__processflow</text>
</a>
</g>
<!-- Node3&#45;&gt;Node4 -->
<g id="edge6" class="edge"><title>Node3&#45;&gt;Node4</title>
<path fill="none" stroke="midnightblue" d="M480.083,-270C489.981,-270 499.902,-270 509.078,-270"/>
<polygon fill="midnightblue" stroke="midnightblue" points="479.809,-266.5 469.809,-270 479.809,-273.5 479.809,-266.5"/>
</g>
<!-- Node5 -->
<g id="node9" class="node"><title>Node5</title>
<a xlink:href="hfa-se-flow_8c.html#a786591694a8f8fb46cedbc8a580c88f6" target="_top" xlink:title="Submitting or Polling flows from the software recently used cache IF Cache is empty, it tries to refill it.">
<polygon fill="white" stroke="black" points="634.5,-259.5 634.5,-280.5 697.5,-280.5 697.5,-259.5 634.5,-259.5"/>
<text text-anchor="middle" x="666" y="-267.5" font-family="FreeSans" font-size="10.00">do_cache</text>
</a>
</g>
<!-- Node4&#45;&gt;Node5 -->
<g id="edge8" class="edge"><title>Node4&#45;&gt;Node5</title>
<path fill="none" stroke="midnightblue" d="M604.784,-270C614.902,-270 625.197,-270 634.387,-270"/>
<polygon fill="midnightblue" stroke="midnightblue" points="604.774,-266.5 594.774,-270 604.774,-273.5 604.774,-266.5"/>
</g>
<!-- Node6 -->
<g id="node11" class="node"><title>Node6</title>
<a xlink:href="hfa-se-flow_8c.html#aba72a61590283e37ffd78b4defd38220" target="_top" xlink:title="Receive network packets and process.">
<polygon fill="white" stroke="black" points="734,-259.5 734,-280.5 830,-280.5 830,-259.5 734,-259.5"/>
<text text-anchor="middle" x="782" y="-267.5" font-family="FreeSans" font-size="10.00">process_packets</text>
</a>
</g>
<!-- Node5&#45;&gt;Node6 -->
<g id="edge10" class="edge"><title>Node5&#45;&gt;Node6</title>
<path fill="none" stroke="midnightblue" d="M707.711,-270C716.17,-270 725.131,-270 733.792,-270"/>
<polygon fill="midnightblue" stroke="midnightblue" points="707.698,-266.5 697.698,-270 707.697,-273.5 707.698,-266.5"/>
</g>
<!-- Node7 -->
<g id="node13" class="node"><title>Node7</title>
<a xlink:href="hfa-se-flow-wqe_8c.html#a3c04138a5bfe5d72780bb7e82a18e627" target="_top" xlink:title="Implementation.">
<polygon fill="white" stroke="black" points="866,-259.5 866,-280.5 906,-280.5 906,-259.5 866,-259.5"/>
<text text-anchor="middle" x="886" y="-267.5" font-family="FreeSans" font-size="10.00">main</text>
</a>
</g>
<!-- Node6&#45;&gt;Node7 -->
<g id="edge12" class="edge"><title>Node6&#45;&gt;Node7</title>
<path fill="none" stroke="midnightblue" d="M840.146,-270C849.414,-270 858.419,-270 865.958,-270"/>
<polygon fill="midnightblue" stroke="midnightblue" points="840.043,-266.5 830.042,-270 840.042,-273.5 840.043,-266.5"/>
</g>
<!-- Node9 -->
<g id="node17" class="node"><title>Node9</title>
<a xlink:href="hfa-lnx-async_8c.html#a1e97b1d598034fdc92d57054a6c386e6" target="_top" xlink:title="tasklet_callback">
<polygon fill="white" stroke="black" points="364,-219.5 364,-240.5 456,-240.5 456,-219.5 364,-219.5"/>
<text text-anchor="middle" x="410" y="-227.5" font-family="FreeSans" font-size="10.00">tasklet_callback</text>
</a>
</g>
<!-- Node8&#45;&gt;Node9 -->
<g id="edge16" class="edge"><title>Node8&#45;&gt;Node9</title>
<path fill="none" stroke="midnightblue" d="M305.242,-217.637C324.401,-219.898 345.583,-222.398 363.857,-224.555"/>
<polygon fill="midnightblue" stroke="midnightblue" points="305.477,-214.141 295.136,-216.445 304.657,-221.093 305.477,-214.141"/>
</g>
<!-- Node11 -->
<g id="node21" class="node"><title>Node11</title>
<a xlink:href="hfa-lnx-async_8c.html#a7dea7d59754828b1173c4c7ec5d42f3e" target="_top" xlink:title="thread_callback">
<polygon fill="white" stroke="black" points="364,-179.5 364,-200.5 456,-200.5 456,-179.5 364,-179.5"/>
<text text-anchor="middle" x="410" y="-187.5" font-family="FreeSans" font-size="10.00">thread_callback</text>
</a>
</g>
<!-- Node8&#45;&gt;Node11 -->
<g id="edge20" class="edge"><title>Node8&#45;&gt;Node11</title>
<path fill="none" stroke="midnightblue" d="M305.242,-203.664C324.401,-201.165 345.583,-198.402 363.857,-196.019"/>
<polygon fill="midnightblue" stroke="midnightblue" points="304.599,-200.218 295.136,-204.982 305.505,-207.159 304.599,-200.218"/>
</g>
<!-- Node10 -->
<g id="node19" class="node"><title>Node10</title>
<a xlink:href="hfa-lnx-async_8c.html#a78ffddbcd7cdd164889cfb53ea367886" target="_top" xlink:title="entry">
<polygon fill="white" stroke="black" points="531.5,-199.5 531.5,-220.5 572.5,-220.5 572.5,-199.5 531.5,-199.5"/>
<text text-anchor="middle" x="552" y="-207.5" font-family="FreeSans" font-size="10.00">entry</text>
</a>
</g>
<!-- Node9&#45;&gt;Node10 -->
<g id="edge18" class="edge"><title>Node9&#45;&gt;Node10</title>
<path fill="none" stroke="midnightblue" d="M466.147,-222.092C489.168,-218.85 514.37,-215.3 531.476,-212.891"/>
<polygon fill="midnightblue" stroke="midnightblue" points="465.517,-218.646 456.103,-223.507 466.494,-225.578 465.517,-218.646"/>
</g>
<!-- Node11&#45;&gt;Node10 -->
<g id="edge22" class="edge"><title>Node11&#45;&gt;Node10</title>
<path fill="none" stroke="midnightblue" d="M466.147,-197.908C489.168,-201.15 514.37,-204.7 531.476,-207.109"/>
<polygon fill="midnightblue" stroke="midnightblue" points="466.494,-194.422 456.103,-196.493 465.517,-201.354 466.494,-194.422"/>
</g>
<!-- Node13 -->
<g id="node26" class="node"><title>Node13</title>
<a xlink:href="hfa-lnx-ctx_8c.html#a934a9fc08c4aab25d6f0d861e4a4f762" target="_top" xlink:title="poll">
<polygon fill="white" stroke="black" points="393.5,-139.5 393.5,-160.5 426.5,-160.5 426.5,-139.5 393.5,-139.5"/>
<text text-anchor="middle" x="410" y="-147.5" font-family="FreeSans" font-size="10.00">poll</text>
</a>
</g>
<!-- Node12&#45;&gt;Node13 -->
<g id="edge26" class="edge"><title>Node12&#45;&gt;Node13</title>
<path fill="none" stroke="midnightblue" d="M302.199,-164.061C333.953,-159.919 372.135,-154.939 393.478,-152.155"/>
<polygon fill="midnightblue" stroke="midnightblue" points="301.608,-160.608 292.145,-165.372 302.514,-167.55 301.608,-160.608"/>
</g>
<!-- Node14 -->
<g id="node28" class="node"><title>Node14</title>
<a xlink:href="hfa-lnx-ctx_8c.html#a97df0ba8293c1b8436547946fd9d0d17" target="_top" xlink:title="process_pkt">
<polygon fill="white" stroke="black" points="515,-139.5 515,-160.5 589,-160.5 589,-139.5 515,-139.5"/>
<text text-anchor="middle" x="552" y="-147.5" font-family="FreeSans" font-size="10.00">process_pkt</text>
</a>
</g>
<!-- Node13&#45;&gt;Node14 -->
<g id="edge28" class="edge"><title>Node13&#45;&gt;Node14</title>
<path fill="none" stroke="midnightblue" d="M436.858,-150C458.909,-150 490.376,-150 514.843,-150"/>
<polygon fill="midnightblue" stroke="midnightblue" points="436.567,-146.5 426.567,-150 436.567,-153.5 436.567,-146.5"/>
</g>
<!-- Node17 -->
<g id="node34" class="node"><title>Node17</title>
<a xlink:href="hfa-lnx-nctx-lock_8c.html#a48d3743fb7abc7d3c6b68359678e52a1" target="_top" xlink:title="Poll for the pending search instructions in the HW (blocked till instruction completes) and process t...">
<polygon fill="white" stroke="black" points="393.5,-90.5 393.5,-111.5 426.5,-111.5 426.5,-90.5 393.5,-90.5"/>
<text text-anchor="middle" x="410" y="-98.5" font-family="FreeSans" font-size="10.00">poll</text>
</a>
</g>
<!-- Node16&#45;&gt;Node17 -->
<g id="edge34" class="edge"><title>Node16&#45;&gt;Node17</title>
<path fill="none" stroke="midnightblue" d="M299.363,-94.1281C331.538,-96.1266 371.22,-98.5913 393.249,-99.9596"/>
<polygon fill="midnightblue" stroke="midnightblue" points="299.41,-90.6244 289.212,-93.4976 298.976,-97.6109 299.41,-90.6244"/>
</g>
<!-- Node18 -->
<g id="node36" class="node"><title>Node18</title>
<a xlink:href="hfa-lnx-nctx-lock_8c.html#a972f8b60ef804914c009c2ef85bac50e" target="_top" xlink:title="Performs search process for each core.">
<polygon fill="white" stroke="black" points="506,-71.5 506,-92.5 598,-92.5 598,-71.5 506,-71.5"/>
<text text-anchor="middle" x="552" y="-79.5" font-family="FreeSans" font-size="10.00">process_search</text>
</a>
</g>
<!-- Node16&#45;&gt;Node18 -->
<g id="edge38" class="edge"><title>Node16&#45;&gt;Node18</title>
<path fill="none" stroke="midnightblue" d="M299.524,-85.0106C315.631,-83.3661 333.542,-81.8128 350,-81 403.268,-78.3694 416.668,-80.6748 470,-81 481.532,-81.0703 493.976,-81.1962 505.599,-81.3356"/>
<polygon fill="midnightblue" stroke="midnightblue" points="298.81,-81.5664 289.233,-86.0975 299.546,-88.5277 298.81,-81.5664"/>
</g>
<!-- Node17&#45;&gt;Node18 -->
<g id="edge36" class="edge"><title>Node17&#45;&gt;Node18</title>
<path fill="none" stroke="midnightblue" d="M436.532,-97.4499C455.979,-94.8479 482.875,-91.2491 505.817,-88.1794"/>
<polygon fill="midnightblue" stroke="midnightblue" points="436.015,-93.9879 426.567,-98.7833 436.943,-100.926 436.015,-93.9879"/>
</g>
<!-- Node21 -->
<g id="node43" class="node"><title>Node21</title>
<a xlink:href="hfa-se-wqe-lock_8c.html#a3c04138a5bfe5d72780bb7e82a18e627" target="_top" xlink:title="main">
<polygon fill="white" stroke="black" points="390,-0.5 390,-21.5 430,-21.5 430,-0.5 390,-0.5"/>
<text text-anchor="middle" x="410" y="-8.5" font-family="FreeSans" font-size="10.00">main</text>
</a>
</g>
<!-- Node20&#45;&gt;Node21 -->
<g id="edge44" class="edge"><title>Node20&#45;&gt;Node21</title>
<path fill="none" stroke="midnightblue" d="M299.298,-11C329.9,-11 367.313,-11 389.869,-11"/>
<polygon fill="midnightblue" stroke="midnightblue" points="299.212,-7.5001 289.212,-11 299.212,-14.5001 299.212,-7.5001"/>
</g>
</g>
</svg>
        <g id="navigator" transform="translate(0 0)" fill="#404254">
                <rect fill="#f2f5e9" fill-opacity="0.5" stroke="#606060" stroke-width=".5" x="0" y="0" width="60" height="60"/>
                <use id="zoomplus" xlink:href="#zoomPlus" x="17" y="9" onmousedown="handleZoom(evt,'in')"/>
                <use id="zoomminus" xlink:href="#zoomMin" x="42" y="9" onmousedown="handleZoom(evt,'out')"/>
                <use id="reset" xlink:href="#resetDef" x="30" y="36" onmousedown="handleReset()"/>
                <g id="arrowUp" xlink:href="#dirArrow" transform="translate(30 24)" onmousedown="handlePan(0,-1)">
                  <use xlink:href="#rim" fill="#404040">
                        <set attributeName="fill" to="#808080" begin="arrowUp.mouseover" end="arrowUp.mouseout"/>
                  </use>
                  <path fill="none" stroke="white" stroke-width="1.5" d="M0,-3.0v7 M-2.5,-0.5L0,-3.0L2.5,-0.5"/>
                </g>
                <g id="arrowRight" xlink:href="#dirArrow" transform="rotate(90) translate(36 -43)" onmousedown="handlePan(1,0)">
                  <use xlink:href="#rim" fill="#404040">
                        <set attributeName="fill" to="#808080" begin="arrowRight.mouseover" end="arrowRight.mouseout"/>
                  </use>
                  <path fill="none" stroke="white" stroke-width="1.5" d="M0,-3.0v7 M-2.5,-0.5L0,-3.0L2.5,-0.5"/>
                </g>
                <g id="arrowDown" xlink:href="#dirArrow" transform="rotate(180) translate(-30 -48)" onmousedown="handlePan(0,1)">
                  <use xlink:href="#rim" fill="#404040">
                        <set attributeName="fill" to="#808080" begin="arrowDown.mouseover" end="arrowDown.mouseout"/>
                  </use>
                  <path fill="none" stroke="white" stroke-width="1.5" d="M0,-3.0v7 M-2.5,-0.5L0,-3.0L2.5,-0.5"/>
                </g>
                <g id="arrowLeft" xlink:href="#dirArrow" transform="rotate(270) translate(-36 17)" onmousedown="handlePan(-1,0)">
                  <use xlink:href="#rim" fill="#404040">
                        <set attributeName="fill" to="#808080" begin="arrowLeft.mouseover" end="arrowLeft.mouseout"/>
                  </use>
                  <path fill="none" stroke="white" stroke-width="1.5" d="M0,-3.0v7 M-2.5,-0.5L0,-3.0L2.5,-0.5"/>
                </g>
        </g>
        <svg viewBox="0 0 15 15" width="100%" height="30px" preserveAspectRatio="xMaxYMin meet">
         <g id="arrow_out" transform="scale(0.3 0.3)">
          <a xlink:href="cvm-hfa-search_8c_a6dbb15dc58155b2c94b19784ad42ef89_icgraph_org.svg" target="_base">
           <rect id="button" ry="5" rx="5" y="6" x="6" height="38" width="38"
                fill="#f2f5e9" fill-opacity="0.5" stroke="#606060" stroke-width="1.0"/>
           <path id="arrow"
             d="M 11.500037,31.436501 C 11.940474,20.09759 22.043105,11.32322 32.158766,21.979434 L 37.068811,17.246167 C 37.068811,17.246167 37.088388,32 37.088388,32 L 22.160133,31.978069 C 22.160133,31.978069 26.997745,27.140456 26.997745,27.140456 C 18.528582,18.264221 13.291696,25.230495 11.500037,31.436501 z"
             style="fill:#404040;"/>
          </a>
         </g>
        </svg>
</svg>
