<?xml version="1.0" encoding="UTF-8" standalone="no"?>
<!DOCTYPE svg PUBLIC "-//W3C//DTD SVG 1.1//EN"
 "http://www.w3.org/Graphics/SVG/1.1/DTD/svg11.dtd">
<!-- Generated by graphviz version 2.24.0 (20090616.2323)
 -->
<!-- Title: hfa_graph_processwork Pages: 1 -->
<svg width="450pt" height="30pt"
 viewBox="0.00 0.00 450.00 30.00" xmlns="http://www.w3.org/2000/svg" xmlns:xlink="http://www.w3.org/1999/xlink">
<g id="graph1" class="graph" transform="scale(1 1) rotate(0) translate(4 26)">
<title>hfa_graph_processwork</title>
<polygon fill="white" stroke="white" points="-4,5 -4,-26 447,-26 447,5 -4,5"/>
<!-- Node1 -->
<g id="node1" class="node"><title>Node1</title>
<polygon fill="#bfbfbf" stroke="black" points="0.5,-0.5 0.5,-21.5 131.5,-21.5 131.5,-0.5 0.5,-0.5"/>
<text text-anchor="middle" x="66" y="-8.5" font-family="FreeSans" font-size="10.00">hfa_graph_processwork</text>
</g>
<!-- Node2 -->
<g id="node3" class="node"><title>Node2</title>
<a xlink:href="cvm-hfa-graph_8c.html#aa4c0667cc4f92a08c249041eb8a4ec58" target="_top" xlink:title="This routine is used to free the buffers and change the graph load status after instruction completio...">
<polygon fill="white" stroke="black" points="168.5,-0.5 168.5,-21.5 315.5,-21.5 315.5,-0.5 168.5,-0.5"/>
<text text-anchor="middle" x="242" y="-8.5" font-family="FreeSans" font-size="10.00">__hfa_graph_processstatus</text>
</a>
</g>
<!-- Node1&#45;&gt;Node2 -->
<g id="edge2" class="edge"><title>Node1&#45;&gt;Node2</title>
<path fill="none" stroke="midnightblue" d="M131.536,-11C140.27,-11 149.321,-11 158.311,-11"/>
<polygon fill="midnightblue" stroke="midnightblue" points="158.416,-14.5001 168.416,-11 158.416,-7.5001 158.416,-14.5001"/>
</g>
<!-- Node3 -->
<g id="node5" class="node"><title>Node3</title>
<a xlink:href="cvm-hfa-cluster_8c.html#ad8cad96579f5a310b62caaf8c166658f" target="_top" xlink:title="Returns a copy of a cluster of the HFA device.">
<polygon fill="white" stroke="black" points="352,-0.5 352,-21.5 442,-21.5 442,-0.5 352,-0.5"/>
<text text-anchor="middle" x="397" y="-8.5" font-family="FreeSans" font-size="10.00">hfa_get_cluster</text>
</a>
</g>
<!-- Node2&#45;&gt;Node3 -->
<g id="edge4" class="edge"><title>Node2&#45;&gt;Node3</title>
<path fill="none" stroke="midnightblue" d="M315.868,-11C324.627,-11 333.447,-11 341.881,-11"/>
<polygon fill="midnightblue" stroke="midnightblue" points="341.946,-14.5001 351.946,-11 341.946,-7.5001 341.946,-14.5001"/>
</g>
</g>
</svg>
