<?xml version="1.0" encoding="UTF-8" standalone="no"?>
<!DOCTYPE svg PUBLIC "-//W3C//DTD SVG 1.1//EN"
 "http://www.w3.org/Graphics/SVG/1.1/DTD/svg11.dtd">
<!-- Generated by graphviz version 2.24.0 (20090616.2323)
 -->
<!-- Title: hfa_stats_memoryfree Pages: 1 -->
<svg width="1610pt" height="687pt"
 viewBox="0.00 0.00 1610.00 687.00" xmlns="http://www.w3.org/2000/svg" xmlns:xlink="http://www.w3.org/1999/xlink">
<g id="graph1" class="graph" transform="scale(1 1) rotate(0) translate(4 683)">
<title>hfa_stats_memoryfree</title>
<polygon fill="white" stroke="white" points="-4,5 -4,-683 1607,-683 1607,5 -4,5"/>
<!-- Node1 -->
<g id="node1" class="node"><title>Node1</title>
<polygon fill="#bfbfbf" stroke="black" points="0.5,-395.5 0.5,-416.5 125.5,-416.5 125.5,-395.5 0.5,-395.5"/>
<text text-anchor="middle" x="63" y="-403.5" font-family="FreeSans" font-size="10.00">hfa_stats_memoryfree</text>
</g>
<!-- Node2 -->
<g id="node3" class="node"><title>Node2</title>
<a xlink:href="cvm-hfa-stats_8h.html#a69100ad9ae17fc0ec07982ea8b90c5df" target="_top" xlink:title="This routine allocates memory for counters to maintain statistics of each processing core...">
<polygon fill="white" stroke="black" points="177,-611.5 177,-632.5 279,-632.5 279,-611.5 177,-611.5"/>
<text text-anchor="middle" x="228" y="-619.5" font-family="FreeSans" font-size="10.00">hfa_dev_stats_init</text>
</a>
</g>
<!-- Node1&#45;&gt;Node2 -->
<g id="edge2" class="edge"><title>Node1&#45;&gt;Node2</title>
<path fill="none" stroke="midnightblue" d="M77.3803,-424.825C110.909,-468.717 193.417,-576.728 219.768,-611.224"/>
<polygon fill="midnightblue" stroke="midnightblue" points="80.0342,-422.534 71.1824,-416.711 74.4715,-426.783 80.0342,-422.534"/>
</g>
<!-- Node6 -->
<g id="node11" class="node"><title>Node6</title>
<a xlink:href="cvm-hfa-stats_8h.html#aa0435e2cae5551fb5f8cfcd2f4a6eb41" target="_top" xlink:title="This routine is the counterpart of hfa_dev_init_stats().">
<polygon fill="white" stroke="black" points="343,-108.5 343,-129.5 469,-129.5 469,-108.5 343,-108.5"/>
<text text-anchor="middle" x="406" y="-116.5" font-family="FreeSans" font-size="10.00">hfa_dev_stats_cleanup</text>
</a>
</g>
<!-- Node1&#45;&gt;Node6 -->
<g id="edge10" class="edge"><title>Node1&#45;&gt;Node6</title>
<path fill="none" stroke="midnightblue" d="M80.2218,-387.935C99.5305,-367.967 132.067,-335.169 162,-309 245.266,-236.205 352.521,-157.535 391.241,-129.582"/>
<polygon fill="midnightblue" stroke="midnightblue" points="77.445,-385.773 73.0355,-395.406 82.4902,-390.625 77.445,-385.773"/>
</g>
<!-- Node12 -->
<g id="node24" class="node"><title>Node12</title>
<a xlink:href="cvm-hfa-stats_8h.html#a97bd8b836915983d25215b498138f881" target="_top" xlink:title="This routine allocates the memory for counters to maintain the statistics of search context...">
<polygon fill="white" stroke="black" points="162.5,-466.5 162.5,-487.5 293.5,-487.5 293.5,-466.5 162.5,-466.5"/>
<text text-anchor="middle" x="228" y="-474.5" font-family="FreeSans" font-size="10.00">hfa_searchctx_stats_init</text>
</a>
</g>
<!-- Node1&#45;&gt;Node12 -->
<g id="edge24" class="edge"><title>Node1&#45;&gt;Node12</title>
<path fill="none" stroke="midnightblue" d="M97.0236,-420.64C128.706,-434.274 175.171,-454.268 203.399,-466.414"/>
<polygon fill="midnightblue" stroke="midnightblue" points="98.2713,-417.367 87.7022,-416.629 95.5044,-423.797 98.2713,-417.367"/>
</g>
<!-- Node31 -->
<g id="node67" class="node"><title>Node31</title>
<a xlink:href="cvm-hfa-stats_8h.html#a862ba0157108e510e8b6e03559f74624" target="_top" xlink:title="This routine is the counterpart of hfa_searchctx_init_stats().">
<polygon fill="white" stroke="black" points="171.5,-318 171.5,-352 284.5,-352 284.5,-318 171.5,-318"/>
<text text-anchor="start" x="179.5" y="-339" font-family="FreeSans" font-size="10.00">hfa_searchctx_stats</text>
<text text-anchor="middle" x="228" y="-326" font-family="FreeSans" font-size="10.00">_cleanup</text>
</a>
</g>
<!-- Node1&#45;&gt;Node31 -->
<g id="edge72" class="edge"><title>Node1&#45;&gt;Node31</title>
<path fill="none" stroke="midnightblue" d="M96.9764,-391.38C123.524,-379.956 160.472,-364.057 188.367,-352.054"/>
<polygon fill="midnightblue" stroke="midnightblue" points="95.5044,-388.203 87.7022,-395.371 98.2713,-394.633 95.5044,-388.203"/>
</g>
<!-- Node3 -->
<g id="node5" class="node"><title>Node3</title>
<a xlink:href="cvm-hfa_8c.html#a873768042b716d60996ec5d858fc8fd9" target="_top" xlink:title="This function must be called by application to initialize HFA engine and setup resources for HFA hard...">
<polygon fill="white" stroke="black" points="1119,-434.5 1119,-455.5 1193,-455.5 1193,-434.5 1119,-434.5"/>
<text text-anchor="middle" x="1156" y="-442.5" font-family="FreeSans" font-size="10.00">hfa_dev_init</text>
</a>
</g>
<!-- Node2&#45;&gt;Node3 -->
<g id="edge4" class="edge"><title>Node2&#45;&gt;Node3</title>
<path fill="none" stroke="midnightblue" d="M276.23,-635.025C342.876,-651.85 467.136,-679 575,-679 575,-679 575,-679 909,-679 1040.73,-679 1130.39,-501.44 1151.31,-455.663"/>
<polygon fill="midnightblue" stroke="midnightblue" points="276.986,-631.606 266.431,-632.521 275.253,-638.388 276.986,-631.606"/>
</g>
<!-- Node4 -->
<g id="node7" class="node"><title>Node4</title>
<a xlink:href="hfa-lnx-async_8c.html#a78ffddbcd7cdd164889cfb53ea367886" target="_top" xlink:title="entry">
<polygon fill="white" stroke="black" points="1560.5,-199.5 1560.5,-220.5 1601.5,-220.5 1601.5,-199.5 1560.5,-199.5"/>
<text text-anchor="middle" x="1581" y="-207.5" font-family="FreeSans" font-size="10.00">entry</text>
</a>
</g>
<!-- Node3&#45;&gt;Node4 -->
<g id="edge6" class="edge"><title>Node3&#45;&gt;Node4</title>
<path fill="none" stroke="midnightblue" d="M1203.3,-451.202C1253.88,-455.605 1335.02,-456.105 1396,-425 1490.75,-376.668 1557.31,-256.835 1575.8,-220.567"/>
<polygon fill="midnightblue" stroke="midnightblue" points="1203.59,-447.714 1193.3,-450.246 1202.92,-454.682 1203.59,-447.714"/>
</g>
<!-- Node5 -->
<g id="node9" class="node"><title>Node5</title>
<a xlink:href="hfa-se-async_8c.html#a3c04138a5bfe5d72780bb7e82a18e627" target="_top" xlink:title="main">
<polygon fill="white" stroke="black" points="1311,-394.5 1311,-415.5 1351,-415.5 1351,-394.5 1311,-394.5"/>
<text text-anchor="middle" x="1331" y="-402.5" font-family="FreeSans" font-size="10.00">main</text>
</a>
</g>
<!-- Node3&#45;&gt;Node5 -->
<g id="edge8" class="edge"><title>Node3&#45;&gt;Node5</title>
<path fill="none" stroke="midnightblue" d="M1203.18,-434.216C1238.38,-426.171 1284.71,-415.58 1310.83,-409.61"/>
<polygon fill="midnightblue" stroke="midnightblue" points="1202.08,-430.877 1193.11,-436.517 1203.64,-437.701 1202.08,-430.877"/>
</g>
<!-- Node7 -->
<g id="node13" class="node"><title>Node7</title>
<a xlink:href="cvm-hfa_8c.html#af14bebdd444bd0bf92faac9d5d88b492" target="_top" xlink:title="This function is called by application to cleanup all resources configured for HFA device and then sh...">
<polygon fill="white" stroke="black" points="691.5,-0.5 691.5,-21.5 790.5,-21.5 790.5,-0.5 691.5,-0.5"/>
<text text-anchor="middle" x="741" y="-8.5" font-family="FreeSans" font-size="10.00">hfa_dev_cleanup</text>
</a>
</g>
<!-- Node6&#45;&gt;Node7 -->
<g id="edge12" class="edge"><title>Node6&#45;&gt;Node7</title>
<path fill="none" stroke="midnightblue" d="M422.425,-100.892C442.631,-79.9702 479.071,-46.4453 518,-31 574.364,-8.63716 644.843,-6.10227 691.304,-7.53419"/>
<polygon fill="midnightblue" stroke="midnightblue" points="419.819,-98.5538 415.504,-108.23 424.911,-103.357 419.819,-98.5538"/>
</g>
<!-- Node8 -->
<g id="node15" class="node"><title>Node8</title>
<a xlink:href="hfa-lnx-async_8c.html#acd9e54f020b77f14d54c200b65423a15" target="_top" xlink:title="Application cleanup will be done by this routine.">
<polygon fill="white" stroke="black" points="882,-20.5 882,-41.5 936,-41.5 936,-20.5 882,-20.5"/>
<text text-anchor="middle" x="909" y="-28.5" font-family="FreeSans" font-size="10.00">cleanup</text>
</a>
</g>
<!-- Node7&#45;&gt;Node8 -->
<g id="edge14" class="edge"><title>Node7&#45;&gt;Node8</title>
<path fill="none" stroke="midnightblue" d="M800.948,-18.1366C828.617,-21.4306 860.088,-25.1771 881.9,-27.7738"/>
<polygon fill="midnightblue" stroke="midnightblue" points="801.294,-14.6533 790.951,-16.9465 800.467,-21.6042 801.294,-14.6533"/>
</g>
<!-- Node10 -->
<g id="node20" class="node"><title>Node10</title>
<a xlink:href="hfa-lnx-ctx_8c.html#a78ffddbcd7cdd164889cfb53ea367886" target="_top" xlink:title="entry">
<polygon fill="white" stroke="black" points="1004.5,-276.5 1004.5,-297.5 1045.5,-297.5 1045.5,-276.5 1004.5,-276.5"/>
<text text-anchor="middle" x="1025" y="-284.5" font-family="FreeSans" font-size="10.00">entry</text>
</a>
</g>
<!-- Node7&#45;&gt;Node10 -->
<g id="edge20" class="edge"><title>Node7&#45;&gt;Node10</title>
<path fill="none" stroke="midnightblue" d="M799.538,-24.8386C804.523,-26.674 809.409,-28.722 814,-31 852.62,-50.1637 943.424,-113.577 968,-149 999.256,-194.05 975.203,-220.34 1004,-267 1006.12,-270.428 1008.96,-273.666 1011.87,-276.499"/>
<polygon fill="midnightblue" stroke="midnightblue" points="800.475,-21.4608 789.881,-21.5668 798.229,-28.0906 800.475,-21.4608"/>
</g>
<!-- Node11 -->
<g id="node22" class="node"><title>Node11</title>
<a xlink:href="hfa-lnx-ctx_8c.html#aaf98ef7cdde3a0dfb2e49919de3298b1" target="_top" xlink:title="exit">
<polygon fill="white" stroke="black" points="892.5,-158.5 892.5,-179.5 925.5,-179.5 925.5,-158.5 892.5,-158.5"/>
<text text-anchor="middle" x="909" y="-166.5" font-family="FreeSans" font-size="10.00">exit</text>
</a>
</g>
<!-- Node7&#45;&gt;Node11 -->
<g id="edge22" class="edge"><title>Node7&#45;&gt;Node11</title>
<path fill="none" stroke="midnightblue" d="M800.282,-22.7418C805.176,-25.0234 809.834,-27.7475 814,-31 839.724,-51.0844 831.769,-67.9316 850,-95 865.971,-118.713 887.488,-144.377 899.634,-158.385"/>
<polygon fill="midnightblue" stroke="midnightblue" points="801.233,-19.3523 790.649,-18.8773 798.627,-25.849 801.233,-19.3523"/>
</g>
<!-- Node8&#45;&gt;Node4 -->
<g id="edge16" class="edge"><title>Node8&#45;&gt;Node4</title>
<path fill="none" stroke="midnightblue" d="M945.65,-43.1934C993.473,-57.9945 1080.03,-81 1156,-81 1156,-81 1156,-81 1331,-81 1434.05,-81 1537.06,-168.634 1570.09,-199.443"/>
<polygon fill="midnightblue" stroke="midnightblue" points="946.64,-39.8358 936.05,-40.1708 944.537,-46.5126 946.64,-39.8358"/>
</g>
<!-- Node9 -->
<g id="node18" class="node"><title>Node9</title>
<a xlink:href="hfa-lnx-async_8c.html#aaf98ef7cdde3a0dfb2e49919de3298b1" target="_top" xlink:title="exit">
<polygon fill="white" stroke="black" points="1008.5,-20.5 1008.5,-41.5 1041.5,-41.5 1041.5,-20.5 1008.5,-20.5"/>
<text text-anchor="middle" x="1025" y="-28.5" font-family="FreeSans" font-size="10.00">exit</text>
</a>
</g>
<!-- Node8&#45;&gt;Node9 -->
<g id="edge18" class="edge"><title>Node8&#45;&gt;Node9</title>
<path fill="none" stroke="midnightblue" d="M946.372,-31C967.263,-31 992.261,-31 1008.37,-31"/>
<polygon fill="midnightblue" stroke="midnightblue" points="946.197,-27.5001 936.197,-31 946.197,-34.5001 946.197,-27.5001"/>
</g>
<!-- Node13 -->
<g id="node26" class="node"><title>Node13</title>
<a xlink:href="cvm-hfa-search_8c.html#a64ba7a41c7d677da10e588a58789015b" target="_top" xlink:title="This routine initializes a Search Context.">
<polygon fill="white" stroke="black" points="342.5,-512.5 342.5,-533.5 469.5,-533.5 469.5,-512.5 342.5,-512.5"/>
<text text-anchor="middle" x="406" y="-520.5" font-family="FreeSans" font-size="10.00">hfa_dev_searchctx_init</text>
</a>
</g>
<!-- Node12&#45;&gt;Node13 -->
<g id="edge26" class="edge"><title>Node12&#45;&gt;Node13</title>
<path fill="none" stroke="midnightblue" d="M278.658,-490.091C306.124,-497.189 339.613,-505.844 365.353,-512.496"/>
<polygon fill="midnightblue" stroke="midnightblue" points="279.394,-486.667 268.837,-487.553 277.643,-493.444 279.394,-486.667"/>
</g>
<!-- Node14 -->
<g id="node28" class="node"><title>Node14</title>
<a xlink:href="flow_8c.html#a28378e8a6f53ff0e87f2e688d1c21834" target="_top" xlink:title="Low level API to create a flow Allocate Flow, Intialize searchctx, set graph and setflags,.">
<polygon fill="white" stroke="black" points="521.5,-354.5 521.5,-375.5 628.5,-375.5 628.5,-354.5 521.5,-354.5"/>
<text text-anchor="middle" x="575" y="-362.5" font-family="FreeSans" font-size="10.00">__hfaf_create_flow</text>
</a>
</g>
<!-- Node13&#45;&gt;Node14 -->
<g id="edge28" class="edge"><title>Node13&#45;&gt;Node14</title>
<path fill="none" stroke="midnightblue" d="M425.055,-505.185C460.432,-472.111 535.25,-402.163 563.698,-375.566"/>
<polygon fill="midnightblue" stroke="midnightblue" points="422.266,-503.002 417.351,-512.388 427.046,-508.115 422.266,-503.002"/>
</g>
<!-- Node17 -->
<g id="node34" class="node"><title>Node17</title>
<a xlink:href="hfa-lnx-async_8c.html#a972f8b60ef804914c009c2ef85bac50e" target="_top" xlink:title="Process search for given payload and graph.">
<polygon fill="white" stroke="black" points="1285,-199.5 1285,-220.5 1377,-220.5 1377,-199.5 1285,-199.5"/>
<text text-anchor="middle" x="1331" y="-207.5" font-family="FreeSans" font-size="10.00">process_search</text>
</a>
</g>
<!-- Node13&#45;&gt;Node17 -->
<g id="edge34" class="edge"><title>Node13&#45;&gt;Node17</title>
<path fill="none" stroke="midnightblue" d="M436.175,-537.89C524.798,-579.32 789.299,-686.316 968,-583 1055.91,-532.176 1013.51,-459.967 1082,-385 1152.92,-307.373 1264.04,-244.686 1310.01,-220.619"/>
<polygon fill="midnightblue" stroke="midnightblue" points="437.498,-534.644 426.963,-533.522 434.499,-540.969 437.498,-534.644"/>
</g>
<!-- Node20 -->
<g id="node42" class="node"><title>Node20</title>
<a xlink:href="hfa-lnx-ctx_8c.html#a6926aada806433e15eae2c50298b4aa9" target="_top" xlink:title="createctx">
<polygon fill="white" stroke="black" points="878,-512.5 878,-533.5 940,-533.5 940,-512.5 878,-512.5"/>
<text text-anchor="middle" x="909" y="-520.5" font-family="FreeSans" font-size="10.00">createctx</text>
</a>
</g>
<!-- Node13&#45;&gt;Node20 -->
<g id="edge44" class="edge"><title>Node13&#45;&gt;Node20</title>
<path fill="none" stroke="midnightblue" d="M464.189,-535.402C481.428,-538.53 500.402,-541.441 518,-543 649.042,-554.608 683.152,-556.624 814,-543 835.458,-540.766 859.208,-535.766 877.593,-531.324"/>
<polygon fill="midnightblue" stroke="midnightblue" points="464.736,-531.944 454.263,-533.544 463.448,-538.824 464.736,-531.944"/>
</g>
<!-- Node21 -->
<g id="node45" class="node"><title>Node21</title>
<a xlink:href="hfa-lnx-linkgraph_8c.html#a6604748091c732cb29568c12d0f77b4e" target="_top" xlink:title="Initialize search ctx for each subgraph.">
<polygon fill="white" stroke="black" points="537,-629.5 537,-650.5 613,-650.5 613,-629.5 537,-629.5"/>
<text text-anchor="middle" x="575" y="-637.5" font-family="FreeSans" font-size="10.00">Initialize_Ctx</text>
</a>
</g>
<!-- Node13&#45;&gt;Node21 -->
<g id="edge48" class="edge"><title>Node13&#45;&gt;Node21</title>
<path fill="none" stroke="midnightblue" d="M424.325,-540.763C445.566,-560.68 482.249,-593.056 518,-615 526.933,-620.483 537.28,-625.4 546.687,-629.393"/>
<polygon fill="midnightblue" stroke="midnightblue" points="426.638,-538.132 416.975,-533.787 421.819,-543.209 426.638,-538.132"/>
</g>
<!-- Node22 -->
<g id="node47" class="node"><title>Node22</title>
<a xlink:href="hfa-lnx-nctx-lock_8c.html#a2c813b2ff20c5bf67f487908476604d6" target="_top" xlink:title="Initialize search context object for nctxts and a global list to track nctxts.">
<polygon fill="white" stroke="black" points="691.5,-472.5 691.5,-493.5 790.5,-493.5 790.5,-472.5 691.5,-472.5"/>
<text text-anchor="middle" x="741" y="-480.5" font-family="FreeSans" font-size="10.00">initialize_ctx_glist</text>
</a>
</g>
<!-- Node13&#45;&gt;Node22 -->
<g id="edge50" class="edge"><title>Node13&#45;&gt;Node22</title>
<path fill="none" stroke="midnightblue" d="M469.585,-510.652C485.363,-507.863 502.262,-505.107 518,-503 577.332,-495.057 645.979,-489.433 691.263,-486.212"/>
<polygon fill="midnightblue" stroke="midnightblue" points="468.625,-507.269 459.402,-512.484 469.864,-514.158 468.625,-507.269"/>
</g>
<!-- Node24 -->
<g id="node51" class="node"><title>Node24</title>
<a xlink:href="hfa-lnx_8c.html#a924d2733ebc7a856f8c3fd293193ba44" target="_top" xlink:title="Initialize search context.">
<polygon fill="white" stroke="black" points="537.5,-512.5 537.5,-533.5 612.5,-533.5 612.5,-512.5 537.5,-512.5"/>
<text text-anchor="middle" x="575" y="-520.5" font-family="FreeSans" font-size="10.00">initialize_ctx</text>
</a>
</g>
<!-- Node13&#45;&gt;Node24 -->
<g id="edge54" class="edge"><title>Node13&#45;&gt;Node24</title>
<path fill="none" stroke="midnightblue" d="M479.893,-523C499.802,-523 520.51,-523 537.5,-523"/>
<polygon fill="midnightblue" stroke="midnightblue" points="479.892,-519.5 469.892,-523 479.892,-526.5 479.892,-519.5"/>
</g>
<!-- Node15 -->
<g id="node30" class="node"><title>Node15</title>
<a xlink:href="flow_8h.html#abdb62c6f71f5ca9ecddc66c90166d37b" target="_top" xlink:title="Create Packet Flow in Flowdb.">
<polygon fill="white" stroke="black" points="685.5,-354.5 685.5,-375.5 796.5,-375.5 796.5,-354.5 685.5,-354.5"/>
<text text-anchor="middle" x="741" y="-362.5" font-family="FreeSans" font-size="10.00">hfaf_create_pktflow</text>
</a>
</g>
<!-- Node14&#45;&gt;Node15 -->
<g id="edge30" class="edge"><title>Node14&#45;&gt;Node15</title>
<path fill="none" stroke="midnightblue" d="M639.262,-365C654.48,-365 670.584,-365 685.381,-365"/>
<polygon fill="midnightblue" stroke="midnightblue" points="638.895,-361.5 628.895,-365 638.895,-368.5 638.895,-361.5"/>
</g>
<!-- Node16 -->
<g id="node32" class="node"><title>Node16</title>
<a xlink:href="hfa-se-flow-wqe_8c.html#a6d3e23d8f7a3aaf1b0d6e350b7631a0e" target="_top" xlink:title="Get flow pointer from Flow database, If flow ptr is NULL then create at runtime.">
<polygon fill="white" stroke="black" points="874.5,-354.5 874.5,-375.5 943.5,-375.5 943.5,-354.5 874.5,-354.5"/>
<text text-anchor="middle" x="909" y="-362.5" font-family="FreeSans" font-size="10.00">get_flowptr</text>
</a>
</g>
<!-- Node15&#45;&gt;Node16 -->
<g id="edge32" class="edge"><title>Node15&#45;&gt;Node16</title>
<path fill="none" stroke="midnightblue" d="M807.006,-365C830.009,-365 854.902,-365 874.337,-365"/>
<polygon fill="midnightblue" stroke="midnightblue" points="806.942,-361.5 796.942,-365 806.942,-368.5 806.942,-361.5"/>
</g>
<!-- Node18 -->
<g id="node36" class="node"><title>Node18</title>
<a xlink:href="hfa-lnx-async_8c.html#a1e97b1d598034fdc92d57054a6c386e6" target="_top" xlink:title="tasklet_callback">
<polygon fill="white" stroke="black" points="1432,-219.5 1432,-240.5 1524,-240.5 1524,-219.5 1432,-219.5"/>
<text text-anchor="middle" x="1478" y="-227.5" font-family="FreeSans" font-size="10.00">tasklet_callback</text>
</a>
</g>
<!-- Node17&#45;&gt;Node18 -->
<g id="edge36" class="edge"><title>Node17&#45;&gt;Node18</title>
<path fill="none" stroke="midnightblue" d="M1387.13,-217.637C1401.89,-219.645 1417.63,-221.787 1431.8,-223.715"/>
<polygon fill="midnightblue" stroke="midnightblue" points="1387.49,-214.153 1377.11,-216.273 1386.55,-221.09 1387.49,-214.153"/>
</g>
<!-- Node19 -->
<g id="node39" class="node"><title>Node19</title>
<a xlink:href="hfa-lnx-async_8c.html#a7dea7d59754828b1173c4c7ec5d42f3e" target="_top" xlink:title="thread_callback">
<polygon fill="white" stroke="black" points="1432,-179.5 1432,-200.5 1524,-200.5 1524,-179.5 1432,-179.5"/>
<text text-anchor="middle" x="1478" y="-187.5" font-family="FreeSans" font-size="10.00">thread_callback</text>
</a>
</g>
<!-- Node17&#45;&gt;Node19 -->
<g id="edge40" class="edge"><title>Node17&#45;&gt;Node19</title>
<path fill="none" stroke="midnightblue" d="M1387.13,-202.363C1401.89,-200.355 1417.63,-198.213 1431.8,-196.285"/>
<polygon fill="midnightblue" stroke="midnightblue" points="1386.55,-198.91 1377.11,-203.727 1387.49,-205.847 1386.55,-198.91"/>
</g>
<!-- Node18&#45;&gt;Node4 -->
<g id="edge38" class="edge"><title>Node18&#45;&gt;Node4</title>
<path fill="none" stroke="midnightblue" d="M1533.97,-219.132C1543.45,-217.292 1552.72,-215.491 1560.49,-213.982"/>
<polygon fill="midnightblue" stroke="midnightblue" points="1533.23,-215.711 1524.08,-221.053 1534.56,-222.583 1533.23,-215.711"/>
</g>
<!-- Node19&#45;&gt;Node4 -->
<g id="edge42" class="edge"><title>Node19&#45;&gt;Node4</title>
<path fill="none" stroke="midnightblue" d="M1533.97,-200.868C1543.45,-202.708 1552.72,-204.509 1560.49,-206.018"/>
<polygon fill="midnightblue" stroke="midnightblue" points="1534.56,-197.417 1524.08,-198.947 1533.23,-204.289 1534.56,-197.417"/>
</g>
<!-- Node20&#45;&gt;Node10 -->
<g id="edge46" class="edge"><title>Node20&#45;&gt;Node10</title>
<path fill="none" stroke="midnightblue" d="M949.715,-515.581C956.631,-512.672 963.137,-508.625 968,-503 1025.92,-435.996 961.871,-384.907 1004,-307 1005.82,-303.634 1008.41,-300.504 1011.15,-297.767"/>
<polygon fill="midnightblue" stroke="midnightblue" points="948.456,-512.314 940.146,-518.886 950.741,-518.93 948.456,-512.314"/>
</g>
<!-- Node23 -->
<g id="node49" class="node"><title>Node23</title>
<a xlink:href="hfa-lnx-nctx-lock_8c.html#a78ffddbcd7cdd164889cfb53ea367886" target="_top" xlink:title="entry">
<polygon fill="white" stroke="black" points="888.5,-472.5 888.5,-493.5 929.5,-493.5 929.5,-472.5 888.5,-472.5"/>
<text text-anchor="middle" x="909" y="-480.5" font-family="FreeSans" font-size="10.00">entry</text>
</a>
</g>
<!-- Node22&#45;&gt;Node23 -->
<g id="edge52" class="edge"><title>Node22&#45;&gt;Node23</title>
<path fill="none" stroke="midnightblue" d="M801.08,-483C831.543,-483 866.584,-483 888.263,-483"/>
<polygon fill="midnightblue" stroke="midnightblue" points="800.951,-479.5 790.951,-483 800.951,-486.5 800.951,-479.5"/>
</g>
<!-- Node25 -->
<g id="node53" class="node"><title>Node25</title>
<a xlink:href="hfa-lnx_8c.html#a78ffddbcd7cdd164889cfb53ea367886" target="_top" xlink:title="entry">
<polygon fill="white" stroke="black" points="720.5,-512.5 720.5,-533.5 761.5,-533.5 761.5,-512.5 720.5,-512.5"/>
<text text-anchor="middle" x="741" y="-520.5" font-family="FreeSans" font-size="10.00">entry</text>
</a>
</g>
<!-- Node24&#45;&gt;Node25 -->
<g id="edge56" class="edge"><title>Node24&#45;&gt;Node25</title>
<path fill="none" stroke="midnightblue" d="M622.79,-523C655.005,-523 695.907,-523 720.181,-523"/>
<polygon fill="midnightblue" stroke="midnightblue" points="622.668,-519.5 612.668,-523 622.668,-526.5 622.668,-519.5"/>
</g>
<!-- Node26 -->
<g id="node55" class="node"><title>Node26</title>
<a xlink:href="cvm-hfa-pp_8c.html#adcc1149c628372e2e566c246870929cb" target="_top" xlink:title="infoentry">
<polygon fill="white" stroke="black" points="879.5,-552.5 879.5,-573.5 938.5,-573.5 938.5,-552.5 879.5,-552.5"/>
<text text-anchor="middle" x="909" y="-560.5" font-family="FreeSans" font-size="10.00">infoentry</text>
</a>
</g>
<!-- Node25&#45;&gt;Node26 -->
<g id="edge58" class="edge"><title>Node25&#45;&gt;Node26</title>
<path fill="none" stroke="midnightblue" d="M771.723,-530.315C802.397,-537.618 849.21,-548.764 879.46,-555.967"/>
<polygon fill="midnightblue" stroke="midnightblue" points="772.139,-526.816 761.6,-527.905 770.517,-533.626 772.139,-526.816"/>
</g>
<!-- Node27 -->
<g id="node57" class="node"><title>Node27</title>
<a xlink:href="ppdfa_8h.html#a81b3389c2c25a4ba308f71501f980e38" target="_top" xlink:title="pp">
<polygon fill="white" stroke="black" points="1010.5,-316.5 1010.5,-337.5 1039.5,-337.5 1039.5,-316.5 1010.5,-316.5"/>
<text text-anchor="middle" x="1025" y="-324.5" font-family="FreeSans" font-size="10.00">pp</text>
</a>
</g>
<!-- Node26&#45;&gt;Node27 -->
<g id="edge60" class="edge"><title>Node26&#45;&gt;Node27</title>
<path fill="none" stroke="midnightblue" d="M948.155,-556.189C955.641,-553.244 962.764,-549.029 968,-543 1024.64,-477.78 967.012,-430.064 1004,-352 1006.43,-346.878 1010.16,-341.942 1013.81,-337.83"/>
<polygon fill="midnightblue" stroke="midnightblue" points="947.03,-552.875 938.593,-559.283 949.185,-559.535 947.03,-552.875"/>
</g>
<!-- Node28 -->
<g id="node59" class="node"><title>Node28</title>
<a xlink:href="cvm-hfa-search_8c.html#a6dbb15dc58155b2c94b19784ad42ef89" target="_top" xlink:title="This routine post&#45;processes the search results from the HFA engine and reports the pattern matches fo...">
<polygon fill="white" stroke="red" points="1082.5,-159.5 1082.5,-180.5 1229.5,-180.5 1229.5,-159.5 1082.5,-159.5"/>
<text text-anchor="middle" x="1156" y="-167.5" font-family="FreeSans" font-size="10.00">hfa_searchctx_getmatches</text>
</a>
</g>
<!-- Node27&#45;&gt;Node28 -->
<g id="edge62" class="edge"><title>Node27&#45;&gt;Node28</title>
<path fill="none" stroke="midnightblue" d="M1044.07,-309.055C1044.73,-308.368 1045.37,-307.681 1046,-307 1087.07,-262.304 1130.76,-204.312 1148.18,-180.704"/>
<polygon fill="midnightblue" stroke="midnightblue" points="1041.45,-306.73 1036.83,-316.264 1046.38,-311.693 1041.45,-306.73"/>
</g>
<!-- Node28&#45;&gt;Node5 -->
<g id="edge70" class="edge"><title>Node28&#45;&gt;Node5</title>
<path fill="none" stroke="midnightblue" d="M1170.04,-188.853C1205.16,-236.019 1295.97,-357.953 1323.18,-394.498"/>
<polygon fill="midnightblue" stroke="midnightblue" points="1172.75,-186.638 1163.97,-180.708 1167.14,-190.819 1172.75,-186.638"/>
</g>
<!-- Node28&#45;&gt;Node17 -->
<g id="edge66" class="edge"><title>Node28&#45;&gt;Node17</title>
<path fill="none" stroke="midnightblue" d="M1211.85,-182.766C1235.45,-188.161 1262.61,-194.367 1285.02,-199.491"/>
<polygon fill="midnightblue" stroke="midnightblue" points="1212.51,-179.326 1201.98,-180.51 1210.95,-186.15 1212.51,-179.326"/>
</g>
<!-- Node29 -->
<g id="node61" class="node"><title>Node29</title>
<a xlink:href="flow_8c.html#a2976ab60901b133a56214323fb901663" target="_top" xlink:title="Low level API to poll a flow.">
<polygon fill="white" stroke="red" points="1266.5,-159.5 1266.5,-180.5 1395.5,-180.5 1395.5,-159.5 1266.5,-159.5"/>
<text text-anchor="middle" x="1331" y="-167.5" font-family="FreeSans" font-size="10.00">__hfaf_process_pktflow</text>
</a>
</g>
<!-- Node28&#45;&gt;Node29 -->
<g id="edge64" class="edge"><title>Node28&#45;&gt;Node29</title>
<path fill="none" stroke="midnightblue" d="M1239.73,-170C1248.65,-170 1257.61,-170 1266.26,-170"/>
<polygon fill="midnightblue" stroke="midnightblue" points="1239.71,-166.5 1229.71,-170 1239.71,-173.5 1239.71,-166.5"/>
</g>
<!-- Node30 -->
<g id="node64" class="node"><title>Node30</title>
<a xlink:href="hfa-lnx-linkgraph_8c.html#a78ffddbcd7cdd164889cfb53ea367886" target="_top" xlink:title="entry">
<polygon fill="white" stroke="black" points="1310.5,-119.5 1310.5,-140.5 1351.5,-140.5 1351.5,-119.5 1310.5,-119.5"/>
<text text-anchor="middle" x="1331" y="-127.5" font-family="FreeSans" font-size="10.00">entry</text>
</a>
</g>
<!-- Node28&#45;&gt;Node30 -->
<g id="edge68" class="edge"><title>Node28&#45;&gt;Node30</title>
<path fill="none" stroke="midnightblue" d="M1212.11,-157.174C1245.58,-149.525 1286.11,-140.261 1310.16,-134.764"/>
<polygon fill="midnightblue" stroke="midnightblue" points="1210.95,-153.85 1201.98,-159.49 1212.51,-160.674 1210.95,-153.85"/>
</g>
<!-- Node32 -->
<g id="node69" class="node"><title>Node32</title>
<a xlink:href="cvm-hfa-search_8c.html#a30064f173d814bd3791b59d675c2f45f" target="_top" xlink:title="This routine cleans&#45;up a Search Context.">
<polygon fill="white" stroke="black" points="330,-276.5 330,-297.5 482,-297.5 482,-276.5 330,-276.5"/>
<text text-anchor="middle" x="406" y="-284.5" font-family="FreeSans" font-size="10.00">hfa_dev_searchctx_cleanup</text>
</a>
</g>
<!-- Node31&#45;&gt;Node32 -->
<g id="edge74" class="edge"><title>Node31&#45;&gt;Node32</title>
<path fill="none" stroke="midnightblue" d="M294.707,-317.012C319.03,-310.453 345.728,-303.253 366.876,-297.55"/>
<polygon fill="midnightblue" stroke="midnightblue" points="293.554,-313.698 284.81,-319.681 295.376,-320.456 293.554,-313.698"/>
</g>
<!-- Node32&#45;&gt;Node14 -->
<g id="edge76" class="edge"><title>Node32&#45;&gt;Node14</title>
<path fill="none" stroke="midnightblue" d="M438.086,-301.809C471.37,-317.171 522.584,-340.808 552.029,-354.398"/>
<polygon fill="midnightblue" stroke="midnightblue" points="439.338,-298.532 428.792,-297.519 436.405,-304.888 439.338,-298.532"/>
</g>
<!-- Node32&#45;&gt;Node17 -->
<g id="edge90" class="edge"><title>Node32&#45;&gt;Node17</title>
<path fill="none" stroke="midnightblue" d="M424.463,-269.384C445.367,-250.567 481.314,-221.5 518,-207 580.548,-182.278 600.891,-191.454 668,-187 732.746,-182.703 749.136,-185.2 814,-187 830.019,-187.445 833.995,-188.206 850,-189 1009.66,-196.92 1199.22,-204.727 1284.89,-208.169"/>
<polygon fill="midnightblue" stroke="midnightblue" points="421.958,-266.932 416.967,-276.277 426.697,-272.085 421.958,-266.932"/>
</g>
<!-- Node32&#45;&gt;Node24 -->
<g id="edge126" class="edge"><title>Node32&#45;&gt;Node24</title>
<path fill="none" stroke="midnightblue" d="M416.787,-306.57C435.547,-339.955 476.192,-409.491 518,-463 532.33,-481.341 551.35,-500.497 563.385,-512.091"/>
<polygon fill="midnightblue" stroke="midnightblue" points="419.819,-304.82 411.892,-297.791 413.705,-308.229 419.819,-304.82"/>
</g>
<!-- Node33 -->
<g id="node72" class="node"><title>Node33</title>
<a xlink:href="flow_8c.html#a696ee2b7ad7078c47242360be84d89bf" target="_top" xlink:title="Counterpart of __hfaf_create_flow.">
<polygon fill="white" stroke="black" points="518.5,-256.5 518.5,-277.5 631.5,-277.5 631.5,-256.5 518.5,-256.5"/>
<text text-anchor="middle" x="575" y="-264.5" font-family="FreeSans" font-size="10.00">__hfaf_destroy_flow</text>
</a>
</g>
<!-- Node32&#45;&gt;Node33 -->
<g id="edge78" class="edge"><title>Node32&#45;&gt;Node33</title>
<path fill="none" stroke="midnightblue" d="M492.117,-276.809C501.003,-275.757 509.865,-274.708 518.31,-273.709"/>
<polygon fill="midnightblue" stroke="midnightblue" points="491.615,-273.344 482.095,-277.995 492.437,-280.295 491.615,-273.344"/>
</g>
<!-- Node38 -->
<g id="node84" class="node"><title>Node38</title>
<a xlink:href="hfa-lnx-ctx_8c.html#a630ea21ffa0ae1e09e74fc5add8c2715" target="_top" xlink:title="destroyctx">
<polygon fill="white" stroke="black" points="541.5,-296.5 541.5,-317.5 608.5,-317.5 608.5,-296.5 541.5,-296.5"/>
<text text-anchor="middle" x="575" y="-304.5" font-family="FreeSans" font-size="10.00">destroyctx</text>
</a>
</g>
<!-- Node32&#45;&gt;Node38 -->
<g id="edge92" class="edge"><title>Node32&#45;&gt;Node38</title>
<path fill="none" stroke="midnightblue" d="M492.305,-297.214C509.662,-299.268 526.917,-301.31 541.14,-302.993"/>
<polygon fill="midnightblue" stroke="midnightblue" points="492.437,-293.705 482.095,-296.005 491.615,-300.656 492.437,-293.705"/>
</g>
<!-- Node41 -->
<g id="node93" class="node"><title>Node41</title>
<a xlink:href="hfa-lnx-linkgraph_8c.html#acd9e54f020b77f14d54c200b65423a15" target="_top" xlink:title="Cleanup will be done by this routine.">
<polygon fill="white" stroke="black" points="548,-80.5 548,-101.5 602,-101.5 602,-80.5 548,-80.5"/>
<text text-anchor="middle" x="575" y="-88.5" font-family="FreeSans" font-size="10.00">cleanup</text>
</a>
</g>
<!-- Node32&#45;&gt;Node41 -->
<g id="edge104" class="edge"><title>Node32&#45;&gt;Node41</title>
<path fill="none" stroke="midnightblue" d="M413.694,-266.594C428.427,-230.182 464.032,-153.824 518,-111 526.626,-104.155 537.765,-99.5609 547.904,-96.5222"/>
<polygon fill="midnightblue" stroke="midnightblue" points="410.343,-265.552 409.943,-276.139 416.858,-268.112 410.343,-265.552"/>
</g>
<!-- Node43 -->
<g id="node98" class="node"><title>Node43</title>
<a xlink:href="hfa-lnx-nctx-lock_8c.html#a524accbd3a8024ee7cc3254698dbd8e3" target="_top" xlink:title="Parse through global linked list and cleanup each search node.">
<polygon fill="white" stroke="black" points="530.5,-432.5 530.5,-453.5 619.5,-453.5 619.5,-432.5 530.5,-432.5"/>
<text text-anchor="middle" x="575" y="-440.5" font-family="FreeSans" font-size="10.00">snode_cleanup</text>
</a>
</g>
<!-- Node32&#45;&gt;Node43 -->
<g id="edge110" class="edge"><title>Node32&#45;&gt;Node43</title>
<path fill="none" stroke="midnightblue" d="M418.135,-306.024C436.702,-333.842 474.606,-385.801 518,-418 525.81,-423.795 535.174,-428.606 544.033,-432.407"/>
<polygon fill="midnightblue" stroke="midnightblue" points="421.009,-304.024 412.6,-297.579 415.154,-307.861 421.009,-304.024"/>
</g>
<!-- Node46 -->
<g id="node106" class="node"><title>Node46</title>
<a xlink:href="hfa-lnx-wqe-lock_8c.html#aca3baf1f311592e3e33788fee866710a" target="_top" xlink:title="Cleanup memory allocated for context.">
<polygon fill="white" stroke="black" points="531.5,-120.5 531.5,-141.5 618.5,-141.5 618.5,-120.5 531.5,-120.5"/>
<text text-anchor="middle" x="575" y="-128.5" font-family="FreeSans" font-size="10.00">ctxdb_cleanup</text>
</a>
</g>
<!-- Node32&#45;&gt;Node46 -->
<g id="edge120" class="edge"><title>Node32&#45;&gt;Node46</title>
<path fill="none" stroke="midnightblue" d="M418.135,-267.976C436.702,-240.158 474.606,-188.199 518,-156 525.81,-150.205 535.174,-145.394 544.033,-141.593"/>
<polygon fill="midnightblue" stroke="midnightblue" points="415.154,-266.139 412.6,-276.421 421.009,-269.976 415.154,-266.139"/>
</g>
<!-- Node47 -->
<g id="node108" class="node"><title>Node47</title>
<a xlink:href="hfa-lnx-wqe_8c.html#a2b521122b98391a14bf2df50b7155bb1" target="_top" xlink:title="Cleanup memory allocated for context.">
<polygon fill="white" stroke="black" points="537.5,-40.5 537.5,-61.5 612.5,-61.5 612.5,-40.5 537.5,-40.5"/>
<text text-anchor="middle" x="575" y="-48.5" font-family="FreeSans" font-size="10.00">cleanup_ctx</text>
</a>
</g>
<!-- Node32&#45;&gt;Node47 -->
<g id="edge122" class="edge"><title>Node32&#45;&gt;Node47</title>
<path fill="none" stroke="midnightblue" d="M416.082,-267.324C443.223,-214.39 515.926,-72.8008 518,-71 523.543,-66.1873 530.317,-62.5112 537.234,-59.7099"/>
<polygon fill="midnightblue" stroke="midnightblue" points="412.881,-265.897 411.434,-276.393 419.11,-269.091 412.881,-265.897"/>
</g>
<!-- Node49 -->
<g id="node113" class="node"><title>Node49</title>
<a xlink:href="hfa-se-async_8c.html#a1b239994494fe75dc3fd1287ea790f77" target="_top" xlink:title="Cleanup per core parameters.">
<polygon fill="white" stroke="black" points="1115.5,-394.5 1115.5,-415.5 1196.5,-415.5 1196.5,-394.5 1115.5,-394.5"/>
<text text-anchor="middle" x="1156" y="-402.5" font-family="FreeSans" font-size="10.00">core_cleanup</text>
</a>
</g>
<!-- Node32&#45;&gt;Node49 -->
<g id="edge128" class="edge"><title>Node32&#45;&gt;Node49</title>
<path fill="none" stroke="midnightblue" d="M420.487,-305.441C439.892,-328.607 476.704,-367.447 518,-385 609.544,-423.911 641.53,-404 741,-404 741,-404 741,-404 909,-404 981.685,-404 1066.4,-404.438 1115.35,-404.735"/>
<polygon fill="midnightblue" stroke="midnightblue" points="423.186,-303.213 414.149,-297.684 417.766,-307.642 423.186,-303.213"/>
</g>
<!-- Node50 -->
<g id="node116" class="node"><title>Node50</title>
<a xlink:href="hfa-se-ngraphs_8c.html#a3c04138a5bfe5d72780bb7e82a18e627" target="_top" xlink:title="main">
<polygon fill="white" stroke="black" points="555,-216.5 555,-237.5 595,-237.5 595,-216.5 555,-216.5"/>
<text text-anchor="middle" x="575" y="-224.5" font-family="FreeSans" font-size="10.00">main</text>
</a>
</g>
<!-- Node32&#45;&gt;Node50 -->
<g id="edge132" class="edge"><title>Node32&#45;&gt;Node50</title>
<path fill="none" stroke="midnightblue" d="M444.92,-273.04C466.452,-265.332 493.695,-255.604 518,-247 530.259,-242.66 544.015,-237.832 554.942,-234.007"/>
<polygon fill="midnightblue" stroke="midnightblue" points="443.695,-269.761 435.461,-276.428 446.055,-276.351 443.695,-269.761"/>
</g>
<!-- Node33&#45;&gt;Node15 -->
<g id="edge86" class="edge"><title>Node33&#45;&gt;Node15</title>
<path fill="none" stroke="midnightblue" d="M619.471,-281.205C623.777,-282.995 628.019,-284.931 632,-287 669.785,-306.637 709.249,-338.057 728.683,-354.38"/>
<polygon fill="midnightblue" stroke="midnightblue" points="620.612,-277.894 610.024,-277.526 618.072,-284.416 620.612,-277.894"/>
</g>
<!-- Node34 -->
<g id="node74" class="node"><title>Node34</title>
<a xlink:href="flow_8c.html#a93974ea83df979435eb77f3c5d4ab848" target="_top" xlink:title="Cleanup Flowdb Node (Per Index)">
<polygon fill="white" stroke="black" points="668,-196.5 668,-217.5 814,-217.5 814,-196.5 668,-196.5"/>
<text text-anchor="middle" x="741" y="-204.5" font-family="FreeSans" font-size="10.00">hfaf_flowdb_node_cleanup</text>
</a>
</g>
<!-- Node33&#45;&gt;Node34 -->
<g id="edge80" class="edge"><title>Node33&#45;&gt;Node34</title>
<path fill="none" stroke="midnightblue" d="M617.98,-252.803C622.757,-250.965 627.513,-249.016 632,-247 648.696,-239.499 651.052,-233.912 668,-227 676.761,-223.427 686.368,-220.282 695.652,-217.606"/>
<polygon fill="midnightblue" stroke="midnightblue" points="616.394,-249.658 608.228,-256.408 618.821,-256.224 616.394,-249.658"/>
</g>
<!-- Node37 -->
<g id="node81" class="node"><title>Node37</title>
<a xlink:href="flow_8h.html#a8d99fe33dc3203530d360196cc7decb4" target="_top" xlink:title="Counterpart of hfaf_create_pktflow().">
<polygon fill="white" stroke="black" points="683,-236.5 683,-257.5 799,-257.5 799,-236.5 683,-236.5"/>
<text text-anchor="middle" x="741" y="-244.5" font-family="FreeSans" font-size="10.00">hfaf_destroy_pktflow</text>
</a>
</g>
<!-- Node33&#45;&gt;Node37 -->
<g id="edge88" class="edge"><title>Node33&#45;&gt;Node37</title>
<path fill="none" stroke="midnightblue" d="M641.904,-258.939C655.481,-257.304 669.655,-255.596 682.898,-254"/>
<polygon fill="midnightblue" stroke="midnightblue" points="641.173,-255.502 631.663,-260.173 642.01,-262.452 641.173,-255.502"/>
</g>
<!-- Node35 -->
<g id="node76" class="node"><title>Node35</title>
<a xlink:href="flow_8h.html#a2a51025bf645e4e1eec8cac2b4f8a8c0" target="_top" xlink:title="Cleanups Flow database which was created in hfaf_flowdb_init()">
<polygon fill="white" stroke="black" points="850.5,-236.5 850.5,-257.5 967.5,-257.5 967.5,-236.5 850.5,-236.5"/>
<text text-anchor="middle" x="909" y="-244.5" font-family="FreeSans" font-size="10.00">hfaf_flowdb_cleanup</text>
</a>
</g>
<!-- Node34&#45;&gt;Node35 -->
<g id="edge82" class="edge"><title>Node34&#45;&gt;Node35</title>
<path fill="none" stroke="midnightblue" d="M794.922,-219.839C817.509,-225.216 843.438,-231.39 864.863,-236.491"/>
<polygon fill="midnightblue" stroke="midnightblue" points="795.679,-216.421 785.14,-217.51 794.057,-223.231 795.679,-216.421"/>
</g>
<!-- Node36 -->
<g id="node78" class="node"><title>Node36</title>
<a xlink:href="hfa-se-flow-wqe_8c.html#a3c04138a5bfe5d72780bb7e82a18e627" target="_top" xlink:title="Implementation.">
<polygon fill="white" stroke="black" points="1005,-236.5 1005,-257.5 1045,-257.5 1045,-236.5 1005,-236.5"/>
<text text-anchor="middle" x="1025" y="-244.5" font-family="FreeSans" font-size="10.00">main</text>
</a>
</g>
<!-- Node35&#45;&gt;Node36 -->
<g id="edge84" class="edge"><title>Node35&#45;&gt;Node36</title>
<path fill="none" stroke="midnightblue" d="M977.966,-247C987.733,-247 997.07,-247 1004.81,-247"/>
<polygon fill="midnightblue" stroke="midnightblue" points="977.68,-243.5 967.68,-247 977.68,-250.5 977.68,-243.5"/>
</g>
<!-- Node38&#45;&gt;Node10 -->
<g id="edge94" class="edge"><title>Node38&#45;&gt;Node10</title>
<path fill="none" stroke="midnightblue" d="M618.906,-311.769C691.963,-318.644 842.83,-328.322 968,-307 980.406,-304.887 993.706,-300.36 1004.34,-296.147"/>
<polygon fill="midnightblue" stroke="midnightblue" points="618.995,-308.262 608.704,-310.779 618.319,-315.229 618.995,-308.262"/>
</g>
<!-- Node39 -->
<g id="node87" class="node"><title>Node39</title>
<a xlink:href="hfa-lnx-ctx_8c.html#a3c1f07835ef5be8d3adfbaf09af5ca28" target="_top" xlink:title="core_exit">
<polygon fill="white" stroke="black" points="711,-276.5 711,-297.5 771,-297.5 771,-276.5 711,-276.5"/>
<text text-anchor="middle" x="741" y="-284.5" font-family="FreeSans" font-size="10.00">core_exit</text>
</a>
</g>
<!-- Node38&#45;&gt;Node39 -->
<g id="edge96" class="edge"><title>Node38&#45;&gt;Node39</title>
<path fill="none" stroke="midnightblue" d="M618.863,-301.715C647.854,-298.222 685.106,-293.734 710.806,-290.638"/>
<polygon fill="midnightblue" stroke="midnightblue" points="618.102,-298.282 608.593,-302.953 618.939,-305.231 618.102,-298.282"/>
</g>
<!-- Node39&#45;&gt;Node11 -->
<g id="edge102" class="edge"><title>Node39&#45;&gt;Node11</title>
<path fill="none" stroke="midnightblue" d="M781.319,-280.313C792.444,-277.336 804.153,-273.074 814,-267 834.357,-254.444 833.464,-244.281 850,-227 866.087,-210.188 885.441,-191.427 897.485,-179.917"/>
<polygon fill="midnightblue" stroke="midnightblue" points="780.247,-276.971 771.336,-282.702 781.876,-283.779 780.247,-276.971"/>
</g>
<!-- Node40 -->
<g id="node89" class="node"><title>Node40</title>
<a xlink:href="hfa-lnx-ctx_8c.html#a4c3443f524b4c0d95639694f0b74e850" target="_top" xlink:title="Process command line options, Read graph and payload.">
<polygon fill="white" stroke="black" points="862,-276.5 862,-297.5 956,-297.5 956,-276.5 862,-276.5"/>
<text text-anchor="middle" x="909" y="-284.5" font-family="FreeSans" font-size="10.00">process_options</text>
</a>
</g>
<!-- Node39&#45;&gt;Node40 -->
<g id="edge98" class="edge"><title>Node39&#45;&gt;Node40</title>
<path fill="none" stroke="midnightblue" d="M781.301,-287C805.506,-287 836.422,-287 861.771,-287"/>
<polygon fill="midnightblue" stroke="midnightblue" points="781.035,-283.5 771.035,-287 781.035,-290.5 781.035,-283.5"/>
</g>
<!-- Node40&#45;&gt;Node10 -->
<g id="edge100" class="edge"><title>Node40&#45;&gt;Node10</title>
<path fill="none" stroke="midnightblue" d="M966.531,-287C980.139,-287 993.782,-287 1004.46,-287"/>
<polygon fill="midnightblue" stroke="midnightblue" points="966.182,-283.5 956.182,-287 966.182,-290.5 966.182,-283.5"/>
</g>
<!-- Node41&#45;&gt;Node30 -->
<g id="edge106" class="edge"><title>Node41&#45;&gt;Node30</title>
<path fill="none" stroke="midnightblue" d="M612.148,-100.175C629.088,-104.052 649.461,-108.288 668,-111 774.312,-126.552 801.557,-130 909,-130 909,-130 909,-130 1025,-130 1132.31,-130 1260.79,-130 1310.22,-130"/>
<polygon fill="midnightblue" stroke="midnightblue" points="612.626,-96.6921 602.091,-97.8242 611.032,-103.508 612.626,-96.6921"/>
</g>
<!-- Node42 -->
<g id="node96" class="node"><title>Node42</title>
<a xlink:href="hfa-lnx-linkgraph_8c.html#aaf98ef7cdde3a0dfb2e49919de3298b1" target="_top" xlink:title="exit">
<polygon fill="white" stroke="black" points="724.5,-80.5 724.5,-101.5 757.5,-101.5 757.5,-80.5 724.5,-80.5"/>
<text text-anchor="middle" x="741" y="-88.5" font-family="FreeSans" font-size="10.00">exit</text>
</a>
</g>
<!-- Node41&#45;&gt;Node42 -->
<g id="edge108" class="edge"><title>Node41&#45;&gt;Node42</title>
<path fill="none" stroke="midnightblue" d="M612.349,-91C647.336,-91 698.031,-91 724.107,-91"/>
<polygon fill="midnightblue" stroke="midnightblue" points="612.04,-87.5001 602.04,-91 612.04,-94.5001 612.04,-87.5001"/>
</g>
<!-- Node43&#45;&gt;Node22 -->
<g id="edge118" class="edge"><title>Node43&#45;&gt;Node22</title>
<path fill="none" stroke="midnightblue" d="M628.581,-455.911C650.828,-461.272 676.314,-467.413 697.389,-472.491"/>
<polygon fill="midnightblue" stroke="midnightblue" points="629.156,-452.45 618.615,-453.51 627.516,-459.255 629.156,-452.45"/>
</g>
<!-- Node44 -->
<g id="node100" class="node"><title>Node44</title>
<a xlink:href="hfa-lnx-nctx-lock_8c.html#acd9e54f020b77f14d54c200b65423a15" target="_top" xlink:title="Application cleanup will be done by this routine.">
<polygon fill="white" stroke="black" points="714,-432.5 714,-453.5 768,-453.5 768,-432.5 714,-432.5"/>
<text text-anchor="middle" x="741" y="-440.5" font-family="FreeSans" font-size="10.00">cleanup</text>
</a>
</g>
<!-- Node43&#45;&gt;Node44 -->
<g id="edge112" class="edge"><title>Node43&#45;&gt;Node44</title>
<path fill="none" stroke="midnightblue" d="M630.027,-443C658.126,-443 691.069,-443 713.722,-443"/>
<polygon fill="midnightblue" stroke="midnightblue" points="629.922,-439.5 619.922,-443 629.922,-446.5 629.922,-439.5"/>
</g>
<!-- Node44&#45;&gt;Node23 -->
<g id="edge114" class="edge"><title>Node44&#45;&gt;Node23</title>
<path fill="none" stroke="midnightblue" d="M778.333,-451.889C812.099,-459.928 860.604,-471.477 888.025,-478.006"/>
<polygon fill="midnightblue" stroke="midnightblue" points="778.905,-448.427 768.366,-449.516 777.283,-455.237 778.905,-448.427"/>
</g>
<!-- Node45 -->
<g id="node103" class="node"><title>Node45</title>
<a xlink:href="hfa-lnx-nctx-lock_8c.html#aaf98ef7cdde3a0dfb2e49919de3298b1" target="_top" xlink:title="exit">
<polygon fill="white" stroke="black" points="892.5,-432.5 892.5,-453.5 925.5,-453.5 925.5,-432.5 892.5,-432.5"/>
<text text-anchor="middle" x="909" y="-440.5" font-family="FreeSans" font-size="10.00">exit</text>
</a>
</g>
<!-- Node44&#45;&gt;Node45 -->
<g id="edge116" class="edge"><title>Node44&#45;&gt;Node45</title>
<path fill="none" stroke="midnightblue" d="M778.398,-443C814.026,-443 866.017,-443 892.365,-443"/>
<polygon fill="midnightblue" stroke="midnightblue" points="778.366,-439.5 768.366,-443 778.366,-446.5 778.366,-439.5"/>
</g>
<!-- Node48 -->
<g id="node110" class="node"><title>Node48</title>
<a xlink:href="hfa-lnx-wqe_8c.html#a972f8b60ef804914c009c2ef85bac50e" target="_top" xlink:title="process_search">
<polygon fill="white" stroke="black" points="695,-40.5 695,-61.5 787,-61.5 787,-40.5 695,-40.5"/>
<text text-anchor="middle" x="741" y="-48.5" font-family="FreeSans" font-size="10.00">process_search</text>
</a>
</g>
<!-- Node47&#45;&gt;Node48 -->
<g id="edge124" class="edge"><title>Node47&#45;&gt;Node48</title>
<path fill="none" stroke="midnightblue" d="M622.754,-51C645.435,-51 672.43,-51 694.896,-51"/>
<polygon fill="midnightblue" stroke="midnightblue" points="622.668,-47.5001 612.668,-51 622.668,-54.5001 622.668,-47.5001"/>
</g>
<!-- Node49&#45;&gt;Node5 -->
<g id="edge130" class="edge"><title>Node49&#45;&gt;Node5</title>
<path fill="none" stroke="midnightblue" d="M1207,-405C1241.61,-405 1285.51,-405 1310.71,-405"/>
<polygon fill="midnightblue" stroke="midnightblue" points="1206.59,-401.5 1196.59,-405 1206.59,-408.5 1206.59,-401.5"/>
</g>
</g>
</svg>
