<?xml version="1.0" encoding="UTF-8" standalone="no"?>
<!DOCTYPE svg PUBLIC "-//W3C//DTD SVG 1.1//EN"
 "http://www.w3.org/Graphics/SVG/1.1/DTD/svg11.dtd">
<!-- Generated by graphviz version 2.24.0 (20090616.2323)
 -->
<!-- Title: hfa_dev_init Pages: 1 -->
<svg width="160pt" height="70pt"
 viewBox="0.00 0.00 160.00 70.00" xmlns="http://www.w3.org/2000/svg" xmlns:xlink="http://www.w3.org/1999/xlink">
<g id="graph1" class="graph" transform="scale(1 1) rotate(0) translate(4 66)">
<title>hfa_dev_init</title>
<polygon fill="white" stroke="white" points="-4,5 -4,-66 157,-66 157,5 -4,5"/>
<!-- Node1 -->
<g id="node1" class="node"><title>Node1</title>
<polygon fill="#bfbfbf" stroke="black" points="0,-20.5 0,-41.5 74,-41.5 74,-20.5 0,-20.5"/>
<text text-anchor="middle" x="37" y="-28.5" font-family="FreeSans" font-size="10.00">hfa_dev_init</text>
</g>
<!-- Node2 -->
<g id="node3" class="node"><title>Node2</title>
<a xlink:href="hfa-lnx-async_8c.html#a78ffddbcd7cdd164889cfb53ea367886" target="_top" xlink:title="entry">
<polygon fill="white" stroke="black" points="110.5,-40.5 110.5,-61.5 151.5,-61.5 151.5,-40.5 110.5,-40.5"/>
<text text-anchor="middle" x="131" y="-48.5" font-family="FreeSans" font-size="10.00">entry</text>
</a>
</g>
<!-- Node1&#45;&gt;Node2 -->
<g id="edge2" class="edge"><title>Node1&#45;&gt;Node2</title>
<path fill="none" stroke="midnightblue" d="M84.0984,-41.0209C93.3256,-42.9842 102.548,-44.9463 110.342,-46.6047"/>
<polygon fill="midnightblue" stroke="midnightblue" points="84.6608,-37.5623 74.1513,-38.9045 83.2039,-44.4091 84.6608,-37.5623"/>
</g>
<!-- Node3 -->
<g id="node5" class="node"><title>Node3</title>
<a xlink:href="hfa-se-async_8c.html#a3c04138a5bfe5d72780bb7e82a18e627" target="_top" xlink:title="main">
<polygon fill="white" stroke="black" points="111,-0.5 111,-21.5 151,-21.5 151,-0.5 111,-0.5"/>
<text text-anchor="middle" x="131" y="-8.5" font-family="FreeSans" font-size="10.00">main</text>
</a>
</g>
<!-- Node1&#45;&gt;Node3 -->
<g id="edge4" class="edge"><title>Node1&#45;&gt;Node3</title>
<path fill="none" stroke="midnightblue" d="M83.9659,-21.0073C93.4467,-18.9901 102.929,-16.9725 110.871,-15.2828"/>
<polygon fill="midnightblue" stroke="midnightblue" points="83.2039,-17.5909 74.1513,-23.0955 84.6608,-24.4377 83.2039,-17.5909"/>
</g>
</g>
</svg>
