<?xml version="1.0" encoding="UTF-8" standalone="no"?>
<!DOCTYPE svg PUBLIC "-//W3C//DTD SVG 1.1//EN"
 "http://www.w3.org/Graphics/SVG/1.1/DTD/svg11.dtd">
<!-- Generated by graphviz version 2.24.0 (20090616.2323)
 -->
<!-- Title: hfa_searchparam_set_matchcb Pages: 1 -->
<svg width="350pt" height="110pt"
 viewBox="0.00 0.00 350.00 110.00" xmlns="http://www.w3.org/2000/svg" xmlns:xlink="http://www.w3.org/1999/xlink">
<g id="graph1" class="graph" transform="scale(1 1) rotate(0) translate(4 106)">
<title>hfa_searchparam_set_matchcb</title>
<polygon fill="white" stroke="white" points="-4,5 -4,-106 347,-106 347,5 -4,5"/>
<!-- Node1 -->
<g id="node1" class="node"><title>Node1</title>
<polygon fill="#bfbfbf" stroke="black" points="0.5,-34 0.5,-68 121.5,-68 121.5,-34 0.5,-34"/>
<text text-anchor="start" x="8.5" y="-55" font-family="FreeSans" font-size="10.00">hfa_searchparam_set</text>
<text text-anchor="middle" x="61" y="-42" font-family="FreeSans" font-size="10.00">_matchcb</text>
</g>
<!-- Node2 -->
<g id="node3" class="node"><title>Node2</title>
<a xlink:href="hfa-lnx-ctx_8c.html#a1bf8357c95e9c9afcbc15f7f45d349a8" target="_top" xlink:title="get_sparam">
<polygon fill="white" stroke="black" points="158.5,-80.5 158.5,-101.5 231.5,-101.5 231.5,-80.5 158.5,-80.5"/>
<text text-anchor="middle" x="195" y="-88.5" font-family="FreeSans" font-size="10.00">get_sparam</text>
</a>
</g>
<!-- Node1&#45;&gt;Node2 -->
<g id="edge2" class="edge"><title>Node1&#45;&gt;Node2</title>
<path fill="none" stroke="midnightblue" d="M127.851,-70.9555C138.849,-74.2386 149.853,-77.5233 159.677,-80.4557"/>
<polygon fill="midnightblue" stroke="midnightblue" points="128.8,-67.5863 118.217,-68.0796 126.798,-74.2938 128.8,-67.5863"/>
</g>
<!-- Node4 -->
<g id="node7" class="node"><title>Node4</title>
<a xlink:href="hfa-se-flow-wqe_8c.html#a98871b329f369c72a6d033310e1fd576" target="_top" xlink:title="Allocate and set parameters for search.">
<polygon fill="white" stroke="black" points="159,-40.5 159,-61.5 231,-61.5 231,-40.5 159,-40.5"/>
<text text-anchor="middle" x="195" y="-48.5" font-family="FreeSans" font-size="10.00">get_fparam</text>
</a>
</g>
<!-- Node1&#45;&gt;Node4 -->
<g id="edge6" class="edge"><title>Node1&#45;&gt;Node4</title>
<path fill="none" stroke="midnightblue" d="M131.799,-51C141.078,-51 150.259,-51 158.627,-51"/>
<polygon fill="midnightblue" stroke="midnightblue" points="131.727,-47.5001 121.727,-51 131.727,-54.5001 131.727,-47.5001"/>
</g>
<!-- Node5 -->
<g id="node9" class="node"><title>Node5</title>
<a xlink:href="hfa-se-xml-parser_8c.html#a3c04138a5bfe5d72780bb7e82a18e627" target="_top" xlink:title="main">
<polygon fill="white" stroke="black" points="175,-0.5 175,-21.5 215,-21.5 215,-0.5 175,-0.5"/>
<text text-anchor="middle" x="195" y="-8.5" font-family="FreeSans" font-size="10.00">main</text>
</a>
</g>
<!-- Node1&#45;&gt;Node5 -->
<g id="edge8" class="edge"><title>Node1&#45;&gt;Node5</title>
<path fill="none" stroke="midnightblue" d="M128.225,-30.933C145.275,-25.8433 162.306,-20.7595 174.9,-16.9999"/>
<polygon fill="midnightblue" stroke="midnightblue" points="126.798,-27.7062 118.217,-33.9204 128.8,-34.4137 126.798,-27.7062"/>
</g>
<!-- Node3 -->
<g id="node5" class="node"><title>Node3</title>
<a xlink:href="hfa-lnx-ctx_8c.html#a97df0ba8293c1b8436547946fd9d0d17" target="_top" xlink:title="process_pkt">
<polygon fill="white" stroke="black" points="268,-80.5 268,-101.5 342,-101.5 342,-80.5 268,-80.5"/>
<text text-anchor="middle" x="305" y="-88.5" font-family="FreeSans" font-size="10.00">process_pkt</text>
</a>
</g>
<!-- Node2&#45;&gt;Node3 -->
<g id="edge4" class="edge"><title>Node2&#45;&gt;Node3</title>
<path fill="none" stroke="midnightblue" d="M241.676,-91C250.393,-91 259.396,-91 267.781,-91"/>
<polygon fill="midnightblue" stroke="midnightblue" points="241.628,-87.5001 231.628,-91 241.628,-94.5001 241.628,-87.5001"/>
</g>
</g>
</svg>
