<?xml version="1.0" encoding="UTF-8" standalone="no"?>
<!DOCTYPE svg PUBLIC "-//W3C//DTD SVG 1.1//EN"
 "http://www.w3.org/Graphics/SVG/1.1/DTD/svg11.dtd">
<!-- Generated by graphviz version 2.24.0 (20090616.2323)
 -->
<!-- Title: hfa_graph_cacheunload Pages: 1 -->
<svg width="660pt" height="430pt"
 viewBox="0.00 0.00 660.00 430.00" xmlns="http://www.w3.org/2000/svg" xmlns:xlink="http://www.w3.org/1999/xlink">
<g id="graph1" class="graph" transform="scale(1 1) rotate(0) translate(4 426)">
<title>hfa_graph_cacheunload</title>
<polygon fill="white" stroke="white" points="-4,5 -4,-426 657,-426 657,5 -4,5"/>
<!-- Node1 -->
<g id="node1" class="node"><title>Node1</title>
<polygon fill="#bfbfbf" stroke="black" points="0,-160.5 0,-181.5 132,-181.5 132,-160.5 0,-160.5"/>
<text text-anchor="middle" x="66" y="-168.5" font-family="FreeSans" font-size="10.00">hfa_graph_cacheunload</text>
</g>
<!-- Node2 -->
<g id="node3" class="node"><title>Node2</title>
<a xlink:href="cvm-hfa-graph_8c.html#afb63ce4f42afc7987e6222b1c1ea91a1" target="_top" xlink:title="This routine is used to cacheunload a cacheload&#39;ed graph in a non&#45;blocking manner.">
<polygon fill="white" stroke="black" points="168,-234 168,-268 300,-268 300,-234 168,-234"/>
<text text-anchor="start" x="176" y="-255" font-family="FreeSans" font-size="10.00">hfa_graph_cacheunload</text>
<text text-anchor="middle" x="234" y="-242" font-family="FreeSans" font-size="10.00">_async</text>
</a>
</g>
<!-- Node1&#45;&gt;Node2 -->
<g id="edge2" class="edge"><title>Node1&#45;&gt;Node2</title>
<path fill="none" stroke="midnightblue" d="M88.3091,-181.623C113.818,-193.77 156.242,-213.972 188.75,-229.452"/>
<polygon fill="midnightblue" stroke="midnightblue" points="187.528,-232.747 198.061,-233.886 190.537,-226.427 187.528,-232.747"/>
</g>
<!-- Node12 -->
<g id="node23" class="node"><title>Node12</title>
<a xlink:href="cvm-hfa-graph_8c.html#a0f2f13fb51e5d56dcf049ff3c7c6ad78" target="_top" xlink:title="This routine is used to check the status of the graph.">
<polygon fill="white" stroke="black" points="177,-60.5 177,-81.5 291,-81.5 291,-60.5 177,-60.5"/>
<text text-anchor="middle" x="234" y="-68.5" font-family="FreeSans" font-size="10.00">hfa_graph_getstatus</text>
</a>
</g>
<!-- Node1&#45;&gt;Node12 -->
<g id="edge22" class="edge"><title>Node1&#45;&gt;Node12</title>
<path fill="none" stroke="midnightblue" d="M83.6614,-160.487C113.28,-142.857 173.111,-107.243 207.696,-86.6572"/>
<polygon fill="midnightblue" stroke="midnightblue" points="209.52,-89.6444 216.323,-81.5219 205.94,-83.6293 209.52,-89.6444"/>
</g>
<!-- Node3 -->
<g id="node5" class="node"><title>Node3</title>
<a xlink:href="cvm-hfa-instr_8h.html#acaf8def6cbffb04c100bf7f7684f242e" target="_top" xlink:title="Initialize the HFA instruction.">
<polygon fill="white" stroke="black" points="358.5,-400.5 358.5,-421.5 461.5,-421.5 461.5,-400.5 358.5,-400.5"/>
<text text-anchor="middle" x="410" y="-408.5" font-family="FreeSans" font-size="10.00">cvm_hfa_instr_init</text>
</a>
</g>
<!-- Node2&#45;&gt;Node3 -->
<g id="edge4" class="edge"><title>Node2&#45;&gt;Node3</title>
<path fill="none" stroke="midnightblue" d="M241.68,-268.13C255.893,-297.831 289.173,-358.788 336,-391 339.971,-393.732 344.3,-396.091 348.806,-398.128"/>
<polygon fill="midnightblue" stroke="midnightblue" points="347.659,-401.438 358.244,-401.874 350.241,-394.932 347.659,-401.438"/>
</g>
<!-- Node4 -->
<g id="node7" class="node"><title>Node4</title>
<a xlink:href="cvm-hfa-instr_8h.html#a2d6082e2e599fe8523162b18d0a06f6c" target="_top" xlink:title="Sets rptr in the instruction.">
<polygon fill="white" stroke="black" points="350,-360.5 350,-381.5 470,-381.5 470,-360.5 350,-360.5"/>
<text text-anchor="middle" x="410" y="-368.5" font-family="FreeSans" font-size="10.00">cvm_hfa_instr_setrptr</text>
</a>
</g>
<!-- Node2&#45;&gt;Node4 -->
<g id="edge6" class="edge"><title>Node2&#45;&gt;Node4</title>
<path fill="none" stroke="midnightblue" d="M246.859,-268.225C264.499,-290.631 298.332,-329.446 336,-351 339.873,-353.216 344.001,-355.195 348.251,-356.961"/>
<polygon fill="midnightblue" stroke="midnightblue" points="347.105,-360.269 357.697,-360.494 349.557,-353.712 347.105,-360.269"/>
</g>
<!-- Node5 -->
<g id="node9" class="node"><title>Node5</title>
<a xlink:href="cvm-hfa-instr_8h.html#a6960a0761295ada9f449ea5e8c41ec80" target="_top" xlink:title="Sets clmsk in the instruction.">
<polygon fill="white" stroke="black" points="344,-320.5 344,-341.5 476,-341.5 476,-320.5 344,-320.5"/>
<text text-anchor="middle" x="410" y="-328.5" font-family="FreeSans" font-size="10.00">cvm_hfa_instr_setclmsk</text>
</a>
</g>
<!-- Node2&#45;&gt;Node5 -->
<g id="edge8" class="edge"><title>Node2&#45;&gt;Node5</title>
<path fill="none" stroke="midnightblue" d="M258.585,-268.006C278.658,-281.252 308.158,-299.299 336,-311 341.716,-313.402 347.803,-315.593 353.937,-317.569"/>
<polygon fill="midnightblue" stroke="midnightblue" points="352.98,-320.936 363.566,-320.497 355.017,-314.239 352.98,-320.936"/>
</g>
<!-- Node6 -->
<g id="node11" class="node"><title>Node6</title>
<a xlink:href="cvm-hfa-instr_8h.html#add4e981377a02cd06e2bca116e584bca" target="_top" xlink:title="Sets vgid in the instruction.">
<polygon fill="white" stroke="black" points="348,-280.5 348,-301.5 472,-301.5 472,-280.5 348,-280.5"/>
<text text-anchor="middle" x="410" y="-288.5" font-family="FreeSans" font-size="10.00">cvm_hfa_instr_setvgid</text>
</a>
</g>
<!-- Node2&#45;&gt;Node6 -->
<g id="edge10" class="edge"><title>Node2&#45;&gt;Node6</title>
<path fill="none" stroke="midnightblue" d="M300.037,-266.008C317.73,-270.03 336.69,-274.339 353.797,-278.226"/>
<polygon fill="midnightblue" stroke="midnightblue" points="353.104,-281.658 363.631,-280.462 354.656,-274.832 353.104,-281.658"/>
</g>
<!-- Node7 -->
<g id="node13" class="node"><title>Node7</title>
<a xlink:href="cvm-hfa-common_8h.html#a0da7c57174fb96d75ae9cc2ed3116a05" target="_top" xlink:title="Dump buffer pointed by &quot;buf&quot; in readable format.">
<polygon fill="white" stroke="black" points="367,-240.5 367,-261.5 453,-261.5 453,-240.5 367,-240.5"/>
<text text-anchor="middle" x="410" y="-248.5" font-family="FreeSans" font-size="10.00">hfa_dump_buf</text>
</a>
</g>
<!-- Node2&#45;&gt;Node7 -->
<g id="edge12" class="edge"><title>Node2&#45;&gt;Node7</title>
<path fill="none" stroke="midnightblue" d="M300.037,-251C318.709,-251 338.79,-251 356.617,-251"/>
<polygon fill="midnightblue" stroke="midnightblue" points="356.825,-254.5 366.825,-251 356.825,-247.5 356.825,-254.5"/>
</g>
<!-- Node8 -->
<g id="node15" class="node"><title>Node8</title>
<a xlink:href="cvm-hfa-instr_8h.html#a88a92a987acac81360f3b880d013cd10" target="_top" xlink:title="Sets wqptr instruction.">
<polygon fill="white" stroke="black" points="344.5,-200.5 344.5,-221.5 475.5,-221.5 475.5,-200.5 344.5,-200.5"/>
<text text-anchor="middle" x="410" y="-208.5" font-family="FreeSans" font-size="10.00">cvm_hfa_instr_setwqptr</text>
</a>
</g>
<!-- Node2&#45;&gt;Node8 -->
<g id="edge14" class="edge"><title>Node2&#45;&gt;Node8</title>
<path fill="none" stroke="midnightblue" d="M300.037,-235.992C317.73,-231.97 336.69,-227.661 353.797,-223.774"/>
<polygon fill="midnightblue" stroke="midnightblue" points="354.656,-227.168 363.631,-221.538 353.104,-220.342 354.656,-227.168"/>
</g>
<!-- Node9 -->
<g id="node17" class="node"><title>Node9</title>
<a xlink:href="cvm-hfa-graph_8c.html#a1320f0566be0069bd604cc820a12a114" target="_top" xlink:title="This routine sets WQE field in graph data structure.">
<polygon fill="white" stroke="black" points="357.5,-160.5 357.5,-181.5 462.5,-181.5 462.5,-160.5 357.5,-160.5"/>
<text text-anchor="middle" x="410" y="-168.5" font-family="FreeSans" font-size="10.00">hfa_graph_setwqe</text>
</a>
</g>
<!-- Node2&#45;&gt;Node9 -->
<g id="edge16" class="edge"><title>Node2&#45;&gt;Node9</title>
<path fill="none" stroke="midnightblue" d="M258.585,-233.994C278.658,-220.748 308.158,-202.701 336,-191 341.716,-188.598 347.803,-186.407 353.937,-184.431"/>
<polygon fill="midnightblue" stroke="midnightblue" points="355.017,-187.761 363.566,-181.503 352.98,-181.064 355.017,-187.761"/>
</g>
<!-- Node10 -->
<g id="node19" class="node"><title>Node10</title>
<a xlink:href="cvm-hfa_8c.html#a4677d07b901d6aeb02e793c1dbdfabbf" target="_top" xlink:title="Asynchronous instruction submit to HFA hardware Do not wait for instruction to complete.">
<polygon fill="white" stroke="black" points="349,-120.5 349,-141.5 471,-141.5 471,-120.5 349,-120.5"/>
<text text-anchor="middle" x="410" y="-128.5" font-family="FreeSans" font-size="10.00">hfa_dev_submitasync</text>
</a>
</g>
<!-- Node2&#45;&gt;Node10 -->
<g id="edge18" class="edge"><title>Node2&#45;&gt;Node10</title>
<path fill="none" stroke="midnightblue" d="M246.859,-233.775C264.499,-211.369 298.332,-172.554 336,-151 339.873,-148.784 344.001,-146.805 348.251,-145.039"/>
<polygon fill="midnightblue" stroke="midnightblue" points="349.557,-148.288 357.697,-141.506 347.105,-141.731 349.557,-148.288"/>
</g>
<!-- Node11 -->
<g id="node21" class="node"><title>Node11</title>
<a xlink:href="cvmx-hfa_8c.html#a96a123c8918e83cdf914f6de1bfb4f00" target="_top" xlink:title="Submit a command to the DFA block.">
<polygon fill="white" stroke="black" points="535,-120.5 535,-141.5 637,-141.5 637,-120.5 535,-120.5"/>
<text text-anchor="middle" x="586" y="-128.5" font-family="FreeSans" font-size="10.00">cvmx_hfa_submit</text>
</a>
</g>
<!-- Node10&#45;&gt;Node11 -->
<g id="edge20" class="edge"><title>Node10&#45;&gt;Node11</title>
<path fill="none" stroke="midnightblue" d="M471.062,-131C488.491,-131 507.48,-131 524.911,-131"/>
<polygon fill="midnightblue" stroke="midnightblue" points="524.97,-134.5 534.97,-131 524.97,-127.5 524.97,-134.5"/>
</g>
<!-- Node13 -->
<g id="node25" class="node"><title>Node13</title>
<a xlink:href="cvm-hfa_8c.html#a4753d2dd586e19676b1a59dd16baaeed" target="_top" xlink:title="Obtain status of submitted insruction.">
<polygon fill="white" stroke="black" points="343.5,-80.5 343.5,-101.5 476.5,-101.5 476.5,-80.5 343.5,-80.5"/>
<text text-anchor="middle" x="410" y="-88.5" font-family="FreeSans" font-size="10.00">hfa_dev_getasyncstatus</text>
</a>
</g>
<!-- Node12&#45;&gt;Node13 -->
<g id="edge24" class="edge"><title>Node12&#45;&gt;Node13</title>
<path fill="none" stroke="midnightblue" d="M291.142,-77.4934C304.55,-79.017 319.052,-80.665 333.164,-82.2687"/>
<polygon fill="midnightblue" stroke="midnightblue" points="333.019,-85.7746 343.35,-83.4262 333.809,-78.8194 333.019,-85.7746"/>
</g>
<!-- Node16 -->
<g id="node31" class="node"><title>Node16</title>
<a xlink:href="cvm-hfa-instr_8h.html#aa7b5661907cf23e01fe784a70980ed4b" target="_top" xlink:title="Gets itype from RWORD0.">
<polygon fill="white" stroke="black" points="349,-40.5 349,-61.5 471,-61.5 471,-40.5 349,-40.5"/>
<text text-anchor="middle" x="410" y="-48.5" font-family="FreeSans" font-size="10.00">cvm_hfa_rslt_getitype</text>
</a>
</g>
<!-- Node12&#45;&gt;Node16 -->
<g id="edge30" class="edge"><title>Node12&#45;&gt;Node16</title>
<path fill="none" stroke="midnightblue" d="M291.142,-64.5066C306.292,-62.785 322.839,-60.9046 338.643,-59.1087"/>
<polygon fill="midnightblue" stroke="midnightblue" points="339.358,-62.5501 348.899,-57.9433 338.568,-55.5948 339.358,-62.5501"/>
</g>
<!-- Node17 -->
<g id="node33" class="node"><title>Node17</title>
<a xlink:href="cvm-hfa-graph_8c.html#aa4c0667cc4f92a08c249041eb8a4ec58" target="_top" xlink:title="This routine is used to free the buffers and change the graph load status after instruction completio...">
<polygon fill="white" stroke="black" points="336.5,-0.5 336.5,-21.5 483.5,-21.5 483.5,-0.5 336.5,-0.5"/>
<text text-anchor="middle" x="410" y="-8.5" font-family="FreeSans" font-size="10.00">__hfa_graph_processstatus</text>
</a>
</g>
<!-- Node12&#45;&gt;Node17 -->
<g id="edge32" class="edge"><title>Node12&#45;&gt;Node17</title>
<path fill="none" stroke="midnightblue" d="M258.871,-60.3612C279.353,-51.815 309.267,-39.8247 336,-31 343.117,-28.6505 350.685,-26.3667 358.16,-24.2336"/>
<polygon fill="midnightblue" stroke="midnightblue" points="359.194,-27.5789 367.887,-21.5231 357.315,-20.8357 359.194,-27.5789"/>
</g>
<!-- Node14 -->
<g id="node27" class="node"><title>Node14</title>
<a xlink:href="cvm-hfa-instr_8h.html#a56f2522dcba965745a1bc239fc432dca" target="_top" xlink:title="Gets done from RWORD0.">
<polygon fill="white" stroke="black" points="524.5,-80.5 524.5,-101.5 647.5,-101.5 647.5,-80.5 524.5,-80.5"/>
<text text-anchor="middle" x="586" y="-88.5" font-family="FreeSans" font-size="10.00">cvm_hfa_rslt_getdone</text>
</a>
</g>
<!-- Node13&#45;&gt;Node14 -->
<g id="edge26" class="edge"><title>Node13&#45;&gt;Node14</title>
<path fill="none" stroke="midnightblue" d="M476.538,-91C488.782,-91 501.616,-91 514.012,-91"/>
<polygon fill="midnightblue" stroke="midnightblue" points="514.299,-94.5001 524.299,-91 514.299,-87.5001 514.299,-94.5001"/>
</g>
<!-- Node15 -->
<g id="node29" class="node"><title>Node15</title>
<a xlink:href="cvm-hfa-instr_8h.html#a9700a50b68b6616506528eb725a8bda1" target="_top" xlink:title="Gets reason from RWORD0.">
<polygon fill="white" stroke="black" points="520.5,-40.5 520.5,-61.5 651.5,-61.5 651.5,-40.5 520.5,-40.5"/>
<text text-anchor="middle" x="586" y="-48.5" font-family="FreeSans" font-size="10.00">cvm_hfa_rslt_getreason</text>
</a>
</g>
<!-- Node13&#45;&gt;Node15 -->
<g id="edge28" class="edge"><title>Node13&#45;&gt;Node15</title>
<path fill="none" stroke="midnightblue" d="M456.242,-80.4905C478.788,-75.3663 506.096,-69.1601 529.832,-63.7655"/>
<polygon fill="midnightblue" stroke="midnightblue" points="530.786,-67.138 539.762,-61.5087 529.235,-60.312 530.786,-67.138"/>
</g>
<!-- Node18 -->
<g id="node35" class="node"><title>Node18</title>
<a xlink:href="cvm-hfa-cluster_8c.html#ad8cad96579f5a310b62caaf8c166658f" target="_top" xlink:title="Returns a copy of a cluster of the HFA device.">
<polygon fill="white" stroke="black" points="541,-0.5 541,-21.5 631,-21.5 631,-0.5 541,-0.5"/>
<text text-anchor="middle" x="586" y="-8.5" font-family="FreeSans" font-size="10.00">hfa_get_cluster</text>
</a>
</g>
<!-- Node17&#45;&gt;Node18 -->
<g id="edge34" class="edge"><title>Node17&#45;&gt;Node18</title>
<path fill="none" stroke="midnightblue" d="M483.62,-11C499.386,-11 515.785,-11 530.719,-11"/>
<polygon fill="midnightblue" stroke="midnightblue" points="530.797,-14.5001 540.797,-11 530.797,-7.5001 530.797,-14.5001"/>
</g>
</g>
</svg>
