<?xml version="1.0" encoding="UTF-8" standalone="no"?>
<!DOCTYPE svg PUBLIC "-//W3C//DTD SVG 1.1//EN"
 "http://www.w3.org/Graphics/SVG/1.1/DTD/svg11.dtd">
<!-- Generated by graphviz version 2.24.0 (20090616.2323)
 -->
<!-- Title: hfa_dev_getasyncstatus Pages: 1 -->
<!--zoomable 814 -->
<svg id="main" version="1.1" xmlns="http://www.w3.org/2000/svg" xmlns:xlink="http://www.w3.org/1999/xlink" xml:space="preserve" onload="init(evt)">
        <defs>
                <circle id="rim" cx="0" cy="0" r="7"/>
                <circle id="rim2" cx="0" cy="0" r="3.5"/>
                <g id="zoomPlus">
                        <use xlink:href="#rim" fill="#404040">
                                <set attributeName="fill" to="#808080" begin="zoomplus.mouseover" end="zoomplus.mouseout"/>
                        </use>
                        <path d="M-4,0h8M0,-4v8" fill="none" stroke="white" stroke-width="1.5" pointer-events="none"/>
                </g>
                <g id="zoomMin">
                        <use xlink:href="#rim" fill="#404040">
                                <set attributeName="fill" to="#808080" begin="zoomminus.mouseover" end="zoomminus.mouseout"/>
                        </use>
                        <path d="M-4,0h8" fill="none" stroke="white" stroke-width="1.5" pointer-events="none"/>
                </g>
                <g id="dirArrow">
                        <path fill="none" stroke="white" stroke-width="1.5" d="M0,-3.0v7 M-2.5,-0.5L0,-3.0L2.5,-0.5"/>
                </g>
               <g id="resetDef">
                       <use xlink:href="#rim2" fill="#404040">
                               <set attributeName="fill" to="#808080" begin="reset.mouseover" end="reset.mouseout"/>
                       </use>
               </g>
        </defs>

<script type="text/javascript">
var viewWidth = 1240;
var viewHeight = 814;
var sectionId = 'dynsection-11';
</script>
<script xlink:href="svgpan.js"/>
<svg id="graph" class="graph">
<g id="viewport">
<title>hfa_dev_getasyncstatus</title>
<polygon fill="white" stroke="white" points="-4,5 -4,-810 1237,-810 1237,5 -4,5"/>
<!-- Node1 -->
<g id="node1" class="node"><title>Node1</title>
<polygon fill="#bfbfbf" stroke="black" points="0.5,-180.5 0.5,-201.5 133.5,-201.5 133.5,-180.5 0.5,-180.5"/>
<text text-anchor="middle" x="67" y="-188.5" font-family="FreeSans" font-size="10.00">hfa_dev_getasyncstatus</text>
</g>
<!-- Node2 -->
<g id="node3" class="node"><title>Node2</title>
<a xlink:href="cvm-hfa-graph_8c.html#a0f2f13fb51e5d56dcf049ff3c7c6ad78" target="_top" xlink:title="This routine is used to check the status of the graph.">
<polygon fill="white" stroke="black" points="199,-426.5 199,-447.5 313,-447.5 313,-426.5 199,-426.5"/>
<text text-anchor="middle" x="256" y="-434.5" font-family="FreeSans" font-size="10.00">hfa_graph_getstatus</text>
</a>
</g>
<!-- Node1&#45;&gt;Node2 -->
<g id="edge2" class="edge"><title>Node1&#45;&gt;Node2</title>
<path fill="none" stroke="midnightblue" d="M81.3631,-209.695C118.85,-258.487 218.758,-388.526 247.909,-426.469"/>
<polygon fill="midnightblue" stroke="midnightblue" points="83.989,-207.368 75.1211,-201.57 78.4381,-211.633 83.989,-207.368"/>
</g>
<!-- Node18 -->
<g id="node42" class="node"><title>Node18</title>
<a xlink:href="cvm-hfa-search_8c.html#a6a8e1d7e70e0a10520302df5651e5fc5" target="_top" xlink:title="This routine provides the status of an outstanding pattern search operation initiated using hfa_searc...">
<polygon fill="white" stroke="black" points="170,-180.5 170,-201.5 342,-201.5 342,-180.5 170,-180.5"/>
<text text-anchor="middle" x="256" y="-188.5" font-family="FreeSans" font-size="10.00">hfa_searchctx_get_searchstatus</text>
</a>
</g>
<!-- Node1&#45;&gt;Node18 -->
<g id="edge48" class="edge"><title>Node1&#45;&gt;Node18</title>
<path fill="none" stroke="midnightblue" d="M143.909,-191C152.429,-191 161.147,-191 169.772,-191"/>
<polygon fill="midnightblue" stroke="midnightblue" points="143.634,-187.5 133.634,-191 143.634,-194.5 143.634,-187.5"/>
</g>
<!-- Node45 -->
<g id="node103" class="node"><title>Node45</title>
<a xlink:href="cvm-hfa_8c.html#ae6a7ff220c7ddd04101adbe90631baa9" target="_top" xlink:title="Synchronous instruction submit to HFA hardware Block until submitted instruction completes.">
<polygon fill="white" stroke="black" points="209.5,-140.5 209.5,-161.5 302.5,-161.5 302.5,-140.5 209.5,-140.5"/>
<text text-anchor="middle" x="256" y="-148.5" font-family="FreeSans" font-size="10.00">hfa_dev_submit</text>
</a>
</g>
<!-- Node1&#45;&gt;Node45 -->
<g id="edge116" class="edge"><title>Node1&#45;&gt;Node45</title>
<path fill="none" stroke="midnightblue" d="M126.65,-178.376C153.329,-172.729 184.317,-166.171 209.273,-160.889"/>
<polygon fill="midnightblue" stroke="midnightblue" points="125.716,-174.996 116.658,-180.49 127.166,-181.844 125.716,-174.996"/>
</g>
<!-- Node3 -->
<g id="node5" class="node"><title>Node3</title>
<a xlink:href="app-utils_8c.html#aed95bb72627cff313c596ebcfcd8af61" target="_top" xlink:title="Parse graph into chunks and load graph to HFA memory.">
<polygon fill="white" stroke="black" points="738.5,-433.5 738.5,-454.5 873.5,-454.5 873.5,-433.5 738.5,-433.5"/>
<text text-anchor="middle" x="806" y="-441.5" font-family="FreeSans" font-size="10.00">hfautils_download_graph</text>
</a>
</g>
<!-- Node2&#45;&gt;Node3 -->
<g id="edge4" class="edge"><title>Node2&#45;&gt;Node3</title>
<path fill="none" stroke="midnightblue" d="M305.049,-449.911C327.166,-455.094 353.72,-460.442 378,-463 504.857,-476.367 653.83,-463.298 738.354,-453.213"/>
<polygon fill="midnightblue" stroke="midnightblue" points="305.764,-446.483 295.223,-447.551 304.129,-453.29 305.764,-446.483"/>
</g>
<!-- Node4 -->
<g id="node7" class="node"><title>Node4</title>
<a xlink:href="hfa-lnx-async_8c.html#a546f3769e735d4bef0bfab1cba56921c" target="_top" xlink:title="Load graph to HFA memory and cache.">
<polygon fill="white" stroke="black" points="921.5,-339.5 921.5,-360.5 990.5,-360.5 990.5,-339.5 921.5,-339.5"/>
<text text-anchor="middle" x="956" y="-347.5" font-family="FreeSans" font-size="10.00">graph_load</text>
</a>
</g>
<!-- Node2&#45;&gt;Node4 -->
<g id="edge46" class="edge"><title>Node2&#45;&gt;Node4</title>
<path fill="none" stroke="midnightblue" d="M293.86,-422.942C317.683,-414.665 349.254,-404.728 378,-399 581.21,-358.509 831.136,-351.452 921.421,-350.242"/>
<polygon fill="midnightblue" stroke="midnightblue" points="292.419,-419.739 284.155,-426.37 294.75,-426.339 292.419,-419.739"/>
</g>
<!-- Node7 -->
<g id="node13" class="node"><title>Node7</title>
<a xlink:href="cvm-hfa-graph_8c.html#a647ccf649077cb5170221218ab2cdccf" target="_top" xlink:title="This routine downloads graph data to the HFA engine in a non&#45;blocking manner.">
<polygon fill="white" stroke="black" points="378,-420 378,-454 520,-454 520,-420 378,-420"/>
<text text-anchor="start" x="386" y="-441" font-family="FreeSans" font-size="10.00">hfa_graph_memload_data</text>
<text text-anchor="middle" x="449" y="-428" font-family="FreeSans" font-size="10.00">_async</text>
</a>
</g>
<!-- Node2&#45;&gt;Node7 -->
<g id="edge12" class="edge"><title>Node2&#45;&gt;Node7</title>
<path fill="none" stroke="midnightblue" d="M323.342,-437C341.015,-437 360.128,-437 377.987,-437"/>
<polygon fill="midnightblue" stroke="midnightblue" points="323.123,-433.5 313.123,-437 323.123,-440.5 323.123,-433.5"/>
</g>
<!-- Node8 -->
<g id="node16" class="node"><title>Node8</title>
<a xlink:href="cvm-hfa-graph_8c.html#a9e3f1a4bf2be683265108b5131541e89" target="_top" xlink:title="This routine downloads graph data to the HFA engine in a blocking manner.">
<polygon fill="white" stroke="black" points="558,-394.5 558,-415.5 700,-415.5 700,-394.5 558,-394.5"/>
<text text-anchor="middle" x="629" y="-402.5" font-family="FreeSans" font-size="10.00">hfa_graph_memload_data</text>
</a>
</g>
<!-- Node2&#45;&gt;Node8 -->
<g id="edge20" class="edge"><title>Node2&#45;&gt;Node8</title>
<path fill="none" stroke="midnightblue" d="M305.847,-424.184C327.815,-419.106 354.033,-413.816 378,-411 438.391,-403.906 507.497,-402.761 557.888,-403.189"/>
<polygon fill="midnightblue" stroke="midnightblue" points="305.003,-420.787 296.076,-426.492 306.612,-427.599 305.003,-420.787"/>
</g>
<!-- Node9 -->
<g id="node20" class="node"><title>Node9</title>
<a xlink:href="cvm-hfa-graph_8c.html#a60861d15ed5f6bccc42bbde834aa2b32" target="_top" xlink:title="This routine is used to cacheload a cacheable graph in a blocking manner.">
<polygon fill="white" stroke="black" points="389,-510.5 389,-531.5 509,-531.5 509,-510.5 389,-510.5"/>
<text text-anchor="middle" x="449" y="-518.5" font-family="FreeSans" font-size="10.00">hfa_graph_cacheload</text>
</a>
</g>
<!-- Node2&#45;&gt;Node9 -->
<g id="edge22" class="edge"><title>Node2&#45;&gt;Node9</title>
<path fill="none" stroke="midnightblue" d="M285.066,-452.195C309.523,-464.703 345.595,-482.509 378,-496 390.426,-501.173 404.347,-506.231 416.548,-510.428"/>
<polygon fill="midnightblue" stroke="midnightblue" points="286.469,-448.981 275.975,-447.516 283.265,-455.204 286.469,-448.981"/>
</g>
<!-- Node12 -->
<g id="node27" class="node"><title>Node12</title>
<a xlink:href="cvm-hfa-graph_8c.html#aa4ce7845277b4b3099159bbd7afd5c08" target="_top" xlink:title="This routine is used to cacheunload a cacheload&#39;ed graph in a non&#45;blocking manner.">
<polygon fill="white" stroke="black" points="563,-705.5 563,-726.5 695,-726.5 695,-705.5 563,-705.5"/>
<text text-anchor="middle" x="629" y="-713.5" font-family="FreeSans" font-size="10.00">hfa_graph_cacheunload</text>
</a>
</g>
<!-- Node2&#45;&gt;Node12 -->
<g id="edge30" class="edge"><title>Node2&#45;&gt;Node12</title>
<path fill="none" stroke="midnightblue" d="M264.424,-456.783C280.992,-493.493 321.209,-572.546 378,-618 437.531,-665.648 523.011,-692.349 577.261,-705.461"/>
<polygon fill="midnightblue" stroke="midnightblue" points="267.619,-455.355 260.384,-447.615 261.213,-458.177 267.619,-455.355"/>
</g>
<!-- Node3&#45;&gt;Node4 -->
<g id="edge6" class="edge"><title>Node3&#45;&gt;Node4</title>
<path fill="none" stroke="midnightblue" d="M834.793,-428.654C847.026,-421.944 861.355,-413.829 874,-406 898.184,-391.026 925.258,-372.091 941.45,-360.521"/>
<polygon fill="midnightblue" stroke="midnightblue" points="833.024,-425.633 825.91,-433.484 836.367,-431.782 833.024,-425.633"/>
</g>
<!-- Node6 -->
<g id="node11" class="node"><title>Node6</title>
<a xlink:href="hfa-lnx-ctx_8c.html#a78ffddbcd7cdd164889cfb53ea367886" target="_top" xlink:title="entry">
<polygon fill="white" stroke="black" points="935.5,-587.5 935.5,-608.5 976.5,-608.5 976.5,-587.5 935.5,-587.5"/>
<text text-anchor="middle" x="956" y="-595.5" font-family="FreeSans" font-size="10.00">entry</text>
</a>
</g>
<!-- Node3&#45;&gt;Node6 -->
<g id="edge10" class="edge"><title>Node3&#45;&gt;Node6</title>
<path fill="none" stroke="midnightblue" d="M823.549,-462.017C855.054,-494.363 920.28,-561.327 945.618,-587.341"/>
<polygon fill="midnightblue" stroke="midnightblue" points="825.795,-459.306 816.31,-454.585 820.78,-464.191 825.795,-459.306"/>
</g>
<!-- Node5 -->
<g id="node9" class="node"><title>Node5</title>
<a xlink:href="hfa-lnx-async_8c.html#a78ffddbcd7cdd164889cfb53ea367886" target="_top" xlink:title="entry">
<polygon fill="white" stroke="black" points="1076.5,-319.5 1076.5,-340.5 1117.5,-340.5 1117.5,-319.5 1076.5,-319.5"/>
<text text-anchor="middle" x="1097" y="-327.5" font-family="FreeSans" font-size="10.00">entry</text>
</a>
</g>
<!-- Node4&#45;&gt;Node5 -->
<g id="edge8" class="edge"><title>Node4&#45;&gt;Node5</title>
<path fill="none" stroke="midnightblue" d="M1001,-343.617C1026.36,-340.02 1056.8,-335.703 1076.5,-332.908"/>
<polygon fill="midnightblue" stroke="midnightblue" points="1000.26,-340.186 990.854,-345.056 1001.25,-347.117 1000.26,-340.186"/>
</g>
<!-- Node7&#45;&gt;Node3 -->
<g id="edge14" class="edge"><title>Node7&#45;&gt;Node3</title>
<path fill="none" stroke="midnightblue" d="M530.661,-438.601C593.51,-439.834 679.33,-441.516 738.366,-442.674"/>
<polygon fill="midnightblue" stroke="midnightblue" points="530.453,-435.097 520.386,-438.4 530.316,-442.095 530.453,-435.097"/>
</g>
<!-- Node7&#45;&gt;Node8 -->
<g id="edge16" class="edge"><title>Node7&#45;&gt;Node8</title>
<path fill="none" stroke="midnightblue" d="M530.23,-422.559C543.515,-420.197 557.057,-417.79 569.683,-415.545"/>
<polygon fill="midnightblue" stroke="midnightblue" points="529.374,-419.156 520.141,-424.353 530.599,-426.048 529.374,-419.156"/>
</g>
<!-- Node8&#45;&gt;Node3 -->
<g id="edge18" class="edge"><title>Node8&#45;&gt;Node3</title>
<path fill="none" stroke="midnightblue" d="M686.894,-417.756C709.929,-422.832 736.119,-428.602 758.063,-433.438"/>
<polygon fill="midnightblue" stroke="midnightblue" points="687.418,-414.288 676.899,-415.554 685.911,-421.124 687.418,-414.288"/>
</g>
<!-- Node9&#45;&gt;Node6 -->
<g id="edge24" class="edge"><title>Node9&#45;&gt;Node6</title>
<path fill="none" stroke="midnightblue" d="M512.949,-533.42C527.105,-536.039 542.045,-538.703 556,-541 700.658,-564.815 875.724,-587.736 935.13,-595.35"/>
<polygon fill="midnightblue" stroke="midnightblue" points="513.277,-529.921 502.805,-531.527 511.993,-536.802 513.277,-529.921"/>
</g>
<!-- Node10 -->
<g id="node23" class="node"><title>Node10</title>
<a xlink:href="hfa-lnx-linkgraph_8c.html#a546f3769e735d4bef0bfab1cba56921c" target="_top" xlink:title="Load graph to HFA memory and cache.">
<polygon fill="white" stroke="black" points="594.5,-510.5 594.5,-531.5 663.5,-531.5 663.5,-510.5 594.5,-510.5"/>
<text text-anchor="middle" x="629" y="-518.5" font-family="FreeSans" font-size="10.00">graph_load</text>
</a>
</g>
<!-- Node9&#45;&gt;Node10 -->
<g id="edge26" class="edge"><title>Node9&#45;&gt;Node10</title>
<path fill="none" stroke="midnightblue" d="M519.302,-521C545.054,-521 573.068,-521 594.34,-521"/>
<polygon fill="midnightblue" stroke="midnightblue" points="519.188,-517.5 509.188,-521 519.188,-524.5 519.188,-517.5"/>
</g>
<!-- Node11 -->
<g id="node25" class="node"><title>Node11</title>
<a xlink:href="hfa-lnx-linkgraph_8c.html#a78ffddbcd7cdd164889cfb53ea367886" target="_top" xlink:title="entry">
<polygon fill="white" stroke="black" points="785.5,-375.5 785.5,-396.5 826.5,-396.5 826.5,-375.5 785.5,-375.5"/>
<text text-anchor="middle" x="806" y="-383.5" font-family="FreeSans" font-size="10.00">entry</text>
</a>
</g>
<!-- Node10&#45;&gt;Node11 -->
<g id="edge28" class="edge"><title>Node10&#45;&gt;Node11</title>
<path fill="none" stroke="midnightblue" d="M646.644,-503.09C667.394,-482.57 703.409,-448.612 738,-424 753.096,-413.259 771.51,-403.131 785.366,-396.037"/>
<polygon fill="midnightblue" stroke="midnightblue" points="644.078,-500.707 639.474,-510.249 649.024,-505.66 644.078,-500.707"/>
</g>
<!-- Node12&#45;&gt;Node6 -->
<g id="edge38" class="edge"><title>Node12&#45;&gt;Node6</title>
<path fill="none" stroke="midnightblue" d="M705.419,-724.959C755.99,-727.426 822.265,-723.817 874,-697 893.814,-686.729 932.717,-632.082 948.79,-608.665"/>
<polygon fill="midnightblue" stroke="midnightblue" points="705.386,-721.451 695.2,-724.368 704.982,-728.439 705.386,-721.451"/>
</g>
<!-- Node13 -->
<g id="node29" class="node"><title>Node13</title>
<a xlink:href="hfa-lnx-async_8c.html#acd9e54f020b77f14d54c200b65423a15" target="_top" xlink:title="Application cleanup will be done by this routine.">
<polygon fill="white" stroke="black" points="779,-744.5 779,-765.5 833,-765.5 833,-744.5 779,-744.5"/>
<text text-anchor="middle" x="806" y="-752.5" font-family="FreeSans" font-size="10.00">cleanup</text>
</a>
</g>
<!-- Node12&#45;&gt;Node13 -->
<g id="edge32" class="edge"><title>Node12&#45;&gt;Node13</title>
<path fill="none" stroke="midnightblue" d="M686.745,-728.724C717.766,-735.559 754.544,-743.662 778.973,-749.045"/>
<polygon fill="midnightblue" stroke="midnightblue" points="687.418,-725.288 676.899,-726.554 685.911,-732.124 687.418,-725.288"/>
</g>
<!-- Node15 -->
<g id="node35" class="node"><title>Node15</title>
<a xlink:href="hfa-lnx-ctx_8c.html#aaf98ef7cdde3a0dfb2e49919de3298b1" target="_top" xlink:title="exit">
<polygon fill="white" stroke="black" points="789.5,-666.5 789.5,-687.5 822.5,-687.5 822.5,-666.5 789.5,-666.5"/>
<text text-anchor="middle" x="806" y="-674.5" font-family="FreeSans" font-size="10.00">exit</text>
</a>
</g>
<!-- Node12&#45;&gt;Node15 -->
<g id="edge40" class="edge"><title>Node12&#45;&gt;Node15</title>
<path fill="none" stroke="midnightblue" d="M686.755,-703.274C722.501,-695.398 765.889,-685.838 789.216,-680.698"/>
<polygon fill="midnightblue" stroke="midnightblue" points="685.911,-699.876 676.899,-705.446 687.418,-706.712 685.911,-699.876"/>
</g>
<!-- Node16 -->
<g id="node37" class="node"><title>Node16</title>
<a xlink:href="hfa-se-ngraphs_8c.html#a546f3769e735d4bef0bfab1cba56921c" target="_top" xlink:title="Load ngraphs into HFA memory and cache.">
<polygon fill="white" stroke="black" points="771.5,-784.5 771.5,-805.5 840.5,-805.5 840.5,-784.5 771.5,-784.5"/>
<text text-anchor="middle" x="806" y="-792.5" font-family="FreeSans" font-size="10.00">graph_load</text>
</a>
</g>
<!-- Node12&#45;&gt;Node16 -->
<g id="edge42" class="edge"><title>Node12&#45;&gt;Node16</title>
<path fill="none" stroke="midnightblue" d="M654.402,-731.738C676.028,-744.646 708.235,-762.727 738,-775 748.58,-779.362 760.447,-783.195 771.27,-786.306"/>
<polygon fill="midnightblue" stroke="midnightblue" points="656.189,-728.728 645.819,-726.555 652.57,-734.721 656.189,-728.728"/>
</g>
<!-- Node13&#45;&gt;Node5 -->
<g id="edge34" class="edge"><title>Node13&#45;&gt;Node5</title>
<path fill="none" stroke="midnightblue" d="M842.401,-741.182C852.909,-736.603 864.182,-731.099 874,-725 936.984,-685.873 960.343,-679.34 1002,-618 1066.63,-522.831 1090.14,-380.314 1095.64,-340.603"/>
<polygon fill="midnightblue" stroke="midnightblue" points="840.895,-738.018 833.03,-745.117 843.605,-744.472 840.895,-738.018"/>
</g>
<!-- Node14 -->
<g id="node32" class="node"><title>Node14</title>
<a xlink:href="hfa-lnx-async_8c.html#aaf98ef7cdde3a0dfb2e49919de3298b1" target="_top" xlink:title="exit">
<polygon fill="white" stroke="black" points="939.5,-744.5 939.5,-765.5 972.5,-765.5 972.5,-744.5 939.5,-744.5"/>
<text text-anchor="middle" x="956" y="-752.5" font-family="FreeSans" font-size="10.00">exit</text>
</a>
</g>
<!-- Node13&#45;&gt;Node14 -->
<g id="edge36" class="edge"><title>Node13&#45;&gt;Node14</title>
<path fill="none" stroke="midnightblue" d="M843.511,-755C874.239,-755 916.268,-755 939.269,-755"/>
<polygon fill="midnightblue" stroke="midnightblue" points="843.164,-751.5 833.164,-755 843.164,-758.5 843.164,-751.5"/>
</g>
<!-- Node17 -->
<g id="node39" class="node"><title>Node17</title>
<a xlink:href="hfa-se-ngraphs_8c.html#a3c04138a5bfe5d72780bb7e82a18e627" target="_top" xlink:title="main">
<polygon fill="white" stroke="black" points="936,-784.5 936,-805.5 976,-805.5 976,-784.5 936,-784.5"/>
<text text-anchor="middle" x="956" y="-792.5" font-family="FreeSans" font-size="10.00">main</text>
</a>
</g>
<!-- Node16&#45;&gt;Node17 -->
<g id="edge44" class="edge"><title>Node16&#45;&gt;Node17</title>
<path fill="none" stroke="midnightblue" d="M850.829,-795C879.016,-795 914.026,-795 935.692,-795"/>
<polygon fill="midnightblue" stroke="midnightblue" points="850.79,-791.5 840.79,-795 850.79,-798.5 850.79,-791.5"/>
</g>
<!-- Node19 -->
<g id="node44" class="node"><title>Node19</title>
<a xlink:href="cvm-hfa-search_8c.html#a57d7540278164eb6b6c132be00db0de5" target="_top" xlink:title="This routine performs a pattern search using the given parameters in a blocking manner.">
<polygon fill="white" stroke="black" points="387.5,-278.5 387.5,-299.5 510.5,-299.5 510.5,-278.5 387.5,-278.5"/>
<text text-anchor="middle" x="449" y="-286.5" font-family="FreeSans" font-size="10.00">hfa_searchctx_search</text>
</a>
</g>
<!-- Node18&#45;&gt;Node19 -->
<g id="edge50" class="edge"><title>Node18&#45;&gt;Node19</title>
<path fill="none" stroke="midnightblue" d="M280.098,-207.4C304.15,-223.286 342.536,-247.352 378,-264 389.593,-269.442 402.715,-274.381 414.496,-278.405"/>
<polygon fill="midnightblue" stroke="midnightblue" points="281.879,-204.381 271.617,-201.744 277.995,-210.205 281.879,-204.381"/>
</g>
<!-- Node21 -->
<g id="node49" class="node"><title>Node21</title>
<a xlink:href="flow_8c.html#a696ee2b7ad7078c47242360be84d89bf" target="_top" xlink:title="Counterpart of __hfaf_create_flow.">
<polygon fill="white" stroke="black" points="392.5,-180.5 392.5,-201.5 505.5,-201.5 505.5,-180.5 392.5,-180.5"/>
<text text-anchor="middle" x="449" y="-188.5" font-family="FreeSans" font-size="10.00">__hfaf_destroy_flow</text>
</a>
</g>
<!-- Node18&#45;&gt;Node21 -->
<g id="edge56" class="edge"><title>Node18&#45;&gt;Node21</title>
<path fill="none" stroke="midnightblue" d="M352.105,-191C365.928,-191 379.762,-191 392.472,-191"/>
<polygon fill="midnightblue" stroke="midnightblue" points="352.058,-187.5 342.058,-191 352.058,-194.5 352.058,-187.5"/>
</g>
<!-- Node28 -->
<g id="node63" class="node"><title>Node28</title>
<a xlink:href="flow_8c.html#a2976ab60901b133a56214323fb901663" target="_top" xlink:title="Low level API to poll a flow.">
<polygon fill="white" stroke="black" points="384.5,-90.5 384.5,-111.5 513.5,-111.5 513.5,-90.5 384.5,-90.5"/>
<text text-anchor="middle" x="449" y="-98.5" font-family="FreeSans" font-size="10.00">__hfaf_process_pktflow</text>
</a>
</g>
<!-- Node18&#45;&gt;Node28 -->
<g id="edge70" class="edge"><title>Node18&#45;&gt;Node28</title>
<path fill="none" stroke="midnightblue" d="M330.532,-176.776C334.51,-175.065 338.362,-173.148 342,-171 362.597,-158.842 358.518,-144.875 378,-131 389.336,-122.927 403.179,-116.462 415.621,-111.631"/>
<polygon fill="midnightblue" stroke="midnightblue" points="329.15,-173.558 321.066,-180.407 331.657,-180.093 329.15,-173.558"/>
</g>
<!-- Node33 -->
<g id="node74" class="node"><title>Node33</title>
<a xlink:href="hfa-lnx-async_8c.html#a972f8b60ef804914c009c2ef85bac50e" target="_top" xlink:title="Process search for given payload and graph.">
<polygon fill="white" stroke="black" points="760,-259.5 760,-280.5 852,-280.5 852,-259.5 760,-259.5"/>
<text text-anchor="middle" x="806" y="-267.5" font-family="FreeSans" font-size="10.00">process_search</text>
</a>
</g>
<!-- Node18&#45;&gt;Node33 -->
<g id="edge82" class="edge"><title>Node18&#45;&gt;Node33</title>
<path fill="none" stroke="midnightblue" d="M328.351,-203.173C344.669,-205.832 361.919,-208.574 378,-211 516.696,-231.925 681.14,-253.761 759.71,-264.012"/>
<polygon fill="midnightblue" stroke="midnightblue" points="328.764,-199.694 318.33,-201.532 327.633,-206.602 328.764,-199.694"/>
</g>
<!-- Node36 -->
<g id="node82" class="node"><title>Node36</title>
<a xlink:href="hfa-lnx-ctx_8c.html#a630ea21ffa0ae1e09e74fc5add8c2715" target="_top" xlink:title="destroyctx">
<polygon fill="white" stroke="black" points="415.5,-587.5 415.5,-608.5 482.5,-608.5 482.5,-587.5 415.5,-587.5"/>
<text text-anchor="middle" x="449" y="-595.5" font-family="FreeSans" font-size="10.00">destroyctx</text>
</a>
</g>
<!-- Node18&#45;&gt;Node36 -->
<g id="edge92" class="edge"><title>Node18&#45;&gt;Node36</title>
<path fill="none" stroke="midnightblue" d="M264.318,-211.195C280.355,-250.473 316.239,-340.058 342,-417 360.22,-471.418 346.146,-493.266 378,-541 391.337,-560.986 413.866,-577.333 429.971,-587.317"/>
<polygon fill="midnightblue" stroke="midnightblue" points="267.461,-209.634 260.431,-201.708 260.984,-212.289 267.461,-209.634"/>
</g>
<!-- Node39 -->
<g id="node91" class="node"><title>Node39</title>
<a xlink:href="hfa-lnx-ctx_8c.html#a71e1d3d18cc48b90a1ecde583ffb3f7a" target="_top" xlink:title="poll_searchctx">
<polygon fill="white" stroke="black" points="406,-2.5 406,-23.5 492,-23.5 492,-2.5 406,-2.5"/>
<text text-anchor="middle" x="449" y="-10.5" font-family="FreeSans" font-size="10.00">poll_searchctx</text>
</a>
</g>
<!-- Node18&#45;&gt;Node39 -->
<g id="edge104" class="edge"><title>Node18&#45;&gt;Node39</title>
<path fill="none" stroke="midnightblue" d="M337.442,-174.932C339.032,-173.708 340.555,-172.4 342,-171 386.608,-127.801 335.263,-81.0501 378,-36 385.402,-28.1979 395.467,-23.0373 405.691,-19.6254"/>
<polygon fill="midnightblue" stroke="midnightblue" points="335.516,-172.009 329,-180.364 339.303,-177.896 335.516,-172.009"/>
</g>
<!-- Node42 -->
<g id="node97" class="node"><title>Node42</title>
<a xlink:href="hfa-lnx-nctx-lock_8c.html#a48d3743fb7abc7d3c6b68359678e52a1" target="_top" xlink:title="Poll for the pending search instructions in the HW (blocked till instruction completes) and process t...">
<polygon fill="white" stroke="black" points="432.5,-45.5 432.5,-66.5 465.5,-66.5 465.5,-45.5 432.5,-45.5"/>
<text text-anchor="middle" x="449" y="-53.5" font-family="FreeSans" font-size="10.00">poll</text>
</a>
</g>
<!-- Node18&#45;&gt;Node42 -->
<g id="edge110" class="edge"><title>Node18&#45;&gt;Node42</title>
<path fill="none" stroke="midnightblue" d="M336.343,-175.293C338.313,-173.97 340.204,-172.541 342,-171 374.688,-142.938 346.905,-110.817 378,-81 392.903,-66.7093 416.456,-60.5356 432.304,-57.9032"/>
<polygon fill="midnightblue" stroke="midnightblue" points="334.233,-172.466 327.263,-180.446 337.687,-178.554 334.233,-172.466"/>
</g>
<!-- Node44 -->
<g id="node101" class="node"><title>Node44</title>
<a xlink:href="hfa-se-async_8c.html#a3c04138a5bfe5d72780bb7e82a18e627" target="_top" xlink:title="main">
<polygon fill="white" stroke="black" points="429,-140.5 429,-161.5 469,-161.5 469,-140.5 429,-140.5"/>
<text text-anchor="middle" x="449" y="-148.5" font-family="FreeSans" font-size="10.00">main</text>
</a>
</g>
<!-- Node18&#45;&gt;Node44 -->
<g id="edge114" class="edge"><title>Node18&#45;&gt;Node44</title>
<path fill="none" stroke="midnightblue" d="M316.802,-178.398C355.323,-170.415 402.678,-160.6 428.977,-155.15"/>
<polygon fill="midnightblue" stroke="midnightblue" points="315.79,-175.034 306.708,-180.49 317.211,-181.888 315.79,-175.034"/>
</g>
<!-- Node19&#45;&gt;Node11 -->
<g id="edge52" class="edge"><title>Node19&#45;&gt;Node11</title>
<path fill="none" stroke="midnightblue" d="M497.614,-302.209C576.717,-323.702 730.021,-365.356 785.408,-380.405"/>
<polygon fill="midnightblue" stroke="midnightblue" points="498.453,-298.81 487.885,-299.565 496.617,-305.565 498.453,-298.81"/>
</g>
<!-- Node20 -->
<g id="node47" class="node"><title>Node20</title>
<a xlink:href="hfa-se-linkgraph_8c.html#a3c04138a5bfe5d72780bb7e82a18e627" target="_top" xlink:title="main">
<polygon fill="white" stroke="black" points="609,-278.5 609,-299.5 649,-299.5 649,-278.5 609,-278.5"/>
<text text-anchor="middle" x="629" y="-286.5" font-family="FreeSans" font-size="10.00">main</text>
</a>
</g>
<!-- Node19&#45;&gt;Node20 -->
<g id="edge54" class="edge"><title>Node19&#45;&gt;Node20</title>
<path fill="none" stroke="midnightblue" d="M520.864,-289C552.594,-289 587.462,-289 608.794,-289"/>
<polygon fill="midnightblue" stroke="midnightblue" points="520.694,-285.5 510.694,-289 520.694,-292.5 520.694,-285.5"/>
</g>
<!-- Node22 -->
<g id="node51" class="node"><title>Node22</title>
<a xlink:href="flow_8c.html#a93974ea83df979435eb77f3c5d4ab848" target="_top" xlink:title="Cleanup Flowdb Node (Per Index)">
<polygon fill="white" stroke="black" points="556,-120.5 556,-141.5 702,-141.5 702,-120.5 556,-120.5"/>
<text text-anchor="middle" x="629" y="-128.5" font-family="FreeSans" font-size="10.00">hfaf_flowdb_node_cleanup</text>
</a>
</g>
<!-- Node21&#45;&gt;Node22 -->
<g id="edge58" class="edge"><title>Node21&#45;&gt;Node22</title>
<path fill="none" stroke="midnightblue" d="M502.661,-177.331C508.579,-175.397 514.463,-173.282 520,-171 536.923,-164.027 539.052,-157.912 556,-151 564.761,-147.427 574.368,-144.282 583.652,-141.606"/>
<polygon fill="midnightblue" stroke="midnightblue" points="501.238,-174.107 492.722,-180.411 503.31,-180.794 501.238,-174.107"/>
</g>
<!-- Node25 -->
<g id="node57" class="node"><title>Node25</title>
<a xlink:href="flow_8h.html#abdb62c6f71f5ca9ecddc66c90166d37b" target="_top" xlink:title="Create Packet Flow in Flowdb.">
<polygon fill="white" stroke="black" points="573.5,-200.5 573.5,-221.5 684.5,-221.5 684.5,-200.5 573.5,-200.5"/>
<text text-anchor="middle" x="629" y="-208.5" font-family="FreeSans" font-size="10.00">hfaf_create_pktflow</text>
</a>
</g>
<!-- Node21&#45;&gt;Node25 -->
<g id="edge64" class="edge"><title>Node21&#45;&gt;Node25</title>
<path fill="none" stroke="midnightblue" d="M515.974,-198.442C534.86,-200.54 555.196,-202.8 573.341,-204.816"/>
<polygon fill="midnightblue" stroke="midnightblue" points="516.279,-194.954 505.953,-197.328 515.505,-201.911 516.279,-194.954"/>
</g>
<!-- Node27 -->
<g id="node61" class="node"><title>Node27</title>
<a xlink:href="flow_8h.html#a8d99fe33dc3203530d360196cc7decb4" target="_top" xlink:title="Counterpart of hfaf_create_pktflow().">
<polygon fill="white" stroke="black" points="571,-160.5 571,-181.5 687,-181.5 687,-160.5 571,-160.5"/>
<text text-anchor="middle" x="629" y="-168.5" font-family="FreeSans" font-size="10.00">hfaf_destroy_pktflow</text>
</a>
</g>
<!-- Node21&#45;&gt;Node27 -->
<g id="edge68" class="edge"><title>Node21&#45;&gt;Node27</title>
<path fill="none" stroke="midnightblue" d="M516.087,-183.546C534.088,-181.546 553.399,-179.4 570.87,-177.459"/>
<polygon fill="midnightblue" stroke="midnightblue" points="515.505,-180.089 505.953,-184.672 516.279,-187.046 515.505,-180.089"/>
</g>
<!-- Node23 -->
<g id="node53" class="node"><title>Node23</title>
<a xlink:href="flow_8h.html#a2a51025bf645e4e1eec8cac2b4f8a8c0" target="_top" xlink:title="Cleanups Flow database which was created in hfaf_flowdb_init()">
<polygon fill="white" stroke="black" points="1038.5,-120.5 1038.5,-141.5 1155.5,-141.5 1155.5,-120.5 1038.5,-120.5"/>
<text text-anchor="middle" x="1097" y="-128.5" font-family="FreeSans" font-size="10.00">hfaf_flowdb_cleanup</text>
</a>
</g>
<!-- Node22&#45;&gt;Node23 -->
<g id="edge60" class="edge"><title>Node22&#45;&gt;Node23</title>
<path fill="none" stroke="midnightblue" d="M712.15,-131C805.967,-131 956.17,-131 1038.44,-131"/>
<polygon fill="midnightblue" stroke="midnightblue" points="712.125,-127.5 702.125,-131 712.125,-134.5 712.125,-127.5"/>
</g>
<!-- Node24 -->
<g id="node55" class="node"><title>Node24</title>
<a xlink:href="hfa-se-flow-wqe_8c.html#a3c04138a5bfe5d72780bb7e82a18e627" target="_top" xlink:title="Implementation.">
<polygon fill="white" stroke="black" points="1192,-100.5 1192,-121.5 1232,-121.5 1232,-100.5 1192,-100.5"/>
<text text-anchor="middle" x="1212" y="-108.5" font-family="FreeSans" font-size="10.00">main</text>
</a>
</g>
<!-- Node23&#45;&gt;Node24 -->
<g id="edge62" class="edge"><title>Node23&#45;&gt;Node24</title>
<path fill="none" stroke="midnightblue" d="M1165.58,-119.073C1175.14,-117.411 1184.27,-115.823 1191.87,-114.501"/>
<polygon fill="midnightblue" stroke="midnightblue" points="1164.76,-115.662 1155.51,-120.824 1165.96,-122.559 1164.76,-115.662"/>
</g>
<!-- Node26 -->
<g id="node59" class="node"><title>Node26</title>
<a xlink:href="hfa-se-flow-wqe_8c.html#a6d3e23d8f7a3aaf1b0d6e350b7631a0e" target="_top" xlink:title="Get flow pointer from Flow database, If flow ptr is NULL then create at runtime.">
<polygon fill="white" stroke="black" points="771.5,-200.5 771.5,-221.5 840.5,-221.5 840.5,-200.5 771.5,-200.5"/>
<text text-anchor="middle" x="806" y="-208.5" font-family="FreeSans" font-size="10.00">get_flowptr</text>
</a>
</g>
<!-- Node25&#45;&gt;Node26 -->
<g id="edge66" class="edge"><title>Node25&#45;&gt;Node26</title>
<path fill="none" stroke="midnightblue" d="M694.693,-211C720.674,-211 749.469,-211 771.261,-211"/>
<polygon fill="midnightblue" stroke="midnightblue" points="694.518,-207.5 684.518,-211 694.518,-214.5 694.518,-207.5"/>
</g>
<!-- Node29 -->
<g id="node65" class="node"><title>Node29</title>
<a xlink:href="flow_8h.html#ab1b3378af88a440a6c3c0851be942e65" target="_top" xlink:title="All submitted search parameters in Paramlist of flow are polled If low level API __hfaf_process_pktfl...">
<polygon fill="white" stroke="black" points="569.5,-80.5 569.5,-101.5 688.5,-101.5 688.5,-80.5 569.5,-80.5"/>
<text text-anchor="middle" x="629" y="-88.5" font-family="FreeSans" font-size="10.00">hfaf_process_pktflow</text>
</a>
</g>
<!-- Node28&#45;&gt;Node29 -->
<g id="edge72" class="edge"><title>Node28&#45;&gt;Node29</title>
<path fill="none" stroke="midnightblue" d="M524.07,-96.8294C539.171,-95.9905 554.849,-95.1195 569.338,-94.3146"/>
<polygon fill="midnightblue" stroke="midnightblue" points="523.52,-93.3545 513.73,-97.4039 523.909,-100.344 523.52,-93.3545"/>
</g>
<!-- Node30 -->
<g id="node67" class="node"><title>Node30</title>
<a xlink:href="hfa-se-flow_8c.html#a2d83c733eacd7afc955c3af18edcb52a" target="_top" xlink:title="Polls for a submitted search instruction of a flow.">
<polygon fill="white" stroke="black" points="763.5,-80.5 763.5,-101.5 848.5,-101.5 848.5,-80.5 763.5,-80.5"/>
<text text-anchor="middle" x="806" y="-88.5" font-family="FreeSans" font-size="10.00">__processflow</text>
</a>
</g>
<!-- Node29&#45;&gt;Node30 -->
<g id="edge74" class="edge"><title>Node29&#45;&gt;Node30</title>
<path fill="none" stroke="midnightblue" d="M699.122,-91C720.878,-91 744.185,-91 763.463,-91"/>
<polygon fill="midnightblue" stroke="midnightblue" points="698.924,-87.5001 688.924,-91 698.924,-94.5001 698.924,-87.5001"/>
</g>
<!-- Node31 -->
<g id="node69" class="node"><title>Node31</title>
<a xlink:href="hfa-se-flow_8c.html#a786591694a8f8fb46cedbc8a580c88f6" target="_top" xlink:title="Submitting or Polling flows from the software recently used cache IF Cache is empty, it tries to refill it.">
<polygon fill="white" stroke="black" points="924.5,-80.5 924.5,-101.5 987.5,-101.5 987.5,-80.5 924.5,-80.5"/>
<text text-anchor="middle" x="956" y="-88.5" font-family="FreeSans" font-size="10.00">do_cache</text>
</a>
</g>
<!-- Node30&#45;&gt;Node31 -->
<g id="edge76" class="edge"><title>Node30&#45;&gt;Node31</title>
<path fill="none" stroke="midnightblue" d="M858.735,-91C880.613,-91 905.272,-91 924.286,-91"/>
<polygon fill="midnightblue" stroke="midnightblue" points="858.583,-87.5001 848.583,-91 858.583,-94.5001 858.583,-87.5001"/>
</g>
<!-- Node32 -->
<g id="node71" class="node"><title>Node32</title>
<a xlink:href="hfa-se-flow_8c.html#aba72a61590283e37ffd78b4defd38220" target="_top" xlink:title="Receive network packets and process.">
<polygon fill="white" stroke="black" points="1049,-80.5 1049,-101.5 1145,-101.5 1145,-80.5 1049,-80.5"/>
<text text-anchor="middle" x="1097" y="-88.5" font-family="FreeSans" font-size="10.00">process_packets</text>
</a>
</g>
<!-- Node31&#45;&gt;Node32 -->
<g id="edge78" class="edge"><title>Node31&#45;&gt;Node32</title>
<path fill="none" stroke="midnightblue" d="M997.793,-91C1013.83,-91 1032.25,-91 1048.84,-91"/>
<polygon fill="midnightblue" stroke="midnightblue" points="997.643,-87.5001 987.643,-91 997.643,-94.5001 997.643,-87.5001"/>
</g>
<!-- Node32&#45;&gt;Node24 -->
<g id="edge80" class="edge"><title>Node32&#45;&gt;Node24</title>
<path fill="none" stroke="midnightblue" d="M1155.16,-101.115C1168.37,-103.412 1181.52,-105.7 1191.85,-107.496"/>
<polygon fill="midnightblue" stroke="midnightblue" points="1155.56,-97.6312 1145.1,-99.3659 1154.36,-104.528 1155.56,-97.6312"/>
</g>
<!-- Node34 -->
<g id="node76" class="node"><title>Node34</title>
<a xlink:href="hfa-lnx-async_8c.html#a1e97b1d598034fdc92d57054a6c386e6" target="_top" xlink:title="tasklet_callback">
<polygon fill="white" stroke="black" points="910,-299.5 910,-320.5 1002,-320.5 1002,-299.5 910,-299.5"/>
<text text-anchor="middle" x="956" y="-307.5" font-family="FreeSans" font-size="10.00">tasklet_callback</text>
</a>
</g>
<!-- Node33&#45;&gt;Node34 -->
<g id="edge84" class="edge"><title>Node33&#45;&gt;Node34</title>
<path fill="none" stroke="midnightblue" d="M855.233,-283.129C875.141,-288.438 897.806,-294.482 916.592,-299.491"/>
<polygon fill="midnightblue" stroke="midnightblue" points="855.975,-279.704 845.411,-280.51 854.171,-286.468 855.975,-279.704"/>
</g>
<!-- Node35 -->
<g id="node79" class="node"><title>Node35</title>
<a xlink:href="hfa-lnx-async_8c.html#a7dea7d59754828b1173c4c7ec5d42f3e" target="_top" xlink:title="thread_callback">
<polygon fill="white" stroke="black" points="910,-259.5 910,-280.5 1002,-280.5 1002,-259.5 910,-259.5"/>
<text text-anchor="middle" x="956" y="-267.5" font-family="FreeSans" font-size="10.00">thread_callback</text>
</a>
</g>
<!-- Node33&#45;&gt;Node35 -->
<g id="edge88" class="edge"><title>Node33&#45;&gt;Node35</title>
<path fill="none" stroke="midnightblue" d="M862.343,-270C878.037,-270 894.895,-270 909.924,-270"/>
<polygon fill="midnightblue" stroke="midnightblue" points="862.229,-266.5 852.229,-270 862.229,-273.5 862.229,-266.5"/>
</g>
<!-- Node34&#45;&gt;Node5 -->
<g id="edge86" class="edge"><title>Node34&#45;&gt;Node5</title>
<path fill="none" stroke="midnightblue" d="M1012.37,-317.995C1034.94,-321.198 1059.54,-324.686 1076.37,-327.073"/>
<polygon fill="midnightblue" stroke="midnightblue" points="1012.56,-314.488 1002.17,-316.549 1011.58,-321.419 1012.56,-314.488"/>
</g>
<!-- Node35&#45;&gt;Node5 -->
<g id="edge90" class="edge"><title>Node35&#45;&gt;Node5</title>
<path fill="none" stroke="midnightblue" d="M990.333,-284.61C1017.29,-296.08 1053.92,-311.668 1076.48,-321.269"/>
<polygon fill="midnightblue" stroke="midnightblue" points="991.455,-281.284 980.883,-280.589 988.714,-287.725 991.455,-281.284"/>
</g>
<!-- Node36&#45;&gt;Node6 -->
<g id="edge94" class="edge"><title>Node36&#45;&gt;Node6</title>
<path fill="none" stroke="midnightblue" d="M492.891,-598C597.739,-598 859.66,-598 935.266,-598"/>
<polygon fill="midnightblue" stroke="midnightblue" points="492.658,-594.5 482.658,-598 492.658,-601.5 492.658,-594.5"/>
</g>
<!-- Node37 -->
<g id="node85" class="node"><title>Node37</title>
<a xlink:href="hfa-lnx-ctx_8c.html#a3c1f07835ef5be8d3adfbaf09af5ca28" target="_top" xlink:title="core_exit">
<polygon fill="white" stroke="black" points="599,-626.5 599,-647.5 659,-647.5 659,-626.5 599,-626.5"/>
<text text-anchor="middle" x="629" y="-634.5" font-family="FreeSans" font-size="10.00">core_exit</text>
</a>
</g>
<!-- Node36&#45;&gt;Node37 -->
<g id="edge96" class="edge"><title>Node36&#45;&gt;Node37</title>
<path fill="none" stroke="midnightblue" d="M492.675,-607.463C525.581,-614.593 569.846,-624.183 598.885,-630.475"/>
<polygon fill="midnightblue" stroke="midnightblue" points="493.371,-604.033 482.857,-605.336 491.889,-610.874 493.371,-604.033"/>
</g>
<!-- Node37&#45;&gt;Node15 -->
<g id="edge102" class="edge"><title>Node37&#45;&gt;Node15</title>
<path fill="none" stroke="midnightblue" d="M669.213,-646.088C707.057,-654.64 761.88,-667.029 789.204,-673.204"/>
<polygon fill="midnightblue" stroke="midnightblue" points="669.551,-642.576 659.026,-643.785 668.008,-649.404 669.551,-642.576"/>
</g>
<!-- Node38 -->
<g id="node87" class="node"><title>Node38</title>
<a xlink:href="hfa-lnx-ctx_8c.html#a4c3443f524b4c0d95639694f0b74e850" target="_top" xlink:title="Process command line options, Read graph and payload.">
<polygon fill="white" stroke="black" points="759,-626.5 759,-647.5 853,-647.5 853,-626.5 759,-626.5"/>
<text text-anchor="middle" x="806" y="-634.5" font-family="FreeSans" font-size="10.00">process_options</text>
</a>
</g>
<!-- Node37&#45;&gt;Node38 -->
<g id="edge98" class="edge"><title>Node37&#45;&gt;Node38</title>
<path fill="none" stroke="midnightblue" d="M669.149,-637C695.779,-637 730.836,-637 758.802,-637"/>
<polygon fill="midnightblue" stroke="midnightblue" points="669.026,-633.5 659.026,-637 669.026,-640.5 669.026,-633.5"/>
</g>
<!-- Node38&#45;&gt;Node6 -->
<g id="edge100" class="edge"><title>Node38&#45;&gt;Node6</title>
<path fill="none" stroke="midnightblue" d="M856.618,-623.839C883.462,-616.86 914.982,-608.665 935.208,-603.406"/>
<polygon fill="midnightblue" stroke="midnightblue" points="855.39,-620.542 846.592,-626.446 857.151,-627.317 855.39,-620.542"/>
</g>
<!-- Node40 -->
<g id="node93" class="node"><title>Node40</title>
<a xlink:href="hfa-lnx-ctx_8c.html#a934a9fc08c4aab25d6f0d861e4a4f762" target="_top" xlink:title="poll">
<polygon fill="white" stroke="black" points="612.5,-0.5 612.5,-21.5 645.5,-21.5 645.5,-0.5 612.5,-0.5"/>
<text text-anchor="middle" x="629" y="-8.5" font-family="FreeSans" font-size="10.00">poll</text>
</a>
</g>
<!-- Node39&#45;&gt;Node40 -->
<g id="edge106" class="edge"><title>Node39&#45;&gt;Node40</title>
<path fill="none" stroke="midnightblue" d="M502.36,-12.4071C539.738,-11.9918 587.283,-11.4635 612.133,-11.1874"/>
<polygon fill="midnightblue" stroke="midnightblue" points="502.075,-8.90997 492.114,-12.521 502.153,-15.9095 502.075,-8.90997"/>
</g>
<!-- Node41 -->
<g id="node95" class="node"><title>Node41</title>
<a xlink:href="hfa-lnx-ctx_8c.html#a97df0ba8293c1b8436547946fd9d0d17" target="_top" xlink:title="process_pkt">
<polygon fill="white" stroke="black" points="769,-0.5 769,-21.5 843,-21.5 843,-0.5 769,-0.5"/>
<text text-anchor="middle" x="806" y="-8.5" font-family="FreeSans" font-size="10.00">process_pkt</text>
</a>
</g>
<!-- Node40&#45;&gt;Node41 -->
<g id="edge108" class="edge"><title>Node40&#45;&gt;Node41</title>
<path fill="none" stroke="midnightblue" d="M655.844,-11C686.017,-11 735.194,-11 768.998,-11"/>
<polygon fill="midnightblue" stroke="midnightblue" points="655.652,-7.5001 645.652,-11 655.652,-14.5001 655.652,-7.5001"/>
</g>
<!-- Node43 -->
<g id="node99" class="node"><title>Node43</title>
<a xlink:href="hfa-lnx-nctx-lock_8c.html#a972f8b60ef804914c009c2ef85bac50e" target="_top" xlink:title="Performs search process for each core.">
<polygon fill="white" stroke="black" points="583,-40.5 583,-61.5 675,-61.5 675,-40.5 583,-40.5"/>
<text text-anchor="middle" x="629" y="-48.5" font-family="FreeSans" font-size="10.00">process_search</text>
</a>
</g>
<!-- Node42&#45;&gt;Node43 -->
<g id="edge112" class="edge"><title>Node42&#45;&gt;Node43</title>
<path fill="none" stroke="midnightblue" d="M475.889,-55.2531C504.067,-54.4704 548.86,-53.2261 582.733,-52.2852"/>
<polygon fill="midnightblue" stroke="midnightblue" points="475.51,-51.7622 465.611,-55.5386 475.705,-58.7595 475.51,-51.7622"/>
</g>
</g>
</svg>
        <g id="navigator" transform="translate(0 0)" fill="#404254">
                <rect fill="#f2f5e9" fill-opacity="0.5" stroke="#606060" stroke-width=".5" x="0" y="0" width="60" height="60"/>
                <use id="zoomplus" xlink:href="#zoomPlus" x="17" y="9" onmousedown="handleZoom(evt,'in')"/>
                <use id="zoomminus" xlink:href="#zoomMin" x="42" y="9" onmousedown="handleZoom(evt,'out')"/>
                <use id="reset" xlink:href="#resetDef" x="30" y="36" onmousedown="handleReset()"/>
                <g id="arrowUp" xlink:href="#dirArrow" transform="translate(30 24)" onmousedown="handlePan(0,-1)">
                  <use xlink:href="#rim" fill="#404040">
                        <set attributeName="fill" to="#808080" begin="arrowUp.mouseover" end="arrowUp.mouseout"/>
                  </use>
                  <path fill="none" stroke="white" stroke-width="1.5" d="M0,-3.0v7 M-2.5,-0.5L0,-3.0L2.5,-0.5"/>
                </g>
                <g id="arrowRight" xlink:href="#dirArrow" transform="rotate(90) translate(36 -43)" onmousedown="handlePan(1,0)">
                  <use xlink:href="#rim" fill="#404040">
                        <set attributeName="fill" to="#808080" begin="arrowRight.mouseover" end="arrowRight.mouseout"/>
                  </use>
                  <path fill="none" stroke="white" stroke-width="1.5" d="M0,-3.0v7 M-2.5,-0.5L0,-3.0L2.5,-0.5"/>
                </g>
                <g id="arrowDown" xlink:href="#dirArrow" transform="rotate(180) translate(-30 -48)" onmousedown="handlePan(0,1)">
                  <use xlink:href="#rim" fill="#404040">
                        <set attributeName="fill" to="#808080" begin="arrowDown.mouseover" end="arrowDown.mouseout"/>
                  </use>
                  <path fill="none" stroke="white" stroke-width="1.5" d="M0,-3.0v7 M-2.5,-0.5L0,-3.0L2.5,-0.5"/>
                </g>
                <g id="arrowLeft" xlink:href="#dirArrow" transform="rotate(270) translate(-36 17)" onmousedown="handlePan(-1,0)">
                  <use xlink:href="#rim" fill="#404040">
                        <set attributeName="fill" to="#808080" begin="arrowLeft.mouseover" end="arrowLeft.mouseout"/>
                  </use>
                  <path fill="none" stroke="white" stroke-width="1.5" d="M0,-3.0v7 M-2.5,-0.5L0,-3.0L2.5,-0.5"/>
                </g>
        </g>
        <svg viewBox="0 0 15 15" width="100%" height="30px" preserveAspectRatio="xMaxYMin meet">
         <g id="arrow_out" transform="scale(0.3 0.3)">
          <a xlink:href="cvm-hfa_8c_a4753d2dd586e19676b1a59dd16baaeed_icgraph_org.svg" target="_base">
           <rect id="button" ry="5" rx="5" y="6" x="6" height="38" width="38"
                fill="#f2f5e9" fill-opacity="0.5" stroke="#606060" stroke-width="1.0"/>
           <path id="arrow"
             d="M 11.500037,31.436501 C 11.940474,20.09759 22.043105,11.32322 32.158766,21.979434 L 37.068811,17.246167 C 37.068811,17.246167 37.088388,32 37.088388,32 L 22.160133,31.978069 C 22.160133,31.978069 26.997745,27.140456 26.997745,27.140456 C 18.528582,18.264221 13.291696,25.230495 11.500037,31.436501 z"
             style="fill:#404040;"/>
          </a>
         </g>
        </svg>
</svg>
