<?xml version="1.0" encoding="UTF-8" standalone="no"?>
<!DOCTYPE svg PUBLIC "-//W3C//DTD SVG 1.1//EN"
 "http://www.w3.org/Graphics/SVG/1.1/DTD/svg11.dtd">
<!-- Generated by graphviz version 2.24.0 (20090616.2323)
 -->
<!-- Title: hfa_cluster_setcache Pages: 1 -->
<svg width="512pt" height="42pt"
 viewBox="0.00 0.00 512.00 42.00" xmlns="http://www.w3.org/2000/svg" xmlns:xlink="http://www.w3.org/1999/xlink">
<g id="graph1" class="graph" transform="scale(1 1) rotate(0) translate(4 38)">
<title>hfa_cluster_setcache</title>
<polygon fill="white" stroke="white" points="-4,5 -4,-38 509,-38 509,5 -4,5"/>
<!-- Node1 -->
<g id="node1" class="node"><title>Node1</title>
<polygon fill="#bfbfbf" stroke="black" points="0.5,-6.5 0.5,-27.5 119.5,-27.5 119.5,-6.5 0.5,-6.5"/>
<text text-anchor="middle" x="60" y="-14.5" font-family="FreeSans" font-size="10.00">hfa_cluster_setcache</text>
</g>
<!-- Node2 -->
<g id="node3" class="node"><title>Node2</title>
<a xlink:href="cvm-hfa-cluster_8c.html#aa0d1e40097e956ad06c9f7c454f77b80" target="_top" xlink:title="The HFA device consists of one or more clusters.">
<polygon fill="white" stroke="black" points="156,-6.5 156,-27.5 244,-27.5 244,-6.5 156,-6.5"/>
<text text-anchor="middle" x="200" y="-14.5" font-family="FreeSans" font-size="10.00">hfa_cluster_init</text>
</a>
</g>
<!-- Node1&#45;&gt;Node2 -->
<g id="edge2" class="edge"><title>Node1&#45;&gt;Node2</title>
<path fill="none" stroke="midnightblue" d="M130.002,-17C138.739,-17 147.476,-17 155.669,-17"/>
<polygon fill="midnightblue" stroke="midnightblue" points="129.779,-13.5001 119.779,-17 129.779,-20.5001 129.779,-13.5001"/>
</g>
<!-- Node3 -->
<g id="node5" class="node"><title>Node3</title>
<a xlink:href="hfa-lnx-async_8c.html#abc17fab65a320998a273d112ff24d658" target="_top" xlink:title="Configure cluster memory resources.">
<polygon fill="white" stroke="black" points="280,-0 280,-34 426,-34 426,-0 280,-0"/>
<text text-anchor="start" x="288" y="-21" font-family="FreeSans" font-size="10.00">configure_cluster_memory</text>
<text text-anchor="middle" x="353" y="-8" font-family="FreeSans" font-size="10.00">_resources</text>
</a>
</g>
<!-- Node2&#45;&gt;Node3 -->
<g id="edge4" class="edge"><title>Node2&#45;&gt;Node3</title>
<path fill="none" stroke="midnightblue" d="M254.42,-17C262.628,-17 271.206,-17 279.731,-17"/>
<polygon fill="midnightblue" stroke="midnightblue" points="254.254,-13.5001 244.254,-17 254.254,-20.5001 254.254,-13.5001"/>
</g>
<!-- Node4 -->
<g id="node7" class="node"><title>Node4</title>
<a xlink:href="hfa-lnx-async_8c.html#a78ffddbcd7cdd164889cfb53ea367886" target="_top" xlink:title="entry">
<polygon fill="white" stroke="black" points="462.5,-6.5 462.5,-27.5 503.5,-27.5 503.5,-6.5 462.5,-6.5"/>
<text text-anchor="middle" x="483" y="-14.5" font-family="FreeSans" font-size="10.00">entry</text>
</a>
</g>
<!-- Node3&#45;&gt;Node4 -->
<g id="edge6" class="edge"><title>Node3&#45;&gt;Node4</title>
<path fill="none" stroke="midnightblue" d="M436.471,-17C446.011,-17 454.972,-17 462.435,-17"/>
<polygon fill="midnightblue" stroke="midnightblue" points="436.358,-13.5001 426.358,-17 436.358,-20.5001 436.358,-13.5001"/>
</g>
</g>
</svg>
