<?xml version="1.0" encoding="UTF-8" standalone="no"?>
<!DOCTYPE svg PUBLIC "-//W3C//DTD SVG 1.1//EN"
 "http://www.w3.org/Graphics/SVG/1.1/DTD/svg11.dtd">
<!-- Generated by graphviz version 2.24.0 (20090616.2323)
 -->
<!-- Title: hfa_free_named_block Pages: 1 -->
<svg width="804pt" height="82pt"
 viewBox="0.00 0.00 804.00 82.00" xmlns="http://www.w3.org/2000/svg" xmlns:xlink="http://www.w3.org/1999/xlink">
<g id="graph1" class="graph" transform="scale(1 1) rotate(0) translate(4 78)">
<title>hfa_free_named_block</title>
<polygon fill="white" stroke="white" points="-4,5 -4,-78 801,-78 801,5 -4,5"/>
<!-- Node1 -->
<g id="node1" class="node"><title>Node1</title>
<polygon fill="#bfbfbf" stroke="black" points="0,-29.5 0,-50.5 126,-50.5 126,-29.5 0,-29.5"/>
<text text-anchor="middle" x="63" y="-37.5" font-family="FreeSans" font-size="10.00">hfa_free_named_block</text>
</g>
<!-- Node2 -->
<g id="node3" class="node"><title>Node2</title>
<a xlink:href="cvm-hfa_8c.html#a199331bc34e479a3defde18ae38a1d49" target="_top" xlink:title="This is a utility routine to find or allocate a named block.">
<polygon fill="white" stroke="black" points="162.5,-50.5 162.5,-71.5 287.5,-71.5 287.5,-50.5 162.5,-50.5"/>
<text text-anchor="middle" x="225" y="-58.5" font-family="FreeSans" font-size="10.00">hfa_find_named_block</text>
</a>
</g>
<!-- Node1&#45;&gt;Node2 -->
<g id="edge2" class="edge"><title>Node1&#45;&gt;Node2</title>
<path fill="none" stroke="midnightblue" d="M136.246,-49.4949C144.96,-50.6244 153.794,-51.7696 162.341,-52.8776"/>
<polygon fill="midnightblue" stroke="midnightblue" points="136.464,-45.9939 126.097,-48.1793 135.564,-52.9359 136.464,-45.9939"/>
</g>
<!-- Node8 -->
<g id="node15" class="node"><title>Node8</title>
<a xlink:href="hfa-se-async_8c.html#abc17fab65a320998a273d112ff24d658" target="_top" xlink:title="Configure cluster memory resources.">
<polygon fill="white" stroke="black" points="324,-0 324,-34 470,-34 470,-0 324,-0"/>
<text text-anchor="start" x="332" y="-21" font-family="FreeSans" font-size="10.00">configure_cluster_memory</text>
<text text-anchor="middle" x="397" y="-8" font-family="FreeSans" font-size="10.00">_resources</text>
</a>
</g>
<!-- Node1&#45;&gt;Node8 -->
<g id="edge14" class="edge"><title>Node1&#45;&gt;Node8</title>
<path fill="none" stroke="midnightblue" d="M136.364,-34.948C192.044,-31.1137 268.244,-25.8664 323.867,-22.0361"/>
<polygon fill="midnightblue" stroke="midnightblue" points="135.951,-31.468 126.216,-35.6468 136.432,-38.4515 135.951,-31.468"/>
</g>
<!-- Node3 -->
<g id="node5" class="node"><title>Node3</title>
<a xlink:href="cvm-hfa-stats_8c.html#ab70d294575883530a6ecd321a2a09fc3" target="_top" xlink:title="Create ARENA for hfa statistics.">
<polygon fill="white" stroke="black" points="333,-52.5 333,-73.5 461,-73.5 461,-52.5 333,-52.5"/>
<text text-anchor="middle" x="397" y="-60.5" font-family="FreeSans" font-size="10.00">hfa_stats_create_arena</text>
</a>
</g>
<!-- Node2&#45;&gt;Node3 -->
<g id="edge4" class="edge"><title>Node2&#45;&gt;Node3</title>
<path fill="none" stroke="midnightblue" d="M297.701,-61.8454C309.338,-61.9807 321.308,-62.1199 332.731,-62.2527"/>
<polygon fill="midnightblue" stroke="midnightblue" points="297.623,-58.3443 287.583,-61.7277 297.541,-65.3438 297.623,-58.3443"/>
</g>
<!-- Node4 -->
<g id="node7" class="node"><title>Node4</title>
<a xlink:href="cvm-hfa-stats_8h.html#a69100ad9ae17fc0ec07982ea8b90c5df" target="_top" xlink:title="This routine allocates memory for counters to maintain statistics of each processing core...">
<polygon fill="white" stroke="black" points="506,-51.5 506,-72.5 608,-72.5 608,-51.5 506,-51.5"/>
<text text-anchor="middle" x="557" y="-59.5" font-family="FreeSans" font-size="10.00">hfa_dev_stats_init</text>
</a>
</g>
<!-- Node3&#45;&gt;Node4 -->
<g id="edge6" class="edge"><title>Node3&#45;&gt;Node4</title>
<path fill="none" stroke="midnightblue" d="M471.293,-62.5357C482.903,-62.4631 494.674,-62.3895 505.622,-62.3211"/>
<polygon fill="midnightblue" stroke="midnightblue" points="471.134,-59.0365 461.156,-62.599 471.178,-66.0364 471.134,-59.0365"/>
</g>
<!-- Node5 -->
<g id="node9" class="node"><title>Node5</title>
<a xlink:href="cvm-hfa_8c.html#a873768042b716d60996ec5d858fc8fd9" target="_top" xlink:title="This function must be called by application to initialize HFA engine and setup resources for HFA hard...">
<polygon fill="white" stroke="black" points="644,-50.5 644,-71.5 718,-71.5 718,-50.5 644,-50.5"/>
<text text-anchor="middle" x="681" y="-58.5" font-family="FreeSans" font-size="10.00">hfa_dev_init</text>
</a>
</g>
<!-- Node4&#45;&gt;Node5 -->
<g id="edge8" class="edge"><title>Node4&#45;&gt;Node5</title>
<path fill="none" stroke="midnightblue" d="M618.375,-61.505C627.126,-61.4345 635.893,-61.3638 643.98,-61.2986"/>
<polygon fill="midnightblue" stroke="midnightblue" points="618.123,-58.0069 608.151,-61.5875 618.179,-65.0066 618.123,-58.0069"/>
</g>
<!-- Node6 -->
<g id="node11" class="node"><title>Node6</title>
<a xlink:href="hfa-lnx-async_8c.html#a78ffddbcd7cdd164889cfb53ea367886" target="_top" xlink:title="entry">
<polygon fill="white" stroke="black" points="754.5,-50.5 754.5,-71.5 795.5,-71.5 795.5,-50.5 754.5,-50.5"/>
<text text-anchor="middle" x="775" y="-58.5" font-family="FreeSans" font-size="10.00">entry</text>
</a>
</g>
<!-- Node5&#45;&gt;Node6 -->
<g id="edge10" class="edge"><title>Node5&#45;&gt;Node6</title>
<path fill="none" stroke="midnightblue" d="M728.393,-61C737.522,-61 746.631,-61 754.342,-61"/>
<polygon fill="midnightblue" stroke="midnightblue" points="728.151,-57.5001 718.151,-61 728.151,-64.5001 728.151,-57.5001"/>
</g>
<!-- Node7 -->
<g id="node13" class="node"><title>Node7</title>
<a xlink:href="hfa-se-async_8c.html#a3c04138a5bfe5d72780bb7e82a18e627" target="_top" xlink:title="main">
<polygon fill="white" stroke="black" points="755,-10.5 755,-31.5 795,-31.5 795,-10.5 755,-10.5"/>
<text text-anchor="middle" x="775" y="-18.5" font-family="FreeSans" font-size="10.00">main</text>
</a>
</g>
<!-- Node5&#45;&gt;Node7 -->
<g id="edge12" class="edge"><title>Node5&#45;&gt;Node7</title>
<path fill="none" stroke="midnightblue" d="M715.089,-46.494C728.447,-40.8097 743.314,-34.4835 754.896,-29.5549"/>
<polygon fill="midnightblue" stroke="midnightblue" points="713.528,-43.3543 705.697,-50.4905 716.269,-49.7954 713.528,-43.3543"/>
</g>
<!-- Node8&#45;&gt;Node7 -->
<g id="edge16" class="edge"><title>Node8&#45;&gt;Node7</title>
<path fill="none" stroke="midnightblue" d="M480.397,-17.8825C569.302,-18.8233 704.117,-20.2499 754.796,-20.7862"/>
<polygon fill="midnightblue" stroke="midnightblue" points="480.367,-14.3821 470.33,-17.776 480.293,-21.3817 480.367,-14.3821"/>
</g>
</g>
</svg>
