<?xml version="1.0" encoding="UTF-8" standalone="no"?>
<!DOCTYPE svg PUBLIC "-//W3C//DTD SVG 1.1//EN"
 "http://www.w3.org/Graphics/SVG/1.1/DTD/svg11.dtd">
<!-- Generated by graphviz version 2.24.0 (20090616.2323)
 -->
<!-- Title: hfa_dev_haspvt_hfamemory Pages: 1 -->
<svg width="880pt" height="155pt"
 viewBox="0.00 0.00 880.00 155.00" xmlns="http://www.w3.org/2000/svg" xmlns:xlink="http://www.w3.org/1999/xlink">
<g id="graph1" class="graph" transform="scale(1 1) rotate(0) translate(4 151)">
<title>hfa_dev_haspvt_hfamemory</title>
<polygon fill="white" stroke="white" points="-4,5 -4,-151 877,-151 877,5 -4,5"/>
<!-- Node1 -->
<g id="node1" class="node"><title>Node1</title>
<polygon fill="#bfbfbf" stroke="black" points="0.5,-46.5 0.5,-67.5 155.5,-67.5 155.5,-46.5 0.5,-46.5"/>
<text text-anchor="middle" x="78" y="-54.5" font-family="FreeSans" font-size="10.00">hfa_dev_haspvt_hfamemory</text>
</g>
<!-- Node2 -->
<g id="node3" class="node"><title>Node2</title>
<a xlink:href="cvm-hfa-graph_8c.html#a647ccf649077cb5170221218ab2cdccf" target="_top" xlink:title="This routine downloads graph data to the HFA engine in a non&#45;blocking manner.">
<polygon fill="white" stroke="black" points="192,-86 192,-120 334,-120 334,-86 192,-86"/>
<text text-anchor="start" x="200" y="-107" font-family="FreeSans" font-size="10.00">hfa_graph_memload_data</text>
<text text-anchor="middle" x="263" y="-94" font-family="FreeSans" font-size="10.00">_async</text>
</a>
</g>
<!-- Node1&#45;&gt;Node2 -->
<g id="edge2" class="edge"><title>Node1&#45;&gt;Node2</title>
<path fill="none" stroke="midnightblue" d="M130.236,-69.9884C150.126,-74.934 173.102,-80.6469 194.291,-85.9155"/>
<polygon fill="midnightblue" stroke="midnightblue" points="130.992,-66.5698 120.443,-67.5533 129.303,-73.363 130.992,-66.5698"/>
</g>
<!-- Node8 -->
<g id="node16" class="node"><title>Node8</title>
<a xlink:href="hfa-lnx-async_8c.html#abc17fab65a320998a273d112ff24d658" target="_top" xlink:title="Configure cluster memory resources.">
<polygon fill="white" stroke="black" points="370,-40 370,-74 516,-74 516,-40 370,-40"/>
<text text-anchor="start" x="378" y="-61" font-family="FreeSans" font-size="10.00">configure_cluster_memory</text>
<text text-anchor="middle" x="443" y="-48" font-family="FreeSans" font-size="10.00">_resources</text>
</a>
</g>
<!-- Node1&#45;&gt;Node8 -->
<g id="edge16" class="edge"><title>Node1&#45;&gt;Node8</title>
<path fill="none" stroke="midnightblue" d="M166.078,-57C228.472,-57 311.188,-57 369.926,-57"/>
<polygon fill="midnightblue" stroke="midnightblue" points="165.854,-53.5001 155.854,-57 165.854,-60.5001 165.854,-53.5001"/>
</g>
<!-- Node9 -->
<g id="node19" class="node"><title>Node9</title>
<a xlink:href="hfa-se-async_8c.html#ab7c49f9e444155d2c083420cad401793" target="_top" xlink:title="Cleanup cluster memory resources.">
<polygon fill="white" stroke="black" points="217,-4.5 217,-25.5 309,-25.5 309,-4.5 217,-4.5"/>
<text text-anchor="middle" x="263" y="-12.5" font-family="FreeSans" font-size="10.00">cluster_cleanup</text>
</a>
</g>
<!-- Node1&#45;&gt;Node9 -->
<g id="edge20" class="edge"><title>Node1&#45;&gt;Node9</title>
<path fill="none" stroke="midnightblue" d="M134.558,-44.1597C160.974,-38.1626 192.021,-31.1142 216.972,-25.4495"/>
<polygon fill="midnightblue" stroke="midnightblue" points="133.66,-40.7745 124.683,-46.4016 135.21,-47.6008 133.66,-40.7745"/>
</g>
<!-- Node3 -->
<g id="node5" class="node"><title>Node3</title>
<a xlink:href="app-utils_8c.html#aed95bb72627cff313c596ebcfcd8af61" target="_top" xlink:title="Parse graph into chunks and load graph to HFA memory.">
<polygon fill="white" stroke="black" points="552.5,-108.5 552.5,-129.5 687.5,-129.5 687.5,-108.5 552.5,-108.5"/>
<text text-anchor="middle" x="620" y="-116.5" font-family="FreeSans" font-size="10.00">hfautils_download_graph</text>
</a>
</g>
<!-- Node2&#45;&gt;Node3 -->
<g id="edge4" class="edge"><title>Node2&#45;&gt;Node3</title>
<path fill="none" stroke="midnightblue" d="M344.241,-119.803C352.906,-121.111 361.614,-122.223 370,-123 431.593,-128.707 502.078,-126.821 552.471,-124.027"/>
<polygon fill="midnightblue" stroke="midnightblue" points="344.538,-116.306 334.112,-118.187 343.435,-123.219 344.538,-116.306"/>
</g>
<!-- Node7 -->
<g id="node13" class="node"><title>Node7</title>
<a xlink:href="cvm-hfa-graph_8c.html#a9e3f1a4bf2be683265108b5131541e89" target="_top" xlink:title="This routine downloads graph data to the HFA engine in a blocking manner.">
<polygon fill="white" stroke="black" points="372,-92.5 372,-113.5 514,-113.5 514,-92.5 372,-92.5"/>
<text text-anchor="middle" x="443" y="-100.5" font-family="FreeSans" font-size="10.00">hfa_graph_memload_data</text>
</a>
</g>
<!-- Node2&#45;&gt;Node7 -->
<g id="edge12" class="edge"><title>Node2&#45;&gt;Node7</title>
<path fill="none" stroke="midnightblue" d="M344.389,-103C353.529,-103 362.789,-103 371.787,-103"/>
<polygon fill="midnightblue" stroke="midnightblue" points="344.141,-99.5001 334.141,-103 344.141,-106.5 344.141,-99.5001"/>
</g>
<!-- Node4 -->
<g id="node7" class="node"><title>Node4</title>
<a xlink:href="hfa-lnx-async_8c.html#a546f3769e735d4bef0bfab1cba56921c" target="_top" xlink:title="Load graph to HFA memory and cache.">
<polygon fill="white" stroke="black" points="724.5,-125.5 724.5,-146.5 793.5,-146.5 793.5,-125.5 724.5,-125.5"/>
<text text-anchor="middle" x="759" y="-133.5" font-family="FreeSans" font-size="10.00">graph_load</text>
</a>
</g>
<!-- Node3&#45;&gt;Node4 -->
<g id="edge6" class="edge"><title>Node3&#45;&gt;Node4</title>
<path fill="none" stroke="midnightblue" d="M697.959,-128.535C707.212,-129.666 716.262,-130.773 724.44,-131.773"/>
<polygon fill="midnightblue" stroke="midnightblue" points="698.222,-125.041 687.871,-127.301 697.372,-131.989 698.222,-125.041"/>
</g>
<!-- Node6 -->
<g id="node11" class="node"><title>Node6</title>
<a xlink:href="hfa-lnx-ctx_8c.html#a78ffddbcd7cdd164889cfb53ea367886" target="_top" xlink:title="entry">
<polygon fill="white" stroke="black" points="738.5,-85.5 738.5,-106.5 779.5,-106.5 779.5,-85.5 738.5,-85.5"/>
<text text-anchor="middle" x="759" y="-93.5" font-family="FreeSans" font-size="10.00">entry</text>
</a>
</g>
<!-- Node3&#45;&gt;Node6 -->
<g id="edge10" class="edge"><title>Node3&#45;&gt;Node6</title>
<path fill="none" stroke="midnightblue" d="M693.983,-106.758C710.314,-104.056 726.313,-101.409 738.354,-99.4162"/>
<polygon fill="midnightblue" stroke="midnightblue" points="693.099,-103.357 683.805,-108.442 694.242,-110.263 693.099,-103.357"/>
</g>
<!-- Node5 -->
<g id="node9" class="node"><title>Node5</title>
<a xlink:href="hfa-lnx-async_8c.html#a78ffddbcd7cdd164889cfb53ea367886" target="_top" xlink:title="entry">
<polygon fill="white" stroke="black" points="830.5,-85.5 830.5,-106.5 871.5,-106.5 871.5,-85.5 830.5,-85.5"/>
<text text-anchor="middle" x="851" y="-93.5" font-family="FreeSans" font-size="10.00">entry</text>
</a>
</g>
<!-- Node4&#45;&gt;Node5 -->
<g id="edge8" class="edge"><title>Node4&#45;&gt;Node5</title>
<path fill="none" stroke="midnightblue" d="M792.534,-121.42C805.218,-115.905 819.27,-109.796 830.418,-104.949"/>
<polygon fill="midnightblue" stroke="midnightblue" points="790.947,-118.293 783.172,-125.49 793.738,-124.713 790.947,-118.293"/>
</g>
<!-- Node7&#45;&gt;Node3 -->
<g id="edge14" class="edge"><title>Node7&#45;&gt;Node3</title>
<path fill="none" stroke="midnightblue" d="M524.338,-110.353C533.713,-111.2 543.196,-112.057 552.362,-112.886"/>
<polygon fill="midnightblue" stroke="midnightblue" points="524.502,-106.853 514.228,-109.439 523.872,-113.825 524.502,-106.853"/>
</g>
<!-- Node8&#45;&gt;Node5 -->
<g id="edge18" class="edge"><title>Node8&#45;&gt;Node5</title>
<path fill="none" stroke="midnightblue" d="M526.327,-54.9198C597.969,-54.6931 703.71,-58.0949 794,-76 806.344,-78.448 819.64,-82.9955 830.283,-87.1364"/>
<polygon fill="midnightblue" stroke="midnightblue" points="525.99,-51.4215 516.01,-54.9783 526.03,-58.4214 525.99,-51.4215"/>
</g>
<!-- Node10 -->
<g id="node21" class="node"><title>Node10</title>
<a xlink:href="hfa-se-async_8c.html#acd9e54f020b77f14d54c200b65423a15" target="_top" xlink:title="Application cleanup will be done by this routine.">
<polygon fill="white" stroke="black" points="416,-0.5 416,-21.5 470,-21.5 470,-0.5 416,-0.5"/>
<text text-anchor="middle" x="443" y="-8.5" font-family="FreeSans" font-size="10.00">cleanup</text>
</a>
</g>
<!-- Node9&#45;&gt;Node10 -->
<g id="edge22" class="edge"><title>Node9&#45;&gt;Node10</title>
<path fill="none" stroke="midnightblue" d="M319.526,-13.7439C351.65,-13.03 390.409,-12.1687 415.827,-11.6038"/>
<polygon fill="midnightblue" stroke="midnightblue" points="319.274,-10.2485 309.354,-13.9699 319.43,-17.2468 319.274,-10.2485"/>
</g>
<!-- Node11 -->
<g id="node23" class="node"><title>Node11</title>
<a xlink:href="hfa-se-async_8c.html#a3c04138a5bfe5d72780bb7e82a18e627" target="_top" xlink:title="main">
<polygon fill="white" stroke="black" points="600,-0.5 600,-21.5 640,-21.5 640,-0.5 600,-0.5"/>
<text text-anchor="middle" x="620" y="-8.5" font-family="FreeSans" font-size="10.00">main</text>
</a>
</g>
<!-- Node10&#45;&gt;Node11 -->
<g id="edge24" class="edge"><title>Node10&#45;&gt;Node11</title>
<path fill="none" stroke="midnightblue" d="M480.506,-11C516.944,-11 570.889,-11 599.858,-11"/>
<polygon fill="midnightblue" stroke="midnightblue" points="480.268,-7.5001 470.268,-11 480.268,-14.5001 480.268,-7.5001"/>
</g>
</g>
</svg>
