<?xml version="1.0" encoding="UTF-8" standalone="no"?>
<!DOCTYPE svg PUBLIC "-//W3C//DTD SVG 1.1//EN"
 "http://www.w3.org/Graphics/SVG/1.1/DTD/svg11.dtd">
<!-- Generated by graphviz version 2.24.0 (20090616.2323)
 -->
<!-- Title: hfa_isethernetdrv_present Pages: 1 -->
<svg width="358pt" height="70pt"
 viewBox="0.00 0.00 358.00 70.00" xmlns="http://www.w3.org/2000/svg" xmlns:xlink="http://www.w3.org/1999/xlink">
<g id="graph1" class="graph" transform="scale(1 1) rotate(0) translate(4 66)">
<title>hfa_isethernetdrv_present</title>
<polygon fill="white" stroke="white" points="-4,5 -4,-66 355,-66 355,5 -4,5"/>
<!-- Node1 -->
<g id="node1" class="node"><title>Node1</title>
<polygon fill="#bfbfbf" stroke="black" points="0.5,-20.5 0.5,-41.5 141.5,-41.5 141.5,-20.5 0.5,-20.5"/>
<text text-anchor="middle" x="71" y="-28.5" font-family="FreeSans" font-size="10.00">hfa_isethernetdrv_present</text>
</g>
<!-- Node2 -->
<g id="node3" class="node"><title>Node2</title>
<a xlink:href="hfa-lnx-ctx_8c.html#a4c3443f524b4c0d95639694f0b74e850" target="_top" xlink:title="Process command line options, Read graph and payload.">
<polygon fill="white" stroke="black" points="178,-40.5 178,-61.5 272,-61.5 272,-40.5 178,-40.5"/>
<text text-anchor="middle" x="225" y="-48.5" font-family="FreeSans" font-size="10.00">process_options</text>
</a>
</g>
<!-- Node1&#45;&gt;Node2 -->
<g id="edge2" class="edge"><title>Node1&#45;&gt;Node2</title>
<path fill="none" stroke="midnightblue" d="M151.701,-41.4807C160.566,-42.6319 169.365,-43.7747 177.627,-44.8477"/>
<polygon fill="midnightblue" stroke="midnightblue" points="152.057,-37.9976 141.69,-40.1805 151.156,-44.9393 152.057,-37.9976"/>
</g>
<!-- Node4 -->
<g id="node7" class="node"><title>Node4</title>
<a xlink:href="hfa-lnx-wqe-lock_8c.html#a78ffddbcd7cdd164889cfb53ea367886" target="_top" xlink:title="entry">
<polygon fill="white" stroke="black" points="204.5,-0.5 204.5,-21.5 245.5,-21.5 245.5,-0.5 204.5,-0.5"/>
<text text-anchor="middle" x="225" y="-8.5" font-family="FreeSans" font-size="10.00">entry</text>
</a>
</g>
<!-- Node1&#45;&gt;Node4 -->
<g id="edge6" class="edge"><title>Node1&#45;&gt;Node4</title>
<path fill="none" stroke="midnightblue" d="M151.853,-20.4996C171.282,-17.9764 190.382,-15.4958 204.191,-13.7025"/>
<polygon fill="midnightblue" stroke="midnightblue" points="151.156,-17.0607 141.69,-21.8195 152.057,-24.0024 151.156,-17.0607"/>
</g>
<!-- Node3 -->
<g id="node5" class="node"><title>Node3</title>
<a xlink:href="hfa-lnx-ctx_8c.html#a78ffddbcd7cdd164889cfb53ea367886" target="_top" xlink:title="entry">
<polygon fill="white" stroke="black" points="308.5,-40.5 308.5,-61.5 349.5,-61.5 349.5,-40.5 308.5,-40.5"/>
<text text-anchor="middle" x="329" y="-48.5" font-family="FreeSans" font-size="10.00">entry</text>
</a>
</g>
<!-- Node2&#45;&gt;Node3 -->
<g id="edge4" class="edge"><title>Node2&#45;&gt;Node3</title>
<path fill="none" stroke="midnightblue" d="M282.264,-51C291.572,-51 300.653,-51 308.297,-51"/>
<polygon fill="midnightblue" stroke="midnightblue" points="282.131,-47.5001 272.131,-51 282.131,-54.5001 282.131,-47.5001"/>
</g>
</g>
</svg>
