<?xml version="1.0" encoding="UTF-8" standalone="no"?>
<!DOCTYPE svg PUBLIC "-//W3C//DTD SVG 1.1//EN"
 "http://www.w3.org/Graphics/SVG/1.1/DTD/svg11.dtd">
<!-- Generated by graphviz version 2.24.0 (20090616.2323)
 -->
<!-- Title: hfa_dev_display_info Pages: 1 -->
<svg width="300pt" height="82pt"
 viewBox="0.00 0.00 300.00 82.00" xmlns="http://www.w3.org/2000/svg" xmlns:xlink="http://www.w3.org/1999/xlink">
<g id="graph1" class="graph" transform="scale(1 1) rotate(0) translate(4 78)">
<title>hfa_dev_display_info</title>
<polygon fill="white" stroke="white" points="-4,5 -4,-78 297,-78 297,5 -4,5"/>
<!-- Node1 -->
<g id="node1" class="node"><title>Node1</title>
<polygon fill="#bfbfbf" stroke="black" points="0.5,-29.5 0.5,-50.5 117.5,-50.5 117.5,-29.5 0.5,-29.5"/>
<text text-anchor="middle" x="59" y="-37.5" font-family="FreeSans" font-size="10.00">hfa_dev_display_info</text>
</g>
<!-- Node2 -->
<g id="node3" class="node"><title>Node2</title>
<a xlink:href="pp_8h.html#a9e7b310f36183e66e8880a57028cb670" target="_top" xlink:title="Constructs a readable extended version string for the PP library.">
<polygon fill="white" stroke="black" points="154.5,-52.5 154.5,-73.5 291.5,-73.5 291.5,-52.5 154.5,-52.5"/>
<text text-anchor="middle" x="223" y="-60.5" font-family="FreeSans" font-size="10.00">pp_get_version_string_ex</text>
</a>
</g>
<!-- Node1&#45;&gt;Node2 -->
<g id="edge2" class="edge"><title>Node1&#45;&gt;Node2</title>
<path fill="none" stroke="midnightblue" d="M117.745,-48.2386C126.359,-49.4467 135.347,-50.7072 144.282,-51.9603"/>
<polygon fill="midnightblue" stroke="midnightblue" points="143.937,-55.4461 154.326,-53.3689 144.909,-48.5139 143.937,-55.4461"/>
</g>
<!-- Node3 -->
<g id="node5" class="node"><title>Node3</title>
<a xlink:href="cvmx-hfa_8c.html#a04d071e03c6b4ceee5c1f527b34de173" target="_top" xlink:title="Given the chip processor ID from COP0, this function returns a string representing the chip model num...">
<polygon fill="white" stroke="black" points="160,-0 160,-34 286,-34 286,-0 160,-0"/>
<text text-anchor="start" x="168" y="-21" font-family="FreeSans" font-size="10.00">hfa_octeon_model_get</text>
<text text-anchor="middle" x="223" y="-8" font-family="FreeSans" font-size="10.00">_string</text>
</a>
</g>
<!-- Node1&#45;&gt;Node3 -->
<g id="edge4" class="edge"><title>Node1&#45;&gt;Node3</title>
<path fill="none" stroke="midnightblue" d="M117.745,-31.7614C128.123,-30.306 139.042,-28.7746 149.76,-27.2715"/>
<polygon fill="midnightblue" stroke="midnightblue" points="150.533,-30.6974 159.95,-25.8424 149.561,-23.7653 150.533,-30.6974"/>
</g>
</g>
</svg>
