<?xml version="1.0" encoding="UTF-8" standalone="no"?>
<!DOCTYPE svg PUBLIC "-//W3C//DTD SVG 1.1//EN"
 "http://www.w3.org/Graphics/SVG/1.1/DTD/svg11.dtd">
<!-- Generated by graphviz version 2.24.0 (20090616.2323)
 -->
<!-- Title: cvm_hfa_instr_init Pages: 1 -->
<svg width="632pt" height="229pt"
 viewBox="0.00 0.00 632.00 229.00" xmlns="http://www.w3.org/2000/svg" xmlns:xlink="http://www.w3.org/1999/xlink">
<g id="graph1" class="graph" transform="scale(1 1) rotate(0) translate(4 225)">
<title>cvm_hfa_instr_init</title>
<polygon fill="white" stroke="white" points="-4,5 -4,-225 629,-225 629,5 -4,5"/>
<!-- Node1 -->
<g id="node1" class="node"><title>Node1</title>
<polygon fill="#bfbfbf" stroke="black" points="0.5,-114.5 0.5,-135.5 103.5,-135.5 103.5,-114.5 0.5,-114.5"/>
<text text-anchor="middle" x="52" y="-122.5" font-family="FreeSans" font-size="10.00">cvm_hfa_instr_init</text>
</g>
<!-- Node2 -->
<g id="node3" class="node"><title>Node2</title>
<a xlink:href="cvm-hfa-graph_8c.html#aa296e0c6b36b3d5b4f8e01c2fe765bed" target="_top" xlink:title="This routine is used to cacheload a cacheable graph in a non&#45;blocking manner.">
<polygon fill="white" stroke="black" points="146,-136 146,-170 266,-170 266,-136 146,-136"/>
<text text-anchor="start" x="154" y="-157" font-family="FreeSans" font-size="10.00">hfa_graph_cacheload</text>
<text text-anchor="middle" x="206" y="-144" font-family="FreeSans" font-size="10.00">_async</text>
</a>
</g>
<!-- Node1&#45;&gt;Node2 -->
<g id="edge2" class="edge"><title>Node1&#45;&gt;Node2</title>
<path fill="none" stroke="midnightblue" d="M113.728,-136.223C124.336,-138.152 135.347,-140.154 145.911,-142.075"/>
<polygon fill="midnightblue" stroke="midnightblue" points="114.173,-132.747 103.708,-134.401 112.921,-139.634 114.173,-132.747"/>
</g>
<!-- Node9 -->
<g id="node17" class="node"><title>Node9</title>
<a xlink:href="cvm-hfa-graph_8c.html#afb63ce4f42afc7987e6222b1c1ea91a1" target="_top" xlink:title="This routine is used to cacheunload a cacheload&#39;ed graph in a non&#45;blocking manner.">
<polygon fill="white" stroke="black" points="140,-81 140,-115 272,-115 272,-81 140,-81"/>
<text text-anchor="start" x="148" y="-102" font-family="FreeSans" font-size="10.00">hfa_graph_cacheunload</text>
<text text-anchor="middle" x="206" y="-89" font-family="FreeSans" font-size="10.00">_async</text>
</a>
</g>
<!-- Node1&#45;&gt;Node9 -->
<g id="edge16" class="edge"><title>Node1&#45;&gt;Node9</title>
<path fill="none" stroke="midnightblue" d="M113.692,-114.184C122.324,-112.67 131.224,-111.11 139.934,-109.583"/>
<polygon fill="midnightblue" stroke="midnightblue" points="112.953,-110.76 103.708,-115.934 114.162,-117.655 112.953,-110.76"/>
</g>
<!-- Node3 -->
<g id="node5" class="node"><title>Node3</title>
<a xlink:href="cvm-hfa-graph_8c.html#a60861d15ed5f6bccc42bbde834aa2b32" target="_top" xlink:title="This routine is used to cacheload a cacheable graph in a blocking manner.">
<polygon fill="white" stroke="black" points="314,-142.5 314,-163.5 434,-163.5 434,-142.5 314,-142.5"/>
<text text-anchor="middle" x="374" y="-150.5" font-family="FreeSans" font-size="10.00">hfa_graph_cacheload</text>
</a>
</g>
<!-- Node2&#45;&gt;Node3 -->
<g id="edge4" class="edge"><title>Node2&#45;&gt;Node3</title>
<path fill="none" stroke="midnightblue" d="M276.517,-153C288.97,-153 301.829,-153 313.961,-153"/>
<polygon fill="midnightblue" stroke="midnightblue" points="276.177,-149.5 266.177,-153 276.177,-156.5 276.177,-149.5"/>
</g>
<!-- Node7 -->
<g id="node13" class="node"><title>Node7</title>
<a xlink:href="hfa-lnx-async_8c.html#a546f3769e735d4bef0bfab1cba56921c" target="_top" xlink:title="Load graph to HFA memory and cache.">
<polygon fill="white" stroke="black" points="339.5,-195.5 339.5,-216.5 408.5,-216.5 408.5,-195.5 339.5,-195.5"/>
<text text-anchor="middle" x="374" y="-203.5" font-family="FreeSans" font-size="10.00">graph_load</text>
</a>
</g>
<!-- Node2&#45;&gt;Node7 -->
<g id="edge12" class="edge"><title>Node2&#45;&gt;Node7</title>
<path fill="none" stroke="midnightblue" d="M269.877,-173.152C293.954,-180.747 320.374,-189.082 340.576,-195.456"/>
<polygon fill="midnightblue" stroke="midnightblue" points="270.671,-169.732 260.081,-170.061 268.565,-176.408 270.671,-169.732"/>
</g>
<!-- Node4 -->
<g id="node7" class="node"><title>Node4</title>
<a xlink:href="hfa-lnx-ctx_8c.html#a78ffddbcd7cdd164889cfb53ea367886" target="_top" xlink:title="entry">
<polygon fill="white" stroke="black" points="490.5,-120.5 490.5,-141.5 531.5,-141.5 531.5,-120.5 490.5,-120.5"/>
<text text-anchor="middle" x="511" y="-128.5" font-family="FreeSans" font-size="10.00">entry</text>
</a>
</g>
<!-- Node3&#45;&gt;Node4 -->
<g id="edge6" class="edge"><title>Node3&#45;&gt;Node4</title>
<path fill="none" stroke="midnightblue" d="M444.046,-141.752C460.984,-139.032 477.796,-136.332 490.337,-134.318"/>
<polygon fill="midnightblue" stroke="midnightblue" points="443.409,-138.309 434.09,-143.35 444.519,-145.221 443.409,-138.309"/>
</g>
<!-- Node5 -->
<g id="node9" class="node"><title>Node5</title>
<a xlink:href="hfa-lnx-linkgraph_8c.html#a546f3769e735d4bef0bfab1cba56921c" target="_top" xlink:title="Load graph to HFA memory and cache.">
<polygon fill="white" stroke="black" points="476.5,-160.5 476.5,-181.5 545.5,-181.5 545.5,-160.5 476.5,-160.5"/>
<text text-anchor="middle" x="511" y="-168.5" font-family="FreeSans" font-size="10.00">graph_load</text>
</a>
</g>
<!-- Node3&#45;&gt;Node5 -->
<g id="edge8" class="edge"><title>Node3&#45;&gt;Node5</title>
<path fill="none" stroke="midnightblue" d="M444.25,-162.23C455.33,-163.686 466.349,-165.133 476.147,-166.421"/>
<polygon fill="midnightblue" stroke="midnightblue" points="444.461,-158.728 434.09,-160.895 443.549,-165.668 444.461,-158.728"/>
</g>
<!-- Node6 -->
<g id="node11" class="node"><title>Node6</title>
<a xlink:href="hfa-lnx-linkgraph_8c.html#a78ffddbcd7cdd164889cfb53ea367886" target="_top" xlink:title="entry">
<polygon fill="white" stroke="black" points="582.5,-159.5 582.5,-180.5 623.5,-180.5 623.5,-159.5 582.5,-159.5"/>
<text text-anchor="middle" x="603" y="-167.5" font-family="FreeSans" font-size="10.00">entry</text>
</a>
</g>
<!-- Node5&#45;&gt;Node6 -->
<g id="edge10" class="edge"><title>Node5&#45;&gt;Node6</title>
<path fill="none" stroke="midnightblue" d="M555.612,-170.515C565.01,-170.413 574.485,-170.31 582.466,-170.223"/>
<polygon fill="midnightblue" stroke="midnightblue" points="555.48,-167.016 545.519,-170.625 555.557,-174.016 555.48,-167.016"/>
</g>
<!-- Node8 -->
<g id="node15" class="node"><title>Node8</title>
<a xlink:href="hfa-lnx-async_8c.html#a78ffddbcd7cdd164889cfb53ea367886" target="_top" xlink:title="entry">
<polygon fill="white" stroke="black" points="582.5,-199.5 582.5,-220.5 623.5,-220.5 623.5,-199.5 582.5,-199.5"/>
<text text-anchor="middle" x="603" y="-207.5" font-family="FreeSans" font-size="10.00">entry</text>
</a>
</g>
<!-- Node7&#45;&gt;Node8 -->
<g id="edge14" class="edge"><title>Node7&#45;&gt;Node8</title>
<path fill="none" stroke="midnightblue" d="M418.874,-206.784C468.276,-207.647 545.553,-208.997 582.277,-209.638"/>
<polygon fill="midnightblue" stroke="midnightblue" points="418.84,-203.283 408.78,-206.608 418.717,-210.282 418.84,-203.283"/>
</g>
<!-- Node10 -->
<g id="node19" class="node"><title>Node10</title>
<a xlink:href="cvm-hfa-graph_8c.html#aa4ce7845277b4b3099159bbd7afd5c08" target="_top" xlink:title="This routine is used to cacheunload a cacheload&#39;ed graph in a non&#45;blocking manner.">
<polygon fill="white" stroke="black" points="308,-80.5 308,-101.5 440,-101.5 440,-80.5 308,-80.5"/>
<text text-anchor="middle" x="374" y="-88.5" font-family="FreeSans" font-size="10.00">hfa_graph_cacheunload</text>
</a>
</g>
<!-- Node9&#45;&gt;Node10 -->
<g id="edge18" class="edge"><title>Node9&#45;&gt;Node10</title>
<path fill="none" stroke="midnightblue" d="M282.595,-94.8086C291.013,-94.4578 299.532,-94.1028 307.809,-93.7579"/>
<polygon fill="midnightblue" stroke="midnightblue" points="282.244,-91.32 272.398,-95.2334 282.535,-98.314 282.244,-91.32"/>
</g>
<!-- Node10&#45;&gt;Node4 -->
<g id="edge26" class="edge"><title>Node10&#45;&gt;Node4</title>
<path fill="none" stroke="midnightblue" d="M419.897,-104.4C443.676,-111.343 471.548,-119.481 490.141,-124.91"/>
<polygon fill="midnightblue" stroke="midnightblue" points="420.575,-100.953 409.995,-101.51 418.613,-107.672 420.575,-100.953"/>
</g>
<!-- Node11 -->
<g id="node21" class="node"><title>Node11</title>
<a xlink:href="hfa-lnx-async_8c.html#acd9e54f020b77f14d54c200b65423a15" target="_top" xlink:title="Application cleanup will be done by this routine.">
<polygon fill="white" stroke="black" points="484,-40.5 484,-61.5 538,-61.5 538,-40.5 484,-40.5"/>
<text text-anchor="middle" x="511" y="-48.5" font-family="FreeSans" font-size="10.00">cleanup</text>
</a>
</g>
<!-- Node10&#45;&gt;Node11 -->
<g id="edge20" class="edge"><title>Node10&#45;&gt;Node11</title>
<path fill="none" stroke="midnightblue" d="M419.814,-77.6238C441.08,-71.4147 465.635,-64.2453 483.903,-58.9117"/>
<polygon fill="midnightblue" stroke="midnightblue" points="418.613,-74.328 409.995,-80.4905 420.575,-81.0474 418.613,-74.328"/>
</g>
<!-- Node13 -->
<g id="node27" class="node"><title>Node13</title>
<a xlink:href="hfa-lnx-ctx_8c.html#aaf98ef7cdde3a0dfb2e49919de3298b1" target="_top" xlink:title="exit">
<polygon fill="white" stroke="black" points="494.5,-80.5 494.5,-101.5 527.5,-101.5 527.5,-80.5 494.5,-80.5"/>
<text text-anchor="middle" x="511" y="-88.5" font-family="FreeSans" font-size="10.00">exit</text>
</a>
</g>
<!-- Node10&#45;&gt;Node13 -->
<g id="edge28" class="edge"><title>Node10&#45;&gt;Node13</title>
<path fill="none" stroke="midnightblue" d="M450.454,-91C467.022,-91 482.961,-91 494.323,-91"/>
<polygon fill="midnightblue" stroke="midnightblue" points="450.092,-87.5001 440.092,-91 450.092,-94.5001 450.092,-87.5001"/>
</g>
<!-- Node14 -->
<g id="node29" class="node"><title>Node14</title>
<a xlink:href="hfa-se-ngraphs_8c.html#a546f3769e735d4bef0bfab1cba56921c" target="_top" xlink:title="Load ngraphs into HFA memory and cache.">
<polygon fill="white" stroke="black" points="476.5,-0.5 476.5,-21.5 545.5,-21.5 545.5,-0.5 476.5,-0.5"/>
<text text-anchor="middle" x="511" y="-8.5" font-family="FreeSans" font-size="10.00">graph_load</text>
</a>
</g>
<!-- Node10&#45;&gt;Node14 -->
<g id="edge30" class="edge"><title>Node10&#45;&gt;Node14</title>
<path fill="none" stroke="midnightblue" d="M400.811,-75.1049C421.351,-62.9576 450.415,-45.8345 476,-31 481.328,-27.9109 487.129,-24.5822 492.448,-21.5438"/>
<polygon fill="midnightblue" stroke="midnightblue" points="398.84,-72.2045 392.017,-80.3098 402.405,-78.2285 398.84,-72.2045"/>
</g>
<!-- Node11&#45;&gt;Node8 -->
<g id="edge22" class="edge"><title>Node11&#45;&gt;Node8</title>
<path fill="none" stroke="midnightblue" d="M543.386,-68.0776C544.314,-69.0101 545.191,-69.9839 546,-71 580.43,-114.218 553.035,-142.944 582,-190 584.006,-193.259 586.671,-196.345 589.428,-199.074"/>
<polygon fill="midnightblue" stroke="midnightblue" points="545.456,-65.2514 535.464,-61.7273 541.077,-70.7131 545.456,-65.2514"/>
</g>
<!-- Node12 -->
<g id="node24" class="node"><title>Node12</title>
<a xlink:href="hfa-lnx-async_8c.html#aaf98ef7cdde3a0dfb2e49919de3298b1" target="_top" xlink:title="exit">
<polygon fill="white" stroke="black" points="586.5,-40.5 586.5,-61.5 619.5,-61.5 619.5,-40.5 586.5,-40.5"/>
<text text-anchor="middle" x="603" y="-48.5" font-family="FreeSans" font-size="10.00">exit</text>
</a>
</g>
<!-- Node11&#45;&gt;Node12 -->
<g id="edge24" class="edge"><title>Node11&#45;&gt;Node12</title>
<path fill="none" stroke="midnightblue" d="M548.42,-51C561.653,-51 575.868,-51 586.473,-51"/>
<polygon fill="midnightblue" stroke="midnightblue" points="548.105,-47.5001 538.105,-51 548.105,-54.5001 548.105,-47.5001"/>
</g>
<!-- Node15 -->
<g id="node31" class="node"><title>Node15</title>
<a xlink:href="hfa-se-ngraphs_8c.html#a3c04138a5bfe5d72780bb7e82a18e627" target="_top" xlink:title="main">
<polygon fill="white" stroke="black" points="583,-0.5 583,-21.5 623,-21.5 623,-0.5 583,-0.5"/>
<text text-anchor="middle" x="603" y="-8.5" font-family="FreeSans" font-size="10.00">main</text>
</a>
</g>
<!-- Node14&#45;&gt;Node15 -->
<g id="edge32" class="edge"><title>Node14&#45;&gt;Node15</title>
<path fill="none" stroke="midnightblue" d="M555.779,-11C565.332,-11 574.955,-11 582.998,-11"/>
<polygon fill="midnightblue" stroke="midnightblue" points="555.519,-7.5001 545.519,-11 555.519,-14.5001 555.519,-7.5001"/>
</g>
</g>
</svg>
