<?xml version="1.0" encoding="UTF-8" standalone="no"?>
<!DOCTYPE svg PUBLIC "-//W3C//DTD SVG 1.1//EN"
 "http://www.w3.org/Graphics/SVG/1.1/DTD/svg11.dtd">
<!-- Generated by graphviz version 2.24.0 (20090616.2323)
 -->
<!-- Title: hfa_cluster_cleanup Pages: 1 -->
<svg width="382pt" height="42pt"
 viewBox="0.00 0.00 382.00 42.00" xmlns="http://www.w3.org/2000/svg" xmlns:xlink="http://www.w3.org/1999/xlink">
<g id="graph1" class="graph" transform="scale(1 1) rotate(0) translate(4 38)">
<title>hfa_cluster_cleanup</title>
<polygon fill="white" stroke="white" points="-4,5 -4,-38 379,-38 379,5 -4,5"/>
<!-- Node1 -->
<g id="node1" class="node"><title>Node1</title>
<polygon fill="#bfbfbf" stroke="black" points="0.5,-6.5 0.5,-27.5 113.5,-27.5 113.5,-6.5 0.5,-6.5"/>
<text text-anchor="middle" x="57" y="-14.5" font-family="FreeSans" font-size="10.00">hfa_cluster_cleanup</text>
</g>
<!-- Node2 -->
<g id="node3" class="node"><title>Node2</title>
<a xlink:href="hfa-lnx-async_8c.html#abc17fab65a320998a273d112ff24d658" target="_top" xlink:title="Configure cluster memory resources.">
<polygon fill="white" stroke="black" points="150,-0 150,-34 296,-34 296,-0 150,-0"/>
<text text-anchor="start" x="158" y="-21" font-family="FreeSans" font-size="10.00">configure_cluster_memory</text>
<text text-anchor="middle" x="223" y="-8" font-family="FreeSans" font-size="10.00">_resources</text>
</a>
</g>
<!-- Node1&#45;&gt;Node2 -->
<g id="edge2" class="edge"><title>Node1&#45;&gt;Node2</title>
<path fill="none" stroke="midnightblue" d="M123.931,-17C132.466,-17 141.236,-17 149.862,-17"/>
<polygon fill="midnightblue" stroke="midnightblue" points="123.664,-13.5001 113.663,-17 123.663,-20.5001 123.664,-13.5001"/>
</g>
<!-- Node3 -->
<g id="node5" class="node"><title>Node3</title>
<a xlink:href="hfa-lnx-async_8c.html#a78ffddbcd7cdd164889cfb53ea367886" target="_top" xlink:title="entry">
<polygon fill="white" stroke="black" points="332.5,-6.5 332.5,-27.5 373.5,-27.5 373.5,-6.5 332.5,-6.5"/>
<text text-anchor="middle" x="353" y="-14.5" font-family="FreeSans" font-size="10.00">entry</text>
</a>
</g>
<!-- Node2&#45;&gt;Node3 -->
<g id="edge4" class="edge"><title>Node2&#45;&gt;Node3</title>
<path fill="none" stroke="midnightblue" d="M306.471,-17C316.011,-17 324.972,-17 332.435,-17"/>
<polygon fill="midnightblue" stroke="midnightblue" points="306.358,-13.5001 296.358,-17 306.358,-20.5001 306.358,-13.5001"/>
</g>
</g>
</svg>
