<?xml version="1.0" encoding="UTF-8" standalone="no"?>
<!DOCTYPE svg PUBLIC "-//W3C//DTD SVG 1.1//EN"
 "http://www.w3.org/Graphics/SVG/1.1/DTD/svg11.dtd">
<!-- Generated by graphviz version 2.24.0 (20090616.2323)
 -->
<!-- Title: hfa_searchparam_get_hwsearch_pdboff Pages: 1 -->
<!--zoomable 209 -->
<svg id="main" version="1.1" xmlns="http://www.w3.org/2000/svg" xmlns:xlink="http://www.w3.org/1999/xlink" xml:space="preserve" onload="init(evt)">
        <defs>
                <circle id="rim" cx="0" cy="0" r="7"/>
                <circle id="rim2" cx="0" cy="0" r="3.5"/>
                <g id="zoomPlus">
                        <use xlink:href="#rim" fill="#404040">
                                <set attributeName="fill" to="#808080" begin="zoomplus.mouseover" end="zoomplus.mouseout"/>
                        </use>
                        <path d="M-4,0h8M0,-4v8" fill="none" stroke="white" stroke-width="1.5" pointer-events="none"/>
                </g>
                <g id="zoomMin">
                        <use xlink:href="#rim" fill="#404040">
                                <set attributeName="fill" to="#808080" begin="zoomminus.mouseover" end="zoomminus.mouseout"/>
                        </use>
                        <path d="M-4,0h8" fill="none" stroke="white" stroke-width="1.5" pointer-events="none"/>
                </g>
                <g id="dirArrow">
                        <path fill="none" stroke="white" stroke-width="1.5" d="M0,-3.0v7 M-2.5,-0.5L0,-3.0L2.5,-0.5"/>
                </g>
               <g id="resetDef">
                       <use xlink:href="#rim2" fill="#404040">
                               <set attributeName="fill" to="#808080" begin="reset.mouseover" end="reset.mouseout"/>
                       </use>
               </g>
        </defs>

<script type="text/javascript">
var viewWidth = 514;
var viewHeight = 209;
var sectionId = 'dynsection-0';
</script>
<script xlink:href="svgpan.js"/>
<svg id="graph" class="graph">
<g id="viewport">
<title>hfa_searchparam_get_hwsearch_pdboff</title>
<polygon fill="white" stroke="white" points="-4,5 -4,-205 511,-205 511,5 -4,5"/>
<!-- Node1 -->
<g id="node1" class="node"><title>Node1</title>
<polygon fill="#bfbfbf" stroke="black" points="0,-74 0,-108 122,-108 122,-74 0,-74"/>
<text text-anchor="start" x="8" y="-95" font-family="FreeSans" font-size="10.00">hfa_searchparam_get</text>
<text text-anchor="middle" x="61" y="-82" font-family="FreeSans" font-size="10.00">_hwsearch_pdboff</text>
</g>
<!-- Node2 -->
<g id="node3" class="node"><title>Node2</title>
<a xlink:href="hfa-lnx-async_8c.html#a972f8b60ef804914c009c2ef85bac50e" target="_top" xlink:title="Process search for given payload and graph.">
<polygon fill="white" stroke="black" points="158,-160.5 158,-181.5 250,-181.5 250,-160.5 158,-160.5"/>
<text text-anchor="middle" x="204" y="-168.5" font-family="FreeSans" font-size="10.00">process_search</text>
</a>
</g>
<!-- Node1&#45;&gt;Node2 -->
<g id="edge2" class="edge"><title>Node1&#45;&gt;Node2</title>
<path fill="none" stroke="midnightblue" d="M94.9146,-113.646C113.225,-125.442 136.439,-139.719 158,-151 164.327,-154.31 171.321,-157.552 177.904,-160.429"/>
<polygon fill="midnightblue" stroke="midnightblue" points="96.6403,-110.593 86.3483,-108.078 92.8254,-116.462 96.6403,-110.593"/>
</g>
<!-- Node6 -->
<g id="node12" class="node"><title>Node6</title>
<a xlink:href="hfa-lnx-linkgraph_8c.html#a78ffddbcd7cdd164889cfb53ea367886" target="_top" xlink:title="entry">
<polygon fill="white" stroke="black" points="183.5,-120.5 183.5,-141.5 224.5,-141.5 224.5,-120.5 183.5,-120.5"/>
<text text-anchor="middle" x="204" y="-128.5" font-family="FreeSans" font-size="10.00">entry</text>
</a>
</g>
<!-- Node1&#45;&gt;Node6 -->
<g id="edge12" class="edge"><title>Node1&#45;&gt;Node6</title>
<path fill="none" stroke="midnightblue" d="M131.856,-110.82C150.652,-116.077 169.507,-121.352 183.226,-125.189"/>
<polygon fill="midnightblue" stroke="midnightblue" points="132.633,-107.403 122.06,-108.08 130.747,-114.144 132.633,-107.403"/>
</g>
<!-- Node7 -->
<g id="node14" class="node"><title>Node7</title>
<a xlink:href="hfa-lnx-nctx_8c.html#a4fbafc7a7cdf59be14583808c4469e83" target="_top" xlink:title="Post process the results from HFA and record found matches.">
<polygon fill="white" stroke="black" points="164,-80.5 164,-101.5 244,-101.5 244,-80.5 164,-80.5"/>
<text text-anchor="middle" x="204" y="-88.5" font-family="FreeSans" font-size="10.00">post_process</text>
</a>
</g>
<!-- Node1&#45;&gt;Node7 -->
<g id="edge14" class="edge"><title>Node1&#45;&gt;Node7</title>
<path fill="none" stroke="midnightblue" d="M132.384,-91C143.187,-91 153.994,-91 163.817,-91"/>
<polygon fill="midnightblue" stroke="midnightblue" points="132.06,-87.5001 122.06,-91 132.06,-94.5001 132.06,-87.5001"/>
</g>
<!-- Node10 -->
<g id="node21" class="node"><title>Node10</title>
<a xlink:href="hfa-se-async_8c.html#a3c04138a5bfe5d72780bb7e82a18e627" target="_top" xlink:title="main">
<polygon fill="white" stroke="black" points="184,-40.5 184,-61.5 224,-61.5 224,-40.5 184,-40.5"/>
<text text-anchor="middle" x="204" y="-48.5" font-family="FreeSans" font-size="10.00">main</text>
</a>
</g>
<!-- Node1&#45;&gt;Node10 -->
<g id="edge22" class="edge"><title>Node1&#45;&gt;Node10</title>
<path fill="none" stroke="midnightblue" d="M131.73,-71.2154C150.874,-65.8603 170.092,-60.4847 183.893,-56.6244"/>
<polygon fill="midnightblue" stroke="midnightblue" points="130.747,-67.8559 122.06,-73.9204 132.633,-74.5971 130.747,-67.8559"/>
</g>
<!-- Node11 -->
<g id="node23" class="node"><title>Node11</title>
<a xlink:href="hfa-se-wqe-lock_8c.html#a06b5fcfab0e1d5eb36b633ec080ad7f9" target="_top" xlink:title="Process search for given contexts.">
<polygon fill="white" stroke="black" points="164,-0.5 164,-21.5 244,-21.5 244,-0.5 164,-0.5"/>
<text text-anchor="middle" x="204" y="-8.5" font-family="FreeSans" font-size="10.00">process_nctx</text>
</a>
</g>
<!-- Node1&#45;&gt;Node11 -->
<g id="edge24" class="edge"><title>Node1&#45;&gt;Node11</title>
<path fill="none" stroke="midnightblue" d="M94.9146,-68.3544C113.225,-56.5578 136.439,-42.2811 158,-31 164.327,-27.6896 171.321,-24.4479 177.904,-21.5706"/>
<polygon fill="midnightblue" stroke="midnightblue" points="92.8254,-65.5379 86.3483,-73.9223 96.6403,-71.4071 92.8254,-65.5379"/>
</g>
<!-- Node3 -->
<g id="node5" class="node"><title>Node3</title>
<a xlink:href="hfa-lnx-async_8c.html#a1e97b1d598034fdc92d57054a6c386e6" target="_top" xlink:title="tasklet_callback">
<polygon fill="white" stroke="black" points="286,-179.5 286,-200.5 378,-200.5 378,-179.5 286,-179.5"/>
<text text-anchor="middle" x="332" y="-187.5" font-family="FreeSans" font-size="10.00">tasklet_callback</text>
</a>
</g>
<!-- Node2&#45;&gt;Node3 -->
<g id="edge4" class="edge"><title>Node2&#45;&gt;Node3</title>
<path fill="none" stroke="midnightblue" d="M260.162,-179.337C268.746,-180.611 277.521,-181.913 285.857,-183.151"/>
<polygon fill="midnightblue" stroke="midnightblue" points="260.616,-175.866 250.211,-177.859 259.589,-182.79 260.616,-175.866"/>
</g>
<!-- Node5 -->
<g id="node9" class="node"><title>Node5</title>
<a xlink:href="hfa-lnx-async_8c.html#a7dea7d59754828b1173c4c7ec5d42f3e" target="_top" xlink:title="thread_callback">
<polygon fill="white" stroke="black" points="286,-139.5 286,-160.5 378,-160.5 378,-139.5 286,-139.5"/>
<text text-anchor="middle" x="332" y="-147.5" font-family="FreeSans" font-size="10.00">thread_callback</text>
</a>
</g>
<!-- Node2&#45;&gt;Node5 -->
<g id="edge8" class="edge"><title>Node2&#45;&gt;Node5</title>
<path fill="none" stroke="midnightblue" d="M260.162,-161.786C268.746,-160.378 277.521,-158.938 285.857,-157.57"/>
<polygon fill="midnightblue" stroke="midnightblue" points="259.512,-158.346 250.211,-163.419 260.646,-165.253 259.512,-158.346"/>
</g>
<!-- Node4 -->
<g id="node7" class="node"><title>Node4</title>
<a xlink:href="hfa-lnx-async_8c.html#a78ffddbcd7cdd164889cfb53ea367886" target="_top" xlink:title="entry">
<polygon fill="white" stroke="black" points="439.5,-148.5 439.5,-169.5 480.5,-169.5 480.5,-148.5 439.5,-148.5"/>
<text text-anchor="middle" x="460" y="-156.5" font-family="FreeSans" font-size="10.00">entry</text>
</a>
</g>
<!-- Node3&#45;&gt;Node4 -->
<g id="edge6" class="edge"><title>Node3&#45;&gt;Node4</title>
<path fill="none" stroke="midnightblue" d="M385.493,-177.045C404.528,-172.435 424.839,-167.516 439.438,-163.98"/>
<polygon fill="midnightblue" stroke="midnightblue" points="384.587,-173.663 375.692,-179.418 386.235,-180.466 384.587,-173.663"/>
</g>
<!-- Node5&#45;&gt;Node4 -->
<g id="edge10" class="edge"><title>Node5&#45;&gt;Node4</title>
<path fill="none" stroke="midnightblue" d="M388.428,-153.968C406.516,-155.239 425.421,-156.569 439.257,-157.541"/>
<polygon fill="midnightblue" stroke="midnightblue" points="388.432,-150.459 378.211,-153.249 387.941,-157.442 388.432,-150.459"/>
</g>
<!-- Node8 -->
<g id="node16" class="node"><title>Node8</title>
<a xlink:href="hfa-lnx-nctx_8c.html#a14842e8e0a8309142e6e4132ff4aa606" target="_top" xlink:title="Poll for the pending search instructions in the HW (blocked till instruction completes) and process t...">
<polygon fill="white" stroke="black" points="315.5,-99.5 315.5,-120.5 348.5,-120.5 348.5,-99.5 315.5,-99.5"/>
<text text-anchor="middle" x="332" y="-107.5" font-family="FreeSans" font-size="10.00">poll</text>
</a>
</g>
<!-- Node7&#45;&gt;Node8 -->
<g id="edge16" class="edge"><title>Node7&#45;&gt;Node8</title>
<path fill="none" stroke="midnightblue" d="M254.264,-98.461C275.994,-101.687 299.941,-105.241 315.434,-107.541"/>
<polygon fill="midnightblue" stroke="midnightblue" points="254.554,-94.9659 244.149,-96.9596 253.526,-101.89 254.554,-94.9659"/>
</g>
<!-- Node9 -->
<g id="node18" class="node"><title>Node9</title>
<a xlink:href="hfa-lnx-nctx_8c.html#a972f8b60ef804914c009c2ef85bac50e" target="_top" xlink:title="process_search">
<polygon fill="white" stroke="black" points="414,-89.5 414,-110.5 506,-110.5 506,-89.5 414,-89.5"/>
<text text-anchor="middle" x="460" y="-97.5" font-family="FreeSans" font-size="10.00">process_search</text>
</a>
</g>
<!-- Node7&#45;&gt;Node9 -->
<g id="edge20" class="edge"><title>Node7&#45;&gt;Node9</title>
<path fill="none" stroke="midnightblue" d="M254.492,-88.9418C289.248,-87.9584 336.464,-87.4767 378,-90 389.595,-90.7044 402.062,-91.9642 413.688,-93.3574"/>
<polygon fill="midnightblue" stroke="midnightblue" points="254.013,-85.4548 244.125,-89.2604 254.228,-92.4515 254.013,-85.4548"/>
</g>
<!-- Node8&#45;&gt;Node9 -->
<g id="edge18" class="edge"><title>Node8&#45;&gt;Node9</title>
<path fill="none" stroke="midnightblue" d="M358.908,-107.898C374.799,-106.656 395.351,-105.051 413.769,-103.612"/>
<polygon fill="midnightblue" stroke="midnightblue" points="358.431,-104.424 348.734,-108.693 358.976,-111.403 358.431,-104.424"/>
</g>
<!-- Node12 -->
<g id="node25" class="node"><title>Node12</title>
<a xlink:href="hfa-se-wqe-lock_8c.html#a3c04138a5bfe5d72780bb7e82a18e627" target="_top" xlink:title="main">
<polygon fill="white" stroke="black" points="312,-0.5 312,-21.5 352,-21.5 352,-0.5 312,-0.5"/>
<text text-anchor="middle" x="332" y="-8.5" font-family="FreeSans" font-size="10.00">main</text>
</a>
</g>
<!-- Node11&#45;&gt;Node12 -->
<g id="edge26" class="edge"><title>Node11&#45;&gt;Node12</title>
<path fill="none" stroke="midnightblue" d="M254.397,-11C274.403,-11 296.267,-11 311.675,-11"/>
<polygon fill="midnightblue" stroke="midnightblue" points="254.149,-7.5001 244.149,-11 254.149,-14.5001 254.149,-7.5001"/>
</g>
</g>
</svg>
        <g id="navigator" transform="translate(0 0)" fill="#404254">
                <rect fill="#f2f5e9" fill-opacity="0.5" stroke="#606060" stroke-width=".5" x="0" y="0" width="60" height="60"/>
                <use id="zoomplus" xlink:href="#zoomPlus" x="17" y="9" onmousedown="handleZoom(evt,'in')"/>
                <use id="zoomminus" xlink:href="#zoomMin" x="42" y="9" onmousedown="handleZoom(evt,'out')"/>
                <use id="reset" xlink:href="#resetDef" x="30" y="36" onmousedown="handleReset()"/>
                <g id="arrowUp" xlink:href="#dirArrow" transform="translate(30 24)" onmousedown="handlePan(0,-1)">
                  <use xlink:href="#rim" fill="#404040">
                        <set attributeName="fill" to="#808080" begin="arrowUp.mouseover" end="arrowUp.mouseout"/>
                  </use>
                  <path fill="none" stroke="white" stroke-width="1.5" d="M0,-3.0v7 M-2.5,-0.5L0,-3.0L2.5,-0.5"/>
                </g>
                <g id="arrowRight" xlink:href="#dirArrow" transform="rotate(90) translate(36 -43)" onmousedown="handlePan(1,0)">
                  <use xlink:href="#rim" fill="#404040">
                        <set attributeName="fill" to="#808080" begin="arrowRight.mouseover" end="arrowRight.mouseout"/>
                  </use>
                  <path fill="none" stroke="white" stroke-width="1.5" d="M0,-3.0v7 M-2.5,-0.5L0,-3.0L2.5,-0.5"/>
                </g>
                <g id="arrowDown" xlink:href="#dirArrow" transform="rotate(180) translate(-30 -48)" onmousedown="handlePan(0,1)">
                  <use xlink:href="#rim" fill="#404040">
                        <set attributeName="fill" to="#808080" begin="arrowDown.mouseover" end="arrowDown.mouseout"/>
                  </use>
                  <path fill="none" stroke="white" stroke-width="1.5" d="M0,-3.0v7 M-2.5,-0.5L0,-3.0L2.5,-0.5"/>
                </g>
                <g id="arrowLeft" xlink:href="#dirArrow" transform="rotate(270) translate(-36 17)" onmousedown="handlePan(-1,0)">
                  <use xlink:href="#rim" fill="#404040">
                        <set attributeName="fill" to="#808080" begin="arrowLeft.mouseover" end="arrowLeft.mouseout"/>
                  </use>
                  <path fill="none" stroke="white" stroke-width="1.5" d="M0,-3.0v7 M-2.5,-0.5L0,-3.0L2.5,-0.5"/>
                </g>
        </g>
        <svg viewBox="0 0 15 15" width="100%" height="30px" preserveAspectRatio="xMaxYMin meet">
         <g id="arrow_out" transform="scale(0.3 0.3)">
          <a xlink:href="cvm-hfa-search_8h_ad18e328b50b109e1e44821f3d006bd9d_icgraph_org.svg" target="_base">
           <rect id="button" ry="5" rx="5" y="6" x="6" height="38" width="38"
                fill="#f2f5e9" fill-opacity="0.5" stroke="#606060" stroke-width="1.0"/>
           <path id="arrow"
             d="M 11.500037,31.436501 C 11.940474,20.09759 22.043105,11.32322 32.158766,21.979434 L 37.068811,17.246167 C 37.068811,17.246167 37.088388,32 37.088388,32 L 22.160133,31.978069 C 22.160133,31.978069 26.997745,27.140456 26.997745,27.140456 C 18.528582,18.264221 13.291696,25.230495 11.500037,31.436501 z"
             style="fill:#404040;"/>
          </a>
         </g>
        </svg>
</svg>
