<?xml version="1.0" encoding="UTF-8" standalone="no"?>
<!DOCTYPE svg PUBLIC "-//W3C//DTD SVG 1.1//EN"
 "http://www.w3.org/Graphics/SVG/1.1/DTD/svg11.dtd">
<!-- Generated by graphviz version 2.24.0 (20090616.2323)
 -->
<!-- Title: hfa_cluster_init Pages: 1 -->
<svg width="356pt" height="42pt"
 viewBox="0.00 0.00 356.00 42.00" xmlns="http://www.w3.org/2000/svg" xmlns:xlink="http://www.w3.org/1999/xlink">
<g id="graph1" class="graph" transform="scale(1 1) rotate(0) translate(4 38)">
<title>hfa_cluster_init</title>
<polygon fill="white" stroke="white" points="-4,5 -4,-38 353,-38 353,5 -4,5"/>
<!-- Node1 -->
<g id="node1" class="node"><title>Node1</title>
<polygon fill="#bfbfbf" stroke="black" points="0,-6.5 0,-27.5 88,-27.5 88,-6.5 0,-6.5"/>
<text text-anchor="middle" x="44" y="-14.5" font-family="FreeSans" font-size="10.00">hfa_cluster_init</text>
</g>
<!-- Node2 -->
<g id="node3" class="node"><title>Node2</title>
<a xlink:href="hfa-lnx-async_8c.html#abc17fab65a320998a273d112ff24d658" target="_top" xlink:title="Configure cluster memory resources.">
<polygon fill="white" stroke="black" points="124,-0 124,-34 270,-34 270,-0 124,-0"/>
<text text-anchor="start" x="132" y="-21" font-family="FreeSans" font-size="10.00">configure_cluster_memory</text>
<text text-anchor="middle" x="197" y="-8" font-family="FreeSans" font-size="10.00">_resources</text>
</a>
</g>
<!-- Node1&#45;&gt;Node2 -->
<g id="edge2" class="edge"><title>Node1&#45;&gt;Node2</title>
<path fill="none" stroke="midnightblue" d="M98.4201,-17C106.628,-17 115.206,-17 123.731,-17"/>
<polygon fill="midnightblue" stroke="midnightblue" points="98.254,-13.5001 88.2539,-17 98.2539,-20.5001 98.254,-13.5001"/>
</g>
<!-- Node3 -->
<g id="node5" class="node"><title>Node3</title>
<a xlink:href="hfa-lnx-async_8c.html#a78ffddbcd7cdd164889cfb53ea367886" target="_top" xlink:title="entry">
<polygon fill="white" stroke="black" points="306.5,-6.5 306.5,-27.5 347.5,-27.5 347.5,-6.5 306.5,-6.5"/>
<text text-anchor="middle" x="327" y="-14.5" font-family="FreeSans" font-size="10.00">entry</text>
</a>
</g>
<!-- Node2&#45;&gt;Node3 -->
<g id="edge4" class="edge"><title>Node2&#45;&gt;Node3</title>
<path fill="none" stroke="midnightblue" d="M280.471,-17C290.011,-17 298.972,-17 306.435,-17"/>
<polygon fill="midnightblue" stroke="midnightblue" points="280.358,-13.5001 270.358,-17 280.358,-20.5001 280.358,-13.5001"/>
</g>
</g>
</svg>
