<?xml version="1.0" encoding="UTF-8" standalone="no"?>
<!DOCTYPE svg PUBLIC "-//W3C//DTD SVG 1.1//EN"
 "http://www.w3.org/Graphics/SVG/1.1/DTD/svg11.dtd">
<!-- Generated by graphviz version 2.24.0 (20090616.2323)
 -->
<!-- Title: hfa_graph_getstatus Pages: 1 -->
<svg width="474pt" height="130pt"
 viewBox="0.00 0.00 474.00 130.00" xmlns="http://www.w3.org/2000/svg" xmlns:xlink="http://www.w3.org/1999/xlink">
<g id="graph1" class="graph" transform="scale(1 1) rotate(0) translate(4 126)">
<title>hfa_graph_getstatus</title>
<polygon fill="white" stroke="white" points="-4,5 -4,-126 471,-126 471,5 -4,5"/>
<!-- Node1 -->
<g id="node1" class="node"><title>Node1</title>
<polygon fill="#bfbfbf" stroke="black" points="0,-40.5 0,-61.5 114,-61.5 114,-40.5 0,-40.5"/>
<text text-anchor="middle" x="57" y="-48.5" font-family="FreeSans" font-size="10.00">hfa_graph_getstatus</text>
</g>
<!-- Node2 -->
<g id="node3" class="node"><title>Node2</title>
<a xlink:href="cvm-hfa_8c.html#a4753d2dd586e19676b1a59dd16baaeed" target="_top" xlink:title="Obtain status of submitted insruction.">
<polygon fill="white" stroke="black" points="157.5,-80.5 157.5,-101.5 290.5,-101.5 290.5,-80.5 157.5,-80.5"/>
<text text-anchor="middle" x="224" y="-88.5" font-family="FreeSans" font-size="10.00">hfa_dev_getasyncstatus</text>
</a>
</g>
<!-- Node1&#45;&gt;Node2 -->
<g id="edge2" class="edge"><title>Node1&#45;&gt;Node2</title>
<path fill="none" stroke="midnightblue" d="M100.877,-61.5095C122.08,-66.588 147.719,-72.7292 170.1,-78.0898"/>
<polygon fill="midnightblue" stroke="midnightblue" points="169.586,-81.5656 180.126,-80.4913 171.216,-74.7582 169.586,-81.5656"/>
</g>
<!-- Node5 -->
<g id="node9" class="node"><title>Node5</title>
<a xlink:href="cvm-hfa-instr_8h.html#aa7b5661907cf23e01fe784a70980ed4b" target="_top" xlink:title="Gets itype from RWORD0.">
<polygon fill="white" stroke="black" points="163,-40.5 163,-61.5 285,-61.5 285,-40.5 163,-40.5"/>
<text text-anchor="middle" x="224" y="-48.5" font-family="FreeSans" font-size="10.00">cvm_hfa_rslt_getitype</text>
</a>
</g>
<!-- Node1&#45;&gt;Node5 -->
<g id="edge8" class="edge"><title>Node1&#45;&gt;Node5</title>
<path fill="none" stroke="midnightblue" d="M114.005,-51C126.456,-51 139.784,-51 152.713,-51"/>
<polygon fill="midnightblue" stroke="midnightblue" points="152.972,-54.5001 162.972,-51 152.972,-47.5001 152.972,-54.5001"/>
</g>
<!-- Node6 -->
<g id="node11" class="node"><title>Node6</title>
<a xlink:href="cvm-hfa-graph_8c.html#aa4c0667cc4f92a08c249041eb8a4ec58" target="_top" xlink:title="This routine is used to free the buffers and change the graph load status after instruction completio...">
<polygon fill="white" stroke="black" points="150.5,-0.5 150.5,-21.5 297.5,-21.5 297.5,-0.5 150.5,-0.5"/>
<text text-anchor="middle" x="224" y="-8.5" font-family="FreeSans" font-size="10.00">__hfa_graph_processstatus</text>
</a>
</g>
<!-- Node1&#45;&gt;Node6 -->
<g id="edge10" class="edge"><title>Node1&#45;&gt;Node6</title>
<path fill="none" stroke="midnightblue" d="M100.877,-40.4905C122.08,-35.412 147.719,-29.2708 170.1,-23.9102"/>
<polygon fill="midnightblue" stroke="midnightblue" points="171.216,-27.2418 180.126,-21.5087 169.586,-20.4344 171.216,-27.2418"/>
</g>
<!-- Node3 -->
<g id="node5" class="node"><title>Node3</title>
<a xlink:href="cvm-hfa-instr_8h.html#a56f2522dcba965745a1bc239fc432dca" target="_top" xlink:title="Gets done from RWORD0.">
<polygon fill="white" stroke="black" points="338.5,-100.5 338.5,-121.5 461.5,-121.5 461.5,-100.5 338.5,-100.5"/>
<text text-anchor="middle" x="400" y="-108.5" font-family="FreeSans" font-size="10.00">cvm_hfa_rslt_getdone</text>
</a>
</g>
<!-- Node2&#45;&gt;Node3 -->
<g id="edge4" class="edge"><title>Node2&#45;&gt;Node3</title>
<path fill="none" stroke="midnightblue" d="M290.538,-98.5611C302.782,-99.9525 315.616,-101.411 328.012,-102.82"/>
<polygon fill="midnightblue" stroke="midnightblue" points="327.968,-106.337 338.299,-103.989 328.758,-99.3817 327.968,-106.337"/>
</g>
<!-- Node4 -->
<g id="node7" class="node"><title>Node4</title>
<a xlink:href="cvm-hfa-instr_8h.html#a9700a50b68b6616506528eb725a8bda1" target="_top" xlink:title="Gets reason from RWORD0.">
<polygon fill="white" stroke="black" points="334.5,-60.5 334.5,-81.5 465.5,-81.5 465.5,-60.5 334.5,-60.5"/>
<text text-anchor="middle" x="400" y="-68.5" font-family="FreeSans" font-size="10.00">cvm_hfa_rslt_getreason</text>
</a>
</g>
<!-- Node2&#45;&gt;Node4 -->
<g id="edge6" class="edge"><title>Node2&#45;&gt;Node4</title>
<path fill="none" stroke="midnightblue" d="M290.538,-83.4389C301.494,-82.1939 312.922,-80.8952 324.086,-79.6266"/>
<polygon fill="midnightblue" stroke="midnightblue" points="324.702,-83.0792 334.243,-78.4724 323.912,-76.1239 324.702,-83.0792"/>
</g>
<!-- Node7 -->
<g id="node13" class="node"><title>Node7</title>
<a xlink:href="cvm-hfa-cluster_8c.html#ad8cad96579f5a310b62caaf8c166658f" target="_top" xlink:title="Returns a copy of a cluster of the HFA device.">
<polygon fill="white" stroke="black" points="355,-0.5 355,-21.5 445,-21.5 445,-0.5 355,-0.5"/>
<text text-anchor="middle" x="400" y="-8.5" font-family="FreeSans" font-size="10.00">hfa_get_cluster</text>
</a>
</g>
<!-- Node6&#45;&gt;Node7 -->
<g id="edge12" class="edge"><title>Node6&#45;&gt;Node7</title>
<path fill="none" stroke="midnightblue" d="M297.62,-11C313.386,-11 329.785,-11 344.719,-11"/>
<polygon fill="midnightblue" stroke="midnightblue" points="344.797,-14.5001 354.797,-11 344.797,-7.5001 344.797,-14.5001"/>
</g>
</g>
</svg>
