<?xml version="1.0" encoding="UTF-8" standalone="no"?>
<!DOCTYPE svg PUBLIC "-//W3C//DTD SVG 1.1//EN"
 "http://www.w3.org/Graphics/SVG/1.1/DTD/svg11.dtd">
<!-- Generated by graphviz version 2.24.0 (20090616.2323)
 -->
<!-- Title: hfa_dev_searchctx_init Pages: 1 -->
<svg width="470pt" height="70pt"
 viewBox="0.00 0.00 470.00 70.00" xmlns="http://www.w3.org/2000/svg" xmlns:xlink="http://www.w3.org/1999/xlink">
<g id="graph1" class="graph" transform="scale(1 1) rotate(0) translate(4 66)">
<title>hfa_dev_searchctx_init</title>
<polygon fill="white" stroke="white" points="-4,5 -4,-66 467,-66 467,5 -4,5"/>
<!-- Node1 -->
<g id="node1" class="node"><title>Node1</title>
<polygon fill="#bfbfbf" stroke="black" points="0.5,-20.5 0.5,-41.5 127.5,-41.5 127.5,-20.5 0.5,-20.5"/>
<text text-anchor="middle" x="64" y="-28.5" font-family="FreeSans" font-size="10.00">hfa_dev_searchctx_init</text>
</g>
<!-- Node2 -->
<g id="node3" class="node"><title>Node2</title>
<a xlink:href="cvm-hfa-stats_8c.html#a1cff986555a79b0d5ccee49801cb0056" target="_top" xlink:title="This routine allocates the memory for counters to maintain the statistics of search context...">
<polygon fill="white" stroke="black" points="164.5,-20.5 164.5,-41.5 295.5,-41.5 295.5,-20.5 164.5,-20.5"/>
<text text-anchor="middle" x="230" y="-28.5" font-family="FreeSans" font-size="10.00">hfa_searchctx_stats_init</text>
</a>
</g>
<!-- Node1&#45;&gt;Node2 -->
<g id="edge2" class="edge"><title>Node1&#45;&gt;Node2</title>
<path fill="none" stroke="midnightblue" d="M127.705,-31C136.314,-31 145.216,-31 154.012,-31"/>
<polygon fill="midnightblue" stroke="midnightblue" points="154.266,-34.5001 164.266,-31 154.266,-27.5001 154.266,-34.5001"/>
</g>
<!-- Node3 -->
<g id="node5" class="node"><title>Node3</title>
<a xlink:href="cvm-hfa-stats_8c.html#acbdfa65e476c04cd9b67b7c462eefe56" target="_top" xlink:title="This routine allocates required memory from STATS ARENA.">
<polygon fill="white" stroke="black" points="332.5,-40.5 332.5,-61.5 461.5,-61.5 461.5,-40.5 332.5,-40.5"/>
<text text-anchor="middle" x="397" y="-48.5" font-family="FreeSans" font-size="10.00">hfa_stats_memoryalloc</text>
</a>
</g>
<!-- Node2&#45;&gt;Node3 -->
<g id="edge4" class="edge"><title>Node2&#45;&gt;Node3</title>
<path fill="none" stroke="midnightblue" d="M295.524,-38.8471C304.354,-39.9046 313.465,-40.9959 322.438,-42.0704"/>
<polygon fill="midnightblue" stroke="midnightblue" points="322.141,-45.5598 332.487,-43.2738 322.974,-38.6095 322.141,-45.5598"/>
</g>
<!-- Node4 -->
<g id="node7" class="node"><title>Node4</title>
<a xlink:href="cvm-hfa-stats_8c.html#a7a2acbe48c3850d43256938ee996aa16" target="_top" xlink:title="This routine frees memory to STATS ARENA.">
<polygon fill="white" stroke="black" points="334.5,-0.5 334.5,-21.5 459.5,-21.5 459.5,-0.5 334.5,-0.5"/>
<text text-anchor="middle" x="397" y="-8.5" font-family="FreeSans" font-size="10.00">hfa_stats_memoryfree</text>
</a>
</g>
<!-- Node2&#45;&gt;Node4 -->
<g id="edge6" class="edge"><title>Node2&#45;&gt;Node4</title>
<path fill="none" stroke="midnightblue" d="M295.524,-23.1529C305.018,-22.0158 314.839,-20.8397 324.461,-19.6872"/>
<polygon fill="midnightblue" stroke="midnightblue" points="324.883,-23.1619 334.396,-18.4975 324.051,-16.2115 324.883,-23.1619"/>
</g>
</g>
</svg>
