<?xml version="1.0" encoding="UTF-8" standalone="no"?>
<!DOCTYPE svg PUBLIC "-//W3C//DTD SVG 1.1//EN"
 "http://www.w3.org/Graphics/SVG/1.1/DTD/svg11.dtd">
<!-- Generated by graphviz version 2.24.0 (20090616.2323)
 -->
<!-- Title: hfa_graph_memload_data_async Pages: 1 -->
<svg width="684pt" height="70pt"
 viewBox="0.00 0.00 684.00 70.00" xmlns="http://www.w3.org/2000/svg" xmlns:xlink="http://www.w3.org/1999/xlink">
<g id="graph1" class="graph" transform="scale(1 1) rotate(0) translate(4 66)">
<title>hfa_graph_memload_data_async</title>
<polygon fill="white" stroke="white" points="-4,5 -4,-66 681,-66 681,5 -4,5"/>
<!-- Node1 -->
<g id="node1" class="node"><title>Node1</title>
<polygon fill="#bfbfbf" stroke="black" points="0,-14 0,-48 142,-48 142,-14 0,-14"/>
<text text-anchor="start" x="8" y="-35" font-family="FreeSans" font-size="10.00">hfa_graph_memload_data</text>
<text text-anchor="middle" x="71" y="-22" font-family="FreeSans" font-size="10.00">_async</text>
</g>
<!-- Node2 -->
<g id="node3" class="node"><title>Node2</title>
<a xlink:href="app-utils_8c.html#aed95bb72627cff313c596ebcfcd8af61" target="_top" xlink:title="Parse graph into chunks and load graph to HFA memory.">
<polygon fill="white" stroke="black" points="356.5,-20.5 356.5,-41.5 491.5,-41.5 491.5,-20.5 356.5,-20.5"/>
<text text-anchor="middle" x="424" y="-28.5" font-family="FreeSans" font-size="10.00">hfautils_download_graph</text>
</a>
</g>
<!-- Node1&#45;&gt;Node2 -->
<g id="edge2" class="edge"><title>Node1&#45;&gt;Node2</title>
<path fill="none" stroke="midnightblue" d="M152.252,-31.8389C160.944,-31.9049 169.655,-31.961 178,-32 241.11,-32.2949 256.89,-32.3034 320,-32 331.737,-31.9436 344.218,-31.8513 356.309,-31.7451"/>
<polygon fill="midnightblue" stroke="midnightblue" points="152.109,-28.3377 142.081,-31.7573 152.052,-35.3375 152.109,-28.3377"/>
</g>
<!-- Node6 -->
<g id="node11" class="node"><title>Node6</title>
<a xlink:href="cvm-hfa-graph_8c.html#a9e3f1a4bf2be683265108b5131541e89" target="_top" xlink:title="This routine downloads graph data to the HFA engine in a blocking manner.">
<polygon fill="white" stroke="black" points="178,-1.5 178,-22.5 320,-22.5 320,-1.5 178,-1.5"/>
<text text-anchor="middle" x="249" y="-9.5" font-family="FreeSans" font-size="10.00">hfa_graph_memload_data</text>
</a>
</g>
<!-- Node1&#45;&gt;Node6 -->
<g id="edge10" class="edge"><title>Node1&#45;&gt;Node6</title>
<path fill="none" stroke="midnightblue" d="M152.17,-22.3358C160.789,-21.4158 169.506,-20.4853 177.995,-19.5792"/>
<polygon fill="midnightblue" stroke="midnightblue" points="151.69,-18.8671 142.118,-23.4088 152.433,-25.8275 151.69,-18.8671"/>
</g>
<!-- Node3 -->
<g id="node5" class="node"><title>Node3</title>
<a xlink:href="hfa-lnx-async_8c.html#a546f3769e735d4bef0bfab1cba56921c" target="_top" xlink:title="Load graph to HFA memory and cache.">
<polygon fill="white" stroke="black" points="528.5,-40.5 528.5,-61.5 597.5,-61.5 597.5,-40.5 528.5,-40.5"/>
<text text-anchor="middle" x="563" y="-48.5" font-family="FreeSans" font-size="10.00">graph_load</text>
</a>
</g>
<!-- Node2&#45;&gt;Node3 -->
<g id="edge4" class="edge"><title>Node2&#45;&gt;Node3</title>
<path fill="none" stroke="midnightblue" d="M501.959,-42.2172C511.212,-43.5485 520.262,-44.8506 528.44,-46.0273"/>
<polygon fill="midnightblue" stroke="midnightblue" points="502.268,-38.7256 491.871,-40.7656 501.271,-45.6542 502.268,-38.7256"/>
</g>
<!-- Node5 -->
<g id="node9" class="node"><title>Node5</title>
<a xlink:href="hfa-lnx-ctx_8c.html#a78ffddbcd7cdd164889cfb53ea367886" target="_top" xlink:title="entry">
<polygon fill="white" stroke="black" points="542.5,-0.5 542.5,-21.5 583.5,-21.5 583.5,-0.5 542.5,-0.5"/>
<text text-anchor="middle" x="563" y="-8.5" font-family="FreeSans" font-size="10.00">entry</text>
</a>
</g>
<!-- Node2&#45;&gt;Node5 -->
<g id="edge8" class="edge"><title>Node2&#45;&gt;Node5</title>
<path fill="none" stroke="midnightblue" d="M502.165,-19.7533C516.959,-17.6246 531.222,-15.5724 542.214,-13.9908"/>
<polygon fill="midnightblue" stroke="midnightblue" points="501.271,-16.3458 491.871,-21.2344 502.268,-23.2744 501.271,-16.3458"/>
</g>
<!-- Node4 -->
<g id="node7" class="node"><title>Node4</title>
<a xlink:href="hfa-lnx-async_8c.html#a78ffddbcd7cdd164889cfb53ea367886" target="_top" xlink:title="entry">
<polygon fill="white" stroke="black" points="634.5,-40.5 634.5,-61.5 675.5,-61.5 675.5,-40.5 634.5,-40.5"/>
<text text-anchor="middle" x="655" y="-48.5" font-family="FreeSans" font-size="10.00">entry</text>
</a>
</g>
<!-- Node3&#45;&gt;Node4 -->
<g id="edge6" class="edge"><title>Node3&#45;&gt;Node4</title>
<path fill="none" stroke="midnightblue" d="M607.612,-51C617.01,-51 626.485,-51 634.466,-51"/>
<polygon fill="midnightblue" stroke="midnightblue" points="607.519,-47.5001 597.519,-51 607.519,-54.5001 607.519,-47.5001"/>
</g>
<!-- Node6&#45;&gt;Node2 -->
<g id="edge12" class="edge"><title>Node6&#45;&gt;Node2</title>
<path fill="none" stroke="midnightblue" d="M330.318,-20.8288C339.005,-21.7719 347.773,-22.7239 356.278,-23.6473"/>
<polygon fill="midnightblue" stroke="midnightblue" points="330.499,-17.3279 320.179,-19.728 329.743,-24.287 330.499,-17.3279"/>
</g>
</g>
</svg>
