<?xml version="1.0" encoding="UTF-8" standalone="no"?>
<!DOCTYPE svg PUBLIC "-//W3C//DTD SVG 1.1//EN"
 "http://www.w3.org/Graphics/SVG/1.1/DTD/svg11.dtd">
<!-- Generated by graphviz version 2.24.0 (20090616.2323)
 -->
<!-- Title: hfa_dev_get_nclusters Pages: 1 -->
<svg width="392pt" height="82pt"
 viewBox="0.00 0.00 392.00 82.00" xmlns="http://www.w3.org/2000/svg" xmlns:xlink="http://www.w3.org/1999/xlink">
<g id="graph1" class="graph" transform="scale(1 1) rotate(0) translate(4 78)">
<title>hfa_dev_get_nclusters</title>
<polygon fill="white" stroke="white" points="-4,5 -4,-78 389,-78 389,5 -4,5"/>
<!-- Node1 -->
<g id="node1" class="node"><title>Node1</title>
<polygon fill="#bfbfbf" stroke="black" points="0,-23.5 0,-44.5 124,-44.5 124,-23.5 0,-23.5"/>
<text text-anchor="middle" x="62" y="-31.5" font-family="FreeSans" font-size="10.00">hfa_dev_get_nclusters</text>
</g>
<!-- Node2 -->
<g id="node3" class="node"><title>Node2</title>
<a xlink:href="hfa-lnx-async_8c.html#acd9e54f020b77f14d54c200b65423a15" target="_top" xlink:title="Application cleanup will be done by this routine.">
<polygon fill="white" stroke="black" points="206,-0.5 206,-21.5 260,-21.5 260,-0.5 206,-0.5"/>
<text text-anchor="middle" x="233" y="-8.5" font-family="FreeSans" font-size="10.00">cleanup</text>
</a>
</g>
<!-- Node1&#45;&gt;Node2 -->
<g id="edge2" class="edge"><title>Node1&#45;&gt;Node2</title>
<path fill="none" stroke="midnightblue" d="M134.217,-24.2866C159.589,-20.8739 186.562,-17.2461 205.9,-14.645"/>
<polygon fill="midnightblue" stroke="midnightblue" points="133.663,-20.8295 124.219,-25.6314 134.596,-27.7671 133.663,-20.8295"/>
</g>
<!-- Node5 -->
<g id="node9" class="node"><title>Node5</title>
<a xlink:href="hfa-lnx-async_8c.html#abc17fab65a320998a273d112ff24d658" target="_top" xlink:title="Configure cluster memory resources.">
<polygon fill="white" stroke="black" points="160,-40 160,-74 306,-74 306,-40 160,-40"/>
<text text-anchor="start" x="168" y="-61" font-family="FreeSans" font-size="10.00">configure_cluster_memory</text>
<text text-anchor="middle" x="233" y="-48" font-family="FreeSans" font-size="10.00">_resources</text>
</a>
</g>
<!-- Node1&#45;&gt;Node5 -->
<g id="edge8" class="edge"><title>Node1&#45;&gt;Node5</title>
<path fill="none" stroke="midnightblue" d="M134.37,-43.734C142.782,-44.8654 151.367,-46.0201 159.79,-47.153"/>
<polygon fill="midnightblue" stroke="midnightblue" points="134.596,-40.2329 124.219,-42.3686 133.663,-47.1705 134.596,-40.2329"/>
</g>
<!-- Node3 -->
<g id="node5" class="node"><title>Node3</title>
<a xlink:href="hfa-lnx-async_8c.html#a78ffddbcd7cdd164889cfb53ea367886" target="_top" xlink:title="entry">
<polygon fill="white" stroke="black" points="342.5,-43.5 342.5,-64.5 383.5,-64.5 383.5,-43.5 342.5,-43.5"/>
<text text-anchor="middle" x="363" y="-51.5" font-family="FreeSans" font-size="10.00">entry</text>
</a>
</g>
<!-- Node2&#45;&gt;Node3 -->
<g id="edge4" class="edge"><title>Node2&#45;&gt;Node3</title>
<path fill="none" stroke="midnightblue" d="M270.085,-20.2657C281.672,-23.3993 294.444,-27.1002 306,-31 318.234,-35.1287 331.637,-40.4927 342.371,-45.002"/>
<polygon fill="midnightblue" stroke="midnightblue" points="270.83,-16.8425 260.267,-17.6672 269.039,-23.6095 270.83,-16.8425"/>
</g>
<!-- Node4 -->
<g id="node7" class="node"><title>Node4</title>
<a xlink:href="hfa-lnx-async_8c.html#aaf98ef7cdde3a0dfb2e49919de3298b1" target="_top" xlink:title="exit">
<polygon fill="white" stroke="black" points="346.5,-0.5 346.5,-21.5 379.5,-21.5 379.5,-0.5 346.5,-0.5"/>
<text text-anchor="middle" x="363" y="-8.5" font-family="FreeSans" font-size="10.00">exit</text>
</a>
</g>
<!-- Node2&#45;&gt;Node4 -->
<g id="edge6" class="edge"><title>Node2&#45;&gt;Node4</title>
<path fill="none" stroke="midnightblue" d="M270.548,-11C295.661,-11 327.472,-11 346.477,-11"/>
<polygon fill="midnightblue" stroke="midnightblue" points="270.252,-7.5001 260.252,-11 270.252,-14.5001 270.252,-7.5001"/>
</g>
<!-- Node5&#45;&gt;Node3 -->
<g id="edge10" class="edge"><title>Node5&#45;&gt;Node3</title>
<path fill="none" stroke="midnightblue" d="M316.471,-55.0737C326.011,-54.8536 334.972,-54.6468 342.435,-54.4746"/>
<polygon fill="midnightblue" stroke="midnightblue" points="316.275,-51.5772 306.358,-55.3071 316.436,-58.5754 316.275,-51.5772"/>
</g>
</g>
</svg>
