<?xml version="1.0" encoding="UTF-8" standalone="no"?>
<!DOCTYPE svg PUBLIC "-//W3C//DTD SVG 1.1//EN"
 "http://www.w3.org/Graphics/SVG/1.1/DTD/svg11.dtd">
<!-- Generated by graphviz version 2.24.0 (20090616.2323)
 -->
<!-- Title: hfa_dev_set_fnp_pptsize Pages: 1 -->
<svg width="332pt" height="70pt"
 viewBox="0.00 0.00 332.00 70.00" xmlns="http://www.w3.org/2000/svg" xmlns:xlink="http://www.w3.org/1999/xlink">
<g id="graph1" class="graph" transform="scale(1 1) rotate(0) translate(4 66)">
<title>hfa_dev_set_fnp_pptsize</title>
<polygon fill="white" stroke="white" points="-4,5 -4,-66 329,-66 329,5 -4,5"/>
<!-- Node1 -->
<g id="node1" class="node"><title>Node1</title>
<polygon fill="#bfbfbf" stroke="black" points="0.5,-20.5 0.5,-41.5 135.5,-41.5 135.5,-20.5 0.5,-20.5"/>
<text text-anchor="middle" x="68" y="-28.5" font-family="FreeSans" font-size="10.00">hfa_dev_set_fnp_pptsize</text>
</g>
<!-- Node2 -->
<g id="node3" class="node"><title>Node2</title>
<a xlink:href="cvm-hfa_8c.html#a873768042b716d60996ec5d858fc8fd9" target="_top" xlink:title="This function must be called by application to initialize HFA engine and setup resources for HFA hard...">
<polygon fill="white" stroke="black" points="172,-20.5 172,-41.5 246,-41.5 246,-20.5 172,-20.5"/>
<text text-anchor="middle" x="209" y="-28.5" font-family="FreeSans" font-size="10.00">hfa_dev_init</text>
</a>
</g>
<!-- Node1&#45;&gt;Node2 -->
<g id="edge2" class="edge"><title>Node1&#45;&gt;Node2</title>
<path fill="none" stroke="midnightblue" d="M145.808,-31C154.81,-31 163.65,-31 171.735,-31"/>
<polygon fill="midnightblue" stroke="midnightblue" points="145.609,-27.5001 135.609,-31 145.609,-34.5001 145.609,-27.5001"/>
</g>
<!-- Node3 -->
<g id="node5" class="node"><title>Node3</title>
<a xlink:href="hfa-lnx-async_8c.html#a78ffddbcd7cdd164889cfb53ea367886" target="_top" xlink:title="entry">
<polygon fill="white" stroke="black" points="282.5,-40.5 282.5,-61.5 323.5,-61.5 323.5,-40.5 282.5,-40.5"/>
<text text-anchor="middle" x="303" y="-48.5" font-family="FreeSans" font-size="10.00">entry</text>
</a>
</g>
<!-- Node2&#45;&gt;Node3 -->
<g id="edge4" class="edge"><title>Node2&#45;&gt;Node3</title>
<path fill="none" stroke="midnightblue" d="M256.098,-41.0209C265.326,-42.9842 274.548,-44.9463 282.342,-46.6047"/>
<polygon fill="midnightblue" stroke="midnightblue" points="256.661,-37.5623 246.151,-38.9045 255.204,-44.4091 256.661,-37.5623"/>
</g>
<!-- Node4 -->
<g id="node7" class="node"><title>Node4</title>
<a xlink:href="hfa-se-async_8c.html#a3c04138a5bfe5d72780bb7e82a18e627" target="_top" xlink:title="main">
<polygon fill="white" stroke="black" points="283,-0.5 283,-21.5 323,-21.5 323,-0.5 283,-0.5"/>
<text text-anchor="middle" x="303" y="-8.5" font-family="FreeSans" font-size="10.00">main</text>
</a>
</g>
<!-- Node2&#45;&gt;Node4 -->
<g id="edge6" class="edge"><title>Node2&#45;&gt;Node4</title>
<path fill="none" stroke="midnightblue" d="M255.966,-21.0073C265.447,-18.9901 274.929,-16.9725 282.871,-15.2828"/>
<polygon fill="midnightblue" stroke="midnightblue" points="255.204,-17.5909 246.151,-23.0955 256.661,-24.4377 255.204,-17.5909"/>
</g>
</g>
</svg>
