<?xml version="1.0" encoding="UTF-8" standalone="no"?>
<!DOCTYPE svg PUBLIC "-//W3C//DTD SVG 1.1//EN"
 "http://www.w3.org/Graphics/SVG/1.1/DTD/svg11.dtd">
<!-- Generated by graphviz version 2.24.0 (20090616.2323)
 -->
<!-- Title: Rinit Pages: 1 -->
<svg width="1052pt" height="289pt"
 viewBox="0.00 0.00 1052.00 289.00" xmlns="http://www.w3.org/2000/svg" xmlns:xlink="http://www.w3.org/1999/xlink">
<g id="graph1" class="graph" transform="scale(1 1) rotate(0) translate(4 285)">
<title>Rinit</title>
<polygon fill="white" stroke="white" points="-4,5 -4,-285 1049,-285 1049,5 -4,5"/>
<!-- Node1 -->
<g id="node1" class="node"><title>Node1</title>
<polygon fill="#bfbfbf" stroke="black" points="0,-120.5 0,-141.5 36,-141.5 36,-120.5 0,-120.5"/>
<text text-anchor="middle" x="18" y="-128.5" font-family="FreeSans" font-size="10.00">Rinit</text>
</g>
<!-- Node2 -->
<g id="node3" class="node"><title>Node2</title>
<a xlink:href="ppdfa_8h.html#a81b3389c2c25a4ba308f71501f980e38" target="_top" xlink:title="pp">
<polygon fill="white" stroke="black" points="72.5,-120.5 72.5,-141.5 101.5,-141.5 101.5,-120.5 72.5,-120.5"/>
<text text-anchor="middle" x="87" y="-128.5" font-family="FreeSans" font-size="10.00">pp</text>
</a>
</g>
<!-- Node1&#45;&gt;Node2 -->
<g id="edge2" class="edge"><title>Node1&#45;&gt;Node2</title>
<path fill="none" stroke="midnightblue" d="M46.2724,-131C55.2727,-131 64.8578,-131 72.467,-131"/>
<polygon fill="midnightblue" stroke="midnightblue" points="46.129,-127.5 36.1289,-131 46.1289,-134.5 46.129,-127.5"/>
</g>
<!-- Node3 -->
<g id="node5" class="node"><title>Node3</title>
<a xlink:href="cvm-hfa-search_8c.html#a6dbb15dc58155b2c94b19784ad42ef89" target="_top" xlink:title="This routine post&#45;processes the search results from the HFA engine and reports the pattern matches fo...">
<polygon fill="white" stroke="black" points="138.5,-120.5 138.5,-141.5 285.5,-141.5 285.5,-120.5 138.5,-120.5"/>
<text text-anchor="middle" x="212" y="-128.5" font-family="FreeSans" font-size="10.00">hfa_searchctx_getmatches</text>
</a>
</g>
<!-- Node2&#45;&gt;Node3 -->
<g id="edge4" class="edge"><title>Node2&#45;&gt;Node3</title>
<path fill="none" stroke="midnightblue" d="M111.986,-131C119.825,-131 128.914,-131 138.354,-131"/>
<polygon fill="midnightblue" stroke="midnightblue" points="111.83,-127.5 101.83,-131 111.83,-134.5 111.83,-127.5"/>
</g>
<!-- Node4 -->
<g id="node7" class="node"><title>Node4</title>
<a xlink:href="flow_8c.html#a2976ab60901b133a56214323fb901663" target="_top" xlink:title="Low level API to poll a flow.">
<polygon fill="white" stroke="black" points="322.5,-259.5 322.5,-280.5 451.5,-280.5 451.5,-259.5 322.5,-259.5"/>
<text text-anchor="middle" x="387" y="-267.5" font-family="FreeSans" font-size="10.00">__hfaf_process_pktflow</text>
</a>
</g>
<!-- Node3&#45;&gt;Node4 -->
<g id="edge6" class="edge"><title>Node3&#45;&gt;Node4</title>
<path fill="none" stroke="midnightblue" d="M229.543,-148.979C250.494,-169.954 287.1,-205.063 322,-231 336.365,-241.676 353.812,-252.015 367.012,-259.363"/>
<polygon fill="midnightblue" stroke="midnightblue" points="231.839,-146.323 222.316,-141.68 226.865,-151.249 231.839,-146.323"/>
</g>
<!-- Node10 -->
<g id="node19" class="node"><title>Node10</title>
<a xlink:href="hfa-lnx-async_8c.html#a972f8b60ef804914c009c2ef85bac50e" target="_top" xlink:title="Process search for given payload and graph.">
<polygon fill="white" stroke="black" points="341,-200.5 341,-221.5 433,-221.5 433,-200.5 341,-200.5"/>
<text text-anchor="middle" x="387" y="-208.5" font-family="FreeSans" font-size="10.00">process_search</text>
</a>
</g>
<!-- Node3&#45;&gt;Node10 -->
<g id="edge18" class="edge"><title>Node3&#45;&gt;Node10</title>
<path fill="none" stroke="midnightblue" d="M237.659,-146.921C259.497,-159.997 292.007,-178.357 322,-191 330.269,-194.485 339.357,-197.664 348.048,-200.411"/>
<polygon fill="midnightblue" stroke="midnightblue" points="239.358,-143.858 228.991,-141.673 235.732,-149.846 239.358,-143.858"/>
</g>
<!-- Node14 -->
<g id="node28" class="node"><title>Node14</title>
<a xlink:href="hfa-lnx-ctx_8c.html#a71e1d3d18cc48b90a1ecde583ffb3f7a" target="_top" xlink:title="poll_searchctx">
<polygon fill="white" stroke="black" points="344,-160.5 344,-181.5 430,-181.5 430,-160.5 344,-160.5"/>
<text text-anchor="middle" x="387" y="-168.5" font-family="FreeSans" font-size="10.00">poll_searchctx</text>
</a>
</g>
<!-- Node3&#45;&gt;Node14 -->
<g id="edge28" class="edge"><title>Node3&#45;&gt;Node14</title>
<path fill="none" stroke="midnightblue" d="M267.885,-143.774C292.439,-149.386 320.83,-155.875 343.735,-161.111"/>
<polygon fill="midnightblue" stroke="midnightblue" points="268.508,-140.326 257.979,-141.51 266.948,-147.15 268.508,-140.326"/>
</g>
<!-- Node17 -->
<g id="node34" class="node"><title>Node17</title>
<a xlink:href="hfa-lnx-linkgraph_8c.html#a78ffddbcd7cdd164889cfb53ea367886" target="_top" xlink:title="entry">
<polygon fill="white" stroke="black" points="366.5,-120.5 366.5,-141.5 407.5,-141.5 407.5,-120.5 366.5,-120.5"/>
<text text-anchor="middle" x="387" y="-128.5" font-family="FreeSans" font-size="10.00">entry</text>
</a>
</g>
<!-- Node3&#45;&gt;Node17 -->
<g id="edge34" class="edge"><title>Node3&#45;&gt;Node17</title>
<path fill="none" stroke="midnightblue" d="M295.738,-131C322.018,-131 348.75,-131 366.431,-131"/>
<polygon fill="midnightblue" stroke="midnightblue" points="295.709,-127.5 285.709,-131 295.709,-134.5 295.709,-127.5"/>
</g>
<!-- Node18 -->
<g id="node36" class="node"><title>Node18</title>
<a xlink:href="hfa-lnx-nctx-lock_8c.html#adb0c831ef0f9af5441a6769c377d9c95" target="_top" xlink:title="Post process the results from HFA and record found matches.">
<polygon fill="white" stroke="black" points="347,-80.5 347,-101.5 427,-101.5 427,-80.5 347,-80.5"/>
<text text-anchor="middle" x="387" y="-88.5" font-family="FreeSans" font-size="10.00">post_process</text>
</a>
</g>
<!-- Node3&#45;&gt;Node18 -->
<g id="edge36" class="edge"><title>Node3&#45;&gt;Node18</title>
<path fill="none" stroke="midnightblue" d="M267.97,-118.207C293.678,-112.331 323.577,-105.497 346.978,-100.148"/>
<polygon fill="midnightblue" stroke="midnightblue" points="266.948,-114.85 257.979,-120.49 268.508,-121.674 266.948,-114.85"/>
</g>
<!-- Node21 -->
<g id="node43" class="node"><title>Node21</title>
<a xlink:href="hfa-se-async_8c.html#a3c04138a5bfe5d72780bb7e82a18e627" target="_top" xlink:title="main">
<polygon fill="white" stroke="black" points="367,-40.5 367,-61.5 407,-61.5 407,-40.5 367,-40.5"/>
<text text-anchor="middle" x="387" y="-48.5" font-family="FreeSans" font-size="10.00">main</text>
</a>
</g>
<!-- Node3&#45;&gt;Node21 -->
<g id="edge44" class="edge"><title>Node3&#45;&gt;Node21</title>
<path fill="none" stroke="midnightblue" d="M237.659,-115.079C259.497,-102.003 292.007,-83.6427 322,-71 336.579,-64.8547 353.705,-59.663 366.717,-56.1103"/>
<polygon fill="midnightblue" stroke="midnightblue" points="235.732,-112.154 228.991,-120.327 239.358,-118.142 235.732,-112.154"/>
</g>
<!-- Node22 -->
<g id="node45" class="node"><title>Node22</title>
<a xlink:href="hfa-se-wqe-lock_8c.html#a06b5fcfab0e1d5eb36b633ec080ad7f9" target="_top" xlink:title="Process search for given contexts.">
<polygon fill="white" stroke="black" points="347,-0.5 347,-21.5 427,-21.5 427,-0.5 347,-0.5"/>
<text text-anchor="middle" x="387" y="-8.5" font-family="FreeSans" font-size="10.00">process_nctx</text>
</a>
</g>
<!-- Node3&#45;&gt;Node22 -->
<g id="edge46" class="edge"><title>Node3&#45;&gt;Node22</title>
<path fill="none" stroke="midnightblue" d="M227.6,-112.53C247.402,-90.1933 283.629,-52.876 322,-31 329.59,-26.6727 338.223,-23.176 346.663,-20.3913"/>
<polygon fill="midnightblue" stroke="midnightblue" points="224.768,-110.453 220.845,-120.294 230.049,-115.048 224.768,-110.453"/>
</g>
<!-- Node5 -->
<g id="node9" class="node"><title>Node5</title>
<a xlink:href="flow_8h.html#ab1b3378af88a440a6c3c0851be942e65" target="_top" xlink:title="All submitted search parameters in Paramlist of flow are polled If low level API __hfaf_process_pktfl...">
<polygon fill="white" stroke="black" points="488.5,-259.5 488.5,-280.5 607.5,-280.5 607.5,-259.5 488.5,-259.5"/>
<text text-anchor="middle" x="548" y="-267.5" font-family="FreeSans" font-size="10.00">hfaf_process_pktflow</text>
</a>
</g>
<!-- Node4&#45;&gt;Node5 -->
<g id="edge8" class="edge"><title>Node4&#45;&gt;Node5</title>
<path fill="none" stroke="midnightblue" d="M461.622,-270C470.594,-270 479.665,-270 488.384,-270"/>
<polygon fill="midnightblue" stroke="midnightblue" points="461.557,-266.5 451.557,-270 461.557,-273.5 461.557,-266.5"/>
</g>
<!-- Node6 -->
<g id="node11" class="node"><title>Node6</title>
<a xlink:href="hfa-se-flow_8c.html#a2d83c733eacd7afc955c3af18edcb52a" target="_top" xlink:title="Polls for a submitted search instruction of a flow.">
<polygon fill="white" stroke="black" points="647.5,-259.5 647.5,-280.5 732.5,-280.5 732.5,-259.5 647.5,-259.5"/>
<text text-anchor="middle" x="690" y="-267.5" font-family="FreeSans" font-size="10.00">__processflow</text>
</a>
</g>
<!-- Node5&#45;&gt;Node6 -->
<g id="edge10" class="edge"><title>Node5&#45;&gt;Node6</title>
<path fill="none" stroke="midnightblue" d="M618.083,-270C627.981,-270 637.902,-270 647.078,-270"/>
<polygon fill="midnightblue" stroke="midnightblue" points="617.809,-266.5 607.809,-270 617.809,-273.5 617.809,-266.5"/>
</g>
<!-- Node7 -->
<g id="node13" class="node"><title>Node7</title>
<a xlink:href="hfa-se-flow_8c.html#a786591694a8f8fb46cedbc8a580c88f6" target="_top" xlink:title="Submitting or Polling flows from the software recently used cache IF Cache is empty, it tries to refill it.">
<polygon fill="white" stroke="black" points="772.5,-259.5 772.5,-280.5 835.5,-280.5 835.5,-259.5 772.5,-259.5"/>
<text text-anchor="middle" x="804" y="-267.5" font-family="FreeSans" font-size="10.00">do_cache</text>
</a>
</g>
<!-- Node6&#45;&gt;Node7 -->
<g id="edge12" class="edge"><title>Node6&#45;&gt;Node7</title>
<path fill="none" stroke="midnightblue" d="M742.784,-270C752.902,-270 763.197,-270 772.387,-270"/>
<polygon fill="midnightblue" stroke="midnightblue" points="742.774,-266.5 732.774,-270 742.774,-273.5 742.774,-266.5"/>
</g>
<!-- Node8 -->
<g id="node15" class="node"><title>Node8</title>
<a xlink:href="hfa-se-flow_8c.html#aba72a61590283e37ffd78b4defd38220" target="_top" xlink:title="Receive network packets and process.">
<polygon fill="white" stroke="black" points="872,-259.5 872,-280.5 968,-280.5 968,-259.5 872,-259.5"/>
<text text-anchor="middle" x="920" y="-267.5" font-family="FreeSans" font-size="10.00">process_packets</text>
</a>
</g>
<!-- Node7&#45;&gt;Node8 -->
<g id="edge14" class="edge"><title>Node7&#45;&gt;Node8</title>
<path fill="none" stroke="midnightblue" d="M845.711,-270C854.17,-270 863.131,-270 871.792,-270"/>
<polygon fill="midnightblue" stroke="midnightblue" points="845.698,-266.5 835.698,-270 845.697,-273.5 845.698,-266.5"/>
</g>
<!-- Node9 -->
<g id="node17" class="node"><title>Node9</title>
<a xlink:href="hfa-se-flow-wqe_8c.html#a3c04138a5bfe5d72780bb7e82a18e627" target="_top" xlink:title="Implementation.">
<polygon fill="white" stroke="black" points="1004,-259.5 1004,-280.5 1044,-280.5 1044,-259.5 1004,-259.5"/>
<text text-anchor="middle" x="1024" y="-267.5" font-family="FreeSans" font-size="10.00">main</text>
</a>
</g>
<!-- Node8&#45;&gt;Node9 -->
<g id="edge16" class="edge"><title>Node8&#45;&gt;Node9</title>
<path fill="none" stroke="midnightblue" d="M978.146,-270C987.414,-270 996.419,-270 1003.96,-270"/>
<polygon fill="midnightblue" stroke="midnightblue" points="978.043,-266.5 968.042,-270 978.042,-273.5 978.043,-266.5"/>
</g>
<!-- Node11 -->
<g id="node21" class="node"><title>Node11</title>
<a xlink:href="hfa-lnx-async_8c.html#a1e97b1d598034fdc92d57054a6c386e6" target="_top" xlink:title="tasklet_callback">
<polygon fill="white" stroke="black" points="502,-219.5 502,-240.5 594,-240.5 594,-219.5 502,-219.5"/>
<text text-anchor="middle" x="548" y="-227.5" font-family="FreeSans" font-size="10.00">tasklet_callback</text>
</a>
</g>
<!-- Node10&#45;&gt;Node11 -->
<g id="edge20" class="edge"><title>Node10&#45;&gt;Node11</title>
<path fill="none" stroke="midnightblue" d="M443.242,-217.637C462.401,-219.898 483.583,-222.398 501.857,-224.555"/>
<polygon fill="midnightblue" stroke="midnightblue" points="443.477,-214.141 433.136,-216.445 442.657,-221.093 443.477,-214.141"/>
</g>
<!-- Node13 -->
<g id="node25" class="node"><title>Node13</title>
<a xlink:href="hfa-lnx-async_8c.html#a7dea7d59754828b1173c4c7ec5d42f3e" target="_top" xlink:title="thread_callback">
<polygon fill="white" stroke="black" points="502,-179.5 502,-200.5 594,-200.5 594,-179.5 502,-179.5"/>
<text text-anchor="middle" x="548" y="-187.5" font-family="FreeSans" font-size="10.00">thread_callback</text>
</a>
</g>
<!-- Node10&#45;&gt;Node13 -->
<g id="edge24" class="edge"><title>Node10&#45;&gt;Node13</title>
<path fill="none" stroke="midnightblue" d="M443.242,-203.664C462.401,-201.165 483.583,-198.402 501.857,-196.019"/>
<polygon fill="midnightblue" stroke="midnightblue" points="442.599,-200.218 433.136,-204.982 443.505,-207.159 442.599,-200.218"/>
</g>
<!-- Node12 -->
<g id="node23" class="node"><title>Node12</title>
<a xlink:href="hfa-lnx-async_8c.html#a78ffddbcd7cdd164889cfb53ea367886" target="_top" xlink:title="entry">
<polygon fill="white" stroke="black" points="669.5,-199.5 669.5,-220.5 710.5,-220.5 710.5,-199.5 669.5,-199.5"/>
<text text-anchor="middle" x="690" y="-207.5" font-family="FreeSans" font-size="10.00">entry</text>
</a>
</g>
<!-- Node11&#45;&gt;Node12 -->
<g id="edge22" class="edge"><title>Node11&#45;&gt;Node12</title>
<path fill="none" stroke="midnightblue" d="M604.147,-222.092C627.168,-218.85 652.37,-215.3 669.476,-212.891"/>
<polygon fill="midnightblue" stroke="midnightblue" points="603.517,-218.646 594.103,-223.507 604.494,-225.578 603.517,-218.646"/>
</g>
<!-- Node13&#45;&gt;Node12 -->
<g id="edge26" class="edge"><title>Node13&#45;&gt;Node12</title>
<path fill="none" stroke="midnightblue" d="M604.147,-197.908C627.168,-201.15 652.37,-204.7 669.476,-207.109"/>
<polygon fill="midnightblue" stroke="midnightblue" points="604.494,-194.422 594.103,-196.493 603.517,-201.354 604.494,-194.422"/>
</g>
<!-- Node15 -->
<g id="node30" class="node"><title>Node15</title>
<a xlink:href="hfa-lnx-ctx_8c.html#a934a9fc08c4aab25d6f0d861e4a4f762" target="_top" xlink:title="poll">
<polygon fill="white" stroke="black" points="531.5,-139.5 531.5,-160.5 564.5,-160.5 564.5,-139.5 531.5,-139.5"/>
<text text-anchor="middle" x="548" y="-147.5" font-family="FreeSans" font-size="10.00">poll</text>
</a>
</g>
<!-- Node14&#45;&gt;Node15 -->
<g id="edge30" class="edge"><title>Node14&#45;&gt;Node15</title>
<path fill="none" stroke="midnightblue" d="M440.199,-164.061C471.953,-159.919 510.135,-154.939 531.478,-152.155"/>
<polygon fill="midnightblue" stroke="midnightblue" points="439.608,-160.608 430.145,-165.372 440.514,-167.55 439.608,-160.608"/>
</g>
<!-- Node16 -->
<g id="node32" class="node"><title>Node16</title>
<a xlink:href="hfa-lnx-ctx_8c.html#a97df0ba8293c1b8436547946fd9d0d17" target="_top" xlink:title="process_pkt">
<polygon fill="white" stroke="black" points="653,-139.5 653,-160.5 727,-160.5 727,-139.5 653,-139.5"/>
<text text-anchor="middle" x="690" y="-147.5" font-family="FreeSans" font-size="10.00">process_pkt</text>
</a>
</g>
<!-- Node15&#45;&gt;Node16 -->
<g id="edge32" class="edge"><title>Node15&#45;&gt;Node16</title>
<path fill="none" stroke="midnightblue" d="M574.858,-150C596.909,-150 628.376,-150 652.843,-150"/>
<polygon fill="midnightblue" stroke="midnightblue" points="574.567,-146.5 564.567,-150 574.567,-153.5 574.567,-146.5"/>
</g>
<!-- Node19 -->
<g id="node38" class="node"><title>Node19</title>
<a xlink:href="hfa-lnx-nctx-lock_8c.html#a48d3743fb7abc7d3c6b68359678e52a1" target="_top" xlink:title="Poll for the pending search instructions in the HW (blocked till instruction completes) and process t...">
<polygon fill="white" stroke="black" points="531.5,-90.5 531.5,-111.5 564.5,-111.5 564.5,-90.5 531.5,-90.5"/>
<text text-anchor="middle" x="548" y="-98.5" font-family="FreeSans" font-size="10.00">poll</text>
</a>
</g>
<!-- Node18&#45;&gt;Node19 -->
<g id="edge38" class="edge"><title>Node18&#45;&gt;Node19</title>
<path fill="none" stroke="midnightblue" d="M437.363,-94.1281C469.538,-96.1266 509.22,-98.5913 531.249,-99.9596"/>
<polygon fill="midnightblue" stroke="midnightblue" points="437.41,-90.6244 427.212,-93.4976 436.976,-97.6109 437.41,-90.6244"/>
</g>
<!-- Node20 -->
<g id="node40" class="node"><title>Node20</title>
<a xlink:href="hfa-lnx-nctx-lock_8c.html#a972f8b60ef804914c009c2ef85bac50e" target="_top" xlink:title="Performs search process for each core.">
<polygon fill="white" stroke="black" points="644,-71.5 644,-92.5 736,-92.5 736,-71.5 644,-71.5"/>
<text text-anchor="middle" x="690" y="-79.5" font-family="FreeSans" font-size="10.00">process_search</text>
</a>
</g>
<!-- Node18&#45;&gt;Node20 -->
<g id="edge42" class="edge"><title>Node18&#45;&gt;Node20</title>
<path fill="none" stroke="midnightblue" d="M437.524,-85.0106C453.631,-83.3661 471.542,-81.8128 488,-81 541.268,-78.3694 554.668,-80.6748 608,-81 619.532,-81.0703 631.976,-81.1962 643.599,-81.3356"/>
<polygon fill="midnightblue" stroke="midnightblue" points="436.81,-81.5664 427.233,-86.0975 437.546,-88.5277 436.81,-81.5664"/>
</g>
<!-- Node19&#45;&gt;Node20 -->
<g id="edge40" class="edge"><title>Node19&#45;&gt;Node20</title>
<path fill="none" stroke="midnightblue" d="M574.532,-97.4499C593.979,-94.8479 620.875,-91.2491 643.817,-88.1794"/>
<polygon fill="midnightblue" stroke="midnightblue" points="574.015,-93.9879 564.567,-98.7833 574.943,-100.926 574.015,-93.9879"/>
</g>
<!-- Node23 -->
<g id="node47" class="node"><title>Node23</title>
<a xlink:href="hfa-se-wqe-lock_8c.html#a3c04138a5bfe5d72780bb7e82a18e627" target="_top" xlink:title="main">
<polygon fill="white" stroke="black" points="528,-0.5 528,-21.5 568,-21.5 568,-0.5 528,-0.5"/>
<text text-anchor="middle" x="548" y="-8.5" font-family="FreeSans" font-size="10.00">main</text>
</a>
</g>
<!-- Node22&#45;&gt;Node23 -->
<g id="edge48" class="edge"><title>Node22&#45;&gt;Node23</title>
<path fill="none" stroke="midnightblue" d="M437.298,-11C467.9,-11 505.313,-11 527.869,-11"/>
<polygon fill="midnightblue" stroke="midnightblue" points="437.212,-7.5001 427.212,-11 437.212,-14.5001 437.212,-7.5001"/>
</g>
</g>
</svg>
