<?xml version="1.0" encoding="UTF-8" standalone="no"?>
<!DOCTYPE svg PUBLIC "-//W3C//DTD SVG 1.1//EN"
 "http://www.w3.org/Graphics/SVG/1.1/DTD/svg11.dtd">
<!-- Generated by graphviz version 2.24.0 (20090616.2323)
 -->
<!-- Title: hfa_graph_setcluster Pages: 1 -->
<svg width="310pt" height="70pt"
 viewBox="0.00 0.00 310.00 70.00" xmlns="http://www.w3.org/2000/svg" xmlns:xlink="http://www.w3.org/1999/xlink">
<g id="graph1" class="graph" transform="scale(1 1) rotate(0) translate(4 66)">
<title>hfa_graph_setcluster</title>
<polygon fill="white" stroke="white" points="-4,5 -4,-66 307,-66 307,5 -4,5"/>
<!-- Node1 -->
<g id="node1" class="node"><title>Node1</title>
<polygon fill="#bfbfbf" stroke="black" points="0.5,-20.5 0.5,-41.5 117.5,-41.5 117.5,-20.5 0.5,-20.5"/>
<text text-anchor="middle" x="59" y="-28.5" font-family="FreeSans" font-size="10.00">hfa_graph_setcluster</text>
</g>
<!-- Node2 -->
<g id="node3" class="node"><title>Node2</title>
<a xlink:href="hfa-lnx-async_8c.html#a546f3769e735d4bef0bfab1cba56921c" target="_top" xlink:title="Load graph to HFA memory and cache.">
<polygon fill="white" stroke="black" points="154.5,-40.5 154.5,-61.5 223.5,-61.5 223.5,-40.5 154.5,-40.5"/>
<text text-anchor="middle" x="189" y="-48.5" font-family="FreeSans" font-size="10.00">graph_load</text>
</a>
</g>
<!-- Node1&#45;&gt;Node2 -->
<g id="edge2" class="edge"><title>Node1&#45;&gt;Node2</title>
<path fill="none" stroke="midnightblue" d="M127.557,-41.5472C136.791,-42.9678 145.929,-44.3737 154.222,-45.6496"/>
<polygon fill="midnightblue" stroke="midnightblue" points="127.951,-38.0667 117.535,-40.0054 126.886,-44.9853 127.951,-38.0667"/>
</g>
<!-- Node4 -->
<g id="node7" class="node"><title>Node4</title>
<a xlink:href="hfa-lnx-ctx_8c.html#a78ffddbcd7cdd164889cfb53ea367886" target="_top" xlink:title="entry">
<polygon fill="white" stroke="black" points="168.5,-0.5 168.5,-21.5 209.5,-21.5 209.5,-0.5 168.5,-0.5"/>
<text text-anchor="middle" x="189" y="-8.5" font-family="FreeSans" font-size="10.00">entry</text>
</a>
</g>
<!-- Node1&#45;&gt;Node4 -->
<g id="edge6" class="edge"><title>Node1&#45;&gt;Node4</title>
<path fill="none" stroke="midnightblue" d="M127.804,-20.4147C142.631,-18.1336 157.194,-15.8933 168.391,-14.1706"/>
<polygon fill="midnightblue" stroke="midnightblue" points="126.886,-17.0147 117.535,-21.9946 127.951,-23.9333 126.886,-17.0147"/>
</g>
<!-- Node3 -->
<g id="node5" class="node"><title>Node3</title>
<a xlink:href="hfa-lnx-async_8c.html#a78ffddbcd7cdd164889cfb53ea367886" target="_top" xlink:title="entry">
<polygon fill="white" stroke="black" points="260.5,-40.5 260.5,-61.5 301.5,-61.5 301.5,-40.5 260.5,-40.5"/>
<text text-anchor="middle" x="281" y="-48.5" font-family="FreeSans" font-size="10.00">entry</text>
</a>
</g>
<!-- Node2&#45;&gt;Node3 -->
<g id="edge4" class="edge"><title>Node2&#45;&gt;Node3</title>
<path fill="none" stroke="midnightblue" d="M233.612,-51C243.01,-51 252.485,-51 260.466,-51"/>
<polygon fill="midnightblue" stroke="midnightblue" points="233.519,-47.5001 223.519,-51 233.519,-54.5001 233.519,-47.5001"/>
</g>
</g>
</svg>
