<?xml version="1.0" encoding="UTF-8" standalone="no"?>
<!DOCTYPE svg PUBLIC "-//W3C//DTD SVG 1.1//EN"
 "http://www.w3.org/Graphics/SVG/1.1/DTD/svg11.dtd">
<!-- Generated by graphviz version 2.24.0 (20090616.2323)
 -->
<!-- Title: cvm_hfa_instr_setvgid Pages: 1 -->
<svg width="652pt" height="229pt"
 viewBox="0.00 0.00 652.00 229.00" xmlns="http://www.w3.org/2000/svg" xmlns:xlink="http://www.w3.org/1999/xlink">
<g id="graph1" class="graph" transform="scale(1 1) rotate(0) translate(4 225)">
<title>cvm_hfa_instr_setvgid</title>
<polygon fill="white" stroke="white" points="-4,5 -4,-225 649,-225 649,5 -4,5"/>
<!-- Node1 -->
<g id="node1" class="node"><title>Node1</title>
<polygon fill="#bfbfbf" stroke="black" points="0,-114.5 0,-135.5 124,-135.5 124,-114.5 0,-114.5"/>
<text text-anchor="middle" x="62" y="-122.5" font-family="FreeSans" font-size="10.00">cvm_hfa_instr_setvgid</text>
</g>
<!-- Node2 -->
<g id="node3" class="node"><title>Node2</title>
<a xlink:href="cvm-hfa-graph_8c.html#aa296e0c6b36b3d5b4f8e01c2fe765bed" target="_top" xlink:title="This routine is used to cacheload a cacheable graph in a non&#45;blocking manner.">
<polygon fill="white" stroke="black" points="166,-136 166,-170 286,-170 286,-136 166,-136"/>
<text text-anchor="start" x="174" y="-157" font-family="FreeSans" font-size="10.00">hfa_graph_cacheload</text>
<text text-anchor="middle" x="226" y="-144" font-family="FreeSans" font-size="10.00">_async</text>
</a>
</g>
<!-- Node1&#45;&gt;Node2 -->
<g id="edge2" class="edge"><title>Node1&#45;&gt;Node2</title>
<path fill="none" stroke="midnightblue" d="M133.693,-137.24C144.391,-139.067 155.326,-140.934 165.755,-142.714"/>
<polygon fill="midnightblue" stroke="midnightblue" points="133.981,-133.739 123.534,-135.506 132.802,-140.639 133.981,-133.739"/>
</g>
<!-- Node9 -->
<g id="node17" class="node"><title>Node9</title>
<a xlink:href="cvm-hfa-graph_8c.html#afb63ce4f42afc7987e6222b1c1ea91a1" target="_top" xlink:title="This routine is used to cacheunload a cacheload&#39;ed graph in a non&#45;blocking manner.">
<polygon fill="white" stroke="black" points="160,-81 160,-115 292,-115 292,-81 160,-81"/>
<text text-anchor="start" x="168" y="-102" font-family="FreeSans" font-size="10.00">hfa_graph_cacheunload</text>
<text text-anchor="middle" x="226" y="-89" font-family="FreeSans" font-size="10.00">_async</text>
</a>
</g>
<!-- Node1&#45;&gt;Node9 -->
<g id="edge16" class="edge"><title>Node1&#45;&gt;Node9</title>
<path fill="none" stroke="midnightblue" d="M133.989,-113.148C142.574,-111.735 151.308,-110.297 159.806,-108.898"/>
<polygon fill="midnightblue" stroke="midnightblue" points="133.3,-109.714 124.001,-114.792 134.437,-116.621 133.3,-109.714"/>
</g>
<!-- Node3 -->
<g id="node5" class="node"><title>Node3</title>
<a xlink:href="cvm-hfa-graph_8c.html#a60861d15ed5f6bccc42bbde834aa2b32" target="_top" xlink:title="This routine is used to cacheload a cacheable graph in a blocking manner.">
<polygon fill="white" stroke="black" points="334,-142.5 334,-163.5 454,-163.5 454,-142.5 334,-142.5"/>
<text text-anchor="middle" x="394" y="-150.5" font-family="FreeSans" font-size="10.00">hfa_graph_cacheload</text>
</a>
</g>
<!-- Node2&#45;&gt;Node3 -->
<g id="edge4" class="edge"><title>Node2&#45;&gt;Node3</title>
<path fill="none" stroke="midnightblue" d="M296.517,-153C308.97,-153 321.829,-153 333.961,-153"/>
<polygon fill="midnightblue" stroke="midnightblue" points="296.177,-149.5 286.177,-153 296.177,-156.5 296.177,-149.5"/>
</g>
<!-- Node7 -->
<g id="node13" class="node"><title>Node7</title>
<a xlink:href="hfa-lnx-async_8c.html#a546f3769e735d4bef0bfab1cba56921c" target="_top" xlink:title="Load graph to HFA memory and cache.">
<polygon fill="white" stroke="black" points="359.5,-195.5 359.5,-216.5 428.5,-216.5 428.5,-195.5 359.5,-195.5"/>
<text text-anchor="middle" x="394" y="-203.5" font-family="FreeSans" font-size="10.00">graph_load</text>
</a>
</g>
<!-- Node2&#45;&gt;Node7 -->
<g id="edge12" class="edge"><title>Node2&#45;&gt;Node7</title>
<path fill="none" stroke="midnightblue" d="M289.877,-173.152C313.954,-180.747 340.374,-189.082 360.576,-195.456"/>
<polygon fill="midnightblue" stroke="midnightblue" points="290.671,-169.732 280.081,-170.061 288.565,-176.408 290.671,-169.732"/>
</g>
<!-- Node4 -->
<g id="node7" class="node"><title>Node4</title>
<a xlink:href="hfa-lnx-ctx_8c.html#a78ffddbcd7cdd164889cfb53ea367886" target="_top" xlink:title="entry">
<polygon fill="white" stroke="black" points="510.5,-120.5 510.5,-141.5 551.5,-141.5 551.5,-120.5 510.5,-120.5"/>
<text text-anchor="middle" x="531" y="-128.5" font-family="FreeSans" font-size="10.00">entry</text>
</a>
</g>
<!-- Node3&#45;&gt;Node4 -->
<g id="edge6" class="edge"><title>Node3&#45;&gt;Node4</title>
<path fill="none" stroke="midnightblue" d="M464.046,-141.752C480.984,-139.032 497.796,-136.332 510.337,-134.318"/>
<polygon fill="midnightblue" stroke="midnightblue" points="463.409,-138.309 454.09,-143.35 464.519,-145.221 463.409,-138.309"/>
</g>
<!-- Node5 -->
<g id="node9" class="node"><title>Node5</title>
<a xlink:href="hfa-lnx-linkgraph_8c.html#a546f3769e735d4bef0bfab1cba56921c" target="_top" xlink:title="Load graph to HFA memory and cache.">
<polygon fill="white" stroke="black" points="496.5,-160.5 496.5,-181.5 565.5,-181.5 565.5,-160.5 496.5,-160.5"/>
<text text-anchor="middle" x="531" y="-168.5" font-family="FreeSans" font-size="10.00">graph_load</text>
</a>
</g>
<!-- Node3&#45;&gt;Node5 -->
<g id="edge8" class="edge"><title>Node3&#45;&gt;Node5</title>
<path fill="none" stroke="midnightblue" d="M464.25,-162.23C475.33,-163.686 486.349,-165.133 496.147,-166.421"/>
<polygon fill="midnightblue" stroke="midnightblue" points="464.461,-158.728 454.09,-160.895 463.549,-165.668 464.461,-158.728"/>
</g>
<!-- Node6 -->
<g id="node11" class="node"><title>Node6</title>
<a xlink:href="hfa-lnx-linkgraph_8c.html#a78ffddbcd7cdd164889cfb53ea367886" target="_top" xlink:title="entry">
<polygon fill="white" stroke="black" points="602.5,-159.5 602.5,-180.5 643.5,-180.5 643.5,-159.5 602.5,-159.5"/>
<text text-anchor="middle" x="623" y="-167.5" font-family="FreeSans" font-size="10.00">entry</text>
</a>
</g>
<!-- Node5&#45;&gt;Node6 -->
<g id="edge10" class="edge"><title>Node5&#45;&gt;Node6</title>
<path fill="none" stroke="midnightblue" d="M575.612,-170.515C585.01,-170.413 594.485,-170.31 602.466,-170.223"/>
<polygon fill="midnightblue" stroke="midnightblue" points="575.48,-167.016 565.519,-170.625 575.557,-174.016 575.48,-167.016"/>
</g>
<!-- Node8 -->
<g id="node15" class="node"><title>Node8</title>
<a xlink:href="hfa-lnx-async_8c.html#a78ffddbcd7cdd164889cfb53ea367886" target="_top" xlink:title="entry">
<polygon fill="white" stroke="black" points="602.5,-199.5 602.5,-220.5 643.5,-220.5 643.5,-199.5 602.5,-199.5"/>
<text text-anchor="middle" x="623" y="-207.5" font-family="FreeSans" font-size="10.00">entry</text>
</a>
</g>
<!-- Node7&#45;&gt;Node8 -->
<g id="edge14" class="edge"><title>Node7&#45;&gt;Node8</title>
<path fill="none" stroke="midnightblue" d="M438.874,-206.784C488.276,-207.647 565.553,-208.997 602.277,-209.638"/>
<polygon fill="midnightblue" stroke="midnightblue" points="438.84,-203.283 428.78,-206.608 438.717,-210.282 438.84,-203.283"/>
</g>
<!-- Node10 -->
<g id="node19" class="node"><title>Node10</title>
<a xlink:href="cvm-hfa-graph_8c.html#aa4ce7845277b4b3099159bbd7afd5c08" target="_top" xlink:title="This routine is used to cacheunload a cacheload&#39;ed graph in a non&#45;blocking manner.">
<polygon fill="white" stroke="black" points="328,-80.5 328,-101.5 460,-101.5 460,-80.5 328,-80.5"/>
<text text-anchor="middle" x="394" y="-88.5" font-family="FreeSans" font-size="10.00">hfa_graph_cacheunload</text>
</a>
</g>
<!-- Node9&#45;&gt;Node10 -->
<g id="edge18" class="edge"><title>Node9&#45;&gt;Node10</title>
<path fill="none" stroke="midnightblue" d="M302.595,-94.8086C311.013,-94.4578 319.532,-94.1028 327.809,-93.7579"/>
<polygon fill="midnightblue" stroke="midnightblue" points="302.244,-91.32 292.398,-95.2334 302.535,-98.314 302.244,-91.32"/>
</g>
<!-- Node10&#45;&gt;Node4 -->
<g id="edge26" class="edge"><title>Node10&#45;&gt;Node4</title>
<path fill="none" stroke="midnightblue" d="M439.897,-104.4C463.676,-111.343 491.548,-119.481 510.141,-124.91"/>
<polygon fill="midnightblue" stroke="midnightblue" points="440.575,-100.953 429.995,-101.51 438.613,-107.672 440.575,-100.953"/>
</g>
<!-- Node11 -->
<g id="node21" class="node"><title>Node11</title>
<a xlink:href="hfa-lnx-async_8c.html#acd9e54f020b77f14d54c200b65423a15" target="_top" xlink:title="Application cleanup will be done by this routine.">
<polygon fill="white" stroke="black" points="504,-40.5 504,-61.5 558,-61.5 558,-40.5 504,-40.5"/>
<text text-anchor="middle" x="531" y="-48.5" font-family="FreeSans" font-size="10.00">cleanup</text>
</a>
</g>
<!-- Node10&#45;&gt;Node11 -->
<g id="edge20" class="edge"><title>Node10&#45;&gt;Node11</title>
<path fill="none" stroke="midnightblue" d="M439.814,-77.6238C461.08,-71.4147 485.635,-64.2453 503.903,-58.9117"/>
<polygon fill="midnightblue" stroke="midnightblue" points="438.613,-74.328 429.995,-80.4905 440.575,-81.0474 438.613,-74.328"/>
</g>
<!-- Node13 -->
<g id="node27" class="node"><title>Node13</title>
<a xlink:href="hfa-lnx-ctx_8c.html#aaf98ef7cdde3a0dfb2e49919de3298b1" target="_top" xlink:title="exit">
<polygon fill="white" stroke="black" points="514.5,-80.5 514.5,-101.5 547.5,-101.5 547.5,-80.5 514.5,-80.5"/>
<text text-anchor="middle" x="531" y="-88.5" font-family="FreeSans" font-size="10.00">exit</text>
</a>
</g>
<!-- Node10&#45;&gt;Node13 -->
<g id="edge28" class="edge"><title>Node10&#45;&gt;Node13</title>
<path fill="none" stroke="midnightblue" d="M470.454,-91C487.022,-91 502.961,-91 514.323,-91"/>
<polygon fill="midnightblue" stroke="midnightblue" points="470.092,-87.5001 460.092,-91 470.092,-94.5001 470.092,-87.5001"/>
</g>
<!-- Node14 -->
<g id="node29" class="node"><title>Node14</title>
<a xlink:href="hfa-se-ngraphs_8c.html#a546f3769e735d4bef0bfab1cba56921c" target="_top" xlink:title="Load ngraphs into HFA memory and cache.">
<polygon fill="white" stroke="black" points="496.5,-0.5 496.5,-21.5 565.5,-21.5 565.5,-0.5 496.5,-0.5"/>
<text text-anchor="middle" x="531" y="-8.5" font-family="FreeSans" font-size="10.00">graph_load</text>
</a>
</g>
<!-- Node10&#45;&gt;Node14 -->
<g id="edge30" class="edge"><title>Node10&#45;&gt;Node14</title>
<path fill="none" stroke="midnightblue" d="M420.811,-75.1049C441.351,-62.9576 470.415,-45.8345 496,-31 501.328,-27.9109 507.129,-24.5822 512.448,-21.5438"/>
<polygon fill="midnightblue" stroke="midnightblue" points="418.84,-72.2045 412.017,-80.3098 422.405,-78.2285 418.84,-72.2045"/>
</g>
<!-- Node11&#45;&gt;Node8 -->
<g id="edge22" class="edge"><title>Node11&#45;&gt;Node8</title>
<path fill="none" stroke="midnightblue" d="M563.386,-68.0776C564.314,-69.0101 565.191,-69.9839 566,-71 600.43,-114.218 573.035,-142.944 602,-190 604.006,-193.259 606.671,-196.345 609.428,-199.074"/>
<polygon fill="midnightblue" stroke="midnightblue" points="565.456,-65.2514 555.464,-61.7273 561.077,-70.7131 565.456,-65.2514"/>
</g>
<!-- Node12 -->
<g id="node24" class="node"><title>Node12</title>
<a xlink:href="hfa-lnx-async_8c.html#aaf98ef7cdde3a0dfb2e49919de3298b1" target="_top" xlink:title="exit">
<polygon fill="white" stroke="black" points="606.5,-40.5 606.5,-61.5 639.5,-61.5 639.5,-40.5 606.5,-40.5"/>
<text text-anchor="middle" x="623" y="-48.5" font-family="FreeSans" font-size="10.00">exit</text>
</a>
</g>
<!-- Node11&#45;&gt;Node12 -->
<g id="edge24" class="edge"><title>Node11&#45;&gt;Node12</title>
<path fill="none" stroke="midnightblue" d="M568.42,-51C581.653,-51 595.868,-51 606.473,-51"/>
<polygon fill="midnightblue" stroke="midnightblue" points="568.105,-47.5001 558.105,-51 568.105,-54.5001 568.105,-47.5001"/>
</g>
<!-- Node15 -->
<g id="node31" class="node"><title>Node15</title>
<a xlink:href="hfa-se-ngraphs_8c.html#a3c04138a5bfe5d72780bb7e82a18e627" target="_top" xlink:title="main">
<polygon fill="white" stroke="black" points="603,-0.5 603,-21.5 643,-21.5 643,-0.5 603,-0.5"/>
<text text-anchor="middle" x="623" y="-8.5" font-family="FreeSans" font-size="10.00">main</text>
</a>
</g>
<!-- Node14&#45;&gt;Node15 -->
<g id="edge32" class="edge"><title>Node14&#45;&gt;Node15</title>
<path fill="none" stroke="midnightblue" d="M575.779,-11C585.332,-11 594.955,-11 602.998,-11"/>
<polygon fill="midnightblue" stroke="midnightblue" points="575.519,-7.5001 565.519,-11 575.519,-14.5001 575.519,-7.5001"/>
</g>
</g>
</svg>
