<?xml version="1.0" encoding="UTF-8" standalone="no"?>
<!DOCTYPE svg PUBLIC "-//W3C//DTD SVG 1.1//EN"
 "http://www.w3.org/Graphics/SVG/1.1/DTD/svg11.dtd">
<!-- Generated by graphviz version 2.24.0 (20090616.2323)
 -->
<!-- Title: hfa_searchctx_get_ppstats Pages: 1 -->
<svg width="380pt" height="30pt"
 viewBox="0.00 0.00 380.00 30.00" xmlns="http://www.w3.org/2000/svg" xmlns:xlink="http://www.w3.org/1999/xlink">
<g id="graph1" class="graph" transform="scale(1 1) rotate(0) translate(4 26)">
<title>hfa_searchctx_get_ppstats</title>
<polygon fill="white" stroke="white" points="-4,5 -4,-26 377,-26 377,5 -4,5"/>
<!-- Node1 -->
<g id="node1" class="node"><title>Node1</title>
<polygon fill="#bfbfbf" stroke="black" points="0.5,-0.5 0.5,-21.5 145.5,-21.5 145.5,-0.5 0.5,-0.5"/>
<text text-anchor="middle" x="73" y="-8.5" font-family="FreeSans" font-size="10.00">hfa_searchctx_get_ppstats</text>
</g>
<!-- Node2 -->
<g id="node3" class="node"><title>Node2</title>
<a xlink:href="cvm-hfa-pp_8c.html#add6064138ec2e35741929056a0992d8d" target="_top" xlink:title="ppgetstats">
<polygon fill="white" stroke="black" points="182,-0.5 182,-21.5 248,-21.5 248,-0.5 182,-0.5"/>
<text text-anchor="middle" x="215" y="-8.5" font-family="FreeSans" font-size="10.00">ppgetstats</text>
</a>
</g>
<!-- Node1&#45;&gt;Node2 -->
<g id="edge2" class="edge"><title>Node1&#45;&gt;Node2</title>
<path fill="none" stroke="midnightblue" d="M145.664,-11C154.588,-11 163.477,-11 171.766,-11"/>
<polygon fill="midnightblue" stroke="midnightblue" points="171.903,-14.5001 181.903,-11 171.903,-7.5001 171.903,-14.5001"/>
</g>
<!-- Node3 -->
<g id="node5" class="node"><title>Node3</title>
<a xlink:href="pp_8h.html#a808d5057ee5670ce724a6a88fc22b799" target="_top" xlink:title="pphfa_getstats">
<polygon fill="white" stroke="black" points="284.5,-0.5 284.5,-21.5 371.5,-21.5 371.5,-0.5 284.5,-0.5"/>
<text text-anchor="middle" x="328" y="-8.5" font-family="FreeSans" font-size="10.00">pphfa_getstats</text>
</a>
</g>
<!-- Node2&#45;&gt;Node3 -->
<g id="edge4" class="edge"><title>Node2&#45;&gt;Node3</title>
<path fill="none" stroke="midnightblue" d="M248.293,-11C256.434,-11 265.354,-11 274.187,-11"/>
<polygon fill="midnightblue" stroke="midnightblue" points="274.463,-14.5001 284.463,-11 274.463,-7.5001 274.463,-14.5001"/>
</g>
</g>
</svg>
