<?xml version="1.0" encoding="UTF-8" standalone="no"?>
<!DOCTYPE svg PUBLIC "-//W3C//DTD SVG 1.1//EN"
 "http://www.w3.org/Graphics/SVG/1.1/DTD/svg11.dtd">
<!-- Generated by graphviz version 2.24.0 (20090616.2323)
 -->
<!-- Title: hfa_create_fpa_pool Pages: 1 -->
<svg width="302pt" height="110pt"
 viewBox="0.00 0.00 302.00 110.00" xmlns="http://www.w3.org/2000/svg" xmlns:xlink="http://www.w3.org/1999/xlink">
<g id="graph1" class="graph" transform="scale(1 1) rotate(0) translate(4 106)">
<title>hfa_create_fpa_pool</title>
<polygon fill="white" stroke="white" points="-4,5 -4,-106 299,-106 299,5 -4,5"/>
<!-- Node1 -->
<g id="node1" class="node"><title>Node1</title>
<polygon fill="#bfbfbf" stroke="black" points="0,-40.5 0,-61.5 114,-61.5 114,-40.5 0,-40.5"/>
<text text-anchor="middle" x="57" y="-48.5" font-family="FreeSans" font-size="10.00">hfa_create_fpa_pool</text>
</g>
<!-- Node2 -->
<g id="node3" class="node"><title>Node2</title>
<a xlink:href="cvm-hfa-module_8c.html#a88fc7baac8574ccd76a0f0e03fe46a14" target="_top" xlink:title="hfa_oct_fill_hw_memory &#45; fill a hardware pool with memory.">
<polygon fill="white" stroke="black" points="155,-80.5 155,-101.5 289,-101.5 289,-80.5 155,-80.5"/>
<text text-anchor="middle" x="222" y="-88.5" font-family="FreeSans" font-size="10.00">hfa_oct_fill_hw_memory</text>
</a>
</g>
<!-- Node1&#45;&gt;Node2 -->
<g id="edge2" class="edge"><title>Node1&#45;&gt;Node2</title>
<path fill="none" stroke="midnightblue" d="M100.352,-61.5095C121.3,-66.588 146.633,-72.7292 168.746,-78.0898"/>
<polygon fill="midnightblue" stroke="midnightblue" points="168.108,-81.5367 178.652,-80.4913 169.758,-74.7337 168.108,-81.5367"/>
</g>
<!-- Node3 -->
<g id="node5" class="node"><title>Node3</title>
<a xlink:href="cvm-hfa-module_8c.html#a6da5324c911912f256ffdd8822f1e911" target="_top" xlink:title="hfa_oct_free_hw_memory &#45; Free memory allocated by cvm_oct_fill_hw_memory">
<polygon fill="white" stroke="black" points="150.5,-40.5 150.5,-61.5 293.5,-61.5 293.5,-40.5 150.5,-40.5"/>
<text text-anchor="middle" x="222" y="-48.5" font-family="FreeSans" font-size="10.00">hfa_oct_free_hw_memory</text>
</a>
</g>
<!-- Node1&#45;&gt;Node3 -->
<g id="edge4" class="edge"><title>Node1&#45;&gt;Node3</title>
<path fill="none" stroke="midnightblue" d="M114.246,-51C122.608,-51 131.354,-51 140.091,-51"/>
<polygon fill="midnightblue" stroke="midnightblue" points="140.319,-54.5001 150.319,-51 140.319,-47.5001 140.319,-54.5001"/>
</g>
<!-- Node4 -->
<g id="node7" class="node"><title>Node4</title>
<a xlink:href="cvmx-hfa_8c.html#a435a75ee9c8cd0df4249e8bfe76c0de5" target="_top" xlink:title="hfa_bootmem_alloc">
<polygon fill="white" stroke="black" points="166.5,-0.5 166.5,-21.5 277.5,-21.5 277.5,-0.5 166.5,-0.5"/>
<text text-anchor="middle" x="222" y="-8.5" font-family="FreeSans" font-size="10.00">hfa_bootmem_alloc</text>
</a>
</g>
<!-- Node1&#45;&gt;Node4 -->
<g id="edge6" class="edge"><title>Node1&#45;&gt;Node4</title>
<path fill="none" stroke="midnightblue" d="M100.352,-40.4905C121.3,-35.412 146.633,-29.2708 168.746,-23.9102"/>
<polygon fill="midnightblue" stroke="midnightblue" points="169.758,-27.2663 178.652,-21.5087 168.108,-20.4633 169.758,-27.2663"/>
</g>
</g>
</svg>
