<?xml version="1.0" encoding="UTF-8" standalone="no"?>
<!DOCTYPE svg PUBLIC "-//W3C//DTD SVG 1.1//EN"
 "http://www.w3.org/Graphics/SVG/1.1/DTD/svg11.dtd">
<!-- Generated by graphviz version 2.24.0 (20090616.2323)
 -->
<!-- Title: hfa_graph_setwqe Pages: 1 -->
<svg width="634pt" height="229pt"
 viewBox="0.00 0.00 634.00 229.00" xmlns="http://www.w3.org/2000/svg" xmlns:xlink="http://www.w3.org/1999/xlink">
<g id="graph1" class="graph" transform="scale(1 1) rotate(0) translate(4 225)">
<title>hfa_graph_setwqe</title>
<polygon fill="white" stroke="white" points="-4,5 -4,-225 631,-225 631,5 -4,5"/>
<!-- Node1 -->
<g id="node1" class="node"><title>Node1</title>
<polygon fill="#bfbfbf" stroke="black" points="0.5,-114.5 0.5,-135.5 105.5,-135.5 105.5,-114.5 0.5,-114.5"/>
<text text-anchor="middle" x="53" y="-122.5" font-family="FreeSans" font-size="10.00">hfa_graph_setwqe</text>
</g>
<!-- Node2 -->
<g id="node3" class="node"><title>Node2</title>
<a xlink:href="cvm-hfa-graph_8c.html#aa296e0c6b36b3d5b4f8e01c2fe765bed" target="_top" xlink:title="This routine is used to cacheload a cacheable graph in a non&#45;blocking manner.">
<polygon fill="white" stroke="black" points="148,-136 148,-170 268,-170 268,-136 148,-136"/>
<text text-anchor="start" x="156" y="-157" font-family="FreeSans" font-size="10.00">hfa_graph_cacheload</text>
<text text-anchor="middle" x="208" y="-144" font-family="FreeSans" font-size="10.00">_async</text>
</a>
</g>
<!-- Node1&#45;&gt;Node2 -->
<g id="edge2" class="edge"><title>Node1&#45;&gt;Node2</title>
<path fill="none" stroke="midnightblue" d="M115.89,-136.361C126.449,-138.268 137.383,-140.243 147.87,-142.138"/>
<polygon fill="midnightblue" stroke="midnightblue" points="116.372,-132.891 105.909,-134.558 115.127,-139.78 116.372,-132.891"/>
</g>
<!-- Node9 -->
<g id="node17" class="node"><title>Node9</title>
<a xlink:href="cvm-hfa-graph_8c.html#afb63ce4f42afc7987e6222b1c1ea91a1" target="_top" xlink:title="This routine is used to cacheunload a cacheload&#39;ed graph in a non&#45;blocking manner.">
<polygon fill="white" stroke="black" points="142,-81 142,-115 274,-115 274,-81 142,-81"/>
<text text-anchor="start" x="150" y="-102" font-family="FreeSans" font-size="10.00">hfa_graph_cacheunload</text>
<text text-anchor="middle" x="208" y="-89" font-family="FreeSans" font-size="10.00">_async</text>
</a>
</g>
<!-- Node1&#45;&gt;Node9 -->
<g id="edge16" class="edge"><title>Node1&#45;&gt;Node9</title>
<path fill="none" stroke="midnightblue" d="M115.844,-114.053C124.427,-112.558 133.258,-111.019 141.897,-109.515"/>
<polygon fill="midnightblue" stroke="midnightblue" points="115.16,-110.619 105.909,-115.784 116.361,-117.516 115.16,-110.619"/>
</g>
<!-- Node3 -->
<g id="node5" class="node"><title>Node3</title>
<a xlink:href="cvm-hfa-graph_8c.html#a60861d15ed5f6bccc42bbde834aa2b32" target="_top" xlink:title="This routine is used to cacheload a cacheable graph in a blocking manner.">
<polygon fill="white" stroke="black" points="316,-142.5 316,-163.5 436,-163.5 436,-142.5 316,-142.5"/>
<text text-anchor="middle" x="376" y="-150.5" font-family="FreeSans" font-size="10.00">hfa_graph_cacheload</text>
</a>
</g>
<!-- Node2&#45;&gt;Node3 -->
<g id="edge4" class="edge"><title>Node2&#45;&gt;Node3</title>
<path fill="none" stroke="midnightblue" d="M278.517,-153C290.97,-153 303.829,-153 315.961,-153"/>
<polygon fill="midnightblue" stroke="midnightblue" points="278.177,-149.5 268.177,-153 278.177,-156.5 278.177,-149.5"/>
</g>
<!-- Node7 -->
<g id="node13" class="node"><title>Node7</title>
<a xlink:href="hfa-lnx-async_8c.html#a546f3769e735d4bef0bfab1cba56921c" target="_top" xlink:title="Load graph to HFA memory and cache.">
<polygon fill="white" stroke="black" points="341.5,-195.5 341.5,-216.5 410.5,-216.5 410.5,-195.5 341.5,-195.5"/>
<text text-anchor="middle" x="376" y="-203.5" font-family="FreeSans" font-size="10.00">graph_load</text>
</a>
</g>
<!-- Node2&#45;&gt;Node7 -->
<g id="edge12" class="edge"><title>Node2&#45;&gt;Node7</title>
<path fill="none" stroke="midnightblue" d="M271.877,-173.152C295.954,-180.747 322.374,-189.082 342.576,-195.456"/>
<polygon fill="midnightblue" stroke="midnightblue" points="272.671,-169.732 262.081,-170.061 270.565,-176.408 272.671,-169.732"/>
</g>
<!-- Node4 -->
<g id="node7" class="node"><title>Node4</title>
<a xlink:href="hfa-lnx-ctx_8c.html#a78ffddbcd7cdd164889cfb53ea367886" target="_top" xlink:title="entry">
<polygon fill="white" stroke="black" points="492.5,-120.5 492.5,-141.5 533.5,-141.5 533.5,-120.5 492.5,-120.5"/>
<text text-anchor="middle" x="513" y="-128.5" font-family="FreeSans" font-size="10.00">entry</text>
</a>
</g>
<!-- Node3&#45;&gt;Node4 -->
<g id="edge6" class="edge"><title>Node3&#45;&gt;Node4</title>
<path fill="none" stroke="midnightblue" d="M446.046,-141.752C462.984,-139.032 479.796,-136.332 492.337,-134.318"/>
<polygon fill="midnightblue" stroke="midnightblue" points="445.409,-138.309 436.09,-143.35 446.519,-145.221 445.409,-138.309"/>
</g>
<!-- Node5 -->
<g id="node9" class="node"><title>Node5</title>
<a xlink:href="hfa-lnx-linkgraph_8c.html#a546f3769e735d4bef0bfab1cba56921c" target="_top" xlink:title="Load graph to HFA memory and cache.">
<polygon fill="white" stroke="black" points="478.5,-160.5 478.5,-181.5 547.5,-181.5 547.5,-160.5 478.5,-160.5"/>
<text text-anchor="middle" x="513" y="-168.5" font-family="FreeSans" font-size="10.00">graph_load</text>
</a>
</g>
<!-- Node3&#45;&gt;Node5 -->
<g id="edge8" class="edge"><title>Node3&#45;&gt;Node5</title>
<path fill="none" stroke="midnightblue" d="M446.25,-162.23C457.33,-163.686 468.349,-165.133 478.147,-166.421"/>
<polygon fill="midnightblue" stroke="midnightblue" points="446.461,-158.728 436.09,-160.895 445.549,-165.668 446.461,-158.728"/>
</g>
<!-- Node6 -->
<g id="node11" class="node"><title>Node6</title>
<a xlink:href="hfa-lnx-linkgraph_8c.html#a78ffddbcd7cdd164889cfb53ea367886" target="_top" xlink:title="entry">
<polygon fill="white" stroke="black" points="584.5,-159.5 584.5,-180.5 625.5,-180.5 625.5,-159.5 584.5,-159.5"/>
<text text-anchor="middle" x="605" y="-167.5" font-family="FreeSans" font-size="10.00">entry</text>
</a>
</g>
<!-- Node5&#45;&gt;Node6 -->
<g id="edge10" class="edge"><title>Node5&#45;&gt;Node6</title>
<path fill="none" stroke="midnightblue" d="M557.612,-170.515C567.01,-170.413 576.485,-170.31 584.466,-170.223"/>
<polygon fill="midnightblue" stroke="midnightblue" points="557.48,-167.016 547.519,-170.625 557.557,-174.016 557.48,-167.016"/>
</g>
<!-- Node8 -->
<g id="node15" class="node"><title>Node8</title>
<a xlink:href="hfa-lnx-async_8c.html#a78ffddbcd7cdd164889cfb53ea367886" target="_top" xlink:title="entry">
<polygon fill="white" stroke="black" points="584.5,-199.5 584.5,-220.5 625.5,-220.5 625.5,-199.5 584.5,-199.5"/>
<text text-anchor="middle" x="605" y="-207.5" font-family="FreeSans" font-size="10.00">entry</text>
</a>
</g>
<!-- Node7&#45;&gt;Node8 -->
<g id="edge14" class="edge"><title>Node7&#45;&gt;Node8</title>
<path fill="none" stroke="midnightblue" d="M420.874,-206.784C470.276,-207.647 547.553,-208.997 584.277,-209.638"/>
<polygon fill="midnightblue" stroke="midnightblue" points="420.84,-203.283 410.78,-206.608 420.717,-210.282 420.84,-203.283"/>
</g>
<!-- Node10 -->
<g id="node19" class="node"><title>Node10</title>
<a xlink:href="cvm-hfa-graph_8c.html#aa4ce7845277b4b3099159bbd7afd5c08" target="_top" xlink:title="This routine is used to cacheunload a cacheload&#39;ed graph in a non&#45;blocking manner.">
<polygon fill="white" stroke="black" points="310,-80.5 310,-101.5 442,-101.5 442,-80.5 310,-80.5"/>
<text text-anchor="middle" x="376" y="-88.5" font-family="FreeSans" font-size="10.00">hfa_graph_cacheunload</text>
</a>
</g>
<!-- Node9&#45;&gt;Node10 -->
<g id="edge18" class="edge"><title>Node9&#45;&gt;Node10</title>
<path fill="none" stroke="midnightblue" d="M284.595,-94.8086C293.013,-94.4578 301.532,-94.1028 309.809,-93.7579"/>
<polygon fill="midnightblue" stroke="midnightblue" points="284.244,-91.32 274.398,-95.2334 284.535,-98.314 284.244,-91.32"/>
</g>
<!-- Node10&#45;&gt;Node4 -->
<g id="edge26" class="edge"><title>Node10&#45;&gt;Node4</title>
<path fill="none" stroke="midnightblue" d="M421.897,-104.4C445.676,-111.343 473.548,-119.481 492.141,-124.91"/>
<polygon fill="midnightblue" stroke="midnightblue" points="422.575,-100.953 411.995,-101.51 420.613,-107.672 422.575,-100.953"/>
</g>
<!-- Node11 -->
<g id="node21" class="node"><title>Node11</title>
<a xlink:href="hfa-lnx-async_8c.html#acd9e54f020b77f14d54c200b65423a15" target="_top" xlink:title="Application cleanup will be done by this routine.">
<polygon fill="white" stroke="black" points="486,-40.5 486,-61.5 540,-61.5 540,-40.5 486,-40.5"/>
<text text-anchor="middle" x="513" y="-48.5" font-family="FreeSans" font-size="10.00">cleanup</text>
</a>
</g>
<!-- Node10&#45;&gt;Node11 -->
<g id="edge20" class="edge"><title>Node10&#45;&gt;Node11</title>
<path fill="none" stroke="midnightblue" d="M421.814,-77.6238C443.08,-71.4147 467.635,-64.2453 485.903,-58.9117"/>
<polygon fill="midnightblue" stroke="midnightblue" points="420.613,-74.328 411.995,-80.4905 422.575,-81.0474 420.613,-74.328"/>
</g>
<!-- Node13 -->
<g id="node27" class="node"><title>Node13</title>
<a xlink:href="hfa-lnx-ctx_8c.html#aaf98ef7cdde3a0dfb2e49919de3298b1" target="_top" xlink:title="exit">
<polygon fill="white" stroke="black" points="496.5,-80.5 496.5,-101.5 529.5,-101.5 529.5,-80.5 496.5,-80.5"/>
<text text-anchor="middle" x="513" y="-88.5" font-family="FreeSans" font-size="10.00">exit</text>
</a>
</g>
<!-- Node10&#45;&gt;Node13 -->
<g id="edge28" class="edge"><title>Node10&#45;&gt;Node13</title>
<path fill="none" stroke="midnightblue" d="M452.454,-91C469.022,-91 484.961,-91 496.323,-91"/>
<polygon fill="midnightblue" stroke="midnightblue" points="452.092,-87.5001 442.092,-91 452.092,-94.5001 452.092,-87.5001"/>
</g>
<!-- Node14 -->
<g id="node29" class="node"><title>Node14</title>
<a xlink:href="hfa-se-ngraphs_8c.html#a546f3769e735d4bef0bfab1cba56921c" target="_top" xlink:title="Load ngraphs into HFA memory and cache.">
<polygon fill="white" stroke="black" points="478.5,-0.5 478.5,-21.5 547.5,-21.5 547.5,-0.5 478.5,-0.5"/>
<text text-anchor="middle" x="513" y="-8.5" font-family="FreeSans" font-size="10.00">graph_load</text>
</a>
</g>
<!-- Node10&#45;&gt;Node14 -->
<g id="edge30" class="edge"><title>Node10&#45;&gt;Node14</title>
<path fill="none" stroke="midnightblue" d="M402.811,-75.1049C423.351,-62.9576 452.415,-45.8345 478,-31 483.328,-27.9109 489.129,-24.5822 494.448,-21.5438"/>
<polygon fill="midnightblue" stroke="midnightblue" points="400.84,-72.2045 394.017,-80.3098 404.405,-78.2285 400.84,-72.2045"/>
</g>
<!-- Node11&#45;&gt;Node8 -->
<g id="edge22" class="edge"><title>Node11&#45;&gt;Node8</title>
<path fill="none" stroke="midnightblue" d="M545.386,-68.0776C546.314,-69.0101 547.191,-69.9839 548,-71 582.43,-114.218 555.035,-142.944 584,-190 586.006,-193.259 588.671,-196.345 591.428,-199.074"/>
<polygon fill="midnightblue" stroke="midnightblue" points="547.456,-65.2514 537.464,-61.7273 543.077,-70.7131 547.456,-65.2514"/>
</g>
<!-- Node12 -->
<g id="node24" class="node"><title>Node12</title>
<a xlink:href="hfa-lnx-async_8c.html#aaf98ef7cdde3a0dfb2e49919de3298b1" target="_top" xlink:title="exit">
<polygon fill="white" stroke="black" points="588.5,-40.5 588.5,-61.5 621.5,-61.5 621.5,-40.5 588.5,-40.5"/>
<text text-anchor="middle" x="605" y="-48.5" font-family="FreeSans" font-size="10.00">exit</text>
</a>
</g>
<!-- Node11&#45;&gt;Node12 -->
<g id="edge24" class="edge"><title>Node11&#45;&gt;Node12</title>
<path fill="none" stroke="midnightblue" d="M550.42,-51C563.653,-51 577.868,-51 588.473,-51"/>
<polygon fill="midnightblue" stroke="midnightblue" points="550.105,-47.5001 540.105,-51 550.105,-54.5001 550.105,-47.5001"/>
</g>
<!-- Node15 -->
<g id="node31" class="node"><title>Node15</title>
<a xlink:href="hfa-se-ngraphs_8c.html#a3c04138a5bfe5d72780bb7e82a18e627" target="_top" xlink:title="main">
<polygon fill="white" stroke="black" points="585,-0.5 585,-21.5 625,-21.5 625,-0.5 585,-0.5"/>
<text text-anchor="middle" x="605" y="-8.5" font-family="FreeSans" font-size="10.00">main</text>
</a>
</g>
<!-- Node14&#45;&gt;Node15 -->
<g id="edge32" class="edge"><title>Node14&#45;&gt;Node15</title>
<path fill="none" stroke="midnightblue" d="M557.779,-11C567.332,-11 576.955,-11 584.998,-11"/>
<polygon fill="midnightblue" stroke="midnightblue" points="557.519,-7.5001 547.519,-11 557.519,-14.5001 557.519,-7.5001"/>
</g>
</g>
</svg>
