<?xml version="1.0" encoding="UTF-8" standalone="no"?>
<!DOCTYPE svg PUBLIC "-//W3C//DTD SVG 1.1//EN"
 "http://www.w3.org/Graphics/SVG/1.1/DTD/svg11.dtd">
<!-- Generated by graphviz version 2.24.0 (20090616.2323)
 -->
<!-- Title: infoentry Pages: 1 -->
<!--zoomable 289 -->
<svg id="main" version="1.1" xmlns="http://www.w3.org/2000/svg" xmlns:xlink="http://www.w3.org/1999/xlink" xml:space="preserve" onload="init(evt)">
        <defs>
                <circle id="rim" cx="0" cy="0" r="7"/>
                <circle id="rim2" cx="0" cy="0" r="3.5"/>
                <g id="zoomPlus">
                        <use xlink:href="#rim" fill="#404040">
                                <set attributeName="fill" to="#808080" begin="zoomplus.mouseover" end="zoomplus.mouseout"/>
                        </use>
                        <path d="M-4,0h8M0,-4v8" fill="none" stroke="white" stroke-width="1.5" pointer-events="none"/>
                </g>
                <g id="zoomMin">
                        <use xlink:href="#rim" fill="#404040">
                                <set attributeName="fill" to="#808080" begin="zoomminus.mouseover" end="zoomminus.mouseout"/>
                        </use>
                        <path d="M-4,0h8" fill="none" stroke="white" stroke-width="1.5" pointer-events="none"/>
                </g>
                <g id="dirArrow">
                        <path fill="none" stroke="white" stroke-width="1.5" d="M0,-3.0v7 M-2.5,-0.5L0,-3.0L2.5,-0.5"/>
                </g>
               <g id="resetDef">
                       <use xlink:href="#rim2" fill="#404040">
                               <set attributeName="fill" to="#808080" begin="reset.mouseover" end="reset.mouseout"/>
                       </use>
               </g>
        </defs>

<script type="text/javascript">
var viewWidth = 1076;
var viewHeight = 289;
var sectionId = 'dynsection-3';
</script>
<script xlink:href="svgpan.js"/>
<svg id="graph" class="graph">
<g id="viewport">
<title>infoentry</title>
<polygon fill="white" stroke="white" points="-4,5 -4,-285 1073,-285 1073,5 -4,5"/>
<!-- Node1 -->
<g id="node1" class="node"><title>Node1</title>
<polygon fill="#bfbfbf" stroke="black" points="0.5,-120.5 0.5,-141.5 59.5,-141.5 59.5,-120.5 0.5,-120.5"/>
<text text-anchor="middle" x="30" y="-128.5" font-family="FreeSans" font-size="10.00">infoentry</text>
</g>
<!-- Node2 -->
<g id="node3" class="node"><title>Node2</title>
<a xlink:href="ppdfa_8h.html#a81b3389c2c25a4ba308f71501f980e38" target="_top" xlink:title="pp">
<polygon fill="white" stroke="black" points="96.5,-120.5 96.5,-141.5 125.5,-141.5 125.5,-120.5 96.5,-120.5"/>
<text text-anchor="middle" x="111" y="-128.5" font-family="FreeSans" font-size="10.00">pp</text>
</a>
</g>
<!-- Node1&#45;&gt;Node2 -->
<g id="edge2" class="edge"><title>Node1&#45;&gt;Node2</title>
<path fill="none" stroke="midnightblue" d="M69.8458,-131C79.3016,-131 88.8049,-131 96.2934,-131"/>
<polygon fill="midnightblue" stroke="midnightblue" points="69.7015,-127.5 59.7015,-131 69.7014,-134.5 69.7015,-127.5"/>
</g>
<!-- Node3 -->
<g id="node5" class="node"><title>Node3</title>
<a xlink:href="cvm-hfa-search_8c.html#a6dbb15dc58155b2c94b19784ad42ef89" target="_top" xlink:title="This routine post&#45;processes the search results from the HFA engine and reports the pattern matches fo...">
<polygon fill="white" stroke="black" points="162.5,-120.5 162.5,-141.5 309.5,-141.5 309.5,-120.5 162.5,-120.5"/>
<text text-anchor="middle" x="236" y="-128.5" font-family="FreeSans" font-size="10.00">hfa_searchctx_getmatches</text>
</a>
</g>
<!-- Node2&#45;&gt;Node3 -->
<g id="edge4" class="edge"><title>Node2&#45;&gt;Node3</title>
<path fill="none" stroke="midnightblue" d="M135.986,-131C143.825,-131 152.914,-131 162.354,-131"/>
<polygon fill="midnightblue" stroke="midnightblue" points="135.83,-127.5 125.83,-131 135.83,-134.5 135.83,-127.5"/>
</g>
<!-- Node4 -->
<g id="node7" class="node"><title>Node4</title>
<a xlink:href="flow_8c.html#a2976ab60901b133a56214323fb901663" target="_top" xlink:title="Low level API to poll a flow.">
<polygon fill="white" stroke="black" points="346.5,-259.5 346.5,-280.5 475.5,-280.5 475.5,-259.5 346.5,-259.5"/>
<text text-anchor="middle" x="411" y="-267.5" font-family="FreeSans" font-size="10.00">__hfaf_process_pktflow</text>
</a>
</g>
<!-- Node3&#45;&gt;Node4 -->
<g id="edge6" class="edge"><title>Node3&#45;&gt;Node4</title>
<path fill="none" stroke="midnightblue" d="M253.543,-148.979C274.494,-169.954 311.1,-205.063 346,-231 360.365,-241.676 377.812,-252.015 391.012,-259.363"/>
<polygon fill="midnightblue" stroke="midnightblue" points="255.839,-146.323 246.316,-141.68 250.865,-151.249 255.839,-146.323"/>
</g>
<!-- Node10 -->
<g id="node19" class="node"><title>Node10</title>
<a xlink:href="hfa-lnx-async_8c.html#a972f8b60ef804914c009c2ef85bac50e" target="_top" xlink:title="Process search for given payload and graph.">
<polygon fill="white" stroke="black" points="365,-200.5 365,-221.5 457,-221.5 457,-200.5 365,-200.5"/>
<text text-anchor="middle" x="411" y="-208.5" font-family="FreeSans" font-size="10.00">process_search</text>
</a>
</g>
<!-- Node3&#45;&gt;Node10 -->
<g id="edge18" class="edge"><title>Node3&#45;&gt;Node10</title>
<path fill="none" stroke="midnightblue" d="M261.659,-146.921C283.497,-159.997 316.007,-178.357 346,-191 354.269,-194.485 363.357,-197.664 372.048,-200.411"/>
<polygon fill="midnightblue" stroke="midnightblue" points="263.358,-143.858 252.991,-141.673 259.732,-149.846 263.358,-143.858"/>
</g>
<!-- Node14 -->
<g id="node28" class="node"><title>Node14</title>
<a xlink:href="hfa-lnx-ctx_8c.html#a71e1d3d18cc48b90a1ecde583ffb3f7a" target="_top" xlink:title="poll_searchctx">
<polygon fill="white" stroke="black" points="368,-160.5 368,-181.5 454,-181.5 454,-160.5 368,-160.5"/>
<text text-anchor="middle" x="411" y="-168.5" font-family="FreeSans" font-size="10.00">poll_searchctx</text>
</a>
</g>
<!-- Node3&#45;&gt;Node14 -->
<g id="edge28" class="edge"><title>Node3&#45;&gt;Node14</title>
<path fill="none" stroke="midnightblue" d="M291.885,-143.774C316.439,-149.386 344.83,-155.875 367.735,-161.111"/>
<polygon fill="midnightblue" stroke="midnightblue" points="292.508,-140.326 281.979,-141.51 290.948,-147.15 292.508,-140.326"/>
</g>
<!-- Node17 -->
<g id="node34" class="node"><title>Node17</title>
<a xlink:href="hfa-lnx-linkgraph_8c.html#a78ffddbcd7cdd164889cfb53ea367886" target="_top" xlink:title="entry">
<polygon fill="white" stroke="black" points="390.5,-120.5 390.5,-141.5 431.5,-141.5 431.5,-120.5 390.5,-120.5"/>
<text text-anchor="middle" x="411" y="-128.5" font-family="FreeSans" font-size="10.00">entry</text>
</a>
</g>
<!-- Node3&#45;&gt;Node17 -->
<g id="edge34" class="edge"><title>Node3&#45;&gt;Node17</title>
<path fill="none" stroke="midnightblue" d="M319.738,-131C346.018,-131 372.75,-131 390.431,-131"/>
<polygon fill="midnightblue" stroke="midnightblue" points="319.709,-127.5 309.709,-131 319.709,-134.5 319.709,-127.5"/>
</g>
<!-- Node18 -->
<g id="node36" class="node"><title>Node18</title>
<a xlink:href="hfa-lnx-nctx-lock_8c.html#adb0c831ef0f9af5441a6769c377d9c95" target="_top" xlink:title="Post process the results from HFA and record found matches.">
<polygon fill="white" stroke="black" points="371,-80.5 371,-101.5 451,-101.5 451,-80.5 371,-80.5"/>
<text text-anchor="middle" x="411" y="-88.5" font-family="FreeSans" font-size="10.00">post_process</text>
</a>
</g>
<!-- Node3&#45;&gt;Node18 -->
<g id="edge36" class="edge"><title>Node3&#45;&gt;Node18</title>
<path fill="none" stroke="midnightblue" d="M291.97,-118.207C317.678,-112.331 347.577,-105.497 370.978,-100.148"/>
<polygon fill="midnightblue" stroke="midnightblue" points="290.948,-114.85 281.979,-120.49 292.508,-121.674 290.948,-114.85"/>
</g>
<!-- Node21 -->
<g id="node43" class="node"><title>Node21</title>
<a xlink:href="hfa-se-async_8c.html#a3c04138a5bfe5d72780bb7e82a18e627" target="_top" xlink:title="main">
<polygon fill="white" stroke="black" points="391,-40.5 391,-61.5 431,-61.5 431,-40.5 391,-40.5"/>
<text text-anchor="middle" x="411" y="-48.5" font-family="FreeSans" font-size="10.00">main</text>
</a>
</g>
<!-- Node3&#45;&gt;Node21 -->
<g id="edge44" class="edge"><title>Node3&#45;&gt;Node21</title>
<path fill="none" stroke="midnightblue" d="M261.659,-115.079C283.497,-102.003 316.007,-83.6427 346,-71 360.579,-64.8547 377.705,-59.663 390.717,-56.1103"/>
<polygon fill="midnightblue" stroke="midnightblue" points="259.732,-112.154 252.991,-120.327 263.358,-118.142 259.732,-112.154"/>
</g>
<!-- Node22 -->
<g id="node45" class="node"><title>Node22</title>
<a xlink:href="hfa-se-wqe-lock_8c.html#a06b5fcfab0e1d5eb36b633ec080ad7f9" target="_top" xlink:title="Process search for given contexts.">
<polygon fill="white" stroke="black" points="371,-0.5 371,-21.5 451,-21.5 451,-0.5 371,-0.5"/>
<text text-anchor="middle" x="411" y="-8.5" font-family="FreeSans" font-size="10.00">process_nctx</text>
</a>
</g>
<!-- Node3&#45;&gt;Node22 -->
<g id="edge46" class="edge"><title>Node3&#45;&gt;Node22</title>
<path fill="none" stroke="midnightblue" d="M251.6,-112.53C271.402,-90.1933 307.629,-52.876 346,-31 353.59,-26.6727 362.223,-23.176 370.663,-20.3913"/>
<polygon fill="midnightblue" stroke="midnightblue" points="248.768,-110.453 244.845,-120.294 254.049,-115.048 248.768,-110.453"/>
</g>
<!-- Node5 -->
<g id="node9" class="node"><title>Node5</title>
<a xlink:href="flow_8h.html#ab1b3378af88a440a6c3c0851be942e65" target="_top" xlink:title="All submitted search parameters in Paramlist of flow are polled If low level API __hfaf_process_pktfl...">
<polygon fill="white" stroke="black" points="512.5,-259.5 512.5,-280.5 631.5,-280.5 631.5,-259.5 512.5,-259.5"/>
<text text-anchor="middle" x="572" y="-267.5" font-family="FreeSans" font-size="10.00">hfaf_process_pktflow</text>
</a>
</g>
<!-- Node4&#45;&gt;Node5 -->
<g id="edge8" class="edge"><title>Node4&#45;&gt;Node5</title>
<path fill="none" stroke="midnightblue" d="M485.622,-270C494.594,-270 503.665,-270 512.384,-270"/>
<polygon fill="midnightblue" stroke="midnightblue" points="485.557,-266.5 475.557,-270 485.557,-273.5 485.557,-266.5"/>
</g>
<!-- Node6 -->
<g id="node11" class="node"><title>Node6</title>
<a xlink:href="hfa-se-flow_8c.html#a2d83c733eacd7afc955c3af18edcb52a" target="_top" xlink:title="Polls for a submitted search instruction of a flow.">
<polygon fill="white" stroke="black" points="671.5,-259.5 671.5,-280.5 756.5,-280.5 756.5,-259.5 671.5,-259.5"/>
<text text-anchor="middle" x="714" y="-267.5" font-family="FreeSans" font-size="10.00">__processflow</text>
</a>
</g>
<!-- Node5&#45;&gt;Node6 -->
<g id="edge10" class="edge"><title>Node5&#45;&gt;Node6</title>
<path fill="none" stroke="midnightblue" d="M642.083,-270C651.981,-270 661.902,-270 671.078,-270"/>
<polygon fill="midnightblue" stroke="midnightblue" points="641.809,-266.5 631.809,-270 641.809,-273.5 641.809,-266.5"/>
</g>
<!-- Node7 -->
<g id="node13" class="node"><title>Node7</title>
<a xlink:href="hfa-se-flow_8c.html#a786591694a8f8fb46cedbc8a580c88f6" target="_top" xlink:title="Submitting or Polling flows from the software recently used cache IF Cache is empty, it tries to refill it.">
<polygon fill="white" stroke="black" points="796.5,-259.5 796.5,-280.5 859.5,-280.5 859.5,-259.5 796.5,-259.5"/>
<text text-anchor="middle" x="828" y="-267.5" font-family="FreeSans" font-size="10.00">do_cache</text>
</a>
</g>
<!-- Node6&#45;&gt;Node7 -->
<g id="edge12" class="edge"><title>Node6&#45;&gt;Node7</title>
<path fill="none" stroke="midnightblue" d="M766.784,-270C776.902,-270 787.197,-270 796.387,-270"/>
<polygon fill="midnightblue" stroke="midnightblue" points="766.774,-266.5 756.774,-270 766.774,-273.5 766.774,-266.5"/>
</g>
<!-- Node8 -->
<g id="node15" class="node"><title>Node8</title>
<a xlink:href="hfa-se-flow_8c.html#aba72a61590283e37ffd78b4defd38220" target="_top" xlink:title="Receive network packets and process.">
<polygon fill="white" stroke="black" points="896,-259.5 896,-280.5 992,-280.5 992,-259.5 896,-259.5"/>
<text text-anchor="middle" x="944" y="-267.5" font-family="FreeSans" font-size="10.00">process_packets</text>
</a>
</g>
<!-- Node7&#45;&gt;Node8 -->
<g id="edge14" class="edge"><title>Node7&#45;&gt;Node8</title>
<path fill="none" stroke="midnightblue" d="M869.711,-270C878.17,-270 887.131,-270 895.792,-270"/>
<polygon fill="midnightblue" stroke="midnightblue" points="869.698,-266.5 859.698,-270 869.697,-273.5 869.698,-266.5"/>
</g>
<!-- Node9 -->
<g id="node17" class="node"><title>Node9</title>
<a xlink:href="hfa-se-flow-wqe_8c.html#a3c04138a5bfe5d72780bb7e82a18e627" target="_top" xlink:title="Implementation.">
<polygon fill="white" stroke="black" points="1028,-259.5 1028,-280.5 1068,-280.5 1068,-259.5 1028,-259.5"/>
<text text-anchor="middle" x="1048" y="-267.5" font-family="FreeSans" font-size="10.00">main</text>
</a>
</g>
<!-- Node8&#45;&gt;Node9 -->
<g id="edge16" class="edge"><title>Node8&#45;&gt;Node9</title>
<path fill="none" stroke="midnightblue" d="M1002.15,-270C1011.41,-270 1020.42,-270 1027.96,-270"/>
<polygon fill="midnightblue" stroke="midnightblue" points="1002.04,-266.5 992.042,-270 1002.04,-273.5 1002.04,-266.5"/>
</g>
<!-- Node11 -->
<g id="node21" class="node"><title>Node11</title>
<a xlink:href="hfa-lnx-async_8c.html#a1e97b1d598034fdc92d57054a6c386e6" target="_top" xlink:title="tasklet_callback">
<polygon fill="white" stroke="black" points="526,-219.5 526,-240.5 618,-240.5 618,-219.5 526,-219.5"/>
<text text-anchor="middle" x="572" y="-227.5" font-family="FreeSans" font-size="10.00">tasklet_callback</text>
</a>
</g>
<!-- Node10&#45;&gt;Node11 -->
<g id="edge20" class="edge"><title>Node10&#45;&gt;Node11</title>
<path fill="none" stroke="midnightblue" d="M467.242,-217.637C486.401,-219.898 507.583,-222.398 525.857,-224.555"/>
<polygon fill="midnightblue" stroke="midnightblue" points="467.477,-214.141 457.136,-216.445 466.657,-221.093 467.477,-214.141"/>
</g>
<!-- Node13 -->
<g id="node25" class="node"><title>Node13</title>
<a xlink:href="hfa-lnx-async_8c.html#a7dea7d59754828b1173c4c7ec5d42f3e" target="_top" xlink:title="thread_callback">
<polygon fill="white" stroke="black" points="526,-179.5 526,-200.5 618,-200.5 618,-179.5 526,-179.5"/>
<text text-anchor="middle" x="572" y="-187.5" font-family="FreeSans" font-size="10.00">thread_callback</text>
</a>
</g>
<!-- Node10&#45;&gt;Node13 -->
<g id="edge24" class="edge"><title>Node10&#45;&gt;Node13</title>
<path fill="none" stroke="midnightblue" d="M467.242,-203.664C486.401,-201.165 507.583,-198.402 525.857,-196.019"/>
<polygon fill="midnightblue" stroke="midnightblue" points="466.599,-200.218 457.136,-204.982 467.505,-207.159 466.599,-200.218"/>
</g>
<!-- Node12 -->
<g id="node23" class="node"><title>Node12</title>
<a xlink:href="hfa-lnx-async_8c.html#a78ffddbcd7cdd164889cfb53ea367886" target="_top" xlink:title="entry">
<polygon fill="white" stroke="black" points="693.5,-199.5 693.5,-220.5 734.5,-220.5 734.5,-199.5 693.5,-199.5"/>
<text text-anchor="middle" x="714" y="-207.5" font-family="FreeSans" font-size="10.00">entry</text>
</a>
</g>
<!-- Node11&#45;&gt;Node12 -->
<g id="edge22" class="edge"><title>Node11&#45;&gt;Node12</title>
<path fill="none" stroke="midnightblue" d="M628.147,-222.092C651.168,-218.85 676.37,-215.3 693.476,-212.891"/>
<polygon fill="midnightblue" stroke="midnightblue" points="627.517,-218.646 618.103,-223.507 628.494,-225.578 627.517,-218.646"/>
</g>
<!-- Node13&#45;&gt;Node12 -->
<g id="edge26" class="edge"><title>Node13&#45;&gt;Node12</title>
<path fill="none" stroke="midnightblue" d="M628.147,-197.908C651.168,-201.15 676.37,-204.7 693.476,-207.109"/>
<polygon fill="midnightblue" stroke="midnightblue" points="628.494,-194.422 618.103,-196.493 627.517,-201.354 628.494,-194.422"/>
</g>
<!-- Node15 -->
<g id="node30" class="node"><title>Node15</title>
<a xlink:href="hfa-lnx-ctx_8c.html#a934a9fc08c4aab25d6f0d861e4a4f762" target="_top" xlink:title="poll">
<polygon fill="white" stroke="black" points="555.5,-139.5 555.5,-160.5 588.5,-160.5 588.5,-139.5 555.5,-139.5"/>
<text text-anchor="middle" x="572" y="-147.5" font-family="FreeSans" font-size="10.00">poll</text>
</a>
</g>
<!-- Node14&#45;&gt;Node15 -->
<g id="edge30" class="edge"><title>Node14&#45;&gt;Node15</title>
<path fill="none" stroke="midnightblue" d="M464.199,-164.061C495.953,-159.919 534.135,-154.939 555.478,-152.155"/>
<polygon fill="midnightblue" stroke="midnightblue" points="463.608,-160.608 454.145,-165.372 464.514,-167.55 463.608,-160.608"/>
</g>
<!-- Node16 -->
<g id="node32" class="node"><title>Node16</title>
<a xlink:href="hfa-lnx-ctx_8c.html#a97df0ba8293c1b8436547946fd9d0d17" target="_top" xlink:title="process_pkt">
<polygon fill="white" stroke="black" points="677,-139.5 677,-160.5 751,-160.5 751,-139.5 677,-139.5"/>
<text text-anchor="middle" x="714" y="-147.5" font-family="FreeSans" font-size="10.00">process_pkt</text>
</a>
</g>
<!-- Node15&#45;&gt;Node16 -->
<g id="edge32" class="edge"><title>Node15&#45;&gt;Node16</title>
<path fill="none" stroke="midnightblue" d="M598.858,-150C620.909,-150 652.376,-150 676.843,-150"/>
<polygon fill="midnightblue" stroke="midnightblue" points="598.567,-146.5 588.567,-150 598.567,-153.5 598.567,-146.5"/>
</g>
<!-- Node19 -->
<g id="node38" class="node"><title>Node19</title>
<a xlink:href="hfa-lnx-nctx-lock_8c.html#a48d3743fb7abc7d3c6b68359678e52a1" target="_top" xlink:title="Poll for the pending search instructions in the HW (blocked till instruction completes) and process t...">
<polygon fill="white" stroke="black" points="555.5,-90.5 555.5,-111.5 588.5,-111.5 588.5,-90.5 555.5,-90.5"/>
<text text-anchor="middle" x="572" y="-98.5" font-family="FreeSans" font-size="10.00">poll</text>
</a>
</g>
<!-- Node18&#45;&gt;Node19 -->
<g id="edge38" class="edge"><title>Node18&#45;&gt;Node19</title>
<path fill="none" stroke="midnightblue" d="M461.363,-94.1281C493.538,-96.1266 533.22,-98.5913 555.249,-99.9596"/>
<polygon fill="midnightblue" stroke="midnightblue" points="461.41,-90.6244 451.212,-93.4976 460.976,-97.6109 461.41,-90.6244"/>
</g>
<!-- Node20 -->
<g id="node40" class="node"><title>Node20</title>
<a xlink:href="hfa-lnx-nctx-lock_8c.html#a972f8b60ef804914c009c2ef85bac50e" target="_top" xlink:title="Performs search process for each core.">
<polygon fill="white" stroke="black" points="668,-71.5 668,-92.5 760,-92.5 760,-71.5 668,-71.5"/>
<text text-anchor="middle" x="714" y="-79.5" font-family="FreeSans" font-size="10.00">process_search</text>
</a>
</g>
<!-- Node18&#45;&gt;Node20 -->
<g id="edge42" class="edge"><title>Node18&#45;&gt;Node20</title>
<path fill="none" stroke="midnightblue" d="M461.524,-85.0106C477.631,-83.3661 495.542,-81.8128 512,-81 565.268,-78.3694 578.668,-80.6748 632,-81 643.532,-81.0703 655.976,-81.1962 667.599,-81.3356"/>
<polygon fill="midnightblue" stroke="midnightblue" points="460.81,-81.5664 451.233,-86.0975 461.546,-88.5277 460.81,-81.5664"/>
</g>
<!-- Node19&#45;&gt;Node20 -->
<g id="edge40" class="edge"><title>Node19&#45;&gt;Node20</title>
<path fill="none" stroke="midnightblue" d="M598.532,-97.4499C617.979,-94.8479 644.875,-91.2491 667.817,-88.1794"/>
<polygon fill="midnightblue" stroke="midnightblue" points="598.015,-93.9879 588.567,-98.7833 598.943,-100.926 598.015,-93.9879"/>
</g>
<!-- Node23 -->
<g id="node47" class="node"><title>Node23</title>
<a xlink:href="hfa-se-wqe-lock_8c.html#a3c04138a5bfe5d72780bb7e82a18e627" target="_top" xlink:title="main">
<polygon fill="white" stroke="black" points="552,-0.5 552,-21.5 592,-21.5 592,-0.5 552,-0.5"/>
<text text-anchor="middle" x="572" y="-8.5" font-family="FreeSans" font-size="10.00">main</text>
</a>
</g>
<!-- Node22&#45;&gt;Node23 -->
<g id="edge48" class="edge"><title>Node22&#45;&gt;Node23</title>
<path fill="none" stroke="midnightblue" d="M461.298,-11C491.9,-11 529.313,-11 551.869,-11"/>
<polygon fill="midnightblue" stroke="midnightblue" points="461.212,-7.5001 451.212,-11 461.212,-14.5001 461.212,-7.5001"/>
</g>
</g>
</svg>
        <g id="navigator" transform="translate(0 0)" fill="#404254">
                <rect fill="#f2f5e9" fill-opacity="0.5" stroke="#606060" stroke-width=".5" x="0" y="0" width="60" height="60"/>
                <use id="zoomplus" xlink:href="#zoomPlus" x="17" y="9" onmousedown="handleZoom(evt,'in')"/>
                <use id="zoomminus" xlink:href="#zoomMin" x="42" y="9" onmousedown="handleZoom(evt,'out')"/>
                <use id="reset" xlink:href="#resetDef" x="30" y="36" onmousedown="handleReset()"/>
                <g id="arrowUp" xlink:href="#dirArrow" transform="translate(30 24)" onmousedown="handlePan(0,-1)">
                  <use xlink:href="#rim" fill="#404040">
                        <set attributeName="fill" to="#808080" begin="arrowUp.mouseover" end="arrowUp.mouseout"/>
                  </use>
                  <path fill="none" stroke="white" stroke-width="1.5" d="M0,-3.0v7 M-2.5,-0.5L0,-3.0L2.5,-0.5"/>
                </g>
                <g id="arrowRight" xlink:href="#dirArrow" transform="rotate(90) translate(36 -43)" onmousedown="handlePan(1,0)">
                  <use xlink:href="#rim" fill="#404040">
                        <set attributeName="fill" to="#808080" begin="arrowRight.mouseover" end="arrowRight.mouseout"/>
                  </use>
                  <path fill="none" stroke="white" stroke-width="1.5" d="M0,-3.0v7 M-2.5,-0.5L0,-3.0L2.5,-0.5"/>
                </g>
                <g id="arrowDown" xlink:href="#dirArrow" transform="rotate(180) translate(-30 -48)" onmousedown="handlePan(0,1)">
                  <use xlink:href="#rim" fill="#404040">
                        <set attributeName="fill" to="#808080" begin="arrowDown.mouseover" end="arrowDown.mouseout"/>
                  </use>
                  <path fill="none" stroke="white" stroke-width="1.5" d="M0,-3.0v7 M-2.5,-0.5L0,-3.0L2.5,-0.5"/>
                </g>
                <g id="arrowLeft" xlink:href="#dirArrow" transform="rotate(270) translate(-36 17)" onmousedown="handlePan(-1,0)">
                  <use xlink:href="#rim" fill="#404040">
                        <set attributeName="fill" to="#808080" begin="arrowLeft.mouseover" end="arrowLeft.mouseout"/>
                  </use>
                  <path fill="none" stroke="white" stroke-width="1.5" d="M0,-3.0v7 M-2.5,-0.5L0,-3.0L2.5,-0.5"/>
                </g>
        </g>
        <svg viewBox="0 0 15 15" width="100%" height="30px" preserveAspectRatio="xMaxYMin meet">
         <g id="arrow_out" transform="scale(0.3 0.3)">
          <a xlink:href="cvm-hfa-pp_8c_adcc1149c628372e2e566c246870929cb_icgraph_org.svg" target="_base">
           <rect id="button" ry="5" rx="5" y="6" x="6" height="38" width="38"
                fill="#f2f5e9" fill-opacity="0.5" stroke="#606060" stroke-width="1.0"/>
           <path id="arrow"
             d="M 11.500037,31.436501 C 11.940474,20.09759 22.043105,11.32322 32.158766,21.979434 L 37.068811,17.246167 C 37.068811,17.246167 37.088388,32 37.088388,32 L 22.160133,31.978069 C 22.160133,31.978069 26.997745,27.140456 26.997745,27.140456 C 18.528582,18.264221 13.291696,25.230495 11.500037,31.436501 z"
             style="fill:#404040;"/>
          </a>
         </g>
        </svg>
</svg>
