<?xml version="1.0" encoding="UTF-8" standalone="no"?>
<!DOCTYPE svg PUBLIC "-//W3C//DTD SVG 1.1//EN"
 "http://www.w3.org/Graphics/SVG/1.1/DTD/svg11.dtd">
<!-- Generated by graphviz version 2.24.0 (20090616.2323)
 -->
<!-- Title: ppcleanup Pages: 1 -->
<!--zoomable 525 -->
<svg id="main" version="1.1" xmlns="http://www.w3.org/2000/svg" xmlns:xlink="http://www.w3.org/1999/xlink" xml:space="preserve" onload="init(evt)">
        <defs>
                <circle id="rim" cx="0" cy="0" r="7"/>
                <circle id="rim2" cx="0" cy="0" r="3.5"/>
                <g id="zoomPlus">
                        <use xlink:href="#rim" fill="#404040">
                                <set attributeName="fill" to="#808080" begin="zoomplus.mouseover" end="zoomplus.mouseout"/>
                        </use>
                        <path d="M-4,0h8M0,-4v8" fill="none" stroke="white" stroke-width="1.5" pointer-events="none"/>
                </g>
                <g id="zoomMin">
                        <use xlink:href="#rim" fill="#404040">
                                <set attributeName="fill" to="#808080" begin="zoomminus.mouseover" end="zoomminus.mouseout"/>
                        </use>
                        <path d="M-4,0h8" fill="none" stroke="white" stroke-width="1.5" pointer-events="none"/>
                </g>
                <g id="dirArrow">
                        <path fill="none" stroke="white" stroke-width="1.5" d="M0,-3.0v7 M-2.5,-0.5L0,-3.0L2.5,-0.5"/>
                </g>
               <g id="resetDef">
                       <use xlink:href="#rim2" fill="#404040">
                               <set attributeName="fill" to="#808080" begin="reset.mouseover" end="reset.mouseout"/>
                       </use>
               </g>
        </defs>

<script type="text/javascript">
var viewWidth = 1460;
var viewHeight = 525;
var sectionId = 'dynsection-11';
</script>
<script xlink:href="svgpan.js"/>
<svg id="graph" class="graph">
<g id="viewport">
<title>ppcleanup</title>
<polygon fill="white" stroke="white" points="-4,5 -4,-521 1457,-521 1457,5 -4,5"/>
<!-- Node1 -->
<g id="node1" class="node"><title>Node1</title>
<polygon fill="#bfbfbf" stroke="black" points="0,-197.5 0,-218.5 66,-218.5 66,-197.5 0,-197.5"/>
<text text-anchor="middle" x="33" y="-205.5" font-family="FreeSans" font-size="10.00">ppcleanup</text>
</g>
<!-- Node2 -->
<g id="node3" class="node"><title>Node2</title>
<a xlink:href="cvm-hfa-search_8c.html#a30064f173d814bd3791b59d675c2f45f" target="_top" xlink:title="This routine cleans&#45;up a Search Context.">
<polygon fill="white" stroke="black" points="102,-217.5 102,-238.5 254,-238.5 254,-217.5 102,-217.5"/>
<text text-anchor="middle" x="178" y="-225.5" font-family="FreeSans" font-size="10.00">hfa_dev_searchctx_cleanup</text>
</a>
</g>
<!-- Node1&#45;&gt;Node2 -->
<g id="edge2" class="edge"><title>Node1&#45;&gt;Node2</title>
<path fill="none" stroke="midnightblue" d="M76.1903,-213.957C84.3048,-215.077 93.0082,-216.277 101.784,-217.488"/>
<polygon fill="midnightblue" stroke="midnightblue" points="76.6504,-210.488 66.2659,-212.588 75.6939,-217.422 76.6504,-210.488"/>
</g>
<!-- Node50 -->
<g id="node107" class="node"><title>Node50</title>
<a xlink:href="cvm-hfa-search_8c.html#a77a278e03921213c66dbe904006cbab3" target="_top" xlink:title="This is a utility routine to reuse a previously intialized search context with minimal clean up...">
<polygon fill="white" stroke="black" points="115.5,-177.5 115.5,-198.5 240.5,-198.5 240.5,-177.5 115.5,-177.5"/>
<text text-anchor="middle" x="178" y="-185.5" font-family="FreeSans" font-size="10.00">hfa_savedctx_cleanup</text>
</a>
</g>
<!-- Node1&#45;&gt;Node50 -->
<g id="edge114" class="edge"><title>Node1&#45;&gt;Node50</title>
<path fill="none" stroke="midnightblue" d="M76.2072,-202.04C88.4646,-200.35 102.065,-198.474 115.229,-196.658"/>
<polygon fill="midnightblue" stroke="midnightblue" points="75.6939,-198.578 66.2659,-203.412 76.6504,-205.512 75.6939,-198.578"/>
</g>
<!-- Node3 -->
<g id="node5" class="node"><title>Node3</title>
<a xlink:href="flow_8c.html#a28378e8a6f53ff0e87f2e688d1c21834" target="_top" xlink:title="Low level API to create a flow Allocate Flow, Intialize searchctx, set graph and setflags,.">
<polygon fill="white" stroke="black" points="293.5,-482.5 293.5,-503.5 400.5,-503.5 400.5,-482.5 293.5,-482.5"/>
<text text-anchor="middle" x="347" y="-490.5" font-family="FreeSans" font-size="10.00">__hfaf_create_flow</text>
</a>
</g>
<!-- Node2&#45;&gt;Node3 -->
<g id="edge4" class="edge"><title>Node2&#45;&gt;Node3</title>
<path fill="none" stroke="midnightblue" d="M182.975,-248.342C194.682,-292.479 227.785,-398.263 290,-463 297.904,-471.224 308.558,-477.657 318.516,-482.421"/>
<polygon fill="midnightblue" stroke="midnightblue" points="186.329,-247.329 180.455,-238.511 179.548,-249.067 186.329,-247.329"/>
</g>
<!-- Node6 -->
<g id="node11" class="node"><title>Node6</title>
<a xlink:href="flow_8c.html#a696ee2b7ad7078c47242360be84d89bf" target="_top" xlink:title="Counterpart of __hfaf_create_flow.">
<polygon fill="white" stroke="black" points="290.5,-432.5 290.5,-453.5 403.5,-453.5 403.5,-432.5 290.5,-432.5"/>
<text text-anchor="middle" x="347" y="-440.5" font-family="FreeSans" font-size="10.00">__hfaf_destroy_flow</text>
</a>
</g>
<!-- Node2&#45;&gt;Node6 -->
<g id="edge10" class="edge"><title>Node2&#45;&gt;Node6</title>
<path fill="none" stroke="midnightblue" d="M188.374,-247.947C206.28,-281.27 245.386,-349.387 290,-398 302.276,-411.376 318.777,-423.943 330.865,-432.378"/>
<polygon fill="midnightblue" stroke="midnightblue" points="191.291,-245.978 183.515,-238.783 185.107,-249.257 191.291,-245.978"/>
</g>
<!-- Node11 -->
<g id="node22" class="node"><title>Node11</title>
<a xlink:href="hfa-lnx-async_8c.html#a972f8b60ef804914c009c2ef85bac50e" target="_top" xlink:title="Process search for given payload and graph.">
<polygon fill="white" stroke="black" points="1057,-455.5 1057,-476.5 1149,-476.5 1149,-455.5 1057,-455.5"/>
<text text-anchor="middle" x="1103" y="-463.5" font-family="FreeSans" font-size="10.00">process_search</text>
</a>
</g>
<!-- Node2&#45;&gt;Node11 -->
<g id="edge22" class="edge"><title>Node2&#45;&gt;Node11</title>
<path fill="none" stroke="midnightblue" d="M190.225,-247.187C208.448,-274.042 245.417,-322.213 290,-346 378.703,-393.328 412.46,-384 513,-384 513,-384 513,-384 797,-384 824.293,-384 993.237,-433.301 1067.75,-455.448"/>
<polygon fill="midnightblue" stroke="midnightblue" points="193.015,-245.061 184.579,-238.652 187.177,-248.923 193.015,-245.061"/>
</g>
<!-- Node15 -->
<g id="node31" class="node"><title>Node15</title>
<a xlink:href="hfa-lnx-ctx_8c.html#a630ea21ffa0ae1e09e74fc5add8c2715" target="_top" xlink:title="destroyctx">
<polygon fill="white" stroke="black" points="313.5,-178.5 313.5,-199.5 380.5,-199.5 380.5,-178.5 313.5,-178.5"/>
<text text-anchor="middle" x="347" y="-186.5" font-family="FreeSans" font-size="10.00">destroyctx</text>
</a>
</g>
<!-- Node2&#45;&gt;Node15 -->
<g id="edge32" class="edge"><title>Node2&#45;&gt;Node15</title>
<path fill="none" stroke="midnightblue" d="M233.594,-215.171C259.93,-209.093 290.526,-202.033 313.296,-196.778"/>
<polygon fill="midnightblue" stroke="midnightblue" points="232.691,-211.787 223.734,-217.446 234.265,-218.608 232.691,-211.787"/>
</g>
<!-- Node20 -->
<g id="node42" class="node"><title>Node20</title>
<a xlink:href="hfa-lnx-linkgraph_8c.html#acd9e54f020b77f14d54c200b65423a15" target="_top" xlink:title="Cleanup will be done by this routine.">
<polygon fill="white" stroke="black" points="320,-256.5 320,-277.5 374,-277.5 374,-256.5 320,-256.5"/>
<text text-anchor="middle" x="347" y="-264.5" font-family="FreeSans" font-size="10.00">cleanup</text>
</a>
</g>
<!-- Node2&#45;&gt;Node20 -->
<g id="edge44" class="edge"><title>Node2&#45;&gt;Node20</title>
<path fill="none" stroke="midnightblue" d="M233.711,-240.856C262.591,-247.521 296.567,-255.362 319.725,-260.706"/>
<polygon fill="midnightblue" stroke="midnightblue" points="234.265,-237.392 223.734,-238.554 232.691,-244.213 234.265,-237.392"/>
</g>
<!-- Node23 -->
<g id="node48" class="node"><title>Node23</title>
<a xlink:href="hfa-lnx-nctx-lock_8c.html#a524accbd3a8024ee7cc3254698dbd8e3" target="_top" xlink:title="Parse through global linked list and cleanup each search node.">
<polygon fill="white" stroke="black" points="302.5,-138.5 302.5,-159.5 391.5,-159.5 391.5,-138.5 302.5,-138.5"/>
<text text-anchor="middle" x="347" y="-146.5" font-family="FreeSans" font-size="10.00">snode_cleanup</text>
</a>
</g>
<!-- Node2&#45;&gt;Node23 -->
<g id="edge50" class="edge"><title>Node2&#45;&gt;Node23</title>
<path fill="none" stroke="midnightblue" d="M243.092,-213.611C246.879,-211.94 250.547,-210.076 254,-208 274.216,-195.845 270.287,-181.955 290,-169 295.697,-165.256 302.175,-162.124 308.671,-159.535"/>
<polygon fill="midnightblue" stroke="midnightblue" points="241.515,-210.471 233.488,-217.386 244.075,-216.986 241.515,-210.471"/>
</g>
<!-- Node28 -->
<g id="node59" class="node"><title>Node28</title>
<a xlink:href="hfa-lnx-wqe-lock_8c.html#aca3baf1f311592e3e33788fee866710a" target="_top" xlink:title="Cleanup memory allocated for context.">
<polygon fill="white" stroke="black" points="303.5,-98.5 303.5,-119.5 390.5,-119.5 390.5,-98.5 303.5,-98.5"/>
<text text-anchor="middle" x="347" y="-106.5" font-family="FreeSans" font-size="10.00">ctxdb_cleanup</text>
</a>
</g>
<!-- Node2&#45;&gt;Node28 -->
<g id="edge62" class="edge"><title>Node2&#45;&gt;Node28</title>
<path fill="none" stroke="midnightblue" d="M247.775,-212.568C249.953,-211.173 252.037,-209.654 254,-208 283.505,-183.135 261.515,-155.027 290,-129 294.181,-125.18 299.134,-122.082 304.348,-119.571"/>
<polygon fill="midnightblue" stroke="midnightblue" points="246.084,-209.503 238.971,-217.355 249.428,-215.653 246.084,-209.503"/>
</g>
<!-- Node29 -->
<g id="node61" class="node"><title>Node29</title>
<a xlink:href="hfa-lnx-wqe_8c.html#a2b521122b98391a14bf2df50b7155bb1" target="_top" xlink:title="Cleanup memory allocated for context.">
<polygon fill="white" stroke="black" points="309.5,-58.5 309.5,-79.5 384.5,-79.5 384.5,-58.5 309.5,-58.5"/>
<text text-anchor="middle" x="347" y="-66.5" font-family="FreeSans" font-size="10.00">cleanup_ctx</text>
</a>
</g>
<!-- Node2&#45;&gt;Node29 -->
<g id="edge64" class="edge"><title>Node2&#45;&gt;Node29</title>
<path fill="none" stroke="midnightblue" d="M249.331,-211.975C250.965,-210.743 252.527,-209.421 254,-208 293.777,-169.646 251.791,-128.916 290,-89 295.294,-83.4696 302.204,-79.467 309.377,-76.5705"/>
<polygon fill="midnightblue" stroke="midnightblue" points="247.258,-209.143 240.623,-217.403 250.961,-215.083 247.258,-209.143"/>
</g>
<!-- Node31 -->
<g id="node65" class="node"><title>Node31</title>
<a xlink:href="hfa-lnx_8c.html#a924d2733ebc7a856f8c3fd293193ba44" target="_top" xlink:title="Initialize search context.">
<polygon fill="white" stroke="black" points="309.5,-315.5 309.5,-336.5 384.5,-336.5 384.5,-315.5 309.5,-315.5"/>
<text text-anchor="middle" x="347" y="-323.5" font-family="FreeSans" font-size="10.00">initialize_ctx</text>
</a>
</g>
<!-- Node2&#45;&gt;Node31 -->
<g id="edge68" class="edge"><title>Node2&#45;&gt;Node31</title>
<path fill="none" stroke="midnightblue" d="M205.094,-243.712C239.836,-263.857 299.134,-298.243 328.871,-315.487"/>
<polygon fill="midnightblue" stroke="midnightblue" points="206.814,-240.663 196.408,-238.674 203.303,-246.719 206.814,-240.663"/>
</g>
<!-- Node48 -->
<g id="node102" class="node"><title>Node48</title>
<a xlink:href="hfa-se-async_8c.html#a1b239994494fe75dc3fd1287ea790f77" target="_top" xlink:title="Cleanup per core parameters.">
<polygon fill="white" stroke="black" points="887.5,-215.5 887.5,-236.5 968.5,-236.5 968.5,-215.5 887.5,-215.5"/>
<text text-anchor="middle" x="928" y="-223.5" font-family="FreeSans" font-size="10.00">core_cleanup</text>
</a>
</g>
<!-- Node2&#45;&gt;Node48 -->
<g id="edge108" class="edge"><title>Node2&#45;&gt;Node48</title>
<path fill="none" stroke="midnightblue" d="M264.356,-228C332.008,-228 428.499,-228 513,-228 513,-228 513,-228 681,-228 753.687,-228 838.403,-227.123 887.353,-226.531"/>
<polygon fill="midnightblue" stroke="midnightblue" points="264.17,-224.5 254.17,-228 264.17,-231.5 264.17,-224.5"/>
</g>
<!-- Node49 -->
<g id="node105" class="node"><title>Node49</title>
<a xlink:href="hfa-se-ngraphs_8c.html#a3c04138a5bfe5d72780bb7e82a18e627" target="_top" xlink:title="main">
<polygon fill="white" stroke="black" points="327,-18.5 327,-39.5 367,-39.5 367,-18.5 327,-18.5"/>
<text text-anchor="middle" x="347" y="-26.5" font-family="FreeSans" font-size="10.00">main</text>
</a>
</g>
<!-- Node2&#45;&gt;Node49 -->
<g id="edge112" class="edge"><title>Node2&#45;&gt;Node49</title>
<path fill="none" stroke="midnightblue" d="M250.081,-211.614C251.452,-210.485 252.762,-209.282 254,-208 304.338,-155.886 241.79,-103.088 290,-49 299.351,-38.5093 314.53,-33.5214 326.873,-31.1497"/>
<polygon fill="midnightblue" stroke="midnightblue" points="247.975,-208.813 241.637,-217.304 251.886,-214.618 247.975,-208.813"/>
</g>
<!-- Node4 -->
<g id="node7" class="node"><title>Node4</title>
<a xlink:href="flow_8h.html#abdb62c6f71f5ca9ecddc66c90166d37b" target="_top" xlink:title="Create Packet Flow in Flowdb.">
<polygon fill="white" stroke="black" points="457.5,-492.5 457.5,-513.5 568.5,-513.5 568.5,-492.5 457.5,-492.5"/>
<text text-anchor="middle" x="513" y="-500.5" font-family="FreeSans" font-size="10.00">hfaf_create_pktflow</text>
</a>
</g>
<!-- Node3&#45;&gt;Node4 -->
<g id="edge6" class="edge"><title>Node3&#45;&gt;Node4</title>
<path fill="none" stroke="midnightblue" d="M411.262,-496.871C426.48,-497.788 442.584,-498.758 457.381,-499.649"/>
<polygon fill="midnightblue" stroke="midnightblue" points="411.088,-493.354 400.895,-496.247 410.667,-500.342 411.088,-493.354"/>
</g>
<!-- Node5 -->
<g id="node9" class="node"><title>Node5</title>
<a xlink:href="hfa-se-flow-wqe_8c.html#a6d3e23d8f7a3aaf1b0d6e350b7631a0e" target="_top" xlink:title="Get flow pointer from Flow database, If flow ptr is NULL then create at runtime.">
<polygon fill="white" stroke="black" points="646.5,-492.5 646.5,-513.5 715.5,-513.5 715.5,-492.5 646.5,-492.5"/>
<text text-anchor="middle" x="681" y="-500.5" font-family="FreeSans" font-size="10.00">get_flowptr</text>
</a>
</g>
<!-- Node4&#45;&gt;Node5 -->
<g id="edge8" class="edge"><title>Node4&#45;&gt;Node5</title>
<path fill="none" stroke="midnightblue" d="M579.006,-503C602.009,-503 626.902,-503 646.337,-503"/>
<polygon fill="midnightblue" stroke="midnightblue" points="578.942,-499.5 568.942,-503 578.942,-506.5 578.942,-499.5"/>
</g>
<!-- Node6&#45;&gt;Node4 -->
<g id="edge18" class="edge"><title>Node6&#45;&gt;Node4</title>
<path fill="none" stroke="midnightblue" d="M378.539,-457.861C396.345,-465.921 419.145,-475.698 440,-483 449.798,-486.431 460.5,-489.649 470.616,-492.458"/>
<polygon fill="midnightblue" stroke="midnightblue" points="379.755,-454.568 369.205,-453.587 376.84,-460.933 379.755,-454.568"/>
</g>
<!-- Node7 -->
<g id="node13" class="node"><title>Node7</title>
<a xlink:href="flow_8c.html#a93974ea83df979435eb77f3c5d4ab848" target="_top" xlink:title="Cleanup Flowdb Node (Per Index)">
<polygon fill="white" stroke="black" points="440,-412.5 440,-433.5 586,-433.5 586,-412.5 440,-412.5"/>
<text text-anchor="middle" x="513" y="-420.5" font-family="FreeSans" font-size="10.00">hfaf_flowdb_node_cleanup</text>
</a>
</g>
<!-- Node6&#45;&gt;Node7 -->
<g id="edge12" class="edge"><title>Node6&#45;&gt;Node7</title>
<path fill="none" stroke="midnightblue" d="M413.65,-434.97C422.273,-433.931 431.141,-432.863 439.862,-431.812"/>
<polygon fill="midnightblue" stroke="midnightblue" points="413.173,-431.502 403.663,-436.173 414.01,-438.452 413.173,-431.502"/>
</g>
<!-- Node10 -->
<g id="node20" class="node"><title>Node10</title>
<a xlink:href="flow_8h.html#a8d99fe33dc3203530d360196cc7decb4" target="_top" xlink:title="Counterpart of hfaf_create_pktflow().">
<polygon fill="white" stroke="black" points="455,-452.5 455,-473.5 571,-473.5 571,-452.5 455,-452.5"/>
<text text-anchor="middle" x="513" y="-460.5" font-family="FreeSans" font-size="10.00">hfaf_destroy_pktflow</text>
</a>
</g>
<!-- Node6&#45;&gt;Node10 -->
<g id="edge20" class="edge"><title>Node6&#45;&gt;Node10</title>
<path fill="none" stroke="midnightblue" d="M413.904,-451.061C427.481,-452.696 441.655,-454.404 454.898,-456"/>
<polygon fill="midnightblue" stroke="midnightblue" points="414.01,-447.548 403.663,-449.827 413.173,-454.498 414.01,-447.548"/>
</g>
<!-- Node8 -->
<g id="node15" class="node"><title>Node8</title>
<a xlink:href="flow_8h.html#a2a51025bf645e4e1eec8cac2b4f8a8c0" target="_top" xlink:title="Cleanups Flow database which was created in hfaf_flowdb_init()">
<polygon fill="white" stroke="black" points="622.5,-412.5 622.5,-433.5 739.5,-433.5 739.5,-412.5 622.5,-412.5"/>
<text text-anchor="middle" x="681" y="-420.5" font-family="FreeSans" font-size="10.00">hfaf_flowdb_cleanup</text>
</a>
</g>
<!-- Node7&#45;&gt;Node8 -->
<g id="edge14" class="edge"><title>Node7&#45;&gt;Node8</title>
<path fill="none" stroke="midnightblue" d="M596.469,-423C605.241,-423 614.02,-423 622.424,-423"/>
<polygon fill="midnightblue" stroke="midnightblue" points="596.199,-419.5 586.199,-423 596.198,-426.5 596.199,-419.5"/>
</g>
<!-- Node9 -->
<g id="node17" class="node"><title>Node9</title>
<a xlink:href="hfa-se-flow-wqe_8c.html#a3c04138a5bfe5d72780bb7e82a18e627" target="_top" xlink:title="Implementation.">
<polygon fill="white" stroke="black" points="777,-412.5 777,-433.5 817,-433.5 817,-412.5 777,-412.5"/>
<text text-anchor="middle" x="797" y="-420.5" font-family="FreeSans" font-size="10.00">main</text>
</a>
</g>
<!-- Node8&#45;&gt;Node9 -->
<g id="edge16" class="edge"><title>Node8&#45;&gt;Node9</title>
<path fill="none" stroke="midnightblue" d="M749.966,-423C759.733,-423 769.07,-423 776.813,-423"/>
<polygon fill="midnightblue" stroke="midnightblue" points="749.68,-419.5 739.68,-423 749.68,-426.5 749.68,-419.5"/>
</g>
<!-- Node12 -->
<g id="node24" class="node"><title>Node12</title>
<a xlink:href="hfa-lnx-async_8c.html#a1e97b1d598034fdc92d57054a6c386e6" target="_top" xlink:title="tasklet_callback">
<polygon fill="white" stroke="black" points="1218,-495.5 1218,-516.5 1310,-516.5 1310,-495.5 1218,-495.5"/>
<text text-anchor="middle" x="1264" y="-503.5" font-family="FreeSans" font-size="10.00">tasklet_callback</text>
</a>
</g>
<!-- Node11&#45;&gt;Node12 -->
<g id="edge24" class="edge"><title>Node11&#45;&gt;Node12</title>
<path fill="none" stroke="midnightblue" d="M1155.26,-478.984C1176.77,-484.327 1201.35,-490.436 1221.7,-495.491"/>
<polygon fill="midnightblue" stroke="midnightblue" points="1155.85,-475.524 1145.3,-476.51 1154.16,-482.318 1155.85,-475.524"/>
</g>
<!-- Node14 -->
<g id="node28" class="node"><title>Node14</title>
<a xlink:href="hfa-lnx-async_8c.html#a7dea7d59754828b1173c4c7ec5d42f3e" target="_top" xlink:title="thread_callback">
<polygon fill="white" stroke="black" points="1218,-455.5 1218,-476.5 1310,-476.5 1310,-455.5 1218,-455.5"/>
<text text-anchor="middle" x="1264" y="-463.5" font-family="FreeSans" font-size="10.00">thread_callback</text>
</a>
</g>
<!-- Node11&#45;&gt;Node14 -->
<g id="edge28" class="edge"><title>Node11&#45;&gt;Node14</title>
<path fill="none" stroke="midnightblue" d="M1159.24,-466C1178.4,-466 1199.58,-466 1217.86,-466"/>
<polygon fill="midnightblue" stroke="midnightblue" points="1159.14,-462.5 1149.14,-466 1159.14,-469.5 1159.14,-462.5"/>
</g>
<!-- Node13 -->
<g id="node26" class="node"><title>Node13</title>
<a xlink:href="hfa-lnx-async_8c.html#a78ffddbcd7cdd164889cfb53ea367886" target="_top" xlink:title="entry">
<polygon fill="white" stroke="black" points="1385.5,-475.5 1385.5,-496.5 1426.5,-496.5 1426.5,-475.5 1385.5,-475.5"/>
<text text-anchor="middle" x="1406" y="-483.5" font-family="FreeSans" font-size="10.00">entry</text>
</a>
</g>
<!-- Node12&#45;&gt;Node13 -->
<g id="edge26" class="edge"><title>Node12&#45;&gt;Node13</title>
<path fill="none" stroke="midnightblue" d="M1320.15,-498.092C1343.17,-494.85 1368.37,-491.3 1385.48,-488.891"/>
<polygon fill="midnightblue" stroke="midnightblue" points="1319.52,-494.646 1310.1,-499.507 1320.49,-501.578 1319.52,-494.646"/>
</g>
<!-- Node14&#45;&gt;Node13 -->
<g id="edge30" class="edge"><title>Node14&#45;&gt;Node13</title>
<path fill="none" stroke="midnightblue" d="M1320.15,-473.908C1343.17,-477.15 1368.37,-480.7 1385.48,-483.109"/>
<polygon fill="midnightblue" stroke="midnightblue" points="1320.49,-470.422 1310.1,-472.493 1319.52,-477.354 1320.49,-470.422"/>
</g>
<!-- Node16 -->
<g id="node33" class="node"><title>Node16</title>
<a xlink:href="hfa-lnx-ctx_8c.html#a78ffddbcd7cdd164889cfb53ea367886" target="_top" xlink:title="entry">
<polygon fill="white" stroke="black" points="776.5,-139.5 776.5,-160.5 817.5,-160.5 817.5,-139.5 776.5,-139.5"/>
<text text-anchor="middle" x="797" y="-147.5" font-family="FreeSans" font-size="10.00">entry</text>
</a>
</g>
<!-- Node15&#45;&gt;Node16 -->
<g id="edge34" class="edge"><title>Node15&#45;&gt;Node16</title>
<path fill="none" stroke="midnightblue" d="M390.755,-191.327C463.894,-194.255 615.253,-196.207 740,-171 752.405,-168.493 765.704,-163.723 776.334,-159.361"/>
<polygon fill="midnightblue" stroke="midnightblue" points="390.684,-187.82 380.544,-190.89 390.386,-194.814 390.684,-187.82"/>
</g>
<!-- Node17 -->
<g id="node35" class="node"><title>Node17</title>
<a xlink:href="hfa-lnx-ctx_8c.html#a3c1f07835ef5be8d3adfbaf09af5ca28" target="_top" xlink:title="core_exit">
<polygon fill="white" stroke="black" points="483,-140.5 483,-161.5 543,-161.5 543,-140.5 483,-140.5"/>
<text text-anchor="middle" x="513" y="-148.5" font-family="FreeSans" font-size="10.00">core_exit</text>
</a>
</g>
<!-- Node15&#45;&gt;Node17 -->
<g id="edge36" class="edge"><title>Node15&#45;&gt;Node17</title>
<path fill="none" stroke="midnightblue" d="M390.482,-179.046C419.527,-172.398 456.993,-163.821 482.806,-157.912"/>
<polygon fill="midnightblue" stroke="midnightblue" points="389.559,-175.667 380.593,-181.31 391.121,-182.49 389.559,-175.667"/>
</g>
<!-- Node18 -->
<g id="node37" class="node"><title>Node18</title>
<a xlink:href="hfa-lnx-ctx_8c.html#a4c3443f524b4c0d95639694f0b74e850" target="_top" xlink:title="Process command line options, Read graph and payload.">
<polygon fill="white" stroke="black" points="634,-100.5 634,-121.5 728,-121.5 728,-100.5 634,-100.5"/>
<text text-anchor="middle" x="681" y="-108.5" font-family="FreeSans" font-size="10.00">process_options</text>
</a>
</g>
<!-- Node17&#45;&gt;Node18 -->
<g id="edge38" class="edge"><title>Node17&#45;&gt;Node18</title>
<path fill="none" stroke="midnightblue" d="M552.99,-141.479C578.176,-135.482 610.718,-127.734 636.688,-121.55"/>
<polygon fill="midnightblue" stroke="midnightblue" points="551.952,-138.128 543.035,-143.849 553.574,-144.937 551.952,-138.128"/>
</g>
<!-- Node19 -->
<g id="node40" class="node"><title>Node19</title>
<a xlink:href="hfa-lnx-ctx_8c.html#aaf98ef7cdde3a0dfb2e49919de3298b1" target="_top" xlink:title="exit">
<polygon fill="white" stroke="black" points="664.5,-140.5 664.5,-161.5 697.5,-161.5 697.5,-140.5 664.5,-140.5"/>
<text text-anchor="middle" x="681" y="-148.5" font-family="FreeSans" font-size="10.00">exit</text>
</a>
</g>
<!-- Node17&#45;&gt;Node19 -->
<g id="edge42" class="edge"><title>Node17&#45;&gt;Node19</title>
<path fill="none" stroke="midnightblue" d="M553.102,-151C588.664,-151 638.825,-151 664.48,-151"/>
<polygon fill="midnightblue" stroke="midnightblue" points="553.035,-147.5 543.035,-151 553.035,-154.5 553.035,-147.5"/>
</g>
<!-- Node18&#45;&gt;Node16 -->
<g id="edge40" class="edge"><title>Node18&#45;&gt;Node16</title>
<path fill="none" stroke="midnightblue" d="M721.989,-124.781C740.328,-130.946 761.155,-137.949 776.202,-143.008"/>
<polygon fill="midnightblue" stroke="midnightblue" points="722.985,-121.423 712.391,-121.554 720.755,-128.058 722.985,-121.423"/>
</g>
<!-- Node21 -->
<g id="node44" class="node"><title>Node21</title>
<a xlink:href="hfa-lnx-linkgraph_8c.html#a78ffddbcd7cdd164889cfb53ea367886" target="_top" xlink:title="entry">
<polygon fill="white" stroke="black" points="1082.5,-255.5 1082.5,-276.5 1123.5,-276.5 1123.5,-255.5 1082.5,-255.5"/>
<text text-anchor="middle" x="1103" y="-263.5" font-family="FreeSans" font-size="10.00">entry</text>
</a>
</g>
<!-- Node20&#45;&gt;Node21 -->
<g id="edge46" class="edge"><title>Node20&#45;&gt;Node21</title>
<path fill="none" stroke="midnightblue" d="M384.313,-266.815C446.038,-266.526 573.288,-266 681,-266 681,-266 681,-266 797,-266 904.312,-266 1032.79,-266 1082.22,-266"/>
<polygon fill="midnightblue" stroke="midnightblue" points="384.259,-263.316 374.275,-266.863 384.292,-270.315 384.259,-263.316"/>
</g>
<!-- Node22 -->
<g id="node46" class="node"><title>Node22</title>
<a xlink:href="hfa-lnx-linkgraph_8c.html#aaf98ef7cdde3a0dfb2e49919de3298b1" target="_top" xlink:title="exit">
<polygon fill="white" stroke="black" points="496.5,-294.5 496.5,-315.5 529.5,-315.5 529.5,-294.5 496.5,-294.5"/>
<text text-anchor="middle" x="513" y="-302.5" font-family="FreeSans" font-size="10.00">exit</text>
</a>
</g>
<!-- Node20&#45;&gt;Node22 -->
<g id="edge48" class="edge"><title>Node20&#45;&gt;Node22</title>
<path fill="none" stroke="midnightblue" d="M383.898,-275.446C418.898,-283.459 469.919,-295.138 496.107,-301.133"/>
<polygon fill="midnightblue" stroke="midnightblue" points="384.569,-272.01 374.04,-273.19 383.007,-278.833 384.569,-272.01"/>
</g>
<!-- Node24 -->
<g id="node50" class="node"><title>Node24</title>
<a xlink:href="hfa-lnx-nctx-lock_8c.html#acd9e54f020b77f14d54c200b65423a15" target="_top" xlink:title="Application cleanup will be done by this routine.">
<polygon fill="white" stroke="black" points="486,-80.5 486,-101.5 540,-101.5 540,-80.5 486,-80.5"/>
<text text-anchor="middle" x="513" y="-88.5" font-family="FreeSans" font-size="10.00">cleanup</text>
</a>
</g>
<!-- Node23&#45;&gt;Node24 -->
<g id="edge52" class="edge"><title>Node23&#45;&gt;Node24</title>
<path fill="none" stroke="midnightblue" d="M386.601,-135.164C417.273,-124.447 458.948,-109.886 485.911,-100.465"/>
<polygon fill="midnightblue" stroke="midnightblue" points="385.347,-131.894 377.061,-138.497 387.656,-138.502 385.347,-131.894"/>
</g>
<!-- Node27 -->
<g id="node56" class="node"><title>Node27</title>
<a xlink:href="hfa-lnx-nctx-lock_8c.html#a2c813b2ff20c5bf67f487908476604d6" target="_top" xlink:title="Initialize search context object for nctxts and a global list to track nctxts.">
<polygon fill="white" stroke="black" points="463.5,-40.5 463.5,-61.5 562.5,-61.5 562.5,-40.5 463.5,-40.5"/>
<text text-anchor="middle" x="513" y="-48.5" font-family="FreeSans" font-size="10.00">initialize_ctx_glist</text>
</a>
</g>
<!-- Node23&#45;&gt;Node27 -->
<g id="edge58" class="edge"><title>Node23&#45;&gt;Node27</title>
<path fill="none" stroke="midnightblue" d="M397.378,-133.606C399.701,-132.198 401.925,-130.666 404,-129 427.66,-110.008 415.689,-89.1517 440,-71 446.844,-65.8898 454.919,-62.0853 463.158,-59.2528"/>
<polygon fill="midnightblue" stroke="midnightblue" points="395.304,-130.739 388.035,-138.448 398.525,-136.954 395.304,-130.739"/>
</g>
<!-- Node25 -->
<g id="node52" class="node"><title>Node25</title>
<a xlink:href="hfa-lnx-nctx-lock_8c.html#a78ffddbcd7cdd164889cfb53ea367886" target="_top" xlink:title="entry">
<polygon fill="white" stroke="black" points="660.5,-20.5 660.5,-41.5 701.5,-41.5 701.5,-20.5 660.5,-20.5"/>
<text text-anchor="middle" x="681" y="-28.5" font-family="FreeSans" font-size="10.00">entry</text>
</a>
</g>
<!-- Node24&#45;&gt;Node25 -->
<g id="edge54" class="edge"><title>Node24&#45;&gt;Node25</title>
<path fill="none" stroke="midnightblue" d="M550.115,-82.6722C561.795,-79.5657 574.613,-75.6442 586,-71 602.948,-64.0878 605.265,-58.4126 622,-51 634.46,-45.481 648.947,-40.5498 660.448,-36.9648"/>
<polygon fill="midnightblue" stroke="midnightblue" points="549.038,-79.3347 540.208,-85.19 550.762,-86.119 549.038,-79.3347"/>
</g>
<!-- Node26 -->
<g id="node54" class="node"><title>Node26</title>
<a xlink:href="hfa-lnx-nctx-lock_8c.html#aaf98ef7cdde3a0dfb2e49919de3298b1" target="_top" xlink:title="exit">
<polygon fill="white" stroke="black" points="664.5,-60.5 664.5,-81.5 697.5,-81.5 697.5,-60.5 664.5,-60.5"/>
<text text-anchor="middle" x="681" y="-68.5" font-family="FreeSans" font-size="10.00">exit</text>
</a>
</g>
<!-- Node24&#45;&gt;Node26 -->
<g id="edge56" class="edge"><title>Node24&#45;&gt;Node26</title>
<path fill="none" stroke="midnightblue" d="M550.398,-86.5479C586.026,-82.3064 638.017,-76.117 664.365,-72.9803"/>
<polygon fill="midnightblue" stroke="midnightblue" points="549.882,-83.0845 540.366,-87.7421 550.71,-90.0354 549.882,-83.0845"/>
</g>
<!-- Node27&#45;&gt;Node25 -->
<g id="edge60" class="edge"><title>Node27&#45;&gt;Node25</title>
<path fill="none" stroke="midnightblue" d="M573.08,-43.8476C603.543,-40.2211 638.584,-36.0495 660.263,-33.4687"/>
<polygon fill="midnightblue" stroke="midnightblue" points="572.467,-40.3958 562.951,-45.0535 573.294,-47.3467 572.467,-40.3958"/>
</g>
<!-- Node30 -->
<g id="node63" class="node"><title>Node30</title>
<a xlink:href="hfa-lnx-wqe_8c.html#a972f8b60ef804914c009c2ef85bac50e" target="_top" xlink:title="process_search">
<polygon fill="white" stroke="black" points="467,-0.5 467,-21.5 559,-21.5 559,-0.5 467,-0.5"/>
<text text-anchor="middle" x="513" y="-8.5" font-family="FreeSans" font-size="10.00">process_search</text>
</a>
</g>
<!-- Node29&#45;&gt;Node30 -->
<g id="edge66" class="edge"><title>Node29&#45;&gt;Node30</title>
<path fill="none" stroke="midnightblue" d="M388.956,-54.9591C394.061,-53.051 399.174,-51.0434 404,-49 420.473,-42.0248 423.293,-37.3941 440,-31 449.204,-27.4772 459.281,-24.302 468.929,-21.5729"/>
<polygon fill="midnightblue" stroke="midnightblue" points="387.434,-51.7881 379.227,-58.4887 389.821,-58.3684 387.434,-51.7881"/>
</g>
<!-- Node32 -->
<g id="node67" class="node"><title>Node32</title>
<a xlink:href="hfa-lnx_8c.html#a78ffddbcd7cdd164889cfb53ea367886" target="_top" xlink:title="entry">
<polygon fill="white" stroke="black" points="492.5,-334.5 492.5,-355.5 533.5,-355.5 533.5,-334.5 492.5,-334.5"/>
<text text-anchor="middle" x="513" y="-342.5" font-family="FreeSans" font-size="10.00">entry</text>
</a>
</g>
<!-- Node31&#45;&gt;Node32 -->
<g id="edge70" class="edge"><title>Node31&#45;&gt;Node32</title>
<path fill="none" stroke="midnightblue" d="M394.79,-331.47C427.005,-335.157 467.907,-339.839 492.181,-342.617"/>
<polygon fill="midnightblue" stroke="midnightblue" points="395.001,-327.971 384.668,-330.311 394.205,-334.926 395.001,-327.971"/>
</g>
<!-- Node33 -->
<g id="node69" class="node"><title>Node33</title>
<a xlink:href="cvm-hfa-pp_8c.html#adcc1149c628372e2e566c246870929cb" target="_top" xlink:title="infoentry">
<polygon fill="white" stroke="black" points="651.5,-334.5 651.5,-355.5 710.5,-355.5 710.5,-334.5 651.5,-334.5"/>
<text text-anchor="middle" x="681" y="-342.5" font-family="FreeSans" font-size="10.00">infoentry</text>
</a>
</g>
<!-- Node32&#45;&gt;Node33 -->
<g id="edge72" class="edge"><title>Node32&#45;&gt;Node33</title>
<path fill="none" stroke="midnightblue" d="M543.723,-345C574.397,-345 621.21,-345 651.46,-345"/>
<polygon fill="midnightblue" stroke="midnightblue" points="543.6,-341.5 533.6,-345 543.6,-348.5 543.6,-341.5"/>
</g>
<!-- Node34 -->
<g id="node71" class="node"><title>Node34</title>
<a xlink:href="ppdfa_8h.html#a81b3389c2c25a4ba308f71501f980e38" target="_top" xlink:title="pp">
<polygon fill="white" stroke="black" points="782.5,-334.5 782.5,-355.5 811.5,-355.5 811.5,-334.5 782.5,-334.5"/>
<text text-anchor="middle" x="797" y="-342.5" font-family="FreeSans" font-size="10.00">pp</text>
</a>
</g>
<!-- Node33&#45;&gt;Node34 -->
<g id="edge74" class="edge"><title>Node33&#45;&gt;Node34</title>
<path fill="none" stroke="midnightblue" d="M720.667,-345C741.95,-345 766.904,-345 782.335,-345"/>
<polygon fill="midnightblue" stroke="midnightblue" points="720.572,-341.5 710.572,-345 720.572,-348.5 720.572,-341.5"/>
</g>
<!-- Node35 -->
<g id="node73" class="node"><title>Node35</title>
<a xlink:href="cvm-hfa-search_8c.html#a6dbb15dc58155b2c94b19784ad42ef89" target="_top" xlink:title="This routine post&#45;processes the search results from the HFA engine and reports the pattern matches fo...">
<polygon fill="white" stroke="black" points="854.5,-334.5 854.5,-355.5 1001.5,-355.5 1001.5,-334.5 854.5,-334.5"/>
<text text-anchor="middle" x="928" y="-342.5" font-family="FreeSans" font-size="10.00">hfa_searchctx_getmatches</text>
</a>
</g>
<!-- Node34&#45;&gt;Node35 -->
<g id="edge76" class="edge"><title>Node34&#45;&gt;Node35</title>
<path fill="none" stroke="midnightblue" d="M821.68,-345C831.155,-345 842.525,-345 854.253,-345"/>
<polygon fill="midnightblue" stroke="midnightblue" points="821.52,-341.5 811.52,-345 821.52,-348.5 821.52,-341.5"/>
</g>
<!-- Node35&#45;&gt;Node11 -->
<g id="edge84" class="edge"><title>Node35&#45;&gt;Node11</title>
<path fill="none" stroke="midnightblue" d="M986.947,-359.84C992.384,-362.662 997.522,-366.016 1002,-370 1029.92,-394.844 1009.74,-421.539 1038,-446 1043.45,-450.713 1049.99,-454.316 1056.79,-457.07"/>
<polygon fill="midnightblue" stroke="midnightblue" points="988.132,-356.533 977.58,-355.574 985.231,-362.904 988.132,-356.533"/>
</g>
<!-- Node35&#45;&gt;Node21 -->
<g id="edge92" class="edge"><title>Node35&#45;&gt;Node21</title>
<path fill="none" stroke="midnightblue" d="M954.079,-329.148C975.936,-316.324 1008.25,-298.417 1038,-286 1052.49,-279.951 1069.47,-274.789 1082.44,-271.225"/>
<polygon fill="midnightblue" stroke="midnightblue" points="952.206,-326.19 945.391,-334.303 955.777,-332.211 952.206,-326.19"/>
</g>
<!-- Node36 -->
<g id="node75" class="node"><title>Node36</title>
<a xlink:href="flow_8c.html#a2976ab60901b133a56214323fb901663" target="_top" xlink:title="Low level API to poll a flow.">
<polygon fill="white" stroke="black" points="1038.5,-375.5 1038.5,-396.5 1167.5,-396.5 1167.5,-375.5 1038.5,-375.5"/>
<text text-anchor="middle" x="1103" y="-383.5" font-family="FreeSans" font-size="10.00">__hfaf_process_pktflow</text>
</a>
</g>
<!-- Node35&#45;&gt;Node36 -->
<g id="edge78" class="edge"><title>Node35&#45;&gt;Node36</title>
<path fill="none" stroke="midnightblue" d="M982.828,-357.845C1007.04,-363.517 1035.14,-370.102 1058.09,-375.477"/>
<polygon fill="midnightblue" stroke="midnightblue" points="983.602,-354.432 973.067,-355.559 982.005,-361.247 983.602,-354.432"/>
</g>
<!-- Node39 -->
<g id="node82" class="node"><title>Node39</title>
<a xlink:href="hfa-lnx-ctx_8c.html#a71e1d3d18cc48b90a1ecde583ffb3f7a" target="_top" xlink:title="poll_searchctx">
<polygon fill="white" stroke="black" points="1060,-335.5 1060,-356.5 1146,-356.5 1146,-335.5 1060,-335.5"/>
<text text-anchor="middle" x="1103" y="-343.5" font-family="FreeSans" font-size="10.00">poll_searchctx</text>
</a>
</g>
<!-- Node35&#45;&gt;Node39 -->
<g id="edge86" class="edge"><title>Node35&#45;&gt;Node39</title>
<path fill="none" stroke="midnightblue" d="M1011.98,-345.48C1028.56,-345.575 1045.3,-345.67 1059.82,-345.753"/>
<polygon fill="midnightblue" stroke="midnightblue" points="1011.73,-341.978 1001.71,-345.421 1011.69,-348.978 1011.73,-341.978"/>
</g>
<!-- Node42 -->
<g id="node89" class="node"><title>Node42</title>
<a xlink:href="hfa-lnx-nctx-lock_8c.html#adb0c831ef0f9af5441a6769c377d9c95" target="_top" xlink:title="Post process the results from HFA and record found matches.">
<polygon fill="white" stroke="black" points="1063,-295.5 1063,-316.5 1143,-316.5 1143,-295.5 1063,-295.5"/>
<text text-anchor="middle" x="1103" y="-303.5" font-family="FreeSans" font-size="10.00">post_process</text>
</a>
</g>
<!-- Node35&#45;&gt;Node42 -->
<g id="edge94" class="edge"><title>Node35&#45;&gt;Node42</title>
<path fill="none" stroke="midnightblue" d="M985.217,-332.249C1010.55,-326.604 1039.74,-320.098 1062.73,-314.975"/>
<polygon fill="midnightblue" stroke="midnightblue" points="984.357,-328.855 975.358,-334.446 985.879,-335.687 984.357,-328.855"/>
</g>
<!-- Node45 -->
<g id="node96" class="node"><title>Node45</title>
<a xlink:href="hfa-se-async_8c.html#a3c04138a5bfe5d72780bb7e82a18e627" target="_top" xlink:title="main">
<polygon fill="white" stroke="black" points="1083,-215.5 1083,-236.5 1123,-236.5 1123,-215.5 1083,-215.5"/>
<text text-anchor="middle" x="1103" y="-223.5" font-family="FreeSans" font-size="10.00">main</text>
</a>
</g>
<!-- Node35&#45;&gt;Node45 -->
<g id="edge102" class="edge"><title>Node35&#45;&gt;Node45</title>
<path fill="none" stroke="midnightblue" d="M943.639,-326.723C963.48,-304.618 999.748,-267.682 1038,-246 1051.97,-238.082 1069.44,-232.932 1082.75,-229.844"/>
<polygon fill="midnightblue" stroke="midnightblue" points="940.854,-324.59 936.869,-334.407 946.106,-329.218 940.854,-324.59"/>
</g>
<!-- Node46 -->
<g id="node98" class="node"><title>Node46</title>
<a xlink:href="hfa-se-wqe-lock_8c.html#a06b5fcfab0e1d5eb36b633ec080ad7f9" target="_top" xlink:title="Process search for given contexts.">
<polygon fill="white" stroke="black" points="1063,-415.5 1063,-436.5 1143,-436.5 1143,-415.5 1063,-415.5"/>
<text text-anchor="middle" x="1103" y="-423.5" font-family="FreeSans" font-size="10.00">process_nctx</text>
</a>
</g>
<!-- Node35&#45;&gt;Node46 -->
<g id="edge104" class="edge"><title>Node35&#45;&gt;Node46</title>
<path fill="none" stroke="midnightblue" d="M979.664,-359.02C987.423,-362.09 995.12,-365.729 1002,-370 1021.22,-381.935 1018.61,-394.329 1038,-406 1045.59,-410.568 1054.31,-414.175 1062.84,-416.994"/>
<polygon fill="midnightblue" stroke="midnightblue" points="980.815,-355.714 970.221,-355.555 978.403,-362.286 980.815,-355.714"/>
</g>
<!-- Node37 -->
<g id="node77" class="node"><title>Node37</title>
<a xlink:href="flow_8h.html#ab1b3378af88a440a6c3c0851be942e65" target="_top" xlink:title="All submitted search parameters in Paramlist of flow are polled If low level API __hfaf_process_pktfl...">
<polygon fill="white" stroke="black" points="1204.5,-375.5 1204.5,-396.5 1323.5,-396.5 1323.5,-375.5 1204.5,-375.5"/>
<text text-anchor="middle" x="1264" y="-383.5" font-family="FreeSans" font-size="10.00">hfaf_process_pktflow</text>
</a>
</g>
<!-- Node36&#45;&gt;Node37 -->
<g id="edge80" class="edge"><title>Node36&#45;&gt;Node37</title>
<path fill="none" stroke="midnightblue" d="M1177.62,-386C1186.59,-386 1195.66,-386 1204.38,-386"/>
<polygon fill="midnightblue" stroke="midnightblue" points="1177.56,-382.5 1167.56,-386 1177.56,-389.5 1177.56,-382.5"/>
</g>
<!-- Node38 -->
<g id="node79" class="node"><title>Node38</title>
<a xlink:href="hfa-se-flow_8c.html#a2d83c733eacd7afc955c3af18edcb52a" target="_top" xlink:title="Polls for a submitted search instruction of a flow.">
<polygon fill="white" stroke="red" points="1363.5,-375.5 1363.5,-396.5 1448.5,-396.5 1448.5,-375.5 1363.5,-375.5"/>
<text text-anchor="middle" x="1406" y="-383.5" font-family="FreeSans" font-size="10.00">__processflow</text>
</a>
</g>
<!-- Node37&#45;&gt;Node38 -->
<g id="edge82" class="edge"><title>Node37&#45;&gt;Node38</title>
<path fill="none" stroke="midnightblue" d="M1334.08,-386C1343.98,-386 1353.9,-386 1363.08,-386"/>
<polygon fill="midnightblue" stroke="midnightblue" points="1333.81,-382.5 1323.81,-386 1333.81,-389.5 1333.81,-382.5"/>
</g>
<!-- Node40 -->
<g id="node84" class="node"><title>Node40</title>
<a xlink:href="hfa-lnx-ctx_8c.html#a934a9fc08c4aab25d6f0d861e4a4f762" target="_top" xlink:title="poll">
<polygon fill="white" stroke="black" points="1247.5,-335.5 1247.5,-356.5 1280.5,-356.5 1280.5,-335.5 1247.5,-335.5"/>
<text text-anchor="middle" x="1264" y="-343.5" font-family="FreeSans" font-size="10.00">poll</text>
</a>
</g>
<!-- Node39&#45;&gt;Node40 -->
<g id="edge88" class="edge"><title>Node39&#45;&gt;Node40</title>
<path fill="none" stroke="midnightblue" d="M1156.2,-346C1187.95,-346 1226.13,-346 1247.48,-346"/>
<polygon fill="midnightblue" stroke="midnightblue" points="1156.15,-342.5 1146.15,-346 1156.15,-349.5 1156.15,-342.5"/>
</g>
<!-- Node41 -->
<g id="node86" class="node"><title>Node41</title>
<a xlink:href="hfa-lnx-ctx_8c.html#a97df0ba8293c1b8436547946fd9d0d17" target="_top" xlink:title="process_pkt">
<polygon fill="white" stroke="black" points="1369,-335.5 1369,-356.5 1443,-356.5 1443,-335.5 1369,-335.5"/>
<text text-anchor="middle" x="1406" y="-343.5" font-family="FreeSans" font-size="10.00">process_pkt</text>
</a>
</g>
<!-- Node40&#45;&gt;Node41 -->
<g id="edge90" class="edge"><title>Node40&#45;&gt;Node41</title>
<path fill="none" stroke="midnightblue" d="M1290.86,-346C1312.91,-346 1344.38,-346 1368.84,-346"/>
<polygon fill="midnightblue" stroke="midnightblue" points="1290.57,-342.5 1280.57,-346 1290.57,-349.5 1290.57,-342.5"/>
</g>
<!-- Node43 -->
<g id="node91" class="node"><title>Node43</title>
<a xlink:href="hfa-lnx-nctx-lock_8c.html#a48d3743fb7abc7d3c6b68359678e52a1" target="_top" xlink:title="Poll for the pending search instructions in the HW (blocked till instruction completes) and process t...">
<polygon fill="white" stroke="black" points="1247.5,-295.5 1247.5,-316.5 1280.5,-316.5 1280.5,-295.5 1247.5,-295.5"/>
<text text-anchor="middle" x="1264" y="-303.5" font-family="FreeSans" font-size="10.00">poll</text>
</a>
</g>
<!-- Node42&#45;&gt;Node43 -->
<g id="edge96" class="edge"><title>Node42&#45;&gt;Node43</title>
<path fill="none" stroke="midnightblue" d="M1153.36,-306C1185.54,-306 1225.22,-306 1247.25,-306"/>
<polygon fill="midnightblue" stroke="midnightblue" points="1153.21,-302.5 1143.21,-306 1153.21,-309.5 1153.21,-302.5"/>
</g>
<!-- Node44 -->
<g id="node93" class="node"><title>Node44</title>
<a xlink:href="hfa-lnx-nctx-lock_8c.html#a972f8b60ef804914c009c2ef85bac50e" target="_top" xlink:title="Performs search process for each core.">
<polygon fill="white" stroke="black" points="1360,-276.5 1360,-297.5 1452,-297.5 1452,-276.5 1360,-276.5"/>
<text text-anchor="middle" x="1406" y="-284.5" font-family="FreeSans" font-size="10.00">process_search</text>
</a>
</g>
<!-- Node42&#45;&gt;Node44 -->
<g id="edge100" class="edge"><title>Node42&#45;&gt;Node44</title>
<path fill="none" stroke="midnightblue" d="M1152.85,-294.122C1169.06,-290.799 1187.21,-287.647 1204,-286 1257.08,-280.795 1270.67,-285.675 1324,-286 1335.53,-286.07 1347.98,-286.196 1359.6,-286.336"/>
<polygon fill="midnightblue" stroke="midnightblue" points="1152.09,-290.705 1143.03,-296.202 1153.54,-297.553 1152.09,-290.705"/>
</g>
<!-- Node43&#45;&gt;Node44 -->
<g id="edge98" class="edge"><title>Node43&#45;&gt;Node44</title>
<path fill="none" stroke="midnightblue" d="M1290.53,-302.45C1309.98,-299.848 1336.88,-296.249 1359.82,-293.179"/>
<polygon fill="midnightblue" stroke="midnightblue" points="1290.01,-298.988 1280.57,-303.783 1290.94,-305.926 1290.01,-298.988"/>
</g>
<!-- Node47 -->
<g id="node100" class="node"><title>Node47</title>
<a xlink:href="hfa-se-wqe-lock_8c.html#a3c04138a5bfe5d72780bb7e82a18e627" target="_top" xlink:title="main">
<polygon fill="white" stroke="black" points="1244,-415.5 1244,-436.5 1284,-436.5 1284,-415.5 1244,-415.5"/>
<text text-anchor="middle" x="1264" y="-423.5" font-family="FreeSans" font-size="10.00">main</text>
</a>
</g>
<!-- Node46&#45;&gt;Node47 -->
<g id="edge106" class="edge"><title>Node46&#45;&gt;Node47</title>
<path fill="none" stroke="midnightblue" d="M1153.3,-426C1183.9,-426 1221.31,-426 1243.87,-426"/>
<polygon fill="midnightblue" stroke="midnightblue" points="1153.21,-422.5 1143.21,-426 1153.21,-429.5 1153.21,-422.5"/>
</g>
<!-- Node48&#45;&gt;Node45 -->
<g id="edge110" class="edge"><title>Node48&#45;&gt;Node45</title>
<path fill="none" stroke="midnightblue" d="M979.001,-226C1013.61,-226 1057.51,-226 1082.71,-226"/>
<polygon fill="midnightblue" stroke="midnightblue" points="978.588,-222.5 968.588,-226 978.588,-229.5 978.588,-222.5"/>
</g>
</g>
</svg>
        <g id="navigator" transform="translate(0 0)" fill="#404254">
                <rect fill="#f2f5e9" fill-opacity="0.5" stroke="#606060" stroke-width=".5" x="0" y="0" width="60" height="60"/>
                <use id="zoomplus" xlink:href="#zoomPlus" x="17" y="9" onmousedown="handleZoom(evt,'in')"/>
                <use id="zoomminus" xlink:href="#zoomMin" x="42" y="9" onmousedown="handleZoom(evt,'out')"/>
                <use id="reset" xlink:href="#resetDef" x="30" y="36" onmousedown="handleReset()"/>
                <g id="arrowUp" xlink:href="#dirArrow" transform="translate(30 24)" onmousedown="handlePan(0,-1)">
                  <use xlink:href="#rim" fill="#404040">
                        <set attributeName="fill" to="#808080" begin="arrowUp.mouseover" end="arrowUp.mouseout"/>
                  </use>
                  <path fill="none" stroke="white" stroke-width="1.5" d="M0,-3.0v7 M-2.5,-0.5L0,-3.0L2.5,-0.5"/>
                </g>
                <g id="arrowRight" xlink:href="#dirArrow" transform="rotate(90) translate(36 -43)" onmousedown="handlePan(1,0)">
                  <use xlink:href="#rim" fill="#404040">
                        <set attributeName="fill" to="#808080" begin="arrowRight.mouseover" end="arrowRight.mouseout"/>
                  </use>
                  <path fill="none" stroke="white" stroke-width="1.5" d="M0,-3.0v7 M-2.5,-0.5L0,-3.0L2.5,-0.5"/>
                </g>
                <g id="arrowDown" xlink:href="#dirArrow" transform="rotate(180) translate(-30 -48)" onmousedown="handlePan(0,1)">
                  <use xlink:href="#rim" fill="#404040">
                        <set attributeName="fill" to="#808080" begin="arrowDown.mouseover" end="arrowDown.mouseout"/>
                  </use>
                  <path fill="none" stroke="white" stroke-width="1.5" d="M0,-3.0v7 M-2.5,-0.5L0,-3.0L2.5,-0.5"/>
                </g>
                <g id="arrowLeft" xlink:href="#dirArrow" transform="rotate(270) translate(-36 17)" onmousedown="handlePan(-1,0)">
                  <use xlink:href="#rim" fill="#404040">
                        <set attributeName="fill" to="#808080" begin="arrowLeft.mouseover" end="arrowLeft.mouseout"/>
                  </use>
                  <path fill="none" stroke="white" stroke-width="1.5" d="M0,-3.0v7 M-2.5,-0.5L0,-3.0L2.5,-0.5"/>
                </g>
        </g>
        <svg viewBox="0 0 15 15" width="100%" height="30px" preserveAspectRatio="xMaxYMin meet">
         <g id="arrow_out" transform="scale(0.3 0.3)">
          <a xlink:href="cvm-hfa-pp_8c_a41ce9d3103c639e474783d3843e09071_icgraph_org.svg" target="_base">
           <rect id="button" ry="5" rx="5" y="6" x="6" height="38" width="38"
                fill="#f2f5e9" fill-opacity="0.5" stroke="#606060" stroke-width="1.0"/>
           <path id="arrow"
             d="M 11.500037,31.436501 C 11.940474,20.09759 22.043105,11.32322 32.158766,21.979434 L 37.068811,17.246167 C 37.068811,17.246167 37.088388,32 37.088388,32 L 22.160133,31.978069 C 22.160133,31.978069 26.997745,27.140456 26.997745,27.140456 C 18.528582,18.264221 13.291696,25.230495 11.500037,31.436501 z"
             style="fill:#404040;"/>
          </a>
         </g>
        </svg>
</svg>
