<?xml version="1.0" encoding="UTF-8" standalone="no"?>
<!DOCTYPE svg PUBLIC "-//W3C//DTD SVG 1.1//EN"
 "http://www.w3.org/Graphics/SVG/1.1/DTD/svg11.dtd">
<!-- Generated by graphviz version 2.24.0 (20090616.2323)
 -->
<!-- Title: hfa_dev_init Pages: 1 -->
<svg width="990pt" height="788pt"
 viewBox="0.00 0.00 990.00 788.00" xmlns="http://www.w3.org/2000/svg" xmlns:xlink="http://www.w3.org/1999/xlink">
<g id="graph1" class="graph" transform="scale(1 1) rotate(0) translate(4 784)">
<title>hfa_dev_init</title>
<polygon fill="white" stroke="white" points="-4,5 -4,-784 987,-784 987,5 -4,5"/>
<!-- Node1 -->
<g id="node1" class="node"><title>Node1</title>
<polygon fill="#bfbfbf" stroke="black" points="0,-340.5 0,-361.5 74,-361.5 74,-340.5 0,-340.5"/>
<text text-anchor="middle" x="37" y="-348.5" font-family="FreeSans" font-size="10.00">hfa_dev_init</text>
</g>
<!-- Node2 -->
<g id="node3" class="node"><title>Node2</title>
<a xlink:href="cvm-hfa-stats_8c.html#a2fcf955b47370bfa46705ee5a23a70cf" target="_top" xlink:title="This routine allocates memory for counters to maintain statistics of each processing core...">
<polygon fill="white" stroke="black" points="142,-680.5 142,-701.5 244,-701.5 244,-680.5 142,-680.5"/>
<text text-anchor="middle" x="193" y="-688.5" font-family="FreeSans" font-size="10.00">hfa_dev_stats_init</text>
</a>
</g>
<!-- Node1&#45;&gt;Node2 -->
<g id="edge2" class="edge"><title>Node1&#45;&gt;Node2</title>
<path fill="none" stroke="midnightblue" d="M37.9389,-361.598C42.5992,-411.817 64.847,-625.294 110,-671 116.206,-677.282 124.019,-681.724 132.355,-684.841"/>
<polygon fill="midnightblue" stroke="midnightblue" points="131.342,-688.191 141.93,-687.825 133.425,-681.508 131.342,-688.191"/>
</g>
<!-- Node11 -->
<g id="node23" class="node"><title>Node11</title>
<a xlink:href="cvm-hfa_8c.html#a27982497398da2118cd5287ed51732e7" target="_top" xlink:title="Provides device&#45;specific information This is a utility routine used to obtain HFA device&#45;specific det...">
<polygon fill="white" stroke="black" points="137.5,-640.5 137.5,-661.5 248.5,-661.5 248.5,-640.5 137.5,-640.5"/>
<text text-anchor="middle" x="193" y="-648.5" font-family="FreeSans" font-size="10.00">hfa_dev_getdevinfo</text>
</a>
</g>
<!-- Node1&#45;&gt;Node11 -->
<g id="edge24" class="edge"><title>Node1&#45;&gt;Node11</title>
<path fill="none" stroke="midnightblue" d="M38.3336,-361.803C44.3016,-408.419 70.0264,-591.762 110,-631 115.046,-635.953 121.093,-639.755 127.594,-642.662"/>
<polygon fill="midnightblue" stroke="midnightblue" points="126.785,-646.096 137.378,-646.311 129.232,-639.537 126.785,-646.096"/>
</g>
<!-- Node12 -->
<g id="node25" class="node"><title>Node12</title>
<a xlink:href="pp_8h.html#a6f5982b2671e9682262a26b0d2996396" target="_top" xlink:title="Constructs a readable version string for the PP library.">
<polygon fill="white" stroke="black" points="133,-600.5 133,-621.5 253,-621.5 253,-600.5 133,-600.5"/>
<text text-anchor="middle" x="193" y="-608.5" font-family="FreeSans" font-size="10.00">pp_get_version_string</text>
</a>
</g>
<!-- Node1&#45;&gt;Node12 -->
<g id="edge26" class="edge"><title>Node1&#45;&gt;Node12</title>
<path fill="none" stroke="midnightblue" d="M38.8066,-361.665C46.1531,-403.812 75.0642,-558.061 110,-591 114.044,-594.813 118.685,-597.938 123.66,-600.495"/>
<polygon fill="midnightblue" stroke="midnightblue" points="122.353,-603.743 132.92,-604.51 125.137,-597.321 122.353,-603.743"/>
</g>
<!-- Node13 -->
<g id="node27" class="node"><title>Node13</title>
<a xlink:href="cvm-hfa_8c.html#afd1d53fe8a402d4c5799e6e98c67baaa" target="_top" xlink:title="Displays HFA Device info.">
<polygon fill="white" stroke="black" points="134.5,-560.5 134.5,-581.5 251.5,-581.5 251.5,-560.5 134.5,-560.5"/>
<text text-anchor="middle" x="193" y="-568.5" font-family="FreeSans" font-size="10.00">hfa_dev_display_info</text>
</a>
</g>
<!-- Node1&#45;&gt;Node13 -->
<g id="edge28" class="edge"><title>Node1&#45;&gt;Node13</title>
<path fill="none" stroke="midnightblue" d="M37.5151,-361.595C39.731,-394.934 51.2603,-498.577 110,-551 114.463,-554.983 119.582,-558.208 125.039,-560.813"/>
<polygon fill="midnightblue" stroke="midnightblue" points="123.903,-564.129 134.485,-564.64 126.531,-557.641 123.903,-564.129"/>
</g>
<!-- Node16 -->
<g id="node33" class="node"><title>Node16</title>
<a xlink:href="cvm-hfa_8c.html#a236e64ca73680ea6761204d5c44d4e96" target="_top" xlink:title="API to set PP resource allocator for partial matches.">
<polygon fill="white" stroke="black" points="125.5,-520.5 125.5,-541.5 260.5,-541.5 260.5,-520.5 125.5,-520.5"/>
<text text-anchor="middle" x="193" y="-528.5" font-family="FreeSans" font-size="10.00">hfa_dev_set_fnp_ppalloc</text>
</a>
</g>
<!-- Node1&#45;&gt;Node16 -->
<g id="edge34" class="edge"><title>Node1&#45;&gt;Node16</title>
<path fill="none" stroke="midnightblue" d="M38.5693,-361.504C43.4352,-390.223 61.0043,-470.595 110,-511 112.001,-512.65 114.117,-514.168 116.321,-515.565"/>
<polygon fill="midnightblue" stroke="midnightblue" points="114.753,-518.696 125.215,-520.369 118.08,-512.537 114.753,-518.696"/>
</g>
<!-- Node17 -->
<g id="node35" class="node"><title>Node17</title>
<a xlink:href="cvm-hfa_8c.html#ab547f175726534d6a0a334eb35af4980" target="_top" xlink:title="Default function pointer for PP allocations.">
<polygon fill="white" stroke="black" points="133,-480.5 133,-501.5 253,-501.5 253,-480.5 133,-480.5"/>
<text text-anchor="middle" x="193" y="-488.5" font-family="FreeSans" font-size="10.00">hfa_defaultfn_ppalloc</text>
</a>
</g>
<!-- Node1&#45;&gt;Node17 -->
<g id="edge36" class="edge"><title>Node1&#45;&gt;Node17</title>
<path fill="none" stroke="midnightblue" d="M40.2955,-361.588C48.2078,-385.181 70.6023,-442.253 110,-471 114.159,-474.035 118.717,-476.614 123.49,-478.806"/>
<polygon fill="midnightblue" stroke="midnightblue" points="122.299,-482.099 132.884,-482.561 124.897,-475.599 122.299,-482.099"/>
</g>
<!-- Node18 -->
<g id="node37" class="node"><title>Node18</title>
<a xlink:href="cvm-hfa_8c.html#a148abbfdeebb207ff46884af8eeb8fa4" target="_top" xlink:title="API to set PP resource deallocator for partial matches.">
<polygon fill="white" stroke="black" points="127,-440.5 127,-461.5 259,-461.5 259,-440.5 127,-440.5"/>
<text text-anchor="middle" x="193" y="-448.5" font-family="FreeSans" font-size="10.00">hfa_dev_set_fnp_ppfree</text>
</a>
</g>
<!-- Node1&#45;&gt;Node18 -->
<g id="edge38" class="edge"><title>Node1&#45;&gt;Node18</title>
<path fill="none" stroke="midnightblue" d="M43.6362,-361.682C54.9991,-379.038 79.893,-413.206 110,-431 113.661,-433.163 117.543,-435.093 121.552,-436.814"/>
<polygon fill="midnightblue" stroke="midnightblue" points="120.499,-440.159 131.089,-440.464 123,-433.621 120.499,-440.159"/>
</g>
<!-- Node19 -->
<g id="node39" class="node"><title>Node19</title>
<a xlink:href="cvm-hfa_8c.html#a832239ee7b188265bdacbbfb7e879af1" target="_top" xlink:title="Default function pointer for PP deallocations.">
<polygon fill="white" stroke="black" points="134.5,-400.5 134.5,-421.5 251.5,-421.5 251.5,-400.5 134.5,-400.5"/>
<text text-anchor="middle" x="193" y="-408.5" font-family="FreeSans" font-size="10.00">hfa_defaultfn_ppfree</text>
</a>
</g>
<!-- Node1&#45;&gt;Node19 -->
<g id="edge40" class="edge"><title>Node1&#45;&gt;Node19</title>
<path fill="none" stroke="midnightblue" d="M53.2103,-361.52C67.6175,-370.463 89.5112,-383.08 110,-391 116.409,-393.478 123.219,-395.714 130.074,-397.714"/>
<polygon fill="midnightblue" stroke="midnightblue" points="129.539,-401.197 140.109,-400.478 131.397,-394.448 129.539,-401.197"/>
</g>
<!-- Node20 -->
<g id="node41" class="node"><title>Node20</title>
<a xlink:href="cvm-hfa_8c.html#a774451b83b300f862763d189c9758e1f" target="_top" xlink:title="API to set PP buffer size function pointer.">
<polygon fill="white" stroke="black" points="127,-360.5 127,-381.5 259,-381.5 259,-360.5 127,-360.5"/>
<text text-anchor="middle" x="193" y="-368.5" font-family="FreeSans" font-size="10.00">hfa_dev_set_fnp_ppsize</text>
</a>
</g>
<!-- Node1&#45;&gt;Node20 -->
<g id="edge42" class="edge"><title>Node1&#45;&gt;Node20</title>
<path fill="none" stroke="midnightblue" d="M74.3659,-355.79C87.1825,-357.434 102.03,-359.337 116.792,-361.23"/>
<polygon fill="midnightblue" stroke="midnightblue" points="116.608,-364.735 126.972,-362.535 117.498,-357.792 116.608,-364.735"/>
</g>
<!-- Node21 -->
<g id="node43" class="node"><title>Node21</title>
<a xlink:href="cvm-hfa_8c.html#a11aab8e30488e4cfc900f60a0dabc784" target="_top" xlink:title="Default function pointer for PP size.">
<polygon fill="white" stroke="black" points="134.5,-320.5 134.5,-341.5 251.5,-341.5 251.5,-320.5 134.5,-320.5"/>
<text text-anchor="middle" x="193" y="-328.5" font-family="FreeSans" font-size="10.00">hfa_defaultfn_ppsize</text>
</a>
</g>
<!-- Node1&#45;&gt;Node21 -->
<g id="edge44" class="edge"><title>Node1&#45;&gt;Node21</title>
<path fill="none" stroke="midnightblue" d="M74.3659,-346.21C89.3607,-344.287 107.135,-342.008 124.3,-339.808"/>
<polygon fill="midnightblue" stroke="midnightblue" points="124.837,-343.268 134.31,-338.524 123.947,-336.324 124.837,-343.268"/>
</g>
<!-- Node22 -->
<g id="node45" class="node"><title>Node22</title>
<a xlink:href="cvm-hfa_8c.html#a9a0b038e0d29435cb91a21d9c62806cc" target="_top" xlink:title="API to set PP resource allocator for temporary memory.">
<polygon fill="white" stroke="black" points="124,-280.5 124,-301.5 262,-301.5 262,-280.5 124,-280.5"/>
<text text-anchor="middle" x="193" y="-288.5" font-family="FreeSans" font-size="10.00">hfa_dev_set_fnp_pptalloc</text>
</a>
</g>
<!-- Node1&#45;&gt;Node22 -->
<g id="edge46" class="edge"><title>Node1&#45;&gt;Node22</title>
<path fill="none" stroke="midnightblue" d="M53.2103,-340.48C67.6175,-331.537 89.5112,-318.92 110,-311 116.409,-308.522 123.219,-306.286 130.074,-304.286"/>
<polygon fill="midnightblue" stroke="midnightblue" points="131.397,-307.552 140.109,-301.522 129.539,-300.803 131.397,-307.552"/>
</g>
<!-- Node23 -->
<g id="node47" class="node"><title>Node23</title>
<a xlink:href="cvm-hfa_8c.html#a2cbca63c413f08d3861f9b4c2855391f" target="_top" xlink:title="API to set PP resource deallocator for temporary memory.">
<polygon fill="white" stroke="black" points="125.5,-240.5 125.5,-261.5 260.5,-261.5 260.5,-240.5 125.5,-240.5"/>
<text text-anchor="middle" x="193" y="-248.5" font-family="FreeSans" font-size="10.00">hfa_dev_set_fnp_pptfree</text>
</a>
</g>
<!-- Node1&#45;&gt;Node23 -->
<g id="edge48" class="edge"><title>Node1&#45;&gt;Node23</title>
<path fill="none" stroke="midnightblue" d="M43.6362,-340.318C54.9991,-322.962 79.893,-288.794 110,-271 113.661,-268.837 117.543,-266.907 121.552,-265.186"/>
<polygon fill="midnightblue" stroke="midnightblue" points="123,-268.379 131.089,-261.536 120.499,-261.841 123,-268.379"/>
</g>
<!-- Node24 -->
<g id="node49" class="node"><title>Node24</title>
<a xlink:href="cvm-hfa_8c.html#af0b17e8a09b1f7a1dd438ddcb1e4cd14" target="_top" xlink:title="API to set temporary memory size function pointer.">
<polygon fill="white" stroke="black" points="125.5,-200.5 125.5,-221.5 260.5,-221.5 260.5,-200.5 125.5,-200.5"/>
<text text-anchor="middle" x="193" y="-208.5" font-family="FreeSans" font-size="10.00">hfa_dev_set_fnp_pptsize</text>
</a>
</g>
<!-- Node1&#45;&gt;Node24 -->
<g id="edge50" class="edge"><title>Node1&#45;&gt;Node24</title>
<path fill="none" stroke="midnightblue" d="M40.2955,-340.412C48.2078,-316.819 70.6023,-259.747 110,-231 112.552,-229.138 115.254,-227.447 118.064,-225.913"/>
<polygon fill="midnightblue" stroke="midnightblue" points="119.807,-228.96 127.352,-221.522 116.815,-222.631 119.807,-228.96"/>
</g>
<!-- Node25 -->
<g id="node51" class="node"><title>Node25</title>
<a xlink:href="cvm-hfa_8c.html#aa2754afcdd94eb3dcd90c374f779dd24" target="_top" xlink:title="API to set PP resource allocator for match/result buffer.">
<polygon fill="white" stroke="black" points="110,-160.5 110,-181.5 276,-181.5 276,-160.5 110,-160.5"/>
<text text-anchor="middle" x="193" y="-168.5" font-family="FreeSans" font-size="10.00">hfa_dev_set_fnp_ppmatchalloc</text>
</a>
</g>
<!-- Node1&#45;&gt;Node25 -->
<g id="edge52" class="edge"><title>Node1&#45;&gt;Node25</title>
<path fill="none" stroke="midnightblue" d="M38.5693,-340.496C43.4352,-311.777 61.0043,-231.405 110,-191 112.001,-189.35 114.117,-187.832 116.321,-186.435"/>
<polygon fill="midnightblue" stroke="midnightblue" points="118.08,-189.463 125.215,-181.631 114.753,-183.304 118.08,-189.463"/>
</g>
<!-- Node26 -->
<g id="node53" class="node"><title>Node26</title>
<a xlink:href="cvm-hfa_8c.html#ad022f5aec72780af8b36533884693539" target="_top" xlink:title="API to set PP resource deallocator for result/match buf.">
<polygon fill="white" stroke="black" points="111.5,-120.5 111.5,-141.5 274.5,-141.5 274.5,-120.5 111.5,-120.5"/>
<text text-anchor="middle" x="193" y="-128.5" font-family="FreeSans" font-size="10.00">hfa_dev_set_fnp_ppmatchfree</text>
</a>
</g>
<!-- Node1&#45;&gt;Node26 -->
<g id="edge54" class="edge"><title>Node1&#45;&gt;Node26</title>
<path fill="none" stroke="midnightblue" d="M37.5151,-340.405C39.731,-307.066 51.2603,-203.423 110,-151 111.707,-149.476 113.51,-148.064 115.391,-146.754"/>
<polygon fill="midnightblue" stroke="midnightblue" points="117.234,-149.731 124.085,-141.65 113.69,-143.695 117.234,-149.731"/>
</g>
<!-- Node27 -->
<g id="node55" class="node"><title>Node27</title>
<a xlink:href="cvm-hfa_8c.html#a8b71887165c143e32600513d12f9274f" target="_top" xlink:title="API to set match buffer size function pointer.">
<polygon fill="white" stroke="black" points="111.5,-80.5 111.5,-101.5 274.5,-101.5 274.5,-80.5 111.5,-80.5"/>
<text text-anchor="middle" x="193" y="-88.5" font-family="FreeSans" font-size="10.00">hfa_dev_set_fnp_ppmatchsize</text>
</a>
</g>
<!-- Node1&#45;&gt;Node27 -->
<g id="edge56" class="edge"><title>Node1&#45;&gt;Node27</title>
<path fill="none" stroke="midnightblue" d="M38.8066,-340.335C46.1531,-298.188 75.0642,-143.939 110,-111 111.496,-109.589 113.074,-108.273 114.721,-107.044"/>
<polygon fill="midnightblue" stroke="midnightblue" points="116.818,-109.861 123.461,-101.608 113.121,-103.917 116.818,-109.861"/>
</g>
<!-- Node28 -->
<g id="node57" class="node"><title>Node28</title>
<a xlink:href="cvm-hfa_8c.html#abcc0595aa8b2bb2d6116d600abbf55f8" target="_top" xlink:title="API to set PP error callback.">
<polygon fill="white" stroke="black" points="125,-40.5 125,-61.5 261,-61.5 261,-40.5 125,-40.5"/>
<text text-anchor="middle" x="193" y="-48.5" font-family="FreeSans" font-size="10.00">hfa_dev_set_fnp_pperror</text>
</a>
</g>
<!-- Node1&#45;&gt;Node28 -->
<g id="edge58" class="edge"><title>Node1&#45;&gt;Node28</title>
<path fill="none" stroke="midnightblue" d="M38.3336,-340.197C44.3016,-293.581 70.0264,-110.238 110,-71 111.897,-69.1375 113.936,-67.4379 116.088,-65.8874"/>
<polygon fill="midnightblue" stroke="midnightblue" points="118.103,-68.76 124.882,-60.6174 114.505,-62.7556 118.103,-68.76"/>
</g>
<!-- Node29 -->
<g id="node59" class="node"><title>Node29</title>
<a xlink:href="cvm-hfa_8c.html#ac115556b315ff135ed2fd059cdf7d066" target="_top" xlink:title="Default function pointer for PP errors.">
<polygon fill="white" stroke="black" points="137.5,-0.5 137.5,-21.5 248.5,-21.5 248.5,-0.5 137.5,-0.5"/>
<text text-anchor="middle" x="193" y="-8.5" font-family="FreeSans" font-size="10.00">hfa_defaultfn_pperr</text>
</a>
</g>
<!-- Node1&#45;&gt;Node29 -->
<g id="edge60" class="edge"><title>Node1&#45;&gt;Node29</title>
<path fill="none" stroke="midnightblue" d="M37.9389,-340.402C42.5992,-290.183 64.847,-76.7059 110,-31 114.969,-25.97 120.968,-22.1201 127.441,-19.1852"/>
<polygon fill="midnightblue" stroke="midnightblue" points="129.075,-22.3099 137.199,-15.509 126.607,-15.7594 129.075,-22.3099"/>
</g>
<!-- Node3 -->
<g id="node5" class="node"><title>Node3</title>
<a xlink:href="cvm-hfa-stats_8c.html#ab70d294575883530a6ecd321a2a09fc3" target="_top" xlink:title="Create ARENA for hfa statistics.">
<polygon fill="white" stroke="black" points="317,-720.5 317,-741.5 445,-741.5 445,-720.5 317,-720.5"/>
<text text-anchor="middle" x="381" y="-728.5" font-family="FreeSans" font-size="10.00">hfa_stats_create_arena</text>
</a>
</g>
<!-- Node2&#45;&gt;Node3 -->
<g id="edge4" class="edge"><title>Node2&#45;&gt;Node3</title>
<path fill="none" stroke="midnightblue" d="M242.395,-701.51C266.694,-706.679 296.169,-712.951 321.68,-718.379"/>
<polygon fill="midnightblue" stroke="midnightblue" points="321.1,-721.834 331.609,-720.491 322.556,-714.987 321.1,-721.834"/>
</g>
<!-- Node9 -->
<g id="node19" class="node"><title>Node9</title>
<a xlink:href="cvm-hfa-stats_8c.html#acbdfa65e476c04cd9b67b7c462eefe56" target="_top" xlink:title="This routine allocates required memory from STATS ARENA.">
<polygon fill="white" stroke="black" points="316.5,-680.5 316.5,-701.5 445.5,-701.5 445.5,-680.5 316.5,-680.5"/>
<text text-anchor="middle" x="381" y="-688.5" font-family="FreeSans" font-size="10.00">hfa_stats_memoryalloc</text>
</a>
</g>
<!-- Node2&#45;&gt;Node9 -->
<g id="edge20" class="edge"><title>Node2&#45;&gt;Node9</title>
<path fill="none" stroke="midnightblue" d="M244.372,-691C263.431,-691 285.457,-691 306.184,-691"/>
<polygon fill="midnightblue" stroke="midnightblue" points="306.235,-694.5 316.235,-691 306.235,-687.5 306.235,-694.5"/>
</g>
<!-- Node10 -->
<g id="node21" class="node"><title>Node10</title>
<a xlink:href="cvm-hfa-stats_8c.html#a7a2acbe48c3850d43256938ee996aa16" target="_top" xlink:title="This routine frees memory to STATS ARENA.">
<polygon fill="white" stroke="black" points="318.5,-640.5 318.5,-661.5 443.5,-661.5 443.5,-640.5 318.5,-640.5"/>
<text text-anchor="middle" x="381" y="-648.5" font-family="FreeSans" font-size="10.00">hfa_stats_memoryfree</text>
</a>
</g>
<!-- Node2&#45;&gt;Node10 -->
<g id="edge22" class="edge"><title>Node2&#45;&gt;Node10</title>
<path fill="none" stroke="midnightblue" d="M242.395,-680.49C266.694,-675.321 296.169,-669.049 321.68,-663.621"/>
<polygon fill="midnightblue" stroke="midnightblue" points="322.556,-667.013 331.609,-661.509 321.1,-660.166 322.556,-667.013"/>
</g>
<!-- Node4 -->
<g id="node7" class="node"><title>Node4</title>
<a xlink:href="cvm-hfa_8c.html#a199331bc34e479a3defde18ae38a1d49" target="_top" xlink:title="This is a utility routine to find or allocate a named block.">
<polygon fill="white" stroke="black" points="486.5,-720.5 486.5,-741.5 611.5,-741.5 611.5,-720.5 486.5,-720.5"/>
<text text-anchor="middle" x="549" y="-728.5" font-family="FreeSans" font-size="10.00">hfa_find_named_block</text>
</a>
</g>
<!-- Node3&#45;&gt;Node4 -->
<g id="edge6" class="edge"><title>Node3&#45;&gt;Node4</title>
<path fill="none" stroke="midnightblue" d="M445.473,-731C455.536,-731 465.994,-731 476.227,-731"/>
<polygon fill="midnightblue" stroke="midnightblue" points="476.361,-734.5 486.361,-731 476.361,-727.5 476.361,-734.5"/>
</g>
<!-- Node5 -->
<g id="node9" class="node"><title>Node5</title>
<a xlink:href="cvmx-hfa_8c.html#a547dc48185d98dcfe05c3f2cf49429fd" target="_top" xlink:title="Finds a named bootmem block by name.">
<polygon fill="white" stroke="black" points="835,-746 835,-780 981,-780 981,-746 835,-746"/>
<text text-anchor="start" x="843" y="-767" font-family="FreeSans" font-size="10.00">hfa_bootmem_find_named</text>
<text text-anchor="middle" x="908" y="-754" font-family="FreeSans" font-size="10.00">_block</text>
</a>
</g>
<!-- Node4&#45;&gt;Node5 -->
<g id="edge8" class="edge"><title>Node4&#45;&gt;Node5</title>
<path fill="none" stroke="midnightblue" d="M568.776,-741.64C588.276,-751.484 619.249,-765.411 648,-771 706.288,-782.33 773.288,-779.912 824.675,-774.878"/>
<polygon fill="midnightblue" stroke="midnightblue" points="825.149,-778.348 834.737,-773.84 824.431,-771.385 825.149,-778.348"/>
</g>
<!-- Node6 -->
<g id="node11" class="node"><title>Node6</title>
<a xlink:href="cvmx-hfa_8c.html#ae7d614919dc1b610fef50491246901ce" target="_top" xlink:title="Create a named bootmem block by name.">
<polygon fill="white" stroke="black" points="648,-740.5 648,-761.5 798,-761.5 798,-740.5 648,-740.5"/>
<text text-anchor="middle" x="723" y="-748.5" font-family="FreeSans" font-size="10.00">hfa_bootmem_alloc_named</text>
</a>
</g>
<!-- Node4&#45;&gt;Node6 -->
<g id="edge10" class="edge"><title>Node4&#45;&gt;Node6</title>
<path fill="none" stroke="midnightblue" d="M611.818,-738.22C620.214,-739.186 628.936,-740.188 637.637,-741.188"/>
<polygon fill="midnightblue" stroke="midnightblue" points="637.485,-744.694 647.819,-742.359 638.285,-737.739 637.485,-744.694"/>
</g>
<!-- Node7 -->
<g id="node13" class="node"><title>Node7</title>
<a xlink:href="cvm-hfa_8c.html#a741c1a0561a8b5a320f061afee14ecf4" target="_top" xlink:title="Free the named block allocated using hfa_find_named_block().">
<polygon fill="white" stroke="black" points="660,-700.5 660,-721.5 786,-721.5 786,-700.5 660,-700.5"/>
<text text-anchor="middle" x="723" y="-708.5" font-family="FreeSans" font-size="10.00">hfa_free_named_block</text>
</a>
</g>
<!-- Node4&#45;&gt;Node7 -->
<g id="edge12" class="edge"><title>Node4&#45;&gt;Node7</title>
<path fill="none" stroke="midnightblue" d="M611.818,-723.78C624.185,-722.358 637.259,-720.855 649.929,-719.399"/>
<polygon fill="midnightblue" stroke="midnightblue" points="650.447,-722.863 659.982,-718.243 649.648,-715.908 650.447,-722.863"/>
</g>
<!-- Node8 -->
<g id="node16" class="node"><title>Node8</title>
<a xlink:href="cvmx-hfa_8c.html#a96a2b8d673269a4c41c3a151e4e56abb" target="_top" xlink:title="Frees a named bootmem block by name.">
<polygon fill="white" stroke="black" points="834.5,-680.5 834.5,-701.5 981.5,-701.5 981.5,-680.5 834.5,-680.5"/>
<text text-anchor="middle" x="908" y="-688.5" font-family="FreeSans" font-size="10.00">hfa_bootmem_free_named</text>
</a>
</g>
<!-- Node4&#45;&gt;Node8 -->
<g id="edge18" class="edge"><title>Node4&#45;&gt;Node8</title>
<path fill="none" stroke="midnightblue" d="M568.776,-720.36C588.276,-710.516 619.249,-696.589 648,-691 706.156,-679.695 773.022,-679.982 824.38,-682.946"/>
<polygon fill="midnightblue" stroke="midnightblue" points="824.24,-686.444 834.438,-683.572 824.675,-679.458 824.24,-686.444"/>
</g>
<!-- Node7&#45;&gt;Node5 -->
<g id="edge14" class="edge"><title>Node7&#45;&gt;Node5</title>
<path fill="none" stroke="midnightblue" d="M763.136,-721.525C774.427,-724.534 786.707,-727.852 798,-731 811.854,-734.862 826.658,-739.095 840.77,-743.182"/>
<polygon fill="midnightblue" stroke="midnightblue" points="839.83,-746.554 850.409,-745.982 841.783,-739.831 839.83,-746.554"/>
</g>
<!-- Node7&#45;&gt;Node8 -->
<g id="edge16" class="edge"><title>Node7&#45;&gt;Node8</title>
<path fill="none" stroke="midnightblue" d="M786.149,-704.173C798.373,-702.852 811.36,-701.448 824.126,-700.067"/>
<polygon fill="midnightblue" stroke="midnightblue" points="824.732,-703.522 834.298,-698.968 823.979,-696.563 824.732,-703.522"/>
</g>
<!-- Node14 -->
<g id="node29" class="node"><title>Node14</title>
<a xlink:href="pp_8h.html#a9e7b310f36183e66e8880a57028cb670" target="_top" xlink:title="Constructs a readable extended version string for the PP library.">
<polygon fill="white" stroke="black" points="312.5,-580.5 312.5,-601.5 449.5,-601.5 449.5,-580.5 312.5,-580.5"/>
<text text-anchor="middle" x="381" y="-588.5" font-family="FreeSans" font-size="10.00">pp_get_version_string_ex</text>
</a>
</g>
<!-- Node13&#45;&gt;Node14 -->
<g id="edge30" class="edge"><title>Node13&#45;&gt;Node14</title>
<path fill="none" stroke="midnightblue" d="M251.711,-577.246C267.592,-578.935 285.045,-580.792 301.849,-582.58"/>
<polygon fill="midnightblue" stroke="midnightblue" points="301.894,-586.104 312.208,-583.682 302.634,-579.143 301.894,-586.104"/>
</g>
<!-- Node15 -->
<g id="node31" class="node"><title>Node15</title>
<a xlink:href="cvmx-hfa_8c.html#a04d071e03c6b4ceee5c1f527b34de173" target="_top" xlink:title="Given the chip processor ID from COP0, this function returns a string representing the chip model num...">
<polygon fill="white" stroke="black" points="318,-528 318,-562 444,-562 444,-528 318,-528"/>
<text text-anchor="start" x="326" y="-549" font-family="FreeSans" font-size="10.00">hfa_octeon_model_get</text>
<text text-anchor="middle" x="381" y="-536" font-family="FreeSans" font-size="10.00">_string</text>
</a>
</g>
<!-- Node13&#45;&gt;Node15 -->
<g id="edge32" class="edge"><title>Node13&#45;&gt;Node15</title>
<path fill="none" stroke="midnightblue" d="M251.711,-562.88C269.519,-560.418 289.304,-557.681 307.933,-555.105"/>
<polygon fill="midnightblue" stroke="midnightblue" points="308.421,-558.571 317.848,-553.734 307.462,-551.637 308.421,-558.571"/>
</g>
</g>
</svg>
