<?xml version="1.0" encoding="UTF-8" standalone="no"?>
<!DOCTYPE svg PUBLIC "-//W3C//DTD SVG 1.1//EN"
 "http://www.w3.org/Graphics/SVG/1.1/DTD/svg11.dtd">
<!-- Generated by graphviz version 2.24.0 (20090616.2323)
 -->
<!-- Title: hfa_stats_create_arena Pages: 1 -->
<svg width="668pt" height="108pt"
 viewBox="0.00 0.00 668.00 108.00" xmlns="http://www.w3.org/2000/svg" xmlns:xlink="http://www.w3.org/1999/xlink">
<g id="graph1" class="graph" transform="scale(1 1) rotate(0) translate(4 104)">
<title>hfa_stats_create_arena</title>
<polygon fill="white" stroke="white" points="-4,5 -4,-104 665,-104 665,5 -4,5"/>
<!-- Node1 -->
<g id="node1" class="node"><title>Node1</title>
<polygon fill="#bfbfbf" stroke="black" points="0,-40.5 0,-61.5 128,-61.5 128,-40.5 0,-40.5"/>
<text text-anchor="middle" x="64" y="-48.5" font-family="FreeSans" font-size="10.00">hfa_stats_create_arena</text>
</g>
<!-- Node2 -->
<g id="node3" class="node"><title>Node2</title>
<a xlink:href="cvm-hfa_8c.html#a199331bc34e479a3defde18ae38a1d49" target="_top" xlink:title="This is a utility routine to find or allocate a named block.">
<polygon fill="white" stroke="black" points="164.5,-40.5 164.5,-61.5 289.5,-61.5 289.5,-40.5 164.5,-40.5"/>
<text text-anchor="middle" x="227" y="-48.5" font-family="FreeSans" font-size="10.00">hfa_find_named_block</text>
</a>
</g>
<!-- Node1&#45;&gt;Node2 -->
<g id="edge2" class="edge"><title>Node1&#45;&gt;Node2</title>
<path fill="none" stroke="midnightblue" d="M128.422,-51C136.929,-51 145.695,-51 154.328,-51"/>
<polygon fill="midnightblue" stroke="midnightblue" points="154.377,-54.5001 164.377,-51 154.377,-47.5001 154.377,-54.5001"/>
</g>
<!-- Node3 -->
<g id="node5" class="node"><title>Node3</title>
<a xlink:href="cvmx-hfa_8c.html#a547dc48185d98dcfe05c3f2cf49429fd" target="_top" xlink:title="Finds a named bootmem block by name.">
<polygon fill="white" stroke="black" points="513,-66 513,-100 659,-100 659,-66 513,-66"/>
<text text-anchor="start" x="521" y="-87" font-family="FreeSans" font-size="10.00">hfa_bootmem_find_named</text>
<text text-anchor="middle" x="586" y="-74" font-family="FreeSans" font-size="10.00">_block</text>
</a>
</g>
<!-- Node2&#45;&gt;Node3 -->
<g id="edge4" class="edge"><title>Node2&#45;&gt;Node3</title>
<path fill="none" stroke="midnightblue" d="M246.776,-61.6405C266.276,-71.4843 297.249,-85.4112 326,-91 384.288,-102.33 451.288,-99.9115 502.675,-94.8781"/>
<polygon fill="midnightblue" stroke="midnightblue" points="503.149,-98.3479 512.737,-93.8399 502.431,-91.3848 503.149,-98.3479"/>
</g>
<!-- Node4 -->
<g id="node7" class="node"><title>Node4</title>
<a xlink:href="cvmx-hfa_8c.html#ae7d614919dc1b610fef50491246901ce" target="_top" xlink:title="Create a named bootmem block by name.">
<polygon fill="white" stroke="black" points="326,-60.5 326,-81.5 476,-81.5 476,-60.5 326,-60.5"/>
<text text-anchor="middle" x="401" y="-68.5" font-family="FreeSans" font-size="10.00">hfa_bootmem_alloc_named</text>
</a>
</g>
<!-- Node2&#45;&gt;Node4 -->
<g id="edge6" class="edge"><title>Node2&#45;&gt;Node4</title>
<path fill="none" stroke="midnightblue" d="M289.818,-58.2205C298.214,-59.1855 306.936,-60.1881 315.637,-61.1881"/>
<polygon fill="midnightblue" stroke="midnightblue" points="315.485,-64.6937 325.819,-62.3586 316.285,-57.7395 315.485,-64.6937"/>
</g>
<!-- Node5 -->
<g id="node9" class="node"><title>Node5</title>
<a xlink:href="cvm-hfa_8c.html#a741c1a0561a8b5a320f061afee14ecf4" target="_top" xlink:title="Free the named block allocated using hfa_find_named_block().">
<polygon fill="white" stroke="black" points="338,-20.5 338,-41.5 464,-41.5 464,-20.5 338,-20.5"/>
<text text-anchor="middle" x="401" y="-28.5" font-family="FreeSans" font-size="10.00">hfa_free_named_block</text>
</a>
</g>
<!-- Node2&#45;&gt;Node5 -->
<g id="edge8" class="edge"><title>Node2&#45;&gt;Node5</title>
<path fill="none" stroke="midnightblue" d="M289.818,-43.7795C302.185,-42.3581 315.259,-40.8553 327.929,-39.399"/>
<polygon fill="midnightblue" stroke="midnightblue" points="328.447,-42.8625 337.982,-38.2434 327.648,-35.9083 328.447,-42.8625"/>
</g>
<!-- Node6 -->
<g id="node12" class="node"><title>Node6</title>
<a xlink:href="cvmx-hfa_8c.html#a96a2b8d673269a4c41c3a151e4e56abb" target="_top" xlink:title="Frees a named bootmem block by name.">
<polygon fill="white" stroke="black" points="512.5,-0.5 512.5,-21.5 659.5,-21.5 659.5,-0.5 512.5,-0.5"/>
<text text-anchor="middle" x="586" y="-8.5" font-family="FreeSans" font-size="10.00">hfa_bootmem_free_named</text>
</a>
</g>
<!-- Node2&#45;&gt;Node6 -->
<g id="edge14" class="edge"><title>Node2&#45;&gt;Node6</title>
<path fill="none" stroke="midnightblue" d="M246.776,-40.3595C266.276,-30.5157 297.249,-16.5888 326,-11 384.156,0.304794 451.022,0.0177578 502.38,-2.94649"/>
<polygon fill="midnightblue" stroke="midnightblue" points="502.24,-6.44443 512.438,-3.5724 502.675,0.542051 502.24,-6.44443"/>
</g>
<!-- Node5&#45;&gt;Node3 -->
<g id="edge10" class="edge"><title>Node5&#45;&gt;Node3</title>
<path fill="none" stroke="midnightblue" d="M441.136,-41.5246C452.427,-44.5337 464.707,-47.852 476,-51 489.854,-54.8618 504.658,-59.0952 518.77,-63.1821"/>
<polygon fill="midnightblue" stroke="midnightblue" points="517.83,-66.5536 528.409,-65.9817 519.783,-59.8314 517.83,-66.5536"/>
</g>
<!-- Node5&#45;&gt;Node6 -->
<g id="edge12" class="edge"><title>Node5&#45;&gt;Node6</title>
<path fill="none" stroke="midnightblue" d="M464.149,-24.1731C476.373,-22.8516 489.36,-21.4476 502.126,-20.0675"/>
<polygon fill="midnightblue" stroke="midnightblue" points="502.732,-23.5225 512.298,-18.9678 501.979,-16.563 502.732,-23.5225"/>
</g>
</g>
</svg>
