<?xml version="1.0" encoding="UTF-8" standalone="no"?>
<!DOCTYPE svg PUBLIC "-//W3C//DTD SVG 1.1//EN"
 "http://www.w3.org/Graphics/SVG/1.1/DTD/svg11.dtd">
<!-- Generated by graphviz version 2.24.0 (20090616.2323)
 -->
<!-- Title: cvm_hfa_rslt_getreason Pages: 1 -->
<!--zoomable 814 -->
<svg id="main" version="1.1" xmlns="http://www.w3.org/2000/svg" xmlns:xlink="http://www.w3.org/1999/xlink" xml:space="preserve" onload="init(evt)">
        <defs>
                <circle id="rim" cx="0" cy="0" r="7"/>
                <circle id="rim2" cx="0" cy="0" r="3.5"/>
                <g id="zoomPlus">
                        <use xlink:href="#rim" fill="#404040">
                                <set attributeName="fill" to="#808080" begin="zoomplus.mouseover" end="zoomplus.mouseout"/>
                        </use>
                        <path d="M-4,0h8M0,-4v8" fill="none" stroke="white" stroke-width="1.5" pointer-events="none"/>
                </g>
                <g id="zoomMin">
                        <use xlink:href="#rim" fill="#404040">
                                <set attributeName="fill" to="#808080" begin="zoomminus.mouseover" end="zoomminus.mouseout"/>
                        </use>
                        <path d="M-4,0h8" fill="none" stroke="white" stroke-width="1.5" pointer-events="none"/>
                </g>
                <g id="dirArrow">
                        <path fill="none" stroke="white" stroke-width="1.5" d="M0,-3.0v7 M-2.5,-0.5L0,-3.0L2.5,-0.5"/>
                </g>
               <g id="resetDef">
                       <use xlink:href="#rim2" fill="#404040">
                               <set attributeName="fill" to="#808080" begin="reset.mouseover" end="reset.mouseout"/>
                       </use>
               </g>
        </defs>

<script type="text/javascript">
var viewWidth = 1408;
var viewHeight = 814;
var sectionId = 'dynsection-17';
</script>
<script xlink:href="svgpan.js"/>
<svg id="graph" class="graph">
<g id="viewport">
<title>cvm_hfa_rslt_getreason</title>
<polygon fill="white" stroke="white" points="-4,5 -4,-810 1405,-810 1405,5 -4,5"/>
<!-- Node1 -->
<g id="node1" class="node"><title>Node1</title>
<polygon fill="#bfbfbf" stroke="black" points="0.5,-180.5 0.5,-201.5 131.5,-201.5 131.5,-180.5 0.5,-180.5"/>
<text text-anchor="middle" x="66" y="-188.5" font-family="FreeSans" font-size="10.00">cvm_hfa_rslt_getreason</text>
</g>
<!-- Node2 -->
<g id="node3" class="node"><title>Node2</title>
<a xlink:href="cvm-hfa_8c.html#a4753d2dd586e19676b1a59dd16baaeed" target="_top" xlink:title="Obtain status of submitted insruction.">
<polygon fill="white" stroke="black" points="168.5,-180.5 168.5,-201.5 301.5,-201.5 301.5,-180.5 168.5,-180.5"/>
<text text-anchor="middle" x="235" y="-188.5" font-family="FreeSans" font-size="10.00">hfa_dev_getasyncstatus</text>
</a>
</g>
<!-- Node1&#45;&gt;Node2 -->
<g id="edge2" class="edge"><title>Node1&#45;&gt;Node2</title>
<path fill="none" stroke="midnightblue" d="M142.013,-191C150.761,-191 159.63,-191 168.243,-191"/>
<polygon fill="midnightblue" stroke="midnightblue" points="141.824,-187.5 131.824,-191 141.824,-194.5 141.824,-187.5"/>
</g>
<!-- Node3 -->
<g id="node5" class="node"><title>Node3</title>
<a xlink:href="cvm-hfa-graph_8c.html#a0f2f13fb51e5d56dcf049ff3c7c6ad78" target="_top" xlink:title="This routine is used to check the status of the graph.">
<polygon fill="white" stroke="black" points="367,-426.5 367,-447.5 481,-447.5 481,-426.5 367,-426.5"/>
<text text-anchor="middle" x="424" y="-434.5" font-family="FreeSans" font-size="10.00">hfa_graph_getstatus</text>
</a>
</g>
<!-- Node2&#45;&gt;Node3 -->
<g id="edge4" class="edge"><title>Node2&#45;&gt;Node3</title>
<path fill="none" stroke="midnightblue" d="M249.363,-209.695C286.85,-258.487 386.758,-388.526 415.909,-426.469"/>
<polygon fill="midnightblue" stroke="midnightblue" points="251.989,-207.368 243.121,-201.57 246.438,-211.633 251.989,-207.368"/>
</g>
<!-- Node19 -->
<g id="node44" class="node"><title>Node19</title>
<a xlink:href="cvm-hfa-search_8c.html#a6a8e1d7e70e0a10520302df5651e5fc5" target="_top" xlink:title="This routine provides the status of an outstanding pattern search operation initiated using hfa_searc...">
<polygon fill="white" stroke="black" points="338,-180.5 338,-201.5 510,-201.5 510,-180.5 338,-180.5"/>
<text text-anchor="middle" x="424" y="-188.5" font-family="FreeSans" font-size="10.00">hfa_searchctx_get_searchstatus</text>
</a>
</g>
<!-- Node2&#45;&gt;Node19 -->
<g id="edge50" class="edge"><title>Node2&#45;&gt;Node19</title>
<path fill="none" stroke="midnightblue" d="M311.909,-191C320.429,-191 329.147,-191 337.772,-191"/>
<polygon fill="midnightblue" stroke="midnightblue" points="311.634,-187.5 301.634,-191 311.634,-194.5 311.634,-187.5"/>
</g>
<!-- Node46 -->
<g id="node105" class="node"><title>Node46</title>
<a xlink:href="cvm-hfa_8c.html#ae6a7ff220c7ddd04101adbe90631baa9" target="_top" xlink:title="Synchronous instruction submit to HFA hardware Block until submitted instruction completes.">
<polygon fill="white" stroke="black" points="377.5,-140.5 377.5,-161.5 470.5,-161.5 470.5,-140.5 377.5,-140.5"/>
<text text-anchor="middle" x="424" y="-148.5" font-family="FreeSans" font-size="10.00">hfa_dev_submit</text>
</a>
</g>
<!-- Node2&#45;&gt;Node46 -->
<g id="edge118" class="edge"><title>Node2&#45;&gt;Node46</title>
<path fill="none" stroke="midnightblue" d="M294.65,-178.376C321.329,-172.729 352.317,-166.171 377.273,-160.889"/>
<polygon fill="midnightblue" stroke="midnightblue" points="293.716,-174.996 284.658,-180.49 295.166,-181.844 293.716,-174.996"/>
</g>
<!-- Node4 -->
<g id="node7" class="node"><title>Node4</title>
<a xlink:href="app-utils_8c.html#aed95bb72627cff313c596ebcfcd8af61" target="_top" xlink:title="Parse graph into chunks and load graph to HFA memory.">
<polygon fill="white" stroke="black" points="906.5,-433.5 906.5,-454.5 1041.5,-454.5 1041.5,-433.5 906.5,-433.5"/>
<text text-anchor="middle" x="974" y="-441.5" font-family="FreeSans" font-size="10.00">hfautils_download_graph</text>
</a>
</g>
<!-- Node3&#45;&gt;Node4 -->
<g id="edge6" class="edge"><title>Node3&#45;&gt;Node4</title>
<path fill="none" stroke="midnightblue" d="M473.049,-449.911C495.166,-455.094 521.72,-460.442 546,-463 672.857,-476.367 821.83,-463.298 906.354,-453.213"/>
<polygon fill="midnightblue" stroke="midnightblue" points="473.764,-446.483 463.223,-447.551 472.129,-453.29 473.764,-446.483"/>
</g>
<!-- Node5 -->
<g id="node9" class="node"><title>Node5</title>
<a xlink:href="hfa-lnx-async_8c.html#a546f3769e735d4bef0bfab1cba56921c" target="_top" xlink:title="Load graph to HFA memory and cache.">
<polygon fill="white" stroke="black" points="1089.5,-339.5 1089.5,-360.5 1158.5,-360.5 1158.5,-339.5 1089.5,-339.5"/>
<text text-anchor="middle" x="1124" y="-347.5" font-family="FreeSans" font-size="10.00">graph_load</text>
</a>
</g>
<!-- Node3&#45;&gt;Node5 -->
<g id="edge48" class="edge"><title>Node3&#45;&gt;Node5</title>
<path fill="none" stroke="midnightblue" d="M461.86,-422.942C485.683,-414.665 517.254,-404.728 546,-399 749.21,-358.509 999.136,-351.452 1089.42,-350.242"/>
<polygon fill="midnightblue" stroke="midnightblue" points="460.419,-419.739 452.155,-426.37 462.75,-426.339 460.419,-419.739"/>
</g>
<!-- Node8 -->
<g id="node15" class="node"><title>Node8</title>
<a xlink:href="cvm-hfa-graph_8c.html#a647ccf649077cb5170221218ab2cdccf" target="_top" xlink:title="This routine downloads graph data to the HFA engine in a non&#45;blocking manner.">
<polygon fill="white" stroke="black" points="546,-420 546,-454 688,-454 688,-420 546,-420"/>
<text text-anchor="start" x="554" y="-441" font-family="FreeSans" font-size="10.00">hfa_graph_memload_data</text>
<text text-anchor="middle" x="617" y="-428" font-family="FreeSans" font-size="10.00">_async</text>
</a>
</g>
<!-- Node3&#45;&gt;Node8 -->
<g id="edge14" class="edge"><title>Node3&#45;&gt;Node8</title>
<path fill="none" stroke="midnightblue" d="M491.342,-437C509.015,-437 528.128,-437 545.987,-437"/>
<polygon fill="midnightblue" stroke="midnightblue" points="491.123,-433.5 481.123,-437 491.123,-440.5 491.123,-433.5"/>
</g>
<!-- Node9 -->
<g id="node18" class="node"><title>Node9</title>
<a xlink:href="cvm-hfa-graph_8c.html#a9e3f1a4bf2be683265108b5131541e89" target="_top" xlink:title="This routine downloads graph data to the HFA engine in a blocking manner.">
<polygon fill="white" stroke="black" points="726,-394.5 726,-415.5 868,-415.5 868,-394.5 726,-394.5"/>
<text text-anchor="middle" x="797" y="-402.5" font-family="FreeSans" font-size="10.00">hfa_graph_memload_data</text>
</a>
</g>
<!-- Node3&#45;&gt;Node9 -->
<g id="edge22" class="edge"><title>Node3&#45;&gt;Node9</title>
<path fill="none" stroke="midnightblue" d="M473.847,-424.184C495.815,-419.106 522.033,-413.816 546,-411 606.391,-403.906 675.497,-402.761 725.888,-403.189"/>
<polygon fill="midnightblue" stroke="midnightblue" points="473.003,-420.787 464.076,-426.492 474.612,-427.599 473.003,-420.787"/>
</g>
<!-- Node10 -->
<g id="node22" class="node"><title>Node10</title>
<a xlink:href="cvm-hfa-graph_8c.html#a60861d15ed5f6bccc42bbde834aa2b32" target="_top" xlink:title="This routine is used to cacheload a cacheable graph in a blocking manner.">
<polygon fill="white" stroke="black" points="557,-510.5 557,-531.5 677,-531.5 677,-510.5 557,-510.5"/>
<text text-anchor="middle" x="617" y="-518.5" font-family="FreeSans" font-size="10.00">hfa_graph_cacheload</text>
</a>
</g>
<!-- Node3&#45;&gt;Node10 -->
<g id="edge24" class="edge"><title>Node3&#45;&gt;Node10</title>
<path fill="none" stroke="midnightblue" d="M453.066,-452.195C477.523,-464.703 513.595,-482.509 546,-496 558.426,-501.173 572.347,-506.231 584.548,-510.428"/>
<polygon fill="midnightblue" stroke="midnightblue" points="454.469,-448.981 443.975,-447.516 451.265,-455.204 454.469,-448.981"/>
</g>
<!-- Node13 -->
<g id="node29" class="node"><title>Node13</title>
<a xlink:href="cvm-hfa-graph_8c.html#aa4ce7845277b4b3099159bbd7afd5c08" target="_top" xlink:title="This routine is used to cacheunload a cacheload&#39;ed graph in a non&#45;blocking manner.">
<polygon fill="white" stroke="black" points="731,-705.5 731,-726.5 863,-726.5 863,-705.5 731,-705.5"/>
<text text-anchor="middle" x="797" y="-713.5" font-family="FreeSans" font-size="10.00">hfa_graph_cacheunload</text>
</a>
</g>
<!-- Node3&#45;&gt;Node13 -->
<g id="edge32" class="edge"><title>Node3&#45;&gt;Node13</title>
<path fill="none" stroke="midnightblue" d="M432.424,-456.783C448.992,-493.493 489.209,-572.546 546,-618 605.531,-665.648 691.011,-692.349 745.261,-705.461"/>
<polygon fill="midnightblue" stroke="midnightblue" points="435.619,-455.355 428.384,-447.615 429.213,-458.177 435.619,-455.355"/>
</g>
<!-- Node4&#45;&gt;Node5 -->
<g id="edge8" class="edge"><title>Node4&#45;&gt;Node5</title>
<path fill="none" stroke="midnightblue" d="M1002.79,-428.654C1015.03,-421.944 1029.36,-413.829 1042,-406 1066.18,-391.026 1093.26,-372.091 1109.45,-360.521"/>
<polygon fill="midnightblue" stroke="midnightblue" points="1001.02,-425.633 993.91,-433.484 1004.37,-431.782 1001.02,-425.633"/>
</g>
<!-- Node7 -->
<g id="node13" class="node"><title>Node7</title>
<a xlink:href="hfa-lnx-ctx_8c.html#a78ffddbcd7cdd164889cfb53ea367886" target="_top" xlink:title="entry">
<polygon fill="white" stroke="black" points="1103.5,-587.5 1103.5,-608.5 1144.5,-608.5 1144.5,-587.5 1103.5,-587.5"/>
<text text-anchor="middle" x="1124" y="-595.5" font-family="FreeSans" font-size="10.00">entry</text>
</a>
</g>
<!-- Node4&#45;&gt;Node7 -->
<g id="edge12" class="edge"><title>Node4&#45;&gt;Node7</title>
<path fill="none" stroke="midnightblue" d="M991.549,-462.017C1023.05,-494.363 1088.28,-561.327 1113.62,-587.341"/>
<polygon fill="midnightblue" stroke="midnightblue" points="993.795,-459.306 984.31,-454.585 988.78,-464.191 993.795,-459.306"/>
</g>
<!-- Node6 -->
<g id="node11" class="node"><title>Node6</title>
<a xlink:href="hfa-lnx-async_8c.html#a78ffddbcd7cdd164889cfb53ea367886" target="_top" xlink:title="entry">
<polygon fill="white" stroke="black" points="1244.5,-319.5 1244.5,-340.5 1285.5,-340.5 1285.5,-319.5 1244.5,-319.5"/>
<text text-anchor="middle" x="1265" y="-327.5" font-family="FreeSans" font-size="10.00">entry</text>
</a>
</g>
<!-- Node5&#45;&gt;Node6 -->
<g id="edge10" class="edge"><title>Node5&#45;&gt;Node6</title>
<path fill="none" stroke="midnightblue" d="M1169,-343.617C1194.36,-340.02 1224.8,-335.703 1244.5,-332.908"/>
<polygon fill="midnightblue" stroke="midnightblue" points="1168.26,-340.186 1158.85,-345.056 1169.25,-347.117 1168.26,-340.186"/>
</g>
<!-- Node8&#45;&gt;Node4 -->
<g id="edge16" class="edge"><title>Node8&#45;&gt;Node4</title>
<path fill="none" stroke="midnightblue" d="M698.661,-438.601C761.51,-439.834 847.33,-441.516 906.366,-442.674"/>
<polygon fill="midnightblue" stroke="midnightblue" points="698.453,-435.097 688.386,-438.4 698.316,-442.095 698.453,-435.097"/>
</g>
<!-- Node8&#45;&gt;Node9 -->
<g id="edge18" class="edge"><title>Node8&#45;&gt;Node9</title>
<path fill="none" stroke="midnightblue" d="M698.23,-422.559C711.515,-420.197 725.057,-417.79 737.683,-415.545"/>
<polygon fill="midnightblue" stroke="midnightblue" points="697.374,-419.156 688.141,-424.353 698.599,-426.048 697.374,-419.156"/>
</g>
<!-- Node9&#45;&gt;Node4 -->
<g id="edge20" class="edge"><title>Node9&#45;&gt;Node4</title>
<path fill="none" stroke="midnightblue" d="M854.894,-417.756C877.929,-422.832 904.119,-428.602 926.063,-433.438"/>
<polygon fill="midnightblue" stroke="midnightblue" points="855.418,-414.288 844.899,-415.554 853.911,-421.124 855.418,-414.288"/>
</g>
<!-- Node10&#45;&gt;Node7 -->
<g id="edge26" class="edge"><title>Node10&#45;&gt;Node7</title>
<path fill="none" stroke="midnightblue" d="M680.949,-533.42C695.105,-536.039 710.045,-538.703 724,-541 868.658,-564.815 1043.72,-587.736 1103.13,-595.35"/>
<polygon fill="midnightblue" stroke="midnightblue" points="681.277,-529.921 670.805,-531.527 679.993,-536.802 681.277,-529.921"/>
</g>
<!-- Node11 -->
<g id="node25" class="node"><title>Node11</title>
<a xlink:href="hfa-lnx-linkgraph_8c.html#a546f3769e735d4bef0bfab1cba56921c" target="_top" xlink:title="Load graph to HFA memory and cache.">
<polygon fill="white" stroke="black" points="762.5,-510.5 762.5,-531.5 831.5,-531.5 831.5,-510.5 762.5,-510.5"/>
<text text-anchor="middle" x="797" y="-518.5" font-family="FreeSans" font-size="10.00">graph_load</text>
</a>
</g>
<!-- Node10&#45;&gt;Node11 -->
<g id="edge28" class="edge"><title>Node10&#45;&gt;Node11</title>
<path fill="none" stroke="midnightblue" d="M687.302,-521C713.054,-521 741.068,-521 762.34,-521"/>
<polygon fill="midnightblue" stroke="midnightblue" points="687.188,-517.5 677.188,-521 687.188,-524.5 687.188,-517.5"/>
</g>
<!-- Node12 -->
<g id="node27" class="node"><title>Node12</title>
<a xlink:href="hfa-lnx-linkgraph_8c.html#a78ffddbcd7cdd164889cfb53ea367886" target="_top" xlink:title="entry">
<polygon fill="white" stroke="black" points="953.5,-375.5 953.5,-396.5 994.5,-396.5 994.5,-375.5 953.5,-375.5"/>
<text text-anchor="middle" x="974" y="-383.5" font-family="FreeSans" font-size="10.00">entry</text>
</a>
</g>
<!-- Node11&#45;&gt;Node12 -->
<g id="edge30" class="edge"><title>Node11&#45;&gt;Node12</title>
<path fill="none" stroke="midnightblue" d="M814.644,-503.09C835.394,-482.57 871.409,-448.612 906,-424 921.096,-413.259 939.51,-403.131 953.366,-396.037"/>
<polygon fill="midnightblue" stroke="midnightblue" points="812.078,-500.707 807.474,-510.249 817.024,-505.66 812.078,-500.707"/>
</g>
<!-- Node13&#45;&gt;Node7 -->
<g id="edge40" class="edge"><title>Node13&#45;&gt;Node7</title>
<path fill="none" stroke="midnightblue" d="M873.419,-724.959C923.99,-727.426 990.265,-723.817 1042,-697 1061.81,-686.729 1100.72,-632.082 1116.79,-608.665"/>
<polygon fill="midnightblue" stroke="midnightblue" points="873.386,-721.451 863.2,-724.368 872.982,-728.439 873.386,-721.451"/>
</g>
<!-- Node14 -->
<g id="node31" class="node"><title>Node14</title>
<a xlink:href="hfa-lnx-async_8c.html#acd9e54f020b77f14d54c200b65423a15" target="_top" xlink:title="Application cleanup will be done by this routine.">
<polygon fill="white" stroke="black" points="947,-744.5 947,-765.5 1001,-765.5 1001,-744.5 947,-744.5"/>
<text text-anchor="middle" x="974" y="-752.5" font-family="FreeSans" font-size="10.00">cleanup</text>
</a>
</g>
<!-- Node13&#45;&gt;Node14 -->
<g id="edge34" class="edge"><title>Node13&#45;&gt;Node14</title>
<path fill="none" stroke="midnightblue" d="M854.745,-728.724C885.766,-735.559 922.544,-743.662 946.973,-749.045"/>
<polygon fill="midnightblue" stroke="midnightblue" points="855.418,-725.288 844.899,-726.554 853.911,-732.124 855.418,-725.288"/>
</g>
<!-- Node16 -->
<g id="node37" class="node"><title>Node16</title>
<a xlink:href="hfa-lnx-ctx_8c.html#aaf98ef7cdde3a0dfb2e49919de3298b1" target="_top" xlink:title="exit">
<polygon fill="white" stroke="black" points="957.5,-666.5 957.5,-687.5 990.5,-687.5 990.5,-666.5 957.5,-666.5"/>
<text text-anchor="middle" x="974" y="-674.5" font-family="FreeSans" font-size="10.00">exit</text>
</a>
</g>
<!-- Node13&#45;&gt;Node16 -->
<g id="edge42" class="edge"><title>Node13&#45;&gt;Node16</title>
<path fill="none" stroke="midnightblue" d="M854.755,-703.274C890.501,-695.398 933.889,-685.838 957.216,-680.698"/>
<polygon fill="midnightblue" stroke="midnightblue" points="853.911,-699.876 844.899,-705.446 855.418,-706.712 853.911,-699.876"/>
</g>
<!-- Node17 -->
<g id="node39" class="node"><title>Node17</title>
<a xlink:href="hfa-se-ngraphs_8c.html#a546f3769e735d4bef0bfab1cba56921c" target="_top" xlink:title="Load ngraphs into HFA memory and cache.">
<polygon fill="white" stroke="black" points="939.5,-784.5 939.5,-805.5 1008.5,-805.5 1008.5,-784.5 939.5,-784.5"/>
<text text-anchor="middle" x="974" y="-792.5" font-family="FreeSans" font-size="10.00">graph_load</text>
</a>
</g>
<!-- Node13&#45;&gt;Node17 -->
<g id="edge44" class="edge"><title>Node13&#45;&gt;Node17</title>
<path fill="none" stroke="midnightblue" d="M822.402,-731.738C844.028,-744.646 876.235,-762.727 906,-775 916.58,-779.362 928.447,-783.195 939.27,-786.306"/>
<polygon fill="midnightblue" stroke="midnightblue" points="824.189,-728.728 813.819,-726.555 820.57,-734.721 824.189,-728.728"/>
</g>
<!-- Node14&#45;&gt;Node6 -->
<g id="edge36" class="edge"><title>Node14&#45;&gt;Node6</title>
<path fill="none" stroke="midnightblue" d="M1010.4,-741.182C1020.91,-736.603 1032.18,-731.099 1042,-725 1104.98,-685.873 1128.34,-679.34 1170,-618 1234.63,-522.831 1258.14,-380.314 1263.64,-340.603"/>
<polygon fill="midnightblue" stroke="midnightblue" points="1008.89,-738.018 1001.03,-745.117 1011.61,-744.472 1008.89,-738.018"/>
</g>
<!-- Node15 -->
<g id="node34" class="node"><title>Node15</title>
<a xlink:href="hfa-lnx-async_8c.html#aaf98ef7cdde3a0dfb2e49919de3298b1" target="_top" xlink:title="exit">
<polygon fill="white" stroke="black" points="1107.5,-744.5 1107.5,-765.5 1140.5,-765.5 1140.5,-744.5 1107.5,-744.5"/>
<text text-anchor="middle" x="1124" y="-752.5" font-family="FreeSans" font-size="10.00">exit</text>
</a>
</g>
<!-- Node14&#45;&gt;Node15 -->
<g id="edge38" class="edge"><title>Node14&#45;&gt;Node15</title>
<path fill="none" stroke="midnightblue" d="M1011.51,-755C1042.24,-755 1084.27,-755 1107.27,-755"/>
<polygon fill="midnightblue" stroke="midnightblue" points="1011.16,-751.5 1001.16,-755 1011.16,-758.5 1011.16,-751.5"/>
</g>
<!-- Node18 -->
<g id="node41" class="node"><title>Node18</title>
<a xlink:href="hfa-se-ngraphs_8c.html#a3c04138a5bfe5d72780bb7e82a18e627" target="_top" xlink:title="main">
<polygon fill="white" stroke="black" points="1104,-784.5 1104,-805.5 1144,-805.5 1144,-784.5 1104,-784.5"/>
<text text-anchor="middle" x="1124" y="-792.5" font-family="FreeSans" font-size="10.00">main</text>
</a>
</g>
<!-- Node17&#45;&gt;Node18 -->
<g id="edge46" class="edge"><title>Node17&#45;&gt;Node18</title>
<path fill="none" stroke="midnightblue" d="M1018.83,-795C1047.02,-795 1082.03,-795 1103.69,-795"/>
<polygon fill="midnightblue" stroke="midnightblue" points="1018.79,-791.5 1008.79,-795 1018.79,-798.5 1018.79,-791.5"/>
</g>
<!-- Node20 -->
<g id="node46" class="node"><title>Node20</title>
<a xlink:href="cvm-hfa-search_8c.html#a57d7540278164eb6b6c132be00db0de5" target="_top" xlink:title="This routine performs a pattern search using the given parameters in a blocking manner.">
<polygon fill="white" stroke="black" points="555.5,-278.5 555.5,-299.5 678.5,-299.5 678.5,-278.5 555.5,-278.5"/>
<text text-anchor="middle" x="617" y="-286.5" font-family="FreeSans" font-size="10.00">hfa_searchctx_search</text>
</a>
</g>
<!-- Node19&#45;&gt;Node20 -->
<g id="edge52" class="edge"><title>Node19&#45;&gt;Node20</title>
<path fill="none" stroke="midnightblue" d="M448.098,-207.4C472.15,-223.286 510.536,-247.352 546,-264 557.593,-269.442 570.715,-274.381 582.496,-278.405"/>
<polygon fill="midnightblue" stroke="midnightblue" points="449.879,-204.381 439.617,-201.744 445.995,-210.205 449.879,-204.381"/>
</g>
<!-- Node22 -->
<g id="node51" class="node"><title>Node22</title>
<a xlink:href="flow_8c.html#a696ee2b7ad7078c47242360be84d89bf" target="_top" xlink:title="Counterpart of __hfaf_create_flow.">
<polygon fill="white" stroke="black" points="560.5,-180.5 560.5,-201.5 673.5,-201.5 673.5,-180.5 560.5,-180.5"/>
<text text-anchor="middle" x="617" y="-188.5" font-family="FreeSans" font-size="10.00">__hfaf_destroy_flow</text>
</a>
</g>
<!-- Node19&#45;&gt;Node22 -->
<g id="edge58" class="edge"><title>Node19&#45;&gt;Node22</title>
<path fill="none" stroke="midnightblue" d="M520.105,-191C533.928,-191 547.762,-191 560.472,-191"/>
<polygon fill="midnightblue" stroke="midnightblue" points="520.058,-187.5 510.058,-191 520.058,-194.5 520.058,-187.5"/>
</g>
<!-- Node29 -->
<g id="node65" class="node"><title>Node29</title>
<a xlink:href="flow_8c.html#a2976ab60901b133a56214323fb901663" target="_top" xlink:title="Low level API to poll a flow.">
<polygon fill="white" stroke="black" points="552.5,-90.5 552.5,-111.5 681.5,-111.5 681.5,-90.5 552.5,-90.5"/>
<text text-anchor="middle" x="617" y="-98.5" font-family="FreeSans" font-size="10.00">__hfaf_process_pktflow</text>
</a>
</g>
<!-- Node19&#45;&gt;Node29 -->
<g id="edge72" class="edge"><title>Node19&#45;&gt;Node29</title>
<path fill="none" stroke="midnightblue" d="M498.532,-176.776C502.51,-175.065 506.362,-173.148 510,-171 530.597,-158.842 526.518,-144.875 546,-131 557.336,-122.927 571.179,-116.462 583.621,-111.631"/>
<polygon fill="midnightblue" stroke="midnightblue" points="497.15,-173.558 489.066,-180.407 499.657,-180.093 497.15,-173.558"/>
</g>
<!-- Node34 -->
<g id="node76" class="node"><title>Node34</title>
<a xlink:href="hfa-lnx-async_8c.html#a972f8b60ef804914c009c2ef85bac50e" target="_top" xlink:title="Process search for given payload and graph.">
<polygon fill="white" stroke="black" points="928,-259.5 928,-280.5 1020,-280.5 1020,-259.5 928,-259.5"/>
<text text-anchor="middle" x="974" y="-267.5" font-family="FreeSans" font-size="10.00">process_search</text>
</a>
</g>
<!-- Node19&#45;&gt;Node34 -->
<g id="edge84" class="edge"><title>Node19&#45;&gt;Node34</title>
<path fill="none" stroke="midnightblue" d="M496.351,-203.173C512.669,-205.832 529.919,-208.574 546,-211 684.696,-231.925 849.14,-253.761 927.71,-264.012"/>
<polygon fill="midnightblue" stroke="midnightblue" points="496.764,-199.694 486.33,-201.532 495.633,-206.602 496.764,-199.694"/>
</g>
<!-- Node37 -->
<g id="node84" class="node"><title>Node37</title>
<a xlink:href="hfa-lnx-ctx_8c.html#a630ea21ffa0ae1e09e74fc5add8c2715" target="_top" xlink:title="destroyctx">
<polygon fill="white" stroke="black" points="583.5,-587.5 583.5,-608.5 650.5,-608.5 650.5,-587.5 583.5,-587.5"/>
<text text-anchor="middle" x="617" y="-595.5" font-family="FreeSans" font-size="10.00">destroyctx</text>
</a>
</g>
<!-- Node19&#45;&gt;Node37 -->
<g id="edge94" class="edge"><title>Node19&#45;&gt;Node37</title>
<path fill="none" stroke="midnightblue" d="M432.318,-211.195C448.355,-250.473 484.239,-340.058 510,-417 528.22,-471.418 514.146,-493.266 546,-541 559.337,-560.986 581.866,-577.333 597.971,-587.317"/>
<polygon fill="midnightblue" stroke="midnightblue" points="435.461,-209.634 428.431,-201.708 428.984,-212.289 435.461,-209.634"/>
</g>
<!-- Node40 -->
<g id="node93" class="node"><title>Node40</title>
<a xlink:href="hfa-lnx-ctx_8c.html#a71e1d3d18cc48b90a1ecde583ffb3f7a" target="_top" xlink:title="poll_searchctx">
<polygon fill="white" stroke="black" points="574,-2.5 574,-23.5 660,-23.5 660,-2.5 574,-2.5"/>
<text text-anchor="middle" x="617" y="-10.5" font-family="FreeSans" font-size="10.00">poll_searchctx</text>
</a>
</g>
<!-- Node19&#45;&gt;Node40 -->
<g id="edge106" class="edge"><title>Node19&#45;&gt;Node40</title>
<path fill="none" stroke="midnightblue" d="M505.442,-174.932C507.032,-173.708 508.555,-172.4 510,-171 554.608,-127.801 503.263,-81.0501 546,-36 553.402,-28.1979 563.467,-23.0373 573.691,-19.6254"/>
<polygon fill="midnightblue" stroke="midnightblue" points="503.516,-172.009 497,-180.364 507.303,-177.896 503.516,-172.009"/>
</g>
<!-- Node43 -->
<g id="node99" class="node"><title>Node43</title>
<a xlink:href="hfa-lnx-nctx-lock_8c.html#a48d3743fb7abc7d3c6b68359678e52a1" target="_top" xlink:title="Poll for the pending search instructions in the HW (blocked till instruction completes) and process t...">
<polygon fill="white" stroke="black" points="600.5,-45.5 600.5,-66.5 633.5,-66.5 633.5,-45.5 600.5,-45.5"/>
<text text-anchor="middle" x="617" y="-53.5" font-family="FreeSans" font-size="10.00">poll</text>
</a>
</g>
<!-- Node19&#45;&gt;Node43 -->
<g id="edge112" class="edge"><title>Node19&#45;&gt;Node43</title>
<path fill="none" stroke="midnightblue" d="M504.343,-175.293C506.313,-173.97 508.204,-172.541 510,-171 542.688,-142.938 514.905,-110.817 546,-81 560.903,-66.7093 584.456,-60.5356 600.304,-57.9032"/>
<polygon fill="midnightblue" stroke="midnightblue" points="502.233,-172.466 495.263,-180.446 505.687,-178.554 502.233,-172.466"/>
</g>
<!-- Node45 -->
<g id="node103" class="node"><title>Node45</title>
<a xlink:href="hfa-se-async_8c.html#a3c04138a5bfe5d72780bb7e82a18e627" target="_top" xlink:title="main">
<polygon fill="white" stroke="black" points="597,-140.5 597,-161.5 637,-161.5 637,-140.5 597,-140.5"/>
<text text-anchor="middle" x="617" y="-148.5" font-family="FreeSans" font-size="10.00">main</text>
</a>
</g>
<!-- Node19&#45;&gt;Node45 -->
<g id="edge116" class="edge"><title>Node19&#45;&gt;Node45</title>
<path fill="none" stroke="midnightblue" d="M484.802,-178.398C523.323,-170.415 570.678,-160.6 596.977,-155.15"/>
<polygon fill="midnightblue" stroke="midnightblue" points="483.79,-175.034 474.708,-180.49 485.211,-181.888 483.79,-175.034"/>
</g>
<!-- Node20&#45;&gt;Node12 -->
<g id="edge54" class="edge"><title>Node20&#45;&gt;Node12</title>
<path fill="none" stroke="midnightblue" d="M665.614,-302.209C744.717,-323.702 898.021,-365.356 953.408,-380.405"/>
<polygon fill="midnightblue" stroke="midnightblue" points="666.453,-298.81 655.885,-299.565 664.617,-305.565 666.453,-298.81"/>
</g>
<!-- Node21 -->
<g id="node49" class="node"><title>Node21</title>
<a xlink:href="hfa-se-linkgraph_8c.html#a3c04138a5bfe5d72780bb7e82a18e627" target="_top" xlink:title="main">
<polygon fill="white" stroke="black" points="777,-278.5 777,-299.5 817,-299.5 817,-278.5 777,-278.5"/>
<text text-anchor="middle" x="797" y="-286.5" font-family="FreeSans" font-size="10.00">main</text>
</a>
</g>
<!-- Node20&#45;&gt;Node21 -->
<g id="edge56" class="edge"><title>Node20&#45;&gt;Node21</title>
<path fill="none" stroke="midnightblue" d="M688.864,-289C720.594,-289 755.462,-289 776.794,-289"/>
<polygon fill="midnightblue" stroke="midnightblue" points="688.694,-285.5 678.694,-289 688.694,-292.5 688.694,-285.5"/>
</g>
<!-- Node23 -->
<g id="node53" class="node"><title>Node23</title>
<a xlink:href="flow_8c.html#a93974ea83df979435eb77f3c5d4ab848" target="_top" xlink:title="Cleanup Flowdb Node (Per Index)">
<polygon fill="white" stroke="black" points="724,-120.5 724,-141.5 870,-141.5 870,-120.5 724,-120.5"/>
<text text-anchor="middle" x="797" y="-128.5" font-family="FreeSans" font-size="10.00">hfaf_flowdb_node_cleanup</text>
</a>
</g>
<!-- Node22&#45;&gt;Node23 -->
<g id="edge60" class="edge"><title>Node22&#45;&gt;Node23</title>
<path fill="none" stroke="midnightblue" d="M670.661,-177.331C676.579,-175.397 682.463,-173.282 688,-171 704.923,-164.027 707.052,-157.912 724,-151 732.761,-147.427 742.368,-144.282 751.652,-141.606"/>
<polygon fill="midnightblue" stroke="midnightblue" points="669.238,-174.107 660.722,-180.411 671.31,-180.794 669.238,-174.107"/>
</g>
<!-- Node26 -->
<g id="node59" class="node"><title>Node26</title>
<a xlink:href="flow_8h.html#abdb62c6f71f5ca9ecddc66c90166d37b" target="_top" xlink:title="Create Packet Flow in Flowdb.">
<polygon fill="white" stroke="black" points="741.5,-200.5 741.5,-221.5 852.5,-221.5 852.5,-200.5 741.5,-200.5"/>
<text text-anchor="middle" x="797" y="-208.5" font-family="FreeSans" font-size="10.00">hfaf_create_pktflow</text>
</a>
</g>
<!-- Node22&#45;&gt;Node26 -->
<g id="edge66" class="edge"><title>Node22&#45;&gt;Node26</title>
<path fill="none" stroke="midnightblue" d="M683.974,-198.442C702.86,-200.54 723.196,-202.8 741.341,-204.816"/>
<polygon fill="midnightblue" stroke="midnightblue" points="684.279,-194.954 673.953,-197.328 683.505,-201.911 684.279,-194.954"/>
</g>
<!-- Node28 -->
<g id="node63" class="node"><title>Node28</title>
<a xlink:href="flow_8h.html#a8d99fe33dc3203530d360196cc7decb4" target="_top" xlink:title="Counterpart of hfaf_create_pktflow().">
<polygon fill="white" stroke="black" points="739,-160.5 739,-181.5 855,-181.5 855,-160.5 739,-160.5"/>
<text text-anchor="middle" x="797" y="-168.5" font-family="FreeSans" font-size="10.00">hfaf_destroy_pktflow</text>
</a>
</g>
<!-- Node22&#45;&gt;Node28 -->
<g id="edge70" class="edge"><title>Node22&#45;&gt;Node28</title>
<path fill="none" stroke="midnightblue" d="M684.087,-183.546C702.088,-181.546 721.399,-179.4 738.87,-177.459"/>
<polygon fill="midnightblue" stroke="midnightblue" points="683.505,-180.089 673.953,-184.672 684.279,-187.046 683.505,-180.089"/>
</g>
<!-- Node24 -->
<g id="node55" class="node"><title>Node24</title>
<a xlink:href="flow_8h.html#a2a51025bf645e4e1eec8cac2b4f8a8c0" target="_top" xlink:title="Cleanups Flow database which was created in hfaf_flowdb_init()">
<polygon fill="white" stroke="black" points="1206.5,-120.5 1206.5,-141.5 1323.5,-141.5 1323.5,-120.5 1206.5,-120.5"/>
<text text-anchor="middle" x="1265" y="-128.5" font-family="FreeSans" font-size="10.00">hfaf_flowdb_cleanup</text>
</a>
</g>
<!-- Node23&#45;&gt;Node24 -->
<g id="edge62" class="edge"><title>Node23&#45;&gt;Node24</title>
<path fill="none" stroke="midnightblue" d="M880.15,-131C973.967,-131 1124.17,-131 1206.44,-131"/>
<polygon fill="midnightblue" stroke="midnightblue" points="880.125,-127.5 870.125,-131 880.125,-134.5 880.125,-127.5"/>
</g>
<!-- Node25 -->
<g id="node57" class="node"><title>Node25</title>
<a xlink:href="hfa-se-flow-wqe_8c.html#a3c04138a5bfe5d72780bb7e82a18e627" target="_top" xlink:title="Implementation.">
<polygon fill="white" stroke="black" points="1360,-100.5 1360,-121.5 1400,-121.5 1400,-100.5 1360,-100.5"/>
<text text-anchor="middle" x="1380" y="-108.5" font-family="FreeSans" font-size="10.00">main</text>
</a>
</g>
<!-- Node24&#45;&gt;Node25 -->
<g id="edge64" class="edge"><title>Node24&#45;&gt;Node25</title>
<path fill="none" stroke="midnightblue" d="M1333.58,-119.073C1343.14,-117.411 1352.27,-115.823 1359.87,-114.501"/>
<polygon fill="midnightblue" stroke="midnightblue" points="1332.76,-115.662 1323.51,-120.824 1333.96,-122.559 1332.76,-115.662"/>
</g>
<!-- Node27 -->
<g id="node61" class="node"><title>Node27</title>
<a xlink:href="hfa-se-flow-wqe_8c.html#a6d3e23d8f7a3aaf1b0d6e350b7631a0e" target="_top" xlink:title="Get flow pointer from Flow database, If flow ptr is NULL then create at runtime.">
<polygon fill="white" stroke="black" points="939.5,-200.5 939.5,-221.5 1008.5,-221.5 1008.5,-200.5 939.5,-200.5"/>
<text text-anchor="middle" x="974" y="-208.5" font-family="FreeSans" font-size="10.00">get_flowptr</text>
</a>
</g>
<!-- Node26&#45;&gt;Node27 -->
<g id="edge68" class="edge"><title>Node26&#45;&gt;Node27</title>
<path fill="none" stroke="midnightblue" d="M862.693,-211C888.674,-211 917.469,-211 939.261,-211"/>
<polygon fill="midnightblue" stroke="midnightblue" points="862.518,-207.5 852.518,-211 862.518,-214.5 862.518,-207.5"/>
</g>
<!-- Node30 -->
<g id="node67" class="node"><title>Node30</title>
<a xlink:href="flow_8h.html#ab1b3378af88a440a6c3c0851be942e65" target="_top" xlink:title="All submitted search parameters in Paramlist of flow are polled If low level API __hfaf_process_pktfl...">
<polygon fill="white" stroke="black" points="737.5,-80.5 737.5,-101.5 856.5,-101.5 856.5,-80.5 737.5,-80.5"/>
<text text-anchor="middle" x="797" y="-88.5" font-family="FreeSans" font-size="10.00">hfaf_process_pktflow</text>
</a>
</g>
<!-- Node29&#45;&gt;Node30 -->
<g id="edge74" class="edge"><title>Node29&#45;&gt;Node30</title>
<path fill="none" stroke="midnightblue" d="M692.07,-96.8294C707.171,-95.9905 722.849,-95.1195 737.338,-94.3146"/>
<polygon fill="midnightblue" stroke="midnightblue" points="691.52,-93.3545 681.73,-97.4039 691.909,-100.344 691.52,-93.3545"/>
</g>
<!-- Node31 -->
<g id="node69" class="node"><title>Node31</title>
<a xlink:href="hfa-se-flow_8c.html#a2d83c733eacd7afc955c3af18edcb52a" target="_top" xlink:title="Polls for a submitted search instruction of a flow.">
<polygon fill="white" stroke="black" points="931.5,-80.5 931.5,-101.5 1016.5,-101.5 1016.5,-80.5 931.5,-80.5"/>
<text text-anchor="middle" x="974" y="-88.5" font-family="FreeSans" font-size="10.00">__processflow</text>
</a>
</g>
<!-- Node30&#45;&gt;Node31 -->
<g id="edge76" class="edge"><title>Node30&#45;&gt;Node31</title>
<path fill="none" stroke="midnightblue" d="M867.122,-91C888.878,-91 912.185,-91 931.463,-91"/>
<polygon fill="midnightblue" stroke="midnightblue" points="866.924,-87.5001 856.924,-91 866.924,-94.5001 866.924,-87.5001"/>
</g>
<!-- Node32 -->
<g id="node71" class="node"><title>Node32</title>
<a xlink:href="hfa-se-flow_8c.html#a786591694a8f8fb46cedbc8a580c88f6" target="_top" xlink:title="Submitting or Polling flows from the software recently used cache IF Cache is empty, it tries to refill it.">
<polygon fill="white" stroke="black" points="1092.5,-80.5 1092.5,-101.5 1155.5,-101.5 1155.5,-80.5 1092.5,-80.5"/>
<text text-anchor="middle" x="1124" y="-88.5" font-family="FreeSans" font-size="10.00">do_cache</text>
</a>
</g>
<!-- Node31&#45;&gt;Node32 -->
<g id="edge78" class="edge"><title>Node31&#45;&gt;Node32</title>
<path fill="none" stroke="midnightblue" d="M1026.73,-91C1048.61,-91 1073.27,-91 1092.29,-91"/>
<polygon fill="midnightblue" stroke="midnightblue" points="1026.58,-87.5001 1016.58,-91 1026.58,-94.5001 1026.58,-87.5001"/>
</g>
<!-- Node33 -->
<g id="node73" class="node"><title>Node33</title>
<a xlink:href="hfa-se-flow_8c.html#aba72a61590283e37ffd78b4defd38220" target="_top" xlink:title="Receive network packets and process.">
<polygon fill="white" stroke="black" points="1217,-80.5 1217,-101.5 1313,-101.5 1313,-80.5 1217,-80.5"/>
<text text-anchor="middle" x="1265" y="-88.5" font-family="FreeSans" font-size="10.00">process_packets</text>
</a>
</g>
<!-- Node32&#45;&gt;Node33 -->
<g id="edge80" class="edge"><title>Node32&#45;&gt;Node33</title>
<path fill="none" stroke="midnightblue" d="M1165.79,-91C1181.83,-91 1200.25,-91 1216.84,-91"/>
<polygon fill="midnightblue" stroke="midnightblue" points="1165.64,-87.5001 1155.64,-91 1165.64,-94.5001 1165.64,-87.5001"/>
</g>
<!-- Node33&#45;&gt;Node25 -->
<g id="edge82" class="edge"><title>Node33&#45;&gt;Node25</title>
<path fill="none" stroke="midnightblue" d="M1323.16,-101.115C1336.37,-103.412 1349.52,-105.7 1359.85,-107.496"/>
<polygon fill="midnightblue" stroke="midnightblue" points="1323.56,-97.6312 1313.1,-99.3659 1322.36,-104.528 1323.56,-97.6312"/>
</g>
<!-- Node35 -->
<g id="node78" class="node"><title>Node35</title>
<a xlink:href="hfa-lnx-async_8c.html#a1e97b1d598034fdc92d57054a6c386e6" target="_top" xlink:title="tasklet_callback">
<polygon fill="white" stroke="black" points="1078,-299.5 1078,-320.5 1170,-320.5 1170,-299.5 1078,-299.5"/>
<text text-anchor="middle" x="1124" y="-307.5" font-family="FreeSans" font-size="10.00">tasklet_callback</text>
</a>
</g>
<!-- Node34&#45;&gt;Node35 -->
<g id="edge86" class="edge"><title>Node34&#45;&gt;Node35</title>
<path fill="none" stroke="midnightblue" d="M1023.23,-283.129C1043.14,-288.438 1065.81,-294.482 1084.59,-299.491"/>
<polygon fill="midnightblue" stroke="midnightblue" points="1023.97,-279.704 1013.41,-280.51 1022.17,-286.468 1023.97,-279.704"/>
</g>
<!-- Node36 -->
<g id="node81" class="node"><title>Node36</title>
<a xlink:href="hfa-lnx-async_8c.html#a7dea7d59754828b1173c4c7ec5d42f3e" target="_top" xlink:title="thread_callback">
<polygon fill="white" stroke="black" points="1078,-259.5 1078,-280.5 1170,-280.5 1170,-259.5 1078,-259.5"/>
<text text-anchor="middle" x="1124" y="-267.5" font-family="FreeSans" font-size="10.00">thread_callback</text>
</a>
</g>
<!-- Node34&#45;&gt;Node36 -->
<g id="edge90" class="edge"><title>Node34&#45;&gt;Node36</title>
<path fill="none" stroke="midnightblue" d="M1030.34,-270C1046.04,-270 1062.9,-270 1077.92,-270"/>
<polygon fill="midnightblue" stroke="midnightblue" points="1030.23,-266.5 1020.23,-270 1030.23,-273.5 1030.23,-266.5"/>
</g>
<!-- Node35&#45;&gt;Node6 -->
<g id="edge88" class="edge"><title>Node35&#45;&gt;Node6</title>
<path fill="none" stroke="midnightblue" d="M1180.37,-317.995C1202.94,-321.198 1227.54,-324.686 1244.37,-327.073"/>
<polygon fill="midnightblue" stroke="midnightblue" points="1180.56,-314.488 1170.17,-316.549 1179.58,-321.419 1180.56,-314.488"/>
</g>
<!-- Node36&#45;&gt;Node6 -->
<g id="edge92" class="edge"><title>Node36&#45;&gt;Node6</title>
<path fill="none" stroke="midnightblue" d="M1158.33,-284.61C1185.29,-296.08 1221.92,-311.668 1244.48,-321.269"/>
<polygon fill="midnightblue" stroke="midnightblue" points="1159.46,-281.284 1148.88,-280.589 1156.71,-287.725 1159.46,-281.284"/>
</g>
<!-- Node37&#45;&gt;Node7 -->
<g id="edge96" class="edge"><title>Node37&#45;&gt;Node7</title>
<path fill="none" stroke="midnightblue" d="M660.891,-598C765.739,-598 1027.66,-598 1103.27,-598"/>
<polygon fill="midnightblue" stroke="midnightblue" points="660.658,-594.5 650.658,-598 660.658,-601.5 660.658,-594.5"/>
</g>
<!-- Node38 -->
<g id="node87" class="node"><title>Node38</title>
<a xlink:href="hfa-lnx-ctx_8c.html#a3c1f07835ef5be8d3adfbaf09af5ca28" target="_top" xlink:title="core_exit">
<polygon fill="white" stroke="black" points="767,-626.5 767,-647.5 827,-647.5 827,-626.5 767,-626.5"/>
<text text-anchor="middle" x="797" y="-634.5" font-family="FreeSans" font-size="10.00">core_exit</text>
</a>
</g>
<!-- Node37&#45;&gt;Node38 -->
<g id="edge98" class="edge"><title>Node37&#45;&gt;Node38</title>
<path fill="none" stroke="midnightblue" d="M660.675,-607.463C693.581,-614.593 737.846,-624.183 766.885,-630.475"/>
<polygon fill="midnightblue" stroke="midnightblue" points="661.371,-604.033 650.857,-605.336 659.889,-610.874 661.371,-604.033"/>
</g>
<!-- Node38&#45;&gt;Node16 -->
<g id="edge104" class="edge"><title>Node38&#45;&gt;Node16</title>
<path fill="none" stroke="midnightblue" d="M837.213,-646.088C875.057,-654.64 929.88,-667.029 957.204,-673.204"/>
<polygon fill="midnightblue" stroke="midnightblue" points="837.551,-642.576 827.026,-643.785 836.008,-649.404 837.551,-642.576"/>
</g>
<!-- Node39 -->
<g id="node89" class="node"><title>Node39</title>
<a xlink:href="hfa-lnx-ctx_8c.html#a4c3443f524b4c0d95639694f0b74e850" target="_top" xlink:title="Process command line options, Read graph and payload.">
<polygon fill="white" stroke="black" points="927,-626.5 927,-647.5 1021,-647.5 1021,-626.5 927,-626.5"/>
<text text-anchor="middle" x="974" y="-634.5" font-family="FreeSans" font-size="10.00">process_options</text>
</a>
</g>
<!-- Node38&#45;&gt;Node39 -->
<g id="edge100" class="edge"><title>Node38&#45;&gt;Node39</title>
<path fill="none" stroke="midnightblue" d="M837.149,-637C863.779,-637 898.836,-637 926.802,-637"/>
<polygon fill="midnightblue" stroke="midnightblue" points="837.026,-633.5 827.026,-637 837.026,-640.5 837.026,-633.5"/>
</g>
<!-- Node39&#45;&gt;Node7 -->
<g id="edge102" class="edge"><title>Node39&#45;&gt;Node7</title>
<path fill="none" stroke="midnightblue" d="M1024.62,-623.839C1051.46,-616.86 1082.98,-608.665 1103.21,-603.406"/>
<polygon fill="midnightblue" stroke="midnightblue" points="1023.39,-620.542 1014.59,-626.446 1025.15,-627.317 1023.39,-620.542"/>
</g>
<!-- Node41 -->
<g id="node95" class="node"><title>Node41</title>
<a xlink:href="hfa-lnx-ctx_8c.html#a934a9fc08c4aab25d6f0d861e4a4f762" target="_top" xlink:title="poll">
<polygon fill="white" stroke="black" points="780.5,-0.5 780.5,-21.5 813.5,-21.5 813.5,-0.5 780.5,-0.5"/>
<text text-anchor="middle" x="797" y="-8.5" font-family="FreeSans" font-size="10.00">poll</text>
</a>
</g>
<!-- Node40&#45;&gt;Node41 -->
<g id="edge108" class="edge"><title>Node40&#45;&gt;Node41</title>
<path fill="none" stroke="midnightblue" d="M670.36,-12.4071C707.738,-11.9918 755.283,-11.4635 780.133,-11.1874"/>
<polygon fill="midnightblue" stroke="midnightblue" points="670.075,-8.90997 660.114,-12.521 670.153,-15.9095 670.075,-8.90997"/>
</g>
<!-- Node42 -->
<g id="node97" class="node"><title>Node42</title>
<a xlink:href="hfa-lnx-ctx_8c.html#a97df0ba8293c1b8436547946fd9d0d17" target="_top" xlink:title="process_pkt">
<polygon fill="white" stroke="black" points="937,-0.5 937,-21.5 1011,-21.5 1011,-0.5 937,-0.5"/>
<text text-anchor="middle" x="974" y="-8.5" font-family="FreeSans" font-size="10.00">process_pkt</text>
</a>
</g>
<!-- Node41&#45;&gt;Node42 -->
<g id="edge110" class="edge"><title>Node41&#45;&gt;Node42</title>
<path fill="none" stroke="midnightblue" d="M823.844,-11C854.017,-11 903.194,-11 936.998,-11"/>
<polygon fill="midnightblue" stroke="midnightblue" points="823.652,-7.5001 813.652,-11 823.652,-14.5001 823.652,-7.5001"/>
</g>
<!-- Node44 -->
<g id="node101" class="node"><title>Node44</title>
<a xlink:href="hfa-lnx-nctx-lock_8c.html#a972f8b60ef804914c009c2ef85bac50e" target="_top" xlink:title="Performs search process for each core.">
<polygon fill="white" stroke="black" points="751,-40.5 751,-61.5 843,-61.5 843,-40.5 751,-40.5"/>
<text text-anchor="middle" x="797" y="-48.5" font-family="FreeSans" font-size="10.00">process_search</text>
</a>
</g>
<!-- Node43&#45;&gt;Node44 -->
<g id="edge114" class="edge"><title>Node43&#45;&gt;Node44</title>
<path fill="none" stroke="midnightblue" d="M643.889,-55.2531C672.067,-54.4704 716.86,-53.2261 750.733,-52.2852"/>
<polygon fill="midnightblue" stroke="midnightblue" points="643.51,-51.7622 633.611,-55.5386 643.705,-58.7595 643.51,-51.7622"/>
</g>
</g>
</svg>
        <g id="navigator" transform="translate(0 0)" fill="#404254">
                <rect fill="#f2f5e9" fill-opacity="0.5" stroke="#606060" stroke-width=".5" x="0" y="0" width="60" height="60"/>
                <use id="zoomplus" xlink:href="#zoomPlus" x="17" y="9" onmousedown="handleZoom(evt,'in')"/>
                <use id="zoomminus" xlink:href="#zoomMin" x="42" y="9" onmousedown="handleZoom(evt,'out')"/>
                <use id="reset" xlink:href="#resetDef" x="30" y="36" onmousedown="handleReset()"/>
                <g id="arrowUp" xlink:href="#dirArrow" transform="translate(30 24)" onmousedown="handlePan(0,-1)">
                  <use xlink:href="#rim" fill="#404040">
                        <set attributeName="fill" to="#808080" begin="arrowUp.mouseover" end="arrowUp.mouseout"/>
                  </use>
                  <path fill="none" stroke="white" stroke-width="1.5" d="M0,-3.0v7 M-2.5,-0.5L0,-3.0L2.5,-0.5"/>
                </g>
                <g id="arrowRight" xlink:href="#dirArrow" transform="rotate(90) translate(36 -43)" onmousedown="handlePan(1,0)">
                  <use xlink:href="#rim" fill="#404040">
                        <set attributeName="fill" to="#808080" begin="arrowRight.mouseover" end="arrowRight.mouseout"/>
                  </use>
                  <path fill="none" stroke="white" stroke-width="1.5" d="M0,-3.0v7 M-2.5,-0.5L0,-3.0L2.5,-0.5"/>
                </g>
                <g id="arrowDown" xlink:href="#dirArrow" transform="rotate(180) translate(-30 -48)" onmousedown="handlePan(0,1)">
                  <use xlink:href="#rim" fill="#404040">
                        <set attributeName="fill" to="#808080" begin="arrowDown.mouseover" end="arrowDown.mouseout"/>
                  </use>
                  <path fill="none" stroke="white" stroke-width="1.5" d="M0,-3.0v7 M-2.5,-0.5L0,-3.0L2.5,-0.5"/>
                </g>
                <g id="arrowLeft" xlink:href="#dirArrow" transform="rotate(270) translate(-36 17)" onmousedown="handlePan(-1,0)">
                  <use xlink:href="#rim" fill="#404040">
                        <set attributeName="fill" to="#808080" begin="arrowLeft.mouseover" end="arrowLeft.mouseout"/>
                  </use>
                  <path fill="none" stroke="white" stroke-width="1.5" d="M0,-3.0v7 M-2.5,-0.5L0,-3.0L2.5,-0.5"/>
                </g>
        </g>
        <svg viewBox="0 0 15 15" width="100%" height="30px" preserveAspectRatio="xMaxYMin meet">
         <g id="arrow_out" transform="scale(0.3 0.3)">
          <a xlink:href="cvm-hfa-instr_8h_a9700a50b68b6616506528eb725a8bda1_icgraph_org.svg" target="_base">
           <rect id="button" ry="5" rx="5" y="6" x="6" height="38" width="38"
                fill="#f2f5e9" fill-opacity="0.5" stroke="#606060" stroke-width="1.0"/>
           <path id="arrow"
             d="M 11.500037,31.436501 C 11.940474,20.09759 22.043105,11.32322 32.158766,21.979434 L 37.068811,17.246167 C 37.068811,17.246167 37.088388,32 37.088388,32 L 22.160133,31.978069 C 22.160133,31.978069 26.997745,27.140456 26.997745,27.140456 C 18.528582,18.264221 13.291696,25.230495 11.500037,31.436501 z"
             style="fill:#404040;"/>
          </a>
         </g>
        </svg>
</svg>
