<?xml version="1.0" encoding="UTF-8" standalone="no"?>
<!DOCTYPE svg PUBLIC "-//W3C//DTD SVG 1.1//EN"
 "http://www.w3.org/Graphics/SVG/1.1/DTD/svg11.dtd">
<!-- Generated by graphviz version 2.24.0 (20090616.2323)
 -->
<!-- Title: hfa_matches_cleanup Pages: 1 -->
<!--zoomable 209 -->
<svg id="main" version="1.1" xmlns="http://www.w3.org/2000/svg" xmlns:xlink="http://www.w3.org/1999/xlink" xml:space="preserve" onload="init(evt)">
        <defs>
                <circle id="rim" cx="0" cy="0" r="7"/>
                <circle id="rim2" cx="0" cy="0" r="3.5"/>
                <g id="zoomPlus">
                        <use xlink:href="#rim" fill="#404040">
                                <set attributeName="fill" to="#808080" begin="zoomplus.mouseover" end="zoomplus.mouseout"/>
                        </use>
                        <path d="M-4,0h8M0,-4v8" fill="none" stroke="white" stroke-width="1.5" pointer-events="none"/>
                </g>
                <g id="zoomMin">
                        <use xlink:href="#rim" fill="#404040">
                                <set attributeName="fill" to="#808080" begin="zoomminus.mouseover" end="zoomminus.mouseout"/>
                        </use>
                        <path d="M-4,0h8" fill="none" stroke="white" stroke-width="1.5" pointer-events="none"/>
                </g>
                <g id="dirArrow">
                        <path fill="none" stroke="white" stroke-width="1.5" d="M0,-3.0v7 M-2.5,-0.5L0,-3.0L2.5,-0.5"/>
                </g>
               <g id="resetDef">
                       <use xlink:href="#rim2" fill="#404040">
                               <set attributeName="fill" to="#808080" begin="reset.mouseover" end="reset.mouseout"/>
                       </use>
               </g>
        </defs>

<script type="text/javascript">
var viewWidth = 676;
var viewHeight = 209;
var sectionId = 'dynsection-6';
</script>
<script xlink:href="svgpan.js"/>
<svg id="graph" class="graph">
<g id="viewport">
<title>hfa_matches_cleanup</title>
<polygon fill="white" stroke="white" points="-4,5 -4,-205 673,-205 673,5 -4,5"/>
<!-- Node1 -->
<g id="node1" class="node"><title>Node1</title>
<polygon fill="#bfbfbf" stroke="black" points="0.5,-80.5 0.5,-101.5 123.5,-101.5 123.5,-80.5 0.5,-80.5"/>
<text text-anchor="middle" x="62" y="-88.5" font-family="FreeSans" font-size="10.00">hfa_matches_cleanup</text>
</g>
<!-- Node2 -->
<g id="node3" class="node"><title>Node2</title>
<a xlink:href="app-utils_8c.html#a633038357891aa5147b77fe939f300bf" target="_top" xlink:title="Print pattern matches via match buffer and cleanup all matches.">
<polygon fill="white" stroke="black" points="160,-80.5 160,-101.5 284,-101.5 284,-80.5 160,-80.5"/>
<text text-anchor="middle" x="222" y="-88.5" font-family="FreeSans" font-size="10.00">hfautils_print_matches</text>
</a>
</g>
<!-- Node1&#45;&gt;Node2 -->
<g id="edge2" class="edge"><title>Node1&#45;&gt;Node2</title>
<path fill="none" stroke="midnightblue" d="M133.91,-91C142.541,-91 151.299,-91 159.777,-91"/>
<polygon fill="midnightblue" stroke="midnightblue" points="133.86,-87.5001 123.86,-91 133.86,-94.5001 133.86,-87.5001"/>
</g>
<!-- Node3 -->
<g id="node5" class="node"><title>Node3</title>
<a xlink:href="hfa-lnx-async_8c.html#a972f8b60ef804914c009c2ef85bac50e" target="_top" xlink:title="Process search for given payload and graph.">
<polygon fill="white" stroke="black" points="320,-160.5 320,-181.5 412,-181.5 412,-160.5 320,-160.5"/>
<text text-anchor="middle" x="366" y="-168.5" font-family="FreeSans" font-size="10.00">process_search</text>
</a>
</g>
<!-- Node2&#45;&gt;Node3 -->
<g id="edge4" class="edge"><title>Node2&#45;&gt;Node3</title>
<path fill="none" stroke="midnightblue" d="M246.463,-107.295C265.961,-119.957 294.181,-137.566 320,-151 326.335,-154.296 333.331,-157.532 339.915,-160.409"/>
<polygon fill="midnightblue" stroke="midnightblue" points="248.183,-104.237 237.899,-101.687 244.348,-110.094 248.183,-104.237"/>
</g>
<!-- Node7 -->
<g id="node14" class="node"><title>Node7</title>
<a xlink:href="hfa-lnx-linkgraph_8c.html#a78ffddbcd7cdd164889cfb53ea367886" target="_top" xlink:title="entry">
<polygon fill="white" stroke="black" points="345.5,-120.5 345.5,-141.5 386.5,-141.5 386.5,-120.5 345.5,-120.5"/>
<text text-anchor="middle" x="366" y="-128.5" font-family="FreeSans" font-size="10.00">entry</text>
</a>
</g>
<!-- Node2&#45;&gt;Node7 -->
<g id="edge14" class="edge"><title>Node2&#45;&gt;Node7</title>
<path fill="none" stroke="midnightblue" d="M269.76,-104.267C295.389,-111.386 325.658,-119.794 345.311,-125.253"/>
<polygon fill="midnightblue" stroke="midnightblue" points="270.406,-100.814 259.834,-101.51 268.533,-107.558 270.406,-100.814"/>
</g>
<!-- Node8 -->
<g id="node16" class="node"><title>Node8</title>
<a xlink:href="hfa-lnx-nctx-lock_8c.html#adb0c831ef0f9af5441a6769c377d9c95" target="_top" xlink:title="Post process the results from HFA and record found matches.">
<polygon fill="white" stroke="black" points="326,-80.5 326,-101.5 406,-101.5 406,-80.5 326,-80.5"/>
<text text-anchor="middle" x="366" y="-88.5" font-family="FreeSans" font-size="10.00">post_process</text>
</a>
</g>
<!-- Node2&#45;&gt;Node8 -->
<g id="edge16" class="edge"><title>Node2&#45;&gt;Node8</title>
<path fill="none" stroke="midnightblue" d="M294.541,-91C305.226,-91 315.895,-91 325.607,-91"/>
<polygon fill="midnightblue" stroke="midnightblue" points="294.323,-87.5001 284.323,-91 294.323,-94.5001 294.323,-87.5001"/>
</g>
<!-- Node11 -->
<g id="node23" class="node"><title>Node11</title>
<a xlink:href="hfa-se-async_8c.html#a3c04138a5bfe5d72780bb7e82a18e627" target="_top" xlink:title="main">
<polygon fill="white" stroke="black" points="346,-40.5 346,-61.5 386,-61.5 386,-40.5 346,-40.5"/>
<text text-anchor="middle" x="366" y="-48.5" font-family="FreeSans" font-size="10.00">main</text>
</a>
</g>
<!-- Node2&#45;&gt;Node11 -->
<g id="edge24" class="edge"><title>Node2&#45;&gt;Node11</title>
<path fill="none" stroke="midnightblue" d="M269.48,-77.8111C295.346,-70.6262 326.006,-62.1095 345.717,-56.6343"/>
<polygon fill="midnightblue" stroke="midnightblue" points="268.533,-74.4416 259.834,-80.4905 270.406,-81.1863 268.533,-74.4416"/>
</g>
<!-- Node12 -->
<g id="node25" class="node"><title>Node12</title>
<a xlink:href="hfa-se-wqe-lock_8c.html#a06b5fcfab0e1d5eb36b633ec080ad7f9" target="_top" xlink:title="Process search for given contexts.">
<polygon fill="white" stroke="black" points="326,-0.5 326,-21.5 406,-21.5 406,-0.5 326,-0.5"/>
<text text-anchor="middle" x="366" y="-8.5" font-family="FreeSans" font-size="10.00">process_nctx</text>
</a>
</g>
<!-- Node2&#45;&gt;Node12 -->
<g id="edge26" class="edge"><title>Node2&#45;&gt;Node12</title>
<path fill="none" stroke="midnightblue" d="M246.463,-74.7052C265.961,-62.0429 294.181,-44.4337 320,-31 326.335,-27.7041 333.331,-24.4676 339.915,-21.5907"/>
<polygon fill="midnightblue" stroke="midnightblue" points="244.348,-71.9064 237.899,-80.3128 248.183,-77.7626 244.348,-71.9064"/>
</g>
<!-- Node4 -->
<g id="node7" class="node"><title>Node4</title>
<a xlink:href="hfa-lnx-async_8c.html#a1e97b1d598034fdc92d57054a6c386e6" target="_top" xlink:title="tasklet_callback">
<polygon fill="white" stroke="black" points="448,-179.5 448,-200.5 540,-200.5 540,-179.5 448,-179.5"/>
<text text-anchor="middle" x="494" y="-187.5" font-family="FreeSans" font-size="10.00">tasklet_callback</text>
</a>
</g>
<!-- Node3&#45;&gt;Node4 -->
<g id="edge6" class="edge"><title>Node3&#45;&gt;Node4</title>
<path fill="none" stroke="midnightblue" d="M422.162,-179.337C430.746,-180.611 439.521,-181.913 447.857,-183.151"/>
<polygon fill="midnightblue" stroke="midnightblue" points="422.616,-175.866 412.211,-177.859 421.589,-182.79 422.616,-175.866"/>
</g>
<!-- Node6 -->
<g id="node11" class="node"><title>Node6</title>
<a xlink:href="hfa-lnx-async_8c.html#a7dea7d59754828b1173c4c7ec5d42f3e" target="_top" xlink:title="thread_callback">
<polygon fill="white" stroke="black" points="448,-139.5 448,-160.5 540,-160.5 540,-139.5 448,-139.5"/>
<text text-anchor="middle" x="494" y="-147.5" font-family="FreeSans" font-size="10.00">thread_callback</text>
</a>
</g>
<!-- Node3&#45;&gt;Node6 -->
<g id="edge10" class="edge"><title>Node3&#45;&gt;Node6</title>
<path fill="none" stroke="midnightblue" d="M422.162,-161.786C430.746,-160.378 439.521,-158.938 447.857,-157.57"/>
<polygon fill="midnightblue" stroke="midnightblue" points="421.512,-158.346 412.211,-163.419 422.646,-165.253 421.512,-158.346"/>
</g>
<!-- Node5 -->
<g id="node9" class="node"><title>Node5</title>
<a xlink:href="hfa-lnx-async_8c.html#a78ffddbcd7cdd164889cfb53ea367886" target="_top" xlink:title="entry">
<polygon fill="white" stroke="black" points="601.5,-148.5 601.5,-169.5 642.5,-169.5 642.5,-148.5 601.5,-148.5"/>
<text text-anchor="middle" x="622" y="-156.5" font-family="FreeSans" font-size="10.00">entry</text>
</a>
</g>
<!-- Node4&#45;&gt;Node5 -->
<g id="edge8" class="edge"><title>Node4&#45;&gt;Node5</title>
<path fill="none" stroke="midnightblue" d="M547.493,-177.045C566.528,-172.435 586.839,-167.516 601.438,-163.98"/>
<polygon fill="midnightblue" stroke="midnightblue" points="546.587,-173.663 537.692,-179.418 548.235,-180.466 546.587,-173.663"/>
</g>
<!-- Node6&#45;&gt;Node5 -->
<g id="edge12" class="edge"><title>Node6&#45;&gt;Node5</title>
<path fill="none" stroke="midnightblue" d="M550.428,-153.968C568.516,-155.239 587.421,-156.569 601.257,-157.541"/>
<polygon fill="midnightblue" stroke="midnightblue" points="550.432,-150.459 540.211,-153.249 549.941,-157.442 550.432,-150.459"/>
</g>
<!-- Node9 -->
<g id="node18" class="node"><title>Node9</title>
<a xlink:href="hfa-lnx-nctx-lock_8c.html#a48d3743fb7abc7d3c6b68359678e52a1" target="_top" xlink:title="Poll for the pending search instructions in the HW (blocked till instruction completes) and process t...">
<polygon fill="white" stroke="black" points="477.5,-99.5 477.5,-120.5 510.5,-120.5 510.5,-99.5 477.5,-99.5"/>
<text text-anchor="middle" x="494" y="-107.5" font-family="FreeSans" font-size="10.00">poll</text>
</a>
</g>
<!-- Node8&#45;&gt;Node9 -->
<g id="edge18" class="edge"><title>Node8&#45;&gt;Node9</title>
<path fill="none" stroke="midnightblue" d="M416.264,-98.461C437.994,-101.687 461.941,-105.241 477.434,-107.541"/>
<polygon fill="midnightblue" stroke="midnightblue" points="416.554,-94.9659 406.149,-96.9596 415.526,-101.89 416.554,-94.9659"/>
</g>
<!-- Node10 -->
<g id="node20" class="node"><title>Node10</title>
<a xlink:href="hfa-lnx-nctx-lock_8c.html#a972f8b60ef804914c009c2ef85bac50e" target="_top" xlink:title="Performs search process for each core.">
<polygon fill="white" stroke="black" points="576,-89.5 576,-110.5 668,-110.5 668,-89.5 576,-89.5"/>
<text text-anchor="middle" x="622" y="-97.5" font-family="FreeSans" font-size="10.00">process_search</text>
</a>
</g>
<!-- Node8&#45;&gt;Node10 -->
<g id="edge22" class="edge"><title>Node8&#45;&gt;Node10</title>
<path fill="none" stroke="midnightblue" d="M416.492,-88.9418C451.248,-87.9584 498.464,-87.4767 540,-90 551.595,-90.7044 564.062,-91.9642 575.688,-93.3574"/>
<polygon fill="midnightblue" stroke="midnightblue" points="416.013,-85.4548 406.125,-89.2604 416.228,-92.4515 416.013,-85.4548"/>
</g>
<!-- Node9&#45;&gt;Node10 -->
<g id="edge20" class="edge"><title>Node9&#45;&gt;Node10</title>
<path fill="none" stroke="midnightblue" d="M520.908,-107.898C536.799,-106.656 557.351,-105.051 575.769,-103.612"/>
<polygon fill="midnightblue" stroke="midnightblue" points="520.431,-104.424 510.734,-108.693 520.976,-111.403 520.431,-104.424"/>
</g>
<!-- Node13 -->
<g id="node27" class="node"><title>Node13</title>
<a xlink:href="hfa-se-wqe-lock_8c.html#a3c04138a5bfe5d72780bb7e82a18e627" target="_top" xlink:title="main">
<polygon fill="white" stroke="black" points="474,-0.5 474,-21.5 514,-21.5 514,-0.5 474,-0.5"/>
<text text-anchor="middle" x="494" y="-8.5" font-family="FreeSans" font-size="10.00">main</text>
</a>
</g>
<!-- Node12&#45;&gt;Node13 -->
<g id="edge28" class="edge"><title>Node12&#45;&gt;Node13</title>
<path fill="none" stroke="midnightblue" d="M416.397,-11C436.403,-11 458.267,-11 473.675,-11"/>
<polygon fill="midnightblue" stroke="midnightblue" points="416.149,-7.5001 406.149,-11 416.149,-14.5001 416.149,-7.5001"/>
</g>
</g>
</svg>
        <g id="navigator" transform="translate(0 0)" fill="#404254">
                <rect fill="#f2f5e9" fill-opacity="0.5" stroke="#606060" stroke-width=".5" x="0" y="0" width="60" height="60"/>
                <use id="zoomplus" xlink:href="#zoomPlus" x="17" y="9" onmousedown="handleZoom(evt,'in')"/>
                <use id="zoomminus" xlink:href="#zoomMin" x="42" y="9" onmousedown="handleZoom(evt,'out')"/>
                <use id="reset" xlink:href="#resetDef" x="30" y="36" onmousedown="handleReset()"/>
                <g id="arrowUp" xlink:href="#dirArrow" transform="translate(30 24)" onmousedown="handlePan(0,-1)">
                  <use xlink:href="#rim" fill="#404040">
                        <set attributeName="fill" to="#808080" begin="arrowUp.mouseover" end="arrowUp.mouseout"/>
                  </use>
                  <path fill="none" stroke="white" stroke-width="1.5" d="M0,-3.0v7 M-2.5,-0.5L0,-3.0L2.5,-0.5"/>
                </g>
                <g id="arrowRight" xlink:href="#dirArrow" transform="rotate(90) translate(36 -43)" onmousedown="handlePan(1,0)">
                  <use xlink:href="#rim" fill="#404040">
                        <set attributeName="fill" to="#808080" begin="arrowRight.mouseover" end="arrowRight.mouseout"/>
                  </use>
                  <path fill="none" stroke="white" stroke-width="1.5" d="M0,-3.0v7 M-2.5,-0.5L0,-3.0L2.5,-0.5"/>
                </g>
                <g id="arrowDown" xlink:href="#dirArrow" transform="rotate(180) translate(-30 -48)" onmousedown="handlePan(0,1)">
                  <use xlink:href="#rim" fill="#404040">
                        <set attributeName="fill" to="#808080" begin="arrowDown.mouseover" end="arrowDown.mouseout"/>
                  </use>
                  <path fill="none" stroke="white" stroke-width="1.5" d="M0,-3.0v7 M-2.5,-0.5L0,-3.0L2.5,-0.5"/>
                </g>
                <g id="arrowLeft" xlink:href="#dirArrow" transform="rotate(270) translate(-36 17)" onmousedown="handlePan(-1,0)">
                  <use xlink:href="#rim" fill="#404040">
                        <set attributeName="fill" to="#808080" begin="arrowLeft.mouseover" end="arrowLeft.mouseout"/>
                  </use>
                  <path fill="none" stroke="white" stroke-width="1.5" d="M0,-3.0v7 M-2.5,-0.5L0,-3.0L2.5,-0.5"/>
                </g>
        </g>
        <svg viewBox="0 0 15 15" width="100%" height="30px" preserveAspectRatio="xMaxYMin meet">
         <g id="arrow_out" transform="scale(0.3 0.3)">
          <a xlink:href="cvm-hfa-search_8c_a543990bc2a5e1726298e5053391e3bf5_icgraph_org.svg" target="_base">
           <rect id="button" ry="5" rx="5" y="6" x="6" height="38" width="38"
                fill="#f2f5e9" fill-opacity="0.5" stroke="#606060" stroke-width="1.0"/>
           <path id="arrow"
             d="M 11.500037,31.436501 C 11.940474,20.09759 22.043105,11.32322 32.158766,21.979434 L 37.068811,17.246167 C 37.068811,17.246167 37.088388,32 37.088388,32 L 22.160133,31.978069 C 22.160133,31.978069 26.997745,27.140456 26.997745,27.140456 C 18.528582,18.264221 13.291696,25.230495 11.500037,31.436501 z"
             style="fill:#404040;"/>
          </a>
         </g>
        </svg>
</svg>
