<?xml version="1.0" encoding="UTF-8" standalone="no"?>
<!DOCTYPE svg PUBLIC "-//W3C//DTD SVG 1.1//EN"
 "http://www.w3.org/Graphics/SVG/1.1/DTD/svg11.dtd">
<!-- Generated by graphviz version 2.24.0 (20090616.2323)
 -->
<!-- Title: hfa_dev_stats_init Pages: 1 -->
<svg width="808pt" height="148pt"
 viewBox="0.00 0.00 808.00 148.00" xmlns="http://www.w3.org/2000/svg" xmlns:xlink="http://www.w3.org/1999/xlink">
<g id="graph1" class="graph" transform="scale(1 1) rotate(0) translate(4 144)">
<title>hfa_dev_stats_init</title>
<polygon fill="white" stroke="white" points="-4,5 -4,-144 805,-144 805,5 -4,5"/>
<!-- Node1 -->
<g id="node1" class="node"><title>Node1</title>
<polygon fill="#bfbfbf" stroke="black" points="0,-40.5 0,-61.5 102,-61.5 102,-40.5 0,-40.5"/>
<text text-anchor="middle" x="51" y="-48.5" font-family="FreeSans" font-size="10.00">hfa_dev_stats_init</text>
</g>
<!-- Node2 -->
<g id="node3" class="node"><title>Node2</title>
<a xlink:href="cvm-hfa-stats_8c.html#ab70d294575883530a6ecd321a2a09fc3" target="_top" xlink:title="Create ARENA for hfa statistics.">
<polygon fill="white" stroke="black" points="139,-80.5 139,-101.5 267,-101.5 267,-80.5 139,-80.5"/>
<text text-anchor="middle" x="203" y="-88.5" font-family="FreeSans" font-size="10.00">hfa_stats_create_arena</text>
</a>
</g>
<!-- Node1&#45;&gt;Node2 -->
<g id="edge2" class="edge"><title>Node1&#45;&gt;Node2</title>
<path fill="none" stroke="midnightblue" d="M90.9362,-61.5095C110.06,-66.5422 133.151,-72.6186 153.39,-77.9448"/>
<polygon fill="midnightblue" stroke="midnightblue" points="152.505,-81.331 163.067,-80.4913 154.287,-74.5615 152.505,-81.331"/>
</g>
<!-- Node8 -->
<g id="node17" class="node"><title>Node8</title>
<a xlink:href="cvm-hfa-stats_8c.html#acbdfa65e476c04cd9b67b7c462eefe56" target="_top" xlink:title="This routine allocates required memory from STATS ARENA.">
<polygon fill="white" stroke="black" points="138.5,-40.5 138.5,-61.5 267.5,-61.5 267.5,-40.5 138.5,-40.5"/>
<text text-anchor="middle" x="203" y="-48.5" font-family="FreeSans" font-size="10.00">hfa_stats_memoryalloc</text>
</a>
</g>
<!-- Node1&#45;&gt;Node8 -->
<g id="edge18" class="edge"><title>Node1&#45;&gt;Node8</title>
<path fill="none" stroke="midnightblue" d="M102.037,-51C110.496,-51 119.42,-51 128.319,-51"/>
<polygon fill="midnightblue" stroke="midnightblue" points="128.331,-54.5001 138.331,-51 128.331,-47.5001 128.331,-54.5001"/>
</g>
<!-- Node9 -->
<g id="node19" class="node"><title>Node9</title>
<a xlink:href="cvm-hfa-stats_8c.html#a7a2acbe48c3850d43256938ee996aa16" target="_top" xlink:title="This routine frees memory to STATS ARENA.">
<polygon fill="white" stroke="black" points="140.5,-0.5 140.5,-21.5 265.5,-21.5 265.5,-0.5 140.5,-0.5"/>
<text text-anchor="middle" x="203" y="-8.5" font-family="FreeSans" font-size="10.00">hfa_stats_memoryfree</text>
</a>
</g>
<!-- Node1&#45;&gt;Node9 -->
<g id="edge20" class="edge"><title>Node1&#45;&gt;Node9</title>
<path fill="none" stroke="midnightblue" d="M90.9362,-40.4905C110.06,-35.4578 133.151,-29.3814 153.39,-24.0552"/>
<polygon fill="midnightblue" stroke="midnightblue" points="154.287,-27.4385 163.067,-21.5087 152.505,-20.669 154.287,-27.4385"/>
</g>
<!-- Node3 -->
<g id="node5" class="node"><title>Node3</title>
<a xlink:href="cvm-hfa_8c.html#a199331bc34e479a3defde18ae38a1d49" target="_top" xlink:title="This is a utility routine to find or allocate a named block.">
<polygon fill="white" stroke="black" points="304.5,-80.5 304.5,-101.5 429.5,-101.5 429.5,-80.5 304.5,-80.5"/>
<text text-anchor="middle" x="367" y="-88.5" font-family="FreeSans" font-size="10.00">hfa_find_named_block</text>
</a>
</g>
<!-- Node2&#45;&gt;Node3 -->
<g id="edge4" class="edge"><title>Node2&#45;&gt;Node3</title>
<path fill="none" stroke="midnightblue" d="M267.346,-91C276.214,-91 285.37,-91 294.373,-91"/>
<polygon fill="midnightblue" stroke="midnightblue" points="294.45,-94.5001 304.45,-91 294.45,-87.5001 294.45,-94.5001"/>
</g>
<!-- Node4 -->
<g id="node7" class="node"><title>Node4</title>
<a xlink:href="cvmx-hfa_8c.html#a547dc48185d98dcfe05c3f2cf49429fd" target="_top" xlink:title="Finds a named bootmem block by name.">
<polygon fill="white" stroke="black" points="653,-106 653,-140 799,-140 799,-106 653,-106"/>
<text text-anchor="start" x="661" y="-127" font-family="FreeSans" font-size="10.00">hfa_bootmem_find_named</text>
<text text-anchor="middle" x="726" y="-114" font-family="FreeSans" font-size="10.00">_block</text>
</a>
</g>
<!-- Node3&#45;&gt;Node4 -->
<g id="edge6" class="edge"><title>Node3&#45;&gt;Node4</title>
<path fill="none" stroke="midnightblue" d="M386.776,-101.64C406.276,-111.484 437.249,-125.411 466,-131 524.288,-142.33 591.288,-139.912 642.675,-134.878"/>
<polygon fill="midnightblue" stroke="midnightblue" points="643.149,-138.348 652.737,-133.84 642.431,-131.385 643.149,-138.348"/>
</g>
<!-- Node5 -->
<g id="node9" class="node"><title>Node5</title>
<a xlink:href="cvmx-hfa_8c.html#ae7d614919dc1b610fef50491246901ce" target="_top" xlink:title="Create a named bootmem block by name.">
<polygon fill="white" stroke="black" points="466,-100.5 466,-121.5 616,-121.5 616,-100.5 466,-100.5"/>
<text text-anchor="middle" x="541" y="-108.5" font-family="FreeSans" font-size="10.00">hfa_bootmem_alloc_named</text>
</a>
</g>
<!-- Node3&#45;&gt;Node5 -->
<g id="edge8" class="edge"><title>Node3&#45;&gt;Node5</title>
<path fill="none" stroke="midnightblue" d="M429.818,-98.2205C438.214,-99.1855 446.936,-100.188 455.637,-101.188"/>
<polygon fill="midnightblue" stroke="midnightblue" points="455.485,-104.694 465.819,-102.359 456.285,-97.7395 455.485,-104.694"/>
</g>
<!-- Node6 -->
<g id="node11" class="node"><title>Node6</title>
<a xlink:href="cvm-hfa_8c.html#a741c1a0561a8b5a320f061afee14ecf4" target="_top" xlink:title="Free the named block allocated using hfa_find_named_block().">
<polygon fill="white" stroke="black" points="478,-60.5 478,-81.5 604,-81.5 604,-60.5 478,-60.5"/>
<text text-anchor="middle" x="541" y="-68.5" font-family="FreeSans" font-size="10.00">hfa_free_named_block</text>
</a>
</g>
<!-- Node3&#45;&gt;Node6 -->
<g id="edge10" class="edge"><title>Node3&#45;&gt;Node6</title>
<path fill="none" stroke="midnightblue" d="M429.818,-83.7795C442.185,-82.3581 455.259,-80.8553 467.929,-79.399"/>
<polygon fill="midnightblue" stroke="midnightblue" points="468.447,-82.8625 477.982,-78.2434 467.648,-75.9083 468.447,-82.8625"/>
</g>
<!-- Node7 -->
<g id="node14" class="node"><title>Node7</title>
<a xlink:href="cvmx-hfa_8c.html#a96a2b8d673269a4c41c3a151e4e56abb" target="_top" xlink:title="Frees a named bootmem block by name.">
<polygon fill="white" stroke="black" points="652.5,-40.5 652.5,-61.5 799.5,-61.5 799.5,-40.5 652.5,-40.5"/>
<text text-anchor="middle" x="726" y="-48.5" font-family="FreeSans" font-size="10.00">hfa_bootmem_free_named</text>
</a>
</g>
<!-- Node3&#45;&gt;Node7 -->
<g id="edge16" class="edge"><title>Node3&#45;&gt;Node7</title>
<path fill="none" stroke="midnightblue" d="M386.776,-80.3595C406.276,-70.5157 437.249,-56.5888 466,-51 524.156,-39.6952 591.022,-39.9822 642.38,-42.9465"/>
<polygon fill="midnightblue" stroke="midnightblue" points="642.24,-46.4444 652.438,-43.5724 642.675,-39.4579 642.24,-46.4444"/>
</g>
<!-- Node6&#45;&gt;Node4 -->
<g id="edge12" class="edge"><title>Node6&#45;&gt;Node4</title>
<path fill="none" stroke="midnightblue" d="M581.136,-81.5246C592.427,-84.5337 604.707,-87.852 616,-91 629.854,-94.8618 644.658,-99.0952 658.77,-103.182"/>
<polygon fill="midnightblue" stroke="midnightblue" points="657.83,-106.554 668.409,-105.982 659.783,-99.8314 657.83,-106.554"/>
</g>
<!-- Node6&#45;&gt;Node7 -->
<g id="edge14" class="edge"><title>Node6&#45;&gt;Node7</title>
<path fill="none" stroke="midnightblue" d="M604.149,-64.1731C616.373,-62.8516 629.36,-61.4476 642.126,-60.0675"/>
<polygon fill="midnightblue" stroke="midnightblue" points="642.732,-63.5225 652.298,-58.9678 641.979,-56.563 642.732,-63.5225"/>
</g>
</g>
</svg>
