<?xml version="1.0" encoding="UTF-8" standalone="no"?>
<!DOCTYPE svg PUBLIC "-//W3C//DTD SVG 1.1//EN"
 "http://www.w3.org/Graphics/SVG/1.1/DTD/svg11.dtd">
<!-- Generated by graphviz version 2.24.0 (20090616.2323)
 -->
<!-- Title: hfa_cluster_cleanupmem Pages: 1 -->
<svg width="556pt" height="42pt"
 viewBox="0.00 0.00 556.00 42.00" xmlns="http://www.w3.org/2000/svg" xmlns:xlink="http://www.w3.org/1999/xlink">
<g id="graph1" class="graph" transform="scale(1 1) rotate(0) translate(4 38)">
<title>hfa_cluster_cleanupmem</title>
<polygon fill="white" stroke="white" points="-4,5 -4,-38 553,-38 553,5 -4,5"/>
<!-- Node1 -->
<g id="node1" class="node"><title>Node1</title>
<polygon fill="#bfbfbf" stroke="black" points="0,-6.5 0,-27.5 138,-27.5 138,-6.5 0,-6.5"/>
<text text-anchor="middle" x="69" y="-14.5" font-family="FreeSans" font-size="10.00">hfa_cluster_cleanupmem</text>
</g>
<!-- Node2 -->
<g id="node3" class="node"><title>Node2</title>
<a xlink:href="cvm-hfa-cluster_8c.html#ae4fec611b1343b2f6cad63b81987d98b" target="_top" xlink:title="Cleanup Cluster.">
<polygon fill="white" stroke="black" points="174.5,-6.5 174.5,-27.5 287.5,-27.5 287.5,-6.5 174.5,-6.5"/>
<text text-anchor="middle" x="231" y="-14.5" font-family="FreeSans" font-size="10.00">hfa_cluster_cleanup</text>
</a>
</g>
<!-- Node1&#45;&gt;Node2 -->
<g id="edge2" class="edge"><title>Node1&#45;&gt;Node2</title>
<path fill="none" stroke="midnightblue" d="M148.391,-17C157.127,-17 165.887,-17 174.266,-17"/>
<polygon fill="midnightblue" stroke="midnightblue" points="148.173,-13.5001 138.172,-17 148.172,-20.5001 148.173,-13.5001"/>
</g>
<!-- Node3 -->
<g id="node5" class="node"><title>Node3</title>
<a xlink:href="hfa-lnx-async_8c.html#abc17fab65a320998a273d112ff24d658" target="_top" xlink:title="Configure cluster memory resources.">
<polygon fill="white" stroke="black" points="324,-0 324,-34 470,-34 470,-0 324,-0"/>
<text text-anchor="start" x="332" y="-21" font-family="FreeSans" font-size="10.00">configure_cluster_memory</text>
<text text-anchor="middle" x="397" y="-8" font-family="FreeSans" font-size="10.00">_resources</text>
</a>
</g>
<!-- Node2&#45;&gt;Node3 -->
<g id="edge4" class="edge"><title>Node2&#45;&gt;Node3</title>
<path fill="none" stroke="midnightblue" d="M297.931,-17C306.466,-17 315.236,-17 323.862,-17"/>
<polygon fill="midnightblue" stroke="midnightblue" points="297.664,-13.5001 287.663,-17 297.663,-20.5001 297.664,-13.5001"/>
</g>
<!-- Node4 -->
<g id="node7" class="node"><title>Node4</title>
<a xlink:href="hfa-lnx-async_8c.html#a78ffddbcd7cdd164889cfb53ea367886" target="_top" xlink:title="entry">
<polygon fill="white" stroke="black" points="506.5,-6.5 506.5,-27.5 547.5,-27.5 547.5,-6.5 506.5,-6.5"/>
<text text-anchor="middle" x="527" y="-14.5" font-family="FreeSans" font-size="10.00">entry</text>
</a>
</g>
<!-- Node3&#45;&gt;Node4 -->
<g id="edge6" class="edge"><title>Node3&#45;&gt;Node4</title>
<path fill="none" stroke="midnightblue" d="M480.471,-17C490.011,-17 498.972,-17 506.435,-17"/>
<polygon fill="midnightblue" stroke="midnightblue" points="480.358,-13.5001 470.358,-17 480.358,-20.5001 480.358,-13.5001"/>
</g>
</g>
</svg>
