<?xml version="1.0" encoding="UTF-8" standalone="no"?>
<!DOCTYPE svg PUBLIC "-//W3C//DTD SVG 1.1//EN"
 "http://www.w3.org/Graphics/SVG/1.1/DTD/svg11.dtd">
<!-- Generated by graphviz version 2.24.0 (20090616.2323)
 -->
<!-- Title: cvm_hfa_instr_setrptr Pages: 1 -->
<svg width="648pt" height="229pt"
 viewBox="0.00 0.00 648.00 229.00" xmlns="http://www.w3.org/2000/svg" xmlns:xlink="http://www.w3.org/1999/xlink">
<g id="graph1" class="graph" transform="scale(1 1) rotate(0) translate(4 225)">
<title>cvm_hfa_instr_setrptr</title>
<polygon fill="white" stroke="white" points="-4,5 -4,-225 645,-225 645,5 -4,5"/>
<!-- Node1 -->
<g id="node1" class="node"><title>Node1</title>
<polygon fill="#bfbfbf" stroke="black" points="0,-114.5 0,-135.5 120,-135.5 120,-114.5 0,-114.5"/>
<text text-anchor="middle" x="60" y="-122.5" font-family="FreeSans" font-size="10.00">cvm_hfa_instr_setrptr</text>
</g>
<!-- Node2 -->
<g id="node3" class="node"><title>Node2</title>
<a xlink:href="cvm-hfa-graph_8c.html#aa296e0c6b36b3d5b4f8e01c2fe765bed" target="_top" xlink:title="This routine is used to cacheload a cacheable graph in a non&#45;blocking manner.">
<polygon fill="white" stroke="black" points="162,-136 162,-170 282,-170 282,-136 162,-136"/>
<text text-anchor="start" x="170" y="-157" font-family="FreeSans" font-size="10.00">hfa_graph_cacheload</text>
<text text-anchor="middle" x="222" y="-144" font-family="FreeSans" font-size="10.00">_async</text>
</a>
</g>
<!-- Node1&#45;&gt;Node2 -->
<g id="edge2" class="edge"><title>Node1&#45;&gt;Node2</title>
<path fill="none" stroke="midnightblue" d="M130.315,-137.153C140.84,-138.972 151.609,-140.834 161.897,-142.612"/>
<polygon fill="midnightblue" stroke="midnightblue" points="130.773,-133.681 120.323,-135.426 129.581,-140.578 130.773,-133.681"/>
</g>
<!-- Node9 -->
<g id="node17" class="node"><title>Node9</title>
<a xlink:href="cvm-hfa-graph_8c.html#afb63ce4f42afc7987e6222b1c1ea91a1" target="_top" xlink:title="This routine is used to cacheunload a cacheload&#39;ed graph in a non&#45;blocking manner.">
<polygon fill="white" stroke="black" points="156,-81 156,-115 288,-115 288,-81 156,-81"/>
<text text-anchor="start" x="164" y="-102" font-family="FreeSans" font-size="10.00">hfa_graph_cacheunload</text>
<text text-anchor="middle" x="222" y="-89" font-family="FreeSans" font-size="10.00">_async</text>
</a>
</g>
<!-- Node1&#45;&gt;Node9 -->
<g id="edge16" class="edge"><title>Node1&#45;&gt;Node9</title>
<path fill="none" stroke="midnightblue" d="M130.235,-113.294C138.762,-111.873 147.451,-110.425 155.915,-109.014"/>
<polygon fill="midnightblue" stroke="midnightblue" points="129.611,-109.85 120.323,-114.946 130.762,-116.755 129.611,-109.85"/>
</g>
<!-- Node3 -->
<g id="node5" class="node"><title>Node3</title>
<a xlink:href="cvm-hfa-graph_8c.html#a60861d15ed5f6bccc42bbde834aa2b32" target="_top" xlink:title="This routine is used to cacheload a cacheable graph in a blocking manner.">
<polygon fill="white" stroke="black" points="330,-142.5 330,-163.5 450,-163.5 450,-142.5 330,-142.5"/>
<text text-anchor="middle" x="390" y="-150.5" font-family="FreeSans" font-size="10.00">hfa_graph_cacheload</text>
</a>
</g>
<!-- Node2&#45;&gt;Node3 -->
<g id="edge4" class="edge"><title>Node2&#45;&gt;Node3</title>
<path fill="none" stroke="midnightblue" d="M292.517,-153C304.97,-153 317.829,-153 329.961,-153"/>
<polygon fill="midnightblue" stroke="midnightblue" points="292.177,-149.5 282.177,-153 292.177,-156.5 292.177,-149.5"/>
</g>
<!-- Node7 -->
<g id="node13" class="node"><title>Node7</title>
<a xlink:href="hfa-lnx-async_8c.html#a546f3769e735d4bef0bfab1cba56921c" target="_top" xlink:title="Load graph to HFA memory and cache.">
<polygon fill="white" stroke="black" points="355.5,-195.5 355.5,-216.5 424.5,-216.5 424.5,-195.5 355.5,-195.5"/>
<text text-anchor="middle" x="390" y="-203.5" font-family="FreeSans" font-size="10.00">graph_load</text>
</a>
</g>
<!-- Node2&#45;&gt;Node7 -->
<g id="edge12" class="edge"><title>Node2&#45;&gt;Node7</title>
<path fill="none" stroke="midnightblue" d="M285.877,-173.152C309.954,-180.747 336.374,-189.082 356.576,-195.456"/>
<polygon fill="midnightblue" stroke="midnightblue" points="286.671,-169.732 276.081,-170.061 284.565,-176.408 286.671,-169.732"/>
</g>
<!-- Node4 -->
<g id="node7" class="node"><title>Node4</title>
<a xlink:href="hfa-lnx-ctx_8c.html#a78ffddbcd7cdd164889cfb53ea367886" target="_top" xlink:title="entry">
<polygon fill="white" stroke="black" points="506.5,-120.5 506.5,-141.5 547.5,-141.5 547.5,-120.5 506.5,-120.5"/>
<text text-anchor="middle" x="527" y="-128.5" font-family="FreeSans" font-size="10.00">entry</text>
</a>
</g>
<!-- Node3&#45;&gt;Node4 -->
<g id="edge6" class="edge"><title>Node3&#45;&gt;Node4</title>
<path fill="none" stroke="midnightblue" d="M460.046,-141.752C476.984,-139.032 493.796,-136.332 506.337,-134.318"/>
<polygon fill="midnightblue" stroke="midnightblue" points="459.409,-138.309 450.09,-143.35 460.519,-145.221 459.409,-138.309"/>
</g>
<!-- Node5 -->
<g id="node9" class="node"><title>Node5</title>
<a xlink:href="hfa-lnx-linkgraph_8c.html#a546f3769e735d4bef0bfab1cba56921c" target="_top" xlink:title="Load graph to HFA memory and cache.">
<polygon fill="white" stroke="black" points="492.5,-160.5 492.5,-181.5 561.5,-181.5 561.5,-160.5 492.5,-160.5"/>
<text text-anchor="middle" x="527" y="-168.5" font-family="FreeSans" font-size="10.00">graph_load</text>
</a>
</g>
<!-- Node3&#45;&gt;Node5 -->
<g id="edge8" class="edge"><title>Node3&#45;&gt;Node5</title>
<path fill="none" stroke="midnightblue" d="M460.25,-162.23C471.33,-163.686 482.349,-165.133 492.147,-166.421"/>
<polygon fill="midnightblue" stroke="midnightblue" points="460.461,-158.728 450.09,-160.895 459.549,-165.668 460.461,-158.728"/>
</g>
<!-- Node6 -->
<g id="node11" class="node"><title>Node6</title>
<a xlink:href="hfa-lnx-linkgraph_8c.html#a78ffddbcd7cdd164889cfb53ea367886" target="_top" xlink:title="entry">
<polygon fill="white" stroke="black" points="598.5,-159.5 598.5,-180.5 639.5,-180.5 639.5,-159.5 598.5,-159.5"/>
<text text-anchor="middle" x="619" y="-167.5" font-family="FreeSans" font-size="10.00">entry</text>
</a>
</g>
<!-- Node5&#45;&gt;Node6 -->
<g id="edge10" class="edge"><title>Node5&#45;&gt;Node6</title>
<path fill="none" stroke="midnightblue" d="M571.612,-170.515C581.01,-170.413 590.485,-170.31 598.466,-170.223"/>
<polygon fill="midnightblue" stroke="midnightblue" points="571.48,-167.016 561.519,-170.625 571.557,-174.016 571.48,-167.016"/>
</g>
<!-- Node8 -->
<g id="node15" class="node"><title>Node8</title>
<a xlink:href="hfa-lnx-async_8c.html#a78ffddbcd7cdd164889cfb53ea367886" target="_top" xlink:title="entry">
<polygon fill="white" stroke="black" points="598.5,-199.5 598.5,-220.5 639.5,-220.5 639.5,-199.5 598.5,-199.5"/>
<text text-anchor="middle" x="619" y="-207.5" font-family="FreeSans" font-size="10.00">entry</text>
</a>
</g>
<!-- Node7&#45;&gt;Node8 -->
<g id="edge14" class="edge"><title>Node7&#45;&gt;Node8</title>
<path fill="none" stroke="midnightblue" d="M434.874,-206.784C484.276,-207.647 561.553,-208.997 598.277,-209.638"/>
<polygon fill="midnightblue" stroke="midnightblue" points="434.84,-203.283 424.78,-206.608 434.717,-210.282 434.84,-203.283"/>
</g>
<!-- Node10 -->
<g id="node19" class="node"><title>Node10</title>
<a xlink:href="cvm-hfa-graph_8c.html#aa4ce7845277b4b3099159bbd7afd5c08" target="_top" xlink:title="This routine is used to cacheunload a cacheload&#39;ed graph in a non&#45;blocking manner.">
<polygon fill="white" stroke="black" points="324,-80.5 324,-101.5 456,-101.5 456,-80.5 324,-80.5"/>
<text text-anchor="middle" x="390" y="-88.5" font-family="FreeSans" font-size="10.00">hfa_graph_cacheunload</text>
</a>
</g>
<!-- Node9&#45;&gt;Node10 -->
<g id="edge18" class="edge"><title>Node9&#45;&gt;Node10</title>
<path fill="none" stroke="midnightblue" d="M298.595,-94.8086C307.013,-94.4578 315.532,-94.1028 323.809,-93.7579"/>
<polygon fill="midnightblue" stroke="midnightblue" points="298.244,-91.32 288.398,-95.2334 298.535,-98.314 298.244,-91.32"/>
</g>
<!-- Node10&#45;&gt;Node4 -->
<g id="edge26" class="edge"><title>Node10&#45;&gt;Node4</title>
<path fill="none" stroke="midnightblue" d="M435.897,-104.4C459.676,-111.343 487.548,-119.481 506.141,-124.91"/>
<polygon fill="midnightblue" stroke="midnightblue" points="436.575,-100.953 425.995,-101.51 434.613,-107.672 436.575,-100.953"/>
</g>
<!-- Node11 -->
<g id="node21" class="node"><title>Node11</title>
<a xlink:href="hfa-lnx-async_8c.html#acd9e54f020b77f14d54c200b65423a15" target="_top" xlink:title="Application cleanup will be done by this routine.">
<polygon fill="white" stroke="black" points="500,-40.5 500,-61.5 554,-61.5 554,-40.5 500,-40.5"/>
<text text-anchor="middle" x="527" y="-48.5" font-family="FreeSans" font-size="10.00">cleanup</text>
</a>
</g>
<!-- Node10&#45;&gt;Node11 -->
<g id="edge20" class="edge"><title>Node10&#45;&gt;Node11</title>
<path fill="none" stroke="midnightblue" d="M435.814,-77.6238C457.08,-71.4147 481.635,-64.2453 499.903,-58.9117"/>
<polygon fill="midnightblue" stroke="midnightblue" points="434.613,-74.328 425.995,-80.4905 436.575,-81.0474 434.613,-74.328"/>
</g>
<!-- Node13 -->
<g id="node27" class="node"><title>Node13</title>
<a xlink:href="hfa-lnx-ctx_8c.html#aaf98ef7cdde3a0dfb2e49919de3298b1" target="_top" xlink:title="exit">
<polygon fill="white" stroke="black" points="510.5,-80.5 510.5,-101.5 543.5,-101.5 543.5,-80.5 510.5,-80.5"/>
<text text-anchor="middle" x="527" y="-88.5" font-family="FreeSans" font-size="10.00">exit</text>
</a>
</g>
<!-- Node10&#45;&gt;Node13 -->
<g id="edge28" class="edge"><title>Node10&#45;&gt;Node13</title>
<path fill="none" stroke="midnightblue" d="M466.454,-91C483.022,-91 498.961,-91 510.323,-91"/>
<polygon fill="midnightblue" stroke="midnightblue" points="466.092,-87.5001 456.092,-91 466.092,-94.5001 466.092,-87.5001"/>
</g>
<!-- Node14 -->
<g id="node29" class="node"><title>Node14</title>
<a xlink:href="hfa-se-ngraphs_8c.html#a546f3769e735d4bef0bfab1cba56921c" target="_top" xlink:title="Load ngraphs into HFA memory and cache.">
<polygon fill="white" stroke="black" points="492.5,-0.5 492.5,-21.5 561.5,-21.5 561.5,-0.5 492.5,-0.5"/>
<text text-anchor="middle" x="527" y="-8.5" font-family="FreeSans" font-size="10.00">graph_load</text>
</a>
</g>
<!-- Node10&#45;&gt;Node14 -->
<g id="edge30" class="edge"><title>Node10&#45;&gt;Node14</title>
<path fill="none" stroke="midnightblue" d="M416.811,-75.1049C437.351,-62.9576 466.415,-45.8345 492,-31 497.328,-27.9109 503.129,-24.5822 508.448,-21.5438"/>
<polygon fill="midnightblue" stroke="midnightblue" points="414.84,-72.2045 408.017,-80.3098 418.405,-78.2285 414.84,-72.2045"/>
</g>
<!-- Node11&#45;&gt;Node8 -->
<g id="edge22" class="edge"><title>Node11&#45;&gt;Node8</title>
<path fill="none" stroke="midnightblue" d="M559.386,-68.0776C560.314,-69.0101 561.191,-69.9839 562,-71 596.43,-114.218 569.035,-142.944 598,-190 600.006,-193.259 602.671,-196.345 605.428,-199.074"/>
<polygon fill="midnightblue" stroke="midnightblue" points="561.456,-65.2514 551.464,-61.7273 557.077,-70.7131 561.456,-65.2514"/>
</g>
<!-- Node12 -->
<g id="node24" class="node"><title>Node12</title>
<a xlink:href="hfa-lnx-async_8c.html#aaf98ef7cdde3a0dfb2e49919de3298b1" target="_top" xlink:title="exit">
<polygon fill="white" stroke="black" points="602.5,-40.5 602.5,-61.5 635.5,-61.5 635.5,-40.5 602.5,-40.5"/>
<text text-anchor="middle" x="619" y="-48.5" font-family="FreeSans" font-size="10.00">exit</text>
</a>
</g>
<!-- Node11&#45;&gt;Node12 -->
<g id="edge24" class="edge"><title>Node11&#45;&gt;Node12</title>
<path fill="none" stroke="midnightblue" d="M564.42,-51C577.653,-51 591.868,-51 602.473,-51"/>
<polygon fill="midnightblue" stroke="midnightblue" points="564.105,-47.5001 554.105,-51 564.105,-54.5001 564.105,-47.5001"/>
</g>
<!-- Node15 -->
<g id="node31" class="node"><title>Node15</title>
<a xlink:href="hfa-se-ngraphs_8c.html#a3c04138a5bfe5d72780bb7e82a18e627" target="_top" xlink:title="main">
<polygon fill="white" stroke="black" points="599,-0.5 599,-21.5 639,-21.5 639,-0.5 599,-0.5"/>
<text text-anchor="middle" x="619" y="-8.5" font-family="FreeSans" font-size="10.00">main</text>
</a>
</g>
<!-- Node14&#45;&gt;Node15 -->
<g id="edge32" class="edge"><title>Node14&#45;&gt;Node15</title>
<path fill="none" stroke="midnightblue" d="M571.779,-11C581.332,-11 590.955,-11 598.998,-11"/>
<polygon fill="midnightblue" stroke="midnightblue" points="571.519,-7.5001 561.519,-11 571.519,-14.5001 571.519,-7.5001"/>
</g>
</g>
</svg>
