<?xml version="1.0" encoding="UTF-8" standalone="no"?>
<!DOCTYPE svg PUBLIC "-//W3C//DTD SVG 1.1//EN"
 "http://www.w3.org/Graphics/SVG/1.1/DTD/svg11.dtd">
<!-- Generated by graphviz version 2.24.0 (20090616.2323)
 -->
<!-- Title: Radd Pages: 1 -->
<!--zoomable 289 -->
<svg id="main" version="1.1" xmlns="http://www.w3.org/2000/svg" xmlns:xlink="http://www.w3.org/1999/xlink" xml:space="preserve" onload="init(evt)">
        <defs>
                <circle id="rim" cx="0" cy="0" r="7"/>
                <circle id="rim2" cx="0" cy="0" r="3.5"/>
                <g id="zoomPlus">
                        <use xlink:href="#rim" fill="#404040">
                                <set attributeName="fill" to="#808080" begin="zoomplus.mouseover" end="zoomplus.mouseout"/>
                        </use>
                        <path d="M-4,0h8M0,-4v8" fill="none" stroke="white" stroke-width="1.5" pointer-events="none"/>
                </g>
                <g id="zoomMin">
                        <use xlink:href="#rim" fill="#404040">
                                <set attributeName="fill" to="#808080" begin="zoomminus.mouseover" end="zoomminus.mouseout"/>
                        </use>
                        <path d="M-4,0h8" fill="none" stroke="white" stroke-width="1.5" pointer-events="none"/>
                </g>
                <g id="dirArrow">
                        <path fill="none" stroke="white" stroke-width="1.5" d="M0,-3.0v7 M-2.5,-0.5L0,-3.0L2.5,-0.5"/>
                </g>
               <g id="resetDef">
                       <use xlink:href="#rim2" fill="#404040">
                               <set attributeName="fill" to="#808080" begin="reset.mouseover" end="reset.mouseout"/>
                       </use>
               </g>
        </defs>

<script type="text/javascript">
var viewWidth = 1152;
var viewHeight = 289;
var sectionId = 'dynsection-0';
</script>
<script xlink:href="svgpan.js"/>
<svg id="graph" class="graph">
<g id="viewport">
<title>Radd</title>
<polygon fill="white" stroke="white" points="-4,5 -4,-285 1149,-285 1149,5 -4,5"/>
<!-- Node1 -->
<g id="node1" class="node"><title>Node1</title>
<polygon fill="#bfbfbf" stroke="black" points="0.5,-120.5 0.5,-141.5 41.5,-141.5 41.5,-120.5 0.5,-120.5"/>
<text text-anchor="middle" x="21" y="-128.5" font-family="FreeSans" font-size="10.00">Radd</text>
</g>
<!-- Node2 -->
<g id="node3" class="node"><title>Node2</title>
<a xlink:href="cvm-hfa-res_8h.html#a6c56aa24fa6551b23e4283ae2d5bcad8" target="_top" xlink:title="Rreport1">
<polygon fill="white" stroke="black" points="78.5,-120.5 78.5,-141.5 135.5,-141.5 135.5,-120.5 78.5,-120.5"/>
<text text-anchor="middle" x="107" y="-128.5" font-family="FreeSans" font-size="10.00">Rreport1</text>
</a>
</g>
<!-- Node1&#45;&gt;Node2 -->
<g id="edge2" class="edge"><title>Node1&#45;&gt;Node2</title>
<path fill="none" stroke="midnightblue" d="M51.8594,-131C60.4635,-131 69.7739,-131 78.2512,-131"/>
<polygon fill="midnightblue" stroke="midnightblue" points="51.8182,-127.5 41.8182,-131 51.8182,-134.5 51.8182,-127.5"/>
</g>
<!-- Node3 -->
<g id="node5" class="node"><title>Node3</title>
<a xlink:href="ppdfa_8h.html#a81b3389c2c25a4ba308f71501f980e38" target="_top" xlink:title="pp">
<polygon fill="white" stroke="black" points="172.5,-120.5 172.5,-141.5 201.5,-141.5 201.5,-120.5 172.5,-120.5"/>
<text text-anchor="middle" x="187" y="-128.5" font-family="FreeSans" font-size="10.00">pp</text>
</a>
</g>
<!-- Node2&#45;&gt;Node3 -->
<g id="edge4" class="edge"><title>Node2&#45;&gt;Node3</title>
<path fill="none" stroke="midnightblue" d="M145.952,-131C155.351,-131 164.828,-131 172.303,-131"/>
<polygon fill="midnightblue" stroke="midnightblue" points="145.882,-127.5 135.882,-131 145.882,-134.5 145.882,-127.5"/>
</g>
<!-- Node4 -->
<g id="node7" class="node"><title>Node4</title>
<a xlink:href="cvm-hfa-search_8c.html#a6dbb15dc58155b2c94b19784ad42ef89" target="_top" xlink:title="This routine post&#45;processes the search results from the HFA engine and reports the pattern matches fo...">
<polygon fill="white" stroke="black" points="238.5,-120.5 238.5,-141.5 385.5,-141.5 385.5,-120.5 238.5,-120.5"/>
<text text-anchor="middle" x="312" y="-128.5" font-family="FreeSans" font-size="10.00">hfa_searchctx_getmatches</text>
</a>
</g>
<!-- Node3&#45;&gt;Node4 -->
<g id="edge6" class="edge"><title>Node3&#45;&gt;Node4</title>
<path fill="none" stroke="midnightblue" d="M211.986,-131C219.825,-131 228.914,-131 238.354,-131"/>
<polygon fill="midnightblue" stroke="midnightblue" points="211.83,-127.5 201.83,-131 211.83,-134.5 211.83,-127.5"/>
</g>
<!-- Node5 -->
<g id="node9" class="node"><title>Node5</title>
<a xlink:href="flow_8c.html#a2976ab60901b133a56214323fb901663" target="_top" xlink:title="Low level API to poll a flow.">
<polygon fill="white" stroke="black" points="422.5,-259.5 422.5,-280.5 551.5,-280.5 551.5,-259.5 422.5,-259.5"/>
<text text-anchor="middle" x="487" y="-267.5" font-family="FreeSans" font-size="10.00">__hfaf_process_pktflow</text>
</a>
</g>
<!-- Node4&#45;&gt;Node5 -->
<g id="edge8" class="edge"><title>Node4&#45;&gt;Node5</title>
<path fill="none" stroke="midnightblue" d="M329.543,-148.979C350.494,-169.954 387.1,-205.063 422,-231 436.365,-241.676 453.812,-252.015 467.012,-259.363"/>
<polygon fill="midnightblue" stroke="midnightblue" points="331.839,-146.323 322.316,-141.68 326.865,-151.249 331.839,-146.323"/>
</g>
<!-- Node11 -->
<g id="node21" class="node"><title>Node11</title>
<a xlink:href="hfa-lnx-async_8c.html#a972f8b60ef804914c009c2ef85bac50e" target="_top" xlink:title="Process search for given payload and graph.">
<polygon fill="white" stroke="black" points="441,-200.5 441,-221.5 533,-221.5 533,-200.5 441,-200.5"/>
<text text-anchor="middle" x="487" y="-208.5" font-family="FreeSans" font-size="10.00">process_search</text>
</a>
</g>
<!-- Node4&#45;&gt;Node11 -->
<g id="edge20" class="edge"><title>Node4&#45;&gt;Node11</title>
<path fill="none" stroke="midnightblue" d="M337.659,-146.921C359.497,-159.997 392.007,-178.357 422,-191 430.269,-194.485 439.357,-197.664 448.048,-200.411"/>
<polygon fill="midnightblue" stroke="midnightblue" points="339.358,-143.858 328.991,-141.673 335.732,-149.846 339.358,-143.858"/>
</g>
<!-- Node15 -->
<g id="node30" class="node"><title>Node15</title>
<a xlink:href="hfa-lnx-ctx_8c.html#a71e1d3d18cc48b90a1ecde583ffb3f7a" target="_top" xlink:title="poll_searchctx">
<polygon fill="white" stroke="black" points="444,-160.5 444,-181.5 530,-181.5 530,-160.5 444,-160.5"/>
<text text-anchor="middle" x="487" y="-168.5" font-family="FreeSans" font-size="10.00">poll_searchctx</text>
</a>
</g>
<!-- Node4&#45;&gt;Node15 -->
<g id="edge30" class="edge"><title>Node4&#45;&gt;Node15</title>
<path fill="none" stroke="midnightblue" d="M367.885,-143.774C392.439,-149.386 420.83,-155.875 443.735,-161.111"/>
<polygon fill="midnightblue" stroke="midnightblue" points="368.508,-140.326 357.979,-141.51 366.948,-147.15 368.508,-140.326"/>
</g>
<!-- Node18 -->
<g id="node36" class="node"><title>Node18</title>
<a xlink:href="hfa-lnx-linkgraph_8c.html#a78ffddbcd7cdd164889cfb53ea367886" target="_top" xlink:title="entry">
<polygon fill="white" stroke="black" points="466.5,-120.5 466.5,-141.5 507.5,-141.5 507.5,-120.5 466.5,-120.5"/>
<text text-anchor="middle" x="487" y="-128.5" font-family="FreeSans" font-size="10.00">entry</text>
</a>
</g>
<!-- Node4&#45;&gt;Node18 -->
<g id="edge36" class="edge"><title>Node4&#45;&gt;Node18</title>
<path fill="none" stroke="midnightblue" d="M395.738,-131C422.018,-131 448.75,-131 466.431,-131"/>
<polygon fill="midnightblue" stroke="midnightblue" points="395.709,-127.5 385.709,-131 395.709,-134.5 395.709,-127.5"/>
</g>
<!-- Node19 -->
<g id="node38" class="node"><title>Node19</title>
<a xlink:href="hfa-lnx-nctx-lock_8c.html#adb0c831ef0f9af5441a6769c377d9c95" target="_top" xlink:title="Post process the results from HFA and record found matches.">
<polygon fill="white" stroke="black" points="447,-80.5 447,-101.5 527,-101.5 527,-80.5 447,-80.5"/>
<text text-anchor="middle" x="487" y="-88.5" font-family="FreeSans" font-size="10.00">post_process</text>
</a>
</g>
<!-- Node4&#45;&gt;Node19 -->
<g id="edge38" class="edge"><title>Node4&#45;&gt;Node19</title>
<path fill="none" stroke="midnightblue" d="M367.97,-118.207C393.678,-112.331 423.577,-105.497 446.978,-100.148"/>
<polygon fill="midnightblue" stroke="midnightblue" points="366.948,-114.85 357.979,-120.49 368.508,-121.674 366.948,-114.85"/>
</g>
<!-- Node22 -->
<g id="node45" class="node"><title>Node22</title>
<a xlink:href="hfa-se-async_8c.html#a3c04138a5bfe5d72780bb7e82a18e627" target="_top" xlink:title="main">
<polygon fill="white" stroke="black" points="467,-40.5 467,-61.5 507,-61.5 507,-40.5 467,-40.5"/>
<text text-anchor="middle" x="487" y="-48.5" font-family="FreeSans" font-size="10.00">main</text>
</a>
</g>
<!-- Node4&#45;&gt;Node22 -->
<g id="edge46" class="edge"><title>Node4&#45;&gt;Node22</title>
<path fill="none" stroke="midnightblue" d="M337.659,-115.079C359.497,-102.003 392.007,-83.6427 422,-71 436.579,-64.8547 453.705,-59.663 466.717,-56.1103"/>
<polygon fill="midnightblue" stroke="midnightblue" points="335.732,-112.154 328.991,-120.327 339.358,-118.142 335.732,-112.154"/>
</g>
<!-- Node23 -->
<g id="node47" class="node"><title>Node23</title>
<a xlink:href="hfa-se-wqe-lock_8c.html#a06b5fcfab0e1d5eb36b633ec080ad7f9" target="_top" xlink:title="Process search for given contexts.">
<polygon fill="white" stroke="black" points="447,-0.5 447,-21.5 527,-21.5 527,-0.5 447,-0.5"/>
<text text-anchor="middle" x="487" y="-8.5" font-family="FreeSans" font-size="10.00">process_nctx</text>
</a>
</g>
<!-- Node4&#45;&gt;Node23 -->
<g id="edge48" class="edge"><title>Node4&#45;&gt;Node23</title>
<path fill="none" stroke="midnightblue" d="M327.6,-112.53C347.402,-90.1933 383.629,-52.876 422,-31 429.59,-26.6727 438.223,-23.176 446.663,-20.3913"/>
<polygon fill="midnightblue" stroke="midnightblue" points="324.768,-110.453 320.845,-120.294 330.049,-115.048 324.768,-110.453"/>
</g>
<!-- Node6 -->
<g id="node11" class="node"><title>Node6</title>
<a xlink:href="flow_8h.html#ab1b3378af88a440a6c3c0851be942e65" target="_top" xlink:title="All submitted search parameters in Paramlist of flow are polled If low level API __hfaf_process_pktfl...">
<polygon fill="white" stroke="black" points="588.5,-259.5 588.5,-280.5 707.5,-280.5 707.5,-259.5 588.5,-259.5"/>
<text text-anchor="middle" x="648" y="-267.5" font-family="FreeSans" font-size="10.00">hfaf_process_pktflow</text>
</a>
</g>
<!-- Node5&#45;&gt;Node6 -->
<g id="edge10" class="edge"><title>Node5&#45;&gt;Node6</title>
<path fill="none" stroke="midnightblue" d="M561.622,-270C570.594,-270 579.665,-270 588.384,-270"/>
<polygon fill="midnightblue" stroke="midnightblue" points="561.557,-266.5 551.557,-270 561.557,-273.5 561.557,-266.5"/>
</g>
<!-- Node7 -->
<g id="node13" class="node"><title>Node7</title>
<a xlink:href="hfa-se-flow_8c.html#a2d83c733eacd7afc955c3af18edcb52a" target="_top" xlink:title="Polls for a submitted search instruction of a flow.">
<polygon fill="white" stroke="black" points="747.5,-259.5 747.5,-280.5 832.5,-280.5 832.5,-259.5 747.5,-259.5"/>
<text text-anchor="middle" x="790" y="-267.5" font-family="FreeSans" font-size="10.00">__processflow</text>
</a>
</g>
<!-- Node6&#45;&gt;Node7 -->
<g id="edge12" class="edge"><title>Node6&#45;&gt;Node7</title>
<path fill="none" stroke="midnightblue" d="M718.083,-270C727.981,-270 737.902,-270 747.078,-270"/>
<polygon fill="midnightblue" stroke="midnightblue" points="717.809,-266.5 707.809,-270 717.809,-273.5 717.809,-266.5"/>
</g>
<!-- Node8 -->
<g id="node15" class="node"><title>Node8</title>
<a xlink:href="hfa-se-flow_8c.html#a786591694a8f8fb46cedbc8a580c88f6" target="_top" xlink:title="Submitting or Polling flows from the software recently used cache IF Cache is empty, it tries to refill it.">
<polygon fill="white" stroke="black" points="872.5,-259.5 872.5,-280.5 935.5,-280.5 935.5,-259.5 872.5,-259.5"/>
<text text-anchor="middle" x="904" y="-267.5" font-family="FreeSans" font-size="10.00">do_cache</text>
</a>
</g>
<!-- Node7&#45;&gt;Node8 -->
<g id="edge14" class="edge"><title>Node7&#45;&gt;Node8</title>
<path fill="none" stroke="midnightblue" d="M842.784,-270C852.902,-270 863.197,-270 872.387,-270"/>
<polygon fill="midnightblue" stroke="midnightblue" points="842.774,-266.5 832.774,-270 842.774,-273.5 842.774,-266.5"/>
</g>
<!-- Node9 -->
<g id="node17" class="node"><title>Node9</title>
<a xlink:href="hfa-se-flow_8c.html#aba72a61590283e37ffd78b4defd38220" target="_top" xlink:title="Receive network packets and process.">
<polygon fill="white" stroke="black" points="972,-259.5 972,-280.5 1068,-280.5 1068,-259.5 972,-259.5"/>
<text text-anchor="middle" x="1020" y="-267.5" font-family="FreeSans" font-size="10.00">process_packets</text>
</a>
</g>
<!-- Node8&#45;&gt;Node9 -->
<g id="edge16" class="edge"><title>Node8&#45;&gt;Node9</title>
<path fill="none" stroke="midnightblue" d="M945.711,-270C954.17,-270 963.131,-270 971.792,-270"/>
<polygon fill="midnightblue" stroke="midnightblue" points="945.698,-266.5 935.698,-270 945.697,-273.5 945.698,-266.5"/>
</g>
<!-- Node10 -->
<g id="node19" class="node"><title>Node10</title>
<a xlink:href="hfa-se-flow-wqe_8c.html#a3c04138a5bfe5d72780bb7e82a18e627" target="_top" xlink:title="Implementation.">
<polygon fill="white" stroke="black" points="1104,-259.5 1104,-280.5 1144,-280.5 1144,-259.5 1104,-259.5"/>
<text text-anchor="middle" x="1124" y="-267.5" font-family="FreeSans" font-size="10.00">main</text>
</a>
</g>
<!-- Node9&#45;&gt;Node10 -->
<g id="edge18" class="edge"><title>Node9&#45;&gt;Node10</title>
<path fill="none" stroke="midnightblue" d="M1078.15,-270C1087.41,-270 1096.42,-270 1103.96,-270"/>
<polygon fill="midnightblue" stroke="midnightblue" points="1078.04,-266.5 1068.04,-270 1078.04,-273.5 1078.04,-266.5"/>
</g>
<!-- Node12 -->
<g id="node23" class="node"><title>Node12</title>
<a xlink:href="hfa-lnx-async_8c.html#a1e97b1d598034fdc92d57054a6c386e6" target="_top" xlink:title="tasklet_callback">
<polygon fill="white" stroke="black" points="602,-219.5 602,-240.5 694,-240.5 694,-219.5 602,-219.5"/>
<text text-anchor="middle" x="648" y="-227.5" font-family="FreeSans" font-size="10.00">tasklet_callback</text>
</a>
</g>
<!-- Node11&#45;&gt;Node12 -->
<g id="edge22" class="edge"><title>Node11&#45;&gt;Node12</title>
<path fill="none" stroke="midnightblue" d="M543.242,-217.637C562.401,-219.898 583.583,-222.398 601.857,-224.555"/>
<polygon fill="midnightblue" stroke="midnightblue" points="543.477,-214.141 533.136,-216.445 542.657,-221.093 543.477,-214.141"/>
</g>
<!-- Node14 -->
<g id="node27" class="node"><title>Node14</title>
<a xlink:href="hfa-lnx-async_8c.html#a7dea7d59754828b1173c4c7ec5d42f3e" target="_top" xlink:title="thread_callback">
<polygon fill="white" stroke="black" points="602,-179.5 602,-200.5 694,-200.5 694,-179.5 602,-179.5"/>
<text text-anchor="middle" x="648" y="-187.5" font-family="FreeSans" font-size="10.00">thread_callback</text>
</a>
</g>
<!-- Node11&#45;&gt;Node14 -->
<g id="edge26" class="edge"><title>Node11&#45;&gt;Node14</title>
<path fill="none" stroke="midnightblue" d="M543.242,-203.664C562.401,-201.165 583.583,-198.402 601.857,-196.019"/>
<polygon fill="midnightblue" stroke="midnightblue" points="542.599,-200.218 533.136,-204.982 543.505,-207.159 542.599,-200.218"/>
</g>
<!-- Node13 -->
<g id="node25" class="node"><title>Node13</title>
<a xlink:href="hfa-lnx-async_8c.html#a78ffddbcd7cdd164889cfb53ea367886" target="_top" xlink:title="entry">
<polygon fill="white" stroke="black" points="769.5,-199.5 769.5,-220.5 810.5,-220.5 810.5,-199.5 769.5,-199.5"/>
<text text-anchor="middle" x="790" y="-207.5" font-family="FreeSans" font-size="10.00">entry</text>
</a>
</g>
<!-- Node12&#45;&gt;Node13 -->
<g id="edge24" class="edge"><title>Node12&#45;&gt;Node13</title>
<path fill="none" stroke="midnightblue" d="M704.147,-222.092C727.168,-218.85 752.37,-215.3 769.476,-212.891"/>
<polygon fill="midnightblue" stroke="midnightblue" points="703.517,-218.646 694.103,-223.507 704.494,-225.578 703.517,-218.646"/>
</g>
<!-- Node14&#45;&gt;Node13 -->
<g id="edge28" class="edge"><title>Node14&#45;&gt;Node13</title>
<path fill="none" stroke="midnightblue" d="M704.147,-197.908C727.168,-201.15 752.37,-204.7 769.476,-207.109"/>
<polygon fill="midnightblue" stroke="midnightblue" points="704.494,-194.422 694.103,-196.493 703.517,-201.354 704.494,-194.422"/>
</g>
<!-- Node16 -->
<g id="node32" class="node"><title>Node16</title>
<a xlink:href="hfa-lnx-ctx_8c.html#a934a9fc08c4aab25d6f0d861e4a4f762" target="_top" xlink:title="poll">
<polygon fill="white" stroke="black" points="631.5,-139.5 631.5,-160.5 664.5,-160.5 664.5,-139.5 631.5,-139.5"/>
<text text-anchor="middle" x="648" y="-147.5" font-family="FreeSans" font-size="10.00">poll</text>
</a>
</g>
<!-- Node15&#45;&gt;Node16 -->
<g id="edge32" class="edge"><title>Node15&#45;&gt;Node16</title>
<path fill="none" stroke="midnightblue" d="M540.199,-164.061C571.953,-159.919 610.135,-154.939 631.478,-152.155"/>
<polygon fill="midnightblue" stroke="midnightblue" points="539.608,-160.608 530.145,-165.372 540.514,-167.55 539.608,-160.608"/>
</g>
<!-- Node17 -->
<g id="node34" class="node"><title>Node17</title>
<a xlink:href="hfa-lnx-ctx_8c.html#a97df0ba8293c1b8436547946fd9d0d17" target="_top" xlink:title="process_pkt">
<polygon fill="white" stroke="black" points="753,-139.5 753,-160.5 827,-160.5 827,-139.5 753,-139.5"/>
<text text-anchor="middle" x="790" y="-147.5" font-family="FreeSans" font-size="10.00">process_pkt</text>
</a>
</g>
<!-- Node16&#45;&gt;Node17 -->
<g id="edge34" class="edge"><title>Node16&#45;&gt;Node17</title>
<path fill="none" stroke="midnightblue" d="M674.858,-150C696.909,-150 728.376,-150 752.843,-150"/>
<polygon fill="midnightblue" stroke="midnightblue" points="674.567,-146.5 664.567,-150 674.567,-153.5 674.567,-146.5"/>
</g>
<!-- Node20 -->
<g id="node40" class="node"><title>Node20</title>
<a xlink:href="hfa-lnx-nctx-lock_8c.html#a48d3743fb7abc7d3c6b68359678e52a1" target="_top" xlink:title="Poll for the pending search instructions in the HW (blocked till instruction completes) and process t...">
<polygon fill="white" stroke="black" points="631.5,-90.5 631.5,-111.5 664.5,-111.5 664.5,-90.5 631.5,-90.5"/>
<text text-anchor="middle" x="648" y="-98.5" font-family="FreeSans" font-size="10.00">poll</text>
</a>
</g>
<!-- Node19&#45;&gt;Node20 -->
<g id="edge40" class="edge"><title>Node19&#45;&gt;Node20</title>
<path fill="none" stroke="midnightblue" d="M537.363,-94.1281C569.538,-96.1266 609.22,-98.5913 631.249,-99.9596"/>
<polygon fill="midnightblue" stroke="midnightblue" points="537.41,-90.6244 527.212,-93.4976 536.976,-97.6109 537.41,-90.6244"/>
</g>
<!-- Node21 -->
<g id="node42" class="node"><title>Node21</title>
<a xlink:href="hfa-lnx-nctx-lock_8c.html#a972f8b60ef804914c009c2ef85bac50e" target="_top" xlink:title="Performs search process for each core.">
<polygon fill="white" stroke="black" points="744,-71.5 744,-92.5 836,-92.5 836,-71.5 744,-71.5"/>
<text text-anchor="middle" x="790" y="-79.5" font-family="FreeSans" font-size="10.00">process_search</text>
</a>
</g>
<!-- Node19&#45;&gt;Node21 -->
<g id="edge44" class="edge"><title>Node19&#45;&gt;Node21</title>
<path fill="none" stroke="midnightblue" d="M537.524,-85.0106C553.631,-83.3661 571.542,-81.8128 588,-81 641.268,-78.3694 654.668,-80.6748 708,-81 719.532,-81.0703 731.976,-81.1962 743.599,-81.3356"/>
<polygon fill="midnightblue" stroke="midnightblue" points="536.81,-81.5664 527.233,-86.0975 537.546,-88.5277 536.81,-81.5664"/>
</g>
<!-- Node20&#45;&gt;Node21 -->
<g id="edge42" class="edge"><title>Node20&#45;&gt;Node21</title>
<path fill="none" stroke="midnightblue" d="M674.532,-97.4499C693.979,-94.8479 720.875,-91.2491 743.817,-88.1794"/>
<polygon fill="midnightblue" stroke="midnightblue" points="674.015,-93.9879 664.567,-98.7833 674.943,-100.926 674.015,-93.9879"/>
</g>
<!-- Node24 -->
<g id="node49" class="node"><title>Node24</title>
<a xlink:href="hfa-se-wqe-lock_8c.html#a3c04138a5bfe5d72780bb7e82a18e627" target="_top" xlink:title="main">
<polygon fill="white" stroke="black" points="628,-0.5 628,-21.5 668,-21.5 668,-0.5 628,-0.5"/>
<text text-anchor="middle" x="648" y="-8.5" font-family="FreeSans" font-size="10.00">main</text>
</a>
</g>
<!-- Node23&#45;&gt;Node24 -->
<g id="edge50" class="edge"><title>Node23&#45;&gt;Node24</title>
<path fill="none" stroke="midnightblue" d="M537.298,-11C567.9,-11 605.313,-11 627.869,-11"/>
<polygon fill="midnightblue" stroke="midnightblue" points="537.212,-7.5001 527.212,-11 537.212,-14.5001 537.212,-7.5001"/>
</g>
</g>
</svg>
        <g id="navigator" transform="translate(0 0)" fill="#404254">
                <rect fill="#f2f5e9" fill-opacity="0.5" stroke="#606060" stroke-width=".5" x="0" y="0" width="60" height="60"/>
                <use id="zoomplus" xlink:href="#zoomPlus" x="17" y="9" onmousedown="handleZoom(evt,'in')"/>
                <use id="zoomminus" xlink:href="#zoomMin" x="42" y="9" onmousedown="handleZoom(evt,'out')"/>
                <use id="reset" xlink:href="#resetDef" x="30" y="36" onmousedown="handleReset()"/>
                <g id="arrowUp" xlink:href="#dirArrow" transform="translate(30 24)" onmousedown="handlePan(0,-1)">
                  <use xlink:href="#rim" fill="#404040">
                        <set attributeName="fill" to="#808080" begin="arrowUp.mouseover" end="arrowUp.mouseout"/>
                  </use>
                  <path fill="none" stroke="white" stroke-width="1.5" d="M0,-3.0v7 M-2.5,-0.5L0,-3.0L2.5,-0.5"/>
                </g>
                <g id="arrowRight" xlink:href="#dirArrow" transform="rotate(90) translate(36 -43)" onmousedown="handlePan(1,0)">
                  <use xlink:href="#rim" fill="#404040">
                        <set attributeName="fill" to="#808080" begin="arrowRight.mouseover" end="arrowRight.mouseout"/>
                  </use>
                  <path fill="none" stroke="white" stroke-width="1.5" d="M0,-3.0v7 M-2.5,-0.5L0,-3.0L2.5,-0.5"/>
                </g>
                <g id="arrowDown" xlink:href="#dirArrow" transform="rotate(180) translate(-30 -48)" onmousedown="handlePan(0,1)">
                  <use xlink:href="#rim" fill="#404040">
                        <set attributeName="fill" to="#808080" begin="arrowDown.mouseover" end="arrowDown.mouseout"/>
                  </use>
                  <path fill="none" stroke="white" stroke-width="1.5" d="M0,-3.0v7 M-2.5,-0.5L0,-3.0L2.5,-0.5"/>
                </g>
                <g id="arrowLeft" xlink:href="#dirArrow" transform="rotate(270) translate(-36 17)" onmousedown="handlePan(-1,0)">
                  <use xlink:href="#rim" fill="#404040">
                        <set attributeName="fill" to="#808080" begin="arrowLeft.mouseover" end="arrowLeft.mouseout"/>
                  </use>
                  <path fill="none" stroke="white" stroke-width="1.5" d="M0,-3.0v7 M-2.5,-0.5L0,-3.0L2.5,-0.5"/>
                </g>
        </g>
        <svg viewBox="0 0 15 15" width="100%" height="30px" preserveAspectRatio="xMaxYMin meet">
         <g id="arrow_out" transform="scale(0.3 0.3)">
          <a xlink:href="cvm-hfa-res_8c_a70c9e55ba1fcb934f74ad71ddca9d08f_icgraph_org.svg" target="_base">
           <rect id="button" ry="5" rx="5" y="6" x="6" height="38" width="38"
                fill="#f2f5e9" fill-opacity="0.5" stroke="#606060" stroke-width="1.0"/>
           <path id="arrow"
             d="M 11.500037,31.436501 C 11.940474,20.09759 22.043105,11.32322 32.158766,21.979434 L 37.068811,17.246167 C 37.068811,17.246167 37.088388,32 37.088388,32 L 22.160133,31.978069 C 22.160133,31.978069 26.997745,27.140456 26.997745,27.140456 C 18.528582,18.264221 13.291696,25.230495 11.500037,31.436501 z"
             style="fill:#404040;"/>
          </a>
         </g>
        </svg>
</svg>
