<?xml version="1.0" encoding="UTF-8" standalone="no"?>
<!DOCTYPE svg PUBLIC "-//W3C//DTD SVG 1.1//EN"
 "http://www.w3.org/Graphics/SVG/1.1/DTD/svg11.dtd">
<!-- Generated by graphviz version 2.24.0 (20090616.2323)
 -->
<!-- Title: hfa_searchctx_getmatches Pages: 1 -->
<svg width="828pt" height="1402pt"
 viewBox="0.00 0.00 828.00 1402.00" xmlns="http://www.w3.org/2000/svg" xmlns:xlink="http://www.w3.org/1999/xlink">
<g id="graph1" class="graph" transform="scale(1 1) rotate(0) translate(4 1398)">
<title>hfa_searchctx_getmatches</title>
<polygon fill="white" stroke="white" points="-4,5 -4,-1398 825,-1398 825,5 -4,5"/>
<!-- Node1 -->
<g id="node1" class="node"><title>Node1</title>
<polygon fill="#bfbfbf" stroke="black" points="0.5,-398.5 0.5,-419.5 147.5,-419.5 147.5,-398.5 0.5,-398.5"/>
<text text-anchor="middle" x="74" y="-406.5" font-family="FreeSans" font-size="10.00">hfa_searchctx_getmatches</text>
</g>
<!-- Node2 -->
<g id="node3" class="node"><title>Node2</title>
<a xlink:href="cvm-hfa-common_8h.html#a0da7c57174fb96d75ae9cc2ed3116a05" target="_top" xlink:title="Dump buffer pointed by &quot;buf&quot; in readable format.">
<polygon fill="white" stroke="black" points="184,-438.5 184,-459.5 270,-459.5 270,-438.5 184,-438.5"/>
<text text-anchor="middle" x="227" y="-446.5" font-family="FreeSans" font-size="10.00">hfa_dump_buf</text>
</a>
</g>
<!-- Node1&#45;&gt;Node2 -->
<g id="edge2" class="edge"><title>Node1&#45;&gt;Node2</title>
<path fill="none" stroke="midnightblue" d="M114.199,-419.51C133.449,-424.542 156.691,-430.619 177.064,-435.945"/>
<polygon fill="midnightblue" stroke="midnightblue" points="176.244,-439.348 186.804,-438.491 178.015,-432.576 176.244,-439.348"/>
</g>
<!-- Node3 -->
<g id="node5" class="node"><title>Node3</title>
<a xlink:href="cvm-hfa-pp_8c.html#a02d24f276578f8a39a93968262a08f1d" target="_top" xlink:title="pp">
<polygon fill="white" stroke="black" points="212.5,-398.5 212.5,-419.5 241.5,-419.5 241.5,-398.5 212.5,-398.5"/>
<text text-anchor="middle" x="227" y="-406.5" font-family="FreeSans" font-size="10.00">pp</text>
</a>
</g>
<!-- Node1&#45;&gt;Node3 -->
<g id="edge4" class="edge"><title>Node1&#45;&gt;Node3</title>
<path fill="none" stroke="midnightblue" d="M147.811,-409C167.297,-409 187.016,-409 201.902,-409"/>
<polygon fill="midnightblue" stroke="midnightblue" points="202.26,-412.5 212.26,-409 202.26,-405.5 202.26,-412.5"/>
</g>
<!-- Node4 -->
<g id="node7" class="node"><title>Node4</title>
<a xlink:href="pp_8h.html#af7a68f9e08d3b54012ad008a4f47e1cd" target="_top" xlink:title="pphfa">
<polygon fill="white" stroke="black" points="314,-458.5 314,-479.5 358,-479.5 358,-458.5 314,-458.5"/>
<text text-anchor="middle" x="336" y="-466.5" font-family="FreeSans" font-size="10.00">pphfa</text>
</a>
</g>
<!-- Node3&#45;&gt;Node4 -->
<g id="edge6" class="edge"><title>Node3&#45;&gt;Node4</title>
<path fill="none" stroke="midnightblue" d="M241.527,-415.279C249.952,-419.039 260.702,-424.039 270,-429 283.847,-436.388 298.841,-445.39 311.033,-452.982"/>
<polygon fill="midnightblue" stroke="midnightblue" points="309.417,-456.1 319.745,-458.463 313.144,-450.175 309.417,-456.1"/>
</g>
<!-- Node5 -->
<g id="node9" class="node"><title>Node5</title>
<a xlink:href="cvm-hfa-res_8c.html#ad0de0b790a5786053d59797884dbdd23" target="_top" xlink:title="Rinit">
<polygon fill="white" stroke="black" points="318,-418.5 318,-439.5 354,-439.5 354,-418.5 318,-418.5"/>
<text text-anchor="middle" x="336" y="-426.5" font-family="FreeSans" font-size="10.00">Rinit</text>
</a>
</g>
<!-- Node3&#45;&gt;Node5 -->
<g id="edge8" class="edge"><title>Node3&#45;&gt;Node5</title>
<path fill="none" stroke="midnightblue" d="M241.7,-411.697C258.602,-414.799 286.733,-419.96 307.88,-423.84"/>
<polygon fill="midnightblue" stroke="midnightblue" points="307.445,-427.319 317.913,-425.681 308.709,-420.434 307.445,-427.319"/>
</g>
<!-- Node6 -->
<g id="node11" class="node"><title>Node6</title>
<a xlink:href="cvm-hfa-pp_8c.html#adcc1149c628372e2e566c246870929cb" target="_top" xlink:title="infoentry">
<polygon fill="white" stroke="black" points="306.5,-338.5 306.5,-359.5 365.5,-359.5 365.5,-338.5 306.5,-338.5"/>
<text text-anchor="middle" x="336" y="-346.5" font-family="FreeSans" font-size="10.00">infoentry</text>
</a>
</g>
<!-- Node3&#45;&gt;Node6 -->
<g id="edge10" class="edge"><title>Node3&#45;&gt;Node6</title>
<path fill="none" stroke="midnightblue" d="M241.7,-400.908C258.607,-391.602 286.75,-376.11 307.899,-364.468"/>
<polygon fill="midnightblue" stroke="midnightblue" points="309.697,-367.474 316.77,-359.585 306.321,-361.342 309.697,-367.474"/>
</g>
<!-- Node48 -->
<g id="node96" class="node"><title>Node48</title>
<a xlink:href="cvm-hfa-res_8c.html#a6c56aa24fa6551b23e4283ae2d5bcad8" target="_top" xlink:title="Rreport1">
<polygon fill="white" stroke="black" points="307.5,-378.5 307.5,-399.5 364.5,-399.5 364.5,-378.5 307.5,-378.5"/>
<text text-anchor="middle" x="336" y="-386.5" font-family="FreeSans" font-size="10.00">Rreport1</text>
</a>
</g>
<!-- Node3&#45;&gt;Node48 -->
<g id="edge96" class="edge"><title>Node3&#45;&gt;Node48</title>
<path fill="none" stroke="midnightblue" d="M241.7,-406.303C255.886,-403.7 277.983,-399.645 297.221,-396.115"/>
<polygon fill="midnightblue" stroke="midnightblue" points="298.051,-399.522 307.255,-394.274 296.787,-392.637 298.051,-399.522"/>
</g>
<!-- Node50 -->
<g id="node100" class="node"><title>Node50</title>
<a xlink:href="cvm-hfa-res_8c.html#a38aa04fce135199ec3bb8726da163846" target="_top" xlink:title="Rfinish">
<polygon fill="white" stroke="black" points="312,-498.5 312,-519.5 360,-519.5 360,-498.5 312,-498.5"/>
<text text-anchor="middle" x="336" y="-506.5" font-family="FreeSans" font-size="10.00">Rfinish</text>
</a>
</g>
<!-- Node3&#45;&gt;Node50 -->
<g id="edge100" class="edge"><title>Node3&#45;&gt;Node50</title>
<path fill="none" stroke="midnightblue" d="M241.807,-413.414C250.742,-416.639 261.922,-421.729 270,-429 293.114,-449.805 284.539,-466.493 306,-489 307.026,-490.076 308.12,-491.124 309.26,-492.141"/>
<polygon fill="midnightblue" stroke="midnightblue" points="307.191,-494.966 317.231,-498.348 311.491,-489.443 307.191,-494.966"/>
</g>
<!-- Node7 -->
<g id="node13" class="node"><title>Node7</title>
<a xlink:href="hfa-lnx_8c.html#a78ffddbcd7cdd164889cfb53ea367886" target="_top" xlink:title="entry">
<polygon fill="white" stroke="black" points="408.5,-299.5 408.5,-320.5 449.5,-320.5 449.5,-299.5 408.5,-299.5"/>
<text text-anchor="middle" x="429" y="-307.5" font-family="FreeSans" font-size="10.00">entry</text>
</a>
</g>
<!-- Node6&#45;&gt;Node7 -->
<g id="edge12" class="edge"><title>Node6&#45;&gt;Node7</title>
<path fill="none" stroke="midnightblue" d="M361.413,-338.343C373.04,-333.467 386.899,-327.655 399.032,-322.567"/>
<polygon fill="midnightblue" stroke="midnightblue" points="400.449,-325.769 408.317,-318.674 397.741,-319.313 400.449,-325.769"/>
</g>
<!-- Node47 -->
<g id="node94" class="node"><title>Node47</title>
<a xlink:href="cvm-hfa-pp_8c.html#a85b4c8af06430f26eab8afdeea3a7395" target="_top" xlink:title="hashidx">
<polygon fill="white" stroke="black" points="402,-339.5 402,-360.5 456,-360.5 456,-339.5 402,-339.5"/>
<text text-anchor="middle" x="429" y="-347.5" font-family="FreeSans" font-size="10.00">hashidx</text>
</a>
</g>
<!-- Node6&#45;&gt;Node47 -->
<g id="edge94" class="edge"><title>Node6&#45;&gt;Node47</title>
<path fill="none" stroke="midnightblue" d="M365.681,-349.319C373.92,-349.408 382.973,-349.505 391.592,-349.598"/>
<polygon fill="midnightblue" stroke="midnightblue" points="391.769,-353.1 401.807,-349.708 391.845,-346.1 391.769,-353.1"/>
</g>
<!-- Node7&#45;&gt;Node1 -->
<g id="edge86" class="edge"><title>Node7&#45;&gt;Node1</title>
<path fill="none" stroke="midnightblue" d="M408.32,-312.051C383.697,-314.756 341.447,-320.226 306,-329 234.677,-346.655 154.163,-376.829 109.209,-394.642"/>
<polygon fill="midnightblue" stroke="midnightblue" points="107.63,-391.504 99.639,-398.461 110.224,-398.005 107.63,-391.504"/>
</g>
<!-- Node8 -->
<g id="node15" class="node"><title>Node8</title>
<a xlink:href="hfa-lnx_8c.html#a4c3443f524b4c0d95639694f0b74e850" target="_top" xlink:title="Process command line options, Read graph and payload.">
<polygon fill="white" stroke="black" points="508,-1300.5 508,-1321.5 602,-1321.5 602,-1300.5 508,-1300.5"/>
<text text-anchor="middle" x="555" y="-1308.5" font-family="FreeSans" font-size="10.00">process_options</text>
</a>
</g>
<!-- Node7&#45;&gt;Node8 -->
<g id="edge14" class="edge"><title>Node7&#45;&gt;Node8</title>
<path fill="none" stroke="midnightblue" d="M447.961,-320.649C451.149,-323.29 454.051,-326.412 456,-330 517.741,-443.674 477.921,-782.41 492,-911 507.993,-1057.08 539.871,-1231.28 551.031,-1290.3"/>
<polygon fill="midnightblue" stroke="midnightblue" points="547.614,-1291.06 552.92,-1300.23 554.49,-1289.75 547.614,-1291.06"/>
</g>
<!-- Node12 -->
<g id="node23" class="node"><title>Node12</title>
<a xlink:href="cvm-hfa_8c.html#a873768042b716d60996ec5d858fc8fd9" target="_top" xlink:title="This function must be called by application to initialize HFA engine and setup resources for HFA hard...">
<polygon fill="white" stroke="black" points="518,-880.5 518,-901.5 592,-901.5 592,-880.5 518,-880.5"/>
<text text-anchor="middle" x="555" y="-888.5" font-family="FreeSans" font-size="10.00">hfa_dev_init</text>
</a>
</g>
<!-- Node7&#45;&gt;Node12 -->
<g id="edge22" class="edge"><title>Node7&#45;&gt;Node12</title>
<path fill="none" stroke="midnightblue" d="M447.37,-320.608C450.688,-323.283 453.791,-326.428 456,-330 456.921,-331.488 533.716,-769.534 551.398,-870.439"/>
<polygon fill="midnightblue" stroke="midnightblue" points="547.957,-871.08 553.13,-880.325 554.852,-869.871 547.957,-871.08"/>
</g>
<!-- Node31 -->
<g id="node61" class="node"><title>Node31</title>
<a xlink:href="hfa-lnx_8c.html#a546f3769e735d4bef0bfab1cba56921c" target="_top" xlink:title="Load graph to HFA memory and cache.">
<polygon fill="white" stroke="red" points="520.5,-500.5 520.5,-521.5 589.5,-521.5 589.5,-500.5 520.5,-500.5"/>
<text text-anchor="middle" x="555" y="-508.5" font-family="FreeSans" font-size="10.00">graph_load</text>
</a>
</g>
<!-- Node7&#45;&gt;Node31 -->
<g id="edge60" class="edge"><title>Node7&#45;&gt;Node31</title>
<path fill="none" stroke="midnightblue" d="M447.245,-320.687C450.573,-323.357 453.71,-326.479 456,-330 495.975,-391.467 442.468,-436.937 492,-491 497.063,-496.526 503.643,-500.534 510.637,-503.44"/>
<polygon fill="midnightblue" stroke="midnightblue" points="509.732,-506.829 520.327,-506.756 511.999,-500.206 509.732,-506.829"/>
</g>
<!-- Node36 -->
<g id="node71" class="node"><title>Node36</title>
<a xlink:href="hfa-lnx_8c.html#a924d2733ebc7a856f8c3fd293193ba44" target="_top" xlink:title="Initialize search context.">
<polygon fill="white" stroke="red" points="517.5,-460.5 517.5,-481.5 592.5,-481.5 592.5,-460.5 517.5,-460.5"/>
<text text-anchor="middle" x="555" y="-468.5" font-family="FreeSans" font-size="10.00">initialize_ctx</text>
</a>
</g>
<!-- Node7&#45;&gt;Node36 -->
<g id="edge70" class="edge"><title>Node7&#45;&gt;Node36</title>
<path fill="none" stroke="midnightblue" d="M446.78,-320.592C450.222,-323.302 453.523,-326.465 456,-330 488.198,-375.949 452.689,-410.966 492,-451 496.485,-455.567 502.006,-459.094 507.9,-461.816"/>
<polygon fill="midnightblue" stroke="midnightblue" points="506.782,-465.136 517.372,-465.466 509.299,-458.605 506.782,-465.136"/>
</g>
<!-- Node37 -->
<g id="node73" class="node"><title>Node37</title>
<a xlink:href="app-utils_8c.html#a4b47f3c9c5a0b3eaee64e264171628a3" target="_top" xlink:title="This routine reads data of chunksize/a packet from given payload(Normal/PCAP) file and returns data b...">
<polygon fill="white" stroke="red" points="492,-420.5 492,-441.5 618,-441.5 618,-420.5 492,-420.5"/>
<text text-anchor="middle" x="555" y="-428.5" font-family="FreeSans" font-size="10.00">hfautils_parse_payload</text>
</a>
</g>
<!-- Node7&#45;&gt;Node37 -->
<g id="edge72" class="edge"><title>Node7&#45;&gt;Node37</title>
<path fill="none" stroke="midnightblue" d="M446.161,-320.628C449.721,-323.373 453.227,-326.541 456,-330 480.641,-360.738 462.643,-384.729 492,-411 493.737,-412.554 495.595,-413.988 497.544,-415.31"/>
<polygon fill="midnightblue" stroke="midnightblue" points="496.15,-418.543 506.577,-420.424 499.598,-412.451 496.15,-418.543"/>
</g>
<!-- Node38 -->
<g id="node75" class="node"><title>Node38</title>
<a xlink:href="cvm-hfa-search_8h.html#ae9741e867075c9b8cc63a7d889d5bf20" target="_top" xlink:title="This routine is a variant of hfa_searchparam_set_inputiovec() when the previously searched input IO v...">
<polygon fill="white" stroke="black" points="494.5,-368 494.5,-402 615.5,-402 615.5,-368 494.5,-368"/>
<text text-anchor="start" x="502.5" y="-389" font-family="FreeSans" font-size="10.00">hfa_searchparam_set</text>
<text text-anchor="middle" x="555" y="-376" font-family="FreeSans" font-size="10.00">_inputiovec_0_n</text>
</a>
</g>
<!-- Node7&#45;&gt;Node38 -->
<g id="edge74" class="edge"><title>Node7&#45;&gt;Node38</title>
<path fill="none" stroke="midnightblue" d="M443.654,-320.687C447.68,-323.669 452.03,-326.933 456,-330 472.258,-342.562 474.323,-348.529 492,-359 494.614,-360.548 497.336,-362.047 500.12,-363.491"/>
<polygon fill="midnightblue" stroke="midnightblue" points="498.64,-366.663 509.161,-367.911 501.714,-360.375 498.64,-366.663"/>
</g>
<!-- Node39 -->
<g id="node77" class="node"><title>Node39</title>
<a xlink:href="cvm-hfa-search_8h.html#a12882fa53f8ec49b9b2950711161db42" target="_top" xlink:title="This routine sets the output buffer in the sparam.">
<polygon fill="white" stroke="black" points="494.5,-316 494.5,-350 615.5,-350 615.5,-316 494.5,-316"/>
<text text-anchor="start" x="502.5" y="-337" font-family="FreeSans" font-size="10.00">hfa_searchparam_set</text>
<text text-anchor="middle" x="555" y="-324" font-family="FreeSans" font-size="10.00">_output</text>
</a>
</g>
<!-- Node7&#45;&gt;Node39 -->
<g id="edge76" class="edge"><title>Node7&#45;&gt;Node39</title>
<path fill="none" stroke="midnightblue" d="M449.525,-313.747C459.36,-315.542 471.781,-317.809 484.617,-320.152"/>
<polygon fill="midnightblue" stroke="midnightblue" points="484.011,-323.6 494.477,-321.952 485.269,-316.713 484.011,-323.6"/>
</g>
<!-- Node40 -->
<g id="node79" class="node"><title>Node40</title>
<a xlink:href="cvm-hfa-search_8c.html#a57d7540278164eb6b6c132be00db0de5" target="_top" xlink:title="This routine performs a pattern search using the given parameters in a blocking manner.">
<polygon fill="white" stroke="red" points="493.5,-276.5 493.5,-297.5 616.5,-297.5 616.5,-276.5 493.5,-276.5"/>
<text text-anchor="middle" x="555" y="-284.5" font-family="FreeSans" font-size="10.00">hfa_searchctx_search</text>
</a>
</g>
<!-- Node7&#45;&gt;Node40 -->
<g id="edge78" class="edge"><title>Node7&#45;&gt;Node40</title>
<path fill="none" stroke="midnightblue" d="M449.525,-306.253C460.018,-304.338 473.454,-301.885 487.196,-299.377"/>
<polygon fill="midnightblue" stroke="midnightblue" points="488.011,-302.786 497.22,-297.547 486.754,-295.9 488.011,-302.786"/>
</g>
<!-- Node41 -->
<g id="node81" class="node"><title>Node41</title>
<a xlink:href="cvm-hfa-search_8h.html#ab50a2d84e35b5a4a03a23fc90e4dffa0" target="_top" xlink:title="This routine retrieves the reason code after a search operation has been completed by the HFA engine...">
<polygon fill="white" stroke="black" points="494,-224 494,-258 616,-258 616,-224 494,-224"/>
<text text-anchor="start" x="502" y="-245" font-family="FreeSans" font-size="10.00">hfa_searchparam_get</text>
<text text-anchor="middle" x="555" y="-232" font-family="FreeSans" font-size="10.00">_hwsearch_reason</text>
</a>
</g>
<!-- Node7&#45;&gt;Node41 -->
<g id="edge80" class="edge"><title>Node7&#45;&gt;Node41</title>
<path fill="none" stroke="midnightblue" d="M442.976,-299.212C455.4,-289.93 474.289,-276.564 492,-267 495.006,-265.377 498.136,-263.789 501.323,-262.249"/>
<polygon fill="midnightblue" stroke="midnightblue" points="502.796,-265.424 510.401,-258.047 499.855,-259.071 502.796,-265.424"/>
</g>
<!-- Node42 -->
<g id="node83" class="node"><title>Node42</title>
<a xlink:href="cvm-hfa-common_8h.html#ad117ba199386b8d427cbb04f288b5905" target="_top" xlink:title="Dump HFA related registers.">
<polygon fill="white" stroke="black" points="509.5,-184.5 509.5,-205.5 600.5,-205.5 600.5,-184.5 509.5,-184.5"/>
<text text-anchor="middle" x="555" y="-192.5" font-family="FreeSans" font-size="10.00">hfa_dump_regs</text>
</a>
</g>
<!-- Node7&#45;&gt;Node42 -->
<g id="edge82" class="edge"><title>Node7&#45;&gt;Node42</title>
<path fill="none" stroke="midnightblue" d="M433.156,-299.447C441.396,-279.879 461.667,-237.884 492,-215 494.611,-213.03 497.421,-211.251 500.354,-209.645"/>
<polygon fill="midnightblue" stroke="midnightblue" points="501.915,-212.779 509.445,-205.326 498.911,-206.456 501.915,-212.779"/>
</g>
<!-- Node43 -->
<g id="node85" class="node"><title>Node43</title>
<a xlink:href="cvm-hfa-search_8h.html#ad18e328b50b109e1e44821f3d006bd9d" target="_top" xlink:title="This routine returns the data&#45;buffer offset.">
<polygon fill="white" stroke="black" points="494,-132 494,-166 616,-166 616,-132 494,-132"/>
<text text-anchor="start" x="502" y="-153" font-family="FreeSans" font-size="10.00">hfa_searchparam_get</text>
<text text-anchor="middle" x="555" y="-140" font-family="FreeSans" font-size="10.00">_hwsearch_pdboff</text>
</a>
</g>
<!-- Node7&#45;&gt;Node43 -->
<g id="edge84" class="edge"><title>Node7&#45;&gt;Node43</title>
<path fill="none" stroke="midnightblue" d="M431.185,-299.332C436.841,-274.283 454.231,-211.098 492,-175 493.096,-173.953 494.24,-172.945 495.425,-171.975"/>
<polygon fill="midnightblue" stroke="midnightblue" points="497.584,-174.735 503.751,-166.12 493.558,-169.009 497.584,-174.735"/>
</g>
<!-- Node44 -->
<g id="node88" class="node"><title>Node44</title>
<a xlink:href="app-utils_8c.html#a633038357891aa5147b77fe939f300bf" target="_top" xlink:title="Print pattern matches via match buffer and cleanup all matches.">
<polygon fill="white" stroke="red" points="493,-92.5 493,-113.5 617,-113.5 617,-92.5 493,-92.5"/>
<text text-anchor="middle" x="555" y="-100.5" font-family="FreeSans" font-size="10.00">hfautils_print_matches</text>
</a>
</g>
<!-- Node7&#45;&gt;Node44 -->
<g id="edge88" class="edge"><title>Node7&#45;&gt;Node44</title>
<path fill="none" stroke="midnightblue" d="M429.376,-299.393C431.075,-267.847 440.44,-173.662 492,-123 493.473,-121.552 495.051,-120.209 496.711,-118.963"/>
<polygon fill="midnightblue" stroke="midnightblue" points="498.905,-121.724 505.595,-113.509 495.242,-115.758 498.905,-121.724"/>
</g>
<!-- Node45 -->
<g id="node90" class="node"><title>Node45</title>
<a xlink:href="cvm-hfa-search_8h.html#ac5bcfbfda7036d9aca28a3c5828847a5" target="_top" xlink:title="This routine retrieves flags returned by post&#45;processor.">
<polygon fill="white" stroke="black" points="494,-40 494,-74 616,-74 616,-40 494,-40"/>
<text text-anchor="start" x="502" y="-61" font-family="FreeSans" font-size="10.00">hfa_searchparam_get</text>
<text text-anchor="middle" x="555" y="-48" font-family="FreeSans" font-size="10.00">_ppoflags</text>
</a>
</g>
<!-- Node7&#45;&gt;Node45 -->
<g id="edge90" class="edge"><title>Node7&#45;&gt;Node45</title>
<path fill="none" stroke="midnightblue" d="M430.706,-299.246C437.31,-258.814 462.3,-116.52 492,-83 492.745,-82.1587 493.522,-81.344 494.327,-80.5551"/>
<polygon fill="midnightblue" stroke="midnightblue" points="496.683,-83.1512 502.239,-74.1303 492.27,-77.7171 496.683,-83.1512"/>
</g>
<!-- Node46 -->
<g id="node92" class="node"><title>Node46</title>
<a xlink:href="hfa-lnx_8c.html#a5c6551bf9ea9cf51ae7f2076c4cbe8ef" target="_top" xlink:title="Application cleanup will be done by this routine.">
<polygon fill="white" stroke="red" points="528,-0.5 528,-21.5 582,-21.5 582,-0.5 528,-0.5"/>
<text text-anchor="middle" x="555" y="-8.5" font-family="FreeSans" font-size="10.00">cleanup</text>
</a>
</g>
<!-- Node7&#45;&gt;Node46 -->
<g id="edge92" class="edge"><title>Node7&#45;&gt;Node46</title>
<path fill="none" stroke="midnightblue" d="M430.004,-299.32C434.541,-253.221 454.554,-71.7848 492,-31 498.797,-23.597 508.316,-18.9185 517.9,-15.9668"/>
<polygon fill="midnightblue" stroke="midnightblue" points="518.957,-19.31 527.8,-13.474 517.248,-12.5219 518.957,-19.31"/>
</g>
<!-- Node9 -->
<g id="node17" class="node"><title>Node9</title>
<a xlink:href="app-utils_8c.html#a8d5ec2ca8ebb2e04916983e6053a5c79" target="_top" xlink:title="Return size of a file(compressed or uncompressed).">
<polygon fill="white" stroke="red" points="689.5,-1320.5 689.5,-1341.5 784.5,-1341.5 784.5,-1320.5 689.5,-1320.5"/>
<text text-anchor="middle" x="737" y="-1328.5" font-family="FreeSans" font-size="10.00">hfautils_file_size</text>
</a>
</g>
<!-- Node8&#45;&gt;Node9 -->
<g id="edge16" class="edge"><title>Node8&#45;&gt;Node9</title>
<path fill="none" stroke="midnightblue" d="M602.343,-1316.2C625.856,-1318.79 654.465,-1321.93 679.255,-1324.65"/>
<polygon fill="midnightblue" stroke="midnightblue" points="678.939,-1328.14 689.262,-1325.75 679.704,-1321.18 678.939,-1328.14"/>
</g>
<!-- Node10 -->
<g id="node19" class="node"><title>Node10</title>
<a xlink:href="app-utils_8c.html#a12339c67618c4b3a54c32f43d378c273" target="_top" xlink:title="Read data from a file to a buffer(compressed or uncompressed).">
<polygon fill="white" stroke="red" points="688.5,-1280.5 688.5,-1301.5 785.5,-1301.5 785.5,-1280.5 688.5,-1280.5"/>
<text text-anchor="middle" x="737" y="-1288.5" font-family="FreeSans" font-size="10.00">hfautils_read_file</text>
</a>
</g>
<!-- Node8&#45;&gt;Node10 -->
<g id="edge18" class="edge"><title>Node8&#45;&gt;Node10</title>
<path fill="none" stroke="midnightblue" d="M602.343,-1305.8C625.475,-1303.26 653.539,-1300.17 678.047,-1297.48"/>
<polygon fill="midnightblue" stroke="midnightblue" points="678.751,-1300.92 688.309,-1296.35 677.986,-1293.96 678.751,-1300.92"/>
</g>
<!-- Node11 -->
<g id="node21" class="node"><title>Node11</title>
<a xlink:href="app-utils_8c.html#a1944a739d03e86dcaee1a7d245cfeba0" target="_top" xlink:title="Initialize the attributes needed for parsing the payload file.">
<polygon fill="white" stroke="red" points="680.5,-1360 680.5,-1394 793.5,-1394 793.5,-1360 680.5,-1360"/>
<text text-anchor="start" x="688.5" y="-1381" font-family="FreeSans" font-size="10.00">hfautils_init_payload</text>
<text text-anchor="middle" x="737" y="-1368" font-family="FreeSans" font-size="10.00">_attributes</text>
</a>
</g>
<!-- Node8&#45;&gt;Node11 -->
<g id="edge20" class="edge"><title>Node8&#45;&gt;Node11</title>
<path fill="none" stroke="midnightblue" d="M579.606,-1321.58C599.51,-1329.99 628.344,-1341.82 654,-1351 659.465,-1352.96 665.159,-1354.91 670.892,-1356.82"/>
<polygon fill="midnightblue" stroke="midnightblue" points="669.948,-1360.2 680.541,-1359.99 672.13,-1353.54 669.948,-1360.2"/>
</g>
<!-- Node13 -->
<g id="node25" class="node"><title>Node13</title>
<a xlink:href="cvm-hfa-stats_8c.html#a2fcf955b47370bfa46705ee5a23a70cf" target="_top" xlink:title="This routine allocates memory for counters to maintain statistics of each processing core...">
<polygon fill="white" stroke="red" points="686,-960.5 686,-981.5 788,-981.5 788,-960.5 686,-960.5"/>
<text text-anchor="middle" x="737" y="-968.5" font-family="FreeSans" font-size="10.00">hfa_dev_stats_init</text>
</a>
</g>
<!-- Node12&#45;&gt;Node13 -->
<g id="edge24" class="edge"><title>Node12&#45;&gt;Node13</title>
<path fill="none" stroke="midnightblue" d="M569.333,-901.656C587.942,-915.014 621.851,-937.76 654,-951 660.957,-953.865 668.417,-956.38 675.909,-958.571"/>
<polygon fill="midnightblue" stroke="midnightblue" points="675.166,-961.997 685.736,-961.268 677.018,-955.246 675.166,-961.997"/>
</g>
<!-- Node14 -->
<g id="node27" class="node"><title>Node14</title>
<a xlink:href="cvm-hfa_8c.html#a27982497398da2118cd5287ed51732e7" target="_top" xlink:title="Provides device&#45;specific information This is a utility routine used to obtain HFA device&#45;specific det...">
<polygon fill="white" stroke="black" points="681.5,-920.5 681.5,-941.5 792.5,-941.5 792.5,-920.5 681.5,-920.5"/>
<text text-anchor="middle" x="737" y="-928.5" font-family="FreeSans" font-size="10.00">hfa_dev_getdevinfo</text>
</a>
</g>
<!-- Node12&#45;&gt;Node14 -->
<g id="edge26" class="edge"><title>Node12&#45;&gt;Node14</title>
<path fill="none" stroke="midnightblue" d="M592.27,-899.191C617.294,-904.691 650.765,-912.047 679.215,-918.3"/>
<polygon fill="midnightblue" stroke="midnightblue" points="678.529,-921.733 689.047,-920.461 680.031,-914.896 678.529,-921.733"/>
</g>
<!-- Node15 -->
<g id="node29" class="node"><title>Node15</title>
<a xlink:href="pp_8h.html#a6f5982b2671e9682262a26b0d2996396" target="_top" xlink:title="Constructs a readable version string for the PP library.">
<polygon fill="white" stroke="black" points="677,-880.5 677,-901.5 797,-901.5 797,-880.5 677,-880.5"/>
<text text-anchor="middle" x="737" y="-888.5" font-family="FreeSans" font-size="10.00">pp_get_version_string</text>
</a>
</g>
<!-- Node12&#45;&gt;Node15 -->
<g id="edge28" class="edge"><title>Node12&#45;&gt;Node15</title>
<path fill="none" stroke="midnightblue" d="M592.27,-891C613.658,-891 641.216,-891 666.536,-891"/>
<polygon fill="midnightblue" stroke="midnightblue" points="666.853,-894.5 676.853,-891 666.853,-887.5 666.853,-894.5"/>
</g>
<!-- Node16 -->
<g id="node31" class="node"><title>Node16</title>
<a xlink:href="cvm-hfa_8c.html#afd1d53fe8a402d4c5799e6e98c67baaa" target="_top" xlink:title="Displays HFA Device info.">
<polygon fill="white" stroke="red" points="678.5,-840.5 678.5,-861.5 795.5,-861.5 795.5,-840.5 678.5,-840.5"/>
<text text-anchor="middle" x="737" y="-848.5" font-family="FreeSans" font-size="10.00">hfa_dev_display_info</text>
</a>
</g>
<!-- Node12&#45;&gt;Node16 -->
<g id="edge30" class="edge"><title>Node12&#45;&gt;Node16</title>
<path fill="none" stroke="midnightblue" d="M592.27,-882.809C617.294,-877.309 650.765,-869.953 679.215,-863.7"/>
<polygon fill="midnightblue" stroke="midnightblue" points="680.031,-867.104 689.047,-861.539 678.529,-860.267 680.031,-867.104"/>
</g>
<!-- Node17 -->
<g id="node33" class="node"><title>Node17</title>
<a xlink:href="cvm-hfa_8c.html#a236e64ca73680ea6761204d5c44d4e96" target="_top" xlink:title="API to set PP resource allocator for partial matches.">
<polygon fill="white" stroke="black" points="669.5,-800.5 669.5,-821.5 804.5,-821.5 804.5,-800.5 669.5,-800.5"/>
<text text-anchor="middle" x="737" y="-808.5" font-family="FreeSans" font-size="10.00">hfa_dev_set_fnp_ppalloc</text>
</a>
</g>
<!-- Node12&#45;&gt;Node17 -->
<g id="edge32" class="edge"><title>Node12&#45;&gt;Node17</title>
<path fill="none" stroke="midnightblue" d="M569.333,-880.344C587.942,-866.986 621.851,-844.24 654,-831 659.936,-828.555 666.24,-826.365 672.616,-824.414"/>
<polygon fill="midnightblue" stroke="midnightblue" points="674.003,-827.658 682.654,-821.541 672.077,-820.928 674.003,-827.658"/>
</g>
<!-- Node18 -->
<g id="node35" class="node"><title>Node18</title>
<a xlink:href="cvm-hfa_8c.html#ab547f175726534d6a0a334eb35af4980" target="_top" xlink:title="Default function pointer for PP allocations.">
<polygon fill="white" stroke="black" points="677,-760.5 677,-781.5 797,-781.5 797,-760.5 677,-760.5"/>
<text text-anchor="middle" x="737" y="-768.5" font-family="FreeSans" font-size="10.00">hfa_defaultfn_ppalloc</text>
</a>
</g>
<!-- Node12&#45;&gt;Node18 -->
<g id="edge34" class="edge"><title>Node12&#45;&gt;Node18</title>
<path fill="none" stroke="midnightblue" d="M562.343,-880.341C577.15,-859.704 612.717,-814.279 654,-791 658.216,-788.623 662.707,-786.526 667.335,-784.678"/>
<polygon fill="midnightblue" stroke="midnightblue" points="668.747,-787.89 676.98,-781.222 666.385,-781.3 668.747,-787.89"/>
</g>
<!-- Node19 -->
<g id="node37" class="node"><title>Node19</title>
<a xlink:href="cvm-hfa_8c.html#a148abbfdeebb207ff46884af8eeb8fa4" target="_top" xlink:title="API to set PP resource deallocator for partial matches.">
<polygon fill="white" stroke="black" points="671,-720.5 671,-741.5 803,-741.5 803,-720.5 671,-720.5"/>
<text text-anchor="middle" x="737" y="-728.5" font-family="FreeSans" font-size="10.00">hfa_dev_set_fnp_ppfree</text>
</a>
</g>
<!-- Node12&#45;&gt;Node19 -->
<g id="edge36" class="edge"><title>Node12&#45;&gt;Node19</title>
<path fill="none" stroke="midnightblue" d="M559.373,-880.236C570.715,-853.747 603.738,-785.083 654,-751 656.91,-749.027 659.993,-747.248 663.192,-745.644"/>
<polygon fill="midnightblue" stroke="midnightblue" points="664.72,-748.795 672.469,-741.57 661.905,-742.386 664.72,-748.795"/>
</g>
<!-- Node20 -->
<g id="node39" class="node"><title>Node20</title>
<a xlink:href="cvm-hfa_8c.html#a832239ee7b188265bdacbbfb7e879af1" target="_top" xlink:title="Default function pointer for PP deallocations.">
<polygon fill="white" stroke="black" points="678.5,-680.5 678.5,-701.5 795.5,-701.5 795.5,-680.5 678.5,-680.5"/>
<text text-anchor="middle" x="737" y="-688.5" font-family="FreeSans" font-size="10.00">hfa_defaultfn_ppfree</text>
</a>
</g>
<!-- Node12&#45;&gt;Node20 -->
<g id="edge38" class="edge"><title>Node12&#45;&gt;Node20</title>
<path fill="none" stroke="midnightblue" d="M557.675,-880.056C565.99,-848.46 594.477,-756.457 654,-711 658.491,-707.57 663.485,-704.718 668.733,-702.349"/>
<polygon fill="midnightblue" stroke="midnightblue" points="670.353,-705.474 678.4,-698.582 667.811,-698.952 670.353,-705.474"/>
</g>
<!-- Node21 -->
<g id="node41" class="node"><title>Node21</title>
<a xlink:href="cvm-hfa_8c.html#a774451b83b300f862763d189c9758e1f" target="_top" xlink:title="API to set PP buffer size function pointer.">
<polygon fill="white" stroke="black" points="671,-640.5 671,-661.5 803,-661.5 803,-640.5 671,-640.5"/>
<text text-anchor="middle" x="737" y="-648.5" font-family="FreeSans" font-size="10.00">hfa_dev_set_fnp_ppsize</text>
</a>
</g>
<!-- Node12&#45;&gt;Node21 -->
<g id="edge40" class="edge"><title>Node12&#45;&gt;Node21</title>
<path fill="none" stroke="midnightblue" d="M556.47,-880.301C561.966,-844.583 584.676,-728.472 654,-671 656.432,-668.984 659.034,-667.165 661.762,-665.524"/>
<polygon fill="midnightblue" stroke="midnightblue" points="663.541,-668.545 670.842,-660.867 660.347,-662.316 663.541,-668.545"/>
</g>
<!-- Node22 -->
<g id="node43" class="node"><title>Node22</title>
<a xlink:href="cvm-hfa_8c.html#a11aab8e30488e4cfc900f60a0dabc784" target="_top" xlink:title="Default function pointer for PP size.">
<polygon fill="white" stroke="black" points="678.5,-600.5 678.5,-621.5 795.5,-621.5 795.5,-600.5 678.5,-600.5"/>
<text text-anchor="middle" x="737" y="-608.5" font-family="FreeSans" font-size="10.00">hfa_defaultfn_ppsize</text>
</a>
</g>
<!-- Node12&#45;&gt;Node22 -->
<g id="edge42" class="edge"><title>Node12&#45;&gt;Node22</title>
<path fill="none" stroke="midnightblue" d="M555.651,-880.386C558.67,-840.834 574.777,-700.725 654,-631 658.419,-627.11 663.465,-623.946 668.837,-621.376"/>
<polygon fill="midnightblue" stroke="midnightblue" points="670.192,-624.604 678.132,-617.589 667.55,-618.121 670.192,-624.604"/>
</g>
<!-- Node23 -->
<g id="node45" class="node"><title>Node23</title>
<a xlink:href="cvm-hfa_8c.html#a9a0b038e0d29435cb91a21d9c62806cc" target="_top" xlink:title="API to set PP resource allocator for temporary memory.">
<polygon fill="white" stroke="black" points="668,-560.5 668,-581.5 806,-581.5 806,-560.5 668,-560.5"/>
<text text-anchor="middle" x="737" y="-568.5" font-family="FreeSans" font-size="10.00">hfa_dev_set_fnp_pptalloc</text>
</a>
</g>
<!-- Node12&#45;&gt;Node23 -->
<g id="edge44" class="edge"><title>Node12&#45;&gt;Node23</title>
<path fill="none" stroke="midnightblue" d="M557.071,-880.386C566.72,-831.977 608.713,-632.705 654,-591 655.683,-589.45 657.465,-588.014 659.328,-586.684"/>
<polygon fill="midnightblue" stroke="midnightblue" points="661.182,-589.654 667.957,-581.508 657.581,-583.651 661.182,-589.654"/>
</g>
<!-- Node24 -->
<g id="node47" class="node"><title>Node24</title>
<a xlink:href="cvm-hfa_8c.html#a2cbca63c413f08d3861f9b4c2855391f" target="_top" xlink:title="API to set PP resource deallocator for temporary memory.">
<polygon fill="white" stroke="black" points="669.5,-1240.5 669.5,-1261.5 804.5,-1261.5 804.5,-1240.5 669.5,-1240.5"/>
<text text-anchor="middle" x="737" y="-1248.5" font-family="FreeSans" font-size="10.00">hfa_dev_set_fnp_pptfree</text>
</a>
</g>
<!-- Node12&#45;&gt;Node24 -->
<g id="edge46" class="edge"><title>Node12&#45;&gt;Node24</title>
<path fill="none" stroke="midnightblue" d="M556.634,-901.589C564.892,-953.767 603.627,-1182.94 654,-1231 655.97,-1232.88 658.086,-1234.59 660.315,-1236.15"/>
<polygon fill="midnightblue" stroke="midnightblue" points="659.008,-1239.44 669.411,-1241.45 662.528,-1233.39 659.008,-1239.44"/>
</g>
<!-- Node25 -->
<g id="node49" class="node"><title>Node25</title>
<a xlink:href="cvm-hfa_8c.html#af0b17e8a09b1f7a1dd438ddcb1e4cd14" target="_top" xlink:title="API to set temporary memory size function pointer.">
<polygon fill="white" stroke="black" points="669.5,-1200.5 669.5,-1221.5 804.5,-1221.5 804.5,-1200.5 669.5,-1200.5"/>
<text text-anchor="middle" x="737" y="-1208.5" font-family="FreeSans" font-size="10.00">hfa_dev_set_fnp_pptsize</text>
</a>
</g>
<!-- Node12&#45;&gt;Node25 -->
<g id="edge48" class="edge"><title>Node12&#45;&gt;Node25</title>
<path fill="none" stroke="midnightblue" d="M557.071,-901.614C566.72,-950.023 608.713,-1149.29 654,-1191 655.956,-1192.8 658.045,-1194.45 660.239,-1195.95"/>
<polygon fill="midnightblue" stroke="midnightblue" points="658.75,-1199.13 669.164,-1201.09 662.24,-1193.07 658.75,-1199.13"/>
</g>
<!-- Node26 -->
<g id="node51" class="node"><title>Node26</title>
<a xlink:href="cvm-hfa_8c.html#aa2754afcdd94eb3dcd90c374f779dd24" target="_top" xlink:title="API to set PP resource allocator for match/result buffer.">
<polygon fill="white" stroke="black" points="654,-1160.5 654,-1181.5 820,-1181.5 820,-1160.5 654,-1160.5"/>
<text text-anchor="middle" x="737" y="-1168.5" font-family="FreeSans" font-size="10.00">hfa_dev_set_fnp_ppmatchalloc</text>
</a>
</g>
<!-- Node12&#45;&gt;Node26 -->
<g id="edge50" class="edge"><title>Node12&#45;&gt;Node26</title>
<path fill="none" stroke="midnightblue" d="M555.651,-901.614C558.67,-941.166 574.777,-1081.27 654,-1151 655.763,-1152.55 657.625,-1153.99 659.569,-1155.32"/>
<polygon fill="midnightblue" stroke="midnightblue" points="658.133,-1158.53 668.546,-1160.48 661.625,-1152.46 658.133,-1158.53"/>
</g>
<!-- Node27 -->
<g id="node53" class="node"><title>Node27</title>
<a xlink:href="cvm-hfa_8c.html#ad022f5aec72780af8b36533884693539" target="_top" xlink:title="API to set PP resource deallocator for result/match buf.">
<polygon fill="white" stroke="black" points="655.5,-1120.5 655.5,-1141.5 818.5,-1141.5 818.5,-1120.5 655.5,-1120.5"/>
<text text-anchor="middle" x="737" y="-1128.5" font-family="FreeSans" font-size="10.00">hfa_dev_set_fnp_ppmatchfree</text>
</a>
</g>
<!-- Node12&#45;&gt;Node27 -->
<g id="edge52" class="edge"><title>Node12&#45;&gt;Node27</title>
<path fill="none" stroke="midnightblue" d="M556.47,-901.699C561.966,-937.417 584.676,-1053.53 654,-1111 655.997,-1112.66 658.109,-1114.18 660.31,-1115.58"/>
<polygon fill="midnightblue" stroke="midnightblue" points="658.735,-1118.71 669.194,-1120.39 662.07,-1112.55 658.735,-1118.71"/>
</g>
<!-- Node28 -->
<g id="node55" class="node"><title>Node28</title>
<a xlink:href="cvm-hfa_8c.html#a8b71887165c143e32600513d12f9274f" target="_top" xlink:title="API to set match buffer size function pointer.">
<polygon fill="white" stroke="black" points="655.5,-1080.5 655.5,-1101.5 818.5,-1101.5 818.5,-1080.5 655.5,-1080.5"/>
<text text-anchor="middle" x="737" y="-1088.5" font-family="FreeSans" font-size="10.00">hfa_dev_set_fnp_ppmatchsize</text>
</a>
</g>
<!-- Node12&#45;&gt;Node28 -->
<g id="edge54" class="edge"><title>Node12&#45;&gt;Node28</title>
<path fill="none" stroke="midnightblue" d="M557.675,-901.944C565.99,-933.54 594.477,-1025.54 654,-1071 656.319,-1072.77 658.773,-1074.39 661.326,-1075.86"/>
<polygon fill="midnightblue" stroke="midnightblue" points="659.83,-1079.03 670.341,-1080.36 662.954,-1072.76 659.83,-1079.03"/>
</g>
<!-- Node29 -->
<g id="node57" class="node"><title>Node29</title>
<a xlink:href="cvm-hfa_8c.html#abcc0595aa8b2bb2d6116d600abbf55f8" target="_top" xlink:title="API to set PP error callback.">
<polygon fill="white" stroke="black" points="669,-1040.5 669,-1061.5 805,-1061.5 805,-1040.5 669,-1040.5"/>
<text text-anchor="middle" x="737" y="-1048.5" font-family="FreeSans" font-size="10.00">hfa_dev_set_fnp_pperror</text>
</a>
</g>
<!-- Node12&#45;&gt;Node29 -->
<g id="edge56" class="edge"><title>Node12&#45;&gt;Node29</title>
<path fill="none" stroke="midnightblue" d="M559.373,-901.764C570.715,-928.253 603.738,-996.917 654,-1031 656.91,-1032.97 659.993,-1034.75 663.192,-1036.36"/>
<polygon fill="midnightblue" stroke="midnightblue" points="661.905,-1039.61 672.469,-1040.43 664.72,-1033.2 661.905,-1039.61"/>
</g>
<!-- Node30 -->
<g id="node59" class="node"><title>Node30</title>
<a xlink:href="cvm-hfa_8c.html#ac115556b315ff135ed2fd059cdf7d066" target="_top" xlink:title="Default function pointer for PP errors.">
<polygon fill="white" stroke="black" points="681.5,-1000.5 681.5,-1021.5 792.5,-1021.5 792.5,-1000.5 681.5,-1000.5"/>
<text text-anchor="middle" x="737" y="-1008.5" font-family="FreeSans" font-size="10.00">hfa_defaultfn_pperr</text>
</a>
</g>
<!-- Node12&#45;&gt;Node30 -->
<g id="edge58" class="edge"><title>Node12&#45;&gt;Node30</title>
<path fill="none" stroke="midnightblue" d="M562.343,-901.659C577.15,-922.296 612.717,-967.721 654,-991 659.507,-994.106 665.484,-996.731 671.62,-998.951"/>
<polygon fill="midnightblue" stroke="midnightblue" points="670.758,-1002.35 681.35,-1002.12 672.923,-995.694 670.758,-1002.35"/>
</g>
<!-- Node32 -->
<g id="node63" class="node"><title>Node32</title>
<a xlink:href="cvm-hfa-graph_8c.html#a80a6427d5a90c7bd1e4cbfd62a808524" target="_top" xlink:title="This routine initializes a graph object which can be used to perform various operations on a graph fi...">
<polygon fill="white" stroke="black" points="683.5,-480.5 683.5,-501.5 790.5,-501.5 790.5,-480.5 683.5,-480.5"/>
<text text-anchor="middle" x="737" y="-488.5" font-family="FreeSans" font-size="10.00">hfa_dev_graph_init</text>
</a>
</g>
<!-- Node31&#45;&gt;Node32 -->
<g id="edge62" class="edge"><title>Node31&#45;&gt;Node32</title>
<path fill="none" stroke="midnightblue" d="M589.661,-507.191C613.268,-504.597 645.214,-501.086 673.326,-497.997"/>
<polygon fill="midnightblue" stroke="midnightblue" points="673.929,-501.452 683.487,-496.881 673.164,-494.494 673.929,-501.452"/>
</g>
<!-- Node33 -->
<g id="node65" class="node"><title>Node33</title>
<a xlink:href="cvm-hfa-graph_8c.html#a32df4a93ffcd7da232613b13204b2a80" target="_top" xlink:title="This routine sets the cluster&#45;mask for the graph.">
<polygon fill="white" stroke="black" points="678.5,-440.5 678.5,-461.5 795.5,-461.5 795.5,-440.5 678.5,-440.5"/>
<text text-anchor="middle" x="737" y="-448.5" font-family="FreeSans" font-size="10.00">hfa_graph_setcluster</text>
</a>
</g>
<!-- Node31&#45;&gt;Node33 -->
<g id="edge64" class="edge"><title>Node31&#45;&gt;Node33</title>
<path fill="none" stroke="midnightblue" d="M589.787,-501.322C599.089,-498.366 609.044,-494.863 618,-491 634.806,-483.75 636.947,-477.649 654,-471 660.309,-468.54 667.01,-466.321 673.762,-464.335"/>
<polygon fill="midnightblue" stroke="midnightblue" points="674.95,-467.638 683.651,-461.592 673.079,-460.893 674.95,-467.638"/>
</g>
<!-- Node34 -->
<g id="node67" class="node"><title>Node34</title>
<a xlink:href="app-utils_8c.html#aed95bb72627cff313c596ebcfcd8af61" target="_top" xlink:title="Parse graph into chunks and load graph to HFA memory.">
<polygon fill="white" stroke="red" points="669.5,-400.5 669.5,-421.5 804.5,-421.5 804.5,-400.5 669.5,-400.5"/>
<text text-anchor="middle" x="737" y="-408.5" font-family="FreeSans" font-size="10.00">hfautils_download_graph</text>
</a>
</g>
<!-- Node31&#45;&gt;Node34 -->
<g id="edge66" class="edge"><title>Node31&#45;&gt;Node34</title>
<path fill="none" stroke="midnightblue" d="M589.568,-504.855C599.479,-501.875 609.808,-497.476 618,-491 642.397,-471.715 628.934,-449.407 654,-431 656.488,-429.173 659.121,-427.51 661.858,-425.998"/>
<polygon fill="midnightblue" stroke="midnightblue" points="663.402,-429.14 670.907,-421.662 660.377,-422.827 663.402,-429.14"/>
</g>
<!-- Node35 -->
<g id="node69" class="node"><title>Node35</title>
<a xlink:href="cvm-hfa-graph_8c.html#a60861d15ed5f6bccc42bbde834aa2b32" target="_top" xlink:title="This routine is used to cacheload a cacheable graph in a blocking manner.">
<polygon fill="white" stroke="red" points="677,-520.5 677,-541.5 797,-541.5 797,-520.5 677,-520.5"/>
<text text-anchor="middle" x="737" y="-528.5" font-family="FreeSans" font-size="10.00">hfa_graph_cacheload</text>
</a>
</g>
<!-- Node31&#45;&gt;Node35 -->
<g id="edge68" class="edge"><title>Node31&#45;&gt;Node35</title>
<path fill="none" stroke="midnightblue" d="M589.661,-514.809C611.427,-517.201 640.282,-520.372 666.684,-523.273"/>
<polygon fill="midnightblue" stroke="midnightblue" points="666.341,-526.756 676.663,-524.37 667.105,-519.798 666.341,-526.756"/>
</g>
<!-- Node49 -->
<g id="node98" class="node"><title>Node49</title>
<a xlink:href="cvm-hfa-res_8c.html#a70c9e55ba1fcb934f74ad71ddca9d08f" target="_top" xlink:title="Radd">
<polygon fill="white" stroke="black" points="408.5,-379.5 408.5,-400.5 449.5,-400.5 449.5,-379.5 408.5,-379.5"/>
<text text-anchor="middle" x="429" y="-387.5" font-family="FreeSans" font-size="10.00">Radd</text>
</a>
</g>
<!-- Node48&#45;&gt;Node49 -->
<g id="edge98" class="edge"><title>Node48&#45;&gt;Node49</title>
<path fill="none" stroke="midnightblue" d="M364.662,-389.308C375.229,-389.422 387.245,-389.551 398.009,-389.667"/>
<polygon fill="midnightblue" stroke="midnightblue" points="398.218,-393.169 408.256,-389.777 398.294,-386.17 398.218,-393.169"/>
</g>
</g>
</svg>
