<?xml version="1.0" encoding="UTF-8" standalone="no"?>
<!DOCTYPE svg PUBLIC "-//W3C//DTD SVG 1.1//EN"
 "http://www.w3.org/Graphics/SVG/1.1/DTD/svg11.dtd">
<!-- Generated by graphviz version 2.24.0 (20090616.2323)
 -->
<!-- Title: hfa_savedctx_cleanup Pages: 1 -->
<svg width="360pt" height="70pt"
 viewBox="0.00 0.00 360.00 70.00" xmlns="http://www.w3.org/2000/svg" xmlns:xlink="http://www.w3.org/1999/xlink">
<g id="graph1" class="graph" transform="scale(1 1) rotate(0) translate(4 66)">
<title>hfa_savedctx_cleanup</title>
<polygon fill="white" stroke="white" points="-4,5 -4,-66 357,-66 357,5 -4,5"/>
<!-- Node1 -->
<g id="node1" class="node"><title>Node1</title>
<polygon fill="#bfbfbf" stroke="black" points="0.5,-20.5 0.5,-41.5 125.5,-41.5 125.5,-20.5 0.5,-20.5"/>
<text text-anchor="middle" x="63" y="-28.5" font-family="FreeSans" font-size="10.00">hfa_savedctx_cleanup</text>
</g>
<!-- Node2 -->
<g id="node3" class="node"><title>Node2</title>
<a xlink:href="cvm-hfa-pp_8c.html#a41ce9d3103c639e474783d3843e09071" target="_top" xlink:title="ppcleanup">
<polygon fill="white" stroke="black" points="162,-40.5 162,-61.5 228,-61.5 228,-40.5 162,-40.5"/>
<text text-anchor="middle" x="195" y="-48.5" font-family="FreeSans" font-size="10.00">ppcleanup</text>
</a>
</g>
<!-- Node1&#45;&gt;Node2 -->
<g id="edge2" class="edge"><title>Node1&#45;&gt;Node2</title>
<path fill="none" stroke="midnightblue" d="M125.521,-40.4729C134.427,-41.8223 143.418,-43.1846 151.843,-44.4611"/>
<polygon fill="midnightblue" stroke="midnightblue" points="151.383,-47.9313 161.795,-45.9689 152.432,-41.0102 151.383,-47.9313"/>
</g>
<!-- Node4 -->
<g id="node7" class="node"><title>Node4</title>
<a xlink:href="cvm-hfa-pp_8c.html#a9ad01b0f0de0f65b99a53f6c64f147e2" target="_top" xlink:title="ppinit">
<polygon fill="white" stroke="black" points="174,-0.5 174,-21.5 216,-21.5 216,-0.5 174,-0.5"/>
<text text-anchor="middle" x="195" y="-8.5" font-family="FreeSans" font-size="10.00">ppinit</text>
</a>
</g>
<!-- Node1&#45;&gt;Node4 -->
<g id="edge6" class="edge"><title>Node1&#45;&gt;Node4</title>
<path fill="none" stroke="midnightblue" d="M125.521,-21.5271C138.888,-19.5018 152.446,-17.4476 163.993,-15.6981"/>
<polygon fill="midnightblue" stroke="midnightblue" points="164.606,-19.1451 173.969,-14.1865 163.558,-12.2241 164.606,-19.1451"/>
</g>
<!-- Node3 -->
<g id="node5" class="node"><title>Node3</title>
<a xlink:href="pp_8h.html#a428ad073d1fd72da37ab8b00f13693a3" target="_top" xlink:title="pphfa_cleanup">
<polygon fill="white" stroke="black" points="264.5,-40.5 264.5,-61.5 351.5,-61.5 351.5,-40.5 264.5,-40.5"/>
<text text-anchor="middle" x="308" y="-48.5" font-family="FreeSans" font-size="10.00">pphfa_cleanup</text>
</a>
</g>
<!-- Node2&#45;&gt;Node3 -->
<g id="edge4" class="edge"><title>Node2&#45;&gt;Node3</title>
<path fill="none" stroke="midnightblue" d="M228.293,-51C236.434,-51 245.354,-51 254.187,-51"/>
<polygon fill="midnightblue" stroke="midnightblue" points="254.463,-54.5001 264.463,-51 254.463,-47.5001 254.463,-54.5001"/>
</g>
<!-- Node5 -->
<g id="node9" class="node"><title>Node5</title>
<a xlink:href="pp_8h.html#adc8d105abb8f12812385bb87d15e6e32" target="_top" xlink:title="pphfa_init">
<polygon fill="white" stroke="black" points="276.5,-0.5 276.5,-21.5 339.5,-21.5 339.5,-0.5 276.5,-0.5"/>
<text text-anchor="middle" x="308" y="-8.5" font-family="FreeSans" font-size="10.00">pphfa_init</text>
</a>
</g>
<!-- Node4&#45;&gt;Node5 -->
<g id="edge8" class="edge"><title>Node4&#45;&gt;Node5</title>
<path fill="none" stroke="midnightblue" d="M216.254,-11C230.232,-11 249,-11 265.92,-11"/>
<polygon fill="midnightblue" stroke="midnightblue" points="266.157,-14.5001 276.157,-11 266.157,-7.5001 266.157,-14.5001"/>
</g>
</g>
</svg>
