<?xml version="1.0" encoding="UTF-8" standalone="no"?>
<!DOCTYPE svg PUBLIC "-//W3C//DTD SVG 1.1//EN"
 "http://www.w3.org/Graphics/SVG/1.1/DTD/svg11.dtd">
<!-- Generated by graphviz version 2.24.0 (20090616.2323)
 -->
<!-- Title: hfa_defaultfn_ppalloc Pages: 1 -->
<svg width="316pt" height="70pt"
 viewBox="0.00 0.00 316.00 70.00" xmlns="http://www.w3.org/2000/svg" xmlns:xlink="http://www.w3.org/1999/xlink">
<g id="graph1" class="graph" transform="scale(1 1) rotate(0) translate(4 66)">
<title>hfa_defaultfn_ppalloc</title>
<polygon fill="white" stroke="white" points="-4,5 -4,-66 313,-66 313,5 -4,5"/>
<!-- Node1 -->
<g id="node1" class="node"><title>Node1</title>
<polygon fill="#bfbfbf" stroke="black" points="0,-20.5 0,-41.5 120,-41.5 120,-20.5 0,-20.5"/>
<text text-anchor="middle" x="60" y="-28.5" font-family="FreeSans" font-size="10.00">hfa_defaultfn_ppalloc</text>
</g>
<!-- Node2 -->
<g id="node3" class="node"><title>Node2</title>
<a xlink:href="cvm-hfa_8c.html#a873768042b716d60996ec5d858fc8fd9" target="_top" xlink:title="This function must be called by application to initialize HFA engine and setup resources for HFA hard...">
<polygon fill="white" stroke="black" points="156,-20.5 156,-41.5 230,-41.5 230,-20.5 156,-20.5"/>
<text text-anchor="middle" x="193" y="-28.5" font-family="FreeSans" font-size="10.00">hfa_dev_init</text>
</a>
</g>
<!-- Node1&#45;&gt;Node2 -->
<g id="edge2" class="edge"><title>Node1&#45;&gt;Node2</title>
<path fill="none" stroke="midnightblue" d="M130.51,-31C139.224,-31 147.847,-31 155.775,-31"/>
<polygon fill="midnightblue" stroke="midnightblue" points="130.274,-27.5001 120.274,-31 130.274,-34.5001 130.274,-27.5001"/>
</g>
<!-- Node3 -->
<g id="node5" class="node"><title>Node3</title>
<a xlink:href="hfa-lnx-async_8c.html#a78ffddbcd7cdd164889cfb53ea367886" target="_top" xlink:title="entry">
<polygon fill="white" stroke="black" points="266.5,-40.5 266.5,-61.5 307.5,-61.5 307.5,-40.5 266.5,-40.5"/>
<text text-anchor="middle" x="287" y="-48.5" font-family="FreeSans" font-size="10.00">entry</text>
</a>
</g>
<!-- Node2&#45;&gt;Node3 -->
<g id="edge4" class="edge"><title>Node2&#45;&gt;Node3</title>
<path fill="none" stroke="midnightblue" d="M240.098,-41.0209C249.326,-42.9842 258.548,-44.9463 266.342,-46.6047"/>
<polygon fill="midnightblue" stroke="midnightblue" points="240.661,-37.5623 230.151,-38.9045 239.204,-44.4091 240.661,-37.5623"/>
</g>
<!-- Node4 -->
<g id="node7" class="node"><title>Node4</title>
<a xlink:href="hfa-se-async_8c.html#a3c04138a5bfe5d72780bb7e82a18e627" target="_top" xlink:title="main">
<polygon fill="white" stroke="black" points="267,-0.5 267,-21.5 307,-21.5 307,-0.5 267,-0.5"/>
<text text-anchor="middle" x="287" y="-8.5" font-family="FreeSans" font-size="10.00">main</text>
</a>
</g>
<!-- Node2&#45;&gt;Node4 -->
<g id="edge6" class="edge"><title>Node2&#45;&gt;Node4</title>
<path fill="none" stroke="midnightblue" d="M239.966,-21.0073C249.447,-18.9901 258.929,-16.9725 266.871,-15.2828"/>
<polygon fill="midnightblue" stroke="midnightblue" points="239.204,-17.5909 230.151,-23.0955 240.661,-24.4377 239.204,-17.5909"/>
</g>
</g>
</svg>
