<?xml version="1.0" encoding="UTF-8" standalone="no"?>
<!DOCTYPE svg PUBLIC "-//W3C//DTD SVG 1.1//EN"
 "http://www.w3.org/Graphics/SVG/1.1/DTD/svg11.dtd">
<!-- Generated by graphviz version 2.24.0 (20090616.2323)
 -->
<!-- Title: hfa_graph_cacheload_async Pages: 1 -->
<svg width="438pt" height="750pt"
 viewBox="0.00 0.00 438.00 750.00" xmlns="http://www.w3.org/2000/svg" xmlns:xlink="http://www.w3.org/1999/xlink">
<g id="graph1" class="graph" transform="scale(1 1) rotate(0) translate(4 746)">
<title>hfa_graph_cacheload_async</title>
<polygon fill="white" stroke="white" points="-4,5 -4,-746 435,-746 435,5 -4,5"/>
<!-- Node1 -->
<g id="node1" class="node"><title>Node1</title>
<polygon fill="#bfbfbf" stroke="black" points="0,-354 0,-388 120,-388 120,-354 0,-354"/>
<text text-anchor="start" x="8" y="-375" font-family="FreeSans" font-size="10.00">hfa_graph_cacheload</text>
<text text-anchor="middle" x="60" y="-362" font-family="FreeSans" font-size="10.00">_async</text>
</g>
<!-- Node2 -->
<g id="node3" class="node"><title>Node2</title>
<a xlink:href="cvm-hfa-instr_8h.html#acaf8def6cbffb04c100bf7f7684f242e" target="_top" xlink:title="Initialize the HFA instruction.">
<polygon fill="white" stroke="black" points="172.5,-720.5 172.5,-741.5 275.5,-741.5 275.5,-720.5 172.5,-720.5"/>
<text text-anchor="middle" x="224" y="-728.5" font-family="FreeSans" font-size="10.00">cvm_hfa_instr_init</text>
</a>
</g>
<!-- Node1&#45;&gt;Node2 -->
<g id="edge2" class="edge"><title>Node1&#45;&gt;Node2</title>
<path fill="none" stroke="midnightblue" d="M62.6099,-388.109C72.4267,-450.336 108.983,-663.47 156,-711 158.222,-713.246 160.682,-715.242 163.31,-717.017"/>
<polygon fill="midnightblue" stroke="midnightblue" points="161.75,-720.155 172.189,-721.963 165.156,-714.039 161.75,-720.155"/>
</g>
<!-- Node3 -->
<g id="node5" class="node"><title>Node3</title>
<a xlink:href="cvm-hfa-instr_8h.html#ae3c5617039956247653e8ab215744691" target="_top" xlink:title="Sets le in the instruction.">
<polygon fill="white" stroke="black" points="168,-680.5 168,-701.5 280,-701.5 280,-680.5 168,-680.5"/>
<text text-anchor="middle" x="224" y="-688.5" font-family="FreeSans" font-size="10.00">cvm_hfa_instr_setle</text>
</a>
</g>
<!-- Node1&#45;&gt;Node3 -->
<g id="edge4" class="edge"><title>Node1&#45;&gt;Node3</title>
<path fill="none" stroke="midnightblue" d="M63.2827,-388.058C74.6343,-445.387 113.845,-629.831 156,-671 157.453,-672.419 159,-673.738 160.625,-674.964"/>
<polygon fill="midnightblue" stroke="midnightblue" points="158.963,-678.051 169.305,-680.353 162.656,-672.104 158.963,-678.051"/>
</g>
<!-- Node4 -->
<g id="node7" class="node"><title>Node4</title>
<a xlink:href="cvm-hfa-instr_8h.html#a8261a957d73f83f0e9d827f0740e418f" target="_top" xlink:title="Sets gm in the instruction.">
<polygon fill="white" stroke="black" points="156.5,-640.5 156.5,-661.5 291.5,-661.5 291.5,-640.5 156.5,-640.5"/>
<text text-anchor="middle" x="224" y="-648.5" font-family="FreeSans" font-size="10.00">cvm_hfa_instr_setgather</text>
</a>
</g>
<!-- Node1&#45;&gt;Node4 -->
<g id="edge6" class="edge"><title>Node1&#45;&gt;Node4</title>
<path fill="none" stroke="midnightblue" d="M61.1766,-388.12C65.289,-434.353 83.0524,-562.828 156,-631 157.517,-632.418 159.13,-633.736 160.819,-634.961"/>
<polygon fill="midnightblue" stroke="midnightblue" points="159.432,-638.21 169.81,-640.342 163.027,-632.203 159.432,-638.21"/>
</g>
<!-- Node5 -->
<g id="node9" class="node"><title>Node5</title>
<a xlink:href="cvm-hfa-instr_8h.html#aad258e7b6ac8e829b365867eff83f0ca" target="_top" xlink:title="Sets dsize in the CACHELOAD instruction.">
<polygon fill="white" stroke="black" points="159.5,-600.5 159.5,-621.5 288.5,-621.5 288.5,-600.5 159.5,-600.5"/>
<text text-anchor="middle" x="224" y="-608.5" font-family="FreeSans" font-size="10.00">cvm_hfa_instr_setdsize</text>
</a>
</g>
<!-- Node1&#45;&gt;Node5 -->
<g id="edge8" class="edge"><title>Node1&#45;&gt;Node5</title>
<path fill="none" stroke="midnightblue" d="M62.4819,-388.19C69.3636,-429.497 92.5515,-535.048 156,-591 157.762,-592.554 159.64,-593.988 161.606,-595.31"/>
<polygon fill="midnightblue" stroke="midnightblue" points="160.276,-598.577 170.708,-600.424 163.705,-592.474 160.276,-598.577"/>
</g>
<!-- Node6 -->
<g id="node11" class="node"><title>Node6</title>
<a xlink:href="cvm-hfa-instr_8h.html#ad91227f5246b9ab04b5151cbf93f38db" target="_top" xlink:title="Sets dptr in the instruction.">
<polygon fill="white" stroke="black" points="162.5,-560.5 162.5,-581.5 285.5,-581.5 285.5,-560.5 162.5,-560.5"/>
<text text-anchor="middle" x="224" y="-568.5" font-family="FreeSans" font-size="10.00">cvm_hfa_instr_setdptr</text>
</a>
</g>
<!-- Node1&#45;&gt;Node6 -->
<g id="edge10" class="edge"><title>Node1&#45;&gt;Node6</title>
<path fill="none" stroke="midnightblue" d="M64.3262,-388.255C74.214,-424.1 101.9,-506.942 156,-551 158.046,-552.666 160.225,-554.193 162.503,-555.593"/>
<polygon fill="midnightblue" stroke="midnightblue" points="161.206,-558.864 171.691,-560.386 164.444,-552.658 161.206,-558.864"/>
</g>
<!-- Node7 -->
<g id="node13" class="node"><title>Node7</title>
<a xlink:href="cvm-hfa-instr_8h.html#a4e2b3c4160c4ecad70f391800f7d9dba" target="_top" xlink:title="Sets rmax in the CACHELOAD instruction.">
<polygon fill="white" stroke="black" points="159.5,-520.5 159.5,-541.5 288.5,-541.5 288.5,-520.5 159.5,-520.5"/>
<text text-anchor="middle" x="224" y="-528.5" font-family="FreeSans" font-size="10.00">cvm_hfa_instr_setrmax</text>
</a>
</g>
<!-- Node1&#45;&gt;Node7 -->
<g id="edge12" class="edge"><title>Node1&#45;&gt;Node7</title>
<path fill="none" stroke="midnightblue" d="M67.0223,-388.025C80.0796,-417.565 110.924,-478.28 156,-511 158.639,-512.916 161.46,-514.649 164.398,-516.217"/>
<polygon fill="midnightblue" stroke="midnightblue" points="162.95,-519.404 173.493,-520.444 165.9,-513.056 162.95,-519.404"/>
</g>
<!-- Node8 -->
<g id="node15" class="node"><title>Node8</title>
<a xlink:href="cvm-hfa-instr_8h.html#ae835dc8f1211f0efa86a88df8e618c80" target="_top" xlink:title="Sets dlen in the instruction.">
<polygon fill="white" stroke="black" points="162,-480.5 162,-501.5 286,-501.5 286,-480.5 162,-480.5"/>
<text text-anchor="middle" x="224" y="-488.5" font-family="FreeSans" font-size="10.00">cvm_hfa_instr_setdlen</text>
</a>
</g>
<!-- Node1&#45;&gt;Node8 -->
<g id="edge14" class="edge"><title>Node1&#45;&gt;Node8</title>
<path fill="none" stroke="midnightblue" d="M71.9402,-388.131C88.3615,-410.432 120.006,-449.133 156,-471 159.393,-473.062 163.012,-474.921 166.744,-476.597"/>
<polygon fill="midnightblue" stroke="midnightblue" points="165.61,-479.913 176.194,-480.394 168.22,-473.418 165.61,-479.913"/>
</g>
<!-- Node9 -->
<g id="node17" class="node"><title>Node9</title>
<a xlink:href="cvm-hfa-instr_8h.html#a823a53a14312c8ef7cf8eae714ee8994" target="_top" xlink:title="Sets f4 in the MEMLOAD/CACHELOAD instruction.">
<polygon fill="white" stroke="black" points="167,-440.5 167,-461.5 281,-461.5 281,-440.5 167,-440.5"/>
<text text-anchor="middle" x="224" y="-448.5" font-family="FreeSans" font-size="10.00">cvm_hfa_instr_setf4</text>
</a>
</g>
<!-- Node1&#45;&gt;Node9 -->
<g id="edge16" class="edge"><title>Node1&#45;&gt;Node9</title>
<path fill="none" stroke="midnightblue" d="M83.4442,-388.199C102.282,-401.377 129.826,-419.238 156,-431 161.051,-433.27 166.427,-435.359 171.859,-437.262"/>
<polygon fill="midnightblue" stroke="midnightblue" points="171.043,-440.679 181.636,-440.484 173.234,-434.03 171.043,-440.679"/>
</g>
<!-- Node10 -->
<g id="node19" class="node"><title>Node10</title>
<a xlink:href="cvm-hfa-cluster_8c.html#ad8cad96579f5a310b62caaf8c166658f" target="_top" xlink:title="Returns a copy of a cluster of the HFA device.">
<polygon fill="white" stroke="black" points="179,-400.5 179,-421.5 269,-421.5 269,-400.5 179,-400.5"/>
<text text-anchor="middle" x="224" y="-408.5" font-family="FreeSans" font-size="10.00">hfa_get_cluster</text>
</a>
</g>
<!-- Node1&#45;&gt;Node10 -->
<g id="edge18" class="edge"><title>Node1&#45;&gt;Node10</title>
<path fill="none" stroke="midnightblue" d="M120.136,-385.667C136.791,-389.73 154.745,-394.108 170.963,-398.064"/>
<polygon fill="midnightblue" stroke="midnightblue" points="170.266,-401.497 180.81,-400.466 171.925,-394.696 170.266,-401.497"/>
</g>
<!-- Node11 -->
<g id="node21" class="node"><title>Node11</title>
<a xlink:href="cvm-hfa-instr_8h.html#ae68e1302e0d2010814eb883d768bab97" target="_top" xlink:title="Sets cbase in the CACHELOAD instruction.">
<polygon fill="white" stroke="black" points="157.5,-360.5 157.5,-381.5 290.5,-381.5 290.5,-360.5 157.5,-360.5"/>
<text text-anchor="middle" x="224" y="-368.5" font-family="FreeSans" font-size="10.00">cvm_hfa_instr_setcbase</text>
</a>
</g>
<!-- Node1&#45;&gt;Node11 -->
<g id="edge20" class="edge"><title>Node1&#45;&gt;Node11</title>
<path fill="none" stroke="midnightblue" d="M120.136,-371C128.904,-371 138.031,-371 147.076,-371"/>
<polygon fill="midnightblue" stroke="midnightblue" points="147.228,-374.5 157.228,-371 147.228,-367.5 147.228,-374.5"/>
</g>
<!-- Node12 -->
<g id="node23" class="node"><title>Node12</title>
<a xlink:href="cvm-hfa-instr_8h.html#aac026144550c5d2d8c5e9084da909a16" target="_top" xlink:title="Sets dbase in the CACHELOAD instruction.">
<polygon fill="white" stroke="black" points="157.5,-320.5 157.5,-341.5 290.5,-341.5 290.5,-320.5 157.5,-320.5"/>
<text text-anchor="middle" x="224" y="-328.5" font-family="FreeSans" font-size="10.00">cvm_hfa_instr_setdbase</text>
</a>
</g>
<!-- Node1&#45;&gt;Node12 -->
<g id="edge22" class="edge"><title>Node1&#45;&gt;Node12</title>
<path fill="none" stroke="midnightblue" d="M120.136,-356.333C136.791,-352.27 154.745,-347.892 170.963,-343.936"/>
<polygon fill="midnightblue" stroke="midnightblue" points="171.925,-347.304 180.81,-341.534 170.266,-340.503 171.925,-347.304"/>
</g>
<!-- Node13 -->
<g id="node25" class="node"><title>Node13</title>
<a xlink:href="cvm-hfa-instr_8h.html#a5202ffb084dff479254eddd9d1ad3884" target="_top" xlink:title="Sets pgid in the CACHELOAD instruction.">
<polygon fill="white" stroke="black" points="162,-280.5 162,-301.5 286,-301.5 286,-280.5 162,-280.5"/>
<text text-anchor="middle" x="224" y="-288.5" font-family="FreeSans" font-size="10.00">cvm_hfa_instr_setpgid</text>
</a>
</g>
<!-- Node1&#45;&gt;Node13 -->
<g id="edge24" class="edge"><title>Node1&#45;&gt;Node13</title>
<path fill="none" stroke="midnightblue" d="M83.4442,-353.801C102.282,-340.623 129.826,-322.762 156,-311 161.051,-308.73 166.427,-306.641 171.859,-304.738"/>
<polygon fill="midnightblue" stroke="midnightblue" points="173.234,-307.97 181.636,-301.516 171.043,-301.321 173.234,-307.97"/>
</g>
<!-- Node14 -->
<g id="node27" class="node"><title>Node14</title>
<a xlink:href="cvm-hfa-instr_8h.html#add4e981377a02cd06e2bca116e584bca" target="_top" xlink:title="Sets vgid in the instruction.">
<polygon fill="white" stroke="black" points="162,-240.5 162,-261.5 286,-261.5 286,-240.5 162,-240.5"/>
<text text-anchor="middle" x="224" y="-248.5" font-family="FreeSans" font-size="10.00">cvm_hfa_instr_setvgid</text>
</a>
</g>
<!-- Node1&#45;&gt;Node14 -->
<g id="edge26" class="edge"><title>Node1&#45;&gt;Node14</title>
<path fill="none" stroke="midnightblue" d="M71.9402,-353.869C88.3615,-331.568 120.006,-292.867 156,-271 159.393,-268.938 163.012,-267.079 166.744,-265.403"/>
<polygon fill="midnightblue" stroke="midnightblue" points="168.22,-268.582 176.194,-261.606 165.61,-262.087 168.22,-268.582"/>
</g>
<!-- Node15 -->
<g id="node29" class="node"><title>Node15</title>
<a xlink:href="cvm-hfa-instr_8h.html#a2d6082e2e599fe8523162b18d0a06f6c" target="_top" xlink:title="Sets rptr in the instruction.">
<polygon fill="white" stroke="black" points="164,-200.5 164,-221.5 284,-221.5 284,-200.5 164,-200.5"/>
<text text-anchor="middle" x="224" y="-208.5" font-family="FreeSans" font-size="10.00">cvm_hfa_instr_setrptr</text>
</a>
</g>
<!-- Node1&#45;&gt;Node15 -->
<g id="edge28" class="edge"><title>Node1&#45;&gt;Node15</title>
<path fill="none" stroke="midnightblue" d="M67.0223,-353.975C80.0796,-324.435 110.924,-263.72 156,-231 158.639,-229.084 161.46,-227.351 164.398,-225.783"/>
<polygon fill="midnightblue" stroke="midnightblue" points="165.9,-228.944 173.493,-221.556 162.95,-222.596 165.9,-228.944"/>
</g>
<!-- Node16 -->
<g id="node31" class="node"><title>Node16</title>
<a xlink:href="cvm-hfa-instr_8h.html#a6960a0761295ada9f449ea5e8c41ec80" target="_top" xlink:title="Sets clmsk in the instruction.">
<polygon fill="white" stroke="black" points="158,-160.5 158,-181.5 290,-181.5 290,-160.5 158,-160.5"/>
<text text-anchor="middle" x="224" y="-168.5" font-family="FreeSans" font-size="10.00">cvm_hfa_instr_setclmsk</text>
</a>
</g>
<!-- Node1&#45;&gt;Node16 -->
<g id="edge30" class="edge"><title>Node1&#45;&gt;Node16</title>
<path fill="none" stroke="midnightblue" d="M64.3262,-353.745C74.214,-317.9 101.9,-235.058 156,-191 158.046,-189.334 160.225,-187.807 162.503,-186.407"/>
<polygon fill="midnightblue" stroke="midnightblue" points="164.444,-189.342 171.691,-181.614 161.206,-183.136 164.444,-189.342"/>
</g>
<!-- Node17 -->
<g id="node33" class="node"><title>Node17</title>
<a xlink:href="cvm-hfa-instr_8h.html#a88a92a987acac81360f3b880d013cd10" target="_top" xlink:title="Sets wqptr instruction.">
<polygon fill="white" stroke="black" points="158.5,-120.5 158.5,-141.5 289.5,-141.5 289.5,-120.5 158.5,-120.5"/>
<text text-anchor="middle" x="224" y="-128.5" font-family="FreeSans" font-size="10.00">cvm_hfa_instr_setwqptr</text>
</a>
</g>
<!-- Node1&#45;&gt;Node17 -->
<g id="edge32" class="edge"><title>Node1&#45;&gt;Node17</title>
<path fill="none" stroke="midnightblue" d="M62.4819,-353.81C69.3636,-312.503 92.5515,-206.952 156,-151 157.762,-149.446 159.64,-148.012 161.606,-146.69"/>
<polygon fill="midnightblue" stroke="midnightblue" points="163.705,-149.526 170.708,-141.576 160.276,-143.423 163.705,-149.526"/>
</g>
<!-- Node18 -->
<g id="node35" class="node"><title>Node18</title>
<a xlink:href="cvm-hfa-graph_8c.html#a1320f0566be0069bd604cc820a12a114" target="_top" xlink:title="This routine sets WQE field in graph data structure.">
<polygon fill="white" stroke="black" points="171.5,-80.5 171.5,-101.5 276.5,-101.5 276.5,-80.5 171.5,-80.5"/>
<text text-anchor="middle" x="224" y="-88.5" font-family="FreeSans" font-size="10.00">hfa_graph_setwqe</text>
</a>
</g>
<!-- Node1&#45;&gt;Node18 -->
<g id="edge34" class="edge"><title>Node1&#45;&gt;Node18</title>
<path fill="none" stroke="midnightblue" d="M61.1766,-353.88C65.289,-307.647 83.0524,-179.172 156,-111 157.927,-109.199 160.009,-107.559 162.205,-106.066"/>
<polygon fill="midnightblue" stroke="midnightblue" points="164.176,-108.973 171.161,-101.007 160.733,-102.878 164.176,-108.973"/>
</g>
<!-- Node19 -->
<g id="node37" class="node"><title>Node19</title>
<a xlink:href="cvm-hfa-common_8h.html#a0da7c57174fb96d75ae9cc2ed3116a05" target="_top" xlink:title="Dump buffer pointed by &quot;buf&quot; in readable format.">
<polygon fill="white" stroke="black" points="181,-40.5 181,-61.5 267,-61.5 267,-40.5 181,-40.5"/>
<text text-anchor="middle" x="224" y="-48.5" font-family="FreeSans" font-size="10.00">hfa_dump_buf</text>
</a>
</g>
<!-- Node1&#45;&gt;Node19 -->
<g id="edge36" class="edge"><title>Node1&#45;&gt;Node19</title>
<path fill="none" stroke="midnightblue" d="M63.2827,-353.942C74.6343,-296.613 113.845,-112.169 156,-71 160.343,-66.7588 165.537,-63.4095 171.092,-60.7659"/>
<polygon fill="midnightblue" stroke="midnightblue" points="172.696,-63.8948 180.698,-56.9501 170.112,-57.3894 172.696,-63.8948"/>
</g>
<!-- Node20 -->
<g id="node39" class="node"><title>Node20</title>
<a xlink:href="cvm-hfa_8c.html#a4677d07b901d6aeb02e793c1dbdfabbf" target="_top" xlink:title="Asynchronous instruction submit to HFA hardware Do not wait for instruction to complete.">
<polygon fill="white" stroke="black" points="163,-0.5 163,-21.5 285,-21.5 285,-0.5 163,-0.5"/>
<text text-anchor="middle" x="224" y="-8.5" font-family="FreeSans" font-size="10.00">hfa_dev_submitasync</text>
</a>
</g>
<!-- Node1&#45;&gt;Node20 -->
<g id="edge38" class="edge"><title>Node1&#45;&gt;Node20</title>
<path fill="none" stroke="midnightblue" d="M62.6099,-353.891C72.4267,-291.664 108.983,-78.5302 156,-31 157.428,-29.5565 158.954,-28.216 160.56,-26.9712"/>
<polygon fill="midnightblue" stroke="midnightblue" points="162.599,-29.8226 169.17,-21.5111 158.85,-23.9112 162.599,-29.8226"/>
</g>
<!-- Node21 -->
<g id="node41" class="node"><title>Node21</title>
<a xlink:href="cvmx-hfa_8c.html#a96a123c8918e83cdf914f6de1bfb4f00" target="_top" xlink:title="Submit a command to the DFA block.">
<polygon fill="white" stroke="black" points="328,-0.5 328,-21.5 430,-21.5 430,-0.5 328,-0.5"/>
<text text-anchor="middle" x="379" y="-8.5" font-family="FreeSans" font-size="10.00">cvmx_hfa_submit</text>
</a>
</g>
<!-- Node20&#45;&gt;Node21 -->
<g id="edge40" class="edge"><title>Node20&#45;&gt;Node21</title>
<path fill="none" stroke="midnightblue" d="M285.26,-11C295.905,-11 306.978,-11 317.626,-11"/>
<polygon fill="midnightblue" stroke="midnightblue" points="317.677,-14.5001 327.677,-11 317.676,-7.5001 317.677,-14.5001"/>
</g>
</g>
</svg>
