<?xml version="1.0" encoding="UTF-8" standalone="no"?>
<!DOCTYPE svg PUBLIC "-//W3C//DTD SVG 1.1//EN"
 "http://www.w3.org/Graphics/SVG/1.1/DTD/svg11.dtd">
<!-- Generated by graphviz version 2.24.0 (20090616.2323)
 -->
<!-- Title: Rfree Pages: 1 -->
<!--zoomable 209 -->
<svg id="main" version="1.1" xmlns="http://www.w3.org/2000/svg" xmlns:xlink="http://www.w3.org/1999/xlink" xml:space="preserve" onload="init(evt)">
        <defs>
                <circle id="rim" cx="0" cy="0" r="7"/>
                <circle id="rim2" cx="0" cy="0" r="3.5"/>
                <g id="zoomPlus">
                        <use xlink:href="#rim" fill="#404040">
                                <set attributeName="fill" to="#808080" begin="zoomplus.mouseover" end="zoomplus.mouseout"/>
                        </use>
                        <path d="M-4,0h8M0,-4v8" fill="none" stroke="white" stroke-width="1.5" pointer-events="none"/>
                </g>
                <g id="zoomMin">
                        <use xlink:href="#rim" fill="#404040">
                                <set attributeName="fill" to="#808080" begin="zoomminus.mouseover" end="zoomminus.mouseout"/>
                        </use>
                        <path d="M-4,0h8" fill="none" stroke="white" stroke-width="1.5" pointer-events="none"/>
                </g>
                <g id="dirArrow">
                        <path fill="none" stroke="white" stroke-width="1.5" d="M0,-3.0v7 M-2.5,-0.5L0,-3.0L2.5,-0.5"/>
                </g>
               <g id="resetDef">
                       <use xlink:href="#rim2" fill="#404040">
                               <set attributeName="fill" to="#808080" begin="reset.mouseover" end="reset.mouseout"/>
                       </use>
               </g>
        </defs>

<script type="text/javascript">
var viewWidth = 754;
var viewHeight = 209;
var sectionId = 'dynsection-2';
</script>
<script xlink:href="svgpan.js"/>
<svg id="graph" class="graph">
<g id="viewport">
<title>Rfree</title>
<polygon fill="white" stroke="white" points="-4,5 -4,-205 751,-205 751,5 -4,5"/>
<!-- Node1 -->
<g id="node1" class="node"><title>Node1</title>
<polygon fill="#bfbfbf" stroke="black" points="0,-80.5 0,-101.5 42,-101.5 42,-80.5 0,-80.5"/>
<text text-anchor="middle" x="21" y="-88.5" font-family="FreeSans" font-size="10.00">Rfree</text>
</g>
<!-- Node2 -->
<g id="node3" class="node"><title>Node2</title>
<a xlink:href="cvm-hfa-search_8c.html#a543990bc2a5e1726298e5053391e3bf5" target="_top" xlink:title="This routine cleans&#45;up the match&#45;buffers allocated by hfa_searchctx_getmatches().">
<polygon fill="white" stroke="black" points="78.5,-80.5 78.5,-101.5 201.5,-101.5 201.5,-80.5 78.5,-80.5"/>
<text text-anchor="middle" x="140" y="-88.5" font-family="FreeSans" font-size="10.00">hfa_matches_cleanup</text>
</a>
</g>
<!-- Node1&#45;&gt;Node2 -->
<g id="edge2" class="edge"><title>Node1&#45;&gt;Node2</title>
<path fill="none" stroke="midnightblue" d="M52.069,-91C60.1869,-91 69.2278,-91 78.3364,-91"/>
<polygon fill="midnightblue" stroke="midnightblue" points="52.0009,-87.5001 42.0009,-91 52.0008,-94.5001 52.0009,-87.5001"/>
</g>
<!-- Node3 -->
<g id="node5" class="node"><title>Node3</title>
<a xlink:href="app-utils_8c.html#a633038357891aa5147b77fe939f300bf" target="_top" xlink:title="Print pattern matches via match buffer and cleanup all matches.">
<polygon fill="white" stroke="black" points="238,-80.5 238,-101.5 362,-101.5 362,-80.5 238,-80.5"/>
<text text-anchor="middle" x="300" y="-88.5" font-family="FreeSans" font-size="10.00">hfautils_print_matches</text>
</a>
</g>
<!-- Node2&#45;&gt;Node3 -->
<g id="edge4" class="edge"><title>Node2&#45;&gt;Node3</title>
<path fill="none" stroke="midnightblue" d="M211.91,-91C220.541,-91 229.299,-91 237.777,-91"/>
<polygon fill="midnightblue" stroke="midnightblue" points="211.86,-87.5001 201.86,-91 211.86,-94.5001 211.86,-87.5001"/>
</g>
<!-- Node4 -->
<g id="node7" class="node"><title>Node4</title>
<a xlink:href="hfa-lnx-async_8c.html#a972f8b60ef804914c009c2ef85bac50e" target="_top" xlink:title="Process search for given payload and graph.">
<polygon fill="white" stroke="black" points="398,-160.5 398,-181.5 490,-181.5 490,-160.5 398,-160.5"/>
<text text-anchor="middle" x="444" y="-168.5" font-family="FreeSans" font-size="10.00">process_search</text>
</a>
</g>
<!-- Node3&#45;&gt;Node4 -->
<g id="edge6" class="edge"><title>Node3&#45;&gt;Node4</title>
<path fill="none" stroke="midnightblue" d="M324.463,-107.295C343.961,-119.957 372.181,-137.566 398,-151 404.335,-154.296 411.331,-157.532 417.915,-160.409"/>
<polygon fill="midnightblue" stroke="midnightblue" points="326.183,-104.237 315.899,-101.687 322.348,-110.094 326.183,-104.237"/>
</g>
<!-- Node8 -->
<g id="node16" class="node"><title>Node8</title>
<a xlink:href="hfa-lnx-linkgraph_8c.html#a78ffddbcd7cdd164889cfb53ea367886" target="_top" xlink:title="entry">
<polygon fill="white" stroke="black" points="423.5,-120.5 423.5,-141.5 464.5,-141.5 464.5,-120.5 423.5,-120.5"/>
<text text-anchor="middle" x="444" y="-128.5" font-family="FreeSans" font-size="10.00">entry</text>
</a>
</g>
<!-- Node3&#45;&gt;Node8 -->
<g id="edge16" class="edge"><title>Node3&#45;&gt;Node8</title>
<path fill="none" stroke="midnightblue" d="M347.76,-104.267C373.389,-111.386 403.658,-119.794 423.311,-125.253"/>
<polygon fill="midnightblue" stroke="midnightblue" points="348.406,-100.814 337.834,-101.51 346.533,-107.558 348.406,-100.814"/>
</g>
<!-- Node9 -->
<g id="node18" class="node"><title>Node9</title>
<a xlink:href="hfa-lnx-nctx-lock_8c.html#adb0c831ef0f9af5441a6769c377d9c95" target="_top" xlink:title="Post process the results from HFA and record found matches.">
<polygon fill="white" stroke="black" points="404,-80.5 404,-101.5 484,-101.5 484,-80.5 404,-80.5"/>
<text text-anchor="middle" x="444" y="-88.5" font-family="FreeSans" font-size="10.00">post_process</text>
</a>
</g>
<!-- Node3&#45;&gt;Node9 -->
<g id="edge18" class="edge"><title>Node3&#45;&gt;Node9</title>
<path fill="none" stroke="midnightblue" d="M372.541,-91C383.226,-91 393.895,-91 403.607,-91"/>
<polygon fill="midnightblue" stroke="midnightblue" points="372.323,-87.5001 362.323,-91 372.323,-94.5001 372.323,-87.5001"/>
</g>
<!-- Node12 -->
<g id="node25" class="node"><title>Node12</title>
<a xlink:href="hfa-se-async_8c.html#a3c04138a5bfe5d72780bb7e82a18e627" target="_top" xlink:title="main">
<polygon fill="white" stroke="black" points="424,-40.5 424,-61.5 464,-61.5 464,-40.5 424,-40.5"/>
<text text-anchor="middle" x="444" y="-48.5" font-family="FreeSans" font-size="10.00">main</text>
</a>
</g>
<!-- Node3&#45;&gt;Node12 -->
<g id="edge26" class="edge"><title>Node3&#45;&gt;Node12</title>
<path fill="none" stroke="midnightblue" d="M347.48,-77.8111C373.346,-70.6262 404.006,-62.1095 423.717,-56.6343"/>
<polygon fill="midnightblue" stroke="midnightblue" points="346.533,-74.4416 337.834,-80.4905 348.406,-81.1863 346.533,-74.4416"/>
</g>
<!-- Node13 -->
<g id="node27" class="node"><title>Node13</title>
<a xlink:href="hfa-se-wqe-lock_8c.html#a06b5fcfab0e1d5eb36b633ec080ad7f9" target="_top" xlink:title="Process search for given contexts.">
<polygon fill="white" stroke="black" points="404,-0.5 404,-21.5 484,-21.5 484,-0.5 404,-0.5"/>
<text text-anchor="middle" x="444" y="-8.5" font-family="FreeSans" font-size="10.00">process_nctx</text>
</a>
</g>
<!-- Node3&#45;&gt;Node13 -->
<g id="edge28" class="edge"><title>Node3&#45;&gt;Node13</title>
<path fill="none" stroke="midnightblue" d="M324.463,-74.7052C343.961,-62.0429 372.181,-44.4337 398,-31 404.335,-27.7041 411.331,-24.4676 417.915,-21.5907"/>
<polygon fill="midnightblue" stroke="midnightblue" points="322.348,-71.9064 315.899,-80.3128 326.183,-77.7626 322.348,-71.9064"/>
</g>
<!-- Node5 -->
<g id="node9" class="node"><title>Node5</title>
<a xlink:href="hfa-lnx-async_8c.html#a1e97b1d598034fdc92d57054a6c386e6" target="_top" xlink:title="tasklet_callback">
<polygon fill="white" stroke="black" points="526,-179.5 526,-200.5 618,-200.5 618,-179.5 526,-179.5"/>
<text text-anchor="middle" x="572" y="-187.5" font-family="FreeSans" font-size="10.00">tasklet_callback</text>
</a>
</g>
<!-- Node4&#45;&gt;Node5 -->
<g id="edge8" class="edge"><title>Node4&#45;&gt;Node5</title>
<path fill="none" stroke="midnightblue" d="M500.162,-179.337C508.746,-180.611 517.521,-181.913 525.857,-183.151"/>
<polygon fill="midnightblue" stroke="midnightblue" points="500.616,-175.866 490.211,-177.859 499.589,-182.79 500.616,-175.866"/>
</g>
<!-- Node7 -->
<g id="node13" class="node"><title>Node7</title>
<a xlink:href="hfa-lnx-async_8c.html#a7dea7d59754828b1173c4c7ec5d42f3e" target="_top" xlink:title="thread_callback">
<polygon fill="white" stroke="black" points="526,-139.5 526,-160.5 618,-160.5 618,-139.5 526,-139.5"/>
<text text-anchor="middle" x="572" y="-147.5" font-family="FreeSans" font-size="10.00">thread_callback</text>
</a>
</g>
<!-- Node4&#45;&gt;Node7 -->
<g id="edge12" class="edge"><title>Node4&#45;&gt;Node7</title>
<path fill="none" stroke="midnightblue" d="M500.162,-161.786C508.746,-160.378 517.521,-158.938 525.857,-157.57"/>
<polygon fill="midnightblue" stroke="midnightblue" points="499.512,-158.346 490.211,-163.419 500.646,-165.253 499.512,-158.346"/>
</g>
<!-- Node6 -->
<g id="node11" class="node"><title>Node6</title>
<a xlink:href="hfa-lnx-async_8c.html#a78ffddbcd7cdd164889cfb53ea367886" target="_top" xlink:title="entry">
<polygon fill="white" stroke="black" points="679.5,-148.5 679.5,-169.5 720.5,-169.5 720.5,-148.5 679.5,-148.5"/>
<text text-anchor="middle" x="700" y="-156.5" font-family="FreeSans" font-size="10.00">entry</text>
</a>
</g>
<!-- Node5&#45;&gt;Node6 -->
<g id="edge10" class="edge"><title>Node5&#45;&gt;Node6</title>
<path fill="none" stroke="midnightblue" d="M625.493,-177.045C644.528,-172.435 664.839,-167.516 679.438,-163.98"/>
<polygon fill="midnightblue" stroke="midnightblue" points="624.587,-173.663 615.692,-179.418 626.235,-180.466 624.587,-173.663"/>
</g>
<!-- Node7&#45;&gt;Node6 -->
<g id="edge14" class="edge"><title>Node7&#45;&gt;Node6</title>
<path fill="none" stroke="midnightblue" d="M628.428,-153.968C646.516,-155.239 665.421,-156.569 679.257,-157.541"/>
<polygon fill="midnightblue" stroke="midnightblue" points="628.432,-150.459 618.211,-153.249 627.941,-157.442 628.432,-150.459"/>
</g>
<!-- Node10 -->
<g id="node20" class="node"><title>Node10</title>
<a xlink:href="hfa-lnx-nctx-lock_8c.html#a48d3743fb7abc7d3c6b68359678e52a1" target="_top" xlink:title="Poll for the pending search instructions in the HW (blocked till instruction completes) and process t...">
<polygon fill="white" stroke="black" points="555.5,-99.5 555.5,-120.5 588.5,-120.5 588.5,-99.5 555.5,-99.5"/>
<text text-anchor="middle" x="572" y="-107.5" font-family="FreeSans" font-size="10.00">poll</text>
</a>
</g>
<!-- Node9&#45;&gt;Node10 -->
<g id="edge20" class="edge"><title>Node9&#45;&gt;Node10</title>
<path fill="none" stroke="midnightblue" d="M494.264,-98.461C515.994,-101.687 539.941,-105.241 555.434,-107.541"/>
<polygon fill="midnightblue" stroke="midnightblue" points="494.554,-94.9659 484.149,-96.9596 493.526,-101.89 494.554,-94.9659"/>
</g>
<!-- Node11 -->
<g id="node22" class="node"><title>Node11</title>
<a xlink:href="hfa-lnx-nctx-lock_8c.html#a972f8b60ef804914c009c2ef85bac50e" target="_top" xlink:title="Performs search process for each core.">
<polygon fill="white" stroke="black" points="654,-89.5 654,-110.5 746,-110.5 746,-89.5 654,-89.5"/>
<text text-anchor="middle" x="700" y="-97.5" font-family="FreeSans" font-size="10.00">process_search</text>
</a>
</g>
<!-- Node9&#45;&gt;Node11 -->
<g id="edge24" class="edge"><title>Node9&#45;&gt;Node11</title>
<path fill="none" stroke="midnightblue" d="M494.492,-88.9418C529.248,-87.9584 576.464,-87.4767 618,-90 629.595,-90.7044 642.062,-91.9642 653.688,-93.3574"/>
<polygon fill="midnightblue" stroke="midnightblue" points="494.013,-85.4548 484.125,-89.2604 494.228,-92.4515 494.013,-85.4548"/>
</g>
<!-- Node10&#45;&gt;Node11 -->
<g id="edge22" class="edge"><title>Node10&#45;&gt;Node11</title>
<path fill="none" stroke="midnightblue" d="M598.908,-107.898C614.799,-106.656 635.351,-105.051 653.769,-103.612"/>
<polygon fill="midnightblue" stroke="midnightblue" points="598.431,-104.424 588.734,-108.693 598.976,-111.403 598.431,-104.424"/>
</g>
<!-- Node14 -->
<g id="node29" class="node"><title>Node14</title>
<a xlink:href="hfa-se-wqe-lock_8c.html#a3c04138a5bfe5d72780bb7e82a18e627" target="_top" xlink:title="main">
<polygon fill="white" stroke="black" points="552,-0.5 552,-21.5 592,-21.5 592,-0.5 552,-0.5"/>
<text text-anchor="middle" x="572" y="-8.5" font-family="FreeSans" font-size="10.00">main</text>
</a>
</g>
<!-- Node13&#45;&gt;Node14 -->
<g id="edge30" class="edge"><title>Node13&#45;&gt;Node14</title>
<path fill="none" stroke="midnightblue" d="M494.397,-11C514.403,-11 536.267,-11 551.675,-11"/>
<polygon fill="midnightblue" stroke="midnightblue" points="494.149,-7.5001 484.149,-11 494.149,-14.5001 494.149,-7.5001"/>
</g>
</g>
</svg>
        <g id="navigator" transform="translate(0 0)" fill="#404254">
                <rect fill="#f2f5e9" fill-opacity="0.5" stroke="#606060" stroke-width=".5" x="0" y="0" width="60" height="60"/>
                <use id="zoomplus" xlink:href="#zoomPlus" x="17" y="9" onmousedown="handleZoom(evt,'in')"/>
                <use id="zoomminus" xlink:href="#zoomMin" x="42" y="9" onmousedown="handleZoom(evt,'out')"/>
                <use id="reset" xlink:href="#resetDef" x="30" y="36" onmousedown="handleReset()"/>
                <g id="arrowUp" xlink:href="#dirArrow" transform="translate(30 24)" onmousedown="handlePan(0,-1)">
                  <use xlink:href="#rim" fill="#404040">
                        <set attributeName="fill" to="#808080" begin="arrowUp.mouseover" end="arrowUp.mouseout"/>
                  </use>
                  <path fill="none" stroke="white" stroke-width="1.5" d="M0,-3.0v7 M-2.5,-0.5L0,-3.0L2.5,-0.5"/>
                </g>
                <g id="arrowRight" xlink:href="#dirArrow" transform="rotate(90) translate(36 -43)" onmousedown="handlePan(1,0)">
                  <use xlink:href="#rim" fill="#404040">
                        <set attributeName="fill" to="#808080" begin="arrowRight.mouseover" end="arrowRight.mouseout"/>
                  </use>
                  <path fill="none" stroke="white" stroke-width="1.5" d="M0,-3.0v7 M-2.5,-0.5L0,-3.0L2.5,-0.5"/>
                </g>
                <g id="arrowDown" xlink:href="#dirArrow" transform="rotate(180) translate(-30 -48)" onmousedown="handlePan(0,1)">
                  <use xlink:href="#rim" fill="#404040">
                        <set attributeName="fill" to="#808080" begin="arrowDown.mouseover" end="arrowDown.mouseout"/>
                  </use>
                  <path fill="none" stroke="white" stroke-width="1.5" d="M0,-3.0v7 M-2.5,-0.5L0,-3.0L2.5,-0.5"/>
                </g>
                <g id="arrowLeft" xlink:href="#dirArrow" transform="rotate(270) translate(-36 17)" onmousedown="handlePan(-1,0)">
                  <use xlink:href="#rim" fill="#404040">
                        <set attributeName="fill" to="#808080" begin="arrowLeft.mouseover" end="arrowLeft.mouseout"/>
                  </use>
                  <path fill="none" stroke="white" stroke-width="1.5" d="M0,-3.0v7 M-2.5,-0.5L0,-3.0L2.5,-0.5"/>
                </g>
        </g>
        <svg viewBox="0 0 15 15" width="100%" height="30px" preserveAspectRatio="xMaxYMin meet">
         <g id="arrow_out" transform="scale(0.3 0.3)">
          <a xlink:href="cvm-hfa-res_8h_a78813e2d747c1d659277b705ebdffc50_icgraph_org.svg" target="_base">
           <rect id="button" ry="5" rx="5" y="6" x="6" height="38" width="38"
                fill="#f2f5e9" fill-opacity="0.5" stroke="#606060" stroke-width="1.0"/>
           <path id="arrow"
             d="M 11.500037,31.436501 C 11.940474,20.09759 22.043105,11.32322 32.158766,21.979434 L 37.068811,17.246167 C 37.068811,17.246167 37.088388,32 37.088388,32 L 22.160133,31.978069 C 22.160133,31.978069 26.997745,27.140456 26.997745,27.140456 C 18.528582,18.264221 13.291696,25.230495 11.500037,31.436501 z"
             style="fill:#404040;"/>
          </a>
         </g>
        </svg>
</svg>
