<?xml version="1.0" encoding="UTF-8" standalone="no"?>
<!DOCTYPE svg PUBLIC "-//W3C//DTD SVG 1.1//EN"
 "http://www.w3.org/Graphics/SVG/1.1/DTD/svg11.dtd">
<!-- Generated by graphviz version 2.24.0 (20090616.2323)
 -->
<!-- Title: __hfa_os_listdel Pages: 1 -->
<!--zoomable 190 -->
<svg id="main" version="1.1" xmlns="http://www.w3.org/2000/svg" xmlns:xlink="http://www.w3.org/1999/xlink" xml:space="preserve" onload="init(evt)">
        <defs>
                <circle id="rim" cx="0" cy="0" r="7"/>
                <circle id="rim2" cx="0" cy="0" r="3.5"/>
                <g id="zoomPlus">
                        <use xlink:href="#rim" fill="#404040">
                                <set attributeName="fill" to="#808080" begin="zoomplus.mouseover" end="zoomplus.mouseout"/>
                        </use>
                        <path d="M-4,0h8M0,-4v8" fill="none" stroke="white" stroke-width="1.5" pointer-events="none"/>
                </g>
                <g id="zoomMin">
                        <use xlink:href="#rim" fill="#404040">
                                <set attributeName="fill" to="#808080" begin="zoomminus.mouseover" end="zoomminus.mouseout"/>
                        </use>
                        <path d="M-4,0h8" fill="none" stroke="white" stroke-width="1.5" pointer-events="none"/>
                </g>
                <g id="dirArrow">
                        <path fill="none" stroke="white" stroke-width="1.5" d="M0,-3.0v7 M-2.5,-0.5L0,-3.0L2.5,-0.5"/>
                </g>
               <g id="resetDef">
                       <use xlink:href="#rim2" fill="#404040">
                               <set attributeName="fill" to="#808080" begin="reset.mouseover" end="reset.mouseout"/>
                       </use>
               </g>
        </defs>

<script type="text/javascript">
var viewWidth = 1050;
var viewHeight = 190;
var sectionId = 'dynsection-1';
</script>
<script xlink:href="svgpan.js"/>
<svg id="graph" class="graph">
<g id="viewport">
<title>__hfa_os_listdel</title>
<polygon fill="white" stroke="white" points="-4,5 -4,-186 1047,-186 1047,5 -4,5"/>
<!-- Node1 -->
<g id="node1" class="node"><title>Node1</title>
<polygon fill="#bfbfbf" stroke="black" points="0.5,-80.5 0.5,-101.5 91.5,-101.5 91.5,-80.5 0.5,-80.5"/>
<text text-anchor="middle" x="46" y="-88.5" font-family="FreeSans" font-size="10.00">__hfa_os_listdel</text>
</g>
<!-- Node2 -->
<g id="node3" class="node"><title>Node2</title>
<a xlink:href="cvm-hfa-osapi_8h.html#acacbbbac0cb1e827a08946bcdf13209b" target="_top" xlink:title="hfa_os_listdel">
<polygon fill="white" stroke="black" points="128.5,-80.5 128.5,-101.5 209.5,-101.5 209.5,-80.5 128.5,-80.5"/>
<text text-anchor="middle" x="169" y="-88.5" font-family="FreeSans" font-size="10.00">hfa_os_listdel</text>
</a>
</g>
<!-- Node1&#45;&gt;Node2 -->
<g id="edge2" class="edge"><title>Node1&#45;&gt;Node2</title>
<path fill="none" stroke="midnightblue" d="M101.813,-91C110.779,-91 119.907,-91 128.427,-91"/>
<polygon fill="midnightblue" stroke="midnightblue" points="101.801,-87.5001 91.8007,-91 101.801,-94.5001 101.801,-87.5001"/>
</g>
<!-- Node3 -->
<g id="node5" class="node"><title>Node3</title>
<a xlink:href="flow_8c.html#a696ee2b7ad7078c47242360be84d89bf" target="_top" xlink:title="Counterpart of __hfaf_create_flow.">
<polygon fill="white" stroke="black" points="254.5,-119.5 254.5,-140.5 367.5,-140.5 367.5,-119.5 254.5,-119.5"/>
<text text-anchor="middle" x="311" y="-127.5" font-family="FreeSans" font-size="10.00">__hfaf_destroy_flow</text>
</a>
</g>
<!-- Node2&#45;&gt;Node3 -->
<g id="edge4" class="edge"><title>Node2&#45;&gt;Node3</title>
<path fill="none" stroke="midnightblue" d="M217.193,-104.236C235.242,-109.193 255.49,-114.754 272.542,-119.438"/>
<polygon fill="midnightblue" stroke="midnightblue" points="217.997,-100.827 207.427,-101.554 216.143,-107.577 217.997,-100.827"/>
</g>
<!-- Node4 -->
<g id="node7" class="node"><title>Node4</title>
<a xlink:href="flow_8c.html#a93974ea83df979435eb77f3c5d4ab848" target="_top" xlink:title="Cleanup Flowdb Node (Per Index)">
<polygon fill="white" stroke="black" points="412,-160.5 412,-181.5 558,-181.5 558,-160.5 412,-160.5"/>
<text text-anchor="middle" x="485" y="-168.5" font-family="FreeSans" font-size="10.00">hfaf_flowdb_node_cleanup</text>
</a>
</g>
<!-- Node2&#45;&gt;Node4 -->
<g id="edge38" class="edge"><title>Node2&#45;&gt;Node4</title>
<path fill="none" stroke="midnightblue" d="M185.999,-108.681C200.513,-122.538 222.69,-140.939 246,-150 298.897,-170.561 363.188,-175.184 411.76,-175.011"/>
<polygon fill="midnightblue" stroke="midnightblue" points="188.34,-106.074 178.765,-101.538 183.422,-111.055 188.34,-106.074"/>
</g>
<!-- Node9 -->
<g id="node17" class="node"><title>Node9</title>
<a xlink:href="flow_8h.html#a8d99fe33dc3203530d360196cc7decb4" target="_top" xlink:title="Counterpart of hfaf_create_pktflow().">
<polygon fill="white" stroke="black" points="427,-80.5 427,-101.5 543,-101.5 543,-80.5 427,-80.5"/>
<text text-anchor="middle" x="485" y="-88.5" font-family="FreeSans" font-size="10.00">hfaf_destroy_pktflow</text>
</a>
</g>
<!-- Node2&#45;&gt;Node9 -->
<g id="edge40" class="edge"><title>Node2&#45;&gt;Node9</title>
<path fill="none" stroke="midnightblue" d="M219.798,-91C276.308,-91 367.443,-91 426.786,-91"/>
<polygon fill="midnightblue" stroke="midnightblue" points="219.665,-87.5001 209.665,-91 219.665,-94.5001 219.665,-87.5001"/>
</g>
<!-- Node10 -->
<g id="node19" class="node"><title>Node10</title>
<a xlink:href="flow_8c.html#a5034d9a3ed0a1dac918c6a8d84fae8c6" target="_top" xlink:title="Low level API to submit search parameter to flow.">
<polygon fill="white" stroke="black" points="249.5,-40.5 249.5,-61.5 372.5,-61.5 372.5,-40.5 249.5,-40.5"/>
<text text-anchor="middle" x="311" y="-48.5" font-family="FreeSans" font-size="10.00">__hfaf_submit_pktflow</text>
</a>
</g>
<!-- Node2&#45;&gt;Node10 -->
<g id="edge18" class="edge"><title>Node2&#45;&gt;Node10</title>
<path fill="none" stroke="midnightblue" d="M216.084,-77.7368C234.727,-72.4852 255.862,-66.5319 273.447,-61.5782"/>
<polygon fill="midnightblue" stroke="midnightblue" points="214.985,-74.4101 206.309,-80.4905 216.883,-81.1479 214.985,-74.4101"/>
</g>
<!-- Node17 -->
<g id="node34" class="node"><title>Node17</title>
<a xlink:href="flow_8c.html#a2976ab60901b133a56214323fb901663" target="_top" xlink:title="Low level API to poll a flow.">
<polygon fill="white" stroke="black" points="246.5,-0.5 246.5,-21.5 375.5,-21.5 375.5,-0.5 246.5,-0.5"/>
<text text-anchor="middle" x="311" y="-8.5" font-family="FreeSans" font-size="10.00">__hfaf_process_pktflow</text>
</a>
</g>
<!-- Node2&#45;&gt;Node17 -->
<g id="edge34" class="edge"><title>Node2&#45;&gt;Node17</title>
<path fill="none" stroke="midnightblue" d="M187.545,-73.3785C202.36,-60.1242 224.187,-42.3622 246,-31 253.121,-27.291 261.044,-24.1412 268.843,-21.5154"/>
<polygon fill="midnightblue" stroke="midnightblue" points="185.095,-70.8761 180.08,-80.209 189.82,-76.0404 185.095,-70.8761"/>
</g>
<!-- Node3&#45;&gt;Node4 -->
<g id="edge6" class="edge"><title>Node3&#45;&gt;Node4</title>
<path fill="none" stroke="midnightblue" d="M365.836,-142.921C389.835,-148.576 417.634,-155.126 440.343,-160.477"/>
<polygon fill="midnightblue" stroke="midnightblue" points="366.346,-139.445 355.809,-140.559 364.74,-146.259 366.346,-139.445"/>
</g>
<!-- Node7 -->
<g id="node13" class="node"><title>Node7</title>
<a xlink:href="flow_8h.html#abdb62c6f71f5ca9ecddc66c90166d37b" target="_top" xlink:title="Create Packet Flow in Flowdb.">
<polygon fill="white" stroke="black" points="429.5,-120.5 429.5,-141.5 540.5,-141.5 540.5,-120.5 429.5,-120.5"/>
<text text-anchor="middle" x="485" y="-128.5" font-family="FreeSans" font-size="10.00">hfaf_create_pktflow</text>
</a>
</g>
<!-- Node3&#45;&gt;Node7 -->
<g id="edge12" class="edge"><title>Node3&#45;&gt;Node7</title>
<path fill="none" stroke="midnightblue" d="M378.328,-130.387C395.212,-130.484 413.139,-130.587 429.381,-130.68"/>
<polygon fill="midnightblue" stroke="midnightblue" points="377.994,-126.885 367.974,-130.327 377.954,-133.885 377.994,-126.885"/>
</g>
<!-- Node3&#45;&gt;Node9 -->
<g id="edge16" class="edge"><title>Node3&#45;&gt;Node9</title>
<path fill="none" stroke="midnightblue" d="M367.913,-117.244C390.557,-112.168 416.303,-106.398 437.875,-101.562"/>
<polygon fill="midnightblue" stroke="midnightblue" points="367.079,-113.844 358.087,-119.446 368.61,-120.674 367.079,-113.844"/>
</g>
<!-- Node5 -->
<g id="node9" class="node"><title>Node5</title>
<a xlink:href="flow_8h.html#a2a51025bf645e4e1eec8cac2b4f8a8c0" target="_top" xlink:title="Cleanups Flow database which was created in hfaf_flowdb_init()">
<polygon fill="white" stroke="black" points="716.5,-129.5 716.5,-150.5 833.5,-150.5 833.5,-129.5 716.5,-129.5"/>
<text text-anchor="middle" x="775" y="-137.5" font-family="FreeSans" font-size="10.00">hfaf_flowdb_cleanup</text>
</a>
</g>
<!-- Node4&#45;&gt;Node5 -->
<g id="edge8" class="edge"><title>Node4&#45;&gt;Node5</title>
<path fill="none" stroke="midnightblue" d="M568.235,-162.705C602.817,-159.196 643.358,-155 680,-151 691.801,-149.712 704.421,-148.285 716.481,-146.898"/>
<polygon fill="midnightblue" stroke="midnightblue" points="567.774,-159.234 558.177,-163.723 568.479,-166.198 567.774,-159.234"/>
</g>
<!-- Node6 -->
<g id="node11" class="node"><title>Node6</title>
<a xlink:href="hfa-se-flow-wqe_8c.html#a3c04138a5bfe5d72780bb7e82a18e627" target="_top" xlink:title="Implementation.">
<polygon fill="white" stroke="black" points="1002,-97.5 1002,-118.5 1042,-118.5 1042,-97.5 1002,-97.5"/>
<text text-anchor="middle" x="1022" y="-105.5" font-family="FreeSans" font-size="10.00">main</text>
</a>
</g>
<!-- Node5&#45;&gt;Node6 -->
<g id="edge10" class="edge"><title>Node5&#45;&gt;Node6</title>
<path fill="none" stroke="midnightblue" d="M843.652,-131.106C897.16,-124.174 967.906,-115.008 1001.97,-110.594"/>
<polygon fill="midnightblue" stroke="midnightblue" points="843.003,-127.661 833.536,-132.416 843.902,-134.603 843.003,-127.661"/>
</g>
<!-- Node8 -->
<g id="node15" class="node"><title>Node8</title>
<a xlink:href="hfa-se-flow-wqe_8c.html#a6d3e23d8f7a3aaf1b0d6e350b7631a0e" target="_top" xlink:title="Get flow pointer from Flow database, If flow ptr is NULL then create at runtime.">
<polygon fill="white" stroke="black" points="602.5,-120.5 602.5,-141.5 671.5,-141.5 671.5,-120.5 602.5,-120.5"/>
<text text-anchor="middle" x="637" y="-128.5" font-family="FreeSans" font-size="10.00">get_flowptr</text>
</a>
</g>
<!-- Node7&#45;&gt;Node8 -->
<g id="edge14" class="edge"><title>Node7&#45;&gt;Node8</title>
<path fill="none" stroke="midnightblue" d="M551.056,-131C568.778,-131 587.234,-131 602.479,-131"/>
<polygon fill="midnightblue" stroke="midnightblue" points="550.736,-127.5 540.736,-131 550.736,-134.5 550.736,-127.5"/>
</g>
<!-- Node11 -->
<g id="node21" class="node"><title>Node11</title>
<a xlink:href="flow_8h.html#a18bf649957e692c30595a05f9c9516e6" target="_top" xlink:title="High Level API to submit Search Parameter to a Flow.">
<polygon fill="white" stroke="black" points="428.5,-40.5 428.5,-61.5 541.5,-61.5 541.5,-40.5 428.5,-40.5"/>
<text text-anchor="middle" x="485" y="-48.5" font-family="FreeSans" font-size="10.00">hfaf_submit_pktflow</text>
</a>
</g>
<!-- Node10&#45;&gt;Node11 -->
<g id="edge20" class="edge"><title>Node10&#45;&gt;Node11</title>
<path fill="none" stroke="midnightblue" d="M383.145,-51C398.21,-51 413.888,-51 428.299,-51"/>
<polygon fill="midnightblue" stroke="midnightblue" points="382.836,-47.5001 372.836,-51 382.836,-54.5001 382.836,-47.5001"/>
</g>
<!-- Node13 -->
<g id="node25" class="node"><title>Node13</title>
<a xlink:href="flow_8h.html#ab1b3378af88a440a6c3c0851be942e65" target="_top" xlink:title="All submitted search parameters in Paramlist of flow are polled If low level API __hfaf_process_pktfl...">
<polygon fill="white" stroke="black" points="425.5,-0.5 425.5,-21.5 544.5,-21.5 544.5,-0.5 425.5,-0.5"/>
<text text-anchor="middle" x="485" y="-8.5" font-family="FreeSans" font-size="10.00">hfaf_process_pktflow</text>
</a>
</g>
<!-- Node10&#45;&gt;Node13 -->
<g id="edge24" class="edge"><title>Node10&#45;&gt;Node13</title>
<path fill="none" stroke="midnightblue" d="M366.534,-38.2337C390,-32.839 416.997,-26.6328 439.287,-21.5087"/>
<polygon fill="midnightblue" stroke="midnightblue" points="365.678,-34.839 356.716,-40.4905 367.246,-41.661 365.678,-34.839"/>
</g>
<!-- Node12 -->
<g id="node23" class="node"><title>Node12</title>
<a xlink:href="hfa-se-flow-wqe_8c.html#a779659fedbbc8e698802f2d8e2da9067" target="_top" xlink:title="Submits a packet of a flow to the HFA Engine if no pending instruction on that flow.">
<polygon fill="white" stroke="black" points="597.5,-40.5 597.5,-61.5 676.5,-61.5 676.5,-40.5 597.5,-40.5"/>
<text text-anchor="middle" x="637" y="-48.5" font-family="FreeSans" font-size="10.00">__submitflow</text>
</a>
</g>
<!-- Node11&#45;&gt;Node12 -->
<g id="edge22" class="edge"><title>Node11&#45;&gt;Node12</title>
<path fill="none" stroke="midnightblue" d="M551.741,-51C567.334,-51 583.454,-51 597.423,-51"/>
<polygon fill="midnightblue" stroke="midnightblue" points="551.599,-47.5001 541.599,-51 551.599,-54.5001 551.599,-47.5001"/>
</g>
<!-- Node14 -->
<g id="node27" class="node"><title>Node14</title>
<a xlink:href="hfa-se-flow_8c.html#a2d83c733eacd7afc955c3af18edcb52a" target="_top" xlink:title="Polls for a submitted search instruction of a flow.">
<polygon fill="white" stroke="black" points="594.5,-0.5 594.5,-21.5 679.5,-21.5 679.5,-0.5 594.5,-0.5"/>
<text text-anchor="middle" x="637" y="-8.5" font-family="FreeSans" font-size="10.00">__processflow</text>
</a>
</g>
<!-- Node13&#45;&gt;Node14 -->
<g id="edge26" class="edge"><title>Node13&#45;&gt;Node14</title>
<path fill="none" stroke="midnightblue" d="M554.882,-11C568.381,-11 582.139,-11 594.438,-11"/>
<polygon fill="midnightblue" stroke="midnightblue" points="554.638,-7.5001 544.638,-11 554.638,-14.5001 554.638,-7.5001"/>
</g>
<!-- Node15 -->
<g id="node29" class="node"><title>Node15</title>
<a xlink:href="hfa-se-flow_8c.html#a786591694a8f8fb46cedbc8a580c88f6" target="_top" xlink:title="Submitting or Polling flows from the software recently used cache IF Cache is empty, it tries to refill it.">
<polygon fill="white" stroke="black" points="743.5,-59.5 743.5,-80.5 806.5,-80.5 806.5,-59.5 743.5,-59.5"/>
<text text-anchor="middle" x="775" y="-67.5" font-family="FreeSans" font-size="10.00">do_cache</text>
</a>
</g>
<!-- Node14&#45;&gt;Node15 -->
<g id="edge28" class="edge"><title>Node14&#45;&gt;Node15</title>
<path fill="none" stroke="midnightblue" d="M670.958,-25.5182C695.449,-35.9892 727.959,-49.8884 750.077,-59.3444"/>
<polygon fill="midnightblue" stroke="midnightblue" points="672.242,-22.261 661.672,-21.548 669.491,-28.6974 672.242,-22.261"/>
</g>
<!-- Node16 -->
<g id="node31" class="node"><title>Node16</title>
<a xlink:href="hfa-se-flow_8c.html#aba72a61590283e37ffd78b4defd38220" target="_top" xlink:title="Receive network packets and process.">
<polygon fill="white" stroke="black" points="870,-74.5 870,-95.5 966,-95.5 966,-74.5 870,-74.5"/>
<text text-anchor="middle" x="918" y="-82.5" font-family="FreeSans" font-size="10.00">process_packets</text>
</a>
</g>
<!-- Node15&#45;&gt;Node16 -->
<g id="edge30" class="edge"><title>Node15&#45;&gt;Node16</title>
<path fill="none" stroke="midnightblue" d="M816.703,-74.3745C833.32,-76.1175 852.552,-78.1348 869.764,-79.9403"/>
<polygon fill="midnightblue" stroke="midnightblue" points="817.047,-70.8914 806.736,-73.329 816.317,-77.8532 817.047,-70.8914"/>
</g>
<!-- Node16&#45;&gt;Node6 -->
<g id="edge32" class="edge"><title>Node16&#45;&gt;Node6</title>
<path fill="none" stroke="midnightblue" d="M975.584,-97.7349C984.996,-99.8163 994.161,-101.843 1001.83,-103.539"/>
<polygon fill="midnightblue" stroke="midnightblue" points="976.259,-94.2996 965.739,-95.5576 974.747,-101.134 976.259,-94.2996"/>
</g>
<!-- Node17&#45;&gt;Node13 -->
<g id="edge36" class="edge"><title>Node17&#45;&gt;Node13</title>
<path fill="none" stroke="midnightblue" d="M385.799,-11C399.011,-11 412.606,-11 425.332,-11"/>
<polygon fill="midnightblue" stroke="midnightblue" points="385.791,-7.5001 375.791,-11 385.791,-14.5001 385.791,-7.5001"/>
</g>
</g>
</svg>
        <g id="navigator" transform="translate(0 0)" fill="#404254">
                <rect fill="#f2f5e9" fill-opacity="0.5" stroke="#606060" stroke-width=".5" x="0" y="0" width="60" height="60"/>
                <use id="zoomplus" xlink:href="#zoomPlus" x="17" y="9" onmousedown="handleZoom(evt,'in')"/>
                <use id="zoomminus" xlink:href="#zoomMin" x="42" y="9" onmousedown="handleZoom(evt,'out')"/>
                <use id="reset" xlink:href="#resetDef" x="30" y="36" onmousedown="handleReset()"/>
                <g id="arrowUp" xlink:href="#dirArrow" transform="translate(30 24)" onmousedown="handlePan(0,-1)">
                  <use xlink:href="#rim" fill="#404040">
                        <set attributeName="fill" to="#808080" begin="arrowUp.mouseover" end="arrowUp.mouseout"/>
                  </use>
                  <path fill="none" stroke="white" stroke-width="1.5" d="M0,-3.0v7 M-2.5,-0.5L0,-3.0L2.5,-0.5"/>
                </g>
                <g id="arrowRight" xlink:href="#dirArrow" transform="rotate(90) translate(36 -43)" onmousedown="handlePan(1,0)">
                  <use xlink:href="#rim" fill="#404040">
                        <set attributeName="fill" to="#808080" begin="arrowRight.mouseover" end="arrowRight.mouseout"/>
                  </use>
                  <path fill="none" stroke="white" stroke-width="1.5" d="M0,-3.0v7 M-2.5,-0.5L0,-3.0L2.5,-0.5"/>
                </g>
                <g id="arrowDown" xlink:href="#dirArrow" transform="rotate(180) translate(-30 -48)" onmousedown="handlePan(0,1)">
                  <use xlink:href="#rim" fill="#404040">
                        <set attributeName="fill" to="#808080" begin="arrowDown.mouseover" end="arrowDown.mouseout"/>
                  </use>
                  <path fill="none" stroke="white" stroke-width="1.5" d="M0,-3.0v7 M-2.5,-0.5L0,-3.0L2.5,-0.5"/>
                </g>
                <g id="arrowLeft" xlink:href="#dirArrow" transform="rotate(270) translate(-36 17)" onmousedown="handlePan(-1,0)">
                  <use xlink:href="#rim" fill="#404040">
                        <set attributeName="fill" to="#808080" begin="arrowLeft.mouseover" end="arrowLeft.mouseout"/>
                  </use>
                  <path fill="none" stroke="white" stroke-width="1.5" d="M0,-3.0v7 M-2.5,-0.5L0,-3.0L2.5,-0.5"/>
                </g>
        </g>
        <svg viewBox="0 0 15 15" width="100%" height="30px" preserveAspectRatio="xMaxYMin meet">
         <g id="arrow_out" transform="scale(0.3 0.3)">
          <a xlink:href="cvm-hfa-osapi_8h_a8f7a99f931e344eaaf9dd1fadd341a46_icgraph_org.svg" target="_base">
           <rect id="button" ry="5" rx="5" y="6" x="6" height="38" width="38"
                fill="#f2f5e9" fill-opacity="0.5" stroke="#606060" stroke-width="1.0"/>
           <path id="arrow"
             d="M 11.500037,31.436501 C 11.940474,20.09759 22.043105,11.32322 32.158766,21.979434 L 37.068811,17.246167 C 37.068811,17.246167 37.088388,32 37.088388,32 L 22.160133,31.978069 C 22.160133,31.978069 26.997745,27.140456 26.997745,27.140456 C 18.528582,18.264221 13.291696,25.230495 11.500037,31.436501 z"
             style="fill:#404040;"/>
          </a>
         </g>
        </svg>
</svg>
