<?xml version="1.0" encoding="UTF-8" standalone="no"?>
<!DOCTYPE svg PUBLIC "-//W3C//DTD SVG 1.1//EN"
 "http://www.w3.org/Graphics/SVG/1.1/DTD/svg11.dtd">
<!-- Generated by graphviz version 2.24.0 (20090616.2323)
 -->
<!-- Title: hfa_searchctx_setflags Pages: 1 -->
<svg width="1542pt" height="317pt"
 viewBox="0.00 0.00 1542.00 317.00" xmlns="http://www.w3.org/2000/svg" xmlns:xlink="http://www.w3.org/1999/xlink">
<g id="graph1" class="graph" transform="scale(1 1) rotate(0) translate(4 313)">
<title>hfa_searchctx_setflags</title>
<polygon fill="white" stroke="white" points="-4,5 -4,-313 1539,-313 1539,5 -4,5"/>
<!-- Node1 -->
<g id="node1" class="node"><title>Node1</title>
<polygon fill="#bfbfbf" stroke="black" points="0,-189.5 0,-210.5 128,-210.5 128,-189.5 0,-189.5"/>
<text text-anchor="middle" x="64" y="-197.5" font-family="FreeSans" font-size="10.00">hfa_searchctx_setflags</text>
</g>
<!-- Node2 -->
<g id="node3" class="node"><title>Node2</title>
<a xlink:href="flow_8c.html#a28378e8a6f53ff0e87f2e688d1c21834" target="_top" xlink:title="Low level API to create a flow Allocate Flow, Intialize searchctx, set graph and setflags,.">
<polygon fill="white" stroke="black" points="164.5,-287.5 164.5,-308.5 271.5,-308.5 271.5,-287.5 164.5,-287.5"/>
<text text-anchor="middle" x="218" y="-295.5" font-family="FreeSans" font-size="10.00">__hfaf_create_flow</text>
</a>
</g>
<!-- Node1&#45;&gt;Node2 -->
<g id="edge2" class="edge"><title>Node1&#45;&gt;Node2</title>
<path fill="none" stroke="midnightblue" d="M84.6558,-216.95C104.32,-232.624 135.117,-255.996 164,-273 172.992,-278.294 183.294,-283.302 192.473,-287.425"/>
<polygon fill="midnightblue" stroke="midnightblue" points="86.6832,-214.088 76.6995,-210.542 82.2927,-219.54 86.6832,-214.088"/>
</g>
<!-- Node5 -->
<g id="node9" class="node"><title>Node5</title>
<a xlink:href="hfa-lnx-async_8c.html#a972f8b60ef804914c009c2ef85bac50e" target="_top" xlink:title="Process search for given payload and graph.">
<polygon fill="white" stroke="black" points="831,-243.5 831,-264.5 923,-264.5 923,-243.5 831,-243.5"/>
<text text-anchor="middle" x="877" y="-251.5" font-family="FreeSans" font-size="10.00">process_search</text>
</a>
</g>
<!-- Node1&#45;&gt;Node5 -->
<g id="edge8" class="edge"><title>Node1&#45;&gt;Node5</title>
<path fill="none" stroke="midnightblue" d="M94.5094,-214.855C113.94,-223.642 139.903,-234.164 164,-240 250.78,-261.017 274.711,-259 364,-259 364,-259 364,-259 577,-259 666.856,-259 771.83,-256.73 830.75,-255.249"/>
<polygon fill="midnightblue" stroke="midnightblue" points="95.8065,-211.598 85.2607,-210.58 92.8697,-217.953 95.8065,-211.598"/>
</g>
<!-- Node9 -->
<g id="node18" class="node"><title>Node9</title>
<a xlink:href="hfa-lnx-ctx_8c.html#a6926aada806433e15eae2c50298b4aa9" target="_top" xlink:title="createctx">
<polygon fill="white" stroke="black" points="187,-209.5 187,-230.5 249,-230.5 249,-209.5 187,-209.5"/>
<text text-anchor="middle" x="218" y="-217.5" font-family="FreeSans" font-size="10.00">createctx</text>
</a>
</g>
<!-- Node1&#45;&gt;Node9 -->
<g id="edge18" class="edge"><title>Node1&#45;&gt;Node9</title>
<path fill="none" stroke="midnightblue" d="M138.386,-209.66C155.392,-211.869 172.569,-214.1 186.592,-215.921"/>
<polygon fill="midnightblue" stroke="midnightblue" points="138.785,-206.183 128.418,-208.366 137.883,-213.125 138.785,-206.183"/>
</g>
<!-- Node11 -->
<g id="node22" class="node"><title>Node11</title>
<a xlink:href="hfa-lnx-linkgraph_8c.html#a6604748091c732cb29568c12d0f77b4e" target="_top" xlink:title="Initialize search ctx for each subgraph.">
<polygon fill="white" stroke="black" points="180,-169.5 180,-190.5 256,-190.5 256,-169.5 180,-169.5"/>
<text text-anchor="middle" x="218" y="-177.5" font-family="FreeSans" font-size="10.00">Initialize_Ctx</text>
</a>
</g>
<!-- Node1&#45;&gt;Node11 -->
<g id="edge22" class="edge"><title>Node1&#45;&gt;Node11</title>
<path fill="none" stroke="midnightblue" d="M138.73,-190.295C152.955,-188.447 167.284,-186.586 179.772,-184.965"/>
<polygon fill="midnightblue" stroke="midnightblue" points="137.883,-186.875 128.418,-191.634 138.785,-193.817 137.883,-186.875"/>
</g>
<!-- Node12 -->
<g id="node24" class="node"><title>Node12</title>
<a xlink:href="hfa-lnx-nctx-lock_8c.html#a2c813b2ff20c5bf67f487908476604d6" target="_top" xlink:title="Initialize search context object for nctxts and a global list to track nctxts.">
<polygon fill="white" stroke="black" points="168.5,-129.5 168.5,-150.5 267.5,-150.5 267.5,-129.5 168.5,-129.5"/>
<text text-anchor="middle" x="218" y="-137.5" font-family="FreeSans" font-size="10.00">initialize_ctx_glist</text>
</a>
</g>
<!-- Node1&#45;&gt;Node12 -->
<g id="edge24" class="edge"><title>Node1&#45;&gt;Node12</title>
<path fill="none" stroke="midnightblue" d="M99.3277,-185.611C118.429,-177.896 142.454,-168.298 164,-160 172.117,-156.874 180.953,-153.563 189.083,-150.554"/>
<polygon fill="midnightblue" stroke="midnightblue" points="97.7835,-182.46 89.8274,-189.457 100.41,-188.949 97.7835,-182.46"/>
</g>
<!-- Node14 -->
<g id="node28" class="node"><title>Node14</title>
<a xlink:href="hfa-lnx_8c.html#a924d2733ebc7a856f8c3fd293193ba44" target="_top" xlink:title="Initialize search context.">
<polygon fill="white" stroke="black" points="180.5,-89.5 180.5,-110.5 255.5,-110.5 255.5,-89.5 180.5,-89.5"/>
<text text-anchor="middle" x="218" y="-97.5" font-family="FreeSans" font-size="10.00">initialize_ctx</text>
</a>
</g>
<!-- Node1&#45;&gt;Node14 -->
<g id="edge28" class="edge"><title>Node1&#45;&gt;Node14</title>
<path fill="none" stroke="midnightblue" d="M82.2204,-182.406C101.323,-164.721 132.843,-137.622 164,-120 170.352,-116.407 177.473,-113.237 184.407,-110.541"/>
<polygon fill="midnightblue" stroke="midnightblue" points="79.7187,-179.954 74.831,-189.354 84.5138,-185.054 79.7187,-179.954"/>
</g>
<!-- Node3 -->
<g id="node5" class="node"><title>Node3</title>
<a xlink:href="flow_8h.html#abdb62c6f71f5ca9ecddc66c90166d37b" target="_top" xlink:title="Create Packet Flow in Flowdb.">
<polygon fill="white" stroke="black" points="308.5,-287.5 308.5,-308.5 419.5,-308.5 419.5,-287.5 308.5,-287.5"/>
<text text-anchor="middle" x="364" y="-295.5" font-family="FreeSans" font-size="10.00">hfaf_create_pktflow</text>
</a>
</g>
<!-- Node2&#45;&gt;Node3 -->
<g id="edge4" class="edge"><title>Node2&#45;&gt;Node3</title>
<path fill="none" stroke="midnightblue" d="M281.707,-298C290.468,-298 299.411,-298 308.019,-298"/>
<polygon fill="midnightblue" stroke="midnightblue" points="281.536,-294.5 271.536,-298 281.536,-301.5 281.536,-294.5"/>
</g>
<!-- Node4 -->
<g id="node7" class="node"><title>Node4</title>
<a xlink:href="hfa-se-flow-wqe_8c.html#a6d3e23d8f7a3aaf1b0d6e350b7631a0e" target="_top" xlink:title="Get flow pointer from Flow database, If flow ptr is NULL then create at runtime.">
<polygon fill="white" stroke="black" points="456.5,-287.5 456.5,-308.5 525.5,-308.5 525.5,-287.5 456.5,-287.5"/>
<text text-anchor="middle" x="491" y="-295.5" font-family="FreeSans" font-size="10.00">get_flowptr</text>
</a>
</g>
<!-- Node3&#45;&gt;Node4 -->
<g id="edge6" class="edge"><title>Node3&#45;&gt;Node4</title>
<path fill="none" stroke="midnightblue" d="M429.924,-298C438.986,-298 447.982,-298 456.172,-298"/>
<polygon fill="midnightblue" stroke="midnightblue" points="429.704,-294.5 419.704,-298 429.704,-301.5 429.704,-294.5"/>
</g>
<!-- Node6 -->
<g id="node11" class="node"><title>Node6</title>
<a xlink:href="hfa-lnx-async_8c.html#a1e97b1d598034fdc92d57054a6c386e6" target="_top" xlink:title="tasklet_callback">
<polygon fill="white" stroke="black" points="992,-281.5 992,-302.5 1084,-302.5 1084,-281.5 992,-281.5"/>
<text text-anchor="middle" x="1038" y="-289.5" font-family="FreeSans" font-size="10.00">tasklet_callback</text>
</a>
</g>
<!-- Node5&#45;&gt;Node6 -->
<g id="edge10" class="edge"><title>Node5&#45;&gt;Node6</title>
<path fill="none" stroke="midnightblue" d="M931.79,-266.932C951.862,-271.669 974.318,-276.97 993.393,-281.472"/>
<polygon fill="midnightblue" stroke="midnightblue" points="932.384,-263.476 921.847,-264.585 930.776,-270.289 932.384,-263.476"/>
</g>
<!-- Node8 -->
<g id="node15" class="node"><title>Node8</title>
<a xlink:href="hfa-lnx-async_8c.html#a7dea7d59754828b1173c4c7ec5d42f3e" target="_top" xlink:title="thread_callback">
<polygon fill="white" stroke="black" points="992,-241.5 992,-262.5 1084,-262.5 1084,-241.5 992,-241.5"/>
<text text-anchor="middle" x="1038" y="-249.5" font-family="FreeSans" font-size="10.00">thread_callback</text>
</a>
</g>
<!-- Node5&#45;&gt;Node8 -->
<g id="edge14" class="edge"><title>Node5&#45;&gt;Node8</title>
<path fill="none" stroke="midnightblue" d="M933.242,-253.301C952.401,-253.063 973.583,-252.8 991.857,-252.573"/>
<polygon fill="midnightblue" stroke="midnightblue" points="933.092,-249.803 923.136,-253.427 933.179,-256.802 933.092,-249.803"/>
</g>
<!-- Node7 -->
<g id="node13" class="node"><title>Node7</title>
<a xlink:href="hfa-lnx-async_8c.html#a78ffddbcd7cdd164889cfb53ea367886" target="_top" xlink:title="entry">
<polygon fill="white" stroke="black" points="1159.5,-241.5 1159.5,-262.5 1200.5,-262.5 1200.5,-241.5 1159.5,-241.5"/>
<text text-anchor="middle" x="1180" y="-249.5" font-family="FreeSans" font-size="10.00">entry</text>
</a>
</g>
<!-- Node6&#45;&gt;Node7 -->
<g id="edge12" class="edge"><title>Node6&#45;&gt;Node7</title>
<path fill="none" stroke="midnightblue" d="M1085.04,-278.751C1110.15,-271.677 1139.79,-263.327 1159.2,-257.861"/>
<polygon fill="midnightblue" stroke="midnightblue" points="1083.99,-275.41 1075.31,-281.49 1085.88,-282.148 1083.99,-275.41"/>
</g>
<!-- Node8&#45;&gt;Node7 -->
<g id="edge16" class="edge"><title>Node8&#45;&gt;Node7</title>
<path fill="none" stroke="midnightblue" d="M1094.15,-252C1117.17,-252 1142.37,-252 1159.48,-252"/>
<polygon fill="midnightblue" stroke="midnightblue" points="1094.1,-248.5 1084.1,-252 1094.1,-255.5 1094.1,-248.5"/>
</g>
<!-- Node10 -->
<g id="node20" class="node"><title>Node10</title>
<a xlink:href="hfa-lnx-ctx_8c.html#a78ffddbcd7cdd164889cfb53ea367886" target="_top" xlink:title="entry">
<polygon fill="white" stroke="black" points="343.5,-209.5 343.5,-230.5 384.5,-230.5 384.5,-209.5 343.5,-209.5"/>
<text text-anchor="middle" x="364" y="-217.5" font-family="FreeSans" font-size="10.00">entry</text>
</a>
</g>
<!-- Node9&#45;&gt;Node10 -->
<g id="edge20" class="edge"><title>Node9&#45;&gt;Node10</title>
<path fill="none" stroke="midnightblue" d="M259.388,-220C286.699,-220 321.327,-220 343.081,-220"/>
<polygon fill="midnightblue" stroke="midnightblue" points="259.321,-216.5 249.321,-220 259.321,-223.5 259.321,-216.5"/>
</g>
<!-- Node13 -->
<g id="node26" class="node"><title>Node13</title>
<a xlink:href="hfa-lnx-nctx-lock_8c.html#a78ffddbcd7cdd164889cfb53ea367886" target="_top" xlink:title="entry">
<polygon fill="white" stroke="black" points="343.5,-129.5 343.5,-150.5 384.5,-150.5 384.5,-129.5 343.5,-129.5"/>
<text text-anchor="middle" x="364" y="-137.5" font-family="FreeSans" font-size="10.00">entry</text>
</a>
</g>
<!-- Node12&#45;&gt;Node13 -->
<g id="edge26" class="edge"><title>Node12&#45;&gt;Node13</title>
<path fill="none" stroke="midnightblue" d="M277.986,-140C301.188,-140 326.203,-140 343.242,-140"/>
<polygon fill="midnightblue" stroke="midnightblue" points="277.837,-136.5 267.837,-140 277.837,-143.5 277.837,-136.5"/>
</g>
<!-- Node15 -->
<g id="node30" class="node"><title>Node15</title>
<a xlink:href="hfa-lnx_8c.html#a78ffddbcd7cdd164889cfb53ea367886" target="_top" xlink:title="entry">
<polygon fill="white" stroke="black" points="343.5,-89.5 343.5,-110.5 384.5,-110.5 384.5,-89.5 343.5,-89.5"/>
<text text-anchor="middle" x="364" y="-97.5" font-family="FreeSans" font-size="10.00">entry</text>
</a>
</g>
<!-- Node14&#45;&gt;Node15 -->
<g id="edge30" class="edge"><title>Node14&#45;&gt;Node15</title>
<path fill="none" stroke="midnightblue" d="M265.738,-100C291.951,-100 323.12,-100 343.215,-100"/>
<polygon fill="midnightblue" stroke="midnightblue" points="265.599,-96.5001 255.599,-100 265.599,-103.5 265.599,-96.5001"/>
</g>
<!-- Node16 -->
<g id="node32" class="node"><title>Node16</title>
<a xlink:href="cvm-hfa-pp_8c.html#adcc1149c628372e2e566c246870929cb" target="_top" xlink:title="infoentry">
<polygon fill="white" stroke="black" points="461.5,-108.5 461.5,-129.5 520.5,-129.5 520.5,-108.5 461.5,-108.5"/>
<text text-anchor="middle" x="491" y="-116.5" font-family="FreeSans" font-size="10.00">infoentry</text>
</a>
</g>
<!-- Node15&#45;&gt;Node16 -->
<g id="edge32" class="edge"><title>Node15&#45;&gt;Node16</title>
<path fill="none" stroke="midnightblue" d="M394.645,-104.585C414.883,-107.612 441.268,-111.56 461.309,-114.558"/>
<polygon fill="midnightblue" stroke="midnightblue" points="395.095,-101.113 384.687,-103.095 394.059,-108.036 395.095,-101.113"/>
</g>
<!-- Node17 -->
<g id="node34" class="node"><title>Node17</title>
<a xlink:href="ppdfa_8h.html#a81b3389c2c25a4ba308f71501f980e38" target="_top" xlink:title="pp">
<polygon fill="white" stroke="black" points="562.5,-109.5 562.5,-130.5 591.5,-130.5 591.5,-109.5 562.5,-109.5"/>
<text text-anchor="middle" x="577" y="-117.5" font-family="FreeSans" font-size="10.00">pp</text>
</a>
</g>
<!-- Node16&#45;&gt;Node17 -->
<g id="edge34" class="edge"><title>Node16&#45;&gt;Node17</title>
<path fill="none" stroke="midnightblue" d="M530.695,-119.462C541.877,-119.592 553.36,-119.725 562.094,-119.827"/>
<polygon fill="midnightblue" stroke="midnightblue" points="530.636,-115.961 520.596,-119.344 530.555,-122.96 530.636,-115.961"/>
</g>
<!-- Node18 -->
<g id="node36" class="node"><title>Node18</title>
<a xlink:href="cvm-hfa-search_8c.html#a6dbb15dc58155b2c94b19784ad42ef89" target="_top" xlink:title="This routine post&#45;processes the search results from the HFA engine and reports the pattern matches fo...">
<polygon fill="white" stroke="black" points="628.5,-119.5 628.5,-140.5 775.5,-140.5 775.5,-119.5 628.5,-119.5"/>
<text text-anchor="middle" x="702" y="-127.5" font-family="FreeSans" font-size="10.00">hfa_searchctx_getmatches</text>
</a>
</g>
<!-- Node17&#45;&gt;Node18 -->
<g id="edge36" class="edge"><title>Node17&#45;&gt;Node18</title>
<path fill="none" stroke="midnightblue" d="M601.986,-121.999C609.825,-122.626 618.914,-123.353 628.354,-124.108"/>
<polygon fill="midnightblue" stroke="midnightblue" points="602.077,-118.495 591.83,-121.186 601.519,-125.473 602.077,-118.495"/>
</g>
<!-- Node18&#45;&gt;Node5 -->
<g id="edge50" class="edge"><title>Node18&#45;&gt;Node5</title>
<path fill="none" stroke="midnightblue" d="M717.714,-148.4C737.632,-170.703 773.977,-208.134 812,-231 820.309,-235.997 829.868,-240.134 839.053,-243.456"/>
<polygon fill="midnightblue" stroke="midnightblue" points="720.143,-145.861 710.916,-140.654 714.882,-150.479 720.143,-145.861"/>
</g>
<!-- Node19 -->
<g id="node38" class="node"><title>Node19</title>
<a xlink:href="flow_8c.html#a2976ab60901b133a56214323fb901663" target="_top" xlink:title="Low level API to poll a flow.">
<polygon fill="white" stroke="black" points="812.5,-200.5 812.5,-221.5 941.5,-221.5 941.5,-200.5 812.5,-200.5"/>
<text text-anchor="middle" x="877" y="-208.5" font-family="FreeSans" font-size="10.00">__hfaf_process_pktflow</text>
</a>
</g>
<!-- Node18&#45;&gt;Node19 -->
<g id="edge38" class="edge"><title>Node18&#45;&gt;Node19</title>
<path fill="none" stroke="midnightblue" d="M727.24,-145.983C749.058,-159.309 781.76,-178.129 812,-191 820.256,-194.514 829.339,-197.705 838.03,-200.454"/>
<polygon fill="midnightblue" stroke="midnightblue" points="728.942,-142.92 718.595,-140.642 725.263,-148.875 728.942,-142.92"/>
</g>
<!-- Node25 -->
<g id="node51" class="node"><title>Node25</title>
<a xlink:href="hfa-lnx-ctx_8c.html#a71e1d3d18cc48b90a1ecde583ffb3f7a" target="_top" xlink:title="poll_searchctx">
<polygon fill="white" stroke="black" points="834,-160.5 834,-181.5 920,-181.5 920,-160.5 834,-160.5"/>
<text text-anchor="middle" x="877" y="-168.5" font-family="FreeSans" font-size="10.00">poll_searchctx</text>
</a>
</g>
<!-- Node18&#45;&gt;Node25 -->
<g id="edge52" class="edge"><title>Node18&#45;&gt;Node25</title>
<path fill="none" stroke="midnightblue" d="M757.061,-142.9C781.859,-148.71 810.707,-155.469 833.896,-160.901"/>
<polygon fill="midnightblue" stroke="midnightblue" points="757.602,-139.432 747.067,-140.559 756.005,-146.247 757.602,-139.432"/>
</g>
<!-- Node28 -->
<g id="node57" class="node"><title>Node28</title>
<a xlink:href="hfa-lnx-linkgraph_8c.html#a78ffddbcd7cdd164889cfb53ea367886" target="_top" xlink:title="entry">
<polygon fill="white" stroke="black" points="856.5,-120.5 856.5,-141.5 897.5,-141.5 897.5,-120.5 856.5,-120.5"/>
<text text-anchor="middle" x="877" y="-128.5" font-family="FreeSans" font-size="10.00">entry</text>
</a>
</g>
<!-- Node18&#45;&gt;Node28 -->
<g id="edge58" class="edge"><title>Node18&#45;&gt;Node28</title>
<path fill="none" stroke="midnightblue" d="M785.738,-130.479C812.018,-130.629 838.75,-130.781 856.431,-130.882"/>
<polygon fill="midnightblue" stroke="midnightblue" points="785.728,-126.978 775.709,-130.421 785.688,-133.978 785.728,-126.978"/>
</g>
<!-- Node29 -->
<g id="node59" class="node"><title>Node29</title>
<a xlink:href="hfa-lnx-nctx-lock_8c.html#adb0c831ef0f9af5441a6769c377d9c95" target="_top" xlink:title="Post process the results from HFA and record found matches.">
<polygon fill="white" stroke="black" points="837,-80.5 837,-101.5 917,-101.5 917,-80.5 837,-80.5"/>
<text text-anchor="middle" x="877" y="-88.5" font-family="FreeSans" font-size="10.00">post_process</text>
</a>
</g>
<!-- Node18&#45;&gt;Node29 -->
<g id="edge60" class="edge"><title>Node18&#45;&gt;Node29</title>
<path fill="none" stroke="midnightblue" d="M759.217,-117.249C784.548,-111.604 813.741,-105.098 836.726,-99.9753"/>
<polygon fill="midnightblue" stroke="midnightblue" points="758.357,-113.855 749.358,-119.446 759.879,-120.687 758.357,-113.855"/>
</g>
<!-- Node32 -->
<g id="node66" class="node"><title>Node32</title>
<a xlink:href="hfa-se-async_8c.html#a3c04138a5bfe5d72780bb7e82a18e627" target="_top" xlink:title="main">
<polygon fill="white" stroke="black" points="857,-40.5 857,-61.5 897,-61.5 897,-40.5 857,-40.5"/>
<text text-anchor="middle" x="877" y="-48.5" font-family="FreeSans" font-size="10.00">main</text>
</a>
</g>
<!-- Node18&#45;&gt;Node32 -->
<g id="edge68" class="edge"><title>Node18&#45;&gt;Node32</title>
<path fill="none" stroke="midnightblue" d="M728.079,-114.148C749.936,-101.324 782.252,-83.4165 812,-71 826.6,-64.906 843.725,-59.7119 856.731,-56.1453"/>
<polygon fill="midnightblue" stroke="midnightblue" points="726.206,-111.19 719.391,-119.303 729.777,-117.211 726.206,-111.19"/>
</g>
<!-- Node33 -->
<g id="node68" class="node"><title>Node33</title>
<a xlink:href="hfa-se-wqe-lock_8c.html#a06b5fcfab0e1d5eb36b633ec080ad7f9" target="_top" xlink:title="Process search for given contexts.">
<polygon fill="white" stroke="black" points="837,-0.5 837,-21.5 917,-21.5 917,-0.5 837,-0.5"/>
<text text-anchor="middle" x="877" y="-8.5" font-family="FreeSans" font-size="10.00">process_nctx</text>
</a>
</g>
<!-- Node18&#45;&gt;Node33 -->
<g id="edge70" class="edge"><title>Node18&#45;&gt;Node33</title>
<path fill="none" stroke="midnightblue" d="M717.639,-111.723C737.48,-89.6176 773.748,-52.6817 812,-31 819.601,-26.6917 828.239,-23.203 836.679,-20.42"/>
<polygon fill="midnightblue" stroke="midnightblue" points="714.854,-109.59 710.869,-119.407 720.106,-114.218 714.854,-109.59"/>
</g>
<!-- Node20 -->
<g id="node40" class="node"><title>Node20</title>
<a xlink:href="flow_8h.html#ab1b3378af88a440a6c3c0851be942e65" target="_top" xlink:title="All submitted search parameters in Paramlist of flow are polled If low level API __hfaf_process_pktfl...">
<polygon fill="white" stroke="black" points="978.5,-200.5 978.5,-221.5 1097.5,-221.5 1097.5,-200.5 978.5,-200.5"/>
<text text-anchor="middle" x="1038" y="-208.5" font-family="FreeSans" font-size="10.00">hfaf_process_pktflow</text>
</a>
</g>
<!-- Node19&#45;&gt;Node20 -->
<g id="edge40" class="edge"><title>Node19&#45;&gt;Node20</title>
<path fill="none" stroke="midnightblue" d="M951.622,-211C960.594,-211 969.665,-211 978.384,-211"/>
<polygon fill="midnightblue" stroke="midnightblue" points="951.557,-207.5 941.557,-211 951.557,-214.5 951.557,-207.5"/>
</g>
<!-- Node21 -->
<g id="node42" class="node"><title>Node21</title>
<a xlink:href="hfa-se-flow_8c.html#a2d83c733eacd7afc955c3af18edcb52a" target="_top" xlink:title="Polls for a submitted search instruction of a flow.">
<polygon fill="white" stroke="black" points="1137.5,-200.5 1137.5,-221.5 1222.5,-221.5 1222.5,-200.5 1137.5,-200.5"/>
<text text-anchor="middle" x="1180" y="-208.5" font-family="FreeSans" font-size="10.00">__processflow</text>
</a>
</g>
<!-- Node20&#45;&gt;Node21 -->
<g id="edge42" class="edge"><title>Node20&#45;&gt;Node21</title>
<path fill="none" stroke="midnightblue" d="M1108.08,-211C1117.98,-211 1127.9,-211 1137.08,-211"/>
<polygon fill="midnightblue" stroke="midnightblue" points="1107.81,-207.5 1097.81,-211 1107.81,-214.5 1107.81,-207.5"/>
</g>
<!-- Node22 -->
<g id="node44" class="node"><title>Node22</title>
<a xlink:href="hfa-se-flow_8c.html#a786591694a8f8fb46cedbc8a580c88f6" target="_top" xlink:title="Submitting or Polling flows from the software recently used cache IF Cache is empty, it tries to refill it.">
<polygon fill="white" stroke="black" points="1262.5,-200.5 1262.5,-221.5 1325.5,-221.5 1325.5,-200.5 1262.5,-200.5"/>
<text text-anchor="middle" x="1294" y="-208.5" font-family="FreeSans" font-size="10.00">do_cache</text>
</a>
</g>
<!-- Node21&#45;&gt;Node22 -->
<g id="edge44" class="edge"><title>Node21&#45;&gt;Node22</title>
<path fill="none" stroke="midnightblue" d="M1232.78,-211C1242.9,-211 1253.2,-211 1262.39,-211"/>
<polygon fill="midnightblue" stroke="midnightblue" points="1232.77,-207.5 1222.77,-211 1232.77,-214.5 1232.77,-207.5"/>
</g>
<!-- Node23 -->
<g id="node46" class="node"><title>Node23</title>
<a xlink:href="hfa-se-flow_8c.html#aba72a61590283e37ffd78b4defd38220" target="_top" xlink:title="Receive network packets and process.">
<polygon fill="white" stroke="black" points="1362,-200.5 1362,-221.5 1458,-221.5 1458,-200.5 1362,-200.5"/>
<text text-anchor="middle" x="1410" y="-208.5" font-family="FreeSans" font-size="10.00">process_packets</text>
</a>
</g>
<!-- Node22&#45;&gt;Node23 -->
<g id="edge46" class="edge"><title>Node22&#45;&gt;Node23</title>
<path fill="none" stroke="midnightblue" d="M1335.71,-211C1344.17,-211 1353.13,-211 1361.79,-211"/>
<polygon fill="midnightblue" stroke="midnightblue" points="1335.7,-207.5 1325.7,-211 1335.7,-214.5 1335.7,-207.5"/>
</g>
<!-- Node24 -->
<g id="node48" class="node"><title>Node24</title>
<a xlink:href="hfa-se-flow-wqe_8c.html#a3c04138a5bfe5d72780bb7e82a18e627" target="_top" xlink:title="Implementation.">
<polygon fill="white" stroke="black" points="1494,-200.5 1494,-221.5 1534,-221.5 1534,-200.5 1494,-200.5"/>
<text text-anchor="middle" x="1514" y="-208.5" font-family="FreeSans" font-size="10.00">main</text>
</a>
</g>
<!-- Node23&#45;&gt;Node24 -->
<g id="edge48" class="edge"><title>Node23&#45;&gt;Node24</title>
<path fill="none" stroke="midnightblue" d="M1468.15,-211C1477.41,-211 1486.42,-211 1493.96,-211"/>
<polygon fill="midnightblue" stroke="midnightblue" points="1468.04,-207.5 1458.04,-211 1468.04,-214.5 1468.04,-207.5"/>
</g>
<!-- Node26 -->
<g id="node53" class="node"><title>Node26</title>
<a xlink:href="hfa-lnx-ctx_8c.html#a934a9fc08c4aab25d6f0d861e4a4f762" target="_top" xlink:title="poll">
<polygon fill="white" stroke="black" points="1021.5,-160.5 1021.5,-181.5 1054.5,-181.5 1054.5,-160.5 1021.5,-160.5"/>
<text text-anchor="middle" x="1038" y="-168.5" font-family="FreeSans" font-size="10.00">poll</text>
</a>
</g>
<!-- Node25&#45;&gt;Node26 -->
<g id="edge54" class="edge"><title>Node25&#45;&gt;Node26</title>
<path fill="none" stroke="midnightblue" d="M930.199,-171C961.953,-171 1000.13,-171 1021.48,-171"/>
<polygon fill="midnightblue" stroke="midnightblue" points="930.145,-167.5 920.145,-171 930.145,-174.5 930.145,-167.5"/>
</g>
<!-- Node27 -->
<g id="node55" class="node"><title>Node27</title>
<a xlink:href="hfa-lnx-ctx_8c.html#a97df0ba8293c1b8436547946fd9d0d17" target="_top" xlink:title="process_pkt">
<polygon fill="white" stroke="black" points="1143,-160.5 1143,-181.5 1217,-181.5 1217,-160.5 1143,-160.5"/>
<text text-anchor="middle" x="1180" y="-168.5" font-family="FreeSans" font-size="10.00">process_pkt</text>
</a>
</g>
<!-- Node26&#45;&gt;Node27 -->
<g id="edge56" class="edge"><title>Node26&#45;&gt;Node27</title>
<path fill="none" stroke="midnightblue" d="M1064.86,-171C1086.91,-171 1118.38,-171 1142.84,-171"/>
<polygon fill="midnightblue" stroke="midnightblue" points="1064.57,-167.5 1054.57,-171 1064.57,-174.5 1064.57,-167.5"/>
</g>
<!-- Node30 -->
<g id="node61" class="node"><title>Node30</title>
<a xlink:href="hfa-lnx-nctx-lock_8c.html#a48d3743fb7abc7d3c6b68359678e52a1" target="_top" xlink:title="Poll for the pending search instructions in the HW (blocked till instruction completes) and process t...">
<polygon fill="white" stroke="black" points="1021.5,-100.5 1021.5,-121.5 1054.5,-121.5 1054.5,-100.5 1021.5,-100.5"/>
<text text-anchor="middle" x="1038" y="-108.5" font-family="FreeSans" font-size="10.00">poll</text>
</a>
</g>
<!-- Node29&#45;&gt;Node30 -->
<g id="edge62" class="edge"><title>Node29&#45;&gt;Node30</title>
<path fill="none" stroke="midnightblue" d="M927.363,-97.2562C959.538,-101.253 999.22,-106.183 1021.25,-108.919"/>
<polygon fill="midnightblue" stroke="midnightblue" points="927.567,-93.7548 917.212,-95.9953 926.704,-100.701 927.567,-93.7548"/>
</g>
<!-- Node31 -->
<g id="node63" class="node"><title>Node31</title>
<a xlink:href="hfa-lnx-nctx-lock_8c.html#a972f8b60ef804914c009c2ef85bac50e" target="_top" xlink:title="Performs search process for each core.">
<polygon fill="white" stroke="black" points="1134,-81.5 1134,-102.5 1226,-102.5 1226,-81.5 1134,-81.5"/>
<text text-anchor="middle" x="1180" y="-89.5" font-family="FreeSans" font-size="10.00">process_search</text>
</a>
</g>
<!-- Node29&#45;&gt;Node31 -->
<g id="edge66" class="edge"><title>Node29&#45;&gt;Node31</title>
<path fill="none" stroke="midnightblue" d="M927.371,-90.8253C972.165,-90.7116 1039.45,-90.643 1098,-91 1109.53,-91.0703 1121.98,-91.1962 1133.6,-91.3356"/>
<polygon fill="midnightblue" stroke="midnightblue" points="927.318,-87.3253 917.328,-90.8525 927.337,-94.3253 927.318,-87.3253"/>
</g>
<!-- Node30&#45;&gt;Node31 -->
<g id="edge64" class="edge"><title>Node30&#45;&gt;Node31</title>
<path fill="none" stroke="midnightblue" d="M1064.53,-107.45C1083.98,-104.848 1110.88,-101.249 1133.82,-98.1794"/>
<polygon fill="midnightblue" stroke="midnightblue" points="1064.01,-103.988 1054.57,-108.783 1064.94,-110.926 1064.01,-103.988"/>
</g>
<!-- Node34 -->
<g id="node70" class="node"><title>Node34</title>
<a xlink:href="hfa-se-wqe-lock_8c.html#a3c04138a5bfe5d72780bb7e82a18e627" target="_top" xlink:title="main">
<polygon fill="white" stroke="black" points="1018,-0.5 1018,-21.5 1058,-21.5 1058,-0.5 1018,-0.5"/>
<text text-anchor="middle" x="1038" y="-8.5" font-family="FreeSans" font-size="10.00">main</text>
</a>
</g>
<!-- Node33&#45;&gt;Node34 -->
<g id="edge72" class="edge"><title>Node33&#45;&gt;Node34</title>
<path fill="none" stroke="midnightblue" d="M927.298,-11C957.9,-11 995.313,-11 1017.87,-11"/>
<polygon fill="midnightblue" stroke="midnightblue" points="927.212,-7.5001 917.212,-11 927.212,-14.5001 927.212,-7.5001"/>
</g>
</g>
</svg>
