<?xml version="1.0" encoding="UTF-8" standalone="no"?>
<!DOCTYPE svg PUBLIC "-//W3C//DTD SVG 1.1//EN"
 "http://www.w3.org/Graphics/SVG/1.1/DTD/svg11.dtd">
<!-- Generated by graphviz version 2.24.0 (20090616.2323)
 -->
<!-- Title: hfa_dump_buf Pages: 1 -->
<svg width="1038pt" height="544pt"
 viewBox="0.00 0.00 1038.00 544.00" xmlns="http://www.w3.org/2000/svg" xmlns:xlink="http://www.w3.org/1999/xlink">
<g id="graph1" class="graph" transform="scale(1 1) rotate(0) translate(4 540)">
<title>hfa_dump_buf</title>
<polygon fill="white" stroke="white" points="-4,5 -4,-540 1035,-540 1035,5 -4,5"/>
<!-- Node1 -->
<g id="node1" class="node"><title>Node1</title>
<polygon fill="#bfbfbf" stroke="black" points="0,-361.5 0,-382.5 86,-382.5 86,-361.5 0,-361.5"/>
<text text-anchor="middle" x="43" y="-369.5" font-family="FreeSans" font-size="10.00">hfa_dump_buf</text>
</g>
<!-- Node2 -->
<g id="node3" class="node"><title>Node2</title>
<a xlink:href="cvm-hfa-graph_8c.html#aa296e0c6b36b3d5b4f8e01c2fe765bed" target="_top" xlink:title="This routine is used to cacheload a cacheable graph in a non&#45;blocking manner.">
<polygon fill="white" stroke="black" points="136,-355 136,-389 256,-389 256,-355 136,-355"/>
<text text-anchor="start" x="144" y="-376" font-family="FreeSans" font-size="10.00">hfa_graph_cacheload</text>
<text text-anchor="middle" x="196" y="-363" font-family="FreeSans" font-size="10.00">_async</text>
</a>
</g>
<!-- Node1&#45;&gt;Node2 -->
<g id="edge2" class="edge"><title>Node1&#45;&gt;Node2</title>
<path fill="none" stroke="midnightblue" d="M96.0863,-372C108.93,-372 122.748,-372 135.89,-372"/>
<polygon fill="midnightblue" stroke="midnightblue" points="96.0262,-368.5 86.0262,-372 96.0262,-375.5 96.0262,-368.5"/>
</g>
<!-- Node9 -->
<g id="node17" class="node"><title>Node9</title>
<a xlink:href="cvm-hfa-graph_8c.html#afb63ce4f42afc7987e6222b1c1ea91a1" target="_top" xlink:title="This routine is used to cacheunload a cacheload&#39;ed graph in a non&#45;blocking manner.">
<polygon fill="white" stroke="black" points="130,-421 130,-455 262,-455 262,-421 130,-421"/>
<text text-anchor="start" x="138" y="-442" font-family="FreeSans" font-size="10.00">hfa_graph_cacheunload</text>
<text text-anchor="middle" x="196" y="-429" font-family="FreeSans" font-size="10.00">_async</text>
</a>
</g>
<!-- Node1&#45;&gt;Node9 -->
<g id="edge16" class="edge"><title>Node1&#45;&gt;Node9</title>
<path fill="none" stroke="midnightblue" d="M76.8261,-386.592C100.377,-396.751 131.862,-410.333 156.555,-420.985"/>
<polygon fill="midnightblue" stroke="midnightblue" points="78.1506,-383.351 67.5821,-382.604 75.3779,-389.779 78.1506,-383.351"/>
</g>
<!-- Node16 -->
<g id="node33" class="node"><title>Node16</title>
<a xlink:href="cvm-hfa-search_8c.html#a6dbb15dc58155b2c94b19784ad42ef89" target="_top" xlink:title="This routine post&#45;processes the search results from the HFA engine and reports the pattern matches fo...">
<polygon fill="white" stroke="black" points="122.5,-178.5 122.5,-199.5 269.5,-199.5 269.5,-178.5 122.5,-178.5"/>
<text text-anchor="middle" x="196" y="-186.5" font-family="FreeSans" font-size="10.00">hfa_searchctx_getmatches</text>
</a>
</g>
<!-- Node1&#45;&gt;Node16 -->
<g id="edge34" class="edge"><title>Node1&#45;&gt;Node16</title>
<path fill="none" stroke="midnightblue" d="M58.3553,-353.634C90.0644,-315.707 161.918,-229.765 187.088,-199.659"/>
<polygon fill="midnightblue" stroke="midnightblue" points="55.6163,-351.453 51.8872,-361.37 60.9867,-355.943 55.6163,-351.453"/>
</g>
<!-- Node3 -->
<g id="node5" class="node"><title>Node3</title>
<a xlink:href="cvm-hfa-graph_8c.html#a60861d15ed5f6bccc42bbde834aa2b32" target="_top" xlink:title="This routine is used to cacheload a cacheable graph in a blocking manner.">
<polygon fill="white" stroke="black" points="312,-394.5 312,-415.5 432,-415.5 432,-394.5 312,-394.5"/>
<text text-anchor="middle" x="372" y="-402.5" font-family="FreeSans" font-size="10.00">hfa_graph_cacheload</text>
</a>
</g>
<!-- Node2&#45;&gt;Node3 -->
<g id="edge4" class="edge"><title>Node2&#45;&gt;Node3</title>
<path fill="none" stroke="midnightblue" d="M266.194,-385.161C282.658,-388.248 299.989,-391.498 315.751,-394.453"/>
<polygon fill="midnightblue" stroke="midnightblue" points="266.551,-381.667 256.077,-383.264 265.261,-388.547 266.551,-381.667"/>
</g>
<!-- Node7 -->
<g id="node13" class="node"><title>Node7</title>
<a xlink:href="hfa-lnx-async_8c.html#a546f3769e735d4bef0bfab1cba56921c" target="_top" xlink:title="Load graph to HFA memory and cache.">
<polygon fill="white" stroke="black" points="337.5,-354.5 337.5,-375.5 406.5,-375.5 406.5,-354.5 337.5,-354.5"/>
<text text-anchor="middle" x="372" y="-362.5" font-family="FreeSans" font-size="10.00">graph_load</text>
</a>
</g>
<!-- Node2&#45;&gt;Node7 -->
<g id="edge12" class="edge"><title>Node2&#45;&gt;Node7</title>
<path fill="none" stroke="midnightblue" d="M266.069,-369.213C290.561,-368.239 316.988,-367.188 337.32,-366.379"/>
<polygon fill="midnightblue" stroke="midnightblue" points="265.93,-365.716 256.077,-369.611 266.208,-372.71 265.93,-365.716"/>
</g>
<!-- Node4 -->
<g id="node7" class="node"><title>Node4</title>
<a xlink:href="hfa-lnx-ctx_8c.html#a78ffddbcd7cdd164889cfb53ea367886" target="_top" xlink:title="entry">
<polygon fill="white" stroke="black" points="513.5,-394.5 513.5,-415.5 554.5,-415.5 554.5,-394.5 513.5,-394.5"/>
<text text-anchor="middle" x="534" y="-402.5" font-family="FreeSans" font-size="10.00">entry</text>
</a>
</g>
<!-- Node3&#45;&gt;Node4 -->
<g id="edge6" class="edge"><title>Node3&#45;&gt;Node4</title>
<path fill="none" stroke="midnightblue" d="M442.442,-405C468.105,-405 495.207,-405 513.205,-405"/>
<polygon fill="midnightblue" stroke="midnightblue" points="442.323,-401.5 432.323,-405 442.323,-408.5 442.323,-401.5"/>
</g>
<!-- Node5 -->
<g id="node9" class="node"><title>Node5</title>
<a xlink:href="hfa-lnx-linkgraph_8c.html#a546f3769e735d4bef0bfab1cba56921c" target="_top" xlink:title="Load graph to HFA memory and cache.">
<polygon fill="white" stroke="black" points="499.5,-354.5 499.5,-375.5 568.5,-375.5 568.5,-354.5 499.5,-354.5"/>
<text text-anchor="middle" x="534" y="-362.5" font-family="FreeSans" font-size="10.00">graph_load</text>
</a>
</g>
<!-- Node3&#45;&gt;Node5 -->
<g id="edge8" class="edge"><title>Node3&#45;&gt;Node5</title>
<path fill="none" stroke="midnightblue" d="M424.452,-392.049C448.996,-385.989 477.551,-378.938 499.353,-373.555"/>
<polygon fill="midnightblue" stroke="midnightblue" points="423.433,-388.695 414.564,-394.49 425.111,-395.491 423.433,-388.695"/>
</g>
<!-- Node6 -->
<g id="node11" class="node"><title>Node6</title>
<a xlink:href="hfa-lnx-linkgraph_8c.html#a78ffddbcd7cdd164889cfb53ea367886" target="_top" xlink:title="entry">
<polygon fill="white" stroke="black" points="655.5,-334.5 655.5,-355.5 696.5,-355.5 696.5,-334.5 655.5,-334.5"/>
<text text-anchor="middle" x="676" y="-342.5" font-family="FreeSans" font-size="10.00">entry</text>
</a>
</g>
<!-- Node5&#45;&gt;Node6 -->
<g id="edge10" class="edge"><title>Node5&#45;&gt;Node6</title>
<path fill="none" stroke="midnightblue" d="M578.962,-358.667C604.521,-355.067 635.307,-350.731 655.246,-347.923"/>
<polygon fill="midnightblue" stroke="midnightblue" points="578.151,-355.247 568.737,-360.107 579.128,-362.178 578.151,-355.247"/>
</g>
<!-- Node8 -->
<g id="node15" class="node"><title>Node8</title>
<a xlink:href="hfa-lnx-async_8c.html#a78ffddbcd7cdd164889cfb53ea367886" target="_top" xlink:title="entry">
<polygon fill="white" stroke="black" points="655.5,-237.5 655.5,-258.5 696.5,-258.5 696.5,-237.5 655.5,-237.5"/>
<text text-anchor="middle" x="676" y="-245.5" font-family="FreeSans" font-size="10.00">entry</text>
</a>
</g>
<!-- Node7&#45;&gt;Node8 -->
<g id="edge14" class="edge"><title>Node7&#45;&gt;Node8</title>
<path fill="none" stroke="midnightblue" d="M408.902,-350.797C473.419,-325.967 604.67,-275.453 655.37,-255.94"/>
<polygon fill="midnightblue" stroke="midnightblue" points="407.59,-347.552 399.514,-354.411 410.104,-354.085 407.59,-347.552"/>
</g>
<!-- Node10 -->
<g id="node19" class="node"><title>Node10</title>
<a xlink:href="cvm-hfa-graph_8c.html#aa4ce7845277b4b3099159bbd7afd5c08" target="_top" xlink:title="This routine is used to cacheunload a cacheload&#39;ed graph in a non&#45;blocking manner.">
<polygon fill="white" stroke="black" points="306,-434.5 306,-455.5 438,-455.5 438,-434.5 306,-434.5"/>
<text text-anchor="middle" x="372" y="-442.5" font-family="FreeSans" font-size="10.00">hfa_graph_cacheunload</text>
</a>
</g>
<!-- Node9&#45;&gt;Node10 -->
<g id="edge18" class="edge"><title>Node9&#45;&gt;Node10</title>
<path fill="none" stroke="midnightblue" d="M272.234,-441.032C283.44,-441.478 294.906,-441.934 305.886,-442.37"/>
<polygon fill="midnightblue" stroke="midnightblue" points="272.168,-437.527 262.037,-440.626 271.89,-444.521 272.168,-437.527"/>
</g>
<!-- Node10&#45;&gt;Node4 -->
<g id="edge26" class="edge"><title>Node10&#45;&gt;Node4</title>
<path fill="none" stroke="midnightblue" d="M424.566,-432.021C454.831,-424.548 491.163,-415.577 513.411,-410.084"/>
<polygon fill="midnightblue" stroke="midnightblue" points="423.433,-428.695 414.564,-434.49 425.111,-435.491 423.433,-428.695"/>
</g>
<!-- Node11 -->
<g id="node21" class="node"><title>Node11</title>
<a xlink:href="hfa-lnx-async_8c.html#acd9e54f020b77f14d54c200b65423a15" target="_top" xlink:title="Application cleanup will be done by this routine.">
<polygon fill="white" stroke="black" points="507,-434.5 507,-455.5 561,-455.5 561,-434.5 507,-434.5"/>
<text text-anchor="middle" x="534" y="-442.5" font-family="FreeSans" font-size="10.00">cleanup</text>
</a>
</g>
<!-- Node10&#45;&gt;Node11 -->
<g id="edge20" class="edge"><title>Node10&#45;&gt;Node11</title>
<path fill="none" stroke="midnightblue" d="M448.54,-445C469.393,-445 490.642,-445 506.735,-445"/>
<polygon fill="midnightblue" stroke="midnightblue" points="448.359,-441.5 438.359,-445 448.359,-448.5 448.359,-441.5"/>
</g>
<!-- Node13 -->
<g id="node27" class="node"><title>Node13</title>
<a xlink:href="hfa-lnx-ctx_8c.html#aaf98ef7cdde3a0dfb2e49919de3298b1" target="_top" xlink:title="exit">
<polygon fill="white" stroke="black" points="517.5,-474.5 517.5,-495.5 550.5,-495.5 550.5,-474.5 517.5,-474.5"/>
<text text-anchor="middle" x="534" y="-482.5" font-family="FreeSans" font-size="10.00">exit</text>
</a>
</g>
<!-- Node10&#45;&gt;Node13 -->
<g id="edge28" class="edge"><title>Node10&#45;&gt;Node13</title>
<path fill="none" stroke="midnightblue" d="M424.278,-457.908C456.382,-465.835 495.4,-475.469 517.193,-480.85"/>
<polygon fill="midnightblue" stroke="midnightblue" points="425.111,-454.509 414.564,-455.51 423.433,-461.305 425.111,-454.509"/>
</g>
<!-- Node14 -->
<g id="node29" class="node"><title>Node14</title>
<a xlink:href="hfa-se-ngraphs_8c.html#a546f3769e735d4bef0bfab1cba56921c" target="_top" xlink:title="Load ngraphs into HFA memory and cache.">
<polygon fill="white" stroke="black" points="499.5,-514.5 499.5,-535.5 568.5,-535.5 568.5,-514.5 499.5,-514.5"/>
<text text-anchor="middle" x="534" y="-522.5" font-family="FreeSans" font-size="10.00">graph_load</text>
</a>
</g>
<!-- Node10&#45;&gt;Node14 -->
<g id="edge30" class="edge"><title>Node10&#45;&gt;Node14</title>
<path fill="none" stroke="midnightblue" d="M396.247,-461.23C416.438,-474.257 446.266,-492.39 474,-505 481.996,-508.636 490.854,-511.952 499.255,-514.794"/>
<polygon fill="midnightblue" stroke="midnightblue" points="397.977,-458.18 387.69,-455.642 394.149,-464.041 397.977,-458.18"/>
</g>
<!-- Node11&#45;&gt;Node8 -->
<g id="edge22" class="edge"><title>Node11&#45;&gt;Node8</title>
<path fill="none" stroke="midnightblue" d="M571.016,-438.396C579.396,-435.445 587.676,-431.175 594,-425 627.797,-391.999 609.793,-367.697 630,-325 641.724,-300.228 659.07,-273.123 668.766,-258.601"/>
<polygon fill="midnightblue" stroke="midnightblue" points="569.838,-435.094 561.244,-441.29 571.826,-441.806 569.838,-435.094"/>
</g>
<!-- Node12 -->
<g id="node24" class="node"><title>Node12</title>
<a xlink:href="hfa-lnx-async_8c.html#aaf98ef7cdde3a0dfb2e49919de3298b1" target="_top" xlink:title="exit">
<polygon fill="white" stroke="black" points="659.5,-434.5 659.5,-455.5 692.5,-455.5 692.5,-434.5 659.5,-434.5"/>
<text text-anchor="middle" x="676" y="-442.5" font-family="FreeSans" font-size="10.00">exit</text>
</a>
</g>
<!-- Node11&#45;&gt;Node12 -->
<g id="edge24" class="edge"><title>Node11&#45;&gt;Node12</title>
<path fill="none" stroke="midnightblue" d="M571.078,-445C599.62,-445 637.724,-445 659.28,-445"/>
<polygon fill="midnightblue" stroke="midnightblue" points="571.043,-441.5 561.043,-445 571.043,-448.5 571.043,-441.5"/>
</g>
<!-- Node15 -->
<g id="node31" class="node"><title>Node15</title>
<a xlink:href="hfa-se-ngraphs_8c.html#a3c04138a5bfe5d72780bb7e82a18e627" target="_top" xlink:title="main">
<polygon fill="white" stroke="black" points="656,-514.5 656,-535.5 696,-535.5 696,-514.5 656,-514.5"/>
<text text-anchor="middle" x="676" y="-522.5" font-family="FreeSans" font-size="10.00">main</text>
</a>
</g>
<!-- Node14&#45;&gt;Node15 -->
<g id="edge32" class="edge"><title>Node14&#45;&gt;Node15</title>
<path fill="none" stroke="midnightblue" d="M579.026,-525C604.749,-525 635.748,-525 655.657,-525"/>
<polygon fill="midnightblue" stroke="midnightblue" points="578.737,-521.5 568.737,-525 578.737,-528.5 578.737,-521.5"/>
</g>
<!-- Node16&#45;&gt;Node6 -->
<g id="edge64" class="edge"><title>Node16&#45;&gt;Node6</title>
<path fill="none" stroke="midnightblue" d="M214.605,-206.442C235.305,-224.857 270.528,-253.342 306,-269 431.084,-324.214 597.852,-339.903 655.431,-343.824"/>
<polygon fill="midnightblue" stroke="midnightblue" points="216.922,-203.819 207.163,-199.695 212.22,-209.005 216.922,-203.819"/>
</g>
<!-- Node17 -->
<g id="node35" class="node"><title>Node17</title>
<a xlink:href="flow_8c.html#a2976ab60901b133a56214323fb901663" target="_top" xlink:title="Low level API to poll a flow.">
<polygon fill="white" stroke="black" points="307.5,-19.5 307.5,-40.5 436.5,-40.5 436.5,-19.5 307.5,-19.5"/>
<text text-anchor="middle" x="372" y="-27.5" font-family="FreeSans" font-size="10.00">__hfaf_process_pktflow</text>
</a>
</g>
<!-- Node16&#45;&gt;Node17 -->
<g id="edge36" class="edge"><title>Node16&#45;&gt;Node17</title>
<path fill="none" stroke="midnightblue" d="M210.119,-170.441C229.765,-145.411 267.314,-100.366 306,-69 319.75,-57.8519 337.027,-47.7608 350.455,-40.6374"/>
<polygon fill="midnightblue" stroke="midnightblue" points="207.306,-168.356 203.944,-178.404 212.838,-172.646 207.306,-168.356"/>
</g>
<!-- Node23 -->
<g id="node47" class="node"><title>Node23</title>
<a xlink:href="hfa-lnx-async_8c.html#a972f8b60ef804914c009c2ef85bac50e" target="_top" xlink:title="Process search for given payload and graph.">
<polygon fill="white" stroke="black" points="326,-158.5 326,-179.5 418,-179.5 418,-158.5 326,-158.5"/>
<text text-anchor="middle" x="372" y="-166.5" font-family="FreeSans" font-size="10.00">process_search</text>
</a>
</g>
<!-- Node16&#45;&gt;Node23 -->
<g id="edge48" class="edge"><title>Node16&#45;&gt;Node23</title>
<path fill="none" stroke="midnightblue" d="M279.945,-179.461C295.728,-177.667 311.685,-175.854 325.78,-174.252"/>
<polygon fill="midnightblue" stroke="midnightblue" points="279.161,-176.027 269.62,-180.634 279.951,-182.983 279.161,-176.027"/>
</g>
<!-- Node26 -->
<g id="node55" class="node"><title>Node26</title>
<a xlink:href="hfa-lnx-ctx_8c.html#a71e1d3d18cc48b90a1ecde583ffb3f7a" target="_top" xlink:title="poll_searchctx">
<polygon fill="white" stroke="black" points="329,-118.5 329,-139.5 415,-139.5 415,-118.5 329,-118.5"/>
<text text-anchor="middle" x="372" y="-126.5" font-family="FreeSans" font-size="10.00">poll_searchctx</text>
</a>
</g>
<!-- Node16&#45;&gt;Node26 -->
<g id="edge58" class="edge"><title>Node16&#45;&gt;Node26</title>
<path fill="none" stroke="midnightblue" d="M233.476,-174.798C254.664,-166.913 281.7,-157.093 306,-149 315.655,-145.784 326.175,-142.499 335.921,-139.545"/>
<polygon fill="midnightblue" stroke="midnightblue" points="232.025,-171.604 223.884,-178.384 234.476,-178.16 232.025,-171.604"/>
</g>
<!-- Node29 -->
<g id="node62" class="node"><title>Node29</title>
<a xlink:href="hfa-lnx-nctx-lock_8c.html#adb0c831ef0f9af5441a6769c377d9c95" target="_top" xlink:title="Post process the results from HFA and record found matches.">
<polygon fill="white" stroke="black" points="332,-78.5 332,-99.5 412,-99.5 412,-78.5 332,-78.5"/>
<text text-anchor="middle" x="372" y="-86.5" font-family="FreeSans" font-size="10.00">post_process</text>
</a>
</g>
<!-- Node16&#45;&gt;Node29 -->
<g id="edge66" class="edge"><title>Node16&#45;&gt;Node29</title>
<path fill="none" stroke="midnightblue" d="M215.235,-171.889C236.227,-153.995 271.469,-126.174 306,-109 314.04,-105.001 323.034,-101.629 331.733,-98.8592"/>
<polygon fill="midnightblue" stroke="midnightblue" points="212.935,-169.251 207.664,-178.442 217.516,-174.544 212.935,-169.251"/>
</g>
<!-- Node32 -->
<g id="node69" class="node"><title>Node32</title>
<a xlink:href="hfa-se-async_8c.html#a3c04138a5bfe5d72780bb7e82a18e627" target="_top" xlink:title="main">
<polygon fill="white" stroke="black" points="352,-198.5 352,-219.5 392,-219.5 392,-198.5 352,-198.5"/>
<text text-anchor="middle" x="372" y="-206.5" font-family="FreeSans" font-size="10.00">main</text>
</a>
</g>
<!-- Node16&#45;&gt;Node32 -->
<g id="edge74" class="edge"><title>Node16&#45;&gt;Node32</title>
<path fill="none" stroke="midnightblue" d="M279.867,-198.53C306.723,-201.582 334.094,-204.693 351.944,-206.721"/>
<polygon fill="midnightblue" stroke="midnightblue" points="279.951,-195.017 269.62,-197.366 279.161,-201.973 279.951,-195.017"/>
</g>
<!-- Node33 -->
<g id="node71" class="node"><title>Node33</title>
<a xlink:href="hfa-se-wqe-lock_8c.html#a06b5fcfab0e1d5eb36b633ec080ad7f9" target="_top" xlink:title="Process search for given contexts.">
<polygon fill="white" stroke="black" points="332,-238.5 332,-259.5 412,-259.5 412,-238.5 332,-238.5"/>
<text text-anchor="middle" x="372" y="-246.5" font-family="FreeSans" font-size="10.00">process_nctx</text>
</a>
</g>
<!-- Node16&#45;&gt;Node33 -->
<g id="edge76" class="edge"><title>Node16&#45;&gt;Node33</title>
<path fill="none" stroke="midnightblue" d="M233.476,-203.202C254.664,-211.087 281.7,-220.907 306,-229 315.655,-232.216 326.175,-235.501 335.921,-238.455"/>
<polygon fill="midnightblue" stroke="midnightblue" points="234.476,-199.84 223.884,-199.616 232.025,-206.396 234.476,-199.84"/>
</g>
<!-- Node18 -->
<g id="node37" class="node"><title>Node18</title>
<a xlink:href="flow_8h.html#ab1b3378af88a440a6c3c0851be942e65" target="_top" xlink:title="All submitted search parameters in Paramlist of flow are polled If low level API __hfaf_process_pktfl...">
<polygon fill="white" stroke="black" points="474.5,-0.5 474.5,-21.5 593.5,-21.5 593.5,-0.5 474.5,-0.5"/>
<text text-anchor="middle" x="534" y="-8.5" font-family="FreeSans" font-size="10.00">hfaf_process_pktflow</text>
</a>
</g>
<!-- Node17&#45;&gt;Node18 -->
<g id="edge38" class="edge"><title>Node17&#45;&gt;Node18</title>
<path fill="none" stroke="midnightblue" d="M447.159,-21.1851C456.252,-20.1186 465.445,-19.0404 474.274,-18.0049"/>
<polygon fill="midnightblue" stroke="midnightblue" points="446.482,-17.7403 436.958,-22.3815 447.298,-24.6927 446.482,-17.7403"/>
</g>
<!-- Node19 -->
<g id="node39" class="node"><title>Node19</title>
<a xlink:href="hfa-se-flow_8c.html#a2d83c733eacd7afc955c3af18edcb52a" target="_top" xlink:title="Polls for a submitted search instruction of a flow.">
<polygon fill="white" stroke="black" points="633.5,-0.5 633.5,-21.5 718.5,-21.5 718.5,-0.5 633.5,-0.5"/>
<text text-anchor="middle" x="676" y="-8.5" font-family="FreeSans" font-size="10.00">__processflow</text>
</a>
</g>
<!-- Node18&#45;&gt;Node19 -->
<g id="edge40" class="edge"><title>Node18&#45;&gt;Node19</title>
<path fill="none" stroke="midnightblue" d="M604.083,-11C613.981,-11 623.902,-11 633.078,-11"/>
<polygon fill="midnightblue" stroke="midnightblue" points="603.809,-7.5001 593.809,-11 603.809,-14.5001 603.809,-7.5001"/>
</g>
<!-- Node20 -->
<g id="node41" class="node"><title>Node20</title>
<a xlink:href="hfa-se-flow_8c.html#a786591694a8f8fb46cedbc8a580c88f6" target="_top" xlink:title="Submitting or Polling flows from the software recently used cache IF Cache is empty, it tries to refill it.">
<polygon fill="white" stroke="black" points="758.5,-0.5 758.5,-21.5 821.5,-21.5 821.5,-0.5 758.5,-0.5"/>
<text text-anchor="middle" x="790" y="-8.5" font-family="FreeSans" font-size="10.00">do_cache</text>
</a>
</g>
<!-- Node19&#45;&gt;Node20 -->
<g id="edge42" class="edge"><title>Node19&#45;&gt;Node20</title>
<path fill="none" stroke="midnightblue" d="M728.784,-11C738.902,-11 749.197,-11 758.387,-11"/>
<polygon fill="midnightblue" stroke="midnightblue" points="728.774,-7.5001 718.774,-11 728.774,-14.5001 728.774,-7.5001"/>
</g>
<!-- Node21 -->
<g id="node43" class="node"><title>Node21</title>
<a xlink:href="hfa-se-flow_8c.html#aba72a61590283e37ffd78b4defd38220" target="_top" xlink:title="Receive network packets and process.">
<polygon fill="white" stroke="black" points="858,-0.5 858,-21.5 954,-21.5 954,-0.5 858,-0.5"/>
<text text-anchor="middle" x="906" y="-8.5" font-family="FreeSans" font-size="10.00">process_packets</text>
</a>
</g>
<!-- Node20&#45;&gt;Node21 -->
<g id="edge44" class="edge"><title>Node20&#45;&gt;Node21</title>
<path fill="none" stroke="midnightblue" d="M831.711,-11C840.17,-11 849.131,-11 857.792,-11"/>
<polygon fill="midnightblue" stroke="midnightblue" points="831.698,-7.5001 821.698,-11 831.697,-14.5001 831.698,-7.5001"/>
</g>
<!-- Node22 -->
<g id="node45" class="node"><title>Node22</title>
<a xlink:href="hfa-se-flow-wqe_8c.html#a3c04138a5bfe5d72780bb7e82a18e627" target="_top" xlink:title="Implementation.">
<polygon fill="white" stroke="black" points="990,-0.5 990,-21.5 1030,-21.5 1030,-0.5 990,-0.5"/>
<text text-anchor="middle" x="1010" y="-8.5" font-family="FreeSans" font-size="10.00">main</text>
</a>
</g>
<!-- Node21&#45;&gt;Node22 -->
<g id="edge46" class="edge"><title>Node21&#45;&gt;Node22</title>
<path fill="none" stroke="midnightblue" d="M964.146,-11C973.414,-11 982.419,-11 989.958,-11"/>
<polygon fill="midnightblue" stroke="midnightblue" points="964.043,-7.5001 954.042,-11 964.042,-14.5001 964.043,-7.5001"/>
</g>
<!-- Node24 -->
<g id="node49" class="node"><title>Node24</title>
<a xlink:href="hfa-lnx-async_8c.html#a1e97b1d598034fdc92d57054a6c386e6" target="_top" xlink:title="tasklet_callback">
<polygon fill="white" stroke="black" points="488,-158.5 488,-179.5 580,-179.5 580,-158.5 488,-158.5"/>
<text text-anchor="middle" x="534" y="-166.5" font-family="FreeSans" font-size="10.00">tasklet_callback</text>
</a>
</g>
<!-- Node23&#45;&gt;Node24 -->
<g id="edge50" class="edge"><title>Node23&#45;&gt;Node24</title>
<path fill="none" stroke="midnightblue" d="M428.636,-169C448.001,-169 469.414,-169 487.851,-169"/>
<polygon fill="midnightblue" stroke="midnightblue" points="428.423,-165.5 418.423,-169 428.423,-172.5 428.423,-165.5"/>
</g>
<!-- Node25 -->
<g id="node52" class="node"><title>Node25</title>
<a xlink:href="hfa-lnx-async_8c.html#a7dea7d59754828b1173c4c7ec5d42f3e" target="_top" xlink:title="thread_callback">
<polygon fill="white" stroke="black" points="488,-198.5 488,-219.5 580,-219.5 580,-198.5 488,-198.5"/>
<text text-anchor="middle" x="534" y="-206.5" font-family="FreeSans" font-size="10.00">thread_callback</text>
</a>
</g>
<!-- Node23&#45;&gt;Node25 -->
<g id="edge54" class="edge"><title>Node23&#45;&gt;Node25</title>
<path fill="none" stroke="midnightblue" d="M424.29,-181.911C446.001,-187.272 470.873,-193.413 491.44,-198.491"/>
<polygon fill="midnightblue" stroke="midnightblue" points="425.111,-178.509 414.564,-179.51 423.433,-185.305 425.111,-178.509"/>
</g>
<!-- Node24&#45;&gt;Node8 -->
<g id="edge52" class="edge"><title>Node24&#45;&gt;Node8</title>
<path fill="none" stroke="midnightblue" d="M581.196,-183.208C585.599,-184.986 589.931,-186.919 594,-189 620.701,-202.655 648.318,-224.393 663.714,-237.322"/>
<polygon fill="midnightblue" stroke="midnightblue" points="582.115,-179.814 571.523,-179.565 579.648,-186.365 582.115,-179.814"/>
</g>
<!-- Node25&#45;&gt;Node8 -->
<g id="edge56" class="edge"><title>Node25&#45;&gt;Node8</title>
<path fill="none" stroke="midnightblue" d="M582.071,-222.203C606.929,-229.03 635.987,-237.011 655.126,-242.267"/>
<polygon fill="midnightblue" stroke="midnightblue" points="582.997,-218.827 572.427,-219.554 581.143,-225.577 582.997,-218.827"/>
</g>
<!-- Node27 -->
<g id="node57" class="node"><title>Node27</title>
<a xlink:href="hfa-lnx-ctx_8c.html#a934a9fc08c4aab25d6f0d861e4a4f762" target="_top" xlink:title="poll">
<polygon fill="white" stroke="black" points="517.5,-118.5 517.5,-139.5 550.5,-139.5 550.5,-118.5 517.5,-118.5"/>
<text text-anchor="middle" x="534" y="-126.5" font-family="FreeSans" font-size="10.00">poll</text>
</a>
</g>
<!-- Node26&#45;&gt;Node27 -->
<g id="edge60" class="edge"><title>Node26&#45;&gt;Node27</title>
<path fill="none" stroke="midnightblue" d="M425.53,-129C457.48,-129 495.899,-129 517.375,-129"/>
<polygon fill="midnightblue" stroke="midnightblue" points="425.413,-125.5 415.413,-129 425.413,-132.5 425.413,-125.5"/>
</g>
<!-- Node28 -->
<g id="node59" class="node"><title>Node28</title>
<a xlink:href="hfa-lnx-ctx_8c.html#a97df0ba8293c1b8436547946fd9d0d17" target="_top" xlink:title="process_pkt">
<polygon fill="white" stroke="black" points="639,-118.5 639,-139.5 713,-139.5 713,-118.5 639,-118.5"/>
<text text-anchor="middle" x="676" y="-126.5" font-family="FreeSans" font-size="10.00">process_pkt</text>
</a>
</g>
<!-- Node27&#45;&gt;Node28 -->
<g id="edge62" class="edge"><title>Node27&#45;&gt;Node28</title>
<path fill="none" stroke="midnightblue" d="M560.858,-129C582.909,-129 614.376,-129 638.843,-129"/>
<polygon fill="midnightblue" stroke="midnightblue" points="560.567,-125.5 550.567,-129 560.567,-132.5 560.567,-125.5"/>
</g>
<!-- Node30 -->
<g id="node64" class="node"><title>Node30</title>
<a xlink:href="hfa-lnx-nctx-lock_8c.html#a48d3743fb7abc7d3c6b68359678e52a1" target="_top" xlink:title="Poll for the pending search instructions in the HW (blocked till instruction completes) and process t...">
<polygon fill="white" stroke="black" points="517.5,-40.5 517.5,-61.5 550.5,-61.5 550.5,-40.5 517.5,-40.5"/>
<text text-anchor="middle" x="534" y="-48.5" font-family="FreeSans" font-size="10.00">poll</text>
</a>
</g>
<!-- Node29&#45;&gt;Node30 -->
<g id="edge68" class="edge"><title>Node29&#45;&gt;Node30</title>
<path fill="none" stroke="midnightblue" d="M421.898,-77.2955C454.564,-69.633 495.188,-60.1041 517.465,-54.8787"/>
<polygon fill="midnightblue" stroke="midnightblue" points="420.981,-73.9155 412.045,-79.6067 422.58,-80.7305 420.981,-73.9155"/>
</g>
<!-- Node31 -->
<g id="node66" class="node"><title>Node31</title>
<a xlink:href="hfa-lnx-nctx-lock_8c.html#a972f8b60ef804914c009c2ef85bac50e" target="_top" xlink:title="Performs search process for each core.">
<polygon fill="white" stroke="black" points="630,-59.5 630,-80.5 722,-80.5 722,-59.5 630,-59.5"/>
<text text-anchor="middle" x="676" y="-67.5" font-family="FreeSans" font-size="10.00">process_search</text>
</a>
</g>
<!-- Node29&#45;&gt;Node31 -->
<g id="edge72" class="edge"><title>Node29&#45;&gt;Node31</title>
<path fill="none" stroke="midnightblue" d="M422.043,-85.8723C479.764,-82.2648 573.883,-76.3823 629.888,-72.882"/>
<polygon fill="midnightblue" stroke="midnightblue" points="421.817,-82.3795 412.055,-86.4965 422.254,-89.3659 421.817,-82.3795"/>
</g>
<!-- Node30&#45;&gt;Node31 -->
<g id="edge70" class="edge"><title>Node30&#45;&gt;Node31</title>
<path fill="none" stroke="midnightblue" d="M560.532,-54.5501C579.979,-57.1521 606.875,-60.7509 629.817,-63.8206"/>
<polygon fill="midnightblue" stroke="midnightblue" points="560.943,-51.0739 550.567,-53.2167 560.015,-58.0121 560.943,-51.0739"/>
</g>
<!-- Node34 -->
<g id="node73" class="node"><title>Node34</title>
<a xlink:href="hfa-se-wqe-lock_8c.html#a3c04138a5bfe5d72780bb7e82a18e627" target="_top" xlink:title="main">
<polygon fill="white" stroke="black" points="514,-238.5 514,-259.5 554,-259.5 554,-238.5 514,-238.5"/>
<text text-anchor="middle" x="534" y="-246.5" font-family="FreeSans" font-size="10.00">main</text>
</a>
</g>
<!-- Node33&#45;&gt;Node34 -->
<g id="edge78" class="edge"><title>Node33&#45;&gt;Node34</title>
<path fill="none" stroke="midnightblue" d="M422.197,-249C453.017,-249 490.828,-249 513.636,-249"/>
<polygon fill="midnightblue" stroke="midnightblue" points="422.045,-245.5 412.045,-249 422.045,-252.5 422.045,-245.5"/>
</g>
</g>
</svg>
