<?xml version="1.0" encoding="UTF-8" standalone="no"?>
<!DOCTYPE svg PUBLIC "-//W3C//DTD SVG 1.1//EN"
 "http://www.w3.org/Graphics/SVG/1.1/DTD/svg11.dtd">
<!-- Generated by graphviz version 2.24.0 (20090616.2323)
 -->
<!-- Title: hfa_graph_memload_data Pages: 1 -->
<svg width="872pt" height="130pt"
 viewBox="0.00 0.00 872.00 130.00" xmlns="http://www.w3.org/2000/svg" xmlns:xlink="http://www.w3.org/1999/xlink">
<g id="graph1" class="graph" transform="scale(1 1) rotate(0) translate(4 126)">
<title>hfa_graph_memload_data</title>
<polygon fill="white" stroke="white" points="-4,5 -4,-126 869,-126 869,5 -4,5"/>
<!-- Node1 -->
<g id="node1" class="node"><title>Node1</title>
<polygon fill="#bfbfbf" stroke="black" points="0,-59.5 0,-80.5 142,-80.5 142,-59.5 0,-59.5"/>
<text text-anchor="middle" x="71" y="-67.5" font-family="FreeSans" font-size="10.00">hfa_graph_memload_data</text>
</g>
<!-- Node2 -->
<g id="node3" class="node"><title>Node2</title>
<a xlink:href="cvm-hfa-graph_8c.html#a647ccf649077cb5170221218ab2cdccf" target="_top" xlink:title="This routine downloads graph data to the HFA engine in a non&#45;blocking manner.">
<polygon fill="white" stroke="black" points="178,-76 178,-110 320,-110 320,-76 178,-76"/>
<text text-anchor="start" x="186" y="-97" font-family="FreeSans" font-size="10.00">hfa_graph_memload_data</text>
<text text-anchor="middle" x="249" y="-84" font-family="FreeSans" font-size="10.00">_async</text>
</a>
</g>
<!-- Node1&#45;&gt;Node2 -->
<g id="edge2" class="edge"><title>Node1&#45;&gt;Node2</title>
<path fill="none" stroke="midnightblue" d="M142.118,-79.1894C150.609,-80.2866 159.327,-81.413 167.944,-82.5265"/>
<polygon fill="midnightblue" stroke="midnightblue" points="167.629,-86.0148 177.995,-83.8252 168.526,-79.0725 167.629,-86.0148"/>
</g>
<!-- Node4 -->
<g id="node7" class="node"><title>Node4</title>
<a xlink:href="cvm-hfa-graph_8c.html#a0f2f13fb51e5d56dcf049ff3c7c6ad78" target="_top" xlink:title="This routine is used to check the status of the graph.">
<polygon fill="white" stroke="black" points="377,-40.5 377,-61.5 491,-61.5 491,-40.5 377,-40.5"/>
<text text-anchor="middle" x="434" y="-48.5" font-family="FreeSans" font-size="10.00">hfa_graph_getstatus</text>
</a>
</g>
<!-- Node1&#45;&gt;Node4 -->
<g id="edge20" class="edge"><title>Node1&#45;&gt;Node4</title>
<path fill="none" stroke="midnightblue" d="M142.284,-66.2689C207.317,-62.865 302.732,-57.8708 366.538,-54.5311"/>
<polygon fill="midnightblue" stroke="midnightblue" points="367.087,-58.0072 376.89,-53.9892 366.721,-51.0168 367.087,-58.0072"/>
</g>
<!-- Node3 -->
<g id="node5" class="node"><title>Node3</title>
<a xlink:href="cvm-hfa_8h.html#a760b4a245f0bf0c6823c9edb7eba6425" target="_top" xlink:title="Indicates whether device has its own HFA memory.">
<polygon fill="white" stroke="black" points="356.5,-82.5 356.5,-103.5 511.5,-103.5 511.5,-82.5 356.5,-82.5"/>
<text text-anchor="middle" x="434" y="-90.5" font-family="FreeSans" font-size="10.00">hfa_dev_haspvt_hfamemory</text>
</a>
</g>
<!-- Node2&#45;&gt;Node3 -->
<g id="edge4" class="edge"><title>Node2&#45;&gt;Node3</title>
<path fill="none" stroke="midnightblue" d="M320.261,-93C328.748,-93 337.486,-93 346.17,-93"/>
<polygon fill="midnightblue" stroke="midnightblue" points="346.32,-96.5001 356.32,-93 346.32,-89.5001 346.32,-96.5001"/>
</g>
<!-- Node2&#45;&gt;Node4 -->
<g id="edge6" class="edge"><title>Node2&#45;&gt;Node4</title>
<path fill="none" stroke="midnightblue" d="M320.261,-76.8218C339.327,-72.4933 359.666,-67.8758 377.794,-63.7602"/>
<polygon fill="midnightblue" stroke="midnightblue" points="378.639,-67.1576 387.616,-61.5304 377.089,-60.3313 378.639,-67.1576"/>
</g>
<!-- Node5 -->
<g id="node9" class="node"><title>Node5</title>
<a xlink:href="cvm-hfa_8c.html#a4753d2dd586e19676b1a59dd16baaeed" target="_top" xlink:title="Obtain status of submitted insruction.">
<polygon fill="white" stroke="black" points="555.5,-80.5 555.5,-101.5 688.5,-101.5 688.5,-80.5 555.5,-80.5"/>
<text text-anchor="middle" x="622" y="-88.5" font-family="FreeSans" font-size="10.00">hfa_dev_getasyncstatus</text>
</a>
</g>
<!-- Node4&#45;&gt;Node5 -->
<g id="edge8" class="edge"><title>Node4&#45;&gt;Node5</title>
<path fill="none" stroke="midnightblue" d="M483.395,-61.5095C507.694,-66.6795 537.169,-72.9508 562.68,-78.3788"/>
<polygon fill="midnightblue" stroke="midnightblue" points="562.1,-81.8335 572.609,-80.4913 563.556,-74.9868 562.1,-81.8335"/>
</g>
<!-- Node8 -->
<g id="node15" class="node"><title>Node8</title>
<a xlink:href="cvm-hfa-instr_8h.html#aa7b5661907cf23e01fe784a70980ed4b" target="_top" xlink:title="Gets itype from RWORD0.">
<polygon fill="white" stroke="black" points="561,-40.5 561,-61.5 683,-61.5 683,-40.5 561,-40.5"/>
<text text-anchor="middle" x="622" y="-48.5" font-family="FreeSans" font-size="10.00">cvm_hfa_rslt_getitype</text>
</a>
</g>
<!-- Node4&#45;&gt;Node8 -->
<g id="edge14" class="edge"><title>Node4&#45;&gt;Node8</title>
<path fill="none" stroke="midnightblue" d="M491.172,-51C509.939,-51 531.031,-51 550.711,-51"/>
<polygon fill="midnightblue" stroke="midnightblue" points="550.854,-54.5001 560.854,-51 550.854,-47.5001 550.854,-54.5001"/>
</g>
<!-- Node9 -->
<g id="node17" class="node"><title>Node9</title>
<a xlink:href="cvm-hfa-graph_8c.html#aa4c0667cc4f92a08c249041eb8a4ec58" target="_top" xlink:title="This routine is used to free the buffers and change the graph load status after instruction completio...">
<polygon fill="white" stroke="black" points="548.5,-0.5 548.5,-21.5 695.5,-21.5 695.5,-0.5 548.5,-0.5"/>
<text text-anchor="middle" x="622" y="-8.5" font-family="FreeSans" font-size="10.00">__hfa_graph_processstatus</text>
</a>
</g>
<!-- Node4&#45;&gt;Node9 -->
<g id="edge16" class="edge"><title>Node4&#45;&gt;Node9</title>
<path fill="none" stroke="midnightblue" d="M483.395,-40.4905C507.694,-35.3205 537.169,-29.0492 562.68,-23.6212"/>
<polygon fill="midnightblue" stroke="midnightblue" points="563.556,-27.0132 572.609,-21.5087 562.1,-20.1665 563.556,-27.0132"/>
</g>
<!-- Node6 -->
<g id="node11" class="node"><title>Node6</title>
<a xlink:href="cvm-hfa-instr_8h.html#a56f2522dcba965745a1bc239fc432dca" target="_top" xlink:title="Gets done from RWORD0.">
<polygon fill="white" stroke="black" points="736.5,-100.5 736.5,-121.5 859.5,-121.5 859.5,-100.5 736.5,-100.5"/>
<text text-anchor="middle" x="798" y="-108.5" font-family="FreeSans" font-size="10.00">cvm_hfa_rslt_getdone</text>
</a>
</g>
<!-- Node5&#45;&gt;Node6 -->
<g id="edge10" class="edge"><title>Node5&#45;&gt;Node6</title>
<path fill="none" stroke="midnightblue" d="M688.538,-98.5611C700.782,-99.9525 713.616,-101.411 726.012,-102.82"/>
<polygon fill="midnightblue" stroke="midnightblue" points="725.968,-106.337 736.299,-103.989 726.758,-99.3817 725.968,-106.337"/>
</g>
<!-- Node7 -->
<g id="node13" class="node"><title>Node7</title>
<a xlink:href="cvm-hfa-instr_8h.html#a9700a50b68b6616506528eb725a8bda1" target="_top" xlink:title="Gets reason from RWORD0.">
<polygon fill="white" stroke="black" points="732.5,-60.5 732.5,-81.5 863.5,-81.5 863.5,-60.5 732.5,-60.5"/>
<text text-anchor="middle" x="798" y="-68.5" font-family="FreeSans" font-size="10.00">cvm_hfa_rslt_getreason</text>
</a>
</g>
<!-- Node5&#45;&gt;Node7 -->
<g id="edge12" class="edge"><title>Node5&#45;&gt;Node7</title>
<path fill="none" stroke="midnightblue" d="M688.538,-83.4389C699.494,-82.1939 710.922,-80.8952 722.086,-79.6266"/>
<polygon fill="midnightblue" stroke="midnightblue" points="722.702,-83.0792 732.243,-78.4724 721.912,-76.1239 722.702,-83.0792"/>
</g>
<!-- Node10 -->
<g id="node19" class="node"><title>Node10</title>
<a xlink:href="cvm-hfa-cluster_8c.html#ad8cad96579f5a310b62caaf8c166658f" target="_top" xlink:title="Returns a copy of a cluster of the HFA device.">
<polygon fill="white" stroke="black" points="753,-0.5 753,-21.5 843,-21.5 843,-0.5 753,-0.5"/>
<text text-anchor="middle" x="798" y="-8.5" font-family="FreeSans" font-size="10.00">hfa_get_cluster</text>
</a>
</g>
<!-- Node9&#45;&gt;Node10 -->
<g id="edge18" class="edge"><title>Node9&#45;&gt;Node10</title>
<path fill="none" stroke="midnightblue" d="M695.62,-11C711.386,-11 727.785,-11 742.719,-11"/>
<polygon fill="midnightblue" stroke="midnightblue" points="742.797,-14.5001 752.797,-11 742.797,-7.5001 742.797,-14.5001"/>
</g>
</g>
</svg>
