<?xml version="1.0" encoding="UTF-8" standalone="no"?>
<!DOCTYPE svg PUBLIC "-//W3C//DTD SVG 1.1//EN"
 "http://www.w3.org/Graphics/SVG/1.1/DTD/svg11.dtd">
<!-- Generated by graphviz version 2.24.0 (20090616.2323)
 -->
<!-- Title: hfa_searchctx_ppstats_print Pages: 1 -->
<svg width="360pt" height="42pt"
 viewBox="0.00 0.00 360.00 42.00" xmlns="http://www.w3.org/2000/svg" xmlns:xlink="http://www.w3.org/1999/xlink">
<g id="graph1" class="graph" transform="scale(1 1) rotate(0) translate(4 38)">
<title>hfa_searchctx_ppstats_print</title>
<polygon fill="white" stroke="white" points="-4,5 -4,-38 357,-38 357,5 -4,5"/>
<!-- Node1 -->
<g id="node1" class="node"><title>Node1</title>
<polygon fill="#bfbfbf" stroke="black" points="0.5,-0 0.5,-34 125.5,-34 125.5,-0 0.5,-0"/>
<text text-anchor="start" x="8.5" y="-21" font-family="FreeSans" font-size="10.00">hfa_searchctx_ppstats</text>
<text text-anchor="middle" x="63" y="-8" font-family="FreeSans" font-size="10.00">_print</text>
</g>
<!-- Node2 -->
<g id="node3" class="node"><title>Node2</title>
<a xlink:href="cvm-hfa-pp_8c.html#add6064138ec2e35741929056a0992d8d" target="_top" xlink:title="ppgetstats">
<polygon fill="white" stroke="black" points="162,-6.5 162,-27.5 228,-27.5 228,-6.5 162,-6.5"/>
<text text-anchor="middle" x="195" y="-14.5" font-family="FreeSans" font-size="10.00">ppgetstats</text>
</a>
</g>
<!-- Node1&#45;&gt;Node2 -->
<g id="edge2" class="edge"><title>Node1&#45;&gt;Node2</title>
<path fill="none" stroke="midnightblue" d="M125.521,-17C134.329,-17 143.221,-17 151.565,-17"/>
<polygon fill="midnightblue" stroke="midnightblue" points="151.795,-20.5001 161.795,-17 151.795,-13.5001 151.795,-20.5001"/>
</g>
<!-- Node3 -->
<g id="node5" class="node"><title>Node3</title>
<a xlink:href="pp_8h.html#a808d5057ee5670ce724a6a88fc22b799" target="_top" xlink:title="pphfa_getstats">
<polygon fill="white" stroke="black" points="264.5,-6.5 264.5,-27.5 351.5,-27.5 351.5,-6.5 264.5,-6.5"/>
<text text-anchor="middle" x="308" y="-14.5" font-family="FreeSans" font-size="10.00">pphfa_getstats</text>
</a>
</g>
<!-- Node2&#45;&gt;Node3 -->
<g id="edge4" class="edge"><title>Node2&#45;&gt;Node3</title>
<path fill="none" stroke="midnightblue" d="M228.293,-17C236.434,-17 245.354,-17 254.187,-17"/>
<polygon fill="midnightblue" stroke="midnightblue" points="254.463,-20.5001 264.463,-17 254.463,-13.5001 254.463,-20.5001"/>
</g>
</g>
</svg>
