<?xml version="1.0" encoding="UTF-8" standalone="no"?>
<!DOCTYPE svg PUBLIC "-//W3C//DTD SVG 1.1//EN"
 "http://www.w3.org/Graphics/SVG/1.1/DTD/svg11.dtd">
<!-- Generated by graphviz version 2.24.0 (20090616.2323)
 -->
<!-- Title: hfa_graph_cacheload Pages: 1 -->
<!--zoomable 868 -->
<svg id="main" version="1.1" xmlns="http://www.w3.org/2000/svg" xmlns:xlink="http://www.w3.org/1999/xlink" xml:space="preserve" onload="init(evt)">
        <defs>
                <circle id="rim" cx="0" cy="0" r="7"/>
                <circle id="rim2" cx="0" cy="0" r="3.5"/>
                <g id="zoomPlus">
                        <use xlink:href="#rim" fill="#404040">
                                <set attributeName="fill" to="#808080" begin="zoomplus.mouseover" end="zoomplus.mouseout"/>
                        </use>
                        <path d="M-4,0h8M0,-4v8" fill="none" stroke="white" stroke-width="1.5" pointer-events="none"/>
                </g>
                <g id="zoomMin">
                        <use xlink:href="#rim" fill="#404040">
                                <set attributeName="fill" to="#808080" begin="zoomminus.mouseover" end="zoomminus.mouseout"/>
                        </use>
                        <path d="M-4,0h8" fill="none" stroke="white" stroke-width="1.5" pointer-events="none"/>
                </g>
                <g id="dirArrow">
                        <path fill="none" stroke="white" stroke-width="1.5" d="M0,-3.0v7 M-2.5,-0.5L0,-3.0L2.5,-0.5"/>
                </g>
               <g id="resetDef">
                       <use xlink:href="#rim2" fill="#404040">
                               <set attributeName="fill" to="#808080" begin="reset.mouseover" end="reset.mouseout"/>
                       </use>
               </g>
        </defs>

<script type="text/javascript">
var viewWidth = 636;
var viewHeight = 868;
var sectionId = 'dynsection-4';
</script>
<script xlink:href="svgpan.js"/>
<svg id="graph" class="graph">
<g id="viewport">
<title>hfa_graph_cacheload</title>
<polygon fill="white" stroke="white" points="-4,5 -4,-864 633,-864 633,5 -4,5"/>
<!-- Node1 -->
<g id="node1" class="node"><title>Node1</title>
<polygon fill="#bfbfbf" stroke="black" points="0,-269.5 0,-290.5 120,-290.5 120,-269.5 0,-269.5"/>
<text text-anchor="middle" x="60" y="-277.5" font-family="FreeSans" font-size="10.00">hfa_graph_cacheload</text>
</g>
<!-- Node2 -->
<g id="node3" class="node"><title>Node2</title>
<a xlink:href="cvm-hfa-graph_8c.html#aa296e0c6b36b3d5b4f8e01c2fe765bed" target="_top" xlink:title="This routine is used to cacheload a cacheable graph in a non&#45;blocking manner.">
<polygon fill="white" stroke="black" points="156,-452 156,-486 276,-486 276,-452 156,-452"/>
<text text-anchor="start" x="164" y="-473" font-family="FreeSans" font-size="10.00">hfa_graph_cacheload</text>
<text text-anchor="middle" x="216" y="-460" font-family="FreeSans" font-size="10.00">_async</text>
</a>
</g>
<!-- Node1&#45;&gt;Node2 -->
<g id="edge2" class="edge"><title>Node1&#45;&gt;Node2</title>
<path fill="none" stroke="midnightblue" d="M68.8342,-290.703C93.0652,-320.06 161.054,-402.431 195.478,-444.137"/>
<polygon fill="midnightblue" stroke="midnightblue" points="192.828,-446.424 201.893,-451.909 198.226,-441.968 192.828,-446.424"/>
</g>
<!-- Node23 -->
<g id="node45" class="node"><title>Node23</title>
<a xlink:href="cvm-hfa-graph_8c.html#a0f2f13fb51e5d56dcf049ff3c7c6ad78" target="_top" xlink:title="This routine is used to check the status of the graph.">
<polygon fill="white" stroke="black" points="159,-60.5 159,-81.5 273,-81.5 273,-60.5 159,-60.5"/>
<text text-anchor="middle" x="216" y="-68.5" font-family="FreeSans" font-size="10.00">hfa_graph_getstatus</text>
</a>
</g>
<!-- Node1&#45;&gt;Node23 -->
<g id="edge44" class="edge"><title>Node1&#45;&gt;Node23</title>
<path fill="none" stroke="midnightblue" d="M67.9505,-269.348C92.934,-235.877 170.089,-132.509 201.982,-89.7806"/>
<polygon fill="midnightblue" stroke="midnightblue" points="204.889,-91.7376 208.065,-81.6302 199.279,-87.5505 204.889,-91.7376"/>
</g>
<!-- Node3 -->
<g id="node5" class="node"><title>Node3</title>
<a xlink:href="cvm-hfa-instr_8h.html#acaf8def6cbffb04c100bf7f7684f242e" target="_top" xlink:title="Initialize the HFA instruction.">
<polygon fill="white" stroke="black" points="334.5,-718.5 334.5,-739.5 437.5,-739.5 437.5,-718.5 334.5,-718.5"/>
<text text-anchor="middle" x="386" y="-726.5" font-family="FreeSans" font-size="10.00">cvm_hfa_instr_init</text>
</a>
</g>
<!-- Node2&#45;&gt;Node3 -->
<g id="edge4" class="edge"><title>Node2&#45;&gt;Node3</title>
<path fill="none" stroke="midnightblue" d="M217.69,-486.177C222.957,-530.163 243.103,-647.698 312,-709 315.878,-712.45 320.291,-715.313 324.987,-717.688"/>
<polygon fill="midnightblue" stroke="midnightblue" points="323.73,-720.957 334.3,-721.679 326.487,-714.523 323.73,-720.957"/>
</g>
<!-- Node4 -->
<g id="node7" class="node"><title>Node4</title>
<a xlink:href="cvm-hfa-instr_8h.html#ae3c5617039956247653e8ab215744691" target="_top" xlink:title="Sets le in the instruction.">
<polygon fill="white" stroke="black" points="330,-678.5 330,-699.5 442,-699.5 442,-678.5 330,-678.5"/>
<text text-anchor="middle" x="386" y="-686.5" font-family="FreeSans" font-size="10.00">cvm_hfa_instr_setle</text>
</a>
</g>
<!-- Node2&#45;&gt;Node4 -->
<g id="edge6" class="edge"><title>Node2&#45;&gt;Node4</title>
<path fill="none" stroke="midnightblue" d="M219.207,-486.163C227.366,-524.912 252.621,-619.63 312,-669 314.691,-671.237 317.61,-673.226 320.682,-674.994"/>
<polygon fill="midnightblue" stroke="midnightblue" points="319.162,-678.146 329.68,-679.413 322.247,-671.863 319.162,-678.146"/>
</g>
<!-- Node5 -->
<g id="node9" class="node"><title>Node5</title>
<a xlink:href="cvm-hfa-instr_8h.html#a8261a957d73f83f0e9d827f0740e418f" target="_top" xlink:title="Sets gm in the instruction.">
<polygon fill="white" stroke="black" points="318.5,-638.5 318.5,-659.5 453.5,-659.5 453.5,-638.5 318.5,-638.5"/>
<text text-anchor="middle" x="386" y="-646.5" font-family="FreeSans" font-size="10.00">cvm_hfa_instr_setgather</text>
</a>
</g>
<!-- Node2&#45;&gt;Node5 -->
<g id="edge8" class="edge"><title>Node2&#45;&gt;Node5</title>
<path fill="none" stroke="midnightblue" d="M221.43,-486.196C232.735,-519.134 261.992,-591.207 312,-629 314.468,-630.866 317.099,-632.557 319.842,-634.091"/>
<polygon fill="midnightblue" stroke="midnightblue" points="318.395,-637.279 328.922,-638.473 321.437,-630.975 318.395,-637.279"/>
</g>
<!-- Node6 -->
<g id="node11" class="node"><title>Node6</title>
<a xlink:href="cvm-hfa-instr_8h.html#aad258e7b6ac8e829b365867eff83f0ca" target="_top" xlink:title="Sets dsize in the CACHELOAD instruction.">
<polygon fill="white" stroke="black" points="321.5,-598.5 321.5,-619.5 450.5,-619.5 450.5,-598.5 321.5,-598.5"/>
<text text-anchor="middle" x="386" y="-606.5" font-family="FreeSans" font-size="10.00">cvm_hfa_instr_setdsize</text>
</a>
</g>
<!-- Node2&#45;&gt;Node6 -->
<g id="edge10" class="edge"><title>Node2&#45;&gt;Node6</title>
<path fill="none" stroke="midnightblue" d="M225.004,-486.181C239.653,-512.42 271.161,-562.243 312,-589 315.075,-591.015 318.348,-592.828 321.741,-594.459"/>
<polygon fill="midnightblue" stroke="midnightblue" points="320.374,-597.681 330.947,-598.365 323.108,-591.237 320.374,-597.681"/>
</g>
<!-- Node7 -->
<g id="node13" class="node"><title>Node7</title>
<a xlink:href="cvm-hfa-instr_8h.html#ad91227f5246b9ab04b5151cbf93f38db" target="_top" xlink:title="Sets dptr in the instruction.">
<polygon fill="white" stroke="black" points="324.5,-558.5 324.5,-579.5 447.5,-579.5 447.5,-558.5 324.5,-558.5"/>
<text text-anchor="middle" x="386" y="-566.5" font-family="FreeSans" font-size="10.00">cvm_hfa_instr_setdptr</text>
</a>
</g>
<!-- Node2&#45;&gt;Node7 -->
<g id="edge12" class="edge"><title>Node2&#45;&gt;Node7</title>
<path fill="none" stroke="midnightblue" d="M232.052,-486.212C249.911,-504.374 280.43,-532.59 312,-549 316.277,-551.223 320.825,-553.217 325.481,-555.003"/>
<polygon fill="midnightblue" stroke="midnightblue" points="324.546,-558.384 335.14,-558.383 326.857,-551.776 324.546,-558.384"/>
</g>
<!-- Node8 -->
<g id="node15" class="node"><title>Node8</title>
<a xlink:href="cvm-hfa-instr_8h.html#a4e2b3c4160c4ecad70f391800f7d9dba" target="_top" xlink:title="Sets rmax in the CACHELOAD instruction.">
<polygon fill="white" stroke="black" points="321.5,-518.5 321.5,-539.5 450.5,-539.5 450.5,-518.5 321.5,-518.5"/>
<text text-anchor="middle" x="386" y="-526.5" font-family="FreeSans" font-size="10.00">cvm_hfa_instr_setrmax</text>
</a>
</g>
<!-- Node2&#45;&gt;Node8 -->
<g id="edge14" class="edge"><title>Node2&#45;&gt;Node8</title>
<path fill="none" stroke="midnightblue" d="M253.866,-486.123C271.356,-493.682 292.523,-502.342 312,-509 318.839,-511.338 326.108,-513.584 333.315,-515.672"/>
<polygon fill="midnightblue" stroke="midnightblue" points="332.485,-519.074 343.059,-518.415 334.381,-512.336 332.485,-519.074"/>
</g>
<!-- Node9 -->
<g id="node17" class="node"><title>Node9</title>
<a xlink:href="cvm-hfa-instr_8h.html#ae835dc8f1211f0efa86a88df8e618c80" target="_top" xlink:title="Sets dlen in the instruction.">
<polygon fill="white" stroke="black" points="324,-478.5 324,-499.5 448,-499.5 448,-478.5 324,-478.5"/>
<text text-anchor="middle" x="386" y="-486.5" font-family="FreeSans" font-size="10.00">cvm_hfa_instr_setdlen</text>
</a>
</g>
<!-- Node2&#45;&gt;Node9 -->
<g id="edge16" class="edge"><title>Node2&#45;&gt;Node9</title>
<path fill="none" stroke="midnightblue" d="M276.414,-476.108C288.418,-477.52 301.138,-479.016 313.497,-480.47"/>
<polygon fill="midnightblue" stroke="midnightblue" points="313.43,-483.986 323.771,-481.679 314.248,-477.034 313.43,-483.986"/>
</g>
<!-- Node10 -->
<g id="node19" class="node"><title>Node10</title>
<a xlink:href="cvm-hfa-instr_8h.html#a823a53a14312c8ef7cf8eae714ee8994" target="_top" xlink:title="Sets f4 in the MEMLOAD/CACHELOAD instruction.">
<polygon fill="white" stroke="black" points="329,-438.5 329,-459.5 443,-459.5 443,-438.5 329,-438.5"/>
<text text-anchor="middle" x="386" y="-446.5" font-family="FreeSans" font-size="10.00">cvm_hfa_instr_setf4</text>
</a>
</g>
<!-- Node2&#45;&gt;Node10 -->
<g id="edge18" class="edge"><title>Node2&#45;&gt;Node10</title>
<path fill="none" stroke="midnightblue" d="M276.414,-461.892C290.161,-460.275 304.846,-458.548 318.853,-456.9"/>
<polygon fill="midnightblue" stroke="midnightblue" points="319.388,-460.361 328.91,-455.716 318.57,-453.409 319.388,-460.361"/>
</g>
<!-- Node11 -->
<g id="node21" class="node"><title>Node11</title>
<a xlink:href="cvm-hfa-cluster_8c.html#ad8cad96579f5a310b62caaf8c166658f" target="_top" xlink:title="Returns a copy of a cluster of the HFA device.">
<polygon fill="white" stroke="black" points="517,-259.5 517,-280.5 607,-280.5 607,-259.5 517,-259.5"/>
<text text-anchor="middle" x="562" y="-267.5" font-family="FreeSans" font-size="10.00">hfa_get_cluster</text>
</a>
</g>
<!-- Node2&#45;&gt;Node11 -->
<g id="edge20" class="edge"><title>Node2&#45;&gt;Node11</title>
<path fill="none" stroke="midnightblue" d="M253.368,-451.963C270.938,-444.333 292.31,-435.592 312,-429 376.398,-407.44 402.493,-427.123 460,-391 501.442,-364.968 534.595,-316.581 550.931,-289.552"/>
<polygon fill="midnightblue" stroke="midnightblue" points="554.119,-291.035 556.173,-280.641 548.086,-287.486 554.119,-291.035"/>
</g>
<!-- Node12 -->
<g id="node23" class="node"><title>Node12</title>
<a xlink:href="cvm-hfa-instr_8h.html#ae68e1302e0d2010814eb883d768bab97" target="_top" xlink:title="Sets cbase in the CACHELOAD instruction.">
<polygon fill="white" stroke="black" points="319.5,-360.5 319.5,-381.5 452.5,-381.5 452.5,-360.5 319.5,-360.5"/>
<text text-anchor="middle" x="386" y="-368.5" font-family="FreeSans" font-size="10.00">cvm_hfa_instr_setcbase</text>
</a>
</g>
<!-- Node2&#45;&gt;Node12 -->
<g id="edge22" class="edge"><title>Node2&#45;&gt;Node12</title>
<path fill="none" stroke="midnightblue" d="M234.587,-451.916C253.059,-435.682 282.779,-411.51 312,-396 319.919,-391.797 328.684,-388.097 337.329,-384.921"/>
<polygon fill="midnightblue" stroke="midnightblue" points="338.694,-388.152 346.988,-381.559 336.393,-381.541 338.694,-388.152"/>
</g>
<!-- Node13 -->
<g id="node25" class="node"><title>Node13</title>
<a xlink:href="cvm-hfa-instr_8h.html#aac026144550c5d2d8c5e9084da909a16" target="_top" xlink:title="Sets dbase in the CACHELOAD instruction.">
<polygon fill="white" stroke="black" points="319.5,-320.5 319.5,-341.5 452.5,-341.5 452.5,-320.5 319.5,-320.5"/>
<text text-anchor="middle" x="386" y="-328.5" font-family="FreeSans" font-size="10.00">cvm_hfa_instr_setdbase</text>
</a>
</g>
<!-- Node2&#45;&gt;Node13 -->
<g id="edge24" class="edge"><title>Node2&#45;&gt;Node13</title>
<path fill="none" stroke="midnightblue" d="M225.322,-451.682C240.173,-425.774 271.688,-377.176 312,-351 315.143,-348.959 318.489,-347.126 321.957,-345.478"/>
<polygon fill="midnightblue" stroke="midnightblue" points="323.491,-348.63 331.361,-341.537 320.786,-342.174 323.491,-348.63"/>
</g>
<!-- Node14 -->
<g id="node27" class="node"><title>Node14</title>
<a xlink:href="cvm-hfa-instr_8h.html#a5202ffb084dff479254eddd9d1ad3884" target="_top" xlink:title="Sets pgid in the CACHELOAD instruction.">
<polygon fill="white" stroke="black" points="324,-280.5 324,-301.5 448,-301.5 448,-280.5 324,-280.5"/>
<text text-anchor="middle" x="386" y="-288.5" font-family="FreeSans" font-size="10.00">cvm_hfa_instr_setpgid</text>
</a>
</g>
<!-- Node2&#45;&gt;Node14 -->
<g id="edge26" class="edge"><title>Node2&#45;&gt;Node14</title>
<path fill="none" stroke="midnightblue" d="M221.582,-451.764C233.061,-419.119 262.475,-348.212 312,-311 314.474,-309.141 317.108,-307.455 319.855,-305.926"/>
<polygon fill="midnightblue" stroke="midnightblue" points="321.448,-309.043 328.943,-301.555 318.414,-302.735 321.448,-309.043"/>
</g>
<!-- Node15 -->
<g id="node29" class="node"><title>Node15</title>
<a xlink:href="cvm-hfa-instr_8h.html#add4e981377a02cd06e2bca116e584bca" target="_top" xlink:title="Sets vgid in the instruction.">
<polygon fill="white" stroke="black" points="324,-240.5 324,-261.5 448,-261.5 448,-240.5 324,-240.5"/>
<text text-anchor="middle" x="386" y="-248.5" font-family="FreeSans" font-size="10.00">cvm_hfa_instr_setvgid</text>
</a>
</g>
<!-- Node2&#45;&gt;Node15 -->
<g id="edge28" class="edge"><title>Node2&#45;&gt;Node15</title>
<path fill="none" stroke="midnightblue" d="M219.324,-451.717C227.661,-413.17 253.154,-319.732 312,-271 314.018,-269.329 316.163,-267.797 318.404,-266.391"/>
<polygon fill="midnightblue" stroke="midnightblue" points="320.269,-269.364 327.456,-261.579 316.983,-263.183 320.269,-269.364"/>
</g>
<!-- Node16 -->
<g id="node31" class="node"><title>Node16</title>
<a xlink:href="cvm-hfa-instr_8h.html#a2d6082e2e599fe8523162b18d0a06f6c" target="_top" xlink:title="Sets rptr in the instruction.">
<polygon fill="white" stroke="black" points="326,-200.5 326,-221.5 446,-221.5 446,-200.5 326,-200.5"/>
<text text-anchor="middle" x="386" y="-208.5" font-family="FreeSans" font-size="10.00">cvm_hfa_instr_setrptr</text>
</a>
</g>
<!-- Node2&#45;&gt;Node16 -->
<g id="edge30" class="edge"><title>Node2&#45;&gt;Node16</title>
<path fill="none" stroke="midnightblue" d="M217.738,-451.963C223.118,-408.336 243.51,-291.762 312,-231 313.739,-229.457 315.585,-228.032 317.516,-226.715"/>
<polygon fill="midnightblue" stroke="midnightblue" points="319.506,-229.609 326.452,-221.61 316.033,-223.531 319.506,-229.609"/>
</g>
<!-- Node17 -->
<g id="node33" class="node"><title>Node17</title>
<a xlink:href="cvm-hfa-instr_8h.html#a6960a0761295ada9f449ea5e8c41ec80" target="_top" xlink:title="Sets clmsk in the instruction.">
<polygon fill="white" stroke="black" points="320,-160.5 320,-181.5 452,-181.5 452,-160.5 320,-160.5"/>
<text text-anchor="middle" x="386" y="-168.5" font-family="FreeSans" font-size="10.00">cvm_hfa_instr_setclmsk</text>
</a>
</g>
<!-- Node2&#45;&gt;Node17 -->
<g id="edge32" class="edge"><title>Node2&#45;&gt;Node17</title>
<path fill="none" stroke="midnightblue" d="M216.632,-451.694C219.373,-403.035 233.999,-263.83 312,-191 313.66,-189.45 315.427,-188.018 317.28,-186.695"/>
<polygon fill="midnightblue" stroke="midnightblue" points="319.089,-189.692 325.886,-181.565 315.505,-183.679 319.089,-189.692"/>
</g>
<!-- Node18 -->
<g id="node35" class="node"><title>Node18</title>
<a xlink:href="cvm-hfa-instr_8h.html#a88a92a987acac81360f3b880d013cd10" target="_top" xlink:title="Sets wqptr instruction.">
<polygon fill="white" stroke="black" points="320.5,-120.5 320.5,-141.5 451.5,-141.5 451.5,-120.5 320.5,-120.5"/>
<text text-anchor="middle" x="386" y="-128.5" font-family="FreeSans" font-size="10.00">cvm_hfa_instr_setwqptr</text>
</a>
</g>
<!-- Node2&#45;&gt;Node18 -->
<g id="edge34" class="edge"><title>Node2&#45;&gt;Node18</title>
<path fill="none" stroke="midnightblue" d="M218.953,-451.73C229.52,-391.86 267.217,-194.493 312,-151 313.468,-149.574 315.026,-148.248 316.659,-147.014"/>
<polygon fill="midnightblue" stroke="midnightblue" points="318.736,-149.843 325.369,-141.581 315.032,-143.904 318.736,-149.843"/>
</g>
<!-- Node19 -->
<g id="node37" class="node"><title>Node19</title>
<a xlink:href="cvm-hfa-graph_8c.html#a1320f0566be0069bd604cc820a12a114" target="_top" xlink:title="This routine sets WQE field in graph data structure.">
<polygon fill="white" stroke="black" points="333.5,-838.5 333.5,-859.5 438.5,-859.5 438.5,-838.5 333.5,-838.5"/>
<text text-anchor="middle" x="386" y="-846.5" font-family="FreeSans" font-size="10.00">hfa_graph_setwqe</text>
</a>
</g>
<!-- Node2&#45;&gt;Node19 -->
<g id="edge36" class="edge"><title>Node2&#45;&gt;Node19</title>
<path fill="none" stroke="midnightblue" d="M218.303,-486.243C227.292,-551.041 262.001,-778.832 312,-829 315.514,-832.526 319.581,-835.449 323.965,-837.869"/>
<polygon fill="midnightblue" stroke="midnightblue" points="322.782,-841.177 333.331,-842.163 325.7,-834.814 322.782,-841.177"/>
</g>
<!-- Node20 -->
<g id="node39" class="node"><title>Node20</title>
<a xlink:href="cvm-hfa-common_8h.html#a0da7c57174fb96d75ae9cc2ed3116a05" target="_top" xlink:title="Dump buffer pointed by &quot;buf&quot; in readable format.">
<polygon fill="white" stroke="black" points="343,-798.5 343,-819.5 429,-819.5 429,-798.5 343,-798.5"/>
<text text-anchor="middle" x="386" y="-806.5" font-family="FreeSans" font-size="10.00">hfa_dump_buf</text>
</a>
</g>
<!-- Node2&#45;&gt;Node20 -->
<g id="edge38" class="edge"><title>Node2&#45;&gt;Node20</title>
<path fill="none" stroke="midnightblue" d="M218.937,-486.377C229.452,-546.621 266.997,-745.217 312,-789 317.9,-794.74 325.269,-798.874 333.052,-801.842"/>
<polygon fill="midnightblue" stroke="midnightblue" points="332.09,-805.209 342.681,-804.915 334.218,-798.541 332.09,-805.209"/>
</g>
<!-- Node21 -->
<g id="node41" class="node"><title>Node21</title>
<a xlink:href="cvm-hfa_8c.html#a4677d07b901d6aeb02e793c1dbdfabbf" target="_top" xlink:title="Asynchronous instruction submit to HFA hardware Do not wait for instruction to complete.">
<polygon fill="white" stroke="black" points="325,-758.5 325,-779.5 447,-779.5 447,-758.5 325,-758.5"/>
<text text-anchor="middle" x="386" y="-766.5" font-family="FreeSans" font-size="10.00">hfa_dev_submitasync</text>
</a>
</g>
<!-- Node2&#45;&gt;Node21 -->
<g id="edge40" class="edge"><title>Node2&#45;&gt;Node21</title>
<path fill="none" stroke="midnightblue" d="M219.662,-486.103C231.742,-541.011 271.851,-711.43 312,-749 313.658,-750.552 315.424,-751.985 317.275,-753.309"/>
<polygon fill="midnightblue" stroke="midnightblue" points="315.497,-756.324 325.878,-758.445 319.085,-750.314 315.497,-756.324"/>
</g>
<!-- Node22 -->
<g id="node43" class="node"><title>Node22</title>
<a xlink:href="cvmx-hfa_8c.html#a96a123c8918e83cdf914f6de1bfb4f00" target="_top" xlink:title="Submit a command to the DFA block.">
<polygon fill="white" stroke="black" points="511,-758.5 511,-779.5 613,-779.5 613,-758.5 511,-758.5"/>
<text text-anchor="middle" x="562" y="-766.5" font-family="FreeSans" font-size="10.00">cvmx_hfa_submit</text>
</a>
</g>
<!-- Node21&#45;&gt;Node22 -->
<g id="edge42" class="edge"><title>Node21&#45;&gt;Node22</title>
<path fill="none" stroke="midnightblue" d="M447.062,-769C464.491,-769 483.48,-769 500.911,-769"/>
<polygon fill="midnightblue" stroke="midnightblue" points="500.97,-772.5 510.97,-769 500.97,-765.5 500.97,-772.5"/>
</g>
<!-- Node24 -->
<g id="node47" class="node"><title>Node24</title>
<a xlink:href="cvm-hfa_8c.html#a4753d2dd586e19676b1a59dd16baaeed" target="_top" xlink:title="Obtain status of submitted insruction.">
<polygon fill="white" stroke="black" points="319.5,-40.5 319.5,-61.5 452.5,-61.5 452.5,-40.5 319.5,-40.5"/>
<text text-anchor="middle" x="386" y="-48.5" font-family="FreeSans" font-size="10.00">hfa_dev_getasyncstatus</text>
</a>
</g>
<!-- Node23&#45;&gt;Node24 -->
<g id="edge46" class="edge"><title>Node23&#45;&gt;Node24</title>
<path fill="none" stroke="midnightblue" d="M273.08,-64.2847C284.686,-62.9193 297.072,-61.4621 309.231,-60.0316"/>
<polygon fill="midnightblue" stroke="midnightblue" points="309.847,-63.4834 319.37,-58.8388 309.029,-56.5313 309.847,-63.4834"/>
</g>
<!-- Node27 -->
<g id="node53" class="node"><title>Node27</title>
<a xlink:href="cvm-hfa-instr_8h.html#aa7b5661907cf23e01fe784a70980ed4b" target="_top" xlink:title="Gets itype from RWORD0.">
<polygon fill="white" stroke="black" points="325,-0.5 325,-21.5 447,-21.5 447,-0.5 325,-0.5"/>
<text text-anchor="middle" x="386" y="-8.5" font-family="FreeSans" font-size="10.00">cvm_hfa_rslt_getitype</text>
</a>
</g>
<!-- Node23&#45;&gt;Node27 -->
<g id="edge52" class="edge"><title>Node23&#45;&gt;Node27</title>
<path fill="none" stroke="midnightblue" d="M238.952,-60.4383C258.199,-51.8246 286.543,-39.7018 312,-31 318.839,-28.6621 326.108,-26.4159 333.315,-24.3279"/>
<polygon fill="midnightblue" stroke="midnightblue" points="334.381,-27.6637 343.059,-21.5848 332.485,-20.9256 334.381,-27.6637"/>
</g>
<!-- Node28 -->
<g id="node55" class="node"><title>Node28</title>
<a xlink:href="cvm-hfa-graph_8c.html#aa4c0667cc4f92a08c249041eb8a4ec58" target="_top" xlink:title="This routine is used to free the buffers and change the graph load status after instruction completio...">
<polygon fill="white" stroke="black" points="312.5,-80.5 312.5,-101.5 459.5,-101.5 459.5,-80.5 312.5,-80.5"/>
<text text-anchor="middle" x="386" y="-88.5" font-family="FreeSans" font-size="10.00">__hfa_graph_processstatus</text>
</a>
</g>
<!-- Node23&#45;&gt;Node28 -->
<g id="edge54" class="edge"><title>Node23&#45;&gt;Node28</title>
<path fill="none" stroke="midnightblue" d="M273.08,-77.7153C282.558,-78.8303 292.555,-80.0065 302.525,-81.1795"/>
<polygon fill="midnightblue" stroke="midnightblue" points="302.125,-84.6564 312.466,-82.3489 302.943,-77.7044 302.125,-84.6564"/>
</g>
<!-- Node25 -->
<g id="node49" class="node"><title>Node25</title>
<a xlink:href="cvm-hfa-instr_8h.html#a56f2522dcba965745a1bc239fc432dca" target="_top" xlink:title="Gets done from RWORD0.">
<polygon fill="white" stroke="black" points="500.5,-60.5 500.5,-81.5 623.5,-81.5 623.5,-60.5 500.5,-60.5"/>
<text text-anchor="middle" x="562" y="-68.5" font-family="FreeSans" font-size="10.00">cvm_hfa_rslt_getdone</text>
</a>
</g>
<!-- Node24&#45;&gt;Node25 -->
<g id="edge48" class="edge"><title>Node24&#45;&gt;Node25</title>
<path fill="none" stroke="midnightblue" d="M452.538,-58.5611C464.782,-59.9525 477.616,-61.411 490.012,-62.8196"/>
<polygon fill="midnightblue" stroke="midnightblue" points="489.968,-66.3369 500.299,-63.9885 490.758,-59.3817 489.968,-66.3369"/>
</g>
<!-- Node26 -->
<g id="node51" class="node"><title>Node26</title>
<a xlink:href="cvm-hfa-instr_8h.html#a9700a50b68b6616506528eb725a8bda1" target="_top" xlink:title="Gets reason from RWORD0.">
<polygon fill="white" stroke="black" points="496.5,-20.5 496.5,-41.5 627.5,-41.5 627.5,-20.5 496.5,-20.5"/>
<text text-anchor="middle" x="562" y="-28.5" font-family="FreeSans" font-size="10.00">cvm_hfa_rslt_getreason</text>
</a>
</g>
<!-- Node24&#45;&gt;Node26 -->
<g id="edge50" class="edge"><title>Node24&#45;&gt;Node26</title>
<path fill="none" stroke="midnightblue" d="M452.538,-43.4389C463.494,-42.1939 474.922,-40.8952 486.086,-39.6266"/>
<polygon fill="midnightblue" stroke="midnightblue" points="486.702,-43.0792 496.243,-38.4724 485.912,-36.1239 486.702,-43.0792"/>
</g>
<!-- Node28&#45;&gt;Node11 -->
<g id="edge56" class="edge"><title>Node28&#45;&gt;Node11</title>
<path fill="none" stroke="midnightblue" d="M442.586,-101.524C448.781,-104.036 454.739,-107.147 460,-111 509.633,-147.355 541.297,-215.808 554.675,-249.796"/>
<polygon fill="midnightblue" stroke="midnightblue" points="551.412,-251.062 558.239,-259.163 557.954,-248.572 551.412,-251.062"/>
</g>
</g>
</svg>
        <g id="navigator" transform="translate(0 0)" fill="#404254">
                <rect fill="#f2f5e9" fill-opacity="0.5" stroke="#606060" stroke-width=".5" x="0" y="0" width="60" height="60"/>
                <use id="zoomplus" xlink:href="#zoomPlus" x="17" y="9" onmousedown="handleZoom(evt,'in')"/>
                <use id="zoomminus" xlink:href="#zoomMin" x="42" y="9" onmousedown="handleZoom(evt,'out')"/>
                <use id="reset" xlink:href="#resetDef" x="30" y="36" onmousedown="handleReset()"/>
                <g id="arrowUp" xlink:href="#dirArrow" transform="translate(30 24)" onmousedown="handlePan(0,-1)">
                  <use xlink:href="#rim" fill="#404040">
                        <set attributeName="fill" to="#808080" begin="arrowUp.mouseover" end="arrowUp.mouseout"/>
                  </use>
                  <path fill="none" stroke="white" stroke-width="1.5" d="M0,-3.0v7 M-2.5,-0.5L0,-3.0L2.5,-0.5"/>
                </g>
                <g id="arrowRight" xlink:href="#dirArrow" transform="rotate(90) translate(36 -43)" onmousedown="handlePan(1,0)">
                  <use xlink:href="#rim" fill="#404040">
                        <set attributeName="fill" to="#808080" begin="arrowRight.mouseover" end="arrowRight.mouseout"/>
                  </use>
                  <path fill="none" stroke="white" stroke-width="1.5" d="M0,-3.0v7 M-2.5,-0.5L0,-3.0L2.5,-0.5"/>
                </g>
                <g id="arrowDown" xlink:href="#dirArrow" transform="rotate(180) translate(-30 -48)" onmousedown="handlePan(0,1)">
                  <use xlink:href="#rim" fill="#404040">
                        <set attributeName="fill" to="#808080" begin="arrowDown.mouseover" end="arrowDown.mouseout"/>
                  </use>
                  <path fill="none" stroke="white" stroke-width="1.5" d="M0,-3.0v7 M-2.5,-0.5L0,-3.0L2.5,-0.5"/>
                </g>
                <g id="arrowLeft" xlink:href="#dirArrow" transform="rotate(270) translate(-36 17)" onmousedown="handlePan(-1,0)">
                  <use xlink:href="#rim" fill="#404040">
                        <set attributeName="fill" to="#808080" begin="arrowLeft.mouseover" end="arrowLeft.mouseout"/>
                  </use>
                  <path fill="none" stroke="white" stroke-width="1.5" d="M0,-3.0v7 M-2.5,-0.5L0,-3.0L2.5,-0.5"/>
                </g>
        </g>
        <svg viewBox="0 0 15 15" width="100%" height="30px" preserveAspectRatio="xMaxYMin meet">
         <g id="arrow_out" transform="scale(0.3 0.3)">
          <a xlink:href="cvm-hfa-graph_8c_a60861d15ed5f6bccc42bbde834aa2b32_cgraph_org.svg" target="_base">
           <rect id="button" ry="5" rx="5" y="6" x="6" height="38" width="38"
                fill="#f2f5e9" fill-opacity="0.5" stroke="#606060" stroke-width="1.0"/>
           <path id="arrow"
             d="M 11.500037,31.436501 C 11.940474,20.09759 22.043105,11.32322 32.158766,21.979434 L 37.068811,17.246167 C 37.068811,17.246167 37.088388,32 37.088388,32 L 22.160133,31.978069 C 22.160133,31.978069 26.997745,27.140456 26.997745,27.140456 C 18.528582,18.264221 13.291696,25.230495 11.500037,31.436501 z"
             style="fill:#404040;"/>
          </a>
         </g>
        </svg>
</svg>
