<?xml version="1.0" encoding="UTF-8" standalone="no"?>
<!DOCTYPE svg PUBLIC "-//W3C//DTD SVG 1.1//EN"
 "http://www.w3.org/Graphics/SVG/1.1/DTD/svg11.dtd">
<!-- Generated by graphviz version 2.24.0 (20090616.2323)
 -->
<!-- Title: hfa_searchparam_set_output Pages: 1 -->
<svg width="464pt" height="310pt"
 viewBox="0.00 0.00 464.00 310.00" xmlns="http://www.w3.org/2000/svg" xmlns:xlink="http://www.w3.org/1999/xlink">
<g id="graph1" class="graph" transform="scale(1 1) rotate(0) translate(4 306)">
<title>hfa_searchparam_set_output</title>
<polygon fill="white" stroke="white" points="-4,5 -4,-306 461,-306 461,5 -4,5"/>
<!-- Node1 -->
<g id="node1" class="node"><title>Node1</title>
<polygon fill="#bfbfbf" stroke="black" points="0.5,-114 0.5,-148 121.5,-148 121.5,-114 0.5,-114"/>
<text text-anchor="start" x="8.5" y="-135" font-family="FreeSans" font-size="10.00">hfa_searchparam_set</text>
<text text-anchor="middle" x="61" y="-122" font-family="FreeSans" font-size="10.00">_output</text>
</g>
<!-- Node2 -->
<g id="node3" class="node"><title>Node2</title>
<a xlink:href="hfa-lnx-async_8c.html#a972f8b60ef804914c009c2ef85bac50e" target="_top" xlink:title="Process search for given payload and graph.">
<polygon fill="white" stroke="black" points="158,-240.5 158,-261.5 250,-261.5 250,-240.5 158,-240.5"/>
<text text-anchor="middle" x="204" y="-248.5" font-family="FreeSans" font-size="10.00">process_search</text>
</a>
</g>
<!-- Node1&#45;&gt;Node2 -->
<g id="edge2" class="edge"><title>Node1&#45;&gt;Node2</title>
<path fill="none" stroke="midnightblue" d="M80.5507,-156.137C98.7151,-178.168 127.491,-209.886 158,-231 163.156,-234.568 169.05,-237.711 174.86,-240.386"/>
<polygon fill="midnightblue" stroke="midnightblue" points="83.1422,-153.776 74.1271,-148.21 77.7036,-158.183 83.1422,-153.776"/>
</g>
<!-- Node6 -->
<g id="node12" class="node"><title>Node6</title>
<a xlink:href="hfa-lnx-ctx_8c.html#a1bf8357c95e9c9afcbc15f7f45d349a8" target="_top" xlink:title="get_sparam">
<polygon fill="white" stroke="black" points="167.5,-200.5 167.5,-221.5 240.5,-221.5 240.5,-200.5 167.5,-200.5"/>
<text text-anchor="middle" x="204" y="-208.5" font-family="FreeSans" font-size="10.00">get_sparam</text>
</a>
</g>
<!-- Node1&#45;&gt;Node6 -->
<g id="edge12" class="edge"><title>Node1&#45;&gt;Node6</title>
<path fill="none" stroke="midnightblue" d="M94.9146,-153.646C113.225,-165.442 136.439,-179.719 158,-191 164.327,-194.31 171.321,-197.552 177.904,-200.429"/>
<polygon fill="midnightblue" stroke="midnightblue" points="96.6403,-150.593 86.3483,-148.078 92.8254,-156.462 96.6403,-150.593"/>
</g>
<!-- Node8 -->
<g id="node16" class="node"><title>Node8</title>
<a xlink:href="hfa-lnx-linkgraph_8c.html#a78ffddbcd7cdd164889cfb53ea367886" target="_top" xlink:title="entry">
<polygon fill="white" stroke="black" points="183.5,-160.5 183.5,-181.5 224.5,-181.5 224.5,-160.5 183.5,-160.5"/>
<text text-anchor="middle" x="204" y="-168.5" font-family="FreeSans" font-size="10.00">entry</text>
</a>
</g>
<!-- Node1&#45;&gt;Node8 -->
<g id="edge16" class="edge"><title>Node1&#45;&gt;Node8</title>
<path fill="none" stroke="midnightblue" d="M131.279,-150.658C150.358,-155.995 169.553,-161.365 183.428,-165.246"/>
<polygon fill="midnightblue" stroke="midnightblue" points="132.218,-147.287 121.645,-147.964 130.332,-154.028 132.218,-147.287"/>
</g>
<!-- Node9 -->
<g id="node18" class="node"><title>Node9</title>
<a xlink:href="hfa-lnx-nctx-lock_8c.html#a508e8db841721921a39875f1b628b92c" target="_top" xlink:title="Set search parameters and submit a search instruction to HW.">
<polygon fill="white" stroke="black" points="180,-120.5 180,-141.5 228,-141.5 228,-120.5 180,-120.5"/>
<text text-anchor="middle" x="204" y="-128.5" font-family="FreeSans" font-size="10.00">submit</text>
</a>
</g>
<!-- Node1&#45;&gt;Node9 -->
<g id="edge18" class="edge"><title>Node1&#45;&gt;Node9</title>
<path fill="none" stroke="midnightblue" d="M131.829,-131C149.188,-131 166.6,-131 179.972,-131"/>
<polygon fill="midnightblue" stroke="midnightblue" points="131.645,-127.5 121.645,-131 131.645,-134.5 131.645,-127.5"/>
</g>
<!-- Node11 -->
<g id="node22" class="node"><title>Node11</title>
<a xlink:href="hfa-lnx-wqe-lock_8c.html#a29828fc1776b5cb9f79e7d20fec69927" target="_top" xlink:title="Set search parameters and submit WQE to the HW.">
<polygon fill="white" stroke="black" points="167,-80.5 167,-101.5 241,-101.5 241,-80.5 167,-80.5"/>
<text text-anchor="middle" x="204" y="-88.5" font-family="FreeSans" font-size="10.00">submit_wqe</text>
</a>
</g>
<!-- Node1&#45;&gt;Node11 -->
<g id="edge22" class="edge"><title>Node1&#45;&gt;Node11</title>
<path fill="none" stroke="midnightblue" d="M131.439,-111.297C143.698,-107.868 155.998,-104.427 166.898,-101.378"/>
<polygon fill="midnightblue" stroke="midnightblue" points="130.332,-107.972 121.645,-114.036 132.218,-114.713 130.332,-107.972"/>
</g>
<!-- Node12 -->
<g id="node24" class="node"><title>Node12</title>
<a xlink:href="hfa-se-async_8c.html#a3c04138a5bfe5d72780bb7e82a18e627" target="_top" xlink:title="main">
<polygon fill="white" stroke="black" points="184,-40.5 184,-61.5 224,-61.5 224,-40.5 184,-40.5"/>
<text text-anchor="middle" x="204" y="-48.5" font-family="FreeSans" font-size="10.00">main</text>
</a>
</g>
<!-- Node1&#45;&gt;Node12 -->
<g id="edge24" class="edge"><title>Node1&#45;&gt;Node12</title>
<path fill="none" stroke="midnightblue" d="M94.9146,-108.354C113.225,-96.5578 136.439,-82.2811 158,-71 166.179,-66.7207 175.471,-62.5563 183.553,-59.1452"/>
<polygon fill="midnightblue" stroke="midnightblue" points="92.8254,-105.538 86.3483,-113.922 96.6403,-111.407 92.8254,-105.538"/>
</g>
<!-- Node13 -->
<g id="node26" class="node"><title>Node13</title>
<a xlink:href="hfa-se-flow-wqe_8c.html#a98871b329f369c72a6d033310e1fd576" target="_top" xlink:title="Allocate and set parameters for search.">
<polygon fill="white" stroke="black" points="168,-0.5 168,-21.5 240,-21.5 240,-0.5 168,-0.5"/>
<text text-anchor="middle" x="204" y="-8.5" font-family="FreeSans" font-size="10.00">get_fparam</text>
</a>
</g>
<!-- Node1&#45;&gt;Node13 -->
<g id="edge26" class="edge"><title>Node1&#45;&gt;Node13</title>
<path fill="none" stroke="midnightblue" d="M80.5507,-105.863C98.7151,-83.8315 127.491,-52.1144 158,-31 163.156,-27.4319 169.05,-24.2889 174.86,-21.614"/>
<polygon fill="midnightblue" stroke="midnightblue" points="77.7036,-103.817 74.1271,-113.79 83.1422,-108.224 77.7036,-103.817"/>
</g>
<!-- Node3 -->
<g id="node5" class="node"><title>Node3</title>
<a xlink:href="hfa-lnx-async_8c.html#a1e97b1d598034fdc92d57054a6c386e6" target="_top" xlink:title="tasklet_callback">
<polygon fill="white" stroke="black" points="286,-280.5 286,-301.5 378,-301.5 378,-280.5 286,-280.5"/>
<text text-anchor="middle" x="332" y="-288.5" font-family="FreeSans" font-size="10.00">tasklet_callback</text>
</a>
</g>
<!-- Node2&#45;&gt;Node3 -->
<g id="edge4" class="edge"><title>Node2&#45;&gt;Node3</title>
<path fill="none" stroke="midnightblue" d="M247.607,-264.627C264.123,-269.789 282.663,-275.582 298.15,-280.422"/>
<polygon fill="midnightblue" stroke="midnightblue" points="248.219,-261.152 237.63,-261.51 246.131,-267.833 248.219,-261.152"/>
</g>
<!-- Node5 -->
<g id="node9" class="node"><title>Node5</title>
<a xlink:href="hfa-lnx-async_8c.html#a7dea7d59754828b1173c4c7ec5d42f3e" target="_top" xlink:title="thread_callback">
<polygon fill="white" stroke="black" points="286,-240.5 286,-261.5 378,-261.5 378,-240.5 286,-240.5"/>
<text text-anchor="middle" x="332" y="-248.5" font-family="FreeSans" font-size="10.00">thread_callback</text>
</a>
</g>
<!-- Node2&#45;&gt;Node5 -->
<g id="edge8" class="edge"><title>Node2&#45;&gt;Node5</title>
<path fill="none" stroke="midnightblue" d="M260.442,-251C268.937,-251 277.612,-251 285.857,-251"/>
<polygon fill="midnightblue" stroke="midnightblue" points="260.211,-247.5 250.211,-251 260.211,-254.5 260.211,-247.5"/>
</g>
<!-- Node4 -->
<g id="node7" class="node"><title>Node4</title>
<a xlink:href="hfa-lnx-async_8c.html#a78ffddbcd7cdd164889cfb53ea367886" target="_top" xlink:title="entry">
<polygon fill="white" stroke="black" points="414.5,-260.5 414.5,-281.5 455.5,-281.5 455.5,-260.5 414.5,-260.5"/>
<text text-anchor="middle" x="435" y="-268.5" font-family="FreeSans" font-size="10.00">entry</text>
</a>
</g>
<!-- Node3&#45;&gt;Node4 -->
<g id="edge6" class="edge"><title>Node3&#45;&gt;Node4</title>
<path fill="none" stroke="midnightblue" d="M387.972,-280.132C397.449,-278.292 406.722,-276.491 414.495,-274.982"/>
<polygon fill="midnightblue" stroke="midnightblue" points="387.227,-276.711 378.077,-282.053 388.561,-283.583 387.227,-276.711"/>
</g>
<!-- Node5&#45;&gt;Node4 -->
<g id="edge10" class="edge"><title>Node5&#45;&gt;Node4</title>
<path fill="none" stroke="midnightblue" d="M387.972,-261.868C397.449,-263.708 406.722,-265.509 414.495,-267.018"/>
<polygon fill="midnightblue" stroke="midnightblue" points="388.561,-258.417 378.077,-259.947 387.227,-265.289 388.561,-258.417"/>
</g>
<!-- Node7 -->
<g id="node14" class="node"><title>Node7</title>
<a xlink:href="hfa-lnx-ctx_8c.html#a97df0ba8293c1b8436547946fd9d0d17" target="_top" xlink:title="process_pkt">
<polygon fill="white" stroke="black" points="295,-200.5 295,-221.5 369,-221.5 369,-200.5 295,-200.5"/>
<text text-anchor="middle" x="332" y="-208.5" font-family="FreeSans" font-size="10.00">process_pkt</text>
</a>
</g>
<!-- Node6&#45;&gt;Node7 -->
<g id="edge14" class="edge"><title>Node6&#45;&gt;Node7</title>
<path fill="none" stroke="midnightblue" d="M250.951,-211C265.425,-211 281.154,-211 294.871,-211"/>
<polygon fill="midnightblue" stroke="midnightblue" points="250.68,-207.5 240.68,-211 250.68,-214.5 250.68,-207.5"/>
</g>
<!-- Node10 -->
<g id="node20" class="node"><title>Node10</title>
<a xlink:href="hfa-lnx-nctx-lock_8c.html#a972f8b60ef804914c009c2ef85bac50e" target="_top" xlink:title="Performs search process for each core.">
<polygon fill="white" stroke="black" points="286,-120.5 286,-141.5 378,-141.5 378,-120.5 286,-120.5"/>
<text text-anchor="middle" x="332" y="-128.5" font-family="FreeSans" font-size="10.00">process_search</text>
</a>
</g>
<!-- Node9&#45;&gt;Node10 -->
<g id="edge20" class="edge"><title>Node9&#45;&gt;Node10</title>
<path fill="none" stroke="midnightblue" d="M238.173,-131C252.769,-131 270.031,-131 285.744,-131"/>
<polygon fill="midnightblue" stroke="midnightblue" points="238.076,-127.5 228.076,-131 238.076,-134.5 238.076,-127.5"/>
</g>
</g>
</svg>
