<?xml version="1.0" encoding="UTF-8" standalone="no"?>
<!DOCTYPE svg PUBLIC "-//W3C//DTD SVG 1.1//EN"
 "http://www.w3.org/Graphics/SVG/1.1/DTD/svg11.dtd">
<!-- Generated by graphviz version 2.24.0 (20090616.2323)
 -->
<!-- Title: hfa_searchctx_get_searchstatus Pages: 1 -->
<svg width="518pt" height="70pt"
 viewBox="0.00 0.00 518.00 70.00" xmlns="http://www.w3.org/2000/svg" xmlns:xlink="http://www.w3.org/1999/xlink">
<g id="graph1" class="graph" transform="scale(1 1) rotate(0) translate(4 66)">
<title>hfa_searchctx_get_searchstatus</title>
<polygon fill="white" stroke="white" points="-4,5 -4,-66 515,-66 515,5 -4,5"/>
<!-- Node1 -->
<g id="node1" class="node"><title>Node1</title>
<polygon fill="#bfbfbf" stroke="black" points="0,-20.5 0,-41.5 172,-41.5 172,-20.5 0,-20.5"/>
<text text-anchor="middle" x="86" y="-28.5" font-family="FreeSans" font-size="10.00">hfa_searchctx_get_searchstatus</text>
</g>
<!-- Node2 -->
<g id="node3" class="node"><title>Node2</title>
<a xlink:href="cvm-hfa_8c.html#a4753d2dd586e19676b1a59dd16baaeed" target="_top" xlink:title="Obtain status of submitted insruction.">
<polygon fill="white" stroke="black" points="208.5,-20.5 208.5,-41.5 341.5,-41.5 341.5,-20.5 208.5,-20.5"/>
<text text-anchor="middle" x="275" y="-28.5" font-family="FreeSans" font-size="10.00">hfa_dev_getasyncstatus</text>
</a>
</g>
<!-- Node1&#45;&gt;Node2 -->
<g id="edge2" class="edge"><title>Node1&#45;&gt;Node2</title>
<path fill="none" stroke="midnightblue" d="M172.204,-31C180.951,-31 189.793,-31 198.428,-31"/>
<polygon fill="midnightblue" stroke="midnightblue" points="198.452,-34.5001 208.452,-31 198.452,-27.5001 198.452,-34.5001"/>
</g>
<!-- Node3 -->
<g id="node5" class="node"><title>Node3</title>
<a xlink:href="cvm-hfa-instr_8h.html#a56f2522dcba965745a1bc239fc432dca" target="_top" xlink:title="Gets done from RWORD0.">
<polygon fill="white" stroke="black" points="382.5,-40.5 382.5,-61.5 505.5,-61.5 505.5,-40.5 382.5,-40.5"/>
<text text-anchor="middle" x="444" y="-48.5" font-family="FreeSans" font-size="10.00">cvm_hfa_rslt_getdone</text>
</a>
</g>
<!-- Node2&#45;&gt;Node3 -->
<g id="edge4" class="edge"><title>Node2&#45;&gt;Node3</title>
<path fill="none" stroke="midnightblue" d="M341.793,-38.9045C351.827,-40.0919 362.209,-41.3206 372.339,-42.5194"/>
<polygon fill="midnightblue" stroke="midnightblue" points="372.021,-46.0061 382.363,-43.7057 372.844,-39.0546 372.021,-46.0061"/>
</g>
<!-- Node4 -->
<g id="node7" class="node"><title>Node4</title>
<a xlink:href="cvm-hfa-instr_8h.html#a9700a50b68b6616506528eb725a8bda1" target="_top" xlink:title="Gets reason from RWORD0.">
<polygon fill="white" stroke="black" points="378.5,-0.5 378.5,-21.5 509.5,-21.5 509.5,-0.5 378.5,-0.5"/>
<text text-anchor="middle" x="444" y="-8.5" font-family="FreeSans" font-size="10.00">cvm_hfa_rslt_getreason</text>
</a>
</g>
<!-- Node2&#45;&gt;Node4 -->
<g id="edge6" class="edge"><title>Node2&#45;&gt;Node4</title>
<path fill="none" stroke="midnightblue" d="M341.793,-23.0955C350.414,-22.0753 359.292,-21.0246 368.047,-19.9885"/>
<polygon fill="midnightblue" stroke="midnightblue" points="368.725,-23.4328 378.244,-18.7817 367.902,-16.4813 368.725,-23.4328"/>
</g>
</g>
</svg>
