<?xml version="1.0" encoding="UTF-8" standalone="no"?>
<!DOCTYPE svg PUBLIC "-//W3C//DTD SVG 1.1//EN"
 "http://www.w3.org/Graphics/SVG/1.1/DTD/svg11.dtd">
<!-- Generated by graphviz version 2.24.0 (20090616.2323)
 -->
<!-- Title: hfa_cluster_cleanup Pages: 1 -->
<svg width="302pt" height="70pt"
 viewBox="0.00 0.00 302.00 70.00" xmlns="http://www.w3.org/2000/svg" xmlns:xlink="http://www.w3.org/1999/xlink">
<g id="graph1" class="graph" transform="scale(1 1) rotate(0) translate(4 66)">
<title>hfa_cluster_cleanup</title>
<polygon fill="white" stroke="white" points="-4,5 -4,-66 299,-66 299,5 -4,5"/>
<!-- Node1 -->
<g id="node1" class="node"><title>Node1</title>
<polygon fill="#bfbfbf" stroke="black" points="0.5,-20.5 0.5,-41.5 113.5,-41.5 113.5,-20.5 0.5,-20.5"/>
<text text-anchor="middle" x="57" y="-28.5" font-family="FreeSans" font-size="10.00">hfa_cluster_cleanup</text>
</g>
<!-- Node2 -->
<g id="node3" class="node"><title>Node2</title>
<a xlink:href="cvm-hfa-cluster_8c.html#a5eb9ad880a56c9e7af7891cb994ae9db" target="_top" xlink:title="Counterpart of hfa_cluster_setmem().">
<polygon fill="white" stroke="black" points="153,-40.5 153,-61.5 291,-61.5 291,-40.5 153,-40.5"/>
<text text-anchor="middle" x="222" y="-48.5" font-family="FreeSans" font-size="10.00">hfa_cluster_cleanupmem</text>
</a>
</g>
<!-- Node1&#45;&gt;Node2 -->
<g id="edge2" class="edge"><title>Node1&#45;&gt;Node2</title>
<path fill="none" stroke="midnightblue" d="M113.784,-37.8829C123.124,-39.015 132.953,-40.2064 142.721,-41.3904"/>
<polygon fill="midnightblue" stroke="midnightblue" points="142.508,-44.8901 152.856,-42.6189 143.35,-37.941 142.508,-44.8901"/>
</g>
<!-- Node3 -->
<g id="node5" class="node"><title>Node3</title>
<a xlink:href="cvm-hfa-cluster_8c.html#a6c30dec281084f6e40bf9d98356418bd" target="_top" xlink:title="Frees Cache pool for cluster.">
<polygon fill="white" stroke="black" points="150.5,-0.5 150.5,-21.5 293.5,-21.5 293.5,-0.5 150.5,-0.5"/>
<text text-anchor="middle" x="222" y="-8.5" font-family="FreeSans" font-size="10.00">hfa_cluster_cleanupcache</text>
</a>
</g>
<!-- Node1&#45;&gt;Node3 -->
<g id="edge4" class="edge"><title>Node1&#45;&gt;Node3</title>
<path fill="none" stroke="midnightblue" d="M113.784,-24.1171C122.318,-23.0827 131.26,-21.9988 140.191,-20.9163"/>
<polygon fill="midnightblue" stroke="midnightblue" points="140.741,-24.3753 150.247,-19.6973 139.899,-17.4261 140.741,-24.3753"/>
</g>
</g>
</svg>
