<?xml version="1.0" encoding="UTF-8" standalone="no"?>
<!DOCTYPE svg PUBLIC "-//W3C//DTD SVG 1.1//EN"
 "http://www.w3.org/Graphics/SVG/1.1/DTD/svg11.dtd">
<!-- Generated by graphviz version 2.24.0 (20090616.2323)
 -->
<!-- Title: cvm_hfa_rslt_getdone Pages: 1 -->
<svg width="1400pt" height="814pt"
 viewBox="0.00 0.00 1400.00 814.00" xmlns="http://www.w3.org/2000/svg" xmlns:xlink="http://www.w3.org/1999/xlink">
<g id="graph1" class="graph" transform="scale(1 1) rotate(0) translate(4 810)">
<title>cvm_hfa_rslt_getdone</title>
<polygon fill="white" stroke="white" points="-4,5 -4,-810 1397,-810 1397,5 -4,5"/>
<!-- Node1 -->
<g id="node1" class="node"><title>Node1</title>
<polygon fill="#bfbfbf" stroke="black" points="0.5,-180.5 0.5,-201.5 123.5,-201.5 123.5,-180.5 0.5,-180.5"/>
<text text-anchor="middle" x="62" y="-188.5" font-family="FreeSans" font-size="10.00">cvm_hfa_rslt_getdone</text>
</g>
<!-- Node2 -->
<g id="node3" class="node"><title>Node2</title>
<a xlink:href="cvm-hfa_8c.html#a4753d2dd586e19676b1a59dd16baaeed" target="_top" xlink:title="Obtain status of submitted insruction.">
<polygon fill="white" stroke="black" points="160.5,-180.5 160.5,-201.5 293.5,-201.5 293.5,-180.5 160.5,-180.5"/>
<text text-anchor="middle" x="227" y="-188.5" font-family="FreeSans" font-size="10.00">hfa_dev_getasyncstatus</text>
</a>
</g>
<!-- Node1&#45;&gt;Node2 -->
<g id="edge2" class="edge"><title>Node1&#45;&gt;Node2</title>
<path fill="none" stroke="midnightblue" d="M134.06,-191C142.79,-191 151.678,-191 160.325,-191"/>
<polygon fill="midnightblue" stroke="midnightblue" points="133.909,-187.5 123.909,-191 133.909,-194.5 133.909,-187.5"/>
</g>
<!-- Node3 -->
<g id="node5" class="node"><title>Node3</title>
<a xlink:href="cvm-hfa-graph_8c.html#a0f2f13fb51e5d56dcf049ff3c7c6ad78" target="_top" xlink:title="This routine is used to check the status of the graph.">
<polygon fill="white" stroke="black" points="359,-426.5 359,-447.5 473,-447.5 473,-426.5 359,-426.5"/>
<text text-anchor="middle" x="416" y="-434.5" font-family="FreeSans" font-size="10.00">hfa_graph_getstatus</text>
</a>
</g>
<!-- Node2&#45;&gt;Node3 -->
<g id="edge4" class="edge"><title>Node2&#45;&gt;Node3</title>
<path fill="none" stroke="midnightblue" d="M241.363,-209.695C278.85,-258.487 378.758,-388.526 407.909,-426.469"/>
<polygon fill="midnightblue" stroke="midnightblue" points="243.989,-207.368 235.121,-201.57 238.438,-211.633 243.989,-207.368"/>
</g>
<!-- Node19 -->
<g id="node44" class="node"><title>Node19</title>
<a xlink:href="cvm-hfa-search_8c.html#a6a8e1d7e70e0a10520302df5651e5fc5" target="_top" xlink:title="This routine provides the status of an outstanding pattern search operation initiated using hfa_searc...">
<polygon fill="white" stroke="black" points="330,-180.5 330,-201.5 502,-201.5 502,-180.5 330,-180.5"/>
<text text-anchor="middle" x="416" y="-188.5" font-family="FreeSans" font-size="10.00">hfa_searchctx_get_searchstatus</text>
</a>
</g>
<!-- Node2&#45;&gt;Node19 -->
<g id="edge50" class="edge"><title>Node2&#45;&gt;Node19</title>
<path fill="none" stroke="midnightblue" d="M303.909,-191C312.429,-191 321.147,-191 329.772,-191"/>
<polygon fill="midnightblue" stroke="midnightblue" points="303.634,-187.5 293.634,-191 303.634,-194.5 303.634,-187.5"/>
</g>
<!-- Node46 -->
<g id="node105" class="node"><title>Node46</title>
<a xlink:href="cvm-hfa_8c.html#ae6a7ff220c7ddd04101adbe90631baa9" target="_top" xlink:title="Synchronous instruction submit to HFA hardware Block until submitted instruction completes.">
<polygon fill="white" stroke="black" points="369.5,-140.5 369.5,-161.5 462.5,-161.5 462.5,-140.5 369.5,-140.5"/>
<text text-anchor="middle" x="416" y="-148.5" font-family="FreeSans" font-size="10.00">hfa_dev_submit</text>
</a>
</g>
<!-- Node2&#45;&gt;Node46 -->
<g id="edge118" class="edge"><title>Node2&#45;&gt;Node46</title>
<path fill="none" stroke="midnightblue" d="M286.65,-178.376C313.329,-172.729 344.317,-166.171 369.273,-160.889"/>
<polygon fill="midnightblue" stroke="midnightblue" points="285.716,-174.996 276.658,-180.49 287.166,-181.844 285.716,-174.996"/>
</g>
<!-- Node4 -->
<g id="node7" class="node"><title>Node4</title>
<a xlink:href="app-utils_8c.html#aed95bb72627cff313c596ebcfcd8af61" target="_top" xlink:title="Parse graph into chunks and load graph to HFA memory.">
<polygon fill="white" stroke="black" points="898.5,-433.5 898.5,-454.5 1033.5,-454.5 1033.5,-433.5 898.5,-433.5"/>
<text text-anchor="middle" x="966" y="-441.5" font-family="FreeSans" font-size="10.00">hfautils_download_graph</text>
</a>
</g>
<!-- Node3&#45;&gt;Node4 -->
<g id="edge6" class="edge"><title>Node3&#45;&gt;Node4</title>
<path fill="none" stroke="midnightblue" d="M465.049,-449.911C487.166,-455.094 513.72,-460.442 538,-463 664.857,-476.367 813.83,-463.298 898.354,-453.213"/>
<polygon fill="midnightblue" stroke="midnightblue" points="465.764,-446.483 455.223,-447.551 464.129,-453.29 465.764,-446.483"/>
</g>
<!-- Node5 -->
<g id="node9" class="node"><title>Node5</title>
<a xlink:href="hfa-lnx-async_8c.html#a546f3769e735d4bef0bfab1cba56921c" target="_top" xlink:title="Load graph to HFA memory and cache.">
<polygon fill="white" stroke="black" points="1081.5,-339.5 1081.5,-360.5 1150.5,-360.5 1150.5,-339.5 1081.5,-339.5"/>
<text text-anchor="middle" x="1116" y="-347.5" font-family="FreeSans" font-size="10.00">graph_load</text>
</a>
</g>
<!-- Node3&#45;&gt;Node5 -->
<g id="edge48" class="edge"><title>Node3&#45;&gt;Node5</title>
<path fill="none" stroke="midnightblue" d="M453.86,-422.942C477.683,-414.665 509.254,-404.728 538,-399 741.21,-358.509 991.136,-351.452 1081.42,-350.242"/>
<polygon fill="midnightblue" stroke="midnightblue" points="452.419,-419.739 444.155,-426.37 454.75,-426.339 452.419,-419.739"/>
</g>
<!-- Node8 -->
<g id="node15" class="node"><title>Node8</title>
<a xlink:href="cvm-hfa-graph_8c.html#a647ccf649077cb5170221218ab2cdccf" target="_top" xlink:title="This routine downloads graph data to the HFA engine in a non&#45;blocking manner.">
<polygon fill="white" stroke="black" points="538,-420 538,-454 680,-454 680,-420 538,-420"/>
<text text-anchor="start" x="546" y="-441" font-family="FreeSans" font-size="10.00">hfa_graph_memload_data</text>
<text text-anchor="middle" x="609" y="-428" font-family="FreeSans" font-size="10.00">_async</text>
</a>
</g>
<!-- Node3&#45;&gt;Node8 -->
<g id="edge14" class="edge"><title>Node3&#45;&gt;Node8</title>
<path fill="none" stroke="midnightblue" d="M483.342,-437C501.015,-437 520.128,-437 537.987,-437"/>
<polygon fill="midnightblue" stroke="midnightblue" points="483.123,-433.5 473.123,-437 483.123,-440.5 483.123,-433.5"/>
</g>
<!-- Node9 -->
<g id="node18" class="node"><title>Node9</title>
<a xlink:href="cvm-hfa-graph_8c.html#a9e3f1a4bf2be683265108b5131541e89" target="_top" xlink:title="This routine downloads graph data to the HFA engine in a blocking manner.">
<polygon fill="white" stroke="black" points="718,-394.5 718,-415.5 860,-415.5 860,-394.5 718,-394.5"/>
<text text-anchor="middle" x="789" y="-402.5" font-family="FreeSans" font-size="10.00">hfa_graph_memload_data</text>
</a>
</g>
<!-- Node3&#45;&gt;Node9 -->
<g id="edge22" class="edge"><title>Node3&#45;&gt;Node9</title>
<path fill="none" stroke="midnightblue" d="M465.847,-424.184C487.815,-419.106 514.033,-413.816 538,-411 598.391,-403.906 667.497,-402.761 717.888,-403.189"/>
<polygon fill="midnightblue" stroke="midnightblue" points="465.003,-420.787 456.076,-426.492 466.612,-427.599 465.003,-420.787"/>
</g>
<!-- Node10 -->
<g id="node22" class="node"><title>Node10</title>
<a xlink:href="cvm-hfa-graph_8c.html#a60861d15ed5f6bccc42bbde834aa2b32" target="_top" xlink:title="This routine is used to cacheload a cacheable graph in a blocking manner.">
<polygon fill="white" stroke="black" points="549,-510.5 549,-531.5 669,-531.5 669,-510.5 549,-510.5"/>
<text text-anchor="middle" x="609" y="-518.5" font-family="FreeSans" font-size="10.00">hfa_graph_cacheload</text>
</a>
</g>
<!-- Node3&#45;&gt;Node10 -->
<g id="edge24" class="edge"><title>Node3&#45;&gt;Node10</title>
<path fill="none" stroke="midnightblue" d="M445.066,-452.195C469.523,-464.703 505.595,-482.509 538,-496 550.426,-501.173 564.347,-506.231 576.548,-510.428"/>
<polygon fill="midnightblue" stroke="midnightblue" points="446.469,-448.981 435.975,-447.516 443.265,-455.204 446.469,-448.981"/>
</g>
<!-- Node13 -->
<g id="node29" class="node"><title>Node13</title>
<a xlink:href="cvm-hfa-graph_8c.html#aa4ce7845277b4b3099159bbd7afd5c08" target="_top" xlink:title="This routine is used to cacheunload a cacheload&#39;ed graph in a non&#45;blocking manner.">
<polygon fill="white" stroke="black" points="723,-705.5 723,-726.5 855,-726.5 855,-705.5 723,-705.5"/>
<text text-anchor="middle" x="789" y="-713.5" font-family="FreeSans" font-size="10.00">hfa_graph_cacheunload</text>
</a>
</g>
<!-- Node3&#45;&gt;Node13 -->
<g id="edge32" class="edge"><title>Node3&#45;&gt;Node13</title>
<path fill="none" stroke="midnightblue" d="M424.424,-456.783C440.992,-493.493 481.209,-572.546 538,-618 597.531,-665.648 683.011,-692.349 737.261,-705.461"/>
<polygon fill="midnightblue" stroke="midnightblue" points="427.619,-455.355 420.384,-447.615 421.213,-458.177 427.619,-455.355"/>
</g>
<!-- Node4&#45;&gt;Node5 -->
<g id="edge8" class="edge"><title>Node4&#45;&gt;Node5</title>
<path fill="none" stroke="midnightblue" d="M994.793,-428.654C1007.03,-421.944 1021.36,-413.829 1034,-406 1058.18,-391.026 1085.26,-372.091 1101.45,-360.521"/>
<polygon fill="midnightblue" stroke="midnightblue" points="993.024,-425.633 985.91,-433.484 996.367,-431.782 993.024,-425.633"/>
</g>
<!-- Node7 -->
<g id="node13" class="node"><title>Node7</title>
<a xlink:href="hfa-lnx-ctx_8c.html#a78ffddbcd7cdd164889cfb53ea367886" target="_top" xlink:title="entry">
<polygon fill="white" stroke="black" points="1095.5,-587.5 1095.5,-608.5 1136.5,-608.5 1136.5,-587.5 1095.5,-587.5"/>
<text text-anchor="middle" x="1116" y="-595.5" font-family="FreeSans" font-size="10.00">entry</text>
</a>
</g>
<!-- Node4&#45;&gt;Node7 -->
<g id="edge12" class="edge"><title>Node4&#45;&gt;Node7</title>
<path fill="none" stroke="midnightblue" d="M983.549,-462.017C1015.05,-494.363 1080.28,-561.327 1105.62,-587.341"/>
<polygon fill="midnightblue" stroke="midnightblue" points="985.795,-459.306 976.31,-454.585 980.78,-464.191 985.795,-459.306"/>
</g>
<!-- Node6 -->
<g id="node11" class="node"><title>Node6</title>
<a xlink:href="hfa-lnx-async_8c.html#a78ffddbcd7cdd164889cfb53ea367886" target="_top" xlink:title="entry">
<polygon fill="white" stroke="black" points="1236.5,-319.5 1236.5,-340.5 1277.5,-340.5 1277.5,-319.5 1236.5,-319.5"/>
<text text-anchor="middle" x="1257" y="-327.5" font-family="FreeSans" font-size="10.00">entry</text>
</a>
</g>
<!-- Node5&#45;&gt;Node6 -->
<g id="edge10" class="edge"><title>Node5&#45;&gt;Node6</title>
<path fill="none" stroke="midnightblue" d="M1161,-343.617C1186.36,-340.02 1216.8,-335.703 1236.5,-332.908"/>
<polygon fill="midnightblue" stroke="midnightblue" points="1160.26,-340.186 1150.85,-345.056 1161.25,-347.117 1160.26,-340.186"/>
</g>
<!-- Node8&#45;&gt;Node4 -->
<g id="edge16" class="edge"><title>Node8&#45;&gt;Node4</title>
<path fill="none" stroke="midnightblue" d="M690.661,-438.601C753.51,-439.834 839.33,-441.516 898.366,-442.674"/>
<polygon fill="midnightblue" stroke="midnightblue" points="690.453,-435.097 680.386,-438.4 690.316,-442.095 690.453,-435.097"/>
</g>
<!-- Node8&#45;&gt;Node9 -->
<g id="edge18" class="edge"><title>Node8&#45;&gt;Node9</title>
<path fill="none" stroke="midnightblue" d="M690.23,-422.559C703.515,-420.197 717.057,-417.79 729.683,-415.545"/>
<polygon fill="midnightblue" stroke="midnightblue" points="689.374,-419.156 680.141,-424.353 690.599,-426.048 689.374,-419.156"/>
</g>
<!-- Node9&#45;&gt;Node4 -->
<g id="edge20" class="edge"><title>Node9&#45;&gt;Node4</title>
<path fill="none" stroke="midnightblue" d="M846.894,-417.756C869.929,-422.832 896.119,-428.602 918.063,-433.438"/>
<polygon fill="midnightblue" stroke="midnightblue" points="847.418,-414.288 836.899,-415.554 845.911,-421.124 847.418,-414.288"/>
</g>
<!-- Node10&#45;&gt;Node7 -->
<g id="edge26" class="edge"><title>Node10&#45;&gt;Node7</title>
<path fill="none" stroke="midnightblue" d="M672.949,-533.42C687.105,-536.039 702.045,-538.703 716,-541 860.658,-564.815 1035.72,-587.736 1095.13,-595.35"/>
<polygon fill="midnightblue" stroke="midnightblue" points="673.277,-529.921 662.805,-531.527 671.993,-536.802 673.277,-529.921"/>
</g>
<!-- Node11 -->
<g id="node25" class="node"><title>Node11</title>
<a xlink:href="hfa-lnx-linkgraph_8c.html#a546f3769e735d4bef0bfab1cba56921c" target="_top" xlink:title="Load graph to HFA memory and cache.">
<polygon fill="white" stroke="black" points="754.5,-510.5 754.5,-531.5 823.5,-531.5 823.5,-510.5 754.5,-510.5"/>
<text text-anchor="middle" x="789" y="-518.5" font-family="FreeSans" font-size="10.00">graph_load</text>
</a>
</g>
<!-- Node10&#45;&gt;Node11 -->
<g id="edge28" class="edge"><title>Node10&#45;&gt;Node11</title>
<path fill="none" stroke="midnightblue" d="M679.302,-521C705.054,-521 733.068,-521 754.34,-521"/>
<polygon fill="midnightblue" stroke="midnightblue" points="679.188,-517.5 669.188,-521 679.188,-524.5 679.188,-517.5"/>
</g>
<!-- Node12 -->
<g id="node27" class="node"><title>Node12</title>
<a xlink:href="hfa-lnx-linkgraph_8c.html#a78ffddbcd7cdd164889cfb53ea367886" target="_top" xlink:title="entry">
<polygon fill="white" stroke="black" points="945.5,-375.5 945.5,-396.5 986.5,-396.5 986.5,-375.5 945.5,-375.5"/>
<text text-anchor="middle" x="966" y="-383.5" font-family="FreeSans" font-size="10.00">entry</text>
</a>
</g>
<!-- Node11&#45;&gt;Node12 -->
<g id="edge30" class="edge"><title>Node11&#45;&gt;Node12</title>
<path fill="none" stroke="midnightblue" d="M806.644,-503.09C827.394,-482.57 863.409,-448.612 898,-424 913.096,-413.259 931.51,-403.131 945.366,-396.037"/>
<polygon fill="midnightblue" stroke="midnightblue" points="804.078,-500.707 799.474,-510.249 809.024,-505.66 804.078,-500.707"/>
</g>
<!-- Node13&#45;&gt;Node7 -->
<g id="edge40" class="edge"><title>Node13&#45;&gt;Node7</title>
<path fill="none" stroke="midnightblue" d="M865.419,-724.959C915.99,-727.426 982.265,-723.817 1034,-697 1053.81,-686.729 1092.72,-632.082 1108.79,-608.665"/>
<polygon fill="midnightblue" stroke="midnightblue" points="865.386,-721.451 855.2,-724.368 864.982,-728.439 865.386,-721.451"/>
</g>
<!-- Node14 -->
<g id="node31" class="node"><title>Node14</title>
<a xlink:href="hfa-lnx-async_8c.html#acd9e54f020b77f14d54c200b65423a15" target="_top" xlink:title="Application cleanup will be done by this routine.">
<polygon fill="white" stroke="black" points="939,-744.5 939,-765.5 993,-765.5 993,-744.5 939,-744.5"/>
<text text-anchor="middle" x="966" y="-752.5" font-family="FreeSans" font-size="10.00">cleanup</text>
</a>
</g>
<!-- Node13&#45;&gt;Node14 -->
<g id="edge34" class="edge"><title>Node13&#45;&gt;Node14</title>
<path fill="none" stroke="midnightblue" d="M846.745,-728.724C877.766,-735.559 914.544,-743.662 938.973,-749.045"/>
<polygon fill="midnightblue" stroke="midnightblue" points="847.418,-725.288 836.899,-726.554 845.911,-732.124 847.418,-725.288"/>
</g>
<!-- Node16 -->
<g id="node37" class="node"><title>Node16</title>
<a xlink:href="hfa-lnx-ctx_8c.html#aaf98ef7cdde3a0dfb2e49919de3298b1" target="_top" xlink:title="exit">
<polygon fill="white" stroke="black" points="949.5,-666.5 949.5,-687.5 982.5,-687.5 982.5,-666.5 949.5,-666.5"/>
<text text-anchor="middle" x="966" y="-674.5" font-family="FreeSans" font-size="10.00">exit</text>
</a>
</g>
<!-- Node13&#45;&gt;Node16 -->
<g id="edge42" class="edge"><title>Node13&#45;&gt;Node16</title>
<path fill="none" stroke="midnightblue" d="M846.755,-703.274C882.501,-695.398 925.889,-685.838 949.216,-680.698"/>
<polygon fill="midnightblue" stroke="midnightblue" points="845.911,-699.876 836.899,-705.446 847.418,-706.712 845.911,-699.876"/>
</g>
<!-- Node17 -->
<g id="node39" class="node"><title>Node17</title>
<a xlink:href="hfa-se-ngraphs_8c.html#a546f3769e735d4bef0bfab1cba56921c" target="_top" xlink:title="Load ngraphs into HFA memory and cache.">
<polygon fill="white" stroke="black" points="931.5,-784.5 931.5,-805.5 1000.5,-805.5 1000.5,-784.5 931.5,-784.5"/>
<text text-anchor="middle" x="966" y="-792.5" font-family="FreeSans" font-size="10.00">graph_load</text>
</a>
</g>
<!-- Node13&#45;&gt;Node17 -->
<g id="edge44" class="edge"><title>Node13&#45;&gt;Node17</title>
<path fill="none" stroke="midnightblue" d="M814.402,-731.738C836.028,-744.646 868.235,-762.727 898,-775 908.58,-779.362 920.447,-783.195 931.27,-786.306"/>
<polygon fill="midnightblue" stroke="midnightblue" points="816.189,-728.728 805.819,-726.555 812.57,-734.721 816.189,-728.728"/>
</g>
<!-- Node14&#45;&gt;Node6 -->
<g id="edge36" class="edge"><title>Node14&#45;&gt;Node6</title>
<path fill="none" stroke="midnightblue" d="M1002.4,-741.182C1012.91,-736.603 1024.18,-731.099 1034,-725 1096.98,-685.873 1120.34,-679.34 1162,-618 1226.63,-522.831 1250.14,-380.314 1255.64,-340.603"/>
<polygon fill="midnightblue" stroke="midnightblue" points="1000.89,-738.018 993.03,-745.117 1003.61,-744.472 1000.89,-738.018"/>
</g>
<!-- Node15 -->
<g id="node34" class="node"><title>Node15</title>
<a xlink:href="hfa-lnx-async_8c.html#aaf98ef7cdde3a0dfb2e49919de3298b1" target="_top" xlink:title="exit">
<polygon fill="white" stroke="black" points="1099.5,-744.5 1099.5,-765.5 1132.5,-765.5 1132.5,-744.5 1099.5,-744.5"/>
<text text-anchor="middle" x="1116" y="-752.5" font-family="FreeSans" font-size="10.00">exit</text>
</a>
</g>
<!-- Node14&#45;&gt;Node15 -->
<g id="edge38" class="edge"><title>Node14&#45;&gt;Node15</title>
<path fill="none" stroke="midnightblue" d="M1003.51,-755C1034.24,-755 1076.27,-755 1099.27,-755"/>
<polygon fill="midnightblue" stroke="midnightblue" points="1003.16,-751.5 993.164,-755 1003.16,-758.5 1003.16,-751.5"/>
</g>
<!-- Node18 -->
<g id="node41" class="node"><title>Node18</title>
<a xlink:href="hfa-se-ngraphs_8c.html#a3c04138a5bfe5d72780bb7e82a18e627" target="_top" xlink:title="main">
<polygon fill="white" stroke="black" points="1096,-784.5 1096,-805.5 1136,-805.5 1136,-784.5 1096,-784.5"/>
<text text-anchor="middle" x="1116" y="-792.5" font-family="FreeSans" font-size="10.00">main</text>
</a>
</g>
<!-- Node17&#45;&gt;Node18 -->
<g id="edge46" class="edge"><title>Node17&#45;&gt;Node18</title>
<path fill="none" stroke="midnightblue" d="M1010.83,-795C1039.02,-795 1074.03,-795 1095.69,-795"/>
<polygon fill="midnightblue" stroke="midnightblue" points="1010.79,-791.5 1000.79,-795 1010.79,-798.5 1010.79,-791.5"/>
</g>
<!-- Node20 -->
<g id="node46" class="node"><title>Node20</title>
<a xlink:href="cvm-hfa-search_8c.html#a57d7540278164eb6b6c132be00db0de5" target="_top" xlink:title="This routine performs a pattern search using the given parameters in a blocking manner.">
<polygon fill="white" stroke="black" points="547.5,-278.5 547.5,-299.5 670.5,-299.5 670.5,-278.5 547.5,-278.5"/>
<text text-anchor="middle" x="609" y="-286.5" font-family="FreeSans" font-size="10.00">hfa_searchctx_search</text>
</a>
</g>
<!-- Node19&#45;&gt;Node20 -->
<g id="edge52" class="edge"><title>Node19&#45;&gt;Node20</title>
<path fill="none" stroke="midnightblue" d="M440.098,-207.4C464.15,-223.286 502.536,-247.352 538,-264 549.593,-269.442 562.715,-274.381 574.496,-278.405"/>
<polygon fill="midnightblue" stroke="midnightblue" points="441.879,-204.381 431.617,-201.744 437.995,-210.205 441.879,-204.381"/>
</g>
<!-- Node22 -->
<g id="node51" class="node"><title>Node22</title>
<a xlink:href="flow_8c.html#a696ee2b7ad7078c47242360be84d89bf" target="_top" xlink:title="Counterpart of __hfaf_create_flow.">
<polygon fill="white" stroke="black" points="552.5,-180.5 552.5,-201.5 665.5,-201.5 665.5,-180.5 552.5,-180.5"/>
<text text-anchor="middle" x="609" y="-188.5" font-family="FreeSans" font-size="10.00">__hfaf_destroy_flow</text>
</a>
</g>
<!-- Node19&#45;&gt;Node22 -->
<g id="edge58" class="edge"><title>Node19&#45;&gt;Node22</title>
<path fill="none" stroke="midnightblue" d="M512.105,-191C525.928,-191 539.762,-191 552.472,-191"/>
<polygon fill="midnightblue" stroke="midnightblue" points="512.058,-187.5 502.058,-191 512.058,-194.5 512.058,-187.5"/>
</g>
<!-- Node29 -->
<g id="node65" class="node"><title>Node29</title>
<a xlink:href="flow_8c.html#a2976ab60901b133a56214323fb901663" target="_top" xlink:title="Low level API to poll a flow.">
<polygon fill="white" stroke="black" points="544.5,-90.5 544.5,-111.5 673.5,-111.5 673.5,-90.5 544.5,-90.5"/>
<text text-anchor="middle" x="609" y="-98.5" font-family="FreeSans" font-size="10.00">__hfaf_process_pktflow</text>
</a>
</g>
<!-- Node19&#45;&gt;Node29 -->
<g id="edge72" class="edge"><title>Node19&#45;&gt;Node29</title>
<path fill="none" stroke="midnightblue" d="M490.532,-176.776C494.51,-175.065 498.362,-173.148 502,-171 522.597,-158.842 518.518,-144.875 538,-131 549.336,-122.927 563.179,-116.462 575.621,-111.631"/>
<polygon fill="midnightblue" stroke="midnightblue" points="489.15,-173.558 481.066,-180.407 491.657,-180.093 489.15,-173.558"/>
</g>
<!-- Node34 -->
<g id="node76" class="node"><title>Node34</title>
<a xlink:href="hfa-lnx-async_8c.html#a972f8b60ef804914c009c2ef85bac50e" target="_top" xlink:title="Process search for given payload and graph.">
<polygon fill="white" stroke="black" points="920,-259.5 920,-280.5 1012,-280.5 1012,-259.5 920,-259.5"/>
<text text-anchor="middle" x="966" y="-267.5" font-family="FreeSans" font-size="10.00">process_search</text>
</a>
</g>
<!-- Node19&#45;&gt;Node34 -->
<g id="edge84" class="edge"><title>Node19&#45;&gt;Node34</title>
<path fill="none" stroke="midnightblue" d="M488.351,-203.173C504.669,-205.832 521.919,-208.574 538,-211 676.696,-231.925 841.14,-253.761 919.71,-264.012"/>
<polygon fill="midnightblue" stroke="midnightblue" points="488.764,-199.694 478.33,-201.532 487.633,-206.602 488.764,-199.694"/>
</g>
<!-- Node37 -->
<g id="node84" class="node"><title>Node37</title>
<a xlink:href="hfa-lnx-ctx_8c.html#a630ea21ffa0ae1e09e74fc5add8c2715" target="_top" xlink:title="destroyctx">
<polygon fill="white" stroke="black" points="575.5,-587.5 575.5,-608.5 642.5,-608.5 642.5,-587.5 575.5,-587.5"/>
<text text-anchor="middle" x="609" y="-595.5" font-family="FreeSans" font-size="10.00">destroyctx</text>
</a>
</g>
<!-- Node19&#45;&gt;Node37 -->
<g id="edge94" class="edge"><title>Node19&#45;&gt;Node37</title>
<path fill="none" stroke="midnightblue" d="M424.318,-211.195C440.355,-250.473 476.239,-340.058 502,-417 520.22,-471.418 506.146,-493.266 538,-541 551.337,-560.986 573.866,-577.333 589.971,-587.317"/>
<polygon fill="midnightblue" stroke="midnightblue" points="427.461,-209.634 420.431,-201.708 420.984,-212.289 427.461,-209.634"/>
</g>
<!-- Node40 -->
<g id="node93" class="node"><title>Node40</title>
<a xlink:href="hfa-lnx-ctx_8c.html#a71e1d3d18cc48b90a1ecde583ffb3f7a" target="_top" xlink:title="poll_searchctx">
<polygon fill="white" stroke="black" points="566,-2.5 566,-23.5 652,-23.5 652,-2.5 566,-2.5"/>
<text text-anchor="middle" x="609" y="-10.5" font-family="FreeSans" font-size="10.00">poll_searchctx</text>
</a>
</g>
<!-- Node19&#45;&gt;Node40 -->
<g id="edge106" class="edge"><title>Node19&#45;&gt;Node40</title>
<path fill="none" stroke="midnightblue" d="M497.442,-174.932C499.032,-173.708 500.555,-172.4 502,-171 546.608,-127.801 495.263,-81.0501 538,-36 545.402,-28.1979 555.467,-23.0373 565.691,-19.6254"/>
<polygon fill="midnightblue" stroke="midnightblue" points="495.516,-172.009 489,-180.364 499.303,-177.896 495.516,-172.009"/>
</g>
<!-- Node43 -->
<g id="node99" class="node"><title>Node43</title>
<a xlink:href="hfa-lnx-nctx-lock_8c.html#a48d3743fb7abc7d3c6b68359678e52a1" target="_top" xlink:title="Poll for the pending search instructions in the HW (blocked till instruction completes) and process t...">
<polygon fill="white" stroke="black" points="592.5,-45.5 592.5,-66.5 625.5,-66.5 625.5,-45.5 592.5,-45.5"/>
<text text-anchor="middle" x="609" y="-53.5" font-family="FreeSans" font-size="10.00">poll</text>
</a>
</g>
<!-- Node19&#45;&gt;Node43 -->
<g id="edge112" class="edge"><title>Node19&#45;&gt;Node43</title>
<path fill="none" stroke="midnightblue" d="M496.343,-175.293C498.313,-173.97 500.204,-172.541 502,-171 534.688,-142.938 506.905,-110.817 538,-81 552.903,-66.7093 576.456,-60.5356 592.304,-57.9032"/>
<polygon fill="midnightblue" stroke="midnightblue" points="494.233,-172.466 487.263,-180.446 497.687,-178.554 494.233,-172.466"/>
</g>
<!-- Node45 -->
<g id="node103" class="node"><title>Node45</title>
<a xlink:href="hfa-se-async_8c.html#a3c04138a5bfe5d72780bb7e82a18e627" target="_top" xlink:title="main">
<polygon fill="white" stroke="black" points="589,-140.5 589,-161.5 629,-161.5 629,-140.5 589,-140.5"/>
<text text-anchor="middle" x="609" y="-148.5" font-family="FreeSans" font-size="10.00">main</text>
</a>
</g>
<!-- Node19&#45;&gt;Node45 -->
<g id="edge116" class="edge"><title>Node19&#45;&gt;Node45</title>
<path fill="none" stroke="midnightblue" d="M476.802,-178.398C515.323,-170.415 562.678,-160.6 588.977,-155.15"/>
<polygon fill="midnightblue" stroke="midnightblue" points="475.79,-175.034 466.708,-180.49 477.211,-181.888 475.79,-175.034"/>
</g>
<!-- Node20&#45;&gt;Node12 -->
<g id="edge54" class="edge"><title>Node20&#45;&gt;Node12</title>
<path fill="none" stroke="midnightblue" d="M657.614,-302.209C736.717,-323.702 890.021,-365.356 945.408,-380.405"/>
<polygon fill="midnightblue" stroke="midnightblue" points="658.453,-298.81 647.885,-299.565 656.617,-305.565 658.453,-298.81"/>
</g>
<!-- Node21 -->
<g id="node49" class="node"><title>Node21</title>
<a xlink:href="hfa-se-linkgraph_8c.html#a3c04138a5bfe5d72780bb7e82a18e627" target="_top" xlink:title="main">
<polygon fill="white" stroke="black" points="769,-278.5 769,-299.5 809,-299.5 809,-278.5 769,-278.5"/>
<text text-anchor="middle" x="789" y="-286.5" font-family="FreeSans" font-size="10.00">main</text>
</a>
</g>
<!-- Node20&#45;&gt;Node21 -->
<g id="edge56" class="edge"><title>Node20&#45;&gt;Node21</title>
<path fill="none" stroke="midnightblue" d="M680.864,-289C712.594,-289 747.462,-289 768.794,-289"/>
<polygon fill="midnightblue" stroke="midnightblue" points="680.694,-285.5 670.694,-289 680.694,-292.5 680.694,-285.5"/>
</g>
<!-- Node23 -->
<g id="node53" class="node"><title>Node23</title>
<a xlink:href="flow_8c.html#a93974ea83df979435eb77f3c5d4ab848" target="_top" xlink:title="Cleanup Flowdb Node (Per Index)">
<polygon fill="white" stroke="black" points="716,-120.5 716,-141.5 862,-141.5 862,-120.5 716,-120.5"/>
<text text-anchor="middle" x="789" y="-128.5" font-family="FreeSans" font-size="10.00">hfaf_flowdb_node_cleanup</text>
</a>
</g>
<!-- Node22&#45;&gt;Node23 -->
<g id="edge60" class="edge"><title>Node22&#45;&gt;Node23</title>
<path fill="none" stroke="midnightblue" d="M662.661,-177.331C668.579,-175.397 674.463,-173.282 680,-171 696.923,-164.027 699.052,-157.912 716,-151 724.761,-147.427 734.368,-144.282 743.652,-141.606"/>
<polygon fill="midnightblue" stroke="midnightblue" points="661.238,-174.107 652.722,-180.411 663.31,-180.794 661.238,-174.107"/>
</g>
<!-- Node26 -->
<g id="node59" class="node"><title>Node26</title>
<a xlink:href="flow_8h.html#abdb62c6f71f5ca9ecddc66c90166d37b" target="_top" xlink:title="Create Packet Flow in Flowdb.">
<polygon fill="white" stroke="black" points="733.5,-200.5 733.5,-221.5 844.5,-221.5 844.5,-200.5 733.5,-200.5"/>
<text text-anchor="middle" x="789" y="-208.5" font-family="FreeSans" font-size="10.00">hfaf_create_pktflow</text>
</a>
</g>
<!-- Node22&#45;&gt;Node26 -->
<g id="edge66" class="edge"><title>Node22&#45;&gt;Node26</title>
<path fill="none" stroke="midnightblue" d="M675.974,-198.442C694.86,-200.54 715.196,-202.8 733.341,-204.816"/>
<polygon fill="midnightblue" stroke="midnightblue" points="676.279,-194.954 665.953,-197.328 675.505,-201.911 676.279,-194.954"/>
</g>
<!-- Node28 -->
<g id="node63" class="node"><title>Node28</title>
<a xlink:href="flow_8h.html#a8d99fe33dc3203530d360196cc7decb4" target="_top" xlink:title="Counterpart of hfaf_create_pktflow().">
<polygon fill="white" stroke="black" points="731,-160.5 731,-181.5 847,-181.5 847,-160.5 731,-160.5"/>
<text text-anchor="middle" x="789" y="-168.5" font-family="FreeSans" font-size="10.00">hfaf_destroy_pktflow</text>
</a>
</g>
<!-- Node22&#45;&gt;Node28 -->
<g id="edge70" class="edge"><title>Node22&#45;&gt;Node28</title>
<path fill="none" stroke="midnightblue" d="M676.087,-183.546C694.088,-181.546 713.399,-179.4 730.87,-177.459"/>
<polygon fill="midnightblue" stroke="midnightblue" points="675.505,-180.089 665.953,-184.672 676.279,-187.046 675.505,-180.089"/>
</g>
<!-- Node24 -->
<g id="node55" class="node"><title>Node24</title>
<a xlink:href="flow_8h.html#a2a51025bf645e4e1eec8cac2b4f8a8c0" target="_top" xlink:title="Cleanups Flow database which was created in hfaf_flowdb_init()">
<polygon fill="white" stroke="black" points="1198.5,-120.5 1198.5,-141.5 1315.5,-141.5 1315.5,-120.5 1198.5,-120.5"/>
<text text-anchor="middle" x="1257" y="-128.5" font-family="FreeSans" font-size="10.00">hfaf_flowdb_cleanup</text>
</a>
</g>
<!-- Node23&#45;&gt;Node24 -->
<g id="edge62" class="edge"><title>Node23&#45;&gt;Node24</title>
<path fill="none" stroke="midnightblue" d="M872.15,-131C965.967,-131 1116.17,-131 1198.44,-131"/>
<polygon fill="midnightblue" stroke="midnightblue" points="872.125,-127.5 862.125,-131 872.125,-134.5 872.125,-127.5"/>
</g>
<!-- Node25 -->
<g id="node57" class="node"><title>Node25</title>
<a xlink:href="hfa-se-flow-wqe_8c.html#a3c04138a5bfe5d72780bb7e82a18e627" target="_top" xlink:title="Implementation.">
<polygon fill="white" stroke="black" points="1352,-100.5 1352,-121.5 1392,-121.5 1392,-100.5 1352,-100.5"/>
<text text-anchor="middle" x="1372" y="-108.5" font-family="FreeSans" font-size="10.00">main</text>
</a>
</g>
<!-- Node24&#45;&gt;Node25 -->
<g id="edge64" class="edge"><title>Node24&#45;&gt;Node25</title>
<path fill="none" stroke="midnightblue" d="M1325.58,-119.073C1335.14,-117.411 1344.27,-115.823 1351.87,-114.501"/>
<polygon fill="midnightblue" stroke="midnightblue" points="1324.76,-115.662 1315.51,-120.824 1325.96,-122.559 1324.76,-115.662"/>
</g>
<!-- Node27 -->
<g id="node61" class="node"><title>Node27</title>
<a xlink:href="hfa-se-flow-wqe_8c.html#a6d3e23d8f7a3aaf1b0d6e350b7631a0e" target="_top" xlink:title="Get flow pointer from Flow database, If flow ptr is NULL then create at runtime.">
<polygon fill="white" stroke="black" points="931.5,-200.5 931.5,-221.5 1000.5,-221.5 1000.5,-200.5 931.5,-200.5"/>
<text text-anchor="middle" x="966" y="-208.5" font-family="FreeSans" font-size="10.00">get_flowptr</text>
</a>
</g>
<!-- Node26&#45;&gt;Node27 -->
<g id="edge68" class="edge"><title>Node26&#45;&gt;Node27</title>
<path fill="none" stroke="midnightblue" d="M854.693,-211C880.674,-211 909.469,-211 931.261,-211"/>
<polygon fill="midnightblue" stroke="midnightblue" points="854.518,-207.5 844.518,-211 854.518,-214.5 854.518,-207.5"/>
</g>
<!-- Node30 -->
<g id="node67" class="node"><title>Node30</title>
<a xlink:href="flow_8h.html#ab1b3378af88a440a6c3c0851be942e65" target="_top" xlink:title="All submitted search parameters in Paramlist of flow are polled If low level API __hfaf_process_pktfl...">
<polygon fill="white" stroke="black" points="729.5,-80.5 729.5,-101.5 848.5,-101.5 848.5,-80.5 729.5,-80.5"/>
<text text-anchor="middle" x="789" y="-88.5" font-family="FreeSans" font-size="10.00">hfaf_process_pktflow</text>
</a>
</g>
<!-- Node29&#45;&gt;Node30 -->
<g id="edge74" class="edge"><title>Node29&#45;&gt;Node30</title>
<path fill="none" stroke="midnightblue" d="M684.07,-96.8294C699.171,-95.9905 714.849,-95.1195 729.338,-94.3146"/>
<polygon fill="midnightblue" stroke="midnightblue" points="683.52,-93.3545 673.73,-97.4039 683.909,-100.344 683.52,-93.3545"/>
</g>
<!-- Node31 -->
<g id="node69" class="node"><title>Node31</title>
<a xlink:href="hfa-se-flow_8c.html#a2d83c733eacd7afc955c3af18edcb52a" target="_top" xlink:title="Polls for a submitted search instruction of a flow.">
<polygon fill="white" stroke="black" points="923.5,-80.5 923.5,-101.5 1008.5,-101.5 1008.5,-80.5 923.5,-80.5"/>
<text text-anchor="middle" x="966" y="-88.5" font-family="FreeSans" font-size="10.00">__processflow</text>
</a>
</g>
<!-- Node30&#45;&gt;Node31 -->
<g id="edge76" class="edge"><title>Node30&#45;&gt;Node31</title>
<path fill="none" stroke="midnightblue" d="M859.122,-91C880.878,-91 904.185,-91 923.463,-91"/>
<polygon fill="midnightblue" stroke="midnightblue" points="858.924,-87.5001 848.924,-91 858.924,-94.5001 858.924,-87.5001"/>
</g>
<!-- Node32 -->
<g id="node71" class="node"><title>Node32</title>
<a xlink:href="hfa-se-flow_8c.html#a786591694a8f8fb46cedbc8a580c88f6" target="_top" xlink:title="Submitting or Polling flows from the software recently used cache IF Cache is empty, it tries to refill it.">
<polygon fill="white" stroke="black" points="1084.5,-80.5 1084.5,-101.5 1147.5,-101.5 1147.5,-80.5 1084.5,-80.5"/>
<text text-anchor="middle" x="1116" y="-88.5" font-family="FreeSans" font-size="10.00">do_cache</text>
</a>
</g>
<!-- Node31&#45;&gt;Node32 -->
<g id="edge78" class="edge"><title>Node31&#45;&gt;Node32</title>
<path fill="none" stroke="midnightblue" d="M1018.73,-91C1040.61,-91 1065.27,-91 1084.29,-91"/>
<polygon fill="midnightblue" stroke="midnightblue" points="1018.58,-87.5001 1008.58,-91 1018.58,-94.5001 1018.58,-87.5001"/>
</g>
<!-- Node33 -->
<g id="node73" class="node"><title>Node33</title>
<a xlink:href="hfa-se-flow_8c.html#aba72a61590283e37ffd78b4defd38220" target="_top" xlink:title="Receive network packets and process.">
<polygon fill="white" stroke="black" points="1209,-80.5 1209,-101.5 1305,-101.5 1305,-80.5 1209,-80.5"/>
<text text-anchor="middle" x="1257" y="-88.5" font-family="FreeSans" font-size="10.00">process_packets</text>
</a>
</g>
<!-- Node32&#45;&gt;Node33 -->
<g id="edge80" class="edge"><title>Node32&#45;&gt;Node33</title>
<path fill="none" stroke="midnightblue" d="M1157.79,-91C1173.83,-91 1192.25,-91 1208.84,-91"/>
<polygon fill="midnightblue" stroke="midnightblue" points="1157.64,-87.5001 1147.64,-91 1157.64,-94.5001 1157.64,-87.5001"/>
</g>
<!-- Node33&#45;&gt;Node25 -->
<g id="edge82" class="edge"><title>Node33&#45;&gt;Node25</title>
<path fill="none" stroke="midnightblue" d="M1315.16,-101.115C1328.37,-103.412 1341.52,-105.7 1351.85,-107.496"/>
<polygon fill="midnightblue" stroke="midnightblue" points="1315.56,-97.6312 1305.1,-99.3659 1314.36,-104.528 1315.56,-97.6312"/>
</g>
<!-- Node35 -->
<g id="node78" class="node"><title>Node35</title>
<a xlink:href="hfa-lnx-async_8c.html#a1e97b1d598034fdc92d57054a6c386e6" target="_top" xlink:title="tasklet_callback">
<polygon fill="white" stroke="black" points="1070,-299.5 1070,-320.5 1162,-320.5 1162,-299.5 1070,-299.5"/>
<text text-anchor="middle" x="1116" y="-307.5" font-family="FreeSans" font-size="10.00">tasklet_callback</text>
</a>
</g>
<!-- Node34&#45;&gt;Node35 -->
<g id="edge86" class="edge"><title>Node34&#45;&gt;Node35</title>
<path fill="none" stroke="midnightblue" d="M1015.23,-283.129C1035.14,-288.438 1057.81,-294.482 1076.59,-299.491"/>
<polygon fill="midnightblue" stroke="midnightblue" points="1015.97,-279.704 1005.41,-280.51 1014.17,-286.468 1015.97,-279.704"/>
</g>
<!-- Node36 -->
<g id="node81" class="node"><title>Node36</title>
<a xlink:href="hfa-lnx-async_8c.html#a7dea7d59754828b1173c4c7ec5d42f3e" target="_top" xlink:title="thread_callback">
<polygon fill="white" stroke="black" points="1070,-259.5 1070,-280.5 1162,-280.5 1162,-259.5 1070,-259.5"/>
<text text-anchor="middle" x="1116" y="-267.5" font-family="FreeSans" font-size="10.00">thread_callback</text>
</a>
</g>
<!-- Node34&#45;&gt;Node36 -->
<g id="edge90" class="edge"><title>Node34&#45;&gt;Node36</title>
<path fill="none" stroke="midnightblue" d="M1022.34,-270C1038.04,-270 1054.9,-270 1069.92,-270"/>
<polygon fill="midnightblue" stroke="midnightblue" points="1022.23,-266.5 1012.23,-270 1022.23,-273.5 1022.23,-266.5"/>
</g>
<!-- Node35&#45;&gt;Node6 -->
<g id="edge88" class="edge"><title>Node35&#45;&gt;Node6</title>
<path fill="none" stroke="midnightblue" d="M1172.37,-317.995C1194.94,-321.198 1219.54,-324.686 1236.37,-327.073"/>
<polygon fill="midnightblue" stroke="midnightblue" points="1172.56,-314.488 1162.17,-316.549 1171.58,-321.419 1172.56,-314.488"/>
</g>
<!-- Node36&#45;&gt;Node6 -->
<g id="edge92" class="edge"><title>Node36&#45;&gt;Node6</title>
<path fill="none" stroke="midnightblue" d="M1150.33,-284.61C1177.29,-296.08 1213.92,-311.668 1236.48,-321.269"/>
<polygon fill="midnightblue" stroke="midnightblue" points="1151.46,-281.284 1140.88,-280.589 1148.71,-287.725 1151.46,-281.284"/>
</g>
<!-- Node37&#45;&gt;Node7 -->
<g id="edge96" class="edge"><title>Node37&#45;&gt;Node7</title>
<path fill="none" stroke="midnightblue" d="M652.891,-598C757.739,-598 1019.66,-598 1095.27,-598"/>
<polygon fill="midnightblue" stroke="midnightblue" points="652.658,-594.5 642.658,-598 652.658,-601.5 652.658,-594.5"/>
</g>
<!-- Node38 -->
<g id="node87" class="node"><title>Node38</title>
<a xlink:href="hfa-lnx-ctx_8c.html#a3c1f07835ef5be8d3adfbaf09af5ca28" target="_top" xlink:title="core_exit">
<polygon fill="white" stroke="black" points="759,-626.5 759,-647.5 819,-647.5 819,-626.5 759,-626.5"/>
<text text-anchor="middle" x="789" y="-634.5" font-family="FreeSans" font-size="10.00">core_exit</text>
</a>
</g>
<!-- Node37&#45;&gt;Node38 -->
<g id="edge98" class="edge"><title>Node37&#45;&gt;Node38</title>
<path fill="none" stroke="midnightblue" d="M652.675,-607.463C685.581,-614.593 729.846,-624.183 758.885,-630.475"/>
<polygon fill="midnightblue" stroke="midnightblue" points="653.371,-604.033 642.857,-605.336 651.889,-610.874 653.371,-604.033"/>
</g>
<!-- Node38&#45;&gt;Node16 -->
<g id="edge104" class="edge"><title>Node38&#45;&gt;Node16</title>
<path fill="none" stroke="midnightblue" d="M829.213,-646.088C867.057,-654.64 921.88,-667.029 949.204,-673.204"/>
<polygon fill="midnightblue" stroke="midnightblue" points="829.551,-642.576 819.026,-643.785 828.008,-649.404 829.551,-642.576"/>
</g>
<!-- Node39 -->
<g id="node89" class="node"><title>Node39</title>
<a xlink:href="hfa-lnx-ctx_8c.html#a4c3443f524b4c0d95639694f0b74e850" target="_top" xlink:title="Process command line options, Read graph and payload.">
<polygon fill="white" stroke="black" points="919,-626.5 919,-647.5 1013,-647.5 1013,-626.5 919,-626.5"/>
<text text-anchor="middle" x="966" y="-634.5" font-family="FreeSans" font-size="10.00">process_options</text>
</a>
</g>
<!-- Node38&#45;&gt;Node39 -->
<g id="edge100" class="edge"><title>Node38&#45;&gt;Node39</title>
<path fill="none" stroke="midnightblue" d="M829.149,-637C855.779,-637 890.836,-637 918.802,-637"/>
<polygon fill="midnightblue" stroke="midnightblue" points="829.026,-633.5 819.026,-637 829.026,-640.5 829.026,-633.5"/>
</g>
<!-- Node39&#45;&gt;Node7 -->
<g id="edge102" class="edge"><title>Node39&#45;&gt;Node7</title>
<path fill="none" stroke="midnightblue" d="M1016.62,-623.839C1043.46,-616.86 1074.98,-608.665 1095.21,-603.406"/>
<polygon fill="midnightblue" stroke="midnightblue" points="1015.39,-620.542 1006.59,-626.446 1017.15,-627.317 1015.39,-620.542"/>
</g>
<!-- Node41 -->
<g id="node95" class="node"><title>Node41</title>
<a xlink:href="hfa-lnx-ctx_8c.html#a934a9fc08c4aab25d6f0d861e4a4f762" target="_top" xlink:title="poll">
<polygon fill="white" stroke="black" points="772.5,-0.5 772.5,-21.5 805.5,-21.5 805.5,-0.5 772.5,-0.5"/>
<text text-anchor="middle" x="789" y="-8.5" font-family="FreeSans" font-size="10.00">poll</text>
</a>
</g>
<!-- Node40&#45;&gt;Node41 -->
<g id="edge108" class="edge"><title>Node40&#45;&gt;Node41</title>
<path fill="none" stroke="midnightblue" d="M662.36,-12.4071C699.738,-11.9918 747.283,-11.4635 772.133,-11.1874"/>
<polygon fill="midnightblue" stroke="midnightblue" points="662.075,-8.90997 652.114,-12.521 662.153,-15.9095 662.075,-8.90997"/>
</g>
<!-- Node42 -->
<g id="node97" class="node"><title>Node42</title>
<a xlink:href="hfa-lnx-ctx_8c.html#a97df0ba8293c1b8436547946fd9d0d17" target="_top" xlink:title="process_pkt">
<polygon fill="white" stroke="black" points="929,-0.5 929,-21.5 1003,-21.5 1003,-0.5 929,-0.5"/>
<text text-anchor="middle" x="966" y="-8.5" font-family="FreeSans" font-size="10.00">process_pkt</text>
</a>
</g>
<!-- Node41&#45;&gt;Node42 -->
<g id="edge110" class="edge"><title>Node41&#45;&gt;Node42</title>
<path fill="none" stroke="midnightblue" d="M815.844,-11C846.017,-11 895.194,-11 928.998,-11"/>
<polygon fill="midnightblue" stroke="midnightblue" points="815.652,-7.5001 805.652,-11 815.652,-14.5001 815.652,-7.5001"/>
</g>
<!-- Node44 -->
<g id="node101" class="node"><title>Node44</title>
<a xlink:href="hfa-lnx-nctx-lock_8c.html#a972f8b60ef804914c009c2ef85bac50e" target="_top" xlink:title="Performs search process for each core.">
<polygon fill="white" stroke="black" points="743,-40.5 743,-61.5 835,-61.5 835,-40.5 743,-40.5"/>
<text text-anchor="middle" x="789" y="-48.5" font-family="FreeSans" font-size="10.00">process_search</text>
</a>
</g>
<!-- Node43&#45;&gt;Node44 -->
<g id="edge114" class="edge"><title>Node43&#45;&gt;Node44</title>
<path fill="none" stroke="midnightblue" d="M635.889,-55.2531C664.067,-54.4704 708.86,-53.2261 742.733,-52.2852"/>
<polygon fill="midnightblue" stroke="midnightblue" points="635.51,-51.7622 625.611,-55.5386 635.705,-58.7595 635.51,-51.7622"/>
</g>
</g>
</svg>
