<?xml version="1.0" encoding="UTF-8" standalone="no"?>
<!DOCTYPE svg PUBLIC "-//W3C//DTD SVG 1.1//EN"
 "http://www.w3.org/Graphics/SVG/1.1/DTD/svg11.dtd">
<!-- Generated by graphviz version 2.24.0 (20090616.2323)
 -->
<!-- Title: hfa_searchctx_ppstats_print Pages: 1 -->
<svg width="284pt" height="42pt"
 viewBox="0.00 0.00 284.00 42.00" xmlns="http://www.w3.org/2000/svg" xmlns:xlink="http://www.w3.org/1999/xlink">
<g id="graph1" class="graph" transform="scale(1 1) rotate(0) translate(4 38)">
<title>hfa_searchctx_ppstats_print</title>
<polygon fill="white" stroke="white" points="-4,5 -4,-38 281,-38 281,5 -4,5"/>
<!-- Node1 -->
<g id="node1" class="node"><title>Node1</title>
<polygon fill="#bfbfbf" stroke="black" points="0.5,-0 0.5,-34 125.5,-34 125.5,-0 0.5,-0"/>
<text text-anchor="start" x="8.5" y="-21" font-family="FreeSans" font-size="10.00">hfa_searchctx_ppstats</text>
<text text-anchor="middle" x="63" y="-8" font-family="FreeSans" font-size="10.00">_print</text>
</g>
<!-- Node2 -->
<g id="node3" class="node"><title>Node2</title>
<a xlink:href="cvm-hfa-stats_8h.html#a957f886c7087bce4eb7045c31e34add2" target="_top" xlink:title="This routine prints search context statistics.">
<polygon fill="white" stroke="black" points="162.5,-0 162.5,-34 275.5,-34 275.5,-0 162.5,-0"/>
<text text-anchor="start" x="170.5" y="-21" font-family="FreeSans" font-size="10.00">hfa_searchctx_stats</text>
<text text-anchor="middle" x="219" y="-8" font-family="FreeSans" font-size="10.00">_print</text>
</a>
</g>
<!-- Node1&#45;&gt;Node2 -->
<g id="edge2" class="edge"><title>Node1&#45;&gt;Node2</title>
<path fill="none" stroke="midnightblue" d="M135.657,-17C144.667,-17 153.771,-17 162.487,-17"/>
<polygon fill="midnightblue" stroke="midnightblue" points="135.552,-13.5001 125.552,-17 135.552,-20.5001 135.552,-13.5001"/>
</g>
</g>
</svg>
