<?xml version="1.0" encoding="UTF-8" standalone="no"?>
<!DOCTYPE svg PUBLIC "-//W3C//DTD SVG 1.1//EN"
 "http://www.w3.org/Graphics/SVG/1.1/DTD/svg11.dtd">
<!-- Generated by graphviz version 2.24.0 (20090616.2323)
 -->
<!-- Title: cvm_hfa_instr_setf4 Pages: 1 -->
<svg width="618pt" height="110pt"
 viewBox="0.00 0.00 618.00 110.00" xmlns="http://www.w3.org/2000/svg" xmlns:xlink="http://www.w3.org/1999/xlink">
<g id="graph1" class="graph" transform="scale(1 1) rotate(0) translate(4 106)">
<title>cvm_hfa_instr_setf4</title>
<polygon fill="white" stroke="white" points="-4,5 -4,-106 615,-106 615,5 -4,5"/>
<!-- Node1 -->
<g id="node1" class="node"><title>Node1</title>
<polygon fill="#bfbfbf" stroke="black" points="0,-20.5 0,-41.5 114,-41.5 114,-20.5 0,-20.5"/>
<text text-anchor="middle" x="57" y="-28.5" font-family="FreeSans" font-size="10.00">cvm_hfa_instr_setf4</text>
</g>
<!-- Node2 -->
<g id="node3" class="node"><title>Node2</title>
<a xlink:href="cvm-hfa-graph_8c.html#aa296e0c6b36b3d5b4f8e01c2fe765bed" target="_top" xlink:title="This routine is used to cacheload a cacheable graph in a non&#45;blocking manner.">
<polygon fill="white" stroke="black" points="150,-14 150,-48 270,-48 270,-14 150,-14"/>
<text text-anchor="start" x="158" y="-35" font-family="FreeSans" font-size="10.00">hfa_graph_cacheload</text>
<text text-anchor="middle" x="210" y="-22" font-family="FreeSans" font-size="10.00">_async</text>
</a>
</g>
<!-- Node1&#45;&gt;Node2 -->
<g id="edge2" class="edge"><title>Node1&#45;&gt;Node2</title>
<path fill="none" stroke="midnightblue" d="M124.61,-31C133.057,-31 141.651,-31 149.972,-31"/>
<polygon fill="midnightblue" stroke="midnightblue" points="124.407,-27.5001 114.407,-31 124.407,-34.5001 124.407,-27.5001"/>
</g>
<!-- Node3 -->
<g id="node5" class="node"><title>Node3</title>
<a xlink:href="cvm-hfa-graph_8c.html#a60861d15ed5f6bccc42bbde834aa2b32" target="_top" xlink:title="This routine is used to cacheload a cacheable graph in a blocking manner.">
<polygon fill="white" stroke="black" points="306,-40.5 306,-61.5 426,-61.5 426,-40.5 306,-40.5"/>
<text text-anchor="middle" x="366" y="-48.5" font-family="FreeSans" font-size="10.00">hfa_graph_cacheload</text>
</a>
</g>
<!-- Node2&#45;&gt;Node3 -->
<g id="edge4" class="edge"><title>Node2&#45;&gt;Node3</title>
<path fill="none" stroke="midnightblue" d="M280.259,-40.0076C288.802,-41.1028 297.469,-42.214 305.847,-43.288"/>
<polygon fill="midnightblue" stroke="midnightblue" points="280.678,-36.5327 270.314,-38.7325 279.787,-43.4758 280.678,-36.5327"/>
</g>
<!-- Node7 -->
<g id="node13" class="node"><title>Node7</title>
<a xlink:href="hfa-lnx-async_8c.html#a546f3769e735d4bef0bfab1cba56921c" target="_top" xlink:title="Load graph to HFA memory and cache.">
<polygon fill="white" stroke="black" points="331.5,-0.5 331.5,-21.5 400.5,-21.5 400.5,-0.5 331.5,-0.5"/>
<text text-anchor="middle" x="366" y="-8.5" font-family="FreeSans" font-size="10.00">graph_load</text>
</a>
</g>
<!-- Node2&#45;&gt;Node7 -->
<g id="edge12" class="edge"><title>Node2&#45;&gt;Node7</title>
<path fill="none" stroke="midnightblue" d="M280.554,-21.9546C298.093,-19.706 316.138,-17.3925 331.1,-15.4744"/>
<polygon fill="midnightblue" stroke="midnightblue" points="279.787,-18.5242 270.314,-23.2675 280.678,-25.4673 279.787,-18.5242"/>
</g>
<!-- Node4 -->
<g id="node7" class="node"><title>Node4</title>
<a xlink:href="hfa-lnx-ctx_8c.html#a78ffddbcd7cdd164889cfb53ea367886" target="_top" xlink:title="entry">
<polygon fill="white" stroke="black" points="476.5,-80.5 476.5,-101.5 517.5,-101.5 517.5,-80.5 476.5,-80.5"/>
<text text-anchor="middle" x="497" y="-88.5" font-family="FreeSans" font-size="10.00">entry</text>
</a>
</g>
<!-- Node3&#45;&gt;Node4 -->
<g id="edge6" class="edge"><title>Node3&#45;&gt;Node4</title>
<path fill="none" stroke="midnightblue" d="M410.066,-64.4554C432.441,-71.2875 458.567,-79.2647 476.292,-84.6771"/>
<polygon fill="midnightblue" stroke="midnightblue" points="411.005,-61.0825 400.419,-61.5095 408.961,-67.7774 411.005,-61.0825"/>
</g>
<!-- Node5 -->
<g id="node9" class="node"><title>Node5</title>
<a xlink:href="hfa-lnx-linkgraph_8c.html#a546f3769e735d4bef0bfab1cba56921c" target="_top" xlink:title="Load graph to HFA memory and cache.">
<polygon fill="white" stroke="black" points="462.5,-40.5 462.5,-61.5 531.5,-61.5 531.5,-40.5 462.5,-40.5"/>
<text text-anchor="middle" x="497" y="-48.5" font-family="FreeSans" font-size="10.00">graph_load</text>
</a>
</g>
<!-- Node3&#45;&gt;Node5 -->
<g id="edge8" class="edge"><title>Node3&#45;&gt;Node5</title>
<path fill="none" stroke="midnightblue" d="M436.306,-51C445.303,-51 454.179,-51 462.249,-51"/>
<polygon fill="midnightblue" stroke="midnightblue" points="436.132,-47.5001 426.132,-51 436.132,-54.5001 436.132,-47.5001"/>
</g>
<!-- Node6 -->
<g id="node11" class="node"><title>Node6</title>
<a xlink:href="hfa-lnx-linkgraph_8c.html#a78ffddbcd7cdd164889cfb53ea367886" target="_top" xlink:title="entry">
<polygon fill="white" stroke="black" points="568.5,-40.5 568.5,-61.5 609.5,-61.5 609.5,-40.5 568.5,-40.5"/>
<text text-anchor="middle" x="589" y="-48.5" font-family="FreeSans" font-size="10.00">entry</text>
</a>
</g>
<!-- Node5&#45;&gt;Node6 -->
<g id="edge10" class="edge"><title>Node5&#45;&gt;Node6</title>
<path fill="none" stroke="midnightblue" d="M541.612,-51C551.01,-51 560.485,-51 568.466,-51"/>
<polygon fill="midnightblue" stroke="midnightblue" points="541.519,-47.5001 531.519,-51 541.519,-54.5001 541.519,-47.5001"/>
</g>
<!-- Node8 -->
<g id="node15" class="node"><title>Node8</title>
<a xlink:href="hfa-lnx-async_8c.html#a78ffddbcd7cdd164889cfb53ea367886" target="_top" xlink:title="entry">
<polygon fill="white" stroke="black" points="476.5,-0.5 476.5,-21.5 517.5,-21.5 517.5,-0.5 476.5,-0.5"/>
<text text-anchor="middle" x="497" y="-8.5" font-family="FreeSans" font-size="10.00">entry</text>
</a>
</g>
<!-- Node7&#45;&gt;Node8 -->
<g id="edge14" class="edge"><title>Node7&#45;&gt;Node8</title>
<path fill="none" stroke="midnightblue" d="M411.004,-11C433.215,-11 458.921,-11 476.402,-11"/>
<polygon fill="midnightblue" stroke="midnightblue" points="410.762,-7.5001 400.762,-11 410.762,-14.5001 410.762,-7.5001"/>
</g>
</g>
</svg>
