<?xml version="1.0" encoding="UTF-8" standalone="no"?>
<!DOCTYPE svg PUBLIC "-//W3C//DTD SVG 1.1//EN"
 "http://www.w3.org/Graphics/SVG/1.1/DTD/svg11.dtd">
<!-- Generated by graphviz version 2.24.0 (20090616.2323)
 -->
<!-- Title: hfa_cluster_cleanupcache Pages: 1 -->
<svg width="562pt" height="42pt"
 viewBox="0.00 0.00 562.00 42.00" xmlns="http://www.w3.org/2000/svg" xmlns:xlink="http://www.w3.org/1999/xlink">
<g id="graph1" class="graph" transform="scale(1 1) rotate(0) translate(4 38)">
<title>hfa_cluster_cleanupcache</title>
<polygon fill="white" stroke="white" points="-4,5 -4,-38 559,-38 559,5 -4,5"/>
<!-- Node1 -->
<g id="node1" class="node"><title>Node1</title>
<polygon fill="#bfbfbf" stroke="black" points="0.5,-6.5 0.5,-27.5 143.5,-27.5 143.5,-6.5 0.5,-6.5"/>
<text text-anchor="middle" x="72" y="-14.5" font-family="FreeSans" font-size="10.00">hfa_cluster_cleanupcache</text>
</g>
<!-- Node2 -->
<g id="node3" class="node"><title>Node2</title>
<a xlink:href="cvm-hfa-cluster_8c.html#ae4fec611b1343b2f6cad63b81987d98b" target="_top" xlink:title="Cleanup Cluster.">
<polygon fill="white" stroke="black" points="180.5,-6.5 180.5,-27.5 293.5,-27.5 293.5,-6.5 180.5,-6.5"/>
<text text-anchor="middle" x="237" y="-14.5" font-family="FreeSans" font-size="10.00">hfa_cluster_cleanup</text>
</a>
</g>
<!-- Node1&#45;&gt;Node2 -->
<g id="edge2" class="edge"><title>Node1&#45;&gt;Node2</title>
<path fill="none" stroke="midnightblue" d="M153.985,-17C162.947,-17 171.918,-17 180.474,-17"/>
<polygon fill="midnightblue" stroke="midnightblue" points="153.891,-13.5001 143.891,-17 153.891,-20.5001 153.891,-13.5001"/>
</g>
<!-- Node3 -->
<g id="node5" class="node"><title>Node3</title>
<a xlink:href="hfa-lnx-async_8c.html#abc17fab65a320998a273d112ff24d658" target="_top" xlink:title="Configure cluster memory resources.">
<polygon fill="white" stroke="black" points="330,-0 330,-34 476,-34 476,-0 330,-0"/>
<text text-anchor="start" x="338" y="-21" font-family="FreeSans" font-size="10.00">configure_cluster_memory</text>
<text text-anchor="middle" x="403" y="-8" font-family="FreeSans" font-size="10.00">_resources</text>
</a>
</g>
<!-- Node2&#45;&gt;Node3 -->
<g id="edge4" class="edge"><title>Node2&#45;&gt;Node3</title>
<path fill="none" stroke="midnightblue" d="M303.931,-17C312.466,-17 321.236,-17 329.862,-17"/>
<polygon fill="midnightblue" stroke="midnightblue" points="303.664,-13.5001 293.663,-17 303.663,-20.5001 303.664,-13.5001"/>
</g>
<!-- Node4 -->
<g id="node7" class="node"><title>Node4</title>
<a xlink:href="hfa-lnx-async_8c.html#a78ffddbcd7cdd164889cfb53ea367886" target="_top" xlink:title="entry">
<polygon fill="white" stroke="black" points="512.5,-6.5 512.5,-27.5 553.5,-27.5 553.5,-6.5 512.5,-6.5"/>
<text text-anchor="middle" x="533" y="-14.5" font-family="FreeSans" font-size="10.00">entry</text>
</a>
</g>
<!-- Node3&#45;&gt;Node4 -->
<g id="edge6" class="edge"><title>Node3&#45;&gt;Node4</title>
<path fill="none" stroke="midnightblue" d="M486.471,-17C496.011,-17 504.972,-17 512.435,-17"/>
<polygon fill="midnightblue" stroke="midnightblue" points="486.358,-13.5001 476.358,-17 486.358,-20.5001 486.358,-13.5001"/>
</g>
</g>
</svg>
