<?xml version="1.0" encoding="UTF-8" standalone="no"?>
<!DOCTYPE svg PUBLIC "-//W3C//DTD SVG 1.1//EN"
 "http://www.w3.org/Graphics/SVG/1.1/DTD/svg11.dtd">
<!-- Generated by graphviz version 2.24.0 (20090616.2323)
 -->
<!-- Title: cvm_hfa_rslt_getitype Pages: 1 -->
<!--zoomable 267 -->
<svg id="main" version="1.1" xmlns="http://www.w3.org/2000/svg" xmlns:xlink="http://www.w3.org/1999/xlink" xml:space="preserve" onload="init(evt)">
        <defs>
                <circle id="rim" cx="0" cy="0" r="7"/>
                <circle id="rim2" cx="0" cy="0" r="3.5"/>
                <g id="zoomPlus">
                        <use xlink:href="#rim" fill="#404040">
                                <set attributeName="fill" to="#808080" begin="zoomplus.mouseover" end="zoomplus.mouseout"/>
                        </use>
                        <path d="M-4,0h8M0,-4v8" fill="none" stroke="white" stroke-width="1.5" pointer-events="none"/>
                </g>
                <g id="zoomMin">
                        <use xlink:href="#rim" fill="#404040">
                                <set attributeName="fill" to="#808080" begin="zoomminus.mouseover" end="zoomminus.mouseout"/>
                        </use>
                        <path d="M-4,0h8" fill="none" stroke="white" stroke-width="1.5" pointer-events="none"/>
                </g>
                <g id="dirArrow">
                        <path fill="none" stroke="white" stroke-width="1.5" d="M0,-3.0v7 M-2.5,-0.5L0,-3.0L2.5,-0.5"/>
                </g>
               <g id="resetDef">
                       <use xlink:href="#rim2" fill="#404040">
                               <set attributeName="fill" to="#808080" begin="reset.mouseover" end="reset.mouseout"/>
                       </use>
               </g>
        </defs>

<script type="text/javascript">
var viewWidth = 992;
var viewHeight = 267;
var sectionId = 'dynsection-16';
</script>
<script xlink:href="svgpan.js"/>
<svg id="graph" class="graph">
<g id="viewport">
<title>cvm_hfa_rslt_getitype</title>
<polygon fill="white" stroke="white" points="-4,5 -4,-262.856 989,-262.856 989,5 -4,5"/>
<!-- Node1 -->
<g id="node1" class="node"><title>Node1</title>
<polygon fill="#bfbfbf" stroke="black" points="0,-174.5 0,-195.5 122,-195.5 122,-174.5 0,-174.5"/>
<text text-anchor="middle" x="61" y="-182.5" font-family="FreeSans" font-size="10.00">cvm_hfa_rslt_getitype</text>
</g>
<!-- Node2 -->
<g id="node3" class="node"><title>Node2</title>
<a xlink:href="cvm-hfa-graph_8c.html#a0f2f13fb51e5d56dcf049ff3c7c6ad78" target="_top" xlink:title="This routine is used to check the status of the graph.">
<polygon fill="white" stroke="black" points="158,-174.5 158,-195.5 272,-195.5 272,-174.5 158,-174.5"/>
<text text-anchor="middle" x="215" y="-182.5" font-family="FreeSans" font-size="10.00">hfa_graph_getstatus</text>
</a>
</g>
<!-- Node1&#45;&gt;Node2 -->
<g id="edge2" class="edge"><title>Node1&#45;&gt;Node2</title>
<path fill="none" stroke="midnightblue" d="M132.31,-185C140.891,-185 149.565,-185 157.906,-185"/>
<polygon fill="midnightblue" stroke="midnightblue" points="132.307,-181.5 122.307,-185 132.307,-188.5 132.307,-181.5"/>
</g>
<!-- Node3 -->
<g id="node5" class="node"><title>Node3</title>
<a xlink:href="app-utils_8c.html#aed95bb72627cff313c596ebcfcd8af61" target="_top" xlink:title="Parse graph into chunks and load graph to HFA memory.">
<polygon fill="white" stroke="black" points="664.5,-178.5 664.5,-199.5 799.5,-199.5 799.5,-178.5 664.5,-178.5"/>
<text text-anchor="middle" x="732" y="-186.5" font-family="FreeSans" font-size="10.00">hfautils_download_graph</text>
</a>
</g>
<!-- Node2&#45;&gt;Node3 -->
<g id="edge4" class="edge"><title>Node2&#45;&gt;Node3</title>
<path fill="none" stroke="midnightblue" d="M261.856,-198.126C338.77,-217.806 496.407,-250.288 628,-227 657.34,-221.808 689.277,-208.972 709.91,-199.653"/>
<polygon fill="midnightblue" stroke="midnightblue" points="262.553,-194.691 251.993,-195.559 260.789,-201.465 262.553,-194.691"/>
</g>
<!-- Node4 -->
<g id="node7" class="node"><title>Node4</title>
<a xlink:href="hfa-lnx-async_8c.html#a546f3769e735d4bef0bfab1cba56921c" target="_top" xlink:title="Load graph to HFA memory and cache.">
<polygon fill="white" stroke="black" points="836.5,-178.5 836.5,-199.5 905.5,-199.5 905.5,-178.5 836.5,-178.5"/>
<text text-anchor="middle" x="871" y="-186.5" font-family="FreeSans" font-size="10.00">graph_load</text>
</a>
</g>
<!-- Node2&#45;&gt;Node4 -->
<g id="edge46" class="edge"><title>Node2&#45;&gt;Node4</title>
<path fill="none" stroke="midnightblue" d="M239.362,-201.107C257.485,-212.187 283.259,-226.102 308,-233 445.094,-271.221 486.434,-259.656 628,-245 704.006,-237.131 790.716,-213.493 837.241,-199.571"/>
<polygon fill="midnightblue" stroke="midnightblue" points="240.959,-197.976 230.629,-195.623 237.237,-203.905 240.959,-197.976"/>
</g>
<!-- Node7 -->
<g id="node13" class="node"><title>Node7</title>
<a xlink:href="cvm-hfa-graph_8c.html#a647ccf649077cb5170221218ab2cdccf" target="_top" xlink:title="This routine downloads graph data to the HFA engine in a non&#45;blocking manner.">
<polygon fill="white" stroke="black" points="308,-146 308,-180 450,-180 450,-146 308,-146"/>
<text text-anchor="start" x="316" y="-167" font-family="FreeSans" font-size="10.00">hfa_graph_memload_data</text>
<text text-anchor="middle" x="379" y="-154" font-family="FreeSans" font-size="10.00">_async</text>
</a>
</g>
<!-- Node2&#45;&gt;Node7 -->
<g id="edge12" class="edge"><title>Node2&#45;&gt;Node7</title>
<path fill="none" stroke="midnightblue" d="M282.445,-175.953C290.818,-174.829 299.4,-173.678 307.827,-172.548"/>
<polygon fill="midnightblue" stroke="midnightblue" points="281.805,-172.507 272.359,-177.305 282.736,-179.445 281.805,-172.507"/>
</g>
<!-- Node8 -->
<g id="node16" class="node"><title>Node8</title>
<a xlink:href="cvm-hfa-graph_8c.html#a9e3f1a4bf2be683265108b5131541e89" target="_top" xlink:title="This routine downloads graph data to the HFA engine in a blocking manner.">
<polygon fill="white" stroke="black" points="486,-196.5 486,-217.5 628,-217.5 628,-196.5 486,-196.5"/>
<text text-anchor="middle" x="557" y="-204.5" font-family="FreeSans" font-size="10.00">hfa_graph_memload_data</text>
</a>
</g>
<!-- Node2&#45;&gt;Node8 -->
<g id="edge20" class="edge"><title>Node2&#45;&gt;Node8</title>
<path fill="none" stroke="midnightblue" d="M282.532,-189.344C341.282,-193.123 426.142,-198.582 485.915,-202.427"/>
<polygon fill="midnightblue" stroke="midnightblue" points="282.447,-185.832 272.243,-188.682 281.998,-192.817 282.447,-185.832"/>
</g>
<!-- Node9 -->
<g id="node20" class="node"><title>Node9</title>
<a xlink:href="cvm-hfa-graph_8c.html#a60861d15ed5f6bccc42bbde834aa2b32" target="_top" xlink:title="This routine is used to cacheload a cacheable graph in a blocking manner.">
<polygon fill="white" stroke="black" points="319,-106.5 319,-127.5 439,-127.5 439,-106.5 319,-106.5"/>
<text text-anchor="middle" x="379" y="-114.5" font-family="FreeSans" font-size="10.00">hfa_graph_cacheload</text>
</a>
</g>
<!-- Node2&#45;&gt;Node9 -->
<g id="edge22" class="edge"><title>Node2&#45;&gt;Node9</title>
<path fill="none" stroke="midnightblue" d="M241.892,-169.277C260.11,-159.091 284.969,-146.079 308,-137 316.935,-133.477 326.729,-130.302 336.111,-127.573"/>
<polygon fill="midnightblue" stroke="midnightblue" points="239.988,-166.333 233.016,-174.311 243.441,-172.422 239.988,-166.333"/>
</g>
<!-- Node12 -->
<g id="node27" class="node"><title>Node12</title>
<a xlink:href="cvm-hfa-graph_8c.html#aa4ce7845277b4b3099159bbd7afd5c08" target="_top" xlink:title="This routine is used to cacheunload a cacheload&#39;ed graph in a non&#45;blocking manner.">
<polygon fill="white" stroke="black" points="666,-40.5 666,-61.5 798,-61.5 798,-40.5 666,-40.5"/>
<text text-anchor="middle" x="732" y="-48.5" font-family="FreeSans" font-size="10.00">hfa_graph_cacheunload</text>
</a>
</g>
<!-- Node2&#45;&gt;Node12 -->
<g id="edge30" class="edge"><title>Node2&#45;&gt;Node12</title>
<path fill="none" stroke="midnightblue" d="M228.651,-166.181C244.95,-145.326 274.278,-112.585 308,-97 425.117,-42.8726 579.24,-41.1184 665.731,-45.5177"/>
<polygon fill="midnightblue" stroke="midnightblue" points="225.743,-164.223 222.488,-174.306 231.32,-168.453 225.743,-164.223"/>
</g>
<!-- Node3&#45;&gt;Node4 -->
<g id="edge6" class="edge"><title>Node3&#45;&gt;Node4</title>
<path fill="none" stroke="midnightblue" d="M809.959,-189C819.212,-189 828.262,-189 836.44,-189"/>
<polygon fill="midnightblue" stroke="midnightblue" points="809.871,-185.5 799.871,-189 809.871,-192.5 809.871,-185.5"/>
</g>
<!-- Node6 -->
<g id="node11" class="node"><title>Node6</title>
<a xlink:href="hfa-lnx-ctx_8c.html#a78ffddbcd7cdd164889cfb53ea367886" target="_top" xlink:title="entry">
<polygon fill="white" stroke="black" points="850.5,-120.5 850.5,-141.5 891.5,-141.5 891.5,-120.5 850.5,-120.5"/>
<text text-anchor="middle" x="871" y="-128.5" font-family="FreeSans" font-size="10.00">entry</text>
</a>
</g>
<!-- Node3&#45;&gt;Node6 -->
<g id="edge10" class="edge"><title>Node3&#45;&gt;Node6</title>
<path fill="none" stroke="midnightblue" d="M766.738,-174.505C792.953,-163.566 828.055,-148.919 850.099,-139.721"/>
<polygon fill="midnightblue" stroke="midnightblue" points="765.053,-171.416 757.172,-178.497 767.748,-177.876 765.053,-171.416"/>
</g>
<!-- Node5 -->
<g id="node9" class="node"><title>Node5</title>
<a xlink:href="hfa-lnx-async_8c.html#a78ffddbcd7cdd164889cfb53ea367886" target="_top" xlink:title="entry">
<polygon fill="white" stroke="black" points="942.5,-129.5 942.5,-150.5 983.5,-150.5 983.5,-129.5 942.5,-129.5"/>
<text text-anchor="middle" x="963" y="-137.5" font-family="FreeSans" font-size="10.00">entry</text>
</a>
</g>
<!-- Node4&#45;&gt;Node5 -->
<g id="edge8" class="edge"><title>Node4&#45;&gt;Node5</title>
<path fill="none" stroke="midnightblue" d="M900.181,-173.458C914.162,-166.012 930.546,-157.285 943.076,-150.612"/>
<polygon fill="midnightblue" stroke="midnightblue" points="898.143,-170.578 890.963,-178.368 901.434,-176.756 898.143,-170.578"/>
</g>
<!-- Node7&#45;&gt;Node3 -->
<g id="edge14" class="edge"><title>Node7&#45;&gt;Node3</title>
<path fill="none" stroke="midnightblue" d="M460.124,-168.975C521.978,-173.531 606.166,-179.732 664.397,-184.021"/>
<polygon fill="midnightblue" stroke="midnightblue" points="460.24,-165.474 450.01,-168.23 459.726,-172.455 460.24,-165.474"/>
</g>
<!-- Node7&#45;&gt;Node8 -->
<g id="edge16" class="edge"><title>Node7&#45;&gt;Node8</title>
<path fill="none" stroke="midnightblue" d="M457.628,-182.436C477.129,-187.257 497.305,-192.244 514.339,-196.455"/>
<polygon fill="midnightblue" stroke="midnightblue" points="458.367,-179.014 447.819,-180.012 456.687,-185.809 458.367,-179.014"/>
</g>
<!-- Node8&#45;&gt;Node3 -->
<g id="edge18" class="edge"><title>Node8&#45;&gt;Node3</title>
<path fill="none" stroke="midnightblue" d="M638.318,-198.636C647.005,-197.742 655.773,-196.841 664.278,-195.966"/>
<polygon fill="midnightblue" stroke="midnightblue" points="637.769,-195.174 628.179,-199.679 638.485,-202.137 637.769,-195.174"/>
</g>
<!-- Node9&#45;&gt;Node6 -->
<g id="edge24" class="edge"><title>Node9&#45;&gt;Node6</title>
<path fill="none" stroke="midnightblue" d="M449.365,-110.988C461.571,-110.16 474.147,-109.442 486,-109 625.458,-103.794 662.016,-88.1122 800,-109 817.353,-111.627 836.306,-117.672 850.262,-122.761"/>
<polygon fill="midnightblue" stroke="midnightblue" points="448.951,-107.508 439.223,-111.706 449.446,-114.491 448.951,-107.508"/>
</g>
<!-- Node10 -->
<g id="node23" class="node"><title>Node10</title>
<a xlink:href="hfa-lnx-linkgraph_8c.html#a546f3769e735d4bef0bfab1cba56921c" target="_top" xlink:title="Load graph to HFA memory and cache.">
<polygon fill="white" stroke="black" points="522.5,-118.5 522.5,-139.5 591.5,-139.5 591.5,-118.5 522.5,-118.5"/>
<text text-anchor="middle" x="557" y="-126.5" font-family="FreeSans" font-size="10.00">graph_load</text>
</a>
</g>
<!-- Node9&#45;&gt;Node10 -->
<g id="edge26" class="edge"><title>Node9&#45;&gt;Node10</title>
<path fill="none" stroke="midnightblue" d="M449.462,-121.75C474.473,-123.436 501.528,-125.26 522.244,-126.657"/>
<polygon fill="midnightblue" stroke="midnightblue" points="449.475,-118.243 439.263,-121.063 449.005,-125.227 449.475,-118.243"/>
</g>
<!-- Node11 -->
<g id="node25" class="node"><title>Node11</title>
<a xlink:href="hfa-lnx-linkgraph_8c.html#a78ffddbcd7cdd164889cfb53ea367886" target="_top" xlink:title="entry">
<polygon fill="white" stroke="black" points="711.5,-118.5 711.5,-139.5 752.5,-139.5 752.5,-118.5 711.5,-118.5"/>
<text text-anchor="middle" x="732" y="-126.5" font-family="FreeSans" font-size="10.00">entry</text>
</a>
</g>
<!-- Node10&#45;&gt;Node11 -->
<g id="edge28" class="edge"><title>Node10&#45;&gt;Node11</title>
<path fill="none" stroke="midnightblue" d="M601.609,-129C636.817,-129 684.334,-129 711.208,-129"/>
<polygon fill="midnightblue" stroke="midnightblue" points="601.574,-125.5 591.574,-129 601.574,-132.5 601.574,-125.5"/>
</g>
<!-- Node12&#45;&gt;Node6 -->
<g id="edge38" class="edge"><title>Node12&#45;&gt;Node6</title>
<path fill="none" stroke="midnightblue" d="M778.641,-65.1725C786.039,-68.2517 793.414,-71.854 800,-76 818.885,-87.8878 818.171,-97.5799 836,-111 840.473,-114.367 845.569,-117.583 850.461,-120.413"/>
<polygon fill="midnightblue" stroke="midnightblue" points="779.905,-61.9087 769.316,-61.5503 777.37,-68.4338 779.905,-61.9087"/>
</g>
<!-- Node13 -->
<g id="node29" class="node"><title>Node13</title>
<a xlink:href="hfa-lnx-async_8c.html#acd9e54f020b77f14d54c200b65423a15" target="_top" xlink:title="Application cleanup will be done by this routine.">
<polygon fill="white" stroke="black" points="844,-40.5 844,-61.5 898,-61.5 898,-40.5 844,-40.5"/>
<text text-anchor="middle" x="871" y="-48.5" font-family="FreeSans" font-size="10.00">cleanup</text>
</a>
</g>
<!-- Node12&#45;&gt;Node13 -->
<g id="edge32" class="edge"><title>Node12&#45;&gt;Node13</title>
<path fill="none" stroke="midnightblue" d="M808.419,-51C821.065,-51 833.403,-51 843.735,-51"/>
<polygon fill="midnightblue" stroke="midnightblue" points="808.243,-47.5001 798.243,-51 808.243,-54.5001 808.243,-47.5001"/>
</g>
<!-- Node15 -->
<g id="node35" class="node"><title>Node15</title>
<a xlink:href="hfa-lnx-ctx_8c.html#aaf98ef7cdde3a0dfb2e49919de3298b1" target="_top" xlink:title="exit">
<polygon fill="white" stroke="black" points="854.5,-80.5 854.5,-101.5 887.5,-101.5 887.5,-80.5 854.5,-80.5"/>
<text text-anchor="middle" x="871" y="-88.5" font-family="FreeSans" font-size="10.00">exit</text>
</a>
</g>
<!-- Node12&#45;&gt;Node15 -->
<g id="edge40" class="edge"><title>Node12&#45;&gt;Node15</title>
<path fill="none" stroke="midnightblue" d="M778.296,-64.3225C804.533,-71.8729 835.755,-80.8576 854.445,-86.2359"/>
<polygon fill="midnightblue" stroke="midnightblue" points="779.099,-60.9116 768.521,-61.5095 777.163,-67.6386 779.099,-60.9116"/>
</g>
<!-- Node16 -->
<g id="node37" class="node"><title>Node16</title>
<a xlink:href="hfa-se-ngraphs_8c.html#a546f3769e735d4bef0bfab1cba56921c" target="_top" xlink:title="Load ngraphs into HFA memory and cache.">
<polygon fill="white" stroke="black" points="836.5,-0.5 836.5,-21.5 905.5,-21.5 905.5,-0.5 836.5,-0.5"/>
<text text-anchor="middle" x="871" y="-8.5" font-family="FreeSans" font-size="10.00">graph_load</text>
</a>
</g>
<!-- Node12&#45;&gt;Node16 -->
<g id="edge42" class="edge"><title>Node12&#45;&gt;Node16</title>
<path fill="none" stroke="midnightblue" d="M778.142,-37.7218C797.062,-32.2772 818.596,-26.0804 836.16,-21.0259"/>
<polygon fill="midnightblue" stroke="midnightblue" points="777.163,-34.3614 768.521,-40.4905 779.099,-41.0884 777.163,-34.3614"/>
</g>
<!-- Node13&#45;&gt;Node5 -->
<g id="edge34" class="edge"><title>Node13&#45;&gt;Node5</title>
<path fill="none" stroke="midnightblue" d="M901.18,-67.2682C902.854,-68.469 904.474,-69.7154 906,-71 926.92,-88.612 946.017,-114.621 955.909,-129.156"/>
<polygon fill="midnightblue" stroke="midnightblue" points="902.839,-64.173 892.543,-61.678 899.036,-70.0497 902.839,-64.173"/>
</g>
<!-- Node14 -->
<g id="node32" class="node"><title>Node14</title>
<a xlink:href="hfa-lnx-async_8c.html#aaf98ef7cdde3a0dfb2e49919de3298b1" target="_top" xlink:title="exit">
<polygon fill="white" stroke="black" points="946.5,-40.5 946.5,-61.5 979.5,-61.5 979.5,-40.5 946.5,-40.5"/>
<text text-anchor="middle" x="963" y="-48.5" font-family="FreeSans" font-size="10.00">exit</text>
</a>
</g>
<!-- Node13&#45;&gt;Node14 -->
<g id="edge36" class="edge"><title>Node13&#45;&gt;Node14</title>
<path fill="none" stroke="midnightblue" d="M908.42,-51C921.653,-51 935.868,-51 946.473,-51"/>
<polygon fill="midnightblue" stroke="midnightblue" points="908.105,-47.5001 898.105,-51 908.105,-54.5001 908.105,-47.5001"/>
</g>
<!-- Node17 -->
<g id="node39" class="node"><title>Node17</title>
<a xlink:href="hfa-se-ngraphs_8c.html#a3c04138a5bfe5d72780bb7e82a18e627" target="_top" xlink:title="main">
<polygon fill="white" stroke="black" points="943,-0.5 943,-21.5 983,-21.5 983,-0.5 943,-0.5"/>
<text text-anchor="middle" x="963" y="-8.5" font-family="FreeSans" font-size="10.00">main</text>
</a>
</g>
<!-- Node16&#45;&gt;Node17 -->
<g id="edge44" class="edge"><title>Node16&#45;&gt;Node17</title>
<path fill="none" stroke="midnightblue" d="M915.779,-11C925.332,-11 934.955,-11 942.998,-11"/>
<polygon fill="midnightblue" stroke="midnightblue" points="915.519,-7.5001 905.519,-11 915.519,-14.5001 915.519,-7.5001"/>
</g>
</g>
</svg>
        <g id="navigator" transform="translate(0 0)" fill="#404254">
                <rect fill="#f2f5e9" fill-opacity="0.5" stroke="#606060" stroke-width=".5" x="0" y="0" width="60" height="60"/>
                <use id="zoomplus" xlink:href="#zoomPlus" x="17" y="9" onmousedown="handleZoom(evt,'in')"/>
                <use id="zoomminus" xlink:href="#zoomMin" x="42" y="9" onmousedown="handleZoom(evt,'out')"/>
                <use id="reset" xlink:href="#resetDef" x="30" y="36" onmousedown="handleReset()"/>
                <g id="arrowUp" xlink:href="#dirArrow" transform="translate(30 24)" onmousedown="handlePan(0,-1)">
                  <use xlink:href="#rim" fill="#404040">
                        <set attributeName="fill" to="#808080" begin="arrowUp.mouseover" end="arrowUp.mouseout"/>
                  </use>
                  <path fill="none" stroke="white" stroke-width="1.5" d="M0,-3.0v7 M-2.5,-0.5L0,-3.0L2.5,-0.5"/>
                </g>
                <g id="arrowRight" xlink:href="#dirArrow" transform="rotate(90) translate(36 -43)" onmousedown="handlePan(1,0)">
                  <use xlink:href="#rim" fill="#404040">
                        <set attributeName="fill" to="#808080" begin="arrowRight.mouseover" end="arrowRight.mouseout"/>
                  </use>
                  <path fill="none" stroke="white" stroke-width="1.5" d="M0,-3.0v7 M-2.5,-0.5L0,-3.0L2.5,-0.5"/>
                </g>
                <g id="arrowDown" xlink:href="#dirArrow" transform="rotate(180) translate(-30 -48)" onmousedown="handlePan(0,1)">
                  <use xlink:href="#rim" fill="#404040">
                        <set attributeName="fill" to="#808080" begin="arrowDown.mouseover" end="arrowDown.mouseout"/>
                  </use>
                  <path fill="none" stroke="white" stroke-width="1.5" d="M0,-3.0v7 M-2.5,-0.5L0,-3.0L2.5,-0.5"/>
                </g>
                <g id="arrowLeft" xlink:href="#dirArrow" transform="rotate(270) translate(-36 17)" onmousedown="handlePan(-1,0)">
                  <use xlink:href="#rim" fill="#404040">
                        <set attributeName="fill" to="#808080" begin="arrowLeft.mouseover" end="arrowLeft.mouseout"/>
                  </use>
                  <path fill="none" stroke="white" stroke-width="1.5" d="M0,-3.0v7 M-2.5,-0.5L0,-3.0L2.5,-0.5"/>
                </g>
        </g>
        <svg viewBox="0 0 15 15" width="100%" height="30px" preserveAspectRatio="xMaxYMin meet">
         <g id="arrow_out" transform="scale(0.3 0.3)">
          <a xlink:href="cvm-hfa-instr_8h_aa7b5661907cf23e01fe784a70980ed4b_icgraph_org.svg" target="_base">
           <rect id="button" ry="5" rx="5" y="6" x="6" height="38" width="38"
                fill="#f2f5e9" fill-opacity="0.5" stroke="#606060" stroke-width="1.0"/>
           <path id="arrow"
             d="M 11.500037,31.436501 C 11.940474,20.09759 22.043105,11.32322 32.158766,21.979434 L 37.068811,17.246167 C 37.068811,17.246167 37.088388,32 37.088388,32 L 22.160133,31.978069 C 22.160133,31.978069 26.997745,27.140456 26.997745,27.140456 C 18.528582,18.264221 13.291696,25.230495 11.500037,31.436501 z"
             style="fill:#404040;"/>
          </a>
         </g>
        </svg>
</svg>
