<?xml version="1.0" encoding="UTF-8" standalone="no"?>
<!DOCTYPE svg PUBLIC "-//W3C//DTD SVG 1.1//EN"
 "http://www.w3.org/Graphics/SVG/1.1/DTD/svg11.dtd">
<!-- Generated by graphviz version 2.24.0 (20090616.2323)
 -->
<!-- Title: ppassignstats Pages: 1 -->
<!--zoomable 317 -->
<svg id="main" version="1.1" xmlns="http://www.w3.org/2000/svg" xmlns:xlink="http://www.w3.org/1999/xlink" xml:space="preserve" onload="init(evt)">
        <defs>
                <circle id="rim" cx="0" cy="0" r="7"/>
                <circle id="rim2" cx="0" cy="0" r="3.5"/>
                <g id="zoomPlus">
                        <use xlink:href="#rim" fill="#404040">
                                <set attributeName="fill" to="#808080" begin="zoomplus.mouseover" end="zoomplus.mouseout"/>
                        </use>
                        <path d="M-4,0h8M0,-4v8" fill="none" stroke="white" stroke-width="1.5" pointer-events="none"/>
                </g>
                <g id="zoomMin">
                        <use xlink:href="#rim" fill="#404040">
                                <set attributeName="fill" to="#808080" begin="zoomminus.mouseover" end="zoomminus.mouseout"/>
                        </use>
                        <path d="M-4,0h8" fill="none" stroke="white" stroke-width="1.5" pointer-events="none"/>
                </g>
                <g id="dirArrow">
                        <path fill="none" stroke="white" stroke-width="1.5" d="M0,-3.0v7 M-2.5,-0.5L0,-3.0L2.5,-0.5"/>
                </g>
               <g id="resetDef">
                       <use xlink:href="#rim2" fill="#404040">
                               <set attributeName="fill" to="#808080" begin="reset.mouseover" end="reset.mouseout"/>
                       </use>
               </g>
        </defs>

<script type="text/javascript">
var viewWidth = 1660;
var viewHeight = 317;
var sectionId = 'dynsection-7';
</script>
<script xlink:href="svgpan.js"/>
<svg id="graph" class="graph">
<g id="viewport">
<title>ppassignstats</title>
<polygon fill="white" stroke="white" points="-4,5 -4,-313 1657,-313 1657,5 -4,5"/>
<!-- Node1 -->
<g id="node1" class="node"><title>Node1</title>
<polygon fill="#bfbfbf" stroke="black" points="0.5,-189.5 0.5,-210.5 81.5,-210.5 81.5,-189.5 0.5,-189.5"/>
<text text-anchor="middle" x="41" y="-197.5" font-family="FreeSans" font-size="10.00">ppassignstats</text>
</g>
<!-- Node2 -->
<g id="node3" class="node"><title>Node2</title>
<a xlink:href="cvm-hfa-search_8c.html#a60c8025118f6a47f924733e47db8c77d" target="_top" xlink:title="This routine is used to specify settings used during the search and getmatches API.">
<polygon fill="white" stroke="black" points="118,-189.5 118,-210.5 246,-210.5 246,-189.5 118,-189.5"/>
<text text-anchor="middle" x="182" y="-197.5" font-family="FreeSans" font-size="10.00">hfa_searchctx_setflags</text>
</a>
</g>
<!-- Node1&#45;&gt;Node2 -->
<g id="edge2" class="edge"><title>Node1&#45;&gt;Node2</title>
<path fill="none" stroke="midnightblue" d="M91.8632,-200C100.324,-200 109.194,-200 117.932,-200"/>
<polygon fill="midnightblue" stroke="midnightblue" points="91.7831,-196.5 81.783,-200 91.783,-203.5 91.7831,-196.5"/>
</g>
<!-- Node3 -->
<g id="node5" class="node"><title>Node3</title>
<a xlink:href="flow_8c.html#a28378e8a6f53ff0e87f2e688d1c21834" target="_top" xlink:title="Low level API to create a flow Allocate Flow, Intialize searchctx, set graph and setflags,.">
<polygon fill="white" stroke="black" points="282.5,-287.5 282.5,-308.5 389.5,-308.5 389.5,-287.5 282.5,-287.5"/>
<text text-anchor="middle" x="336" y="-295.5" font-family="FreeSans" font-size="10.00">__hfaf_create_flow</text>
</a>
</g>
<!-- Node2&#45;&gt;Node3 -->
<g id="edge4" class="edge"><title>Node2&#45;&gt;Node3</title>
<path fill="none" stroke="midnightblue" d="M202.656,-216.95C222.32,-232.624 253.117,-255.996 282,-273 290.992,-278.294 301.294,-283.302 310.473,-287.425"/>
<polygon fill="midnightblue" stroke="midnightblue" points="204.683,-214.088 194.7,-210.542 200.293,-219.54 204.683,-214.088"/>
</g>
<!-- Node6 -->
<g id="node11" class="node"><title>Node6</title>
<a xlink:href="hfa-lnx-async_8c.html#a972f8b60ef804914c009c2ef85bac50e" target="_top" xlink:title="Process search for given payload and graph.">
<polygon fill="white" stroke="black" points="949,-243.5 949,-264.5 1041,-264.5 1041,-243.5 949,-243.5"/>
<text text-anchor="middle" x="995" y="-251.5" font-family="FreeSans" font-size="10.00">process_search</text>
</a>
</g>
<!-- Node2&#45;&gt;Node6 -->
<g id="edge10" class="edge"><title>Node2&#45;&gt;Node6</title>
<path fill="none" stroke="midnightblue" d="M212.509,-214.855C231.94,-223.642 257.903,-234.164 282,-240 368.78,-261.017 392.711,-259 482,-259 482,-259 482,-259 695,-259 784.856,-259 889.83,-256.73 948.75,-255.249"/>
<polygon fill="midnightblue" stroke="midnightblue" points="213.806,-211.598 203.261,-210.58 210.87,-217.953 213.806,-211.598"/>
</g>
<!-- Node10 -->
<g id="node20" class="node"><title>Node10</title>
<a xlink:href="hfa-lnx-ctx_8c.html#a6926aada806433e15eae2c50298b4aa9" target="_top" xlink:title="createctx">
<polygon fill="white" stroke="black" points="305,-209.5 305,-230.5 367,-230.5 367,-209.5 305,-209.5"/>
<text text-anchor="middle" x="336" y="-217.5" font-family="FreeSans" font-size="10.00">createctx</text>
</a>
</g>
<!-- Node2&#45;&gt;Node10 -->
<g id="edge20" class="edge"><title>Node2&#45;&gt;Node10</title>
<path fill="none" stroke="midnightblue" d="M256.386,-209.66C273.392,-211.869 290.569,-214.1 304.592,-215.921"/>
<polygon fill="midnightblue" stroke="midnightblue" points="256.785,-206.183 246.418,-208.366 255.883,-213.125 256.785,-206.183"/>
</g>
<!-- Node12 -->
<g id="node24" class="node"><title>Node12</title>
<a xlink:href="hfa-lnx-linkgraph_8c.html#a6604748091c732cb29568c12d0f77b4e" target="_top" xlink:title="Initialize search ctx for each subgraph.">
<polygon fill="white" stroke="black" points="298,-169.5 298,-190.5 374,-190.5 374,-169.5 298,-169.5"/>
<text text-anchor="middle" x="336" y="-177.5" font-family="FreeSans" font-size="10.00">Initialize_Ctx</text>
</a>
</g>
<!-- Node2&#45;&gt;Node12 -->
<g id="edge24" class="edge"><title>Node2&#45;&gt;Node12</title>
<path fill="none" stroke="midnightblue" d="M256.73,-190.295C270.955,-188.447 285.284,-186.586 297.772,-184.965"/>
<polygon fill="midnightblue" stroke="midnightblue" points="255.883,-186.875 246.418,-191.634 256.785,-193.817 255.883,-186.875"/>
</g>
<!-- Node13 -->
<g id="node26" class="node"><title>Node13</title>
<a xlink:href="hfa-lnx-nctx-lock_8c.html#a2c813b2ff20c5bf67f487908476604d6" target="_top" xlink:title="Initialize search context object for nctxts and a global list to track nctxts.">
<polygon fill="white" stroke="black" points="286.5,-129.5 286.5,-150.5 385.5,-150.5 385.5,-129.5 286.5,-129.5"/>
<text text-anchor="middle" x="336" y="-137.5" font-family="FreeSans" font-size="10.00">initialize_ctx_glist</text>
</a>
</g>
<!-- Node2&#45;&gt;Node13 -->
<g id="edge26" class="edge"><title>Node2&#45;&gt;Node13</title>
<path fill="none" stroke="midnightblue" d="M217.328,-185.611C236.429,-177.896 260.454,-168.298 282,-160 290.117,-156.874 298.953,-153.563 307.083,-150.554"/>
<polygon fill="midnightblue" stroke="midnightblue" points="215.784,-182.46 207.827,-189.457 218.41,-188.949 215.784,-182.46"/>
</g>
<!-- Node15 -->
<g id="node30" class="node"><title>Node15</title>
<a xlink:href="hfa-lnx_8c.html#a924d2733ebc7a856f8c3fd293193ba44" target="_top" xlink:title="Initialize search context.">
<polygon fill="white" stroke="black" points="298.5,-89.5 298.5,-110.5 373.5,-110.5 373.5,-89.5 298.5,-89.5"/>
<text text-anchor="middle" x="336" y="-97.5" font-family="FreeSans" font-size="10.00">initialize_ctx</text>
</a>
</g>
<!-- Node2&#45;&gt;Node15 -->
<g id="edge30" class="edge"><title>Node2&#45;&gt;Node15</title>
<path fill="none" stroke="midnightblue" d="M200.22,-182.406C219.323,-164.721 250.843,-137.622 282,-120 288.352,-116.407 295.473,-113.237 302.407,-110.541"/>
<polygon fill="midnightblue" stroke="midnightblue" points="197.719,-179.954 192.831,-189.354 202.514,-185.054 197.719,-179.954"/>
</g>
<!-- Node4 -->
<g id="node7" class="node"><title>Node4</title>
<a xlink:href="flow_8h.html#abdb62c6f71f5ca9ecddc66c90166d37b" target="_top" xlink:title="Create Packet Flow in Flowdb.">
<polygon fill="white" stroke="black" points="426.5,-287.5 426.5,-308.5 537.5,-308.5 537.5,-287.5 426.5,-287.5"/>
<text text-anchor="middle" x="482" y="-295.5" font-family="FreeSans" font-size="10.00">hfaf_create_pktflow</text>
</a>
</g>
<!-- Node3&#45;&gt;Node4 -->
<g id="edge6" class="edge"><title>Node3&#45;&gt;Node4</title>
<path fill="none" stroke="midnightblue" d="M399.707,-298C408.468,-298 417.411,-298 426.019,-298"/>
<polygon fill="midnightblue" stroke="midnightblue" points="399.536,-294.5 389.536,-298 399.536,-301.5 399.536,-294.5"/>
</g>
<!-- Node5 -->
<g id="node9" class="node"><title>Node5</title>
<a xlink:href="hfa-se-flow-wqe_8c.html#a6d3e23d8f7a3aaf1b0d6e350b7631a0e" target="_top" xlink:title="Get flow pointer from Flow database, If flow ptr is NULL then create at runtime.">
<polygon fill="white" stroke="black" points="574.5,-287.5 574.5,-308.5 643.5,-308.5 643.5,-287.5 574.5,-287.5"/>
<text text-anchor="middle" x="609" y="-295.5" font-family="FreeSans" font-size="10.00">get_flowptr</text>
</a>
</g>
<!-- Node4&#45;&gt;Node5 -->
<g id="edge8" class="edge"><title>Node4&#45;&gt;Node5</title>
<path fill="none" stroke="midnightblue" d="M547.924,-298C556.986,-298 565.982,-298 574.172,-298"/>
<polygon fill="midnightblue" stroke="midnightblue" points="547.704,-294.5 537.704,-298 547.704,-301.5 547.704,-294.5"/>
</g>
<!-- Node7 -->
<g id="node13" class="node"><title>Node7</title>
<a xlink:href="hfa-lnx-async_8c.html#a1e97b1d598034fdc92d57054a6c386e6" target="_top" xlink:title="tasklet_callback">
<polygon fill="white" stroke="black" points="1110,-281.5 1110,-302.5 1202,-302.5 1202,-281.5 1110,-281.5"/>
<text text-anchor="middle" x="1156" y="-289.5" font-family="FreeSans" font-size="10.00">tasklet_callback</text>
</a>
</g>
<!-- Node6&#45;&gt;Node7 -->
<g id="edge12" class="edge"><title>Node6&#45;&gt;Node7</title>
<path fill="none" stroke="midnightblue" d="M1049.79,-266.932C1069.86,-271.669 1092.32,-276.97 1111.39,-281.472"/>
<polygon fill="midnightblue" stroke="midnightblue" points="1050.38,-263.476 1039.85,-264.585 1048.78,-270.289 1050.38,-263.476"/>
</g>
<!-- Node9 -->
<g id="node17" class="node"><title>Node9</title>
<a xlink:href="hfa-lnx-async_8c.html#a7dea7d59754828b1173c4c7ec5d42f3e" target="_top" xlink:title="thread_callback">
<polygon fill="white" stroke="black" points="1110,-241.5 1110,-262.5 1202,-262.5 1202,-241.5 1110,-241.5"/>
<text text-anchor="middle" x="1156" y="-249.5" font-family="FreeSans" font-size="10.00">thread_callback</text>
</a>
</g>
<!-- Node6&#45;&gt;Node9 -->
<g id="edge16" class="edge"><title>Node6&#45;&gt;Node9</title>
<path fill="none" stroke="midnightblue" d="M1051.24,-253.301C1070.4,-253.063 1091.58,-252.8 1109.86,-252.573"/>
<polygon fill="midnightblue" stroke="midnightblue" points="1051.09,-249.803 1041.14,-253.427 1051.18,-256.802 1051.09,-249.803"/>
</g>
<!-- Node8 -->
<g id="node15" class="node"><title>Node8</title>
<a xlink:href="hfa-lnx-async_8c.html#a78ffddbcd7cdd164889cfb53ea367886" target="_top" xlink:title="entry">
<polygon fill="white" stroke="black" points="1277.5,-241.5 1277.5,-262.5 1318.5,-262.5 1318.5,-241.5 1277.5,-241.5"/>
<text text-anchor="middle" x="1298" y="-249.5" font-family="FreeSans" font-size="10.00">entry</text>
</a>
</g>
<!-- Node7&#45;&gt;Node8 -->
<g id="edge14" class="edge"><title>Node7&#45;&gt;Node8</title>
<path fill="none" stroke="midnightblue" d="M1203.04,-278.751C1228.15,-271.677 1257.79,-263.327 1277.2,-257.861"/>
<polygon fill="midnightblue" stroke="midnightblue" points="1201.99,-275.41 1193.31,-281.49 1203.88,-282.148 1201.99,-275.41"/>
</g>
<!-- Node9&#45;&gt;Node8 -->
<g id="edge18" class="edge"><title>Node9&#45;&gt;Node8</title>
<path fill="none" stroke="midnightblue" d="M1212.15,-252C1235.17,-252 1260.37,-252 1277.48,-252"/>
<polygon fill="midnightblue" stroke="midnightblue" points="1212.1,-248.5 1202.1,-252 1212.1,-255.5 1212.1,-248.5"/>
</g>
<!-- Node11 -->
<g id="node22" class="node"><title>Node11</title>
<a xlink:href="hfa-lnx-ctx_8c.html#a78ffddbcd7cdd164889cfb53ea367886" target="_top" xlink:title="entry">
<polygon fill="white" stroke="black" points="461.5,-209.5 461.5,-230.5 502.5,-230.5 502.5,-209.5 461.5,-209.5"/>
<text text-anchor="middle" x="482" y="-217.5" font-family="FreeSans" font-size="10.00">entry</text>
</a>
</g>
<!-- Node10&#45;&gt;Node11 -->
<g id="edge22" class="edge"><title>Node10&#45;&gt;Node11</title>
<path fill="none" stroke="midnightblue" d="M377.388,-220C404.699,-220 439.327,-220 461.081,-220"/>
<polygon fill="midnightblue" stroke="midnightblue" points="377.321,-216.5 367.321,-220 377.321,-223.5 377.321,-216.5"/>
</g>
<!-- Node14 -->
<g id="node28" class="node"><title>Node14</title>
<a xlink:href="hfa-lnx-nctx-lock_8c.html#a78ffddbcd7cdd164889cfb53ea367886" target="_top" xlink:title="entry">
<polygon fill="white" stroke="black" points="461.5,-129.5 461.5,-150.5 502.5,-150.5 502.5,-129.5 461.5,-129.5"/>
<text text-anchor="middle" x="482" y="-137.5" font-family="FreeSans" font-size="10.00">entry</text>
</a>
</g>
<!-- Node13&#45;&gt;Node14 -->
<g id="edge28" class="edge"><title>Node13&#45;&gt;Node14</title>
<path fill="none" stroke="midnightblue" d="M395.986,-140C419.188,-140 444.203,-140 461.242,-140"/>
<polygon fill="midnightblue" stroke="midnightblue" points="395.837,-136.5 385.837,-140 395.837,-143.5 395.837,-136.5"/>
</g>
<!-- Node16 -->
<g id="node32" class="node"><title>Node16</title>
<a xlink:href="hfa-lnx_8c.html#a78ffddbcd7cdd164889cfb53ea367886" target="_top" xlink:title="entry">
<polygon fill="white" stroke="black" points="461.5,-89.5 461.5,-110.5 502.5,-110.5 502.5,-89.5 461.5,-89.5"/>
<text text-anchor="middle" x="482" y="-97.5" font-family="FreeSans" font-size="10.00">entry</text>
</a>
</g>
<!-- Node15&#45;&gt;Node16 -->
<g id="edge32" class="edge"><title>Node15&#45;&gt;Node16</title>
<path fill="none" stroke="midnightblue" d="M383.738,-100C409.951,-100 441.12,-100 461.215,-100"/>
<polygon fill="midnightblue" stroke="midnightblue" points="383.599,-96.5001 373.599,-100 383.599,-103.5 383.599,-96.5001"/>
</g>
<!-- Node17 -->
<g id="node34" class="node"><title>Node17</title>
<a xlink:href="cvm-hfa-pp_8c.html#adcc1149c628372e2e566c246870929cb" target="_top" xlink:title="infoentry">
<polygon fill="white" stroke="black" points="579.5,-108.5 579.5,-129.5 638.5,-129.5 638.5,-108.5 579.5,-108.5"/>
<text text-anchor="middle" x="609" y="-116.5" font-family="FreeSans" font-size="10.00">infoentry</text>
</a>
</g>
<!-- Node16&#45;&gt;Node17 -->
<g id="edge34" class="edge"><title>Node16&#45;&gt;Node17</title>
<path fill="none" stroke="midnightblue" d="M512.645,-104.585C532.883,-107.612 559.268,-111.56 579.309,-114.558"/>
<polygon fill="midnightblue" stroke="midnightblue" points="513.095,-101.113 502.687,-103.095 512.059,-108.036 513.095,-101.113"/>
</g>
<!-- Node18 -->
<g id="node36" class="node"><title>Node18</title>
<a xlink:href="ppdfa_8h.html#a81b3389c2c25a4ba308f71501f980e38" target="_top" xlink:title="pp">
<polygon fill="white" stroke="black" points="680.5,-109.5 680.5,-130.5 709.5,-130.5 709.5,-109.5 680.5,-109.5"/>
<text text-anchor="middle" x="695" y="-117.5" font-family="FreeSans" font-size="10.00">pp</text>
</a>
</g>
<!-- Node17&#45;&gt;Node18 -->
<g id="edge36" class="edge"><title>Node17&#45;&gt;Node18</title>
<path fill="none" stroke="midnightblue" d="M648.695,-119.462C659.877,-119.592 671.36,-119.725 680.094,-119.827"/>
<polygon fill="midnightblue" stroke="midnightblue" points="648.636,-115.961 638.596,-119.344 648.555,-122.96 648.636,-115.961"/>
</g>
<!-- Node19 -->
<g id="node38" class="node"><title>Node19</title>
<a xlink:href="cvm-hfa-search_8c.html#a6dbb15dc58155b2c94b19784ad42ef89" target="_top" xlink:title="This routine post&#45;processes the search results from the HFA engine and reports the pattern matches fo...">
<polygon fill="white" stroke="black" points="746.5,-119.5 746.5,-140.5 893.5,-140.5 893.5,-119.5 746.5,-119.5"/>
<text text-anchor="middle" x="820" y="-127.5" font-family="FreeSans" font-size="10.00">hfa_searchctx_getmatches</text>
</a>
</g>
<!-- Node18&#45;&gt;Node19 -->
<g id="edge38" class="edge"><title>Node18&#45;&gt;Node19</title>
<path fill="none" stroke="midnightblue" d="M719.986,-121.999C727.825,-122.626 736.914,-123.353 746.354,-124.108"/>
<polygon fill="midnightblue" stroke="midnightblue" points="720.077,-118.495 709.83,-121.186 719.519,-125.473 720.077,-118.495"/>
</g>
<!-- Node19&#45;&gt;Node6 -->
<g id="edge52" class="edge"><title>Node19&#45;&gt;Node6</title>
<path fill="none" stroke="midnightblue" d="M835.714,-148.4C855.632,-170.703 891.977,-208.134 930,-231 938.309,-235.997 947.868,-240.134 957.053,-243.456"/>
<polygon fill="midnightblue" stroke="midnightblue" points="838.143,-145.861 828.916,-140.654 832.882,-150.479 838.143,-145.861"/>
</g>
<!-- Node20 -->
<g id="node40" class="node"><title>Node20</title>
<a xlink:href="flow_8c.html#a2976ab60901b133a56214323fb901663" target="_top" xlink:title="Low level API to poll a flow.">
<polygon fill="white" stroke="black" points="930.5,-200.5 930.5,-221.5 1059.5,-221.5 1059.5,-200.5 930.5,-200.5"/>
<text text-anchor="middle" x="995" y="-208.5" font-family="FreeSans" font-size="10.00">__hfaf_process_pktflow</text>
</a>
</g>
<!-- Node19&#45;&gt;Node20 -->
<g id="edge40" class="edge"><title>Node19&#45;&gt;Node20</title>
<path fill="none" stroke="midnightblue" d="M845.24,-145.983C867.058,-159.309 899.76,-178.129 930,-191 938.256,-194.514 947.339,-197.705 956.03,-200.454"/>
<polygon fill="midnightblue" stroke="midnightblue" points="846.942,-142.92 836.595,-140.642 843.263,-148.875 846.942,-142.92"/>
</g>
<!-- Node26 -->
<g id="node53" class="node"><title>Node26</title>
<a xlink:href="hfa-lnx-ctx_8c.html#a71e1d3d18cc48b90a1ecde583ffb3f7a" target="_top" xlink:title="poll_searchctx">
<polygon fill="white" stroke="black" points="952,-160.5 952,-181.5 1038,-181.5 1038,-160.5 952,-160.5"/>
<text text-anchor="middle" x="995" y="-168.5" font-family="FreeSans" font-size="10.00">poll_searchctx</text>
</a>
</g>
<!-- Node19&#45;&gt;Node26 -->
<g id="edge54" class="edge"><title>Node19&#45;&gt;Node26</title>
<path fill="none" stroke="midnightblue" d="M875.061,-142.9C899.859,-148.71 928.707,-155.469 951.896,-160.901"/>
<polygon fill="midnightblue" stroke="midnightblue" points="875.602,-139.432 865.067,-140.559 874.005,-146.247 875.602,-139.432"/>
</g>
<!-- Node29 -->
<g id="node59" class="node"><title>Node29</title>
<a xlink:href="hfa-lnx-linkgraph_8c.html#a78ffddbcd7cdd164889cfb53ea367886" target="_top" xlink:title="entry">
<polygon fill="white" stroke="black" points="974.5,-120.5 974.5,-141.5 1015.5,-141.5 1015.5,-120.5 974.5,-120.5"/>
<text text-anchor="middle" x="995" y="-128.5" font-family="FreeSans" font-size="10.00">entry</text>
</a>
</g>
<!-- Node19&#45;&gt;Node29 -->
<g id="edge60" class="edge"><title>Node19&#45;&gt;Node29</title>
<path fill="none" stroke="midnightblue" d="M903.738,-130.479C930.018,-130.629 956.75,-130.781 974.431,-130.882"/>
<polygon fill="midnightblue" stroke="midnightblue" points="903.728,-126.978 893.709,-130.421 903.688,-133.978 903.728,-126.978"/>
</g>
<!-- Node30 -->
<g id="node61" class="node"><title>Node30</title>
<a xlink:href="hfa-lnx-nctx-lock_8c.html#adb0c831ef0f9af5441a6769c377d9c95" target="_top" xlink:title="Post process the results from HFA and record found matches.">
<polygon fill="white" stroke="black" points="955,-80.5 955,-101.5 1035,-101.5 1035,-80.5 955,-80.5"/>
<text text-anchor="middle" x="995" y="-88.5" font-family="FreeSans" font-size="10.00">post_process</text>
</a>
</g>
<!-- Node19&#45;&gt;Node30 -->
<g id="edge62" class="edge"><title>Node19&#45;&gt;Node30</title>
<path fill="none" stroke="midnightblue" d="M877.217,-117.249C902.548,-111.604 931.741,-105.098 954.726,-99.9753"/>
<polygon fill="midnightblue" stroke="midnightblue" points="876.357,-113.855 867.358,-119.446 877.879,-120.687 876.357,-113.855"/>
</g>
<!-- Node33 -->
<g id="node68" class="node"><title>Node33</title>
<a xlink:href="hfa-se-async_8c.html#a3c04138a5bfe5d72780bb7e82a18e627" target="_top" xlink:title="main">
<polygon fill="white" stroke="black" points="975,-40.5 975,-61.5 1015,-61.5 1015,-40.5 975,-40.5"/>
<text text-anchor="middle" x="995" y="-48.5" font-family="FreeSans" font-size="10.00">main</text>
</a>
</g>
<!-- Node19&#45;&gt;Node33 -->
<g id="edge70" class="edge"><title>Node19&#45;&gt;Node33</title>
<path fill="none" stroke="midnightblue" d="M846.079,-114.148C867.936,-101.324 900.252,-83.4165 930,-71 944.6,-64.906 961.725,-59.7119 974.731,-56.1453"/>
<polygon fill="midnightblue" stroke="midnightblue" points="844.206,-111.19 837.391,-119.303 847.777,-117.211 844.206,-111.19"/>
</g>
<!-- Node34 -->
<g id="node70" class="node"><title>Node34</title>
<a xlink:href="hfa-se-wqe-lock_8c.html#a06b5fcfab0e1d5eb36b633ec080ad7f9" target="_top" xlink:title="Process search for given contexts.">
<polygon fill="white" stroke="black" points="955,-0.5 955,-21.5 1035,-21.5 1035,-0.5 955,-0.5"/>
<text text-anchor="middle" x="995" y="-8.5" font-family="FreeSans" font-size="10.00">process_nctx</text>
</a>
</g>
<!-- Node19&#45;&gt;Node34 -->
<g id="edge72" class="edge"><title>Node19&#45;&gt;Node34</title>
<path fill="none" stroke="midnightblue" d="M835.639,-111.723C855.48,-89.6176 891.748,-52.6817 930,-31 937.601,-26.6917 946.239,-23.203 954.679,-20.42"/>
<polygon fill="midnightblue" stroke="midnightblue" points="832.854,-109.59 828.869,-119.407 838.106,-114.218 832.854,-109.59"/>
</g>
<!-- Node21 -->
<g id="node42" class="node"><title>Node21</title>
<a xlink:href="flow_8h.html#ab1b3378af88a440a6c3c0851be942e65" target="_top" xlink:title="All submitted search parameters in Paramlist of flow are polled If low level API __hfaf_process_pktfl...">
<polygon fill="white" stroke="black" points="1096.5,-200.5 1096.5,-221.5 1215.5,-221.5 1215.5,-200.5 1096.5,-200.5"/>
<text text-anchor="middle" x="1156" y="-208.5" font-family="FreeSans" font-size="10.00">hfaf_process_pktflow</text>
</a>
</g>
<!-- Node20&#45;&gt;Node21 -->
<g id="edge42" class="edge"><title>Node20&#45;&gt;Node21</title>
<path fill="none" stroke="midnightblue" d="M1069.62,-211C1078.59,-211 1087.66,-211 1096.38,-211"/>
<polygon fill="midnightblue" stroke="midnightblue" points="1069.56,-207.5 1059.56,-211 1069.56,-214.5 1069.56,-207.5"/>
</g>
<!-- Node22 -->
<g id="node44" class="node"><title>Node22</title>
<a xlink:href="hfa-se-flow_8c.html#a2d83c733eacd7afc955c3af18edcb52a" target="_top" xlink:title="Polls for a submitted search instruction of a flow.">
<polygon fill="white" stroke="black" points="1255.5,-200.5 1255.5,-221.5 1340.5,-221.5 1340.5,-200.5 1255.5,-200.5"/>
<text text-anchor="middle" x="1298" y="-208.5" font-family="FreeSans" font-size="10.00">__processflow</text>
</a>
</g>
<!-- Node21&#45;&gt;Node22 -->
<g id="edge44" class="edge"><title>Node21&#45;&gt;Node22</title>
<path fill="none" stroke="midnightblue" d="M1226.08,-211C1235.98,-211 1245.9,-211 1255.08,-211"/>
<polygon fill="midnightblue" stroke="midnightblue" points="1225.81,-207.5 1215.81,-211 1225.81,-214.5 1225.81,-207.5"/>
</g>
<!-- Node23 -->
<g id="node46" class="node"><title>Node23</title>
<a xlink:href="hfa-se-flow_8c.html#a786591694a8f8fb46cedbc8a580c88f6" target="_top" xlink:title="Submitting or Polling flows from the software recently used cache IF Cache is empty, it tries to refill it.">
<polygon fill="white" stroke="black" points="1380.5,-200.5 1380.5,-221.5 1443.5,-221.5 1443.5,-200.5 1380.5,-200.5"/>
<text text-anchor="middle" x="1412" y="-208.5" font-family="FreeSans" font-size="10.00">do_cache</text>
</a>
</g>
<!-- Node22&#45;&gt;Node23 -->
<g id="edge46" class="edge"><title>Node22&#45;&gt;Node23</title>
<path fill="none" stroke="midnightblue" d="M1350.78,-211C1360.9,-211 1371.2,-211 1380.39,-211"/>
<polygon fill="midnightblue" stroke="midnightblue" points="1350.77,-207.5 1340.77,-211 1350.77,-214.5 1350.77,-207.5"/>
</g>
<!-- Node24 -->
<g id="node48" class="node"><title>Node24</title>
<a xlink:href="hfa-se-flow_8c.html#aba72a61590283e37ffd78b4defd38220" target="_top" xlink:title="Receive network packets and process.">
<polygon fill="white" stroke="black" points="1480,-200.5 1480,-221.5 1576,-221.5 1576,-200.5 1480,-200.5"/>
<text text-anchor="middle" x="1528" y="-208.5" font-family="FreeSans" font-size="10.00">process_packets</text>
</a>
</g>
<!-- Node23&#45;&gt;Node24 -->
<g id="edge48" class="edge"><title>Node23&#45;&gt;Node24</title>
<path fill="none" stroke="midnightblue" d="M1453.71,-211C1462.17,-211 1471.13,-211 1479.79,-211"/>
<polygon fill="midnightblue" stroke="midnightblue" points="1453.7,-207.5 1443.7,-211 1453.7,-214.5 1453.7,-207.5"/>
</g>
<!-- Node25 -->
<g id="node50" class="node"><title>Node25</title>
<a xlink:href="hfa-se-flow-wqe_8c.html#a3c04138a5bfe5d72780bb7e82a18e627" target="_top" xlink:title="Implementation.">
<polygon fill="white" stroke="black" points="1612,-200.5 1612,-221.5 1652,-221.5 1652,-200.5 1612,-200.5"/>
<text text-anchor="middle" x="1632" y="-208.5" font-family="FreeSans" font-size="10.00">main</text>
</a>
</g>
<!-- Node24&#45;&gt;Node25 -->
<g id="edge50" class="edge"><title>Node24&#45;&gt;Node25</title>
<path fill="none" stroke="midnightblue" d="M1586.15,-211C1595.41,-211 1604.42,-211 1611.96,-211"/>
<polygon fill="midnightblue" stroke="midnightblue" points="1586.04,-207.5 1576.04,-211 1586.04,-214.5 1586.04,-207.5"/>
</g>
<!-- Node27 -->
<g id="node55" class="node"><title>Node27</title>
<a xlink:href="hfa-lnx-ctx_8c.html#a934a9fc08c4aab25d6f0d861e4a4f762" target="_top" xlink:title="poll">
<polygon fill="white" stroke="black" points="1139.5,-160.5 1139.5,-181.5 1172.5,-181.5 1172.5,-160.5 1139.5,-160.5"/>
<text text-anchor="middle" x="1156" y="-168.5" font-family="FreeSans" font-size="10.00">poll</text>
</a>
</g>
<!-- Node26&#45;&gt;Node27 -->
<g id="edge56" class="edge"><title>Node26&#45;&gt;Node27</title>
<path fill="none" stroke="midnightblue" d="M1048.2,-171C1079.95,-171 1118.13,-171 1139.48,-171"/>
<polygon fill="midnightblue" stroke="midnightblue" points="1048.15,-167.5 1038.15,-171 1048.15,-174.5 1048.15,-167.5"/>
</g>
<!-- Node28 -->
<g id="node57" class="node"><title>Node28</title>
<a xlink:href="hfa-lnx-ctx_8c.html#a97df0ba8293c1b8436547946fd9d0d17" target="_top" xlink:title="process_pkt">
<polygon fill="white" stroke="black" points="1261,-160.5 1261,-181.5 1335,-181.5 1335,-160.5 1261,-160.5"/>
<text text-anchor="middle" x="1298" y="-168.5" font-family="FreeSans" font-size="10.00">process_pkt</text>
</a>
</g>
<!-- Node27&#45;&gt;Node28 -->
<g id="edge58" class="edge"><title>Node27&#45;&gt;Node28</title>
<path fill="none" stroke="midnightblue" d="M1182.86,-171C1204.91,-171 1236.38,-171 1260.84,-171"/>
<polygon fill="midnightblue" stroke="midnightblue" points="1182.57,-167.5 1172.57,-171 1182.57,-174.5 1182.57,-167.5"/>
</g>
<!-- Node31 -->
<g id="node63" class="node"><title>Node31</title>
<a xlink:href="hfa-lnx-nctx-lock_8c.html#a48d3743fb7abc7d3c6b68359678e52a1" target="_top" xlink:title="Poll for the pending search instructions in the HW (blocked till instruction completes) and process t...">
<polygon fill="white" stroke="black" points="1139.5,-100.5 1139.5,-121.5 1172.5,-121.5 1172.5,-100.5 1139.5,-100.5"/>
<text text-anchor="middle" x="1156" y="-108.5" font-family="FreeSans" font-size="10.00">poll</text>
</a>
</g>
<!-- Node30&#45;&gt;Node31 -->
<g id="edge64" class="edge"><title>Node30&#45;&gt;Node31</title>
<path fill="none" stroke="midnightblue" d="M1045.36,-97.2562C1077.54,-101.253 1117.22,-106.183 1139.25,-108.919"/>
<polygon fill="midnightblue" stroke="midnightblue" points="1045.57,-93.7548 1035.21,-95.9953 1044.7,-100.701 1045.57,-93.7548"/>
</g>
<!-- Node32 -->
<g id="node65" class="node"><title>Node32</title>
<a xlink:href="hfa-lnx-nctx-lock_8c.html#a972f8b60ef804914c009c2ef85bac50e" target="_top" xlink:title="Performs search process for each core.">
<polygon fill="white" stroke="black" points="1252,-81.5 1252,-102.5 1344,-102.5 1344,-81.5 1252,-81.5"/>
<text text-anchor="middle" x="1298" y="-89.5" font-family="FreeSans" font-size="10.00">process_search</text>
</a>
</g>
<!-- Node30&#45;&gt;Node32 -->
<g id="edge68" class="edge"><title>Node30&#45;&gt;Node32</title>
<path fill="none" stroke="midnightblue" d="M1045.37,-90.8253C1090.17,-90.7116 1157.45,-90.643 1216,-91 1227.53,-91.0703 1239.98,-91.1962 1251.6,-91.3356"/>
<polygon fill="midnightblue" stroke="midnightblue" points="1045.32,-87.3253 1035.33,-90.8525 1045.34,-94.3253 1045.32,-87.3253"/>
</g>
<!-- Node31&#45;&gt;Node32 -->
<g id="edge66" class="edge"><title>Node31&#45;&gt;Node32</title>
<path fill="none" stroke="midnightblue" d="M1182.53,-107.45C1201.98,-104.848 1228.88,-101.249 1251.82,-98.1794"/>
<polygon fill="midnightblue" stroke="midnightblue" points="1182.01,-103.988 1172.57,-108.783 1182.94,-110.926 1182.01,-103.988"/>
</g>
<!-- Node35 -->
<g id="node72" class="node"><title>Node35</title>
<a xlink:href="hfa-se-wqe-lock_8c.html#a3c04138a5bfe5d72780bb7e82a18e627" target="_top" xlink:title="main">
<polygon fill="white" stroke="black" points="1136,-0.5 1136,-21.5 1176,-21.5 1176,-0.5 1136,-0.5"/>
<text text-anchor="middle" x="1156" y="-8.5" font-family="FreeSans" font-size="10.00">main</text>
</a>
</g>
<!-- Node34&#45;&gt;Node35 -->
<g id="edge74" class="edge"><title>Node34&#45;&gt;Node35</title>
<path fill="none" stroke="midnightblue" d="M1045.3,-11C1075.9,-11 1113.31,-11 1135.87,-11"/>
<polygon fill="midnightblue" stroke="midnightblue" points="1045.21,-7.5001 1035.21,-11 1045.21,-14.5001 1045.21,-7.5001"/>
</g>
</g>
</svg>
        <g id="navigator" transform="translate(0 0)" fill="#404254">
                <rect fill="#f2f5e9" fill-opacity="0.5" stroke="#606060" stroke-width=".5" x="0" y="0" width="60" height="60"/>
                <use id="zoomplus" xlink:href="#zoomPlus" x="17" y="9" onmousedown="handleZoom(evt,'in')"/>
                <use id="zoomminus" xlink:href="#zoomMin" x="42" y="9" onmousedown="handleZoom(evt,'out')"/>
                <use id="reset" xlink:href="#resetDef" x="30" y="36" onmousedown="handleReset()"/>
                <g id="arrowUp" xlink:href="#dirArrow" transform="translate(30 24)" onmousedown="handlePan(0,-1)">
                  <use xlink:href="#rim" fill="#404040">
                        <set attributeName="fill" to="#808080" begin="arrowUp.mouseover" end="arrowUp.mouseout"/>
                  </use>
                  <path fill="none" stroke="white" stroke-width="1.5" d="M0,-3.0v7 M-2.5,-0.5L0,-3.0L2.5,-0.5"/>
                </g>
                <g id="arrowRight" xlink:href="#dirArrow" transform="rotate(90) translate(36 -43)" onmousedown="handlePan(1,0)">
                  <use xlink:href="#rim" fill="#404040">
                        <set attributeName="fill" to="#808080" begin="arrowRight.mouseover" end="arrowRight.mouseout"/>
                  </use>
                  <path fill="none" stroke="white" stroke-width="1.5" d="M0,-3.0v7 M-2.5,-0.5L0,-3.0L2.5,-0.5"/>
                </g>
                <g id="arrowDown" xlink:href="#dirArrow" transform="rotate(180) translate(-30 -48)" onmousedown="handlePan(0,1)">
                  <use xlink:href="#rim" fill="#404040">
                        <set attributeName="fill" to="#808080" begin="arrowDown.mouseover" end="arrowDown.mouseout"/>
                  </use>
                  <path fill="none" stroke="white" stroke-width="1.5" d="M0,-3.0v7 M-2.5,-0.5L0,-3.0L2.5,-0.5"/>
                </g>
                <g id="arrowLeft" xlink:href="#dirArrow" transform="rotate(270) translate(-36 17)" onmousedown="handlePan(-1,0)">
                  <use xlink:href="#rim" fill="#404040">
                        <set attributeName="fill" to="#808080" begin="arrowLeft.mouseover" end="arrowLeft.mouseout"/>
                  </use>
                  <path fill="none" stroke="white" stroke-width="1.5" d="M0,-3.0v7 M-2.5,-0.5L0,-3.0L2.5,-0.5"/>
                </g>
        </g>
        <svg viewBox="0 0 15 15" width="100%" height="30px" preserveAspectRatio="xMaxYMin meet">
         <g id="arrow_out" transform="scale(0.3 0.3)">
          <a xlink:href="cvm-hfa-pp_8c_a73cd0d7244d64410753dac7b809d2060_icgraph_org.svg" target="_base">
           <rect id="button" ry="5" rx="5" y="6" x="6" height="38" width="38"
                fill="#f2f5e9" fill-opacity="0.5" stroke="#606060" stroke-width="1.0"/>
           <path id="arrow"
             d="M 11.500037,31.436501 C 11.940474,20.09759 22.043105,11.32322 32.158766,21.979434 L 37.068811,17.246167 C 37.068811,17.246167 37.088388,32 37.088388,32 L 22.160133,31.978069 C 22.160133,31.978069 26.997745,27.140456 26.997745,27.140456 C 18.528582,18.264221 13.291696,25.230495 11.500037,31.436501 z"
             style="fill:#404040;"/>
          </a>
         </g>
        </svg>
</svg>
