<?xml version="1.0" encoding="UTF-8" standalone="no"?>
<!DOCTYPE svg PUBLIC "-//W3C//DTD SVG 1.1//EN"
 "http://www.w3.org/Graphics/SVG/1.1/DTD/svg11.dtd">
<!-- Generated by graphviz version 2.24.0 (20090616.2323)
 -->
<!-- Title: hfa_searchctx_setgraph Pages: 1 -->
<!--zoomable 317 -->
<svg id="main" version="1.1" xmlns="http://www.w3.org/2000/svg" xmlns:xlink="http://www.w3.org/1999/xlink" xml:space="preserve" onload="init(evt)">
        <defs>
                <circle id="rim" cx="0" cy="0" r="7"/>
                <circle id="rim2" cx="0" cy="0" r="3.5"/>
                <g id="zoomPlus">
                        <use xlink:href="#rim" fill="#404040">
                                <set attributeName="fill" to="#808080" begin="zoomplus.mouseover" end="zoomplus.mouseout"/>
                        </use>
                        <path d="M-4,0h8M0,-4v8" fill="none" stroke="white" stroke-width="1.5" pointer-events="none"/>
                </g>
                <g id="zoomMin">
                        <use xlink:href="#rim" fill="#404040">
                                <set attributeName="fill" to="#808080" begin="zoomminus.mouseover" end="zoomminus.mouseout"/>
                        </use>
                        <path d="M-4,0h8" fill="none" stroke="white" stroke-width="1.5" pointer-events="none"/>
                </g>
                <g id="dirArrow">
                        <path fill="none" stroke="white" stroke-width="1.5" d="M0,-3.0v7 M-2.5,-0.5L0,-3.0L2.5,-0.5"/>
                </g>
               <g id="resetDef">
                       <use xlink:href="#rim2" fill="#404040">
                               <set attributeName="fill" to="#808080" begin="reset.mouseover" end="reset.mouseout"/>
                       </use>
               </g>
        </defs>

<script type="text/javascript">
var viewWidth = 1546;
var viewHeight = 317;
var sectionId = 'dynsection-22';
</script>
<script xlink:href="svgpan.js"/>
<svg id="graph" class="graph">
<g id="viewport">
<title>hfa_searchctx_setgraph</title>
<polygon fill="white" stroke="white" points="-4,5 -4,-313 1543,-313 1543,5 -4,5"/>
<!-- Node1 -->
<g id="node1" class="node"><title>Node1</title>
<polygon fill="#bfbfbf" stroke="black" points="0,-189.5 0,-210.5 132,-210.5 132,-189.5 0,-189.5"/>
<text text-anchor="middle" x="66" y="-197.5" font-family="FreeSans" font-size="10.00">hfa_searchctx_setgraph</text>
</g>
<!-- Node2 -->
<g id="node3" class="node"><title>Node2</title>
<a xlink:href="flow_8c.html#a28378e8a6f53ff0e87f2e688d1c21834" target="_top" xlink:title="Low level API to create a flow Allocate Flow, Intialize searchctx, set graph and setflags,.">
<polygon fill="white" stroke="black" points="168.5,-287.5 168.5,-308.5 275.5,-308.5 275.5,-287.5 168.5,-287.5"/>
<text text-anchor="middle" x="222" y="-295.5" font-family="FreeSans" font-size="10.00">__hfaf_create_flow</text>
</a>
</g>
<!-- Node1&#45;&gt;Node2 -->
<g id="edge2" class="edge"><title>Node1&#45;&gt;Node2</title>
<path fill="none" stroke="midnightblue" d="M86.8538,-216.701C106.938,-232.348 138.527,-255.835 168,-273 177.017,-278.251 187.324,-283.25 196.5,-287.379"/>
<polygon fill="midnightblue" stroke="midnightblue" points="89.0143,-213.947 78.9906,-210.516 84.6867,-219.449 89.0143,-213.947"/>
</g>
<!-- Node5 -->
<g id="node9" class="node"><title>Node5</title>
<a xlink:href="hfa-lnx-async_8c.html#a972f8b60ef804914c009c2ef85bac50e" target="_top" xlink:title="Process search for given payload and graph.">
<polygon fill="white" stroke="black" points="835,-243.5 835,-264.5 927,-264.5 927,-243.5 835,-243.5"/>
<text text-anchor="middle" x="881" y="-251.5" font-family="FreeSans" font-size="10.00">process_search</text>
</a>
</g>
<!-- Node1&#45;&gt;Node5 -->
<g id="edge8" class="edge"><title>Node1&#45;&gt;Node5</title>
<path fill="none" stroke="midnightblue" d="M96.8803,-214.722C116.741,-223.529 143.355,-234.12 168,-240 254.851,-260.723 278.711,-259 368,-259 368,-259 368,-259 581,-259 670.856,-259 775.83,-256.73 834.75,-255.249"/>
<polygon fill="midnightblue" stroke="midnightblue" points="98.2644,-211.507 87.711,-210.57 95.377,-217.884 98.2644,-211.507"/>
</g>
<!-- Node9 -->
<g id="node18" class="node"><title>Node9</title>
<a xlink:href="hfa-lnx-ctx_8c.html#a6926aada806433e15eae2c50298b4aa9" target="_top" xlink:title="createctx">
<polygon fill="white" stroke="black" points="191,-209.5 191,-230.5 253,-230.5 253,-209.5 191,-209.5"/>
<text text-anchor="middle" x="222" y="-217.5" font-family="FreeSans" font-size="10.00">createctx</text>
</a>
</g>
<!-- Node1&#45;&gt;Node9 -->
<g id="edge18" class="edge"><title>Node1&#45;&gt;Node9</title>
<path fill="none" stroke="midnightblue" d="M142.277,-209.779C159.528,-211.991 176.892,-214.217 190.99,-216.024"/>
<polygon fill="midnightblue" stroke="midnightblue" points="142.522,-206.282 132.158,-208.482 141.632,-213.225 142.522,-206.282"/>
</g>
<!-- Node11 -->
<g id="node22" class="node"><title>Node11</title>
<a xlink:href="hfa-lnx-linkgraph_8c.html#a6604748091c732cb29568c12d0f77b4e" target="_top" xlink:title="Initialize search ctx for each subgraph.">
<polygon fill="white" stroke="black" points="184,-169.5 184,-190.5 260,-190.5 260,-169.5 184,-169.5"/>
<text text-anchor="middle" x="222" y="-177.5" font-family="FreeSans" font-size="10.00">Initialize_Ctx</text>
</a>
</g>
<!-- Node1&#45;&gt;Node11 -->
<g id="edge22" class="edge"><title>Node1&#45;&gt;Node11</title>
<path fill="none" stroke="midnightblue" d="M142.123,-190.241C156.573,-188.388 171.108,-186.525 183.744,-184.905"/>
<polygon fill="midnightblue" stroke="midnightblue" points="141.632,-186.775 132.158,-191.518 142.522,-193.718 141.632,-186.775"/>
</g>
<!-- Node12 -->
<g id="node24" class="node"><title>Node12</title>
<a xlink:href="hfa-lnx-nctx-lock_8c.html#a2c813b2ff20c5bf67f487908476604d6" target="_top" xlink:title="Initialize search context object for nctxts and a global list to track nctxts.">
<polygon fill="white" stroke="black" points="172.5,-129.5 172.5,-150.5 271.5,-150.5 271.5,-129.5 172.5,-129.5"/>
<text text-anchor="middle" x="222" y="-137.5" font-family="FreeSans" font-size="10.00">initialize_ctx_glist</text>
</a>
</g>
<!-- Node1&#45;&gt;Node12 -->
<g id="edge24" class="edge"><title>Node1&#45;&gt;Node12</title>
<path fill="none" stroke="midnightblue" d="M102.196,-185.612C121.663,-177.923 146.105,-168.347 168,-160 176.127,-156.902 184.967,-153.599 193.097,-150.59"/>
<polygon fill="midnightblue" stroke="midnightblue" points="100.802,-182.4 92.7908,-189.333 103.377,-188.909 100.802,-182.4"/>
</g>
<!-- Node14 -->
<g id="node28" class="node"><title>Node14</title>
<a xlink:href="hfa-lnx_8c.html#a924d2733ebc7a856f8c3fd293193ba44" target="_top" xlink:title="Initialize search context.">
<polygon fill="white" stroke="black" points="184.5,-89.5 184.5,-110.5 259.5,-110.5 259.5,-89.5 184.5,-89.5"/>
<text text-anchor="middle" x="222" y="-97.5" font-family="FreeSans" font-size="10.00">initialize_ctx</text>
</a>
</g>
<!-- Node1&#45;&gt;Node14 -->
<g id="edge28" class="edge"><title>Node1&#45;&gt;Node14</title>
<path fill="none" stroke="midnightblue" d="M84.6493,-182.432C104.186,-164.768 136.376,-137.685 168,-120 174.37,-116.438 181.498,-113.281 188.433,-110.588"/>
<polygon fill="midnightblue" stroke="midnightblue" points="82.09,-180.031 77.09,-189.372 86.8237,-185.188 82.09,-180.031"/>
</g>
<!-- Node3 -->
<g id="node5" class="node"><title>Node3</title>
<a xlink:href="flow_8h.html#abdb62c6f71f5ca9ecddc66c90166d37b" target="_top" xlink:title="Create Packet Flow in Flowdb.">
<polygon fill="white" stroke="black" points="312.5,-287.5 312.5,-308.5 423.5,-308.5 423.5,-287.5 312.5,-287.5"/>
<text text-anchor="middle" x="368" y="-295.5" font-family="FreeSans" font-size="10.00">hfaf_create_pktflow</text>
</a>
</g>
<!-- Node2&#45;&gt;Node3 -->
<g id="edge4" class="edge"><title>Node2&#45;&gt;Node3</title>
<path fill="none" stroke="midnightblue" d="M285.707,-298C294.468,-298 303.411,-298 312.019,-298"/>
<polygon fill="midnightblue" stroke="midnightblue" points="285.536,-294.5 275.536,-298 285.536,-301.5 285.536,-294.5"/>
</g>
<!-- Node4 -->
<g id="node7" class="node"><title>Node4</title>
<a xlink:href="hfa-se-flow-wqe_8c.html#a6d3e23d8f7a3aaf1b0d6e350b7631a0e" target="_top" xlink:title="Get flow pointer from Flow database, If flow ptr is NULL then create at runtime.">
<polygon fill="white" stroke="black" points="460.5,-287.5 460.5,-308.5 529.5,-308.5 529.5,-287.5 460.5,-287.5"/>
<text text-anchor="middle" x="495" y="-295.5" font-family="FreeSans" font-size="10.00">get_flowptr</text>
</a>
</g>
<!-- Node3&#45;&gt;Node4 -->
<g id="edge6" class="edge"><title>Node3&#45;&gt;Node4</title>
<path fill="none" stroke="midnightblue" d="M433.924,-298C442.986,-298 451.982,-298 460.172,-298"/>
<polygon fill="midnightblue" stroke="midnightblue" points="433.704,-294.5 423.704,-298 433.704,-301.5 433.704,-294.5"/>
</g>
<!-- Node6 -->
<g id="node11" class="node"><title>Node6</title>
<a xlink:href="hfa-lnx-async_8c.html#a1e97b1d598034fdc92d57054a6c386e6" target="_top" xlink:title="tasklet_callback">
<polygon fill="white" stroke="black" points="996,-281.5 996,-302.5 1088,-302.5 1088,-281.5 996,-281.5"/>
<text text-anchor="middle" x="1042" y="-289.5" font-family="FreeSans" font-size="10.00">tasklet_callback</text>
</a>
</g>
<!-- Node5&#45;&gt;Node6 -->
<g id="edge10" class="edge"><title>Node5&#45;&gt;Node6</title>
<path fill="none" stroke="midnightblue" d="M935.79,-266.932C955.862,-271.669 978.318,-276.97 997.393,-281.472"/>
<polygon fill="midnightblue" stroke="midnightblue" points="936.384,-263.476 925.847,-264.585 934.776,-270.289 936.384,-263.476"/>
</g>
<!-- Node8 -->
<g id="node15" class="node"><title>Node8</title>
<a xlink:href="hfa-lnx-async_8c.html#a7dea7d59754828b1173c4c7ec5d42f3e" target="_top" xlink:title="thread_callback">
<polygon fill="white" stroke="black" points="996,-241.5 996,-262.5 1088,-262.5 1088,-241.5 996,-241.5"/>
<text text-anchor="middle" x="1042" y="-249.5" font-family="FreeSans" font-size="10.00">thread_callback</text>
</a>
</g>
<!-- Node5&#45;&gt;Node8 -->
<g id="edge14" class="edge"><title>Node5&#45;&gt;Node8</title>
<path fill="none" stroke="midnightblue" d="M937.242,-253.301C956.401,-253.063 977.583,-252.8 995.857,-252.573"/>
<polygon fill="midnightblue" stroke="midnightblue" points="937.092,-249.803 927.136,-253.427 937.179,-256.802 937.092,-249.803"/>
</g>
<!-- Node7 -->
<g id="node13" class="node"><title>Node7</title>
<a xlink:href="hfa-lnx-async_8c.html#a78ffddbcd7cdd164889cfb53ea367886" target="_top" xlink:title="entry">
<polygon fill="white" stroke="black" points="1163.5,-241.5 1163.5,-262.5 1204.5,-262.5 1204.5,-241.5 1163.5,-241.5"/>
<text text-anchor="middle" x="1184" y="-249.5" font-family="FreeSans" font-size="10.00">entry</text>
</a>
</g>
<!-- Node6&#45;&gt;Node7 -->
<g id="edge12" class="edge"><title>Node6&#45;&gt;Node7</title>
<path fill="none" stroke="midnightblue" d="M1089.04,-278.751C1114.15,-271.677 1143.79,-263.327 1163.2,-257.861"/>
<polygon fill="midnightblue" stroke="midnightblue" points="1087.99,-275.41 1079.31,-281.49 1089.88,-282.148 1087.99,-275.41"/>
</g>
<!-- Node8&#45;&gt;Node7 -->
<g id="edge16" class="edge"><title>Node8&#45;&gt;Node7</title>
<path fill="none" stroke="midnightblue" d="M1098.15,-252C1121.17,-252 1146.37,-252 1163.48,-252"/>
<polygon fill="midnightblue" stroke="midnightblue" points="1098.1,-248.5 1088.1,-252 1098.1,-255.5 1098.1,-248.5"/>
</g>
<!-- Node10 -->
<g id="node20" class="node"><title>Node10</title>
<a xlink:href="hfa-lnx-ctx_8c.html#a78ffddbcd7cdd164889cfb53ea367886" target="_top" xlink:title="entry">
<polygon fill="white" stroke="black" points="347.5,-209.5 347.5,-230.5 388.5,-230.5 388.5,-209.5 347.5,-209.5"/>
<text text-anchor="middle" x="368" y="-217.5" font-family="FreeSans" font-size="10.00">entry</text>
</a>
</g>
<!-- Node9&#45;&gt;Node10 -->
<g id="edge20" class="edge"><title>Node9&#45;&gt;Node10</title>
<path fill="none" stroke="midnightblue" d="M263.388,-220C290.699,-220 325.327,-220 347.081,-220"/>
<polygon fill="midnightblue" stroke="midnightblue" points="263.321,-216.5 253.321,-220 263.321,-223.5 263.321,-216.5"/>
</g>
<!-- Node13 -->
<g id="node26" class="node"><title>Node13</title>
<a xlink:href="hfa-lnx-nctx-lock_8c.html#a78ffddbcd7cdd164889cfb53ea367886" target="_top" xlink:title="entry">
<polygon fill="white" stroke="black" points="347.5,-129.5 347.5,-150.5 388.5,-150.5 388.5,-129.5 347.5,-129.5"/>
<text text-anchor="middle" x="368" y="-137.5" font-family="FreeSans" font-size="10.00">entry</text>
</a>
</g>
<!-- Node12&#45;&gt;Node13 -->
<g id="edge26" class="edge"><title>Node12&#45;&gt;Node13</title>
<path fill="none" stroke="midnightblue" d="M281.986,-140C305.188,-140 330.203,-140 347.242,-140"/>
<polygon fill="midnightblue" stroke="midnightblue" points="281.837,-136.5 271.837,-140 281.837,-143.5 281.837,-136.5"/>
</g>
<!-- Node15 -->
<g id="node30" class="node"><title>Node15</title>
<a xlink:href="hfa-lnx_8c.html#a78ffddbcd7cdd164889cfb53ea367886" target="_top" xlink:title="entry">
<polygon fill="white" stroke="black" points="347.5,-89.5 347.5,-110.5 388.5,-110.5 388.5,-89.5 347.5,-89.5"/>
<text text-anchor="middle" x="368" y="-97.5" font-family="FreeSans" font-size="10.00">entry</text>
</a>
</g>
<!-- Node14&#45;&gt;Node15 -->
<g id="edge30" class="edge"><title>Node14&#45;&gt;Node15</title>
<path fill="none" stroke="midnightblue" d="M269.738,-100C295.951,-100 327.12,-100 347.215,-100"/>
<polygon fill="midnightblue" stroke="midnightblue" points="269.599,-96.5001 259.599,-100 269.599,-103.5 269.599,-96.5001"/>
</g>
<!-- Node16 -->
<g id="node32" class="node"><title>Node16</title>
<a xlink:href="cvm-hfa-pp_8c.html#adcc1149c628372e2e566c246870929cb" target="_top" xlink:title="infoentry">
<polygon fill="white" stroke="black" points="465.5,-108.5 465.5,-129.5 524.5,-129.5 524.5,-108.5 465.5,-108.5"/>
<text text-anchor="middle" x="495" y="-116.5" font-family="FreeSans" font-size="10.00">infoentry</text>
</a>
</g>
<!-- Node15&#45;&gt;Node16 -->
<g id="edge32" class="edge"><title>Node15&#45;&gt;Node16</title>
<path fill="none" stroke="midnightblue" d="M398.645,-104.585C418.883,-107.612 445.268,-111.56 465.309,-114.558"/>
<polygon fill="midnightblue" stroke="midnightblue" points="399.095,-101.113 388.687,-103.095 398.059,-108.036 399.095,-101.113"/>
</g>
<!-- Node17 -->
<g id="node34" class="node"><title>Node17</title>
<a xlink:href="ppdfa_8h.html#a81b3389c2c25a4ba308f71501f980e38" target="_top" xlink:title="pp">
<polygon fill="white" stroke="black" points="566.5,-109.5 566.5,-130.5 595.5,-130.5 595.5,-109.5 566.5,-109.5"/>
<text text-anchor="middle" x="581" y="-117.5" font-family="FreeSans" font-size="10.00">pp</text>
</a>
</g>
<!-- Node16&#45;&gt;Node17 -->
<g id="edge34" class="edge"><title>Node16&#45;&gt;Node17</title>
<path fill="none" stroke="midnightblue" d="M534.695,-119.462C545.877,-119.592 557.36,-119.725 566.094,-119.827"/>
<polygon fill="midnightblue" stroke="midnightblue" points="534.636,-115.961 524.596,-119.344 534.555,-122.96 534.636,-115.961"/>
</g>
<!-- Node18 -->
<g id="node36" class="node"><title>Node18</title>
<a xlink:href="cvm-hfa-search_8c.html#a6dbb15dc58155b2c94b19784ad42ef89" target="_top" xlink:title="This routine post&#45;processes the search results from the HFA engine and reports the pattern matches fo...">
<polygon fill="white" stroke="black" points="632.5,-119.5 632.5,-140.5 779.5,-140.5 779.5,-119.5 632.5,-119.5"/>
<text text-anchor="middle" x="706" y="-127.5" font-family="FreeSans" font-size="10.00">hfa_searchctx_getmatches</text>
</a>
</g>
<!-- Node17&#45;&gt;Node18 -->
<g id="edge36" class="edge"><title>Node17&#45;&gt;Node18</title>
<path fill="none" stroke="midnightblue" d="M605.986,-121.999C613.825,-122.626 622.914,-123.353 632.354,-124.108"/>
<polygon fill="midnightblue" stroke="midnightblue" points="606.077,-118.495 595.83,-121.186 605.519,-125.473 606.077,-118.495"/>
</g>
<!-- Node18&#45;&gt;Node5 -->
<g id="edge50" class="edge"><title>Node18&#45;&gt;Node5</title>
<path fill="none" stroke="midnightblue" d="M721.714,-148.4C741.632,-170.703 777.977,-208.134 816,-231 824.309,-235.997 833.868,-240.134 843.053,-243.456"/>
<polygon fill="midnightblue" stroke="midnightblue" points="724.143,-145.861 714.916,-140.654 718.882,-150.479 724.143,-145.861"/>
</g>
<!-- Node19 -->
<g id="node38" class="node"><title>Node19</title>
<a xlink:href="flow_8c.html#a2976ab60901b133a56214323fb901663" target="_top" xlink:title="Low level API to poll a flow.">
<polygon fill="white" stroke="black" points="816.5,-200.5 816.5,-221.5 945.5,-221.5 945.5,-200.5 816.5,-200.5"/>
<text text-anchor="middle" x="881" y="-208.5" font-family="FreeSans" font-size="10.00">__hfaf_process_pktflow</text>
</a>
</g>
<!-- Node18&#45;&gt;Node19 -->
<g id="edge38" class="edge"><title>Node18&#45;&gt;Node19</title>
<path fill="none" stroke="midnightblue" d="M731.24,-145.983C753.058,-159.309 785.76,-178.129 816,-191 824.256,-194.514 833.339,-197.705 842.03,-200.454"/>
<polygon fill="midnightblue" stroke="midnightblue" points="732.942,-142.92 722.595,-140.642 729.263,-148.875 732.942,-142.92"/>
</g>
<!-- Node25 -->
<g id="node51" class="node"><title>Node25</title>
<a xlink:href="hfa-lnx-ctx_8c.html#a71e1d3d18cc48b90a1ecde583ffb3f7a" target="_top" xlink:title="poll_searchctx">
<polygon fill="white" stroke="black" points="838,-160.5 838,-181.5 924,-181.5 924,-160.5 838,-160.5"/>
<text text-anchor="middle" x="881" y="-168.5" font-family="FreeSans" font-size="10.00">poll_searchctx</text>
</a>
</g>
<!-- Node18&#45;&gt;Node25 -->
<g id="edge52" class="edge"><title>Node18&#45;&gt;Node25</title>
<path fill="none" stroke="midnightblue" d="M761.061,-142.9C785.859,-148.71 814.707,-155.469 837.896,-160.901"/>
<polygon fill="midnightblue" stroke="midnightblue" points="761.602,-139.432 751.067,-140.559 760.005,-146.247 761.602,-139.432"/>
</g>
<!-- Node28 -->
<g id="node57" class="node"><title>Node28</title>
<a xlink:href="hfa-lnx-linkgraph_8c.html#a78ffddbcd7cdd164889cfb53ea367886" target="_top" xlink:title="entry">
<polygon fill="white" stroke="black" points="860.5,-120.5 860.5,-141.5 901.5,-141.5 901.5,-120.5 860.5,-120.5"/>
<text text-anchor="middle" x="881" y="-128.5" font-family="FreeSans" font-size="10.00">entry</text>
</a>
</g>
<!-- Node18&#45;&gt;Node28 -->
<g id="edge58" class="edge"><title>Node18&#45;&gt;Node28</title>
<path fill="none" stroke="midnightblue" d="M789.738,-130.479C816.018,-130.629 842.75,-130.781 860.431,-130.882"/>
<polygon fill="midnightblue" stroke="midnightblue" points="789.728,-126.978 779.709,-130.421 789.688,-133.978 789.728,-126.978"/>
</g>
<!-- Node29 -->
<g id="node59" class="node"><title>Node29</title>
<a xlink:href="hfa-lnx-nctx-lock_8c.html#adb0c831ef0f9af5441a6769c377d9c95" target="_top" xlink:title="Post process the results from HFA and record found matches.">
<polygon fill="white" stroke="black" points="841,-80.5 841,-101.5 921,-101.5 921,-80.5 841,-80.5"/>
<text text-anchor="middle" x="881" y="-88.5" font-family="FreeSans" font-size="10.00">post_process</text>
</a>
</g>
<!-- Node18&#45;&gt;Node29 -->
<g id="edge60" class="edge"><title>Node18&#45;&gt;Node29</title>
<path fill="none" stroke="midnightblue" d="M763.217,-117.249C788.548,-111.604 817.741,-105.098 840.726,-99.9753"/>
<polygon fill="midnightblue" stroke="midnightblue" points="762.357,-113.855 753.358,-119.446 763.879,-120.687 762.357,-113.855"/>
</g>
<!-- Node32 -->
<g id="node66" class="node"><title>Node32</title>
<a xlink:href="hfa-se-async_8c.html#a3c04138a5bfe5d72780bb7e82a18e627" target="_top" xlink:title="main">
<polygon fill="white" stroke="black" points="861,-40.5 861,-61.5 901,-61.5 901,-40.5 861,-40.5"/>
<text text-anchor="middle" x="881" y="-48.5" font-family="FreeSans" font-size="10.00">main</text>
</a>
</g>
<!-- Node18&#45;&gt;Node32 -->
<g id="edge68" class="edge"><title>Node18&#45;&gt;Node32</title>
<path fill="none" stroke="midnightblue" d="M732.079,-114.148C753.936,-101.324 786.252,-83.4165 816,-71 830.6,-64.906 847.725,-59.7119 860.731,-56.1453"/>
<polygon fill="midnightblue" stroke="midnightblue" points="730.206,-111.19 723.391,-119.303 733.777,-117.211 730.206,-111.19"/>
</g>
<!-- Node33 -->
<g id="node68" class="node"><title>Node33</title>
<a xlink:href="hfa-se-wqe-lock_8c.html#a06b5fcfab0e1d5eb36b633ec080ad7f9" target="_top" xlink:title="Process search for given contexts.">
<polygon fill="white" stroke="black" points="841,-0.5 841,-21.5 921,-21.5 921,-0.5 841,-0.5"/>
<text text-anchor="middle" x="881" y="-8.5" font-family="FreeSans" font-size="10.00">process_nctx</text>
</a>
</g>
<!-- Node18&#45;&gt;Node33 -->
<g id="edge70" class="edge"><title>Node18&#45;&gt;Node33</title>
<path fill="none" stroke="midnightblue" d="M721.639,-111.723C741.48,-89.6176 777.748,-52.6817 816,-31 823.601,-26.6917 832.239,-23.203 840.679,-20.42"/>
<polygon fill="midnightblue" stroke="midnightblue" points="718.854,-109.59 714.869,-119.407 724.106,-114.218 718.854,-109.59"/>
</g>
<!-- Node20 -->
<g id="node40" class="node"><title>Node20</title>
<a xlink:href="flow_8h.html#ab1b3378af88a440a6c3c0851be942e65" target="_top" xlink:title="All submitted search parameters in Paramlist of flow are polled If low level API __hfaf_process_pktfl...">
<polygon fill="white" stroke="black" points="982.5,-200.5 982.5,-221.5 1101.5,-221.5 1101.5,-200.5 982.5,-200.5"/>
<text text-anchor="middle" x="1042" y="-208.5" font-family="FreeSans" font-size="10.00">hfaf_process_pktflow</text>
</a>
</g>
<!-- Node19&#45;&gt;Node20 -->
<g id="edge40" class="edge"><title>Node19&#45;&gt;Node20</title>
<path fill="none" stroke="midnightblue" d="M955.622,-211C964.594,-211 973.665,-211 982.384,-211"/>
<polygon fill="midnightblue" stroke="midnightblue" points="955.557,-207.5 945.557,-211 955.557,-214.5 955.557,-207.5"/>
</g>
<!-- Node21 -->
<g id="node42" class="node"><title>Node21</title>
<a xlink:href="hfa-se-flow_8c.html#a2d83c733eacd7afc955c3af18edcb52a" target="_top" xlink:title="Polls for a submitted search instruction of a flow.">
<polygon fill="white" stroke="black" points="1141.5,-200.5 1141.5,-221.5 1226.5,-221.5 1226.5,-200.5 1141.5,-200.5"/>
<text text-anchor="middle" x="1184" y="-208.5" font-family="FreeSans" font-size="10.00">__processflow</text>
</a>
</g>
<!-- Node20&#45;&gt;Node21 -->
<g id="edge42" class="edge"><title>Node20&#45;&gt;Node21</title>
<path fill="none" stroke="midnightblue" d="M1112.08,-211C1121.98,-211 1131.9,-211 1141.08,-211"/>
<polygon fill="midnightblue" stroke="midnightblue" points="1111.81,-207.5 1101.81,-211 1111.81,-214.5 1111.81,-207.5"/>
</g>
<!-- Node22 -->
<g id="node44" class="node"><title>Node22</title>
<a xlink:href="hfa-se-flow_8c.html#a786591694a8f8fb46cedbc8a580c88f6" target="_top" xlink:title="Submitting or Polling flows from the software recently used cache IF Cache is empty, it tries to refill it.">
<polygon fill="white" stroke="black" points="1266.5,-200.5 1266.5,-221.5 1329.5,-221.5 1329.5,-200.5 1266.5,-200.5"/>
<text text-anchor="middle" x="1298" y="-208.5" font-family="FreeSans" font-size="10.00">do_cache</text>
</a>
</g>
<!-- Node21&#45;&gt;Node22 -->
<g id="edge44" class="edge"><title>Node21&#45;&gt;Node22</title>
<path fill="none" stroke="midnightblue" d="M1236.78,-211C1246.9,-211 1257.2,-211 1266.39,-211"/>
<polygon fill="midnightblue" stroke="midnightblue" points="1236.77,-207.5 1226.77,-211 1236.77,-214.5 1236.77,-207.5"/>
</g>
<!-- Node23 -->
<g id="node46" class="node"><title>Node23</title>
<a xlink:href="hfa-se-flow_8c.html#aba72a61590283e37ffd78b4defd38220" target="_top" xlink:title="Receive network packets and process.">
<polygon fill="white" stroke="black" points="1366,-200.5 1366,-221.5 1462,-221.5 1462,-200.5 1366,-200.5"/>
<text text-anchor="middle" x="1414" y="-208.5" font-family="FreeSans" font-size="10.00">process_packets</text>
</a>
</g>
<!-- Node22&#45;&gt;Node23 -->
<g id="edge46" class="edge"><title>Node22&#45;&gt;Node23</title>
<path fill="none" stroke="midnightblue" d="M1339.71,-211C1348.17,-211 1357.13,-211 1365.79,-211"/>
<polygon fill="midnightblue" stroke="midnightblue" points="1339.7,-207.5 1329.7,-211 1339.7,-214.5 1339.7,-207.5"/>
</g>
<!-- Node24 -->
<g id="node48" class="node"><title>Node24</title>
<a xlink:href="hfa-se-flow-wqe_8c.html#a3c04138a5bfe5d72780bb7e82a18e627" target="_top" xlink:title="Implementation.">
<polygon fill="white" stroke="black" points="1498,-200.5 1498,-221.5 1538,-221.5 1538,-200.5 1498,-200.5"/>
<text text-anchor="middle" x="1518" y="-208.5" font-family="FreeSans" font-size="10.00">main</text>
</a>
</g>
<!-- Node23&#45;&gt;Node24 -->
<g id="edge48" class="edge"><title>Node23&#45;&gt;Node24</title>
<path fill="none" stroke="midnightblue" d="M1472.15,-211C1481.41,-211 1490.42,-211 1497.96,-211"/>
<polygon fill="midnightblue" stroke="midnightblue" points="1472.04,-207.5 1462.04,-211 1472.04,-214.5 1472.04,-207.5"/>
</g>
<!-- Node26 -->
<g id="node53" class="node"><title>Node26</title>
<a xlink:href="hfa-lnx-ctx_8c.html#a934a9fc08c4aab25d6f0d861e4a4f762" target="_top" xlink:title="poll">
<polygon fill="white" stroke="black" points="1025.5,-160.5 1025.5,-181.5 1058.5,-181.5 1058.5,-160.5 1025.5,-160.5"/>
<text text-anchor="middle" x="1042" y="-168.5" font-family="FreeSans" font-size="10.00">poll</text>
</a>
</g>
<!-- Node25&#45;&gt;Node26 -->
<g id="edge54" class="edge"><title>Node25&#45;&gt;Node26</title>
<path fill="none" stroke="midnightblue" d="M934.199,-171C965.953,-171 1004.13,-171 1025.48,-171"/>
<polygon fill="midnightblue" stroke="midnightblue" points="934.145,-167.5 924.145,-171 934.145,-174.5 934.145,-167.5"/>
</g>
<!-- Node27 -->
<g id="node55" class="node"><title>Node27</title>
<a xlink:href="hfa-lnx-ctx_8c.html#a97df0ba8293c1b8436547946fd9d0d17" target="_top" xlink:title="process_pkt">
<polygon fill="white" stroke="black" points="1147,-160.5 1147,-181.5 1221,-181.5 1221,-160.5 1147,-160.5"/>
<text text-anchor="middle" x="1184" y="-168.5" font-family="FreeSans" font-size="10.00">process_pkt</text>
</a>
</g>
<!-- Node26&#45;&gt;Node27 -->
<g id="edge56" class="edge"><title>Node26&#45;&gt;Node27</title>
<path fill="none" stroke="midnightblue" d="M1068.86,-171C1090.91,-171 1122.38,-171 1146.84,-171"/>
<polygon fill="midnightblue" stroke="midnightblue" points="1068.57,-167.5 1058.57,-171 1068.57,-174.5 1068.57,-167.5"/>
</g>
<!-- Node30 -->
<g id="node61" class="node"><title>Node30</title>
<a xlink:href="hfa-lnx-nctx-lock_8c.html#a48d3743fb7abc7d3c6b68359678e52a1" target="_top" xlink:title="Poll for the pending search instructions in the HW (blocked till instruction completes) and process t...">
<polygon fill="white" stroke="black" points="1025.5,-100.5 1025.5,-121.5 1058.5,-121.5 1058.5,-100.5 1025.5,-100.5"/>
<text text-anchor="middle" x="1042" y="-108.5" font-family="FreeSans" font-size="10.00">poll</text>
</a>
</g>
<!-- Node29&#45;&gt;Node30 -->
<g id="edge62" class="edge"><title>Node29&#45;&gt;Node30</title>
<path fill="none" stroke="midnightblue" d="M931.363,-97.2562C963.538,-101.253 1003.22,-106.183 1025.25,-108.919"/>
<polygon fill="midnightblue" stroke="midnightblue" points="931.567,-93.7548 921.212,-95.9953 930.704,-100.701 931.567,-93.7548"/>
</g>
<!-- Node31 -->
<g id="node63" class="node"><title>Node31</title>
<a xlink:href="hfa-lnx-nctx-lock_8c.html#a972f8b60ef804914c009c2ef85bac50e" target="_top" xlink:title="Performs search process for each core.">
<polygon fill="white" stroke="black" points="1138,-81.5 1138,-102.5 1230,-102.5 1230,-81.5 1138,-81.5"/>
<text text-anchor="middle" x="1184" y="-89.5" font-family="FreeSans" font-size="10.00">process_search</text>
</a>
</g>
<!-- Node29&#45;&gt;Node31 -->
<g id="edge66" class="edge"><title>Node29&#45;&gt;Node31</title>
<path fill="none" stroke="midnightblue" d="M931.371,-90.8253C976.165,-90.7116 1043.45,-90.643 1102,-91 1113.53,-91.0703 1125.98,-91.1962 1137.6,-91.3356"/>
<polygon fill="midnightblue" stroke="midnightblue" points="931.318,-87.3253 921.328,-90.8525 931.337,-94.3253 931.318,-87.3253"/>
</g>
<!-- Node30&#45;&gt;Node31 -->
<g id="edge64" class="edge"><title>Node30&#45;&gt;Node31</title>
<path fill="none" stroke="midnightblue" d="M1068.53,-107.45C1087.98,-104.848 1114.88,-101.249 1137.82,-98.1794"/>
<polygon fill="midnightblue" stroke="midnightblue" points="1068.01,-103.988 1058.57,-108.783 1068.94,-110.926 1068.01,-103.988"/>
</g>
<!-- Node34 -->
<g id="node70" class="node"><title>Node34</title>
<a xlink:href="hfa-se-wqe-lock_8c.html#a3c04138a5bfe5d72780bb7e82a18e627" target="_top" xlink:title="main">
<polygon fill="white" stroke="black" points="1022,-0.5 1022,-21.5 1062,-21.5 1062,-0.5 1022,-0.5"/>
<text text-anchor="middle" x="1042" y="-8.5" font-family="FreeSans" font-size="10.00">main</text>
</a>
</g>
<!-- Node33&#45;&gt;Node34 -->
<g id="edge72" class="edge"><title>Node33&#45;&gt;Node34</title>
<path fill="none" stroke="midnightblue" d="M931.298,-11C961.9,-11 999.313,-11 1021.87,-11"/>
<polygon fill="midnightblue" stroke="midnightblue" points="931.212,-7.5001 921.212,-11 931.212,-14.5001 931.212,-7.5001"/>
</g>
</g>
</svg>
        <g id="navigator" transform="translate(0 0)" fill="#404254">
                <rect fill="#f2f5e9" fill-opacity="0.5" stroke="#606060" stroke-width=".5" x="0" y="0" width="60" height="60"/>
                <use id="zoomplus" xlink:href="#zoomPlus" x="17" y="9" onmousedown="handleZoom(evt,'in')"/>
                <use id="zoomminus" xlink:href="#zoomMin" x="42" y="9" onmousedown="handleZoom(evt,'out')"/>
                <use id="reset" xlink:href="#resetDef" x="30" y="36" onmousedown="handleReset()"/>
                <g id="arrowUp" xlink:href="#dirArrow" transform="translate(30 24)" onmousedown="handlePan(0,-1)">
                  <use xlink:href="#rim" fill="#404040">
                        <set attributeName="fill" to="#808080" begin="arrowUp.mouseover" end="arrowUp.mouseout"/>
                  </use>
                  <path fill="none" stroke="white" stroke-width="1.5" d="M0,-3.0v7 M-2.5,-0.5L0,-3.0L2.5,-0.5"/>
                </g>
                <g id="arrowRight" xlink:href="#dirArrow" transform="rotate(90) translate(36 -43)" onmousedown="handlePan(1,0)">
                  <use xlink:href="#rim" fill="#404040">
                        <set attributeName="fill" to="#808080" begin="arrowRight.mouseover" end="arrowRight.mouseout"/>
                  </use>
                  <path fill="none" stroke="white" stroke-width="1.5" d="M0,-3.0v7 M-2.5,-0.5L0,-3.0L2.5,-0.5"/>
                </g>
                <g id="arrowDown" xlink:href="#dirArrow" transform="rotate(180) translate(-30 -48)" onmousedown="handlePan(0,1)">
                  <use xlink:href="#rim" fill="#404040">
                        <set attributeName="fill" to="#808080" begin="arrowDown.mouseover" end="arrowDown.mouseout"/>
                  </use>
                  <path fill="none" stroke="white" stroke-width="1.5" d="M0,-3.0v7 M-2.5,-0.5L0,-3.0L2.5,-0.5"/>
                </g>
                <g id="arrowLeft" xlink:href="#dirArrow" transform="rotate(270) translate(-36 17)" onmousedown="handlePan(-1,0)">
                  <use xlink:href="#rim" fill="#404040">
                        <set attributeName="fill" to="#808080" begin="arrowLeft.mouseover" end="arrowLeft.mouseout"/>
                  </use>
                  <path fill="none" stroke="white" stroke-width="1.5" d="M0,-3.0v7 M-2.5,-0.5L0,-3.0L2.5,-0.5"/>
                </g>
        </g>
        <svg viewBox="0 0 15 15" width="100%" height="30px" preserveAspectRatio="xMaxYMin meet">
         <g id="arrow_out" transform="scale(0.3 0.3)">
          <a xlink:href="cvm-hfa-search_8c_a954753c0e6f4a59599d05f1262a25b38_icgraph_org.svg" target="_base">
           <rect id="button" ry="5" rx="5" y="6" x="6" height="38" width="38"
                fill="#f2f5e9" fill-opacity="0.5" stroke="#606060" stroke-width="1.0"/>
           <path id="arrow"
             d="M 11.500037,31.436501 C 11.940474,20.09759 22.043105,11.32322 32.158766,21.979434 L 37.068811,17.246167 C 37.068811,17.246167 37.088388,32 37.088388,32 L 22.160133,31.978069 C 22.160133,31.978069 26.997745,27.140456 26.997745,27.140456 C 18.528582,18.264221 13.291696,25.230495 11.500037,31.436501 z"
             style="fill:#404040;"/>
          </a>
         </g>
        </svg>
</svg>
