<?xml version="1.0" encoding="UTF-8" standalone="no"?>
<!DOCTYPE svg PUBLIC "-//W3C//DTD SVG 1.1//EN"
 "http://www.w3.org/Graphics/SVG/1.1/DTD/svg11.dtd">
<!-- Generated by graphviz version 2.24.0 (20090616.2323)
 -->
<!-- Title: hfa_find_named_block Pages: 1 -->
<svg width="624pt" height="70pt"
 viewBox="0.00 0.00 624.00 70.00" xmlns="http://www.w3.org/2000/svg" xmlns:xlink="http://www.w3.org/1999/xlink">
<g id="graph1" class="graph" transform="scale(1 1) rotate(0) translate(4 66)">
<title>hfa_find_named_block</title>
<polygon fill="white" stroke="white" points="-4,5 -4,-66 621,-66 621,5 -4,5"/>
<!-- Node1 -->
<g id="node1" class="node"><title>Node1</title>
<polygon fill="#bfbfbf" stroke="black" points="0.5,-20.5 0.5,-41.5 125.5,-41.5 125.5,-20.5 0.5,-20.5"/>
<text text-anchor="middle" x="63" y="-28.5" font-family="FreeSans" font-size="10.00">hfa_find_named_block</text>
</g>
<!-- Node2 -->
<g id="node3" class="node"><title>Node2</title>
<a xlink:href="cvm-hfa-stats_8c.html#ab70d294575883530a6ecd321a2a09fc3" target="_top" xlink:title="Create ARENA for hfa statistics.">
<polygon fill="white" stroke="black" points="162,-20.5 162,-41.5 290,-41.5 290,-20.5 162,-20.5"/>
<text text-anchor="middle" x="226" y="-28.5" font-family="FreeSans" font-size="10.00">hfa_stats_create_arena</text>
</a>
</g>
<!-- Node1&#45;&gt;Node2 -->
<g id="edge2" class="edge"><title>Node1&#45;&gt;Node2</title>
<path fill="none" stroke="midnightblue" d="M135.741,-31C144.492,-31 153.38,-31 161.995,-31"/>
<polygon fill="midnightblue" stroke="midnightblue" points="135.554,-27.5001 125.554,-31 135.554,-34.5001 135.554,-27.5001"/>
</g>
<!-- Node3 -->
<g id="node5" class="node"><title>Node3</title>
<a xlink:href="cvm-hfa-stats_8h.html#a69100ad9ae17fc0ec07982ea8b90c5df" target="_top" xlink:title="This routine allocates memory for counters to maintain statistics of each processing core...">
<polygon fill="white" stroke="black" points="326,-20.5 326,-41.5 428,-41.5 428,-20.5 326,-20.5"/>
<text text-anchor="middle" x="377" y="-28.5" font-family="FreeSans" font-size="10.00">hfa_dev_stats_init</text>
</a>
</g>
<!-- Node2&#45;&gt;Node3 -->
<g id="edge4" class="edge"><title>Node2&#45;&gt;Node3</title>
<path fill="none" stroke="midnightblue" d="M300.14,-31C308.779,-31 317.441,-31 325.674,-31"/>
<polygon fill="midnightblue" stroke="midnightblue" points="300.038,-27.5001 290.038,-31 300.038,-34.5001 300.038,-27.5001"/>
</g>
<!-- Node4 -->
<g id="node7" class="node"><title>Node4</title>
<a xlink:href="cvm-hfa_8c.html#a873768042b716d60996ec5d858fc8fd9" target="_top" xlink:title="This function must be called by application to initialize HFA engine and setup resources for HFA hard...">
<polygon fill="white" stroke="black" points="464,-20.5 464,-41.5 538,-41.5 538,-20.5 464,-20.5"/>
<text text-anchor="middle" x="501" y="-28.5" font-family="FreeSans" font-size="10.00">hfa_dev_init</text>
</a>
</g>
<!-- Node3&#45;&gt;Node4 -->
<g id="edge6" class="edge"><title>Node3&#45;&gt;Node4</title>
<path fill="none" stroke="midnightblue" d="M438.375,-31C447.126,-31 455.893,-31 463.98,-31"/>
<polygon fill="midnightblue" stroke="midnightblue" points="438.151,-27.5001 428.151,-31 438.151,-34.5001 438.151,-27.5001"/>
</g>
<!-- Node5 -->
<g id="node9" class="node"><title>Node5</title>
<a xlink:href="hfa-lnx-async_8c.html#a78ffddbcd7cdd164889cfb53ea367886" target="_top" xlink:title="entry">
<polygon fill="white" stroke="black" points="574.5,-40.5 574.5,-61.5 615.5,-61.5 615.5,-40.5 574.5,-40.5"/>
<text text-anchor="middle" x="595" y="-48.5" font-family="FreeSans" font-size="10.00">entry</text>
</a>
</g>
<!-- Node4&#45;&gt;Node5 -->
<g id="edge8" class="edge"><title>Node4&#45;&gt;Node5</title>
<path fill="none" stroke="midnightblue" d="M548.098,-41.0209C557.326,-42.9842 566.548,-44.9463 574.342,-46.6047"/>
<polygon fill="midnightblue" stroke="midnightblue" points="548.661,-37.5623 538.151,-38.9045 547.204,-44.4091 548.661,-37.5623"/>
</g>
<!-- Node6 -->
<g id="node11" class="node"><title>Node6</title>
<a xlink:href="hfa-se-async_8c.html#a3c04138a5bfe5d72780bb7e82a18e627" target="_top" xlink:title="main">
<polygon fill="white" stroke="black" points="575,-0.5 575,-21.5 615,-21.5 615,-0.5 575,-0.5"/>
<text text-anchor="middle" x="595" y="-8.5" font-family="FreeSans" font-size="10.00">main</text>
</a>
</g>
<!-- Node4&#45;&gt;Node6 -->
<g id="edge10" class="edge"><title>Node4&#45;&gt;Node6</title>
<path fill="none" stroke="midnightblue" d="M547.966,-21.0073C557.447,-18.9901 566.929,-16.9725 574.871,-15.2828"/>
<polygon fill="midnightblue" stroke="midnightblue" points="547.204,-17.5909 538.151,-23.0955 548.661,-24.4377 547.204,-17.5909"/>
</g>
</g>
</svg>
