<?xml version="1.0" encoding="UTF-8" standalone="no"?>
<!DOCTYPE svg PUBLIC "-//W3C//DTD SVG 1.1//EN"
 "http://www.w3.org/Graphics/SVG/1.1/DTD/svg11.dtd">
<!-- Generated by graphviz version 2.24.0 (20090616.2323)
 -->
<!-- Title: hfa_stats_memoryalloc Pages: 1 -->
<!--zoomable 288 -->
<svg id="main" version="1.1" xmlns="http://www.w3.org/2000/svg" xmlns:xlink="http://www.w3.org/1999/xlink" xml:space="preserve" onload="init(evt)">
        <defs>
                <circle id="rim" cx="0" cy="0" r="7"/>
                <circle id="rim2" cx="0" cy="0" r="3.5"/>
                <g id="zoomPlus">
                        <use xlink:href="#rim" fill="#404040">
                                <set attributeName="fill" to="#808080" begin="zoomplus.mouseover" end="zoomplus.mouseout"/>
                        </use>
                        <path d="M-4,0h8M0,-4v8" fill="none" stroke="white" stroke-width="1.5" pointer-events="none"/>
                </g>
                <g id="zoomMin">
                        <use xlink:href="#rim" fill="#404040">
                                <set attributeName="fill" to="#808080" begin="zoomminus.mouseover" end="zoomminus.mouseout"/>
                        </use>
                        <path d="M-4,0h8" fill="none" stroke="white" stroke-width="1.5" pointer-events="none"/>
                </g>
                <g id="dirArrow">
                        <path fill="none" stroke="white" stroke-width="1.5" d="M0,-3.0v7 M-2.5,-0.5L0,-3.0L2.5,-0.5"/>
                </g>
               <g id="resetDef">
                       <use xlink:href="#rim2" fill="#404040">
                               <set attributeName="fill" to="#808080" begin="reset.mouseover" end="reset.mouseout"/>
                       </use>
               </g>
        </defs>

<script type="text/javascript">
var viewWidth = 1876;
var viewHeight = 288;
var sectionId = 'dynsection-12';
</script>
<script xlink:href="svgpan.js"/>
<svg id="graph" class="graph">
<g id="viewport">
<title>hfa_stats_memoryalloc</title>
<polygon fill="white" stroke="white" points="-4,5 -4,-283.615 1873,-283.615 1873,5 -4,5"/>
<!-- Node1 -->
<g id="node1" class="node"><title>Node1</title>
<polygon fill="#bfbfbf" stroke="black" points="0.5,-190.5 0.5,-211.5 129.5,-211.5 129.5,-190.5 0.5,-190.5"/>
<text text-anchor="middle" x="65" y="-198.5" font-family="FreeSans" font-size="10.00">hfa_stats_memoryalloc</text>
</g>
<!-- Node2 -->
<g id="node3" class="node"><title>Node2</title>
<a xlink:href="cvm-hfa-stats_8h.html#a69100ad9ae17fc0ec07982ea8b90c5df" target="_top" xlink:title="This routine allocates memory for counters to maintain statistics of each processing core...">
<polygon fill="white" stroke="black" points="181,-229.5 181,-250.5 283,-250.5 283,-229.5 181,-229.5"/>
<text text-anchor="middle" x="232" y="-237.5" font-family="FreeSans" font-size="10.00">hfa_dev_stats_init</text>
</a>
</g>
<!-- Node1&#45;&gt;Node2 -->
<g id="edge2" class="edge"><title>Node1&#45;&gt;Node2</title>
<path fill="none" stroke="midnightblue" d="M120.208,-213.893C141.8,-218.935 166.253,-224.646 186.771,-229.438"/>
<polygon fill="midnightblue" stroke="midnightblue" points="120.727,-210.42 110.193,-211.554 119.135,-217.236 120.727,-210.42"/>
</g>
<!-- Node6 -->
<g id="node11" class="node"><title>Node6</title>
<a xlink:href="cvm-hfa-stats_8h.html#a97bd8b836915983d25215b498138f881" target="_top" xlink:title="This routine allocates the memory for counters to maintain the statistics of search context...">
<polygon fill="white" stroke="black" points="166.5,-151.5 166.5,-172.5 297.5,-172.5 297.5,-151.5 166.5,-151.5"/>
<text text-anchor="middle" x="232" y="-159.5" font-family="FreeSans" font-size="10.00">hfa_searchctx_stats_init</text>
</a>
</g>
<!-- Node1&#45;&gt;Node6 -->
<g id="edge10" class="edge"><title>Node1&#45;&gt;Node6</title>
<path fill="none" stroke="midnightblue" d="M120.208,-188.107C141.8,-183.065 166.253,-177.354 186.771,-172.562"/>
<polygon fill="midnightblue" stroke="midnightblue" points="119.135,-184.764 110.193,-190.446 120.727,-191.58 119.135,-184.764"/>
</g>
<!-- Node3 -->
<g id="node5" class="node"><title>Node3</title>
<a xlink:href="cvm-hfa_8c.html#a873768042b716d60996ec5d858fc8fd9" target="_top" xlink:title="This function must be called by application to initialize HFA engine and setup resources for HFA hard...">
<polygon fill="white" stroke="black" points="999,-249.5 999,-270.5 1073,-270.5 1073,-249.5 999,-249.5"/>
<text text-anchor="middle" x="1036" y="-257.5" font-family="FreeSans" font-size="10.00">hfa_dev_init</text>
</a>
</g>
<!-- Node2&#45;&gt;Node3 -->
<g id="edge4" class="edge"><title>Node2&#45;&gt;Node3</title>
<path fill="none" stroke="midnightblue" d="M293.188,-245.796C357.544,-251.384 461.797,-259 552,-259 552,-259 552,-259 825,-259 885.81,-259 956.476,-259.42 998.648,-259.716"/>
<polygon fill="midnightblue" stroke="midnightblue" points="293.478,-242.308 283.21,-244.918 292.865,-249.281 293.478,-242.308"/>
</g>
<!-- Node4 -->
<g id="node7" class="node"><title>Node4</title>
<a xlink:href="hfa-lnx-async_8c.html#a78ffddbcd7cdd164889cfb53ea367886" target="_top" xlink:title="entry">
<polygon fill="white" stroke="black" points="1493.5,-240.5 1493.5,-261.5 1534.5,-261.5 1534.5,-240.5 1493.5,-240.5"/>
<text text-anchor="middle" x="1514" y="-248.5" font-family="FreeSans" font-size="10.00">entry</text>
</a>
</g>
<!-- Node3&#45;&gt;Node4 -->
<g id="edge6" class="edge"><title>Node3&#45;&gt;Node4</title>
<path fill="none" stroke="midnightblue" d="M1083.22,-265.764C1102.63,-267.862 1125.36,-269.971 1146,-271 1272.95,-277.332 1305.8,-286.168 1432,-271 1453.24,-268.447 1476.93,-262.301 1493.36,-257.49"/>
<polygon fill="midnightblue" stroke="midnightblue" points="1083.43,-262.265 1073.1,-264.64 1082.65,-269.223 1083.43,-262.265"/>
</g>
<!-- Node5 -->
<g id="node9" class="node"><title>Node5</title>
<a xlink:href="hfa-se-async_8c.html#a3c04138a5bfe5d72780bb7e82a18e627" target="_top" xlink:title="main">
<polygon fill="white" stroke="black" points="1191,-240.5 1191,-261.5 1231,-261.5 1231,-240.5 1191,-240.5"/>
<text text-anchor="middle" x="1211" y="-248.5" font-family="FreeSans" font-size="10.00">main</text>
</a>
</g>
<!-- Node3&#45;&gt;Node5 -->
<g id="edge8" class="edge"><title>Node3&#45;&gt;Node5</title>
<path fill="none" stroke="midnightblue" d="M1083.18,-257.574C1118.38,-255.763 1164.71,-253.381 1190.83,-252.037"/>
<polygon fill="midnightblue" stroke="midnightblue" points="1082.92,-254.082 1073.11,-258.091 1083.28,-261.073 1082.92,-254.082"/>
</g>
<!-- Node7 -->
<g id="node13" class="node"><title>Node7</title>
<a xlink:href="cvm-hfa-search_8c.html#a64ba7a41c7d677da10e588a58789015b" target="_top" xlink:title="This routine initializes a Search Context.">
<polygon fill="white" stroke="black" points="334.5,-131.5 334.5,-152.5 461.5,-152.5 461.5,-131.5 334.5,-131.5"/>
<text text-anchor="middle" x="398" y="-139.5" font-family="FreeSans" font-size="10.00">hfa_dev_searchctx_init</text>
</a>
</g>
<!-- Node6&#45;&gt;Node7 -->
<g id="edge12" class="edge"><title>Node6&#45;&gt;Node7</title>
<path fill="none" stroke="midnightblue" d="M307.663,-152.884C316.633,-151.803 325.718,-150.709 334.495,-149.651"/>
<polygon fill="midnightblue" stroke="midnightblue" points="307.117,-149.424 297.608,-154.095 307.954,-156.374 307.117,-149.424"/>
</g>
<!-- Node8 -->
<g id="node15" class="node"><title>Node8</title>
<a xlink:href="flow_8c.html#a28378e8a6f53ff0e87f2e688d1c21834" target="_top" xlink:title="Low level API to create a flow Allocate Flow, Intialize searchctx, set graph and setflags,.">
<polygon fill="white" stroke="black" points="498.5,-11.5 498.5,-32.5 605.5,-32.5 605.5,-11.5 498.5,-11.5"/>
<text text-anchor="middle" x="552" y="-19.5" font-family="FreeSans" font-size="10.00">__hfaf_create_flow</text>
</a>
</g>
<!-- Node7&#45;&gt;Node8 -->
<g id="edge14" class="edge"><title>Node7&#45;&gt;Node8</title>
<path fill="none" stroke="midnightblue" d="M412.256,-123.502C430.146,-101.398 462.782,-64.5762 498,-42 503.723,-38.3312 510.216,-35.2003 516.666,-32.5804"/>
<polygon fill="midnightblue" stroke="midnightblue" points="409.416,-121.45 405.94,-131.458 414.899,-125.802 409.416,-121.45"/>
</g>
<!-- Node11 -->
<g id="node21" class="node"><title>Node11</title>
<a xlink:href="hfa-lnx-async_8c.html#a972f8b60ef804914c009c2ef85bac50e" target="_top" xlink:title="Process search for given payload and graph.">
<polygon fill="white" stroke="black" points="1165,-200.5 1165,-221.5 1257,-221.5 1257,-200.5 1165,-200.5"/>
<text text-anchor="middle" x="1211" y="-208.5" font-family="FreeSans" font-size="10.00">process_search</text>
</a>
</g>
<!-- Node7&#45;&gt;Node11 -->
<g id="edge20" class="edge"><title>Node7&#45;&gt;Node11</title>
<path fill="none" stroke="midnightblue" d="M419.389,-158.729C438.747,-172.881 468.644,-192.351 498,-202 582.824,-229.881 608.711,-221 698,-221 698,-221 698,-221 911,-221 1000.89,-221 1105.85,-216.46 1164.76,-213.498"/>
<polygon fill="midnightblue" stroke="midnightblue" points="421.379,-155.847 411.276,-152.656 417.184,-161.451 421.379,-155.847"/>
</g>
<!-- Node14 -->
<g id="node29" class="node"><title>Node14</title>
<a xlink:href="hfa-lnx-ctx_8c.html#a6926aada806433e15eae2c50298b4aa9" target="_top" xlink:title="createctx">
<polygon fill="white" stroke="black" points="521,-171.5 521,-192.5 583,-192.5 583,-171.5 521,-171.5"/>
<text text-anchor="middle" x="552" y="-179.5" font-family="FreeSans" font-size="10.00">createctx</text>
</a>
</g>
<!-- Node7&#45;&gt;Node14 -->
<g id="edge30" class="edge"><title>Node7&#45;&gt;Node14</title>
<path fill="none" stroke="midnightblue" d="M448.385,-155.087C472.166,-161.264 499.807,-168.444 520.557,-173.833"/>
<polygon fill="midnightblue" stroke="midnightblue" points="449.02,-151.636 438.462,-152.51 447.261,-158.411 449.02,-151.636"/>
</g>
<!-- Node16 -->
<g id="node33" class="node"><title>Node16</title>
<a xlink:href="hfa-lnx-linkgraph_8c.html#a6604748091c732cb29568c12d0f77b4e" target="_top" xlink:title="Initialize search ctx for each subgraph.">
<polygon fill="white" stroke="black" points="514,-131.5 514,-152.5 590,-152.5 590,-131.5 514,-131.5"/>
<text text-anchor="middle" x="552" y="-139.5" font-family="FreeSans" font-size="10.00">Initialize_Ctx</text>
</a>
</g>
<!-- Node7&#45;&gt;Node16 -->
<g id="edge34" class="edge"><title>Node7&#45;&gt;Node16</title>
<path fill="none" stroke="midnightblue" d="M471.578,-142C486.172,-142 500.93,-142 513.75,-142"/>
<polygon fill="midnightblue" stroke="midnightblue" points="471.527,-138.5 461.527,-142 471.527,-145.5 471.527,-138.5"/>
</g>
<!-- Node17 -->
<g id="node35" class="node"><title>Node17</title>
<a xlink:href="hfa-lnx-nctx-lock_8c.html#a2c813b2ff20c5bf67f487908476604d6" target="_top" xlink:title="Initialize search context object for nctxts and a global list to track nctxts.">
<polygon fill="white" stroke="black" points="502.5,-91.5 502.5,-112.5 601.5,-112.5 601.5,-91.5 502.5,-91.5"/>
<text text-anchor="middle" x="552" y="-99.5" font-family="FreeSans" font-size="10.00">initialize_ctx_glist</text>
</a>
</g>
<!-- Node7&#45;&gt;Node17 -->
<g id="edge36" class="edge"><title>Node7&#45;&gt;Node17</title>
<path fill="none" stroke="midnightblue" d="M448.266,-128.944C468.772,-123.618 492.166,-117.541 511.541,-112.509"/>
<polygon fill="midnightblue" stroke="midnightblue" points="447.261,-125.589 438.462,-131.49 449.02,-132.364 447.261,-125.589"/>
</g>
<!-- Node19 -->
<g id="node39" class="node"><title>Node19</title>
<a xlink:href="hfa-lnx_8c.html#a924d2733ebc7a856f8c3fd293193ba44" target="_top" xlink:title="Initialize search context.">
<polygon fill="white" stroke="black" points="514.5,-51.5 514.5,-72.5 589.5,-72.5 589.5,-51.5 514.5,-51.5"/>
<text text-anchor="middle" x="552" y="-59.5" font-family="FreeSans" font-size="10.00">initialize_ctx</text>
</a>
</g>
<!-- Node7&#45;&gt;Node19 -->
<g id="edge40" class="edge"><title>Node7&#45;&gt;Node19</title>
<path fill="none" stroke="midnightblue" d="M422.186,-125.747C442.013,-112.855 471.092,-94.9171 498,-82 505.12,-78.582 512.988,-75.369 520.464,-72.5599"/>
<polygon fill="midnightblue" stroke="midnightblue" points="420.203,-122.862 413.769,-131.279 424.048,-128.711 420.203,-122.862"/>
</g>
<!-- Node9 -->
<g id="node17" class="node"><title>Node9</title>
<a xlink:href="flow_8h.html#abdb62c6f71f5ca9ecddc66c90166d37b" target="_top" xlink:title="Create Packet Flow in Flowdb.">
<polygon fill="white" stroke="black" points="642.5,-11.5 642.5,-32.5 753.5,-32.5 753.5,-11.5 642.5,-11.5"/>
<text text-anchor="middle" x="698" y="-19.5" font-family="FreeSans" font-size="10.00">hfaf_create_pktflow</text>
</a>
</g>
<!-- Node8&#45;&gt;Node9 -->
<g id="edge16" class="edge"><title>Node8&#45;&gt;Node9</title>
<path fill="none" stroke="midnightblue" d="M615.707,-22C624.468,-22 633.411,-22 642.019,-22"/>
<polygon fill="midnightblue" stroke="midnightblue" points="615.536,-18.5001 605.536,-22 615.536,-25.5001 615.536,-18.5001"/>
</g>
<!-- Node10 -->
<g id="node19" class="node"><title>Node10</title>
<a xlink:href="hfa-se-flow-wqe_8c.html#a6d3e23d8f7a3aaf1b0d6e350b7631a0e" target="_top" xlink:title="Get flow pointer from Flow database, If flow ptr is NULL then create at runtime.">
<polygon fill="white" stroke="black" points="790.5,-11.5 790.5,-32.5 859.5,-32.5 859.5,-11.5 790.5,-11.5"/>
<text text-anchor="middle" x="825" y="-19.5" font-family="FreeSans" font-size="10.00">get_flowptr</text>
</a>
</g>
<!-- Node9&#45;&gt;Node10 -->
<g id="edge18" class="edge"><title>Node9&#45;&gt;Node10</title>
<path fill="none" stroke="midnightblue" d="M763.924,-22C772.986,-22 781.982,-22 790.172,-22"/>
<polygon fill="midnightblue" stroke="midnightblue" points="763.704,-18.5001 753.704,-22 763.704,-25.5001 763.704,-18.5001"/>
</g>
<!-- Node12 -->
<g id="node23" class="node"><title>Node12</title>
<a xlink:href="hfa-lnx-async_8c.html#a1e97b1d598034fdc92d57054a6c386e6" target="_top" xlink:title="tasklet_callback">
<polygon fill="white" stroke="black" points="1326,-240.5 1326,-261.5 1418,-261.5 1418,-240.5 1326,-240.5"/>
<text text-anchor="middle" x="1372" y="-248.5" font-family="FreeSans" font-size="10.00">tasklet_callback</text>
</a>
</g>
<!-- Node11&#45;&gt;Node12 -->
<g id="edge22" class="edge"><title>Node11&#45;&gt;Node12</title>
<path fill="none" stroke="midnightblue" d="M1263.26,-223.984C1284.77,-229.327 1309.35,-235.436 1329.7,-240.491"/>
<polygon fill="midnightblue" stroke="midnightblue" points="1263.85,-220.524 1253.3,-221.51 1262.16,-227.318 1263.85,-220.524"/>
</g>
<!-- Node13 -->
<g id="node26" class="node"><title>Node13</title>
<a xlink:href="hfa-lnx-async_8c.html#a7dea7d59754828b1173c4c7ec5d42f3e" target="_top" xlink:title="thread_callback">
<polygon fill="white" stroke="black" points="1326,-200.5 1326,-221.5 1418,-221.5 1418,-200.5 1326,-200.5"/>
<text text-anchor="middle" x="1372" y="-208.5" font-family="FreeSans" font-size="10.00">thread_callback</text>
</a>
</g>
<!-- Node11&#45;&gt;Node13 -->
<g id="edge26" class="edge"><title>Node11&#45;&gt;Node13</title>
<path fill="none" stroke="midnightblue" d="M1267.24,-211C1286.4,-211 1307.58,-211 1325.86,-211"/>
<polygon fill="midnightblue" stroke="midnightblue" points="1267.14,-207.5 1257.14,-211 1267.14,-214.5 1267.14,-207.5"/>
</g>
<!-- Node12&#45;&gt;Node4 -->
<g id="edge24" class="edge"><title>Node12&#45;&gt;Node4</title>
<path fill="none" stroke="midnightblue" d="M1428.15,-251C1451.17,-251 1476.37,-251 1493.48,-251"/>
<polygon fill="midnightblue" stroke="midnightblue" points="1428.1,-247.5 1418.1,-251 1428.1,-254.5 1428.1,-247.5"/>
</g>
<!-- Node13&#45;&gt;Node4 -->
<g id="edge28" class="edge"><title>Node13&#45;&gt;Node4</title>
<path fill="none" stroke="midnightblue" d="M1419.04,-224.249C1444.15,-231.323 1473.79,-239.673 1493.2,-245.139"/>
<polygon fill="midnightblue" stroke="midnightblue" points="1419.88,-220.852 1409.31,-221.51 1417.99,-227.59 1419.88,-220.852"/>
</g>
<!-- Node15 -->
<g id="node31" class="node"><title>Node15</title>
<a xlink:href="hfa-lnx-ctx_8c.html#a78ffddbcd7cdd164889cfb53ea367886" target="_top" xlink:title="entry">
<polygon fill="white" stroke="black" points="677.5,-171.5 677.5,-192.5 718.5,-192.5 718.5,-171.5 677.5,-171.5"/>
<text text-anchor="middle" x="698" y="-179.5" font-family="FreeSans" font-size="10.00">entry</text>
</a>
</g>
<!-- Node14&#45;&gt;Node15 -->
<g id="edge32" class="edge"><title>Node14&#45;&gt;Node15</title>
<path fill="none" stroke="midnightblue" d="M593.388,-182C620.699,-182 655.327,-182 677.081,-182"/>
<polygon fill="midnightblue" stroke="midnightblue" points="593.321,-178.5 583.321,-182 593.321,-185.5 593.321,-178.5"/>
</g>
<!-- Node18 -->
<g id="node37" class="node"><title>Node18</title>
<a xlink:href="hfa-lnx-nctx-lock_8c.html#a78ffddbcd7cdd164889cfb53ea367886" target="_top" xlink:title="entry">
<polygon fill="white" stroke="black" points="677.5,-91.5 677.5,-112.5 718.5,-112.5 718.5,-91.5 677.5,-91.5"/>
<text text-anchor="middle" x="698" y="-99.5" font-family="FreeSans" font-size="10.00">entry</text>
</a>
</g>
<!-- Node17&#45;&gt;Node18 -->
<g id="edge38" class="edge"><title>Node17&#45;&gt;Node18</title>
<path fill="none" stroke="midnightblue" d="M611.986,-102C635.188,-102 660.203,-102 677.242,-102"/>
<polygon fill="midnightblue" stroke="midnightblue" points="611.837,-98.5001 601.837,-102 611.837,-105.5 611.837,-98.5001"/>
</g>
<!-- Node20 -->
<g id="node41" class="node"><title>Node20</title>
<a xlink:href="hfa-lnx_8c.html#a78ffddbcd7cdd164889cfb53ea367886" target="_top" xlink:title="entry">
<polygon fill="white" stroke="black" points="677.5,-51.5 677.5,-72.5 718.5,-72.5 718.5,-51.5 677.5,-51.5"/>
<text text-anchor="middle" x="698" y="-59.5" font-family="FreeSans" font-size="10.00">entry</text>
</a>
</g>
<!-- Node19&#45;&gt;Node20 -->
<g id="edge42" class="edge"><title>Node19&#45;&gt;Node20</title>
<path fill="none" stroke="midnightblue" d="M599.738,-62C625.951,-62 657.12,-62 677.215,-62"/>
<polygon fill="midnightblue" stroke="midnightblue" points="599.599,-58.5001 589.599,-62 599.599,-65.5001 599.599,-58.5001"/>
</g>
<!-- Node21 -->
<g id="node43" class="node"><title>Node21</title>
<a xlink:href="cvm-hfa-pp_8c.html#adcc1149c628372e2e566c246870929cb" target="_top" xlink:title="infoentry">
<polygon fill="white" stroke="black" points="795.5,-66.5 795.5,-87.5 854.5,-87.5 854.5,-66.5 795.5,-66.5"/>
<text text-anchor="middle" x="825" y="-74.5" font-family="FreeSans" font-size="10.00">infoentry</text>
</a>
</g>
<!-- Node20&#45;&gt;Node21 -->
<g id="edge44" class="edge"><title>Node20&#45;&gt;Node21</title>
<path fill="none" stroke="midnightblue" d="M728.645,-65.6194C748.883,-68.0098 775.268,-71.1261 795.309,-73.4932"/>
<polygon fill="midnightblue" stroke="midnightblue" points="729.029,-62.1406 718.687,-64.4434 728.208,-69.0923 729.029,-62.1406"/>
</g>
<!-- Node22 -->
<g id="node45" class="node"><title>Node22</title>
<a xlink:href="ppdfa_8h.html#a81b3389c2c25a4ba308f71501f980e38" target="_top" xlink:title="pp">
<polygon fill="white" stroke="black" points="896.5,-81.5 896.5,-102.5 925.5,-102.5 925.5,-81.5 896.5,-81.5"/>
<text text-anchor="middle" x="911" y="-89.5" font-family="FreeSans" font-size="10.00">pp</text>
</a>
</g>
<!-- Node21&#45;&gt;Node22 -->
<g id="edge46" class="edge"><title>Node21&#45;&gt;Node22</title>
<path fill="none" stroke="midnightblue" d="M864.695,-83.9235C875.877,-85.874 887.36,-87.8768 896.094,-89.4"/>
<polygon fill="midnightblue" stroke="midnightblue" points="865.049,-80.4325 854.596,-82.1621 863.846,-87.3284 865.049,-80.4325"/>
</g>
<!-- Node23 -->
<g id="node47" class="node"><title>Node23</title>
<a xlink:href="cvm-hfa-search_8c.html#a6dbb15dc58155b2c94b19784ad42ef89" target="_top" xlink:title="This routine post&#45;processes the search results from the HFA engine and reports the pattern matches fo...">
<polygon fill="white" stroke="black" points="962.5,-100.5 962.5,-121.5 1109.5,-121.5 1109.5,-100.5 962.5,-100.5"/>
<text text-anchor="middle" x="1036" y="-108.5" font-family="FreeSans" font-size="10.00">hfa_searchctx_getmatches</text>
</a>
</g>
<!-- Node22&#45;&gt;Node23 -->
<g id="edge48" class="edge"><title>Node22&#45;&gt;Node23</title>
<path fill="none" stroke="midnightblue" d="M935.993,-95.799C945.086,-97.1811 955.86,-98.8188 966.912,-100.499"/>
<polygon fill="midnightblue" stroke="midnightblue" points="936.242,-92.2967 925.83,-94.2542 935.19,-99.2172 936.242,-92.2967"/>
</g>
<!-- Node23&#45;&gt;Node5 -->
<g id="edge80" class="edge"><title>Node23&#45;&gt;Node5</title>
<path fill="none" stroke="midnightblue" d="M1048.57,-130.141C1066.9,-156.6 1103.47,-204.12 1146,-231 1159.67,-239.642 1177.33,-244.763 1190.79,-247.655"/>
<polygon fill="midnightblue" stroke="midnightblue" points="1051.37,-128.041 1042.86,-121.729 1045.58,-131.97 1051.37,-128.041"/>
</g>
<!-- Node23&#45;&gt;Node11 -->
<g id="edge62" class="edge"><title>Node23&#45;&gt;Node11</title>
<path fill="none" stroke="midnightblue" d="M1055.25,-128.082C1076.25,-145.952 1111.51,-173.753 1146,-191 1153.29,-194.643 1161.37,-197.776 1169.28,-200.408"/>
<polygon fill="midnightblue" stroke="midnightblue" points="1057.53,-125.427 1047.67,-121.539 1052.95,-130.724 1057.53,-125.427"/>
</g>
<!-- Node24 -->
<g id="node49" class="node"><title>Node24</title>
<a xlink:href="flow_8c.html#a2976ab60901b133a56214323fb901663" target="_top" xlink:title="Low level API to poll a flow.">
<polygon fill="white" stroke="black" points="1146.5,-0.5 1146.5,-21.5 1275.5,-21.5 1275.5,-0.5 1146.5,-0.5"/>
<text text-anchor="middle" x="1211" y="-8.5" font-family="FreeSans" font-size="10.00">__hfaf_process_pktflow</text>
</a>
</g>
<!-- Node23&#45;&gt;Node24 -->
<g id="edge50" class="edge"><title>Node23&#45;&gt;Node24</title>
<path fill="none" stroke="midnightblue" d="M1055.25,-93.9177C1076.25,-76.0485 1111.51,-48.2472 1146,-31 1153.29,-27.3567 1161.37,-24.2244 1169.28,-21.5923"/>
<polygon fill="midnightblue" stroke="midnightblue" points="1052.95,-91.2757 1047.67,-100.461 1057.53,-96.5733 1052.95,-91.2757"/>
</g>
<!-- Node30 -->
<g id="node62" class="node"><title>Node30</title>
<a xlink:href="hfa-lnx-ctx_8c.html#a71e1d3d18cc48b90a1ecde583ffb3f7a" target="_top" xlink:title="poll_searchctx">
<polygon fill="white" stroke="black" points="1168,-160.5 1168,-181.5 1254,-181.5 1254,-160.5 1168,-160.5"/>
<text text-anchor="middle" x="1211" y="-168.5" font-family="FreeSans" font-size="10.00">poll_searchctx</text>
</a>
</g>
<!-- Node23&#45;&gt;Node30 -->
<g id="edge64" class="edge"><title>Node23&#45;&gt;Node30</title>
<path fill="none" stroke="midnightblue" d="M1073.49,-125.162C1094.68,-133.034 1121.72,-142.855 1146,-151 1155.51,-154.192 1165.88,-157.469 1175.48,-160.423"/>
<polygon fill="midnightblue" stroke="midnightblue" points="1074.49,-121.799 1063.9,-121.583 1072.04,-128.357 1074.49,-121.799"/>
</g>
<!-- Node33 -->
<g id="node68" class="node"><title>Node33</title>
<a xlink:href="hfa-lnx-linkgraph_8c.html#a78ffddbcd7cdd164889cfb53ea367886" target="_top" xlink:title="entry">
<polygon fill="white" stroke="black" points="1190.5,-120.5 1190.5,-141.5 1231.5,-141.5 1231.5,-120.5 1190.5,-120.5"/>
<text text-anchor="middle" x="1211" y="-128.5" font-family="FreeSans" font-size="10.00">entry</text>
</a>
</g>
<!-- Node23&#45;&gt;Node33 -->
<g id="edge70" class="edge"><title>Node23&#45;&gt;Node33</title>
<path fill="none" stroke="midnightblue" d="M1119.74,-120.57C1146.02,-123.573 1172.75,-126.629 1190.43,-128.649"/>
<polygon fill="midnightblue" stroke="midnightblue" points="1120.04,-117.082 1109.71,-119.424 1119.25,-124.037 1120.04,-117.082"/>
</g>
<!-- Node34 -->
<g id="node70" class="node"><title>Node34</title>
<a xlink:href="hfa-lnx-nctx-lock_8c.html#adb0c831ef0f9af5441a6769c377d9c95" target="_top" xlink:title="Post process the results from HFA and record found matches.">
<polygon fill="white" stroke="black" points="1171,-80.5 1171,-101.5 1251,-101.5 1251,-80.5 1171,-80.5"/>
<text text-anchor="middle" x="1211" y="-88.5" font-family="FreeSans" font-size="10.00">post_process</text>
</a>
</g>
<!-- Node23&#45;&gt;Node34 -->
<g id="edge72" class="edge"><title>Node23&#45;&gt;Node34</title>
<path fill="none" stroke="midnightblue" d="M1120.07,-101.392C1137.75,-99.3716 1155.61,-97.3302 1170.77,-95.5978"/>
<polygon fill="midnightblue" stroke="midnightblue" points="1119.25,-97.9632 1109.71,-102.576 1120.04,-104.918 1119.25,-97.9632"/>
</g>
<!-- Node37 -->
<g id="node78" class="node"><title>Node37</title>
<a xlink:href="hfa-se-wqe-lock_8c.html#a06b5fcfab0e1d5eb36b633ec080ad7f9" target="_top" xlink:title="Process search for given contexts.">
<polygon fill="white" stroke="black" points="1171,-40.5 1171,-61.5 1251,-61.5 1251,-40.5 1171,-40.5"/>
<text text-anchor="middle" x="1211" y="-48.5" font-family="FreeSans" font-size="10.00">process_nctx</text>
</a>
</g>
<!-- Node23&#45;&gt;Node37 -->
<g id="edge82" class="edge"><title>Node23&#45;&gt;Node37</title>
<path fill="none" stroke="midnightblue" d="M1073.49,-96.8378C1094.68,-88.9657 1121.72,-79.145 1146,-71 1155.51,-67.8085 1165.88,-64.5314 1175.48,-61.5775"/>
<polygon fill="midnightblue" stroke="midnightblue" points="1072.04,-93.6425 1063.9,-100.417 1074.49,-100.201 1072.04,-93.6425"/>
</g>
<!-- Node25 -->
<g id="node51" class="node"><title>Node25</title>
<a xlink:href="flow_8h.html#ab1b3378af88a440a6c3c0851be942e65" target="_top" xlink:title="All submitted search parameters in Paramlist of flow are polled If low level API __hfaf_process_pktfl...">
<polygon fill="white" stroke="black" points="1312.5,-0.5 1312.5,-21.5 1431.5,-21.5 1431.5,-0.5 1312.5,-0.5"/>
<text text-anchor="middle" x="1372" y="-8.5" font-family="FreeSans" font-size="10.00">hfaf_process_pktflow</text>
</a>
</g>
<!-- Node24&#45;&gt;Node25 -->
<g id="edge52" class="edge"><title>Node24&#45;&gt;Node25</title>
<path fill="none" stroke="midnightblue" d="M1285.62,-11C1294.59,-11 1303.66,-11 1312.38,-11"/>
<polygon fill="midnightblue" stroke="midnightblue" points="1285.56,-7.5001 1275.56,-11 1285.56,-14.5001 1285.56,-7.5001"/>
</g>
<!-- Node26 -->
<g id="node53" class="node"><title>Node26</title>
<a xlink:href="hfa-se-flow_8c.html#a2d83c733eacd7afc955c3af18edcb52a" target="_top" xlink:title="Polls for a submitted search instruction of a flow.">
<polygon fill="white" stroke="black" points="1471.5,-0.5 1471.5,-21.5 1556.5,-21.5 1556.5,-0.5 1471.5,-0.5"/>
<text text-anchor="middle" x="1514" y="-8.5" font-family="FreeSans" font-size="10.00">__processflow</text>
</a>
</g>
<!-- Node25&#45;&gt;Node26 -->
<g id="edge54" class="edge"><title>Node25&#45;&gt;Node26</title>
<path fill="none" stroke="midnightblue" d="M1442.08,-11C1451.98,-11 1461.9,-11 1471.08,-11"/>
<polygon fill="midnightblue" stroke="midnightblue" points="1441.81,-7.5001 1431.81,-11 1441.81,-14.5001 1441.81,-7.5001"/>
</g>
<!-- Node27 -->
<g id="node55" class="node"><title>Node27</title>
<a xlink:href="hfa-se-flow_8c.html#a786591694a8f8fb46cedbc8a580c88f6" target="_top" xlink:title="Submitting or Polling flows from the software recently used cache IF Cache is empty, it tries to refill it.">
<polygon fill="white" stroke="black" points="1596.5,-0.5 1596.5,-21.5 1659.5,-21.5 1659.5,-0.5 1596.5,-0.5"/>
<text text-anchor="middle" x="1628" y="-8.5" font-family="FreeSans" font-size="10.00">do_cache</text>
</a>
</g>
<!-- Node26&#45;&gt;Node27 -->
<g id="edge56" class="edge"><title>Node26&#45;&gt;Node27</title>
<path fill="none" stroke="midnightblue" d="M1566.78,-11C1576.9,-11 1587.2,-11 1596.39,-11"/>
<polygon fill="midnightblue" stroke="midnightblue" points="1566.77,-7.5001 1556.77,-11 1566.77,-14.5001 1566.77,-7.5001"/>
</g>
<!-- Node28 -->
<g id="node57" class="node"><title>Node28</title>
<a xlink:href="hfa-se-flow_8c.html#aba72a61590283e37ffd78b4defd38220" target="_top" xlink:title="Receive network packets and process.">
<polygon fill="white" stroke="black" points="1696,-0.5 1696,-21.5 1792,-21.5 1792,-0.5 1696,-0.5"/>
<text text-anchor="middle" x="1744" y="-8.5" font-family="FreeSans" font-size="10.00">process_packets</text>
</a>
</g>
<!-- Node27&#45;&gt;Node28 -->
<g id="edge58" class="edge"><title>Node27&#45;&gt;Node28</title>
<path fill="none" stroke="midnightblue" d="M1669.71,-11C1678.17,-11 1687.13,-11 1695.79,-11"/>
<polygon fill="midnightblue" stroke="midnightblue" points="1669.7,-7.5001 1659.7,-11 1669.7,-14.5001 1669.7,-7.5001"/>
</g>
<!-- Node29 -->
<g id="node59" class="node"><title>Node29</title>
<a xlink:href="hfa-se-flow-wqe_8c.html#a3c04138a5bfe5d72780bb7e82a18e627" target="_top" xlink:title="Implementation.">
<polygon fill="white" stroke="black" points="1828,-0.5 1828,-21.5 1868,-21.5 1868,-0.5 1828,-0.5"/>
<text text-anchor="middle" x="1848" y="-8.5" font-family="FreeSans" font-size="10.00">main</text>
</a>
</g>
<!-- Node28&#45;&gt;Node29 -->
<g id="edge60" class="edge"><title>Node28&#45;&gt;Node29</title>
<path fill="none" stroke="midnightblue" d="M1802.15,-11C1811.41,-11 1820.42,-11 1827.96,-11"/>
<polygon fill="midnightblue" stroke="midnightblue" points="1802.04,-7.5001 1792.04,-11 1802.04,-14.5001 1802.04,-7.5001"/>
</g>
<!-- Node31 -->
<g id="node64" class="node"><title>Node31</title>
<a xlink:href="hfa-lnx-ctx_8c.html#a934a9fc08c4aab25d6f0d861e4a4f762" target="_top" xlink:title="poll">
<polygon fill="white" stroke="black" points="1355.5,-160.5 1355.5,-181.5 1388.5,-181.5 1388.5,-160.5 1355.5,-160.5"/>
<text text-anchor="middle" x="1372" y="-168.5" font-family="FreeSans" font-size="10.00">poll</text>
</a>
</g>
<!-- Node30&#45;&gt;Node31 -->
<g id="edge66" class="edge"><title>Node30&#45;&gt;Node31</title>
<path fill="none" stroke="midnightblue" d="M1264.2,-171C1295.95,-171 1334.13,-171 1355.48,-171"/>
<polygon fill="midnightblue" stroke="midnightblue" points="1264.15,-167.5 1254.15,-171 1264.15,-174.5 1264.15,-167.5"/>
</g>
<!-- Node32 -->
<g id="node66" class="node"><title>Node32</title>
<a xlink:href="hfa-lnx-ctx_8c.html#a97df0ba8293c1b8436547946fd9d0d17" target="_top" xlink:title="process_pkt">
<polygon fill="white" stroke="black" points="1477,-160.5 1477,-181.5 1551,-181.5 1551,-160.5 1477,-160.5"/>
<text text-anchor="middle" x="1514" y="-168.5" font-family="FreeSans" font-size="10.00">process_pkt</text>
</a>
</g>
<!-- Node31&#45;&gt;Node32 -->
<g id="edge68" class="edge"><title>Node31&#45;&gt;Node32</title>
<path fill="none" stroke="midnightblue" d="M1398.86,-171C1420.91,-171 1452.38,-171 1476.84,-171"/>
<polygon fill="midnightblue" stroke="midnightblue" points="1398.57,-167.5 1388.57,-171 1398.57,-174.5 1398.57,-167.5"/>
</g>
<!-- Node35 -->
<g id="node72" class="node"><title>Node35</title>
<a xlink:href="hfa-lnx-nctx-lock_8c.html#a48d3743fb7abc7d3c6b68359678e52a1" target="_top" xlink:title="Poll for the pending search instructions in the HW (blocked till instruction completes) and process t...">
<polygon fill="white" stroke="black" points="1355.5,-119.5 1355.5,-140.5 1388.5,-140.5 1388.5,-119.5 1355.5,-119.5"/>
<text text-anchor="middle" x="1372" y="-127.5" font-family="FreeSans" font-size="10.00">poll</text>
</a>
</g>
<!-- Node34&#45;&gt;Node35 -->
<g id="edge74" class="edge"><title>Node34&#45;&gt;Node35</title>
<path fill="none" stroke="midnightblue" d="M1260.95,-103.099C1293.19,-110.91 1333.12,-120.583 1355.25,-125.942"/>
<polygon fill="midnightblue" stroke="midnightblue" points="1261.75,-99.6935 1251.21,-100.741 1260.11,-106.497 1261.75,-99.6935"/>
</g>
<!-- Node36 -->
<g id="node74" class="node"><title>Node36</title>
<a xlink:href="hfa-lnx-nctx-lock_8c.html#a972f8b60ef804914c009c2ef85bac50e" target="_top" xlink:title="Performs search process for each core.">
<polygon fill="white" stroke="black" points="1468,-99.5 1468,-120.5 1560,-120.5 1560,-99.5 1468,-99.5"/>
<text text-anchor="middle" x="1514" y="-107.5" font-family="FreeSans" font-size="10.00">process_search</text>
</a>
</g>
<!-- Node34&#45;&gt;Node36 -->
<g id="edge78" class="edge"><title>Node34&#45;&gt;Node36</title>
<path fill="none" stroke="midnightblue" d="M1261.55,-94.1696C1319.08,-97.7775 1412.27,-103.621 1467.89,-107.109"/>
<polygon fill="midnightblue" stroke="midnightblue" points="1261.44,-90.6558 1251.24,-93.5231 1261,-97.6421 1261.44,-90.6558"/>
</g>
<!-- Node35&#45;&gt;Node36 -->
<g id="edge76" class="edge"><title>Node35&#45;&gt;Node36</title>
<path fill="none" stroke="midnightblue" d="M1398.53,-126.263C1417.98,-123.524 1444.88,-119.736 1467.82,-116.505"/>
<polygon fill="midnightblue" stroke="midnightblue" points="1397.98,-122.806 1388.57,-127.667 1398.96,-129.738 1397.98,-122.806"/>
</g>
<!-- Node38 -->
<g id="node80" class="node"><title>Node38</title>
<a xlink:href="hfa-se-wqe-lock_8c.html#a3c04138a5bfe5d72780bb7e82a18e627" target="_top" xlink:title="main">
<polygon fill="white" stroke="black" points="1352,-40.5 1352,-61.5 1392,-61.5 1392,-40.5 1352,-40.5"/>
<text text-anchor="middle" x="1372" y="-48.5" font-family="FreeSans" font-size="10.00">main</text>
</a>
</g>
<!-- Node37&#45;&gt;Node38 -->
<g id="edge84" class="edge"><title>Node37&#45;&gt;Node38</title>
<path fill="none" stroke="midnightblue" d="M1261.3,-51C1291.9,-51 1329.31,-51 1351.87,-51"/>
<polygon fill="midnightblue" stroke="midnightblue" points="1261.21,-47.5001 1251.21,-51 1261.21,-54.5001 1261.21,-47.5001"/>
</g>
</g>
</svg>
        <g id="navigator" transform="translate(0 0)" fill="#404254">
                <rect fill="#f2f5e9" fill-opacity="0.5" stroke="#606060" stroke-width=".5" x="0" y="0" width="60" height="60"/>
                <use id="zoomplus" xlink:href="#zoomPlus" x="17" y="9" onmousedown="handleZoom(evt,'in')"/>
                <use id="zoomminus" xlink:href="#zoomMin" x="42" y="9" onmousedown="handleZoom(evt,'out')"/>
                <use id="reset" xlink:href="#resetDef" x="30" y="36" onmousedown="handleReset()"/>
                <g id="arrowUp" xlink:href="#dirArrow" transform="translate(30 24)" onmousedown="handlePan(0,-1)">
                  <use xlink:href="#rim" fill="#404040">
                        <set attributeName="fill" to="#808080" begin="arrowUp.mouseover" end="arrowUp.mouseout"/>
                  </use>
                  <path fill="none" stroke="white" stroke-width="1.5" d="M0,-3.0v7 M-2.5,-0.5L0,-3.0L2.5,-0.5"/>
                </g>
                <g id="arrowRight" xlink:href="#dirArrow" transform="rotate(90) translate(36 -43)" onmousedown="handlePan(1,0)">
                  <use xlink:href="#rim" fill="#404040">
                        <set attributeName="fill" to="#808080" begin="arrowRight.mouseover" end="arrowRight.mouseout"/>
                  </use>
                  <path fill="none" stroke="white" stroke-width="1.5" d="M0,-3.0v7 M-2.5,-0.5L0,-3.0L2.5,-0.5"/>
                </g>
                <g id="arrowDown" xlink:href="#dirArrow" transform="rotate(180) translate(-30 -48)" onmousedown="handlePan(0,1)">
                  <use xlink:href="#rim" fill="#404040">
                        <set attributeName="fill" to="#808080" begin="arrowDown.mouseover" end="arrowDown.mouseout"/>
                  </use>
                  <path fill="none" stroke="white" stroke-width="1.5" d="M0,-3.0v7 M-2.5,-0.5L0,-3.0L2.5,-0.5"/>
                </g>
                <g id="arrowLeft" xlink:href="#dirArrow" transform="rotate(270) translate(-36 17)" onmousedown="handlePan(-1,0)">
                  <use xlink:href="#rim" fill="#404040">
                        <set attributeName="fill" to="#808080" begin="arrowLeft.mouseover" end="arrowLeft.mouseout"/>
                  </use>
                  <path fill="none" stroke="white" stroke-width="1.5" d="M0,-3.0v7 M-2.5,-0.5L0,-3.0L2.5,-0.5"/>
                </g>
        </g>
        <svg viewBox="0 0 15 15" width="100%" height="30px" preserveAspectRatio="xMaxYMin meet">
         <g id="arrow_out" transform="scale(0.3 0.3)">
          <a xlink:href="cvm-hfa-stats_8c_acbdfa65e476c04cd9b67b7c462eefe56_icgraph_org.svg" target="_base">
           <rect id="button" ry="5" rx="5" y="6" x="6" height="38" width="38"
                fill="#f2f5e9" fill-opacity="0.5" stroke="#606060" stroke-width="1.0"/>
           <path id="arrow"
             d="M 11.500037,31.436501 C 11.940474,20.09759 22.043105,11.32322 32.158766,21.979434 L 37.068811,17.246167 C 37.068811,17.246167 37.088388,32 37.088388,32 L 22.160133,31.978069 C 22.160133,31.978069 26.997745,27.140456 26.997745,27.140456 C 18.528582,18.264221 13.291696,25.230495 11.500037,31.436501 z"
             style="fill:#404040;"/>
          </a>
         </g>
        </svg>
</svg>
