<?xml version="1.0" encoding="UTF-8" standalone="no"?>
<!DOCTYPE svg PUBLIC "-//W3C//DTD SVG 1.1//EN"
 "http://www.w3.org/Graphics/SVG/1.1/DTD/svg11.dtd">
<!-- Generated by graphviz version 2.24.0 (20090616.2323)
 -->
<!-- Title: hfa_graph_getsavelen Pages: 1 -->
<svg width="316pt" height="30pt"
 viewBox="0.00 0.00 316.00 30.00" xmlns="http://www.w3.org/2000/svg" xmlns:xlink="http://www.w3.org/1999/xlink">
<g id="graph1" class="graph" transform="scale(1 1) rotate(0) translate(4 26)">
<title>hfa_graph_getsavelen</title>
<polygon fill="white" stroke="white" points="-4,5 -4,-26 313,-26 313,5 -4,5"/>
<!-- Node1 -->
<g id="node1" class="node"><title>Node1</title>
<polygon fill="#bfbfbf" stroke="black" points="0.5,-0.5 0.5,-21.5 123.5,-21.5 123.5,-0.5 0.5,-0.5"/>
<text text-anchor="middle" x="62" y="-8.5" font-family="FreeSans" font-size="10.00">hfa_graph_getsavelen</text>
</g>
<!-- Node2 -->
<g id="node3" class="node"><title>Node2</title>
<a xlink:href="hfa-lnx-async_8c.html#a546f3769e735d4bef0bfab1cba56921c" target="_top" xlink:title="Load graph to HFA memory and cache.">
<polygon fill="white" stroke="black" points="160.5,-0.5 160.5,-21.5 229.5,-21.5 229.5,-0.5 160.5,-0.5"/>
<text text-anchor="middle" x="195" y="-8.5" font-family="FreeSans" font-size="10.00">graph_load</text>
</a>
</g>
<!-- Node1&#45;&gt;Node2 -->
<g id="edge2" class="edge"><title>Node1&#45;&gt;Node2</title>
<path fill="none" stroke="midnightblue" d="M134.08,-11C143.14,-11 152.061,-11 160.164,-11"/>
<polygon fill="midnightblue" stroke="midnightblue" points="133.828,-7.5001 123.828,-11 133.828,-14.5001 133.828,-7.5001"/>
</g>
<!-- Node3 -->
<g id="node5" class="node"><title>Node3</title>
<a xlink:href="hfa-lnx-async_8c.html#a78ffddbcd7cdd164889cfb53ea367886" target="_top" xlink:title="entry">
<polygon fill="white" stroke="black" points="266.5,-0.5 266.5,-21.5 307.5,-21.5 307.5,-0.5 266.5,-0.5"/>
<text text-anchor="middle" x="287" y="-8.5" font-family="FreeSans" font-size="10.00">entry</text>
</a>
</g>
<!-- Node2&#45;&gt;Node3 -->
<g id="edge4" class="edge"><title>Node2&#45;&gt;Node3</title>
<path fill="none" stroke="midnightblue" d="M239.612,-11C249.01,-11 258.485,-11 266.466,-11"/>
<polygon fill="midnightblue" stroke="midnightblue" points="239.519,-7.5001 229.519,-11 239.519,-14.5001 239.519,-7.5001"/>
</g>
</g>
</svg>
