<?xml version="1.0" encoding="UTF-8" standalone="no"?>
<!DOCTYPE svg PUBLIC "-//W3C//DTD SVG 1.1//EN"
 "http://www.w3.org/Graphics/SVG/1.1/DTD/svg11.dtd">
<!-- Generated by graphviz version 2.24.0 (20090616.2323)
 -->
<!-- Title: hfa_match_get Pages: 1 -->
<svg width="640pt" height="209pt"
 viewBox="0.00 0.00 640.00 209.00" xmlns="http://www.w3.org/2000/svg" xmlns:xlink="http://www.w3.org/1999/xlink">
<g id="graph1" class="graph" transform="scale(1 1) rotate(0) translate(4 205)">
<title>hfa_match_get</title>
<polygon fill="white" stroke="white" points="-4,5 -4,-205 637,-205 637,5 -4,5"/>
<!-- Node1 -->
<g id="node1" class="node"><title>Node1</title>
<polygon fill="#bfbfbf" stroke="black" points="0,-80.5 0,-101.5 88,-101.5 88,-80.5 0,-80.5"/>
<text text-anchor="middle" x="44" y="-88.5" font-family="FreeSans" font-size="10.00">hfa_match_get</text>
</g>
<!-- Node2 -->
<g id="node3" class="node"><title>Node2</title>
<a xlink:href="app-utils_8c.html#a633038357891aa5147b77fe939f300bf" target="_top" xlink:title="Print pattern matches via match buffer and cleanup all matches.">
<polygon fill="white" stroke="black" points="124,-80.5 124,-101.5 248,-101.5 248,-80.5 124,-80.5"/>
<text text-anchor="middle" x="186" y="-88.5" font-family="FreeSans" font-size="10.00">hfautils_print_matches</text>
</a>
</g>
<!-- Node1&#45;&gt;Node2 -->
<g id="edge2" class="edge"><title>Node1&#45;&gt;Node2</title>
<path fill="none" stroke="midnightblue" d="M98.1984,-91C106.598,-91 115.331,-91 123.889,-91"/>
<polygon fill="midnightblue" stroke="midnightblue" points="98.1513,-87.5001 88.1513,-91 98.1513,-94.5001 98.1513,-87.5001"/>
</g>
<!-- Node3 -->
<g id="node5" class="node"><title>Node3</title>
<a xlink:href="hfa-lnx-async_8c.html#a972f8b60ef804914c009c2ef85bac50e" target="_top" xlink:title="Process search for given payload and graph.">
<polygon fill="white" stroke="black" points="284,-160.5 284,-181.5 376,-181.5 376,-160.5 284,-160.5"/>
<text text-anchor="middle" x="330" y="-168.5" font-family="FreeSans" font-size="10.00">process_search</text>
</a>
</g>
<!-- Node2&#45;&gt;Node3 -->
<g id="edge4" class="edge"><title>Node2&#45;&gt;Node3</title>
<path fill="none" stroke="midnightblue" d="M210.463,-107.295C229.961,-119.957 258.181,-137.566 284,-151 290.335,-154.296 297.331,-157.532 303.915,-160.409"/>
<polygon fill="midnightblue" stroke="midnightblue" points="212.183,-104.237 201.899,-101.687 208.348,-110.094 212.183,-104.237"/>
</g>
<!-- Node7 -->
<g id="node14" class="node"><title>Node7</title>
<a xlink:href="hfa-lnx-linkgraph_8c.html#a78ffddbcd7cdd164889cfb53ea367886" target="_top" xlink:title="entry">
<polygon fill="white" stroke="black" points="309.5,-120.5 309.5,-141.5 350.5,-141.5 350.5,-120.5 309.5,-120.5"/>
<text text-anchor="middle" x="330" y="-128.5" font-family="FreeSans" font-size="10.00">entry</text>
</a>
</g>
<!-- Node2&#45;&gt;Node7 -->
<g id="edge14" class="edge"><title>Node2&#45;&gt;Node7</title>
<path fill="none" stroke="midnightblue" d="M233.76,-104.267C259.389,-111.386 289.658,-119.794 309.311,-125.253"/>
<polygon fill="midnightblue" stroke="midnightblue" points="234.406,-100.814 223.834,-101.51 232.533,-107.558 234.406,-100.814"/>
</g>
<!-- Node8 -->
<g id="node16" class="node"><title>Node8</title>
<a xlink:href="hfa-lnx-nctx-lock_8c.html#adb0c831ef0f9af5441a6769c377d9c95" target="_top" xlink:title="Post process the results from HFA and record found matches.">
<polygon fill="white" stroke="black" points="290,-80.5 290,-101.5 370,-101.5 370,-80.5 290,-80.5"/>
<text text-anchor="middle" x="330" y="-88.5" font-family="FreeSans" font-size="10.00">post_process</text>
</a>
</g>
<!-- Node2&#45;&gt;Node8 -->
<g id="edge16" class="edge"><title>Node2&#45;&gt;Node8</title>
<path fill="none" stroke="midnightblue" d="M258.541,-91C269.226,-91 279.895,-91 289.607,-91"/>
<polygon fill="midnightblue" stroke="midnightblue" points="258.323,-87.5001 248.323,-91 258.323,-94.5001 258.323,-87.5001"/>
</g>
<!-- Node11 -->
<g id="node23" class="node"><title>Node11</title>
<a xlink:href="hfa-se-async_8c.html#a3c04138a5bfe5d72780bb7e82a18e627" target="_top" xlink:title="main">
<polygon fill="white" stroke="black" points="310,-40.5 310,-61.5 350,-61.5 350,-40.5 310,-40.5"/>
<text text-anchor="middle" x="330" y="-48.5" font-family="FreeSans" font-size="10.00">main</text>
</a>
</g>
<!-- Node2&#45;&gt;Node11 -->
<g id="edge24" class="edge"><title>Node2&#45;&gt;Node11</title>
<path fill="none" stroke="midnightblue" d="M233.48,-77.8111C259.346,-70.6262 290.006,-62.1095 309.717,-56.6343"/>
<polygon fill="midnightblue" stroke="midnightblue" points="232.533,-74.4416 223.834,-80.4905 234.406,-81.1863 232.533,-74.4416"/>
</g>
<!-- Node12 -->
<g id="node25" class="node"><title>Node12</title>
<a xlink:href="hfa-se-wqe-lock_8c.html#a06b5fcfab0e1d5eb36b633ec080ad7f9" target="_top" xlink:title="Process search for given contexts.">
<polygon fill="white" stroke="black" points="290,-0.5 290,-21.5 370,-21.5 370,-0.5 290,-0.5"/>
<text text-anchor="middle" x="330" y="-8.5" font-family="FreeSans" font-size="10.00">process_nctx</text>
</a>
</g>
<!-- Node2&#45;&gt;Node12 -->
<g id="edge26" class="edge"><title>Node2&#45;&gt;Node12</title>
<path fill="none" stroke="midnightblue" d="M210.463,-74.7052C229.961,-62.0429 258.181,-44.4337 284,-31 290.335,-27.7041 297.331,-24.4676 303.915,-21.5907"/>
<polygon fill="midnightblue" stroke="midnightblue" points="208.348,-71.9064 201.899,-80.3128 212.183,-77.7626 208.348,-71.9064"/>
</g>
<!-- Node4 -->
<g id="node7" class="node"><title>Node4</title>
<a xlink:href="hfa-lnx-async_8c.html#a1e97b1d598034fdc92d57054a6c386e6" target="_top" xlink:title="tasklet_callback">
<polygon fill="white" stroke="black" points="412,-179.5 412,-200.5 504,-200.5 504,-179.5 412,-179.5"/>
<text text-anchor="middle" x="458" y="-187.5" font-family="FreeSans" font-size="10.00">tasklet_callback</text>
</a>
</g>
<!-- Node3&#45;&gt;Node4 -->
<g id="edge6" class="edge"><title>Node3&#45;&gt;Node4</title>
<path fill="none" stroke="midnightblue" d="M386.162,-179.337C394.746,-180.611 403.521,-181.913 411.857,-183.151"/>
<polygon fill="midnightblue" stroke="midnightblue" points="386.616,-175.866 376.211,-177.859 385.589,-182.79 386.616,-175.866"/>
</g>
<!-- Node6 -->
<g id="node11" class="node"><title>Node6</title>
<a xlink:href="hfa-lnx-async_8c.html#a7dea7d59754828b1173c4c7ec5d42f3e" target="_top" xlink:title="thread_callback">
<polygon fill="white" stroke="black" points="412,-139.5 412,-160.5 504,-160.5 504,-139.5 412,-139.5"/>
<text text-anchor="middle" x="458" y="-147.5" font-family="FreeSans" font-size="10.00">thread_callback</text>
</a>
</g>
<!-- Node3&#45;&gt;Node6 -->
<g id="edge10" class="edge"><title>Node3&#45;&gt;Node6</title>
<path fill="none" stroke="midnightblue" d="M386.162,-161.786C394.746,-160.378 403.521,-158.938 411.857,-157.57"/>
<polygon fill="midnightblue" stroke="midnightblue" points="385.512,-158.346 376.211,-163.419 386.646,-165.253 385.512,-158.346"/>
</g>
<!-- Node5 -->
<g id="node9" class="node"><title>Node5</title>
<a xlink:href="hfa-lnx-async_8c.html#a78ffddbcd7cdd164889cfb53ea367886" target="_top" xlink:title="entry">
<polygon fill="white" stroke="black" points="565.5,-148.5 565.5,-169.5 606.5,-169.5 606.5,-148.5 565.5,-148.5"/>
<text text-anchor="middle" x="586" y="-156.5" font-family="FreeSans" font-size="10.00">entry</text>
</a>
</g>
<!-- Node4&#45;&gt;Node5 -->
<g id="edge8" class="edge"><title>Node4&#45;&gt;Node5</title>
<path fill="none" stroke="midnightblue" d="M511.493,-177.045C530.528,-172.435 550.839,-167.516 565.438,-163.98"/>
<polygon fill="midnightblue" stroke="midnightblue" points="510.587,-173.663 501.692,-179.418 512.235,-180.466 510.587,-173.663"/>
</g>
<!-- Node6&#45;&gt;Node5 -->
<g id="edge12" class="edge"><title>Node6&#45;&gt;Node5</title>
<path fill="none" stroke="midnightblue" d="M514.428,-153.968C532.516,-155.239 551.421,-156.569 565.257,-157.541"/>
<polygon fill="midnightblue" stroke="midnightblue" points="514.432,-150.459 504.211,-153.249 513.941,-157.442 514.432,-150.459"/>
</g>
<!-- Node9 -->
<g id="node18" class="node"><title>Node9</title>
<a xlink:href="hfa-lnx-nctx-lock_8c.html#a48d3743fb7abc7d3c6b68359678e52a1" target="_top" xlink:title="Poll for the pending search instructions in the HW (blocked till instruction completes) and process t...">
<polygon fill="white" stroke="black" points="441.5,-99.5 441.5,-120.5 474.5,-120.5 474.5,-99.5 441.5,-99.5"/>
<text text-anchor="middle" x="458" y="-107.5" font-family="FreeSans" font-size="10.00">poll</text>
</a>
</g>
<!-- Node8&#45;&gt;Node9 -->
<g id="edge18" class="edge"><title>Node8&#45;&gt;Node9</title>
<path fill="none" stroke="midnightblue" d="M380.264,-98.461C401.994,-101.687 425.941,-105.241 441.434,-107.541"/>
<polygon fill="midnightblue" stroke="midnightblue" points="380.554,-94.9659 370.149,-96.9596 379.526,-101.89 380.554,-94.9659"/>
</g>
<!-- Node10 -->
<g id="node20" class="node"><title>Node10</title>
<a xlink:href="hfa-lnx-nctx-lock_8c.html#a972f8b60ef804914c009c2ef85bac50e" target="_top" xlink:title="Performs search process for each core.">
<polygon fill="white" stroke="black" points="540,-89.5 540,-110.5 632,-110.5 632,-89.5 540,-89.5"/>
<text text-anchor="middle" x="586" y="-97.5" font-family="FreeSans" font-size="10.00">process_search</text>
</a>
</g>
<!-- Node8&#45;&gt;Node10 -->
<g id="edge22" class="edge"><title>Node8&#45;&gt;Node10</title>
<path fill="none" stroke="midnightblue" d="M380.492,-88.9418C415.248,-87.9584 462.464,-87.4767 504,-90 515.595,-90.7044 528.062,-91.9642 539.688,-93.3574"/>
<polygon fill="midnightblue" stroke="midnightblue" points="380.013,-85.4548 370.125,-89.2604 380.228,-92.4515 380.013,-85.4548"/>
</g>
<!-- Node9&#45;&gt;Node10 -->
<g id="edge20" class="edge"><title>Node9&#45;&gt;Node10</title>
<path fill="none" stroke="midnightblue" d="M484.908,-107.898C500.799,-106.656 521.351,-105.051 539.769,-103.612"/>
<polygon fill="midnightblue" stroke="midnightblue" points="484.431,-104.424 474.734,-108.693 484.976,-111.403 484.431,-104.424"/>
</g>
<!-- Node13 -->
<g id="node27" class="node"><title>Node13</title>
<a xlink:href="hfa-se-wqe-lock_8c.html#a3c04138a5bfe5d72780bb7e82a18e627" target="_top" xlink:title="main">
<polygon fill="white" stroke="black" points="438,-0.5 438,-21.5 478,-21.5 478,-0.5 438,-0.5"/>
<text text-anchor="middle" x="458" y="-8.5" font-family="FreeSans" font-size="10.00">main</text>
</a>
</g>
<!-- Node12&#45;&gt;Node13 -->
<g id="edge28" class="edge"><title>Node12&#45;&gt;Node13</title>
<path fill="none" stroke="midnightblue" d="M380.397,-11C400.403,-11 422.267,-11 437.675,-11"/>
<polygon fill="midnightblue" stroke="midnightblue" points="380.149,-7.5001 370.149,-11 380.149,-14.5001 380.149,-7.5001"/>
</g>
</g>
</svg>
