<?xml version="1.0" encoding="UTF-8" standalone="no"?>
<!DOCTYPE svg PUBLIC "-//W3C//DTD SVG 1.1//EN"
 "http://www.w3.org/Graphics/SVG/1.1/DTD/svg11.dtd">
<!-- Generated by graphviz version 2.24.0 (20090616.2323)
 -->
<!-- Title: hfa_free_named_block Pages: 1 -->
<svg width="318pt" height="82pt"
 viewBox="0.00 0.00 318.00 82.00" xmlns="http://www.w3.org/2000/svg" xmlns:xlink="http://www.w3.org/1999/xlink">
<g id="graph1" class="graph" transform="scale(1 1) rotate(0) translate(4 78)">
<title>hfa_free_named_block</title>
<polygon fill="white" stroke="white" points="-4,5 -4,-78 315,-78 315,5 -4,5"/>
<!-- Node1 -->
<g id="node1" class="node"><title>Node1</title>
<polygon fill="#bfbfbf" stroke="black" points="0,-23.5 0,-44.5 126,-44.5 126,-23.5 0,-23.5"/>
<text text-anchor="middle" x="63" y="-31.5" font-family="FreeSans" font-size="10.00">hfa_free_named_block</text>
</g>
<!-- Node2 -->
<g id="node3" class="node"><title>Node2</title>
<a xlink:href="cvmx-hfa_8c.html#a547dc48185d98dcfe05c3f2cf49429fd" target="_top" xlink:title="Finds a named bootmem block by name.">
<polygon fill="white" stroke="black" points="163,-40 163,-74 309,-74 309,-40 163,-40"/>
<text text-anchor="start" x="171" y="-61" font-family="FreeSans" font-size="10.00">hfa_bootmem_find_named</text>
<text text-anchor="middle" x="236" y="-48" font-family="FreeSans" font-size="10.00">_block</text>
</a>
</g>
<!-- Node1&#45;&gt;Node2 -->
<g id="edge2" class="edge"><title>Node1&#45;&gt;Node2</title>
<path fill="none" stroke="midnightblue" d="M126.436,-42.4338C135.054,-43.5795 144.002,-44.7691 152.901,-45.9522"/>
<polygon fill="midnightblue" stroke="midnightblue" points="152.535,-49.4342 162.909,-47.2827 153.457,-42.4952 152.535,-49.4342"/>
</g>
<!-- Node3 -->
<g id="node5" class="node"><title>Node3</title>
<a xlink:href="cvmx-hfa_8c.html#a96a2b8d673269a4c41c3a151e4e56abb" target="_top" xlink:title="Frees a named bootmem block by name.">
<polygon fill="white" stroke="black" points="162.5,-0.5 162.5,-21.5 309.5,-21.5 309.5,-0.5 162.5,-0.5"/>
<text text-anchor="middle" x="236" y="-8.5" font-family="FreeSans" font-size="10.00">hfa_bootmem_free_named</text>
</a>
</g>
<!-- Node1&#45;&gt;Node3 -->
<g id="edge4" class="edge"><title>Node1&#45;&gt;Node3</title>
<path fill="none" stroke="midnightblue" d="M126.436,-25.5662C134.823,-24.4513 143.522,-23.2948 152.185,-22.1431"/>
<polygon fill="midnightblue" stroke="midnightblue" points="152.865,-25.5835 162.317,-20.796 151.943,-18.6445 152.865,-25.5835"/>
</g>
</g>
</svg>
