<?xml version="1.0" encoding="UTF-8" standalone="no"?>
<!DOCTYPE svg PUBLIC "-//W3C//DTD SVG 1.1//EN"
 "http://www.w3.org/Graphics/SVG/1.1/DTD/svg11.dtd">
<!-- Generated by graphviz version 2.24.0 (20090616.2323)
 -->
<!-- Title: hfa_bootmem_free Pages: 1 -->
<svg width="586pt" height="70pt"
 viewBox="0.00 0.00 586.00 70.00" xmlns="http://www.w3.org/2000/svg" xmlns:xlink="http://www.w3.org/1999/xlink">
<g id="graph1" class="graph" transform="scale(1 1) rotate(0) translate(4 66)">
<title>hfa_bootmem_free</title>
<polygon fill="white" stroke="white" points="-4,5 -4,-66 583,-66 583,5 -4,5"/>
<!-- Node1 -->
<g id="node1" class="node"><title>Node1</title>
<polygon fill="#bfbfbf" stroke="black" points="0,-20.5 0,-41.5 108,-41.5 108,-20.5 0,-20.5"/>
<text text-anchor="middle" x="54" y="-28.5" font-family="FreeSans" font-size="10.00">hfa_bootmem_free</text>
</g>
<!-- Node2 -->
<g id="node3" class="node"><title>Node2</title>
<a xlink:href="app-utils_8c.html#a12339c67618c4b3a54c32f43d378c273" target="_top" xlink:title="Read data from a file to a buffer(compressed or uncompressed).">
<polygon fill="white" stroke="black" points="144.5,-20.5 144.5,-41.5 241.5,-41.5 241.5,-20.5 144.5,-20.5"/>
<text text-anchor="middle" x="193" y="-28.5" font-family="FreeSans" font-size="10.00">hfautils_read_file</text>
</a>
</g>
<!-- Node1&#45;&gt;Node2 -->
<g id="edge2" class="edge"><title>Node1&#45;&gt;Node2</title>
<path fill="none" stroke="midnightblue" d="M118.289,-31C127.007,-31 135.835,-31 144.22,-31"/>
<polygon fill="midnightblue" stroke="midnightblue" points="118.139,-27.5001 108.139,-31 118.139,-34.5001 118.139,-27.5001"/>
</g>
<!-- Node3 -->
<g id="node5" class="node"><title>Node3</title>
<a xlink:href="hfa-lnx-async_8c.html#a4c3443f524b4c0d95639694f0b74e850" target="_top" xlink:title="Process command line options, Read graph and payload.">
<polygon fill="white" stroke="black" points="278,-40.5 278,-61.5 372,-61.5 372,-40.5 278,-40.5"/>
<text text-anchor="middle" x="325" y="-48.5" font-family="FreeSans" font-size="10.00">process_options</text>
</a>
</g>
<!-- Node2&#45;&gt;Node3 -->
<g id="edge4" class="edge"><title>Node2&#45;&gt;Node3</title>
<path fill="none" stroke="midnightblue" d="M251.841,-39.9153C260.51,-41.2288 269.346,-42.5676 277.741,-43.8396"/>
<polygon fill="midnightblue" stroke="midnightblue" points="252.188,-36.4281 241.777,-38.3904 251.14,-43.3491 252.188,-36.4281"/>
</g>
<!-- Node5 -->
<g id="node9" class="node"><title>Node5</title>
<a xlink:href="hfa-se-ngraphs_8c.html#aec36c5b3621964d19698bd5331990827" target="_top" xlink:title="Allocate memory to store graph pointers and graph size and read graphs.">
<polygon fill="white" stroke="black" points="284,-0.5 284,-21.5 366,-21.5 366,-0.5 284,-0.5"/>
<text text-anchor="middle" x="325" y="-8.5" font-family="FreeSans" font-size="10.00">ngraphs_read</text>
</a>
</g>
<!-- Node2&#45;&gt;Node5 -->
<g id="edge8" class="edge"><title>Node2&#45;&gt;Node5</title>
<path fill="none" stroke="midnightblue" d="M251.961,-22.0665C262.703,-20.4389 273.696,-18.7733 283.786,-17.2446"/>
<polygon fill="midnightblue" stroke="midnightblue" points="251.14,-18.6509 241.777,-23.6096 252.188,-25.5719 251.14,-18.6509"/>
</g>
<!-- Node4 -->
<g id="node7" class="node"><title>Node4</title>
<a xlink:href="hfa-lnx-async_8c.html#a78ffddbcd7cdd164889cfb53ea367886" target="_top" xlink:title="entry">
<polygon fill="white" stroke="black" points="434.5,-40.5 434.5,-61.5 475.5,-61.5 475.5,-40.5 434.5,-40.5"/>
<text text-anchor="middle" x="455" y="-48.5" font-family="FreeSans" font-size="10.00">entry</text>
</a>
</g>
<!-- Node3&#45;&gt;Node4 -->
<g id="edge6" class="edge"><title>Node3&#45;&gt;Node4</title>
<path fill="none" stroke="midnightblue" d="M382.469,-51C400.994,-51 420.347,-51 434.398,-51"/>
<polygon fill="midnightblue" stroke="midnightblue" points="382.301,-47.5001 372.301,-51 382.301,-54.5001 382.301,-47.5001"/>
</g>
<!-- Node6 -->
<g id="node11" class="node"><title>Node6</title>
<a xlink:href="hfa-se-ngraphs_8c.html#ab42726e951c529a41b8e09fd6e84ada2" target="_top" xlink:title="Process command line options, read graph.">
<polygon fill="white" stroke="black" points="408,-0.5 408,-21.5 502,-21.5 502,-0.5 408,-0.5"/>
<text text-anchor="middle" x="455" y="-8.5" font-family="FreeSans" font-size="10.00">process_options</text>
</a>
</g>
<!-- Node5&#45;&gt;Node6 -->
<g id="edge10" class="edge"><title>Node5&#45;&gt;Node6</title>
<path fill="none" stroke="midnightblue" d="M376.309,-11C386.69,-11 397.559,-11 407.791,-11"/>
<polygon fill="midnightblue" stroke="midnightblue" points="376.133,-7.5001 366.133,-11 376.133,-14.5001 376.133,-7.5001"/>
</g>
<!-- Node7 -->
<g id="node13" class="node"><title>Node7</title>
<a xlink:href="hfa-se-ngraphs_8c.html#a3c04138a5bfe5d72780bb7e82a18e627" target="_top" xlink:title="main">
<polygon fill="white" stroke="black" points="538,-0.5 538,-21.5 578,-21.5 578,-0.5 538,-0.5"/>
<text text-anchor="middle" x="558" y="-8.5" font-family="FreeSans" font-size="10.00">main</text>
</a>
</g>
<!-- Node6&#45;&gt;Node7 -->
<g id="edge12" class="edge"><title>Node6&#45;&gt;Node7</title>
<path fill="none" stroke="midnightblue" d="M512.532,-11C521.572,-11 530.36,-11 537.762,-11"/>
<polygon fill="midnightblue" stroke="midnightblue" points="512.28,-7.5001 502.28,-11 512.28,-14.5001 512.28,-7.5001"/>
</g>
</g>
</svg>
