<?xml version="1.0" encoding="UTF-8" standalone="no"?>
<!DOCTYPE svg PUBLIC "-//W3C//DTD SVG 1.1//EN"
 "http://www.w3.org/Graphics/SVG/1.1/DTD/svg11.dtd">
<!-- Generated by graphviz version 2.24.0 (20090616.2323)
 -->
<!-- Title: cvmx_hfa_submit Pages: 1 -->
<!--zoomable 229 -->
<svg id="main" version="1.1" xmlns="http://www.w3.org/2000/svg" xmlns:xlink="http://www.w3.org/1999/xlink" xml:space="preserve" onload="init(evt)">
        <defs>
                <circle id="rim" cx="0" cy="0" r="7"/>
                <circle id="rim2" cx="0" cy="0" r="3.5"/>
                <g id="zoomPlus">
                        <use xlink:href="#rim" fill="#404040">
                                <set attributeName="fill" to="#808080" begin="zoomplus.mouseover" end="zoomplus.mouseout"/>
                        </use>
                        <path d="M-4,0h8M0,-4v8" fill="none" stroke="white" stroke-width="1.5" pointer-events="none"/>
                </g>
                <g id="zoomMin">
                        <use xlink:href="#rim" fill="#404040">
                                <set attributeName="fill" to="#808080" begin="zoomminus.mouseover" end="zoomminus.mouseout"/>
                        </use>
                        <path d="M-4,0h8" fill="none" stroke="white" stroke-width="1.5" pointer-events="none"/>
                </g>
                <g id="dirArrow">
                        <path fill="none" stroke="white" stroke-width="1.5" d="M0,-3.0v7 M-2.5,-0.5L0,-3.0L2.5,-0.5"/>
                </g>
               <g id="resetDef">
                       <use xlink:href="#rim2" fill="#404040">
                               <set attributeName="fill" to="#808080" begin="reset.mouseover" end="reset.mouseout"/>
                       </use>
               </g>
        </defs>

<script type="text/javascript">
var viewWidth = 788;
var viewHeight = 229;
var sectionId = 'dynsection-1';
</script>
<script xlink:href="svgpan.js"/>
<svg id="graph" class="graph">
<g id="viewport">
<title>cvmx_hfa_submit</title>
<polygon fill="white" stroke="white" points="-4,5 -4,-225 785,-225 785,5 -4,5"/>
<!-- Node1 -->
<g id="node1" class="node"><title>Node1</title>
<polygon fill="#bfbfbf" stroke="black" points="0,-95.5 0,-116.5 102,-116.5 102,-95.5 0,-95.5"/>
<text text-anchor="middle" x="51" y="-103.5" font-family="FreeSans" font-size="10.00">cvmx_hfa_submit</text>
</g>
<!-- Node2 -->
<g id="node3" class="node"><title>Node2</title>
<a xlink:href="cvm-hfa_8c.html#a4677d07b901d6aeb02e793c1dbdfabbf" target="_top" xlink:title="Asynchronous instruction submit to HFA hardware Do not wait for instruction to complete.">
<polygon fill="white" stroke="black" points="138,-115.5 138,-136.5 260,-136.5 260,-115.5 138,-115.5"/>
<text text-anchor="middle" x="199" y="-123.5" font-family="FreeSans" font-size="10.00">hfa_dev_submitasync</text>
</a>
</g>
<!-- Node1&#45;&gt;Node2 -->
<g id="edge2" class="edge"><title>Node1&#45;&gt;Node2</title>
<path fill="none" stroke="midnightblue" d="M112.437,-114.302C120.823,-115.436 129.431,-116.599 137.812,-117.731"/>
<polygon fill="midnightblue" stroke="midnightblue" points="112.727,-110.81 102.348,-112.939 111.789,-117.747 112.727,-110.81"/>
</g>
<!-- Node17 -->
<g id="node35" class="node"><title>Node17</title>
<a xlink:href="cvm-hfa_8c.html#ae6a7ff220c7ddd04101adbe90631baa9" target="_top" xlink:title="Synchronous instruction submit to HFA hardware Block until submitted instruction completes.">
<polygon fill="white" stroke="black" points="152.5,-75.5 152.5,-96.5 245.5,-96.5 245.5,-75.5 152.5,-75.5"/>
<text text-anchor="middle" x="199" y="-83.5" font-family="FreeSans" font-size="10.00">hfa_dev_submit</text>
</a>
</g>
<!-- Node1&#45;&gt;Node17 -->
<g id="edge36" class="edge"><title>Node1&#45;&gt;Node17</title>
<path fill="none" stroke="midnightblue" d="M112.386,-97.7045C125.695,-95.906 139.565,-94.0317 152.205,-92.3236"/>
<polygon fill="midnightblue" stroke="midnightblue" points="111.789,-94.2534 102.348,-99.0611 112.727,-101.19 111.789,-94.2534"/>
</g>
<!-- Node3 -->
<g id="node5" class="node"><title>Node3</title>
<a xlink:href="cvm-hfa-graph_8c.html#aa296e0c6b36b3d5b4f8e01c2fe765bed" target="_top" xlink:title="This routine is used to cacheload a cacheable graph in a non&#45;blocking manner.">
<polygon fill="white" stroke="black" points="302,-136 302,-170 422,-170 422,-136 302,-136"/>
<text text-anchor="start" x="310" y="-157" font-family="FreeSans" font-size="10.00">hfa_graph_cacheload</text>
<text text-anchor="middle" x="362" y="-144" font-family="FreeSans" font-size="10.00">_async</text>
</a>
</g>
<!-- Node2&#45;&gt;Node3 -->
<g id="edge4" class="edge"><title>Node2&#45;&gt;Node3</title>
<path fill="none" stroke="midnightblue" d="M270.189,-137.792C280.75,-139.541 291.546,-141.33 301.852,-143.037"/>
<polygon fill="midnightblue" stroke="midnightblue" points="270.596,-134.312 260.159,-136.131 269.453,-141.218 270.596,-134.312"/>
</g>
<!-- Node10 -->
<g id="node19" class="node"><title>Node10</title>
<a xlink:href="cvm-hfa-graph_8c.html#afb63ce4f42afc7987e6222b1c1ea91a1" target="_top" xlink:title="This routine is used to cacheunload a cacheload&#39;ed graph in a non&#45;blocking manner.">
<polygon fill="white" stroke="black" points="296,-81 296,-115 428,-115 428,-81 296,-81"/>
<text text-anchor="start" x="304" y="-102" font-family="FreeSans" font-size="10.00">hfa_graph_cacheunload</text>
<text text-anchor="middle" x="362" y="-89" font-family="FreeSans" font-size="10.00">_async</text>
</a>
</g>
<!-- Node2&#45;&gt;Node10 -->
<g id="edge18" class="edge"><title>Node2&#45;&gt;Node10</title>
<path fill="none" stroke="midnightblue" d="M270.109,-113.785C278.665,-112.315 287.377,-110.819 295.859,-109.362"/>
<polygon fill="midnightblue" stroke="midnightblue" points="269.422,-110.352 260.159,-115.494 270.607,-117.251 269.422,-110.352"/>
</g>
<!-- Node4 -->
<g id="node7" class="node"><title>Node4</title>
<a xlink:href="cvm-hfa-graph_8c.html#a60861d15ed5f6bccc42bbde834aa2b32" target="_top" xlink:title="This routine is used to cacheload a cacheable graph in a blocking manner.">
<polygon fill="white" stroke="black" points="470,-142.5 470,-163.5 590,-163.5 590,-142.5 470,-142.5"/>
<text text-anchor="middle" x="530" y="-150.5" font-family="FreeSans" font-size="10.00">hfa_graph_cacheload</text>
</a>
</g>
<!-- Node3&#45;&gt;Node4 -->
<g id="edge6" class="edge"><title>Node3&#45;&gt;Node4</title>
<path fill="none" stroke="midnightblue" d="M432.517,-153C444.97,-153 457.829,-153 469.961,-153"/>
<polygon fill="midnightblue" stroke="midnightblue" points="432.177,-149.5 422.177,-153 432.177,-156.5 432.177,-149.5"/>
</g>
<!-- Node8 -->
<g id="node15" class="node"><title>Node8</title>
<a xlink:href="hfa-lnx-async_8c.html#a546f3769e735d4bef0bfab1cba56921c" target="_top" xlink:title="Load graph to HFA memory and cache.">
<polygon fill="white" stroke="black" points="495.5,-195.5 495.5,-216.5 564.5,-216.5 564.5,-195.5 495.5,-195.5"/>
<text text-anchor="middle" x="530" y="-203.5" font-family="FreeSans" font-size="10.00">graph_load</text>
</a>
</g>
<!-- Node3&#45;&gt;Node8 -->
<g id="edge14" class="edge"><title>Node3&#45;&gt;Node8</title>
<path fill="none" stroke="midnightblue" d="M425.877,-173.152C449.954,-180.747 476.374,-189.082 496.576,-195.456"/>
<polygon fill="midnightblue" stroke="midnightblue" points="426.671,-169.732 416.081,-170.061 424.565,-176.408 426.671,-169.732"/>
</g>
<!-- Node5 -->
<g id="node9" class="node"><title>Node5</title>
<a xlink:href="hfa-lnx-ctx_8c.html#a78ffddbcd7cdd164889cfb53ea367886" target="_top" xlink:title="entry">
<polygon fill="white" stroke="black" points="646.5,-120.5 646.5,-141.5 687.5,-141.5 687.5,-120.5 646.5,-120.5"/>
<text text-anchor="middle" x="667" y="-128.5" font-family="FreeSans" font-size="10.00">entry</text>
</a>
</g>
<!-- Node4&#45;&gt;Node5 -->
<g id="edge8" class="edge"><title>Node4&#45;&gt;Node5</title>
<path fill="none" stroke="midnightblue" d="M600.046,-141.752C616.984,-139.032 633.796,-136.332 646.337,-134.318"/>
<polygon fill="midnightblue" stroke="midnightblue" points="599.409,-138.309 590.09,-143.35 600.519,-145.221 599.409,-138.309"/>
</g>
<!-- Node6 -->
<g id="node11" class="node"><title>Node6</title>
<a xlink:href="hfa-lnx-linkgraph_8c.html#a546f3769e735d4bef0bfab1cba56921c" target="_top" xlink:title="Load graph to HFA memory and cache.">
<polygon fill="white" stroke="black" points="632.5,-160.5 632.5,-181.5 701.5,-181.5 701.5,-160.5 632.5,-160.5"/>
<text text-anchor="middle" x="667" y="-168.5" font-family="FreeSans" font-size="10.00">graph_load</text>
</a>
</g>
<!-- Node4&#45;&gt;Node6 -->
<g id="edge10" class="edge"><title>Node4&#45;&gt;Node6</title>
<path fill="none" stroke="midnightblue" d="M600.25,-162.23C611.33,-163.686 622.349,-165.133 632.147,-166.421"/>
<polygon fill="midnightblue" stroke="midnightblue" points="600.461,-158.728 590.09,-160.895 599.549,-165.668 600.461,-158.728"/>
</g>
<!-- Node7 -->
<g id="node13" class="node"><title>Node7</title>
<a xlink:href="hfa-lnx-linkgraph_8c.html#a78ffddbcd7cdd164889cfb53ea367886" target="_top" xlink:title="entry">
<polygon fill="white" stroke="black" points="738.5,-159.5 738.5,-180.5 779.5,-180.5 779.5,-159.5 738.5,-159.5"/>
<text text-anchor="middle" x="759" y="-167.5" font-family="FreeSans" font-size="10.00">entry</text>
</a>
</g>
<!-- Node6&#45;&gt;Node7 -->
<g id="edge12" class="edge"><title>Node6&#45;&gt;Node7</title>
<path fill="none" stroke="midnightblue" d="M711.612,-170.515C721.01,-170.413 730.485,-170.31 738.466,-170.223"/>
<polygon fill="midnightblue" stroke="midnightblue" points="711.48,-167.016 701.519,-170.625 711.557,-174.016 711.48,-167.016"/>
</g>
<!-- Node9 -->
<g id="node17" class="node"><title>Node9</title>
<a xlink:href="hfa-lnx-async_8c.html#a78ffddbcd7cdd164889cfb53ea367886" target="_top" xlink:title="entry">
<polygon fill="white" stroke="black" points="738.5,-199.5 738.5,-220.5 779.5,-220.5 779.5,-199.5 738.5,-199.5"/>
<text text-anchor="middle" x="759" y="-207.5" font-family="FreeSans" font-size="10.00">entry</text>
</a>
</g>
<!-- Node8&#45;&gt;Node9 -->
<g id="edge16" class="edge"><title>Node8&#45;&gt;Node9</title>
<path fill="none" stroke="midnightblue" d="M574.874,-206.784C624.276,-207.647 701.553,-208.997 738.277,-209.638"/>
<polygon fill="midnightblue" stroke="midnightblue" points="574.84,-203.283 564.78,-206.608 574.717,-210.282 574.84,-203.283"/>
</g>
<!-- Node11 -->
<g id="node21" class="node"><title>Node11</title>
<a xlink:href="cvm-hfa-graph_8c.html#aa4ce7845277b4b3099159bbd7afd5c08" target="_top" xlink:title="This routine is used to cacheunload a cacheload&#39;ed graph in a non&#45;blocking manner.">
<polygon fill="white" stroke="black" points="464,-80.5 464,-101.5 596,-101.5 596,-80.5 464,-80.5"/>
<text text-anchor="middle" x="530" y="-88.5" font-family="FreeSans" font-size="10.00">hfa_graph_cacheunload</text>
</a>
</g>
<!-- Node10&#45;&gt;Node11 -->
<g id="edge20" class="edge"><title>Node10&#45;&gt;Node11</title>
<path fill="none" stroke="midnightblue" d="M438.595,-94.8086C447.013,-94.4578 455.532,-94.1028 463.809,-93.7579"/>
<polygon fill="midnightblue" stroke="midnightblue" points="438.244,-91.32 428.398,-95.2334 438.535,-98.314 438.244,-91.32"/>
</g>
<!-- Node11&#45;&gt;Node5 -->
<g id="edge28" class="edge"><title>Node11&#45;&gt;Node5</title>
<path fill="none" stroke="midnightblue" d="M575.897,-104.4C599.676,-111.343 627.548,-119.481 646.141,-124.91"/>
<polygon fill="midnightblue" stroke="midnightblue" points="576.575,-100.953 565.995,-101.51 574.613,-107.672 576.575,-100.953"/>
</g>
<!-- Node12 -->
<g id="node23" class="node"><title>Node12</title>
<a xlink:href="hfa-lnx-async_8c.html#acd9e54f020b77f14d54c200b65423a15" target="_top" xlink:title="Application cleanup will be done by this routine.">
<polygon fill="white" stroke="black" points="640,-40.5 640,-61.5 694,-61.5 694,-40.5 640,-40.5"/>
<text text-anchor="middle" x="667" y="-48.5" font-family="FreeSans" font-size="10.00">cleanup</text>
</a>
</g>
<!-- Node11&#45;&gt;Node12 -->
<g id="edge22" class="edge"><title>Node11&#45;&gt;Node12</title>
<path fill="none" stroke="midnightblue" d="M575.814,-77.6238C597.08,-71.4147 621.635,-64.2453 639.903,-58.9117"/>
<polygon fill="midnightblue" stroke="midnightblue" points="574.613,-74.328 565.995,-80.4905 576.575,-81.0474 574.613,-74.328"/>
</g>
<!-- Node14 -->
<g id="node29" class="node"><title>Node14</title>
<a xlink:href="hfa-lnx-ctx_8c.html#aaf98ef7cdde3a0dfb2e49919de3298b1" target="_top" xlink:title="exit">
<polygon fill="white" stroke="black" points="650.5,-80.5 650.5,-101.5 683.5,-101.5 683.5,-80.5 650.5,-80.5"/>
<text text-anchor="middle" x="667" y="-88.5" font-family="FreeSans" font-size="10.00">exit</text>
</a>
</g>
<!-- Node11&#45;&gt;Node14 -->
<g id="edge30" class="edge"><title>Node11&#45;&gt;Node14</title>
<path fill="none" stroke="midnightblue" d="M606.454,-91C623.022,-91 638.961,-91 650.323,-91"/>
<polygon fill="midnightblue" stroke="midnightblue" points="606.092,-87.5001 596.092,-91 606.092,-94.5001 606.092,-87.5001"/>
</g>
<!-- Node15 -->
<g id="node31" class="node"><title>Node15</title>
<a xlink:href="hfa-se-ngraphs_8c.html#a546f3769e735d4bef0bfab1cba56921c" target="_top" xlink:title="Load ngraphs into HFA memory and cache.">
<polygon fill="white" stroke="black" points="632.5,-0.5 632.5,-21.5 701.5,-21.5 701.5,-0.5 632.5,-0.5"/>
<text text-anchor="middle" x="667" y="-8.5" font-family="FreeSans" font-size="10.00">graph_load</text>
</a>
</g>
<!-- Node11&#45;&gt;Node15 -->
<g id="edge32" class="edge"><title>Node11&#45;&gt;Node15</title>
<path fill="none" stroke="midnightblue" d="M556.811,-75.1049C577.351,-62.9576 606.415,-45.8345 632,-31 637.328,-27.9109 643.129,-24.5822 648.448,-21.5438"/>
<polygon fill="midnightblue" stroke="midnightblue" points="554.84,-72.2045 548.017,-80.3098 558.405,-78.2285 554.84,-72.2045"/>
</g>
<!-- Node12&#45;&gt;Node9 -->
<g id="edge24" class="edge"><title>Node12&#45;&gt;Node9</title>
<path fill="none" stroke="midnightblue" d="M699.386,-68.0776C700.314,-69.0101 701.191,-69.9839 702,-71 736.43,-114.218 709.035,-142.944 738,-190 740.006,-193.259 742.671,-196.345 745.428,-199.074"/>
<polygon fill="midnightblue" stroke="midnightblue" points="701.456,-65.2514 691.464,-61.7273 697.077,-70.7131 701.456,-65.2514"/>
</g>
<!-- Node13 -->
<g id="node26" class="node"><title>Node13</title>
<a xlink:href="hfa-lnx-async_8c.html#aaf98ef7cdde3a0dfb2e49919de3298b1" target="_top" xlink:title="exit">
<polygon fill="white" stroke="black" points="742.5,-40.5 742.5,-61.5 775.5,-61.5 775.5,-40.5 742.5,-40.5"/>
<text text-anchor="middle" x="759" y="-48.5" font-family="FreeSans" font-size="10.00">exit</text>
</a>
</g>
<!-- Node12&#45;&gt;Node13 -->
<g id="edge26" class="edge"><title>Node12&#45;&gt;Node13</title>
<path fill="none" stroke="midnightblue" d="M704.42,-51C717.653,-51 731.868,-51 742.473,-51"/>
<polygon fill="midnightblue" stroke="midnightblue" points="704.105,-47.5001 694.105,-51 704.105,-54.5001 704.105,-47.5001"/>
</g>
<!-- Node16 -->
<g id="node33" class="node"><title>Node16</title>
<a xlink:href="hfa-se-ngraphs_8c.html#a3c04138a5bfe5d72780bb7e82a18e627" target="_top" xlink:title="main">
<polygon fill="white" stroke="black" points="739,-0.5 739,-21.5 779,-21.5 779,-0.5 739,-0.5"/>
<text text-anchor="middle" x="759" y="-8.5" font-family="FreeSans" font-size="10.00">main</text>
</a>
</g>
<!-- Node15&#45;&gt;Node16 -->
<g id="edge34" class="edge"><title>Node15&#45;&gt;Node16</title>
<path fill="none" stroke="midnightblue" d="M711.779,-11C721.332,-11 730.955,-11 738.998,-11"/>
<polygon fill="midnightblue" stroke="midnightblue" points="711.519,-7.5001 701.519,-11 711.519,-14.5001 711.519,-7.5001"/>
</g>
</g>
</svg>
        <g id="navigator" transform="translate(0 0)" fill="#404254">
                <rect fill="#f2f5e9" fill-opacity="0.5" stroke="#606060" stroke-width=".5" x="0" y="0" width="60" height="60"/>
                <use id="zoomplus" xlink:href="#zoomPlus" x="17" y="9" onmousedown="handleZoom(evt,'in')"/>
                <use id="zoomminus" xlink:href="#zoomMin" x="42" y="9" onmousedown="handleZoom(evt,'out')"/>
                <use id="reset" xlink:href="#resetDef" x="30" y="36" onmousedown="handleReset()"/>
                <g id="arrowUp" xlink:href="#dirArrow" transform="translate(30 24)" onmousedown="handlePan(0,-1)">
                  <use xlink:href="#rim" fill="#404040">
                        <set attributeName="fill" to="#808080" begin="arrowUp.mouseover" end="arrowUp.mouseout"/>
                  </use>
                  <path fill="none" stroke="white" stroke-width="1.5" d="M0,-3.0v7 M-2.5,-0.5L0,-3.0L2.5,-0.5"/>
                </g>
                <g id="arrowRight" xlink:href="#dirArrow" transform="rotate(90) translate(36 -43)" onmousedown="handlePan(1,0)">
                  <use xlink:href="#rim" fill="#404040">
                        <set attributeName="fill" to="#808080" begin="arrowRight.mouseover" end="arrowRight.mouseout"/>
                  </use>
                  <path fill="none" stroke="white" stroke-width="1.5" d="M0,-3.0v7 M-2.5,-0.5L0,-3.0L2.5,-0.5"/>
                </g>
                <g id="arrowDown" xlink:href="#dirArrow" transform="rotate(180) translate(-30 -48)" onmousedown="handlePan(0,1)">
                  <use xlink:href="#rim" fill="#404040">
                        <set attributeName="fill" to="#808080" begin="arrowDown.mouseover" end="arrowDown.mouseout"/>
                  </use>
                  <path fill="none" stroke="white" stroke-width="1.5" d="M0,-3.0v7 M-2.5,-0.5L0,-3.0L2.5,-0.5"/>
                </g>
                <g id="arrowLeft" xlink:href="#dirArrow" transform="rotate(270) translate(-36 17)" onmousedown="handlePan(-1,0)">
                  <use xlink:href="#rim" fill="#404040">
                        <set attributeName="fill" to="#808080" begin="arrowLeft.mouseover" end="arrowLeft.mouseout"/>
                  </use>
                  <path fill="none" stroke="white" stroke-width="1.5" d="M0,-3.0v7 M-2.5,-0.5L0,-3.0L2.5,-0.5"/>
                </g>
        </g>
        <svg viewBox="0 0 15 15" width="100%" height="30px" preserveAspectRatio="xMaxYMin meet">
         <g id="arrow_out" transform="scale(0.3 0.3)">
          <a xlink:href="cvmx-hfa_8c_a96a123c8918e83cdf914f6de1bfb4f00_icgraph_org.svg" target="_base">
           <rect id="button" ry="5" rx="5" y="6" x="6" height="38" width="38"
                fill="#f2f5e9" fill-opacity="0.5" stroke="#606060" stroke-width="1.0"/>
           <path id="arrow"
             d="M 11.500037,31.436501 C 11.940474,20.09759 22.043105,11.32322 32.158766,21.979434 L 37.068811,17.246167 C 37.068811,17.246167 37.088388,32 37.088388,32 L 22.160133,31.978069 C 22.160133,31.978069 26.997745,27.140456 26.997745,27.140456 C 18.528582,18.264221 13.291696,25.230495 11.500037,31.436501 z"
             style="fill:#404040;"/>
          </a>
         </g>
        </svg>
</svg>
