<?xml version="1.0" encoding="UTF-8" standalone="no"?>
<!DOCTYPE svg PUBLIC "-//W3C//DTD SVG 1.1//EN"
 "http://www.w3.org/Graphics/SVG/1.1/DTD/svg11.dtd">
<!-- Generated by graphviz version 2.24.0 (20090616.2323)
 -->
<!-- Title: hfa_octeon_model_get_string Pages: 1 -->
<svg width="476pt" height="70pt"
 viewBox="0.00 0.00 476.00 70.00" xmlns="http://www.w3.org/2000/svg" xmlns:xlink="http://www.w3.org/1999/xlink">
<g id="graph1" class="graph" transform="scale(1 1) rotate(0) translate(4 66)">
<title>hfa_octeon_model_get_string</title>
<polygon fill="white" stroke="white" points="-4,5 -4,-66 473,-66 473,5 -4,5"/>
<!-- Node1 -->
<g id="node1" class="node"><title>Node1</title>
<polygon fill="#bfbfbf" stroke="black" points="0,-14 0,-48 126,-48 126,-14 0,-14"/>
<text text-anchor="start" x="8" y="-35" font-family="FreeSans" font-size="10.00">hfa_octeon_model_get</text>
<text text-anchor="middle" x="63" y="-22" font-family="FreeSans" font-size="10.00">_string</text>
</g>
<!-- Node2 -->
<g id="node3" class="node"><title>Node2</title>
<a xlink:href="cvm-hfa_8c.html#afd1d53fe8a402d4c5799e6e98c67baaa" target="_top" xlink:title="Displays HFA Device info.">
<polygon fill="white" stroke="black" points="162.5,-20.5 162.5,-41.5 279.5,-41.5 279.5,-20.5 162.5,-20.5"/>
<text text-anchor="middle" x="221" y="-28.5" font-family="FreeSans" font-size="10.00">hfa_dev_display_info</text>
</a>
</g>
<!-- Node1&#45;&gt;Node2 -->
<g id="edge2" class="edge"><title>Node1&#45;&gt;Node2</title>
<path fill="none" stroke="midnightblue" d="M136.515,-31C145.228,-31 154.03,-31 162.495,-31"/>
<polygon fill="midnightblue" stroke="midnightblue" points="136.354,-27.5001 126.354,-31 136.354,-34.5001 136.354,-27.5001"/>
</g>
<!-- Node3 -->
<g id="node5" class="node"><title>Node3</title>
<a xlink:href="cvm-hfa_8c.html#a873768042b716d60996ec5d858fc8fd9" target="_top" xlink:title="This function must be called by application to initialize HFA engine and setup resources for HFA hard...">
<polygon fill="white" stroke="black" points="316,-20.5 316,-41.5 390,-41.5 390,-20.5 316,-20.5"/>
<text text-anchor="middle" x="353" y="-28.5" font-family="FreeSans" font-size="10.00">hfa_dev_init</text>
</a>
</g>
<!-- Node2&#45;&gt;Node3 -->
<g id="edge4" class="edge"><title>Node2&#45;&gt;Node3</title>
<path fill="none" stroke="midnightblue" d="M289.761,-31C298.709,-31 307.588,-31 315.741,-31"/>
<polygon fill="midnightblue" stroke="midnightblue" points="289.666,-27.5001 279.666,-31 289.666,-34.5001 289.666,-27.5001"/>
</g>
<!-- Node4 -->
<g id="node7" class="node"><title>Node4</title>
<a xlink:href="hfa-lnx-async_8c.html#a78ffddbcd7cdd164889cfb53ea367886" target="_top" xlink:title="entry">
<polygon fill="white" stroke="black" points="426.5,-40.5 426.5,-61.5 467.5,-61.5 467.5,-40.5 426.5,-40.5"/>
<text text-anchor="middle" x="447" y="-48.5" font-family="FreeSans" font-size="10.00">entry</text>
</a>
</g>
<!-- Node3&#45;&gt;Node4 -->
<g id="edge6" class="edge"><title>Node3&#45;&gt;Node4</title>
<path fill="none" stroke="midnightblue" d="M400.098,-41.0209C409.326,-42.9842 418.548,-44.9463 426.342,-46.6047"/>
<polygon fill="midnightblue" stroke="midnightblue" points="400.661,-37.5623 390.151,-38.9045 399.204,-44.4091 400.661,-37.5623"/>
</g>
<!-- Node5 -->
<g id="node9" class="node"><title>Node5</title>
<a xlink:href="hfa-se-async_8c.html#a3c04138a5bfe5d72780bb7e82a18e627" target="_top" xlink:title="main">
<polygon fill="white" stroke="black" points="427,-0.5 427,-21.5 467,-21.5 467,-0.5 427,-0.5"/>
<text text-anchor="middle" x="447" y="-8.5" font-family="FreeSans" font-size="10.00">main</text>
</a>
</g>
<!-- Node3&#45;&gt;Node5 -->
<g id="edge8" class="edge"><title>Node3&#45;&gt;Node5</title>
<path fill="none" stroke="midnightblue" d="M399.966,-21.0073C409.447,-18.9901 418.929,-16.9725 426.871,-15.2828"/>
<polygon fill="midnightblue" stroke="midnightblue" points="399.204,-17.5909 390.151,-23.0955 400.661,-24.4377 399.204,-17.5909"/>
</g>
</g>
</svg>
