<?xml version="1.0" encoding="UTF-8" standalone="no"?>
<!DOCTYPE svg PUBLIC "-//W3C//DTD SVG 1.1//EN"
 "http://www.w3.org/Graphics/SVG/1.1/DTD/svg11.dtd">
<!-- Generated by graphviz version 2.24.0 (20090616.2323)
 -->
<!-- Title: hfa_bootmem_find_named_block Pages: 1 -->
<!--zoomable 154 -->
<svg id="main" version="1.1" xmlns="http://www.w3.org/2000/svg" xmlns:xlink="http://www.w3.org/1999/xlink" xml:space="preserve" onload="init(evt)">
        <defs>
                <circle id="rim" cx="0" cy="0" r="7"/>
                <circle id="rim2" cx="0" cy="0" r="3.5"/>
                <g id="zoomPlus">
                        <use xlink:href="#rim" fill="#404040">
                                <set attributeName="fill" to="#808080" begin="zoomplus.mouseover" end="zoomplus.mouseout"/>
                        </use>
                        <path d="M-4,0h8M0,-4v8" fill="none" stroke="white" stroke-width="1.5" pointer-events="none"/>
                </g>
                <g id="zoomMin">
                        <use xlink:href="#rim" fill="#404040">
                                <set attributeName="fill" to="#808080" begin="zoomminus.mouseover" end="zoomminus.mouseout"/>
                        </use>
                        <path d="M-4,0h8" fill="none" stroke="white" stroke-width="1.5" pointer-events="none"/>
                </g>
                <g id="dirArrow">
                        <path fill="none" stroke="white" stroke-width="1.5" d="M0,-3.0v7 M-2.5,-0.5L0,-3.0L2.5,-0.5"/>
                </g>
               <g id="resetDef">
                       <use xlink:href="#rim2" fill="#404040">
                               <set attributeName="fill" to="#808080" begin="reset.mouseover" end="reset.mouseout"/>
                       </use>
               </g>
        </defs>

<script type="text/javascript">
var viewWidth = 1006;
var viewHeight = 154;
var sectionId = 'dynsection-4';
</script>
<script xlink:href="svgpan.js"/>
<svg id="graph" class="graph">
<g id="viewport">
<title>hfa_bootmem_find_named_block</title>
<polygon fill="white" stroke="white" points="-4,5 -4,-150 1003,-150 1003,5 -4,5"/>
<!-- Node1 -->
<g id="node1" class="node"><title>Node1</title>
<polygon fill="#bfbfbf" stroke="black" points="0,-58 0,-92 146,-92 146,-58 0,-58"/>
<text text-anchor="start" x="8" y="-79" font-family="FreeSans" font-size="10.00">hfa_bootmem_find_named</text>
<text text-anchor="middle" x="73" y="-66" font-family="FreeSans" font-size="10.00">_block</text>
</g>
<!-- Node2 -->
<g id="node3" class="node"><title>Node2</title>
<a xlink:href="app-utils_8c.html#a3e85d4c12420d8086bc60dedf59ab11f" target="_top" xlink:title="Return size of named block.">
<polygon fill="white" stroke="black" points="191,-124.5 191,-145.5 299,-145.5 299,-124.5 191,-124.5"/>
<text text-anchor="middle" x="245" y="-132.5" font-family="FreeSans" font-size="10.00">hfautils_getnb_size</text>
</a>
</g>
<!-- Node1&#45;&gt;Node2 -->
<g id="edge2" class="edge"><title>Node1&#45;&gt;Node2</title>
<path fill="none" stroke="midnightblue" d="M127.592,-95.5718C144.93,-101.96 164.218,-108.918 182,-115 191.338,-118.194 201.512,-121.499 210.906,-124.48"/>
<polygon fill="midnightblue" stroke="midnightblue" points="128.776,-92.278 118.183,-92.0903 126.347,-98.843 128.776,-92.278"/>
</g>
<!-- Node5 -->
<g id="node9" class="node"><title>Node5</title>
<a xlink:href="app-utils_8c.html#a9c2ecc9580f894c6d3cf3a682e42ffb6" target="_top" xlink:title="Return base address of named block.">
<polygon fill="white" stroke="black" points="197.5,-84.5 197.5,-105.5 292.5,-105.5 292.5,-84.5 197.5,-84.5"/>
<text text-anchor="middle" x="245" y="-92.5" font-family="FreeSans" font-size="10.00">hfautils_read_nb</text>
</a>
</g>
<!-- Node1&#45;&gt;Node5 -->
<g id="edge8" class="edge"><title>Node1&#45;&gt;Node5</title>
<path fill="none" stroke="midnightblue" d="M156.611,-84.7223C170.627,-86.352 184.727,-87.9915 197.421,-89.4676"/>
<polygon fill="midnightblue" stroke="midnightblue" points="156.78,-81.2183 146.442,-83.5398 155.971,-88.1715 156.78,-81.2183"/>
</g>
<!-- Node6 -->
<g id="node12" class="node"><title>Node6</title>
<a xlink:href="cvm-hfa_8c.html#a199331bc34e479a3defde18ae38a1d49" target="_top" xlink:title="This is a utility routine to find or allocate a named block.">
<polygon fill="white" stroke="black" points="354.5,-45.5 354.5,-66.5 479.5,-66.5 479.5,-45.5 354.5,-45.5"/>
<text text-anchor="middle" x="417" y="-53.5" font-family="FreeSans" font-size="10.00">hfa_find_named_block</text>
</a>
</g>
<!-- Node1&#45;&gt;Node6 -->
<g id="edge12" class="edge"><title>Node1&#45;&gt;Node6</title>
<path fill="none" stroke="midnightblue" d="M156.368,-70.3954C217.39,-67.025 298.893,-62.5233 354.404,-59.4573"/>
<polygon fill="midnightblue" stroke="midnightblue" points="156.166,-66.9011 146.375,-70.9473 156.553,-73.8904 156.166,-66.9011"/>
</g>
<!-- Node11 -->
<g id="node23" class="node"><title>Node11</title>
<a xlink:href="cvm-hfa_8c.html#a741c1a0561a8b5a320f061afee14ecf4" target="_top" xlink:title="Free the named block allocated using hfa_find_named_block().">
<polygon fill="white" stroke="black" points="182,-6.5 182,-27.5 308,-27.5 308,-6.5 182,-6.5"/>
<text text-anchor="middle" x="245" y="-14.5" font-family="FreeSans" font-size="10.00">hfa_free_named_block</text>
</a>
</g>
<!-- Node1&#45;&gt;Node11 -->
<g id="edge24" class="edge"><title>Node1&#45;&gt;Node11</title>
<path fill="none" stroke="midnightblue" d="M133.481,-54.6052C160.616,-45.455 191.478,-35.0481 213.846,-27.5055"/>
<polygon fill="midnightblue" stroke="midnightblue" points="132.033,-51.3999 123.675,-57.9118 134.27,-58.0329 132.033,-51.3999"/>
</g>
<!-- Node3 -->
<g id="node5" class="node"><title>Node3</title>
<a xlink:href="hfa-lnx-async_8c.html#abc17fab65a320998a273d112ff24d658" target="_top" xlink:title="Configure cluster memory resources.">
<polygon fill="white" stroke="black" points="344,-85 344,-119 490,-119 490,-85 344,-85"/>
<text text-anchor="start" x="352" y="-106" font-family="FreeSans" font-size="10.00">configure_cluster_memory</text>
<text text-anchor="middle" x="417" y="-93" font-family="FreeSans" font-size="10.00">_resources</text>
</a>
</g>
<!-- Node2&#45;&gt;Node3 -->
<g id="edge4" class="edge"><title>Node2&#45;&gt;Node3</title>
<path fill="none" stroke="midnightblue" d="M309.51,-122.623C320.679,-120.48 332.364,-118.238 343.745,-116.055"/>
<polygon fill="midnightblue" stroke="midnightblue" points="308.583,-119.237 299.422,-124.559 309.902,-126.112 308.583,-119.237"/>
</g>
<!-- Node4 -->
<g id="node7" class="node"><title>Node4</title>
<a xlink:href="hfa-lnx-async_8c.html#a78ffddbcd7cdd164889cfb53ea367886" target="_top" xlink:title="entry">
<polygon fill="white" stroke="black" points="956.5,-81.5 956.5,-102.5 997.5,-102.5 997.5,-81.5 956.5,-81.5"/>
<text text-anchor="middle" x="977" y="-89.5" font-family="FreeSans" font-size="10.00">entry</text>
</a>
</g>
<!-- Node3&#45;&gt;Node4 -->
<g id="edge6" class="edge"><title>Node3&#45;&gt;Node4</title>
<path fill="none" stroke="midnightblue" d="M500.296,-100.513C632.492,-98.1519 882.896,-93.6804 956.293,-92.3698"/>
<polygon fill="midnightblue" stroke="midnightblue" points="500.146,-97.0146 490.21,-100.693 500.271,-104.013 500.146,-97.0146"/>
</g>
<!-- Node5&#45;&gt;Node3 -->
<g id="edge10" class="edge"><title>Node5&#45;&gt;Node3</title>
<path fill="none" stroke="midnightblue" d="M303.173,-97.3675C316.26,-97.9001 330.31,-98.4719 343.918,-99.0257"/>
<polygon fill="midnightblue" stroke="midnightblue" points="303.046,-93.8595 292.912,-96.9499 302.761,-100.854 303.046,-93.8595"/>
</g>
<!-- Node7 -->
<g id="node14" class="node"><title>Node7</title>
<a xlink:href="cvm-hfa-stats_8c.html#ab70d294575883530a6ecd321a2a09fc3" target="_top" xlink:title="Create ARENA for hfa statistics.">
<polygon fill="white" stroke="black" points="535,-52.5 535,-73.5 663,-73.5 663,-52.5 535,-52.5"/>
<text text-anchor="middle" x="599" y="-60.5" font-family="FreeSans" font-size="10.00">hfa_stats_create_arena</text>
</a>
</g>
<!-- Node6&#45;&gt;Node7 -->
<g id="edge14" class="edge"><title>Node6&#45;&gt;Node7</title>
<path fill="none" stroke="midnightblue" d="M489.789,-58.7996C504.643,-59.3709 520.172,-59.9681 534.704,-60.5271"/>
<polygon fill="midnightblue" stroke="midnightblue" points="489.761,-55.296 479.634,-58.409 489.492,-62.2908 489.761,-55.296"/>
</g>
<!-- Node8 -->
<g id="node16" class="node"><title>Node8</title>
<a xlink:href="cvm-hfa-stats_8h.html#a69100ad9ae17fc0ec07982ea8b90c5df" target="_top" xlink:title="This routine allocates memory for counters to maintain statistics of each processing core...">
<polygon fill="white" stroke="black" points="708,-52.5 708,-73.5 810,-73.5 810,-52.5 708,-52.5"/>
<text text-anchor="middle" x="759" y="-60.5" font-family="FreeSans" font-size="10.00">hfa_dev_stats_init</text>
</a>
</g>
<!-- Node7&#45;&gt;Node8 -->
<g id="edge16" class="edge"><title>Node7&#45;&gt;Node8</title>
<path fill="none" stroke="midnightblue" d="M673.293,-63C684.903,-63 696.674,-63 707.622,-63"/>
<polygon fill="midnightblue" stroke="midnightblue" points="673.156,-59.5001 663.156,-63 673.156,-66.5001 673.156,-59.5001"/>
</g>
<!-- Node9 -->
<g id="node18" class="node"><title>Node9</title>
<a xlink:href="cvm-hfa_8c.html#a873768042b716d60996ec5d858fc8fd9" target="_top" xlink:title="This function must be called by application to initialize HFA engine and setup resources for HFA hard...">
<polygon fill="white" stroke="black" points="846,-52.5 846,-73.5 920,-73.5 920,-52.5 846,-52.5"/>
<text text-anchor="middle" x="883" y="-60.5" font-family="FreeSans" font-size="10.00">hfa_dev_init</text>
</a>
</g>
<!-- Node8&#45;&gt;Node9 -->
<g id="edge18" class="edge"><title>Node8&#45;&gt;Node9</title>
<path fill="none" stroke="midnightblue" d="M820.375,-63C829.126,-63 837.893,-63 845.98,-63"/>
<polygon fill="midnightblue" stroke="midnightblue" points="820.151,-59.5001 810.151,-63 820.151,-66.5001 820.151,-59.5001"/>
</g>
<!-- Node9&#45;&gt;Node4 -->
<g id="edge20" class="edge"><title>Node9&#45;&gt;Node4</title>
<path fill="none" stroke="midnightblue" d="M926.926,-76.5517C937.199,-79.7209 947.668,-82.9507 956.359,-85.6322"/>
<polygon fill="midnightblue" stroke="midnightblue" points="927.789,-73.1553 917.202,-73.5517 925.726,-79.8442 927.789,-73.1553"/>
</g>
<!-- Node10 -->
<g id="node21" class="node"><title>Node10</title>
<a xlink:href="hfa-se-async_8c.html#a3c04138a5bfe5d72780bb7e82a18e627" target="_top" xlink:title="main">
<polygon fill="white" stroke="black" points="957,-32.5 957,-53.5 997,-53.5 997,-32.5 957,-32.5"/>
<text text-anchor="middle" x="977" y="-40.5" font-family="FreeSans" font-size="10.00">main</text>
</a>
</g>
<!-- Node9&#45;&gt;Node10 -->
<g id="edge22" class="edge"><title>Node9&#45;&gt;Node10</title>
<path fill="none" stroke="midnightblue" d="M929.966,-53.0073C939.447,-50.9901 948.929,-48.9725 956.871,-47.2828"/>
<polygon fill="midnightblue" stroke="midnightblue" points="929.204,-49.5909 920.151,-55.0955 930.661,-56.4377 929.204,-49.5909"/>
</g>
<!-- Node11&#45;&gt;Node6 -->
<g id="edge26" class="edge"><title>Node11&#45;&gt;Node6</title>
<path fill="none" stroke="midnightblue" d="M301.56,-29.8246C323.871,-34.8835 349.188,-40.6241 370.417,-45.4376"/>
<polygon fill="midnightblue" stroke="midnightblue" points="302.072,-26.352 291.546,-27.554 300.524,-33.1787 302.072,-26.352"/>
</g>
<!-- Node12 -->
<g id="node26" class="node"><title>Node12</title>
<a xlink:href="hfa-se-async_8c.html#abc17fab65a320998a273d112ff24d658" target="_top" xlink:title="Configure cluster memory resources.">
<polygon fill="white" stroke="black" points="526,-0 526,-34 672,-34 672,-0 526,-0"/>
<text text-anchor="start" x="534" y="-21" font-family="FreeSans" font-size="10.00">configure_cluster_memory</text>
<text text-anchor="middle" x="599" y="-8" font-family="FreeSans" font-size="10.00">_resources</text>
</a>
</g>
<!-- Node11&#45;&gt;Node12 -->
<g id="edge28" class="edge"><title>Node11&#45;&gt;Node12</title>
<path fill="none" stroke="midnightblue" d="M318.576,-17C379.359,-17 465.208,-17 525.869,-17"/>
<polygon fill="midnightblue" stroke="midnightblue" points="318.288,-13.5001 308.288,-17 318.288,-20.5001 318.288,-13.5001"/>
</g>
<!-- Node12&#45;&gt;Node10 -->
<g id="edge30" class="edge"><title>Node12&#45;&gt;Node10</title>
<path fill="none" stroke="midnightblue" d="M682.397,-22.7363C771.302,-28.8514 906.117,-38.1244 956.796,-41.6103"/>
<polygon fill="midnightblue" stroke="midnightblue" points="682.547,-19.2384 672.33,-22.0439 682.067,-26.2219 682.547,-19.2384"/>
</g>
</g>
</svg>
        <g id="navigator" transform="translate(0 0)" fill="#404254">
                <rect fill="#f2f5e9" fill-opacity="0.5" stroke="#606060" stroke-width=".5" x="0" y="0" width="60" height="60"/>
                <use id="zoomplus" xlink:href="#zoomPlus" x="17" y="9" onmousedown="handleZoom(evt,'in')"/>
                <use id="zoomminus" xlink:href="#zoomMin" x="42" y="9" onmousedown="handleZoom(evt,'out')"/>
                <use id="reset" xlink:href="#resetDef" x="30" y="36" onmousedown="handleReset()"/>
                <g id="arrowUp" xlink:href="#dirArrow" transform="translate(30 24)" onmousedown="handlePan(0,-1)">
                  <use xlink:href="#rim" fill="#404040">
                        <set attributeName="fill" to="#808080" begin="arrowUp.mouseover" end="arrowUp.mouseout"/>
                  </use>
                  <path fill="none" stroke="white" stroke-width="1.5" d="M0,-3.0v7 M-2.5,-0.5L0,-3.0L2.5,-0.5"/>
                </g>
                <g id="arrowRight" xlink:href="#dirArrow" transform="rotate(90) translate(36 -43)" onmousedown="handlePan(1,0)">
                  <use xlink:href="#rim" fill="#404040">
                        <set attributeName="fill" to="#808080" begin="arrowRight.mouseover" end="arrowRight.mouseout"/>
                  </use>
                  <path fill="none" stroke="white" stroke-width="1.5" d="M0,-3.0v7 M-2.5,-0.5L0,-3.0L2.5,-0.5"/>
                </g>
                <g id="arrowDown" xlink:href="#dirArrow" transform="rotate(180) translate(-30 -48)" onmousedown="handlePan(0,1)">
                  <use xlink:href="#rim" fill="#404040">
                        <set attributeName="fill" to="#808080" begin="arrowDown.mouseover" end="arrowDown.mouseout"/>
                  </use>
                  <path fill="none" stroke="white" stroke-width="1.5" d="M0,-3.0v7 M-2.5,-0.5L0,-3.0L2.5,-0.5"/>
                </g>
                <g id="arrowLeft" xlink:href="#dirArrow" transform="rotate(270) translate(-36 17)" onmousedown="handlePan(-1,0)">
                  <use xlink:href="#rim" fill="#404040">
                        <set attributeName="fill" to="#808080" begin="arrowLeft.mouseover" end="arrowLeft.mouseout"/>
                  </use>
                  <path fill="none" stroke="white" stroke-width="1.5" d="M0,-3.0v7 M-2.5,-0.5L0,-3.0L2.5,-0.5"/>
                </g>
        </g>
        <svg viewBox="0 0 15 15" width="100%" height="30px" preserveAspectRatio="xMaxYMin meet">
         <g id="arrow_out" transform="scale(0.3 0.3)">
          <a xlink:href="cvmx-hfa_8c_a547dc48185d98dcfe05c3f2cf49429fd_icgraph_org.svg" target="_base">
           <rect id="button" ry="5" rx="5" y="6" x="6" height="38" width="38"
                fill="#f2f5e9" fill-opacity="0.5" stroke="#606060" stroke-width="1.0"/>
           <path id="arrow"
             d="M 11.500037,31.436501 C 11.940474,20.09759 22.043105,11.32322 32.158766,21.979434 L 37.068811,17.246167 C 37.068811,17.246167 37.088388,32 37.088388,32 L 22.160133,31.978069 C 22.160133,31.978069 26.997745,27.140456 26.997745,27.140456 C 18.528582,18.264221 13.291696,25.230495 11.500037,31.436501 z"
             style="fill:#404040;"/>
          </a>
         </g>
        </svg>
</svg>
