<?xml version="1.0" encoding="UTF-8" standalone="no"?>
<!DOCTYPE svg PUBLIC "-//W3C//DTD SVG 1.1//EN"
 "http://www.w3.org/Graphics/SVG/1.1/DTD/svg11.dtd">
<!-- Generated by graphviz version 2.24.0 (20090616.2323)
 -->
<!-- Title: hfa_bootmem_free_named Pages: 1 -->
<svg width="988pt" height="82pt"
 viewBox="0.00 0.00 988.00 82.00" xmlns="http://www.w3.org/2000/svg" xmlns:xlink="http://www.w3.org/1999/xlink">
<g id="graph1" class="graph" transform="scale(1 1) rotate(0) translate(4 78)">
<title>hfa_bootmem_free_named</title>
<polygon fill="white" stroke="white" points="-4,5 -4,-78 985,-78 985,5 -4,5"/>
<!-- Node1 -->
<g id="node1" class="node"><title>Node1</title>
<polygon fill="#bfbfbf" stroke="black" points="0.5,-30.5 0.5,-51.5 147.5,-51.5 147.5,-30.5 0.5,-30.5"/>
<text text-anchor="middle" x="74" y="-38.5" font-family="FreeSans" font-size="10.00">hfa_bootmem_free_named</text>
</g>
<!-- Node2 -->
<g id="node3" class="node"><title>Node2</title>
<a xlink:href="cvm-hfa_8c.html#a199331bc34e479a3defde18ae38a1d49" target="_top" xlink:title="This is a utility routine to find or allocate a named block.">
<polygon fill="white" stroke="black" points="346.5,-50.5 346.5,-71.5 471.5,-71.5 471.5,-50.5 346.5,-50.5"/>
<text text-anchor="middle" x="409" y="-58.5" font-family="FreeSans" font-size="10.00">hfa_find_named_block</text>
</a>
</g>
<!-- Node1&#45;&gt;Node2 -->
<g id="edge2" class="edge"><title>Node1&#45;&gt;Node2</title>
<path fill="none" stroke="midnightblue" d="M157.846,-46.0057C216.34,-49.4979 293.145,-54.0833 346.347,-57.2595"/>
<polygon fill="midnightblue" stroke="midnightblue" points="157.708,-42.4914 147.517,-45.3891 157.291,-49.4789 157.708,-42.4914"/>
</g>
<!-- Node8 -->
<g id="node15" class="node"><title>Node8</title>
<a xlink:href="cvm-hfa_8c.html#a741c1a0561a8b5a320f061afee14ecf4" target="_top" xlink:title="Free the named block allocated using hfa_find_named_block().">
<polygon fill="white" stroke="black" points="184,-11.5 184,-32.5 310,-32.5 310,-11.5 184,-11.5"/>
<text text-anchor="middle" x="247" y="-19.5" font-family="FreeSans" font-size="10.00">hfa_free_named_block</text>
</a>
</g>
<!-- Node1&#45;&gt;Node8 -->
<g id="edge14" class="edge"><title>Node1&#45;&gt;Node8</title>
<path fill="none" stroke="midnightblue" d="M157.843,-31.7918C166.585,-30.8317 175.364,-29.8676 183.821,-28.9388"/>
<polygon fill="midnightblue" stroke="midnightblue" points="157.177,-28.3439 147.618,-32.9147 157.941,-35.302 157.177,-28.3439"/>
</g>
<!-- Node3 -->
<g id="node5" class="node"><title>Node3</title>
<a xlink:href="cvm-hfa-stats_8c.html#ab70d294575883530a6ecd321a2a09fc3" target="_top" xlink:title="Create ARENA for hfa statistics.">
<polygon fill="white" stroke="black" points="517,-52.5 517,-73.5 645,-73.5 645,-52.5 517,-52.5"/>
<text text-anchor="middle" x="581" y="-60.5" font-family="FreeSans" font-size="10.00">hfa_stats_create_arena</text>
</a>
</g>
<!-- Node2&#45;&gt;Node3 -->
<g id="edge4" class="edge"><title>Node2&#45;&gt;Node3</title>
<path fill="none" stroke="midnightblue" d="M481.701,-61.8454C493.338,-61.9807 505.308,-62.1199 516.731,-62.2527"/>
<polygon fill="midnightblue" stroke="midnightblue" points="481.623,-58.3443 471.583,-61.7277 481.541,-65.3438 481.623,-58.3443"/>
</g>
<!-- Node4 -->
<g id="node7" class="node"><title>Node4</title>
<a xlink:href="cvm-hfa-stats_8h.html#a69100ad9ae17fc0ec07982ea8b90c5df" target="_top" xlink:title="This routine allocates memory for counters to maintain statistics of each processing core...">
<polygon fill="white" stroke="black" points="690,-51.5 690,-72.5 792,-72.5 792,-51.5 690,-51.5"/>
<text text-anchor="middle" x="741" y="-59.5" font-family="FreeSans" font-size="10.00">hfa_dev_stats_init</text>
</a>
</g>
<!-- Node3&#45;&gt;Node4 -->
<g id="edge6" class="edge"><title>Node3&#45;&gt;Node4</title>
<path fill="none" stroke="midnightblue" d="M655.293,-62.5357C666.903,-62.4631 678.674,-62.3895 689.622,-62.3211"/>
<polygon fill="midnightblue" stroke="midnightblue" points="655.134,-59.0365 645.156,-62.599 655.178,-66.0364 655.134,-59.0365"/>
</g>
<!-- Node5 -->
<g id="node9" class="node"><title>Node5</title>
<a xlink:href="cvm-hfa_8c.html#a873768042b716d60996ec5d858fc8fd9" target="_top" xlink:title="This function must be called by application to initialize HFA engine and setup resources for HFA hard...">
<polygon fill="white" stroke="black" points="828,-50.5 828,-71.5 902,-71.5 902,-50.5 828,-50.5"/>
<text text-anchor="middle" x="865" y="-58.5" font-family="FreeSans" font-size="10.00">hfa_dev_init</text>
</a>
</g>
<!-- Node4&#45;&gt;Node5 -->
<g id="edge8" class="edge"><title>Node4&#45;&gt;Node5</title>
<path fill="none" stroke="midnightblue" d="M802.375,-61.505C811.126,-61.4345 819.893,-61.3638 827.98,-61.2986"/>
<polygon fill="midnightblue" stroke="midnightblue" points="802.123,-58.0069 792.151,-61.5875 802.179,-65.0066 802.123,-58.0069"/>
</g>
<!-- Node6 -->
<g id="node11" class="node"><title>Node6</title>
<a xlink:href="hfa-lnx-async_8c.html#a78ffddbcd7cdd164889cfb53ea367886" target="_top" xlink:title="entry">
<polygon fill="white" stroke="black" points="938.5,-50.5 938.5,-71.5 979.5,-71.5 979.5,-50.5 938.5,-50.5"/>
<text text-anchor="middle" x="959" y="-58.5" font-family="FreeSans" font-size="10.00">entry</text>
</a>
</g>
<!-- Node5&#45;&gt;Node6 -->
<g id="edge10" class="edge"><title>Node5&#45;&gt;Node6</title>
<path fill="none" stroke="midnightblue" d="M912.393,-61C921.522,-61 930.631,-61 938.342,-61"/>
<polygon fill="midnightblue" stroke="midnightblue" points="912.151,-57.5001 902.151,-61 912.151,-64.5001 912.151,-57.5001"/>
</g>
<!-- Node7 -->
<g id="node13" class="node"><title>Node7</title>
<a xlink:href="hfa-se-async_8c.html#a3c04138a5bfe5d72780bb7e82a18e627" target="_top" xlink:title="main">
<polygon fill="white" stroke="black" points="939,-10.5 939,-31.5 979,-31.5 979,-10.5 939,-10.5"/>
<text text-anchor="middle" x="959" y="-18.5" font-family="FreeSans" font-size="10.00">main</text>
</a>
</g>
<!-- Node5&#45;&gt;Node7 -->
<g id="edge12" class="edge"><title>Node5&#45;&gt;Node7</title>
<path fill="none" stroke="midnightblue" d="M899.089,-46.494C912.447,-40.8097 927.314,-34.4835 938.896,-29.5549"/>
<polygon fill="midnightblue" stroke="midnightblue" points="897.528,-43.3543 889.697,-50.4905 900.269,-49.7954 897.528,-43.3543"/>
</g>
<!-- Node8&#45;&gt;Node2 -->
<g id="edge16" class="edge"><title>Node8&#45;&gt;Node2</title>
<path fill="none" stroke="midnightblue" d="M300.84,-34.9615C321.715,-39.9869 345.311,-45.6675 365.125,-50.4376"/>
<polygon fill="midnightblue" stroke="midnightblue" points="301.381,-31.4918 290.84,-32.554 299.743,-38.2974 301.381,-31.4918"/>
</g>
<!-- Node9 -->
<g id="node18" class="node"><title>Node9</title>
<a xlink:href="hfa-se-async_8c.html#abc17fab65a320998a273d112ff24d658" target="_top" xlink:title="Configure cluster memory resources.">
<polygon fill="white" stroke="black" points="508,-0 508,-34 654,-34 654,-0 508,-0"/>
<text text-anchor="start" x="516" y="-21" font-family="FreeSans" font-size="10.00">configure_cluster_memory</text>
<text text-anchor="middle" x="581" y="-8" font-family="FreeSans" font-size="10.00">_resources</text>
</a>
</g>
<!-- Node8&#45;&gt;Node9 -->
<g id="edge18" class="edge"><title>Node8&#45;&gt;Node9</title>
<path fill="none" stroke="midnightblue" d="M320.364,-20.9017C376.044,-20.0682 452.244,-18.9275 507.867,-18.0948"/>
<polygon fill="midnightblue" stroke="midnightblue" points="320.162,-17.4043 310.216,-21.0537 320.267,-24.4035 320.162,-17.4043"/>
</g>
<!-- Node9&#45;&gt;Node7 -->
<g id="edge20" class="edge"><title>Node9&#45;&gt;Node7</title>
<path fill="none" stroke="midnightblue" d="M664.397,-17.8825C753.302,-18.8233 888.117,-20.2499 938.796,-20.7862"/>
<polygon fill="midnightblue" stroke="midnightblue" points="664.367,-14.3821 654.33,-17.776 664.293,-21.3817 664.367,-14.3821"/>
</g>
</g>
</svg>
