<?xml version="1.0" encoding="UTF-8" standalone="no"?>
<!DOCTYPE svg PUBLIC "-//W3C//DTD SVG 1.1//EN"
 "http://www.w3.org/Graphics/SVG/1.1/DTD/svg11.dtd">
<!-- Generated by graphviz version 2.24.0 (20090616.2323)
 -->
<!-- Title: hfa_bootmem_alloc_named Pages: 1 -->
<svg width="810pt" height="70pt"
 viewBox="0.00 0.00 810.00 70.00" xmlns="http://www.w3.org/2000/svg" xmlns:xlink="http://www.w3.org/1999/xlink">
<g id="graph1" class="graph" transform="scale(1 1) rotate(0) translate(4 66)">
<title>hfa_bootmem_alloc_named</title>
<polygon fill="white" stroke="white" points="-4,5 -4,-66 807,-66 807,5 -4,5"/>
<!-- Node1 -->
<g id="node1" class="node"><title>Node1</title>
<polygon fill="#bfbfbf" stroke="black" points="0,-20.5 0,-41.5 150,-41.5 150,-20.5 0,-20.5"/>
<text text-anchor="middle" x="75" y="-28.5" font-family="FreeSans" font-size="10.00">hfa_bootmem_alloc_named</text>
</g>
<!-- Node2 -->
<g id="node3" class="node"><title>Node2</title>
<a xlink:href="cvm-hfa_8c.html#a199331bc34e479a3defde18ae38a1d49" target="_top" xlink:title="This is a utility routine to find or allocate a named block.">
<polygon fill="white" stroke="black" points="186.5,-20.5 186.5,-41.5 311.5,-41.5 311.5,-20.5 186.5,-20.5"/>
<text text-anchor="middle" x="249" y="-28.5" font-family="FreeSans" font-size="10.00">hfa_find_named_block</text>
</a>
</g>
<!-- Node1&#45;&gt;Node2 -->
<g id="edge2" class="edge"><title>Node1&#45;&gt;Node2</title>
<path fill="none" stroke="midnightblue" d="M160.065,-31C168.959,-31 177.88,-31 186.457,-31"/>
<polygon fill="midnightblue" stroke="midnightblue" points="160.054,-27.5001 150.054,-31 160.054,-34.5001 160.054,-27.5001"/>
</g>
<!-- Node3 -->
<g id="node5" class="node"><title>Node3</title>
<a xlink:href="cvm-hfa-stats_8c.html#ab70d294575883530a6ecd321a2a09fc3" target="_top" xlink:title="Create ARENA for hfa statistics.">
<polygon fill="white" stroke="black" points="348,-20.5 348,-41.5 476,-41.5 476,-20.5 348,-20.5"/>
<text text-anchor="middle" x="412" y="-28.5" font-family="FreeSans" font-size="10.00">hfa_stats_create_arena</text>
</a>
</g>
<!-- Node2&#45;&gt;Node3 -->
<g id="edge4" class="edge"><title>Node2&#45;&gt;Node3</title>
<path fill="none" stroke="midnightblue" d="M321.741,-31C330.492,-31 339.38,-31 347.995,-31"/>
<polygon fill="midnightblue" stroke="midnightblue" points="321.554,-27.5001 311.554,-31 321.554,-34.5001 321.554,-27.5001"/>
</g>
<!-- Node4 -->
<g id="node7" class="node"><title>Node4</title>
<a xlink:href="cvm-hfa-stats_8h.html#a69100ad9ae17fc0ec07982ea8b90c5df" target="_top" xlink:title="This routine allocates memory for counters to maintain statistics of each processing core...">
<polygon fill="white" stroke="black" points="512,-20.5 512,-41.5 614,-41.5 614,-20.5 512,-20.5"/>
<text text-anchor="middle" x="563" y="-28.5" font-family="FreeSans" font-size="10.00">hfa_dev_stats_init</text>
</a>
</g>
<!-- Node3&#45;&gt;Node4 -->
<g id="edge6" class="edge"><title>Node3&#45;&gt;Node4</title>
<path fill="none" stroke="midnightblue" d="M486.14,-31C494.779,-31 503.441,-31 511.674,-31"/>
<polygon fill="midnightblue" stroke="midnightblue" points="486.038,-27.5001 476.038,-31 486.038,-34.5001 486.038,-27.5001"/>
</g>
<!-- Node5 -->
<g id="node9" class="node"><title>Node5</title>
<a xlink:href="cvm-hfa_8c.html#a873768042b716d60996ec5d858fc8fd9" target="_top" xlink:title="This function must be called by application to initialize HFA engine and setup resources for HFA hard...">
<polygon fill="white" stroke="black" points="650,-20.5 650,-41.5 724,-41.5 724,-20.5 650,-20.5"/>
<text text-anchor="middle" x="687" y="-28.5" font-family="FreeSans" font-size="10.00">hfa_dev_init</text>
</a>
</g>
<!-- Node4&#45;&gt;Node5 -->
<g id="edge8" class="edge"><title>Node4&#45;&gt;Node5</title>
<path fill="none" stroke="midnightblue" d="M624.375,-31C633.126,-31 641.893,-31 649.98,-31"/>
<polygon fill="midnightblue" stroke="midnightblue" points="624.151,-27.5001 614.151,-31 624.151,-34.5001 624.151,-27.5001"/>
</g>
<!-- Node6 -->
<g id="node11" class="node"><title>Node6</title>
<a xlink:href="hfa-lnx-async_8c.html#a78ffddbcd7cdd164889cfb53ea367886" target="_top" xlink:title="entry">
<polygon fill="white" stroke="black" points="760.5,-40.5 760.5,-61.5 801.5,-61.5 801.5,-40.5 760.5,-40.5"/>
<text text-anchor="middle" x="781" y="-48.5" font-family="FreeSans" font-size="10.00">entry</text>
</a>
</g>
<!-- Node5&#45;&gt;Node6 -->
<g id="edge10" class="edge"><title>Node5&#45;&gt;Node6</title>
<path fill="none" stroke="midnightblue" d="M734.098,-41.0209C743.326,-42.9842 752.548,-44.9463 760.342,-46.6047"/>
<polygon fill="midnightblue" stroke="midnightblue" points="734.661,-37.5623 724.151,-38.9045 733.204,-44.4091 734.661,-37.5623"/>
</g>
<!-- Node7 -->
<g id="node13" class="node"><title>Node7</title>
<a xlink:href="hfa-se-async_8c.html#a3c04138a5bfe5d72780bb7e82a18e627" target="_top" xlink:title="main">
<polygon fill="white" stroke="black" points="761,-0.5 761,-21.5 801,-21.5 801,-0.5 761,-0.5"/>
<text text-anchor="middle" x="781" y="-8.5" font-family="FreeSans" font-size="10.00">main</text>
</a>
</g>
<!-- Node5&#45;&gt;Node7 -->
<g id="edge12" class="edge"><title>Node5&#45;&gt;Node7</title>
<path fill="none" stroke="midnightblue" d="M733.966,-21.0073C743.447,-18.9901 752.929,-16.9725 760.871,-15.2828"/>
<polygon fill="midnightblue" stroke="midnightblue" points="733.204,-17.5909 724.151,-23.0955 734.661,-24.4377 733.204,-17.5909"/>
</g>
</g>
</svg>
