<?xml version="1.0" encoding="UTF-8" standalone="no"?>
<!DOCTYPE svg PUBLIC "-//W3C//DTD SVG 1.1//EN"
 "http://www.w3.org/Graphics/SVG/1.1/DTD/svg11.dtd">
<!-- Generated by graphviz version 2.24.0 (20090616.2323)
 -->
<!-- Title: cvmx_hfa_initialize Pages: 1 -->
<svg width="284pt" height="82pt"
 viewBox="0.00 0.00 284.00 82.00" xmlns="http://www.w3.org/2000/svg" xmlns:xlink="http://www.w3.org/1999/xlink">
<g id="graph1" class="graph" transform="scale(1 1) rotate(0) translate(4 78)">
<title>cvmx_hfa_initialize</title>
<polygon fill="white" stroke="white" points="-4,5 -4,-78 281,-78 281,5 -4,5"/>
<!-- Node1 -->
<g id="node1" class="node"><title>Node1</title>
<polygon fill="#bfbfbf" stroke="black" points="0,-29.5 0,-50.5 108,-50.5 108,-29.5 0,-29.5"/>
<text text-anchor="middle" x="54" y="-37.5" font-family="FreeSans" font-size="10.00">cvmx_hfa_initialize</text>
</g>
<!-- Node2 -->
<g id="node3" class="node"><title>Node2</title>
<a xlink:href="cvmx-hfa_8h.html#af767246ad3a568a55dec2c64e0d64c8f" target="_top" xlink:title="cvmx_fpa_get_dfa_pool">
<polygon fill="white" stroke="black" points="144,-52.5 144,-73.5 276,-73.5 276,-52.5 144,-52.5"/>
<text text-anchor="middle" x="210" y="-60.5" font-family="FreeSans" font-size="10.00">cvmx_fpa_get_dfa_pool</text>
</a>
</g>
<!-- Node1&#45;&gt;Node2 -->
<g id="edge2" class="edge"><title>Node1&#45;&gt;Node2</title>
<path fill="none" stroke="midnightblue" d="M108.123,-47.9797C116.409,-49.2014 125.093,-50.4817 133.748,-51.7577"/>
<polygon fill="midnightblue" stroke="midnightblue" points="133.466,-55.2539 143.869,-53.25 134.487,-48.3287 133.466,-55.2539"/>
</g>
<!-- Node3 -->
<g id="node5" class="node"><title>Node3</title>
<a xlink:href="cvmx-hfa_8h.html#a2b264a969a4c49c2d9ac7489e428b495" target="_top" xlink:title="cvmx_fpa_get_dfa_pool\l_block_size">
<polygon fill="white" stroke="black" points="144,-0 144,-34 276,-34 276,-0 144,-0"/>
<text text-anchor="start" x="152" y="-21" font-family="FreeSans" font-size="10.00">cvmx_fpa_get_dfa_pool</text>
<text text-anchor="middle" x="210" y="-8" font-family="FreeSans" font-size="10.00">_block_size</text>
</a>
</g>
<!-- Node1&#45;&gt;Node3 -->
<g id="edge4" class="edge"><title>Node1&#45;&gt;Node3</title>
<path fill="none" stroke="midnightblue" d="M108.123,-32.0203C116.409,-30.7986 125.093,-29.5183 133.748,-28.2423"/>
<polygon fill="midnightblue" stroke="midnightblue" points="134.487,-31.6713 143.869,-26.75 133.466,-24.7461 134.487,-31.6713"/>
</g>
</g>
</svg>
