<?xml version="1.0" encoding="UTF-8" standalone="no"?>
<!DOCTYPE svg PUBLIC "-//W3C//DTD SVG 1.1//EN"
 "http://www.w3.org/Graphics/SVG/1.1/DTD/svg11.dtd">
<!-- Generated by graphviz version 2.24.0 (20090616.2323)
 -->
<!-- Title: func Pages: 1 -->
<svg width="105pt" height="225pt"
 viewBox="0.00 0.00 105.00 225.00" xmlns="http://www.w3.org/2000/svg" xmlns:xlink="http://www.w3.org/1999/xlink">
<g id="graph1" class="graph" transform="scale(1 1) rotate(0) translate(4 221)">
<title>func</title>
<polygon fill="white" stroke="white" points="-4,5 -4,-221 102,-221 102,5 -4,5"/>
<g id="graph2" class="cluster"><title>clusterdir_6f2964c42786f337aa2029a131b53b70</title>
<a xlink:href="dir_6f2964c42786f337aa2029a131b53b70.html" target="_top" xlink:title="apps">
<polygon fill="#ddddee" stroke="black" points="19,-136 19,-209 89,-209 89,-136 19,-136"/>
<text text-anchor="middle" x="54" y="-196" font-family="FreeSans" font-size="10.00">apps</text>
</a>
</g>
<!-- dir_9fb90d688dc8b0215f44ce1f4c7c388e -->
<g id="node2" class="node"><title>dir_9fb90d688dc8b0215f44ce1f4c7c388e</title>
<a xlink:href="dir_9fb90d688dc8b0215f44ce1f4c7c388e.html" target="_top" xlink:title="func">
<polygon fill="#eeeeff" stroke="black" points="81,-180 27,-180 27,-144 81,-144 81,-180"/>
<text text-anchor="middle" x="54" y="-159.5" font-family="FreeSans" font-size="10.00">func</text>
</a>
</g>
<!-- dir_1f075b319f4978b8e3e5a7ab29b1009f -->
<g id="node3" class="node"><title>dir_1f075b319f4978b8e3e5a7ab29b1009f</title>
<a xlink:href="dir_1f075b319f4978b8e3e5a7ab29b1009f.html" target="_top" xlink:title="utils">
<polygon fill="white" stroke="red" points="54,-108 1.06581e-14,-108 0,-72 54,-72 54,-108"/>
<text text-anchor="middle" x="27" y="-87.5" font-family="FreeSans" font-size="10.00">utils</text>
</a>
</g>
<!-- dir_9fb90d688dc8b0215f44ce1f4c7c388e&#45;&gt;dir_1f075b319f4978b8e3e5a7ab29b1009f -->
<g id="edge5" class="edge"><title>dir_9fb90d688dc8b0215f44ce1f4c7c388e&#45;&gt;dir_1f075b319f4978b8e3e5a7ab29b1009f</title>
<path fill="none" stroke="black" d="M47.1868,-143.831C44.2356,-135.962 40.7142,-126.571 37.445,-117.853"/>
<polygon fill="black" stroke="black" points="40.6934,-116.548 33.905,-108.413 34.1391,-119.006 40.6934,-116.548"/>
<a xlink:href="dir_000008_000000.html" target="_top" xlink:title="2">
<text text-anchor="middle" x="44.614" y="-116.416" font-family="FreeSans" font-size="10.00">2</text>
</a>
</g>
<!-- dir_148615f018249bdfc7d135fe95c1684f -->
<g id="node4" class="node"><title>dir_148615f018249bdfc7d135fe95c1684f</title>
<a xlink:href="dir_148615f018249bdfc7d135fe95c1684f.html" target="_top" xlink:title="drv">
<polygon fill="white" stroke="red" points="81,-36 27,-36 27,-1.06581e-14 81,-0 81,-36"/>
<text text-anchor="middle" x="54" y="-15.5" font-family="FreeSans" font-size="10.00">drv</text>
</a>
</g>
<!-- dir_9fb90d688dc8b0215f44ce1f4c7c388e&#45;&gt;dir_148615f018249bdfc7d135fe95c1684f -->
<g id="edge7" class="edge"><title>dir_9fb90d688dc8b0215f44ce1f4c7c388e&#45;&gt;dir_148615f018249bdfc7d135fe95c1684f</title>
<path fill="none" stroke="black" d="M57.8413,-143.6C59.8166,-133.203 62.0123,-119.935 63,-108 64.3197,-92.0545 64.3197,-87.9455 63,-72 62.3055,-63.6085 61.0138,-54.5578 59.6214,-46.3092"/>
<polygon fill="black" stroke="black" points="63.0544,-45.6235 57.8413,-36.3999 56.1647,-46.8612 63.0544,-45.6235"/>
<a xlink:href="dir_000008_000002.html" target="_top" xlink:title="72">
<text text-anchor="middle" x="66.4844" y="-46.1595" font-family="FreeSans" font-size="10.00">72</text>
</a>
</g>
<!-- dir_1f075b319f4978b8e3e5a7ab29b1009f&#45;&gt;dir_148615f018249bdfc7d135fe95c1684f -->
<g id="edge3" class="edge"><title>dir_1f075b319f4978b8e3e5a7ab29b1009f&#45;&gt;dir_148615f018249bdfc7d135fe95c1684f</title>
<path fill="none" stroke="black" d="M33.8132,-71.8314C36.7644,-63.9617 40.2858,-54.5712 43.555,-45.8533"/>
<polygon fill="black" stroke="black" points="46.8609,-47.0055 47.095,-36.4133 40.3066,-44.5476 46.8609,-47.0055"/>
<a xlink:href="dir_000000_000002.html" target="_top" xlink:title="4">
<text text-anchor="middle" x="48.2573" y="-48.8682" font-family="FreeSans" font-size="10.00">4</text>
</a>
</g>
</g>
</svg>
