<?xml version="1.0" encoding="UTF-8" standalone="no"?>
<!DOCTYPE svg PUBLIC "-//W3C//DTD SVG 1.1//EN"
 "http://www.w3.org/Graphics/SVG/1.1/DTD/svg11.dtd">
<!-- Generated by graphviz version 2.24.0 (20090616.2323)
 -->
<!-- Title: utils Pages: 1 -->
<svg width="240pt" height="132pt"
 viewBox="0.00 0.00 240.00 132.00" xmlns="http://www.w3.org/2000/svg" xmlns:xlink="http://www.w3.org/1999/xlink">
<g id="graph1" class="graph" transform="scale(1 1) rotate(0) translate(4 128)">
<title>utils</title>
<polygon fill="white" stroke="white" points="-4,5 -4,-128 237,-128 237,5 -4,5"/>
<g id="graph2" class="cluster"><title>clusterdir_1f075b319f4978b8e3e5a7ab29b1009f</title>
<a xlink:href="dir_1f075b319f4978b8e3e5a7ab29b1009f.html" target="_top">
<polygon fill="#eeeeff" stroke="black" points="8,-64 8,-116 224,-116 224,-64 8,-64"/>
</a>
</g>
<!-- dir_1f075b319f4978b8e3e5a7ab29b1009f -->
<g id="node2" class="node"><title>dir_1f075b319f4978b8e3e5a7ab29b1009f</title>
<text text-anchor="middle" x="189" y="-87.5" font-family="FreeSans" font-size="10.00">utils</text>
</g>
<!-- dir_39fdd525629d237170d9d281e2181916 -->
<g id="node3" class="node"><title>dir_39fdd525629d237170d9d281e2181916</title>
<a xlink:href="dir_39fdd525629d237170d9d281e2181916.html" target="_top" xlink:title="app&#45;utils">
<polygon fill="white" stroke="black" points="144,-108 88,-108 88,-72 144,-72 144,-108"/>
<text text-anchor="middle" x="116" y="-87.5" font-family="FreeSans" font-size="10.00">app&#45;utils</text>
</a>
</g>
<!-- dir_37d8ac9c0bedaecbda6f2d9bf41083fb -->
<g id="node4" class="node"><title>dir_37d8ac9c0bedaecbda6f2d9bf41083fb</title>
<a xlink:href="dir_37d8ac9c0bedaecbda6f2d9bf41083fb.html" target="_top" xlink:title="flow">
<polygon fill="white" stroke="black" points="70,-108 16,-108 16,-72 70,-72 70,-108"/>
<text text-anchor="middle" x="43" y="-87.5" font-family="FreeSans" font-size="10.00">flow</text>
</a>
</g>
<!-- dir_148615f018249bdfc7d135fe95c1684f -->
<g id="node5" class="node"><title>dir_148615f018249bdfc7d135fe95c1684f</title>
<a xlink:href="dir_148615f018249bdfc7d135fe95c1684f.html" target="_top" xlink:title="drv">
<polygon fill="white" stroke="red" points="70,-36 16,-36 16,-1.06581e-14 70,-0 70,-36"/>
<text text-anchor="middle" x="43" y="-15.5" font-family="FreeSans" font-size="10.00">drv</text>
</a>
</g>
<!-- dir_37d8ac9c0bedaecbda6f2d9bf41083fb&#45;&gt;dir_148615f018249bdfc7d135fe95c1684f -->
<g id="edge3" class="edge"><title>dir_37d8ac9c0bedaecbda6f2d9bf41083fb&#45;&gt;dir_148615f018249bdfc7d135fe95c1684f</title>
<path fill="none" stroke="black" d="M43,-71.8314C43,-64.131 43,-54.9743 43,-46.4166"/>
<polygon fill="black" stroke="black" points="46.5001,-46.4132 43,-36.4133 39.5001,-46.4133 46.5001,-46.4132"/>
<a xlink:href="dir_000006_000002.html" target="_top" xlink:title="4">
<text text-anchor="middle" x="49.3393" y="-47.5079" font-family="FreeSans" font-size="10.00">4</text>
</a>
</g>
</g>
</svg>
