<?xml version="1.0" encoding="UTF-8" standalone="no"?>
<!DOCTYPE svg PUBLIC "-//W3C//DTD SVG 1.1//EN"
 "http://www.w3.org/Graphics/SVG/1.1/DTD/svg11.dtd">
<!-- Generated by graphviz version 2.24.0 (20090616.2323)
 -->
<!-- Title: apps Pages: 1 -->
<svg width="243pt" height="204pt"
 viewBox="0.00 0.00 243.00 204.00" xmlns="http://www.w3.org/2000/svg" xmlns:xlink="http://www.w3.org/1999/xlink">
<g id="graph1" class="graph" transform="scale(1 1) rotate(0) translate(4 200)">
<title>apps</title>
<polygon fill="white" stroke="white" points="-4,5 -4,-200 240,-200 240,5 -4,5"/>
<g id="graph2" class="cluster"><title>clusterdir_6f2964c42786f337aa2029a131b53b70</title>
<a xlink:href="dir_6f2964c42786f337aa2029a131b53b70.html" target="_top">
<polygon fill="#eeeeff" stroke="black" points="13,-136 13,-188 227,-188 227,-136 13,-136"/>
</a>
</g>
<!-- dir_6f2964c42786f337aa2029a131b53b70 -->
<g id="node2" class="node"><title>dir_6f2964c42786f337aa2029a131b53b70</title>
<text text-anchor="middle" x="192" y="-159.5" font-family="FreeSans" font-size="10.00">apps</text>
</g>
<!-- dir_9fb90d688dc8b0215f44ce1f4c7c388e -->
<g id="node3" class="node"><title>dir_9fb90d688dc8b0215f44ce1f4c7c388e</title>
<a xlink:href="dir_9fb90d688dc8b0215f44ce1f4c7c388e.html" target="_top" xlink:title="func">
<polygon fill="white" stroke="black" points="75,-180 21,-180 21,-144 75,-144 75,-180"/>
<text text-anchor="middle" x="48" y="-159.5" font-family="FreeSans" font-size="10.00">func</text>
</a>
</g>
<!-- dir_1f075b319f4978b8e3e5a7ab29b1009f -->
<g id="node5" class="node"><title>dir_1f075b319f4978b8e3e5a7ab29b1009f</title>
<a xlink:href="dir_1f075b319f4978b8e3e5a7ab29b1009f.html" target="_top" xlink:title="utils">
<polygon fill="white" stroke="red" points="54,-108 1.06581e-14,-108 0,-72 54,-72 54,-108"/>
<text text-anchor="middle" x="27" y="-87.5" font-family="FreeSans" font-size="10.00">utils</text>
</a>
</g>
<!-- dir_9fb90d688dc8b0215f44ce1f4c7c388e&#45;&gt;dir_1f075b319f4978b8e3e5a7ab29b1009f -->
<g id="edge7" class="edge"><title>dir_9fb90d688dc8b0215f44ce1f4c7c388e&#45;&gt;dir_1f075b319f4978b8e3e5a7ab29b1009f</title>
<path fill="none" stroke="black" d="M42.7008,-143.831C40.4302,-136.046 37.7254,-126.773 35.206,-118.135"/>
<polygon fill="black" stroke="black" points="38.5306,-117.033 32.3705,-108.413 31.8106,-118.993 38.5306,-117.033"/>
<a xlink:href="dir_000008_000000.html" target="_top" xlink:title="2">
<text text-anchor="middle" x="42.2627" y="-117.189" font-family="FreeSans" font-size="10.00">2</text>
</a>
</g>
<!-- dir_148615f018249bdfc7d135fe95c1684f -->
<g id="node6" class="node"><title>dir_148615f018249bdfc7d135fe95c1684f</title>
<a xlink:href="dir_148615f018249bdfc7d135fe95c1684f.html" target="_top" xlink:title="drv">
<polygon fill="white" stroke="red" points="109,-36 55,-36 55,-1.06581e-14 109,-0 109,-36"/>
<text text-anchor="middle" x="82" y="-15.5" font-family="FreeSans" font-size="10.00">drv</text>
</a>
</g>
<!-- dir_9fb90d688dc8b0215f44ce1f4c7c388e&#45;&gt;dir_148615f018249bdfc7d135fe95c1684f -->
<g id="edge9" class="edge"><title>dir_9fb90d688dc8b0215f44ce1f4c7c388e&#45;&gt;dir_148615f018249bdfc7d135fe95c1684f</title>
<path fill="none" stroke="black" d="M53.4259,-143.581C56.4126,-133.177 60.0918,-119.91 63,-108 68.0431,-87.3476 72.9792,-63.8366 76.5557,-46.025"/>
<polygon fill="black" stroke="black" points="80.0307,-46.4951 78.5453,-36.0049 73.1647,-45.1317 80.0307,-46.4951"/>
<a xlink:href="dir_000008_000002.html" target="_top" xlink:title="72">
<text text-anchor="middle" x="82.1156" y="-48.0738" font-family="FreeSans" font-size="10.00">72</text>
</a>
</g>
<!-- dir_4af3f2fc92392c7249391cd2817f58f9 -->
<g id="node4" class="node"><title>dir_4af3f2fc92392c7249391cd2817f58f9</title>
<a xlink:href="dir_4af3f2fc92392c7249391cd2817f58f9.html" target="_top" xlink:title="perf">
<polygon fill="white" stroke="black" points="147,-180 93,-180 93,-144 147,-144 147,-180"/>
<text text-anchor="middle" x="120" y="-159.5" font-family="FreeSans" font-size="10.00">perf</text>
</a>
</g>
<!-- dir_4af3f2fc92392c7249391cd2817f58f9&#45;&gt;dir_148615f018249bdfc7d135fe95c1684f -->
<g id="edge5" class="edge"><title>dir_4af3f2fc92392c7249391cd2817f58f9&#45;&gt;dir_148615f018249bdfc7d135fe95c1684f</title>
<path fill="none" stroke="black" d="M115.187,-143.762C108.677,-119.093 97.0047,-74.8598 89.3818,-45.9731"/>
<polygon fill="black" stroke="black" points="92.7094,-44.8656 86.7736,-36.0896 85.9411,-46.6517 92.7094,-44.8656"/>
<a xlink:href="dir_000009_000002.html" target="_top" xlink:title="8">
<text text-anchor="middle" x="96.3718" y="-45.1168" font-family="FreeSans" font-size="10.00">8</text>
</a>
</g>
<!-- dir_1f075b319f4978b8e3e5a7ab29b1009f&#45;&gt;dir_148615f018249bdfc7d135fe95c1684f -->
<g id="edge3" class="edge"><title>dir_1f075b319f4978b8e3e5a7ab29b1009f&#45;&gt;dir_148615f018249bdfc7d135fe95c1684f</title>
<path fill="none" stroke="black" d="M40.8788,-71.8314C47.2136,-63.5386 54.8384,-53.557 61.7926,-44.4533"/>
<polygon fill="black" stroke="black" points="64.6452,-46.4847 67.9343,-36.4133 59.0825,-42.2353 64.6452,-46.4847"/>
<a xlink:href="dir_000000_000002.html" target="_top" xlink:title="4">
<text text-anchor="middle" x="64.7195" y="-48.5647" font-family="FreeSans" font-size="10.00">4</text>
</a>
</g>
</g>
</svg>
