<?xml version="1.0" encoding="UTF-8" standalone="no"?>
<!DOCTYPE svg PUBLIC "-//W3C//DTD SVG 1.1//EN"
 "http://www.w3.org/Graphics/SVG/1.1/DTD/svg11.dtd">
<!-- Generated by graphviz version 2.24.0 (20090616.2323)
 -->
<!-- Title: include Pages: 1 -->
<svg width="182pt" height="161pt"
 viewBox="0.00 0.00 182.00 161.00" xmlns="http://www.w3.org/2000/svg" xmlns:xlink="http://www.w3.org/1999/xlink">
<g id="graph1" class="graph" transform="scale(1 1) rotate(0) translate(4 157)">
<title>include</title>
<polygon fill="white" stroke="white" points="-4,5 -4,-157 179,-157 179,5 -4,5"/>
<g id="graph2" class="cluster"><title>clusterdir_148615f018249bdfc7d135fe95c1684f</title>
<a xlink:href="dir_148615f018249bdfc7d135fe95c1684f.html" target="_top" xlink:title="drv">
<polygon fill="#ddddee" stroke="black" points="8,-56 8,-145 166,-145 166,-56 8,-56"/>
<text text-anchor="middle" x="87" y="-132" font-family="FreeSans" font-size="10.00">drv</text>
</a>
</g>
<g id="graph3" class="cluster"><title>clusterdir_82286fbd24db31111907a385951d53ec</title>
<a xlink:href="dir_82286fbd24db31111907a385951d53ec.html" target="_top">
<polygon fill="#eeeeff" stroke="black" points="16,-64 16,-116 158,-116 158,-64 16,-64"/>
</a>
</g>
<!-- dir_82286fbd24db31111907a385951d53ec -->
<g id="node3" class="node"><title>dir_82286fbd24db31111907a385951d53ec</title>
<text text-anchor="middle" x="123" y="-87.5" font-family="FreeSans" font-size="10.00">include</text>
</g>
<!-- dir_8c1055de11fd84e1eec44b13ed628320 -->
<g id="node5" class="node"><title>dir_8c1055de11fd84e1eec44b13ed628320</title>
<a xlink:href="dir_8c1055de11fd84e1eec44b13ed628320.html" target="_top" xlink:title="executive">
<polygon fill="none" stroke="black" points="154,-36 92,-36 92,-1.06581e-14 154,-0 154,-36"/>
<text text-anchor="middle" x="123" y="-15.5" font-family="FreeSans" font-size="10.00">executive</text>
</a>
</g>
<!-- dir_82286fbd24db31111907a385951d53ec&#45;&gt;dir_8c1055de11fd84e1eec44b13ed628320 -->
<g id="edge4" class="edge"><title>dir_82286fbd24db31111907a385951d53ec&#45;&gt;dir_8c1055de11fd84e1eec44b13ed628320</title>
<path fill="none" stroke="black" d="M123,-71.8314C123,-64.131 123,-54.9743 123,-46.4166"/>
<polygon fill="black" stroke="black" points="126.5,-46.4132 123,-36.4133 119.5,-46.4133 126.5,-46.4132"/>
<a xlink:href="dir_000004_000005.html" target="_top" xlink:title="1">
<text text-anchor="middle" x="129.339" y="-47.5079" font-family="FreeSans" font-size="10.00">1</text>
</a>
</g>
<!-- dir_1157ac2adadd3ab6caccb7df052eb8be -->
<g id="node4" class="node"><title>dir_1157ac2adadd3ab6caccb7df052eb8be</title>
<a xlink:href="dir_1157ac2adadd3ab6caccb7df052eb8be.html" target="_top" xlink:title="config">
<polygon fill="white" stroke="black" points="78,-108 24,-108 24,-72 78,-72 78,-108"/>
<text text-anchor="middle" x="51" y="-87.5" font-family="FreeSans" font-size="10.00">config</text>
</a>
</g>
</g>
</svg>
