<?xml version="1.0" encoding="UTF-8" standalone="no"?>
<!DOCTYPE svg PUBLIC "-//W3C//DTD SVG 1.1//EN"
 "http://www.w3.org/Graphics/SVG/1.1/DTD/svg11.dtd">
<!-- Generated by graphviz version 2.24.0 (20090616.2323)
 -->
<!-- Title: drv Pages: 1 -->
<svg width="166pt" height="204pt"
 viewBox="0.00 0.00 166.00 204.00" xmlns="http://www.w3.org/2000/svg" xmlns:xlink="http://www.w3.org/1999/xlink">
<g id="graph1" class="graph" transform="scale(1 1) rotate(0) translate(4 200)">
<title>drv</title>
<polygon fill="white" stroke="white" points="-4,5 -4,-200 163,-200 163,5 -4,5"/>
<g id="graph2" class="cluster"><title>clusterdir_148615f018249bdfc7d135fe95c1684f</title>
<a xlink:href="dir_148615f018249bdfc7d135fe95c1684f.html" target="_top">
<polygon fill="#eeeeff" stroke="black" points="8,-64 8,-188 150,-188 150,-64 8,-64"/>
</a>
</g>
<!-- dir_148615f018249bdfc7d135fe95c1684f -->
<g id="node2" class="node"><title>dir_148615f018249bdfc7d135fe95c1684f</title>
<text text-anchor="middle" x="115" y="-159.5" font-family="FreeSans" font-size="10.00">drv</text>
</g>
<!-- dir_82286fbd24db31111907a385951d53ec -->
<g id="node3" class="node"><title>dir_82286fbd24db31111907a385951d53ec</title>
<a xlink:href="dir_82286fbd24db31111907a385951d53ec.html" target="_top" xlink:title="include">
<polygon fill="white" stroke="red" points="70,-108 16,-108 16,-72 70,-72 70,-108"/>
<text text-anchor="middle" x="43" y="-87.5" font-family="FreeSans" font-size="10.00">include</text>
</a>
</g>
<!-- dir_8c1055de11fd84e1eec44b13ed628320 -->
<g id="node5" class="node"><title>dir_8c1055de11fd84e1eec44b13ed628320</title>
<a xlink:href="dir_8c1055de11fd84e1eec44b13ed628320.html" target="_top" xlink:title="executive">
<polygon fill="none" stroke="black" points="74,-36 12,-36 12,-1.06581e-14 74,-0 74,-36"/>
<text text-anchor="middle" x="43" y="-15.5" font-family="FreeSans" font-size="10.00">executive</text>
</a>
</g>
<!-- dir_82286fbd24db31111907a385951d53ec&#45;&gt;dir_8c1055de11fd84e1eec44b13ed628320 -->
<g id="edge3" class="edge"><title>dir_82286fbd24db31111907a385951d53ec&#45;&gt;dir_8c1055de11fd84e1eec44b13ed628320</title>
<path fill="none" stroke="black" d="M43,-71.8314C43,-64.131 43,-54.9743 43,-46.4166"/>
<polygon fill="black" stroke="black" points="46.5001,-46.4132 43,-36.4133 39.5001,-46.4133 46.5001,-46.4132"/>
<a xlink:href="dir_000004_000005.html" target="_top" xlink:title="1">
<text text-anchor="middle" x="49.3393" y="-47.5079" font-family="FreeSans" font-size="10.00">1</text>
</a>
</g>
<!-- dir_b620ad2a30adf02b34f7419a6857c70f -->
<g id="node4" class="node"><title>dir_b620ad2a30adf02b34f7419a6857c70f</title>
<a xlink:href="dir_b620ad2a30adf02b34f7419a6857c70f.html" target="_top" xlink:title="src">
<polygon fill="white" stroke="black" points="70,-180 16,-180 16,-144 70,-144 70,-180"/>
<text text-anchor="middle" x="43" y="-159.5" font-family="FreeSans" font-size="10.00">src</text>
</a>
</g>
<!-- dir_b620ad2a30adf02b34f7419a6857c70f&#45;&gt;dir_82286fbd24db31111907a385951d53ec -->
<g id="edge5" class="edge"><title>dir_b620ad2a30adf02b34f7419a6857c70f&#45;&gt;dir_82286fbd24db31111907a385951d53ec</title>
<path fill="none" stroke="black" d="M43,-143.831C43,-136.131 43,-126.974 43,-118.417"/>
<polygon fill="black" stroke="black" points="46.5001,-118.413 43,-108.413 39.5001,-118.413 46.5001,-118.413"/>
<a xlink:href="dir_000003_000004.html" target="_top" xlink:title="30">
<text text-anchor="middle" x="49.3393" y="-119.508" font-family="FreeSans" font-size="10.00">30</text>
</a>
</g>
</g>
</svg>
