<?xml version="1.0" encoding="UTF-8" standalone="no"?>
<!DOCTYPE svg PUBLIC "-//W3C//DTD SVG 1.1//EN"
 "http://www.w3.org/Graphics/SVG/1.1/DTD/svg11.dtd">
<!-- Generated by graphviz version 2.24.0 (20090616.2323)
 -->
<!-- Title: __hfaf_create_flow Pages: 1 -->
<svg width="370pt" height="30pt"
 viewBox="0.00 0.00 370.00 30.00" xmlns="http://www.w3.org/2000/svg" xmlns:xlink="http://www.w3.org/1999/xlink">
<g id="graph1" class="graph" transform="scale(1 1) rotate(0) translate(4 26)">
<title>__hfaf_create_flow</title>
<polygon fill="white" stroke="white" points="-4,5 -4,-26 367,-26 367,5 -4,5"/>
<!-- Node1 -->
<g id="node1" class="node"><title>Node1</title>
<polygon fill="#bfbfbf" stroke="black" points="0.5,-0.5 0.5,-21.5 107.5,-21.5 107.5,-0.5 0.5,-0.5"/>
<text text-anchor="middle" x="54" y="-8.5" font-family="FreeSans" font-size="10.00">__hfaf_create_flow</text>
</g>
<!-- Node2 -->
<g id="node3" class="node"><title>Node2</title>
<a xlink:href="flow_8h.html#abdb62c6f71f5ca9ecddc66c90166d37b" target="_top" xlink:title="Create Packet Flow in Flowdb.">
<polygon fill="white" stroke="black" points="144.5,-0.5 144.5,-21.5 255.5,-21.5 255.5,-0.5 144.5,-0.5"/>
<text text-anchor="middle" x="200" y="-8.5" font-family="FreeSans" font-size="10.00">hfaf_create_pktflow</text>
</a>
</g>
<!-- Node1&#45;&gt;Node2 -->
<g id="edge2" class="edge"><title>Node1&#45;&gt;Node2</title>
<path fill="none" stroke="midnightblue" d="M117.707,-11C126.468,-11 135.411,-11 144.019,-11"/>
<polygon fill="midnightblue" stroke="midnightblue" points="117.536,-7.5001 107.536,-11 117.536,-14.5001 117.536,-7.5001"/>
</g>
<!-- Node3 -->
<g id="node5" class="node"><title>Node3</title>
<a xlink:href="hfa-se-flow-wqe_8c.html#a6d3e23d8f7a3aaf1b0d6e350b7631a0e" target="_top" xlink:title="Get flow pointer from Flow database, If flow ptr is NULL then create at runtime.">
<polygon fill="white" stroke="black" points="292.5,-0.5 292.5,-21.5 361.5,-21.5 361.5,-0.5 292.5,-0.5"/>
<text text-anchor="middle" x="327" y="-8.5" font-family="FreeSans" font-size="10.00">get_flowptr</text>
</a>
</g>
<!-- Node2&#45;&gt;Node3 -->
<g id="edge4" class="edge"><title>Node2&#45;&gt;Node3</title>
<path fill="none" stroke="midnightblue" d="M265.924,-11C274.986,-11 283.982,-11 292.172,-11"/>
<polygon fill="midnightblue" stroke="midnightblue" points="265.704,-7.5001 255.704,-11 265.704,-14.5001 265.704,-7.5001"/>
</g>
</g>
</svg>
