<?xml version="1.0" encoding="UTF-8" standalone="no"?>
<!DOCTYPE svg PUBLIC "-//W3C//DTD SVG 1.1//EN"
 "http://www.w3.org/Graphics/SVG/1.1/DTD/svg11.dtd">
<!-- Generated by graphviz version 2.24.0 (20090616.2323)
 -->
<!-- Title: hfaf_flowdb_node_init Pages: 1 -->
<svg width="334pt" height="30pt"
 viewBox="0.00 0.00 334.00 30.00" xmlns="http://www.w3.org/2000/svg" xmlns:xlink="http://www.w3.org/1999/xlink">
<g id="graph1" class="graph" transform="scale(1 1) rotate(0) translate(4 26)">
<title>hfaf_flowdb_node_init</title>
<polygon fill="white" stroke="white" points="-4,5 -4,-26 331,-26 331,5 -4,5"/>
<!-- Node1 -->
<g id="node1" class="node"><title>Node1</title>
<polygon fill="#bfbfbf" stroke="black" points="0.5,-0.5 0.5,-21.5 121.5,-21.5 121.5,-0.5 0.5,-0.5"/>
<text text-anchor="middle" x="61" y="-8.5" font-family="FreeSans" font-size="10.00">hfaf_flowdb_node_init</text>
</g>
<!-- Node2 -->
<g id="node3" class="node"><title>Node2</title>
<a xlink:href="flow_8h.html#a37beae7c2c091614084b3d48bf65fa7d" target="_top" xlink:title="Initially a Array is created with maxflow indexes.Each index holds Linked List head.">
<polygon fill="white" stroke="black" points="158,-0.5 158,-21.5 250,-21.5 250,-0.5 158,-0.5"/>
<text text-anchor="middle" x="204" y="-8.5" font-family="FreeSans" font-size="10.00">hfaf_flowdb_init</text>
</a>
</g>
<!-- Node1&#45;&gt;Node2 -->
<g id="edge2" class="edge"><title>Node1&#45;&gt;Node2</title>
<path fill="none" stroke="midnightblue" d="M131.861,-11C140.596,-11 149.343,-11 157.581,-11"/>
<polygon fill="midnightblue" stroke="midnightblue" points="131.645,-7.5001 121.645,-11 131.645,-14.5001 131.645,-7.5001"/>
</g>
<!-- Node3 -->
<g id="node5" class="node"><title>Node3</title>
<a xlink:href="hfa-se-flow-wqe_8c.html#a3c04138a5bfe5d72780bb7e82a18e627" target="_top" xlink:title="Implementation.">
<polygon fill="white" stroke="black" points="286,-0.5 286,-21.5 326,-21.5 326,-0.5 286,-0.5"/>
<text text-anchor="middle" x="306" y="-8.5" font-family="FreeSans" font-size="10.00">main</text>
</a>
</g>
<!-- Node2&#45;&gt;Node3 -->
<g id="edge4" class="edge"><title>Node2&#45;&gt;Node3</title>
<path fill="none" stroke="midnightblue" d="M260.247,-11C269.452,-11 278.427,-11 285.955,-11"/>
<polygon fill="midnightblue" stroke="midnightblue" points="260.225,-7.5001 250.225,-11 260.225,-14.5001 260.225,-7.5001"/>
</g>
</g>
</svg>
