<?xml version="1.0" encoding="UTF-8" standalone="no"?>
<!DOCTYPE svg PUBLIC "-//W3C//DTD SVG 1.1//EN"
 "http://www.w3.org/Graphics/SVG/1.1/DTD/svg11.dtd">
<!-- Generated by graphviz version 2.24.0 (20090616.2323)
 -->
<!-- Title: hfaf_process_pktflow Pages: 1 -->
<svg width="558pt" height="30pt"
 viewBox="0.00 0.00 558.00 30.00" xmlns="http://www.w3.org/2000/svg" xmlns:xlink="http://www.w3.org/1999/xlink">
<g id="graph1" class="graph" transform="scale(1 1) rotate(0) translate(4 26)">
<title>hfaf_process_pktflow</title>
<polygon fill="white" stroke="white" points="-4,5 -4,-26 555,-26 555,5 -4,5"/>
<!-- Node1 -->
<g id="node1" class="node"><title>Node1</title>
<polygon fill="#bfbfbf" stroke="black" points="0.5,-0.5 0.5,-21.5 119.5,-21.5 119.5,-0.5 0.5,-0.5"/>
<text text-anchor="middle" x="60" y="-8.5" font-family="FreeSans" font-size="10.00">hfaf_process_pktflow</text>
</g>
<!-- Node2 -->
<g id="node3" class="node"><title>Node2</title>
<a xlink:href="hfa-se-flow_8c.html#a2d83c733eacd7afc955c3af18edcb52a" target="_top" xlink:title="Polls for a submitted search instruction of a flow.">
<polygon fill="white" stroke="black" points="156.5,-0.5 156.5,-21.5 241.5,-21.5 241.5,-0.5 156.5,-0.5"/>
<text text-anchor="middle" x="199" y="-8.5" font-family="FreeSans" font-size="10.00">__processflow</text>
</a>
</g>
<!-- Node1&#45;&gt;Node2 -->
<g id="edge2" class="edge"><title>Node1&#45;&gt;Node2</title>
<path fill="none" stroke="midnightblue" d="M129.957,-11C139.018,-11 148.069,-11 156.493,-11"/>
<polygon fill="midnightblue" stroke="midnightblue" points="129.755,-7.5001 119.755,-11 129.755,-14.5001 129.755,-7.5001"/>
</g>
<!-- Node3 -->
<g id="node5" class="node"><title>Node3</title>
<a xlink:href="hfa-se-flow_8c.html#a786591694a8f8fb46cedbc8a580c88f6" target="_top" xlink:title="Submitting or Polling flows from the software recently used cache IF Cache is empty, it tries to refill it.">
<polygon fill="white" stroke="black" points="278.5,-0.5 278.5,-21.5 341.5,-21.5 341.5,-0.5 278.5,-0.5"/>
<text text-anchor="middle" x="310" y="-8.5" font-family="FreeSans" font-size="10.00">do_cache</text>
</a>
</g>
<!-- Node2&#45;&gt;Node3 -->
<g id="edge4" class="edge"><title>Node2&#45;&gt;Node3</title>
<path fill="none" stroke="midnightblue" d="M251.775,-11C260.871,-11 270.066,-11 278.378,-11"/>
<polygon fill="midnightblue" stroke="midnightblue" points="251.598,-7.5001 241.598,-11 251.598,-14.5001 251.598,-7.5001"/>
</g>
<!-- Node4 -->
<g id="node7" class="node"><title>Node4</title>
<a xlink:href="hfa-se-flow_8c.html#aba72a61590283e37ffd78b4defd38220" target="_top" xlink:title="Receive network packets and process.">
<polygon fill="white" stroke="black" points="378,-0.5 378,-21.5 474,-21.5 474,-0.5 378,-0.5"/>
<text text-anchor="middle" x="426" y="-8.5" font-family="FreeSans" font-size="10.00">process_packets</text>
</a>
</g>
<!-- Node3&#45;&gt;Node4 -->
<g id="edge6" class="edge"><title>Node3&#45;&gt;Node4</title>
<path fill="none" stroke="midnightblue" d="M351.711,-11C360.17,-11 369.131,-11 377.792,-11"/>
<polygon fill="midnightblue" stroke="midnightblue" points="351.698,-7.5001 341.698,-11 351.697,-14.5001 351.698,-7.5001"/>
</g>
<!-- Node5 -->
<g id="node9" class="node"><title>Node5</title>
<a xlink:href="hfa-se-flow-wqe_8c.html#a3c04138a5bfe5d72780bb7e82a18e627" target="_top" xlink:title="Implementation.">
<polygon fill="white" stroke="black" points="510,-0.5 510,-21.5 550,-21.5 550,-0.5 510,-0.5"/>
<text text-anchor="middle" x="530" y="-8.5" font-family="FreeSans" font-size="10.00">main</text>
</a>
</g>
<!-- Node4&#45;&gt;Node5 -->
<g id="edge8" class="edge"><title>Node4&#45;&gt;Node5</title>
<path fill="none" stroke="midnightblue" d="M484.146,-11C493.414,-11 502.419,-11 509.958,-11"/>
<polygon fill="midnightblue" stroke="midnightblue" points="484.043,-7.5001 474.042,-11 484.042,-14.5001 484.043,-7.5001"/>
</g>
</g>
</svg>
