<?xml version="1.0" encoding="UTF-8" standalone="no"?>
<!DOCTYPE svg PUBLIC "-//W3C//DTD SVG 1.1//EN"
 "http://www.w3.org/Graphics/SVG/1.1/DTD/svg11.dtd">
<!-- Generated by graphviz version 2.24.0 (20090616.2323)
 -->
<!-- Title: hfaf_flowdb_node_cleanup Pages: 1 -->
<svg width="850pt" height="242pt"
 viewBox="0.00 0.00 850.00 242.00" xmlns="http://www.w3.org/2000/svg" xmlns:xlink="http://www.w3.org/1999/xlink">
<g id="graph1" class="graph" transform="scale(1 1) rotate(0) translate(4 238)">
<title>hfaf_flowdb_node_cleanup</title>
<polygon fill="white" stroke="white" points="-4,5 -4,-238 847,-238 847,5 -4,5"/>
<!-- Node1 -->
<g id="node1" class="node"><title>Node1</title>
<polygon fill="#bfbfbf" stroke="black" points="0,-191.5 0,-212.5 146,-212.5 146,-191.5 0,-191.5"/>
<text text-anchor="middle" x="73" y="-199.5" font-family="FreeSans" font-size="10.00">hfaf_flowdb_node_cleanup</text>
</g>
<!-- Node2 -->
<g id="node3" class="node"><title>Node2</title>
<a xlink:href="cvm-hfa-osapi_8h.html#acacbbbac0cb1e827a08946bcdf13209b" target="_top" xlink:title="hfa_os_listdel">
<polygon fill="white" stroke="black" points="377.5,-212.5 377.5,-233.5 458.5,-233.5 458.5,-212.5 377.5,-212.5"/>
<text text-anchor="middle" x="418" y="-220.5" font-family="FreeSans" font-size="10.00">hfa_os_listdel</text>
</a>
</g>
<!-- Node1&#45;&gt;Node2 -->
<g id="edge2" class="edge"><title>Node1&#45;&gt;Node2</title>
<path fill="none" stroke="midnightblue" d="M146.166,-206.454C212.593,-210.497 308.832,-216.355 367.194,-219.907"/>
<polygon fill="midnightblue" stroke="midnightblue" points="367.088,-223.407 377.282,-220.522 367.513,-216.42 367.088,-223.407"/>
</g>
<!-- Node4 -->
<g id="node7" class="node"><title>Node4</title>
<a xlink:href="flow_8c.html#a696ee2b7ad7078c47242360be84d89bf" target="_top" xlink:title="Counterpart of __hfaf_create_flow.">
<polygon fill="white" stroke="black" points="182.5,-172.5 182.5,-193.5 295.5,-193.5 295.5,-172.5 182.5,-172.5"/>
<text text-anchor="middle" x="239" y="-180.5" font-family="FreeSans" font-size="10.00">__hfaf_destroy_flow</text>
</a>
</g>
<!-- Node1&#45;&gt;Node4 -->
<g id="edge6" class="edge"><title>Node1&#45;&gt;Node4</title>
<path fill="none" stroke="midnightblue" d="M146.293,-193.611C154.876,-192.629 163.599,-191.63 172.089,-190.658"/>
<polygon fill="midnightblue" stroke="midnightblue" points="172.767,-194.104 182.304,-189.489 171.971,-187.149 172.767,-194.104"/>
</g>
<!-- Node3 -->
<g id="node5" class="node"><title>Node3</title>
<a xlink:href="cvm-hfa-osapi_8h.html#a8f7a99f931e344eaaf9dd1fadd341a46" target="_top" xlink:title="__hfa_os_listdel">
<polygon fill="white" stroke="black" points="561.5,-212.5 561.5,-233.5 652.5,-233.5 652.5,-212.5 561.5,-212.5"/>
<text text-anchor="middle" x="607" y="-220.5" font-family="FreeSans" font-size="10.00">__hfa_os_listdel</text>
</a>
</g>
<!-- Node2&#45;&gt;Node3 -->
<g id="edge4" class="edge"><title>Node2&#45;&gt;Node3</title>
<path fill="none" stroke="midnightblue" d="M458.545,-223C485.518,-223 521.311,-223 550.993,-223"/>
<polygon fill="midnightblue" stroke="midnightblue" points="551.213,-226.5 561.213,-223 551.213,-219.5 551.213,-226.5"/>
</g>
<!-- Node4&#45;&gt;Node2 -->
<g id="edge8" class="edge"><title>Node4&#45;&gt;Node2</title>
<path fill="none" stroke="midnightblue" d="M286.03,-193.51C311.086,-199.109 341.923,-206 367.486,-211.712"/>
<polygon fill="midnightblue" stroke="midnightblue" points="366.839,-215.154 377.361,-213.919 368.365,-208.322 366.839,-215.154"/>
</g>
<!-- Node5 -->
<g id="node10" class="node"><title>Node5</title>
<a xlink:href="cvm-hfa-search_8c.html#a6a8e1d7e70e0a10520302df5651e5fc5" target="_top" xlink:title="This routine provides the status of an outstanding pattern search operation initiated using hfa_searc...">
<polygon fill="white" stroke="black" points="332,-172.5 332,-193.5 504,-193.5 504,-172.5 332,-172.5"/>
<text text-anchor="middle" x="418" y="-180.5" font-family="FreeSans" font-size="10.00">hfa_searchctx_get_searchstatus</text>
</a>
</g>
<!-- Node4&#45;&gt;Node5 -->
<g id="edge10" class="edge"><title>Node4&#45;&gt;Node5</title>
<path fill="none" stroke="midnightblue" d="M295.637,-183C304.046,-183 312.905,-183 321.852,-183"/>
<polygon fill="midnightblue" stroke="midnightblue" points="321.974,-186.5 331.973,-183 321.973,-179.5 321.974,-186.5"/>
</g>
<!-- Node9 -->
<g id="node18" class="node"><title>Node9</title>
<a xlink:href="cvm-hfa-search_8c.html#a30064f173d814bd3791b59d675c2f45f" target="_top" xlink:title="This routine cleans&#45;up a Search Context.">
<polygon fill="white" stroke="black" points="342,-92.5 342,-113.5 494,-113.5 494,-92.5 342,-92.5"/>
<text text-anchor="middle" x="418" y="-100.5" font-family="FreeSans" font-size="10.00">hfa_dev_searchctx_cleanup</text>
</a>
</g>
<!-- Node4&#45;&gt;Node9 -->
<g id="edge18" class="edge"><title>Node4&#45;&gt;Node9</title>
<path fill="none" stroke="midnightblue" d="M262.77,-172.377C294.151,-158.352 349.559,-133.588 384.99,-117.753"/>
<polygon fill="midnightblue" stroke="midnightblue" points="386.715,-120.816 394.417,-113.54 383.859,-114.425 386.715,-120.816"/>
</g>
<!-- Node6 -->
<g id="node12" class="node"><title>Node6</title>
<a xlink:href="cvm-hfa_8c.html#a4753d2dd586e19676b1a59dd16baaeed" target="_top" xlink:title="Obtain status of submitted insruction.">
<polygon fill="white" stroke="black" points="540.5,-172.5 540.5,-193.5 673.5,-193.5 673.5,-172.5 540.5,-172.5"/>
<text text-anchor="middle" x="607" y="-180.5" font-family="FreeSans" font-size="10.00">hfa_dev_getasyncstatus</text>
</a>
</g>
<!-- Node5&#45;&gt;Node6 -->
<g id="edge12" class="edge"><title>Node5&#45;&gt;Node6</title>
<path fill="none" stroke="midnightblue" d="M504.204,-183C512.951,-183 521.793,-183 530.428,-183"/>
<polygon fill="midnightblue" stroke="midnightblue" points="530.452,-186.5 540.452,-183 530.452,-179.5 530.452,-186.5"/>
</g>
<!-- Node7 -->
<g id="node14" class="node"><title>Node7</title>
<a xlink:href="cvm-hfa-instr_8h.html#a56f2522dcba965745a1bc239fc432dca" target="_top" xlink:title="Gets done from RWORD0.">
<polygon fill="white" stroke="black" points="714.5,-212.5 714.5,-233.5 837.5,-233.5 837.5,-212.5 714.5,-212.5"/>
<text text-anchor="middle" x="776" y="-220.5" font-family="FreeSans" font-size="10.00">cvm_hfa_rslt_getdone</text>
</a>
</g>
<!-- Node6&#45;&gt;Node7 -->
<g id="edge14" class="edge"><title>Node6&#45;&gt;Node7</title>
<path fill="none" stroke="midnightblue" d="M651.403,-193.51C672.956,-198.611 699.04,-204.785 721.76,-210.162"/>
<polygon fill="midnightblue" stroke="midnightblue" points="721.063,-213.594 731.601,-212.491 722.676,-206.782 721.063,-213.594"/>
</g>
<!-- Node8 -->
<g id="node16" class="node"><title>Node8</title>
<a xlink:href="cvm-hfa-instr_8h.html#a9700a50b68b6616506528eb725a8bda1" target="_top" xlink:title="Gets reason from RWORD0.">
<polygon fill="white" stroke="black" points="710.5,-172.5 710.5,-193.5 841.5,-193.5 841.5,-172.5 710.5,-172.5"/>
<text text-anchor="middle" x="776" y="-180.5" font-family="FreeSans" font-size="10.00">cvm_hfa_rslt_getreason</text>
</a>
</g>
<!-- Node6&#45;&gt;Node8 -->
<g id="edge16" class="edge"><title>Node6&#45;&gt;Node8</title>
<path fill="none" stroke="midnightblue" d="M673.793,-183C682.414,-183 691.292,-183 700.047,-183"/>
<polygon fill="midnightblue" stroke="midnightblue" points="700.244,-186.5 710.244,-183 700.244,-179.5 700.244,-186.5"/>
</g>
<!-- Node10 -->
<g id="node20" class="node"><title>Node10</title>
<a xlink:href="cvm-hfa-pp_8c.html#add6064138ec2e35741929056a0992d8d" target="_top" xlink:title="ppgetstats">
<polygon fill="white" stroke="black" points="574,-132.5 574,-153.5 640,-153.5 640,-132.5 574,-132.5"/>
<text text-anchor="middle" x="607" y="-140.5" font-family="FreeSans" font-size="10.00">ppgetstats</text>
</a>
</g>
<!-- Node9&#45;&gt;Node10 -->
<g id="edge20" class="edge"><title>Node9&#45;&gt;Node10</title>
<path fill="none" stroke="midnightblue" d="M467.658,-113.51C497.464,-119.818 535.019,-127.766 563.629,-133.821"/>
<polygon fill="midnightblue" stroke="midnightblue" points="563.226,-137.313 573.734,-135.96 564.675,-130.465 563.226,-137.313"/>
</g>
<!-- Node12 -->
<g id="node24" class="node"><title>Node12</title>
<a xlink:href="cvm-hfa-pp_8c.html#a57ec655c9bdb6ce63ada6767c7e14763" target="_top" xlink:title="ppcleanstats">
<polygon fill="white" stroke="black" points="568.5,-92.5 568.5,-113.5 645.5,-113.5 645.5,-92.5 568.5,-92.5"/>
<text text-anchor="middle" x="607" y="-100.5" font-family="FreeSans" font-size="10.00">ppcleanstats</text>
</a>
</g>
<!-- Node9&#45;&gt;Node12 -->
<g id="edge24" class="edge"><title>Node9&#45;&gt;Node12</title>
<path fill="none" stroke="midnightblue" d="M494.057,-103C515.707,-103 538.7,-103 558.251,-103"/>
<polygon fill="midnightblue" stroke="midnightblue" points="558.43,-106.5 568.43,-103 558.43,-99.5001 558.43,-106.5"/>
</g>
<!-- Node14 -->
<g id="node28" class="node"><title>Node14</title>
<a xlink:href="cvm-hfa-pp_8c.html#a41ce9d3103c639e474783d3843e09071" target="_top" xlink:title="ppcleanup">
<polygon fill="white" stroke="black" points="574,-52.5 574,-73.5 640,-73.5 640,-52.5 574,-52.5"/>
<text text-anchor="middle" x="607" y="-60.5" font-family="FreeSans" font-size="10.00">ppcleanup</text>
</a>
</g>
<!-- Node9&#45;&gt;Node14 -->
<g id="edge28" class="edge"><title>Node9&#45;&gt;Node14</title>
<path fill="none" stroke="midnightblue" d="M467.658,-92.4905C497.464,-86.1822 535.019,-78.234 563.629,-72.179"/>
<polygon fill="midnightblue" stroke="midnightblue" points="564.675,-75.5352 573.734,-70.0405 563.226,-68.6869 564.675,-75.5352"/>
</g>
<!-- Node16 -->
<g id="node32" class="node"><title>Node16</title>
<a xlink:href="cvm-hfa-stats_8c.html#a2df4c76e04e7b028ed2df4bba1b2de3d" target="_top" xlink:title="This routine is the counterpart of hfa_searchctx_init_stats().">
<polygon fill="white" stroke="black" points="550.5,-0 550.5,-34 663.5,-34 663.5,-0 550.5,-0"/>
<text text-anchor="start" x="558.5" y="-21" font-family="FreeSans" font-size="10.00">hfa_searchctx_stats</text>
<text text-anchor="middle" x="607" y="-8" font-family="FreeSans" font-size="10.00">_cleanup</text>
</a>
</g>
<!-- Node9&#45;&gt;Node16 -->
<g id="edge32" class="edge"><title>Node9&#45;&gt;Node16</title>
<path fill="none" stroke="midnightblue" d="M438.038,-92.4762C462.005,-80.0457 503.474,-59.0328 540,-43 543.856,-41.3075 547.86,-39.6093 551.905,-37.9365"/>
<polygon fill="midnightblue" stroke="midnightblue" points="553.422,-41.0982 561.371,-34.0935 550.789,-34.6123 553.422,-41.0982"/>
</g>
<!-- Node11 -->
<g id="node22" class="node"><title>Node11</title>
<a xlink:href="pp_8h.html#a808d5057ee5670ce724a6a88fc22b799" target="_top" xlink:title="pphfa_getstats">
<polygon fill="white" stroke="black" points="732.5,-132.5 732.5,-153.5 819.5,-153.5 819.5,-132.5 732.5,-132.5"/>
<text text-anchor="middle" x="776" y="-140.5" font-family="FreeSans" font-size="10.00">pphfa_getstats</text>
</a>
</g>
<!-- Node10&#45;&gt;Node11 -->
<g id="edge22" class="edge"><title>Node10&#45;&gt;Node11</title>
<path fill="none" stroke="midnightblue" d="M640.389,-143C663.761,-143 695.488,-143 722.378,-143"/>
<polygon fill="midnightblue" stroke="midnightblue" points="722.42,-146.5 732.42,-143 722.42,-139.5 722.42,-146.5"/>
</g>
<!-- Node13 -->
<g id="node26" class="node"><title>Node13</title>
<a xlink:href="pp_8h.html#a978b171bd7a736cb7fa0d5d034aa94e2" target="_top" xlink:title="pphfa_cleanstats">
<polygon fill="white" stroke="black" points="727,-92.5 727,-113.5 825,-113.5 825,-92.5 727,-92.5"/>
<text text-anchor="middle" x="776" y="-100.5" font-family="FreeSans" font-size="10.00">pphfa_cleanstats</text>
</a>
</g>
<!-- Node12&#45;&gt;Node13 -->
<g id="edge26" class="edge"><title>Node12&#45;&gt;Node13</title>
<path fill="none" stroke="midnightblue" d="M645.772,-103C666.739,-103 693.082,-103 716.58,-103"/>
<polygon fill="midnightblue" stroke="midnightblue" points="716.798,-106.5 726.798,-103 716.798,-99.5001 716.798,-106.5"/>
</g>
<!-- Node15 -->
<g id="node30" class="node"><title>Node15</title>
<a xlink:href="pp_8h.html#a428ad073d1fd72da37ab8b00f13693a3" target="_top" xlink:title="pphfa_cleanup">
<polygon fill="white" stroke="black" points="732.5,-52.5 732.5,-73.5 819.5,-73.5 819.5,-52.5 732.5,-52.5"/>
<text text-anchor="middle" x="776" y="-60.5" font-family="FreeSans" font-size="10.00">pphfa_cleanup</text>
</a>
</g>
<!-- Node14&#45;&gt;Node15 -->
<g id="edge30" class="edge"><title>Node14&#45;&gt;Node15</title>
<path fill="none" stroke="midnightblue" d="M640.389,-63C663.761,-63 695.488,-63 722.378,-63"/>
<polygon fill="midnightblue" stroke="midnightblue" points="722.42,-66.5001 732.42,-63 722.42,-59.5001 722.42,-66.5001"/>
</g>
<!-- Node17 -->
<g id="node34" class="node"><title>Node17</title>
<a xlink:href="cvm-hfa-stats_8c.html#a7a2acbe48c3850d43256938ee996aa16" target="_top" xlink:title="This routine frees memory to STATS ARENA.">
<polygon fill="white" stroke="black" points="713.5,-6.5 713.5,-27.5 838.5,-27.5 838.5,-6.5 713.5,-6.5"/>
<text text-anchor="middle" x="776" y="-14.5" font-family="FreeSans" font-size="10.00">hfa_stats_memoryfree</text>
</a>
</g>
<!-- Node16&#45;&gt;Node17 -->
<g id="edge34" class="edge"><title>Node16&#45;&gt;Node17</title>
<path fill="none" stroke="midnightblue" d="M663.745,-17C676.429,-17 690.053,-17 703.283,-17"/>
<polygon fill="midnightblue" stroke="midnightblue" points="703.301,-20.5001 713.301,-17 703.301,-13.5001 703.301,-20.5001"/>
</g>
</g>
</svg>
