<?xml version="1.0" encoding="UTF-8" standalone="no"?>
<!DOCTYPE svg PUBLIC "-//W3C//DTD SVG 1.1//EN"
 "http://www.w3.org/Graphics/SVG/1.1/DTD/svg11.dtd">
<!-- Generated by graphviz version 2.24.0 (20090616.2323)
 -->
<!-- Title: __hfaf_destroy_flow Pages: 1 -->
<!--zoomable 110 -->
<svg id="main" version="1.1" xmlns="http://www.w3.org/2000/svg" xmlns:xlink="http://www.w3.org/1999/xlink" xml:space="preserve" onload="init(evt)">
        <defs>
                <circle id="rim" cx="0" cy="0" r="7"/>
                <circle id="rim2" cx="0" cy="0" r="3.5"/>
                <g id="zoomPlus">
                        <use xlink:href="#rim" fill="#404040">
                                <set attributeName="fill" to="#808080" begin="zoomplus.mouseover" end="zoomplus.mouseout"/>
                        </use>
                        <path d="M-4,0h8M0,-4v8" fill="none" stroke="white" stroke-width="1.5" pointer-events="none"/>
                </g>
                <g id="zoomMin">
                        <use xlink:href="#rim" fill="#404040">
                                <set attributeName="fill" to="#808080" begin="zoomminus.mouseover" end="zoomminus.mouseout"/>
                        </use>
                        <path d="M-4,0h8" fill="none" stroke="white" stroke-width="1.5" pointer-events="none"/>
                </g>
                <g id="dirArrow">
                        <path fill="none" stroke="white" stroke-width="1.5" d="M0,-3.0v7 M-2.5,-0.5L0,-3.0L2.5,-0.5"/>
                </g>
               <g id="resetDef">
                       <use xlink:href="#rim2" fill="#404040">
                               <set attributeName="fill" to="#808080" begin="reset.mouseover" end="reset.mouseout"/>
                       </use>
               </g>
        </defs>

<script type="text/javascript">
var viewWidth = 534;
var viewHeight = 110;
var sectionId = 'dynsection-3';
</script>
<script xlink:href="svgpan.js"/>
<svg id="graph" class="graph">
<g id="viewport">
<title>__hfaf_destroy_flow</title>
<polygon fill="white" stroke="white" points="-4,5 -4,-106 531,-106 531,5 -4,5"/>
<!-- Node1 -->
<g id="node1" class="node"><title>Node1</title>
<polygon fill="#bfbfbf" stroke="black" points="0.5,-40.5 0.5,-61.5 113.5,-61.5 113.5,-40.5 0.5,-40.5"/>
<text text-anchor="middle" x="57" y="-48.5" font-family="FreeSans" font-size="10.00">__hfaf_destroy_flow</text>
</g>
<!-- Node2 -->
<g id="node3" class="node"><title>Node2</title>
<a xlink:href="flow_8c.html#a93974ea83df979435eb77f3c5d4ab848" target="_top" xlink:title="Cleanup Flowdb Node (Per Index)">
<polygon fill="white" stroke="black" points="150,-80.5 150,-101.5 296,-101.5 296,-80.5 150,-80.5"/>
<text text-anchor="middle" x="223" y="-88.5" font-family="FreeSans" font-size="10.00">hfaf_flowdb_node_cleanup</text>
</a>
</g>
<!-- Node1&#45;&gt;Node2 -->
<g id="edge2" class="edge"><title>Node1&#45;&gt;Node2</title>
<path fill="none" stroke="midnightblue" d="M110.581,-63.911C132.828,-69.2718 158.314,-75.413 179.389,-80.4913"/>
<polygon fill="midnightblue" stroke="midnightblue" points="111.156,-60.4496 100.615,-61.5095 109.516,-67.2548 111.156,-60.4496"/>
</g>
<!-- Node5 -->
<g id="node9" class="node"><title>Node5</title>
<a xlink:href="flow_8h.html#abdb62c6f71f5ca9ecddc66c90166d37b" target="_top" xlink:title="Create Packet Flow in Flowdb.">
<polygon fill="white" stroke="black" points="167.5,-40.5 167.5,-61.5 278.5,-61.5 278.5,-40.5 167.5,-40.5"/>
<text text-anchor="middle" x="223" y="-48.5" font-family="FreeSans" font-size="10.00">hfaf_create_pktflow</text>
</a>
</g>
<!-- Node1&#45;&gt;Node5 -->
<g id="edge8" class="edge"><title>Node1&#45;&gt;Node5</title>
<path fill="none" stroke="midnightblue" d="M124.015,-51C138.43,-51 153.512,-51 167.435,-51"/>
<polygon fill="midnightblue" stroke="midnightblue" points="123.664,-47.5001 113.663,-51 123.663,-54.5001 123.664,-47.5001"/>
</g>
<!-- Node7 -->
<g id="node13" class="node"><title>Node7</title>
<a xlink:href="flow_8h.html#a8d99fe33dc3203530d360196cc7decb4" target="_top" xlink:title="Counterpart of hfaf_create_pktflow().">
<polygon fill="white" stroke="black" points="165,-0.5 165,-21.5 281,-21.5 281,-0.5 165,-0.5"/>
<text text-anchor="middle" x="223" y="-8.5" font-family="FreeSans" font-size="10.00">hfaf_destroy_pktflow</text>
</a>
</g>
<!-- Node1&#45;&gt;Node7 -->
<g id="edge12" class="edge"><title>Node1&#45;&gt;Node7</title>
<path fill="none" stroke="midnightblue" d="M110.581,-38.089C132.828,-32.7282 158.314,-26.587 179.389,-21.5087"/>
<polygon fill="midnightblue" stroke="midnightblue" points="109.516,-34.7452 100.615,-40.4905 111.156,-41.5504 109.516,-34.7452"/>
</g>
<!-- Node3 -->
<g id="node5" class="node"><title>Node3</title>
<a xlink:href="flow_8h.html#a2a51025bf645e4e1eec8cac2b4f8a8c0" target="_top" xlink:title="Cleanups Flow database which was created in hfaf_flowdb_init()">
<polygon fill="white" stroke="black" points="332.5,-80.5 332.5,-101.5 449.5,-101.5 449.5,-80.5 332.5,-80.5"/>
<text text-anchor="middle" x="391" y="-88.5" font-family="FreeSans" font-size="10.00">hfaf_flowdb_cleanup</text>
</a>
</g>
<!-- Node2&#45;&gt;Node3 -->
<g id="edge4" class="edge"><title>Node2&#45;&gt;Node3</title>
<path fill="none" stroke="midnightblue" d="M306.469,-91C315.241,-91 324.02,-91 332.424,-91"/>
<polygon fill="midnightblue" stroke="midnightblue" points="306.199,-87.5001 296.199,-91 306.198,-94.5001 306.199,-87.5001"/>
</g>
<!-- Node4 -->
<g id="node7" class="node"><title>Node4</title>
<a xlink:href="hfa-se-flow-wqe_8c.html#a3c04138a5bfe5d72780bb7e82a18e627" target="_top" xlink:title="Implementation.">
<polygon fill="white" stroke="black" points="486,-80.5 486,-101.5 526,-101.5 526,-80.5 486,-80.5"/>
<text text-anchor="middle" x="506" y="-88.5" font-family="FreeSans" font-size="10.00">main</text>
</a>
</g>
<!-- Node3&#45;&gt;Node4 -->
<g id="edge6" class="edge"><title>Node3&#45;&gt;Node4</title>
<path fill="none" stroke="midnightblue" d="M459.578,-91C469.136,-91 478.27,-91 485.868,-91"/>
<polygon fill="midnightblue" stroke="midnightblue" points="459.511,-87.5001 449.511,-91 459.511,-94.5001 459.511,-87.5001"/>
</g>
<!-- Node6 -->
<g id="node11" class="node"><title>Node6</title>
<a xlink:href="hfa-se-flow-wqe_8c.html#a6d3e23d8f7a3aaf1b0d6e350b7631a0e" target="_top" xlink:title="Get flow pointer from Flow database, If flow ptr is NULL then create at runtime.">
<polygon fill="white" stroke="black" points="356.5,-40.5 356.5,-61.5 425.5,-61.5 425.5,-40.5 356.5,-40.5"/>
<text text-anchor="middle" x="391" y="-48.5" font-family="FreeSans" font-size="10.00">get_flowptr</text>
</a>
</g>
<!-- Node5&#45;&gt;Node6 -->
<g id="edge10" class="edge"><title>Node5&#45;&gt;Node6</title>
<path fill="none" stroke="midnightblue" d="M289.006,-51C312.009,-51 336.902,-51 356.337,-51"/>
<polygon fill="midnightblue" stroke="midnightblue" points="288.942,-47.5001 278.942,-51 288.942,-54.5001 288.942,-47.5001"/>
</g>
</g>
</svg>
        <g id="navigator" transform="translate(0 0)" fill="#404254">
                <rect fill="#f2f5e9" fill-opacity="0.5" stroke="#606060" stroke-width=".5" x="0" y="0" width="60" height="60"/>
                <use id="zoomplus" xlink:href="#zoomPlus" x="17" y="9" onmousedown="handleZoom(evt,'in')"/>
                <use id="zoomminus" xlink:href="#zoomMin" x="42" y="9" onmousedown="handleZoom(evt,'out')"/>
                <use id="reset" xlink:href="#resetDef" x="30" y="36" onmousedown="handleReset()"/>
                <g id="arrowUp" xlink:href="#dirArrow" transform="translate(30 24)" onmousedown="handlePan(0,-1)">
                  <use xlink:href="#rim" fill="#404040">
                        <set attributeName="fill" to="#808080" begin="arrowUp.mouseover" end="arrowUp.mouseout"/>
                  </use>
                  <path fill="none" stroke="white" stroke-width="1.5" d="M0,-3.0v7 M-2.5,-0.5L0,-3.0L2.5,-0.5"/>
                </g>
                <g id="arrowRight" xlink:href="#dirArrow" transform="rotate(90) translate(36 -43)" onmousedown="handlePan(1,0)">
                  <use xlink:href="#rim" fill="#404040">
                        <set attributeName="fill" to="#808080" begin="arrowRight.mouseover" end="arrowRight.mouseout"/>
                  </use>
                  <path fill="none" stroke="white" stroke-width="1.5" d="M0,-3.0v7 M-2.5,-0.5L0,-3.0L2.5,-0.5"/>
                </g>
                <g id="arrowDown" xlink:href="#dirArrow" transform="rotate(180) translate(-30 -48)" onmousedown="handlePan(0,1)">
                  <use xlink:href="#rim" fill="#404040">
                        <set attributeName="fill" to="#808080" begin="arrowDown.mouseover" end="arrowDown.mouseout"/>
                  </use>
                  <path fill="none" stroke="white" stroke-width="1.5" d="M0,-3.0v7 M-2.5,-0.5L0,-3.0L2.5,-0.5"/>
                </g>
                <g id="arrowLeft" xlink:href="#dirArrow" transform="rotate(270) translate(-36 17)" onmousedown="handlePan(-1,0)">
                  <use xlink:href="#rim" fill="#404040">
                        <set attributeName="fill" to="#808080" begin="arrowLeft.mouseover" end="arrowLeft.mouseout"/>
                  </use>
                  <path fill="none" stroke="white" stroke-width="1.5" d="M0,-3.0v7 M-2.5,-0.5L0,-3.0L2.5,-0.5"/>
                </g>
        </g>
        <svg viewBox="0 0 15 15" width="100%" height="30px" preserveAspectRatio="xMaxYMin meet">
         <g id="arrow_out" transform="scale(0.3 0.3)">
          <a xlink:href="flow_8c_a696ee2b7ad7078c47242360be84d89bf_icgraph_org.svg" target="_base">
           <rect id="button" ry="5" rx="5" y="6" x="6" height="38" width="38"
                fill="#f2f5e9" fill-opacity="0.5" stroke="#606060" stroke-width="1.0"/>
           <path id="arrow"
             d="M 11.500037,31.436501 C 11.940474,20.09759 22.043105,11.32322 32.158766,21.979434 L 37.068811,17.246167 C 37.068811,17.246167 37.088388,32 37.088388,32 L 22.160133,31.978069 C 22.160133,31.978069 26.997745,27.140456 26.997745,27.140456 C 18.528582,18.264221 13.291696,25.230495 11.500037,31.436501 z"
             style="fill:#404040;"/>
          </a>
         </g>
        </svg>
</svg>
