<?xml version="1.0" encoding="UTF-8" standalone="no"?>
<!DOCTYPE svg PUBLIC "-//W3C//DTD SVG 1.1//EN"
 "http://www.w3.org/Graphics/SVG/1.1/DTD/svg11.dtd">
<!-- Generated by graphviz version 2.24.0 (20090616.2323)
 -->
<!-- Title: hfaf_submit_pktflow Pages: 1 -->
<svg width="570pt" height="82pt"
 viewBox="0.00 0.00 570.00 82.00" xmlns="http://www.w3.org/2000/svg" xmlns:xlink="http://www.w3.org/1999/xlink">
<g id="graph1" class="graph" transform="scale(1 1) rotate(0) translate(4 78)">
<title>hfaf_submit_pktflow</title>
<polygon fill="white" stroke="white" points="-4,5 -4,-78 567,-78 567,5 -4,5"/>
<!-- Node1 -->
<g id="node1" class="node"><title>Node1</title>
<polygon fill="#bfbfbf" stroke="black" points="0.5,-23.5 0.5,-44.5 113.5,-44.5 113.5,-23.5 0.5,-23.5"/>
<text text-anchor="middle" x="57" y="-31.5" font-family="FreeSans" font-size="10.00">hfaf_submit_pktflow</text>
</g>
<!-- Node2 -->
<g id="node3" class="node"><title>Node2</title>
<a xlink:href="flow_8c.html#a5034d9a3ed0a1dac918c6a8d84fae8c6" target="_top" xlink:title="Low level API to submit search parameter to flow.">
<polygon fill="white" stroke="black" points="150.5,-23.5 150.5,-44.5 273.5,-44.5 273.5,-23.5 150.5,-23.5"/>
<text text-anchor="middle" x="212" y="-31.5" font-family="FreeSans" font-size="10.00">__hfaf_submit_pktflow</text>
</a>
</g>
<!-- Node1&#45;&gt;Node2 -->
<g id="edge2" class="edge"><title>Node1&#45;&gt;Node2</title>
<path fill="none" stroke="midnightblue" d="M113.836,-34C122.499,-34 131.534,-34 140.462,-34"/>
<polygon fill="midnightblue" stroke="midnightblue" points="140.472,-37.5001 150.472,-34 140.472,-30.5001 140.472,-37.5001"/>
</g>
<!-- Node3 -->
<g id="node5" class="node"><title>Node3</title>
<a xlink:href="cvm-hfa-search_8c.html#a0c36da280b39bd8afdf6081baea24472" target="_top" xlink:title="This routine performs a pattern search using the given parameters in a non&#45;blocking manner...">
<polygon fill="white" stroke="black" points="310.5,-40 310.5,-74 433.5,-74 433.5,-40 310.5,-40"/>
<text text-anchor="start" x="318.5" y="-61" font-family="FreeSans" font-size="10.00">hfa_searchctx_search</text>
<text text-anchor="middle" x="372" y="-48" font-family="FreeSans" font-size="10.00">_async</text>
</a>
</g>
<!-- Node2&#45;&gt;Node3 -->
<g id="edge4" class="edge"><title>Node2&#45;&gt;Node3</title>
<path fill="none" stroke="midnightblue" d="M273.86,-42.8924C282.549,-44.1415 291.54,-45.4339 300.392,-46.7064"/>
<polygon fill="midnightblue" stroke="midnightblue" points="299.908,-50.1727 310.304,-48.1312 300.904,-43.2439 299.908,-50.1727"/>
</g>
<!-- Node4 -->
<g id="node7" class="node"><title>Node4</title>
<a xlink:href="cvm-hfa-osapi_8h.html#acacbbbac0cb1e827a08946bcdf13209b" target="_top" xlink:title="hfa_os_listdel">
<polygon fill="white" stroke="black" points="331.5,-0.5 331.5,-21.5 412.5,-21.5 412.5,-0.5 331.5,-0.5"/>
<text text-anchor="middle" x="372" y="-8.5" font-family="FreeSans" font-size="10.00">hfa_os_listdel</text>
</a>
</g>
<!-- Node2&#45;&gt;Node4 -->
<g id="edge6" class="edge"><title>Node2&#45;&gt;Node4</title>
<path fill="none" stroke="midnightblue" d="M273.86,-25.1076C289.436,-22.8686 305.98,-20.4903 320.959,-18.3371"/>
<polygon fill="midnightblue" stroke="midnightblue" points="321.647,-21.7743 331.048,-16.8869 320.651,-14.8455 321.647,-21.7743"/>
</g>
<!-- Node5 -->
<g id="node9" class="node"><title>Node5</title>
<a xlink:href="cvm-hfa-osapi_8h.html#a8f7a99f931e344eaaf9dd1fadd341a46" target="_top" xlink:title="__hfa_os_listdel">
<polygon fill="white" stroke="black" points="470.5,-0.5 470.5,-21.5 561.5,-21.5 561.5,-0.5 470.5,-0.5"/>
<text text-anchor="middle" x="516" y="-8.5" font-family="FreeSans" font-size="10.00">__hfa_os_listdel</text>
</a>
</g>
<!-- Node4&#45;&gt;Node5 -->
<g id="edge8" class="edge"><title>Node4&#45;&gt;Node5</title>
<path fill="none" stroke="midnightblue" d="M412.879,-11C427.613,-11 444.498,-11 460.283,-11"/>
<polygon fill="midnightblue" stroke="midnightblue" points="460.462,-14.5001 470.462,-11 460.462,-7.5001 460.462,-14.5001"/>
</g>
</g>
</svg>
