<?xml version="1.0" encoding="UTF-8" standalone="no"?>
<!DOCTYPE svg PUBLIC "-//W3C//DTD SVG 1.1//EN"
 "http://www.w3.org/Graphics/SVG/1.1/DTD/svg11.dtd">
<!-- Generated by graphviz version 2.24.0 (20090616.2323)
 -->
<!-- Title: hfaf_create_pktflow Pages: 1 -->
<!--zoomable 438 -->
<svg id="main" version="1.1" xmlns="http://www.w3.org/2000/svg" xmlns:xlink="http://www.w3.org/1999/xlink" xml:space="preserve" onload="init(evt)">
        <defs>
                <circle id="rim" cx="0" cy="0" r="7"/>
                <circle id="rim2" cx="0" cy="0" r="3.5"/>
                <g id="zoomPlus">
                        <use xlink:href="#rim" fill="#404040">
                                <set attributeName="fill" to="#808080" begin="zoomplus.mouseover" end="zoomplus.mouseout"/>
                        </use>
                        <path d="M-4,0h8M0,-4v8" fill="none" stroke="white" stroke-width="1.5" pointer-events="none"/>
                </g>
                <g id="zoomMin">
                        <use xlink:href="#rim" fill="#404040">
                                <set attributeName="fill" to="#808080" begin="zoomminus.mouseover" end="zoomminus.mouseout"/>
                        </use>
                        <path d="M-4,0h8" fill="none" stroke="white" stroke-width="1.5" pointer-events="none"/>
                </g>
                <g id="dirArrow">
                        <path fill="none" stroke="white" stroke-width="1.5" d="M0,-3.0v7 M-2.5,-0.5L0,-3.0L2.5,-0.5"/>
                </g>
               <g id="resetDef">
                       <use xlink:href="#rim2" fill="#404040">
                               <set attributeName="fill" to="#808080" begin="reset.mouseover" end="reset.mouseout"/>
                       </use>
               </g>
        </defs>

<script type="text/javascript">
var viewWidth = 996;
var viewHeight = 438;
var sectionId = 'dynsection-10';
</script>
<script xlink:href="svgpan.js"/>
<svg id="graph" class="graph">
<g id="viewport">
<title>hfaf_create_pktflow</title>
<polygon fill="white" stroke="white" points="-4,5 -4,-434 993,-434 993,5 -4,5"/>
<!-- Node1 -->
<g id="node1" class="node"><title>Node1</title>
<polygon fill="#bfbfbf" stroke="black" points="0.5,-168.5 0.5,-189.5 111.5,-189.5 111.5,-168.5 0.5,-168.5"/>
<text text-anchor="middle" x="56" y="-176.5" font-family="FreeSans" font-size="10.00">hfaf_create_pktflow</text>
</g>
<!-- Node2 -->
<g id="node3" class="node"><title>Node2</title>
<a xlink:href="flow_8h.html#afe2603c8b1fe38bb2528f405a3e8c137" target="_top" xlink:title="Calculate Array index to which received flowid should be present or added.">
<polygon fill="white" stroke="black" points="157,-257.5 157,-278.5 253,-278.5 253,-257.5 157,-257.5"/>
<text text-anchor="middle" x="205" y="-265.5" font-family="FreeSans" font-size="10.00">hfaf_get_flowidx</text>
</a>
</g>
<!-- Node1&#45;&gt;Node2 -->
<g id="edge2" class="edge"><title>Node1&#45;&gt;Node2</title>
<path fill="none" stroke="midnightblue" d="M67.6871,-189.651C84.4187,-204.44 116.651,-231.26 148,-248 151.904,-250.085 156.07,-252.026 160.306,-253.814"/>
<polygon fill="midnightblue" stroke="midnightblue" points="159.027,-257.072 169.614,-257.48 161.592,-250.559 159.027,-257.072"/>
</g>
<!-- Node3 -->
<g id="node5" class="node"><title>Node3</title>
<a xlink:href="flow_8c.html#a28378e8a6f53ff0e87f2e688d1c21834" target="_top" xlink:title="Low level API to create a flow Allocate Flow, Intialize searchctx, set graph and setflags,.">
<polygon fill="white" stroke="black" points="151.5,-217.5 151.5,-238.5 258.5,-238.5 258.5,-217.5 151.5,-217.5"/>
<text text-anchor="middle" x="205" y="-225.5" font-family="FreeSans" font-size="10.00">__hfaf_create_flow</text>
</a>
</g>
<!-- Node1&#45;&gt;Node3 -->
<g id="edge4" class="edge"><title>Node1&#45;&gt;Node3</title>
<path fill="none" stroke="midnightblue" d="M87.9642,-189.512C109.985,-196.753 139.461,-206.447 163.323,-214.294"/>
<polygon fill="midnightblue" stroke="midnightblue" points="162.239,-217.622 172.832,-217.421 164.426,-210.972 162.239,-217.622"/>
</g>
<!-- Node25 -->
<g id="node53" class="node"><title>Node25</title>
<a xlink:href="cvm-hfa-osapi_8h.html#ac5c56c7b06dac27ce7a8225802f3828f" target="_top" xlink:title="hfa_os_listaddtail">
<polygon fill="white" stroke="black" points="156,-59.5 156,-80.5 254,-80.5 254,-59.5 156,-59.5"/>
<text text-anchor="middle" x="205" y="-67.5" font-family="FreeSans" font-size="10.00">hfa_os_listaddtail</text>
</a>
</g>
<!-- Node1&#45;&gt;Node25 -->
<g id="edge56" class="edge"><title>Node1&#45;&gt;Node25</title>
<path fill="none" stroke="midnightblue" d="M69.9256,-168.341C87.8578,-154.664 120.044,-130.285 148,-110 158.747,-102.202 170.763,-93.7331 180.983,-86.6037"/>
<polygon fill="midnightblue" stroke="midnightblue" points="183.211,-89.3169 189.423,-80.734 179.215,-83.5699 183.211,-89.3169"/>
</g>
<!-- Node27 -->
<g id="node57" class="node"><title>Node27</title>
<a xlink:href="flow_8c.html#a696ee2b7ad7078c47242360be84d89bf" target="_top" xlink:title="Counterpart of __hfaf_create_flow.">
<polygon fill="white" stroke="black" points="148.5,-119.5 148.5,-140.5 261.5,-140.5 261.5,-119.5 148.5,-119.5"/>
<text text-anchor="middle" x="205" y="-127.5" font-family="FreeSans" font-size="10.00">__hfaf_destroy_flow</text>
</a>
</g>
<!-- Node1&#45;&gt;Node27 -->
<g id="edge60" class="edge"><title>Node1&#45;&gt;Node27</title>
<path fill="none" stroke="midnightblue" d="M87.9642,-168.488C109.985,-161.247 139.461,-151.553 163.323,-143.706"/>
<polygon fill="midnightblue" stroke="midnightblue" points="164.426,-147.028 172.832,-140.579 162.239,-140.378 164.426,-147.028"/>
</g>
<!-- Node4 -->
<g id="node7" class="node"><title>Node4</title>
<a xlink:href="hfa-se-xml-parser_8c.html#a7a1a023f618d2721b68175551e1c6fe0" target="_top" xlink:title="matchcb">
<polygon fill="white" stroke="black" points="354.5,-198.5 354.5,-219.5 413.5,-219.5 413.5,-198.5 354.5,-198.5"/>
<text text-anchor="middle" x="384" y="-206.5" font-family="FreeSans" font-size="10.00">matchcb</text>
</a>
</g>
<!-- Node3&#45;&gt;Node4 -->
<g id="edge6" class="edge"><title>Node3&#45;&gt;Node4</title>
<path fill="none" stroke="midnightblue" d="M258.706,-222.299C286.098,-219.392 318.847,-215.916 343.993,-213.247"/>
<polygon fill="midnightblue" stroke="midnightblue" points="344.691,-216.692 354.266,-212.156 343.952,-209.731 344.691,-216.692"/>
</g>
<!-- Node5 -->
<g id="node9" class="node"><title>Node5</title>
<a xlink:href="cvm-hfa-search_8c.html#a64ba7a41c7d677da10e588a58789015b" target="_top" xlink:title="This routine initializes a Search Context.">
<polygon fill="white" stroke="black" points="320.5,-323.5 320.5,-344.5 447.5,-344.5 447.5,-323.5 320.5,-323.5"/>
<text text-anchor="middle" x="384" y="-331.5" font-family="FreeSans" font-size="10.00">hfa_dev_searchctx_init</text>
</a>
</g>
<!-- Node3&#45;&gt;Node5 -->
<g id="edge8" class="edge"><title>Node3&#45;&gt;Node5</title>
<path fill="none" stroke="midnightblue" d="M246.062,-238.52C251.759,-241.056 257.271,-244.174 262,-248 285.882,-267.32 273.8,-288.08 298,-307 304.646,-312.196 312.306,-316.401 320.259,-319.802"/>
<polygon fill="midnightblue" stroke="midnightblue" points="319.096,-323.104 329.686,-323.436 321.614,-316.573 319.096,-323.104"/>
</g>
<!-- Node9 -->
<g id="node17" class="node"><title>Node9</title>
<a xlink:href="cvm-hfa-search_8c.html#a954753c0e6f4a59599d05f1262a25b38" target="_top" xlink:title="This routine associates a graph with sctx.">
<polygon fill="white" stroke="black" points="318,-369.5 318,-390.5 450,-390.5 450,-369.5 318,-369.5"/>
<text text-anchor="middle" x="384" y="-377.5" font-family="FreeSans" font-size="10.00">hfa_searchctx_setgraph</text>
</a>
</g>
<!-- Node3&#45;&gt;Node9 -->
<g id="edge16" class="edge"><title>Node3&#45;&gt;Node9</title>
<path fill="none" stroke="midnightblue" d="M248.876,-238.623C253.711,-241.119 258.237,-244.199 262,-248 297.004,-283.358 262.229,-319.418 298,-354 302.563,-358.411 307.848,-362.077 313.51,-365.123"/>
<polygon fill="midnightblue" stroke="midnightblue" points="312.128,-368.34 322.668,-369.417 315.1,-362.003 312.128,-368.34"/>
</g>
<!-- Node13 -->
<g id="node26" class="node"><title>Node13</title>
<a xlink:href="hfa-se-wqe_8c.html#ab846ebf81c4fbc23cfe854940c82d8e8" target="_top" xlink:title="Cleanup memory allocated for context.">
<polygon fill="white" stroke="black" points="346.5,-276.5 346.5,-297.5 421.5,-297.5 421.5,-276.5 346.5,-276.5"/>
<text text-anchor="middle" x="384" y="-284.5" font-family="FreeSans" font-size="10.00">cleanup_ctx</text>
</a>
</g>
<!-- Node3&#45;&gt;Node13 -->
<g id="edge26" class="edge"><title>Node3&#45;&gt;Node13</title>
<path fill="none" stroke="midnightblue" d="M235.537,-238.503C244.118,-241.512 253.442,-244.836 262,-248 278.102,-253.954 281.742,-256.487 298,-262 310.316,-266.176 323.765,-270.292 336.291,-273.941"/>
<polygon fill="midnightblue" stroke="midnightblue" points="335.522,-277.362 346.1,-276.76 337.455,-270.634 335.522,-277.362"/>
</g>
<!-- Node14 -->
<g id="node28" class="node"><title>Node14</title>
<a xlink:href="cvm-hfa-search_8c.html#a30064f173d814bd3791b59d675c2f45f" target="_top" xlink:title="This routine cleans&#45;up a Search Context.">
<polygon fill="white" stroke="black" points="506,-237.5 506,-258.5 658,-258.5 658,-237.5 506,-237.5"/>
<text text-anchor="middle" x="582" y="-245.5" font-family="FreeSans" font-size="10.00">hfa_dev_searchctx_cleanup</text>
</a>
</g>
<!-- Node3&#45;&gt;Node14 -->
<g id="edge54" class="edge"><title>Node3&#45;&gt;Node14</title>
<path fill="none" stroke="midnightblue" d="M258.615,-230.844C320.356,-234.12 422.64,-239.546 495.643,-243.419"/>
<polygon fill="midnightblue" stroke="midnightblue" points="495.571,-246.92 505.742,-243.954 495.942,-239.93 495.571,-246.92"/>
</g>
<!-- Node22 -->
<g id="node45" class="node"><title>Node22</title>
<a xlink:href="cvm-hfa-search_8c.html#a60c8025118f6a47f924733e47db8c77d" target="_top" xlink:title="This routine is used to specify settings used during the search and getmatches API.">
<polygon fill="white" stroke="black" points="320,-120.5 320,-141.5 448,-141.5 448,-120.5 320,-120.5"/>
<text text-anchor="middle" x="384" y="-128.5" font-family="FreeSans" font-size="10.00">hfa_searchctx_setflags</text>
</a>
</g>
<!-- Node3&#45;&gt;Node22 -->
<g id="edge46" class="edge"><title>Node3&#45;&gt;Node22</title>
<path fill="none" stroke="midnightblue" d="M224.497,-217.435C256.105,-200.306 318.681,-166.396 355.356,-146.522"/>
<polygon fill="midnightblue" stroke="midnightblue" points="357.403,-149.394 364.527,-141.552 354.068,-143.24 357.403,-149.394"/>
</g>
<!-- Node6 -->
<g id="node11" class="node"><title>Node6</title>
<a xlink:href="cvm-hfa-stats_8c.html#a1cff986555a79b0d5ccee49801cb0056" target="_top" xlink:title="This routine allocates the memory for counters to maintain the statistics of search context...">
<polygon fill="white" stroke="black" points="516.5,-329.5 516.5,-350.5 647.5,-350.5 647.5,-329.5 516.5,-329.5"/>
<text text-anchor="middle" x="582" y="-337.5" font-family="FreeSans" font-size="10.00">hfa_searchctx_stats_init</text>
</a>
</g>
<!-- Node5&#45;&gt;Node6 -->
<g id="edge10" class="edge"><title>Node5&#45;&gt;Node6</title>
<path fill="none" stroke="midnightblue" d="M447.738,-335.931C466.329,-336.495 486.828,-337.116 506.091,-337.7"/>
<polygon fill="midnightblue" stroke="midnightblue" points="506.238,-341.206 516.34,-338.01 506.45,-334.209 506.238,-341.206"/>
</g>
<!-- Node7 -->
<g id="node13" class="node"><title>Node7</title>
<a xlink:href="cvm-hfa-stats_8c.html#acbdfa65e476c04cd9b67b7c462eefe56" target="_top" xlink:title="This routine allocates required memory from STATS ARENA.">
<polygon fill="white" stroke="black" points="695.5,-368.5 695.5,-389.5 824.5,-389.5 824.5,-368.5 695.5,-368.5"/>
<text text-anchor="middle" x="760" y="-376.5" font-family="FreeSans" font-size="10.00">hfa_stats_memoryalloc</text>
</a>
</g>
<!-- Node6&#45;&gt;Node7 -->
<g id="edge12" class="edge"><title>Node6&#45;&gt;Node7</title>
<path fill="none" stroke="midnightblue" d="M630.169,-350.554C652.233,-355.388 678.57,-361.159 701.739,-366.235"/>
<polygon fill="midnightblue" stroke="midnightblue" points="701.275,-369.716 711.792,-368.438 702.773,-362.878 701.275,-369.716"/>
</g>
<!-- Node8 -->
<g id="node15" class="node"><title>Node8</title>
<a xlink:href="cvm-hfa-stats_8c.html#a7a2acbe48c3850d43256938ee996aa16" target="_top" xlink:title="This routine frees memory to STATS ARENA.">
<polygon fill="white" stroke="black" points="862.5,-306.5 862.5,-327.5 987.5,-327.5 987.5,-306.5 862.5,-306.5"/>
<text text-anchor="middle" x="925" y="-314.5" font-family="FreeSans" font-size="10.00">hfa_stats_memoryfree</text>
</a>
</g>
<!-- Node6&#45;&gt;Node8 -->
<g id="edge14" class="edge"><title>Node6&#45;&gt;Node8</title>
<path fill="none" stroke="midnightblue" d="M647.728,-335.593C706.203,-331.671 791.595,-325.946 852.138,-321.886"/>
<polygon fill="midnightblue" stroke="midnightblue" points="852.643,-325.36 862.386,-321.199 852.174,-318.376 852.643,-325.36"/>
</g>
<!-- Node10 -->
<g id="node19" class="node"><title>Node10</title>
<a xlink:href="cvm-hfa-pp_8c.html#a9ad01b0f0de0f65b99a53f6c64f147e2" target="_top" xlink:title="ppinit">
<polygon fill="white" stroke="black" points="739,-408.5 739,-429.5 781,-429.5 781,-408.5 739,-408.5"/>
<text text-anchor="middle" x="760" y="-416.5" font-family="FreeSans" font-size="10.00">ppinit</text>
</a>
</g>
<!-- Node9&#45;&gt;Node10 -->
<g id="edge18" class="edge"><title>Node9&#45;&gt;Node10</title>
<path fill="none" stroke="midnightblue" d="M441.568,-390.504C461.875,-393.926 484.901,-397.486 506,-400 586.012,-409.532 680.809,-415.121 728.805,-417.55"/>
<polygon fill="midnightblue" stroke="midnightblue" points="728.705,-421.05 738.865,-418.048 729.05,-414.058 728.705,-421.05"/>
</g>
<!-- Node12 -->
<g id="node23" class="node"><title>Node12</title>
<a xlink:href="cvm-hfa-search_8c.html#a3200f5303f0611887f35dd500e7a8d00" target="_top" xlink:title="This is a utility routine which associates an application&#45;specifc cookie in the sctx.">
<polygon fill="white" stroke="black" points="513,-369.5 513,-390.5 651,-390.5 651,-369.5 513,-369.5"/>
<text text-anchor="middle" x="582" y="-377.5" font-family="FreeSans" font-size="10.00">hfa_searchctx_setppuarg</text>
</a>
</g>
<!-- Node9&#45;&gt;Node12 -->
<g id="edge22" class="edge"><title>Node9&#45;&gt;Node12</title>
<path fill="none" stroke="midnightblue" d="M450.206,-380C467.028,-380 485.275,-380 502.676,-380"/>
<polygon fill="midnightblue" stroke="midnightblue" points="502.806,-383.5 512.806,-380 502.806,-376.5 502.806,-383.5"/>
</g>
<!-- Node11 -->
<g id="node21" class="node"><title>Node11</title>
<a xlink:href="pp_8h.html#adc8d105abb8f12812385bb87d15e6e32" target="_top" xlink:title="pphfa_init">
<polygon fill="white" stroke="black" points="893.5,-408.5 893.5,-429.5 956.5,-429.5 956.5,-408.5 893.5,-408.5"/>
<text text-anchor="middle" x="925" y="-416.5" font-family="FreeSans" font-size="10.00">pphfa_init</text>
</a>
</g>
<!-- Node10&#45;&gt;Node11 -->
<g id="edge20" class="edge"><title>Node10&#45;&gt;Node11</title>
<path fill="none" stroke="midnightblue" d="M781.233,-419C806.915,-419 850.744,-419 883.275,-419"/>
<polygon fill="midnightblue" stroke="midnightblue" points="883.402,-422.5 893.402,-419 883.402,-415.5 883.402,-422.5"/>
</g>
<!-- Node12&#45;&gt;Node10 -->
<g id="edge24" class="edge"><title>Node12&#45;&gt;Node10</title>
<path fill="none" stroke="midnightblue" d="M630.169,-390.554C661.575,-397.435 701.642,-406.214 728.902,-412.186"/>
<polygon fill="midnightblue" stroke="midnightblue" points="728.161,-415.607 738.678,-414.328 729.659,-408.769 728.161,-415.607"/>
</g>
<!-- Node13&#45;&gt;Node14 -->
<g id="edge28" class="edge"><title>Node13&#45;&gt;Node14</title>
<path fill="none" stroke="midnightblue" d="M421.708,-279.573C448.943,-274.208 486.381,-266.834 518.227,-260.561"/>
<polygon fill="midnightblue" stroke="midnightblue" points="519.215,-263.934 528.35,-258.567 517.862,-257.066 519.215,-263.934"/>
</g>
<!-- Node15 -->
<g id="node30" class="node"><title>Node15</title>
<a xlink:href="cvm-hfa-pp_8c.html#add6064138ec2e35741929056a0992d8d" target="_top" xlink:title="ppgetstats">
<polygon fill="white" stroke="black" points="727,-158.5 727,-179.5 793,-179.5 793,-158.5 727,-158.5"/>
<text text-anchor="middle" x="760" y="-166.5" font-family="FreeSans" font-size="10.00">ppgetstats</text>
</a>
</g>
<!-- Node14&#45;&gt;Node15 -->
<g id="edge30" class="edge"><title>Node14&#45;&gt;Node15</title>
<path fill="none" stroke="midnightblue" d="M599.725,-237.302C621.389,-224.551 659.437,-203.189 694,-189 701.32,-185.995 709.26,-183.208 717.012,-180.728"/>
<polygon fill="midnightblue" stroke="midnightblue" points="718.14,-184.042 726.669,-177.756 716.081,-177.352 718.14,-184.042"/>
</g>
<!-- Node17 -->
<g id="node34" class="node"><title>Node17</title>
<a xlink:href="cvm-hfa-pp_8c.html#a57ec655c9bdb6ce63ada6767c7e14763" target="_top" xlink:title="ppcleanstats">
<polygon fill="white" stroke="black" points="721.5,-198.5 721.5,-219.5 798.5,-219.5 798.5,-198.5 721.5,-198.5"/>
<text text-anchor="middle" x="760" y="-206.5" font-family="FreeSans" font-size="10.00">ppcleanstats</text>
</a>
</g>
<!-- Node14&#45;&gt;Node17 -->
<g id="edge34" class="edge"><title>Node14&#45;&gt;Node17</title>
<path fill="none" stroke="midnightblue" d="M630.169,-237.446C655.326,-231.934 686.04,-225.205 711.277,-219.675"/>
<polygon fill="midnightblue" stroke="midnightblue" points="712.349,-223.024 721.368,-217.464 710.851,-216.186 712.349,-223.024"/>
</g>
<!-- Node19 -->
<g id="node38" class="node"><title>Node19</title>
<a xlink:href="cvm-hfa-pp_8c.html#a41ce9d3103c639e474783d3843e09071" target="_top" xlink:title="ppcleanup">
<polygon fill="white" stroke="black" points="727,-238.5 727,-259.5 793,-259.5 793,-238.5 727,-238.5"/>
<text text-anchor="middle" x="760" y="-246.5" font-family="FreeSans" font-size="10.00">ppcleanup</text>
</a>
</g>
<!-- Node14&#45;&gt;Node19 -->
<g id="edge38" class="edge"><title>Node14&#45;&gt;Node19</title>
<path fill="none" stroke="midnightblue" d="M658.004,-248.427C677.88,-248.539 698.64,-248.655 716.202,-248.754"/>
<polygon fill="midnightblue" stroke="midnightblue" points="716.668,-252.257 726.688,-248.813 716.707,-245.257 716.668,-252.257"/>
</g>
<!-- Node21 -->
<g id="node42" class="node"><title>Node21</title>
<a xlink:href="cvm-hfa-stats_8c.html#a2df4c76e04e7b028ed2df4bba1b2de3d" target="_top" xlink:title="This routine is the counterpart of hfa_searchctx_init_stats().">
<polygon fill="white" stroke="black" points="703.5,-278 703.5,-312 816.5,-312 816.5,-278 703.5,-278"/>
<text text-anchor="start" x="711.5" y="-299" font-family="FreeSans" font-size="10.00">hfa_searchctx_stats</text>
<text text-anchor="middle" x="760" y="-286" font-family="FreeSans" font-size="10.00">_cleanup</text>
</a>
</g>
<!-- Node14&#45;&gt;Node21 -->
<g id="edge42" class="edge"><title>Node14&#45;&gt;Node21</title>
<path fill="none" stroke="midnightblue" d="M621.947,-258.548C643.027,-264.114 669.448,-271.09 693.516,-277.445"/>
<polygon fill="midnightblue" stroke="midnightblue" points="692.749,-280.863 703.311,-280.032 694.536,-274.094 692.749,-280.863"/>
</g>
<!-- Node16 -->
<g id="node32" class="node"><title>Node16</title>
<a xlink:href="pp_8h.html#a808d5057ee5670ce724a6a88fc22b799" target="_top" xlink:title="pphfa_getstats">
<polygon fill="white" stroke="black" points="881.5,-158.5 881.5,-179.5 968.5,-179.5 968.5,-158.5 881.5,-158.5"/>
<text text-anchor="middle" x="925" y="-166.5" font-family="FreeSans" font-size="10.00">pphfa_getstats</text>
</a>
</g>
<!-- Node15&#45;&gt;Node16 -->
<g id="edge32" class="edge"><title>Node15&#45;&gt;Node16</title>
<path fill="none" stroke="midnightblue" d="M793.39,-169C815.654,-169 845.419,-169 871.011,-169"/>
<polygon fill="midnightblue" stroke="midnightblue" points="871.321,-172.5 881.321,-169 871.321,-165.5 871.321,-172.5"/>
</g>
<!-- Node18 -->
<g id="node36" class="node"><title>Node18</title>
<a xlink:href="pp_8h.html#a978b171bd7a736cb7fa0d5d034aa94e2" target="_top" xlink:title="pphfa_cleanstats">
<polygon fill="white" stroke="black" points="876,-198.5 876,-219.5 974,-219.5 974,-198.5 876,-198.5"/>
<text text-anchor="middle" x="925" y="-206.5" font-family="FreeSans" font-size="10.00">pphfa_cleanstats</text>
</a>
</g>
<!-- Node17&#45;&gt;Node18 -->
<g id="edge36" class="edge"><title>Node17&#45;&gt;Node18</title>
<path fill="none" stroke="midnightblue" d="M798.685,-209C818.675,-209 843.499,-209 865.836,-209"/>
<polygon fill="midnightblue" stroke="midnightblue" points="865.898,-212.5 875.898,-209 865.898,-205.5 865.898,-212.5"/>
</g>
<!-- Node20 -->
<g id="node40" class="node"><title>Node20</title>
<a xlink:href="pp_8h.html#a428ad073d1fd72da37ab8b00f13693a3" target="_top" xlink:title="pphfa_cleanup">
<polygon fill="white" stroke="black" points="881.5,-238.5 881.5,-259.5 968.5,-259.5 968.5,-238.5 881.5,-238.5"/>
<text text-anchor="middle" x="925" y="-246.5" font-family="FreeSans" font-size="10.00">pphfa_cleanup</text>
</a>
</g>
<!-- Node19&#45;&gt;Node20 -->
<g id="edge40" class="edge"><title>Node19&#45;&gt;Node20</title>
<path fill="none" stroke="midnightblue" d="M793.39,-249C815.654,-249 845.419,-249 871.011,-249"/>
<polygon fill="midnightblue" stroke="midnightblue" points="871.321,-252.5 881.321,-249 871.321,-245.5 871.321,-252.5"/>
</g>
<!-- Node21&#45;&gt;Node8 -->
<g id="edge44" class="edge"><title>Node21&#45;&gt;Node8</title>
<path fill="none" stroke="midnightblue" d="M816.784,-302.571C828.29,-304.105 840.539,-305.739 852.503,-307.334"/>
<polygon fill="midnightblue" stroke="midnightblue" points="852.088,-310.809 862.463,-308.662 853.013,-303.871 852.088,-310.809"/>
</g>
<!-- Node22&#45;&gt;Node15 -->
<g id="edge48" class="edge"><title>Node22&#45;&gt;Node15</title>
<path fill="none" stroke="midnightblue" d="M448.159,-141.301C466.782,-144.065 487.172,-146.872 506,-149 579.658,-157.324 665.724,-163.32 716.39,-166.469"/>
<polygon fill="midnightblue" stroke="midnightblue" points="716.451,-169.98 726.647,-167.098 716.88,-162.993 716.451,-169.98"/>
</g>
<!-- Node23 -->
<g id="node48" class="node"><title>Node23</title>
<a xlink:href="cvm-hfa-pp_8c.html#a73cd0d7244d64410753dac7b809d2060" target="_top" xlink:title="ppassignstats">
<polygon fill="white" stroke="black" points="541.5,-118.5 541.5,-139.5 622.5,-139.5 622.5,-118.5 541.5,-118.5"/>
<text text-anchor="middle" x="582" y="-126.5" font-family="FreeSans" font-size="10.00">ppassignstats</text>
</a>
</g>
<!-- Node22&#45;&gt;Node23 -->
<g id="edge50" class="edge"><title>Node22&#45;&gt;Node23</title>
<path fill="none" stroke="midnightblue" d="M448.011,-130.353C474.923,-130.082 505.793,-129.77 531.114,-129.514"/>
<polygon fill="midnightblue" stroke="midnightblue" points="531.275,-133.013 541.239,-129.412 531.204,-126.013 531.275,-133.013"/>
</g>
<!-- Node24 -->
<g id="node50" class="node"><title>Node24</title>
<a xlink:href="pp_8h.html#ad0cc4aeca687557949697bef25cdb764" target="_top" xlink:title="pphfa_assignstats">
<polygon fill="white" stroke="black" points="709,-118.5 709,-139.5 811,-139.5 811,-118.5 709,-118.5"/>
<text text-anchor="middle" x="760" y="-126.5" font-family="FreeSans" font-size="10.00">pphfa_assignstats</text>
</a>
</g>
<!-- Node23&#45;&gt;Node24 -->
<g id="edge52" class="edge"><title>Node23&#45;&gt;Node24</title>
<path fill="none" stroke="midnightblue" d="M622.837,-129C645.299,-129 673.619,-129 698.685,-129"/>
<polygon fill="midnightblue" stroke="midnightblue" points="698.837,-132.5 708.837,-129 698.837,-125.5 698.837,-132.5"/>
</g>
<!-- Node26 -->
<g id="node55" class="node"><title>Node26</title>
<a xlink:href="cvm-hfa-osapi_8h.html#a4fd034fe8e16048838cfb6427ecc93cc" target="_top" xlink:title="Linked list data structure.">
<polygon fill="white" stroke="black" points="336.5,-0.5 336.5,-21.5 431.5,-21.5 431.5,-0.5 336.5,-0.5"/>
<text text-anchor="middle" x="384" y="-8.5" font-family="FreeSans" font-size="10.00">__hfa_os_listadd</text>
</a>
</g>
<!-- Node25&#45;&gt;Node26 -->
<g id="edge58" class="edge"><title>Node25&#45;&gt;Node26</title>
<path fill="none" stroke="midnightblue" d="M227.151,-59.4628C245.746,-50.922 273.179,-39.0273 298,-31 307.093,-28.0593 316.858,-25.3647 326.427,-22.9709"/>
<polygon fill="midnightblue" stroke="midnightblue" points="327.395,-26.3379 336.293,-20.5873 325.751,-19.5337 327.395,-26.3379"/>
</g>
<!-- Node27&#45;&gt;Node14 -->
<g id="edge74" class="edge"><title>Node27&#45;&gt;Node14</title>
<path fill="none" stroke="midnightblue" d="M251.349,-140.51C266.243,-143.876 282.815,-147.608 298,-151 374.405,-168.066 396.489,-162.071 470,-189 501.058,-200.377 534.307,-218.769 556.438,-231.995"/>
<polygon fill="midnightblue" stroke="midnightblue" points="554.837,-235.118 565.202,-237.312 558.468,-229.133 554.837,-235.118"/>
</g>
<!-- Node28 -->
<g id="node59" class="node"><title>Node28</title>
<a xlink:href="cvm-hfa-osapi_8h.html#acacbbbac0cb1e827a08946bcdf13209b" target="_top" xlink:title="hfa_os_listdel">
<polygon fill="white" stroke="black" points="343.5,-40.5 343.5,-61.5 424.5,-61.5 424.5,-40.5 343.5,-40.5"/>
<text text-anchor="middle" x="384" y="-48.5" font-family="FreeSans" font-size="10.00">hfa_os_listdel</text>
</a>
</g>
<!-- Node27&#45;&gt;Node28 -->
<g id="edge62" class="edge"><title>Node27&#45;&gt;Node28</title>
<path fill="none" stroke="midnightblue" d="M220.16,-119.498C242.159,-104.413 282.041,-77.6895 298,-71 309.155,-66.3242 321.604,-62.6307 333.489,-59.7582"/>
<polygon fill="midnightblue" stroke="midnightblue" points="334.321,-63.1587 343.3,-57.5349 332.773,-56.3318 334.321,-63.1587"/>
</g>
<!-- Node30 -->
<g id="node63" class="node"><title>Node30</title>
<a xlink:href="cvm-hfa-search_8c.html#a6a8e1d7e70e0a10520302df5651e5fc5" target="_top" xlink:title="This routine provides the status of an outstanding pattern search operation initiated using hfa_searc...">
<polygon fill="white" stroke="black" points="298,-80.5 298,-101.5 470,-101.5 470,-80.5 298,-80.5"/>
<text text-anchor="middle" x="384" y="-88.5" font-family="FreeSans" font-size="10.00">hfa_searchctx_get_searchstatus</text>
</a>
</g>
<!-- Node27&#45;&gt;Node30 -->
<g id="edge66" class="edge"><title>Node27&#45;&gt;Node30</title>
<path fill="none" stroke="midnightblue" d="M253.44,-119.446C275.727,-114.59 302.35,-108.79 325.725,-103.697"/>
<polygon fill="midnightblue" stroke="midnightblue" points="326.496,-107.111 335.521,-101.562 325.005,-100.272 326.496,-107.111"/>
</g>
<!-- Node29 -->
<g id="node61" class="node"><title>Node29</title>
<a xlink:href="cvm-hfa-osapi_8h.html#a8f7a99f931e344eaaf9dd1fadd341a46" target="_top" xlink:title="__hfa_os_listdel">
<polygon fill="white" stroke="black" points="536.5,-38.5 536.5,-59.5 627.5,-59.5 627.5,-38.5 536.5,-38.5"/>
<text text-anchor="middle" x="582" y="-46.5" font-family="FreeSans" font-size="10.00">__hfa_os_listdel</text>
</a>
</g>
<!-- Node28&#45;&gt;Node29 -->
<g id="edge64" class="edge"><title>Node28&#45;&gt;Node29</title>
<path fill="none" stroke="midnightblue" d="M424.546,-50.5904C453.846,-50.2945 493.789,-49.891 526.112,-49.5645"/>
<polygon fill="midnightblue" stroke="midnightblue" points="526.351,-53.0624 536.315,-49.4615 526.281,-46.0627 526.351,-53.0624"/>
</g>
<!-- Node31 -->
<g id="node65" class="node"><title>Node31</title>
<a xlink:href="cvm-hfa_8c.html#a4753d2dd586e19676b1a59dd16baaeed" target="_top" xlink:title="Obtain status of submitted insruction.">
<polygon fill="white" stroke="black" points="515.5,-78.5 515.5,-99.5 648.5,-99.5 648.5,-78.5 515.5,-78.5"/>
<text text-anchor="middle" x="582" y="-86.5" font-family="FreeSans" font-size="10.00">hfa_dev_getasyncstatus</text>
</a>
</g>
<!-- Node30&#45;&gt;Node31 -->
<g id="edge68" class="edge"><title>Node30&#45;&gt;Node31</title>
<path fill="none" stroke="midnightblue" d="M470.27,-90.1286C481.839,-90.0117 493.644,-89.8925 505.039,-89.7774"/>
<polygon fill="midnightblue" stroke="midnightblue" points="505.405,-93.274 515.369,-89.673 505.335,-86.2743 505.405,-93.274"/>
</g>
<!-- Node32 -->
<g id="node67" class="node"><title>Node32</title>
<a xlink:href="cvm-hfa-instr_8h.html#a56f2522dcba965745a1bc239fc432dca" target="_top" xlink:title="Gets done from RWORD0.">
<polygon fill="white" stroke="black" points="698.5,-38.5 698.5,-59.5 821.5,-59.5 821.5,-38.5 698.5,-38.5"/>
<text text-anchor="middle" x="760" y="-46.5" font-family="FreeSans" font-size="10.00">cvm_hfa_rslt_getdone</text>
</a>
</g>
<!-- Node31&#45;&gt;Node32 -->
<g id="edge70" class="edge"><title>Node31&#45;&gt;Node32</title>
<path fill="none" stroke="midnightblue" d="M628.767,-78.4905C651.57,-73.3663 679.188,-67.1601 703.194,-61.7655"/>
<polygon fill="midnightblue" stroke="midnightblue" points="704.247,-65.1161 713.236,-59.5087 702.712,-58.2865 704.247,-65.1161"/>
</g>
<!-- Node33 -->
<g id="node69" class="node"><title>Node33</title>
<a xlink:href="cvm-hfa-instr_8h.html#a9700a50b68b6616506528eb725a8bda1" target="_top" xlink:title="Gets reason from RWORD0.">
<polygon fill="white" stroke="black" points="694.5,-78.5 694.5,-99.5 825.5,-99.5 825.5,-78.5 694.5,-78.5"/>
<text text-anchor="middle" x="760" y="-86.5" font-family="FreeSans" font-size="10.00">cvm_hfa_rslt_getreason</text>
</a>
</g>
<!-- Node31&#45;&gt;Node33 -->
<g id="edge72" class="edge"><title>Node31&#45;&gt;Node33</title>
<path fill="none" stroke="midnightblue" d="M648.534,-89C660.143,-89 672.297,-89 684.135,-89"/>
<polygon fill="midnightblue" stroke="midnightblue" points="684.434,-92.5001 694.434,-89 684.434,-85.5001 684.434,-92.5001"/>
</g>
</g>
</svg>
        <g id="navigator" transform="translate(0 0)" fill="#404254">
                <rect fill="#f2f5e9" fill-opacity="0.5" stroke="#606060" stroke-width=".5" x="0" y="0" width="60" height="60"/>
                <use id="zoomplus" xlink:href="#zoomPlus" x="17" y="9" onmousedown="handleZoom(evt,'in')"/>
                <use id="zoomminus" xlink:href="#zoomMin" x="42" y="9" onmousedown="handleZoom(evt,'out')"/>
                <use id="reset" xlink:href="#resetDef" x="30" y="36" onmousedown="handleReset()"/>
                <g id="arrowUp" xlink:href="#dirArrow" transform="translate(30 24)" onmousedown="handlePan(0,-1)">
                  <use xlink:href="#rim" fill="#404040">
                        <set attributeName="fill" to="#808080" begin="arrowUp.mouseover" end="arrowUp.mouseout"/>
                  </use>
                  <path fill="none" stroke="white" stroke-width="1.5" d="M0,-3.0v7 M-2.5,-0.5L0,-3.0L2.5,-0.5"/>
                </g>
                <g id="arrowRight" xlink:href="#dirArrow" transform="rotate(90) translate(36 -43)" onmousedown="handlePan(1,0)">
                  <use xlink:href="#rim" fill="#404040">
                        <set attributeName="fill" to="#808080" begin="arrowRight.mouseover" end="arrowRight.mouseout"/>
                  </use>
                  <path fill="none" stroke="white" stroke-width="1.5" d="M0,-3.0v7 M-2.5,-0.5L0,-3.0L2.5,-0.5"/>
                </g>
                <g id="arrowDown" xlink:href="#dirArrow" transform="rotate(180) translate(-30 -48)" onmousedown="handlePan(0,1)">
                  <use xlink:href="#rim" fill="#404040">
                        <set attributeName="fill" to="#808080" begin="arrowDown.mouseover" end="arrowDown.mouseout"/>
                  </use>
                  <path fill="none" stroke="white" stroke-width="1.5" d="M0,-3.0v7 M-2.5,-0.5L0,-3.0L2.5,-0.5"/>
                </g>
                <g id="arrowLeft" xlink:href="#dirArrow" transform="rotate(270) translate(-36 17)" onmousedown="handlePan(-1,0)">
                  <use xlink:href="#rim" fill="#404040">
                        <set attributeName="fill" to="#808080" begin="arrowLeft.mouseover" end="arrowLeft.mouseout"/>
                  </use>
                  <path fill="none" stroke="white" stroke-width="1.5" d="M0,-3.0v7 M-2.5,-0.5L0,-3.0L2.5,-0.5"/>
                </g>
        </g>
        <svg viewBox="0 0 15 15" width="100%" height="30px" preserveAspectRatio="xMaxYMin meet">
         <g id="arrow_out" transform="scale(0.3 0.3)">
          <a xlink:href="flow_8c_afd4334cffa6be01afda5aa31eeecf6c4_cgraph_org.svg" target="_base">
           <rect id="button" ry="5" rx="5" y="6" x="6" height="38" width="38"
                fill="#f2f5e9" fill-opacity="0.5" stroke="#606060" stroke-width="1.0"/>
           <path id="arrow"
             d="M 11.500037,31.436501 C 11.940474,20.09759 22.043105,11.32322 32.158766,21.979434 L 37.068811,17.246167 C 37.068811,17.246167 37.088388,32 37.088388,32 L 22.160133,31.978069 C 22.160133,31.978069 26.997745,27.140456 26.997745,27.140456 C 18.528582,18.264221 13.291696,25.230495 11.500037,31.436501 z"
             style="fill:#404040;"/>
          </a>
         </g>
        </svg>
</svg>
