<?xml version="1.0" encoding="UTF-8" standalone="no"?>
<!DOCTYPE svg PUBLIC "-//W3C//DTD SVG 1.1//EN"
 "http://www.w3.org/Graphics/SVG/1.1/DTD/svg11.dtd">
<!-- Generated by graphviz version 2.24.0 (20090616.2323)
 -->
<!-- Title: __hfaf_destroy_flow Pages: 1 -->
<svg width="534pt" height="110pt"
 viewBox="0.00 0.00 534.00 110.00" xmlns="http://www.w3.org/2000/svg" xmlns:xlink="http://www.w3.org/1999/xlink">
<g id="graph1" class="graph" transform="scale(1 1) rotate(0) translate(4 106)">
<title>__hfaf_destroy_flow</title>
<polygon fill="white" stroke="white" points="-4,5 -4,-106 531,-106 531,5 -4,5"/>
<!-- Node1 -->
<g id="node1" class="node"><title>Node1</title>
<polygon fill="#bfbfbf" stroke="black" points="0.5,-40.5 0.5,-61.5 113.5,-61.5 113.5,-40.5 0.5,-40.5"/>
<text text-anchor="middle" x="57" y="-48.5" font-family="FreeSans" font-size="10.00">__hfaf_destroy_flow</text>
</g>
<!-- Node2 -->
<g id="node3" class="node"><title>Node2</title>
<a xlink:href="flow_8c.html#a93974ea83df979435eb77f3c5d4ab848" target="_top" xlink:title="Cleanup Flowdb Node (Per Index)">
<polygon fill="white" stroke="black" points="150,-80.5 150,-101.5 296,-101.5 296,-80.5 150,-80.5"/>
<text text-anchor="middle" x="223" y="-88.5" font-family="FreeSans" font-size="10.00">hfaf_flowdb_node_cleanup</text>
</a>
</g>
<!-- Node1&#45;&gt;Node2 -->
<g id="edge2" class="edge"><title>Node1&#45;&gt;Node2</title>
<path fill="none" stroke="midnightblue" d="M110.581,-63.911C132.828,-69.2718 158.314,-75.413 179.389,-80.4913"/>
<polygon fill="midnightblue" stroke="midnightblue" points="111.156,-60.4496 100.615,-61.5095 109.516,-67.2548 111.156,-60.4496"/>
</g>
<!-- Node5 -->
<g id="node9" class="node"><title>Node5</title>
<a xlink:href="flow_8h.html#abdb62c6f71f5ca9ecddc66c90166d37b" target="_top" xlink:title="Create Packet Flow in Flowdb.">
<polygon fill="white" stroke="black" points="167.5,-40.5 167.5,-61.5 278.5,-61.5 278.5,-40.5 167.5,-40.5"/>
<text text-anchor="middle" x="223" y="-48.5" font-family="FreeSans" font-size="10.00">hfaf_create_pktflow</text>
</a>
</g>
<!-- Node1&#45;&gt;Node5 -->
<g id="edge8" class="edge"><title>Node1&#45;&gt;Node5</title>
<path fill="none" stroke="midnightblue" d="M124.015,-51C138.43,-51 153.512,-51 167.435,-51"/>
<polygon fill="midnightblue" stroke="midnightblue" points="123.664,-47.5001 113.663,-51 123.663,-54.5001 123.664,-47.5001"/>
</g>
<!-- Node7 -->
<g id="node13" class="node"><title>Node7</title>
<a xlink:href="flow_8h.html#a8d99fe33dc3203530d360196cc7decb4" target="_top" xlink:title="Counterpart of hfaf_create_pktflow().">
<polygon fill="white" stroke="black" points="165,-0.5 165,-21.5 281,-21.5 281,-0.5 165,-0.5"/>
<text text-anchor="middle" x="223" y="-8.5" font-family="FreeSans" font-size="10.00">hfaf_destroy_pktflow</text>
</a>
</g>
<!-- Node1&#45;&gt;Node7 -->
<g id="edge12" class="edge"><title>Node1&#45;&gt;Node7</title>
<path fill="none" stroke="midnightblue" d="M110.581,-38.089C132.828,-32.7282 158.314,-26.587 179.389,-21.5087"/>
<polygon fill="midnightblue" stroke="midnightblue" points="109.516,-34.7452 100.615,-40.4905 111.156,-41.5504 109.516,-34.7452"/>
</g>
<!-- Node3 -->
<g id="node5" class="node"><title>Node3</title>
<a xlink:href="flow_8h.html#a2a51025bf645e4e1eec8cac2b4f8a8c0" target="_top" xlink:title="Cleanups Flow database which was created in hfaf_flowdb_init()">
<polygon fill="white" stroke="black" points="332.5,-80.5 332.5,-101.5 449.5,-101.5 449.5,-80.5 332.5,-80.5"/>
<text text-anchor="middle" x="391" y="-88.5" font-family="FreeSans" font-size="10.00">hfaf_flowdb_cleanup</text>
</a>
</g>
<!-- Node2&#45;&gt;Node3 -->
<g id="edge4" class="edge"><title>Node2&#45;&gt;Node3</title>
<path fill="none" stroke="midnightblue" d="M306.469,-91C315.241,-91 324.02,-91 332.424,-91"/>
<polygon fill="midnightblue" stroke="midnightblue" points="306.199,-87.5001 296.199,-91 306.198,-94.5001 306.199,-87.5001"/>
</g>
<!-- Node4 -->
<g id="node7" class="node"><title>Node4</title>
<a xlink:href="hfa-se-flow-wqe_8c.html#a3c04138a5bfe5d72780bb7e82a18e627" target="_top" xlink:title="Implementation.">
<polygon fill="white" stroke="black" points="486,-80.5 486,-101.5 526,-101.5 526,-80.5 486,-80.5"/>
<text text-anchor="middle" x="506" y="-88.5" font-family="FreeSans" font-size="10.00">main</text>
</a>
</g>
<!-- Node3&#45;&gt;Node4 -->
<g id="edge6" class="edge"><title>Node3&#45;&gt;Node4</title>
<path fill="none" stroke="midnightblue" d="M459.578,-91C469.136,-91 478.27,-91 485.868,-91"/>
<polygon fill="midnightblue" stroke="midnightblue" points="459.511,-87.5001 449.511,-91 459.511,-94.5001 459.511,-87.5001"/>
</g>
<!-- Node6 -->
<g id="node11" class="node"><title>Node6</title>
<a xlink:href="hfa-se-flow-wqe_8c.html#a6d3e23d8f7a3aaf1b0d6e350b7631a0e" target="_top" xlink:title="Get flow pointer from Flow database, If flow ptr is NULL then create at runtime.">
<polygon fill="white" stroke="black" points="356.5,-40.5 356.5,-61.5 425.5,-61.5 425.5,-40.5 356.5,-40.5"/>
<text text-anchor="middle" x="391" y="-48.5" font-family="FreeSans" font-size="10.00">get_flowptr</text>
</a>
</g>
<!-- Node5&#45;&gt;Node6 -->
<g id="edge10" class="edge"><title>Node5&#45;&gt;Node6</title>
<path fill="none" stroke="midnightblue" d="M289.006,-51C312.009,-51 336.902,-51 356.337,-51"/>
<polygon fill="midnightblue" stroke="midnightblue" points="288.942,-47.5001 278.942,-51 288.942,-54.5001 288.942,-47.5001"/>
</g>
</g>
</svg>
