<?xml version="1.0" encoding="UTF-8" standalone="no"?>
<!DOCTYPE svg PUBLIC "-//W3C//DTD SVG 1.1//EN"
 "http://www.w3.org/Graphics/SVG/1.1/DTD/svg11.dtd">
<!-- Generated by graphviz version 2.24.0 (20090616.2323)
 -->
<!-- Title: hfaf_flowdb_node_cleanup Pages: 1 -->
<svg width="384pt" height="30pt"
 viewBox="0.00 0.00 384.00 30.00" xmlns="http://www.w3.org/2000/svg" xmlns:xlink="http://www.w3.org/1999/xlink">
<g id="graph1" class="graph" transform="scale(1 1) rotate(0) translate(4 26)">
<title>hfaf_flowdb_node_cleanup</title>
<polygon fill="white" stroke="white" points="-4,5 -4,-26 381,-26 381,5 -4,5"/>
<!-- Node1 -->
<g id="node1" class="node"><title>Node1</title>
<polygon fill="#bfbfbf" stroke="black" points="0,-0.5 0,-21.5 146,-21.5 146,-0.5 0,-0.5"/>
<text text-anchor="middle" x="73" y="-8.5" font-family="FreeSans" font-size="10.00">hfaf_flowdb_node_cleanup</text>
</g>
<!-- Node2 -->
<g id="node3" class="node"><title>Node2</title>
<a xlink:href="flow_8h.html#a2a51025bf645e4e1eec8cac2b4f8a8c0" target="_top" xlink:title="Cleanups Flow database which was created in hfaf_flowdb_init()">
<polygon fill="white" stroke="black" points="182.5,-0.5 182.5,-21.5 299.5,-21.5 299.5,-0.5 182.5,-0.5"/>
<text text-anchor="middle" x="241" y="-8.5" font-family="FreeSans" font-size="10.00">hfaf_flowdb_cleanup</text>
</a>
</g>
<!-- Node1&#45;&gt;Node2 -->
<g id="edge2" class="edge"><title>Node1&#45;&gt;Node2</title>
<path fill="none" stroke="midnightblue" d="M156.469,-11C165.241,-11 174.02,-11 182.424,-11"/>
<polygon fill="midnightblue" stroke="midnightblue" points="156.199,-7.5001 146.199,-11 156.198,-14.5001 156.199,-7.5001"/>
</g>
<!-- Node3 -->
<g id="node5" class="node"><title>Node3</title>
<a xlink:href="hfa-se-flow-wqe_8c.html#a3c04138a5bfe5d72780bb7e82a18e627" target="_top" xlink:title="Implementation.">
<polygon fill="white" stroke="black" points="336,-0.5 336,-21.5 376,-21.5 376,-0.5 336,-0.5"/>
<text text-anchor="middle" x="356" y="-8.5" font-family="FreeSans" font-size="10.00">main</text>
</a>
</g>
<!-- Node2&#45;&gt;Node3 -->
<g id="edge4" class="edge"><title>Node2&#45;&gt;Node3</title>
<path fill="none" stroke="midnightblue" d="M309.578,-11C319.136,-11 328.27,-11 335.868,-11"/>
<polygon fill="midnightblue" stroke="midnightblue" points="309.511,-7.5001 299.511,-11 309.511,-14.5001 309.511,-7.5001"/>
</g>
</g>
</svg>
