<?xml version="1.0" encoding="UTF-8" standalone="no"?>
<!DOCTYPE svg PUBLIC "-//W3C//DTD SVG 1.1//EN"
 "http://www.w3.org/Graphics/SVG/1.1/DTD/svg11.dtd">
<!-- Generated by graphviz version 2.24.0 (20090616.2323)
 -->
<!-- Title: __hfaf_submit_pktflow Pages: 1 -->
<svg width="718pt" height="70pt"
 viewBox="0.00 0.00 718.00 70.00" xmlns="http://www.w3.org/2000/svg" xmlns:xlink="http://www.w3.org/1999/xlink">
<g id="graph1" class="graph" transform="scale(1 1) rotate(0) translate(4 66)">
<title>__hfaf_submit_pktflow</title>
<polygon fill="white" stroke="white" points="-4,5 -4,-66 715,-66 715,5 -4,5"/>
<!-- Node1 -->
<g id="node1" class="node"><title>Node1</title>
<polygon fill="#bfbfbf" stroke="black" points="0.5,-20.5 0.5,-41.5 123.5,-41.5 123.5,-20.5 0.5,-20.5"/>
<text text-anchor="middle" x="62" y="-28.5" font-family="FreeSans" font-size="10.00">__hfaf_submit_pktflow</text>
</g>
<!-- Node2 -->
<g id="node3" class="node"><title>Node2</title>
<a xlink:href="flow_8h.html#a18bf649957e692c30595a05f9c9516e6" target="_top" xlink:title="High Level API to submit Search Parameter to a Flow.">
<polygon fill="white" stroke="black" points="163.5,-40.5 163.5,-61.5 276.5,-61.5 276.5,-40.5 163.5,-40.5"/>
<text text-anchor="middle" x="220" y="-48.5" font-family="FreeSans" font-size="10.00">hfaf_submit_pktflow</text>
</a>
</g>
<!-- Node1&#45;&gt;Node2 -->
<g id="edge2" class="edge"><title>Node1&#45;&gt;Node2</title>
<path fill="none" stroke="midnightblue" d="M133.767,-40.0844C143.659,-41.3366 153.704,-42.6081 163.274,-43.8195"/>
<polygon fill="midnightblue" stroke="midnightblue" points="133.9,-36.5734 123.539,-38.7898 133.021,-43.518 133.9,-36.5734"/>
</g>
<!-- Node4 -->
<g id="node7" class="node"><title>Node4</title>
<a xlink:href="flow_8h.html#ab1b3378af88a440a6c3c0851be942e65" target="_top" xlink:title="All submitted search parameters in Paramlist of flow are polled If low level API __hfaf_process_pktfl...">
<polygon fill="white" stroke="black" points="160.5,-0.5 160.5,-21.5 279.5,-21.5 279.5,-0.5 160.5,-0.5"/>
<text text-anchor="middle" x="220" y="-8.5" font-family="FreeSans" font-size="10.00">hfaf_process_pktflow</text>
</a>
</g>
<!-- Node1&#45;&gt;Node4 -->
<g id="edge6" class="edge"><title>Node1&#45;&gt;Node4</title>
<path fill="none" stroke="midnightblue" d="M133.595,-21.9373C142.572,-20.801 151.678,-19.6484 160.443,-18.5389"/>
<polygon fill="midnightblue" stroke="midnightblue" points="133.021,-18.482 123.539,-23.2102 133.9,-25.4266 133.021,-18.482"/>
</g>
<!-- Node3 -->
<g id="node5" class="node"><title>Node3</title>
<a xlink:href="hfa-se-flow-wqe_8c.html#a779659fedbbc8e698802f2d8e2da9067" target="_top" xlink:title="Submits a packet of a flow to the HFA Engine if no pending instruction on that flow.">
<polygon fill="white" stroke="black" points="319.5,-40.5 319.5,-61.5 398.5,-61.5 398.5,-40.5 319.5,-40.5"/>
<text text-anchor="middle" x="359" y="-48.5" font-family="FreeSans" font-size="10.00">__submitflow</text>
</a>
</g>
<!-- Node2&#45;&gt;Node3 -->
<g id="edge4" class="edge"><title>Node2&#45;&gt;Node3</title>
<path fill="none" stroke="midnightblue" d="M286.67,-51C297.769,-51 308.965,-51 319.122,-51"/>
<polygon fill="midnightblue" stroke="midnightblue" points="286.537,-47.5001 276.537,-51 286.537,-54.5001 286.537,-47.5001"/>
</g>
<!-- Node5 -->
<g id="node9" class="node"><title>Node5</title>
<a xlink:href="hfa-se-flow_8c.html#a2d83c733eacd7afc955c3af18edcb52a" target="_top" xlink:title="Polls for a submitted search instruction of a flow.">
<polygon fill="white" stroke="black" points="316.5,-0.5 316.5,-21.5 401.5,-21.5 401.5,-0.5 316.5,-0.5"/>
<text text-anchor="middle" x="359" y="-8.5" font-family="FreeSans" font-size="10.00">__processflow</text>
</a>
</g>
<!-- Node4&#45;&gt;Node5 -->
<g id="edge8" class="edge"><title>Node4&#45;&gt;Node5</title>
<path fill="none" stroke="midnightblue" d="M289.957,-11C299.018,-11 308.069,-11 316.493,-11"/>
<polygon fill="midnightblue" stroke="midnightblue" points="289.755,-7.5001 279.755,-11 289.755,-14.5001 289.755,-7.5001"/>
</g>
<!-- Node6 -->
<g id="node11" class="node"><title>Node6</title>
<a xlink:href="hfa-se-flow_8c.html#a786591694a8f8fb46cedbc8a580c88f6" target="_top" xlink:title="Submitting or Polling flows from the software recently used cache IF Cache is empty, it tries to refill it.">
<polygon fill="white" stroke="black" points="438.5,-0.5 438.5,-21.5 501.5,-21.5 501.5,-0.5 438.5,-0.5"/>
<text text-anchor="middle" x="470" y="-8.5" font-family="FreeSans" font-size="10.00">do_cache</text>
</a>
</g>
<!-- Node5&#45;&gt;Node6 -->
<g id="edge10" class="edge"><title>Node5&#45;&gt;Node6</title>
<path fill="none" stroke="midnightblue" d="M411.775,-11C420.871,-11 430.066,-11 438.378,-11"/>
<polygon fill="midnightblue" stroke="midnightblue" points="411.598,-7.5001 401.598,-11 411.598,-14.5001 411.598,-7.5001"/>
</g>
<!-- Node7 -->
<g id="node13" class="node"><title>Node7</title>
<a xlink:href="hfa-se-flow_8c.html#aba72a61590283e37ffd78b4defd38220" target="_top" xlink:title="Receive network packets and process.">
<polygon fill="white" stroke="black" points="538,-0.5 538,-21.5 634,-21.5 634,-0.5 538,-0.5"/>
<text text-anchor="middle" x="586" y="-8.5" font-family="FreeSans" font-size="10.00">process_packets</text>
</a>
</g>
<!-- Node6&#45;&gt;Node7 -->
<g id="edge12" class="edge"><title>Node6&#45;&gt;Node7</title>
<path fill="none" stroke="midnightblue" d="M511.711,-11C520.17,-11 529.131,-11 537.792,-11"/>
<polygon fill="midnightblue" stroke="midnightblue" points="511.698,-7.5001 501.698,-11 511.697,-14.5001 511.698,-7.5001"/>
</g>
<!-- Node8 -->
<g id="node15" class="node"><title>Node8</title>
<a xlink:href="hfa-se-flow-wqe_8c.html#a3c04138a5bfe5d72780bb7e82a18e627" target="_top" xlink:title="Implementation.">
<polygon fill="white" stroke="black" points="670,-0.5 670,-21.5 710,-21.5 710,-0.5 670,-0.5"/>
<text text-anchor="middle" x="690" y="-8.5" font-family="FreeSans" font-size="10.00">main</text>
</a>
</g>
<!-- Node7&#45;&gt;Node8 -->
<g id="edge14" class="edge"><title>Node7&#45;&gt;Node8</title>
<path fill="none" stroke="midnightblue" d="M644.146,-11C653.414,-11 662.419,-11 669.958,-11"/>
<polygon fill="midnightblue" stroke="midnightblue" points="644.043,-7.5001 634.042,-11 644.042,-14.5001 644.043,-7.5001"/>
</g>
</g>
</svg>
