<?xml version="1.0" encoding="UTF-8" standalone="no"?>
<!DOCTYPE svg PUBLIC "-//W3C//DTD SVG 1.1//EN"
 "http://www.w3.org/Graphics/SVG/1.1/DTD/svg11.dtd">
<!-- Generated by graphviz version 2.24.0 (20090616.2323)
 -->
<!-- Title: hfaf_destroy_pktflow Pages: 1 -->
<!--zoomable 280 -->
<svg id="main" version="1.1" xmlns="http://www.w3.org/2000/svg" xmlns:xlink="http://www.w3.org/1999/xlink" xml:space="preserve" onload="init(evt)">
        <defs>
                <circle id="rim" cx="0" cy="0" r="7"/>
                <circle id="rim2" cx="0" cy="0" r="3.5"/>
                <g id="zoomPlus">
                        <use xlink:href="#rim" fill="#404040">
                                <set attributeName="fill" to="#808080" begin="zoomplus.mouseover" end="zoomplus.mouseout"/>
                        </use>
                        <path d="M-4,0h8M0,-4v8" fill="none" stroke="white" stroke-width="1.5" pointer-events="none"/>
                </g>
                <g id="zoomMin">
                        <use xlink:href="#rim" fill="#404040">
                                <set attributeName="fill" to="#808080" begin="zoomminus.mouseover" end="zoomminus.mouseout"/>
                        </use>
                        <path d="M-4,0h8" fill="none" stroke="white" stroke-width="1.5" pointer-events="none"/>
                </g>
                <g id="dirArrow">
                        <path fill="none" stroke="white" stroke-width="1.5" d="M0,-3.0v7 M-2.5,-0.5L0,-3.0L2.5,-0.5"/>
                </g>
               <g id="resetDef">
                       <use xlink:href="#rim2" fill="#404040">
                               <set attributeName="fill" to="#808080" begin="reset.mouseover" end="reset.mouseout"/>
                       </use>
               </g>
        </defs>

<script type="text/javascript">
var viewWidth = 820;
var viewHeight = 280;
var sectionId = 'dynsection-4';
</script>
<script xlink:href="svgpan.js"/>
<svg id="graph" class="graph">
<g id="viewport">
<title>hfaf_destroy_pktflow</title>
<polygon fill="white" stroke="white" points="-4,5 -4,-276 817,-276 817,5 -4,5"/>
<!-- Node1 -->
<g id="node1" class="node"><title>Node1</title>
<polygon fill="#bfbfbf" stroke="black" points="0,-211.5 0,-232.5 116,-232.5 116,-211.5 0,-211.5"/>
<text text-anchor="middle" x="58" y="-219.5" font-family="FreeSans" font-size="10.00">hfaf_destroy_pktflow</text>
</g>
<!-- Node2 -->
<g id="node3" class="node"><title>Node2</title>
<a xlink:href="flow_8h.html#afe2603c8b1fe38bb2528f405a3e8c137" target="_top" xlink:title="Calculate Array index to which received flowid should be present or added.">
<polygon fill="white" stroke="black" points="161,-250.5 161,-271.5 257,-271.5 257,-250.5 161,-250.5"/>
<text text-anchor="middle" x="209" y="-258.5" font-family="FreeSans" font-size="10.00">hfaf_get_flowidx</text>
</a>
</g>
<!-- Node1&#45;&gt;Node2 -->
<g id="edge2" class="edge"><title>Node1&#45;&gt;Node2</title>
<path fill="none" stroke="midnightblue" d="M98.8628,-232.554C117.16,-237.28 138.922,-242.9 158.25,-247.892"/>
<polygon fill="midnightblue" stroke="midnightblue" points="157.547,-251.326 168.105,-250.438 159.298,-244.548 157.547,-251.326"/>
</g>
<!-- Node3 -->
<g id="node5" class="node"><title>Node3</title>
<a xlink:href="cvm-hfa-osapi_8h.html#acacbbbac0cb1e827a08946bcdf13209b" target="_top" xlink:title="hfa_os_listdel">
<polygon fill="white" stroke="black" points="347.5,-212.5 347.5,-233.5 428.5,-233.5 428.5,-212.5 347.5,-212.5"/>
<text text-anchor="middle" x="388" y="-220.5" font-family="FreeSans" font-size="10.00">hfa_os_listdel</text>
</a>
</g>
<!-- Node1&#45;&gt;Node3 -->
<g id="edge4" class="edge"><title>Node1&#45;&gt;Node3</title>
<path fill="none" stroke="midnightblue" d="M116.238,-222.176C178.902,-222.366 277.57,-222.665 337.194,-222.846"/>
<polygon fill="midnightblue" stroke="midnightblue" points="337.485,-226.347 347.495,-222.877 337.506,-219.347 337.485,-226.347"/>
</g>
<!-- Node5 -->
<g id="node9" class="node"><title>Node5</title>
<a xlink:href="flow_8c.html#a696ee2b7ad7078c47242360be84d89bf" target="_top" xlink:title="Counterpart of __hfaf_create_flow.">
<polygon fill="white" stroke="black" points="152.5,-172.5 152.5,-193.5 265.5,-193.5 265.5,-172.5 152.5,-172.5"/>
<text text-anchor="middle" x="209" y="-180.5" font-family="FreeSans" font-size="10.00">__hfaf_destroy_flow</text>
</a>
</g>
<!-- Node1&#45;&gt;Node5 -->
<g id="edge8" class="edge"><title>Node1&#45;&gt;Node5</title>
<path fill="none" stroke="midnightblue" d="M98.8628,-211.446C117.16,-206.72 138.922,-201.1 158.25,-196.108"/>
<polygon fill="midnightblue" stroke="midnightblue" points="159.298,-199.452 168.105,-193.562 157.547,-192.674 159.298,-199.452"/>
</g>
<!-- Node4 -->
<g id="node7" class="node"><title>Node4</title>
<a xlink:href="cvm-hfa-osapi_8h.html#a8f7a99f931e344eaaf9dd1fadd341a46" target="_top" xlink:title="__hfa_os_listdel">
<polygon fill="white" stroke="black" points="531.5,-212.5 531.5,-233.5 622.5,-233.5 622.5,-212.5 531.5,-212.5"/>
<text text-anchor="middle" x="577" y="-220.5" font-family="FreeSans" font-size="10.00">__hfa_os_listdel</text>
</a>
</g>
<!-- Node3&#45;&gt;Node4 -->
<g id="edge6" class="edge"><title>Node3&#45;&gt;Node4</title>
<path fill="none" stroke="midnightblue" d="M428.545,-223C455.518,-223 491.311,-223 520.993,-223"/>
<polygon fill="midnightblue" stroke="midnightblue" points="521.213,-226.5 531.213,-223 521.213,-219.5 521.213,-226.5"/>
</g>
<!-- Node5&#45;&gt;Node3 -->
<g id="edge10" class="edge"><title>Node5&#45;&gt;Node3</title>
<path fill="none" stroke="midnightblue" d="M256.03,-193.51C281.086,-199.109 311.923,-206 337.486,-211.712"/>
<polygon fill="midnightblue" stroke="midnightblue" points="336.839,-215.154 347.361,-213.919 338.365,-208.322 336.839,-215.154"/>
</g>
<!-- Node6 -->
<g id="node12" class="node"><title>Node6</title>
<a xlink:href="cvm-hfa-search_8c.html#a6a8e1d7e70e0a10520302df5651e5fc5" target="_top" xlink:title="This routine provides the status of an outstanding pattern search operation initiated using hfa_searc...">
<polygon fill="white" stroke="black" points="302,-172.5 302,-193.5 474,-193.5 474,-172.5 302,-172.5"/>
<text text-anchor="middle" x="388" y="-180.5" font-family="FreeSans" font-size="10.00">hfa_searchctx_get_searchstatus</text>
</a>
</g>
<!-- Node5&#45;&gt;Node6 -->
<g id="edge12" class="edge"><title>Node5&#45;&gt;Node6</title>
<path fill="none" stroke="midnightblue" d="M265.637,-183C274.046,-183 282.905,-183 291.852,-183"/>
<polygon fill="midnightblue" stroke="midnightblue" points="291.974,-186.5 301.973,-183 291.973,-179.5 291.974,-186.5"/>
</g>
<!-- Node10 -->
<g id="node20" class="node"><title>Node10</title>
<a xlink:href="cvm-hfa-search_8c.html#a30064f173d814bd3791b59d675c2f45f" target="_top" xlink:title="This routine cleans&#45;up a Search Context.">
<polygon fill="white" stroke="black" points="312,-92.5 312,-113.5 464,-113.5 464,-92.5 312,-92.5"/>
<text text-anchor="middle" x="388" y="-100.5" font-family="FreeSans" font-size="10.00">hfa_dev_searchctx_cleanup</text>
</a>
</g>
<!-- Node5&#45;&gt;Node10 -->
<g id="edge20" class="edge"><title>Node5&#45;&gt;Node10</title>
<path fill="none" stroke="midnightblue" d="M232.77,-172.377C264.151,-158.352 319.559,-133.588 354.99,-117.753"/>
<polygon fill="midnightblue" stroke="midnightblue" points="356.715,-120.816 364.417,-113.54 353.859,-114.425 356.715,-120.816"/>
</g>
<!-- Node7 -->
<g id="node14" class="node"><title>Node7</title>
<a xlink:href="cvm-hfa_8c.html#a4753d2dd586e19676b1a59dd16baaeed" target="_top" xlink:title="Obtain status of submitted insruction.">
<polygon fill="white" stroke="black" points="510.5,-172.5 510.5,-193.5 643.5,-193.5 643.5,-172.5 510.5,-172.5"/>
<text text-anchor="middle" x="577" y="-180.5" font-family="FreeSans" font-size="10.00">hfa_dev_getasyncstatus</text>
</a>
</g>
<!-- Node6&#45;&gt;Node7 -->
<g id="edge14" class="edge"><title>Node6&#45;&gt;Node7</title>
<path fill="none" stroke="midnightblue" d="M474.204,-183C482.951,-183 491.793,-183 500.428,-183"/>
<polygon fill="midnightblue" stroke="midnightblue" points="500.452,-186.5 510.452,-183 500.452,-179.5 500.452,-186.5"/>
</g>
<!-- Node8 -->
<g id="node16" class="node"><title>Node8</title>
<a xlink:href="cvm-hfa-instr_8h.html#a56f2522dcba965745a1bc239fc432dca" target="_top" xlink:title="Gets done from RWORD0.">
<polygon fill="white" stroke="black" points="684.5,-212.5 684.5,-233.5 807.5,-233.5 807.5,-212.5 684.5,-212.5"/>
<text text-anchor="middle" x="746" y="-220.5" font-family="FreeSans" font-size="10.00">cvm_hfa_rslt_getdone</text>
</a>
</g>
<!-- Node7&#45;&gt;Node8 -->
<g id="edge16" class="edge"><title>Node7&#45;&gt;Node8</title>
<path fill="none" stroke="midnightblue" d="M621.403,-193.51C642.956,-198.611 669.04,-204.785 691.76,-210.162"/>
<polygon fill="midnightblue" stroke="midnightblue" points="691.063,-213.594 701.601,-212.491 692.676,-206.782 691.063,-213.594"/>
</g>
<!-- Node9 -->
<g id="node18" class="node"><title>Node9</title>
<a xlink:href="cvm-hfa-instr_8h.html#a9700a50b68b6616506528eb725a8bda1" target="_top" xlink:title="Gets reason from RWORD0.">
<polygon fill="white" stroke="black" points="680.5,-172.5 680.5,-193.5 811.5,-193.5 811.5,-172.5 680.5,-172.5"/>
<text text-anchor="middle" x="746" y="-180.5" font-family="FreeSans" font-size="10.00">cvm_hfa_rslt_getreason</text>
</a>
</g>
<!-- Node7&#45;&gt;Node9 -->
<g id="edge18" class="edge"><title>Node7&#45;&gt;Node9</title>
<path fill="none" stroke="midnightblue" d="M643.793,-183C652.414,-183 661.292,-183 670.047,-183"/>
<polygon fill="midnightblue" stroke="midnightblue" points="670.244,-186.5 680.244,-183 670.244,-179.5 670.244,-186.5"/>
</g>
<!-- Node11 -->
<g id="node22" class="node"><title>Node11</title>
<a xlink:href="cvm-hfa-pp_8c.html#add6064138ec2e35741929056a0992d8d" target="_top" xlink:title="ppgetstats">
<polygon fill="white" stroke="black" points="544,-132.5 544,-153.5 610,-153.5 610,-132.5 544,-132.5"/>
<text text-anchor="middle" x="577" y="-140.5" font-family="FreeSans" font-size="10.00">ppgetstats</text>
</a>
</g>
<!-- Node10&#45;&gt;Node11 -->
<g id="edge22" class="edge"><title>Node10&#45;&gt;Node11</title>
<path fill="none" stroke="midnightblue" d="M437.658,-113.51C467.464,-119.818 505.019,-127.766 533.629,-133.821"/>
<polygon fill="midnightblue" stroke="midnightblue" points="533.226,-137.313 543.734,-135.96 534.675,-130.465 533.226,-137.313"/>
</g>
<!-- Node13 -->
<g id="node26" class="node"><title>Node13</title>
<a xlink:href="cvm-hfa-pp_8c.html#a57ec655c9bdb6ce63ada6767c7e14763" target="_top" xlink:title="ppcleanstats">
<polygon fill="white" stroke="black" points="538.5,-92.5 538.5,-113.5 615.5,-113.5 615.5,-92.5 538.5,-92.5"/>
<text text-anchor="middle" x="577" y="-100.5" font-family="FreeSans" font-size="10.00">ppcleanstats</text>
</a>
</g>
<!-- Node10&#45;&gt;Node13 -->
<g id="edge26" class="edge"><title>Node10&#45;&gt;Node13</title>
<path fill="none" stroke="midnightblue" d="M464.057,-103C485.707,-103 508.7,-103 528.251,-103"/>
<polygon fill="midnightblue" stroke="midnightblue" points="528.43,-106.5 538.43,-103 528.43,-99.5001 528.43,-106.5"/>
</g>
<!-- Node15 -->
<g id="node30" class="node"><title>Node15</title>
<a xlink:href="cvm-hfa-pp_8c.html#a41ce9d3103c639e474783d3843e09071" target="_top" xlink:title="ppcleanup">
<polygon fill="white" stroke="black" points="544,-52.5 544,-73.5 610,-73.5 610,-52.5 544,-52.5"/>
<text text-anchor="middle" x="577" y="-60.5" font-family="FreeSans" font-size="10.00">ppcleanup</text>
</a>
</g>
<!-- Node10&#45;&gt;Node15 -->
<g id="edge30" class="edge"><title>Node10&#45;&gt;Node15</title>
<path fill="none" stroke="midnightblue" d="M437.658,-92.4905C467.464,-86.1822 505.019,-78.234 533.629,-72.179"/>
<polygon fill="midnightblue" stroke="midnightblue" points="534.675,-75.5352 543.734,-70.0405 533.226,-68.6869 534.675,-75.5352"/>
</g>
<!-- Node17 -->
<g id="node34" class="node"><title>Node17</title>
<a xlink:href="cvm-hfa-stats_8c.html#a2df4c76e04e7b028ed2df4bba1b2de3d" target="_top" xlink:title="This routine is the counterpart of hfa_searchctx_init_stats().">
<polygon fill="white" stroke="black" points="520.5,-0 520.5,-34 633.5,-34 633.5,-0 520.5,-0"/>
<text text-anchor="start" x="528.5" y="-21" font-family="FreeSans" font-size="10.00">hfa_searchctx_stats</text>
<text text-anchor="middle" x="577" y="-8" font-family="FreeSans" font-size="10.00">_cleanup</text>
</a>
</g>
<!-- Node10&#45;&gt;Node17 -->
<g id="edge34" class="edge"><title>Node10&#45;&gt;Node17</title>
<path fill="none" stroke="midnightblue" d="M408.038,-92.4762C432.005,-80.0457 473.474,-59.0328 510,-43 513.856,-41.3075 517.86,-39.6093 521.905,-37.9365"/>
<polygon fill="midnightblue" stroke="midnightblue" points="523.422,-41.0982 531.371,-34.0935 520.789,-34.6123 523.422,-41.0982"/>
</g>
<!-- Node12 -->
<g id="node24" class="node"><title>Node12</title>
<a xlink:href="pp_8h.html#a808d5057ee5670ce724a6a88fc22b799" target="_top" xlink:title="pphfa_getstats">
<polygon fill="white" stroke="black" points="702.5,-132.5 702.5,-153.5 789.5,-153.5 789.5,-132.5 702.5,-132.5"/>
<text text-anchor="middle" x="746" y="-140.5" font-family="FreeSans" font-size="10.00">pphfa_getstats</text>
</a>
</g>
<!-- Node11&#45;&gt;Node12 -->
<g id="edge24" class="edge"><title>Node11&#45;&gt;Node12</title>
<path fill="none" stroke="midnightblue" d="M610.389,-143C633.761,-143 665.488,-143 692.378,-143"/>
<polygon fill="midnightblue" stroke="midnightblue" points="692.42,-146.5 702.42,-143 692.42,-139.5 692.42,-146.5"/>
</g>
<!-- Node14 -->
<g id="node28" class="node"><title>Node14</title>
<a xlink:href="pp_8h.html#a978b171bd7a736cb7fa0d5d034aa94e2" target="_top" xlink:title="pphfa_cleanstats">
<polygon fill="white" stroke="black" points="697,-92.5 697,-113.5 795,-113.5 795,-92.5 697,-92.5"/>
<text text-anchor="middle" x="746" y="-100.5" font-family="FreeSans" font-size="10.00">pphfa_cleanstats</text>
</a>
</g>
<!-- Node13&#45;&gt;Node14 -->
<g id="edge28" class="edge"><title>Node13&#45;&gt;Node14</title>
<path fill="none" stroke="midnightblue" d="M615.772,-103C636.739,-103 663.082,-103 686.58,-103"/>
<polygon fill="midnightblue" stroke="midnightblue" points="686.798,-106.5 696.798,-103 686.798,-99.5001 686.798,-106.5"/>
</g>
<!-- Node16 -->
<g id="node32" class="node"><title>Node16</title>
<a xlink:href="pp_8h.html#a428ad073d1fd72da37ab8b00f13693a3" target="_top" xlink:title="pphfa_cleanup">
<polygon fill="white" stroke="black" points="702.5,-52.5 702.5,-73.5 789.5,-73.5 789.5,-52.5 702.5,-52.5"/>
<text text-anchor="middle" x="746" y="-60.5" font-family="FreeSans" font-size="10.00">pphfa_cleanup</text>
</a>
</g>
<!-- Node15&#45;&gt;Node16 -->
<g id="edge32" class="edge"><title>Node15&#45;&gt;Node16</title>
<path fill="none" stroke="midnightblue" d="M610.389,-63C633.761,-63 665.488,-63 692.378,-63"/>
<polygon fill="midnightblue" stroke="midnightblue" points="692.42,-66.5001 702.42,-63 692.42,-59.5001 692.42,-66.5001"/>
</g>
<!-- Node18 -->
<g id="node36" class="node"><title>Node18</title>
<a xlink:href="cvm-hfa-stats_8c.html#a7a2acbe48c3850d43256938ee996aa16" target="_top" xlink:title="This routine frees memory to STATS ARENA.">
<polygon fill="white" stroke="black" points="683.5,-6.5 683.5,-27.5 808.5,-27.5 808.5,-6.5 683.5,-6.5"/>
<text text-anchor="middle" x="746" y="-14.5" font-family="FreeSans" font-size="10.00">hfa_stats_memoryfree</text>
</a>
</g>
<!-- Node17&#45;&gt;Node18 -->
<g id="edge36" class="edge"><title>Node17&#45;&gt;Node18</title>
<path fill="none" stroke="midnightblue" d="M633.745,-17C646.429,-17 660.053,-17 673.283,-17"/>
<polygon fill="midnightblue" stroke="midnightblue" points="673.301,-20.5001 683.301,-17 673.301,-13.5001 673.301,-20.5001"/>
</g>
</g>
</svg>
        <g id="navigator" transform="translate(0 0)" fill="#404254">
                <rect fill="#f2f5e9" fill-opacity="0.5" stroke="#606060" stroke-width=".5" x="0" y="0" width="60" height="60"/>
                <use id="zoomplus" xlink:href="#zoomPlus" x="17" y="9" onmousedown="handleZoom(evt,'in')"/>
                <use id="zoomminus" xlink:href="#zoomMin" x="42" y="9" onmousedown="handleZoom(evt,'out')"/>
                <use id="reset" xlink:href="#resetDef" x="30" y="36" onmousedown="handleReset()"/>
                <g id="arrowUp" xlink:href="#dirArrow" transform="translate(30 24)" onmousedown="handlePan(0,-1)">
                  <use xlink:href="#rim" fill="#404040">
                        <set attributeName="fill" to="#808080" begin="arrowUp.mouseover" end="arrowUp.mouseout"/>
                  </use>
                  <path fill="none" stroke="white" stroke-width="1.5" d="M0,-3.0v7 M-2.5,-0.5L0,-3.0L2.5,-0.5"/>
                </g>
                <g id="arrowRight" xlink:href="#dirArrow" transform="rotate(90) translate(36 -43)" onmousedown="handlePan(1,0)">
                  <use xlink:href="#rim" fill="#404040">
                        <set attributeName="fill" to="#808080" begin="arrowRight.mouseover" end="arrowRight.mouseout"/>
                  </use>
                  <path fill="none" stroke="white" stroke-width="1.5" d="M0,-3.0v7 M-2.5,-0.5L0,-3.0L2.5,-0.5"/>
                </g>
                <g id="arrowDown" xlink:href="#dirArrow" transform="rotate(180) translate(-30 -48)" onmousedown="handlePan(0,1)">
                  <use xlink:href="#rim" fill="#404040">
                        <set attributeName="fill" to="#808080" begin="arrowDown.mouseover" end="arrowDown.mouseout"/>
                  </use>
                  <path fill="none" stroke="white" stroke-width="1.5" d="M0,-3.0v7 M-2.5,-0.5L0,-3.0L2.5,-0.5"/>
                </g>
                <g id="arrowLeft" xlink:href="#dirArrow" transform="rotate(270) translate(-36 17)" onmousedown="handlePan(-1,0)">
                  <use xlink:href="#rim" fill="#404040">
                        <set attributeName="fill" to="#808080" begin="arrowLeft.mouseover" end="arrowLeft.mouseout"/>
                  </use>
                  <path fill="none" stroke="white" stroke-width="1.5" d="M0,-3.0v7 M-2.5,-0.5L0,-3.0L2.5,-0.5"/>
                </g>
        </g>
        <svg viewBox="0 0 15 15" width="100%" height="30px" preserveAspectRatio="xMaxYMin meet">
         <g id="arrow_out" transform="scale(0.3 0.3)">
          <a xlink:href="flow_8h_a8d99fe33dc3203530d360196cc7decb4_cgraph_org.svg" target="_base">
           <rect id="button" ry="5" rx="5" y="6" x="6" height="38" width="38"
                fill="#f2f5e9" fill-opacity="0.5" stroke="#606060" stroke-width="1.0"/>
           <path id="arrow"
             d="M 11.500037,31.436501 C 11.940474,20.09759 22.043105,11.32322 32.158766,21.979434 L 37.068811,17.246167 C 37.068811,17.246167 37.088388,32 37.088388,32 L 22.160133,31.978069 C 22.160133,31.978069 26.997745,27.140456 26.997745,27.140456 C 18.528582,18.264221 13.291696,25.230495 11.500037,31.436501 z"
             style="fill:#404040;"/>
          </a>
         </g>
        </svg>
</svg>
