<?xml version="1.0" encoding="UTF-8" standalone="no"?>
<!DOCTYPE svg PUBLIC "-//W3C//DTD SVG 1.1//EN"
 "http://www.w3.org/Graphics/SVG/1.1/DTD/svg11.dtd">
<!-- Generated by graphviz version 2.24.0 (20090616.2323)
 -->
<!-- Title: hfaf_process_pktflow Pages: 1 -->
<!--zoomable 784 -->
<svg id="main" version="1.1" xmlns="http://www.w3.org/2000/svg" xmlns:xlink="http://www.w3.org/1999/xlink" xml:space="preserve" onload="init(evt)">
        <defs>
                <circle id="rim" cx="0" cy="0" r="7"/>
                <circle id="rim2" cx="0" cy="0" r="3.5"/>
                <g id="zoomPlus">
                        <use xlink:href="#rim" fill="#404040">
                                <set attributeName="fill" to="#808080" begin="zoomplus.mouseover" end="zoomplus.mouseout"/>
                        </use>
                        <path d="M-4,0h8M0,-4v8" fill="none" stroke="white" stroke-width="1.5" pointer-events="none"/>
                </g>
                <g id="zoomMin">
                        <use xlink:href="#rim" fill="#404040">
                                <set attributeName="fill" to="#808080" begin="zoomminus.mouseover" end="zoomminus.mouseout"/>
                        </use>
                        <path d="M-4,0h8" fill="none" stroke="white" stroke-width="1.5" pointer-events="none"/>
                </g>
                <g id="dirArrow">
                        <path fill="none" stroke="white" stroke-width="1.5" d="M0,-3.0v7 M-2.5,-0.5L0,-3.0L2.5,-0.5"/>
                </g>
               <g id="resetDef">
                       <use xlink:href="#rim2" fill="#404040">
                               <set attributeName="fill" to="#808080" begin="reset.mouseover" end="reset.mouseout"/>
                       </use>
               </g>
        </defs>

<script type="text/javascript">
var viewWidth = 1500;
var viewHeight = 784;
var sectionId = 'dynsection-12';
</script>
<script xlink:href="svgpan.js"/>
<svg id="graph" class="graph">
<g id="viewport">
<title>hfaf_process_pktflow</title>
<polygon fill="white" stroke="white" points="-4,5 -4,-780 1497,-780 1497,5 -4,5"/>
<!-- Node1 -->
<g id="node1" class="node"><title>Node1</title>
<polygon fill="#bfbfbf" stroke="black" points="0.5,-47.5 0.5,-68.5 119.5,-68.5 119.5,-47.5 0.5,-47.5"/>
<text text-anchor="middle" x="60" y="-55.5" font-family="FreeSans" font-size="10.00">hfaf_process_pktflow</text>
</g>
<!-- Node2 -->
<g id="node3" class="node"><title>Node2</title>
<a xlink:href="flow_8c.html#a2976ab60901b133a56214323fb901663" target="_top" xlink:title="Low level API to poll a flow.">
<polygon fill="white" stroke="black" points="156.5,-67.5 156.5,-88.5 285.5,-88.5 285.5,-67.5 156.5,-67.5"/>
<text text-anchor="middle" x="221" y="-75.5" font-family="FreeSans" font-size="10.00">__hfaf_process_pktflow</text>
</a>
</g>
<!-- Node1&#45;&gt;Node2 -->
<g id="edge2" class="edge"><title>Node1&#45;&gt;Node2</title>
<path fill="none" stroke="midnightblue" d="M119.95,-65.4473C128.59,-66.5205 137.567,-67.6357 146.448,-68.7389"/>
<polygon fill="midnightblue" stroke="midnightblue" points="146.055,-72.2169 156.41,-69.9764 146.918,-65.2703 146.055,-72.2169"/>
</g>
<!-- Node50 -->
<g id="node102" class="node"><title>Node50</title>
<a xlink:href="flow_8c.html#a5034d9a3ed0a1dac918c6a8d84fae8c6" target="_top" xlink:title="Low level API to submit search parameter to flow.">
<polygon fill="white" stroke="black" points="159.5,-27.5 159.5,-48.5 282.5,-48.5 282.5,-27.5 159.5,-27.5"/>
<text text-anchor="middle" x="221" y="-35.5" font-family="FreeSans" font-size="10.00">__hfaf_submit_pktflow</text>
</a>
</g>
<!-- Node1&#45;&gt;Node50 -->
<g id="edge104" class="edge"><title>Node1&#45;&gt;Node50</title>
<path fill="none" stroke="midnightblue" d="M119.95,-50.5527C129.505,-49.3658 139.474,-48.1274 149.268,-46.9108"/>
<polygon fill="midnightblue" stroke="midnightblue" points="149.894,-50.36 159.386,-45.6539 149.031,-43.4134 149.894,-50.36"/>
</g>
<!-- Node3 -->
<g id="node5" class="node"><title>Node3</title>
<a xlink:href="cvm-hfa-search_8c.html#a6a8e1d7e70e0a10520302df5651e5fc5" target="_top" xlink:title="This routine provides the status of an outstanding pattern search operation initiated using hfa_searc...">
<polygon fill="white" stroke="black" points="982,-88.5 982,-109.5 1154,-109.5 1154,-88.5 982,-88.5"/>
<text text-anchor="middle" x="1068" y="-96.5" font-family="FreeSans" font-size="10.00">hfa_searchctx_get_searchstatus</text>
</a>
</g>
<!-- Node2&#45;&gt;Node3 -->
<g id="edge4" class="edge"><title>Node2&#45;&gt;Node3</title>
<path fill="none" stroke="midnightblue" d="M285.693,-78C352.415,-78 459.481,-78 552,-78 552,-78 552,-78 757,-78 829.152,-78 910.505,-83.6961 971.906,-89.1552"/>
<polygon fill="midnightblue" stroke="midnightblue" points="971.695,-92.6503 981.969,-90.0637 972.325,-85.6787 971.695,-92.6503"/>
</g>
<!-- Node7 -->
<g id="node13" class="node"><title>Node7</title>
<a xlink:href="cvm-hfa-osapi_8h.html#acacbbbac0cb1e827a08946bcdf13209b" target="_top" xlink:title="hfa_os_listdel">
<polygon fill="white" stroke="black" points="355.5,-28.5 355.5,-49.5 436.5,-49.5 436.5,-28.5 355.5,-28.5"/>
<text text-anchor="middle" x="396" y="-36.5" font-family="FreeSans" font-size="10.00">hfa_os_listdel</text>
</a>
</g>
<!-- Node2&#45;&gt;Node7 -->
<g id="edge12" class="edge"><title>Node2&#45;&gt;Node7</title>
<path fill="none" stroke="midnightblue" d="M268.358,-67.446C292.29,-62.1126 321.337,-55.6392 345.672,-50.2159"/>
<polygon fill="midnightblue" stroke="midnightblue" points="346.437,-53.6313 355.437,-48.0398 344.915,-46.7989 346.437,-53.6313"/>
</g>
<!-- Node9 -->
<g id="node17" class="node"><title>Node9</title>
<a xlink:href="cvm-hfa-search_8h.html#ab50a2d84e35b5a4a03a23fc90e4dffa0" target="_top" xlink:title="This routine retrieves the reason code after a search operation has been completed by the HFA engine...">
<polygon fill="white" stroke="black" points="822,-674 822,-708 944,-708 944,-674 822,-674"/>
<text text-anchor="start" x="830" y="-695" font-family="FreeSans" font-size="10.00">hfa_searchparam_get</text>
<text text-anchor="middle" x="883" y="-682" font-family="FreeSans" font-size="10.00">_hwsearch_reason</text>
</a>
</g>
<!-- Node2&#45;&gt;Node9 -->
<g id="edge16" class="edge"><title>Node2&#45;&gt;Node9</title>
<path fill="none" stroke="midnightblue" d="M222.72,-88.5373C234.902,-159.171 314.635,-561 552,-561 552,-561 552,-561 664,-561 747.328,-561 746.465,-625.805 820,-665 823.015,-666.607 826.151,-668.182 829.343,-669.713"/>
<polygon fill="midnightblue" stroke="midnightblue" points="827.884,-672.894 838.432,-673.895 830.811,-666.535 827.884,-672.894"/>
</g>
<!-- Node10 -->
<g id="node19" class="node"><title>Node10</title>
<a xlink:href="cvm-hfa-search_8c.html#a6dbb15dc58155b2c94b19784ad42ef89" target="_top" xlink:title="This routine post&#45;processes the search results from the HFA engine and reports the pattern matches fo...">
<polygon fill="white" stroke="black" points="322.5,-282.5 322.5,-303.5 469.5,-303.5 469.5,-282.5 322.5,-282.5"/>
<text text-anchor="middle" x="396" y="-290.5" font-family="FreeSans" font-size="10.00">hfa_searchctx_getmatches</text>
</a>
</g>
<!-- Node2&#45;&gt;Node10 -->
<g id="edge18" class="edge"><title>Node2&#45;&gt;Node10</title>
<path fill="none" stroke="midnightblue" d="M229.678,-88.6619C257.61,-122.978 345.421,-230.861 380.904,-274.453"/>
<polygon fill="midnightblue" stroke="midnightblue" points="378.242,-276.728 387.269,-282.274 383.671,-272.309 378.242,-276.728"/>
</g>
<!-- Node4 -->
<g id="node7" class="node"><title>Node4</title>
<a xlink:href="cvm-hfa_8c.html#a4753d2dd586e19676b1a59dd16baaeed" target="_top" xlink:title="Obtain status of submitted insruction.">
<polygon fill="white" stroke="black" points="1190.5,-88.5 1190.5,-109.5 1323.5,-109.5 1323.5,-88.5 1190.5,-88.5"/>
<text text-anchor="middle" x="1257" y="-96.5" font-family="FreeSans" font-size="10.00">hfa_dev_getasyncstatus</text>
</a>
</g>
<!-- Node3&#45;&gt;Node4 -->
<g id="edge6" class="edge"><title>Node3&#45;&gt;Node4</title>
<path fill="none" stroke="midnightblue" d="M1154.2,-99C1162.95,-99 1171.79,-99 1180.43,-99"/>
<polygon fill="midnightblue" stroke="midnightblue" points="1180.45,-102.5 1190.45,-99 1180.45,-95.5001 1180.45,-102.5"/>
</g>
<!-- Node5 -->
<g id="node9" class="node"><title>Node5</title>
<a xlink:href="cvm-hfa-instr_8h.html#a56f2522dcba965745a1bc239fc432dca" target="_top" xlink:title="Gets done from RWORD0.">
<polygon fill="white" stroke="black" points="1364.5,-108.5 1364.5,-129.5 1487.5,-129.5 1487.5,-108.5 1364.5,-108.5"/>
<text text-anchor="middle" x="1426" y="-116.5" font-family="FreeSans" font-size="10.00">cvm_hfa_rslt_getdone</text>
</a>
</g>
<!-- Node4&#45;&gt;Node5 -->
<g id="edge8" class="edge"><title>Node4&#45;&gt;Node5</title>
<path fill="none" stroke="midnightblue" d="M1323.79,-106.905C1333.83,-108.092 1344.21,-109.321 1354.34,-110.519"/>
<polygon fill="midnightblue" stroke="midnightblue" points="1354.02,-114.006 1364.36,-111.706 1354.84,-107.055 1354.02,-114.006"/>
</g>
<!-- Node6 -->
<g id="node11" class="node"><title>Node6</title>
<a xlink:href="cvm-hfa-instr_8h.html#a9700a50b68b6616506528eb725a8bda1" target="_top" xlink:title="Gets reason from RWORD0.">
<polygon fill="white" stroke="black" points="1360.5,-68.5 1360.5,-89.5 1491.5,-89.5 1491.5,-68.5 1360.5,-68.5"/>
<text text-anchor="middle" x="1426" y="-76.5" font-family="FreeSans" font-size="10.00">cvm_hfa_rslt_getreason</text>
</a>
</g>
<!-- Node4&#45;&gt;Node6 -->
<g id="edge10" class="edge"><title>Node4&#45;&gt;Node6</title>
<path fill="none" stroke="midnightblue" d="M1323.79,-91.0955C1332.41,-90.0753 1341.29,-89.0246 1350.05,-87.9885"/>
<polygon fill="midnightblue" stroke="midnightblue" points="1350.73,-91.4328 1360.24,-86.7817 1349.9,-84.4813 1350.73,-91.4328"/>
</g>
<!-- Node8 -->
<g id="node15" class="node"><title>Node8</title>
<a xlink:href="cvm-hfa-osapi_8h.html#a8f7a99f931e344eaaf9dd1fadd341a46" target="_top" xlink:title="__hfa_os_listdel">
<polygon fill="white" stroke="black" points="506.5,-28.5 506.5,-49.5 597.5,-49.5 597.5,-28.5 506.5,-28.5"/>
<text text-anchor="middle" x="552" y="-36.5" font-family="FreeSans" font-size="10.00">__hfa_os_listdel</text>
</a>
</g>
<!-- Node7&#45;&gt;Node8 -->
<g id="edge14" class="edge"><title>Node7&#45;&gt;Node8</title>
<path fill="none" stroke="midnightblue" d="M436.58,-39C454.8,-39 476.59,-39 496.304,-39"/>
<polygon fill="midnightblue" stroke="midnightblue" points="496.394,-42.5001 506.394,-39 496.394,-35.5001 496.394,-42.5001"/>
</g>
<!-- Node11 -->
<g id="node21" class="node"><title>Node11</title>
<a xlink:href="cvm-hfa-common_8h.html#a0da7c57174fb96d75ae9cc2ed3116a05" target="_top" xlink:title="Dump buffer pointed by &quot;buf&quot; in readable format.">
<polygon fill="white" stroke="black" points="509,-302.5 509,-323.5 595,-323.5 595,-302.5 509,-302.5"/>
<text text-anchor="middle" x="552" y="-310.5" font-family="FreeSans" font-size="10.00">hfa_dump_buf</text>
</a>
</g>
<!-- Node10&#45;&gt;Node11 -->
<g id="edge20" class="edge"><title>Node10&#45;&gt;Node11</title>
<path fill="none" stroke="midnightblue" d="M469.888,-302.473C479.72,-303.733 489.639,-305.005 499.019,-306.208"/>
<polygon fill="midnightblue" stroke="midnightblue" points="498.591,-309.681 508.955,-307.481 499.481,-302.738 498.591,-309.681"/>
</g>
<!-- Node12 -->
<g id="node23" class="node"><title>Node12</title>
<a xlink:href="cvm-hfa-pp_8c.html#a02d24f276578f8a39a93968262a08f1d" target="_top" xlink:title="pp">
<polygon fill="white" stroke="black" points="537.5,-262.5 537.5,-283.5 566.5,-283.5 566.5,-262.5 537.5,-262.5"/>
<text text-anchor="middle" x="552" y="-270.5" font-family="FreeSans" font-size="10.00">pp</text>
</a>
</g>
<!-- Node10&#45;&gt;Node12 -->
<g id="edge22" class="edge"><title>Node10&#45;&gt;Node12</title>
<path fill="none" stroke="midnightblue" d="M469.888,-283.527C490.421,-280.895 511.334,-278.214 526.916,-276.216"/>
<polygon fill="midnightblue" stroke="midnightblue" points="527.765,-279.636 537.238,-274.893 526.874,-272.693 527.765,-279.636"/>
</g>
<!-- Node13 -->
<g id="node25" class="node"><title>Node13</title>
<a xlink:href="pp_8h.html#af7a68f9e08d3b54012ad008a4f47e1cd" target="_top" xlink:title="pphfa">
<polygon fill="white" stroke="black" points="642,-222.5 642,-243.5 686,-243.5 686,-222.5 642,-222.5"/>
<text text-anchor="middle" x="664" y="-230.5" font-family="FreeSans" font-size="10.00">pphfa</text>
</a>
</g>
<!-- Node12&#45;&gt;Node13 -->
<g id="edge24" class="edge"><title>Node12&#45;&gt;Node13</title>
<path fill="none" stroke="midnightblue" d="M566.642,-267.771C583.199,-261.857 610.655,-252.052 632.196,-244.359"/>
<polygon fill="midnightblue" stroke="midnightblue" points="633.377,-247.653 641.617,-240.994 631.022,-241.061 633.377,-247.653"/>
</g>
<!-- Node14 -->
<g id="node27" class="node"><title>Node14</title>
<a xlink:href="cvm-hfa-res_8c.html#ad0de0b790a5786053d59797884dbdd23" target="_top" xlink:title="Rinit">
<polygon fill="white" stroke="black" points="646,-182.5 646,-203.5 682,-203.5 682,-182.5 646,-182.5"/>
<text text-anchor="middle" x="664" y="-190.5" font-family="FreeSans" font-size="10.00">Rinit</text>
</a>
</g>
<!-- Node12&#45;&gt;Node14 -->
<g id="edge26" class="edge"><title>Node12&#45;&gt;Node14</title>
<path fill="none" stroke="midnightblue" d="M566.085,-262.404C582.314,-250.265 609.851,-229.872 634,-213 635.655,-211.844 637.369,-210.661 639.101,-209.478"/>
<polygon fill="midnightblue" stroke="midnightblue" points="641.385,-212.159 647.72,-203.666 637.472,-206.355 641.385,-212.159"/>
</g>
<!-- Node15 -->
<g id="node29" class="node"><title>Node15</title>
<a xlink:href="cvm-hfa-pp_8c.html#adcc1149c628372e2e566c246870929cb" target="_top" xlink:title="infoentry">
<polygon fill="white" stroke="black" points="634.5,-342.5 634.5,-363.5 693.5,-363.5 693.5,-342.5 634.5,-342.5"/>
<text text-anchor="middle" x="664" y="-350.5" font-family="FreeSans" font-size="10.00">infoentry</text>
</a>
</g>
<!-- Node12&#45;&gt;Node15 -->
<g id="edge28" class="edge"><title>Node12&#45;&gt;Node15</title>
<path fill="none" stroke="midnightblue" d="M566.511,-277.502C576.007,-280.868 588.389,-286.08 598,-293 617.409,-306.976 615.909,-317.356 634,-333 635.335,-334.154 636.739,-335.297 638.182,-336.416"/>
<polygon fill="midnightblue" stroke="midnightblue" points="636.48,-339.503 646.643,-342.495 640.564,-333.818 636.48,-339.503"/>
</g>
<!-- Node47 -->
<g id="node96" class="node"><title>Node47</title>
<a xlink:href="cvm-hfa-res_8c.html#a6c56aa24fa6551b23e4283ae2d5bcad8" target="_top" xlink:title="Rreport1">
<polygon fill="white" stroke="black" points="635.5,-302.5 635.5,-323.5 692.5,-323.5 692.5,-302.5 635.5,-302.5"/>
<text text-anchor="middle" x="664" y="-310.5" font-family="FreeSans" font-size="10.00">Rreport1</text>
</a>
</g>
<!-- Node12&#45;&gt;Node47 -->
<g id="edge98" class="edge"><title>Node12&#45;&gt;Node47</title>
<path fill="none" stroke="midnightblue" d="M566.642,-278.229C581.521,-283.543 605.202,-292.001 625.482,-299.244"/>
<polygon fill="midnightblue" stroke="midnightblue" points="624.517,-302.615 635.112,-302.683 626.871,-296.023 624.517,-302.615"/>
</g>
<!-- Node49 -->
<g id="node100" class="node"><title>Node49</title>
<a xlink:href="cvm-hfa-res_8c.html#a38aa04fce135199ec3bb8726da163846" target="_top" xlink:title="Rfinish">
<polygon fill="white" stroke="black" points="640,-262.5 640,-283.5 688,-283.5 688,-262.5 640,-262.5"/>
<text text-anchor="middle" x="664" y="-270.5" font-family="FreeSans" font-size="10.00">Rfinish</text>
</a>
</g>
<!-- Node12&#45;&gt;Node49 -->
<g id="edge102" class="edge"><title>Node12&#45;&gt;Node49</title>
<path fill="none" stroke="midnightblue" d="M566.642,-273C582.57,-273 608.582,-273 629.714,-273"/>
<polygon fill="midnightblue" stroke="midnightblue" points="629.935,-276.5 639.935,-273 629.934,-269.5 629.935,-276.5"/>
</g>
<!-- Node16 -->
<g id="node31" class="node"><title>Node16</title>
<a xlink:href="hfa-lnx_8c.html#a78ffddbcd7cdd164889cfb53ea367886" target="_top" xlink:title="entry">
<polygon fill="white" stroke="black" points="736.5,-382.5 736.5,-403.5 777.5,-403.5 777.5,-382.5 736.5,-382.5"/>
<text text-anchor="middle" x="757" y="-390.5" font-family="FreeSans" font-size="10.00">entry</text>
</a>
</g>
<!-- Node15&#45;&gt;Node16 -->
<g id="edge30" class="edge"><title>Node15&#45;&gt;Node16</title>
<path fill="none" stroke="midnightblue" d="M688.435,-363.51C700.155,-368.551 714.31,-374.639 726.708,-379.971"/>
<polygon fill="midnightblue" stroke="midnightblue" points="725.625,-383.315 736.194,-384.051 728.391,-376.885 725.625,-383.315"/>
</g>
<!-- Node46 -->
<g id="node94" class="node"><title>Node46</title>
<a xlink:href="cvm-hfa-pp_8c.html#a85b4c8af06430f26eab8afdeea3a7395" target="_top" xlink:title="hashidx">
<polygon fill="white" stroke="black" points="730,-342.5 730,-363.5 784,-363.5 784,-342.5 730,-342.5"/>
<text text-anchor="middle" x="757" y="-350.5" font-family="FreeSans" font-size="10.00">hashidx</text>
</a>
</g>
<!-- Node15&#45;&gt;Node46 -->
<g id="edge96" class="edge"><title>Node15&#45;&gt;Node46</title>
<path fill="none" stroke="midnightblue" d="M693.681,-353C701.92,-353 710.973,-353 719.592,-353"/>
<polygon fill="midnightblue" stroke="midnightblue" points="719.807,-356.5 729.807,-353 719.807,-349.5 719.807,-356.5"/>
</g>
<!-- Node16&#45;&gt;Node9 -->
<g id="edge82" class="edge"><title>Node16&#45;&gt;Node9</title>
<path fill="none" stroke="midnightblue" d="M758.884,-403.717C767.376,-451.575 802.441,-644.3 820,-665 820.62,-665.73 821.263,-666.44 821.928,-667.131"/>
<polygon fill="midnightblue" stroke="midnightblue" points="819.897,-669.998 829.785,-673.802 824.428,-664.662 819.897,-669.998"/>
</g>
<!-- Node16&#45;&gt;Node10 -->
<g id="edge88" class="edge"><title>Node16&#45;&gt;Node10</title>
<path fill="none" stroke="midnightblue" d="M736.367,-390.554C711.789,-387.431 669.583,-381.408 634,-373 575.995,-359.294 562.466,-352.078 506,-333 481.736,-324.802 454.7,-314.98 433.504,-307.121"/>
<polygon fill="midnightblue" stroke="midnightblue" points="434.499,-303.757 423.907,-303.549 432.057,-310.317 434.499,-303.757"/>
</g>
<!-- Node17 -->
<g id="node33" class="node"><title>Node17</title>
<a xlink:href="hfa-lnx_8c.html#a4c3443f524b4c0d95639694f0b74e850" target="_top" xlink:title="Process command line options, Read graph and payload.">
<polygon fill="white" stroke="black" points="836,-502.5 836,-523.5 930,-523.5 930,-502.5 836,-502.5"/>
<text text-anchor="middle" x="883" y="-510.5" font-family="FreeSans" font-size="10.00">process_options</text>
</a>
</g>
<!-- Node16&#45;&gt;Node17 -->
<g id="edge32" class="edge"><title>Node16&#45;&gt;Node17</title>
<path fill="none" stroke="midnightblue" d="M760.875,-403.788C768.77,-424.243 788.666,-468.782 820,-493 822.298,-494.776 824.758,-496.397 827.325,-497.875"/>
<polygon fill="midnightblue" stroke="midnightblue" points="825.872,-501.061 836.385,-502.373 828.984,-494.791 825.872,-501.061"/>
</g>
<!-- Node21 -->
<g id="node41" class="node"><title>Node21</title>
<a xlink:href="cvm-hfa_8c.html#a873768042b716d60996ec5d858fc8fd9" target="_top" xlink:title="This function must be called by application to initialize HFA engine and setup resources for HFA hard...">
<polygon fill="white" stroke="red" points="846,-462.5 846,-483.5 920,-483.5 920,-462.5 846,-462.5"/>
<text text-anchor="middle" x="883" y="-470.5" font-family="FreeSans" font-size="10.00">hfa_dev_init</text>
</a>
</g>
<!-- Node16&#45;&gt;Node21 -->
<g id="edge40" class="edge"><title>Node16&#45;&gt;Node21</title>
<path fill="none" stroke="midnightblue" d="M765.675,-403.868C776.887,-417.235 797.64,-439.773 820,-453 825.062,-455.994 830.622,-458.591 836.278,-460.83"/>
<polygon fill="midnightblue" stroke="midnightblue" points="835.221,-464.17 845.816,-464.267 837.594,-457.584 835.221,-464.17"/>
</g>
<!-- Node34 -->
<g id="node67" class="node"><title>Node34</title>
<a xlink:href="hfa-lnx_8c.html#a546f3769e735d4bef0bfab1cba56921c" target="_top" xlink:title="Load graph to HFA memory and cache.">
<polygon fill="white" stroke="red" points="848.5,-422.5 848.5,-443.5 917.5,-443.5 917.5,-422.5 848.5,-422.5"/>
<text text-anchor="middle" x="883" y="-430.5" font-family="FreeSans" font-size="10.00">graph_load</text>
</a>
</g>
<!-- Node16&#45;&gt;Node34 -->
<g id="edge66" class="edge"><title>Node16&#45;&gt;Node34</title>
<path fill="none" stroke="midnightblue" d="M777.525,-399.516C794.38,-404.867 818.83,-412.628 839.946,-419.332"/>
<polygon fill="midnightblue" stroke="midnightblue" points="839.093,-422.733 849.684,-422.423 841.212,-416.062 839.093,-422.733"/>
</g>
<!-- Node35 -->
<g id="node69" class="node"><title>Node35</title>
<a xlink:href="hfa-lnx_8c.html#a924d2733ebc7a856f8c3fd293193ba44" target="_top" xlink:title="Initialize search context.">
<polygon fill="white" stroke="red" points="845.5,-382.5 845.5,-403.5 920.5,-403.5 920.5,-382.5 845.5,-382.5"/>
<text text-anchor="middle" x="883" y="-390.5" font-family="FreeSans" font-size="10.00">initialize_ctx</text>
</a>
</g>
<!-- Node16&#45;&gt;Node35 -->
<g id="edge68" class="edge"><title>Node16&#45;&gt;Node35</title>
<path fill="none" stroke="midnightblue" d="M777.525,-393C793.142,-393 815.278,-393 835.242,-393"/>
<polygon fill="midnightblue" stroke="midnightblue" points="835.438,-396.5 845.438,-393 835.438,-389.5 835.438,-396.5"/>
</g>
<!-- Node36 -->
<g id="node71" class="node"><title>Node36</title>
<a xlink:href="app-utils_8c.html#a4b47f3c9c5a0b3eaee64e264171628a3" target="_top" xlink:title="This routine reads data of chunksize/a packet from given payload(Normal/PCAP) file and returns data b...">
<polygon fill="white" stroke="red" points="820,-342.5 820,-363.5 946,-363.5 946,-342.5 820,-342.5"/>
<text text-anchor="middle" x="883" y="-350.5" font-family="FreeSans" font-size="10.00">hfautils_parse_payload</text>
</a>
</g>
<!-- Node16&#45;&gt;Node36 -->
<g id="edge70" class="edge"><title>Node16&#45;&gt;Node36</title>
<path fill="none" stroke="midnightblue" d="M777.525,-386.484C794.38,-381.133 818.83,-373.372 839.946,-366.668"/>
<polygon fill="midnightblue" stroke="midnightblue" points="841.212,-369.938 849.684,-363.577 839.093,-363.267 841.212,-369.938"/>
</g>
<!-- Node37 -->
<g id="node73" class="node"><title>Node37</title>
<a xlink:href="cvm-hfa-search_8h.html#ae9741e867075c9b8cc63a7d889d5bf20" target="_top" xlink:title="This routine is a variant of hfa_searchparam_set_inputiovec() when the previously searched input IO v...">
<polygon fill="white" stroke="black" points="822.5,-290 822.5,-324 943.5,-324 943.5,-290 822.5,-290"/>
<text text-anchor="start" x="830.5" y="-311" font-family="FreeSans" font-size="10.00">hfa_searchparam_set</text>
<text text-anchor="middle" x="883" y="-298" font-family="FreeSans" font-size="10.00">_inputiovec_0_n</text>
</a>
</g>
<!-- Node16&#45;&gt;Node37 -->
<g id="edge72" class="edge"><title>Node16&#45;&gt;Node37</title>
<path fill="none" stroke="midnightblue" d="M772.558,-382.301C776.418,-379.426 780.46,-376.217 784,-373 801.698,-356.912 800.461,-346.793 820,-333 821.885,-331.669 823.848,-330.391 825.867,-329.163"/>
<polygon fill="midnightblue" stroke="midnightblue" points="827.944,-332.015 835.003,-324.114 824.558,-325.888 827.944,-332.015"/>
</g>
<!-- Node38 -->
<g id="node75" class="node"><title>Node38</title>
<a xlink:href="cvm-hfa-search_8h.html#a12882fa53f8ec49b9b2950711161db42" target="_top" xlink:title="This routine sets the output buffer in the sparam.">
<polygon fill="white" stroke="black" points="822.5,-238 822.5,-272 943.5,-272 943.5,-238 822.5,-238"/>
<text text-anchor="start" x="830.5" y="-259" font-family="FreeSans" font-size="10.00">hfa_searchparam_set</text>
<text text-anchor="middle" x="883" y="-246" font-family="FreeSans" font-size="10.00">_output</text>
</a>
</g>
<!-- Node16&#45;&gt;Node38 -->
<g id="edge74" class="edge"><title>Node16&#45;&gt;Node38</title>
<path fill="none" stroke="midnightblue" d="M774.278,-382.464C777.832,-379.714 781.306,-376.521 784,-373 810.681,-338.129 789.24,-312.332 820,-281 820.933,-280.05 821.905,-279.134 822.911,-278.249"/>
<polygon fill="midnightblue" stroke="midnightblue" points="825.275,-280.854 831.215,-272.081 821.1,-275.234 825.275,-280.854"/>
</g>
<!-- Node39 -->
<g id="node77" class="node"><title>Node39</title>
<a xlink:href="cvm-hfa-search_8c.html#a57d7540278164eb6b6c132be00db0de5" target="_top" xlink:title="This routine performs a pattern search using the given parameters in a blocking manner.">
<polygon fill="white" stroke="black" points="821.5,-106.5 821.5,-127.5 944.5,-127.5 944.5,-106.5 821.5,-106.5"/>
<text text-anchor="middle" x="883" y="-114.5" font-family="FreeSans" font-size="10.00">hfa_searchctx_search</text>
</a>
</g>
<!-- Node16&#45;&gt;Node39 -->
<g id="edge76" class="edge"><title>Node16&#45;&gt;Node39</title>
<path fill="none" stroke="midnightblue" d="M775.435,-382.432C778.748,-379.753 781.832,-376.597 784,-373 838.761,-282.122 751.049,-217.644 820,-137 821.025,-135.801 822.122,-134.673 823.28,-133.611"/>
<polygon fill="midnightblue" stroke="midnightblue" points="825.636,-136.227 831.694,-127.535 821.538,-130.552 825.636,-136.227"/>
</g>
<!-- Node41 -->
<g id="node83" class="node"><title>Node41</title>
<a xlink:href="cvm-hfa-common_8h.html#ad117ba199386b8d427cbb04f288b5905" target="_top" xlink:title="Dump HFA related registers.">
<polygon fill="white" stroke="black" points="837.5,-198.5 837.5,-219.5 928.5,-219.5 928.5,-198.5 837.5,-198.5"/>
<text text-anchor="middle" x="883" y="-206.5" font-family="FreeSans" font-size="10.00">hfa_dump_regs</text>
</a>
</g>
<!-- Node16&#45;&gt;Node41 -->
<g id="edge84" class="edge"><title>Node16&#45;&gt;Node41</title>
<path fill="none" stroke="midnightblue" d="M774.899,-382.489C778.334,-379.774 781.602,-376.589 784,-373 820.654,-318.151 774.831,-277.081 820,-229 822.471,-226.369 825.286,-224.083 828.323,-222.097"/>
<polygon fill="midnightblue" stroke="midnightblue" points="830.205,-225.06 837.369,-217.254 826.901,-218.888 830.205,-225.06"/>
</g>
<!-- Node42 -->
<g id="node85" class="node"><title>Node42</title>
<a xlink:href="cvm-hfa-search_8h.html#ad18e328b50b109e1e44821f3d006bd9d" target="_top" xlink:title="This routine returns the data&#45;buffer offset.">
<polygon fill="white" stroke="black" points="822,-146 822,-180 944,-180 944,-146 822,-146"/>
<text text-anchor="start" x="830" y="-167" font-family="FreeSans" font-size="10.00">hfa_searchparam_get</text>
<text text-anchor="middle" x="883" y="-154" font-family="FreeSans" font-size="10.00">_hwsearch_pdboff</text>
</a>
</g>
<!-- Node16&#45;&gt;Node42 -->
<g id="edge86" class="edge"><title>Node16&#45;&gt;Node42</title>
<path fill="none" stroke="midnightblue" d="M775.319,-382.36C778.641,-379.687 781.757,-376.551 784,-373 828.491,-302.543 767.197,-253.462 820,-189 820.607,-188.259 821.238,-187.539 821.892,-186.839"/>
<polygon fill="midnightblue" stroke="midnightblue" points="824.405,-189.293 829.658,-180.092 819.814,-184.009 824.405,-189.293"/>
</g>
<!-- Node43 -->
<g id="node88" class="node"><title>Node43</title>
<a xlink:href="app-utils_8c.html#a633038357891aa5147b77fe939f300bf" target="_top" xlink:title="Print pattern matches via match buffer and cleanup all matches.">
<polygon fill="white" stroke="red" points="821,-634.5 821,-655.5 945,-655.5 945,-634.5 821,-634.5"/>
<text text-anchor="middle" x="883" y="-642.5" font-family="FreeSans" font-size="10.00">hfautils_print_matches</text>
</a>
</g>
<!-- Node16&#45;&gt;Node43 -->
<g id="edge90" class="edge"><title>Node16&#45;&gt;Node43</title>
<path fill="none" stroke="midnightblue" d="M758.502,-403.507C764.537,-444.341 788.23,-591.858 820,-625 821.256,-626.31 822.597,-627.534 824.007,-628.679"/>
<polygon fill="midnightblue" stroke="midnightblue" points="822.462,-631.85 832.746,-634.398 826.295,-625.993 822.462,-631.85"/>
</g>
<!-- Node44 -->
<g id="node90" class="node"><title>Node44</title>
<a xlink:href="cvm-hfa-search_8h.html#ac5bcfbfda7036d9aca28a3c5828847a5" target="_top" xlink:title="This routine retrieves flags returned by post&#45;processor.">
<polygon fill="white" stroke="black" points="822,-582 822,-616 944,-616 944,-582 822,-582"/>
<text text-anchor="start" x="830" y="-603" font-family="FreeSans" font-size="10.00">hfa_searchparam_get</text>
<text text-anchor="middle" x="883" y="-590" font-family="FreeSans" font-size="10.00">_ppoflags</text>
</a>
</g>
<!-- Node16&#45;&gt;Node44 -->
<g id="edge92" class="edge"><title>Node16&#45;&gt;Node44</title>
<path fill="none" stroke="midnightblue" d="M757.78,-403.892C760.541,-434.575 772.427,-522.75 820,-573 820.892,-573.942 821.824,-574.852 822.789,-575.729"/>
<polygon fill="midnightblue" stroke="midnightblue" points="820.713,-578.547 830.779,-581.85 824.969,-572.99 820.713,-578.547"/>
</g>
<!-- Node45 -->
<g id="node92" class="node"><title>Node45</title>
<a xlink:href="hfa-lnx_8c.html#a5c6551bf9ea9cf51ae7f2076c4cbe8ef" target="_top" xlink:title="Application cleanup will be done by this routine.">
<polygon fill="white" stroke="red" points="856,-542.5 856,-563.5 910,-563.5 910,-542.5 856,-542.5"/>
<text text-anchor="middle" x="883" y="-550.5" font-family="FreeSans" font-size="10.00">cleanup</text>
</a>
</g>
<!-- Node16&#45;&gt;Node45 -->
<g id="edge94" class="edge"><title>Node16&#45;&gt;Node45</title>
<path fill="none" stroke="midnightblue" d="M758.717,-403.506C763.5,-429.407 779.399,-496.835 820,-533 827.237,-539.446 836.555,-543.816 845.794,-546.777"/>
<polygon fill="midnightblue" stroke="midnightblue" points="845.118,-550.22 855.686,-549.47 846.956,-543.466 845.118,-550.22"/>
</g>
<!-- Node18 -->
<g id="node35" class="node"><title>Node18</title>
<a xlink:href="app-utils_8c.html#a8d5ec2ca8ebb2e04916983e6053a5c79" target="_top" xlink:title="Return size of a file(compressed or uncompressed).">
<polygon fill="white" stroke="red" points="1020.5,-662.5 1020.5,-683.5 1115.5,-683.5 1115.5,-662.5 1020.5,-662.5"/>
<text text-anchor="middle" x="1068" y="-670.5" font-family="FreeSans" font-size="10.00">hfautils_file_size</text>
</a>
</g>
<!-- Node17&#45;&gt;Node18 -->
<g id="edge34" class="edge"><title>Node17&#45;&gt;Node18</title>
<path fill="none" stroke="midnightblue" d="M930.021,-522.161C935.942,-524.887 941.492,-528.42 946,-533 985.058,-572.685 941.407,-614.886 982,-653 989.957,-660.471 1000.14,-665.333 1010.7,-668.46"/>
<polygon fill="midnightblue" stroke="midnightblue" points="1009.9,-671.867 1020.44,-670.869 1011.57,-665.072 1009.9,-671.867"/>
</g>
<!-- Node19 -->
<g id="node37" class="node"><title>Node19</title>
<a xlink:href="app-utils_8c.html#a12339c67618c4b3a54c32f43d378c273" target="_top" xlink:title="Read data from a file to a buffer(compressed or uncompressed).">
<polygon fill="white" stroke="red" points="1019.5,-754.5 1019.5,-775.5 1116.5,-775.5 1116.5,-754.5 1019.5,-754.5"/>
<text text-anchor="middle" x="1068" y="-762.5" font-family="FreeSans" font-size="10.00">hfautils_read_file</text>
</a>
</g>
<!-- Node17&#45;&gt;Node19 -->
<g id="edge36" class="edge"><title>Node17&#45;&gt;Node19</title>
<path fill="none" stroke="midnightblue" d="M930.24,-521.52C936.203,-524.335 941.708,-528.064 946,-533 1008.72,-605.115 916.489,-675.415 982,-745 989.326,-752.781 999.04,-757.808 1009.3,-761.003"/>
<polygon fill="midnightblue" stroke="midnightblue" points="1008.69,-764.458 1019.24,-763.535 1010.41,-757.675 1008.69,-764.458"/>
</g>
<!-- Node20 -->
<g id="node39" class="node"><title>Node20</title>
<a xlink:href="app-utils_8c.html#a1944a739d03e86dcaee1a7d245cfeba0" target="_top" xlink:title="Initialize the attributes needed for parsing the payload file.">
<polygon fill="white" stroke="red" points="1011.5,-702 1011.5,-736 1124.5,-736 1124.5,-702 1011.5,-702"/>
<text text-anchor="start" x="1019.5" y="-723" font-family="FreeSans" font-size="10.00">hfautils_init_payload</text>
<text text-anchor="middle" x="1068" y="-710" font-family="FreeSans" font-size="10.00">_attributes</text>
</a>
</g>
<!-- Node17&#45;&gt;Node20 -->
<g id="edge38" class="edge"><title>Node17&#45;&gt;Node20</title>
<path fill="none" stroke="midnightblue" d="M930.005,-521.73C936.002,-524.515 941.578,-528.18 946,-533 995.275,-586.71 932.356,-639.631 982,-693 987.528,-698.942 994.361,-703.543 1001.74,-707.102"/>
<polygon fill="midnightblue" stroke="midnightblue" points="1000.75,-710.479 1011.32,-711.076 1003.43,-704.013 1000.75,-710.479"/>
</g>
<!-- Node22 -->
<g id="node43" class="node"><title>Node22</title>
<a xlink:href="cvm-hfa-stats_8c.html#a2fcf955b47370bfa46705ee5a23a70cf" target="_top" xlink:title="This routine allocates memory for counters to maintain statistics of each processing core...">
<polygon fill="white" stroke="red" points="1017,-422.5 1017,-443.5 1119,-443.5 1119,-422.5 1017,-422.5"/>
<text text-anchor="middle" x="1068" y="-430.5" font-family="FreeSans" font-size="10.00">hfa_dev_stats_init</text>
</a>
</g>
<!-- Node21&#45;&gt;Node22 -->
<g id="edge42" class="edge"><title>Node21&#45;&gt;Node22</title>
<path fill="none" stroke="midnightblue" d="M920.438,-464.905C945.938,-459.392 980.216,-451.98 1009.32,-445.688"/>
<polygon fill="midnightblue" stroke="midnightblue" points="1010.34,-449.049 1019.37,-443.514 1008.86,-442.207 1010.34,-449.049"/>
</g>
<!-- Node23 -->
<g id="node45" class="node"><title>Node23</title>
<a xlink:href="cvm-hfa_8c.html#a27982497398da2118cd5287ed51732e7" target="_top" xlink:title="Provides device&#45;specific information This is a utility routine used to obtain HFA device&#45;specific det...">
<polygon fill="white" stroke="black" points="1012.5,-382.5 1012.5,-403.5 1123.5,-403.5 1123.5,-382.5 1012.5,-382.5"/>
<text text-anchor="middle" x="1068" y="-390.5" font-family="FreeSans" font-size="10.00">hfa_dev_getdevinfo</text>
</a>
</g>
<!-- Node21&#45;&gt;Node23 -->
<g id="edge44" class="edge"><title>Node21&#45;&gt;Node23</title>
<path fill="none" stroke="midnightblue" d="M920.118,-464.801C929.012,-461.889 938.188,-458.037 946,-453 966.101,-440.039 961.403,-425.158 982,-413 988.353,-409.25 995.356,-406.203 1002.54,-403.728"/>
<polygon fill="midnightblue" stroke="midnightblue" points="1003.88,-406.978 1012.41,-400.694 1001.82,-400.288 1003.88,-406.978"/>
</g>
<!-- Node24 -->
<g id="node47" class="node"><title>Node24</title>
<a xlink:href="pp_8h.html#a6f5982b2671e9682262a26b0d2996396" target="_top" xlink:title="Constructs a readable version string for the PP library.">
<polygon fill="white" stroke="black" points="1008,-342.5 1008,-363.5 1128,-363.5 1128,-342.5 1008,-342.5"/>
<text text-anchor="middle" x="1068" y="-350.5" font-family="FreeSans" font-size="10.00">pp_get_version_string</text>
</a>
</g>
<!-- Node21&#45;&gt;Node24 -->
<g id="edge46" class="edge"><title>Node21&#45;&gt;Node24</title>
<path fill="none" stroke="midnightblue" d="M920.026,-466.835C929.324,-463.872 938.716,-459.488 946,-453 975.115,-427.067 951.885,-397.765 982,-373 986.895,-368.975 992.452,-365.728 998.329,-363.113"/>
<polygon fill="midnightblue" stroke="midnightblue" points="999.687,-366.341 1007.78,-359.503 997.19,-359.802 999.687,-366.341"/>
</g>
<!-- Node25 -->
<g id="node49" class="node"><title>Node25</title>
<a xlink:href="cvm-hfa_8c.html#afd1d53fe8a402d4c5799e6e98c67baaa" target="_top" xlink:title="Displays HFA Device info.">
<polygon fill="white" stroke="red" points="1009.5,-302.5 1009.5,-323.5 1126.5,-323.5 1126.5,-302.5 1009.5,-302.5"/>
<text text-anchor="middle" x="1068" y="-310.5" font-family="FreeSans" font-size="10.00">hfa_dev_display_info</text>
</a>
</g>
<!-- Node21&#45;&gt;Node25 -->
<g id="edge48" class="edge"><title>Node21&#45;&gt;Node25</title>
<path fill="none" stroke="midnightblue" d="M920.289,-467.56C929.696,-464.599 939.078,-460.034 946,-453 985.058,-413.315 941.407,-371.114 982,-333 987.106,-328.206 993.128,-324.486 999.577,-321.61"/>
<polygon fill="midnightblue" stroke="midnightblue" points="1001.14,-324.762 1009.27,-317.972 998.682,-318.208 1001.14,-324.762"/>
</g>
<!-- Node26 -->
<g id="node51" class="node"><title>Node26</title>
<a xlink:href="cvm-hfa_8c.html#a236e64ca73680ea6761204d5c44d4e96" target="_top" xlink:title="API to set PP resource allocator for partial matches.">
<polygon fill="white" stroke="black" points="1000.5,-262.5 1000.5,-283.5 1135.5,-283.5 1135.5,-262.5 1000.5,-262.5"/>
<text text-anchor="middle" x="1068" y="-270.5" font-family="FreeSans" font-size="10.00">hfa_dev_set_fnp_ppalloc</text>
</a>
</g>
<!-- Node21&#45;&gt;Node26 -->
<g id="edge50" class="edge"><title>Node21&#45;&gt;Node26</title>
<path fill="none" stroke="midnightblue" d="M920.293,-467.978C929.813,-465.023 939.251,-460.357 946,-453 995.275,-399.29 930.645,-344.725 982,-293 984.754,-290.226 987.813,-287.806 991.088,-285.698"/>
<polygon fill="midnightblue" stroke="midnightblue" points="993.042,-288.621 1000.2,-280.813 989.736,-282.451 993.042,-288.621"/>
</g>
<!-- Node27 -->
<g id="node53" class="node"><title>Node27</title>
<a xlink:href="cvm-hfa_8c.html#ab547f175726534d6a0a334eb35af4980" target="_top" xlink:title="Default function pointer for PP allocations.">
<polygon fill="white" stroke="black" points="1008,-222.5 1008,-243.5 1128,-243.5 1128,-222.5 1008,-222.5"/>
<text text-anchor="middle" x="1068" y="-230.5" font-family="FreeSans" font-size="10.00">hfa_defaultfn_ppalloc</text>
</a>
</g>
<!-- Node21&#45;&gt;Node27 -->
<g id="edge52" class="edge"><title>Node21&#45;&gt;Node27</title>
<path fill="none" stroke="midnightblue" d="M920.175,-468.267C929.809,-465.321 939.336,-460.587 946,-453 1005.6,-385.143 919.766,-318.453 982,-253 986.575,-248.188 992.064,-244.433 998.026,-241.513"/>
<polygon fill="midnightblue" stroke="midnightblue" points="999.77,-244.583 1007.72,-237.581 997.139,-238.096 999.77,-244.583"/>
</g>
<!-- Node28 -->
<g id="node55" class="node"><title>Node28</title>
<a xlink:href="cvm-hfa_8c.html#a148abbfdeebb207ff46884af8eeb8fa4" target="_top" xlink:title="API to set PP resource deallocator for partial matches.">
<polygon fill="white" stroke="black" points="1002,-182.5 1002,-203.5 1134,-203.5 1134,-182.5 1002,-182.5"/>
<text text-anchor="middle" x="1068" y="-190.5" font-family="FreeSans" font-size="10.00">hfa_dev_set_fnp_ppfree</text>
</a>
</g>
<!-- Node21&#45;&gt;Node28 -->
<g id="edge54" class="edge"><title>Node21&#45;&gt;Node28</title>
<path fill="none" stroke="midnightblue" d="M920.319,-468.392C929.955,-465.448 939.447,-460.684 946,-453 1015.99,-370.933 908.827,-292.243 982,-213 985.186,-209.549 988.842,-206.638 992.809,-204.187"/>
<polygon fill="midnightblue" stroke="midnightblue" points="994.619,-207.192 1001.93,-199.524 991.432,-200.96 994.619,-207.192"/>
</g>
<!-- Node29 -->
<g id="node57" class="node"><title>Node29</title>
<a xlink:href="cvm-hfa_8c.html#a832239ee7b188265bdacbbfb7e879af1" target="_top" xlink:title="Default function pointer for PP deallocations.">
<polygon fill="white" stroke="black" points="1009.5,-622.5 1009.5,-643.5 1126.5,-643.5 1126.5,-622.5 1009.5,-622.5"/>
<text text-anchor="middle" x="1068" y="-630.5" font-family="FreeSans" font-size="10.00">hfa_defaultfn_ppfree</text>
</a>
</g>
<!-- Node21&#45;&gt;Node29 -->
<g id="edge56" class="edge"><title>Node21&#45;&gt;Node29</title>
<path fill="none" stroke="midnightblue" d="M920.289,-478.44C929.696,-481.401 939.078,-485.966 946,-493 985.058,-532.685 941.407,-574.886 982,-613 987.106,-617.794 993.128,-621.514 999.577,-624.39"/>
<polygon fill="midnightblue" stroke="midnightblue" points="998.682,-627.792 1009.27,-628.028 1001.14,-621.238 998.682,-627.792"/>
</g>
<!-- Node30 -->
<g id="node59" class="node"><title>Node30</title>
<a xlink:href="cvm-hfa_8c.html#a774451b83b300f862763d189c9758e1f" target="_top" xlink:title="API to set PP buffer size function pointer.">
<polygon fill="white" stroke="black" points="1002,-582.5 1002,-603.5 1134,-603.5 1134,-582.5 1002,-582.5"/>
<text text-anchor="middle" x="1068" y="-590.5" font-family="FreeSans" font-size="10.00">hfa_dev_set_fnp_ppsize</text>
</a>
</g>
<!-- Node21&#45;&gt;Node30 -->
<g id="edge58" class="edge"><title>Node21&#45;&gt;Node30</title>
<path fill="none" stroke="midnightblue" d="M920.026,-479.165C929.324,-482.128 938.716,-486.512 946,-493 975.115,-518.933 951.885,-548.235 982,-573 985.173,-575.609 988.623,-577.891 992.259,-579.886"/>
<polygon fill="midnightblue" stroke="midnightblue" points="991.085,-583.201 1001.63,-584.276 994.056,-576.862 991.085,-583.201"/>
</g>
<!-- Node31 -->
<g id="node61" class="node"><title>Node31</title>
<a xlink:href="cvm-hfa_8c.html#a11aab8e30488e4cfc900f60a0dabc784" target="_top" xlink:title="Default function pointer for PP size.">
<polygon fill="white" stroke="black" points="1009.5,-542.5 1009.5,-563.5 1126.5,-563.5 1126.5,-542.5 1009.5,-542.5"/>
<text text-anchor="middle" x="1068" y="-550.5" font-family="FreeSans" font-size="10.00">hfa_defaultfn_ppsize</text>
</a>
</g>
<!-- Node21&#45;&gt;Node31 -->
<g id="edge60" class="edge"><title>Node21&#45;&gt;Node31</title>
<path fill="none" stroke="midnightblue" d="M920.118,-481.199C929.012,-484.111 938.188,-487.963 946,-493 966.101,-505.961 961.403,-520.842 982,-533 987.458,-536.222 993.396,-538.924 999.516,-541.191"/>
<polygon fill="midnightblue" stroke="midnightblue" points="998.649,-544.591 1009.24,-544.408 1000.85,-537.945 998.649,-544.591"/>
</g>
<!-- Node32 -->
<g id="node63" class="node"><title>Node32</title>
<a xlink:href="cvm-hfa_8c.html#a9a0b038e0d29435cb91a21d9c62806cc" target="_top" xlink:title="API to set PP resource allocator for temporary memory.">
<polygon fill="white" stroke="black" points="999,-502.5 999,-523.5 1137,-523.5 1137,-502.5 999,-502.5"/>
<text text-anchor="middle" x="1068" y="-510.5" font-family="FreeSans" font-size="10.00">hfa_dev_set_fnp_pptalloc</text>
</a>
</g>
<!-- Node21&#45;&gt;Node32 -->
<g id="edge62" class="edge"><title>Node21&#45;&gt;Node32</title>
<path fill="none" stroke="midnightblue" d="M920.438,-481.095C945.938,-486.608 980.216,-494.02 1009.32,-500.312"/>
<polygon fill="midnightblue" stroke="midnightblue" points="1008.86,-503.793 1019.37,-502.486 1010.34,-496.951 1008.86,-503.793"/>
</g>
<!-- Node33 -->
<g id="node65" class="node"><title>Node33</title>
<a xlink:href="cvm-hfa_8c.html#a2cbca63c413f08d3861f9b4c2855391f" target="_top" xlink:title="API to set PP resource deallocator for temporary memory.">
<polygon fill="white" stroke="black" points="1000.5,-462.5 1000.5,-483.5 1135.5,-483.5 1135.5,-462.5 1000.5,-462.5"/>
<text text-anchor="middle" x="1068" y="-470.5" font-family="FreeSans" font-size="10.00">hfa_dev_set_fnp_pptfree</text>
</a>
</g>
<!-- Node21&#45;&gt;Node33 -->
<g id="edge64" class="edge"><title>Node21&#45;&gt;Node33</title>
<path fill="none" stroke="midnightblue" d="M920.438,-473C940.485,-473 965.957,-473 990.074,-473"/>
<polygon fill="midnightblue" stroke="midnightblue" points="990.307,-476.5 1000.31,-473 990.307,-469.5 990.307,-476.5"/>
</g>
<!-- Node39&#45;&gt;Node3 -->
<g id="edge80" class="edge"><title>Node39&#45;&gt;Node3</title>
<path fill="none" stroke="midnightblue" d="M944.602,-111.006C953.402,-110.15 962.623,-109.253 971.893,-108.351"/>
<polygon fill="midnightblue" stroke="midnightblue" points="972.339,-111.824 981.953,-107.372 971.661,-104.857 972.339,-111.824"/>
</g>
<!-- Node40 -->
<g id="node79" class="node"><title>Node40</title>
<a xlink:href="cvm-hfa-search_8c.html#a0c36da280b39bd8afdf6081baea24472" target="_top" xlink:title="This routine performs a pattern search using the given parameters in a non&#45;blocking manner...">
<polygon fill="white" stroke="black" points="1006.5,-1 1006.5,-35 1129.5,-35 1129.5,-1 1006.5,-1"/>
<text text-anchor="start" x="1014.5" y="-22" font-family="FreeSans" font-size="10.00">hfa_searchctx_search</text>
<text text-anchor="middle" x="1068" y="-9" font-family="FreeSans" font-size="10.00">_async</text>
</a>
</g>
<!-- Node39&#45;&gt;Node40 -->
<g id="edge78" class="edge"><title>Node39&#45;&gt;Node40</title>
<path fill="none" stroke="midnightblue" d="M902.798,-106.405C932.311,-90.6119 988.498,-60.5445 1027.08,-39.8966"/>
<polygon fill="midnightblue" stroke="midnightblue" points="1028.83,-42.9286 1036,-35.1244 1025.53,-36.7568 1028.83,-42.9286"/>
</g>
<!-- Node48 -->
<g id="node98" class="node"><title>Node48</title>
<a xlink:href="cvm-hfa-res_8c.html#a70c9e55ba1fcb934f74ad71ddca9d08f" target="_top" xlink:title="Radd">
<polygon fill="white" stroke="black" points="736.5,-302.5 736.5,-323.5 777.5,-323.5 777.5,-302.5 736.5,-302.5"/>
<text text-anchor="middle" x="757" y="-310.5" font-family="FreeSans" font-size="10.00">Radd</text>
</a>
</g>
<!-- Node47&#45;&gt;Node48 -->
<g id="edge100" class="edge"><title>Node47&#45;&gt;Node48</title>
<path fill="none" stroke="midnightblue" d="M692.662,-313C703.229,-313 715.245,-313 726.009,-313"/>
<polygon fill="midnightblue" stroke="midnightblue" points="726.256,-316.5 736.256,-313 726.256,-309.5 726.256,-316.5"/>
</g>
<!-- Node50&#45;&gt;Node7 -->
<g id="edge108" class="edge"><title>Node50&#45;&gt;Node7</title>
<path fill="none" stroke="midnightblue" d="M282.698,-38.3526C303.135,-38.4693 325.634,-38.5979 345.159,-38.7095"/>
<polygon fill="midnightblue" stroke="midnightblue" points="345.35,-42.2105 355.369,-38.7678 345.39,-35.2106 345.35,-42.2105"/>
</g>
<!-- Node50&#45;&gt;Node40 -->
<g id="edge106" class="edge"><title>Node50&#45;&gt;Node40</title>
<path fill="none" stroke="midnightblue" d="M271.18,-27.4994C287.347,-24.4014 305.379,-21.2437 322,-19 423.648,-5.27799 449.43,-0 552,-0 552,-0 552,-0 757,-0 839.098,-0 933.184,-6.32896 996.174,-11.4812"/>
<polygon fill="midnightblue" stroke="midnightblue" points="996.142,-14.9905 1006.4,-12.3294 996.721,-8.01444 996.142,-14.9905"/>
</g>
</g>
</svg>
        <g id="navigator" transform="translate(0 0)" fill="#404254">
                <rect fill="#f2f5e9" fill-opacity="0.5" stroke="#606060" stroke-width=".5" x="0" y="0" width="60" height="60"/>
                <use id="zoomplus" xlink:href="#zoomPlus" x="17" y="9" onmousedown="handleZoom(evt,'in')"/>
                <use id="zoomminus" xlink:href="#zoomMin" x="42" y="9" onmousedown="handleZoom(evt,'out')"/>
                <use id="reset" xlink:href="#resetDef" x="30" y="36" onmousedown="handleReset()"/>
                <g id="arrowUp" xlink:href="#dirArrow" transform="translate(30 24)" onmousedown="handlePan(0,-1)">
                  <use xlink:href="#rim" fill="#404040">
                        <set attributeName="fill" to="#808080" begin="arrowUp.mouseover" end="arrowUp.mouseout"/>
                  </use>
                  <path fill="none" stroke="white" stroke-width="1.5" d="M0,-3.0v7 M-2.5,-0.5L0,-3.0L2.5,-0.5"/>
                </g>
                <g id="arrowRight" xlink:href="#dirArrow" transform="rotate(90) translate(36 -43)" onmousedown="handlePan(1,0)">
                  <use xlink:href="#rim" fill="#404040">
                        <set attributeName="fill" to="#808080" begin="arrowRight.mouseover" end="arrowRight.mouseout"/>
                  </use>
                  <path fill="none" stroke="white" stroke-width="1.5" d="M0,-3.0v7 M-2.5,-0.5L0,-3.0L2.5,-0.5"/>
                </g>
                <g id="arrowDown" xlink:href="#dirArrow" transform="rotate(180) translate(-30 -48)" onmousedown="handlePan(0,1)">
                  <use xlink:href="#rim" fill="#404040">
                        <set attributeName="fill" to="#808080" begin="arrowDown.mouseover" end="arrowDown.mouseout"/>
                  </use>
                  <path fill="none" stroke="white" stroke-width="1.5" d="M0,-3.0v7 M-2.5,-0.5L0,-3.0L2.5,-0.5"/>
                </g>
                <g id="arrowLeft" xlink:href="#dirArrow" transform="rotate(270) translate(-36 17)" onmousedown="handlePan(-1,0)">
                  <use xlink:href="#rim" fill="#404040">
                        <set attributeName="fill" to="#808080" begin="arrowLeft.mouseover" end="arrowLeft.mouseout"/>
                  </use>
                  <path fill="none" stroke="white" stroke-width="1.5" d="M0,-3.0v7 M-2.5,-0.5L0,-3.0L2.5,-0.5"/>
                </g>
        </g>
        <svg viewBox="0 0 15 15" width="100%" height="30px" preserveAspectRatio="xMaxYMin meet">
         <g id="arrow_out" transform="scale(0.3 0.3)">
          <a xlink:href="flow_8h_ab1b3378af88a440a6c3c0851be942e65_cgraph_org.svg" target="_base">
           <rect id="button" ry="5" rx="5" y="6" x="6" height="38" width="38"
                fill="#f2f5e9" fill-opacity="0.5" stroke="#606060" stroke-width="1.0"/>
           <path id="arrow"
             d="M 11.500037,31.436501 C 11.940474,20.09759 22.043105,11.32322 32.158766,21.979434 L 37.068811,17.246167 C 37.068811,17.246167 37.088388,32 37.088388,32 L 22.160133,31.978069 C 22.160133,31.978069 26.997745,27.140456 26.997745,27.140456 C 18.528582,18.264221 13.291696,25.230495 11.500037,31.436501 z"
             style="fill:#404040;"/>
          </a>
         </g>
        </svg>
</svg>
