<?xml version="1.0" encoding="UTF-8" standalone="no"?>
<!DOCTYPE svg PUBLIC "-//W3C//DTD SVG 1.1//EN"
 "http://www.w3.org/Graphics/SVG/1.1/DTD/svg11.dtd">
<!-- Generated by graphviz version 2.24.0 (20090616.2323)
 -->
<!-- Title: hfaf_addsparam Pages: 1 -->
<svg width="370pt" height="30pt"
 viewBox="0.00 0.00 370.00 30.00" xmlns="http://www.w3.org/2000/svg" xmlns:xlink="http://www.w3.org/1999/xlink">
<g id="graph1" class="graph" transform="scale(1 1) rotate(0) translate(4 26)">
<title>hfaf_addsparam</title>
<polygon fill="white" stroke="white" points="-4,5 -4,-26 367,-26 367,5 -4,5"/>
<!-- Node1 -->
<g id="node1" class="node"><title>Node1</title>
<polygon fill="#bfbfbf" stroke="black" points="0,-0.5 0,-21.5 96,-21.5 96,-0.5 0,-0.5"/>
<text text-anchor="middle" x="48" y="-8.5" font-family="FreeSans" font-size="10.00">hfaf_addsparam</text>
</g>
<!-- Node2 -->
<g id="node3" class="node"><title>Node2</title>
<a xlink:href="cvm-hfa-osapi_8h.html#ac5c56c7b06dac27ce7a8225802f3828f" target="_top" xlink:title="hfa_os_listaddtail">
<polygon fill="white" stroke="black" points="132,-0.5 132,-21.5 230,-21.5 230,-0.5 132,-0.5"/>
<text text-anchor="middle" x="181" y="-8.5" font-family="FreeSans" font-size="10.00">hfa_os_listaddtail</text>
</a>
</g>
<!-- Node1&#45;&gt;Node2 -->
<g id="edge2" class="edge"><title>Node1&#45;&gt;Node2</title>
<path fill="none" stroke="midnightblue" d="M96.0161,-11C104.268,-11 112.933,-11 121.444,-11"/>
<polygon fill="midnightblue" stroke="midnightblue" points="121.712,-14.5001 131.712,-11 121.712,-7.5001 121.712,-14.5001"/>
</g>
<!-- Node3 -->
<g id="node5" class="node"><title>Node3</title>
<a xlink:href="cvm-hfa-osapi_8h.html#a4fd034fe8e16048838cfb6427ecc93cc" target="_top" xlink:title="Linked list data structure.">
<polygon fill="white" stroke="black" points="266.5,-0.5 266.5,-21.5 361.5,-21.5 361.5,-0.5 266.5,-0.5"/>
<text text-anchor="middle" x="314" y="-8.5" font-family="FreeSans" font-size="10.00">__hfa_os_listadd</text>
</a>
</g>
<!-- Node2&#45;&gt;Node3 -->
<g id="edge4" class="edge"><title>Node2&#45;&gt;Node3</title>
<path fill="none" stroke="midnightblue" d="M230.146,-11C238.656,-11 247.573,-11 256.286,-11"/>
<polygon fill="midnightblue" stroke="midnightblue" points="256.383,-14.5001 266.383,-11 256.383,-7.5001 256.383,-14.5001"/>
</g>
</g>
</svg>
