<?xml version="1.0" encoding="UTF-8" standalone="no"?>
<!DOCTYPE svg PUBLIC "-//W3C//DTD SVG 1.1//EN"
 "http://www.w3.org/Graphics/SVG/1.1/DTD/svg11.dtd">
<!-- Generated by graphviz version 2.24.0 (20090616.2323)
 -->
<!-- Title: __hfaf_create_flow Pages: 1 -->
<svg width="800pt" height="320pt"
 viewBox="0.00 0.00 800.00 320.00" xmlns="http://www.w3.org/2000/svg" xmlns:xlink="http://www.w3.org/1999/xlink">
<g id="graph1" class="graph" transform="scale(1 1) rotate(0) translate(4 316)">
<title>__hfaf_create_flow</title>
<polygon fill="white" stroke="white" points="-4,5 -4,-316 797,-316 797,5 -4,5"/>
<!-- Node1 -->
<g id="node1" class="node"><title>Node1</title>
<polygon fill="#bfbfbf" stroke="black" points="0.5,-187.5 0.5,-208.5 107.5,-208.5 107.5,-187.5 0.5,-187.5"/>
<text text-anchor="middle" x="54" y="-195.5" font-family="FreeSans" font-size="10.00">__hfaf_create_flow</text>
</g>
<!-- Node2 -->
<g id="node3" class="node"><title>Node2</title>
<a xlink:href="hfa-se-xml-parser_8c.html#a7a1a023f618d2721b68175551e1c6fe0" target="_top" xlink:title="matchcb">
<polygon fill="white" stroke="black" points="180.5,-290.5 180.5,-311.5 239.5,-311.5 239.5,-290.5 180.5,-290.5"/>
<text text-anchor="middle" x="210" y="-298.5" font-family="FreeSans" font-size="10.00">matchcb</text>
</a>
</g>
<!-- Node1&#45;&gt;Node2 -->
<g id="edge2" class="edge"><title>Node1&#45;&gt;Node2</title>
<path fill="none" stroke="midnightblue" d="M62.5709,-208.538C77.379,-226.074 109.499,-261.264 144,-281 152.166,-285.671 161.538,-289.359 170.605,-292.228"/>
<polygon fill="midnightblue" stroke="midnightblue" points="169.674,-295.602 180.253,-295.026 171.624,-288.879 169.674,-295.602"/>
</g>
<!-- Node3 -->
<g id="node5" class="node"><title>Node3</title>
<a xlink:href="cvm-hfa-search_8c.html#a64ba7a41c7d677da10e588a58789015b" target="_top" xlink:title="This routine initializes a Search Context.">
<polygon fill="white" stroke="black" points="146.5,-209.5 146.5,-230.5 273.5,-230.5 273.5,-209.5 146.5,-209.5"/>
<text text-anchor="middle" x="210" y="-217.5" font-family="FreeSans" font-size="10.00">hfa_dev_searchctx_init</text>
</a>
</g>
<!-- Node1&#45;&gt;Node3 -->
<g id="edge4" class="edge"><title>Node1&#45;&gt;Node3</title>
<path fill="none" stroke="midnightblue" d="M107.686,-205.571C116.91,-206.872 126.637,-208.244 136.277,-209.603"/>
<polygon fill="midnightblue" stroke="midnightblue" points="135.875,-213.081 146.266,-211.012 136.853,-206.15 135.875,-213.081"/>
</g>
<!-- Node7 -->
<g id="node13" class="node"><title>Node7</title>
<a xlink:href="cvm-hfa-search_8c.html#a954753c0e6f4a59599d05f1262a25b38" target="_top" xlink:title="This routine associates a graph with sctx.">
<polygon fill="white" stroke="black" points="144,-250.5 144,-271.5 276,-271.5 276,-250.5 144,-250.5"/>
<text text-anchor="middle" x="210" y="-258.5" font-family="FreeSans" font-size="10.00">hfa_searchctx_setgraph</text>
</a>
</g>
<!-- Node1&#45;&gt;Node7 -->
<g id="edge12" class="edge"><title>Node1&#45;&gt;Node7</title>
<path fill="none" stroke="midnightblue" d="M74.7618,-208.62C92.7931,-217.618 119.748,-230.528 144,-240 150.472,-242.528 157.384,-244.984 164.209,-247.273"/>
<polygon fill="midnightblue" stroke="midnightblue" points="163.491,-250.72 174.084,-250.494 165.663,-244.065 163.491,-250.72"/>
</g>
<!-- Node11 -->
<g id="node22" class="node"><title>Node11</title>
<a xlink:href="hfa-se-wqe_8c.html#ab846ebf81c4fbc23cfe854940c82d8e8" target="_top" xlink:title="Cleanup memory allocated for context.">
<polygon fill="white" stroke="black" points="172.5,-166.5 172.5,-187.5 247.5,-187.5 247.5,-166.5 172.5,-166.5"/>
<text text-anchor="middle" x="210" y="-174.5" font-family="FreeSans" font-size="10.00">cleanup_ctx</text>
</a>
</g>
<!-- Node1&#45;&gt;Node11 -->
<g id="edge22" class="edge"><title>Node1&#45;&gt;Node11</title>
<path fill="none" stroke="midnightblue" d="M107.686,-190.773C125.349,-188.395 144.86,-185.769 162.067,-183.453"/>
<polygon fill="midnightblue" stroke="midnightblue" points="163.001,-186.858 172.445,-182.055 162.067,-179.921 163.001,-186.858"/>
</g>
<!-- Node12 -->
<g id="node24" class="node"><title>Node12</title>
<a xlink:href="cvm-hfa-search_8c.html#a30064f173d814bd3791b59d675c2f45f" target="_top" xlink:title="This routine cleans&#45;up a Search Context.">
<polygon fill="white" stroke="black" points="312,-120.5 312,-141.5 464,-141.5 464,-120.5 312,-120.5"/>
<text text-anchor="middle" x="388" y="-128.5" font-family="FreeSans" font-size="10.00">hfa_dev_searchctx_cleanup</text>
</a>
</g>
<!-- Node1&#45;&gt;Node12 -->
<g id="edge50" class="edge"><title>Node1&#45;&gt;Node12</title>
<path fill="none" stroke="midnightblue" d="M72.6425,-187.352C90.3941,-177.742 118.163,-164.062 144,-157 195.205,-143.004 254.372,-136.473 301.617,-133.456"/>
<polygon fill="midnightblue" stroke="midnightblue" points="302.043,-136.937 311.817,-132.847 301.626,-129.949 302.043,-136.937"/>
</g>
<!-- Node20 -->
<g id="node41" class="node"><title>Node20</title>
<a xlink:href="cvm-hfa-search_8c.html#a60c8025118f6a47f924733e47db8c77d" target="_top" xlink:title="This routine is used to specify settings used during the search and getmatches API.">
<polygon fill="white" stroke="black" points="146,-40.5 146,-61.5 274,-61.5 274,-40.5 146,-40.5"/>
<text text-anchor="middle" x="210" y="-48.5" font-family="FreeSans" font-size="10.00">hfa_searchctx_setflags</text>
</a>
</g>
<!-- Node1&#45;&gt;Node20 -->
<g id="edge42" class="edge"><title>Node1&#45;&gt;Node20</title>
<path fill="none" stroke="midnightblue" d="M65.2191,-187.428C91.6248,-162.546 157.945,-100.052 190.858,-69.0374"/>
<polygon fill="midnightblue" stroke="midnightblue" points="193.584,-71.278 198.462,-61.8727 188.783,-66.1835 193.584,-71.278"/>
</g>
<!-- Node4 -->
<g id="node7" class="node"><title>Node4</title>
<a xlink:href="cvm-hfa-stats_8c.html#a1cff986555a79b0d5ccee49801cb0056" target="_top" xlink:title="This routine allocates the memory for counters to maintain the statistics of search context...">
<polygon fill="white" stroke="black" points="322.5,-211.5 322.5,-232.5 453.5,-232.5 453.5,-211.5 322.5,-211.5"/>
<text text-anchor="middle" x="388" y="-219.5" font-family="FreeSans" font-size="10.00">hfa_searchctx_stats_init</text>
</a>
</g>
<!-- Node3&#45;&gt;Node4 -->
<g id="edge6" class="edge"><title>Node3&#45;&gt;Node4</title>
<path fill="none" stroke="midnightblue" d="M273.508,-220.714C286.034,-220.854 299.297,-221.003 312.182,-221.148"/>
<polygon fill="midnightblue" stroke="midnightblue" points="312.374,-224.65 322.413,-221.263 312.453,-217.651 312.374,-224.65"/>
</g>
<!-- Node5 -->
<g id="node9" class="node"><title>Node5</title>
<a xlink:href="cvm-hfa-stats_8c.html#acbdfa65e476c04cd9b67b7c462eefe56" target="_top" xlink:title="This routine allocates required memory from STATS ARENA.">
<polygon fill="white" stroke="black" points="500.5,-250.5 500.5,-271.5 629.5,-271.5 629.5,-250.5 500.5,-250.5"/>
<text text-anchor="middle" x="565" y="-258.5" font-family="FreeSans" font-size="10.00">hfa_stats_memoryalloc</text>
</a>
</g>
<!-- Node4&#45;&gt;Node5 -->
<g id="edge8" class="edge"><title>Node4&#45;&gt;Node5</title>
<path fill="none" stroke="midnightblue" d="M435.899,-232.554C457.838,-237.388 484.027,-243.159 507.066,-248.235"/>
<polygon fill="midnightblue" stroke="midnightblue" points="506.544,-251.704 517.063,-250.438 508.05,-244.868 506.544,-251.704"/>
</g>
<!-- Node6 -->
<g id="node11" class="node"><title>Node6</title>
<a xlink:href="cvm-hfa-stats_8c.html#a7a2acbe48c3850d43256938ee996aa16" target="_top" xlink:title="This routine frees memory to STATS ARENA.">
<polygon fill="white" stroke="black" points="666.5,-188.5 666.5,-209.5 791.5,-209.5 791.5,-188.5 666.5,-188.5"/>
<text text-anchor="middle" x="729" y="-196.5" font-family="FreeSans" font-size="10.00">hfa_stats_memoryfree</text>
</a>
</g>
<!-- Node4&#45;&gt;Node6 -->
<g id="edge10" class="edge"><title>Node4&#45;&gt;Node6</title>
<path fill="none" stroke="midnightblue" d="M453.748,-217.565C511.744,-213.654 596.141,-207.961 656.168,-203.912"/>
<polygon fill="midnightblue" stroke="midnightblue" points="656.589,-207.392 666.331,-203.227 656.118,-200.408 656.589,-207.392"/>
</g>
<!-- Node8 -->
<g id="node15" class="node"><title>Node8</title>
<a xlink:href="cvm-hfa-pp_8c.html#a9ad01b0f0de0f65b99a53f6c64f147e2" target="_top" xlink:title="ppinit">
<polygon fill="white" stroke="black" points="544,-290.5 544,-311.5 586,-311.5 586,-290.5 544,-290.5"/>
<text text-anchor="middle" x="565" y="-298.5" font-family="FreeSans" font-size="10.00">ppinit</text>
</a>
</g>
<!-- Node7&#45;&gt;Node8 -->
<g id="edge14" class="edge"><title>Node7&#45;&gt;Node8</title>
<path fill="none" stroke="midnightblue" d="M254.975,-271.554C272.662,-275.364 293.199,-279.37 312,-282 391.488,-293.121 486,-298.036 533.876,-299.946"/>
<polygon fill="midnightblue" stroke="midnightblue" points="533.785,-303.445 543.911,-300.329 534.052,-296.45 533.785,-303.445"/>
</g>
<!-- Node10 -->
<g id="node19" class="node"><title>Node10</title>
<a xlink:href="cvm-hfa-search_8c.html#a3200f5303f0611887f35dd500e7a8d00" target="_top" xlink:title="This is a utility routine which associates an application&#45;specifc cookie in the sctx.">
<polygon fill="white" stroke="black" points="319,-251.5 319,-272.5 457,-272.5 457,-251.5 319,-251.5"/>
<text text-anchor="middle" x="388" y="-259.5" font-family="FreeSans" font-size="10.00">hfa_searchctx_setppuarg</text>
</a>
</g>
<!-- Node7&#45;&gt;Node10 -->
<g id="edge18" class="edge"><title>Node7&#45;&gt;Node10</title>
<path fill="none" stroke="midnightblue" d="M276.028,-261.371C286.6,-261.43 297.636,-261.492 308.482,-261.553"/>
<polygon fill="midnightblue" stroke="midnightblue" points="308.781,-265.055 318.801,-261.611 308.821,-258.055 308.781,-265.055"/>
</g>
<!-- Node9 -->
<g id="node17" class="node"><title>Node9</title>
<a xlink:href="pp_8h.html#adc8d105abb8f12812385bb87d15e6e32" target="_top" xlink:title="pphfa_init">
<polygon fill="white" stroke="black" points="697.5,-290.5 697.5,-311.5 760.5,-311.5 760.5,-290.5 697.5,-290.5"/>
<text text-anchor="middle" x="729" y="-298.5" font-family="FreeSans" font-size="10.00">pphfa_init</text>
</a>
</g>
<!-- Node8&#45;&gt;Node9 -->
<g id="edge16" class="edge"><title>Node8&#45;&gt;Node9</title>
<path fill="none" stroke="midnightblue" d="M586.104,-301C611.553,-301 654.928,-301 687.231,-301"/>
<polygon fill="midnightblue" stroke="midnightblue" points="687.293,-304.5 697.293,-301 687.293,-297.5 687.293,-304.5"/>
</g>
<!-- Node10&#45;&gt;Node8 -->
<g id="edge20" class="edge"><title>Node10&#45;&gt;Node8</title>
<path fill="none" stroke="midnightblue" d="M435.899,-272.554C466.991,-279.405 506.619,-288.136 533.718,-294.107"/>
<polygon fill="midnightblue" stroke="midnightblue" points="533.279,-297.595 543.798,-296.328 534.785,-290.759 533.279,-297.595"/>
</g>
<!-- Node11&#45;&gt;Node12 -->
<g id="edge24" class="edge"><title>Node11&#45;&gt;Node12</title>
<path fill="none" stroke="midnightblue" d="M247.749,-167.245C273.858,-160.497 308.892,-151.444 337.414,-144.073"/>
<polygon fill="midnightblue" stroke="midnightblue" points="338.399,-147.433 347.205,-141.543 336.647,-140.656 338.399,-147.433"/>
</g>
<!-- Node13 -->
<g id="node26" class="node"><title>Node13</title>
<a xlink:href="cvm-hfa-pp_8c.html#add6064138ec2e35741929056a0992d8d" target="_top" xlink:title="ppgetstats">
<polygon fill="white" stroke="black" points="532,-40.5 532,-61.5 598,-61.5 598,-40.5 532,-40.5"/>
<text text-anchor="middle" x="565" y="-48.5" font-family="FreeSans" font-size="10.00">ppgetstats</text>
</a>
</g>
<!-- Node12&#45;&gt;Node13 -->
<g id="edge26" class="edge"><title>Node12&#45;&gt;Node13</title>
<path fill="none" stroke="midnightblue" d="M405.329,-120.351C426.909,-107.414 465.186,-85.5206 500,-71 507.046,-68.061 514.68,-65.3307 522.155,-62.8911"/>
<polygon fill="midnightblue" stroke="midnightblue" points="523.333,-66.19 531.828,-59.8585 521.239,-59.5106 523.333,-66.19"/>
</g>
<!-- Node15 -->
<g id="node30" class="node"><title>Node15</title>
<a xlink:href="cvm-hfa-pp_8c.html#a57ec655c9bdb6ce63ada6767c7e14763" target="_top" xlink:title="ppcleanstats">
<polygon fill="white" stroke="black" points="526.5,-120.5 526.5,-141.5 603.5,-141.5 603.5,-120.5 526.5,-120.5"/>
<text text-anchor="middle" x="565" y="-128.5" font-family="FreeSans" font-size="10.00">ppcleanstats</text>
</a>
</g>
<!-- Node12&#45;&gt;Node15 -->
<g id="edge30" class="edge"><title>Node12&#45;&gt;Node15</title>
<path fill="none" stroke="midnightblue" d="M464.091,-131C481.769,-131 500.121,-131 516.25,-131"/>
<polygon fill="midnightblue" stroke="midnightblue" points="516.498,-134.5 526.498,-131 516.498,-127.5 516.498,-134.5"/>
</g>
<!-- Node17 -->
<g id="node34" class="node"><title>Node17</title>
<a xlink:href="cvm-hfa-pp_8c.html#a41ce9d3103c639e474783d3843e09071" target="_top" xlink:title="ppcleanup">
<polygon fill="white" stroke="black" points="532,-80.5 532,-101.5 598,-101.5 598,-80.5 532,-80.5"/>
<text text-anchor="middle" x="565" y="-88.5" font-family="FreeSans" font-size="10.00">ppcleanup</text>
</a>
</g>
<!-- Node12&#45;&gt;Node17 -->
<g id="edge34" class="edge"><title>Node12&#45;&gt;Node17</title>
<path fill="none" stroke="midnightblue" d="M434.505,-120.49C461.661,-114.354 495.684,-106.665 522.181,-100.677"/>
<polygon fill="midnightblue" stroke="midnightblue" points="522.955,-104.09 531.938,-98.4716 521.412,-97.2621 522.955,-104.09"/>
</g>
<!-- Node19 -->
<g id="node38" class="node"><title>Node19</title>
<a xlink:href="cvm-hfa-stats_8c.html#a2df4c76e04e7b028ed2df4bba1b2de3d" target="_top" xlink:title="This routine is the counterpart of hfa_searchctx_init_stats().">
<polygon fill="white" stroke="black" points="508.5,-160 508.5,-194 621.5,-194 621.5,-160 508.5,-160"/>
<text text-anchor="start" x="516.5" y="-181" font-family="FreeSans" font-size="10.00">hfa_searchctx_stats</text>
<text text-anchor="middle" x="565" y="-168" font-family="FreeSans" font-size="10.00">_cleanup</text>
</a>
</g>
<!-- Node12&#45;&gt;Node19 -->
<g id="edge38" class="edge"><title>Node12&#45;&gt;Node19</title>
<path fill="none" stroke="midnightblue" d="M428.607,-141.553C449.326,-146.938 475.057,-153.625 498.567,-159.735"/>
<polygon fill="midnightblue" stroke="midnightblue" points="497.928,-163.185 508.487,-162.313 499.688,-156.41 497.928,-163.185"/>
</g>
<!-- Node14 -->
<g id="node28" class="node"><title>Node14</title>
<a xlink:href="pp_8h.html#a808d5057ee5670ce724a6a88fc22b799" target="_top" xlink:title="pphfa_getstats">
<polygon fill="white" stroke="black" points="685.5,-40.5 685.5,-61.5 772.5,-61.5 772.5,-40.5 685.5,-40.5"/>
<text text-anchor="middle" x="729" y="-48.5" font-family="FreeSans" font-size="10.00">pphfa_getstats</text>
</a>
</g>
<!-- Node13&#45;&gt;Node14 -->
<g id="edge28" class="edge"><title>Node13&#45;&gt;Node14</title>
<path fill="none" stroke="midnightblue" d="M598.188,-51C620.234,-51 649.682,-51 675.055,-51"/>
<polygon fill="midnightblue" stroke="midnightblue" points="675.28,-54.5001 685.28,-51 675.28,-47.5001 675.28,-54.5001"/>
</g>
<!-- Node16 -->
<g id="node32" class="node"><title>Node16</title>
<a xlink:href="pp_8h.html#a978b171bd7a736cb7fa0d5d034aa94e2" target="_top" xlink:title="pphfa_cleanstats">
<polygon fill="white" stroke="black" points="680,-120.5 680,-141.5 778,-141.5 778,-120.5 680,-120.5"/>
<text text-anchor="middle" x="729" y="-128.5" font-family="FreeSans" font-size="10.00">pphfa_cleanstats</text>
</a>
</g>
<!-- Node15&#45;&gt;Node16 -->
<g id="edge32" class="edge"><title>Node15&#45;&gt;Node16</title>
<path fill="none" stroke="midnightblue" d="M603.866,-131C623.491,-131 647.724,-131 669.622,-131"/>
<polygon fill="midnightblue" stroke="midnightblue" points="669.822,-134.5 679.822,-131 669.822,-127.5 669.822,-134.5"/>
</g>
<!-- Node18 -->
<g id="node36" class="node"><title>Node18</title>
<a xlink:href="pp_8h.html#a428ad073d1fd72da37ab8b00f13693a3" target="_top" xlink:title="pphfa_cleanup">
<polygon fill="white" stroke="black" points="685.5,-80.5 685.5,-101.5 772.5,-101.5 772.5,-80.5 685.5,-80.5"/>
<text text-anchor="middle" x="729" y="-88.5" font-family="FreeSans" font-size="10.00">pphfa_cleanup</text>
</a>
</g>
<!-- Node17&#45;&gt;Node18 -->
<g id="edge36" class="edge"><title>Node17&#45;&gt;Node18</title>
<path fill="none" stroke="midnightblue" d="M598.188,-91C620.234,-91 649.682,-91 675.055,-91"/>
<polygon fill="midnightblue" stroke="midnightblue" points="675.28,-94.5001 685.28,-91 675.28,-87.5001 675.28,-94.5001"/>
</g>
<!-- Node19&#45;&gt;Node6 -->
<g id="edge40" class="edge"><title>Node19&#45;&gt;Node6</title>
<path fill="none" stroke="midnightblue" d="M621.899,-184.633C632.99,-186.121 644.759,-187.699 656.28,-189.245"/>
<polygon fill="midnightblue" stroke="midnightblue" points="655.941,-192.731 666.318,-190.591 656.872,-185.793 655.941,-192.731"/>
</g>
<!-- Node20&#45;&gt;Node13 -->
<g id="edge44" class="edge"><title>Node20&#45;&gt;Node13</title>
<path fill="none" stroke="midnightblue" d="M274.288,-51C345.873,-51 459.623,-51 521.476,-51"/>
<polygon fill="midnightblue" stroke="midnightblue" points="521.671,-54.5001 531.671,-51 521.671,-47.5001 521.671,-54.5001"/>
</g>
<!-- Node21 -->
<g id="node44" class="node"><title>Node21</title>
<a xlink:href="cvm-hfa-pp_8c.html#a73cd0d7244d64410753dac7b809d2060" target="_top" xlink:title="ppassignstats">
<polygon fill="white" stroke="black" points="347.5,-1.5 347.5,-22.5 428.5,-22.5 428.5,-1.5 347.5,-1.5"/>
<text text-anchor="middle" x="388" y="-9.5" font-family="FreeSans" font-size="10.00">ppassignstats</text>
</a>
</g>
<!-- Node20&#45;&gt;Node21 -->
<g id="edge46" class="edge"><title>Node20&#45;&gt;Node21</title>
<path fill="none" stroke="midnightblue" d="M258.169,-40.446C282.693,-35.0729 312.496,-28.5429 337.361,-23.0952"/>
<polygon fill="midnightblue" stroke="midnightblue" points="338.311,-26.4701 347.33,-20.9109 336.812,-19.6323 338.311,-26.4701"/>
</g>
<!-- Node22 -->
<g id="node46" class="node"><title>Node22</title>
<a xlink:href="pp_8h.html#ad0cc4aeca687557949697bef25cdb764" target="_top" xlink:title="pphfa_assignstats">
<polygon fill="white" stroke="black" points="514,-0.5 514,-21.5 616,-21.5 616,-0.5 514,-0.5"/>
<text text-anchor="middle" x="565" y="-8.5" font-family="FreeSans" font-size="10.00">pphfa_assignstats</text>
</a>
</g>
<!-- Node21&#45;&gt;Node22 -->
<g id="edge48" class="edge"><title>Node21&#45;&gt;Node22</title>
<path fill="none" stroke="midnightblue" d="M428.607,-11.7706C450.854,-11.6449 478.878,-11.4866 503.729,-11.3462"/>
<polygon fill="midnightblue" stroke="midnightblue" points="503.817,-14.8458 513.797,-11.2893 503.777,-7.84593 503.817,-14.8458"/>
</g>
</g>
</svg>
