<?xml version="1.0" encoding="UTF-8" standalone="no"?>
<!DOCTYPE svg PUBLIC "-//W3C//DTD SVG 1.1//EN"
 "http://www.w3.org/Graphics/SVG/1.1/DTD/svg11.dtd">
<!-- Generated by graphviz version 2.24.0 (20090616.2323)
 -->
<!-- Title: Graph Legend Pages: 1 -->
<svg width="524pt" height="174pt"
 viewBox="0.00 0.00 524.00 174.00" xmlns="http://www.w3.org/2000/svg" xmlns:xlink="http://www.w3.org/1999/xlink">
<g id="graph1" class="graph" transform="scale(1 1) rotate(0) translate(4 170)">
<title>Graph Legend</title>
<polygon fill="white" stroke="white" points="-4,5 -4,-170 521,-170 521,5 -4,5"/>
<!-- Node9 -->
<g id="node1" class="node"><title>Node9</title>
<polygon fill="#bfbfbf" stroke="black" points="298,-21.5 242,-21.5 242,-0.5 298,-0.5 298,-21.5"/>
<text text-anchor="middle" x="270" y="-8.5" font-family="FreeSans" font-size="10.00">Inherited</text>
</g>
<!-- Node10 -->
<g id="node2" class="node"><title>Node10</title>
<a xlink:href="$classPublicBase.html" xlink:title="PublicBase">
<polygon fill="none" stroke="black" points="66,-93.5 1.54425e-14,-93.5 8.44116e-15,-72.5 66,-72.5 66,-93.5"/>
<text text-anchor="middle" x="33" y="-80.5" font-family="FreeSans" font-size="10.00">PublicBase</text>
</a>
</g>
<!-- Node10&#45;&gt;Node9 -->
<g id="edge2" class="edge"><title>Node10&#45;&gt;Node9</title>
<path fill="none" stroke="midnightblue" d="M76.0212,-69.9303C124.163,-55.3049 200.776,-32.0301 241.831,-19.5577"/>
<polygon fill="midnightblue" stroke="midnightblue" points="74.7542,-66.6572 66.2034,-72.9129 76.789,-73.3549 74.7542,-66.6572"/>
</g>
<!-- Node11 -->
<g id="node4" class="node"><title>Node11</title>
<a xlink:href="$classTruncated.html" xlink:title="Truncated">
<polygon fill="none" stroke="red" points="64,-165.5 2,-165.5 2,-144.5 64,-144.5 64,-165.5"/>
<text text-anchor="middle" x="33" y="-152.5" font-family="FreeSans" font-size="10.00">Truncated</text>
</a>
</g>
<!-- Node11&#45;&gt;Node10 -->
<g id="edge4" class="edge"><title>Node11&#45;&gt;Node10</title>
<path fill="none" stroke="midnightblue" d="M33,-134.235C33,-120.969 33,-104.319 33,-93.6674"/>
<polygon fill="midnightblue" stroke="midnightblue" points="29.5001,-134.376 33,-144.376 36.5001,-134.376 29.5001,-134.376"/>
</g>
<!-- Node13 -->
<g id="node6" class="node"><title>Node13</title>
<a xlink:href="$classProtectedBase.html" xlink:title="ProtectedBase">
<polygon fill="none" stroke="black" points="168,-93.5 84,-93.5 84,-72.5 168,-72.5 168,-93.5"/>
<text text-anchor="middle" x="126" y="-80.5" font-family="FreeSans" font-size="10.00">ProtectedBase</text>
</a>
</g>
<!-- Node13&#45;&gt;Node9 -->
<g id="edge6" class="edge"><title>Node13&#45;&gt;Node9</title>
<path fill="none" stroke="darkgreen" d="M156.473,-67.7634C184.153,-53.9236 224.273,-33.8633 248.665,-21.6674"/>
<polygon fill="darkgreen" stroke="darkgreen" points="154.627,-64.7735 147.248,-72.3762 157.757,-71.0345 154.627,-64.7735"/>
</g>
<!-- Node14 -->
<g id="node8" class="node"><title>Node14</title>
<a xlink:href="$classPrivateBase.html" xlink:title="PrivateBase">
<polygon fill="none" stroke="black" points="256,-93.5 186,-93.5 186,-72.5 256,-72.5 256,-93.5"/>
<text text-anchor="middle" x="221" y="-80.5" font-family="FreeSans" font-size="10.00">PrivateBase</text>
</a>
</g>
<!-- Node14&#45;&gt;Node9 -->
<g id="edge8" class="edge"><title>Node14&#45;&gt;Node9</title>
<path fill="none" stroke="#8b1a1a" d="M234.06,-63.8099C243.247,-50.3106 255.201,-32.7449 262.74,-21.6674"/>
<polygon fill="#8b1a1a" stroke="#8b1a1a" points="230.963,-62.1398 228.23,-72.3762 236.75,-66.0782 230.963,-62.1398"/>
</g>
<!-- Node15 -->
<g id="node10" class="node"><title>Node15</title>
<polygon fill="none" stroke="#bfbfbf" points="364,-93.5 274,-93.5 274,-72.5 364,-72.5 364,-93.5"/>
<text text-anchor="middle" x="319" y="-80.5" font-family="FreeSans" font-size="10.00">Undocumented</text>
</g>
<!-- Node15&#45;&gt;Node9 -->
<g id="edge10" class="edge"><title>Node15&#45;&gt;Node9</title>
<path fill="none" stroke="midnightblue" d="M305.94,-63.8099C296.753,-50.3106 284.799,-32.7449 277.26,-21.6674"/>
<polygon fill="midnightblue" stroke="midnightblue" points="303.25,-66.0782 311.77,-72.3762 309.037,-62.1398 303.25,-66.0782"/>
</g>
<!-- Node16 -->
<g id="node12" class="node"><title>Node16</title>
<a xlink:href="$classTempl.html" xlink:title="Templ&lt; int &gt;">
<polygon fill="none" stroke="black" points="458,-93.5 382,-93.5 382,-72.5 458,-72.5 458,-93.5"/>
<text text-anchor="middle" x="420" y="-80.5" font-family="FreeSans" font-size="10.00">Templ&lt; int &gt;</text>
</a>
</g>
<!-- Node16&#45;&gt;Node9 -->
<g id="edge12" class="edge"><title>Node16&#45;&gt;Node9</title>
<path fill="none" stroke="midnightblue" d="M388.634,-67.9443C359.79,-54.099 317.743,-33.9165 292.224,-21.6674"/>
<polygon fill="midnightblue" stroke="midnightblue" points="387.337,-71.2041 397.867,-72.3762 390.366,-64.8935 387.337,-71.2041"/>
</g>
<!-- Node17 -->
<g id="node14" class="node"><title>Node17</title>
<a xlink:href="$classTempl.html" xlink:title="Templ&lt; T &gt;">
<polygon fill="none" stroke="black" points="455,-165.5 385,-165.5 385,-144.5 455,-144.5 455,-165.5"/>
<text text-anchor="middle" x="420" y="-152.5" font-family="FreeSans" font-size="10.00">Templ&lt; T &gt;</text>
</a>
</g>
<!-- Node17&#45;&gt;Node16 -->
<g id="edge14" class="edge"><title>Node17&#45;&gt;Node16</title>
<path fill="none" stroke="orange" stroke-dasharray="5,2" d="M420,-134.235C420,-120.969 420,-104.319 420,-93.6674"/>
<polygon fill="orange" stroke="orange" points="416.5,-134.376 420,-144.376 423.5,-134.376 416.5,-134.376"/>
<text text-anchor="middle" x="436" y="-116.5" font-family="FreeSans" font-size="10.00">&lt; int &gt;</text>
</g>
<!-- Node18 -->
<g id="node16" class="node"><title>Node18</title>
<a xlink:href="$classUsed.html" xlink:title="Used">
<polygon fill="none" stroke="black" points="516,-93.5 476,-93.5 476,-72.5 516,-72.5 516,-93.5"/>
<text text-anchor="middle" x="496" y="-80.5" font-family="FreeSans" font-size="10.00">Used</text>
</a>
</g>
<!-- Node18&#45;&gt;Node9 -->
<g id="edge16" class="edge"><title>Node18&#45;&gt;Node9</title>
<path fill="none" stroke="#9a32cd" stroke-dasharray="5,2" d="M466.151,-71.837C400.851,-49.5362 334.845,-29.8277 298.234,-19.1411"/>
<polygon fill="#9a32cd" stroke="#9a32cd" points="465.182,-75.2049 475.777,-75.1454 467.458,-68.585 465.182,-75.2049"/>
<text text-anchor="middle" x="439.5" y="-44.5" font-family="FreeSans" font-size="10.00">m_usedClass</text>
</g>
</g>
</svg>
