<?xml version="1.0" encoding="UTF-8" standalone="no"?>
<!DOCTYPE svg PUBLIC "-//W3C//DTD SVG 1.1//EN"
 "http://www.w3.org/Graphics/SVG/1.1/DTD/svg11.dtd">
<!-- Generated by graphviz version 2.24.0 (20090616.2323)
 -->
<!-- Title: get_sparam Pages: 1 -->
<svg width="316pt" height="226pt"
 viewBox="0.00 0.00 316.00 226.00" xmlns="http://www.w3.org/2000/svg" xmlns:xlink="http://www.w3.org/1999/xlink">
<g id="graph1" class="graph" transform="scale(1 1) rotate(0) translate(4 222)">
<title>get_sparam</title>
<polygon fill="white" stroke="white" points="-4,5 -4,-222 313,-222 313,5 -4,5"/>
<!-- Node1 -->
<g id="node1" class="node"><title>Node1</title>
<polygon fill="#bfbfbf" stroke="black" points="0.5,-104.5 0.5,-125.5 73.5,-125.5 73.5,-104.5 0.5,-104.5"/>
<text text-anchor="middle" x="37" y="-112.5" font-family="FreeSans" font-size="10.00">get_sparam</text>
</g>
<!-- Node2 -->
<g id="node3" class="node"><title>Node2</title>
<a xlink:href="hfa-se-flow_8c.html#a7ab45fe0bf9371bbe81609ffe8a62702" target="_top" xlink:title="Cleanup memory allocated for search parameters.">
<polygon fill="white" stroke="black" points="137.5,-196.5 137.5,-217.5 204.5,-217.5 204.5,-196.5 137.5,-196.5"/>
<text text-anchor="middle" x="171" y="-204.5" font-family="FreeSans" font-size="10.00">freeparam</text>
</a>
</g>
<!-- Node1&#45;&gt;Node2 -->
<g id="edge2" class="edge"><title>Node1&#45;&gt;Node2</title>
<path fill="none" stroke="midnightblue" d="M45.0428,-125.599C57.3903,-141.178 82.4928,-170.223 110,-187 115.495,-190.351 121.615,-193.208 127.798,-195.624"/>
<polygon fill="midnightblue" stroke="midnightblue" points="126.892,-199.016 137.487,-199.063 129.234,-192.419 126.892,-199.016"/>
</g>
<!-- Node4 -->
<g id="node7" class="node"><title>Node4</title>
<a xlink:href="cvm-hfa-search_8h.html#a0210e636ef06f718be0e67753bebaa04" target="_top" xlink:title="This routine configures the application callback routine which will be invoked when a pattern match i...">
<polygon fill="white" stroke="black" points="110.5,-144 110.5,-178 231.5,-178 231.5,-144 110.5,-144"/>
<text text-anchor="start" x="118.5" y="-165" font-family="FreeSans" font-size="10.00">hfa_searchparam_set</text>
<text text-anchor="middle" x="171" y="-152" font-family="FreeSans" font-size="10.00">_matchcb</text>
</a>
</g>
<!-- Node1&#45;&gt;Node4 -->
<g id="edge6" class="edge"><title>Node1&#45;&gt;Node4</title>
<path fill="none" stroke="midnightblue" d="M67.7423,-125.553C80.7361,-130.014 96.3334,-135.368 111.422,-140.548"/>
<polygon fill="midnightblue" stroke="midnightblue" points="110.637,-143.979 121.232,-143.915 112.91,-137.358 110.637,-143.979"/>
</g>
<!-- Node5 -->
<g id="node9" class="node"><title>Node5</title>
<a xlink:href="app-utils_8c.html#a97d86363214adebf7bbc22fa81e2c6b6" target="_top" xlink:title="Match callback to count number of matches.">
<polygon fill="white" stroke="black" points="121.5,-104.5 121.5,-125.5 220.5,-125.5 220.5,-104.5 121.5,-104.5"/>
<text text-anchor="middle" x="171" y="-112.5" font-family="FreeSans" font-size="10.00">hfautils_matchcb</text>
</a>
</g>
<!-- Node1&#45;&gt;Node5 -->
<g id="edge8" class="edge"><title>Node1&#45;&gt;Node5</title>
<path fill="none" stroke="midnightblue" d="M73.6161,-115C85.2335,-115 98.3973,-115 111.206,-115"/>
<polygon fill="midnightblue" stroke="midnightblue" points="111.365,-118.5 121.365,-115 111.365,-111.5 111.365,-118.5"/>
</g>
<!-- Node6 -->
<g id="node11" class="node"><title>Node6</title>
<a xlink:href="cvm-hfa-search_8h.html#a3c407460808f038770473ffc6e4b5c38" target="_top" xlink:title="This routine adds a new input IO vector to Search Param.">
<polygon fill="white" stroke="black" points="110.5,-52 110.5,-86 231.5,-86 231.5,-52 110.5,-52"/>
<text text-anchor="start" x="118.5" y="-73" font-family="FreeSans" font-size="10.00">hfa_searchparam_set</text>
<text text-anchor="middle" x="171" y="-60" font-family="FreeSans" font-size="10.00">_inputiovec</text>
</a>
</g>
<!-- Node1&#45;&gt;Node6 -->
<g id="edge10" class="edge"><title>Node1&#45;&gt;Node6</title>
<path fill="none" stroke="midnightblue" d="M67.7423,-104.447C80.7361,-99.9861 96.3334,-94.6318 111.422,-89.452"/>
<polygon fill="midnightblue" stroke="midnightblue" points="112.91,-92.6418 121.232,-86.0845 110.637,-86.0211 112.91,-92.6418"/>
</g>
<!-- Node7 -->
<g id="node13" class="node"><title>Node7</title>
<a xlink:href="cvm-hfa-search_8h.html#a12882fa53f8ec49b9b2950711161db42" target="_top" xlink:title="This routine sets the output buffer in the sparam.">
<polygon fill="white" stroke="black" points="110.5,-0 110.5,-34 231.5,-34 231.5,-0 110.5,-0"/>
<text text-anchor="start" x="118.5" y="-21" font-family="FreeSans" font-size="10.00">hfa_searchparam_set</text>
<text text-anchor="middle" x="171" y="-8" font-family="FreeSans" font-size="10.00">_output</text>
</a>
</g>
<!-- Node1&#45;&gt;Node7 -->
<g id="edge12" class="edge"><title>Node1&#45;&gt;Node7</title>
<path fill="none" stroke="midnightblue" d="M45.4451,-104.449C58.109,-89.1915 83.388,-60.8455 110,-43 112.133,-41.5694 114.358,-40.1907 116.643,-38.8656"/>
<polygon fill="midnightblue" stroke="midnightblue" points="118.517,-41.8322 125.679,-34.0249 115.211,-35.6617 118.517,-41.8322"/>
</g>
<!-- Node3 -->
<g id="node5" class="node"><title>Node3</title>
<a xlink:href="hfa-se-flow_8c.html#a49535197bf697f5b0b5f2952e1e5063c" target="_top" xlink:title="Free packet buffer and wqe to the corresponding fpa pools.">
<polygon fill="white" stroke="black" points="268.5,-196.5 268.5,-217.5 307.5,-217.5 307.5,-196.5 268.5,-196.5"/>
<text text-anchor="middle" x="288" y="-204.5" font-family="FreeSans" font-size="10.00">send</text>
</a>
</g>
<!-- Node2&#45;&gt;Node3 -->
<g id="edge4" class="edge"><title>Node2&#45;&gt;Node3</title>
<path fill="none" stroke="midnightblue" d="M204.528,-207C221.478,-207 241.871,-207 258.257,-207"/>
<polygon fill="midnightblue" stroke="midnightblue" points="258.371,-210.5 268.37,-207 258.37,-203.5 258.371,-210.5"/>
</g>
</g>
</svg>
