<?xml version="1.0" encoding="UTF-8" standalone="no"?>
<!DOCTYPE svg PUBLIC "-//W3C//DTD SVG 1.1//EN"
 "http://www.w3.org/Graphics/SVG/1.1/DTD/svg11.dtd">
<!-- Generated by graphviz version 2.24.0 (20090616.2323)
 -->
<!-- Title: freepktwqe Pages: 1 -->
<svg width="498pt" height="110pt"
 viewBox="0.00 0.00 498.00 110.00" xmlns="http://www.w3.org/2000/svg" xmlns:xlink="http://www.w3.org/1999/xlink">
<g id="graph1" class="graph" transform="scale(1 1) rotate(0) translate(4 106)">
<title>freepktwqe</title>
<polygon fill="white" stroke="white" points="-4,5 -4,-106 495,-106 495,5 -4,5"/>
<!-- Node1 -->
<g id="node1" class="node"><title>Node1</title>
<polygon fill="#bfbfbf" stroke="black" points="0,-60.5 0,-81.5 70,-81.5 70,-60.5 0,-60.5"/>
<text text-anchor="middle" x="35" y="-68.5" font-family="FreeSans" font-size="10.00">freepktwqe</text>
</g>
<!-- Node2 -->
<g id="node3" class="node"><title>Node2</title>
<a xlink:href="hfa-se-ctx_8c.html#acb147b6c8f12833e34cb9fe31a96db11" target="_top" xlink:title="send">
<polygon fill="white" stroke="black" points="123.5,-80.5 123.5,-101.5 162.5,-101.5 162.5,-80.5 123.5,-80.5"/>
<text text-anchor="middle" x="143" y="-88.5" font-family="FreeSans" font-size="10.00">send</text>
</a>
</g>
<!-- Node1&#45;&gt;Node2 -->
<g id="edge2" class="edge"><title>Node1&#45;&gt;Node2</title>
<path fill="none" stroke="midnightblue" d="M80.2389,-79.3776C95.2341,-82.1545 111.155,-85.1028 123.21,-87.3351"/>
<polygon fill="midnightblue" stroke="midnightblue" points="80.5347,-75.8729 70.0645,-77.4934 79.26,-82.7559 80.5347,-75.8729"/>
</g>
<!-- Node3 -->
<g id="node5" class="node"><title>Node3</title>
<a xlink:href="hfa-se-ctx_8c.html#a07eb255c008c854386962d955ebe636e" target="_top" xlink:title="Send packet back or free packet data depending on wqe_status.">
<polygon fill="white" stroke="black" points="106,-40.5 106,-61.5 180,-61.5 180,-40.5 106,-40.5"/>
<text text-anchor="middle" x="143" y="-48.5" font-family="FreeSans" font-size="10.00">sendpktwqe</text>
</a>
</g>
<!-- Node1&#45;&gt;Node3 -->
<g id="edge4" class="edge"><title>Node1&#45;&gt;Node3</title>
<path fill="none" stroke="midnightblue" d="M79.9849,-62.6695C88.6057,-61.073 97.5419,-59.4182 105.881,-57.8739"/>
<polygon fill="midnightblue" stroke="midnightblue" points="79.26,-59.2441 70.0645,-64.5066 80.5347,-66.1271 79.26,-59.2441"/>
</g>
<!-- Node4 -->
<g id="node7" class="node"><title>Node4</title>
<a xlink:href="hfa-se-ctx_8c.html#a064576c58038a1afa64cf8cb45271bf4" target="_top" xlink:title="Cleanup memory allocated for search parameters.">
<polygon fill="white" stroke="black" points="222.5,-60.5 222.5,-81.5 289.5,-81.5 289.5,-60.5 222.5,-60.5"/>
<text text-anchor="middle" x="256" y="-68.5" font-family="FreeSans" font-size="10.00">freeparam</text>
</a>
</g>
<!-- Node3&#45;&gt;Node4 -->
<g id="edge6" class="edge"><title>Node3&#45;&gt;Node4</title>
<path fill="none" stroke="midnightblue" d="M190.166,-59.3479C200.974,-61.2608 212.25,-63.2567 222.354,-65.045"/>
<polygon fill="midnightblue" stroke="midnightblue" points="190.457,-55.8452 180,-57.5487 189.237,-62.7381 190.457,-55.8452"/>
</g>
<!-- Node5 -->
<g id="node9" class="node"><title>Node5</title>
<a xlink:href="hfa-se-ctx_8c.html#aaf2d1bda55a80b5467e3ef350c514243" target="_top" xlink:title="Process search on recieved packet wqe.">
<polygon fill="white" stroke="black" points="216,-20.5 216,-41.5 296,-41.5 296,-20.5 216,-20.5"/>
<text text-anchor="middle" x="256" y="-28.5" font-family="FreeSans" font-size="10.00">process_wqe</text>
</a>
</g>
<!-- Node3&#45;&gt;Node5 -->
<g id="edge8" class="edge"><title>Node3&#45;&gt;Node5</title>
<path fill="none" stroke="midnightblue" d="M189.907,-42.6979C198.508,-41.1756 207.414,-39.5992 215.797,-38.1155"/>
<polygon fill="midnightblue" stroke="midnightblue" points="189.237,-39.2619 180,-44.4513 190.457,-46.1548 189.237,-39.2619"/>
</g>
<!-- Node6 -->
<g id="node11" class="node"><title>Node6</title>
<a xlink:href="hfa-se-ctx_8c.html#ac6740f043d197065a62fbd0570b4f735" target="_top" xlink:title="Do asynchrounous get work operation then pre&#45;fetch recieved wqe and process search on recieved packet...">
<polygon fill="white" stroke="black" points="335,-40.5 335,-61.5 409,-61.5 409,-40.5 335,-40.5"/>
<text text-anchor="middle" x="372" y="-48.5" font-family="FreeSans" font-size="10.00">process_pkt</text>
</a>
</g>
<!-- Node5&#45;&gt;Node6 -->
<g id="edge10" class="edge"><title>Node5&#45;&gt;Node6</title>
<path fill="none" stroke="midnightblue" d="M306.162,-39.6486C315.825,-41.3146 325.783,-43.0316 334.938,-44.61"/>
<polygon fill="midnightblue" stroke="midnightblue" points="306.695,-36.1889 296.246,-37.9389 305.506,-43.0872 306.695,-36.1889"/>
</g>
<!-- Node9 -->
<g id="node17" class="node"><title>Node9</title>
<a xlink:href="hfa-se-wqe-lock_8c.html#a06b5fcfab0e1d5eb36b633ec080ad7f9" target="_top" xlink:title="Process search for given contexts.">
<polygon fill="white" stroke="black" points="332,-0.5 332,-21.5 412,-21.5 412,-0.5 332,-0.5"/>
<text text-anchor="middle" x="372" y="-8.5" font-family="FreeSans" font-size="10.00">process_nctx</text>
</a>
</g>
<!-- Node5&#45;&gt;Node9 -->
<g id="edge16" class="edge"><title>Node5&#45;&gt;Node9</title>
<path fill="none" stroke="midnightblue" d="M306.162,-22.3514C314.74,-20.8724 323.551,-19.3533 331.826,-17.9266"/>
<polygon fill="midnightblue" stroke="midnightblue" points="305.506,-18.9128 296.246,-24.0611 306.695,-25.8111 305.506,-18.9128"/>
</g>
<!-- Node7 -->
<g id="node13" class="node"><title>Node7</title>
<a xlink:href="hfa-lnx-ctx_8c.html#a78ffddbcd7cdd164889cfb53ea367886" target="_top" xlink:title="entry">
<polygon fill="white" stroke="black" points="448.5,-80.5 448.5,-101.5 489.5,-101.5 489.5,-80.5 448.5,-80.5"/>
<text text-anchor="middle" x="469" y="-88.5" font-family="FreeSans" font-size="10.00">entry</text>
</a>
</g>
<!-- Node6&#45;&gt;Node7 -->
<g id="edge12" class="edge"><title>Node6&#45;&gt;Node7</title>
<path fill="none" stroke="midnightblue" d="M406.776,-65.3406C420.663,-71.0674 436.187,-77.4687 448.254,-82.4451"/>
<polygon fill="midnightblue" stroke="midnightblue" points="408.065,-62.0862 397.486,-61.5095 405.396,-68.5576 408.065,-62.0862"/>
</g>
<!-- Node8 -->
<g id="node15" class="node"><title>Node8</title>
<a xlink:href="hfa-se-ctx_8c.html#a3c04138a5bfe5d72780bb7e82a18e627" target="_top" xlink:title="main">
<polygon fill="white" stroke="black" points="449,-40.5 449,-61.5 489,-61.5 489,-40.5 449,-40.5"/>
<text text-anchor="middle" x="469" y="-48.5" font-family="FreeSans" font-size="10.00">main</text>
</a>
</g>
<!-- Node6&#45;&gt;Node8 -->
<g id="edge14" class="edge"><title>Node6&#45;&gt;Node8</title>
<path fill="none" stroke="midnightblue" d="M419.483,-51C429.832,-51 440.242,-51 448.828,-51"/>
<polygon fill="midnightblue" stroke="midnightblue" points="419.225,-47.5001 409.225,-51 419.225,-54.5001 419.225,-47.5001"/>
</g>
<!-- Node10 -->
<g id="node19" class="node"><title>Node10</title>
<a xlink:href="hfa-se-wqe-lock_8c.html#a3c04138a5bfe5d72780bb7e82a18e627" target="_top" xlink:title="main">
<polygon fill="white" stroke="black" points="449,-0.5 449,-21.5 489,-21.5 489,-0.5 449,-0.5"/>
<text text-anchor="middle" x="469" y="-8.5" font-family="FreeSans" font-size="10.00">main</text>
</a>
</g>
<!-- Node9&#45;&gt;Node10 -->
<g id="edge18" class="edge"><title>Node9&#45;&gt;Node10</title>
<path fill="none" stroke="midnightblue" d="M422.263,-11C431.739,-11 441.125,-11 448.971,-11"/>
<polygon fill="midnightblue" stroke="midnightblue" points="422.014,-7.5001 412.014,-11 422.014,-14.5001 422.014,-7.5001"/>
</g>
</g>
</svg>
