<?xml version="1.0" encoding="UTF-8" standalone="no"?>
<!DOCTYPE svg PUBLIC "-//W3C//DTD SVG 1.1//EN"
 "http://www.w3.org/Graphics/SVG/1.1/DTD/svg11.dtd">
<!-- Generated by graphviz version 2.24.0 (20090616.2323)
 -->
<!-- Title: snode_cleanup Pages: 1 -->
<svg width="362pt" height="50pt"
 viewBox="0.00 0.00 362.00 50.00" xmlns="http://www.w3.org/2000/svg" xmlns:xlink="http://www.w3.org/1999/xlink">
<g id="graph1" class="graph" transform="scale(1 1) rotate(0) translate(4 46)">
<title>snode_cleanup</title>
<polygon fill="white" stroke="white" points="-4,5 -4,-46 359,-46 359,5 -4,5"/>
<!-- Node1 -->
<g id="node1" class="node"><title>Node1</title>
<polygon fill="#bfbfbf" stroke="black" points="0.5,-0.5 0.5,-21.5 89.5,-21.5 89.5,-0.5 0.5,-0.5"/>
<text text-anchor="middle" x="45" y="-8.5" font-family="FreeSans" font-size="10.00">snode_cleanup</text>
</g>
<!-- Node2 -->
<g id="node3" class="node"><title>Node2</title>
<a xlink:href="hfa-lnx-nctx_8c.html#a3be0d2bba0ef048d0e01bcc341c36c5f" target="_top" xlink:title="Initialize search context object for nctxts and a global list to track nctxts.">
<polygon fill="white" stroke="black" points="126.5,-20.5 126.5,-41.5 225.5,-41.5 225.5,-20.5 126.5,-20.5"/>
<text text-anchor="middle" x="176" y="-28.5" font-family="FreeSans" font-size="10.00">initialize_ctx_glist</text>
</a>
</g>
<!-- Node1&#45;&gt;Node2 -->
<g id="edge2" class="edge"><title>Node1&#45;&gt;Node2</title>
<path fill="none" stroke="midnightblue" d="M99.7938,-19.3655C108.513,-20.6966 117.492,-22.0675 126.091,-23.3802"/>
<polygon fill="midnightblue" stroke="midnightblue" points="100.13,-15.8763 89.7164,-17.8269 99.0736,-22.7962 100.13,-15.8763"/>
</g>
<!-- Node3 -->
<g id="node5" class="node"><title>Node3</title>
<a xlink:href="hfa-lnx-nctx_8c.html#a972f8b60ef804914c009c2ef85bac50e" target="_top" xlink:title="process_search">
<polygon fill="white" stroke="black" points="262,-0.5 262,-21.5 354,-21.5 354,-0.5 262,-0.5"/>
<text text-anchor="middle" x="308" y="-8.5" font-family="FreeSans" font-size="10.00">process_search</text>
</a>
</g>
<!-- Node1&#45;&gt;Node3 -->
<g id="edge6" class="edge"><title>Node1&#45;&gt;Node3</title>
<path fill="none" stroke="midnightblue" d="M99.8153,-11C147.771,-11 216.642,-11 261.838,-11"/>
<polygon fill="midnightblue" stroke="midnightblue" points="99.6144,-7.5001 89.6144,-11 99.6143,-14.5001 99.6144,-7.5001"/>
</g>
<!-- Node2&#45;&gt;Node3 -->
<g id="edge4" class="edge"><title>Node2&#45;&gt;Node3</title>
<path fill="none" stroke="midnightblue" d="M235.669,-21.9592C244.399,-20.6365 253.277,-19.2913 261.686,-18.0172"/>
<polygon fill="midnightblue" stroke="midnightblue" points="234.89,-18.5372 225.527,-23.4958 235.939,-25.4582 234.89,-18.5372"/>
</g>
</g>
</svg>
