<?xml version="1.0" encoding="UTF-8" standalone="no"?>
<!DOCTYPE svg PUBLIC "-//W3C//DTD SVG 1.1//EN"
 "http://www.w3.org/Graphics/SVG/1.1/DTD/svg11.dtd">
<!-- Generated by graphviz version 2.24.0 (20090616.2323)
 -->
<!-- Title: ngraphs_read Pages: 1 -->
<svg width="296pt" height="30pt"
 viewBox="0.00 0.00 296.00 30.00" xmlns="http://www.w3.org/2000/svg" xmlns:xlink="http://www.w3.org/1999/xlink">
<g id="graph1" class="graph" transform="scale(1 1) rotate(0) translate(4 26)">
<title>ngraphs_read</title>
<polygon fill="white" stroke="white" points="-4,5 -4,-26 293,-26 293,5 -4,5"/>
<!-- Node1 -->
<g id="node1" class="node"><title>Node1</title>
<polygon fill="#bfbfbf" stroke="black" points="0,-0.5 0,-21.5 82,-21.5 82,-0.5 0,-0.5"/>
<text text-anchor="middle" x="41" y="-8.5" font-family="FreeSans" font-size="10.00">ngraphs_read</text>
</g>
<!-- Node2 -->
<g id="node3" class="node"><title>Node2</title>
<a xlink:href="hfa-se-ngraphs_8c.html#ab42726e951c529a41b8e09fd6e84ada2" target="_top" xlink:title="Process command line options, read graph.">
<polygon fill="white" stroke="black" points="118,-0.5 118,-21.5 212,-21.5 212,-0.5 118,-0.5"/>
<text text-anchor="middle" x="165" y="-8.5" font-family="FreeSans" font-size="10.00">process_options</text>
</a>
</g>
<!-- Node1&#45;&gt;Node2 -->
<g id="edge2" class="edge"><title>Node1&#45;&gt;Node2</title>
<path fill="none" stroke="midnightblue" d="M92.4091,-11C100.85,-11 109.562,-11 117.892,-11"/>
<polygon fill="midnightblue" stroke="midnightblue" points="92.2902,-7.5001 82.2902,-11 92.2902,-14.5001 92.2902,-7.5001"/>
</g>
<!-- Node3 -->
<g id="node5" class="node"><title>Node3</title>
<a xlink:href="hfa-se-ngraphs_8c.html#a3c04138a5bfe5d72780bb7e82a18e627" target="_top" xlink:title="main">
<polygon fill="white" stroke="black" points="248,-0.5 248,-21.5 288,-21.5 288,-0.5 248,-0.5"/>
<text text-anchor="middle" x="268" y="-8.5" font-family="FreeSans" font-size="10.00">main</text>
</a>
</g>
<!-- Node2&#45;&gt;Node3 -->
<g id="edge4" class="edge"><title>Node2&#45;&gt;Node3</title>
<path fill="none" stroke="midnightblue" d="M222.532,-11C231.572,-11 240.36,-11 247.762,-11"/>
<polygon fill="midnightblue" stroke="midnightblue" points="222.28,-7.5001 212.28,-11 222.28,-14.5001 222.28,-7.5001"/>
</g>
</g>
</svg>
