<?xml version="1.0" encoding="UTF-8" standalone="no"?>
<!DOCTYPE svg PUBLIC "-//W3C//DTD SVG 1.1//EN"
 "http://www.w3.org/Graphics/SVG/1.1/DTD/svg11.dtd">
<!-- Generated by graphviz version 2.24.0 (20090616.2323)
 -->
<!-- Title: process_search Pages: 1 -->
<svg width="1200pt" height="1084pt"
 viewBox="0.00 0.00 1200.00 1084.00" xmlns="http://www.w3.org/2000/svg" xmlns:xlink="http://www.w3.org/1999/xlink">
<g id="graph1" class="graph" transform="scale(1 1) rotate(0) translate(4 1080)">
<title>process_search</title>
<polygon fill="white" stroke="white" points="-4,5 -4,-1080 1197,-1080 1197,5 -4,5"/>
<!-- Node1 -->
<g id="node1" class="node"><title>Node1</title>
<polygon fill="#bfbfbf" stroke="black" points="0,-371.5 0,-392.5 92,-392.5 92,-371.5 0,-371.5"/>
<text text-anchor="middle" x="46" y="-379.5" font-family="FreeSans" font-size="10.00">process_search</text>
</g>
<!-- Node2 -->
<g id="node3" class="node"><title>Node2</title>
<a xlink:href="cvm-hfa-search_8c.html#a64ba7a41c7d677da10e588a58789015b" target="_top" xlink:title="This routine initializes a Search Context.">
<polygon fill="white" stroke="black" points="150.5,-994.5 150.5,-1015.5 277.5,-1015.5 277.5,-994.5 150.5,-994.5"/>
<text text-anchor="middle" x="214" y="-1002.5" font-family="FreeSans" font-size="10.00">hfa_dev_searchctx_init</text>
</a>
</g>
<!-- Node1&#45;&gt;Node2 -->
<g id="edge2" class="edge"><title>Node1&#45;&gt;Node2</title>
<path fill="none" stroke="midnightblue" d="M46.1503,-392.955C47.336,-464.859 57.1186,-869.318 128,-965 136.361,-976.286 148.697,-984.492 161.432,-990.417"/>
<polygon fill="midnightblue" stroke="midnightblue" points="160.151,-993.675 170.725,-994.34 162.873,-987.226 160.151,-993.675"/>
</g>
<!-- Node6 -->
<g id="node11" class="node"><title>Node6</title>
<a xlink:href="cvm-hfa-search_8c.html#a954753c0e6f4a59599d05f1262a25b38" target="_top" xlink:title="This routine associates a graph with sctx.">
<polygon fill="white" stroke="black" points="148,-724.5 148,-745.5 280,-745.5 280,-724.5 148,-724.5"/>
<text text-anchor="middle" x="214" y="-732.5" font-family="FreeSans" font-size="10.00">hfa_searchctx_setgraph</text>
</a>
</g>
<!-- Node1&#45;&gt;Node6 -->
<g id="edge10" class="edge"><title>Node1&#45;&gt;Node6</title>
<path fill="none" stroke="midnightblue" d="M47.2599,-392.828C53.4377,-444.14 82.0987,-662.324 128,-710 131.614,-713.754 135.756,-716.954 140.226,-719.68"/>
<polygon fill="midnightblue" stroke="midnightblue" points="138.689,-722.826 149.172,-724.359 141.934,-716.623 138.689,-722.826"/>
</g>
<!-- Node10 -->
<g id="node20" class="node"><title>Node10</title>
<a xlink:href="cvm-hfa-search_8c.html#a60c8025118f6a47f924733e47db8c77d" target="_top" xlink:title="This routine is used to specify settings used during the search and getmatches API.">
<polygon fill="white" stroke="black" points="150,-934.5 150,-955.5 278,-955.5 278,-934.5 150,-934.5"/>
<text text-anchor="middle" x="214" y="-942.5" font-family="FreeSans" font-size="10.00">hfa_searchctx_setflags</text>
</a>
</g>
<!-- Node1&#45;&gt;Node10 -->
<g id="edge20" class="edge"><title>Node1&#45;&gt;Node10</title>
<path fill="none" stroke="midnightblue" d="M46.7752,-392.654C51.5528,-456.293 78.4341,-786.356 128,-873 141.667,-896.891 166.461,-916.35 185.927,-928.988"/>
<polygon fill="midnightblue" stroke="midnightblue" points="184.102,-931.974 194.437,-934.305 187.811,-926.038 184.102,-931.974"/>
</g>
<!-- Node15 -->
<g id="node30" class="node"><title>Node15</title>
<a xlink:href="app-utils_8c.html#a1944a739d03e86dcaee1a7d245cfeba0" target="_top" xlink:title="Initialize the attributes needed for parsing the payload file.">
<polygon fill="white" stroke="black" points="678.5,-686 678.5,-720 791.5,-720 791.5,-686 678.5,-686"/>
<text text-anchor="start" x="686.5" y="-707" font-family="FreeSans" font-size="10.00">hfautils_init_payload</text>
<text text-anchor="middle" x="735" y="-694" font-family="FreeSans" font-size="10.00">_attributes</text>
</a>
</g>
<!-- Node1&#45;&gt;Node15 -->
<g id="edge30" class="edge"><title>Node1&#45;&gt;Node15</title>
<path fill="none" stroke="midnightblue" d="M47.3757,-392.748C53.7643,-440.835 82.1823,-635.467 128,-672 169.392,-705.005 518.908,-705.314 668.022,-703.906"/>
<polygon fill="midnightblue" stroke="midnightblue" points="668.441,-707.402 678.405,-703.802 668.371,-700.403 668.441,-707.402"/>
</g>
<!-- Node17 -->
<g id="node34" class="node"><title>Node17</title>
<a xlink:href="app-utils_8c.html#a4b47f3c9c5a0b3eaee64e264171628a3" target="_top" xlink:title="This routine reads data of chunksize/a packet from given payload(Normal/PCAP) file and returns data b...">
<polygon fill="white" stroke="black" points="828,-647.5 828,-668.5 954,-668.5 954,-647.5 828,-647.5"/>
<text text-anchor="middle" x="891" y="-655.5" font-family="FreeSans" font-size="10.00">hfautils_parse_payload</text>
</a>
</g>
<!-- Node1&#45;&gt;Node17 -->
<g id="edge34" class="edge"><title>Node1&#45;&gt;Node17</title>
<path fill="none" stroke="midnightblue" d="M48.3028,-392.752C55.1487,-422.21 78.084,-505.07 128,-551 225.118,-640.364 273.023,-658 405,-658 405,-658 405,-658 576,-658 658.756,-658 753.742,-658 817.583,-658"/>
<polygon fill="midnightblue" stroke="midnightblue" points="817.948,-661.5 827.948,-658 817.948,-654.5 817.948,-661.5"/>
</g>
<!-- Node18 -->
<g id="node37" class="node"><title>Node18</title>
<a xlink:href="cvm-hfa-search_8h.html#ae9741e867075c9b8cc63a7d889d5bf20" target="_top" xlink:title="This routine is a variant of hfa_searchparam_set_inputiovec() when the previously searched input IO v...">
<polygon fill="white" stroke="black" points="830.5,-509 830.5,-543 951.5,-543 951.5,-509 830.5,-509"/>
<text text-anchor="start" x="838.5" y="-530" font-family="FreeSans" font-size="10.00">hfa_searchparam_set</text>
<text text-anchor="middle" x="891" y="-517" font-family="FreeSans" font-size="10.00">_inputiovec_0_n</text>
</a>
</g>
<!-- Node1&#45;&gt;Node18 -->
<g id="edge38" class="edge"><title>Node1&#45;&gt;Node18</title>
<path fill="none" stroke="midnightblue" d="M53.808,-392.534C88.9308,-438.594 237.869,-620 405,-620 405,-620 405,-620 576,-620 672.371,-620 702.083,-635.672 792,-601 820.871,-589.867 848.482,-567.65 867.174,-550.272"/>
<polygon fill="midnightblue" stroke="midnightblue" points="869.8,-552.604 874.616,-543.167 864.966,-547.541 869.8,-552.604"/>
</g>
<!-- Node19 -->
<g id="node39" class="node"><title>Node19</title>
<a xlink:href="cvm-hfa-search_8h.html#a12882fa53f8ec49b9b2950711161db42" target="_top" xlink:title="This routine sets the output buffer in the sparam.">
<polygon fill="white" stroke="black" points="830.5,-370 830.5,-404 951.5,-404 951.5,-370 830.5,-370"/>
<text text-anchor="start" x="838.5" y="-391" font-family="FreeSans" font-size="10.00">hfa_searchparam_set</text>
<text text-anchor="middle" x="891" y="-378" font-family="FreeSans" font-size="10.00">_output</text>
</a>
</g>
<!-- Node1&#45;&gt;Node19 -->
<g id="edge40" class="edge"><title>Node1&#45;&gt;Node19</title>
<path fill="none" stroke="midnightblue" d="M92.031,-382.272C231.773,-383.099 651.811,-385.585 820.118,-386.581"/>
<polygon fill="midnightblue" stroke="midnightblue" points="820.333,-390.082 830.354,-386.641 820.375,-383.082 820.333,-390.082"/>
</g>
<!-- Node20 -->
<g id="node41" class="node"><title>Node20</title>
<a xlink:href="cvm-hfa-search_8c.html#a0c36da280b39bd8afdf6081baea24472" target="_top" xlink:title="This routine performs a pattern search using the given parameters in a non&#45;blocking manner...">
<polygon fill="white" stroke="black" points="152.5,-92 152.5,-126 275.5,-126 275.5,-92 152.5,-92"/>
<text text-anchor="start" x="160.5" y="-113" font-family="FreeSans" font-size="10.00">hfa_searchctx_search</text>
<text text-anchor="middle" x="214" y="-100" font-family="FreeSans" font-size="10.00">_async</text>
</a>
</g>
<!-- Node1&#45;&gt;Node20 -->
<g id="edge42" class="edge"><title>Node1&#45;&gt;Node20</title>
<path fill="none" stroke="midnightblue" d="M46.4508,-371.391C48.5986,-334.239 60.7468,-208.562 128,-140 132.449,-135.464 137.609,-131.589 143.15,-128.279"/>
<polygon fill="midnightblue" stroke="midnightblue" points="144.923,-131.301 152.122,-123.528 141.647,-125.115 144.923,-131.301"/>
</g>
<!-- Node21 -->
<g id="node43" class="node"><title>Node21</title>
<a xlink:href="cvm-hfa-search_8c.html#a6a8e1d7e70e0a10520302df5651e5fc5" target="_top" xlink:title="This routine provides the status of an outstanding pattern search operation initiated using hfa_searc...">
<polygon fill="white" stroke="black" points="128,-52.5 128,-73.5 300,-73.5 300,-52.5 128,-52.5"/>
<text text-anchor="middle" x="214" y="-60.5" font-family="FreeSans" font-size="10.00">hfa_searchctx_get_searchstatus</text>
</a>
</g>
<!-- Node1&#45;&gt;Node21 -->
<g id="edge44" class="edge"><title>Node1&#45;&gt;Node21</title>
<path fill="none" stroke="midnightblue" d="M47.4408,-371.435C54.2203,-323.251 84.448,-124.879 128,-83 129.45,-81.6055 130.978,-80.3014 132.571,-79.0821"/>
<polygon fill="midnightblue" stroke="midnightblue" points="134.495,-82.0063 141.029,-73.6665 130.72,-76.1111 134.495,-82.0063"/>
</g>
<!-- Node25 -->
<g id="node51" class="node"><title>Node25</title>
<a xlink:href="cvm-hfa-search_8h.html#ab50a2d84e35b5a4a03a23fc90e4dffa0" target="_top" xlink:title="This routine retrieves the reason code after a search operation has been completed by the HFA engine...">
<polygon fill="white" stroke="black" points="830,-318 830,-352 952,-352 952,-318 830,-318"/>
<text text-anchor="start" x="838" y="-339" font-family="FreeSans" font-size="10.00">hfa_searchparam_get</text>
<text text-anchor="middle" x="891" y="-326" font-family="FreeSans" font-size="10.00">_hwsearch_reason</text>
</a>
</g>
<!-- Node1&#45;&gt;Node25 -->
<g id="edge52" class="edge"><title>Node1&#45;&gt;Node25</title>
<path fill="none" stroke="midnightblue" d="M75.3399,-371.433C136.029,-350.55 280.133,-306 405,-306 405,-306 405,-306 576,-306 660.06,-306 756.208,-316.367 819.939,-324.704"/>
<polygon fill="midnightblue" stroke="midnightblue" points="819.509,-328.178 829.882,-326.023 820.429,-321.238 819.509,-328.178"/>
</g>
<!-- Node26 -->
<g id="node53" class="node"><title>Node26</title>
<a xlink:href="cvm-hfa-common_8h.html#ad117ba199386b8d427cbb04f288b5905" target="_top" xlink:title="Dump HFA related registers.">
<polygon fill="white" stroke="black" points="845.5,-278.5 845.5,-299.5 936.5,-299.5 936.5,-278.5 845.5,-278.5"/>
<text text-anchor="middle" x="891" y="-286.5" font-family="FreeSans" font-size="10.00">hfa_dump_regs</text>
</a>
</g>
<!-- Node1&#45;&gt;Node26 -->
<g id="edge54" class="edge"><title>Node1&#45;&gt;Node26</title>
<path fill="none" stroke="midnightblue" d="M54.7986,-371.243C68.5762,-355.214 96.9023,-325.406 128,-311 241.045,-258.632 280.414,-268 405,-268 405,-268 405,-268 576,-268 666.987,-268 772.431,-276.831 835.321,-283.039"/>
<polygon fill="midnightblue" stroke="midnightblue" points="835.12,-286.537 845.419,-284.05 835.817,-279.571 835.12,-286.537"/>
</g>
<!-- Node27 -->
<g id="node55" class="node"><title>Node27</title>
<a xlink:href="cvm-hfa-search_8h.html#ad18e328b50b109e1e44821f3d006bd9d" target="_top" xlink:title="This routine returns the data&#45;buffer offset.">
<polygon fill="white" stroke="black" points="830,-226 830,-260 952,-260 952,-226 830,-226"/>
<text text-anchor="start" x="838" y="-247" font-family="FreeSans" font-size="10.00">hfa_searchparam_get</text>
<text text-anchor="middle" x="891" y="-234" font-family="FreeSans" font-size="10.00">_hwsearch_pdboff</text>
</a>
</g>
<!-- Node1&#45;&gt;Node27 -->
<g id="edge56" class="edge"><title>Node1&#45;&gt;Node27</title>
<path fill="none" stroke="midnightblue" d="M49.7497,-371.49C58.8971,-347.557 84.8237,-289.058 128,-263 234.148,-198.937 281.018,-230 405,-230 405,-230 405,-230 576,-230 659.604,-230 755.584,-234.628 819.408,-238.362"/>
<polygon fill="midnightblue" stroke="midnightblue" points="819.57,-241.877 829.76,-238.976 819.985,-234.89 819.57,-241.877"/>
</g>
<!-- Node28 -->
<g id="node57" class="node"><title>Node28</title>
<a xlink:href="cvm-hfa-search_8c.html#a6dbb15dc58155b2c94b19784ad42ef89" target="_top" xlink:title="This routine post&#45;processes the search results from the HFA engine and reports the pattern matches fo...">
<polygon fill="white" stroke="black" points="140.5,-410.5 140.5,-431.5 287.5,-431.5 287.5,-410.5 140.5,-410.5"/>
<text text-anchor="middle" x="214" y="-418.5" font-family="FreeSans" font-size="10.00">hfa_searchctx_getmatches</text>
</a>
</g>
<!-- Node1&#45;&gt;Node28 -->
<g id="edge58" class="edge"><title>Node1&#45;&gt;Node28</title>
<path fill="none" stroke="midnightblue" d="M91.4632,-392.554C112.194,-397.366 136.922,-403.107 158.717,-408.167"/>
<polygon fill="midnightblue" stroke="midnightblue" points="157.968,-411.586 168.5,-410.438 159.551,-404.767 157.968,-411.586"/>
</g>
<!-- Node35 -->
<g id="node78" class="node"><title>Node35</title>
<a xlink:href="app-utils_8c.html#a633038357891aa5147b77fe939f300bf" target="_top" xlink:title="Print pattern matches via match buffer and cleanup all matches.">
<polygon fill="white" stroke="black" points="829,-186.5 829,-207.5 953,-207.5 953,-186.5 829,-186.5"/>
<text text-anchor="middle" x="891" y="-194.5" font-family="FreeSans" font-size="10.00">hfautils_print_matches</text>
</a>
</g>
<!-- Node1&#45;&gt;Node35 -->
<g id="edge104" class="edge"><title>Node1&#45;&gt;Node35</title>
<path fill="none" stroke="midnightblue" d="M47.7258,-371.247C53.1882,-341.11 73.1036,-255.586 128,-218 230.029,-148.143 281.348,-192 405,-192 405,-192 405,-192 576,-192 659.155,-192 754.643,-193.764 818.485,-195.196"/>
<polygon fill="midnightblue" stroke="midnightblue" points="818.769,-198.703 828.846,-195.432 818.928,-191.705 818.769,-198.703"/>
</g>
<!-- Node39 -->
<g id="node86" class="node"><title>Node39</title>
<a xlink:href="cvm-hfa-search_8h.html#ac5bcfbfda7036d9aca28a3c5828847a5" target="_top" xlink:title="This routine retrieves flags returned by post&#45;processor.">
<polygon fill="white" stroke="black" points="830,-134 830,-168 952,-168 952,-134 830,-134"/>
<text text-anchor="start" x="838" y="-155" font-family="FreeSans" font-size="10.00">hfa_searchparam_get</text>
<text text-anchor="middle" x="891" y="-142" font-family="FreeSans" font-size="10.00">_ppoflags</text>
</a>
</g>
<!-- Node1&#45;&gt;Node39 -->
<g id="edge106" class="edge"><title>Node1&#45;&gt;Node39</title>
<path fill="none" stroke="midnightblue" d="M46.4919,-371.013C48.7346,-335.487 61.0606,-223.184 128,-174 227.468,-100.915 281.568,-154 405,-154 405,-154 405,-154 576,-154 659.537,-154 755.53,-152.932 819.375,-152.07"/>
<polygon fill="midnightblue" stroke="midnightblue" points="819.78,-155.565 829.731,-151.929 819.684,-148.566 819.78,-155.565"/>
</g>
<!-- Node44 -->
<g id="node98" class="node"><title>Node44</title>
<a xlink:href="app-utils_8c.html#a1f92c93fe820ec9fc9f4d8e993883b05" target="_top" xlink:title="This routine is counter part of hfautils_init_payload_attributes().">
<polygon fill="white" stroke="black" points="145,-0 145,-34 283,-34 283,-0 145,-0"/>
<text text-anchor="start" x="153" y="-21" font-family="FreeSans" font-size="10.00">hfautils_cleanup_payload</text>
<text text-anchor="middle" x="214" y="-8" font-family="FreeSans" font-size="10.00">_attributes</text>
</a>
</g>
<!-- Node1&#45;&gt;Node44 -->
<g id="edge108" class="edge"><title>Node1&#45;&gt;Node44</title>
<path fill="none" stroke="midnightblue" d="M47.1779,-371.173C53.0764,-318.856 80.9975,-92.7241 128,-43 130.486,-40.3699 133.228,-38.0029 136.159,-35.873"/>
<polygon fill="midnightblue" stroke="midnightblue" points="138.209,-38.7203 144.864,-30.4767 134.521,-32.7707 138.209,-38.7203"/>
</g>
<!-- Node45 -->
<g id="node100" class="node"><title>Node45</title>
<a xlink:href="cvm-hfa-search_8c.html#a30064f173d814bd3791b59d675c2f45f" target="_top" xlink:title="This routine cleans&#45;up a Search Context.">
<polygon fill="white" stroke="black" points="138,-842.5 138,-863.5 290,-863.5 290,-842.5 138,-842.5"/>
<text text-anchor="middle" x="214" y="-850.5" font-family="FreeSans" font-size="10.00">hfa_dev_searchctx_cleanup</text>
</a>
</g>
<!-- Node1&#45;&gt;Node45 -->
<g id="edge110" class="edge"><title>Node1&#45;&gt;Node45</title>
<path fill="none" stroke="midnightblue" d="M46.424,-392.728C48.6281,-438.781 61.4071,-623.36 128,-755 144.345,-787.31 173.841,-817.505 193.672,-835.613"/>
<polygon fill="midnightblue" stroke="midnightblue" points="191.467,-838.336 201.258,-842.383 196.128,-833.114 191.467,-838.336"/>
</g>
<!-- Node3 -->
<g id="node5" class="node"><title>Node3</title>
<a xlink:href="cvm-hfa-stats_8c.html#a1cff986555a79b0d5ccee49801cb0056" target="_top" xlink:title="This routine allocates the memory for counters to maintain the statistics of search context...">
<polygon fill="white" stroke="black" points="339.5,-1014.5 339.5,-1035.5 470.5,-1035.5 470.5,-1014.5 339.5,-1014.5"/>
<text text-anchor="middle" x="405" y="-1022.5" font-family="FreeSans" font-size="10.00">hfa_searchctx_stats_init</text>
</a>
</g>
<!-- Node2&#45;&gt;Node3 -->
<g id="edge4" class="edge"><title>Node2&#45;&gt;Node3</title>
<path fill="none" stroke="midnightblue" d="M277.6,-1011.66C294.201,-1013.4 312.255,-1015.29 329.412,-1017.08"/>
<polygon fill="midnightblue" stroke="midnightblue" points="329.082,-1020.57 339.392,-1018.13 329.811,-1013.61 329.082,-1020.57"/>
</g>
<!-- Node4 -->
<g id="node7" class="node"><title>Node4</title>
<a xlink:href="cvm-hfa-stats_8c.html#acbdfa65e476c04cd9b67b7c462eefe56" target="_top" xlink:title="This routine allocates required memory from STATS ARENA.">
<polygon fill="white" stroke="black" points="511.5,-1054.5 511.5,-1075.5 640.5,-1075.5 640.5,-1054.5 511.5,-1054.5"/>
<text text-anchor="middle" x="576" y="-1062.5" font-family="FreeSans" font-size="10.00">hfa_stats_memoryalloc</text>
</a>
</g>
<!-- Node3&#45;&gt;Node4 -->
<g id="edge6" class="edge"><title>Node3&#45;&gt;Node4</title>
<path fill="none" stroke="midnightblue" d="M449.928,-1035.51C471.736,-1040.61 498.129,-1046.78 521.119,-1052.16"/>
<polygon fill="midnightblue" stroke="midnightblue" points="520.541,-1055.62 531.075,-1054.49 522.135,-1048.81 520.541,-1055.62"/>
</g>
<!-- Node5 -->
<g id="node9" class="node"><title>Node5</title>
<a xlink:href="cvm-hfa-stats_8c.html#a7a2acbe48c3850d43256938ee996aa16" target="_top" xlink:title="This routine frees memory to STATS ARENA.">
<polygon fill="white" stroke="black" points="513.5,-1014.5 513.5,-1035.5 638.5,-1035.5 638.5,-1014.5 513.5,-1014.5"/>
<text text-anchor="middle" x="576" y="-1022.5" font-family="FreeSans" font-size="10.00">hfa_stats_memoryfree</text>
</a>
</g>
<!-- Node3&#45;&gt;Node5 -->
<g id="edge8" class="edge"><title>Node3&#45;&gt;Node5</title>
<path fill="none" stroke="midnightblue" d="M470.624,-1025C481.259,-1025 492.328,-1025 503.123,-1025"/>
<polygon fill="midnightblue" stroke="midnightblue" points="503.365,-1028.5 513.365,-1025 503.365,-1021.5 503.365,-1028.5"/>
</g>
<!-- Node7 -->
<g id="node13" class="node"><title>Node7</title>
<a xlink:href="cvm-hfa-pp_8c.html#a9ad01b0f0de0f65b99a53f6c64f147e2" target="_top" xlink:title="ppinit">
<polygon fill="white" stroke="black" points="555,-750.5 555,-771.5 597,-771.5 597,-750.5 555,-750.5"/>
<text text-anchor="middle" x="576" y="-758.5" font-family="FreeSans" font-size="10.00">ppinit</text>
</a>
</g>
<!-- Node6&#45;&gt;Node7 -->
<g id="edge12" class="edge"><title>Node6&#45;&gt;Node7</title>
<path fill="none" stroke="midnightblue" d="M268.148,-745.517C289.241,-749.182 313.669,-752.901 336,-755 410.529,-762.007 498.611,-762.135 544.547,-761.588"/>
<polygon fill="midnightblue" stroke="midnightblue" points="544.802,-765.085 554.753,-761.447 544.705,-758.086 544.802,-765.085"/>
</g>
<!-- Node9 -->
<g id="node17" class="node"><title>Node9</title>
<a xlink:href="cvm-hfa-search_8c.html#a3200f5303f0611887f35dd500e7a8d00" target="_top" xlink:title="This is a utility routine which associates an application&#45;specifc cookie in the sctx.">
<polygon fill="white" stroke="black" points="336,-724.5 336,-745.5 474,-745.5 474,-724.5 336,-724.5"/>
<text text-anchor="middle" x="405" y="-732.5" font-family="FreeSans" font-size="10.00">hfa_searchctx_setppuarg</text>
</a>
</g>
<!-- Node6&#45;&gt;Node9 -->
<g id="edge16" class="edge"><title>Node6&#45;&gt;Node9</title>
<path fill="none" stroke="midnightblue" d="M280.266,-735C294.886,-735 310.517,-735 325.597,-735"/>
<polygon fill="midnightblue" stroke="midnightblue" points="325.93,-738.5 335.93,-735 325.93,-731.5 325.93,-738.5"/>
</g>
<!-- Node8 -->
<g id="node15" class="node"><title>Node8</title>
<a xlink:href="pp_8h.html#adc8d105abb8f12812385bb87d15e6e32" target="_top" xlink:title="pphfa_init">
<polygon fill="white" stroke="black" points="703.5,-750.5 703.5,-771.5 766.5,-771.5 766.5,-750.5 703.5,-750.5"/>
<text text-anchor="middle" x="735" y="-758.5" font-family="FreeSans" font-size="10.00">pphfa_init</text>
</a>
</g>
<!-- Node7&#45;&gt;Node8 -->
<g id="edge14" class="edge"><title>Node7&#45;&gt;Node8</title>
<path fill="none" stroke="midnightblue" d="M597.114,-761C621.552,-761 662.395,-761 693.303,-761"/>
<polygon fill="midnightblue" stroke="midnightblue" points="693.365,-764.5 703.365,-761 693.365,-757.5 693.365,-764.5"/>
</g>
<!-- Node9&#45;&gt;Node7 -->
<g id="edge18" class="edge"><title>Node9&#45;&gt;Node7</title>
<path fill="none" stroke="midnightblue" d="M474.059,-745.5C498.574,-749.228 524.962,-753.24 544.747,-756.248"/>
<polygon fill="midnightblue" stroke="midnightblue" points="544.314,-759.722 554.726,-757.765 545.366,-752.802 544.314,-759.722"/>
</g>
<!-- Node11 -->
<g id="node22" class="node"><title>Node11</title>
<a xlink:href="cvm-hfa-pp_8c.html#add6064138ec2e35741929056a0992d8d" target="_top" xlink:title="ppgetstats">
<polygon fill="white" stroke="black" points="372,-934.5 372,-955.5 438,-955.5 438,-934.5 372,-934.5"/>
<text text-anchor="middle" x="405" y="-942.5" font-family="FreeSans" font-size="10.00">ppgetstats</text>
</a>
</g>
<!-- Node10&#45;&gt;Node11 -->
<g id="edge22" class="edge"><title>Node10&#45;&gt;Node11</title>
<path fill="none" stroke="midnightblue" d="M278.132,-945C305.631,-945 337.035,-945 361.719,-945"/>
<polygon fill="midnightblue" stroke="midnightblue" points="361.855,-948.5 371.855,-945 361.855,-941.5 361.855,-948.5"/>
</g>
<!-- Node13 -->
<g id="node26" class="node"><title>Node13</title>
<a xlink:href="cvm-hfa-pp_8c.html#a73cd0d7244d64410753dac7b809d2060" target="_top" xlink:title="ppassignstats">
<polygon fill="white" stroke="black" points="364.5,-974.5 364.5,-995.5 445.5,-995.5 445.5,-974.5 364.5,-974.5"/>
<text text-anchor="middle" x="405" y="-982.5" font-family="FreeSans" font-size="10.00">ppassignstats</text>
</a>
</g>
<!-- Node10&#45;&gt;Node13 -->
<g id="edge26" class="edge"><title>Node10&#45;&gt;Node13</title>
<path fill="none" stroke="midnightblue" d="M264.183,-955.51C292.041,-961.344 326.597,-968.58 354.505,-974.425"/>
<polygon fill="midnightblue" stroke="midnightblue" points="353.956,-977.886 364.461,-976.51 355.391,-971.035 353.956,-977.886"/>
</g>
<!-- Node12 -->
<g id="node24" class="node"><title>Node12</title>
<a xlink:href="pp_8h.html#a808d5057ee5670ce724a6a88fc22b799" target="_top" xlink:title="pphfa_getstats">
<polygon fill="white" stroke="black" points="532.5,-934.5 532.5,-955.5 619.5,-955.5 619.5,-934.5 532.5,-934.5"/>
<text text-anchor="middle" x="576" y="-942.5" font-family="FreeSans" font-size="10.00">pphfa_getstats</text>
</a>
</g>
<!-- Node11&#45;&gt;Node12 -->
<g id="edge24" class="edge"><title>Node11&#45;&gt;Node12</title>
<path fill="none" stroke="midnightblue" d="M438.376,-945C462.164,-945 494.655,-945 522.094,-945"/>
<polygon fill="midnightblue" stroke="midnightblue" points="522.334,-948.5 532.334,-945 522.334,-941.5 522.334,-948.5"/>
</g>
<!-- Node14 -->
<g id="node28" class="node"><title>Node14</title>
<a xlink:href="pp_8h.html#ad0cc4aeca687557949697bef25cdb764" target="_top" xlink:title="pphfa_assignstats">
<polygon fill="white" stroke="black" points="525,-974.5 525,-995.5 627,-995.5 627,-974.5 525,-974.5"/>
<text text-anchor="middle" x="576" y="-982.5" font-family="FreeSans" font-size="10.00">pphfa_assignstats</text>
</a>
</g>
<!-- Node13&#45;&gt;Node14 -->
<g id="edge28" class="edge"><title>Node13&#45;&gt;Node14</title>
<path fill="none" stroke="midnightblue" d="M445.525,-985C466.172,-985 491.712,-985 514.706,-985"/>
<polygon fill="midnightblue" stroke="midnightblue" points="514.723,-988.5 524.723,-985 514.723,-981.5 514.723,-988.5"/>
</g>
<!-- Node16 -->
<g id="node32" class="node"><title>Node16</title>
<a xlink:href="app-utils_8c.html#a7fbf4d982c3e4493bda83be020e7274c" target="_top" xlink:title="Read file data from a gzip&#45;stream(compressed or uncompressed).">
<polygon fill="white" stroke="black" points="1025.5,-668.5 1025.5,-689.5 1078.5,-689.5 1078.5,-668.5 1025.5,-668.5"/>
<text text-anchor="middle" x="1052" y="-676.5" font-family="FreeSans" font-size="10.00">fd_read</text>
</a>
</g>
<!-- Node15&#45;&gt;Node16 -->
<g id="edge32" class="edge"><title>Node15&#45;&gt;Node16</title>
<path fill="none" stroke="midnightblue" d="M791.673,-698.709C856.42,-693.807 960.48,-685.929 1015.37,-681.773"/>
<polygon fill="midnightblue" stroke="midnightblue" points="1015.64,-685.263 1025.35,-681.018 1015.11,-678.283 1015.64,-685.263"/>
</g>
<!-- Node17&#45;&gt;Node16 -->
<g id="edge36" class="edge"><title>Node17&#45;&gt;Node16</title>
<path fill="none" stroke="midnightblue" d="M954.169,-666.239C974.789,-668.929 997.002,-671.826 1015.04,-674.179"/>
<polygon fill="midnightblue" stroke="midnightblue" points="1014.77,-677.673 1025.14,-675.496 1015.67,-670.732 1014.77,-677.673"/>
</g>
<!-- Node22 -->
<g id="node45" class="node"><title>Node22</title>
<a xlink:href="cvm-hfa_8c.html#a4753d2dd586e19676b1a59dd16baaeed" target="_top" xlink:title="Obtain status of submitted insruction.">
<polygon fill="white" stroke="black" points="338.5,-52.5 338.5,-73.5 471.5,-73.5 471.5,-52.5 338.5,-52.5"/>
<text text-anchor="middle" x="405" y="-60.5" font-family="FreeSans" font-size="10.00">hfa_dev_getasyncstatus</text>
</a>
</g>
<!-- Node21&#45;&gt;Node22 -->
<g id="edge46" class="edge"><title>Node21&#45;&gt;Node22</title>
<path fill="none" stroke="midnightblue" d="M300.001,-63C309.454,-63 319.033,-63 328.361,-63"/>
<polygon fill="midnightblue" stroke="midnightblue" points="328.367,-66.5001 338.367,-63 328.367,-59.5001 328.367,-66.5001"/>
</g>
<!-- Node23 -->
<g id="node47" class="node"><title>Node23</title>
<a xlink:href="cvm-hfa-instr_8h.html#a56f2522dcba965745a1bc239fc432dca" target="_top" xlink:title="Gets done from RWORD0.">
<polygon fill="white" stroke="black" points="514.5,-72.5 514.5,-93.5 637.5,-93.5 637.5,-72.5 514.5,-72.5"/>
<text text-anchor="middle" x="576" y="-80.5" font-family="FreeSans" font-size="10.00">cvm_hfa_rslt_getdone</text>
</a>
</g>
<!-- Node22&#45;&gt;Node23 -->
<g id="edge48" class="edge"><title>Node22&#45;&gt;Node23</title>
<path fill="none" stroke="midnightblue" d="M471.603,-70.7898C482.263,-72.0366 493.335,-73.3316 504.111,-74.592"/>
<polygon fill="midnightblue" stroke="midnightblue" points="503.99,-78.1016 514.329,-75.787 504.804,-71.149 503.99,-78.1016"/>
</g>
<!-- Node24 -->
<g id="node49" class="node"><title>Node24</title>
<a xlink:href="cvm-hfa-instr_8h.html#a9700a50b68b6616506528eb725a8bda1" target="_top" xlink:title="Gets reason from RWORD0.">
<polygon fill="white" stroke="black" points="510.5,-32.5 510.5,-53.5 641.5,-53.5 641.5,-32.5 510.5,-32.5"/>
<text text-anchor="middle" x="576" y="-40.5" font-family="FreeSans" font-size="10.00">cvm_hfa_rslt_getreason</text>
</a>
</g>
<!-- Node22&#45;&gt;Node24 -->
<g id="edge50" class="edge"><title>Node22&#45;&gt;Node24</title>
<path fill="none" stroke="midnightblue" d="M471.603,-55.2102C481.068,-54.1031 490.859,-52.958 500.479,-51.8328"/>
<polygon fill="midnightblue" stroke="midnightblue" points="500.896,-55.308 510.422,-50.67 500.083,-48.3554 500.896,-55.308"/>
</g>
<!-- Node29 -->
<g id="node59" class="node"><title>Node29</title>
<a xlink:href="cvm-hfa-common_8h.html#a0da7c57174fb96d75ae9cc2ed3116a05" target="_top" xlink:title="Dump buffer pointed by &quot;buf&quot; in readable format.">
<polygon fill="white" stroke="black" points="362,-410.5 362,-431.5 448,-431.5 448,-410.5 362,-410.5"/>
<text text-anchor="middle" x="405" y="-418.5" font-family="FreeSans" font-size="10.00">hfa_dump_buf</text>
</a>
</g>
<!-- Node28&#45;&gt;Node29 -->
<g id="edge60" class="edge"><title>Node28&#45;&gt;Node29</title>
<path fill="none" stroke="midnightblue" d="M287.572,-421C308.96,-421 331.9,-421 351.777,-421"/>
<polygon fill="midnightblue" stroke="midnightblue" points="351.868,-424.5 361.868,-421 351.868,-417.5 351.868,-424.5"/>
</g>
<!-- Node30 -->
<g id="node61" class="node"><title>Node30</title>
<a xlink:href="cvm-hfa-pp_8c.html#a02d24f276578f8a39a93968262a08f1d" target="_top" xlink:title="pp">
<polygon fill="white" stroke="black" points="390.5,-470.5 390.5,-491.5 419.5,-491.5 419.5,-470.5 390.5,-470.5"/>
<text text-anchor="middle" x="405" y="-478.5" font-family="FreeSans" font-size="10.00">pp</text>
</a>
</g>
<!-- Node28&#45;&gt;Node30 -->
<g id="edge62" class="edge"><title>Node28&#45;&gt;Node30</title>
<path fill="none" stroke="midnightblue" d="M247.707,-431.589C285.753,-443.54 346.727,-462.694 380.496,-473.302"/>
<polygon fill="midnightblue" stroke="midnightblue" points="379.458,-476.645 390.047,-476.303 381.556,-469.967 379.458,-476.645"/>
</g>
<!-- Node31 -->
<g id="node63" class="node"><title>Node31</title>
<a xlink:href="pp_8h.html#af7a68f9e08d3b54012ad008a4f47e1cd" target="_top" xlink:title="pphfa">
<polygon fill="white" stroke="black" points="554,-490.5 554,-511.5 598,-511.5 598,-490.5 554,-490.5"/>
<text text-anchor="middle" x="576" y="-498.5" font-family="FreeSans" font-size="10.00">pphfa</text>
</a>
</g>
<!-- Node30&#45;&gt;Node31 -->
<g id="edge64" class="edge"><title>Node30&#45;&gt;Node31</title>
<path fill="none" stroke="midnightblue" d="M419.579,-482.705C446.852,-485.895 506.187,-492.835 543.431,-497.191"/>
<polygon fill="midnightblue" stroke="midnightblue" points="543.424,-500.714 553.763,-498.399 544.237,-493.761 543.424,-500.714"/>
</g>
<!-- Node32 -->
<g id="node65" class="node"><title>Node32</title>
<a xlink:href="cvm-hfa-res_8c.html#ad0de0b790a5786053d59797884dbdd23" target="_top" xlink:title="Rinit">
<polygon fill="white" stroke="black" points="558,-450.5 558,-471.5 594,-471.5 594,-450.5 558,-450.5"/>
<text text-anchor="middle" x="576" y="-458.5" font-family="FreeSans" font-size="10.00">Rinit</text>
</a>
</g>
<!-- Node30&#45;&gt;Node32 -->
<g id="edge66" class="edge"><title>Node30&#45;&gt;Node32</title>
<path fill="none" stroke="midnightblue" d="M419.579,-479.295C447.954,-475.976 511.037,-468.598 547.837,-464.294"/>
<polygon fill="midnightblue" stroke="midnightblue" points="548.382,-467.754 557.907,-463.116 547.568,-460.802 548.382,-467.754"/>
</g>
<!-- Node33 -->
<g id="node67" class="node"><title>Node33</title>
<a xlink:href="cvm-hfa-pp_8c.html#adcc1149c628372e2e566c246870929cb" target="_top" xlink:title="infoentry">
<polygon fill="white" stroke="black" points="546.5,-410.5 546.5,-431.5 605.5,-431.5 605.5,-410.5 546.5,-410.5"/>
<text text-anchor="middle" x="576" y="-418.5" font-family="FreeSans" font-size="10.00">infoentry</text>
</a>
</g>
<!-- Node30&#45;&gt;Node33 -->
<g id="edge68" class="edge"><title>Node30&#45;&gt;Node33</title>
<path fill="none" stroke="midnightblue" d="M419.834,-474.973C440.065,-466.841 477.51,-452.096 510,-441 518.561,-438.076 527.819,-435.136 536.616,-432.443"/>
<polygon fill="midnightblue" stroke="midnightblue" points="537.728,-435.764 546.29,-429.523 535.705,-429.062 537.728,-435.764"/>
</g>
<!-- Node41 -->
<g id="node90" class="node"><title>Node41</title>
<a xlink:href="cvm-hfa-res_8c.html#a6c56aa24fa6551b23e4283ae2d5bcad8" target="_top" xlink:title="Rreport1">
<polygon fill="white" stroke="black" points="547.5,-570.5 547.5,-591.5 604.5,-591.5 604.5,-570.5 547.5,-570.5"/>
<text text-anchor="middle" x="576" y="-578.5" font-family="FreeSans" font-size="10.00">Rreport1</text>
</a>
</g>
<!-- Node30&#45;&gt;Node41 -->
<g id="edge98" class="edge"><title>Node30&#45;&gt;Node41</title>
<path fill="none" stroke="midnightblue" d="M416.039,-491.593C434.227,-508.515 472.251,-541.699 510,-561 518.533,-565.363 528.183,-568.953 537.417,-571.827"/>
<polygon fill="midnightblue" stroke="midnightblue" points="536.621,-575.24 547.2,-574.667 538.572,-568.518 536.621,-575.24"/>
</g>
<!-- Node43 -->
<g id="node94" class="node"><title>Node43</title>
<a xlink:href="cvm-hfa-res_8c.html#a38aa04fce135199ec3bb8726da163846" target="_top" xlink:title="Rfinish">
<polygon fill="white" stroke="black" points="552,-530.5 552,-551.5 600,-551.5 600,-530.5 552,-530.5"/>
<text text-anchor="middle" x="576" y="-538.5" font-family="FreeSans" font-size="10.00">Rfinish</text>
</a>
</g>
<!-- Node30&#45;&gt;Node43 -->
<g id="edge102" class="edge"><title>Node30&#45;&gt;Node43</title>
<path fill="none" stroke="midnightblue" d="M419.834,-487.027C440.065,-495.159 477.51,-509.904 510,-521 520.282,-524.512 531.568,-528.047 541.855,-531.148"/>
<polygon fill="midnightblue" stroke="midnightblue" points="541.15,-534.59 551.733,-534.087 543.147,-527.88 541.15,-534.59"/>
</g>
<!-- Node34 -->
<g id="node69" class="node"><title>Node34</title>
<a xlink:href="hfa-lnx_8c.html#a78ffddbcd7cdd164889cfb53ea367886" target="_top" xlink:title="entry">
<polygon fill="white" stroke="red" points="714.5,-334.5 714.5,-355.5 755.5,-355.5 755.5,-334.5 714.5,-334.5"/>
<text text-anchor="middle" x="735" y="-342.5" font-family="FreeSans" font-size="10.00">entry</text>
</a>
</g>
<!-- Node33&#45;&gt;Node34 -->
<g id="edge70" class="edge"><title>Node33&#45;&gt;Node34</title>
<path fill="none" stroke="midnightblue" d="M598.108,-410.433C625.947,-397.126 673.89,-374.21 705.013,-359.333"/>
<polygon fill="midnightblue" stroke="midnightblue" points="706.578,-362.465 714.091,-354.994 703.559,-356.149 706.578,-362.465"/>
</g>
<!-- Node40 -->
<g id="node88" class="node"><title>Node40</title>
<a xlink:href="cvm-hfa-pp_8c.html#a85b4c8af06430f26eab8afdeea3a7395" target="_top" xlink:title="hashidx">
<polygon fill="white" stroke="black" points="708,-412.5 708,-433.5 762,-433.5 762,-412.5 708,-412.5"/>
<text text-anchor="middle" x="735" y="-420.5" font-family="FreeSans" font-size="10.00">hashidx</text>
</a>
</g>
<!-- Node33&#45;&gt;Node40 -->
<g id="edge96" class="edge"><title>Node33&#45;&gt;Node40</title>
<path fill="none" stroke="midnightblue" d="M605.534,-421.371C631.495,-421.698 669.41,-422.175 697.506,-422.528"/>
<polygon fill="midnightblue" stroke="midnightblue" points="697.704,-426.031 707.747,-422.657 697.792,-419.032 697.704,-426.031"/>
</g>
<!-- Node34&#45;&gt;Node17 -->
<g id="edge72" class="edge"><title>Node34&#45;&gt;Node17</title>
<path fill="none" stroke="midnightblue" d="M749.152,-355.619C762.239,-366.197 781.24,-383.622 792,-403 825.073,-462.561 802.309,-488.902 828,-552 841.161,-584.325 863.11,-618.468 877.316,-639.004"/>
<polygon fill="midnightblue" stroke="midnightblue" points="874.623,-641.26 883.239,-647.426 880.349,-637.233 874.623,-641.26"/>
</g>
<!-- Node34&#45;&gt;Node18 -->
<g id="edge74" class="edge"><title>Node34&#45;&gt;Node18</title>
<path fill="none" stroke="midnightblue" d="M746.262,-355.806C758.008,-367.226 776.795,-385.914 792,-403 821.143,-435.748 852.509,-475.581 871.948,-500.867"/>
<polygon fill="midnightblue" stroke="midnightblue" points="869.204,-503.041 878.062,-508.854 874.762,-498.786 869.204,-503.041"/>
</g>
<!-- Node34&#45;&gt;Node19 -->
<g id="edge76" class="edge"><title>Node34&#45;&gt;Node19</title>
<path fill="none" stroke="midnightblue" d="M755.716,-350.577C772.47,-355.088 797.083,-361.715 820.737,-368.083"/>
<polygon fill="midnightblue" stroke="midnightblue" points="819.871,-371.474 830.437,-370.695 821.691,-364.715 819.871,-371.474"/>
</g>
<!-- Node34&#45;&gt;Node25 -->
<g id="edge78" class="edge"><title>Node34&#45;&gt;Node25</title>
<path fill="none" stroke="midnightblue" d="M755.716,-343.672C772.177,-342.617 796.223,-341.075 819.494,-339.584"/>
<polygon fill="midnightblue" stroke="midnightblue" points="819.991,-343.059 829.747,-338.926 819.544,-336.073 819.991,-343.059"/>
</g>
<!-- Node34&#45;&gt;Node26 -->
<g id="edge80" class="edge"><title>Node34&#45;&gt;Node26</title>
<path fill="none" stroke="midnightblue" d="M755.549,-336.624C774.303,-329.08 802.849,-317.85 828,-309 834.038,-306.875 840.436,-304.727 846.75,-302.666"/>
<polygon fill="midnightblue" stroke="midnightblue" points="848.093,-305.911 856.54,-299.516 845.949,-299.247 848.093,-305.911"/>
</g>
<!-- Node34&#45;&gt;Node27 -->
<g id="edge82" class="edge"><title>Node34&#45;&gt;Node27</title>
<path fill="none" stroke="midnightblue" d="M745.652,-334.497C762.158,-318.66 795.417,-288.455 828,-269 830.608,-267.443 833.327,-265.936 836.107,-264.486"/>
<polygon fill="midnightblue" stroke="midnightblue" points="837.705,-267.601 845.14,-260.054 834.621,-261.317 837.705,-267.601"/>
</g>
<!-- Node34&#45;&gt;Node28 -->
<g id="edge84" class="edge"><title>Node34&#45;&gt;Node28</title>
<path fill="none" stroke="midnightblue" d="M714.207,-347.746C655.012,-355.602 480.532,-379.013 336,-401 319.922,-403.446 302.673,-406.196 286.355,-408.856"/>
<polygon fill="midnightblue" stroke="midnightblue" points="285.637,-405.427 276.334,-410.497 286.768,-412.335 285.637,-405.427"/>
</g>
<!-- Node34&#45;&gt;Node35 -->
<g id="edge86" class="edge"><title>Node34&#45;&gt;Node35</title>
<path fill="none" stroke="midnightblue" d="M739.833,-334.287C751.428,-309.788 783.223,-249.301 828,-217 830.652,-215.087 833.495,-213.351 836.453,-211.778"/>
<polygon fill="midnightblue" stroke="midnightblue" points="838.002,-214.918 845.595,-207.53 835.052,-208.57 838.002,-214.918"/>
</g>
<!-- Node34&#45;&gt;Node39 -->
<g id="edge94" class="edge"><title>Node34&#45;&gt;Node39</title>
<path fill="none" stroke="midnightblue" d="M738.125,-334.364C747.199,-305.214 776.25,-223.155 828,-177 829.305,-175.836 830.67,-174.719 832.082,-173.649"/>
<polygon fill="midnightblue" stroke="midnightblue" points="834.204,-176.443 840.621,-168.012 830.347,-170.601 834.204,-176.443"/>
</g>
<!-- Node36 -->
<g id="node80" class="node"><title>Node36</title>
<a xlink:href="cvm-hfa-search_8c.html#a0ac0bca99358ad294a18f86696acf218" target="_top" xlink:title="This routine returns a match by parsing through the match buffer.">
<polygon fill="white" stroke="black" points="1008,-166.5 1008,-187.5 1096,-187.5 1096,-166.5 1008,-166.5"/>
<text text-anchor="middle" x="1052" y="-174.5" font-family="FreeSans" font-size="10.00">hfa_match_get</text>
</a>
</g>
<!-- Node35&#45;&gt;Node36 -->
<g id="edge88" class="edge"><title>Node35&#45;&gt;Node36</title>
<path fill="none" stroke="midnightblue" d="M953.247,-189.267C967.915,-187.445 983.437,-185.517 997.721,-183.743"/>
<polygon fill="midnightblue" stroke="midnightblue" points="998.382,-187.188 1007.87,-182.481 997.519,-180.241 998.382,-187.188"/>
</g>
<!-- Node37 -->
<g id="node82" class="node"><title>Node37</title>
<a xlink:href="cvm-hfa-search_8c.html#a543990bc2a5e1726298e5053391e3bf5" target="_top" xlink:title="This routine cleans&#45;up the match&#45;buffers allocated by hfa_searchctx_getmatches().">
<polygon fill="white" stroke="black" points="990.5,-206.5 990.5,-227.5 1113.5,-227.5 1113.5,-206.5 990.5,-206.5"/>
<text text-anchor="middle" x="1052" y="-214.5" font-family="FreeSans" font-size="10.00">hfa_matches_cleanup</text>
</a>
</g>
<!-- Node35&#45;&gt;Node37 -->
<g id="edge90" class="edge"><title>Node35&#45;&gt;Node37</title>
<path fill="none" stroke="midnightblue" d="M953.247,-204.733C962.119,-205.835 971.303,-206.976 980.338,-208.098"/>
<polygon fill="midnightblue" stroke="midnightblue" points="980.094,-211.594 990.449,-209.354 980.957,-204.648 980.094,-211.594"/>
</g>
<!-- Node38 -->
<g id="node84" class="node"><title>Node38</title>
<a xlink:href="cvm-hfa-res_8c.html#a78813e2d747c1d659277b705ebdffc50" target="_top" xlink:title="Rfree">
<polygon fill="white" stroke="black" points="1150,-206.5 1150,-227.5 1192,-227.5 1192,-206.5 1150,-206.5"/>
<text text-anchor="middle" x="1171" y="-214.5" font-family="FreeSans" font-size="10.00">Rfree</text>
</a>
</g>
<!-- Node37&#45;&gt;Node38 -->
<g id="edge92" class="edge"><title>Node37&#45;&gt;Node38</title>
<path fill="none" stroke="midnightblue" d="M1113.59,-217C1122.66,-217 1131.67,-217 1139.76,-217"/>
<polygon fill="midnightblue" stroke="midnightblue" points="1139.81,-220.5 1149.81,-217 1139.81,-213.5 1139.81,-220.5"/>
</g>
<!-- Node42 -->
<g id="node92" class="node"><title>Node42</title>
<a xlink:href="cvm-hfa-res_8c.html#a70c9e55ba1fcb934f74ad71ddca9d08f" target="_top" xlink:title="Radd">
<polygon fill="white" stroke="black" points="714.5,-570.5 714.5,-591.5 755.5,-591.5 755.5,-570.5 714.5,-570.5"/>
<text text-anchor="middle" x="735" y="-578.5" font-family="FreeSans" font-size="10.00">Radd</text>
</a>
</g>
<!-- Node41&#45;&gt;Node42 -->
<g id="edge100" class="edge"><title>Node41&#45;&gt;Node42</title>
<path fill="none" stroke="midnightblue" d="M604.794,-581C632.726,-581 674.992,-581 703.734,-581"/>
<polygon fill="midnightblue" stroke="midnightblue" points="704.03,-584.5 714.03,-581 704.03,-577.5 704.03,-584.5"/>
</g>
<!-- Node45&#45;&gt;Node11 -->
<g id="edge112" class="edge"><title>Node45&#45;&gt;Node11</title>
<path fill="none" stroke="midnightblue" d="M229.127,-863.629C251.554,-878.984 295.358,-907.45 336,-925 344.236,-928.557 353.291,-931.693 362.055,-934.366"/>
<polygon fill="midnightblue" stroke="midnightblue" points="361.187,-937.758 371.767,-937.183 363.138,-931.035 361.187,-937.758"/>
</g>
<!-- Node46 -->
<g id="node103" class="node"><title>Node46</title>
<a xlink:href="cvm-hfa-pp_8c.html#a57ec655c9bdb6ce63ada6767c7e14763" target="_top" xlink:title="ppcleanstats">
<polygon fill="white" stroke="black" points="366.5,-802.5 366.5,-823.5 443.5,-823.5 443.5,-802.5 366.5,-802.5"/>
<text text-anchor="middle" x="405" y="-810.5" font-family="FreeSans" font-size="10.00">ppcleanstats</text>
</a>
</g>
<!-- Node45&#45;&gt;Node46 -->
<g id="edge114" class="edge"><title>Node45&#45;&gt;Node46</title>
<path fill="none" stroke="midnightblue" d="M264.183,-842.49C292.632,-836.533 328.065,-829.112 356.271,-823.205"/>
<polygon fill="midnightblue" stroke="midnightblue" points="357.239,-826.578 366.309,-821.103 355.804,-819.727 357.239,-826.578"/>
</g>
<!-- Node48 -->
<g id="node107" class="node"><title>Node48</title>
<a xlink:href="cvm-hfa-pp_8c.html#a41ce9d3103c639e474783d3843e09071" target="_top" xlink:title="ppcleanup">
<polygon fill="white" stroke="black" points="372,-842.5 372,-863.5 438,-863.5 438,-842.5 372,-842.5"/>
<text text-anchor="middle" x="405" y="-850.5" font-family="FreeSans" font-size="10.00">ppcleanup</text>
</a>
</g>
<!-- Node45&#45;&gt;Node48 -->
<g id="edge118" class="edge"><title>Node45&#45;&gt;Node48</title>
<path fill="none" stroke="midnightblue" d="M290.037,-853C314.244,-853 340.193,-853 361.301,-853"/>
<polygon fill="midnightblue" stroke="midnightblue" points="361.553,-856.5 371.553,-853 361.553,-849.5 361.553,-856.5"/>
</g>
<!-- Node50 -->
<g id="node111" class="node"><title>Node50</title>
<a xlink:href="cvm-hfa-stats_8c.html#a2df4c76e04e7b028ed2df4bba1b2de3d" target="_top" xlink:title="This routine is the counterpart of hfa_searchctx_init_stats().">
<polygon fill="white" stroke="black" points="348.5,-882 348.5,-916 461.5,-916 461.5,-882 348.5,-882"/>
<text text-anchor="start" x="356.5" y="-903" font-family="FreeSans" font-size="10.00">hfa_searchctx_stats</text>
<text text-anchor="middle" x="405" y="-890" font-family="FreeSans" font-size="10.00">_cleanup</text>
</a>
</g>
<!-- Node45&#45;&gt;Node50 -->
<g id="edge122" class="edge"><title>Node45&#45;&gt;Node50</title>
<path fill="none" stroke="midnightblue" d="M257.819,-863.553C281.648,-869.292 311.62,-876.511 338.288,-882.933"/>
<polygon fill="midnightblue" stroke="midnightblue" points="337.786,-886.412 348.328,-885.351 339.425,-879.607 337.786,-886.412"/>
</g>
<!-- Node47 -->
<g id="node105" class="node"><title>Node47</title>
<a xlink:href="pp_8h.html#a978b171bd7a736cb7fa0d5d034aa94e2" target="_top" xlink:title="pphfa_cleanstats">
<polygon fill="white" stroke="black" points="527,-802.5 527,-823.5 625,-823.5 625,-802.5 527,-802.5"/>
<text text-anchor="middle" x="576" y="-810.5" font-family="FreeSans" font-size="10.00">pphfa_cleanstats</text>
</a>
</g>
<!-- Node46&#45;&gt;Node47 -->
<g id="edge116" class="edge"><title>Node46&#45;&gt;Node47</title>
<path fill="none" stroke="midnightblue" d="M443.803,-813C465.358,-813 492.626,-813 516.79,-813"/>
<polygon fill="midnightblue" stroke="midnightblue" points="516.93,-816.5 526.93,-813 516.93,-809.5 516.93,-816.5"/>
</g>
<!-- Node49 -->
<g id="node109" class="node"><title>Node49</title>
<a xlink:href="pp_8h.html#a428ad073d1fd72da37ab8b00f13693a3" target="_top" xlink:title="pphfa_cleanup">
<polygon fill="white" stroke="black" points="532.5,-842.5 532.5,-863.5 619.5,-863.5 619.5,-842.5 532.5,-842.5"/>
<text text-anchor="middle" x="576" y="-850.5" font-family="FreeSans" font-size="10.00">pphfa_cleanup</text>
</a>
</g>
<!-- Node48&#45;&gt;Node49 -->
<g id="edge120" class="edge"><title>Node48&#45;&gt;Node49</title>
<path fill="none" stroke="midnightblue" d="M438.376,-853C462.164,-853 494.655,-853 522.094,-853"/>
<polygon fill="midnightblue" stroke="midnightblue" points="522.334,-856.5 532.334,-853 522.334,-849.5 522.334,-856.5"/>
</g>
<!-- Node50&#45;&gt;Node5 -->
<g id="edge124" class="edge"><title>Node50&#45;&gt;Node5</title>
<path fill="none" stroke="midnightblue" d="M461.502,-915.806C466.017,-918.449 470.268,-921.494 474,-925 502.418,-951.695 480.715,-979.259 510,-1005 511.754,-1006.54 513.623,-1007.96 515.58,-1009.28"/>
<polygon fill="midnightblue" stroke="midnightblue" points="514.206,-1012.52 524.639,-1014.36 517.631,-1006.41 514.206,-1012.52"/>
</g>
</g>
</svg>
