<?xml version="1.0" encoding="UTF-8" standalone="no"?>
<!DOCTYPE svg PUBLIC "-//W3C//DTD SVG 1.1//EN"
 "http://www.w3.org/Graphics/SVG/1.1/DTD/svg11.dtd">
<!-- Generated by graphviz version 2.24.0 (20090616.2323)
 -->
<!-- Title: process_options Pages: 1 -->
<svg width="556pt" height="189pt"
 viewBox="0.00 0.00 556.00 189.00" xmlns="http://www.w3.org/2000/svg" xmlns:xlink="http://www.w3.org/1999/xlink">
<g id="graph1" class="graph" transform="scale(1 1) rotate(0) translate(4 185)">
<title>process_options</title>
<polygon fill="white" stroke="white" points="-4,5 -4,-185 553,-185 553,5 -4,5"/>
<!-- Node1 -->
<g id="node1" class="node"><title>Node1</title>
<polygon fill="#bfbfbf" stroke="black" points="0,-119.5 0,-140.5 94,-140.5 94,-119.5 0,-119.5"/>
<text text-anchor="middle" x="47" y="-127.5" font-family="FreeSans" font-size="10.00">process_options</text>
</g>
<!-- Node2 -->
<g id="node3" class="node"><title>Node2</title>
<a xlink:href="app-utils_8c.html#a312f3a19b49c759fe09b5bee727b879b" target="_top" xlink:title="Initialize command line arguments.">
<polygon fill="white" stroke="black" points="145.5,-159.5 145.5,-180.5 254.5,-180.5 254.5,-159.5 145.5,-159.5"/>
<text text-anchor="middle" x="200" y="-167.5" font-family="FreeSans" font-size="10.00">hfautils_options_init</text>
</a>
</g>
<!-- Node1&#45;&gt;Node2 -->
<g id="edge2" class="edge"><title>Node1&#45;&gt;Node2</title>
<path fill="none" stroke="midnightblue" d="M87.1989,-140.51C106.449,-145.542 129.691,-151.619 150.064,-156.945"/>
<polygon fill="midnightblue" stroke="midnightblue" points="149.244,-160.348 159.804,-159.491 151.015,-153.576 149.244,-160.348"/>
</g>
<!-- Node3 -->
<g id="node5" class="node"><title>Node3</title>
<a xlink:href="app-utils_8c.html#ae04c31b3e2ff1468333729059052375c" target="_top" xlink:title="Parse command line arguments.">
<polygon fill="white" stroke="black" points="130,-119.5 130,-140.5 270,-140.5 270,-119.5 130,-119.5"/>
<text text-anchor="middle" x="200" y="-127.5" font-family="FreeSans" font-size="10.00">hfautils_parse_arguments</text>
</a>
</g>
<!-- Node1&#45;&gt;Node3 -->
<g id="edge4" class="edge"><title>Node1&#45;&gt;Node3</title>
<path fill="none" stroke="midnightblue" d="M94.1535,-130C102.294,-130 110.958,-130 119.688,-130"/>
<polygon fill="midnightblue" stroke="midnightblue" points="119.939,-133.5 129.939,-130 119.939,-126.5 119.939,-133.5"/>
</g>
<!-- Node8 -->
<g id="node16" class="node"><title>Node8</title>
<a xlink:href="hfa-se-ngraphs_8c.html#aec36c5b3621964d19698bd5331990827" target="_top" xlink:title="Allocate memory to store graph pointers and graph size and read graphs.">
<polygon fill="white" stroke="black" points="159,-79.5 159,-100.5 241,-100.5 241,-79.5 159,-79.5"/>
<text text-anchor="middle" x="200" y="-87.5" font-family="FreeSans" font-size="10.00">ngraphs_read</text>
</a>
</g>
<!-- Node1&#45;&gt;Node8 -->
<g id="edge16" class="edge"><title>Node1&#45;&gt;Node8</title>
<path fill="none" stroke="midnightblue" d="M87.1989,-119.49C106.449,-114.458 129.691,-108.381 150.064,-103.055"/>
<polygon fill="midnightblue" stroke="midnightblue" points="151.015,-106.424 159.804,-100.509 149.244,-99.652 151.015,-106.424"/>
</g>
<!-- Node4 -->
<g id="node7" class="node"><title>Node4</title>
<a xlink:href="app-utils_8c.html#ad9aef676c72e2455ff8cc29b0451a533" target="_top" xlink:title="initialize the tar for gzip.">
<polygon fill="white" stroke="black" points="316,-158.5 316,-179.5 394,-179.5 394,-158.5 316,-158.5"/>
<text text-anchor="middle" x="355" y="-166.5" font-family="FreeSans" font-size="10.00">hfautils_fsinit</text>
</a>
</g>
<!-- Node3&#45;&gt;Node4 -->
<g id="edge6" class="edge"><title>Node3&#45;&gt;Node4</title>
<path fill="none" stroke="midnightblue" d="M241.945,-140.554C261.747,-145.536 285.502,-151.513 306.115,-156.7"/>
<polygon fill="midnightblue" stroke="midnightblue" points="305.399,-160.129 315.95,-159.175 307.107,-153.34 305.399,-160.129"/>
</g>
<!-- Node5 -->
<g id="node9" class="node"><title>Node5</title>
<a xlink:href="app-utils_8c.html#a091d7c63f67cac17115c60efc4f5ec8b" target="_top" xlink:title="gz_fsinit">
<polygon fill="white" stroke="black" points="466,-139.5 466,-160.5 522,-160.5 522,-139.5 466,-139.5"/>
<text text-anchor="middle" x="494" y="-147.5" font-family="FreeSans" font-size="10.00">gz_fsinit</text>
</a>
</g>
<!-- Node3&#45;&gt;Node5 -->
<g id="edge10" class="edge"><title>Node3&#45;&gt;Node5</title>
<path fill="none" stroke="midnightblue" d="M270.047,-134.765C328.154,-138.718 408.602,-144.191 455.589,-147.387"/>
<polygon fill="midnightblue" stroke="midnightblue" points="455.437,-150.885 465.652,-148.072 455.912,-143.901 455.437,-150.885"/>
</g>
<!-- Node6 -->
<g id="node12" class="node"><title>Node6</title>
<a xlink:href="app-utils_8c.html#a8d5ec2ca8ebb2e04916983e6053a5c79" target="_top" xlink:title="Return size of a file(compressed or uncompressed).">
<polygon fill="white" stroke="black" points="307.5,-80.5 307.5,-101.5 402.5,-101.5 402.5,-80.5 307.5,-80.5"/>
<text text-anchor="middle" x="355" y="-88.5" font-family="FreeSans" font-size="10.00">hfautils_file_size</text>
</a>
</g>
<!-- Node3&#45;&gt;Node6 -->
<g id="edge12" class="edge"><title>Node3&#45;&gt;Node6</title>
<path fill="none" stroke="midnightblue" d="M241.945,-119.446C260.813,-114.699 283.27,-109.048 303.179,-104.039"/>
<polygon fill="midnightblue" stroke="midnightblue" points="304.178,-107.397 313.021,-101.562 302.469,-100.608 304.178,-107.397"/>
</g>
<!-- Node4&#45;&gt;Node5 -->
<g id="edge8" class="edge"><title>Node4&#45;&gt;Node5</title>
<path fill="none" stroke="midnightblue" d="M394.089,-163.657C413.42,-161.015 436.66,-157.838 455.86,-155.213"/>
<polygon fill="midnightblue" stroke="midnightblue" points="456.341,-158.68 465.774,-153.858 455.393,-151.745 456.341,-158.68"/>
</g>
<!-- Node7 -->
<g id="node14" class="node"><title>Node7</title>
<a xlink:href="app-utils_8c.html#a7c78f1e7a6e793fea566793e167e22bc" target="_top" xlink:title="gz_get_size">
<polygon fill="white" stroke="black" points="457.5,-80.5 457.5,-101.5 530.5,-101.5 530.5,-80.5 457.5,-80.5"/>
<text text-anchor="middle" x="494" y="-88.5" font-family="FreeSans" font-size="10.00">gz_get_size</text>
</a>
</g>
<!-- Node6&#45;&gt;Node7 -->
<g id="edge14" class="edge"><title>Node6&#45;&gt;Node7</title>
<path fill="none" stroke="midnightblue" d="M402.836,-91C417.244,-91 433.032,-91 447.361,-91"/>
<polygon fill="midnightblue" stroke="midnightblue" points="447.496,-94.5001 457.496,-91 447.496,-87.5001 447.496,-94.5001"/>
</g>
<!-- Node8&#45;&gt;Node6 -->
<g id="edge18" class="edge"><title>Node8&#45;&gt;Node6</title>
<path fill="none" stroke="midnightblue" d="M241.13,-90.2654C258.308,-90.3762 278.569,-90.5069 297.202,-90.6271"/>
<polygon fill="midnightblue" stroke="midnightblue" points="297.334,-94.1279 307.357,-90.6926 297.379,-87.1281 297.334,-94.1279"/>
</g>
<!-- Node9 -->
<g id="node19" class="node"><title>Node9</title>
<a xlink:href="app-utils_8c.html#a12339c67618c4b3a54c32f43d378c273" target="_top" xlink:title="Read data from a file to a buffer(compressed or uncompressed).">
<polygon fill="white" stroke="black" points="306.5,-40.5 306.5,-61.5 403.5,-61.5 403.5,-40.5 306.5,-40.5"/>
<text text-anchor="middle" x="355" y="-48.5" font-family="FreeSans" font-size="10.00">hfautils_read_file</text>
</a>
</g>
<!-- Node8&#45;&gt;Node9 -->
<g id="edge20" class="edge"><title>Node8&#45;&gt;Node9</title>
<path fill="none" stroke="midnightblue" d="M241.13,-79.6511C260.245,-74.8417 283.176,-69.0717 303.436,-63.9743"/>
<polygon fill="midnightblue" stroke="midnightblue" points="304.294,-67.3674 313.138,-61.5331 302.586,-60.579 304.294,-67.3674"/>
</g>
<!-- Node10 -->
<g id="node21" class="node"><title>Node10</title>
<a xlink:href="app-utils_8c.html#a7fbf4d982c3e4493bda83be020e7274c" target="_top" xlink:title="Read file data from a gzip&#45;stream(compressed or uncompressed).">
<polygon fill="white" stroke="black" points="467.5,-40.5 467.5,-61.5 520.5,-61.5 520.5,-40.5 467.5,-40.5"/>
<text text-anchor="middle" x="494" y="-48.5" font-family="FreeSans" font-size="10.00">fd_read</text>
</a>
</g>
<!-- Node9&#45;&gt;Node10 -->
<g id="edge22" class="edge"><title>Node9&#45;&gt;Node10</title>
<path fill="none" stroke="midnightblue" d="M403.615,-51C421.212,-51 440.778,-51 457.192,-51"/>
<polygon fill="midnightblue" stroke="midnightblue" points="457.472,-54.5001 467.472,-51 457.472,-47.5001 457.472,-54.5001"/>
</g>
<!-- Node11 -->
<g id="node23" class="node"><title>Node11</title>
<a xlink:href="cvmx-hfa_8c.html#a3db44a30b1033c1ab4ac64bac81a41f6" target="_top" xlink:title="hfa_bootmem_free">
<polygon fill="white" stroke="black" points="440,-0.5 440,-21.5 548,-21.5 548,-0.5 440,-0.5"/>
<text text-anchor="middle" x="494" y="-8.5" font-family="FreeSans" font-size="10.00">hfa_bootmem_free</text>
</a>
</g>
<!-- Node9&#45;&gt;Node11 -->
<g id="edge24" class="edge"><title>Node9&#45;&gt;Node11</title>
<path fill="none" stroke="midnightblue" d="M391.521,-40.4905C408.623,-35.5688 429.195,-29.649 447.404,-24.4088"/>
<polygon fill="midnightblue" stroke="midnightblue" points="448.599,-27.7073 457.241,-21.5782 446.663,-20.9803 448.599,-27.7073"/>
</g>
</g>
</svg>
