<?xml version="1.0" encoding="UTF-8" standalone="no"?>
<!DOCTYPE svg PUBLIC "-//W3C//DTD SVG 1.1//EN"
 "http://www.w3.org/Graphics/SVG/1.1/DTD/svg11.dtd">
<!-- Generated by graphviz version 2.24.0 (20090616.2323)
 -->
<!-- Title: entry Pages: 1 -->
<svg width="532pt" height="1428pt"
 viewBox="0.00 0.00 532.00 1428.32" xmlns="http://www.w3.org/2000/svg" xmlns:xlink="http://www.w3.org/1999/xlink">
<g id="graph1" class="graph" transform="scale(1 1) rotate(0) translate(4 1424.32)">
<title>entry</title>
<polygon fill="white" stroke="white" points="-4,5 -4,-1424.32 529,-1424.32 529,5 -4,5"/>
<!-- Node1 -->
<g id="node1" class="node"><title>Node1</title>
<polygon fill="#bfbfbf" stroke="black" points="0.5,-330.5 0.5,-351.5 41.5,-351.5 41.5,-330.5 0.5,-330.5"/>
<text text-anchor="middle" x="21" y="-338.5" font-family="FreeSans" font-size="10.00">entry</text>
</g>
<!-- Node2 -->
<g id="node3" class="node"><title>Node2</title>
<a xlink:href="hfa-lnx-linkgraph_8c.html#a4c3443f524b4c0d95639694f0b74e850" target="_top" xlink:title="Process command line options, Read graph and payload.">
<polygon fill="white" stroke="black" points="105,-1299.5 105,-1320.5 199,-1320.5 199,-1299.5 105,-1299.5"/>
<text text-anchor="middle" x="152" y="-1307.5" font-family="FreeSans" font-size="10.00">process_options</text>
</a>
</g>
<!-- Node1&#45;&gt;Node2 -->
<g id="edge2" class="edge"><title>Node1&#45;&gt;Node2</title>
<path fill="none" stroke="midnightblue" d="M21.7609,-351.831C25.8654,-409.273 46.359,-684.059 78,-907 98.9408,-1054.55 135.165,-1230.49 147.635,-1289.54"/>
<polygon fill="midnightblue" stroke="midnightblue" points="144.241,-1290.41 149.739,-1299.47 151.088,-1288.96 144.241,-1290.41"/>
</g>
<!-- Node7 -->
<g id="node14" class="node"><title>Node7</title>
<a xlink:href="cvm-hfa_8c.html#a873768042b716d60996ec5d858fc8fd9" target="_top" xlink:title="This function must be called by application to initialize HFA engine and setup resources for HFA hard...">
<polygon fill="white" stroke="black" points="115,-876.5 115,-897.5 189,-897.5 189,-876.5 115,-876.5"/>
<text text-anchor="middle" x="152" y="-884.5" font-family="FreeSans" font-size="10.00">hfa_dev_init</text>
</a>
</g>
<!-- Node1&#45;&gt;Node7 -->
<g id="edge14" class="edge"><title>Node1&#45;&gt;Node7</title>
<path fill="none" stroke="midnightblue" d="M23.6168,-351.907C39.7137,-418.997 125.327,-775.83 147.008,-866.192"/>
<polygon fill="midnightblue" stroke="midnightblue" points="143.64,-867.16 149.377,-876.067 150.447,-865.527 143.64,-867.16"/>
</g>
<!-- Node26 -->
<g id="node52" class="node"><title>Node26</title>
<a xlink:href="hfa-lnx-linkgraph_8c.html#a546f3769e735d4bef0bfab1cba56921c" target="_top" xlink:title="Load graph to HFA memory and cache.">
<polygon fill="white" stroke="black" points="117.5,-468.5 117.5,-489.5 186.5,-489.5 186.5,-468.5 117.5,-468.5"/>
<text text-anchor="middle" x="152" y="-476.5" font-family="FreeSans" font-size="10.00">graph_load</text>
</a>
</g>
<!-- Node1&#45;&gt;Node26 -->
<g id="edge52" class="edge"><title>Node1&#45;&gt;Node26</title>
<path fill="none" stroke="midnightblue" d="M23.0361,-351.646C28.0383,-374.827 43.151,-430.098 78,-459 86.3838,-465.953 96.9705,-470.505 107.495,-473.479"/>
<polygon fill="midnightblue" stroke="midnightblue" points="106.951,-476.948 117.492,-475.875 108.583,-470.141 106.951,-476.948"/>
</g>
<!-- Node32 -->
<g id="node64" class="node"><title>Node32</title>
<a xlink:href="cvm-hfa-graph_8c.html#a1ae8787b6687f837ccfb7aebdab80f56" target="_top" xlink:title="This routine provides the number of subgraphs in a linked graph.">
<polygon fill="white" stroke="black" points="95.5,-508 95.5,-542 208.5,-542 208.5,-508 95.5,-508"/>
<text text-anchor="start" x="103.5" y="-529" font-family="FreeSans" font-size="10.00">hfa_graph_getgraph</text>
<text text-anchor="middle" x="152" y="-516" font-family="FreeSans" font-size="10.00">_count</text>
</a>
</g>
<!-- Node1&#45;&gt;Node32 -->
<g id="edge64" class="edge"><title>Node1&#45;&gt;Node32</title>
<path fill="none" stroke="midnightblue" d="M21.7924,-351.887C24.4295,-380.168 35.346,-456.701 78,-499 80.671,-501.649 83.6273,-504.029 86.7761,-506.167"/>
<polygon fill="midnightblue" stroke="midnightblue" points="85.1007,-509.242 95.4974,-511.281 88.6415,-503.203 85.1007,-509.242"/>
</g>
<!-- Node33 -->
<g id="node66" class="node"><title>Node33</title>
<a xlink:href="hfa-se-wqe_8c.html#af83136a23f35cac6269b0e552fc58de6" target="_top" xlink:title="Initializes the search context object of each context.">
<polygon fill="white" stroke="black" points="114,-284.5 114,-305.5 190,-305.5 190,-284.5 114,-284.5"/>
<text text-anchor="middle" x="152" y="-292.5" font-family="FreeSans" font-size="10.00">Initialize_Ctx</text>
</a>
</g>
<!-- Node1&#45;&gt;Node33 -->
<g id="edge66" class="edge"><title>Node1&#45;&gt;Node33</title>
<path fill="none" stroke="midnightblue" d="M41.5064,-330.658C52.2078,-325.515 65.6189,-319.463 78,-315 86.3686,-311.984 95.4122,-309.179 104.208,-306.681"/>
<polygon fill="midnightblue" stroke="midnightblue" points="105.267,-310.019 113.983,-303.996 103.413,-303.269 105.267,-310.019"/>
</g>
<!-- Node37 -->
<g id="node74" class="node"><title>Node37</title>
<a xlink:href="app-utils_8c.html#a4b47f3c9c5a0b3eaee64e264171628a3" target="_top" xlink:title="This routine reads data of chunksize/a packet from given payload(Normal/PCAP) file and returns data b...">
<polygon fill="white" stroke="black" points="89,-1384.5 89,-1405.5 215,-1405.5 215,-1384.5 89,-1384.5"/>
<text text-anchor="middle" x="152" y="-1392.5" font-family="FreeSans" font-size="10.00">hfautils_parse_payload</text>
</a>
</g>
<!-- Node1&#45;&gt;Node37 -->
<g id="edge74" class="edge"><title>Node1&#45;&gt;Node37</title>
<path fill="none" stroke="midnightblue" d="M21.1172,-351.642C22.2914,-452.449 32.8554,-1237.45 78,-1330 87.9936,-1350.49 107.646,-1367.27 124.188,-1378.64"/>
<polygon fill="midnightblue" stroke="midnightblue" points="122.693,-1381.84 132.977,-1384.39 126.527,-1375.99 122.693,-1381.84"/>
</g>
<!-- Node38 -->
<g id="node77" class="node"><title>Node38</title>
<a xlink:href="cvm-hfa-search_8h.html#a3c407460808f038770473ffc6e4b5c38" target="_top" xlink:title="This routine adds a new input IO vector to Search Param.">
<polygon fill="white" stroke="black" points="91.5,-376 91.5,-410 212.5,-410 212.5,-376 91.5,-376"/>
<text text-anchor="start" x="99.5" y="-397" font-family="FreeSans" font-size="10.00">hfa_searchparam_set</text>
<text text-anchor="middle" x="152" y="-384" font-family="FreeSans" font-size="10.00">_inputiovec</text>
</a>
</g>
<!-- Node1&#45;&gt;Node38 -->
<g id="edge78" class="edge"><title>Node1&#45;&gt;Node38</title>
<path fill="none" stroke="midnightblue" d="M41.651,-350.963C52.3907,-356.005 65.7923,-362.083 78,-367 82.4998,-368.812 87.1802,-370.624 91.9039,-372.4"/>
<polygon fill="midnightblue" stroke="midnightblue" points="91.0233,-375.805 101.617,-375.983 93.4464,-369.238 91.0233,-375.805"/>
</g>
<!-- Node39 -->
<g id="node79" class="node"><title>Node39</title>
<a xlink:href="cvm-hfa-search_8h.html#a12882fa53f8ec49b9b2950711161db42" target="_top" xlink:title="This routine sets the output buffer in the sparam.">
<polygon fill="white" stroke="black" points="91.5,-324 91.5,-358 212.5,-358 212.5,-324 91.5,-324"/>
<text text-anchor="start" x="99.5" y="-345" font-family="FreeSans" font-size="10.00">hfa_searchparam_set</text>
<text text-anchor="middle" x="152" y="-332" font-family="FreeSans" font-size="10.00">_output</text>
</a>
</g>
<!-- Node1&#45;&gt;Node39 -->
<g id="edge80" class="edge"><title>Node1&#45;&gt;Node39</title>
<path fill="none" stroke="midnightblue" d="M41.7573,-341C52.7189,-341 66.883,-341 81.3835,-341"/>
<polygon fill="midnightblue" stroke="midnightblue" points="81.4409,-344.5 91.4409,-341 81.4408,-337.5 81.4409,-344.5"/>
</g>
<!-- Node40 -->
<g id="node81" class="node"><title>Node40</title>
<a xlink:href="cvm-hfa-search_8c.html#a57d7540278164eb6b6c132be00db0de5" target="_top" xlink:title="This routine performs a pattern search using the given parameters in a blocking manner.">
<polygon fill="white" stroke="black" points="90.5,-100.5 90.5,-121.5 213.5,-121.5 213.5,-100.5 90.5,-100.5"/>
<text text-anchor="middle" x="152" y="-108.5" font-family="FreeSans" font-size="10.00">hfa_searchctx_search</text>
</a>
</g>
<!-- Node1&#45;&gt;Node40 -->
<g id="edge82" class="edge"><title>Node1&#45;&gt;Node40</title>
<path fill="none" stroke="midnightblue" d="M22.4692,-330.416C28.0172,-291.923 48.8674,-160.101 78,-131 79.2946,-129.707 80.6636,-128.495 82.0953,-127.359"/>
<polygon fill="midnightblue" stroke="midnightblue" points="84.4111,-130.029 90.8989,-121.653 80.6037,-124.155 84.4111,-130.029"/>
</g>
<!-- Node43 -->
<g id="node87" class="node"><title>Node43</title>
<a xlink:href="cvm-hfa-search_8h.html#ab50a2d84e35b5a4a03a23fc90e4dffa0" target="_top" xlink:title="This routine retrieves the reason code after a search operation has been completed by the HFA engine...">
<polygon fill="white" stroke="black" points="91,-232 91,-266 213,-266 213,-232 91,-232"/>
<text text-anchor="start" x="99" y="-253" font-family="FreeSans" font-size="10.00">hfa_searchparam_get</text>
<text text-anchor="middle" x="152" y="-240" font-family="FreeSans" font-size="10.00">_hwsearch_reason</text>
</a>
</g>
<!-- Node1&#45;&gt;Node43 -->
<g id="edge88" class="edge"><title>Node1&#45;&gt;Node43</title>
<path fill="none" stroke="midnightblue" d="M27.7691,-330.088C37.2961,-315.574 55.98,-290.005 78,-275 80.1662,-273.524 82.425,-272.123 84.7503,-270.794"/>
<polygon fill="midnightblue" stroke="midnightblue" points="86.7154,-273.718 93.9932,-266.018 83.5023,-267.499 86.7154,-273.718"/>
</g>
<!-- Node44 -->
<g id="node89" class="node"><title>Node44</title>
<a xlink:href="cvm-hfa-common_8h.html#ad117ba199386b8d427cbb04f288b5905" target="_top" xlink:title="Dump HFA related registers.">
<polygon fill="white" stroke="black" points="106.5,-192.5 106.5,-213.5 197.5,-213.5 197.5,-192.5 106.5,-192.5"/>
<text text-anchor="middle" x="152" y="-200.5" font-family="FreeSans" font-size="10.00">hfa_dump_regs</text>
</a>
</g>
<!-- Node1&#45;&gt;Node44 -->
<g id="edge90" class="edge"><title>Node1&#45;&gt;Node44</title>
<path fill="none" stroke="midnightblue" d="M23.0361,-330.354C28.0383,-307.173 43.151,-251.902 78,-223 83.5636,-218.386 90.0973,-214.829 96.939,-212.089"/>
<polygon fill="midnightblue" stroke="midnightblue" points="98.0793,-215.398 106.397,-208.837 95.8027,-208.779 98.0793,-215.398"/>
</g>
<!-- Node45 -->
<g id="node91" class="node"><title>Node45</title>
<a xlink:href="cvm-hfa-search_8h.html#ad18e328b50b109e1e44821f3d006bd9d" target="_top" xlink:title="This routine returns the data&#45;buffer offset.">
<polygon fill="white" stroke="black" points="91,-140 91,-174 213,-174 213,-140 91,-140"/>
<text text-anchor="start" x="99" y="-161" font-family="FreeSans" font-size="10.00">hfa_searchparam_get</text>
<text text-anchor="middle" x="152" y="-148" font-family="FreeSans" font-size="10.00">_hwsearch_pdboff</text>
</a>
</g>
<!-- Node1&#45;&gt;Node45 -->
<g id="edge92" class="edge"><title>Node1&#45;&gt;Node45</title>
<path fill="none" stroke="midnightblue" d="M21.7924,-330.113C24.4295,-301.832 35.346,-225.299 78,-183 79.4141,-181.598 80.9081,-180.271 82.4683,-179.015"/>
<polygon fill="midnightblue" stroke="midnightblue" points="84.5023,-181.864 90.7574,-173.313 80.5349,-176.097 84.5023,-181.864"/>
</g>
<!-- Node46 -->
<g id="node93" class="node"><title>Node46</title>
<a xlink:href="cvm-hfa-search_8c.html#a6dbb15dc58155b2c94b19784ad42ef89" target="_top" xlink:title="This routine post&#45;processes the search results from the HFA engine and reports the pattern matches fo...">
<polygon fill="white" stroke="black" points="78.5,-20.5 78.5,-41.5 225.5,-41.5 225.5,-20.5 78.5,-20.5"/>
<text text-anchor="middle" x="152" y="-28.5" font-family="FreeSans" font-size="10.00">hfa_searchctx_getmatches</text>
</a>
</g>
<!-- Node1&#45;&gt;Node46 -->
<g id="edge94" class="edge"><title>Node1&#45;&gt;Node46</title>
<path fill="none" stroke="midnightblue" d="M21.632,-330.193C24.6253,-282.689 38.8961,-92.9369 78,-51 79.2167,-49.6951 80.509,-48.4721 81.8654,-47.3258"/>
<polygon fill="midnightblue" stroke="midnightblue" points="83.9936,-50.1103 90.2588,-41.5664 80.033,-44.3385 83.9936,-50.1103"/>
</g>
<!-- Node49 -->
<g id="node99" class="node"><title>Node49</title>
<a xlink:href="app-utils_8c.html#a633038357891aa5147b77fe939f300bf" target="_top" xlink:title="Print pattern matches via match buffer and cleanup all matches.">
<polygon fill="white" stroke="red" points="90,-60.5 90,-81.5 214,-81.5 214,-60.5 90,-60.5"/>
<text text-anchor="middle" x="152" y="-68.5" font-family="FreeSans" font-size="10.00">hfautils_print_matches</text>
</a>
</g>
<!-- Node1&#45;&gt;Node49 -->
<g id="edge100" class="edge"><title>Node1&#45;&gt;Node49</title>
<path fill="none" stroke="midnightblue" d="M21.9937,-330.248C26.2006,-287.012 43.9158,-126.468 78,-91 79.2362,-89.7136 80.5459,-88.507 81.918,-87.3756"/>
<polygon fill="midnightblue" stroke="midnightblue" points="84.0375,-90.168 90.381,-81.6821 80.1302,-84.36 84.0375,-90.168"/>
</g>
<!-- Node50 -->
<g id="node101" class="node"><title>Node50</title>
<a xlink:href="hfa-lnx-linkgraph_8c.html#acd9e54f020b77f14d54c200b65423a15" target="_top" xlink:title="Cleanup will be done by this routine.">
<polygon fill="white" stroke="red" points="125,-428.5 125,-449.5 179,-449.5 179,-428.5 125,-428.5"/>
<text text-anchor="middle" x="152" y="-436.5" font-family="FreeSans" font-size="10.00">cleanup</text>
</a>
</g>
<!-- Node1&#45;&gt;Node50 -->
<g id="edge102" class="edge"><title>Node1&#45;&gt;Node50</title>
<path fill="none" stroke="midnightblue" d="M25.8192,-351.617C34.0458,-368.522 52.4234,-401.433 78,-419 88.7985,-426.417 102.234,-431.087 114.682,-434.026"/>
<polygon fill="midnightblue" stroke="midnightblue" points="114.326,-437.526 124.826,-436.11 115.735,-430.669 114.326,-437.526"/>
</g>
<!-- Node3 -->
<g id="node5" class="node"><title>Node3</title>
<a xlink:href="app-utils_8c.html#a8d5ec2ca8ebb2e04916983e6053a5c79" target="_top" xlink:title="Return size of a file(compressed or uncompressed).">
<polygon fill="white" stroke="red" points="300.5,-1368.5 300.5,-1389.5 395.5,-1389.5 395.5,-1368.5 300.5,-1368.5"/>
<text text-anchor="middle" x="348" y="-1376.5" font-family="FreeSans" font-size="10.00">hfautils_file_size</text>
</a>
</g>
<!-- Node2&#45;&gt;Node3 -->
<g id="edge4" class="edge"><title>Node2&#45;&gt;Node3</title>
<path fill="none" stroke="midnightblue" d="M172.614,-1320.61C194.371,-1331.46 229.892,-1348.22 262,-1359 271.06,-1362.04 280.808,-1364.79 290.371,-1367.2"/>
<polygon fill="midnightblue" stroke="midnightblue" points="289.69,-1370.64 300.233,-1369.59 291.341,-1363.83 289.69,-1370.64"/>
</g>
<!-- Node4 -->
<g id="node7" class="node"><title>Node4</title>
<a xlink:href="app-utils_8c.html#a12339c67618c4b3a54c32f43d378c273" target="_top" xlink:title="Read data from a file to a buffer(compressed or uncompressed).">
<polygon fill="white" stroke="red" points="299.5,-1276.5 299.5,-1297.5 396.5,-1297.5 396.5,-1276.5 299.5,-1276.5"/>
<text text-anchor="middle" x="348" y="-1284.5" font-family="FreeSans" font-size="10.00">hfautils_read_file</text>
</a>
</g>
<!-- Node2&#45;&gt;Node4 -->
<g id="edge6" class="edge"><title>Node2&#45;&gt;Node4</title>
<path fill="none" stroke="midnightblue" d="M199.446,-1304.43C226.387,-1301.27 260.348,-1297.29 288.996,-1293.92"/>
<polygon fill="midnightblue" stroke="midnightblue" points="289.763,-1297.36 299.287,-1292.72 288.947,-1290.41 289.763,-1297.36"/>
</g>
<!-- Node6 -->
<g id="node11" class="node"><title>Node6</title>
<a xlink:href="app-utils_8c.html#a1944a739d03e86dcaee1a7d245cfeba0" target="_top" xlink:title="Initialize the attributes needed for parsing the payload file.">
<polygon fill="white" stroke="black" points="291.5,-1316 291.5,-1350 404.5,-1350 404.5,-1316 291.5,-1316"/>
<text text-anchor="start" x="299.5" y="-1337" font-family="FreeSans" font-size="10.00">hfautils_init_payload</text>
<text text-anchor="middle" x="348" y="-1324" font-family="FreeSans" font-size="10.00">_attributes</text>
</a>
</g>
<!-- Node2&#45;&gt;Node6 -->
<g id="edge10" class="edge"><title>Node2&#45;&gt;Node6</title>
<path fill="none" stroke="midnightblue" d="M199.446,-1315.57C223.958,-1318.44 254.282,-1322 281.127,-1325.15"/>
<polygon fill="midnightblue" stroke="midnightblue" points="280.887,-1328.65 291.226,-1326.34 281.703,-1321.7 280.887,-1328.65"/>
</g>
<!-- Node5 -->
<g id="node9" class="node"><title>Node5</title>
<a xlink:href="app-utils_8c.html#a7fbf4d982c3e4493bda83be020e7274c" target="_top" xlink:title="Read file data from a gzip&#45;stream(compressed or uncompressed).">
<polygon fill="white" stroke="black" points="470.5,-1322.5 470.5,-1343.5 523.5,-1343.5 523.5,-1322.5 470.5,-1322.5"/>
<text text-anchor="middle" x="497" y="-1330.5" font-family="FreeSans" font-size="10.00">fd_read</text>
</a>
</g>
<!-- Node4&#45;&gt;Node5 -->
<g id="edge8" class="edge"><title>Node4&#45;&gt;Node5</title>
<path fill="none" stroke="midnightblue" d="M396.591,-1296.85C408.904,-1299.74 422.029,-1303.17 434,-1307 444.142,-1310.25 454.939,-1314.43 464.678,-1318.48"/>
<polygon fill="midnightblue" stroke="midnightblue" points="463.428,-1321.75 474,-1322.45 466.172,-1315.31 463.428,-1321.75"/>
</g>
<!-- Node6&#45;&gt;Node5 -->
<g id="edge12" class="edge"><title>Node6&#45;&gt;Node5</title>
<path fill="none" stroke="midnightblue" d="M404.756,-1333C423.24,-1333 443.273,-1333 459.932,-1333"/>
<polygon fill="midnightblue" stroke="midnightblue" points="460.342,-1336.5 470.342,-1333 460.342,-1329.5 460.342,-1336.5"/>
</g>
<!-- Node8 -->
<g id="node16" class="node"><title>Node8</title>
<a xlink:href="cvm-hfa-stats_8c.html#a2fcf955b47370bfa46705ee5a23a70cf" target="_top" xlink:title="This routine allocates memory for counters to maintain statistics of each processing core...">
<polygon fill="white" stroke="red" points="297,-596.5 297,-617.5 399,-617.5 399,-596.5 297,-596.5"/>
<text text-anchor="middle" x="348" y="-604.5" font-family="FreeSans" font-size="10.00">hfa_dev_stats_init</text>
</a>
</g>
<!-- Node7&#45;&gt;Node8 -->
<g id="edge16" class="edge"><title>Node7&#45;&gt;Node8</title>
<path fill="none" stroke="midnightblue" d="M153.115,-876.336C157.86,-836.608 180.059,-695.952 262,-627 269.149,-620.984 277.769,-616.699 286.755,-613.662"/>
<polygon fill="midnightblue" stroke="midnightblue" points="287.952,-616.96 296.596,-610.833 286.018,-610.232 287.952,-616.96"/>
</g>
<!-- Node9 -->
<g id="node18" class="node"><title>Node9</title>
<a xlink:href="cvm-hfa_8c.html#a27982497398da2118cd5287ed51732e7" target="_top" xlink:title="Provides device&#45;specific information This is a utility routine used to obtain HFA device&#45;specific det...">
<polygon fill="white" stroke="black" points="292.5,-556.5 292.5,-577.5 403.5,-577.5 403.5,-556.5 292.5,-556.5"/>
<text text-anchor="middle" x="348" y="-564.5" font-family="FreeSans" font-size="10.00">hfa_dev_getdevinfo</text>
</a>
</g>
<!-- Node7&#45;&gt;Node9 -->
<g id="edge18" class="edge"><title>Node7&#45;&gt;Node9</title>
<path fill="none" stroke="midnightblue" d="M152.455,-876.264C154.906,-832.78 170.148,-668.2 262,-587 267.976,-581.717 275.075,-577.756 282.594,-574.797"/>
<polygon fill="midnightblue" stroke="midnightblue" points="283.912,-578.047 292.29,-571.561 281.696,-571.407 283.912,-578.047"/>
</g>
<!-- Node10 -->
<g id="node20" class="node"><title>Node10</title>
<a xlink:href="pp_8h.html#a6f5982b2671e9682262a26b0d2996396" target="_top" xlink:title="Constructs a readable version string for the PP library.">
<polygon fill="white" stroke="black" points="288,-1236.5 288,-1257.5 408,-1257.5 408,-1236.5 288,-1236.5"/>
<text text-anchor="middle" x="348" y="-1244.5" font-family="FreeSans" font-size="10.00">pp_get_version_string</text>
</a>
</g>
<!-- Node7&#45;&gt;Node10 -->
<g id="edge20" class="edge"><title>Node7&#45;&gt;Node10</title>
<path fill="none" stroke="midnightblue" d="M153.985,-897.61C163.968,-949.888 210.267,-1179.46 262,-1227 266.74,-1231.36 272.24,-1234.82 278.123,-1237.57"/>
<polygon fill="midnightblue" stroke="midnightblue" points="277.041,-1240.91 287.627,-1241.33 279.614,-1234.4 277.041,-1240.91"/>
</g>
<!-- Node11 -->
<g id="node22" class="node"><title>Node11</title>
<a xlink:href="cvm-hfa_8c.html#afd1d53fe8a402d4c5799e6e98c67baaa" target="_top" xlink:title="Displays HFA Device info.">
<polygon fill="white" stroke="red" points="289.5,-1196.5 289.5,-1217.5 406.5,-1217.5 406.5,-1196.5 289.5,-1196.5"/>
<text text-anchor="middle" x="348" y="-1204.5" font-family="FreeSans" font-size="10.00">hfa_dev_display_info</text>
</a>
</g>
<!-- Node7&#45;&gt;Node11 -->
<g id="edge22" class="edge"><title>Node7&#45;&gt;Node11</title>
<path fill="none" stroke="midnightblue" d="M152.455,-897.736C154.906,-941.22 170.148,-1105.8 262,-1187 267.17,-1191.57 273.181,-1195.15 279.577,-1197.95"/>
<polygon fill="midnightblue" stroke="midnightblue" points="278.578,-1201.31 289.171,-1201.52 281.016,-1194.75 278.578,-1201.31"/>
</g>
<!-- Node12 -->
<g id="node24" class="node"><title>Node12</title>
<a xlink:href="cvm-hfa_8c.html#a236e64ca73680ea6761204d5c44d4e96" target="_top" xlink:title="API to set PP resource allocator for partial matches.">
<polygon fill="white" stroke="black" points="280.5,-1156.5 280.5,-1177.5 415.5,-1177.5 415.5,-1156.5 280.5,-1156.5"/>
<text text-anchor="middle" x="348" y="-1164.5" font-family="FreeSans" font-size="10.00">hfa_dev_set_fnp_ppalloc</text>
</a>
</g>
<!-- Node7&#45;&gt;Node12 -->
<g id="edge24" class="edge"><title>Node7&#45;&gt;Node12</title>
<path fill="none" stroke="midnightblue" d="M153.115,-897.664C157.86,-937.392 180.059,-1078.05 262,-1147 264.866,-1149.41 267.969,-1151.55 271.237,-1153.43"/>
<polygon fill="midnightblue" stroke="midnightblue" points="269.708,-1156.58 280.224,-1157.87 272.808,-1150.3 269.708,-1156.58"/>
</g>
<!-- Node13 -->
<g id="node26" class="node"><title>Node13</title>
<a xlink:href="cvm-hfa_8c.html#ab547f175726534d6a0a334eb35af4980" target="_top" xlink:title="Default function pointer for PP allocations.">
<polygon fill="white" stroke="black" points="288,-1116.5 288,-1137.5 408,-1137.5 408,-1116.5 288,-1116.5"/>
<text text-anchor="middle" x="348" y="-1124.5" font-family="FreeSans" font-size="10.00">hfa_defaultfn_ppalloc</text>
</a>
</g>
<!-- Node7&#45;&gt;Node13 -->
<g id="edge26" class="edge"><title>Node7&#45;&gt;Node13</title>
<path fill="none" stroke="midnightblue" d="M154.014,-897.746C161.322,-933.614 189.913,-1050.14 262,-1107 266.976,-1110.92 272.588,-1114.1 278.5,-1116.67"/>
<polygon fill="midnightblue" stroke="midnightblue" points="277.399,-1120 287.991,-1120.24 279.857,-1113.45 277.399,-1120"/>
</g>
<!-- Node14 -->
<g id="node28" class="node"><title>Node14</title>
<a xlink:href="cvm-hfa_8c.html#a148abbfdeebb207ff46884af8eeb8fa4" target="_top" xlink:title="API to set PP resource deallocator for partial matches.">
<polygon fill="white" stroke="black" points="282,-1076.5 282,-1097.5 414,-1097.5 414,-1076.5 282,-1076.5"/>
<text text-anchor="middle" x="348" y="-1084.5" font-family="FreeSans" font-size="10.00">hfa_dev_set_fnp_ppfree</text>
</a>
</g>
<!-- Node7&#45;&gt;Node14 -->
<g id="edge28" class="edge"><title>Node7&#45;&gt;Node14</title>
<path fill="none" stroke="midnightblue" d="M155.194,-897.537C165.247,-928.816 199.349,-1021.76 262,-1067 265.262,-1069.36 268.76,-1071.44 272.41,-1073.28"/>
<polygon fill="midnightblue" stroke="midnightblue" points="271.187,-1076.56 281.751,-1077.38 273.999,-1070.15 271.187,-1076.56"/>
</g>
<!-- Node15 -->
<g id="node30" class="node"><title>Node15</title>
<a xlink:href="cvm-hfa_8c.html#a832239ee7b188265bdacbbfb7e879af1" target="_top" xlink:title="Default function pointer for PP deallocations.">
<polygon fill="white" stroke="black" points="289.5,-1036.5 289.5,-1057.5 406.5,-1057.5 406.5,-1036.5 289.5,-1036.5"/>
<text text-anchor="middle" x="348" y="-1044.5" font-family="FreeSans" font-size="10.00">hfa_defaultfn_ppfree</text>
</a>
</g>
<!-- Node7&#45;&gt;Node15 -->
<g id="edge30" class="edge"><title>Node7&#45;&gt;Node15</title>
<path fill="none" stroke="midnightblue" d="M157.187,-897.792C170.536,-924.347 208.798,-993.15 262,-1027 267.432,-1030.46 273.396,-1033.32 279.572,-1035.68"/>
<polygon fill="midnightblue" stroke="midnightblue" points="278.811,-1039.12 289.405,-1039.01 281.055,-1032.49 278.811,-1039.12"/>
</g>
<!-- Node16 -->
<g id="node32" class="node"><title>Node16</title>
<a xlink:href="cvm-hfa_8c.html#a774451b83b300f862763d189c9758e1f" target="_top" xlink:title="API to set PP buffer size function pointer.">
<polygon fill="white" stroke="black" points="282,-996.5 282,-1017.5 414,-1017.5 414,-996.5 282,-996.5"/>
<text text-anchor="middle" x="348" y="-1004.5" font-family="FreeSans" font-size="10.00">hfa_dev_set_fnp_ppsize</text>
</a>
</g>
<!-- Node7&#45;&gt;Node16 -->
<g id="edge32" class="edge"><title>Node7&#45;&gt;Node16</title>
<path fill="none" stroke="midnightblue" d="M160.429,-897.662C177.353,-918.305 217.662,-963.739 262,-987 266.467,-989.343 271.206,-991.415 276.074,-993.245"/>
<polygon fill="midnightblue" stroke="midnightblue" points="274.962,-996.564 285.557,-996.477 277.221,-989.938 274.962,-996.564"/>
</g>
<!-- Node17 -->
<g id="node34" class="node"><title>Node17</title>
<a xlink:href="cvm-hfa_8c.html#a11aab8e30488e4cfc900f60a0dabc784" target="_top" xlink:title="Default function pointer for PP size.">
<polygon fill="white" stroke="black" points="289.5,-956.5 289.5,-977.5 406.5,-977.5 406.5,-956.5 289.5,-956.5"/>
<text text-anchor="middle" x="348" y="-964.5" font-family="FreeSans" font-size="10.00">hfa_defaultfn_ppsize</text>
</a>
</g>
<!-- Node7&#45;&gt;Node17 -->
<g id="edge34" class="edge"><title>Node7&#45;&gt;Node17</title>
<path fill="none" stroke="midnightblue" d="M168.1,-897.607C188.96,-910.913 226.831,-933.605 262,-947 268.697,-949.551 275.816,-951.837 282.98,-953.87"/>
<polygon fill="midnightblue" stroke="midnightblue" points="282.175,-957.278 292.74,-956.487 283.988,-950.517 282.175,-957.278"/>
</g>
<!-- Node18 -->
<g id="node36" class="node"><title>Node18</title>
<a xlink:href="cvm-hfa_8c.html#a9a0b038e0d29435cb91a21d9c62806cc" target="_top" xlink:title="API to set PP resource allocator for temporary memory.">
<polygon fill="white" stroke="black" points="279,-916.5 279,-937.5 417,-937.5 417,-916.5 279,-916.5"/>
<text text-anchor="middle" x="348" y="-924.5" font-family="FreeSans" font-size="10.00">hfa_dev_set_fnp_pptalloc</text>
</a>
</g>
<!-- Node7&#45;&gt;Node18 -->
<g id="edge36" class="edge"><title>Node7&#45;&gt;Node18</title>
<path fill="none" stroke="midnightblue" d="M189.327,-894.618C216.688,-900.202 254.452,-907.908 286.274,-914.403"/>
<polygon fill="midnightblue" stroke="midnightblue" points="285.878,-917.894 296.376,-916.465 287.278,-911.036 285.878,-917.894"/>
</g>
<!-- Node19 -->
<g id="node38" class="node"><title>Node19</title>
<a xlink:href="cvm-hfa_8c.html#a2cbca63c413f08d3861f9b4c2855391f" target="_top" xlink:title="API to set PP resource deallocator for temporary memory.">
<polygon fill="white" stroke="black" points="280.5,-876.5 280.5,-897.5 415.5,-897.5 415.5,-876.5 280.5,-876.5"/>
<text text-anchor="middle" x="348" y="-884.5" font-family="FreeSans" font-size="10.00">hfa_dev_set_fnp_pptfree</text>
</a>
</g>
<!-- Node7&#45;&gt;Node19 -->
<g id="edge38" class="edge"><title>Node7&#45;&gt;Node19</title>
<path fill="none" stroke="midnightblue" d="M189.327,-887C212.178,-887 242.285,-887 270.126,-887"/>
<polygon fill="midnightblue" stroke="midnightblue" points="270.264,-890.5 280.264,-887 270.264,-883.5 270.264,-890.5"/>
</g>
<!-- Node20 -->
<g id="node40" class="node"><title>Node20</title>
<a xlink:href="cvm-hfa_8c.html#af0b17e8a09b1f7a1dd438ddcb1e4cd14" target="_top" xlink:title="API to set temporary memory size function pointer.">
<polygon fill="white" stroke="black" points="280.5,-836.5 280.5,-857.5 415.5,-857.5 415.5,-836.5 280.5,-836.5"/>
<text text-anchor="middle" x="348" y="-844.5" font-family="FreeSans" font-size="10.00">hfa_dev_set_fnp_pptsize</text>
</a>
</g>
<!-- Node7&#45;&gt;Node20 -->
<g id="edge40" class="edge"><title>Node7&#45;&gt;Node20</title>
<path fill="none" stroke="midnightblue" d="M189.327,-879.382C216.688,-873.798 254.452,-866.092 286.274,-859.597"/>
<polygon fill="midnightblue" stroke="midnightblue" points="287.278,-862.964 296.376,-857.535 285.878,-856.106 287.278,-862.964"/>
</g>
<!-- Node21 -->
<g id="node42" class="node"><title>Node21</title>
<a xlink:href="cvm-hfa_8c.html#aa2754afcdd94eb3dcd90c374f779dd24" target="_top" xlink:title="API to set PP resource allocator for match/result buffer.">
<polygon fill="white" stroke="black" points="265,-796.5 265,-817.5 431,-817.5 431,-796.5 265,-796.5"/>
<text text-anchor="middle" x="348" y="-804.5" font-family="FreeSans" font-size="10.00">hfa_dev_set_fnp_ppmatchalloc</text>
</a>
</g>
<!-- Node7&#45;&gt;Node21 -->
<g id="edge42" class="edge"><title>Node7&#45;&gt;Node21</title>
<path fill="none" stroke="midnightblue" d="M168.1,-876.393C188.96,-863.087 226.831,-840.395 262,-827 268.697,-824.449 275.816,-822.163 282.98,-820.13"/>
<polygon fill="midnightblue" stroke="midnightblue" points="283.988,-823.483 292.74,-817.513 282.175,-816.722 283.988,-823.483"/>
</g>
<!-- Node22 -->
<g id="node44" class="node"><title>Node22</title>
<a xlink:href="cvm-hfa_8c.html#ad022f5aec72780af8b36533884693539" target="_top" xlink:title="API to set PP resource deallocator for result/match buf.">
<polygon fill="white" stroke="black" points="266.5,-756.5 266.5,-777.5 429.5,-777.5 429.5,-756.5 266.5,-756.5"/>
<text text-anchor="middle" x="348" y="-764.5" font-family="FreeSans" font-size="10.00">hfa_dev_set_fnp_ppmatchfree</text>
</a>
</g>
<!-- Node7&#45;&gt;Node22 -->
<g id="edge44" class="edge"><title>Node7&#45;&gt;Node22</title>
<path fill="none" stroke="midnightblue" d="M160.429,-876.338C177.353,-855.695 217.662,-810.261 262,-787 266.467,-784.657 271.206,-782.585 276.074,-780.755"/>
<polygon fill="midnightblue" stroke="midnightblue" points="277.221,-784.062 285.557,-777.523 274.962,-777.436 277.221,-784.062"/>
</g>
<!-- Node23 -->
<g id="node46" class="node"><title>Node23</title>
<a xlink:href="cvm-hfa_8c.html#a8b71887165c143e32600513d12f9274f" target="_top" xlink:title="API to set match buffer size function pointer.">
<polygon fill="white" stroke="black" points="266.5,-716.5 266.5,-737.5 429.5,-737.5 429.5,-716.5 266.5,-716.5"/>
<text text-anchor="middle" x="348" y="-724.5" font-family="FreeSans" font-size="10.00">hfa_dev_set_fnp_ppmatchsize</text>
</a>
</g>
<!-- Node7&#45;&gt;Node23 -->
<g id="edge46" class="edge"><title>Node7&#45;&gt;Node23</title>
<path fill="none" stroke="midnightblue" d="M157.187,-876.208C170.536,-849.653 208.798,-780.85 262,-747 265.161,-744.989 268.501,-743.18 271.959,-741.552"/>
<polygon fill="midnightblue" stroke="midnightblue" points="273.451,-744.723 281.342,-737.653 270.765,-738.258 273.451,-744.723"/>
</g>
<!-- Node24 -->
<g id="node48" class="node"><title>Node24</title>
<a xlink:href="cvm-hfa_8c.html#abcc0595aa8b2bb2d6116d600abbf55f8" target="_top" xlink:title="API to set PP error callback.">
<polygon fill="white" stroke="black" points="280,-676.5 280,-697.5 416,-697.5 416,-676.5 280,-676.5"/>
<text text-anchor="middle" x="348" y="-684.5" font-family="FreeSans" font-size="10.00">hfa_dev_set_fnp_pperror</text>
</a>
</g>
<!-- Node7&#45;&gt;Node24 -->
<g id="edge48" class="edge"><title>Node7&#45;&gt;Node24</title>
<path fill="none" stroke="midnightblue" d="M155.194,-876.463C165.247,-845.184 199.349,-752.237 262,-707 264.734,-705.026 267.633,-703.243 270.649,-701.634"/>
<polygon fill="midnightblue" stroke="midnightblue" points="272.393,-704.684 279.999,-697.307 269.453,-698.331 272.393,-704.684"/>
</g>
<!-- Node25 -->
<g id="node50" class="node"><title>Node25</title>
<a xlink:href="cvm-hfa_8c.html#ac115556b315ff135ed2fd059cdf7d066" target="_top" xlink:title="Default function pointer for PP errors.">
<polygon fill="white" stroke="black" points="292.5,-636.5 292.5,-657.5 403.5,-657.5 403.5,-636.5 292.5,-636.5"/>
<text text-anchor="middle" x="348" y="-644.5" font-family="FreeSans" font-size="10.00">hfa_defaultfn_pperr</text>
</a>
</g>
<!-- Node7&#45;&gt;Node25 -->
<g id="edge50" class="edge"><title>Node7&#45;&gt;Node25</title>
<path fill="none" stroke="midnightblue" d="M154.014,-876.254C161.322,-840.386 189.913,-723.856 262,-667 268.178,-662.127 275.336,-658.405 282.832,-655.567"/>
<polygon fill="midnightblue" stroke="midnightblue" points="284.039,-658.855 292.46,-652.425 281.868,-652.2 284.039,-658.855"/>
</g>
<!-- Node27 -->
<g id="node54" class="node"><title>Node27</title>
<a xlink:href="cvm-hfa-graph_8c.html#a80a6427d5a90c7bd1e4cbfd62a808524" target="_top" xlink:title="This routine initializes a graph object which can be used to perform various operations on a graph fi...">
<polygon fill="white" stroke="black" points="294.5,-436.5 294.5,-457.5 401.5,-457.5 401.5,-436.5 294.5,-436.5"/>
<text text-anchor="middle" x="348" y="-444.5" font-family="FreeSans" font-size="10.00">hfa_dev_graph_init</text>
</a>
</g>
<!-- Node26&#45;&gt;Node27 -->
<g id="edge54" class="edge"><title>Node26&#45;&gt;Node27</title>
<path fill="none" stroke="midnightblue" d="M186.59,-473.353C213.58,-468.946 251.816,-462.704 284.298,-457.4"/>
<polygon fill="midnightblue" stroke="midnightblue" points="284.87,-460.853 294.176,-455.788 283.742,-453.945 284.87,-460.853"/>
</g>
<!-- Node28 -->
<g id="node56" class="node"><title>Node28</title>
<a xlink:href="cvm-hfa-graph_8c.html#a32df4a93ffcd7da232613b13204b2a80" target="_top" xlink:title="This routine sets the cluster&#45;mask for the graph.">
<polygon fill="white" stroke="black" points="289.5,-396.5 289.5,-417.5 406.5,-417.5 406.5,-396.5 289.5,-396.5"/>
<text text-anchor="middle" x="348" y="-404.5" font-family="FreeSans" font-size="10.00">hfa_graph_setcluster</text>
</a>
</g>
<!-- Node26&#45;&gt;Node28 -->
<g id="edge56" class="edge"><title>Node26&#45;&gt;Node28</title>
<path fill="none" stroke="midnightblue" d="M186.779,-473.089C199.605,-470.025 213.94,-465.515 226,-459 244.835,-448.825 242.988,-436.839 262,-427 267.539,-424.133 273.49,-421.673 279.582,-419.561"/>
<polygon fill="midnightblue" stroke="midnightblue" points="280.744,-422.865 289.231,-416.523 278.642,-416.188 280.744,-422.865"/>
</g>
<!-- Node29 -->
<g id="node58" class="node"><title>Node29</title>
<a xlink:href="app-utils_8c.html#aed95bb72627cff313c596ebcfcd8af61" target="_top" xlink:title="Parse graph into chunks and load graph to HFA memory.">
<polygon fill="white" stroke="red" points="280.5,-516.5 280.5,-537.5 415.5,-537.5 415.5,-516.5 280.5,-516.5"/>
<text text-anchor="middle" x="348" y="-524.5" font-family="FreeSans" font-size="10.00">hfautils_download_graph</text>
</a>
</g>
<!-- Node26&#45;&gt;Node29 -->
<g id="edge58" class="edge"><title>Node26&#45;&gt;Node29</title>
<path fill="none" stroke="midnightblue" d="M186.634,-488.012C208.271,-493.593 236.726,-500.845 262,-507 271.718,-509.367 282.069,-511.826 292.1,-514.177"/>
<polygon fill="midnightblue" stroke="midnightblue" points="291.454,-517.621 301.987,-516.485 293.045,-510.804 291.454,-517.621"/>
</g>
<!-- Node30 -->
<g id="node60" class="node"><title>Node30</title>
<a xlink:href="cvm-hfa-graph_8c.html#a60861d15ed5f6bccc42bbde834aa2b32" target="_top" xlink:title="This routine is used to cacheload a cacheable graph in a blocking manner.">
<polygon fill="white" stroke="red" points="288,-476.5 288,-497.5 408,-497.5 408,-476.5 288,-476.5"/>
<text text-anchor="middle" x="348" y="-484.5" font-family="FreeSans" font-size="10.00">hfa_graph_cacheload</text>
</a>
</g>
<!-- Node26&#45;&gt;Node30 -->
<g id="edge60" class="edge"><title>Node26&#45;&gt;Node30</title>
<path fill="none" stroke="midnightblue" d="M186.59,-480.412C211.669,-481.435 246.457,-482.855 277.318,-484.115"/>
<polygon fill="midnightblue" stroke="midnightblue" points="277.479,-487.624 287.613,-484.535 277.764,-480.63 277.479,-487.624"/>
</g>
<!-- Node31 -->
<g id="node62" class="node"><title>Node31</title>
<a xlink:href="cvm-hfa-graph_8c.html#a5e79919f5903d97aee5e82bfc7e71597" target="_top" xlink:title="This routine is the counterpart of hfa_dev_graph_init().">
<polygon fill="white" stroke="black" points="282,-356.5 282,-377.5 414,-377.5 414,-356.5 282,-356.5"/>
<text text-anchor="middle" x="348" y="-364.5" font-family="FreeSans" font-size="10.00">hfa_dev_graph_cleanup</text>
</a>
</g>
<!-- Node26&#45;&gt;Node31 -->
<g id="edge62" class="edge"><title>Node26&#45;&gt;Node31</title>
<path fill="none" stroke="midnightblue" d="M186.822,-475.723C200.241,-472.988 214.977,-468.015 226,-459 253.694,-436.349 233.909,-409.156 262,-387 265.317,-384.384 268.917,-382.099 272.701,-380.104"/>
<polygon fill="midnightblue" stroke="midnightblue" points="274.161,-383.285 281.814,-375.958 271.262,-376.913 274.161,-383.285"/>
</g>
<!-- Node34 -->
<g id="node68" class="node"><title>Node34</title>
<a xlink:href="cvm-hfa-search_8c.html#a64ba7a41c7d677da10e588a58789015b" target="_top" xlink:title="This routine initializes a Search Context.">
<polygon fill="white" stroke="red" points="284.5,-276.5 284.5,-297.5 411.5,-297.5 411.5,-276.5 284.5,-276.5"/>
<text text-anchor="middle" x="348" y="-284.5" font-family="FreeSans" font-size="10.00">hfa_dev_searchctx_init</text>
</a>
</g>
<!-- Node33&#45;&gt;Node34 -->
<g id="edge68" class="edge"><title>Node33&#45;&gt;Node34</title>
<path fill="none" stroke="midnightblue" d="M190.256,-293.439C214.069,-292.467 245.492,-291.184 274.021,-290.02"/>
<polygon fill="midnightblue" stroke="midnightblue" points="274.532,-293.502 284.381,-289.597 274.247,-286.508 274.532,-293.502"/>
</g>
<!-- Node35 -->
<g id="node70" class="node"><title>Node35</title>
<a xlink:href="cvm-hfa-search_8c.html#a954753c0e6f4a59599d05f1262a25b38" target="_top" xlink:title="This routine associates a graph with sctx.">
<polygon fill="white" stroke="red" points="282,-236.5 282,-257.5 414,-257.5 414,-236.5 282,-236.5"/>
<text text-anchor="middle" x="348" y="-244.5" font-family="FreeSans" font-size="10.00">hfa_searchctx_setgraph</text>
</a>
</g>
<!-- Node33&#45;&gt;Node35 -->
<g id="edge70" class="edge"><title>Node33&#45;&gt;Node35</title>
<path fill="none" stroke="midnightblue" d="M190.132,-285.086C211.28,-279.641 238.067,-272.828 262,-267 271.718,-264.633 282.069,-262.174 292.1,-259.823"/>
<polygon fill="midnightblue" stroke="midnightblue" points="293.045,-263.196 301.987,-257.515 291.454,-256.379 293.045,-263.196"/>
</g>
<!-- Node36 -->
<g id="node72" class="node"><title>Node36</title>
<a xlink:href="cvm-hfa-search_8c.html#a60c8025118f6a47f924733e47db8c77d" target="_top" xlink:title="This routine is used to specify settings used during the search and getmatches API.">
<polygon fill="white" stroke="red" points="284,-316.5 284,-337.5 412,-337.5 412,-316.5 284,-316.5"/>
<text text-anchor="middle" x="348" y="-324.5" font-family="FreeSans" font-size="10.00">hfa_searchctx_setflags</text>
</a>
</g>
<!-- Node33&#45;&gt;Node36 -->
<g id="edge72" class="edge"><title>Node33&#45;&gt;Node36</title>
<path fill="none" stroke="midnightblue" d="M190.256,-301.246C214.074,-305.134 245.505,-310.266 274.038,-314.925"/>
<polygon fill="midnightblue" stroke="midnightblue" points="273.56,-318.393 283.993,-316.55 274.688,-311.484 273.56,-318.393"/>
</g>
<!-- Node37&#45;&gt;Node5 -->
<g id="edge76" class="edge"><title>Node37&#45;&gt;Node5</title>
<path fill="none" stroke="midnightblue" d="M192.747,-1405.54C249.427,-1418.05 354.098,-1433.19 434,-1399 456.157,-1389.52 474.229,-1368 485.246,-1352.09"/>
<polygon fill="midnightblue" stroke="midnightblue" points="488.32,-1353.79 490.895,-1343.51 482.473,-1349.94 488.32,-1353.79"/>
</g>
<!-- Node41 -->
<g id="node83" class="node"><title>Node41</title>
<a xlink:href="cvm-hfa-search_8c.html#a0c36da280b39bd8afdf6081baea24472" target="_top" xlink:title="This routine performs a pattern search using the given parameters in a non&#45;blocking manner...">
<polygon fill="white" stroke="black" points="286.5,-130 286.5,-164 409.5,-164 409.5,-130 286.5,-130"/>
<text text-anchor="start" x="294.5" y="-151" font-family="FreeSans" font-size="10.00">hfa_searchctx_search</text>
<text text-anchor="middle" x="348" y="-138" font-family="FreeSans" font-size="10.00">_async</text>
</a>
</g>
<!-- Node40&#45;&gt;Node41 -->
<g id="edge84" class="edge"><title>Node40&#45;&gt;Node41</title>
<path fill="none" stroke="midnightblue" d="M209.218,-121.509C230.187,-125.361 254.188,-129.769 276.268,-133.825"/>
<polygon fill="midnightblue" stroke="midnightblue" points="275.792,-137.296 286.26,-135.66 277.057,-130.411 275.792,-137.296"/>
</g>
<!-- Node42 -->
<g id="node85" class="node"><title>Node42</title>
<a xlink:href="cvm-hfa-search_8c.html#a6a8e1d7e70e0a10520302df5651e5fc5" target="_top" xlink:title="This routine provides the status of an outstanding pattern search operation initiated using hfa_searc...">
<polygon fill="white" stroke="red" points="262,-90.5 262,-111.5 434,-111.5 434,-90.5 262,-90.5"/>
<text text-anchor="middle" x="348" y="-98.5" font-family="FreeSans" font-size="10.00">hfa_searchctx_get_searchstatus</text>
</a>
</g>
<!-- Node40&#45;&gt;Node42 -->
<g id="edge86" class="edge"><title>Node40&#45;&gt;Node42</title>
<path fill="none" stroke="midnightblue" d="M213.747,-107.85C225.788,-107.235 238.68,-106.578 251.536,-105.922"/>
<polygon fill="midnightblue" stroke="midnightblue" points="252.013,-109.402 261.822,-105.397 251.657,-102.411 252.013,-109.402"/>
</g>
<!-- Node47 -->
<g id="node95" class="node"><title>Node47</title>
<a xlink:href="cvm-hfa-common_8h.html#a0da7c57174fb96d75ae9cc2ed3116a05" target="_top" xlink:title="Dump buffer pointed by &quot;buf&quot; in readable format.">
<polygon fill="white" stroke="black" points="305,-40.5 305,-61.5 391,-61.5 391,-40.5 305,-40.5"/>
<text text-anchor="middle" x="348" y="-48.5" font-family="FreeSans" font-size="10.00">hfa_dump_buf</text>
</a>
</g>
<!-- Node46&#45;&gt;Node47 -->
<g id="edge96" class="edge"><title>Node46&#45;&gt;Node47</title>
<path fill="none" stroke="midnightblue" d="M225.541,-38.5042C248.505,-40.8474 273.383,-43.386 294.679,-45.5591"/>
<polygon fill="midnightblue" stroke="midnightblue" points="294.518,-49.0608 304.822,-46.5941 295.229,-42.0969 294.518,-49.0608"/>
</g>
<!-- Node48 -->
<g id="node97" class="node"><title>Node48</title>
<a xlink:href="cvm-hfa-pp_8c.html#a02d24f276578f8a39a93968262a08f1d" target="_top" xlink:title="pp">
<polygon fill="white" stroke="red" points="333.5,-0.5 333.5,-21.5 362.5,-21.5 362.5,-0.5 333.5,-0.5"/>
<text text-anchor="middle" x="348" y="-8.5" font-family="FreeSans" font-size="10.00">pp</text>
</a>
</g>
<!-- Node46&#45;&gt;Node48 -->
<g id="edge98" class="edge"><title>Node46&#45;&gt;Node48</title>
<path fill="none" stroke="midnightblue" d="M225.541,-23.4958C259.829,-19.9971 298.384,-16.0628 322.913,-13.5599"/>
<polygon fill="midnightblue" stroke="midnightblue" points="323.537,-17.0145 333.13,-12.5174 322.826,-10.0507 323.537,-17.0145"/>
</g>
<!-- Node50&#45;&gt;Node31 -->
<g id="edge104" class="edge"><title>Node50&#45;&gt;Node31</title>
<path fill="none" stroke="midnightblue" d="M179.153,-434.787C193.665,-431.781 211.481,-426.843 226,-419 244.835,-408.825 242.988,-396.839 262,-387 266.48,-384.682 271.229,-382.629 276.104,-380.811"/>
<polygon fill="midnightblue" stroke="midnightblue" points="277.246,-384.12 285.597,-377.599 275.003,-377.489 277.246,-384.12"/>
</g>
</g>
</svg>
