<?xml version="1.0" encoding="UTF-8" standalone="no"?>
<!DOCTYPE svg PUBLIC "-//W3C//DTD SVG 1.1//EN"
 "http://www.w3.org/Graphics/SVG/1.1/DTD/svg11.dtd">
<!-- Generated by graphviz version 2.24.0 (20090616.2323)
 -->
<!-- Title: configure_cluster_memory_resources Pages: 1 -->
<!--zoomable 350 -->
<svg id="main" version="1.1" xmlns="http://www.w3.org/2000/svg" xmlns:xlink="http://www.w3.org/1999/xlink" xml:space="preserve" onload="init(evt)">
        <defs>
                <circle id="rim" cx="0" cy="0" r="7"/>
                <circle id="rim2" cx="0" cy="0" r="3.5"/>
                <g id="zoomPlus">
                        <use xlink:href="#rim" fill="#404040">
                                <set attributeName="fill" to="#808080" begin="zoomplus.mouseover" end="zoomplus.mouseout"/>
                        </use>
                        <path d="M-4,0h8M0,-4v8" fill="none" stroke="white" stroke-width="1.5" pointer-events="none"/>
                </g>
                <g id="zoomMin">
                        <use xlink:href="#rim" fill="#404040">
                                <set attributeName="fill" to="#808080" begin="zoomminus.mouseover" end="zoomminus.mouseout"/>
                        </use>
                        <path d="M-4,0h8" fill="none" stroke="white" stroke-width="1.5" pointer-events="none"/>
                </g>
                <g id="dirArrow">
                        <path fill="none" stroke="white" stroke-width="1.5" d="M0,-3.0v7 M-2.5,-0.5L0,-3.0L2.5,-0.5"/>
                </g>
               <g id="resetDef">
                       <use xlink:href="#rim2" fill="#404040">
                               <set attributeName="fill" to="#808080" begin="reset.mouseover" end="reset.mouseout"/>
                       </use>
               </g>
        </defs>

<script type="text/javascript">
var viewWidth = 530;
var viewHeight = 350;
var sectionId = 'dynsection-4';
</script>
<script xlink:href="svgpan.js"/>
<svg id="graph" class="graph">
<g id="viewport">
<title>configure_cluster_memory_resources</title>
<polygon fill="white" stroke="white" points="-4,5 -4,-346 527,-346 527,5 -4,5"/>
<!-- Node1 -->
<g id="node1" class="node"><title>Node1</title>
<polygon fill="#bfbfbf" stroke="black" points="0,-154 0,-188 146,-188 146,-154 0,-154"/>
<text text-anchor="start" x="8" y="-175" font-family="FreeSans" font-size="10.00">configure_cluster_memory</text>
<text text-anchor="middle" x="73" y="-162" font-family="FreeSans" font-size="10.00">_resources</text>
</g>
<!-- Node2 -->
<g id="node3" class="node"><title>Node2</title>
<a xlink:href="cvm-hfa_8h.html#a1afec397da10d79424478877387414f3" target="_top" xlink:title="Returns number of clusters configured in device.">
<polygon fill="white" stroke="black" points="198,-320.5 198,-341.5 322,-341.5 322,-320.5 198,-320.5"/>
<text text-anchor="middle" x="260" y="-328.5" font-family="FreeSans" font-size="10.00">hfa_dev_get_nclusters</text>
</a>
</g>
<!-- Node1&#45;&gt;Node2 -->
<g id="edge2" class="edge"><title>Node1&#45;&gt;Node2</title>
<path fill="none" stroke="midnightblue" d="M81.4843,-188.192C97.1004,-217.988 133.306,-279.088 182,-311 185.106,-313.035 188.407,-314.864 191.829,-316.506"/>
<polygon fill="midnightblue" stroke="midnightblue" points="190.547,-319.764 201.121,-320.434 193.273,-313.316 190.547,-319.764"/>
</g>
<!-- Node3 -->
<g id="node5" class="node"><title>Node3</title>
<a xlink:href="cvm-hfa-cluster_8c.html#ad8cad96579f5a310b62caaf8c166658f" target="_top" xlink:title="Returns a copy of a cluster of the HFA device.">
<polygon fill="white" stroke="black" points="215,-280.5 215,-301.5 305,-301.5 305,-280.5 215,-280.5"/>
<text text-anchor="middle" x="260" y="-288.5" font-family="FreeSans" font-size="10.00">hfa_get_cluster</text>
</a>
</g>
<!-- Node1&#45;&gt;Node3 -->
<g id="edge4" class="edge"><title>Node1&#45;&gt;Node3</title>
<path fill="none" stroke="midnightblue" d="M86.9647,-188.267C106.061,-210.718 142.489,-249.585 182,-271 189.165,-274.883 197.112,-278.035 205.112,-280.588"/>
<polygon fill="midnightblue" stroke="midnightblue" points="204.27,-283.987 214.849,-283.412 206.22,-277.265 204.27,-283.987"/>
</g>
<!-- Node4 -->
<g id="node7" class="node"><title>Node4</title>
<a xlink:href="cvm-hfa-cluster_8c.html#ae4fec611b1343b2f6cad63b81987d98b" target="_top" xlink:title="Cleanup Cluster.">
<polygon fill="white" stroke="black" points="203.5,-240.5 203.5,-261.5 316.5,-261.5 316.5,-240.5 203.5,-240.5"/>
<text text-anchor="middle" x="260" y="-248.5" font-family="FreeSans" font-size="10.00">hfa_cluster_cleanup</text>
</a>
</g>
<!-- Node1&#45;&gt;Node4 -->
<g id="edge6" class="edge"><title>Node1&#45;&gt;Node4</title>
<path fill="none" stroke="midnightblue" d="M99.3979,-188.01C120.919,-201.259 152.477,-219.307 182,-231 188.2,-233.456 194.798,-235.691 201.43,-237.702"/>
<polygon fill="midnightblue" stroke="midnightblue" points="200.551,-241.091 211.129,-240.488 202.484,-234.363 200.551,-241.091"/>
</g>
<!-- Node7 -->
<g id="node13" class="node"><title>Node7</title>
<a xlink:href="cvm-hfa_8c.html#a741c1a0561a8b5a320f061afee14ecf4" target="_top" xlink:title="Free the named block allocated using hfa_find_named_block().">
<polygon fill="white" stroke="black" points="197,-200.5 197,-221.5 323,-221.5 323,-200.5 197,-200.5"/>
<text text-anchor="middle" x="260" y="-208.5" font-family="FreeSans" font-size="10.00">hfa_free_named_block</text>
</a>
</g>
<!-- Node1&#45;&gt;Node7 -->
<g id="edge12" class="edge"><title>Node1&#45;&gt;Node7</title>
<path fill="none" stroke="midnightblue" d="M146.103,-186.637C164.256,-190.52 183.489,-194.634 200.878,-198.354"/>
<polygon fill="midnightblue" stroke="midnightblue" points="200.37,-201.824 210.881,-200.493 201.835,-194.979 200.37,-201.824"/>
</g>
<!-- Node10 -->
<g id="node19" class="node"><title>Node10</title>
<a xlink:href="cvm-hfa-cluster_8c.html#aa0d1e40097e956ad06c9f7c454f77b80" target="_top" xlink:title="The HFA device consists of one or more clusters.">
<polygon fill="white" stroke="black" points="216,-160.5 216,-181.5 304,-181.5 304,-160.5 216,-160.5"/>
<text text-anchor="middle" x="260" y="-168.5" font-family="FreeSans" font-size="10.00">hfa_cluster_init</text>
</a>
</g>
<!-- Node1&#45;&gt;Node10 -->
<g id="edge18" class="edge"><title>Node1&#45;&gt;Node10</title>
<path fill="none" stroke="midnightblue" d="M146.103,-171C165.982,-171 187.154,-171 205.784,-171"/>
<polygon fill="midnightblue" stroke="midnightblue" points="205.847,-174.5 215.847,-171 205.847,-167.5 205.847,-174.5"/>
</g>
<!-- Node12 -->
<g id="node23" class="node"><title>Node12</title>
<a xlink:href="cvm-hfa_8h.html#a760b4a245f0bf0c6823c9edb7eba6425" target="_top" xlink:title="Indicates whether device has its own HFA memory.">
<polygon fill="white" stroke="black" points="182.5,-120.5 182.5,-141.5 337.5,-141.5 337.5,-120.5 182.5,-120.5"/>
<text text-anchor="middle" x="260" y="-128.5" font-family="FreeSans" font-size="10.00">hfa_dev_haspvt_hfamemory</text>
</a>
</g>
<!-- Node1&#45;&gt;Node12 -->
<g id="edge22" class="edge"><title>Node1&#45;&gt;Node12</title>
<path fill="none" stroke="midnightblue" d="M146.103,-155.363C164.256,-151.48 183.489,-147.366 200.878,-143.646"/>
<polygon fill="midnightblue" stroke="midnightblue" points="201.835,-147.021 210.881,-141.507 200.37,-140.176 201.835,-147.021"/>
</g>
<!-- Node13 -->
<g id="node25" class="node"><title>Node13</title>
<a xlink:href="cvm-hfa_8h.html#a426b2044f6c6a2367ea14a92665e6851" target="_top" xlink:title="Returns configured memory address in device.">
<polygon fill="white" stroke="black" points="196,-80.5 196,-101.5 324,-101.5 324,-80.5 196,-80.5"/>
<text text-anchor="middle" x="260" y="-88.5" font-family="FreeSans" font-size="10.00">hfa_dev_get_memaddr</text>
</a>
</g>
<!-- Node1&#45;&gt;Node13 -->
<g id="edge24" class="edge"><title>Node1&#45;&gt;Node13</title>
<path fill="none" stroke="midnightblue" d="M99.3979,-153.99C120.919,-140.741 152.477,-122.693 182,-111 188.2,-108.544 194.798,-106.309 201.43,-104.298"/>
<polygon fill="midnightblue" stroke="midnightblue" points="202.484,-107.637 211.129,-101.512 200.551,-100.909 202.484,-107.637"/>
</g>
<!-- Node14 -->
<g id="node27" class="node"><title>Node14</title>
<a xlink:href="cvm-hfa_8h.html#a17131375a514b77a425632ee41a2d347" target="_top" xlink:title="Returns configured memory size in device.">
<polygon fill="white" stroke="black" points="197,-40.5 197,-61.5 323,-61.5 323,-40.5 197,-40.5"/>
<text text-anchor="middle" x="260" y="-48.5" font-family="FreeSans" font-size="10.00">hfa_dev_get_memsize</text>
</a>
</g>
<!-- Node1&#45;&gt;Node14 -->
<g id="edge26" class="edge"><title>Node1&#45;&gt;Node14</title>
<path fill="none" stroke="midnightblue" d="M86.9647,-153.733C106.061,-131.282 142.489,-92.4152 182,-71 186.16,-68.7455 190.583,-66.7375 195.127,-64.9504"/>
<polygon fill="midnightblue" stroke="midnightblue" points="196.333,-68.2363 204.578,-61.5837 193.984,-61.6421 196.333,-68.2363"/>
</g>
<!-- Node15 -->
<g id="node29" class="node"><title>Node15</title>
<a xlink:href="cvm-hfa-cluster_8c.html#ad3dc54e450e08d6bf010a81b1eb11f15" target="_top" xlink:title="Assigns a memory block to the cluster as HFA memory for the purpose of loading graphs.">
<polygon fill="white" stroke="black" points="203,-0.5 203,-21.5 317,-21.5 317,-0.5 203,-0.5"/>
<text text-anchor="middle" x="260" y="-8.5" font-family="FreeSans" font-size="10.00">hfa_cluster_setmem</text>
</a>
</g>
<!-- Node1&#45;&gt;Node15 -->
<g id="edge28" class="edge"><title>Node1&#45;&gt;Node15</title>
<path fill="none" stroke="midnightblue" d="M81.4843,-153.808C97.1004,-124.012 133.306,-62.9117 182,-31 185.552,-28.6724 189.359,-26.6156 193.31,-24.7981"/>
<polygon fill="midnightblue" stroke="midnightblue" points="194.787,-27.976 202.741,-20.9768 192.159,-21.4883 194.787,-27.976"/>
</g>
<!-- Node5 -->
<g id="node9" class="node"><title>Node5</title>
<a xlink:href="cvm-hfa-cluster_8c.html#a5eb9ad880a56c9e7af7891cb994ae9db" target="_top" xlink:title="Counterpart of hfa_cluster_setmem().">
<polygon fill="white" stroke="black" points="379,-286.5 379,-307.5 517,-307.5 517,-286.5 379,-286.5"/>
<text text-anchor="middle" x="448" y="-294.5" font-family="FreeSans" font-size="10.00">hfa_cluster_cleanupmem</text>
</a>
</g>
<!-- Node4&#45;&gt;Node5 -->
<g id="edge8" class="edge"><title>Node4&#45;&gt;Node5</title>
<path fill="none" stroke="midnightblue" d="M303.131,-261.553C330.477,-268.244 366.043,-276.947 395.091,-284.054"/>
<polygon fill="midnightblue" stroke="midnightblue" points="394.524,-287.519 405.07,-286.496 396.188,-280.719 394.524,-287.519"/>
</g>
<!-- Node6 -->
<g id="node11" class="node"><title>Node6</title>
<a xlink:href="cvm-hfa-cluster_8c.html#a6c30dec281084f6e40bf9d98356418bd" target="_top" xlink:title="Frees Cache pool for cluster.">
<polygon fill="white" stroke="black" points="376.5,-246.5 376.5,-267.5 519.5,-267.5 519.5,-246.5 376.5,-246.5"/>
<text text-anchor="middle" x="448" y="-254.5" font-family="FreeSans" font-size="10.00">hfa_cluster_cleanupcache</text>
</a>
</g>
<!-- Node4&#45;&gt;Node6 -->
<g id="edge10" class="edge"><title>Node4&#45;&gt;Node6</title>
<path fill="none" stroke="midnightblue" d="M316.661,-252.808C332.24,-253.306 349.453,-253.855 366.146,-254.388"/>
<polygon fill="midnightblue" stroke="midnightblue" points="366.346,-257.896 376.453,-254.717 366.57,-250.899 366.346,-257.896"/>
</g>
<!-- Node8 -->
<g id="node15" class="node"><title>Node8</title>
<a xlink:href="cvmx-hfa_8c.html#a547dc48185d98dcfe05c3f2cf49429fd" target="_top" xlink:title="Finds a named bootmem block by name.">
<polygon fill="white" stroke="black" points="375,-194 375,-228 521,-228 521,-194 375,-194"/>
<text text-anchor="start" x="383" y="-215" font-family="FreeSans" font-size="10.00">hfa_bootmem_find_named</text>
<text text-anchor="middle" x="448" y="-202" font-family="FreeSans" font-size="10.00">_block</text>
</a>
</g>
<!-- Node7&#45;&gt;Node8 -->
<g id="edge14" class="edge"><title>Node7&#45;&gt;Node8</title>
<path fill="none" stroke="midnightblue" d="M323.124,-211C336.515,-211 350.846,-211 364.851,-211"/>
<polygon fill="midnightblue" stroke="midnightblue" points="364.974,-214.5 374.974,-211 364.974,-207.5 364.974,-214.5"/>
</g>
<!-- Node9 -->
<g id="node17" class="node"><title>Node9</title>
<a xlink:href="cvmx-hfa_8c.html#a96a2b8d673269a4c41c3a151e4e56abb" target="_top" xlink:title="Frees a named bootmem block by name.">
<polygon fill="white" stroke="black" points="374.5,-154.5 374.5,-175.5 521.5,-175.5 521.5,-154.5 374.5,-154.5"/>
<text text-anchor="middle" x="448" y="-162.5" font-family="FreeSans" font-size="10.00">hfa_bootmem_free_named</text>
</a>
</g>
<!-- Node7&#45;&gt;Node9 -->
<g id="edge16" class="edge"><title>Node7&#45;&gt;Node9</title>
<path fill="none" stroke="midnightblue" d="M303.131,-200.447C330.477,-193.756 366.043,-185.053 395.091,-177.946"/>
<polygon fill="midnightblue" stroke="midnightblue" points="396.188,-181.281 405.07,-175.504 394.524,-174.481 396.188,-181.281"/>
</g>
<!-- Node11 -->
<g id="node21" class="node"><title>Node11</title>
<a xlink:href="cvm-hfa-cluster_8c.html#ae7f77575030285c474e1ee2669171a3c" target="_top" xlink:title="Each HFA cluster has predefined cache size and addresses to be used by cluster for graph cache load I...">
<polygon fill="white" stroke="black" points="388.5,-114.5 388.5,-135.5 507.5,-135.5 507.5,-114.5 388.5,-114.5"/>
<text text-anchor="middle" x="448" y="-122.5" font-family="FreeSans" font-size="10.00">hfa_cluster_setcache</text>
</a>
</g>
<!-- Node10&#45;&gt;Node11 -->
<g id="edge20" class="edge"><title>Node10&#45;&gt;Node11</title>
<path fill="none" stroke="midnightblue" d="M303.131,-160.447C330.477,-153.756 366.043,-145.053 395.091,-137.946"/>
<polygon fill="midnightblue" stroke="midnightblue" points="396.188,-141.281 405.07,-135.504 394.524,-134.481 396.188,-141.281"/>
</g>
</g>
</svg>
        <g id="navigator" transform="translate(0 0)" fill="#404254">
                <rect fill="#f2f5e9" fill-opacity="0.5" stroke="#606060" stroke-width=".5" x="0" y="0" width="60" height="60"/>
                <use id="zoomplus" xlink:href="#zoomPlus" x="17" y="9" onmousedown="handleZoom(evt,'in')"/>
                <use id="zoomminus" xlink:href="#zoomMin" x="42" y="9" onmousedown="handleZoom(evt,'out')"/>
                <use id="reset" xlink:href="#resetDef" x="30" y="36" onmousedown="handleReset()"/>
                <g id="arrowUp" xlink:href="#dirArrow" transform="translate(30 24)" onmousedown="handlePan(0,-1)">
                  <use xlink:href="#rim" fill="#404040">
                        <set attributeName="fill" to="#808080" begin="arrowUp.mouseover" end="arrowUp.mouseout"/>
                  </use>
                  <path fill="none" stroke="white" stroke-width="1.5" d="M0,-3.0v7 M-2.5,-0.5L0,-3.0L2.5,-0.5"/>
                </g>
                <g id="arrowRight" xlink:href="#dirArrow" transform="rotate(90) translate(36 -43)" onmousedown="handlePan(1,0)">
                  <use xlink:href="#rim" fill="#404040">
                        <set attributeName="fill" to="#808080" begin="arrowRight.mouseover" end="arrowRight.mouseout"/>
                  </use>
                  <path fill="none" stroke="white" stroke-width="1.5" d="M0,-3.0v7 M-2.5,-0.5L0,-3.0L2.5,-0.5"/>
                </g>
                <g id="arrowDown" xlink:href="#dirArrow" transform="rotate(180) translate(-30 -48)" onmousedown="handlePan(0,1)">
                  <use xlink:href="#rim" fill="#404040">
                        <set attributeName="fill" to="#808080" begin="arrowDown.mouseover" end="arrowDown.mouseout"/>
                  </use>
                  <path fill="none" stroke="white" stroke-width="1.5" d="M0,-3.0v7 M-2.5,-0.5L0,-3.0L2.5,-0.5"/>
                </g>
                <g id="arrowLeft" xlink:href="#dirArrow" transform="rotate(270) translate(-36 17)" onmousedown="handlePan(-1,0)">
                  <use xlink:href="#rim" fill="#404040">
                        <set attributeName="fill" to="#808080" begin="arrowLeft.mouseover" end="arrowLeft.mouseout"/>
                  </use>
                  <path fill="none" stroke="white" stroke-width="1.5" d="M0,-3.0v7 M-2.5,-0.5L0,-3.0L2.5,-0.5"/>
                </g>
        </g>
        <svg viewBox="0 0 15 15" width="100%" height="30px" preserveAspectRatio="xMaxYMin meet">
         <g id="arrow_out" transform="scale(0.3 0.3)">
          <a xlink:href="hfa-se-async_8c_abc17fab65a320998a273d112ff24d658_cgraph_org.svg" target="_base">
           <rect id="button" ry="5" rx="5" y="6" x="6" height="38" width="38"
                fill="#f2f5e9" fill-opacity="0.5" stroke="#606060" stroke-width="1.0"/>
           <path id="arrow"
             d="M 11.500037,31.436501 C 11.940474,20.09759 22.043105,11.32322 32.158766,21.979434 L 37.068811,17.246167 C 37.068811,17.246167 37.088388,32 37.088388,32 L 22.160133,31.978069 C 22.160133,31.978069 26.997745,27.140456 26.997745,27.140456 C 18.528582,18.264221 13.291696,25.230495 11.500037,31.436501 z"
             style="fill:#404040;"/>
          </a>
         </g>
        </svg>
</svg>
