<?xml version="1.0" encoding="UTF-8" standalone="no"?>
<!DOCTYPE svg PUBLIC "-//W3C//DTD SVG 1.1//EN"
 "http://www.w3.org/Graphics/SVG/1.1/DTD/svg11.dtd">
<!-- Generated by graphviz version 2.24.0 (20090616.2323)
 -->
<!-- Title: initialize_ctx Pages: 1 -->
<svg width="712pt" height="320pt"
 viewBox="0.00 0.00 712.00 320.00" xmlns="http://www.w3.org/2000/svg" xmlns:xlink="http://www.w3.org/1999/xlink">
<g id="graph1" class="graph" transform="scale(1 1) rotate(0) translate(4 316)">
<title>initialize_ctx</title>
<polygon fill="white" stroke="white" points="-4,5 -4,-316 709,-316 709,5 -4,5"/>
<!-- Node1 -->
<g id="node1" class="node"><title>Node1</title>
<polygon fill="#bfbfbf" stroke="black" points="0.5,-158.5 0.5,-179.5 75.5,-179.5 75.5,-158.5 0.5,-158.5"/>
<text text-anchor="middle" x="38" y="-166.5" font-family="FreeSans" font-size="10.00">initialize_ctx</text>
</g>
<!-- Node2 -->
<g id="node3" class="node"><title>Node2</title>
<a xlink:href="cvm-hfa-search_8c.html#a64ba7a41c7d677da10e588a58789015b" target="_top" xlink:title="This routine initializes a Search Context.">
<polygon fill="white" stroke="black" points="124.5,-264.5 124.5,-285.5 251.5,-285.5 251.5,-264.5 124.5,-264.5"/>
<text text-anchor="middle" x="188" y="-272.5" font-family="FreeSans" font-size="10.00">hfa_dev_searchctx_init</text>
</a>
</g>
<!-- Node1&#45;&gt;Node2 -->
<g id="edge2" class="edge"><title>Node1&#45;&gt;Node2</title>
<path fill="none" stroke="midnightblue" d="M52.931,-179.551C79.0997,-198.044 133.425,-236.434 164.618,-258.477"/>
<polygon fill="midnightblue" stroke="midnightblue" points="162.943,-261.579 173.129,-264.491 166.983,-255.862 162.943,-261.579"/>
</g>
<!-- Node6 -->
<g id="node11" class="node"><title>Node6</title>
<a xlink:href="cvm-hfa-search_8c.html#a954753c0e6f4a59599d05f1262a25b38" target="_top" xlink:title="This routine associates a graph with sctx.">
<polygon fill="white" stroke="black" points="122,-39.5 122,-60.5 254,-60.5 254,-39.5 122,-39.5"/>
<text text-anchor="middle" x="188" y="-47.5" font-family="FreeSans" font-size="10.00">hfa_searchctx_setgraph</text>
</a>
</g>
<!-- Node1&#45;&gt;Node6 -->
<g id="edge10" class="edge"><title>Node1&#45;&gt;Node6</title>
<path fill="none" stroke="midnightblue" d="M51.3115,-158.44C77.2648,-137.85 134.84,-92.174 166.353,-67.1731"/>
<polygon fill="midnightblue" stroke="midnightblue" points="168.844,-69.6649 174.503,-60.7079 164.493,-64.181 168.844,-69.6649"/>
</g>
<!-- Node10 -->
<g id="node20" class="node"><title>Node10</title>
<a xlink:href="cvm-hfa-search_8c.html#a60c8025118f6a47f924733e47db8c77d" target="_top" xlink:title="This routine is used to specify settings used during the search and getmatches API.">
<polygon fill="white" stroke="black" points="124,-178.5 124,-199.5 252,-199.5 252,-178.5 124,-178.5"/>
<text text-anchor="middle" x="188" y="-186.5" font-family="FreeSans" font-size="10.00">hfa_searchctx_setflags</text>
</a>
</g>
<!-- Node1&#45;&gt;Node10 -->
<g id="edge20" class="edge"><title>Node1&#45;&gt;Node10</title>
<path fill="none" stroke="midnightblue" d="M75.8513,-174.047C87.4703,-175.596 100.681,-177.357 113.856,-179.114"/>
<polygon fill="midnightblue" stroke="midnightblue" points="113.522,-182.601 123.897,-180.453 114.447,-175.662 113.522,-182.601"/>
</g>
<!-- Node15 -->
<g id="node30" class="node"><title>Node15</title>
<a xlink:href="cvm-hfa-search_8c.html#a30064f173d814bd3791b59d675c2f45f" target="_top" xlink:title="This routine cleans&#45;up a Search Context.">
<polygon fill="white" stroke="black" points="112,-138.5 112,-159.5 264,-159.5 264,-138.5 112,-138.5"/>
<text text-anchor="middle" x="188" y="-146.5" font-family="FreeSans" font-size="10.00">hfa_dev_searchctx_cleanup</text>
</a>
</g>
<!-- Node1&#45;&gt;Node15 -->
<g id="edge30" class="edge"><title>Node1&#45;&gt;Node15</title>
<path fill="none" stroke="midnightblue" d="M75.8513,-163.953C83.9458,-162.874 92.8127,-161.692 101.902,-160.48"/>
<polygon fill="midnightblue" stroke="midnightblue" points="102.376,-163.948 111.826,-159.157 101.451,-157.009 102.376,-163.948"/>
</g>
<!-- Node3 -->
<g id="node5" class="node"><title>Node3</title>
<a xlink:href="cvm-hfa-stats_8c.html#a1cff986555a79b0d5ccee49801cb0056" target="_top" xlink:title="This routine allocates the memory for counters to maintain the statistics of search context...">
<polygon fill="white" stroke="black" points="303.5,-290.5 303.5,-311.5 434.5,-311.5 434.5,-290.5 303.5,-290.5"/>
<text text-anchor="middle" x="369" y="-298.5" font-family="FreeSans" font-size="10.00">hfa_searchctx_stats_init</text>
</a>
</g>
<!-- Node2&#45;&gt;Node3 -->
<g id="edge4" class="edge"><title>Node2&#45;&gt;Node3</title>
<path fill="none" stroke="midnightblue" d="M251.559,-284.13C265.084,-286.073 279.492,-288.142 293.415,-290.143"/>
<polygon fill="midnightblue" stroke="midnightblue" points="293.052,-293.626 303.448,-291.584 294.048,-286.697 293.052,-293.626"/>
</g>
<!-- Node4 -->
<g id="node7" class="node"><title>Node4</title>
<a xlink:href="cvm-hfa-stats_8c.html#acbdfa65e476c04cd9b67b7c462eefe56" target="_top" xlink:title="This routine allocates required memory from STATS ARENA.">
<polygon fill="white" stroke="black" points="474.5,-290.5 474.5,-311.5 603.5,-311.5 603.5,-290.5 474.5,-290.5"/>
<text text-anchor="middle" x="539" y="-298.5" font-family="FreeSans" font-size="10.00">hfa_stats_memoryalloc</text>
</a>
</g>
<!-- Node3&#45;&gt;Node4 -->
<g id="edge6" class="edge"><title>Node3&#45;&gt;Node4</title>
<path fill="none" stroke="midnightblue" d="M434.726,-301C444.365,-301 454.353,-301 464.159,-301"/>
<polygon fill="midnightblue" stroke="midnightblue" points="464.288,-304.5 474.288,-301 464.288,-297.5 464.288,-304.5"/>
</g>
<!-- Node5 -->
<g id="node9" class="node"><title>Node5</title>
<a xlink:href="cvm-hfa-stats_8c.html#a7a2acbe48c3850d43256938ee996aa16" target="_top" xlink:title="This routine frees memory to STATS ARENA.">
<polygon fill="white" stroke="black" points="476.5,-207.5 476.5,-228.5 601.5,-228.5 601.5,-207.5 476.5,-207.5"/>
<text text-anchor="middle" x="539" y="-215.5" font-family="FreeSans" font-size="10.00">hfa_stats_memoryfree</text>
</a>
</g>
<!-- Node3&#45;&gt;Node5 -->
<g id="edge8" class="edge"><title>Node3&#45;&gt;Node5</title>
<path fill="none" stroke="midnightblue" d="M418.343,-290.379C425.215,-287.863 431.977,-284.777 438,-281 458.264,-268.294 454.113,-254.288 474,-241 478.846,-237.762 484.2,-234.924 489.693,-232.451"/>
<polygon fill="midnightblue" stroke="midnightblue" points="491.084,-235.663 499.004,-228.626 488.424,-229.188 491.084,-235.663"/>
</g>
<!-- Node7 -->
<g id="node13" class="node"><title>Node7</title>
<a xlink:href="cvm-hfa-pp_8c.html#a9ad01b0f0de0f65b99a53f6c64f147e2" target="_top" xlink:title="ppinit">
<polygon fill="white" stroke="black" points="518,-19.5 518,-40.5 560,-40.5 560,-19.5 518,-19.5"/>
<text text-anchor="middle" x="539" y="-27.5" font-family="FreeSans" font-size="10.00">ppinit</text>
</a>
</g>
<!-- Node6&#45;&gt;Node7 -->
<g id="edge12" class="edge"><title>Node6&#45;&gt;Node7</title>
<path fill="none" stroke="midnightblue" d="M254.02,-46.2382C329.765,-41.9222 450.809,-35.0251 507.625,-31.7877"/>
<polygon fill="midnightblue" stroke="midnightblue" points="507.996,-35.2724 517.781,-31.2091 507.598,-28.2837 507.996,-35.2724"/>
</g>
<!-- Node9 -->
<g id="node17" class="node"><title>Node9</title>
<a xlink:href="cvm-hfa-search_8c.html#a3200f5303f0611887f35dd500e7a8d00" target="_top" xlink:title="This is a utility routine which associates an application&#45;specifc cookie in the sctx.">
<polygon fill="white" stroke="black" points="300,-0.5 300,-21.5 438,-21.5 438,-0.5 300,-0.5"/>
<text text-anchor="middle" x="369" y="-8.5" font-family="FreeSans" font-size="10.00">hfa_searchctx_setppuarg</text>
</a>
</g>
<!-- Node6&#45;&gt;Node9 -->
<g id="edge16" class="edge"><title>Node6&#45;&gt;Node9</title>
<path fill="none" stroke="midnightblue" d="M236.981,-39.446C259.517,-34.5903 286.438,-28.7897 310.073,-23.6969"/>
<polygon fill="midnightblue" stroke="midnightblue" points="310.941,-27.0903 319.98,-21.5624 309.467,-20.2474 310.941,-27.0903"/>
</g>
<!-- Node8 -->
<g id="node15" class="node"><title>Node8</title>
<a xlink:href="pp_8h.html#adc8d105abb8f12812385bb87d15e6e32" target="_top" xlink:title="pphfa_init">
<polygon fill="white" stroke="black" points="640.5,-19.5 640.5,-40.5 703.5,-40.5 703.5,-19.5 640.5,-19.5"/>
<text text-anchor="middle" x="672" y="-27.5" font-family="FreeSans" font-size="10.00">pphfa_init</text>
</a>
</g>
<!-- Node7&#45;&gt;Node8 -->
<g id="edge14" class="edge"><title>Node7&#45;&gt;Node8</title>
<path fill="none" stroke="midnightblue" d="M560.074,-30C578.897,-30 607.02,-30 630.366,-30"/>
<polygon fill="midnightblue" stroke="midnightblue" points="630.371,-33.5001 640.371,-30 630.371,-26.5001 630.371,-33.5001"/>
</g>
<!-- Node9&#45;&gt;Node7 -->
<g id="edge18" class="edge"><title>Node9&#45;&gt;Node7</title>
<path fill="none" stroke="midnightblue" d="M438.146,-18.728C462.345,-21.4326 488.321,-24.3359 507.85,-26.5186"/>
<polygon fill="midnightblue" stroke="midnightblue" points="507.657,-30.0187 517.984,-27.6512 508.435,-23.062 507.657,-30.0187"/>
</g>
<!-- Node11 -->
<g id="node22" class="node"><title>Node11</title>
<a xlink:href="cvm-hfa-pp_8c.html#add6064138ec2e35741929056a0992d8d" target="_top" xlink:title="ppgetstats">
<polygon fill="white" stroke="black" points="336,-158.5 336,-179.5 402,-179.5 402,-158.5 336,-158.5"/>
<text text-anchor="middle" x="369" y="-166.5" font-family="FreeSans" font-size="10.00">ppgetstats</text>
</a>
</g>
<!-- Node10&#45;&gt;Node11 -->
<g id="edge22" class="edge"><title>Node10&#45;&gt;Node11</title>
<path fill="none" stroke="midnightblue" d="M252.069,-181.921C276.475,-179.224 303.692,-176.216 325.723,-173.782"/>
<polygon fill="midnightblue" stroke="midnightblue" points="326.213,-177.249 335.768,-172.672 325.444,-170.292 326.213,-177.249"/>
</g>
<!-- Node13 -->
<g id="node26" class="node"><title>Node13</title>
<a xlink:href="cvm-hfa-pp_8c.html#a73cd0d7244d64410753dac7b809d2060" target="_top" xlink:title="ppassignstats">
<polygon fill="white" stroke="black" points="328.5,-250.5 328.5,-271.5 409.5,-271.5 409.5,-250.5 328.5,-250.5"/>
<text text-anchor="middle" x="369" y="-258.5" font-family="FreeSans" font-size="10.00">ppassignstats</text>
</a>
</g>
<!-- Node10&#45;&gt;Node13 -->
<g id="edge26" class="edge"><title>Node10&#45;&gt;Node13</title>
<path fill="none" stroke="midnightblue" d="M208.241,-199.542C230.371,-210.795 267.076,-228.667 300,-241 306.055,-243.268 312.488,-245.438 318.896,-247.456"/>
<polygon fill="midnightblue" stroke="midnightblue" points="318.304,-250.934 328.89,-250.495 320.341,-244.237 318.304,-250.934"/>
</g>
<!-- Node12 -->
<g id="node24" class="node"><title>Node12</title>
<a xlink:href="pp_8h.html#a808d5057ee5670ce724a6a88fc22b799" target="_top" xlink:title="pphfa_getstats">
<polygon fill="white" stroke="black" points="495.5,-158.5 495.5,-179.5 582.5,-179.5 582.5,-158.5 495.5,-158.5"/>
<text text-anchor="middle" x="539" y="-166.5" font-family="FreeSans" font-size="10.00">pphfa_getstats</text>
</a>
</g>
<!-- Node11&#45;&gt;Node12 -->
<g id="edge24" class="edge"><title>Node11&#45;&gt;Node12</title>
<path fill="none" stroke="midnightblue" d="M402.181,-169C425.744,-169 457.896,-169 485.113,-169"/>
<polygon fill="midnightblue" stroke="midnightblue" points="485.273,-172.5 495.273,-169 485.273,-165.5 485.273,-172.5"/>
</g>
<!-- Node14 -->
<g id="node28" class="node"><title>Node14</title>
<a xlink:href="pp_8h.html#ad0cc4aeca687557949697bef25cdb764" target="_top" xlink:title="pphfa_assignstats">
<polygon fill="white" stroke="black" points="488,-250.5 488,-271.5 590,-271.5 590,-250.5 488,-250.5"/>
<text text-anchor="middle" x="539" y="-258.5" font-family="FreeSans" font-size="10.00">pphfa_assignstats</text>
</a>
</g>
<!-- Node13&#45;&gt;Node14 -->
<g id="edge28" class="edge"><title>Node13&#45;&gt;Node14</title>
<path fill="none" stroke="midnightblue" d="M409.719,-261C430.078,-261 455.139,-261 477.758,-261"/>
<polygon fill="midnightblue" stroke="midnightblue" points="477.954,-264.5 487.954,-261 477.954,-257.5 477.954,-264.5"/>
</g>
<!-- Node15&#45;&gt;Node11 -->
<g id="edge32" class="edge"><title>Node15&#45;&gt;Node11</title>
<path fill="none" stroke="midnightblue" d="M264.236,-157.424C285.17,-159.737 307.149,-162.166 325.538,-164.198"/>
<polygon fill="midnightblue" stroke="midnightblue" points="325.311,-167.694 335.635,-165.313 326.08,-160.736 325.311,-167.694"/>
</g>
<!-- Node16 -->
<g id="node33" class="node"><title>Node16</title>
<a xlink:href="cvm-hfa-pp_8c.html#a57ec655c9bdb6ce63ada6767c7e14763" target="_top" xlink:title="ppcleanstats">
<polygon fill="white" stroke="black" points="330.5,-118.5 330.5,-139.5 407.5,-139.5 407.5,-118.5 330.5,-118.5"/>
<text text-anchor="middle" x="369" y="-126.5" font-family="FreeSans" font-size="10.00">ppcleanstats</text>
</a>
</g>
<!-- Node15&#45;&gt;Node16 -->
<g id="edge34" class="edge"><title>Node15&#45;&gt;Node16</title>
<path fill="none" stroke="midnightblue" d="M264.236,-140.576C283.118,-138.49 302.849,-136.309 320.031,-134.411"/>
<polygon fill="midnightblue" stroke="midnightblue" points="320.814,-137.846 330.369,-133.269 320.045,-130.888 320.814,-137.846"/>
</g>
<!-- Node18 -->
<g id="node37" class="node"><title>Node18</title>
<a xlink:href="cvm-hfa-pp_8c.html#a41ce9d3103c639e474783d3843e09071" target="_top" xlink:title="ppcleanup">
<polygon fill="white" stroke="black" points="336,-78.5 336,-99.5 402,-99.5 402,-78.5 336,-78.5"/>
<text text-anchor="middle" x="369" y="-86.5" font-family="FreeSans" font-size="10.00">ppcleanup</text>
</a>
</g>
<!-- Node15&#45;&gt;Node18 -->
<g id="edge38" class="edge"><title>Node15&#45;&gt;Node18</title>
<path fill="none" stroke="midnightblue" d="M215.915,-138.497C238.477,-130.137 271.119,-118.333 300,-109 308.45,-106.269 317.538,-103.51 326.254,-100.95"/>
<polygon fill="midnightblue" stroke="midnightblue" points="327.255,-104.304 335.884,-98.1561 325.305,-97.5812 327.255,-104.304"/>
</g>
<!-- Node20 -->
<g id="node41" class="node"><title>Node20</title>
<a xlink:href="cvm-hfa-stats_8c.html#a2df4c76e04e7b028ed2df4bba1b2de3d" target="_top" xlink:title="This routine is the counterpart of hfa_searchctx_init_stats().">
<polygon fill="white" stroke="black" points="312.5,-198 312.5,-232 425.5,-232 425.5,-198 312.5,-198"/>
<text text-anchor="start" x="320.5" y="-219" font-family="FreeSans" font-size="10.00">hfa_searchctx_stats</text>
<text text-anchor="middle" x="369" y="-206" font-family="FreeSans" font-size="10.00">_cleanup</text>
</a>
</g>
<!-- Node15&#45;&gt;Node20 -->
<g id="edge42" class="edge"><title>Node15&#45;&gt;Node20</title>
<path fill="none" stroke="midnightblue" d="M235.623,-159.578C245.164,-162.24 255.012,-165.387 264,-169 280.983,-175.827 283.391,-181.308 300,-189 303.79,-190.755 307.734,-192.485 311.732,-194.168"/>
<polygon fill="midnightblue" stroke="midnightblue" points="310.53,-197.458 321.111,-197.999 313.177,-190.978 310.53,-197.458"/>
</g>
<!-- Node17 -->
<g id="node35" class="node"><title>Node17</title>
<a xlink:href="pp_8h.html#a978b171bd7a736cb7fa0d5d034aa94e2" target="_top" xlink:title="pphfa_cleanstats">
<polygon fill="white" stroke="black" points="490,-118.5 490,-139.5 588,-139.5 588,-118.5 490,-118.5"/>
<text text-anchor="middle" x="539" y="-126.5" font-family="FreeSans" font-size="10.00">pphfa_cleanstats</text>
</a>
</g>
<!-- Node16&#45;&gt;Node17 -->
<g id="edge36" class="edge"><title>Node16&#45;&gt;Node17</title>
<path fill="none" stroke="midnightblue" d="M407.576,-129C428.919,-129 455.897,-129 479.848,-129"/>
<polygon fill="midnightblue" stroke="midnightblue" points="479.902,-132.5 489.902,-129 479.902,-125.5 479.902,-132.5"/>
</g>
<!-- Node19 -->
<g id="node39" class="node"><title>Node19</title>
<a xlink:href="pp_8h.html#a428ad073d1fd72da37ab8b00f13693a3" target="_top" xlink:title="pphfa_cleanup">
<polygon fill="white" stroke="black" points="495.5,-78.5 495.5,-99.5 582.5,-99.5 582.5,-78.5 495.5,-78.5"/>
<text text-anchor="middle" x="539" y="-86.5" font-family="FreeSans" font-size="10.00">pphfa_cleanup</text>
</a>
</g>
<!-- Node18&#45;&gt;Node19 -->
<g id="edge40" class="edge"><title>Node18&#45;&gt;Node19</title>
<path fill="none" stroke="midnightblue" d="M402.181,-89C425.744,-89 457.896,-89 485.113,-89"/>
<polygon fill="midnightblue" stroke="midnightblue" points="485.273,-92.5001 495.273,-89 485.273,-85.5001 485.273,-92.5001"/>
</g>
<!-- Node20&#45;&gt;Node5 -->
<g id="edge44" class="edge"><title>Node20&#45;&gt;Node5</title>
<path fill="none" stroke="midnightblue" d="M425.608,-215.999C438.615,-216.229 452.625,-216.476 466.21,-216.715"/>
<polygon fill="midnightblue" stroke="midnightblue" points="466.432,-220.22 476.492,-216.897 466.556,-213.221 466.432,-220.22"/>
</g>
</g>
</svg>
