<?xml version="1.0" encoding="UTF-8" standalone="no"?>
<!DOCTYPE svg PUBLIC "-//W3C//DTD SVG 1.1//EN"
 "http://www.w3.org/Graphics/SVG/1.1/DTD/svg11.dtd">
<!-- Generated by graphviz version 2.24.0 (20090616.2323)
 -->
<!-- Title: main Pages: 1 -->
<svg width="538pt" height="1576pt"
 viewBox="0.00 0.00 538.00 1576.00" xmlns="http://www.w3.org/2000/svg" xmlns:xlink="http://www.w3.org/1999/xlink">
<g id="graph1" class="graph" transform="scale(1 1) rotate(0) translate(4 1572)">
<title>main</title>
<polygon fill="white" stroke="white" points="-4,5 -4,-1572 535,-1572 535,5 -4,5"/>
<!-- Node1 -->
<g id="node1" class="node"><title>Node1</title>
<polygon fill="#bfbfbf" stroke="black" points="0,-342.5 0,-363.5 40,-363.5 40,-342.5 0,-342.5"/>
<text text-anchor="middle" x="20" y="-350.5" font-family="FreeSans" font-size="10.00">main</text>
</g>
<!-- Node2 -->
<g id="node3" class="node"><title>Node2</title>
<a xlink:href="app-utils_8c.html#a4ef3fc7ca0729733044bc1430922cb2f" target="_top" xlink:title="Register signal handler for SIGINT(CTRL&#45;C).">
<polygon fill="white" stroke="black" points="76.5,-1500.5 76.5,-1521.5 237.5,-1521.5 237.5,-1500.5 76.5,-1500.5"/>
<text text-anchor="middle" x="157" y="-1508.5" font-family="FreeSans" font-size="10.00">hfautils_register_signalhandler</text>
</a>
</g>
<!-- Node1&#45;&gt;Node2 -->
<g id="edge2" class="edge"><title>Node1&#45;&gt;Node2</title>
<path fill="none" stroke="midnightblue" d="M20.0244,-363.737C20.3353,-470.72 24.448,-1343.3 76,-1445 86.9652,-1466.63 108.569,-1483.67 126.71,-1495.01"/>
<polygon fill="midnightblue" stroke="midnightblue" points="125.421,-1498.32 135.805,-1500.42 128.998,-1492.3 125.421,-1498.32"/>
</g>
<!-- Node4 -->
<g id="node7" class="node"><title>Node4</title>
<a xlink:href="hfa-se-linkgraph_8c.html#ab42726e951c529a41b8e09fd6e84ada2" target="_top" xlink:title="Process command line options and read graph.">
<polygon fill="white" stroke="black" points="110,-1414.5 110,-1435.5 204,-1435.5 204,-1414.5 110,-1414.5"/>
<text text-anchor="middle" x="157" y="-1422.5" font-family="FreeSans" font-size="10.00">process_options</text>
</a>
</g>
<!-- Node1&#45;&gt;Node4 -->
<g id="edge6" class="edge"><title>Node1&#45;&gt;Node4</title>
<path fill="none" stroke="midnightblue" d="M20.5024,-363.801C23.4907,-426.14 40.0286,-746.182 76,-1005 97.509,-1159.76 138.378,-1343.84 152.254,-1404.5"/>
<polygon fill="midnightblue" stroke="midnightblue" points="148.868,-1405.4 154.52,-1414.36 155.69,-1403.83 148.868,-1405.4"/>
</g>
<!-- Node10 -->
<g id="node20" class="node"><title>Node10</title>
<a xlink:href="cvm-hfa_8c.html#a873768042b716d60996ec5d858fc8fd9" target="_top" xlink:title="This function must be called by application to initialize HFA engine and setup resources for HFA hard...">
<polygon fill="white" stroke="black" points="120,-974.5 120,-995.5 194,-995.5 194,-974.5 120,-974.5"/>
<text text-anchor="middle" x="157" y="-982.5" font-family="FreeSans" font-size="10.00">hfa_dev_init</text>
</a>
</g>
<!-- Node1&#45;&gt;Node10 -->
<g id="edge20" class="edge"><title>Node1&#45;&gt;Node10</title>
<path fill="none" stroke="midnightblue" d="M22.3204,-363.704C38.1993,-436.956 130.843,-864.334 152.482,-964.156"/>
<polygon fill="midnightblue" stroke="midnightblue" points="149.12,-965.168 154.659,-974.199 155.961,-963.685 149.12,-965.168"/>
</g>
<!-- Node29 -->
<g id="node58" class="node"><title>Node29</title>
<a xlink:href="hfa-se-linkgraph_8c.html#a546f3769e735d4bef0bfab1cba56921c" target="_top" xlink:title="Load graph to HFA memory and cache.">
<polygon fill="white" stroke="black" points="122.5,-546.5 122.5,-567.5 191.5,-567.5 191.5,-546.5 122.5,-546.5"/>
<text text-anchor="middle" x="157" y="-554.5" font-family="FreeSans" font-size="10.00">graph_load</text>
</a>
</g>
<!-- Node1&#45;&gt;Node29 -->
<g id="edge58" class="edge"><title>Node1&#45;&gt;Node29</title>
<path fill="none" stroke="midnightblue" d="M21.8445,-363.747C28.1569,-399.308 49.9499,-512.304 76,-537 85.8008,-546.291 99.2065,-551.468 112.291,-554.294"/>
<polygon fill="midnightblue" stroke="midnightblue" points="111.716,-557.746 122.17,-556.026 112.925,-550.851 111.716,-557.746"/>
</g>
<!-- Node35 -->
<g id="node70" class="node"><title>Node35</title>
<a xlink:href="cvm-hfa-graph_8c.html#a1ae8787b6687f837ccfb7aebdab80f56" target="_top" xlink:title="This routine provides the number of subgraphs in a linked graph.">
<polygon fill="white" stroke="black" points="100.5,-494 100.5,-528 213.5,-528 213.5,-494 100.5,-494"/>
<text text-anchor="start" x="108.5" y="-515" font-family="FreeSans" font-size="10.00">hfa_graph_getgraph</text>
<text text-anchor="middle" x="157" y="-502" font-family="FreeSans" font-size="10.00">_count</text>
</a>
</g>
<!-- Node1&#45;&gt;Node35 -->
<g id="edge70" class="edge"><title>Node1&#45;&gt;Node35</title>
<path fill="none" stroke="midnightblue" d="M21.4675,-363.616C25.4686,-388.509 38.8688,-451.09 76,-485 80.4714,-489.083 85.5881,-492.526 91.0289,-495.428"/>
<polygon fill="midnightblue" stroke="midnightblue" points="89.8927,-498.76 100.434,-499.819 92.854,-492.417 89.8927,-498.76"/>
</g>
<!-- Node36 -->
<g id="node72" class="node"><title>Node36</title>
<a xlink:href="hfa-se-wqe_8c.html#af83136a23f35cac6269b0e552fc58de6" target="_top" xlink:title="Initializes the search context object of each context.">
<polygon fill="white" stroke="black" points="119,-414.5 119,-435.5 195,-435.5 195,-414.5 119,-414.5"/>
<text text-anchor="middle" x="157" y="-422.5" font-family="FreeSans" font-size="10.00">Initialize_Ctx</text>
</a>
</g>
<!-- Node1&#45;&gt;Node36 -->
<g id="edge72" class="edge"><title>Node1&#45;&gt;Node36</title>
<path fill="none" stroke="midnightblue" d="M28.7125,-363.881C38.8285,-375.776 56.6221,-394.534 76,-405 86.1529,-410.484 97.8308,-414.491 109.101,-417.41"/>
<polygon fill="midnightblue" stroke="midnightblue" points="108.316,-420.821 118.852,-419.705 109.92,-414.007 108.316,-420.821"/>
</g>
<!-- Node40 -->
<g id="node80" class="node"><title>Node40</title>
<a xlink:href="app-utils_8c.html#a4b47f3c9c5a0b3eaee64e264171628a3" target="_top" xlink:title="This routine reads data of chunksize/a packet from given payload(Normal/PCAP) file and returns data b...">
<polygon fill="white" stroke="black" points="94,-270.5 94,-291.5 220,-291.5 220,-270.5 94,-270.5"/>
<text text-anchor="middle" x="157" y="-278.5" font-family="FreeSans" font-size="10.00">hfautils_parse_payload</text>
</a>
</g>
<!-- Node1&#45;&gt;Node40 -->
<g id="edge80" class="edge"><title>Node1&#45;&gt;Node40</title>
<path fill="none" stroke="midnightblue" d="M28.7125,-342.119C38.8285,-330.224 56.6221,-311.466 76,-301 80.1619,-298.752 84.5801,-296.752 89.1214,-294.974"/>
<polygon fill="midnightblue" stroke="midnightblue" points="90.3161,-298.264 98.5734,-291.625 87.9786,-291.665 90.3161,-298.264"/>
</g>
<!-- Node41 -->
<g id="node83" class="node"><title>Node41</title>
<a xlink:href="cvm-hfa-search_8h.html#a3c407460808f038770473ffc6e4b5c38" target="_top" xlink:title="This routine adds a new input IO vector to Search Param.">
<polygon fill="white" stroke="black" points="96.5,-362 96.5,-396 217.5,-396 217.5,-362 96.5,-362"/>
<text text-anchor="start" x="104.5" y="-383" font-family="FreeSans" font-size="10.00">hfa_searchparam_set</text>
<text text-anchor="middle" x="157" y="-370" font-family="FreeSans" font-size="10.00">_inputiovec</text>
</a>
</g>
<!-- Node1&#45;&gt;Node41 -->
<g id="edge84" class="edge"><title>Node1&#45;&gt;Node41</title>
<path fill="none" stroke="midnightblue" d="M40.2148,-356.836C52.6588,-359.198 69.4284,-362.381 86.3718,-365.596"/>
<polygon fill="midnightblue" stroke="midnightblue" points="85.8592,-369.061 96.3365,-367.487 87.1644,-362.184 85.8592,-369.061"/>
</g>
<!-- Node42 -->
<g id="node85" class="node"><title>Node42</title>
<a xlink:href="cvm-hfa-search_8h.html#a12882fa53f8ec49b9b2950711161db42" target="_top" xlink:title="This routine sets the output buffer in the sparam.">
<polygon fill="white" stroke="black" points="96.5,-310 96.5,-344 217.5,-344 217.5,-310 96.5,-310"/>
<text text-anchor="start" x="104.5" y="-331" font-family="FreeSans" font-size="10.00">hfa_searchparam_set</text>
<text text-anchor="middle" x="157" y="-318" font-family="FreeSans" font-size="10.00">_output</text>
</a>
</g>
<!-- Node1&#45;&gt;Node42 -->
<g id="edge86" class="edge"><title>Node1&#45;&gt;Node42</title>
<path fill="none" stroke="midnightblue" d="M40.2148,-349.164C52.6588,-346.802 69.4284,-343.619 86.3718,-340.404"/>
<polygon fill="midnightblue" stroke="midnightblue" points="87.1644,-343.816 96.3365,-338.513 85.8592,-336.939 87.1644,-343.816"/>
</g>
<!-- Node43 -->
<g id="node87" class="node"><title>Node43</title>
<a xlink:href="cvm-hfa-search_8c.html#a57d7540278164eb6b6c132be00db0de5" target="_top" xlink:title="This routine performs a pattern search using the given parameters in a blocking manner.">
<polygon fill="white" stroke="red" points="95.5,-6.5 95.5,-27.5 218.5,-27.5 218.5,-6.5 95.5,-6.5"/>
<text text-anchor="middle" x="157" y="-14.5" font-family="FreeSans" font-size="10.00">hfa_searchctx_search</text>
</a>
</g>
<!-- Node1&#45;&gt;Node43 -->
<g id="edge88" class="edge"><title>Node1&#45;&gt;Node43</title>
<path fill="none" stroke="midnightblue" d="M20.3809,-342.235C22.3709,-292.188 33.1802,-82.7745 76,-37 79.0057,-33.7869 82.4384,-31.0548 86.1546,-28.7346"/>
<polygon fill="midnightblue" stroke="midnightblue" points="87.9864,-31.7281 95.2725,-24.0363 84.78,-25.5056 87.9864,-31.7281"/>
</g>
<!-- Node45 -->
<g id="node91" class="node"><title>Node45</title>
<a xlink:href="cvm-hfa-search_8h.html#ab50a2d84e35b5a4a03a23fc90e4dffa0" target="_top" xlink:title="This routine retrieves the reason code after a search operation has been completed by the HFA engine...">
<polygon fill="white" stroke="black" points="96,-218 96,-252 218,-252 218,-218 96,-218"/>
<text text-anchor="start" x="104" y="-239" font-family="FreeSans" font-size="10.00">hfa_searchparam_get</text>
<text text-anchor="middle" x="157" y="-226" font-family="FreeSans" font-size="10.00">_hwsearch_reason</text>
</a>
</g>
<!-- Node1&#45;&gt;Node45 -->
<g id="edge92" class="edge"><title>Node1&#45;&gt;Node45</title>
<path fill="none" stroke="midnightblue" d="M23.5717,-342.493C30.5815,-323.436 47.9468,-283.102 76,-261 79.3281,-258.378 82.9274,-256.017 86.6954,-253.892"/>
<polygon fill="midnightblue" stroke="midnightblue" points="88.3789,-256.963 95.7453,-249.348 85.238,-250.707 88.3789,-256.963"/>
</g>
<!-- Node46 -->
<g id="node93" class="node"><title>Node46</title>
<a xlink:href="cvm-hfa-common_8h.html#ad117ba199386b8d427cbb04f288b5905" target="_top" xlink:title="Dump HFA related registers.">
<polygon fill="white" stroke="black" points="111.5,-178.5 111.5,-199.5 202.5,-199.5 202.5,-178.5 111.5,-178.5"/>
<text text-anchor="middle" x="157" y="-186.5" font-family="FreeSans" font-size="10.00">hfa_dump_regs</text>
</a>
</g>
<!-- Node1&#45;&gt;Node46 -->
<g id="edge94" class="edge"><title>Node1&#45;&gt;Node46</title>
<path fill="none" stroke="midnightblue" d="M20.8641,-342.454C23.6324,-315.803 34.6948,-245.3 76,-209 83.2677,-202.613 92.2574,-198.197 101.576,-195.159"/>
<polygon fill="midnightblue" stroke="midnightblue" points="102.636,-198.498 111.347,-192.467 100.776,-191.749 102.636,-198.498"/>
</g>
<!-- Node47 -->
<g id="node95" class="node"><title>Node47</title>
<a xlink:href="cvm-hfa-search_8h.html#ad18e328b50b109e1e44821f3d006bd9d" target="_top" xlink:title="This routine returns the data&#45;buffer offset.">
<polygon fill="white" stroke="black" points="96,-126 96,-160 218,-160 218,-126 96,-126"/>
<text text-anchor="start" x="104" y="-147" font-family="FreeSans" font-size="10.00">hfa_searchparam_get</text>
<text text-anchor="middle" x="157" y="-134" font-family="FreeSans" font-size="10.00">_hwsearch_pdboff</text>
</a>
</g>
<!-- Node1&#45;&gt;Node47 -->
<g id="edge96" class="edge"><title>Node1&#45;&gt;Node47</title>
<path fill="none" stroke="midnightblue" d="M21.9108,-342.321C28.4328,-306.974 50.8111,-194.574 76,-169 79.2355,-165.715 82.8864,-162.845 86.8034,-160.337"/>
<polygon fill="midnightblue" stroke="midnightblue" points="88.6795,-163.299 95.7453,-155.404 85.2985,-157.17 88.6795,-163.299"/>
</g>
<!-- Node48 -->
<g id="node97" class="node"><title>Node48</title>
<a xlink:href="cvm-hfa-search_8c.html#a6dbb15dc58155b2c94b19784ad42ef89" target="_top" xlink:title="This routine post&#45;processes the search results from the HFA engine and reports the pattern matches fo...">
<polygon fill="white" stroke="red" points="83.5,-86.5 83.5,-107.5 230.5,-107.5 230.5,-86.5 83.5,-86.5"/>
<text text-anchor="middle" x="157" y="-94.5" font-family="FreeSans" font-size="10.00">hfa_searchctx_getmatches</text>
</a>
</g>
<!-- Node1&#45;&gt;Node48 -->
<g id="edge98" class="edge"><title>Node1&#45;&gt;Node48</title>
<path fill="none" stroke="midnightblue" d="M21.0765,-342.264C25.4725,-300.546 43.3954,-149.902 76,-117 77.4146,-115.572 78.9139,-114.241 80.4844,-112.999"/>
<polygon fill="midnightblue" stroke="midnightblue" points="82.4199,-115.915 88.8692,-107.51 78.5856,-110.059 82.4199,-115.915"/>
</g>
<!-- Node49 -->
<g id="node99" class="node"><title>Node49</title>
<a xlink:href="app-utils_8c.html#a633038357891aa5147b77fe939f300bf" target="_top" xlink:title="Print pattern matches via match buffer and cleanup all matches.">
<polygon fill="white" stroke="red" points="95,-46.5 95,-67.5 219,-67.5 219,-46.5 95,-46.5"/>
<text text-anchor="middle" x="157" y="-54.5" font-family="FreeSans" font-size="10.00">hfautils_print_matches</text>
</a>
</g>
<!-- Node1&#45;&gt;Node49 -->
<g id="edge100" class="edge"><title>Node1&#45;&gt;Node49</title>
<path fill="none" stroke="midnightblue" d="M20.6707,-342.385C23.779,-296.574 38.2674,-116.347 76,-77 78.851,-74.027 82.0681,-71.4677 85.5349,-69.2669"/>
<polygon fill="midnightblue" stroke="midnightblue" points="87.3759,-72.2533 94.5999,-64.5032 84.1196,-66.0568 87.3759,-72.2533"/>
</g>
<!-- Node50 -->
<g id="node101" class="node"><title>Node50</title>
<a xlink:href="hfa-se-linkgraph_8c.html#a5c6551bf9ea9cf51ae7f2076c4cbe8ef" target="_top" xlink:title="Cleanup will be done by this routine.">
<polygon fill="white" stroke="red" points="130,-454.5 130,-475.5 184,-475.5 184,-454.5 130,-454.5"/>
<text text-anchor="middle" x="157" y="-462.5" font-family="FreeSans" font-size="10.00">cleanup</text>
</a>
</g>
<!-- Node1&#45;&gt;Node50 -->
<g id="edge102" class="edge"><title>Node1&#45;&gt;Node50</title>
<path fill="none" stroke="midnightblue" d="M23.4285,-363.695C30.2054,-383.058 47.2061,-423.872 76,-445 88.4984,-454.171 104.703,-459.169 119.331,-461.881"/>
<polygon fill="midnightblue" stroke="midnightblue" points="119.21,-465.404 129.628,-463.479 120.283,-458.487 119.21,-465.404"/>
</g>
<!-- Node3 -->
<g id="node5" class="node"><title>Node3</title>
<a xlink:href="app-utils_8c.html#a0f2df8f03baa5b4006040e8a18069557" target="_top" xlink:title="Signal handler to ignore CTRL&#45;C.">
<polygon fill="white" stroke="black" points="305.5,-1546.5 305.5,-1567.5 408.5,-1567.5 408.5,-1546.5 305.5,-1546.5"/>
<text text-anchor="middle" x="357" y="-1554.5" font-family="FreeSans" font-size="10.00">hfa_sigint_handler</text>
</a>
</g>
<!-- Node2&#45;&gt;Node3 -->
<g id="edge4" class="edge"><title>Node2&#45;&gt;Node3</title>
<path fill="none" stroke="midnightblue" d="M202.884,-1521.55C232.23,-1528.3 270.474,-1537.1 301.522,-1544.24"/>
<polygon fill="midnightblue" stroke="midnightblue" points="300.799,-1547.67 311.329,-1546.5 302.368,-1540.84 300.799,-1547.67"/>
</g>
<!-- Node5 -->
<g id="node9" class="node"><title>Node5</title>
<a xlink:href="app-utils_8c.html#a312f3a19b49c759fe09b5bee727b879b" target="_top" xlink:title="Initialize command line arguments.">
<polygon fill="white" stroke="black" points="302.5,-1454.5 302.5,-1475.5 411.5,-1475.5 411.5,-1454.5 302.5,-1454.5"/>
<text text-anchor="middle" x="357" y="-1462.5" font-family="FreeSans" font-size="10.00">hfautils_options_init</text>
</a>
</g>
<!-- Node4&#45;&gt;Node5 -->
<g id="edge8" class="edge"><title>Node4&#45;&gt;Node5</title>
<path fill="none" stroke="midnightblue" d="M204.144,-1434.43C231.003,-1439.8 265.002,-1446.6 294.112,-1452.42"/>
<polygon fill="midnightblue" stroke="midnightblue" points="293.692,-1455.91 304.185,-1454.44 295.065,-1449.04 293.692,-1455.91"/>
</g>
<!-- Node6 -->
<g id="node11" class="node"><title>Node6</title>
<a xlink:href="app-utils_8c.html#ae04c31b3e2ff1468333729059052375c" target="_top" xlink:title="Parse command line arguments.">
<polygon fill="white" stroke="red" points="287,-1414.5 287,-1435.5 427,-1435.5 427,-1414.5 287,-1414.5"/>
<text text-anchor="middle" x="357" y="-1422.5" font-family="FreeSans" font-size="10.00">hfautils_parse_arguments</text>
</a>
</g>
<!-- Node4&#45;&gt;Node6 -->
<g id="edge10" class="edge"><title>Node4&#45;&gt;Node6</title>
<path fill="none" stroke="midnightblue" d="M204.144,-1425C225.764,-1425 252.009,-1425 276.607,-1425"/>
<polygon fill="midnightblue" stroke="midnightblue" points="276.664,-1428.5 286.664,-1425 276.664,-1421.5 276.664,-1428.5"/>
</g>
<!-- Node7 -->
<g id="node13" class="node"><title>Node7</title>
<a xlink:href="app-utils_8c.html#a12339c67618c4b3a54c32f43d378c273" target="_top" xlink:title="Read data from a file to a buffer(compressed or uncompressed).">
<polygon fill="white" stroke="red" points="308.5,-1374.5 308.5,-1395.5 405.5,-1395.5 405.5,-1374.5 308.5,-1374.5"/>
<text text-anchor="middle" x="357" y="-1382.5" font-family="FreeSans" font-size="10.00">hfautils_read_file</text>
</a>
</g>
<!-- Node4&#45;&gt;Node7 -->
<g id="edge12" class="edge"><title>Node4&#45;&gt;Node7</title>
<path fill="none" stroke="midnightblue" d="M204.144,-1415.57C232.366,-1409.93 268.47,-1402.71 298.502,-1396.7"/>
<polygon fill="midnightblue" stroke="midnightblue" points="299.315,-1400.11 308.434,-1394.71 297.942,-1393.24 299.315,-1400.11"/>
</g>
<!-- Node9 -->
<g id="node17" class="node"><title>Node9</title>
<a xlink:href="app-utils_8c.html#a1944a739d03e86dcaee1a7d245cfeba0" target="_top" xlink:title="Initialize the attributes needed for parsing the payload file.">
<polygon fill="white" stroke="black" points="300.5,-1494 300.5,-1528 413.5,-1528 413.5,-1494 300.5,-1494"/>
<text text-anchor="start" x="308.5" y="-1515" font-family="FreeSans" font-size="10.00">hfautils_init_payload</text>
<text text-anchor="middle" x="357" y="-1502" font-family="FreeSans" font-size="10.00">_attributes</text>
</a>
</g>
<!-- Node4&#45;&gt;Node9 -->
<g id="edge16" class="edge"><title>Node4&#45;&gt;Node9</title>
<path fill="none" stroke="midnightblue" d="M175.183,-1435.56C197.809,-1448.4 237.877,-1470.21 274,-1485 279.371,-1487.2 285.001,-1489.33 290.689,-1491.35"/>
<polygon fill="midnightblue" stroke="midnightblue" points="289.69,-1494.71 300.285,-1494.65 291.97,-1488.09 289.69,-1494.71"/>
</g>
<!-- Node8 -->
<g id="node15" class="node"><title>Node8</title>
<a xlink:href="app-utils_8c.html#a7fbf4d982c3e4493bda83be020e7274c" target="_top" xlink:title="Read file data from a gzip&#45;stream(compressed or uncompressed).">
<polygon fill="white" stroke="black" points="476.5,-1374.5 476.5,-1395.5 529.5,-1395.5 529.5,-1374.5 476.5,-1374.5"/>
<text text-anchor="middle" x="503" y="-1382.5" font-family="FreeSans" font-size="10.00">fd_read</text>
</a>
</g>
<!-- Node7&#45;&gt;Node8 -->
<g id="edge14" class="edge"><title>Node7&#45;&gt;Node8</title>
<path fill="none" stroke="midnightblue" d="M405.616,-1385C425.401,-1385 447.887,-1385 466.263,-1385"/>
<polygon fill="midnightblue" stroke="midnightblue" points="466.28,-1388.5 476.28,-1385 466.28,-1381.5 466.28,-1388.5"/>
</g>
<!-- Node9&#45;&gt;Node8 -->
<g id="edge18" class="edge"><title>Node9&#45;&gt;Node8</title>
<path fill="none" stroke="midnightblue" d="M413.677,-1499.18C423.044,-1495.61 432.223,-1490.99 440,-1485 467.212,-1464.05 485.771,-1427.75 495.36,-1405.13"/>
<polygon fill="midnightblue" stroke="midnightblue" points="498.628,-1406.38 499.133,-1395.8 492.138,-1403.76 498.628,-1406.38"/>
</g>
<!-- Node11 -->
<g id="node22" class="node"><title>Node11</title>
<a xlink:href="cvm-hfa-stats_8c.html#a2fcf955b47370bfa46705ee5a23a70cf" target="_top" xlink:title="This routine allocates memory for counters to maintain statistics of each processing core...">
<polygon fill="white" stroke="red" points="306,-734.5 306,-755.5 408,-755.5 408,-734.5 306,-734.5"/>
<text text-anchor="middle" x="357" y="-742.5" font-family="FreeSans" font-size="10.00">hfa_dev_stats_init</text>
</a>
</g>
<!-- Node10&#45;&gt;Node11 -->
<g id="edge22" class="edge"><title>Node10&#45;&gt;Node11</title>
<path fill="none" stroke="midnightblue" d="M159.385,-974.262C167.926,-938.422 200.48,-821.969 274,-765 280.497,-759.966 288.074,-756.174 295.958,-753.322"/>
<polygon fill="midnightblue" stroke="midnightblue" points="297.171,-756.61 305.675,-750.291 295.086,-749.928 297.171,-756.61"/>
</g>
<!-- Node12 -->
<g id="node24" class="node"><title>Node12</title>
<a xlink:href="cvm-hfa_8c.html#a27982497398da2118cd5287ed51732e7" target="_top" xlink:title="Provides device&#45;specific information This is a utility routine used to obtain HFA device&#45;specific det...">
<polygon fill="white" stroke="black" points="301.5,-694.5 301.5,-715.5 412.5,-715.5 412.5,-694.5 301.5,-694.5"/>
<text text-anchor="middle" x="357" y="-702.5" font-family="FreeSans" font-size="10.00">hfa_dev_getdevinfo</text>
</a>
</g>
<!-- Node10&#45;&gt;Node12 -->
<g id="edge24" class="edge"><title>Node10&#45;&gt;Node12</title>
<path fill="none" stroke="midnightblue" d="M158.436,-974.341C164.374,-934.63 190.738,-794.028 274,-725 279.29,-720.614 285.386,-717.161 291.822,-714.447"/>
<polygon fill="midnightblue" stroke="midnightblue" points="293.224,-717.662 301.442,-710.976 290.848,-711.078 293.224,-717.662"/>
</g>
<!-- Node13 -->
<g id="node26" class="node"><title>Node13</title>
<a xlink:href="pp_8h.html#a6f5982b2671e9682262a26b0d2996396" target="_top" xlink:title="Constructs a readable version string for the PP library.">
<polygon fill="white" stroke="black" points="297,-654.5 297,-675.5 417,-675.5 417,-654.5 297,-654.5"/>
<text text-anchor="middle" x="357" y="-662.5" font-family="FreeSans" font-size="10.00">pp_get_version_string</text>
</a>
</g>
<!-- Node10&#45;&gt;Node13 -->
<g id="edge26" class="edge"><title>Node10&#45;&gt;Node13</title>
<path fill="none" stroke="midnightblue" d="M157.744,-974.267C161.356,-930.794 180.929,-766.252 274,-685 278.014,-681.495 282.538,-678.581 287.35,-676.159"/>
<polygon fill="midnightblue" stroke="midnightblue" points="289.073,-679.229 296.897,-672.085 286.326,-672.791 289.073,-679.229"/>
</g>
<!-- Node14 -->
<g id="node28" class="node"><title>Node14</title>
<a xlink:href="cvm-hfa_8c.html#afd1d53fe8a402d4c5799e6e98c67baaa" target="_top" xlink:title="Displays HFA Device info.">
<polygon fill="white" stroke="red" points="298.5,-1334.5 298.5,-1355.5 415.5,-1355.5 415.5,-1334.5 298.5,-1334.5"/>
<text text-anchor="middle" x="357" y="-1342.5" font-family="FreeSans" font-size="10.00">hfa_dev_display_info</text>
</a>
</g>
<!-- Node10&#45;&gt;Node14 -->
<g id="edge28" class="edge"><title>Node10&#45;&gt;Node14</title>
<path fill="none" stroke="midnightblue" d="M159.219,-995.609C170.356,-1047.88 221.694,-1277.44 274,-1325 278.426,-1329.02 283.519,-1332.28 288.96,-1334.9"/>
<polygon fill="midnightblue" stroke="midnightblue" points="287.805,-1338.21 298.386,-1338.75 290.451,-1331.73 287.805,-1338.21"/>
</g>
<!-- Node15 -->
<g id="node30" class="node"><title>Node15</title>
<a xlink:href="cvm-hfa_8c.html#a236e64ca73680ea6761204d5c44d4e96" target="_top" xlink:title="API to set PP resource allocator for partial matches.">
<polygon fill="white" stroke="black" points="289.5,-1294.5 289.5,-1315.5 424.5,-1315.5 424.5,-1294.5 289.5,-1294.5"/>
<text text-anchor="middle" x="357" y="-1302.5" font-family="FreeSans" font-size="10.00">hfa_dev_set_fnp_ppalloc</text>
</a>
</g>
<!-- Node10&#45;&gt;Node15 -->
<g id="edge30" class="edge"><title>Node10&#45;&gt;Node15</title>
<path fill="none" stroke="midnightblue" d="M157.744,-995.733C161.356,-1039.21 180.929,-1203.75 274,-1285 276.003,-1286.75 278.133,-1288.35 280.361,-1289.82"/>
<polygon fill="midnightblue" stroke="midnightblue" points="278.95,-1293.04 289.392,-1294.83 282.349,-1286.92 278.95,-1293.04"/>
</g>
<!-- Node16 -->
<g id="node32" class="node"><title>Node16</title>
<a xlink:href="cvm-hfa_8c.html#ab547f175726534d6a0a334eb35af4980" target="_top" xlink:title="Default function pointer for PP allocations.">
<polygon fill="white" stroke="black" points="297,-1254.5 297,-1275.5 417,-1275.5 417,-1254.5 297,-1254.5"/>
<text text-anchor="middle" x="357" y="-1262.5" font-family="FreeSans" font-size="10.00">hfa_defaultfn_ppalloc</text>
</a>
</g>
<!-- Node10&#45;&gt;Node16 -->
<g id="edge32" class="edge"><title>Node10&#45;&gt;Node16</title>
<path fill="none" stroke="midnightblue" d="M158.436,-995.659C164.374,-1035.37 190.738,-1175.97 274,-1245 278.033,-1248.34 282.534,-1251.15 287.298,-1253.49"/>
<polygon fill="midnightblue" stroke="midnightblue" points="286.153,-1256.81 296.728,-1257.46 288.87,-1250.35 286.153,-1256.81"/>
</g>
<!-- Node17 -->
<g id="node34" class="node"><title>Node17</title>
<a xlink:href="cvm-hfa_8c.html#a148abbfdeebb207ff46884af8eeb8fa4" target="_top" xlink:title="API to set PP resource deallocator for partial matches.">
<polygon fill="white" stroke="black" points="291,-1214.5 291,-1235.5 423,-1235.5 423,-1214.5 291,-1214.5"/>
<text text-anchor="middle" x="357" y="-1222.5" font-family="FreeSans" font-size="10.00">hfa_dev_set_fnp_ppfree</text>
</a>
</g>
<!-- Node10&#45;&gt;Node17 -->
<g id="edge34" class="edge"><title>Node10&#45;&gt;Node17</title>
<path fill="none" stroke="midnightblue" d="M159.385,-995.738C167.926,-1031.58 200.48,-1148.03 274,-1205 276.44,-1206.89 279.033,-1208.61 281.737,-1210.16"/>
<polygon fill="midnightblue" stroke="midnightblue" points="280.188,-1213.3 290.702,-1214.61 283.299,-1207.03 280.188,-1213.3"/>
</g>
<!-- Node18 -->
<g id="node36" class="node"><title>Node18</title>
<a xlink:href="cvm-hfa_8c.html#a832239ee7b188265bdacbbfb7e879af1" target="_top" xlink:title="Default function pointer for PP deallocations.">
<polygon fill="white" stroke="black" points="298.5,-1174.5 298.5,-1195.5 415.5,-1195.5 415.5,-1174.5 298.5,-1174.5"/>
<text text-anchor="middle" x="357" y="-1182.5" font-family="FreeSans" font-size="10.00">hfa_defaultfn_ppfree</text>
</a>
</g>
<!-- Node10&#45;&gt;Node18 -->
<g id="edge36" class="edge"><title>Node10&#45;&gt;Node18</title>
<path fill="none" stroke="midnightblue" d="M160.622,-995.522C171.943,-1026.76 209.787,-1119.6 274,-1165 278.538,-1168.21 283.528,-1170.91 288.74,-1173.17"/>
<polygon fill="midnightblue" stroke="midnightblue" points="287.719,-1176.53 298.311,-1176.81 290.205,-1169.99 287.719,-1176.53"/>
</g>
<!-- Node19 -->
<g id="node38" class="node"><title>Node19</title>
<a xlink:href="cvm-hfa_8c.html#a774451b83b300f862763d189c9758e1f" target="_top" xlink:title="API to set PP buffer size function pointer.">
<polygon fill="white" stroke="black" points="291,-1134.5 291,-1155.5 423,-1155.5 423,-1134.5 291,-1134.5"/>
<text text-anchor="middle" x="357" y="-1142.5" font-family="FreeSans" font-size="10.00">hfa_dev_set_fnp_ppsize</text>
</a>
</g>
<!-- Node10&#45;&gt;Node19 -->
<g id="edge38" class="edge"><title>Node10&#45;&gt;Node19</title>
<path fill="none" stroke="midnightblue" d="M162.726,-995.764C177.401,-1022.25 219.099,-1090.92 274,-1125 277.375,-1127.09 280.952,-1128.97 284.653,-1130.65"/>
<polygon fill="midnightblue" stroke="midnightblue" points="283.478,-1133.95 294.062,-1134.43 286.089,-1127.45 283.478,-1133.95"/>
</g>
<!-- Node20 -->
<g id="node40" class="node"><title>Node20</title>
<a xlink:href="cvm-hfa_8c.html#a11aab8e30488e4cfc900f60a0dabc784" target="_top" xlink:title="Default function pointer for PP size.">
<polygon fill="white" stroke="black" points="298.5,-1094.5 298.5,-1115.5 415.5,-1115.5 415.5,-1094.5 298.5,-1094.5"/>
<text text-anchor="middle" x="357" y="-1102.5" font-family="FreeSans" font-size="10.00">hfa_defaultfn_ppsize</text>
</a>
</g>
<!-- Node10&#45;&gt;Node20 -->
<g id="edge40" class="edge"><title>Node10&#45;&gt;Node20</title>
<path fill="none" stroke="midnightblue" d="M166.139,-995.609C184.444,-1016.16 227.826,-1061.44 274,-1085 278.586,-1087.34 283.455,-1089.41 288.447,-1091.25"/>
<polygon fill="midnightblue" stroke="midnightblue" points="287.56,-1094.64 298.154,-1094.49 289.78,-1088 287.56,-1094.64"/>
</g>
<!-- Node21 -->
<g id="node42" class="node"><title>Node21</title>
<a xlink:href="cvm-hfa_8c.html#a9a0b038e0d29435cb91a21d9c62806cc" target="_top" xlink:title="API to set PP resource allocator for temporary memory.">
<polygon fill="white" stroke="black" points="288,-1054.5 288,-1075.5 426,-1075.5 426,-1054.5 288,-1054.5"/>
<text text-anchor="middle" x="357" y="-1062.5" font-family="FreeSans" font-size="10.00">hfa_dev_set_fnp_pptalloc</text>
</a>
</g>
<!-- Node10&#45;&gt;Node21 -->
<g id="edge42" class="edge"><title>Node10&#45;&gt;Node21</title>
<path fill="none" stroke="midnightblue" d="M174.245,-995.501C196.558,-1008.69 236.973,-1031.27 274,-1045 280.784,-1047.52 287.998,-1049.8 295.232,-1051.85"/>
<polygon fill="midnightblue" stroke="midnightblue" points="294.504,-1055.28 305.07,-1054.5 296.323,-1048.52 294.504,-1055.28"/>
</g>
<!-- Node22 -->
<g id="node44" class="node"><title>Node22</title>
<a xlink:href="cvm-hfa_8c.html#a2cbca63c413f08d3861f9b4c2855391f" target="_top" xlink:title="API to set PP resource deallocator for temporary memory.">
<polygon fill="white" stroke="black" points="289.5,-1014.5 289.5,-1035.5 424.5,-1035.5 424.5,-1014.5 289.5,-1014.5"/>
<text text-anchor="middle" x="357" y="-1022.5" font-family="FreeSans" font-size="10.00">hfa_dev_set_fnp_pptfree</text>
</a>
</g>
<!-- Node10&#45;&gt;Node22 -->
<g id="edge44" class="edge"><title>Node10&#45;&gt;Node22</title>
<path fill="none" stroke="midnightblue" d="M194.15,-992.43C222.201,-998.04 261.347,-1005.87 294.229,-1012.45"/>
<polygon fill="midnightblue" stroke="midnightblue" points="293.721,-1015.91 304.213,-1014.44 295.094,-1009.05 293.721,-1015.91"/>
</g>
<!-- Node23 -->
<g id="node46" class="node"><title>Node23</title>
<a xlink:href="cvm-hfa_8c.html#af0b17e8a09b1f7a1dd438ddcb1e4cd14" target="_top" xlink:title="API to set temporary memory size function pointer.">
<polygon fill="white" stroke="black" points="289.5,-974.5 289.5,-995.5 424.5,-995.5 424.5,-974.5 289.5,-974.5"/>
<text text-anchor="middle" x="357" y="-982.5" font-family="FreeSans" font-size="10.00">hfa_dev_set_fnp_pptsize</text>
</a>
</g>
<!-- Node10&#45;&gt;Node23 -->
<g id="edge46" class="edge"><title>Node10&#45;&gt;Node23</title>
<path fill="none" stroke="midnightblue" d="M194.15,-985C217.998,-985 249.866,-985 279.086,-985"/>
<polygon fill="midnightblue" stroke="midnightblue" points="279.294,-988.5 289.293,-985 279.293,-981.5 279.294,-988.5"/>
</g>
<!-- Node24 -->
<g id="node48" class="node"><title>Node24</title>
<a xlink:href="cvm-hfa_8c.html#aa2754afcdd94eb3dcd90c374f779dd24" target="_top" xlink:title="API to set PP resource allocator for match/result buffer.">
<polygon fill="white" stroke="black" points="274,-934.5 274,-955.5 440,-955.5 440,-934.5 274,-934.5"/>
<text text-anchor="middle" x="357" y="-942.5" font-family="FreeSans" font-size="10.00">hfa_dev_set_fnp_ppmatchalloc</text>
</a>
</g>
<!-- Node10&#45;&gt;Node24 -->
<g id="edge48" class="edge"><title>Node10&#45;&gt;Node24</title>
<path fill="none" stroke="midnightblue" d="M194.15,-977.57C222.201,-971.96 261.347,-964.131 294.229,-957.554"/>
<polygon fill="midnightblue" stroke="midnightblue" points="295.094,-960.951 304.213,-955.557 293.721,-954.087 295.094,-960.951"/>
</g>
<!-- Node25 -->
<g id="node50" class="node"><title>Node25</title>
<a xlink:href="cvm-hfa_8c.html#ad022f5aec72780af8b36533884693539" target="_top" xlink:title="API to set PP resource deallocator for result/match buf.">
<polygon fill="white" stroke="black" points="275.5,-894.5 275.5,-915.5 438.5,-915.5 438.5,-894.5 275.5,-894.5"/>
<text text-anchor="middle" x="357" y="-902.5" font-family="FreeSans" font-size="10.00">hfa_dev_set_fnp_ppmatchfree</text>
</a>
</g>
<!-- Node10&#45;&gt;Node25 -->
<g id="edge50" class="edge"><title>Node10&#45;&gt;Node25</title>
<path fill="none" stroke="midnightblue" d="M174.245,-974.499C196.558,-961.306 236.973,-938.733 274,-925 280.784,-922.484 287.998,-920.201 295.232,-918.152"/>
<polygon fill="midnightblue" stroke="midnightblue" points="296.323,-921.483 305.07,-915.505 294.504,-914.723 296.323,-921.483"/>
</g>
<!-- Node26 -->
<g id="node52" class="node"><title>Node26</title>
<a xlink:href="cvm-hfa_8c.html#a8b71887165c143e32600513d12f9274f" target="_top" xlink:title="API to set match buffer size function pointer.">
<polygon fill="white" stroke="black" points="275.5,-854.5 275.5,-875.5 438.5,-875.5 438.5,-854.5 275.5,-854.5"/>
<text text-anchor="middle" x="357" y="-862.5" font-family="FreeSans" font-size="10.00">hfa_dev_set_fnp_ppmatchsize</text>
</a>
</g>
<!-- Node10&#45;&gt;Node26 -->
<g id="edge52" class="edge"><title>Node10&#45;&gt;Node26</title>
<path fill="none" stroke="midnightblue" d="M166.139,-974.391C184.444,-953.841 227.826,-908.562 274,-885 278.586,-882.66 283.455,-880.587 288.447,-878.751"/>
<polygon fill="midnightblue" stroke="midnightblue" points="289.78,-881.996 298.154,-875.506 287.56,-875.357 289.78,-881.996"/>
</g>
<!-- Node27 -->
<g id="node54" class="node"><title>Node27</title>
<a xlink:href="cvm-hfa_8c.html#abcc0595aa8b2bb2d6116d600abbf55f8" target="_top" xlink:title="API to set PP error callback.">
<polygon fill="white" stroke="black" points="289,-814.5 289,-835.5 425,-835.5 425,-814.5 289,-814.5"/>
<text text-anchor="middle" x="357" y="-822.5" font-family="FreeSans" font-size="10.00">hfa_dev_set_fnp_pperror</text>
</a>
</g>
<!-- Node10&#45;&gt;Node27 -->
<g id="edge54" class="edge"><title>Node10&#45;&gt;Node27</title>
<path fill="none" stroke="midnightblue" d="M162.726,-974.236C177.401,-947.747 219.099,-879.081 274,-845 277.375,-842.905 280.952,-841.03 284.653,-839.351"/>
<polygon fill="midnightblue" stroke="midnightblue" points="286.089,-842.546 294.062,-835.569 283.478,-836.051 286.089,-842.546"/>
</g>
<!-- Node28 -->
<g id="node56" class="node"><title>Node28</title>
<a xlink:href="cvm-hfa_8c.html#ac115556b315ff135ed2fd059cdf7d066" target="_top" xlink:title="Default function pointer for PP errors.">
<polygon fill="white" stroke="black" points="301.5,-774.5 301.5,-795.5 412.5,-795.5 412.5,-774.5 301.5,-774.5"/>
<text text-anchor="middle" x="357" y="-782.5" font-family="FreeSans" font-size="10.00">hfa_defaultfn_pperr</text>
</a>
</g>
<!-- Node10&#45;&gt;Node28 -->
<g id="edge56" class="edge"><title>Node10&#45;&gt;Node28</title>
<path fill="none" stroke="midnightblue" d="M160.622,-974.478C171.943,-943.242 209.787,-850.402 274,-805 279.321,-801.238 285.263,-798.178 291.455,-795.69"/>
<polygon fill="midnightblue" stroke="midnightblue" points="293.056,-798.838 301.339,-792.232 290.744,-792.231 293.056,-798.838"/>
</g>
<!-- Node30 -->
<g id="node60" class="node"><title>Node30</title>
<a xlink:href="cvm-hfa-graph_8c.html#a80a6427d5a90c7bd1e4cbfd62a808524" target="_top" xlink:title="This routine initializes a graph object which can be used to perform various operations on a graph fi...">
<polygon fill="white" stroke="black" points="303.5,-574.5 303.5,-595.5 410.5,-595.5 410.5,-574.5 303.5,-574.5"/>
<text text-anchor="middle" x="357" y="-582.5" font-family="FreeSans" font-size="10.00">hfa_dev_graph_init</text>
</a>
</g>
<!-- Node29&#45;&gt;Node30 -->
<g id="edge60" class="edge"><title>Node29&#45;&gt;Node30</title>
<path fill="none" stroke="midnightblue" d="M191.837,-561.877C219.729,-565.782 259.6,-571.364 293.18,-576.065"/>
<polygon fill="midnightblue" stroke="midnightblue" points="292.99,-579.573 303.379,-577.493 293.961,-572.64 292.99,-579.573"/>
</g>
<!-- Node31 -->
<g id="node62" class="node"><title>Node31</title>
<a xlink:href="cvm-hfa-graph_8c.html#a32df4a93ffcd7da232613b13204b2a80" target="_top" xlink:title="This routine sets the cluster&#45;mask for the graph.">
<polygon fill="white" stroke="black" points="298.5,-534.5 298.5,-555.5 415.5,-555.5 415.5,-534.5 298.5,-534.5"/>
<text text-anchor="middle" x="357" y="-542.5" font-family="FreeSans" font-size="10.00">hfa_graph_setcluster</text>
</a>
</g>
<!-- Node29&#45;&gt;Node31 -->
<g id="edge62" class="edge"><title>Node29&#45;&gt;Node31</title>
<path fill="none" stroke="midnightblue" d="M191.837,-554.91C218.296,-553.322 255.535,-551.088 287.957,-549.143"/>
<polygon fill="midnightblue" stroke="midnightblue" points="288.522,-552.615 298.294,-548.522 288.103,-545.628 288.522,-552.615"/>
</g>
<!-- Node32 -->
<g id="node64" class="node"><title>Node32</title>
<a xlink:href="app-utils_8c.html#aed95bb72627cff313c596ebcfcd8af61" target="_top" xlink:title="Parse graph into chunks and load graph to HFA memory.">
<polygon fill="white" stroke="red" points="289.5,-494.5 289.5,-515.5 424.5,-515.5 424.5,-494.5 289.5,-494.5"/>
<text text-anchor="middle" x="357" y="-502.5" font-family="FreeSans" font-size="10.00">hfautils_download_graph</text>
</a>
</g>
<!-- Node29&#45;&gt;Node32 -->
<g id="edge64" class="edge"><title>Node29&#45;&gt;Node32</title>
<path fill="none" stroke="midnightblue" d="M191.848,-549.039C206.21,-545.591 222.974,-541.352 238,-537 254.2,-532.308 257.787,-529.646 274,-525 282.489,-522.567 291.522,-520.183 300.387,-517.958"/>
<polygon fill="midnightblue" stroke="midnightblue" points="301.413,-521.31 310.285,-515.518 299.738,-514.513 301.413,-521.31"/>
</g>
<!-- Node33 -->
<g id="node66" class="node"><title>Node33</title>
<a xlink:href="cvm-hfa-graph_8c.html#a60861d15ed5f6bccc42bbde834aa2b32" target="_top" xlink:title="This routine is used to cacheload a cacheable graph in a blocking manner.">
<polygon fill="white" stroke="red" points="297,-614.5 297,-635.5 417,-635.5 417,-614.5 297,-614.5"/>
<text text-anchor="middle" x="357" y="-622.5" font-family="FreeSans" font-size="10.00">hfa_graph_cacheload</text>
</a>
</g>
<!-- Node29&#45;&gt;Node33 -->
<g id="edge66" class="edge"><title>Node29&#45;&gt;Node33</title>
<path fill="none" stroke="midnightblue" d="M179.919,-567.626C203.229,-578.14 240.577,-594.187 274,-605 281.72,-607.498 289.934,-609.841 298.077,-611.983"/>
<polygon fill="midnightblue" stroke="midnightblue" points="297.382,-615.418 307.937,-614.492 299.109,-608.634 297.382,-615.418"/>
</g>
<!-- Node34 -->
<g id="node68" class="node"><title>Node34</title>
<a xlink:href="cvm-hfa-graph_8c.html#a5e79919f5903d97aee5e82bfc7e71597" target="_top" xlink:title="This routine is the counterpart of hfa_dev_graph_init().">
<polygon fill="white" stroke="black" points="291,-454.5 291,-475.5 423,-475.5 423,-454.5 291,-454.5"/>
<text text-anchor="middle" x="357" y="-462.5" font-family="FreeSans" font-size="10.00">hfa_dev_graph_cleanup</text>
</a>
</g>
<!-- Node29&#45;&gt;Node34 -->
<g id="edge68" class="edge"><title>Node29&#45;&gt;Node34</title>
<path fill="none" stroke="midnightblue" d="M191.57,-554.018C206.856,-551.365 224.406,-546.374 238,-537 261.141,-521.044 250.814,-500.891 274,-485 276.9,-483.012 279.975,-481.222 283.168,-479.608"/>
<polygon fill="midnightblue" stroke="midnightblue" points="284.699,-482.758 292.43,-475.513 281.869,-476.355 284.699,-482.758"/>
</g>
<!-- Node37 -->
<g id="node74" class="node"><title>Node37</title>
<a xlink:href="cvm-hfa-search_8c.html#a64ba7a41c7d677da10e588a58789015b" target="_top" xlink:title="This routine initializes a Search Context.">
<polygon fill="white" stroke="red" points="293.5,-414.5 293.5,-435.5 420.5,-435.5 420.5,-414.5 293.5,-414.5"/>
<text text-anchor="middle" x="357" y="-422.5" font-family="FreeSans" font-size="10.00">hfa_dev_searchctx_init</text>
</a>
</g>
<!-- Node36&#45;&gt;Node37 -->
<g id="edge74" class="edge"><title>Node36&#45;&gt;Node37</title>
<path fill="none" stroke="midnightblue" d="M195.089,-425C220.036,-425 253.459,-425 283.458,-425"/>
<polygon fill="midnightblue" stroke="midnightblue" points="283.484,-428.5 293.484,-425 283.484,-421.5 283.484,-428.5"/>
</g>
<!-- Node38 -->
<g id="node76" class="node"><title>Node38</title>
<a xlink:href="cvm-hfa-search_8c.html#a954753c0e6f4a59599d05f1262a25b38" target="_top" xlink:title="This routine associates a graph with sctx.">
<polygon fill="white" stroke="red" points="291,-374.5 291,-395.5 423,-395.5 423,-374.5 291,-374.5"/>
<text text-anchor="middle" x="357" y="-382.5" font-family="FreeSans" font-size="10.00">hfa_searchctx_setgraph</text>
</a>
</g>
<!-- Node36&#45;&gt;Node38 -->
<g id="edge76" class="edge"><title>Node36&#45;&gt;Node38</title>
<path fill="none" stroke="midnightblue" d="M195.089,-417.382C223.129,-411.774 261.876,-404.025 294.435,-397.513"/>
<polygon fill="midnightblue" stroke="midnightblue" points="295.203,-400.929 304.323,-395.535 293.83,-394.065 295.203,-400.929"/>
</g>
<!-- Node39 -->
<g id="node78" class="node"><title>Node39</title>
<a xlink:href="cvm-hfa-search_8c.html#a60c8025118f6a47f924733e47db8c77d" target="_top" xlink:title="This routine is used to specify settings used during the search and getmatches API.">
<polygon fill="white" stroke="red" points="293,-334.5 293,-355.5 421,-355.5 421,-334.5 293,-334.5"/>
<text text-anchor="middle" x="357" y="-342.5" font-family="FreeSans" font-size="10.00">hfa_searchctx_setflags</text>
</a>
</g>
<!-- Node36&#45;&gt;Node39 -->
<g id="edge78" class="edge"><title>Node36&#45;&gt;Node39</title>
<path fill="none" stroke="midnightblue" d="M195.092,-420.412C209.289,-417.498 225.079,-412.745 238,-405 258.514,-392.703 253.452,-377.24 274,-365 277.582,-362.867 281.378,-360.961 285.299,-359.258"/>
<polygon fill="midnightblue" stroke="midnightblue" points="286.571,-362.519 294.63,-355.642 284.041,-355.992 286.571,-362.519"/>
</g>
<!-- Node40&#45;&gt;Node8 -->
<g id="edge82" class="edge"><title>Node40&#45;&gt;Node8</title>
<path fill="none" stroke="midnightblue" d="M220.021,-270.493C285.345,-263.591 385.389,-264.946 440,-325 476.303,-364.922 498.903,-1218.65 502.495,-1364.04"/>
<polygon fill="midnightblue" stroke="midnightblue" points="499.002,-1364.35 502.745,-1374.26 506,-1364.18 499.002,-1364.35"/>
</g>
<!-- Node44 -->
<g id="node89" class="node"><title>Node44</title>
<a xlink:href="cvm-hfa-search_8c.html#a0c36da280b39bd8afdf6081baea24472" target="_top" xlink:title="This routine performs a pattern search using the given parameters in a non&#45;blocking manner...">
<polygon fill="white" stroke="black" points="295.5,-0 295.5,-34 418.5,-34 418.5,-0 295.5,-0"/>
<text text-anchor="start" x="303.5" y="-21" font-family="FreeSans" font-size="10.00">hfa_searchctx_search</text>
<text text-anchor="middle" x="357" y="-8" font-family="FreeSans" font-size="10.00">_async</text>
</a>
</g>
<!-- Node43&#45;&gt;Node44 -->
<g id="edge90" class="edge"><title>Node43&#45;&gt;Node44</title>
<path fill="none" stroke="midnightblue" d="M218.639,-17C239.644,-17 263.311,-17 285.054,-17"/>
<polygon fill="midnightblue" stroke="midnightblue" points="285.221,-20.5001 295.221,-17 285.221,-13.5001 285.221,-20.5001"/>
</g>
<!-- Node50&#45;&gt;Node34 -->
<g id="edge104" class="edge"><title>Node50&#45;&gt;Node34</title>
<path fill="none" stroke="midnightblue" d="M184.39,-465C209.113,-465 246.682,-465 280.465,-465"/>
<polygon fill="midnightblue" stroke="midnightblue" points="280.81,-468.5 290.81,-465 280.81,-461.5 280.81,-468.5"/>
</g>
</g>
</svg>
