<?xml version="1.0" encoding="UTF-8" standalone="no"?>
<!DOCTYPE svg PUBLIC "-//W3C//DTD SVG 1.1//EN"
 "http://www.w3.org/Graphics/SVG/1.1/DTD/svg11.dtd">
<!-- Generated by graphviz version 2.24.0 (20090616.2323)
 -->
<!-- Title: process_options Pages: 1 -->
<svg width="380pt" height="110pt"
 viewBox="0.00 0.00 380.00 110.00" xmlns="http://www.w3.org/2000/svg" xmlns:xlink="http://www.w3.org/1999/xlink">
<g id="graph1" class="graph" transform="scale(1 1) rotate(0) translate(4 106)">
<title>process_options</title>
<polygon fill="white" stroke="white" points="-4,5 -4,-106 377,-106 377,5 -4,5"/>
<!-- Node1 -->
<g id="node1" class="node"><title>Node1</title>
<polygon fill="#bfbfbf" stroke="black" points="0,-60.5 0,-81.5 94,-81.5 94,-60.5 0,-60.5"/>
<text text-anchor="middle" x="47" y="-68.5" font-family="FreeSans" font-size="10.00">process_options</text>
</g>
<!-- Node2 -->
<g id="node3" class="node"><title>Node2</title>
<a xlink:href="app-utils_8c.html#a8d5ec2ca8ebb2e04916983e6053a5c79" target="_top" xlink:title="Return size of a file(compressed or uncompressed).">
<polygon fill="white" stroke="black" points="131.5,-80.5 131.5,-101.5 226.5,-101.5 226.5,-80.5 131.5,-80.5"/>
<text text-anchor="middle" x="179" y="-88.5" font-family="FreeSans" font-size="10.00">hfautils_file_size</text>
</a>
</g>
<!-- Node1&#45;&gt;Node2 -->
<g id="edge2" class="edge"><title>Node1&#45;&gt;Node2</title>
<path fill="none" stroke="midnightblue" d="M94.2822,-78.164C102.989,-79.4833 112.171,-80.8743 121.147,-82.2345"/>
<polygon fill="midnightblue" stroke="midnightblue" points="120.748,-85.7139 131.16,-83.7515 121.797,-78.7928 120.748,-85.7139"/>
</g>
<!-- Node4 -->
<g id="node7" class="node"><title>Node4</title>
<a xlink:href="app-utils_8c.html#a12339c67618c4b3a54c32f43d378c273" target="_top" xlink:title="Read data from a file to a buffer(compressed or uncompressed).">
<polygon fill="white" stroke="black" points="130.5,-40.5 130.5,-61.5 227.5,-61.5 227.5,-40.5 130.5,-40.5"/>
<text text-anchor="middle" x="179" y="-48.5" font-family="FreeSans" font-size="10.00">hfautils_read_file</text>
</a>
</g>
<!-- Node1&#45;&gt;Node4 -->
<g id="edge6" class="edge"><title>Node1&#45;&gt;Node4</title>
<path fill="none" stroke="midnightblue" d="M94.2822,-63.836C102.683,-62.5632 111.525,-61.2235 120.199,-59.9092"/>
<polygon fill="midnightblue" stroke="midnightblue" points="120.906,-63.3422 130.268,-58.3836 119.857,-56.4212 120.906,-63.3422"/>
</g>
<!-- Node3 -->
<g id="node5" class="node"><title>Node3</title>
<a xlink:href="app-utils_8c.html#a7c78f1e7a6e793fea566793e167e22bc" target="_top" xlink:title="gz_get_size">
<polygon fill="white" stroke="black" points="281.5,-80.5 281.5,-101.5 354.5,-101.5 354.5,-80.5 281.5,-80.5"/>
<text text-anchor="middle" x="318" y="-88.5" font-family="FreeSans" font-size="10.00">gz_get_size</text>
</a>
</g>
<!-- Node2&#45;&gt;Node3 -->
<g id="edge4" class="edge"><title>Node2&#45;&gt;Node3</title>
<path fill="none" stroke="midnightblue" d="M226.836,-91C241.244,-91 257.032,-91 271.361,-91"/>
<polygon fill="midnightblue" stroke="midnightblue" points="271.496,-94.5001 281.496,-91 271.496,-87.5001 271.496,-94.5001"/>
</g>
<!-- Node5 -->
<g id="node9" class="node"><title>Node5</title>
<a xlink:href="app-utils_8c.html#a7fbf4d982c3e4493bda83be020e7274c" target="_top" xlink:title="Read file data from a gzip&#45;stream(compressed or uncompressed).">
<polygon fill="white" stroke="black" points="291.5,-40.5 291.5,-61.5 344.5,-61.5 344.5,-40.5 291.5,-40.5"/>
<text text-anchor="middle" x="318" y="-48.5" font-family="FreeSans" font-size="10.00">fd_read</text>
</a>
</g>
<!-- Node4&#45;&gt;Node5 -->
<g id="edge8" class="edge"><title>Node4&#45;&gt;Node5</title>
<path fill="none" stroke="midnightblue" d="M227.615,-51C245.212,-51 264.778,-51 281.192,-51"/>
<polygon fill="midnightblue" stroke="midnightblue" points="281.472,-54.5001 291.472,-51 281.472,-47.5001 281.472,-54.5001"/>
</g>
<!-- Node6 -->
<g id="node11" class="node"><title>Node6</title>
<a xlink:href="cvmx-hfa_8c.html#a3db44a30b1033c1ab4ac64bac81a41f6" target="_top" xlink:title="hfa_bootmem_free">
<polygon fill="white" stroke="black" points="264,-0.5 264,-21.5 372,-21.5 372,-0.5 264,-0.5"/>
<text text-anchor="middle" x="318" y="-8.5" font-family="FreeSans" font-size="10.00">hfa_bootmem_free</text>
</a>
</g>
<!-- Node4&#45;&gt;Node6 -->
<g id="edge10" class="edge"><title>Node4&#45;&gt;Node6</title>
<path fill="none" stroke="midnightblue" d="M215.521,-40.4905C232.623,-35.5688 253.195,-29.649 271.404,-24.4088"/>
<polygon fill="midnightblue" stroke="midnightblue" points="272.599,-27.7073 281.241,-21.5782 270.663,-20.9803 272.599,-27.7073"/>
</g>
</g>
</svg>
