<?xml version="1.0" encoding="UTF-8" standalone="no"?>
<!DOCTYPE svg PUBLIC "-//W3C//DTD SVG 1.1//EN"
 "http://www.w3.org/Graphics/SVG/1.1/DTD/svg11.dtd">
<!-- Generated by graphviz version 2.24.0 (20090616.2323)
 -->
<!-- Title: graph_load Pages: 1 -->
<!--zoomable 982 -->
<svg id="main" version="1.1" xmlns="http://www.w3.org/2000/svg" xmlns:xlink="http://www.w3.org/1999/xlink" xml:space="preserve" onload="init(evt)">
        <defs>
                <circle id="rim" cx="0" cy="0" r="7"/>
                <circle id="rim2" cx="0" cy="0" r="3.5"/>
                <g id="zoomPlus">
                        <use xlink:href="#rim" fill="#404040">
                                <set attributeName="fill" to="#808080" begin="zoomplus.mouseover" end="zoomplus.mouseout"/>
                        </use>
                        <path d="M-4,0h8M0,-4v8" fill="none" stroke="white" stroke-width="1.5" pointer-events="none"/>
                </g>
                <g id="zoomMin">
                        <use xlink:href="#rim" fill="#404040">
                                <set attributeName="fill" to="#808080" begin="zoomminus.mouseover" end="zoomminus.mouseout"/>
                        </use>
                        <path d="M-4,0h8" fill="none" stroke="white" stroke-width="1.5" pointer-events="none"/>
                </g>
                <g id="dirArrow">
                        <path fill="none" stroke="white" stroke-width="1.5" d="M0,-3.0v7 M-2.5,-0.5L0,-3.0L2.5,-0.5"/>
                </g>
               <g id="resetDef">
                       <use xlink:href="#rim2" fill="#404040">
                               <set attributeName="fill" to="#808080" begin="reset.mouseover" end="reset.mouseout"/>
                       </use>
               </g>
        </defs>

<script type="text/javascript">
var viewWidth = 1150;
var viewHeight = 982;
var sectionId = 'dynsection-8';
</script>
<script xlink:href="svgpan.js"/>
<svg id="graph" class="graph">
<g id="viewport">
<title>graph_load</title>
<polygon fill="white" stroke="white" points="-4,5 -4,-978 1147,-978 1147,5 -4,5"/>
<!-- Node1 -->
<g id="node1" class="node"><title>Node1</title>
<polygon fill="#bfbfbf" stroke="black" points="0.5,-796.5 0.5,-817.5 69.5,-817.5 69.5,-796.5 0.5,-796.5"/>
<text text-anchor="middle" x="35" y="-804.5" font-family="FreeSans" font-size="10.00">graph_load</text>
</g>
<!-- Node2 -->
<g id="node3" class="node"><title>Node2</title>
<a xlink:href="cvm-hfa-graph_8c.html#a80a6427d5a90c7bd1e4cbfd62a808524" target="_top" xlink:title="This routine initializes a graph object which can be used to perform various operations on a graph fi...">
<polygon fill="white" stroke="black" points="120.5,-952.5 120.5,-973.5 227.5,-973.5 227.5,-952.5 120.5,-952.5"/>
<text text-anchor="middle" x="174" y="-960.5" font-family="FreeSans" font-size="10.00">hfa_dev_graph_init</text>
</a>
</g>
<!-- Node1&#45;&gt;Node2 -->
<g id="edge2" class="edge"><title>Node1&#45;&gt;Node2</title>
<path fill="none" stroke="midnightblue" d="M37.4979,-817.66C44.0581,-843.27 64.2257,-908.673 106,-943 108.038,-944.675 110.212,-946.209 112.484,-947.615"/>
<polygon fill="midnightblue" stroke="midnightblue" points="111.176,-950.882 121.658,-952.427 114.427,-944.682 111.176,-950.882"/>
</g>
<!-- Node3 -->
<g id="node5" class="node"><title>Node3</title>
<a xlink:href="cvm-hfa-graph_8c.html#a32df4a93ffcd7da232613b13204b2a80" target="_top" xlink:title="This routine sets the cluster&#45;mask for the graph.">
<polygon fill="white" stroke="black" points="115.5,-912.5 115.5,-933.5 232.5,-933.5 232.5,-912.5 115.5,-912.5"/>
<text text-anchor="middle" x="174" y="-920.5" font-family="FreeSans" font-size="10.00">hfa_graph_setcluster</text>
</a>
</g>
<!-- Node1&#45;&gt;Node3 -->
<g id="edge4" class="edge"><title>Node1&#45;&gt;Node3</title>
<path fill="none" stroke="midnightblue" d="M40.591,-817.552C51.0307,-836.303 75.2421,-875.561 106,-898 111.598,-902.084 117.936,-905.568 124.437,-908.521"/>
<polygon fill="midnightblue" stroke="midnightblue" points="123.43,-911.893 134.009,-912.476 126.103,-905.423 123.43,-911.893"/>
</g>
<!-- Node4 -->
<g id="node7" class="node"><title>Node4</title>
<a xlink:href="app-utils_8c.html#aed95bb72627cff313c596ebcfcd8af61" target="_top" xlink:title="Parse graph into chunks and load graph to HFA memory.">
<polygon fill="white" stroke="black" points="106.5,-796.5 106.5,-817.5 241.5,-817.5 241.5,-796.5 106.5,-796.5"/>
<text text-anchor="middle" x="174" y="-804.5" font-family="FreeSans" font-size="10.00">hfautils_download_graph</text>
</a>
</g>
<!-- Node1&#45;&gt;Node4 -->
<g id="edge6" class="edge"><title>Node1&#45;&gt;Node4</title>
<path fill="none" stroke="midnightblue" d="M69.717,-807C77.9253,-807 87.0057,-807 96.2843,-807"/>
<polygon fill="midnightblue" stroke="midnightblue" points="96.3984,-810.5 106.398,-807 96.3983,-803.5 96.3984,-810.5"/>
</g>
<!-- Node7 -->
<g id="node13" class="node"><title>Node7</title>
<a xlink:href="cvm-hfa-graph_8c.html#a0f2f13fb51e5d56dcf049ff3c7c6ad78" target="_top" xlink:title="This routine is used to check the status of the graph.">
<polygon fill="white" stroke="black" points="655,-797.5 655,-818.5 769,-818.5 769,-797.5 655,-797.5"/>
<text text-anchor="middle" x="712" y="-805.5" font-family="FreeSans" font-size="10.00">hfa_graph_getstatus</text>
</a>
</g>
<!-- Node1&#45;&gt;Node7 -->
<g id="edge76" class="edge"><title>Node1&#45;&gt;Node7</title>
<path fill="none" stroke="midnightblue" d="M67.5804,-817.519C79.5495,-821.026 93.2834,-824.638 106,-827 321.064,-866.95 381.561,-871.662 598,-840 623.4,-836.284 651.145,-828.58 672.904,-821.661"/>
<polygon fill="midnightblue" stroke="midnightblue" points="674.024,-824.978 682.451,-818.555 671.858,-818.321 674.024,-824.978"/>
</g>
<!-- Node15 -->
<g id="node32" class="node"><title>Node15</title>
<a xlink:href="cvm-hfa-graph_8c.html#aa296e0c6b36b3d5b4f8e01c2fe765bed" target="_top" xlink:title="This routine is used to cacheload a cacheable graph in a non&#45;blocking manner.">
<polygon fill="white" stroke="black" points="114,-414 114,-448 234,-448 234,-414 114,-414"/>
<text text-anchor="start" x="122" y="-435" font-family="FreeSans" font-size="10.00">hfa_graph_cacheload</text>
<text text-anchor="middle" x="174" y="-422" font-family="FreeSans" font-size="10.00">_async</text>
</a>
</g>
<!-- Node1&#45;&gt;Node15 -->
<g id="edge34" class="edge"><title>Node1&#45;&gt;Node15</title>
<path fill="none" stroke="midnightblue" d="M39.0101,-796.153C57.6308,-745.783 135.937,-533.962 163.967,-458.139"/>
<polygon fill="midnightblue" stroke="midnightblue" points="167.393,-458.967 167.577,-448.373 160.827,-456.539 167.393,-458.967"/>
</g>
<!-- Node35 -->
<g id="node74" class="node"><title>Node35</title>
<a xlink:href="cvm-hfa-graph_8c.html#abbfd41020571ab71bee78818f54f88b8" target="_top" xlink:title="This is a utility routine which returns the savelen property of the graph.">
<polygon fill="white" stroke="black" points="112.5,-374.5 112.5,-395.5 235.5,-395.5 235.5,-374.5 112.5,-374.5"/>
<text text-anchor="middle" x="174" y="-382.5" font-family="FreeSans" font-size="10.00">hfa_graph_getsavelen</text>
</a>
</g>
<!-- Node1&#45;&gt;Node35 -->
<g id="edge78" class="edge"><title>Node1&#45;&gt;Node35</title>
<path fill="none" stroke="midnightblue" d="M35.4131,-796.169C37.8365,-738.237 52.0162,-465.349 106,-405 107.051,-403.825 108.167,-402.717 109.34,-401.673"/>
<polygon fill="midnightblue" stroke="midnightblue" points="111.667,-404.313 117.792,-395.668 107.612,-398.607 111.667,-404.313"/>
</g>
<!-- Node36 -->
<g id="node76" class="node"><title>Node36</title>
<a xlink:href="cvm-hfa-graph_8c.html#a5e79919f5903d97aee5e82bfc7e71597" target="_top" xlink:title="This routine is the counterpart of hfa_dev_graph_init().">
<polygon fill="white" stroke="black" points="108,-334.5 108,-355.5 240,-355.5 240,-334.5 108,-334.5"/>
<text text-anchor="middle" x="174" y="-342.5" font-family="FreeSans" font-size="10.00">hfa_dev_graph_cleanup</text>
</a>
</g>
<!-- Node1&#45;&gt;Node36 -->
<g id="edge80" class="edge"><title>Node1&#45;&gt;Node36</title>
<path fill="none" stroke="midnightblue" d="M35.2204,-796.324C36.6911,-735.403 46.9308,-432.076 106,-365 107.042,-363.817 108.15,-362.702 109.315,-361.651"/>
<polygon fill="midnightblue" stroke="midnightblue" points="111.645,-364.287 117.73,-355.613 107.564,-358.6 111.645,-364.287"/>
</g>
<!-- Node5 -->
<g id="node9" class="node"><title>Node5</title>
<a xlink:href="cvm-hfa-graph_8c.html#a647ccf649077cb5170221218ab2cdccf" target="_top" xlink:title="This routine downloads graph data to the HFA engine in a non&#45;blocking manner.">
<polygon fill="white" stroke="black" points="456,-746 456,-780 598,-780 598,-746 456,-746"/>
<text text-anchor="start" x="464" y="-767" font-family="FreeSans" font-size="10.00">hfa_graph_memload_data</text>
<text text-anchor="middle" x="527" y="-754" font-family="FreeSans" font-size="10.00">_async</text>
</a>
</g>
<!-- Node4&#45;&gt;Node5 -->
<g id="edge8" class="edge"><title>Node4&#45;&gt;Node5</title>
<path fill="none" stroke="midnightblue" d="M223.566,-796.484C240.745,-793.102 260.165,-789.569 278,-787 333.783,-778.966 396.995,-772.91 445.77,-768.891"/>
<polygon fill="midnightblue" stroke="midnightblue" points="446.267,-772.362 455.951,-768.065 445.7,-765.385 446.267,-772.362"/>
</g>
<!-- Node4&#45;&gt;Node7 -->
<g id="edge26" class="edge"><title>Node4&#45;&gt;Node7</title>
<path fill="none" stroke="midnightblue" d="M218.778,-817.542C237.034,-821.334 258.415,-825.134 278,-827 407.503,-839.339 559.521,-826.425 644.921,-816.686"/>
<polygon fill="midnightblue" stroke="midnightblue" points="645.47,-820.146 655,-815.516 644.663,-813.193 645.47,-820.146"/>
</g>
<!-- Node14 -->
<g id="node28" class="node"><title>Node14</title>
<a xlink:href="cvm-hfa-graph_8c.html#a9e3f1a4bf2be683265108b5131541e89" target="_top" xlink:title="This routine downloads graph data to the HFA engine in a blocking manner.">
<polygon fill="white" stroke="black" points="278,-796.5 278,-817.5 420,-817.5 420,-796.5 278,-796.5"/>
<text text-anchor="middle" x="349" y="-804.5" font-family="FreeSans" font-size="10.00">hfa_graph_memload_data</text>
</a>
</g>
<!-- Node4&#45;&gt;Node14 -->
<g id="edge28" class="edge"><title>Node4&#45;&gt;Node14</title>
<path fill="none" stroke="midnightblue" d="M241.66,-807C250.163,-807 258.93,-807 267.616,-807"/>
<polygon fill="midnightblue" stroke="midnightblue" points="267.755,-810.5 277.755,-807 267.755,-803.5 267.755,-810.5"/>
</g>
<!-- Node6 -->
<g id="node11" class="node"><title>Node6</title>
<a xlink:href="cvm-hfa_8h.html#a760b4a245f0bf0c6823c9edb7eba6425" target="_top" xlink:title="Indicates whether device has its own HFA memory.">
<polygon fill="white" stroke="black" points="634.5,-752.5 634.5,-773.5 789.5,-773.5 789.5,-752.5 634.5,-752.5"/>
<text text-anchor="middle" x="712" y="-760.5" font-family="FreeSans" font-size="10.00">hfa_dev_haspvt_hfamemory</text>
</a>
</g>
<!-- Node5&#45;&gt;Node6 -->
<g id="edge10" class="edge"><title>Node5&#45;&gt;Node6</title>
<path fill="none" stroke="midnightblue" d="M598.261,-763C606.748,-763 615.486,-763 624.17,-763"/>
<polygon fill="midnightblue" stroke="midnightblue" points="624.32,-766.5 634.32,-763 624.32,-759.5 624.32,-766.5"/>
</g>
<!-- Node5&#45;&gt;Node7 -->
<g id="edge12" class="edge"><title>Node5&#45;&gt;Node7</title>
<path fill="none" stroke="midnightblue" d="M596.941,-780.013C617.504,-785.014 639.652,-790.402 658.972,-795.101"/>
<polygon fill="midnightblue" stroke="midnightblue" points="658.25,-798.528 668.794,-797.49 659.904,-791.726 658.25,-798.528"/>
</g>
<!-- Node8 -->
<g id="node15" class="node"><title>Node8</title>
<a xlink:href="cvm-hfa_8c.html#a4753d2dd586e19676b1a59dd16baaeed" target="_top" xlink:title="Obtain status of submitted insruction.">
<polygon fill="white" stroke="black" points="833.5,-817.5 833.5,-838.5 966.5,-838.5 966.5,-817.5 833.5,-817.5"/>
<text text-anchor="middle" x="900" y="-825.5" font-family="FreeSans" font-size="10.00">hfa_dev_getasyncstatus</text>
</a>
</g>
<!-- Node7&#45;&gt;Node8 -->
<g id="edge14" class="edge"><title>Node7&#45;&gt;Node8</title>
<path fill="none" stroke="midnightblue" d="M769.172,-814.082C786.138,-815.887 805.005,-817.894 823.011,-819.81"/>
<polygon fill="midnightblue" stroke="midnightblue" points="822.885,-823.316 833.199,-820.893 823.625,-816.355 822.885,-823.316"/>
</g>
<!-- Node11 -->
<g id="node21" class="node"><title>Node11</title>
<a xlink:href="cvm-hfa-instr_8h.html#aa7b5661907cf23e01fe784a70980ed4b" target="_top" xlink:title="Gets itype from RWORD0.">
<polygon fill="white" stroke="black" points="839,-737.5 839,-758.5 961,-758.5 961,-737.5 839,-737.5"/>
<text text-anchor="middle" x="900" y="-745.5" font-family="FreeSans" font-size="10.00">cvm_hfa_rslt_getitype</text>
</a>
</g>
<!-- Node7&#45;&gt;Node11 -->
<g id="edge20" class="edge"><title>Node7&#45;&gt;Node11</title>
<path fill="none" stroke="midnightblue" d="M747.161,-797.425C760.645,-793.189 776.12,-788.106 790,-783 806.268,-777.016 809.598,-773.607 826,-768 832.839,-765.662 840.108,-763.416 847.315,-761.328"/>
<polygon fill="midnightblue" stroke="midnightblue" points="848.381,-764.664 857.059,-758.585 846.485,-757.926 848.381,-764.664"/>
</g>
<!-- Node12 -->
<g id="node23" class="node"><title>Node12</title>
<a xlink:href="cvm-hfa-graph_8c.html#aa4c0667cc4f92a08c249041eb8a4ec58" target="_top" xlink:title="This routine is used to free the buffers and change the graph load status after instruction completio...">
<polygon fill="white" stroke="black" points="826.5,-777.5 826.5,-798.5 973.5,-798.5 973.5,-777.5 826.5,-777.5"/>
<text text-anchor="middle" x="900" y="-785.5" font-family="FreeSans" font-size="10.00">__hfa_graph_processstatus</text>
</a>
</g>
<!-- Node7&#45;&gt;Node12 -->
<g id="edge22" class="edge"><title>Node7&#45;&gt;Node12</title>
<path fill="none" stroke="midnightblue" d="M769.172,-801.918C783.971,-800.344 800.217,-798.615 816.075,-796.928"/>
<polygon fill="midnightblue" stroke="midnightblue" points="816.848,-800.366 826.422,-795.827 816.108,-793.405 816.848,-800.366"/>
</g>
<!-- Node9 -->
<g id="node17" class="node"><title>Node9</title>
<a xlink:href="cvm-hfa-instr_8h.html#a56f2522dcba965745a1bc239fc432dca" target="_top" xlink:title="Gets done from RWORD0.">
<polygon fill="white" stroke="black" points="1014.5,-797.5 1014.5,-818.5 1137.5,-818.5 1137.5,-797.5 1014.5,-797.5"/>
<text text-anchor="middle" x="1076" y="-805.5" font-family="FreeSans" font-size="10.00">cvm_hfa_rslt_getdone</text>
</a>
</g>
<!-- Node8&#45;&gt;Node9 -->
<g id="edge16" class="edge"><title>Node8&#45;&gt;Node9</title>
<path fill="none" stroke="midnightblue" d="M966.538,-820.439C978.782,-819.047 991.616,-817.589 1004.01,-816.18"/>
<polygon fill="midnightblue" stroke="midnightblue" points="1004.76,-819.618 1014.3,-815.011 1003.97,-812.663 1004.76,-819.618"/>
</g>
<!-- Node10 -->
<g id="node19" class="node"><title>Node10</title>
<a xlink:href="cvm-hfa-instr_8h.html#a9700a50b68b6616506528eb725a8bda1" target="_top" xlink:title="Gets reason from RWORD0.">
<polygon fill="white" stroke="black" points="1010.5,-837.5 1010.5,-858.5 1141.5,-858.5 1141.5,-837.5 1010.5,-837.5"/>
<text text-anchor="middle" x="1076" y="-845.5" font-family="FreeSans" font-size="10.00">cvm_hfa_rslt_getreason</text>
</a>
</g>
<!-- Node8&#45;&gt;Node10 -->
<g id="edge18" class="edge"><title>Node8&#45;&gt;Node10</title>
<path fill="none" stroke="midnightblue" d="M966.538,-835.561C977.494,-836.806 988.922,-838.105 1000.09,-839.373"/>
<polygon fill="midnightblue" stroke="midnightblue" points="999.912,-842.876 1010.24,-840.528 1000.7,-835.921 999.912,-842.876"/>
</g>
<!-- Node13 -->
<g id="node25" class="node"><title>Node13</title>
<a xlink:href="cvm-hfa-cluster_8c.html#ad8cad96579f5a310b62caaf8c166658f" target="_top" xlink:title="Returns a copy of a cluster of the HFA device.">
<polygon fill="white" stroke="black" points="1031,-668.5 1031,-689.5 1121,-689.5 1121,-668.5 1031,-668.5"/>
<text text-anchor="middle" x="1076" y="-676.5" font-family="FreeSans" font-size="10.00">hfa_get_cluster</text>
</a>
</g>
<!-- Node12&#45;&gt;Node13 -->
<g id="edge24" class="edge"><title>Node12&#45;&gt;Node13</title>
<path fill="none" stroke="midnightblue" d="M951.326,-777.398C959.151,-774.86 966.957,-771.763 974,-768 1008.62,-749.506 1041.47,-717.269 1060.14,-697.088"/>
<polygon fill="midnightblue" stroke="midnightblue" points="1062.89,-699.262 1067.01,-689.501 1057.7,-694.562 1062.89,-699.262"/>
</g>
<!-- Node14&#45;&gt;Node5 -->
<g id="edge30" class="edge"><title>Node14&#45;&gt;Node5</title>
<path fill="none" stroke="midnightblue" d="M391.635,-796.461C408.617,-792.263 428.722,-787.293 448.171,-782.486"/>
<polygon fill="midnightblue" stroke="midnightblue" points="449.087,-785.865 457.955,-780.067 447.407,-779.069 449.087,-785.865"/>
</g>
<!-- Node14&#45;&gt;Node7 -->
<g id="edge32" class="edge"><title>Node14&#45;&gt;Node7</title>
<path fill="none" stroke="midnightblue" d="M420.284,-807.196C485.317,-807.376 580.732,-807.638 644.538,-807.814"/>
<polygon fill="midnightblue" stroke="midnightblue" points="644.88,-811.315 654.89,-807.843 644.9,-804.315 644.88,-811.315"/>
</g>
<!-- Node15&#45;&gt;Node13 -->
<g id="edge52" class="edge"><title>Node15&#45;&gt;Node13</title>
<path fill="none" stroke="midnightblue" d="M183.05,-448.278C198.42,-475.61 232.446,-528.064 278,-551 377.132,-600.912 416.012,-570 527,-570 527,-570 527,-570 712,-570 841.304,-570 985.997,-633.903 1046.71,-663.85"/>
<polygon fill="midnightblue" stroke="midnightblue" points="1045.2,-667.012 1055.71,-668.35 1048.33,-660.75 1045.2,-667.012"/>
</g>
<!-- Node16 -->
<g id="node34" class="node"><title>Node16</title>
<a xlink:href="cvm-hfa-instr_8h.html#acaf8def6cbffb04c100bf7f7684f242e" target="_top" xlink:title="Initialize the HFA instruction.">
<polygon fill="white" stroke="black" points="297.5,-520.5 297.5,-541.5 400.5,-541.5 400.5,-520.5 297.5,-520.5"/>
<text text-anchor="middle" x="349" y="-528.5" font-family="FreeSans" font-size="10.00">cvm_hfa_instr_init</text>
</a>
</g>
<!-- Node15&#45;&gt;Node16 -->
<g id="edge36" class="edge"><title>Node15&#45;&gt;Node16</title>
<path fill="none" stroke="midnightblue" d="M191.704,-448.077C211.32,-466.124 244.611,-494.243 278,-511 282.534,-513.275 287.364,-515.325 292.291,-517.165"/>
<polygon fill="midnightblue" stroke="midnightblue" points="291.237,-520.504 301.831,-520.448 293.515,-513.885 291.237,-520.504"/>
</g>
<!-- Node17 -->
<g id="node36" class="node"><title>Node17</title>
<a xlink:href="cvm-hfa-instr_8h.html#ae3c5617039956247653e8ab215744691" target="_top" xlink:title="Sets le in the instruction.">
<polygon fill="white" stroke="black" points="293,-480.5 293,-501.5 405,-501.5 405,-480.5 293,-480.5"/>
<text text-anchor="middle" x="349" y="-488.5" font-family="FreeSans" font-size="10.00">cvm_hfa_instr_setle</text>
</a>
</g>
<!-- Node15&#45;&gt;Node17 -->
<g id="edge38" class="edge"><title>Node15&#45;&gt;Node17</title>
<path fill="none" stroke="midnightblue" d="M215.681,-448.046C234.562,-455.504 257.256,-464.105 278,-471 284.851,-473.277 292.128,-475.521 299.31,-477.636"/>
<polygon fill="midnightblue" stroke="midnightblue" points="298.42,-481.022 308.998,-480.432 300.36,-474.296 298.42,-481.022"/>
</g>
<!-- Node18 -->
<g id="node38" class="node"><title>Node18</title>
<a xlink:href="cvm-hfa-instr_8h.html#a8261a957d73f83f0e9d827f0740e418f" target="_top" xlink:title="Sets gm in the instruction.">
<polygon fill="white" stroke="black" points="281.5,-440.5 281.5,-461.5 416.5,-461.5 416.5,-440.5 281.5,-440.5"/>
<text text-anchor="middle" x="349" y="-448.5" font-family="FreeSans" font-size="10.00">cvm_hfa_instr_setgather</text>
</a>
</g>
<!-- Node15&#45;&gt;Node18 -->
<g id="edge40" class="edge"><title>Node15&#45;&gt;Node18</title>
<path fill="none" stroke="midnightblue" d="M234.225,-437.883C246.239,-439.256 259.016,-440.716 271.516,-442.145"/>
<polygon fill="midnightblue" stroke="midnightblue" points="271.129,-445.623 281.462,-443.281 271.924,-438.668 271.129,-445.623"/>
</g>
<!-- Node19 -->
<g id="node40" class="node"><title>Node19</title>
<a xlink:href="cvm-hfa-instr_8h.html#aad258e7b6ac8e829b365867eff83f0ca" target="_top" xlink:title="Sets dsize in the CACHELOAD instruction.">
<polygon fill="white" stroke="black" points="284.5,-400.5 284.5,-421.5 413.5,-421.5 413.5,-400.5 284.5,-400.5"/>
<text text-anchor="middle" x="349" y="-408.5" font-family="FreeSans" font-size="10.00">cvm_hfa_instr_setdsize</text>
</a>
</g>
<!-- Node15&#45;&gt;Node19 -->
<g id="edge42" class="edge"><title>Node15&#45;&gt;Node19</title>
<path fill="none" stroke="midnightblue" d="M234.225,-424.117C247.146,-422.64 260.949,-421.063 274.341,-419.532"/>
<polygon fill="midnightblue" stroke="midnightblue" points="274.943,-422.987 284.481,-418.374 274.148,-416.032 274.943,-422.987"/>
</g>
<!-- Node20 -->
<g id="node42" class="node"><title>Node20</title>
<a xlink:href="cvm-hfa-instr_8h.html#ad91227f5246b9ab04b5151cbf93f38db" target="_top" xlink:title="Sets dptr in the instruction.">
<polygon fill="white" stroke="black" points="287.5,-360.5 287.5,-381.5 410.5,-381.5 410.5,-360.5 287.5,-360.5"/>
<text text-anchor="middle" x="349" y="-368.5" font-family="FreeSans" font-size="10.00">cvm_hfa_instr_setdptr</text>
</a>
</g>
<!-- Node15&#45;&gt;Node20 -->
<g id="edge44" class="edge"><title>Node15&#45;&gt;Node20</title>
<path fill="none" stroke="midnightblue" d="M218.639,-413.974C226.429,-410.991 234.453,-407.91 242,-405 258.018,-398.823 261.719,-396.445 278,-391 284.847,-388.71 292.121,-386.459 299.303,-384.341"/>
<polygon fill="midnightblue" stroke="midnightblue" points="300.353,-387.68 308.989,-381.543 298.411,-380.955 300.353,-387.68"/>
</g>
<!-- Node21 -->
<g id="node44" class="node"><title>Node21</title>
<a xlink:href="cvm-hfa-instr_8h.html#a4e2b3c4160c4ecad70f391800f7d9dba" target="_top" xlink:title="Sets rmax in the CACHELOAD instruction.">
<polygon fill="white" stroke="black" points="284.5,-320.5 284.5,-341.5 413.5,-341.5 413.5,-320.5 284.5,-320.5"/>
<text text-anchor="middle" x="349" y="-328.5" font-family="FreeSans" font-size="10.00">cvm_hfa_instr_setrmax</text>
</a>
</g>
<!-- Node15&#45;&gt;Node21 -->
<g id="edge46" class="edge"><title>Node15&#45;&gt;Node21</title>
<path fill="none" stroke="midnightblue" d="M228.07,-413.999C233.015,-411.378 237.754,-408.392 242,-405 264.537,-386.998 254.671,-367.963 278,-351 280.641,-349.08 283.461,-347.343 286.397,-345.774"/>
<polygon fill="midnightblue" stroke="midnightblue" points="287.899,-348.935 295.493,-341.546 284.949,-342.587 287.899,-348.935"/>
</g>
<!-- Node22 -->
<g id="node46" class="node"><title>Node22</title>
<a xlink:href="cvm-hfa-instr_8h.html#ae835dc8f1211f0efa86a88df8e618c80" target="_top" xlink:title="Sets dlen in the instruction.">
<polygon fill="white" stroke="black" points="287,-280.5 287,-301.5 411,-301.5 411,-280.5 287,-280.5"/>
<text text-anchor="middle" x="349" y="-288.5" font-family="FreeSans" font-size="10.00">cvm_hfa_instr_setdlen</text>
</a>
</g>
<!-- Node15&#45;&gt;Node22 -->
<g id="edge48" class="edge"><title>Node15&#45;&gt;Node22</title>
<path fill="none" stroke="midnightblue" d="M230.56,-413.935C234.716,-411.355 238.603,-408.395 242,-405 273.642,-373.375 244.958,-341.159 278,-311 279.691,-309.457 281.491,-308.032 283.379,-306.715"/>
<polygon fill="midnightblue" stroke="midnightblue" points="285.254,-309.673 292.134,-301.615 281.731,-303.625 285.254,-309.673"/>
</g>
<!-- Node23 -->
<g id="node48" class="node"><title>Node23</title>
<a xlink:href="cvm-hfa-instr_8h.html#a823a53a14312c8ef7cf8eae714ee8994" target="_top" xlink:title="Sets f4 in the MEMLOAD/CACHELOAD instruction.">
<polygon fill="white" stroke="black" points="292,-240.5 292,-261.5 406,-261.5 406,-240.5 292,-240.5"/>
<text text-anchor="middle" x="349" y="-248.5" font-family="FreeSans" font-size="10.00">cvm_hfa_instr_setf4</text>
</a>
</g>
<!-- Node15&#45;&gt;Node23 -->
<g id="edge50" class="edge"><title>Node15&#45;&gt;Node23</title>
<path fill="none" stroke="midnightblue" d="M231.591,-413.883C235.417,-411.321 238.952,-408.378 242,-405 283.309,-359.213 234.66,-314.869 278,-271 279.609,-269.372 281.339,-267.873 283.166,-266.494"/>
<polygon fill="midnightblue" stroke="midnightblue" points="285.069,-269.432 291.719,-261.184 281.377,-263.485 285.069,-269.432"/>
</g>
<!-- Node24 -->
<g id="node51" class="node"><title>Node24</title>
<a xlink:href="cvm-hfa-instr_8h.html#ae68e1302e0d2010814eb883d768bab97" target="_top" xlink:title="Sets cbase in the CACHELOAD instruction.">
<polygon fill="white" stroke="black" points="282.5,-200.5 282.5,-221.5 415.5,-221.5 415.5,-200.5 282.5,-200.5"/>
<text text-anchor="middle" x="349" y="-208.5" font-family="FreeSans" font-size="10.00">cvm_hfa_instr_setcbase</text>
</a>
</g>
<!-- Node15&#45;&gt;Node24 -->
<g id="edge54" class="edge"><title>Node15&#45;&gt;Node24</title>
<path fill="none" stroke="midnightblue" d="M232.127,-413.859C235.781,-411.304 239.134,-408.37 242,-405 293.164,-344.845 224.163,-288.776 278,-231 279.2,-229.712 280.477,-228.504 281.817,-227.372"/>
<polygon fill="midnightblue" stroke="midnightblue" points="283.847,-230.224 290.117,-221.684 279.889,-224.45 283.847,-230.224"/>
</g>
<!-- Node25 -->
<g id="node53" class="node"><title>Node25</title>
<a xlink:href="cvm-hfa-instr_8h.html#aac026144550c5d2d8c5e9084da909a16" target="_top" xlink:title="Sets dbase in the CACHELOAD instruction.">
<polygon fill="white" stroke="black" points="282.5,-160.5 282.5,-181.5 415.5,-181.5 415.5,-160.5 282.5,-160.5"/>
<text text-anchor="middle" x="349" y="-168.5" font-family="FreeSans" font-size="10.00">cvm_hfa_instr_setdbase</text>
</a>
</g>
<!-- Node15&#45;&gt;Node25 -->
<g id="edge56" class="edge"><title>Node15&#45;&gt;Node25</title>
<path fill="none" stroke="midnightblue" d="M232.268,-413.977C235.89,-411.395 239.197,-408.423 242,-405 303.104,-330.378 213.578,-262.777 278,-191 279.176,-189.69 280.431,-188.462 281.752,-187.313"/>
<polygon fill="midnightblue" stroke="midnightblue" points="283.793,-190.157 289.966,-181.546 279.771,-184.428 283.793,-190.157"/>
</g>
<!-- Node26 -->
<g id="node55" class="node"><title>Node26</title>
<a xlink:href="cvm-hfa-instr_8h.html#a5202ffb084dff479254eddd9d1ad3884" target="_top" xlink:title="Sets pgid in the CACHELOAD instruction.">
<polygon fill="white" stroke="black" points="287,-120.5 287,-141.5 411,-141.5 411,-120.5 287,-120.5"/>
<text text-anchor="middle" x="349" y="-128.5" font-family="FreeSans" font-size="10.00">cvm_hfa_instr_setpgid</text>
</a>
</g>
<!-- Node15&#45;&gt;Node26 -->
<g id="edge58" class="edge"><title>Node15&#45;&gt;Node26</title>
<path fill="none" stroke="midnightblue" d="M232.676,-413.834C236.154,-411.286 239.321,-408.36 242,-405 313.088,-315.858 202.947,-236.831 278,-151 279.027,-149.825 280.118,-148.717 281.263,-147.671"/>
<polygon fill="midnightblue" stroke="midnightblue" points="283.51,-150.364 289.528,-141.645 279.386,-144.708 283.51,-150.364"/>
</g>
<!-- Node27 -->
<g id="node57" class="node"><title>Node27</title>
<a xlink:href="cvm-hfa-instr_8h.html#add4e981377a02cd06e2bca116e584bca" target="_top" xlink:title="Sets vgid in the instruction.">
<polygon fill="white" stroke="black" points="287,-80.5 287,-101.5 411,-101.5 411,-80.5 287,-80.5"/>
<text text-anchor="middle" x="349" y="-88.5" font-family="FreeSans" font-size="10.00">cvm_hfa_instr_setvgid</text>
</a>
</g>
<!-- Node15&#45;&gt;Node27 -->
<g id="edge60" class="edge"><title>Node15&#45;&gt;Node27</title>
<path fill="none" stroke="midnightblue" d="M232.748,-413.891C236.209,-411.329 239.353,-408.385 242,-405 323.098,-301.304 192.288,-210.916 278,-111 279.016,-109.815 280.097,-108.698 281.233,-107.645"/>
<polygon fill="midnightblue" stroke="midnightblue" points="283.484,-110.333 289.451,-101.578 279.327,-104.701 283.484,-110.333"/>
</g>
<!-- Node28 -->
<g id="node59" class="node"><title>Node28</title>
<a xlink:href="cvm-hfa-instr_8h.html#a2d6082e2e599fe8523162b18d0a06f6c" target="_top" xlink:title="Sets rptr in the instruction.">
<polygon fill="white" stroke="black" points="289,-40.5 289,-61.5 409,-61.5 409,-40.5 289,-40.5"/>
<text text-anchor="middle" x="349" y="-48.5" font-family="FreeSans" font-size="10.00">cvm_hfa_instr_setrptr</text>
</a>
</g>
<!-- Node15&#45;&gt;Node28 -->
<g id="edge62" class="edge"><title>Node15&#45;&gt;Node28</title>
<path fill="none" stroke="midnightblue" d="M232.803,-413.934C236.252,-411.363 239.377,-408.404 242,-405 333.125,-286.73 181.611,-185.021 278,-71 279.008,-69.8081 280.08,-68.6843 281.209,-67.6249"/>
<polygon fill="midnightblue" stroke="midnightblue" points="283.465,-70.3092 289.392,-61.5273 279.282,-64.6964 283.465,-70.3092"/>
</g>
<!-- Node29 -->
<g id="node61" class="node"><title>Node29</title>
<a xlink:href="cvm-hfa-instr_8h.html#a6960a0761295ada9f449ea5e8c41ec80" target="_top" xlink:title="Sets clmsk in the instruction.">
<polygon fill="white" stroke="black" points="283,-0.5 283,-21.5 415,-21.5 415,-0.5 283,-0.5"/>
<text text-anchor="middle" x="349" y="-8.5" font-family="FreeSans" font-size="10.00">cvm_hfa_instr_setclmsk</text>
</a>
</g>
<!-- Node15&#45;&gt;Node29 -->
<g id="edge64" class="edge"><title>Node15&#45;&gt;Node29</title>
<path fill="none" stroke="midnightblue" d="M232.847,-413.967C236.285,-411.388 239.397,-408.419 242,-405 292.582,-338.57 224.461,-95.0705 278,-31 278.878,-29.9498 279.806,-28.9524 280.778,-28.0052"/>
<polygon fill="midnightblue" stroke="midnightblue" points="283.213,-30.5488 289.017,-21.6852 278.952,-24.9948 283.213,-30.5488"/>
</g>
<!-- Node30 -->
<g id="node63" class="node"><title>Node30</title>
<a xlink:href="cvm-hfa-instr_8h.html#a88a92a987acac81360f3b880d013cd10" target="_top" xlink:title="Sets wqptr instruction.">
<polygon fill="white" stroke="black" points="283.5,-718.5 283.5,-739.5 414.5,-739.5 414.5,-718.5 283.5,-718.5"/>
<text text-anchor="middle" x="349" y="-726.5" font-family="FreeSans" font-size="10.00">cvm_hfa_instr_setwqptr</text>
</a>
</g>
<!-- Node15&#45;&gt;Node30 -->
<g id="edge66" class="edge"><title>Node15&#45;&gt;Node30</title>
<path fill="none" stroke="midnightblue" d="M175.214,-448.298C179.577,-496.935 198.737,-636.086 278,-709 279.685,-710.55 281.48,-711.981 283.363,-713.302"/>
<polygon fill="midnightblue" stroke="midnightblue" points="281.705,-716.386 292.103,-718.418 285.241,-710.345 281.705,-716.386"/>
</g>
<!-- Node31 -->
<g id="node65" class="node"><title>Node31</title>
<a xlink:href="cvm-hfa-graph_8c.html#a1320f0566be0069bd604cc820a12a114" target="_top" xlink:title="This routine sets WQE field in graph data structure.">
<polygon fill="white" stroke="black" points="296.5,-678.5 296.5,-699.5 401.5,-699.5 401.5,-678.5 296.5,-678.5"/>
<text text-anchor="middle" x="349" y="-686.5" font-family="FreeSans" font-size="10.00">hfa_graph_setwqe</text>
</a>
</g>
<!-- Node15&#45;&gt;Node31 -->
<g id="edge68" class="edge"><title>Node15&#45;&gt;Node31</title>
<path fill="none" stroke="midnightblue" d="M176.388,-448.024C183.42,-491.621 208.133,-608.129 278,-669 280.821,-671.458 283.923,-673.615 287.206,-675.509"/>
<polygon fill="midnightblue" stroke="midnightblue" points="285.724,-678.68 296.245,-679.93 288.799,-672.392 285.724,-678.68"/>
</g>
<!-- Node32 -->
<g id="node67" class="node"><title>Node32</title>
<a xlink:href="cvm-hfa-common_8h.html#a0da7c57174fb96d75ae9cc2ed3116a05" target="_top" xlink:title="Dump buffer pointed by &quot;buf&quot; in readable format.">
<polygon fill="white" stroke="black" points="306,-638.5 306,-659.5 392,-659.5 392,-638.5 306,-638.5"/>
<text text-anchor="middle" x="349" y="-646.5" font-family="FreeSans" font-size="10.00">hfa_dump_buf</text>
</a>
</g>
<!-- Node15&#45;&gt;Node32 -->
<g id="edge70" class="edge"><title>Node15&#45;&gt;Node32</title>
<path fill="none" stroke="midnightblue" d="M178.09,-448.261C188.124,-486.764 217.658,-580.118 278,-629 283.349,-633.333 289.581,-636.728 296.09,-639.388"/>
<polygon fill="midnightblue" stroke="midnightblue" points="295.16,-642.771 305.755,-642.783 297.48,-636.166 295.16,-642.771"/>
</g>
<!-- Node33 -->
<g id="node69" class="node"><title>Node33</title>
<a xlink:href="cvm-hfa_8c.html#a4677d07b901d6aeb02e793c1dbdfabbf" target="_top" xlink:title="Asynchronous instruction submit to HFA hardware Do not wait for instruction to complete.">
<polygon fill="white" stroke="black" points="288,-598.5 288,-619.5 410,-619.5 410,-598.5 288,-598.5"/>
<text text-anchor="middle" x="349" y="-606.5" font-family="FreeSans" font-size="10.00">hfa_dev_submitasync</text>
</a>
</g>
<!-- Node15&#45;&gt;Node33 -->
<g id="edge72" class="edge"><title>Node15&#45;&gt;Node33</title>
<path fill="none" stroke="midnightblue" d="M181.309,-448.344C195.425,-479.826 229.394,-546.574 278,-584 283.357,-588.125 289.448,-591.603 295.758,-594.528"/>
<polygon fill="midnightblue" stroke="midnightblue" points="294.523,-597.806 305.1,-598.429 297.221,-591.346 294.523,-597.806"/>
</g>
<!-- Node34 -->
<g id="node71" class="node"><title>Node34</title>
<a xlink:href="cvmx-hfa_8c.html#a96a123c8918e83cdf914f6de1bfb4f00" target="_top" xlink:title="Submit a command to the DFA block.">
<polygon fill="white" stroke="black" points="476,-598.5 476,-619.5 578,-619.5 578,-598.5 476,-598.5"/>
<text text-anchor="middle" x="527" y="-606.5" font-family="FreeSans" font-size="10.00">cvmx_hfa_submit</text>
</a>
</g>
<!-- Node33&#45;&gt;Node34 -->
<g id="edge74" class="edge"><title>Node33&#45;&gt;Node34</title>
<path fill="none" stroke="midnightblue" d="M410.258,-609C428.247,-609 447.917,-609 465.897,-609"/>
<polygon fill="midnightblue" stroke="midnightblue" points="465.976,-612.5 475.976,-609 465.976,-605.5 465.976,-612.5"/>
</g>
</g>
</svg>
        <g id="navigator" transform="translate(0 0)" fill="#404254">
                <rect fill="#f2f5e9" fill-opacity="0.5" stroke="#606060" stroke-width=".5" x="0" y="0" width="60" height="60"/>
                <use id="zoomplus" xlink:href="#zoomPlus" x="17" y="9" onmousedown="handleZoom(evt,'in')"/>
                <use id="zoomminus" xlink:href="#zoomMin" x="42" y="9" onmousedown="handleZoom(evt,'out')"/>
                <use id="reset" xlink:href="#resetDef" x="30" y="36" onmousedown="handleReset()"/>
                <g id="arrowUp" xlink:href="#dirArrow" transform="translate(30 24)" onmousedown="handlePan(0,-1)">
                  <use xlink:href="#rim" fill="#404040">
                        <set attributeName="fill" to="#808080" begin="arrowUp.mouseover" end="arrowUp.mouseout"/>
                  </use>
                  <path fill="none" stroke="white" stroke-width="1.5" d="M0,-3.0v7 M-2.5,-0.5L0,-3.0L2.5,-0.5"/>
                </g>
                <g id="arrowRight" xlink:href="#dirArrow" transform="rotate(90) translate(36 -43)" onmousedown="handlePan(1,0)">
                  <use xlink:href="#rim" fill="#404040">
                        <set attributeName="fill" to="#808080" begin="arrowRight.mouseover" end="arrowRight.mouseout"/>
                  </use>
                  <path fill="none" stroke="white" stroke-width="1.5" d="M0,-3.0v7 M-2.5,-0.5L0,-3.0L2.5,-0.5"/>
                </g>
                <g id="arrowDown" xlink:href="#dirArrow" transform="rotate(180) translate(-30 -48)" onmousedown="handlePan(0,1)">
                  <use xlink:href="#rim" fill="#404040">
                        <set attributeName="fill" to="#808080" begin="arrowDown.mouseover" end="arrowDown.mouseout"/>
                  </use>
                  <path fill="none" stroke="white" stroke-width="1.5" d="M0,-3.0v7 M-2.5,-0.5L0,-3.0L2.5,-0.5"/>
                </g>
                <g id="arrowLeft" xlink:href="#dirArrow" transform="rotate(270) translate(-36 17)" onmousedown="handlePan(-1,0)">
                  <use xlink:href="#rim" fill="#404040">
                        <set attributeName="fill" to="#808080" begin="arrowLeft.mouseover" end="arrowLeft.mouseout"/>
                  </use>
                  <path fill="none" stroke="white" stroke-width="1.5" d="M0,-3.0v7 M-2.5,-0.5L0,-3.0L2.5,-0.5"/>
                </g>
        </g>
        <svg viewBox="0 0 15 15" width="100%" height="30px" preserveAspectRatio="xMaxYMin meet">
         <g id="arrow_out" transform="scale(0.3 0.3)">
          <a xlink:href="hfa-se-async_8c_a546f3769e735d4bef0bfab1cba56921c_cgraph_org.svg" target="_base">
           <rect id="button" ry="5" rx="5" y="6" x="6" height="38" width="38"
                fill="#f2f5e9" fill-opacity="0.5" stroke="#606060" stroke-width="1.0"/>
           <path id="arrow"
             d="M 11.500037,31.436501 C 11.940474,20.09759 22.043105,11.32322 32.158766,21.979434 L 37.068811,17.246167 C 37.068811,17.246167 37.088388,32 37.088388,32 L 22.160133,31.978069 C 22.160133,31.978069 26.997745,27.140456 26.997745,27.140456 C 18.528582,18.264221 13.291696,25.230495 11.500037,31.436501 z"
             style="fill:#404040;"/>
          </a>
         </g>
        </svg>
</svg>
