<?xml version="1.0" encoding="UTF-8" standalone="no"?>
<!DOCTYPE svg PUBLIC "-//W3C//DTD SVG 1.1//EN"
 "http://www.w3.org/Graphics/SVG/1.1/DTD/svg11.dtd">
<!-- Generated by graphviz version 2.24.0 (20090616.2323)
 -->
<!-- Title: process_search Pages: 1 -->
<!--zoomable 857 -->
<svg id="main" version="1.1" xmlns="http://www.w3.org/2000/svg" xmlns:xlink="http://www.w3.org/1999/xlink" xml:space="preserve" onload="init(evt)">
        <defs>
                <circle id="rim" cx="0" cy="0" r="7"/>
                <circle id="rim2" cx="0" cy="0" r="3.5"/>
                <g id="zoomPlus">
                        <use xlink:href="#rim" fill="#404040">
                                <set attributeName="fill" to="#808080" begin="zoomplus.mouseover" end="zoomplus.mouseout"/>
                        </use>
                        <path d="M-4,0h8M0,-4v8" fill="none" stroke="white" stroke-width="1.5" pointer-events="none"/>
                </g>
                <g id="zoomMin">
                        <use xlink:href="#rim" fill="#404040">
                                <set attributeName="fill" to="#808080" begin="zoomminus.mouseover" end="zoomminus.mouseout"/>
                        </use>
                        <path d="M-4,0h8" fill="none" stroke="white" stroke-width="1.5" pointer-events="none"/>
                </g>
                <g id="dirArrow">
                        <path fill="none" stroke="white" stroke-width="1.5" d="M0,-3.0v7 M-2.5,-0.5L0,-3.0L2.5,-0.5"/>
                </g>
               <g id="resetDef">
                       <use xlink:href="#rim2" fill="#404040">
                               <set attributeName="fill" to="#808080" begin="reset.mouseover" end="reset.mouseout"/>
                       </use>
               </g>
        </defs>

<script type="text/javascript">
var viewWidth = 1314;
var viewHeight = 857;
var sectionId = 'dynsection-15';
</script>
<script xlink:href="svgpan.js"/>
<svg id="graph" class="graph">
<g id="viewport">
<title>process_search</title>
<polygon fill="white" stroke="white" points="-4,5 -4,-853 1311,-853 1311,5 -4,5"/>
<!-- Node1 -->
<g id="node1" class="node"><title>Node1</title>
<polygon fill="#bfbfbf" stroke="black" points="0,-434.5 0,-455.5 92,-455.5 92,-434.5 0,-434.5"/>
<text text-anchor="middle" x="46" y="-442.5" font-family="FreeSans" font-size="10.00">process_search</text>
</g>
<!-- Node2 -->
<g id="node3" class="node"><title>Node2</title>
<a xlink:href="hfa-se-wqe_8c.html#af83136a23f35cac6269b0e552fc58de6" target="_top" xlink:title="Initializes the search context object of each context.">
<polygon fill="white" stroke="black" points="159,-708.5 159,-729.5 235,-729.5 235,-708.5 159,-708.5"/>
<text text-anchor="middle" x="197" y="-716.5" font-family="FreeSans" font-size="10.00">Initialize_Ctx</text>
</a>
</g>
<!-- Node1&#45;&gt;Node2 -->
<g id="edge2" class="edge"><title>Node1&#45;&gt;Node2</title>
<path fill="none" stroke="midnightblue" d="M51.0692,-455.776C63.4951,-482.015 96.7407,-551.163 128,-607 146.645,-640.305 170.353,-677.858 184.567,-699.918"/>
<polygon fill="midnightblue" stroke="midnightblue" points="181.663,-701.873 190.035,-708.367 187.54,-698.07 181.663,-701.873"/>
</g>
<!-- Node16 -->
<g id="node32" class="node"><title>Node16</title>
<a xlink:href="hfa-lnx-wqe_8c.html#a2b521122b98391a14bf2df50b7155bb1" target="_top" xlink:title="Cleanup memory allocated for context.">
<polygon fill="white" stroke="black" points="159.5,-576.5 159.5,-597.5 234.5,-597.5 234.5,-576.5 159.5,-576.5"/>
<text text-anchor="middle" x="197" y="-584.5" font-family="FreeSans" font-size="10.00">cleanup_ctx</text>
</a>
</g>
<!-- Node1&#45;&gt;Node16 -->
<g id="edge32" class="edge"><title>Node1&#45;&gt;Node16</title>
<path fill="none" stroke="midnightblue" d="M53.4911,-455.785C66.954,-474.688 96.762,-514.411 128,-542 140.455,-553 155.817,-563.284 168.882,-571.237"/>
<polygon fill="midnightblue" stroke="midnightblue" points="167.111,-574.256 177.497,-576.35 170.684,-568.236 167.111,-574.256"/>
</g>
<!-- Node23 -->
<g id="node48" class="node"><title>Node23</title>
<a xlink:href="app-utils_8c.html#a1944a739d03e86dcaee1a7d245cfeba0" target="_top" xlink:title="Initialize the attributes needed for parsing the payload file.">
<polygon fill="white" stroke="black" points="1097.5,-357 1097.5,-391 1210.5,-391 1210.5,-357 1097.5,-357"/>
<text text-anchor="start" x="1105.5" y="-378" font-family="FreeSans" font-size="10.00">hfautils_init_payload</text>
<text text-anchor="middle" x="1154" y="-365" font-family="FreeSans" font-size="10.00">_attributes</text>
</a>
</g>
<!-- Node1&#45;&gt;Node23 -->
<g id="edge50" class="edge"><title>Node1&#45;&gt;Node23</title>
<path fill="none" stroke="midnightblue" d="M47.1051,-434.482C51.3411,-398.675 69.367,-279.605 128,-205 207.096,-104.358 249.996,-62 378,-62 378,-62 378,-62 862,-62 950.036,-62 992.891,-40.6191 1056,-102 1106.08,-150.706 1067.67,-189.516 1092,-255 1104.46,-288.544 1124.29,-324.678 1138.16,-348.217"/>
<polygon fill="midnightblue" stroke="midnightblue" points="1135.21,-350.096 1143.34,-356.889 1141.22,-346.508 1135.21,-350.096"/>
</g>
<!-- Node25 -->
<g id="node52" class="node"><title>Node25</title>
<a xlink:href="app-utils_8c.html#a4b47f3c9c5a0b3eaee64e264171628a3" target="_top" xlink:title="This routine reads data of chunksize/a packet from given payload(Normal/PCAP) file and returns data b...">
<polygon fill="white" stroke="black" points="930,-495.5 930,-516.5 1056,-516.5 1056,-495.5 930,-495.5"/>
<text text-anchor="middle" x="993" y="-503.5" font-family="FreeSans" font-size="10.00">hfautils_parse_payload</text>
</a>
</g>
<!-- Node1&#45;&gt;Node25 -->
<g id="edge54" class="edge"><title>Node1&#45;&gt;Node25</title>
<path fill="none" stroke="midnightblue" d="M70.4638,-455.512C124.735,-477.846 259.769,-528 378,-528 378,-528 378,-528 729,-528 793.703,-528 867.019,-521.356 919.942,-515.37"/>
<polygon fill="midnightblue" stroke="midnightblue" points="920.378,-518.843 929.913,-514.223 919.578,-511.889 920.378,-518.843"/>
</g>
<!-- Node26 -->
<g id="node55" class="node"><title>Node26</title>
<a xlink:href="hfa-se-wqe_8c.html#a04f39f57f0b34482133ae70ab812a11e" target="_top" xlink:title="Set search parameters and submit WQE to the HW.">
<polygon fill="white" stroke="black" points="160,-434.5 160,-455.5 234,-455.5 234,-434.5 160,-434.5"/>
<text text-anchor="middle" x="197" y="-442.5" font-family="FreeSans" font-size="10.00">submit_wqe</text>
</a>
</g>
<!-- Node1&#45;&gt;Node26 -->
<g id="edge58" class="edge"><title>Node1&#45;&gt;Node26</title>
<path fill="none" stroke="midnightblue" d="M92.1255,-445C110.336,-445 131.247,-445 149.581,-445"/>
<polygon fill="midnightblue" stroke="midnightblue" points="149.753,-448.5 159.753,-445 149.753,-441.5 149.753,-448.5"/>
</g>
<!-- Node30 -->
<g id="node63" class="node"><title>Node30</title>
<a xlink:href="hfa-lnx-wqe_8c.html#ac89bf5375eb44dceb24392125b9bdddb" target="_top" xlink:title="Post process the results from HFA and record found matches.">
<polygon fill="white" stroke="black" points="157,-214.5 157,-235.5 237,-235.5 237,-214.5 157,-214.5"/>
<text text-anchor="middle" x="197" y="-222.5" font-family="FreeSans" font-size="10.00">post_process</text>
</a>
</g>
<!-- Node1&#45;&gt;Node30 -->
<g id="edge66" class="edge"><title>Node1&#45;&gt;Node30</title>
<path fill="none" stroke="midnightblue" d="M53.283,-434.389C77.1529,-399.612 153.247,-288.745 183.96,-243.998"/>
<polygon fill="midnightblue" stroke="midnightblue" points="187.017,-245.73 189.79,-235.505 181.245,-241.769 187.017,-245.73"/>
</g>
<!-- Node50 -->
<g id="node111" class="node"><title>Node50</title>
<a xlink:href="app-utils_8c.html#a1f92c93fe820ec9fc9f4d8e993883b05" target="_top" xlink:title="This routine is counter part of hfautils_init_payload_attributes().">
<polygon fill="white" stroke="black" points="128,-0 128,-34 266,-34 266,-0 128,-0"/>
<text text-anchor="start" x="136" y="-21" font-family="FreeSans" font-size="10.00">hfautils_cleanup_payload</text>
<text text-anchor="middle" x="197" y="-8" font-family="FreeSans" font-size="10.00">_attributes</text>
</a>
</g>
<!-- Node1&#45;&gt;Node50 -->
<g id="edge122" class="edge"><title>Node1&#45;&gt;Node50</title>
<path fill="none" stroke="midnightblue" d="M46.8935,-434.412C51.8608,-377.763 77.6837,-110.719 128,-48 130.358,-45.0614 133.053,-42.3921 135.982,-39.9686"/>
<polygon fill="midnightblue" stroke="midnightblue" points="138.09,-42.7642 144.204,-34.1118 134.029,-37.0626 138.09,-42.7642"/>
</g>
<!-- Node3 -->
<g id="node5" class="node"><title>Node3</title>
<a xlink:href="cvm-hfa-search_8c.html#a64ba7a41c7d677da10e588a58789015b" target="_top" xlink:title="This routine initializes a Search Context.">
<polygon fill="white" stroke="black" points="314.5,-688.5 314.5,-709.5 441.5,-709.5 441.5,-688.5 314.5,-688.5"/>
<text text-anchor="middle" x="378" y="-696.5" font-family="FreeSans" font-size="10.00">hfa_dev_searchctx_init</text>
</a>
</g>
<!-- Node2&#45;&gt;Node3 -->
<g id="edge4" class="edge"><title>Node2&#45;&gt;Node3</title>
<path fill="none" stroke="midnightblue" d="M235.385,-714.759C255.452,-712.541 280.705,-709.751 304.363,-707.137"/>
<polygon fill="midnightblue" stroke="midnightblue" points="304.83,-710.606 314.385,-706.029 304.061,-703.649 304.83,-710.606"/>
</g>
<!-- Node7 -->
<g id="node13" class="node"><title>Node7</title>
<a xlink:href="cvm-hfa-search_8c.html#a954753c0e6f4a59599d05f1262a25b38" target="_top" xlink:title="This routine associates a graph with sctx.">
<polygon fill="white" stroke="black" points="312,-808.5 312,-829.5 444,-829.5 444,-808.5 312,-808.5"/>
<text text-anchor="middle" x="378" y="-816.5" font-family="FreeSans" font-size="10.00">hfa_searchctx_setgraph</text>
</a>
</g>
<!-- Node2&#45;&gt;Node7 -->
<g id="edge12" class="edge"><title>Node2&#45;&gt;Node7</title>
<path fill="none" stroke="midnightblue" d="M216.028,-729.513C248.075,-747.218 312.949,-783.06 350.135,-803.605"/>
<polygon fill="midnightblue" stroke="midnightblue" points="348.51,-806.706 358.955,-808.478 351.895,-800.579 348.51,-806.706"/>
</g>
<!-- Node11 -->
<g id="node22" class="node"><title>Node11</title>
<a xlink:href="cvm-hfa-search_8c.html#a60c8025118f6a47f924733e47db8c77d" target="_top" xlink:title="This routine is used to specify settings used during the search and getmatches API.">
<polygon fill="white" stroke="black" points="314,-728.5 314,-749.5 442,-749.5 442,-728.5 314,-728.5"/>
<text text-anchor="middle" x="378" y="-736.5" font-family="FreeSans" font-size="10.00">hfa_searchctx_setflags</text>
</a>
</g>
<!-- Node2&#45;&gt;Node11 -->
<g id="edge22" class="edge"><title>Node2&#45;&gt;Node11</title>
<path fill="none" stroke="midnightblue" d="M235.385,-723.241C255.271,-725.439 280.248,-728.199 303.72,-730.792"/>
<polygon fill="midnightblue" stroke="midnightblue" points="303.345,-734.272 313.669,-731.892 304.113,-727.314 303.345,-734.272"/>
</g>
<!-- Node4 -->
<g id="node7" class="node"><title>Node4</title>
<a xlink:href="cvm-hfa-stats_8c.html#a1cff986555a79b0d5ccee49801cb0056" target="_top" xlink:title="This routine allocates the memory for counters to maintain the statistics of search context...">
<polygon fill="white" stroke="black" points="493.5,-688.5 493.5,-709.5 624.5,-709.5 624.5,-688.5 493.5,-688.5"/>
<text text-anchor="middle" x="559" y="-696.5" font-family="FreeSans" font-size="10.00">hfa_searchctx_stats_init</text>
</a>
</g>
<!-- Node3&#45;&gt;Node4 -->
<g id="edge6" class="edge"><title>Node3&#45;&gt;Node4</title>
<path fill="none" stroke="midnightblue" d="M441.559,-699C455.084,-699 469.492,-699 483.415,-699"/>
<polygon fill="midnightblue" stroke="midnightblue" points="483.448,-702.5 493.448,-699 483.448,-695.5 483.448,-702.5"/>
</g>
<!-- Node5 -->
<g id="node9" class="node"><title>Node5</title>
<a xlink:href="cvm-hfa-stats_8c.html#acbdfa65e476c04cd9b67b7c462eefe56" target="_top" xlink:title="This routine allocates required memory from STATS ARENA.">
<polygon fill="white" stroke="black" points="664.5,-688.5 664.5,-709.5 793.5,-709.5 793.5,-688.5 664.5,-688.5"/>
<text text-anchor="middle" x="729" y="-696.5" font-family="FreeSans" font-size="10.00">hfa_stats_memoryalloc</text>
</a>
</g>
<!-- Node4&#45;&gt;Node5 -->
<g id="edge8" class="edge"><title>Node4&#45;&gt;Node5</title>
<path fill="none" stroke="midnightblue" d="M624.726,-699C634.365,-699 644.353,-699 654.159,-699"/>
<polygon fill="midnightblue" stroke="midnightblue" points="654.288,-702.5 664.288,-699 654.288,-695.5 654.288,-702.5"/>
</g>
<!-- Node6 -->
<g id="node11" class="node"><title>Node6</title>
<a xlink:href="cvm-hfa-stats_8c.html#a7a2acbe48c3850d43256938ee996aa16" target="_top" xlink:title="This routine frees memory to STATS ARENA.">
<polygon fill="white" stroke="black" points="666.5,-645.5 666.5,-666.5 791.5,-666.5 791.5,-645.5 666.5,-645.5"/>
<text text-anchor="middle" x="729" y="-653.5" font-family="FreeSans" font-size="10.00">hfa_stats_memoryfree</text>
</a>
</g>
<!-- Node4&#45;&gt;Node6 -->
<g id="edge10" class="edge"><title>Node4&#45;&gt;Node6</title>
<path fill="none" stroke="midnightblue" d="M600.587,-688.481C623.74,-682.625 652.769,-675.282 677.366,-669.06"/>
<polygon fill="midnightblue" stroke="midnightblue" points="678.417,-672.405 687.253,-666.559 676.7,-665.619 678.417,-672.405"/>
</g>
<!-- Node8 -->
<g id="node15" class="node"><title>Node8</title>
<a xlink:href="cvm-hfa-pp_8c.html#a9ad01b0f0de0f65b99a53f6c64f147e2" target="_top" xlink:title="ppinit">
<polygon fill="white" stroke="black" points="708,-827.5 708,-848.5 750,-848.5 750,-827.5 708,-827.5"/>
<text text-anchor="middle" x="729" y="-835.5" font-family="FreeSans" font-size="10.00">ppinit</text>
</a>
</g>
<!-- Node7&#45;&gt;Node8 -->
<g id="edge14" class="edge"><title>Node7&#45;&gt;Node8</title>
<path fill="none" stroke="midnightblue" d="M426.263,-829.544C445.928,-833.335 468.948,-837.135 490,-839 551.094,-844.412 566.667,-839.304 628,-839 651.336,-838.884 677.705,-838.619 697.646,-838.39"/>
<polygon fill="midnightblue" stroke="midnightblue" points="697.762,-841.889 707.72,-838.272 697.68,-834.89 697.762,-841.889"/>
</g>
<!-- Node10 -->
<g id="node19" class="node"><title>Node10</title>
<a xlink:href="cvm-hfa-search_8c.html#a3200f5303f0611887f35dd500e7a8d00" target="_top" xlink:title="This is a utility routine which associates an application&#45;specifc cookie in the sctx.">
<polygon fill="white" stroke="black" points="490,-808.5 490,-829.5 628,-829.5 628,-808.5 490,-808.5"/>
<text text-anchor="middle" x="559" y="-816.5" font-family="FreeSans" font-size="10.00">hfa_searchctx_setppuarg</text>
</a>
</g>
<!-- Node7&#45;&gt;Node10 -->
<g id="edge18" class="edge"><title>Node7&#45;&gt;Node10</title>
<path fill="none" stroke="midnightblue" d="M444.113,-819C455.595,-819 467.643,-819 479.439,-819"/>
<polygon fill="midnightblue" stroke="midnightblue" points="479.72,-822.5 489.72,-819 479.72,-815.5 479.72,-822.5"/>
</g>
<!-- Node9 -->
<g id="node17" class="node"><title>Node9</title>
<a xlink:href="pp_8h.html#adc8d105abb8f12812385bb87d15e6e32" target="_top" xlink:title="pphfa_init">
<polygon fill="white" stroke="black" points="830.5,-827.5 830.5,-848.5 893.5,-848.5 893.5,-827.5 830.5,-827.5"/>
<text text-anchor="middle" x="862" y="-835.5" font-family="FreeSans" font-size="10.00">pphfa_init</text>
</a>
</g>
<!-- Node8&#45;&gt;Node9 -->
<g id="edge16" class="edge"><title>Node8&#45;&gt;Node9</title>
<path fill="none" stroke="midnightblue" d="M750.074,-838C768.897,-838 797.02,-838 820.366,-838"/>
<polygon fill="midnightblue" stroke="midnightblue" points="820.371,-841.5 830.371,-838 820.371,-834.5 820.371,-841.5"/>
</g>
<!-- Node10&#45;&gt;Node8 -->
<g id="edge20" class="edge"><title>Node10&#45;&gt;Node8</title>
<path fill="none" stroke="midnightblue" d="M628.146,-826.728C652.345,-829.433 678.321,-832.336 697.85,-834.519"/>
<polygon fill="midnightblue" stroke="midnightblue" points="697.657,-838.019 707.984,-835.651 698.435,-831.062 697.657,-838.019"/>
</g>
<!-- Node12 -->
<g id="node24" class="node"><title>Node12</title>
<a xlink:href="cvm-hfa-pp_8c.html#add6064138ec2e35741929056a0992d8d" target="_top" xlink:title="ppgetstats">
<polygon fill="white" stroke="black" points="526,-728.5 526,-749.5 592,-749.5 592,-728.5 526,-728.5"/>
<text text-anchor="middle" x="559" y="-736.5" font-family="FreeSans" font-size="10.00">ppgetstats</text>
</a>
</g>
<!-- Node11&#45;&gt;Node12 -->
<g id="edge24" class="edge"><title>Node11&#45;&gt;Node12</title>
<path fill="none" stroke="midnightblue" d="M442.069,-739C466.475,-739 493.692,-739 515.723,-739"/>
<polygon fill="midnightblue" stroke="midnightblue" points="515.768,-742.5 525.768,-739 515.768,-735.5 515.768,-742.5"/>
</g>
<!-- Node14 -->
<g id="node28" class="node"><title>Node14</title>
<a xlink:href="cvm-hfa-pp_8c.html#a73cd0d7244d64410753dac7b809d2060" target="_top" xlink:title="ppassignstats">
<polygon fill="white" stroke="black" points="518.5,-768.5 518.5,-789.5 599.5,-789.5 599.5,-768.5 518.5,-768.5"/>
<text text-anchor="middle" x="559" y="-776.5" font-family="FreeSans" font-size="10.00">ppassignstats</text>
</a>
</g>
<!-- Node11&#45;&gt;Node14 -->
<g id="edge28" class="edge"><title>Node11&#45;&gt;Node14</title>
<path fill="none" stroke="midnightblue" d="M425.556,-749.51C450.984,-755.129 482.3,-762.05 508.204,-767.774"/>
<polygon fill="midnightblue" stroke="midnightblue" points="507.688,-771.245 518.207,-769.985 509.198,-764.41 507.688,-771.245"/>
</g>
<!-- Node13 -->
<g id="node26" class="node"><title>Node13</title>
<a xlink:href="pp_8h.html#a808d5057ee5670ce724a6a88fc22b799" target="_top" xlink:title="pphfa_getstats">
<polygon fill="white" stroke="black" points="685.5,-728.5 685.5,-749.5 772.5,-749.5 772.5,-728.5 685.5,-728.5"/>
<text text-anchor="middle" x="729" y="-736.5" font-family="FreeSans" font-size="10.00">pphfa_getstats</text>
</a>
</g>
<!-- Node12&#45;&gt;Node13 -->
<g id="edge26" class="edge"><title>Node12&#45;&gt;Node13</title>
<path fill="none" stroke="midnightblue" d="M592.181,-739C615.744,-739 647.896,-739 675.113,-739"/>
<polygon fill="midnightblue" stroke="midnightblue" points="675.273,-742.5 685.273,-739 675.273,-735.5 675.273,-742.5"/>
</g>
<!-- Node15 -->
<g id="node30" class="node"><title>Node15</title>
<a xlink:href="pp_8h.html#ad0cc4aeca687557949697bef25cdb764" target="_top" xlink:title="pphfa_assignstats">
<polygon fill="white" stroke="black" points="678,-768.5 678,-789.5 780,-789.5 780,-768.5 678,-768.5"/>
<text text-anchor="middle" x="729" y="-776.5" font-family="FreeSans" font-size="10.00">pphfa_assignstats</text>
</a>
</g>
<!-- Node14&#45;&gt;Node15 -->
<g id="edge30" class="edge"><title>Node14&#45;&gt;Node15</title>
<path fill="none" stroke="midnightblue" d="M599.719,-779C620.078,-779 645.139,-779 667.758,-779"/>
<polygon fill="midnightblue" stroke="midnightblue" points="667.954,-782.5 677.954,-779 667.954,-775.5 667.954,-782.5"/>
</g>
<!-- Node17 -->
<g id="node34" class="node"><title>Node17</title>
<a xlink:href="cvm-hfa-search_8c.html#a30064f173d814bd3791b59d675c2f45f" target="_top" xlink:title="This routine cleans&#45;up a Search Context.">
<polygon fill="white" stroke="black" points="302,-596.5 302,-617.5 454,-617.5 454,-596.5 302,-596.5"/>
<text text-anchor="middle" x="378" y="-604.5" font-family="FreeSans" font-size="10.00">hfa_dev_searchctx_cleanup</text>
</a>
</g>
<!-- Node16&#45;&gt;Node17 -->
<g id="edge34" class="edge"><title>Node16&#45;&gt;Node17</title>
<path fill="none" stroke="midnightblue" d="M234.503,-591.144C251.157,-592.984 271.506,-595.233 291.587,-597.452"/>
<polygon fill="midnightblue" stroke="midnightblue" points="291.399,-600.952 301.723,-598.572 292.168,-593.994 291.399,-600.952"/>
</g>
<!-- Node17&#45;&gt;Node12 -->
<g id="edge36" class="edge"><title>Node17&#45;&gt;Node12</title>
<path fill="none" stroke="midnightblue" d="M389.865,-617.697C405.061,-631.519 432.052,-656.484 454,-679 470.695,-696.127 469.736,-706.294 490,-719 497.915,-723.963 507.106,-727.734 516.148,-730.586"/>
<polygon fill="midnightblue" stroke="midnightblue" points="515.258,-733.971 525.834,-733.332 517.168,-727.237 515.258,-733.971"/>
</g>
<!-- Node18 -->
<g id="node37" class="node"><title>Node18</title>
<a xlink:href="cvm-hfa-pp_8c.html#a57ec655c9bdb6ce63ada6767c7e14763" target="_top" xlink:title="ppcleanstats">
<polygon fill="white" stroke="black" points="520.5,-596.5 520.5,-617.5 597.5,-617.5 597.5,-596.5 520.5,-596.5"/>
<text text-anchor="middle" x="559" y="-604.5" font-family="FreeSans" font-size="10.00">ppcleanstats</text>
</a>
</g>
<!-- Node17&#45;&gt;Node18 -->
<g id="edge38" class="edge"><title>Node17&#45;&gt;Node18</title>
<path fill="none" stroke="midnightblue" d="M454.236,-607C473.118,-607 492.849,-607 510.031,-607"/>
<polygon fill="midnightblue" stroke="midnightblue" points="510.369,-610.5 520.369,-607 510.369,-603.5 510.369,-610.5"/>
</g>
<!-- Node20 -->
<g id="node41" class="node"><title>Node20</title>
<a xlink:href="cvm-hfa-pp_8c.html#a41ce9d3103c639e474783d3843e09071" target="_top" xlink:title="ppcleanup">
<polygon fill="white" stroke="black" points="526,-556.5 526,-577.5 592,-577.5 592,-556.5 526,-556.5"/>
<text text-anchor="middle" x="559" y="-564.5" font-family="FreeSans" font-size="10.00">ppcleanup</text>
</a>
</g>
<!-- Node17&#45;&gt;Node20 -->
<g id="edge42" class="edge"><title>Node17&#45;&gt;Node20</title>
<path fill="none" stroke="midnightblue" d="M425.556,-596.49C453.511,-590.312 488.584,-582.562 515.756,-576.557"/>
<polygon fill="midnightblue" stroke="midnightblue" points="516.743,-579.923 525.752,-574.348 515.233,-573.088 516.743,-579.923"/>
</g>
<!-- Node22 -->
<g id="node45" class="node"><title>Node22</title>
<a xlink:href="cvm-hfa-stats_8c.html#a2df4c76e04e7b028ed2df4bba1b2de3d" target="_top" xlink:title="This routine is the counterpart of hfa_searchctx_init_stats().">
<polygon fill="white" stroke="black" points="502.5,-636 502.5,-670 615.5,-670 615.5,-636 502.5,-636"/>
<text text-anchor="start" x="510.5" y="-657" font-family="FreeSans" font-size="10.00">hfa_searchctx_stats</text>
<text text-anchor="middle" x="559" y="-644" font-family="FreeSans" font-size="10.00">_cleanup</text>
</a>
</g>
<!-- Node17&#45;&gt;Node22 -->
<g id="edge46" class="edge"><title>Node17&#45;&gt;Node22</title>
<path fill="none" stroke="midnightblue" d="M419.525,-617.553C441.082,-623.032 467.944,-629.859 492.323,-636.054"/>
<polygon fill="midnightblue" stroke="midnightblue" points="491.684,-639.503 502.238,-638.574 493.408,-632.719 491.684,-639.503"/>
</g>
<!-- Node19 -->
<g id="node39" class="node"><title>Node19</title>
<a xlink:href="pp_8h.html#a978b171bd7a736cb7fa0d5d034aa94e2" target="_top" xlink:title="pphfa_cleanstats">
<polygon fill="white" stroke="black" points="680,-596.5 680,-617.5 778,-617.5 778,-596.5 680,-596.5"/>
<text text-anchor="middle" x="729" y="-604.5" font-family="FreeSans" font-size="10.00">pphfa_cleanstats</text>
</a>
</g>
<!-- Node18&#45;&gt;Node19 -->
<g id="edge40" class="edge"><title>Node18&#45;&gt;Node19</title>
<path fill="none" stroke="midnightblue" d="M597.576,-607C618.919,-607 645.897,-607 669.848,-607"/>
<polygon fill="midnightblue" stroke="midnightblue" points="669.902,-610.5 679.902,-607 669.902,-603.5 669.902,-610.5"/>
</g>
<!-- Node21 -->
<g id="node43" class="node"><title>Node21</title>
<a xlink:href="pp_8h.html#a428ad073d1fd72da37ab8b00f13693a3" target="_top" xlink:title="pphfa_cleanup">
<polygon fill="white" stroke="black" points="685.5,-556.5 685.5,-577.5 772.5,-577.5 772.5,-556.5 685.5,-556.5"/>
<text text-anchor="middle" x="729" y="-564.5" font-family="FreeSans" font-size="10.00">pphfa_cleanup</text>
</a>
</g>
<!-- Node20&#45;&gt;Node21 -->
<g id="edge44" class="edge"><title>Node20&#45;&gt;Node21</title>
<path fill="none" stroke="midnightblue" d="M592.181,-567C615.744,-567 647.896,-567 675.113,-567"/>
<polygon fill="midnightblue" stroke="midnightblue" points="675.273,-570.5 685.273,-567 675.273,-563.5 675.273,-570.5"/>
</g>
<!-- Node22&#45;&gt;Node6 -->
<g id="edge48" class="edge"><title>Node22&#45;&gt;Node6</title>
<path fill="none" stroke="midnightblue" d="M615.608,-653.999C628.615,-654.229 642.625,-654.476 656.21,-654.715"/>
<polygon fill="midnightblue" stroke="midnightblue" points="656.432,-658.22 666.492,-654.897 656.556,-651.221 656.432,-658.22"/>
</g>
<!-- Node24 -->
<g id="node50" class="node"><title>Node24</title>
<a xlink:href="app-utils_8c.html#a7fbf4d982c3e4493bda83be020e7274c" target="_top" xlink:title="Read file data from a gzip&#45;stream(compressed or uncompressed).">
<polygon fill="white" stroke="black" points="1252.5,-407.5 1252.5,-428.5 1305.5,-428.5 1305.5,-407.5 1252.5,-407.5"/>
<text text-anchor="middle" x="1279" y="-415.5" font-family="FreeSans" font-size="10.00">fd_read</text>
</a>
</g>
<!-- Node23&#45;&gt;Node24 -->
<g id="edge52" class="edge"><title>Node23&#45;&gt;Node24</title>
<path fill="none" stroke="midnightblue" d="M1202.33,-391.012C1215.77,-395.744 1230.14,-400.801 1242.76,-405.244"/>
<polygon fill="midnightblue" stroke="midnightblue" points="1241.86,-408.638 1252.46,-408.657 1244.19,-402.035 1241.86,-408.638"/>
</g>
<!-- Node25&#45;&gt;Node24 -->
<g id="edge56" class="edge"><title>Node25&#45;&gt;Node24</title>
<path fill="none" stroke="midnightblue" d="M1027.21,-495.473C1081.51,-478.766 1186.95,-446.325 1242.59,-429.204"/>
<polygon fill="midnightblue" stroke="midnightblue" points="1243.85,-432.479 1252.37,-426.193 1241.79,-425.788 1243.85,-432.479"/>
</g>
<!-- Node27 -->
<g id="node57" class="node"><title>Node27</title>
<a xlink:href="cvm-hfa-search_8h.html#a3c407460808f038770473ffc6e4b5c38" target="_top" xlink:title="This routine adds a new input IO vector to Search Param.">
<polygon fill="white" stroke="black" points="317.5,-376 317.5,-410 438.5,-410 438.5,-376 317.5,-376"/>
<text text-anchor="start" x="325.5" y="-397" font-family="FreeSans" font-size="10.00">hfa_searchparam_set</text>
<text text-anchor="middle" x="378" y="-384" font-family="FreeSans" font-size="10.00">_inputiovec</text>
</a>
</g>
<!-- Node26&#45;&gt;Node27 -->
<g id="edge60" class="edge"><title>Node26&#45;&gt;Node27</title>
<path fill="none" stroke="midnightblue" d="M233.628,-434.477C255.245,-428.267 283.309,-420.204 308.939,-412.841"/>
<polygon fill="midnightblue" stroke="midnightblue" points="309.979,-416.183 318.624,-410.058 308.046,-409.456 309.979,-416.183"/>
</g>
<!-- Node28 -->
<g id="node59" class="node"><title>Node28</title>
<a xlink:href="cvm-hfa-search_8h.html#a12882fa53f8ec49b9b2950711161db42" target="_top" xlink:title="This routine sets the output buffer in the sparam.">
<polygon fill="white" stroke="black" points="932.5,-443 932.5,-477 1053.5,-477 1053.5,-443 932.5,-443"/>
<text text-anchor="start" x="940.5" y="-464" font-family="FreeSans" font-size="10.00">hfa_searchparam_set</text>
<text text-anchor="middle" x="993" y="-451" font-family="FreeSans" font-size="10.00">_output</text>
</a>
</g>
<!-- Node26&#45;&gt;Node28 -->
<g id="edge62" class="edge"><title>Node26&#45;&gt;Node28</title>
<path fill="none" stroke="midnightblue" d="M233.135,-455.551C253.241,-461.015 278.819,-467.3 302,-471 415.103,-489.051 444.466,-490 559,-490 559,-490 559,-490 729,-490 794.87,-490 869.396,-480.666 922.428,-472.411"/>
<polygon fill="midnightblue" stroke="midnightblue" points="923.076,-475.852 932.405,-470.831 921.981,-468.938 923.076,-475.852"/>
</g>
<!-- Node29 -->
<g id="node61" class="node"><title>Node29</title>
<a xlink:href="cvm-hfa-search_8c.html#a0c36da280b39bd8afdf6081baea24472" target="_top" xlink:title="This routine performs a pattern search using the given parameters in a non&#45;blocking manner...">
<polygon fill="white" stroke="black" points="316.5,-428 316.5,-462 439.5,-462 439.5,-428 316.5,-428"/>
<text text-anchor="start" x="324.5" y="-449" font-family="FreeSans" font-size="10.00">hfa_searchctx_search</text>
<text text-anchor="middle" x="378" y="-436" font-family="FreeSans" font-size="10.00">_async</text>
</a>
</g>
<!-- Node26&#45;&gt;Node29 -->
<g id="edge64" class="edge"><title>Node26&#45;&gt;Node29</title>
<path fill="none" stroke="midnightblue" d="M234.065,-445C254.881,-445 281.574,-445 306.306,-445"/>
<polygon fill="midnightblue" stroke="midnightblue" points="306.397,-448.5 316.397,-445 306.397,-441.5 306.397,-448.5"/>
</g>
<!-- Node31 -->
<g id="node65" class="node"><title>Node31</title>
<a xlink:href="cvm-hfa-search_8h.html#ab50a2d84e35b5a4a03a23fc90e4dffa0" target="_top" xlink:title="This routine retrieves the reason code after a search operation has been completed by the HFA engine...">
<polygon fill="white" stroke="black" points="932,-111 932,-145 1054,-145 1054,-111 932,-111"/>
<text text-anchor="start" x="940" y="-132" font-family="FreeSans" font-size="10.00">hfa_searchparam_get</text>
<text text-anchor="middle" x="993" y="-119" font-family="FreeSans" font-size="10.00">_hwsearch_reason</text>
</a>
</g>
<!-- Node30&#45;&gt;Node31 -->
<g id="edge68" class="edge"><title>Node30&#45;&gt;Node31</title>
<path fill="none" stroke="midnightblue" d="M205.452,-214.211C221.727,-194.314 259.579,-152.128 302,-133 406.981,-85.6636 443.84,-100 559,-100 559,-100 559,-100 729,-100 794.599,-100 868.858,-108.655 921.872,-116.341"/>
<polygon fill="midnightblue" stroke="midnightblue" points="921.445,-119.816 931.849,-117.812 922.467,-112.891 921.445,-119.816"/>
</g>
<!-- Node32 -->
<g id="node67" class="node"><title>Node32</title>
<a xlink:href="cvm-hfa-common_8h.html#ad117ba199386b8d427cbb04f288b5905" target="_top" xlink:title="Dump HFA related registers.">
<polygon fill="white" stroke="black" points="947.5,-403.5 947.5,-424.5 1038.5,-424.5 1038.5,-403.5 947.5,-403.5"/>
<text text-anchor="middle" x="993" y="-411.5" font-family="FreeSans" font-size="10.00">hfa_dump_regs</text>
</a>
</g>
<!-- Node30&#45;&gt;Node32 -->
<g id="edge70" class="edge"><title>Node30&#45;&gt;Node32</title>
<path fill="none" stroke="midnightblue" d="M211.066,-235.642C230.721,-250.212 267.838,-276.651 302,-295 381.844,-337.886 403.589,-346.662 490,-374 565.469,-397.877 585.354,-403.033 664,-412 737.308,-420.359 756.218,-413.556 830,-414 865.594,-414.214 905.56,-414.218 937.01,-414.166"/>
<polygon fill="midnightblue" stroke="midnightblue" points="937.337,-417.666 947.33,-414.147 937.324,-410.666 937.337,-417.666"/>
</g>
<!-- Node33 -->
<g id="node69" class="node"><title>Node33</title>
<a xlink:href="cvm-hfa-search_8h.html#ad18e328b50b109e1e44821f3d006bd9d" target="_top" xlink:title="This routine returns the data&#45;buffer offset.">
<polygon fill="white" stroke="black" points="932,-289 932,-323 1054,-323 1054,-289 932,-289"/>
<text text-anchor="start" x="940" y="-310" font-family="FreeSans" font-size="10.00">hfa_searchparam_get</text>
<text text-anchor="middle" x="993" y="-297" font-family="FreeSans" font-size="10.00">_hwsearch_pdboff</text>
</a>
</g>
<!-- Node30&#45;&gt;Node33 -->
<g id="edge72" class="edge"><title>Node30&#45;&gt;Node33</title>
<path fill="none" stroke="midnightblue" d="M237.205,-215.956C303.762,-201.797 441.197,-176 559,-176 559,-176 559,-176 729,-176 823.988,-176 920.256,-244.573 965.84,-282.112"/>
<polygon fill="midnightblue" stroke="midnightblue" points="963.836,-284.999 973.75,-288.737 968.331,-279.633 963.836,-284.999"/>
</g>
<!-- Node34 -->
<g id="node71" class="node"><title>Node34</title>
<a xlink:href="cvm-hfa-search_8c.html#a6dbb15dc58155b2c94b19784ad42ef89" target="_top" xlink:title="This routine post&#45;processes the search results from the HFA engine and reports the pattern matches fo...">
<polygon fill="white" stroke="black" points="304.5,-264.5 304.5,-285.5 451.5,-285.5 451.5,-264.5 304.5,-264.5"/>
<text text-anchor="middle" x="378" y="-272.5" font-family="FreeSans" font-size="10.00">hfa_searchctx_getmatches</text>
</a>
</g>
<!-- Node30&#45;&gt;Node34 -->
<g id="edge74" class="edge"><title>Node30&#45;&gt;Node34</title>
<path fill="none" stroke="midnightblue" d="M235.385,-235.604C263.075,-243.253 300.639,-253.63 330.264,-261.813"/>
<polygon fill="midnightblue" stroke="midnightblue" points="329.41,-265.208 339.981,-264.497 331.274,-258.461 329.41,-265.208"/>
</g>
<!-- Node42 -->
<g id="node94" class="node"><title>Node42</title>
<a xlink:href="app-utils_8c.html#a633038357891aa5147b77fe939f300bf" target="_top" xlink:title="Print pattern matches via match buffer and cleanup all matches.">
<polygon fill="white" stroke="black" points="931,-204.5 931,-225.5 1055,-225.5 1055,-204.5 931,-204.5"/>
<text text-anchor="middle" x="993" y="-212.5" font-family="FreeSans" font-size="10.00">hfautils_print_matches</text>
</a>
</g>
<!-- Node30&#45;&gt;Node42 -->
<g id="edge120" class="edge"><title>Node30&#45;&gt;Node42</title>
<path fill="none" stroke="midnightblue" d="M210.289,-214.301C229.325,-199.641 266.042,-173.787 302,-162 411.012,-126.265 444.281,-138 559,-138 559,-138 559,-138 729,-138 803.105,-138 823.61,-138.831 894,-162 921.017,-170.893 949.394,-186.863 968.806,-198.956"/>
<polygon fill="midnightblue" stroke="midnightblue" points="966.997,-201.953 977.313,-204.366 970.753,-196.046 966.997,-201.953"/>
</g>
<!-- Node35 -->
<g id="node73" class="node"><title>Node35</title>
<a xlink:href="cvm-hfa-common_8h.html#a0da7c57174fb96d75ae9cc2ed3116a05" target="_top" xlink:title="Dump buffer pointed by &quot;buf&quot; in readable format.">
<polygon fill="white" stroke="black" points="516,-244.5 516,-265.5 602,-265.5 602,-244.5 516,-244.5"/>
<text text-anchor="middle" x="559" y="-252.5" font-family="FreeSans" font-size="10.00">hfa_dump_buf</text>
</a>
</g>
<!-- Node34&#45;&gt;Node35 -->
<g id="edge76" class="edge"><title>Node34&#45;&gt;Node35</title>
<path fill="none" stroke="midnightblue" d="M451.62,-266.865C469.694,-264.868 488.7,-262.768 505.613,-260.899"/>
<polygon fill="midnightblue" stroke="midnightblue" points="506.292,-264.345 515.847,-259.768 505.523,-257.388 506.292,-264.345"/>
</g>
<!-- Node36 -->
<g id="node75" class="node"><title>Node36</title>
<a xlink:href="cvm-hfa-pp_8c.html#a02d24f276578f8a39a93968262a08f1d" target="_top" xlink:title="pp">
<polygon fill="white" stroke="black" points="544.5,-284.5 544.5,-305.5 573.5,-305.5 573.5,-284.5 544.5,-284.5"/>
<text text-anchor="middle" x="559" y="-292.5" font-family="FreeSans" font-size="10.00">pp</text>
</a>
</g>
<!-- Node34&#45;&gt;Node36 -->
<g id="edge78" class="edge"><title>Node34&#45;&gt;Node36</title>
<path fill="none" stroke="midnightblue" d="M451.62,-283.135C480.957,-286.376 512.748,-289.889 534.064,-292.245"/>
<polygon fill="midnightblue" stroke="midnightblue" points="533.864,-295.744 544.188,-293.363 534.633,-288.786 533.864,-295.744"/>
</g>
<!-- Node37 -->
<g id="node77" class="node"><title>Node37</title>
<a xlink:href="pp_8h.html#af7a68f9e08d3b54012ad008a4f47e1cd" target="_top" xlink:title="pphfa">
<polygon fill="white" stroke="black" points="707,-324.5 707,-345.5 751,-345.5 751,-324.5 707,-324.5"/>
<text text-anchor="middle" x="729" y="-332.5" font-family="FreeSans" font-size="10.00">pphfa</text>
</a>
</g>
<!-- Node36&#45;&gt;Node37 -->
<g id="edge80" class="edge"><title>Node36&#45;&gt;Node37</title>
<path fill="none" stroke="midnightblue" d="M573.789,-298.48C601.183,-304.925 660.379,-318.854 697.232,-327.525"/>
<polygon fill="midnightblue" stroke="midnightblue" points="696.453,-330.937 706.988,-329.821 698.056,-324.123 696.453,-330.937"/>
</g>
<!-- Node38 -->
<g id="node79" class="node"><title>Node38</title>
<a xlink:href="cvm-hfa-res_8c.html#ad0de0b790a5786053d59797884dbdd23" target="_top" xlink:title="Rinit">
<polygon fill="white" stroke="black" points="711,-284.5 711,-305.5 747,-305.5 747,-284.5 711,-284.5"/>
<text text-anchor="middle" x="729" y="-292.5" font-family="FreeSans" font-size="10.00">Rinit</text>
</a>
</g>
<!-- Node36&#45;&gt;Node38 -->
<g id="edge82" class="edge"><title>Node36&#45;&gt;Node38</title>
<path fill="none" stroke="midnightblue" d="M573.789,-295C601.974,-295 663.823,-295 700.366,-295"/>
<polygon fill="midnightblue" stroke="midnightblue" points="700.829,-298.5 710.829,-295 700.829,-291.5 700.829,-298.5"/>
</g>
<!-- Node39 -->
<g id="node81" class="node"><title>Node39</title>
<a xlink:href="cvm-hfa-pp_8c.html#adcc1149c628372e2e566c246870929cb" target="_top" xlink:title="infoentry">
<polygon fill="white" stroke="black" points="699.5,-364.5 699.5,-385.5 758.5,-385.5 758.5,-364.5 699.5,-364.5"/>
<text text-anchor="middle" x="729" y="-372.5" font-family="FreeSans" font-size="10.00">infoentry</text>
</a>
</g>
<!-- Node36&#45;&gt;Node39 -->
<g id="edge84" class="edge"><title>Node36&#45;&gt;Node39</title>
<path fill="none" stroke="midnightblue" d="M573.758,-304.832C593.599,-317.719 630.286,-340.394 664,-355 672.098,-358.508 681.009,-361.673 689.568,-364.396"/>
<polygon fill="midnightblue" stroke="midnightblue" points="688.797,-367.82 699.383,-367.383 690.835,-361.123 688.797,-367.82"/>
</g>
<!-- Node47 -->
<g id="node104" class="node"><title>Node47</title>
<a xlink:href="cvm-hfa-res_8c.html#a6c56aa24fa6551b23e4283ae2d5bcad8" target="_top" xlink:title="Rreport1">
<polygon fill="white" stroke="black" points="700.5,-244.5 700.5,-265.5 757.5,-265.5 757.5,-244.5 700.5,-244.5"/>
<text text-anchor="middle" x="729" y="-252.5" font-family="FreeSans" font-size="10.00">Rreport1</text>
</a>
</g>
<!-- Node36&#45;&gt;Node47 -->
<g id="edge114" class="edge"><title>Node36&#45;&gt;Node47</title>
<path fill="none" stroke="midnightblue" d="M573.789,-291.52C599.559,-285.457 653.47,-272.772 690.451,-264.07"/>
<polygon fill="midnightblue" stroke="midnightblue" points="691.463,-267.428 700.395,-261.731 689.859,-260.614 691.463,-267.428"/>
</g>
<!-- Node49 -->
<g id="node108" class="node"><title>Node49</title>
<a xlink:href="cvm-hfa-res_8c.html#a38aa04fce135199ec3bb8726da163846" target="_top" xlink:title="Rfinish">
<polygon fill="white" stroke="black" points="705,-204.5 705,-225.5 753,-225.5 753,-204.5 705,-204.5"/>
<text text-anchor="middle" x="729" y="-212.5" font-family="FreeSans" font-size="10.00">Rfinish</text>
</a>
</g>
<!-- Node36&#45;&gt;Node49 -->
<g id="edge118" class="edge"><title>Node36&#45;&gt;Node49</title>
<path fill="none" stroke="midnightblue" d="M573.699,-293.144C588.367,-290.763 611.093,-285.601 628,-275 648.264,-262.294 643.841,-247.871 664,-235 673.351,-229.029 684.595,-224.747 695.083,-221.718"/>
<polygon fill="midnightblue" stroke="midnightblue" points="696.023,-225.09 704.819,-219.184 694.26,-218.316 696.023,-225.09"/>
</g>
<!-- Node40 -->
<g id="node83" class="node"><title>Node40</title>
<a xlink:href="hfa-lnx_8c.html#a78ffddbcd7cdd164889cfb53ea367886" target="_top" xlink:title="entry">
<polygon fill="white" stroke="red" points="841.5,-383.5 841.5,-404.5 882.5,-404.5 882.5,-383.5 841.5,-383.5"/>
<text text-anchor="middle" x="862" y="-391.5" font-family="FreeSans" font-size="10.00">entry</text>
</a>
</g>
<!-- Node39&#45;&gt;Node40 -->
<g id="edge86" class="edge"><title>Node39&#45;&gt;Node40</title>
<path fill="none" stroke="midnightblue" d="M758.517,-379.217C780.089,-382.298 809.273,-386.468 831.15,-389.593"/>
<polygon fill="midnightblue" stroke="midnightblue" points="830.843,-393.084 841.237,-391.034 831.833,-386.155 830.843,-393.084"/>
</g>
<!-- Node46 -->
<g id="node102" class="node"><title>Node46</title>
<a xlink:href="cvm-hfa-pp_8c.html#a85b4c8af06430f26eab8afdeea3a7395" target="_top" xlink:title="hashidx">
<polygon fill="white" stroke="black" points="835,-343.5 835,-364.5 889,-364.5 889,-343.5 835,-343.5"/>
<text text-anchor="middle" x="862" y="-351.5" font-family="FreeSans" font-size="10.00">hashidx</text>
</a>
</g>
<!-- Node39&#45;&gt;Node46 -->
<g id="edge112" class="edge"><title>Node39&#45;&gt;Node46</title>
<path fill="none" stroke="midnightblue" d="M758.517,-370.339C778.027,-367.259 803.763,-363.195 824.689,-359.891"/>
<polygon fill="midnightblue" stroke="midnightblue" points="825.498,-363.307 834.83,-358.29 824.406,-356.393 825.498,-363.307"/>
</g>
<!-- Node40&#45;&gt;Node25 -->
<g id="edge92" class="edge"><title>Node40&#45;&gt;Node25</title>
<path fill="none" stroke="midnightblue" d="M866.958,-404.513C876.478,-423.581 899.144,-463.932 930,-486 932.66,-487.903 935.509,-489.629 938.471,-491.196"/>
<polygon fill="midnightblue" stroke="midnightblue" points="937.078,-494.408 947.624,-495.431 940.018,-488.055 937.078,-494.408"/>
</g>
<!-- Node40&#45;&gt;Node28 -->
<g id="edge94" class="edge"><title>Node40&#45;&gt;Node28</title>
<path fill="none" stroke="midnightblue" d="M878.405,-404.53C891.959,-413.014 911.85,-424.972 930,-434 933.264,-435.624 936.656,-437.233 940.096,-438.808"/>
<polygon fill="midnightblue" stroke="midnightblue" points="938.704,-442.02 949.263,-442.884 941.548,-435.623 938.704,-442.02"/>
</g>
<!-- Node40&#45;&gt;Node31 -->
<g id="edge96" class="edge"><title>Node40&#45;&gt;Node31</title>
<path fill="none" stroke="midnightblue" d="M882.681,-384.533C886.986,-381.7 891.092,-378.202 894,-374 940.176,-307.271 892.776,-267.107 930,-195 938.37,-178.786 951.822,-163.697 964.151,-151.958"/>
<polygon fill="midnightblue" stroke="midnightblue" points="966.622,-154.441 971.626,-145.103 961.891,-149.282 966.622,-154.441"/>
</g>
<!-- Node40&#45;&gt;Node32 -->
<g id="edge98" class="edge"><title>Node40&#45;&gt;Node32</title>
<path fill="none" stroke="midnightblue" d="M882.757,-397.169C897.502,-399.42 918.041,-402.556 937.399,-405.511"/>
<polygon fill="midnightblue" stroke="midnightblue" points="936.964,-408.985 947.378,-407.035 938.021,-402.066 936.964,-408.985"/>
</g>
<!-- Node40&#45;&gt;Node33 -->
<g id="edge100" class="edge"><title>Node40&#45;&gt;Node33</title>
<path fill="none" stroke="midnightblue" d="M879.359,-383.341C884.13,-380.359 889.288,-377.089 894,-374 916.382,-359.329 941.205,-342.277 960.396,-328.919"/>
<polygon fill="midnightblue" stroke="midnightblue" points="962.59,-331.656 968.788,-323.063 958.584,-325.915 962.59,-331.656"/>
</g>
<!-- Node40&#45;&gt;Node34 -->
<g id="edge102" class="edge"><title>Node40&#45;&gt;Node34</title>
<path fill="none" stroke="midnightblue" d="M841.212,-396.839C804.85,-401.201 727.524,-407.787 664,-395 563.329,-374.736 453.931,-318.068 404.676,-290.481"/>
<polygon fill="midnightblue" stroke="midnightblue" points="406.348,-287.405 395.921,-285.527 402.9,-293.498 406.348,-287.405"/>
</g>
<!-- Node41 -->
<g id="node85" class="node"><title>Node41</title>
<a xlink:href="hfa-lnx_8c.html#a4c3443f524b4c0d95639694f0b74e850" target="_top" xlink:title="Process command line options, Read graph and payload.">
<polygon fill="white" stroke="red" points="946,-363.5 946,-384.5 1040,-384.5 1040,-363.5 946,-363.5"/>
<text text-anchor="middle" x="993" y="-371.5" font-family="FreeSans" font-size="10.00">process_options</text>
</a>
</g>
<!-- Node40&#45;&gt;Node41 -->
<g id="edge88" class="edge"><title>Node40&#45;&gt;Node41</title>
<path fill="none" stroke="midnightblue" d="M882.757,-390.831C897.129,-388.637 917.005,-385.602 935.927,-382.714"/>
<polygon fill="midnightblue" stroke="midnightblue" points="936.642,-386.145 945.999,-381.176 935.585,-379.225 936.642,-386.145"/>
</g>
<!-- Node40&#45;&gt;Node42 -->
<g id="edge104" class="edge"><title>Node40&#45;&gt;Node42</title>
<path fill="none" stroke="midnightblue" d="M882.519,-383.942C886.728,-381.167 890.835,-377.843 894,-374 922.441,-339.468 905.943,-317.718 930,-280 941.547,-261.895 958.716,-244.6 972.215,-232.407"/>
<polygon fill="midnightblue" stroke="midnightblue" points="974.86,-234.742 980.064,-225.513 970.241,-229.483 974.86,-234.742"/>
</g>
<!-- Node41&#45;&gt;Node23 -->
<g id="edge90" class="edge"><title>Node41&#45;&gt;Node23</title>
<path fill="none" stroke="midnightblue" d="M1040,-374C1054.7,-374 1071.2,-374 1087,-374"/>
<polygon fill="midnightblue" stroke="midnightblue" points="1087.25,-377.5 1097.25,-374 1087.25,-370.5 1087.25,-377.5"/>
</g>
<!-- Node43 -->
<g id="node96" class="node"><title>Node43</title>
<a xlink:href="cvm-hfa-search_8c.html#a0ac0bca99358ad294a18f86696acf218" target="_top" xlink:title="This routine returns a match by parsing through the match buffer.">
<polygon fill="white" stroke="black" points="1110,-224.5 1110,-245.5 1198,-245.5 1198,-224.5 1110,-224.5"/>
<text text-anchor="middle" x="1154" y="-232.5" font-family="FreeSans" font-size="10.00">hfa_match_get</text>
</a>
</g>
<!-- Node42&#45;&gt;Node43 -->
<g id="edge106" class="edge"><title>Node42&#45;&gt;Node43</title>
<path fill="none" stroke="midnightblue" d="M1055.25,-222.733C1069.91,-224.555 1085.44,-226.483 1099.72,-228.257"/>
<polygon fill="midnightblue" stroke="midnightblue" points="1099.52,-231.759 1109.87,-229.519 1100.38,-224.812 1099.52,-231.759"/>
</g>
<!-- Node44 -->
<g id="node98" class="node"><title>Node44</title>
<a xlink:href="cvm-hfa-search_8c.html#a543990bc2a5e1726298e5053391e3bf5" target="_top" xlink:title="This routine cleans&#45;up the match&#45;buffers allocated by hfa_searchctx_getmatches().">
<polygon fill="white" stroke="black" points="1092.5,-184.5 1092.5,-205.5 1215.5,-205.5 1215.5,-184.5 1092.5,-184.5"/>
<text text-anchor="middle" x="1154" y="-192.5" font-family="FreeSans" font-size="10.00">hfa_matches_cleanup</text>
</a>
</g>
<!-- Node42&#45;&gt;Node44 -->
<g id="edge108" class="edge"><title>Node42&#45;&gt;Node44</title>
<path fill="none" stroke="midnightblue" d="M1055.25,-207.267C1064.12,-206.165 1073.3,-205.024 1082.34,-203.902"/>
<polygon fill="midnightblue" stroke="midnightblue" points="1082.96,-207.352 1092.45,-202.646 1082.09,-200.406 1082.96,-207.352"/>
</g>
<!-- Node45 -->
<g id="node100" class="node"><title>Node45</title>
<a xlink:href="cvm-hfa-res_8c.html#a78813e2d747c1d659277b705ebdffc50" target="_top" xlink:title="Rfree">
<polygon fill="white" stroke="black" points="1258,-184.5 1258,-205.5 1300,-205.5 1300,-184.5 1258,-184.5"/>
<text text-anchor="middle" x="1279" y="-192.5" font-family="FreeSans" font-size="10.00">Rfree</text>
</a>
</g>
<!-- Node44&#45;&gt;Node45 -->
<g id="edge110" class="edge"><title>Node44&#45;&gt;Node45</title>
<path fill="none" stroke="midnightblue" d="M1215.77,-195C1226.76,-195 1237.79,-195 1247.48,-195"/>
<polygon fill="midnightblue" stroke="midnightblue" points="1247.78,-198.5 1257.78,-195 1247.78,-191.5 1247.78,-198.5"/>
</g>
<!-- Node48 -->
<g id="node106" class="node"><title>Node48</title>
<a xlink:href="cvm-hfa-res_8c.html#a70c9e55ba1fcb934f74ad71ddca9d08f" target="_top" xlink:title="Radd">
<polygon fill="white" stroke="black" points="841.5,-244.5 841.5,-265.5 882.5,-265.5 882.5,-244.5 841.5,-244.5"/>
<text text-anchor="middle" x="862" y="-252.5" font-family="FreeSans" font-size="10.00">Radd</text>
</a>
</g>
<!-- Node47&#45;&gt;Node48 -->
<g id="edge116" class="edge"><title>Node47&#45;&gt;Node48</title>
<path fill="none" stroke="midnightblue" d="M757.532,-255C779.178,-255 808.895,-255 831.102,-255"/>
<polygon fill="midnightblue" stroke="midnightblue" points="831.332,-258.5 841.332,-255 831.332,-251.5 831.332,-258.5"/>
</g>
</g>
</svg>
        <g id="navigator" transform="translate(0 0)" fill="#404254">
                <rect fill="#f2f5e9" fill-opacity="0.5" stroke="#606060" stroke-width=".5" x="0" y="0" width="60" height="60"/>
                <use id="zoomplus" xlink:href="#zoomPlus" x="17" y="9" onmousedown="handleZoom(evt,'in')"/>
                <use id="zoomminus" xlink:href="#zoomMin" x="42" y="9" onmousedown="handleZoom(evt,'out')"/>
                <use id="reset" xlink:href="#resetDef" x="30" y="36" onmousedown="handleReset()"/>
                <g id="arrowUp" xlink:href="#dirArrow" transform="translate(30 24)" onmousedown="handlePan(0,-1)">
                  <use xlink:href="#rim" fill="#404040">
                        <set attributeName="fill" to="#808080" begin="arrowUp.mouseover" end="arrowUp.mouseout"/>
                  </use>
                  <path fill="none" stroke="white" stroke-width="1.5" d="M0,-3.0v7 M-2.5,-0.5L0,-3.0L2.5,-0.5"/>
                </g>
                <g id="arrowRight" xlink:href="#dirArrow" transform="rotate(90) translate(36 -43)" onmousedown="handlePan(1,0)">
                  <use xlink:href="#rim" fill="#404040">
                        <set attributeName="fill" to="#808080" begin="arrowRight.mouseover" end="arrowRight.mouseout"/>
                  </use>
                  <path fill="none" stroke="white" stroke-width="1.5" d="M0,-3.0v7 M-2.5,-0.5L0,-3.0L2.5,-0.5"/>
                </g>
                <g id="arrowDown" xlink:href="#dirArrow" transform="rotate(180) translate(-30 -48)" onmousedown="handlePan(0,1)">
                  <use xlink:href="#rim" fill="#404040">
                        <set attributeName="fill" to="#808080" begin="arrowDown.mouseover" end="arrowDown.mouseout"/>
                  </use>
                  <path fill="none" stroke="white" stroke-width="1.5" d="M0,-3.0v7 M-2.5,-0.5L0,-3.0L2.5,-0.5"/>
                </g>
                <g id="arrowLeft" xlink:href="#dirArrow" transform="rotate(270) translate(-36 17)" onmousedown="handlePan(-1,0)">
                  <use xlink:href="#rim" fill="#404040">
                        <set attributeName="fill" to="#808080" begin="arrowLeft.mouseover" end="arrowLeft.mouseout"/>
                  </use>
                  <path fill="none" stroke="white" stroke-width="1.5" d="M0,-3.0v7 M-2.5,-0.5L0,-3.0L2.5,-0.5"/>
                </g>
        </g>
        <svg viewBox="0 0 15 15" width="100%" height="30px" preserveAspectRatio="xMaxYMin meet">
         <g id="arrow_out" transform="scale(0.3 0.3)">
          <a xlink:href="hfa-lnx-wqe_8c_a972f8b60ef804914c009c2ef85bac50e_cgraph_org.svg" target="_base">
           <rect id="button" ry="5" rx="5" y="6" x="6" height="38" width="38"
                fill="#f2f5e9" fill-opacity="0.5" stroke="#606060" stroke-width="1.0"/>
           <path id="arrow"
             d="M 11.500037,31.436501 C 11.940474,20.09759 22.043105,11.32322 32.158766,21.979434 L 37.068811,17.246167 C 37.068811,17.246167 37.088388,32 37.088388,32 L 22.160133,31.978069 C 22.160133,31.978069 26.997745,27.140456 26.997745,27.140456 C 18.528582,18.264221 13.291696,25.230495 11.500037,31.436501 z"
             style="fill:#404040;"/>
          </a>
         </g>
        </svg>
</svg>
