<?xml version="1.0" encoding="UTF-8" standalone="no"?>
<!DOCTYPE svg PUBLIC "-//W3C//DTD SVG 1.1//EN"
 "http://www.w3.org/Graphics/SVG/1.1/DTD/svg11.dtd">
<!-- Generated by graphviz version 2.24.0 (20090616.2323)
 -->
<!-- Title: Initialize_Ctx Pages: 1 -->
<svg width="212pt" height="110pt"
 viewBox="0.00 0.00 212.00 110.00" xmlns="http://www.w3.org/2000/svg" xmlns:xlink="http://www.w3.org/1999/xlink">
<g id="graph1" class="graph" transform="scale(1 1) rotate(0) translate(4 106)">
<title>Initialize_Ctx</title>
<polygon fill="white" stroke="white" points="-4,5 -4,-106 209,-106 209,5 -4,5"/>
<!-- Node1 -->
<g id="node1" class="node"><title>Node1</title>
<polygon fill="#bfbfbf" stroke="black" points="0,-40.5 0,-61.5 76,-61.5 76,-40.5 0,-40.5"/>
<text text-anchor="middle" x="38" y="-48.5" font-family="FreeSans" font-size="10.00">Initialize_Ctx</text>
</g>
<!-- Node2 -->
<g id="node3" class="node"><title>Node2</title>
<a xlink:href="hfa-lnx-linkgraph_8c.html#a78ffddbcd7cdd164889cfb53ea367886" target="_top" xlink:title="entry">
<polygon fill="white" stroke="black" points="137.5,-80.5 137.5,-101.5 178.5,-101.5 178.5,-80.5 137.5,-80.5"/>
<text text-anchor="middle" x="158" y="-88.5" font-family="FreeSans" font-size="10.00">entry</text>
</a>
</g>
<!-- Node1&#45;&gt;Node2 -->
<g id="edge2" class="edge"><title>Node1&#45;&gt;Node2</title>
<path fill="none" stroke="midnightblue" d="M79.1498,-64.7166C98.7269,-71.2423 121.284,-78.7614 137.243,-84.081"/>
<polygon fill="midnightblue" stroke="midnightblue" points="80.1222,-61.3515 69.5286,-61.5095 77.9086,-67.9923 80.1222,-61.3515"/>
</g>
<!-- Node3 -->
<g id="node5" class="node"><title>Node3</title>
<a xlink:href="hfa-lnx-wqe_8c.html#a972f8b60ef804914c009c2ef85bac50e" target="_top" xlink:title="process_search">
<polygon fill="white" stroke="black" points="112,-40.5 112,-61.5 204,-61.5 204,-40.5 112,-40.5"/>
<text text-anchor="middle" x="158" y="-48.5" font-family="FreeSans" font-size="10.00">process_search</text>
</a>
</g>
<!-- Node1&#45;&gt;Node3 -->
<g id="edge4" class="edge"><title>Node1&#45;&gt;Node3</title>
<path fill="none" stroke="midnightblue" d="M86.3024,-51C94.6699,-51 103.353,-51 111.667,-51"/>
<polygon fill="midnightblue" stroke="midnightblue" points="86.2987,-47.5001 76.2987,-51 86.2986,-54.5001 86.2987,-47.5001"/>
</g>
<!-- Node4 -->
<g id="node7" class="node"><title>Node4</title>
<a xlink:href="hfa-se-linkgraph_8c.html#a3c04138a5bfe5d72780bb7e82a18e627" target="_top" xlink:title="main">
<polygon fill="white" stroke="black" points="138,-0.5 138,-21.5 178,-21.5 178,-0.5 138,-0.5"/>
<text text-anchor="middle" x="158" y="-8.5" font-family="FreeSans" font-size="10.00">main</text>
</a>
</g>
<!-- Node1&#45;&gt;Node4 -->
<g id="edge6" class="edge"><title>Node1&#45;&gt;Node4</title>
<path fill="none" stroke="midnightblue" d="M79.2787,-37.2404C99.1233,-30.6256 122.004,-22.9986 137.965,-17.6782"/>
<polygon fill="midnightblue" stroke="midnightblue" points="77.9086,-34.0077 69.5286,-40.4905 80.1222,-40.6485 77.9086,-34.0077"/>
</g>
</g>
</svg>
