<?xml version="1.0" encoding="UTF-8" standalone="no"?>
<!DOCTYPE svg PUBLIC "-//W3C//DTD SVG 1.1//EN"
 "http://www.w3.org/Graphics/SVG/1.1/DTD/svg11.dtd">
<!-- Generated by graphviz version 2.24.0 (20090616.2323)
 -->
<!-- Title: init_interfaces Pages: 1 -->
<svg width="246pt" height="122pt"
 viewBox="0.00 0.00 246.00 122.00" xmlns="http://www.w3.org/2000/svg" xmlns:xlink="http://www.w3.org/1999/xlink">
<g id="graph1" class="graph" transform="scale(1 1) rotate(0) translate(4 118)">
<title>init_interfaces</title>
<polygon fill="white" stroke="white" points="-4,5 -4,-118 243,-118 243,5 -4,5"/>
<!-- Node1 -->
<g id="node1" class="node"><title>Node1</title>
<polygon fill="#bfbfbf" stroke="black" points="0.5,-46.5 0.5,-67.5 83.5,-67.5 83.5,-46.5 0.5,-46.5"/>
<text text-anchor="middle" x="42" y="-54.5" font-family="FreeSans" font-size="10.00">init_interfaces</text>
</g>
<!-- Node2 -->
<g id="node3" class="node"><title>Node2</title>
<a xlink:href="cvm-hfa_8c.html#a4444cdb0e19b7ae88684b6e41c12a303" target="_top" xlink:title="This API allows application to control FPA pool counts at Runtime This API is for non&#45;kernel mode and...">
<polygon fill="white" stroke="black" points="120,-92.5 120,-113.5 238,-113.5 238,-92.5 120,-92.5"/>
<text text-anchor="middle" x="179" y="-100.5" font-family="FreeSans" font-size="10.00">hfa_set_fpapools_cnt</text>
</a>
</g>
<!-- Node1&#45;&gt;Node2 -->
<g id="edge2" class="edge"><title>Node1&#45;&gt;Node2</title>
<path fill="none" stroke="midnightblue" d="M73.4306,-67.5533C92.6623,-74.0107 117.473,-82.3412 138.209,-89.3036"/>
<polygon fill="midnightblue" stroke="midnightblue" points="137.122,-92.6306 147.716,-92.4958 139.35,-85.9947 137.122,-92.6306"/>
</g>
<!-- Node3 -->
<g id="node5" class="node"><title>Node3</title>
<a xlink:href="app-utils_8c.html#aefd985776fb6437d808b08aedd91e709" target="_top" xlink:title="Initialize WQE, IBUF and PKO fpa pools.">
<polygon fill="white" stroke="black" points="132,-40 132,-74 226,-74 226,-40 132,-40"/>
<text text-anchor="start" x="140" y="-61" font-family="FreeSans" font-size="10.00">hfautils_initialize</text>
<text text-anchor="middle" x="179" y="-48" font-family="FreeSans" font-size="10.00">_wqepool</text>
</a>
</g>
<!-- Node1&#45;&gt;Node3 -->
<g id="edge4" class="edge"><title>Node1&#45;&gt;Node3</title>
<path fill="none" stroke="midnightblue" d="M83.8489,-57C95.7704,-57 108.968,-57 121.642,-57"/>
<polygon fill="midnightblue" stroke="midnightblue" points="121.661,-60.5001 131.661,-57 121.661,-53.5001 121.661,-60.5001"/>
</g>
<!-- Node4 -->
<g id="node7" class="node"><title>Node4</title>
<a xlink:href="app-utils_8c.html#af0e2ef99a9a91fdd489c8217ec681b41" target="_top" xlink:title="Initialize the interfaces to receive network traffic.">
<polygon fill="white" stroke="black" points="120.5,-0.5 120.5,-21.5 237.5,-21.5 237.5,-0.5 120.5,-0.5"/>
<text text-anchor="middle" x="179" y="-8.5" font-family="FreeSans" font-size="10.00">hfautils_initinterfaces</text>
</a>
</g>
<!-- Node1&#45;&gt;Node4 -->
<g id="edge6" class="edge"><title>Node1&#45;&gt;Node4</title>
<path fill="none" stroke="midnightblue" d="M73.4306,-46.4467C92.6623,-39.9893 117.473,-31.6588 138.209,-24.6964"/>
<polygon fill="midnightblue" stroke="midnightblue" points="139.35,-28.0053 147.716,-21.5042 137.122,-21.3694 139.35,-28.0053"/>
</g>
</g>
</svg>
