<?xml version="1.0" encoding="UTF-8" standalone="no"?>
<!DOCTYPE svg PUBLIC "-//W3C//DTD SVG 1.1//EN"
 "http://www.w3.org/Graphics/SVG/1.1/DTD/svg11.dtd">
<!-- Generated by graphviz version 2.24.0 (20090616.2323)
 -->
<!-- Title: createctx Pages: 1 -->
<svg width="678pt" height="218pt"
 viewBox="0.00 0.00 678.00 218.00" xmlns="http://www.w3.org/2000/svg" xmlns:xlink="http://www.w3.org/1999/xlink">
<g id="graph1" class="graph" transform="scale(1 1) rotate(0) translate(4 214)">
<title>createctx</title>
<polygon fill="white" stroke="white" points="-4,5 -4,-214 675,-214 675,5 -4,5"/>
<!-- Node1 -->
<g id="node1" class="node"><title>Node1</title>
<polygon fill="#bfbfbf" stroke="black" points="0,-99.5 0,-120.5 62,-120.5 62,-99.5 0,-99.5"/>
<text text-anchor="middle" x="31" y="-107.5" font-family="FreeSans" font-size="10.00">createctx</text>
</g>
<!-- Node2 -->
<g id="node3" class="node"><title>Node2</title>
<a xlink:href="cvm-hfa-search_8c.html#a64ba7a41c7d677da10e588a58789015b" target="_top" xlink:title="This routine initializes a Search Context.">
<polygon fill="white" stroke="black" points="100.5,-148.5 100.5,-169.5 227.5,-169.5 227.5,-148.5 100.5,-148.5"/>
<text text-anchor="middle" x="164" y="-156.5" font-family="FreeSans" font-size="10.00">hfa_dev_searchctx_init</text>
</a>
</g>
<!-- Node1&#45;&gt;Node2 -->
<g id="edge2" class="edge"><title>Node1&#45;&gt;Node2</title>
<path fill="none" stroke="midnightblue" d="M59.5318,-120.512C78.7724,-127.6 104.39,-137.038 125.442,-144.794"/>
<polygon fill="midnightblue" stroke="midnightblue" points="124.463,-148.164 135.056,-148.337 126.883,-141.595 124.463,-148.164"/>
</g>
<!-- Node6 -->
<g id="node11" class="node"><title>Node6</title>
<a xlink:href="cvm-hfa-search_8c.html#a954753c0e6f4a59599d05f1262a25b38" target="_top" xlink:title="This routine associates a graph with sctx.">
<polygon fill="white" stroke="black" points="98,-99.5 98,-120.5 230,-120.5 230,-99.5 98,-99.5"/>
<text text-anchor="middle" x="164" y="-107.5" font-family="FreeSans" font-size="10.00">hfa_searchctx_setgraph</text>
</a>
</g>
<!-- Node1&#45;&gt;Node6 -->
<g id="edge10" class="edge"><title>Node1&#45;&gt;Node6</title>
<path fill="none" stroke="midnightblue" d="M62.1826,-110C69.9924,-110 78.7178,-110 87.6867,-110"/>
<polygon fill="midnightblue" stroke="midnightblue" points="87.8805,-113.5 97.8805,-110 87.8805,-106.5 87.8805,-113.5"/>
</g>
<!-- Node10 -->
<g id="node20" class="node"><title>Node10</title>
<a xlink:href="cvm-hfa-search_8c.html#a60c8025118f6a47f924733e47db8c77d" target="_top" xlink:title="This routine is used to specify settings used during the search and getmatches API.">
<polygon fill="white" stroke="black" points="100,-40.5 100,-61.5 228,-61.5 228,-40.5 100,-40.5"/>
<text text-anchor="middle" x="164" y="-48.5" font-family="FreeSans" font-size="10.00">hfa_searchctx_setflags</text>
</a>
</g>
<!-- Node1&#45;&gt;Node10 -->
<g id="edge20" class="edge"><title>Node1&#45;&gt;Node10</title>
<path fill="none" stroke="midnightblue" d="M54.7777,-99.452C75.9235,-90.0715 107.064,-76.2575 130.688,-65.7773"/>
<polygon fill="midnightblue" stroke="midnightblue" points="132.258,-68.91 139.98,-61.6556 129.419,-62.5114 132.258,-68.91"/>
</g>
<!-- Node3 -->
<g id="node5" class="node"><title>Node3</title>
<a xlink:href="cvm-hfa-stats_8c.html#a1cff986555a79b0d5ccee49801cb0056" target="_top" xlink:title="This routine allocates the memory for counters to maintain the statistics of search context...">
<polygon fill="white" stroke="black" points="269.5,-158.5 269.5,-179.5 400.5,-179.5 400.5,-158.5 269.5,-158.5"/>
<text text-anchor="middle" x="335" y="-166.5" font-family="FreeSans" font-size="10.00">hfa_searchctx_stats_init</text>
</a>
</g>
<!-- Node2&#45;&gt;Node3 -->
<g id="edge4" class="edge"><title>Node2&#45;&gt;Node3</title>
<path fill="none" stroke="midnightblue" d="M227.674,-162.724C237.964,-163.325 248.706,-163.954 259.248,-164.57"/>
<polygon fill="midnightblue" stroke="midnightblue" points="259.086,-168.066 269.273,-165.156 259.494,-161.078 259.086,-168.066"/>
</g>
<!-- Node4 -->
<g id="node7" class="node"><title>Node4</title>
<a xlink:href="cvm-hfa-stats_8c.html#acbdfa65e476c04cd9b67b7c462eefe56" target="_top" xlink:title="This routine allocates required memory from STATS ARENA.">
<polygon fill="white" stroke="black" points="440.5,-188.5 440.5,-209.5 569.5,-209.5 569.5,-188.5 440.5,-188.5"/>
<text text-anchor="middle" x="505" y="-196.5" font-family="FreeSans" font-size="10.00">hfa_stats_memoryalloc</text>
</a>
</g>
<!-- Node3&#45;&gt;Node4 -->
<g id="edge6" class="edge"><title>Node3&#45;&gt;Node4</title>
<path fill="none" stroke="midnightblue" d="M394.936,-179.577C407.962,-181.876 421.85,-184.327 435.22,-186.686"/>
<polygon fill="midnightblue" stroke="midnightblue" points="434.863,-190.177 445.319,-188.468 436.08,-183.283 434.863,-190.177"/>
</g>
<!-- Node5 -->
<g id="node9" class="node"><title>Node5</title>
<a xlink:href="cvm-hfa-stats_8c.html#a7a2acbe48c3850d43256938ee996aa16" target="_top" xlink:title="This routine frees memory to STATS ARENA.">
<polygon fill="white" stroke="black" points="442.5,-148.5 442.5,-169.5 567.5,-169.5 567.5,-148.5 442.5,-148.5"/>
<text text-anchor="middle" x="505" y="-156.5" font-family="FreeSans" font-size="10.00">hfa_stats_memoryfree</text>
</a>
</g>
<!-- Node3&#45;&gt;Node5 -->
<g id="edge8" class="edge"><title>Node3&#45;&gt;Node5</title>
<path fill="none" stroke="midnightblue" d="M400.726,-165.134C410.957,-164.532 421.582,-163.907 431.963,-163.296"/>
<polygon fill="midnightblue" stroke="midnightblue" points="432.463,-166.773 442.24,-162.692 432.051,-159.785 432.463,-166.773"/>
</g>
<!-- Node7 -->
<g id="node13" class="node"><title>Node7</title>
<a xlink:href="cvm-hfa-pp_8c.html#a9ad01b0f0de0f65b99a53f6c64f147e2" target="_top" xlink:title="ppinit">
<polygon fill="white" stroke="black" points="484,-89.5 484,-110.5 526,-110.5 526,-89.5 484,-89.5"/>
<text text-anchor="middle" x="505" y="-97.5" font-family="FreeSans" font-size="10.00">ppinit</text>
</a>
</g>
<!-- Node6&#45;&gt;Node7 -->
<g id="edge12" class="edge"><title>Node6&#45;&gt;Node7</title>
<path fill="none" stroke="midnightblue" d="M230.01,-112.346C278.25,-113.556 345.232,-114.191 404,-111 427.439,-109.727 453.803,-106.805 473.717,-104.292"/>
<polygon fill="midnightblue" stroke="midnightblue" points="474.307,-107.745 483.774,-102.989 473.408,-100.803 474.307,-107.745"/>
</g>
<!-- Node9 -->
<g id="node17" class="node"><title>Node9</title>
<a xlink:href="cvm-hfa-search_8c.html#a3200f5303f0611887f35dd500e7a8d00" target="_top" xlink:title="This is a utility routine which associates an application&#45;specifc cookie in the sctx.">
<polygon fill="white" stroke="black" points="266,-80.5 266,-101.5 404,-101.5 404,-80.5 266,-80.5"/>
<text text-anchor="middle" x="335" y="-88.5" font-family="FreeSans" font-size="10.00">hfa_searchctx_setppuarg</text>
</a>
</g>
<!-- Node6&#45;&gt;Node9 -->
<g id="edge16" class="edge"><title>Node6&#45;&gt;Node9</title>
<path fill="none" stroke="midnightblue" d="M230.113,-102.654C238.557,-101.716 247.267,-100.748 255.89,-99.79"/>
<polygon fill="midnightblue" stroke="midnightblue" points="256.399,-103.255 265.951,-98.6721 255.626,-96.2979 256.399,-103.255"/>
</g>
<!-- Node8 -->
<g id="node15" class="node"><title>Node8</title>
<a xlink:href="pp_8h.html#adc8d105abb8f12812385bb87d15e6e32" target="_top" xlink:title="pphfa_init">
<polygon fill="white" stroke="black" points="606.5,-89.5 606.5,-110.5 669.5,-110.5 669.5,-89.5 606.5,-89.5"/>
<text text-anchor="middle" x="638" y="-97.5" font-family="FreeSans" font-size="10.00">pphfa_init</text>
</a>
</g>
<!-- Node7&#45;&gt;Node8 -->
<g id="edge14" class="edge"><title>Node7&#45;&gt;Node8</title>
<path fill="none" stroke="midnightblue" d="M526.074,-100C544.897,-100 573.02,-100 596.366,-100"/>
<polygon fill="midnightblue" stroke="midnightblue" points="596.371,-103.5 606.371,-100 596.371,-96.5001 596.371,-103.5"/>
</g>
<!-- Node9&#45;&gt;Node7 -->
<g id="edge18" class="edge"><title>Node9&#45;&gt;Node7</title>
<path fill="none" stroke="midnightblue" d="M404.146,-94.6606C428.345,-95.9418 454.321,-97.317 473.85,-98.3509"/>
<polygon fill="midnightblue" stroke="midnightblue" points="473.813,-101.854 483.984,-98.8874 474.183,-94.8635 473.813,-101.854"/>
</g>
<!-- Node11 -->
<g id="node22" class="node"><title>Node11</title>
<a xlink:href="cvm-hfa-pp_8c.html#add6064138ec2e35741929056a0992d8d" target="_top" xlink:title="ppgetstats">
<polygon fill="white" stroke="black" points="302,-40.5 302,-61.5 368,-61.5 368,-40.5 302,-40.5"/>
<text text-anchor="middle" x="335" y="-48.5" font-family="FreeSans" font-size="10.00">ppgetstats</text>
</a>
</g>
<!-- Node10&#45;&gt;Node11 -->
<g id="edge22" class="edge"><title>Node10&#45;&gt;Node11</title>
<path fill="none" stroke="midnightblue" d="M228.161,-51C249.27,-51 272.234,-51 291.444,-51"/>
<polygon fill="midnightblue" stroke="midnightblue" points="291.693,-54.5001 301.693,-51 291.693,-47.5001 291.693,-54.5001"/>
</g>
<!-- Node13 -->
<g id="node26" class="node"><title>Node13</title>
<a xlink:href="cvm-hfa-pp_8c.html#a73cd0d7244d64410753dac7b809d2060" target="_top" xlink:title="ppassignstats">
<polygon fill="white" stroke="black" points="294.5,-0.5 294.5,-21.5 375.5,-21.5 375.5,-0.5 294.5,-0.5"/>
<text text-anchor="middle" x="335" y="-8.5" font-family="FreeSans" font-size="10.00">ppassignstats</text>
</a>
</g>
<!-- Node10&#45;&gt;Node13 -->
<g id="edge26" class="edge"><title>Node10&#45;&gt;Node13</title>
<path fill="none" stroke="midnightblue" d="M208.928,-40.4905C232.133,-35.0625 260.528,-28.4204 284.491,-22.8149"/>
<polygon fill="midnightblue" stroke="midnightblue" points="285.522,-26.1684 294.462,-20.4826 283.927,-19.3524 285.522,-26.1684"/>
</g>
<!-- Node12 -->
<g id="node24" class="node"><title>Node12</title>
<a xlink:href="pp_8h.html#a808d5057ee5670ce724a6a88fc22b799" target="_top" xlink:title="pphfa_getstats">
<polygon fill="white" stroke="black" points="461.5,-40.5 461.5,-61.5 548.5,-61.5 548.5,-40.5 461.5,-40.5"/>
<text text-anchor="middle" x="505" y="-48.5" font-family="FreeSans" font-size="10.00">pphfa_getstats</text>
</a>
</g>
<!-- Node11&#45;&gt;Node12 -->
<g id="edge24" class="edge"><title>Node11&#45;&gt;Node12</title>
<path fill="none" stroke="midnightblue" d="M368.181,-51C391.744,-51 423.896,-51 451.113,-51"/>
<polygon fill="midnightblue" stroke="midnightblue" points="451.273,-54.5001 461.273,-51 451.273,-47.5001 451.273,-54.5001"/>
</g>
<!-- Node14 -->
<g id="node28" class="node"><title>Node14</title>
<a xlink:href="pp_8h.html#ad0cc4aeca687557949697bef25cdb764" target="_top" xlink:title="pphfa_assignstats">
<polygon fill="white" stroke="black" points="454,-0.5 454,-21.5 556,-21.5 556,-0.5 454,-0.5"/>
<text text-anchor="middle" x="505" y="-8.5" font-family="FreeSans" font-size="10.00">pphfa_assignstats</text>
</a>
</g>
<!-- Node13&#45;&gt;Node14 -->
<g id="edge28" class="edge"><title>Node13&#45;&gt;Node14</title>
<path fill="none" stroke="midnightblue" d="M375.719,-11C396.078,-11 421.139,-11 443.758,-11"/>
<polygon fill="midnightblue" stroke="midnightblue" points="443.954,-14.5001 453.954,-11 443.954,-7.5001 443.954,-14.5001"/>
</g>
</g>
</svg>
