<?xml version="1.0" encoding="UTF-8" standalone="no"?>
<!DOCTYPE svg PUBLIC "-//W3C//DTD SVG 1.1//EN"
 "http://www.w3.org/Graphics/SVG/1.1/DTD/svg11.dtd">
<!-- Generated by graphviz version 2.24.0 (20090616.2323)
 -->
<!-- Title: post_process Pages: 1 -->
<svg width="286pt" height="50pt"
 viewBox="0.00 0.00 286.00 50.00" xmlns="http://www.w3.org/2000/svg" xmlns:xlink="http://www.w3.org/1999/xlink">
<g id="graph1" class="graph" transform="scale(1 1) rotate(0) translate(4 46)">
<title>post_process</title>
<polygon fill="white" stroke="white" points="-4,5 -4,-46 283,-46 283,5 -4,5"/>
<!-- Node1 -->
<g id="node1" class="node"><title>Node1</title>
<polygon fill="#bfbfbf" stroke="black" points="0,-0.5 0,-21.5 80,-21.5 80,-0.5 0,-0.5"/>
<text text-anchor="middle" x="40" y="-8.5" font-family="FreeSans" font-size="10.00">post_process</text>
</g>
<!-- Node2 -->
<g id="node3" class="node"><title>Node2</title>
<a xlink:href="hfa-lnx-nctx_8c.html#a14842e8e0a8309142e6e4132ff4aa606" target="_top" xlink:title="Poll for the pending search instructions in the HW (blocked till instruction completes) and process t...">
<polygon fill="white" stroke="black" points="116.5,-20.5 116.5,-41.5 149.5,-41.5 149.5,-20.5 116.5,-20.5"/>
<text text-anchor="middle" x="133" y="-28.5" font-family="FreeSans" font-size="10.00">poll</text>
</a>
</g>
<!-- Node1&#45;&gt;Node2 -->
<g id="edge2" class="edge"><title>Node1&#45;&gt;Node2</title>
<path fill="none" stroke="midnightblue" d="M90.0294,-21.759C99.4084,-23.776 108.595,-25.7516 116.051,-27.3549"/>
<polygon fill="midnightblue" stroke="midnightblue" points="90.7626,-18.3367 80.2503,-19.656 89.2909,-25.1803 90.7626,-18.3367"/>
</g>
<!-- Node3 -->
<g id="node5" class="node"><title>Node3</title>
<a xlink:href="hfa-lnx-nctx_8c.html#a972f8b60ef804914c009c2ef85bac50e" target="_top" xlink:title="process_search">
<polygon fill="white" stroke="black" points="186,-0.5 186,-21.5 278,-21.5 278,-0.5 186,-0.5"/>
<text text-anchor="middle" x="232" y="-8.5" font-family="FreeSans" font-size="10.00">process_search</text>
</a>
</g>
<!-- Node1&#45;&gt;Node3 -->
<g id="edge6" class="edge"><title>Node1&#45;&gt;Node3</title>
<path fill="none" stroke="midnightblue" d="M90.3563,-11C119.889,-11 156.932,-11 185.729,-11"/>
<polygon fill="midnightblue" stroke="midnightblue" points="90.2495,-7.5001 80.2495,-11 90.2495,-14.5001 90.2495,-7.5001"/>
</g>
<!-- Node2&#45;&gt;Node3 -->
<g id="edge4" class="edge"><title>Node2&#45;&gt;Node3</title>
<path fill="none" stroke="midnightblue" d="M159.658,-25.6146C167.685,-23.9928 176.74,-22.1637 185.657,-20.3623"/>
<polygon fill="midnightblue" stroke="midnightblue" points="158.903,-22.1963 149.794,-27.6073 160.289,-29.0577 158.903,-22.1963"/>
</g>
</g>
</svg>
