<?xml version="1.0" encoding="UTF-8" standalone="no"?>
<!DOCTYPE svg PUBLIC "-//W3C//DTD SVG 1.1//EN"
 "http://www.w3.org/Graphics/SVG/1.1/DTD/svg11.dtd">
<!-- Generated by graphviz version 2.24.0 (20090616.2323)
 -->
<!-- Title: exit Pages: 1 -->
<!--zoomable 593 -->
<svg id="main" version="1.1" xmlns="http://www.w3.org/2000/svg" xmlns:xlink="http://www.w3.org/1999/xlink" xml:space="preserve" onload="init(evt)">
        <defs>
                <circle id="rim" cx="0" cy="0" r="7"/>
                <circle id="rim2" cx="0" cy="0" r="3.5"/>
                <g id="zoomPlus">
                        <use xlink:href="#rim" fill="#404040">
                                <set attributeName="fill" to="#808080" begin="zoomplus.mouseover" end="zoomplus.mouseout"/>
                        </use>
                        <path d="M-4,0h8M0,-4v8" fill="none" stroke="white" stroke-width="1.5" pointer-events="none"/>
                </g>
                <g id="zoomMin">
                        <use xlink:href="#rim" fill="#404040">
                                <set attributeName="fill" to="#808080" begin="zoomminus.mouseover" end="zoomminus.mouseout"/>
                        </use>
                        <path d="M-4,0h8" fill="none" stroke="white" stroke-width="1.5" pointer-events="none"/>
                </g>
                <g id="dirArrow">
                        <path fill="none" stroke="white" stroke-width="1.5" d="M0,-3.0v7 M-2.5,-0.5L0,-3.0L2.5,-0.5"/>
                </g>
               <g id="resetDef">
                       <use xlink:href="#rim2" fill="#404040">
                               <set attributeName="fill" to="#808080" begin="reset.mouseover" end="reset.mouseout"/>
                       </use>
               </g>
        </defs>

<script type="text/javascript">
var viewWidth = 840;
var viewHeight = 593;
var sectionId = 'dynsection-4';
</script>
<script xlink:href="svgpan.js"/>
<svg id="graph" class="graph">
<g id="viewport">
<title>exit</title>
<polygon fill="white" stroke="white" points="-4,5 -4,-589 837,-589 837,5 -4,5"/>
<!-- Node1 -->
<g id="node1" class="node"><title>Node1</title>
<polygon fill="#bfbfbf" stroke="black" points="0.5,-287.5 0.5,-308.5 33.5,-308.5 33.5,-287.5 0.5,-287.5"/>
<text text-anchor="middle" x="17" y="-295.5" font-family="FreeSans" font-size="10.00">exit</text>
</g>
<!-- Node2 -->
<g id="node3" class="node"><title>Node2</title>
<a xlink:href="hfa-lnx_8c.html#a5c6551bf9ea9cf51ae7f2076c4cbe8ef" target="_top" xlink:title="Application cleanup will be done by this routine.">
<polygon fill="white" stroke="black" points="70,-287.5 70,-308.5 124,-308.5 124,-287.5 70,-287.5"/>
<text text-anchor="middle" x="97" y="-295.5" font-family="FreeSans" font-size="10.00">cleanup</text>
</a>
</g>
<!-- Node1&#45;&gt;Node2 -->
<g id="edge2" class="edge"><title>Node1&#45;&gt;Node2</title>
<path fill="none" stroke="midnightblue" d="M33.5761,-298C41.1576,-298 50.4725,-298 59.6056,-298"/>
<polygon fill="midnightblue" stroke="midnightblue" points="59.7377,-301.5 69.7377,-298 59.7377,-294.5 59.7377,-301.5"/>
</g>
<!-- Node3 -->
<g id="node5" class="node"><title>Node3</title>
<a xlink:href="cvm-hfa-search_8c.html#a30064f173d814bd3791b59d675c2f45f" target="_top" xlink:title="This routine cleans&#45;up a Search Context.">
<polygon fill="white" stroke="black" points="160,-483.5 160,-504.5 312,-504.5 312,-483.5 160,-483.5"/>
<text text-anchor="middle" x="236" y="-491.5" font-family="FreeSans" font-size="10.00">hfa_dev_searchctx_cleanup</text>
</a>
</g>
<!-- Node2&#45;&gt;Node3 -->
<g id="edge4" class="edge"><title>Node2&#45;&gt;Node3</title>
<path fill="none" stroke="midnightblue" d="M104.473,-308.538C126.911,-340.177 193.913,-434.654 222.66,-475.189"/>
<polygon fill="midnightblue" stroke="midnightblue" points="219.85,-477.278 228.49,-483.41 225.56,-473.228 219.85,-477.278"/>
</g>
<!-- Node12 -->
<g id="node23" class="node"><title>Node12</title>
<a xlink:href="cvm-hfa-graph_8c.html#aa4ce7845277b4b3099159bbd7afd5c08" target="_top" xlink:title="This routine is used to cacheunload a cacheload&#39;ed graph in a non&#45;blocking manner.">
<polygon fill="white" stroke="black" points="170,-287.5 170,-308.5 302,-308.5 302,-287.5 170,-287.5"/>
<text text-anchor="middle" x="236" y="-295.5" font-family="FreeSans" font-size="10.00">hfa_graph_cacheunload</text>
</a>
</g>
<!-- Node2&#45;&gt;Node12 -->
<g id="edge22" class="edge"><title>Node2&#45;&gt;Node12</title>
<path fill="none" stroke="midnightblue" d="M124.131,-298C134.479,-298 146.855,-298 159.542,-298"/>
<polygon fill="midnightblue" stroke="midnightblue" points="159.752,-301.5 169.752,-298 159.752,-294.5 159.752,-301.5"/>
</g>
<!-- Node30 -->
<g id="node59" class="node"><title>Node30</title>
<a xlink:href="cvm-hfa-graph_8c.html#a5e79919f5903d97aee5e82bfc7e71597" target="_top" xlink:title="This routine is the counterpart of hfa_dev_graph_init().">
<polygon fill="white" stroke="black" points="170,-247.5 170,-268.5 302,-268.5 302,-247.5 170,-247.5"/>
<text text-anchor="middle" x="236" y="-255.5" font-family="FreeSans" font-size="10.00">hfa_dev_graph_cleanup</text>
</a>
</g>
<!-- Node2&#45;&gt;Node30 -->
<g id="edge58" class="edge"><title>Node2&#45;&gt;Node30</title>
<path fill="none" stroke="midnightblue" d="M124.198,-289.038C135.267,-285.476 148.208,-281.421 160,-278 167.918,-275.703 176.333,-273.376 184.569,-271.161"/>
<polygon fill="midnightblue" stroke="midnightblue" points="185.716,-274.477 194.48,-268.524 183.917,-267.713 185.716,-274.477"/>
</g>
<!-- Node31 -->
<g id="node61" class="node"><title>Node31</title>
<a xlink:href="cvm-hfa_8c.html#af14bebdd444bd0bf92faac9d5d88b492" target="_top" xlink:title="This function is called by application to cleanup all resources configured for HFA device and then sh...">
<polygon fill="white" stroke="black" points="186.5,-333.5 186.5,-354.5 285.5,-354.5 285.5,-333.5 186.5,-333.5"/>
<text text-anchor="middle" x="236" y="-341.5" font-family="FreeSans" font-size="10.00">hfa_dev_cleanup</text>
</a>
</g>
<!-- Node2&#45;&gt;Node31 -->
<g id="edge60" class="edge"><title>Node2&#45;&gt;Node31</title>
<path fill="none" stroke="midnightblue" d="M124.131,-306.978C144.089,-313.583 171.586,-322.683 194.324,-330.208"/>
<polygon fill="midnightblue" stroke="midnightblue" points="193.472,-333.613 204.066,-333.432 195.672,-326.967 193.472,-333.613"/>
</g>
<!-- Node34 -->
<g id="node68" class="node"><title>Node34</title>
<a xlink:href="app-utils_8c.html#a1f92c93fe820ec9fc9f4d8e993883b05" target="_top" xlink:title="This routine is counter part of hfautils_init_payload_attributes().">
<polygon fill="white" stroke="black" points="167,-195 167,-229 305,-229 305,-195 167,-195"/>
<text text-anchor="start" x="175" y="-216" font-family="FreeSans" font-size="10.00">hfautils_cleanup_payload</text>
<text text-anchor="middle" x="236" y="-203" font-family="FreeSans" font-size="10.00">_attributes</text>
</a>
</g>
<!-- Node2&#45;&gt;Node34 -->
<g id="edge68" class="edge"><title>Node2&#45;&gt;Node34</title>
<path fill="none" stroke="midnightblue" d="M105.723,-287.212C116.985,-273.928 137.789,-251.475 160,-238 162.657,-236.388 165.426,-234.86 168.27,-233.413"/>
<polygon fill="midnightblue" stroke="midnightblue" points="169.98,-236.477 177.551,-229.066 167.011,-230.138 169.98,-236.477"/>
</g>
<!-- Node4 -->
<g id="node7" class="node"><title>Node4</title>
<a xlink:href="cvm-hfa-pp_8c.html#add6064138ec2e35741929056a0992d8d" target="_top" xlink:title="ppgetstats">
<polygon fill="white" stroke="black" points="381,-563.5 381,-584.5 447,-584.5 447,-563.5 381,-563.5"/>
<text text-anchor="middle" x="414" y="-571.5" font-family="FreeSans" font-size="10.00">ppgetstats</text>
</a>
</g>
<!-- Node3&#45;&gt;Node4 -->
<g id="edge6" class="edge"><title>Node3&#45;&gt;Node4</title>
<path fill="none" stroke="midnightblue" d="M253.318,-504.674C274.889,-517.636 313.155,-539.554 348,-554 355.388,-557.063 363.414,-559.889 371.242,-562.394"/>
<polygon fill="midnightblue" stroke="midnightblue" points="370.401,-565.797 380.988,-565.387 372.457,-559.105 370.401,-565.797"/>
</g>
<!-- Node6 -->
<g id="node11" class="node"><title>Node6</title>
<a xlink:href="cvm-hfa-pp_8c.html#a57ec655c9bdb6ce63ada6767c7e14763" target="_top" xlink:title="ppcleanstats">
<polygon fill="white" stroke="black" points="375.5,-523.5 375.5,-544.5 452.5,-544.5 452.5,-523.5 375.5,-523.5"/>
<text text-anchor="middle" x="414" y="-531.5" font-family="FreeSans" font-size="10.00">ppcleanstats</text>
</a>
</g>
<!-- Node3&#45;&gt;Node6 -->
<g id="edge10" class="edge"><title>Node3&#45;&gt;Node6</title>
<path fill="none" stroke="midnightblue" d="M282.767,-504.51C308.229,-510.231 339.694,-517.302 365.43,-523.085"/>
<polygon fill="midnightblue" stroke="midnightblue" points="364.825,-526.537 375.349,-525.314 366.36,-519.707 364.825,-526.537"/>
</g>
<!-- Node8 -->
<g id="node15" class="node"><title>Node8</title>
<a xlink:href="cvm-hfa-pp_8c.html#a41ce9d3103c639e474783d3843e09071" target="_top" xlink:title="ppcleanup">
<polygon fill="white" stroke="black" points="381,-483.5 381,-504.5 447,-504.5 447,-483.5 381,-483.5"/>
<text text-anchor="middle" x="414" y="-491.5" font-family="FreeSans" font-size="10.00">ppcleanup</text>
</a>
</g>
<!-- Node3&#45;&gt;Node8 -->
<g id="edge14" class="edge"><title>Node3&#45;&gt;Node8</title>
<path fill="none" stroke="midnightblue" d="M312.004,-494C331.88,-494 352.64,-494 370.202,-494"/>
<polygon fill="midnightblue" stroke="midnightblue" points="370.688,-497.5 380.688,-494 370.688,-490.5 370.688,-497.5"/>
</g>
<!-- Node10 -->
<g id="node19" class="node"><title>Node10</title>
<a xlink:href="cvm-hfa-stats_8c.html#a2df4c76e04e7b028ed2df4bba1b2de3d" target="_top" xlink:title="This routine is the counterpart of hfa_searchctx_init_stats().">
<polygon fill="white" stroke="black" points="357.5,-431 357.5,-465 470.5,-465 470.5,-431 357.5,-431"/>
<text text-anchor="start" x="365.5" y="-452" font-family="FreeSans" font-size="10.00">hfa_searchctx_stats</text>
<text text-anchor="middle" x="414" y="-439" font-family="FreeSans" font-size="10.00">_cleanup</text>
</a>
</g>
<!-- Node3&#45;&gt;Node10 -->
<g id="edge18" class="edge"><title>Node3&#45;&gt;Node10</title>
<path fill="none" stroke="midnightblue" d="M276.837,-483.447C297.673,-478.062 323.548,-471.375 347.192,-465.265"/>
<polygon fill="midnightblue" stroke="midnightblue" points="348.361,-468.578 357.167,-462.687 346.61,-461.801 348.361,-468.578"/>
</g>
<!-- Node5 -->
<g id="node9" class="node"><title>Node5</title>
<a xlink:href="pp_8h.html#a808d5057ee5670ce724a6a88fc22b799" target="_top" xlink:title="pphfa_getstats">
<polygon fill="white" stroke="black" points="546.5,-563.5 546.5,-584.5 633.5,-584.5 633.5,-563.5 546.5,-563.5"/>
<text text-anchor="middle" x="590" y="-571.5" font-family="FreeSans" font-size="10.00">pphfa_getstats</text>
</a>
</g>
<!-- Node4&#45;&gt;Node5 -->
<g id="edge8" class="edge"><title>Node4&#45;&gt;Node5</title>
<path fill="none" stroke="midnightblue" d="M447.104,-574C472.223,-574 507.277,-574 536.38,-574"/>
<polygon fill="midnightblue" stroke="midnightblue" points="536.399,-577.5 546.399,-574 536.399,-570.5 536.399,-577.5"/>
</g>
<!-- Node7 -->
<g id="node13" class="node"><title>Node7</title>
<a xlink:href="pp_8h.html#a978b171bd7a736cb7fa0d5d034aa94e2" target="_top" xlink:title="pphfa_cleanstats">
<polygon fill="white" stroke="black" points="541,-523.5 541,-544.5 639,-544.5 639,-523.5 541,-523.5"/>
<text text-anchor="middle" x="590" y="-531.5" font-family="FreeSans" font-size="10.00">pphfa_cleanstats</text>
</a>
</g>
<!-- Node6&#45;&gt;Node7 -->
<g id="edge12" class="edge"><title>Node6&#45;&gt;Node7</title>
<path fill="none" stroke="midnightblue" d="M452.624,-534C475.493,-534 504.939,-534 530.7,-534"/>
<polygon fill="midnightblue" stroke="midnightblue" points="530.74,-537.5 540.74,-534 530.74,-530.5 530.74,-537.5"/>
</g>
<!-- Node9 -->
<g id="node17" class="node"><title>Node9</title>
<a xlink:href="pp_8h.html#a428ad073d1fd72da37ab8b00f13693a3" target="_top" xlink:title="pphfa_cleanup">
<polygon fill="white" stroke="black" points="546.5,-483.5 546.5,-504.5 633.5,-504.5 633.5,-483.5 546.5,-483.5"/>
<text text-anchor="middle" x="590" y="-491.5" font-family="FreeSans" font-size="10.00">pphfa_cleanup</text>
</a>
</g>
<!-- Node8&#45;&gt;Node9 -->
<g id="edge16" class="edge"><title>Node8&#45;&gt;Node9</title>
<path fill="none" stroke="midnightblue" d="M447.104,-494C472.223,-494 507.277,-494 536.38,-494"/>
<polygon fill="midnightblue" stroke="midnightblue" points="536.399,-497.5 546.399,-494 536.399,-490.5 536.399,-497.5"/>
</g>
<!-- Node11 -->
<g id="node21" class="node"><title>Node11</title>
<a xlink:href="cvm-hfa-stats_8c.html#a7a2acbe48c3850d43256938ee996aa16" target="_top" xlink:title="This routine frees memory to STATS ARENA.">
<polygon fill="white" stroke="black" points="527.5,-440.5 527.5,-461.5 652.5,-461.5 652.5,-440.5 527.5,-440.5"/>
<text text-anchor="middle" x="590" y="-448.5" font-family="FreeSans" font-size="10.00">hfa_stats_memoryfree</text>
</a>
</g>
<!-- Node10&#45;&gt;Node11 -->
<g id="edge20" class="edge"><title>Node10&#45;&gt;Node11</title>
<path fill="none" stroke="midnightblue" d="M470.656,-448.966C485.494,-449.219 501.7,-449.495 517.25,-449.76"/>
<polygon fill="midnightblue" stroke="midnightblue" points="517.294,-453.261 527.353,-449.932 517.414,-446.262 517.294,-453.261"/>
</g>
<!-- Node13 -->
<g id="node25" class="node"><title>Node13</title>
<a xlink:href="cvm-hfa-graph_8c.html#afb63ce4f42afc7987e6222b1c1ea91a1" target="_top" xlink:title="This routine is used to cacheunload a cacheload&#39;ed graph in a non&#45;blocking manner.">
<polygon fill="white" stroke="black" points="348,-274 348,-308 480,-308 480,-274 348,-274"/>
<text text-anchor="start" x="356" y="-295" font-family="FreeSans" font-size="10.00">hfa_graph_cacheunload</text>
<text text-anchor="middle" x="414" y="-282" font-family="FreeSans" font-size="10.00">_async</text>
</a>
</g>
<!-- Node12&#45;&gt;Node13 -->
<g id="edge24" class="edge"><title>Node12&#45;&gt;Node13</title>
<path fill="none" stroke="midnightblue" d="M302.028,-295.403C313.583,-294.949 325.692,-294.473 337.502,-294.008"/>
<polygon fill="midnightblue" stroke="midnightblue" points="337.927,-297.494 347.782,-293.604 337.652,-290.5 337.927,-297.494"/>
</g>
<!-- Node23 -->
<g id="node45" class="node"><title>Node23</title>
<a xlink:href="cvm-hfa-graph_8c.html#a0f2f13fb51e5d56dcf049ff3c7c6ad78" target="_top" xlink:title="This routine is used to check the status of the graph.">
<polygon fill="white" stroke="black" points="357,-60.5 357,-81.5 471,-81.5 471,-60.5 357,-60.5"/>
<text text-anchor="middle" x="414" y="-68.5" font-family="FreeSans" font-size="10.00">hfa_graph_getstatus</text>
</a>
</g>
<!-- Node12&#45;&gt;Node23 -->
<g id="edge44" class="edge"><title>Node12&#45;&gt;Node23</title>
<path fill="none" stroke="midnightblue" d="M296.473,-287.385C302.056,-284.882 307.352,-281.799 312,-278 372.942,-228.198 400.417,-132.937 409.902,-91.31"/>
<polygon fill="midnightblue" stroke="midnightblue" points="413.33,-92.0203 412.025,-81.5061 406.488,-90.5388 413.33,-92.0203"/>
</g>
<!-- Node14 -->
<g id="node27" class="node"><title>Node14</title>
<a xlink:href="cvm-hfa-instr_8h.html#acaf8def6cbffb04c100bf7f7684f242e" target="_top" xlink:title="Initialize the HFA instruction.">
<polygon fill="white" stroke="black" points="538.5,-400.5 538.5,-421.5 641.5,-421.5 641.5,-400.5 538.5,-400.5"/>
<text text-anchor="middle" x="590" y="-408.5" font-family="FreeSans" font-size="10.00">cvm_hfa_instr_init</text>
</a>
</g>
<!-- Node13&#45;&gt;Node14 -->
<g id="edge26" class="edge"><title>Node13&#45;&gt;Node14</title>
<path fill="none" stroke="midnightblue" d="M457.706,-308.054C465.717,-312.455 473.566,-317.753 480,-324 504.252,-347.549 489.522,-369.986 516,-391 520.002,-394.176 524.468,-396.849 529.168,-399.099"/>
<polygon fill="midnightblue" stroke="midnightblue" points="527.858,-402.345 538.437,-402.925 530.529,-395.874 527.858,-402.345"/>
</g>
<!-- Node15 -->
<g id="node29" class="node"><title>Node15</title>
<a xlink:href="cvm-hfa-instr_8h.html#a2d6082e2e599fe8523162b18d0a06f6c" target="_top" xlink:title="Sets rptr in the instruction.">
<polygon fill="white" stroke="black" points="530,-360.5 530,-381.5 650,-381.5 650,-360.5 530,-360.5"/>
<text text-anchor="middle" x="590" y="-368.5" font-family="FreeSans" font-size="10.00">cvm_hfa_instr_setrptr</text>
</a>
</g>
<!-- Node13&#45;&gt;Node15 -->
<g id="edge28" class="edge"><title>Node13&#45;&gt;Node15</title>
<path fill="none" stroke="midnightblue" d="M450.949,-308.011C460.593,-312.845 470.846,-318.343 480,-324 497.013,-334.515 498.024,-342.234 516,-351 520.665,-353.275 525.626,-355.321 530.685,-357.155"/>
<polygon fill="midnightblue" stroke="midnightblue" points="529.887,-360.579 540.481,-360.425 532.104,-353.939 529.887,-360.579"/>
</g>
<!-- Node16 -->
<g id="node31" class="node"><title>Node16</title>
<a xlink:href="cvm-hfa-instr_8h.html#a6960a0761295ada9f449ea5e8c41ec80" target="_top" xlink:title="Sets clmsk in the instruction.">
<polygon fill="white" stroke="black" points="524,-320.5 524,-341.5 656,-341.5 656,-320.5 524,-320.5"/>
<text text-anchor="middle" x="590" y="-328.5" font-family="FreeSans" font-size="10.00">cvm_hfa_instr_setclmsk</text>
</a>
</g>
<!-- Node13&#45;&gt;Node16 -->
<g id="edge30" class="edge"><title>Node13&#45;&gt;Node16</title>
<path fill="none" stroke="midnightblue" d="M480.037,-306.008C497.73,-310.03 516.69,-314.339 533.797,-318.226"/>
<polygon fill="midnightblue" stroke="midnightblue" points="533.104,-321.658 543.631,-320.462 534.656,-314.832 533.104,-321.658"/>
</g>
<!-- Node17 -->
<g id="node33" class="node"><title>Node17</title>
<a xlink:href="cvm-hfa-instr_8h.html#add4e981377a02cd06e2bca116e584bca" target="_top" xlink:title="Sets vgid in the instruction.">
<polygon fill="white" stroke="black" points="528,-280.5 528,-301.5 652,-301.5 652,-280.5 528,-280.5"/>
<text text-anchor="middle" x="590" y="-288.5" font-family="FreeSans" font-size="10.00">cvm_hfa_instr_setvgid</text>
</a>
</g>
<!-- Node13&#45;&gt;Node17 -->
<g id="edge32" class="edge"><title>Node13&#45;&gt;Node17</title>
<path fill="none" stroke="midnightblue" d="M480.037,-291C492.305,-291 505.183,-291 517.629,-291"/>
<polygon fill="midnightblue" stroke="midnightblue" points="517.96,-294.5 527.96,-291 517.96,-287.5 517.96,-294.5"/>
</g>
<!-- Node18 -->
<g id="node35" class="node"><title>Node18</title>
<a xlink:href="cvm-hfa-common_8h.html#a0da7c57174fb96d75ae9cc2ed3116a05" target="_top" xlink:title="Dump buffer pointed by &quot;buf&quot; in readable format.">
<polygon fill="white" stroke="black" points="547,-240.5 547,-261.5 633,-261.5 633,-240.5 547,-240.5"/>
<text text-anchor="middle" x="590" y="-248.5" font-family="FreeSans" font-size="10.00">hfa_dump_buf</text>
</a>
</g>
<!-- Node13&#45;&gt;Node18 -->
<g id="edge34" class="edge"><title>Node13&#45;&gt;Node18</title>
<path fill="none" stroke="midnightblue" d="M480.037,-275.992C498.796,-271.728 518.978,-267.141 536.867,-263.076"/>
<polygon fill="midnightblue" stroke="midnightblue" points="537.849,-266.442 546.825,-260.813 536.298,-259.616 537.849,-266.442"/>
</g>
<!-- Node19 -->
<g id="node37" class="node"><title>Node19</title>
<a xlink:href="cvm-hfa-instr_8h.html#a88a92a987acac81360f3b880d013cd10" target="_top" xlink:title="Sets wqptr instruction.">
<polygon fill="white" stroke="black" points="524.5,-200.5 524.5,-221.5 655.5,-221.5 655.5,-200.5 524.5,-200.5"/>
<text text-anchor="middle" x="590" y="-208.5" font-family="FreeSans" font-size="10.00">cvm_hfa_instr_setwqptr</text>
</a>
</g>
<!-- Node13&#45;&gt;Node19 -->
<g id="edge36" class="edge"><title>Node13&#45;&gt;Node19</title>
<path fill="none" stroke="midnightblue" d="M438.585,-273.994C458.658,-260.748 488.158,-242.701 516,-231 521.716,-228.598 527.803,-226.407 533.937,-224.431"/>
<polygon fill="midnightblue" stroke="midnightblue" points="535.017,-227.761 543.566,-221.503 532.98,-221.064 535.017,-227.761"/>
</g>
<!-- Node20 -->
<g id="node39" class="node"><title>Node20</title>
<a xlink:href="cvm-hfa-graph_8c.html#a1320f0566be0069bd604cc820a12a114" target="_top" xlink:title="This routine sets WQE field in graph data structure.">
<polygon fill="white" stroke="black" points="537.5,-160.5 537.5,-181.5 642.5,-181.5 642.5,-160.5 537.5,-160.5"/>
<text text-anchor="middle" x="590" y="-168.5" font-family="FreeSans" font-size="10.00">hfa_graph_setwqe</text>
</a>
</g>
<!-- Node13&#45;&gt;Node20 -->
<g id="edge38" class="edge"><title>Node13&#45;&gt;Node20</title>
<path fill="none" stroke="midnightblue" d="M426.859,-273.775C444.499,-251.369 478.332,-212.554 516,-191 519.873,-188.784 524.001,-186.805 528.251,-185.039"/>
<polygon fill="midnightblue" stroke="midnightblue" points="529.557,-188.288 537.697,-181.506 527.105,-181.731 529.557,-188.288"/>
</g>
<!-- Node21 -->
<g id="node41" class="node"><title>Node21</title>
<a xlink:href="cvm-hfa_8c.html#a4677d07b901d6aeb02e793c1dbdfabbf" target="_top" xlink:title="Asynchronous instruction submit to HFA hardware Do not wait for instruction to complete.">
<polygon fill="white" stroke="black" points="529,-120.5 529,-141.5 651,-141.5 651,-120.5 529,-120.5"/>
<text text-anchor="middle" x="590" y="-128.5" font-family="FreeSans" font-size="10.00">hfa_dev_submitasync</text>
</a>
</g>
<!-- Node13&#45;&gt;Node21 -->
<g id="edge40" class="edge"><title>Node13&#45;&gt;Node21</title>
<path fill="none" stroke="midnightblue" d="M421.68,-273.87C435.893,-244.169 469.173,-183.212 516,-151 518.883,-149.017 521.955,-147.23 525.146,-145.62"/>
<polygon fill="midnightblue" stroke="midnightblue" points="526.663,-148.776 534.398,-141.535 523.836,-142.372 526.663,-148.776"/>
</g>
<!-- Node22 -->
<g id="node43" class="node"><title>Node22</title>
<a xlink:href="cvmx-hfa_8c.html#a96a123c8918e83cdf914f6de1bfb4f00" target="_top" xlink:title="Submit a command to the DFA block.">
<polygon fill="white" stroke="black" points="715,-120.5 715,-141.5 817,-141.5 817,-120.5 715,-120.5"/>
<text text-anchor="middle" x="766" y="-128.5" font-family="FreeSans" font-size="10.00">cvmx_hfa_submit</text>
</a>
</g>
<!-- Node21&#45;&gt;Node22 -->
<g id="edge42" class="edge"><title>Node21&#45;&gt;Node22</title>
<path fill="none" stroke="midnightblue" d="M651.062,-131C668.491,-131 687.48,-131 704.911,-131"/>
<polygon fill="midnightblue" stroke="midnightblue" points="704.97,-134.5 714.97,-131 704.97,-127.5 704.97,-134.5"/>
</g>
<!-- Node24 -->
<g id="node47" class="node"><title>Node24</title>
<a xlink:href="cvm-hfa_8c.html#a4753d2dd586e19676b1a59dd16baaeed" target="_top" xlink:title="Obtain status of submitted insruction.">
<polygon fill="white" stroke="black" points="523.5,-80.5 523.5,-101.5 656.5,-101.5 656.5,-80.5 523.5,-80.5"/>
<text text-anchor="middle" x="590" y="-88.5" font-family="FreeSans" font-size="10.00">hfa_dev_getasyncstatus</text>
</a>
</g>
<!-- Node23&#45;&gt;Node24 -->
<g id="edge46" class="edge"><title>Node23&#45;&gt;Node24</title>
<path fill="none" stroke="midnightblue" d="M471.142,-77.4934C484.55,-79.017 499.052,-80.665 513.164,-82.2687"/>
<polygon fill="midnightblue" stroke="midnightblue" points="513.019,-85.7746 523.35,-83.4262 513.809,-78.8194 513.019,-85.7746"/>
</g>
<!-- Node27 -->
<g id="node53" class="node"><title>Node27</title>
<a xlink:href="cvm-hfa-instr_8h.html#aa7b5661907cf23e01fe784a70980ed4b" target="_top" xlink:title="Gets itype from RWORD0.">
<polygon fill="white" stroke="black" points="529,-40.5 529,-61.5 651,-61.5 651,-40.5 529,-40.5"/>
<text text-anchor="middle" x="590" y="-48.5" font-family="FreeSans" font-size="10.00">cvm_hfa_rslt_getitype</text>
</a>
</g>
<!-- Node23&#45;&gt;Node27 -->
<g id="edge52" class="edge"><title>Node23&#45;&gt;Node27</title>
<path fill="none" stroke="midnightblue" d="M471.142,-64.5066C486.292,-62.785 502.839,-60.9046 518.643,-59.1087"/>
<polygon fill="midnightblue" stroke="midnightblue" points="519.358,-62.5501 528.899,-57.9433 518.568,-55.5948 519.358,-62.5501"/>
</g>
<!-- Node28 -->
<g id="node55" class="node"><title>Node28</title>
<a xlink:href="cvm-hfa-graph_8c.html#aa4c0667cc4f92a08c249041eb8a4ec58" target="_top" xlink:title="This routine is used to free the buffers and change the graph load status after instruction completio...">
<polygon fill="white" stroke="black" points="516.5,-0.5 516.5,-21.5 663.5,-21.5 663.5,-0.5 516.5,-0.5"/>
<text text-anchor="middle" x="590" y="-8.5" font-family="FreeSans" font-size="10.00">__hfa_graph_processstatus</text>
</a>
</g>
<!-- Node23&#45;&gt;Node28 -->
<g id="edge54" class="edge"><title>Node23&#45;&gt;Node28</title>
<path fill="none" stroke="midnightblue" d="M438.871,-60.3612C459.353,-51.815 489.267,-39.8247 516,-31 523.117,-28.6505 530.685,-26.3667 538.16,-24.2336"/>
<polygon fill="midnightblue" stroke="midnightblue" points="539.194,-27.5789 547.887,-21.5231 537.315,-20.8357 539.194,-27.5789"/>
</g>
<!-- Node25 -->
<g id="node49" class="node"><title>Node25</title>
<a xlink:href="cvm-hfa-instr_8h.html#a56f2522dcba965745a1bc239fc432dca" target="_top" xlink:title="Gets done from RWORD0.">
<polygon fill="white" stroke="black" points="704.5,-80.5 704.5,-101.5 827.5,-101.5 827.5,-80.5 704.5,-80.5"/>
<text text-anchor="middle" x="766" y="-88.5" font-family="FreeSans" font-size="10.00">cvm_hfa_rslt_getdone</text>
</a>
</g>
<!-- Node24&#45;&gt;Node25 -->
<g id="edge48" class="edge"><title>Node24&#45;&gt;Node25</title>
<path fill="none" stroke="midnightblue" d="M656.538,-91C668.782,-91 681.616,-91 694.012,-91"/>
<polygon fill="midnightblue" stroke="midnightblue" points="694.299,-94.5001 704.299,-91 694.299,-87.5001 694.299,-94.5001"/>
</g>
<!-- Node26 -->
<g id="node51" class="node"><title>Node26</title>
<a xlink:href="cvm-hfa-instr_8h.html#a9700a50b68b6616506528eb725a8bda1" target="_top" xlink:title="Gets reason from RWORD0.">
<polygon fill="white" stroke="black" points="700.5,-40.5 700.5,-61.5 831.5,-61.5 831.5,-40.5 700.5,-40.5"/>
<text text-anchor="middle" x="766" y="-48.5" font-family="FreeSans" font-size="10.00">cvm_hfa_rslt_getreason</text>
</a>
</g>
<!-- Node24&#45;&gt;Node26 -->
<g id="edge50" class="edge"><title>Node24&#45;&gt;Node26</title>
<path fill="none" stroke="midnightblue" d="M636.242,-80.4905C658.788,-75.3663 686.096,-69.1601 709.832,-63.7655"/>
<polygon fill="midnightblue" stroke="midnightblue" points="710.786,-67.138 719.762,-61.5087 709.235,-60.312 710.786,-67.138"/>
</g>
<!-- Node29 -->
<g id="node57" class="node"><title>Node29</title>
<a xlink:href="cvm-hfa-cluster_8c.html#ad8cad96579f5a310b62caaf8c166658f" target="_top" xlink:title="Returns a copy of a cluster of the HFA device.">
<polygon fill="white" stroke="black" points="721,-0.5 721,-21.5 811,-21.5 811,-0.5 721,-0.5"/>
<text text-anchor="middle" x="766" y="-8.5" font-family="FreeSans" font-size="10.00">hfa_get_cluster</text>
</a>
</g>
<!-- Node28&#45;&gt;Node29 -->
<g id="edge56" class="edge"><title>Node28&#45;&gt;Node29</title>
<path fill="none" stroke="midnightblue" d="M663.62,-11C679.386,-11 695.785,-11 710.719,-11"/>
<polygon fill="midnightblue" stroke="midnightblue" points="710.797,-14.5001 720.797,-11 710.797,-7.5001 710.797,-14.5001"/>
</g>
<!-- Node32 -->
<g id="node63" class="node"><title>Node32</title>
<a xlink:href="cvm-hfa-stats_8c.html#ad6d5ab096d9d84d2b2f52bd551443592" target="_top" xlink:title="This routine is the counterpart of hfa_dev_init_stats().">
<polygon fill="white" stroke="black" points="351,-385.5 351,-406.5 477,-406.5 477,-385.5 351,-385.5"/>
<text text-anchor="middle" x="414" y="-393.5" font-family="FreeSans" font-size="10.00">hfa_dev_stats_cleanup</text>
</a>
</g>
<!-- Node31&#45;&gt;Node32 -->
<g id="edge62" class="edge"><title>Node31&#45;&gt;Node32</title>
<path fill="none" stroke="midnightblue" d="M272.021,-354.523C299.767,-362.628 338.313,-373.889 368.241,-382.632"/>
<polygon fill="midnightblue" stroke="midnightblue" points="367.452,-386.048 378.033,-385.493 369.415,-379.329 367.452,-386.048"/>
</g>
<!-- Node33 -->
<g id="node66" class="node"><title>Node33</title>
<a xlink:href="cvm-hfa-stats_8c.html#a75504ae5d9797d314ee11704fc86cdb1" target="_top" xlink:title="This routine prints statistics of each core.">
<polygon fill="white" stroke="black" points="359.5,-333.5 359.5,-354.5 468.5,-354.5 468.5,-333.5 359.5,-333.5"/>
<text text-anchor="middle" x="414" y="-341.5" font-family="FreeSans" font-size="10.00">hfa_dev_stats_print</text>
</a>
</g>
<!-- Node31&#45;&gt;Node33 -->
<g id="edge66" class="edge"><title>Node31&#45;&gt;Node33</title>
<path fill="none" stroke="midnightblue" d="M285.583,-344C305.297,-344 328.244,-344 349.242,-344"/>
<polygon fill="midnightblue" stroke="midnightblue" points="349.371,-347.5 359.371,-344 349.371,-340.5 349.371,-347.5"/>
</g>
<!-- Node32&#45;&gt;Node11 -->
<g id="edge64" class="edge"><title>Node32&#45;&gt;Node11</title>
<path fill="none" stroke="midnightblue" d="M443.29,-406.63C463.587,-413.853 491.297,-423.433 516,-431 523.515,-433.302 531.502,-435.607 539.342,-437.79"/>
<polygon fill="midnightblue" stroke="midnightblue" points="538.579,-441.21 549.148,-440.481 540.431,-434.459 538.579,-441.21"/>
</g>
</g>
</svg>
        <g id="navigator" transform="translate(0 0)" fill="#404254">
                <rect fill="#f2f5e9" fill-opacity="0.5" stroke="#606060" stroke-width=".5" x="0" y="0" width="60" height="60"/>
                <use id="zoomplus" xlink:href="#zoomPlus" x="17" y="9" onmousedown="handleZoom(evt,'in')"/>
                <use id="zoomminus" xlink:href="#zoomMin" x="42" y="9" onmousedown="handleZoom(evt,'out')"/>
                <use id="reset" xlink:href="#resetDef" x="30" y="36" onmousedown="handleReset()"/>
                <g id="arrowUp" xlink:href="#dirArrow" transform="translate(30 24)" onmousedown="handlePan(0,-1)">
                  <use xlink:href="#rim" fill="#404040">
                        <set attributeName="fill" to="#808080" begin="arrowUp.mouseover" end="arrowUp.mouseout"/>
                  </use>
                  <path fill="none" stroke="white" stroke-width="1.5" d="M0,-3.0v7 M-2.5,-0.5L0,-3.0L2.5,-0.5"/>
                </g>
                <g id="arrowRight" xlink:href="#dirArrow" transform="rotate(90) translate(36 -43)" onmousedown="handlePan(1,0)">
                  <use xlink:href="#rim" fill="#404040">
                        <set attributeName="fill" to="#808080" begin="arrowRight.mouseover" end="arrowRight.mouseout"/>
                  </use>
                  <path fill="none" stroke="white" stroke-width="1.5" d="M0,-3.0v7 M-2.5,-0.5L0,-3.0L2.5,-0.5"/>
                </g>
                <g id="arrowDown" xlink:href="#dirArrow" transform="rotate(180) translate(-30 -48)" onmousedown="handlePan(0,1)">
                  <use xlink:href="#rim" fill="#404040">
                        <set attributeName="fill" to="#808080" begin="arrowDown.mouseover" end="arrowDown.mouseout"/>
                  </use>
                  <path fill="none" stroke="white" stroke-width="1.5" d="M0,-3.0v7 M-2.5,-0.5L0,-3.0L2.5,-0.5"/>
                </g>
                <g id="arrowLeft" xlink:href="#dirArrow" transform="rotate(270) translate(-36 17)" onmousedown="handlePan(-1,0)">
                  <use xlink:href="#rim" fill="#404040">
                        <set attributeName="fill" to="#808080" begin="arrowLeft.mouseover" end="arrowLeft.mouseout"/>
                  </use>
                  <path fill="none" stroke="white" stroke-width="1.5" d="M0,-3.0v7 M-2.5,-0.5L0,-3.0L2.5,-0.5"/>
                </g>
        </g>
        <svg viewBox="0 0 15 15" width="100%" height="30px" preserveAspectRatio="xMaxYMin meet">
         <g id="arrow_out" transform="scale(0.3 0.3)">
          <a xlink:href="hfa-lnx_8c_aaf98ef7cdde3a0dfb2e49919de3298b1_cgraph_org.svg" target="_base">
           <rect id="button" ry="5" rx="5" y="6" x="6" height="38" width="38"
                fill="#f2f5e9" fill-opacity="0.5" stroke="#606060" stroke-width="1.0"/>
           <path id="arrow"
             d="M 11.500037,31.436501 C 11.940474,20.09759 22.043105,11.32322 32.158766,21.979434 L 37.068811,17.246167 C 37.068811,17.246167 37.088388,32 37.088388,32 L 22.160133,31.978069 C 22.160133,31.978069 26.997745,27.140456 26.997745,27.140456 C 18.528582,18.264221 13.291696,25.230495 11.500037,31.436501 z"
             style="fill:#404040;"/>
          </a>
         </g>
        </svg>
</svg>
