<?xml version="1.0" encoding="UTF-8" standalone="no"?>
<!DOCTYPE svg PUBLIC "-//W3C//DTD SVG 1.1//EN"
 "http://www.w3.org/Graphics/SVG/1.1/DTD/svg11.dtd">
<!-- Generated by graphviz version 2.24.0 (20090616.2323)
 -->
<!-- Title: process_wqe Pages: 1 -->
<svg width="1580pt" height="816pt"
 viewBox="0.00 0.00 1580.00 816.00" xmlns="http://www.w3.org/2000/svg" xmlns:xlink="http://www.w3.org/1999/xlink">
<g id="graph1" class="graph" transform="scale(1 1) rotate(0) translate(4 812)">
<title>process_wqe</title>
<polygon fill="white" stroke="white" points="-4,5 -4,-812 1577,-812 1577,5 -4,5"/>
<!-- Node1 -->
<g id="node1" class="node"><title>Node1</title>
<polygon fill="#bfbfbf" stroke="black" points="0,-167.5 0,-188.5 80,-188.5 80,-167.5 0,-167.5"/>
<text text-anchor="middle" x="40" y="-175.5" font-family="FreeSans" font-size="10.00">process_wqe</text>
</g>
<!-- Node2 -->
<g id="node3" class="node"><title>Node2</title>
<a xlink:href="hfa-se-ctx_8c.html#a07eb255c008c854386962d955ebe636e" target="_top" xlink:title="Send packet back or free packet data depending on wqe_status.">
<polygon fill="white" stroke="black" points="128,-727.5 128,-748.5 202,-748.5 202,-727.5 128,-727.5"/>
<text text-anchor="middle" x="165" y="-735.5" font-family="FreeSans" font-size="10.00">sendpktwqe</text>
</a>
</g>
<!-- Node1&#45;&gt;Node2 -->
<g id="edge2" class="edge"><title>Node1&#45;&gt;Node2</title>
<path fill="none" stroke="midnightblue" d="M40.1367,-188.539C41.1274,-241.102 49.2706,-479.513 116,-659 124.275,-681.257 139.222,-704.024 150.44,-719.364"/>
<polygon fill="midnightblue" stroke="midnightblue" points="147.731,-721.584 156.535,-727.477 153.327,-717.38 147.731,-721.584"/>
</g>
<!-- Node6 -->
<g id="node11" class="node"><title>Node6</title>
<a xlink:href="hfa-se-ctx_8c.html#a1bf8357c95e9c9afcbc15f7f45d349a8" target="_top" xlink:title="Allocate and set parameters for search.">
<polygon fill="white" stroke="black" points="128.5,-560.5 128.5,-581.5 201.5,-581.5 201.5,-560.5 128.5,-560.5"/>
<text text-anchor="middle" x="165" y="-568.5" font-family="FreeSans" font-size="10.00">get_sparam</text>
</a>
</g>
<!-- Node1&#45;&gt;Node6 -->
<g id="edge10" class="edge"><title>Node1&#45;&gt;Node6</title>
<path fill="none" stroke="midnightblue" d="M43.3434,-188.512C60.1833,-241.456 135.798,-479.188 158.521,-550.631"/>
<polygon fill="midnightblue" stroke="midnightblue" points="155.221,-551.803 161.588,-560.272 161.892,-549.681 155.221,-551.803"/>
</g>
<!-- Node7 -->
<g id="node13" class="node"><title>Node7</title>
<a xlink:href="hfa-se-flow_8c.html#a7ab45fe0bf9371bbe81609ffe8a62702" target="_top" xlink:title="Cleanup memory allocated for search parameters.">
<polygon fill="white" stroke="black" points="277.5,-668.5 277.5,-689.5 344.5,-689.5 344.5,-668.5 277.5,-668.5"/>
<text text-anchor="middle" x="311" y="-676.5" font-family="FreeSans" font-size="10.00">freeparam</text>
</a>
</g>
<!-- Node1&#45;&gt;Node7 -->
<g id="edge26" class="edge"><title>Node1&#45;&gt;Node7</title>
<path fill="none" stroke="midnightblue" d="M40.6907,-188.581C44.6478,-246.416 66.0418,-524.123 116,-591 152.371,-639.688 221.911,-662.088 267.36,-671.913"/>
<polygon fill="midnightblue" stroke="midnightblue" points="266.736,-675.358 277.234,-673.933 268.139,-668.5 266.736,-675.358"/>
</g>
<!-- Node12 -->
<g id="node24" class="node"><title>Node12</title>
<a xlink:href="hfa-se-ctx_8c.html#a9309c0b1faf948cf8698429ff743fcab" target="_top" xlink:title="Add search param to the paramlist to process search later.">
<polygon fill="white" stroke="black" points="116,-0.5 116,-21.5 214,-21.5 214,-0.5 116,-0.5"/>
<text text-anchor="middle" x="165" y="-8.5" font-family="FreeSans" font-size="10.00">addsearchparam</text>
</a>
</g>
<!-- Node1&#45;&gt;Node12 -->
<g id="edge24" class="edge"><title>Node1&#45;&gt;Node12</title>
<path fill="none" stroke="midnightblue" d="M43.2122,-167.371C51.4297,-141.745 75.4709,-75.7408 116,-36 119.657,-32.4144 123.931,-29.2341 128.405,-26.4464"/>
<polygon fill="midnightblue" stroke="midnightblue" points="130.118,-29.4984 137.142,-21.5666 126.705,-23.387 130.118,-29.4984"/>
</g>
<!-- Node13 -->
<g id="node27" class="node"><title>Node13</title>
<a xlink:href="cvm-hfa-search_8c.html#a0c36da280b39bd8afdf6081baea24472" target="_top" xlink:title="This routine performs a pattern search using the given parameters in a non&#45;blocking manner...">
<polygon fill="white" stroke="black" points="1086.5,-71 1086.5,-105 1209.5,-105 1209.5,-71 1086.5,-71"/>
<text text-anchor="start" x="1094.5" y="-92" font-family="FreeSans" font-size="10.00">hfa_searchctx_search</text>
<text text-anchor="middle" x="1148" y="-79" font-family="FreeSans" font-size="10.00">_async</text>
</a>
</g>
<!-- Node1&#45;&gt;Node13 -->
<g id="edge28" class="edge"><title>Node1&#45;&gt;Node13</title>
<path fill="none" stroke="midnightblue" d="M52.2593,-167.307C88.8372,-136.543 201.471,-50 311,-50 311,-50 311,-50 837,-50 919.442,-50 1013.28,-63.3195 1076.11,-74.1871"/>
<polygon fill="midnightblue" stroke="midnightblue" points="1075.86,-77.6957 1086.31,-75.9766 1077.07,-70.801 1075.86,-77.6957"/>
</g>
<!-- Node14 -->
<g id="node29" class="node"><title>Node14</title>
<a xlink:href="hfa-se-ctx_8c.html#a77695c0833b3a3ee78df0d66b41c510e" target="_top" xlink:title="Submit search instruction to the HW by parsing through the paramlist.">
<polygon fill="white" stroke="black" points="458,-80.5 458,-101.5 506,-101.5 506,-80.5 458,-80.5"/>
<text text-anchor="middle" x="482" y="-88.5" font-family="FreeSans" font-size="10.00">submit</text>
</a>
</g>
<!-- Node1&#45;&gt;Node14 -->
<g id="edge30" class="edge"><title>Node1&#45;&gt;Node14</title>
<path fill="none" stroke="midnightblue" d="M77.7457,-167.46C89.9098,-164.226 103.482,-160.789 116,-158 237.246,-130.99 382.851,-106.754 447.811,-96.3643"/>
<polygon fill="midnightblue" stroke="midnightblue" points="448.566,-99.7882 457.892,-94.7597 447.466,-92.8752 448.566,-99.7882"/>
</g>
<!-- Node15 -->
<g id="node32" class="node"><title>Node15</title>
<a xlink:href="hfa-se-ctx_8c.html#a934a9fc08c4aab25d6f0d861e4a4f762" target="_top" xlink:title="poll for all submitted searches.">
<polygon fill="white" stroke="black" points="148.5,-167.5 148.5,-188.5 181.5,-188.5 181.5,-167.5 148.5,-167.5"/>
<text text-anchor="middle" x="165" y="-175.5" font-family="FreeSans" font-size="10.00">poll</text>
</a>
</g>
<!-- Node1&#45;&gt;Node15 -->
<g id="edge34" class="edge"><title>Node1&#45;&gt;Node15</title>
<path fill="none" stroke="midnightblue" d="M80.2388,-178C99.2077,-178 121.323,-178 138.207,-178"/>
<polygon fill="midnightblue" stroke="midnightblue" points="138.461,-181.5 148.461,-178 138.461,-174.5 138.461,-181.5"/>
</g>
<!-- Node3 -->
<g id="node5" class="node"><title>Node3</title>
<a xlink:href="hfa-se-ctx_8c.html#aee1d462f9d43161cf38d392ac80596a7" target="_top" xlink:title="Signal handler for CTRL+C(SIGINT)">
<polygon fill="white" stroke="black" points="276,-786.5 276,-807.5 346,-807.5 346,-786.5 276,-786.5"/>
<text text-anchor="middle" x="311" y="-794.5" font-family="FreeSans" font-size="10.00">freepktwqe</text>
</a>
</g>
<!-- Node2&#45;&gt;Node3 -->
<g id="edge4" class="edge"><title>Node2&#45;&gt;Node3</title>
<path fill="none" stroke="midnightblue" d="M191.102,-748.548C214.521,-758.012 249.107,-771.988 275.122,-782.501"/>
<polygon fill="midnightblue" stroke="midnightblue" points="274.049,-785.843 284.632,-786.344 276.672,-779.353 274.049,-785.843"/>
</g>
<!-- Node4 -->
<g id="node7" class="node"><title>Node4</title>
<a xlink:href="hfa-se-flow_8c.html#a49535197bf697f5b0b5f2952e1e5063c" target="_top" xlink:title="Free packet buffer and wqe to the corresponding fpa pools.">
<polygon fill="white" stroke="black" points="462.5,-707.5 462.5,-728.5 501.5,-728.5 501.5,-707.5 462.5,-707.5"/>
<text text-anchor="middle" x="482" y="-715.5" font-family="FreeSans" font-size="10.00">send</text>
</a>
</g>
<!-- Node2&#45;&gt;Node4 -->
<g id="edge6" class="edge"><title>Node2&#45;&gt;Node4</title>
<path fill="none" stroke="midnightblue" d="M202.237,-738.533C217.095,-738.721 234.357,-738.908 250,-739 304.221,-739.319 318.019,-744.107 372,-739 399.571,-736.392 430.515,-730.185 452.544,-725.191"/>
<polygon fill="midnightblue" stroke="midnightblue" points="453.34,-728.599 462.29,-722.929 451.757,-721.78 453.34,-728.599"/>
</g>
<!-- Node5 -->
<g id="node9" class="node"><title>Node5</title>
<a xlink:href="hfa-se-ctx_8c.html#abb3fee4415d5c2eb56562bf80c4e75f9" target="_top" xlink:title="Resubmit WQE to HW.">
<polygon fill="white" stroke="black" points="282,-708.5 282,-729.5 340,-729.5 340,-708.5 282,-708.5"/>
<text text-anchor="middle" x="311" y="-716.5" font-family="FreeSans" font-size="10.00">resubmit</text>
</a>
</g>
<!-- Node2&#45;&gt;Node5 -->
<g id="edge8" class="edge"><title>Node2&#45;&gt;Node5</title>
<path fill="none" stroke="midnightblue" d="M202.22,-733.156C223.42,-730.397 249.969,-726.942 271.532,-724.136"/>
<polygon fill="midnightblue" stroke="midnightblue" points="272.207,-727.578 281.671,-722.817 271.303,-720.637 272.207,-727.578"/>
</g>
<!-- Node6&#45;&gt;Node7 -->
<g id="edge12" class="edge"><title>Node6&#45;&gt;Node7</title>
<path fill="none" stroke="midnightblue" d="M172.429,-581.548C185.864,-599.877 215.982,-637.683 250,-659 255.454,-662.418 261.551,-665.311 267.724,-667.743"/>
<polygon fill="midnightblue" stroke="midnightblue" points="266.811,-671.133 277.406,-671.194 269.161,-664.539 266.811,-671.133"/>
</g>
<!-- Node8 -->
<g id="node16" class="node"><title>Node8</title>
<a xlink:href="cvm-hfa-search_8h.html#a0210e636ef06f718be0e67753bebaa04" target="_top" xlink:title="This routine configures the application callback routine which will be invoked when a pattern match i...">
<polygon fill="white" stroke="black" points="250.5,-486 250.5,-520 371.5,-520 371.5,-486 250.5,-486"/>
<text text-anchor="start" x="258.5" y="-507" font-family="FreeSans" font-size="10.00">hfa_searchparam_set</text>
<text text-anchor="middle" x="311" y="-494" font-family="FreeSans" font-size="10.00">_matchcb</text>
</a>
</g>
<!-- Node6&#45;&gt;Node8 -->
<g id="edge16" class="edge"><title>Node6&#45;&gt;Node8</title>
<path fill="none" stroke="midnightblue" d="M187.812,-560.375C208.455,-550.761 239.476,-536.313 265.222,-524.321"/>
<polygon fill="midnightblue" stroke="midnightblue" points="266.853,-527.423 274.441,-520.028 263.898,-521.077 266.853,-527.423"/>
</g>
<!-- Node9 -->
<g id="node18" class="node"><title>Node9</title>
<a xlink:href="app-utils_8c.html#a97d86363214adebf7bbc22fa81e2c6b6" target="_top" xlink:title="Match callback to count number of matches.">
<polygon fill="white" stroke="black" points="261.5,-628.5 261.5,-649.5 360.5,-649.5 360.5,-628.5 261.5,-628.5"/>
<text text-anchor="middle" x="311" y="-636.5" font-family="FreeSans" font-size="10.00">hfautils_matchcb</text>
</a>
</g>
<!-- Node6&#45;&gt;Node9 -->
<g id="edge18" class="edge"><title>Node6&#45;&gt;Node9</title>
<path fill="none" stroke="midnightblue" d="M181.428,-581.571C198.19,-592.042 225.191,-608.056 250,-619 254.785,-621.111 259.865,-623.119 264.971,-624.993"/>
<polygon fill="midnightblue" stroke="midnightblue" points="264.157,-628.416 274.752,-628.42 266.472,-621.81 264.157,-628.416"/>
</g>
<!-- Node10 -->
<g id="node20" class="node"><title>Node10</title>
<a xlink:href="cvm-hfa-search_8h.html#a3c407460808f038770473ffc6e4b5c38" target="_top" xlink:title="This routine adds a new input IO vector to Search Param.">
<polygon fill="white" stroke="black" points="250.5,-576 250.5,-610 371.5,-610 371.5,-576 250.5,-576"/>
<text text-anchor="start" x="258.5" y="-597" font-family="FreeSans" font-size="10.00">hfa_searchparam_set</text>
<text text-anchor="middle" x="311" y="-584" font-family="FreeSans" font-size="10.00">_inputiovec</text>
</a>
</g>
<!-- Node6&#45;&gt;Node10 -->
<g id="edge20" class="edge"><title>Node6&#45;&gt;Node10</title>
<path fill="none" stroke="midnightblue" d="M201.842,-576.552C213.555,-578.317 226.93,-580.332 240.207,-582.333"/>
<polygon fill="midnightblue" stroke="midnightblue" points="239.902,-585.826 250.312,-583.855 240.945,-578.904 239.902,-585.826"/>
</g>
<!-- Node11 -->
<g id="node22" class="node"><title>Node11</title>
<a xlink:href="cvm-hfa-search_8h.html#a12882fa53f8ec49b9b2950711161db42" target="_top" xlink:title="This routine sets the output buffer in the sparam.">
<polygon fill="white" stroke="black" points="902.5,-722 902.5,-756 1023.5,-756 1023.5,-722 902.5,-722"/>
<text text-anchor="start" x="910.5" y="-743" font-family="FreeSans" font-size="10.00">hfa_searchparam_set</text>
<text text-anchor="middle" x="963" y="-730" font-family="FreeSans" font-size="10.00">_output</text>
</a>
</g>
<!-- Node6&#45;&gt;Node11 -->
<g id="edge22" class="edge"><title>Node6&#45;&gt;Node11</title>
<path fill="none" stroke="midnightblue" d="M201.547,-566.62C260.478,-559.946 380.194,-548 482,-548 482,-548 482,-548 744,-548 844.92,-548 816.845,-655.815 900,-713 902.09,-714.437 904.272,-715.816 906.515,-717.136"/>
<polygon fill="midnightblue" stroke="midnightblue" points="904.949,-720.268 915.411,-721.937 908.273,-714.108 904.949,-720.268"/>
</g>
<!-- Node7&#45;&gt;Node4 -->
<g id="edge14" class="edge"><title>Node7&#45;&gt;Node4</title>
<path fill="none" stroke="midnightblue" d="M344.784,-686.705C376.128,-693.854 422.326,-704.39 452.293,-711.225"/>
<polygon fill="midnightblue" stroke="midnightblue" points="451.637,-714.665 462.165,-713.476 453.193,-707.84 451.637,-714.665"/>
</g>
<!-- Node14&#45;&gt;Node13 -->
<g id="edge32" class="edge"><title>Node14&#45;&gt;Node13</title>
<path fill="none" stroke="midnightblue" d="M506.2,-90.5378C552.415,-89.6963 656.433,-88 744,-88 744,-88 744,-88 837,-88 918.961,-88 1013.07,-88 1076.11,-88"/>
<polygon fill="midnightblue" stroke="midnightblue" points="1076.34,-91.5001 1086.34,-88 1076.34,-84.5001 1076.34,-91.5001"/>
</g>
<!-- Node16 -->
<g id="node34" class="node"><title>Node16</title>
<a xlink:href="hfa-se-ctx_8c.html#a71e1d3d18cc48b90a1ecde583ffb3f7a" target="_top" xlink:title="Polls once for all submitted searches.If a search is completed the result is processed.">
<polygon fill="white" stroke="black" points="268,-167.5 268,-188.5 354,-188.5 354,-167.5 268,-167.5"/>
<text text-anchor="middle" x="311" y="-175.5" font-family="FreeSans" font-size="10.00">poll_searchctx</text>
</a>
</g>
<!-- Node15&#45;&gt;Node16 -->
<g id="edge36" class="edge"><title>Node15&#45;&gt;Node16</title>
<path fill="none" stroke="midnightblue" d="M181.748,-178C200.212,-178 230.858,-178 257.675,-178"/>
<polygon fill="midnightblue" stroke="midnightblue" points="257.732,-181.5 267.732,-178 257.732,-174.5 257.732,-181.5"/>
</g>
<!-- Node17 -->
<g id="node36" class="node"><title>Node17</title>
<a xlink:href="cvm-hfa-search_8c.html#a6a8e1d7e70e0a10520302df5651e5fc5" target="_top" xlink:title="This routine provides the status of an outstanding pattern search operation initiated using hfa_searc...">
<polygon fill="white" stroke="black" points="1062,-187.5 1062,-208.5 1234,-208.5 1234,-187.5 1062,-187.5"/>
<text text-anchor="middle" x="1148" y="-195.5" font-family="FreeSans" font-size="10.00">hfa_searchctx_get_searchstatus</text>
</a>
</g>
<!-- Node16&#45;&gt;Node17 -->
<g id="edge38" class="edge"><title>Node16&#45;&gt;Node17</title>
<path fill="none" stroke="midnightblue" d="M354.236,-178C416.355,-178 534.453,-178 635,-178 635,-178 635,-178 837,-178 909.136,-178 990.491,-183.425 1051.9,-188.624"/>
<polygon fill="midnightblue" stroke="midnightblue" points="1051.7,-192.12 1061.96,-189.489 1052.3,-185.145 1051.7,-192.12"/>
</g>
<!-- Node21 -->
<g id="node44" class="node"><title>Node21</title>
<a xlink:href="cvm-hfa-search_8h.html#ab50a2d84e35b5a4a03a23fc90e4dffa0" target="_top" xlink:title="This routine retrieves the reason code after a search operation has been completed by the HFA engine...">
<polygon fill="white" stroke="black" points="902,-116 902,-150 1024,-150 1024,-116 902,-116"/>
<text text-anchor="start" x="910" y="-137" font-family="FreeSans" font-size="10.00">hfa_searchparam_get</text>
<text text-anchor="middle" x="963" y="-124" font-family="FreeSans" font-size="10.00">_hwsearch_reason</text>
</a>
</g>
<!-- Node16&#45;&gt;Node21 -->
<g id="edge46" class="edge"><title>Node16&#45;&gt;Node21</title>
<path fill="none" stroke="midnightblue" d="M354.006,-168.835C415.847,-156.477 533.612,-136 635,-136 635,-136 635,-136 744,-136 793.283,-136 848.799,-135.231 891.604,-134.472"/>
<polygon fill="midnightblue" stroke="midnightblue" points="891.709,-137.97 901.644,-134.29 891.582,-130.972 891.709,-137.97"/>
</g>
<!-- Node22 -->
<g id="node46" class="node"><title>Node22</title>
<a xlink:href="cvm-hfa-search_8c.html#a6dbb15dc58155b2c94b19784ad42ef89" target="_top" xlink:title="This routine post&#45;processes the search results from the HFA engine and reports the pattern matches fo...">
<polygon fill="white" stroke="black" points="408.5,-339.5 408.5,-360.5 555.5,-360.5 555.5,-339.5 408.5,-339.5"/>
<text text-anchor="middle" x="482" y="-347.5" font-family="FreeSans" font-size="10.00">hfa_searchctx_getmatches</text>
</a>
</g>
<!-- Node16&#45;&gt;Node22 -->
<g id="edge48" class="edge"><title>Node16&#45;&gt;Node22</title>
<path fill="none" stroke="midnightblue" d="M321.439,-188.5C349.753,-216.98 428.265,-295.951 463.941,-331.836"/>
<polygon fill="midnightblue" stroke="midnightblue" points="461.728,-334.574 471.261,-339.198 466.692,-329.639 461.728,-334.574"/>
</g>
<!-- Node18 -->
<g id="node38" class="node"><title>Node18</title>
<a xlink:href="cvm-hfa_8c.html#a4753d2dd586e19676b1a59dd16baaeed" target="_top" xlink:title="Obtain status of submitted insruction.">
<polygon fill="white" stroke="black" points="1270.5,-187.5 1270.5,-208.5 1403.5,-208.5 1403.5,-187.5 1270.5,-187.5"/>
<text text-anchor="middle" x="1337" y="-195.5" font-family="FreeSans" font-size="10.00">hfa_dev_getasyncstatus</text>
</a>
</g>
<!-- Node17&#45;&gt;Node18 -->
<g id="edge40" class="edge"><title>Node17&#45;&gt;Node18</title>
<path fill="none" stroke="midnightblue" d="M1234.2,-198C1242.95,-198 1251.79,-198 1260.43,-198"/>
<polygon fill="midnightblue" stroke="midnightblue" points="1260.45,-201.5 1270.45,-198 1260.45,-194.5 1260.45,-201.5"/>
</g>
<!-- Node19 -->
<g id="node40" class="node"><title>Node19</title>
<a xlink:href="cvm-hfa-instr_8h.html#a56f2522dcba965745a1bc239fc432dca" target="_top" xlink:title="Gets done from RWORD0.">
<polygon fill="white" stroke="black" points="1444.5,-207.5 1444.5,-228.5 1567.5,-228.5 1567.5,-207.5 1444.5,-207.5"/>
<text text-anchor="middle" x="1506" y="-215.5" font-family="FreeSans" font-size="10.00">cvm_hfa_rslt_getdone</text>
</a>
</g>
<!-- Node18&#45;&gt;Node19 -->
<g id="edge42" class="edge"><title>Node18&#45;&gt;Node19</title>
<path fill="none" stroke="midnightblue" d="M1403.79,-205.905C1413.83,-207.092 1424.21,-208.321 1434.34,-209.519"/>
<polygon fill="midnightblue" stroke="midnightblue" points="1434.02,-213.006 1444.36,-210.706 1434.84,-206.055 1434.02,-213.006"/>
</g>
<!-- Node20 -->
<g id="node42" class="node"><title>Node20</title>
<a xlink:href="cvm-hfa-instr_8h.html#a9700a50b68b6616506528eb725a8bda1" target="_top" xlink:title="Gets reason from RWORD0.">
<polygon fill="white" stroke="black" points="1440.5,-167.5 1440.5,-188.5 1571.5,-188.5 1571.5,-167.5 1440.5,-167.5"/>
<text text-anchor="middle" x="1506" y="-175.5" font-family="FreeSans" font-size="10.00">cvm_hfa_rslt_getreason</text>
</a>
</g>
<!-- Node18&#45;&gt;Node20 -->
<g id="edge44" class="edge"><title>Node18&#45;&gt;Node20</title>
<path fill="none" stroke="midnightblue" d="M1403.79,-190.095C1412.41,-189.075 1421.29,-188.025 1430.05,-186.989"/>
<polygon fill="midnightblue" stroke="midnightblue" points="1430.73,-190.433 1440.24,-185.782 1429.9,-183.481 1430.73,-190.433"/>
</g>
<!-- Node23 -->
<g id="node48" class="node"><title>Node23</title>
<a xlink:href="cvm-hfa-common_8h.html#a0da7c57174fb96d75ae9cc2ed3116a05" target="_top" xlink:title="Dump buffer pointed by &quot;buf&quot; in readable format.">
<polygon fill="white" stroke="black" points="592,-418.5 592,-439.5 678,-439.5 678,-418.5 592,-418.5"/>
<text text-anchor="middle" x="635" y="-426.5" font-family="FreeSans" font-size="10.00">hfa_dump_buf</text>
</a>
</g>
<!-- Node22&#45;&gt;Node23 -->
<g id="edge50" class="edge"><title>Node22&#45;&gt;Node23</title>
<path fill="none" stroke="midnightblue" d="M500.905,-360.564C522.684,-372.635 559.633,-392.809 592,-409 595.364,-410.683 598.897,-412.402 602.431,-414.091"/>
<polygon fill="midnightblue" stroke="midnightblue" points="601.137,-417.35 611.675,-418.445 604.12,-411.018 601.137,-417.35"/>
</g>
<!-- Node24 -->
<g id="node50" class="node"><title>Node24</title>
<a xlink:href="cvm-hfa-pp_8c.html#a02d24f276578f8a39a93968262a08f1d" target="_top" xlink:title="pp">
<polygon fill="white" stroke="black" points="620.5,-378.5 620.5,-399.5 649.5,-399.5 649.5,-378.5 620.5,-378.5"/>
<text text-anchor="middle" x="635" y="-386.5" font-family="FreeSans" font-size="10.00">pp</text>
</a>
</g>
<!-- Node22&#45;&gt;Node24 -->
<g id="edge52" class="edge"><title>Node22&#45;&gt;Node24</title>
<path fill="none" stroke="midnightblue" d="M523.404,-360.554C551.339,-367.675 587.246,-376.827 610.678,-382.8"/>
<polygon fill="midnightblue" stroke="midnightblue" points="609.937,-386.223 620.492,-385.302 611.666,-379.44 609.937,-386.223"/>
</g>
<!-- Node25 -->
<g id="node52" class="node"><title>Node25</title>
<a xlink:href="pp_8h.html#af7a68f9e08d3b54012ad008a4f47e1cd" target="_top" xlink:title="pphfa">
<polygon fill="white" stroke="black" points="722,-458.5 722,-479.5 766,-479.5 766,-458.5 722,-458.5"/>
<text text-anchor="middle" x="744" y="-466.5" font-family="FreeSans" font-size="10.00">pphfa</text>
</a>
</g>
<!-- Node24&#45;&gt;Node25 -->
<g id="edge54" class="edge"><title>Node24&#45;&gt;Node25</title>
<path fill="none" stroke="midnightblue" d="M649.742,-394.141C658.44,-397.579 669.394,-402.637 678,-409 697.232,-423.219 695.909,-433.356 714,-449 715.335,-450.154 716.739,-451.297 718.182,-452.416"/>
<polygon fill="midnightblue" stroke="midnightblue" points="716.48,-455.503 726.643,-458.495 720.564,-449.818 716.48,-455.503"/>
</g>
<!-- Node26 -->
<g id="node54" class="node"><title>Node26</title>
<a xlink:href="cvm-hfa-res_8c.html#ad0de0b790a5786053d59797884dbdd23" target="_top" xlink:title="Rinit">
<polygon fill="white" stroke="black" points="726,-418.5 726,-439.5 762,-439.5 762,-418.5 726,-418.5"/>
<text text-anchor="middle" x="744" y="-426.5" font-family="FreeSans" font-size="10.00">Rinit</text>
</a>
</g>
<!-- Node24&#45;&gt;Node26 -->
<g id="edge56" class="edge"><title>Node24&#45;&gt;Node26</title>
<path fill="none" stroke="midnightblue" d="M649.7,-394.395C666.756,-400.654 695.248,-411.109 716.458,-418.893"/>
<polygon fill="midnightblue" stroke="midnightblue" points="715.319,-422.203 725.913,-422.363 717.731,-415.632 715.319,-422.203"/>
</g>
<!-- Node27 -->
<g id="node56" class="node"><title>Node27</title>
<a xlink:href="cvm-hfa-pp_8c.html#adcc1149c628372e2e566c246870929cb" target="_top" xlink:title="infoentry">
<polygon fill="white" stroke="black" points="714.5,-338.5 714.5,-359.5 773.5,-359.5 773.5,-338.5 714.5,-338.5"/>
<text text-anchor="middle" x="744" y="-346.5" font-family="FreeSans" font-size="10.00">infoentry</text>
</a>
</g>
<!-- Node24&#45;&gt;Node27 -->
<g id="edge58" class="edge"><title>Node24&#45;&gt;Node27</title>
<path fill="none" stroke="midnightblue" d="M649.7,-383.605C664.017,-378.352 686.391,-370.141 705.753,-363.036"/>
<polygon fill="midnightblue" stroke="midnightblue" points="707.073,-366.28 715.255,-359.549 704.661,-359.708 707.073,-366.28"/>
</g>
<!-- Node48 -->
<g id="node103" class="node"><title>Node48</title>
<a xlink:href="cvm-hfa-res_8c.html#a6c56aa24fa6551b23e4283ae2d5bcad8" target="_top" xlink:title="Rreport1">
<polygon fill="white" stroke="black" points="715.5,-498.5 715.5,-519.5 772.5,-519.5 772.5,-498.5 715.5,-498.5"/>
<text text-anchor="middle" x="744" y="-506.5" font-family="FreeSans" font-size="10.00">Rreport1</text>
</a>
</g>
<!-- Node24&#45;&gt;Node48 -->
<g id="edge110" class="edge"><title>Node24&#45;&gt;Node48</title>
<path fill="none" stroke="midnightblue" d="M649.707,-392.949C658.83,-396.038 670.248,-401.15 678,-409 705.397,-436.742 688.798,-459.25 714,-489 714.842,-489.994 715.746,-490.959 716.695,-491.892"/>
<polygon fill="midnightblue" stroke="midnightblue" points="714.665,-494.755 724.611,-498.407 719.113,-489.35 714.665,-494.755"/>
</g>
<!-- Node50 -->
<g id="node107" class="node"><title>Node50</title>
<a xlink:href="cvm-hfa-res_8c.html#a38aa04fce135199ec3bb8726da163846" target="_top" xlink:title="Rfinish">
<polygon fill="white" stroke="black" points="720,-378.5 720,-399.5 768,-399.5 768,-378.5 720,-378.5"/>
<text text-anchor="middle" x="744" y="-386.5" font-family="FreeSans" font-size="10.00">Rfinish</text>
</a>
</g>
<!-- Node24&#45;&gt;Node50 -->
<g id="edge114" class="edge"><title>Node24&#45;&gt;Node50</title>
<path fill="none" stroke="midnightblue" d="M649.7,-389C665.04,-389 689.63,-389 709.854,-389"/>
<polygon fill="midnightblue" stroke="midnightblue" points="709.959,-392.5 719.959,-389 709.959,-385.5 709.959,-392.5"/>
</g>
<!-- Node28 -->
<g id="node58" class="node"><title>Node28</title>
<a xlink:href="hfa-lnx_8c.html#a78ffddbcd7cdd164889cfb53ea367886" target="_top" xlink:title="entry">
<polygon fill="white" stroke="black" points="816.5,-378.5 816.5,-399.5 857.5,-399.5 857.5,-378.5 816.5,-378.5"/>
<text text-anchor="middle" x="837" y="-386.5" font-family="FreeSans" font-size="10.00">entry</text>
</a>
</g>
<!-- Node27&#45;&gt;Node28 -->
<g id="edge60" class="edge"><title>Node27&#45;&gt;Node28</title>
<path fill="none" stroke="midnightblue" d="M768.435,-359.51C780.155,-364.551 794.31,-370.639 806.708,-375.971"/>
<polygon fill="midnightblue" stroke="midnightblue" points="805.625,-379.315 816.194,-380.051 808.391,-372.885 805.625,-379.315"/>
</g>
<!-- Node47 -->
<g id="node101" class="node"><title>Node47</title>
<a xlink:href="cvm-hfa-pp_8c.html#a85b4c8af06430f26eab8afdeea3a7395" target="_top" xlink:title="hashidx">
<polygon fill="white" stroke="black" points="810,-418.5 810,-439.5 864,-439.5 864,-418.5 810,-418.5"/>
<text text-anchor="middle" x="837" y="-426.5" font-family="FreeSans" font-size="10.00">hashidx</text>
</a>
</g>
<!-- Node27&#45;&gt;Node47 -->
<g id="edge108" class="edge"><title>Node27&#45;&gt;Node47</title>
<path fill="none" stroke="midnightblue" d="M761.357,-359.505C765.644,-362.384 770.117,-365.643 774,-369 792.091,-384.644 792.302,-392.912 810,-409 811.106,-410.005 812.261,-411.01 813.445,-412.004"/>
<polygon fill="midnightblue" stroke="midnightblue" points="811.42,-414.864 821.442,-418.301 815.75,-409.364 811.42,-414.864"/>
</g>
<!-- Node28&#45;&gt;Node11 -->
<g id="edge86" class="edge"><title>Node28&#45;&gt;Node11</title>
<path fill="none" stroke="midnightblue" d="M855.528,-399.513C858.835,-402.195 861.893,-405.367 864,-409 932.259,-526.694 817.81,-604.576 900,-713 900.482,-713.636 900.983,-714.257 901.501,-714.863"/>
<polygon fill="midnightblue" stroke="midnightblue" points="899.382,-717.672 909.088,-721.919 904.149,-712.546 899.382,-717.672"/>
</g>
<!-- Node28&#45;&gt;Node21 -->
<g id="edge94" class="edge"><title>Node28&#45;&gt;Node21</title>
<path fill="none" stroke="midnightblue" d="M838.733,-378.293C843.999,-347.962 861.845,-259.612 900,-197 909.051,-182.147 922.178,-168.085 934.11,-156.945"/>
<polygon fill="midnightblue" stroke="midnightblue" points="936.648,-159.369 941.723,-150.068 931.956,-154.174 936.648,-159.369"/>
</g>
<!-- Node28&#45;&gt;Node22 -->
<g id="edge100" class="edge"><title>Node28&#45;&gt;Node22</title>
<path fill="none" stroke="midnightblue" d="M829.97,-378.465C819.669,-364.092 798.962,-338.985 774,-329 689.417,-295.167 580.134,-319.005 522.202,-336.342"/>
<polygon fill="midnightblue" stroke="midnightblue" points="520.865,-333.092 512.339,-339.381 522.926,-339.781 520.865,-333.092"/>
</g>
<!-- Node29 -->
<g id="node60" class="node"><title>Node29</title>
<a xlink:href="hfa-lnx_8c.html#a4c3443f524b4c0d95639694f0b74e850" target="_top" xlink:title="Process command line options, Read graph and payload.">
<polygon fill="white" stroke="black" points="916,-682.5 916,-703.5 1010,-703.5 1010,-682.5 916,-682.5"/>
<text text-anchor="middle" x="963" y="-690.5" font-family="FreeSans" font-size="10.00">process_options</text>
</a>
</g>
<!-- Node28&#45;&gt;Node29 -->
<g id="edge62" class="edge"><title>Node28&#45;&gt;Node29</title>
<path fill="none" stroke="midnightblue" d="M855.479,-399.542C858.789,-402.222 861.861,-405.385 864,-409 924.313,-510.909 823.761,-582.387 900,-673 902.009,-675.387 904.301,-677.493 906.795,-679.35"/>
<polygon fill="midnightblue" stroke="midnightblue" points="905.538,-682.673 915.926,-684.754 909.103,-676.649 905.538,-682.673"/>
</g>
<!-- Node33 -->
<g id="node68" class="node"><title>Node33</title>
<a xlink:href="cvm-hfa_8c.html#a873768042b716d60996ec5d858fc8fd9" target="_top" xlink:title="This function must be called by application to initialize HFA engine and setup resources for HFA hard...">
<polygon fill="white" stroke="red" points="926,-338.5 926,-359.5 1000,-359.5 1000,-338.5 926,-338.5"/>
<text text-anchor="middle" x="963" y="-346.5" font-family="FreeSans" font-size="10.00">hfa_dev_init</text>
</a>
</g>
<!-- Node28&#45;&gt;Node33 -->
<g id="edge70" class="edge"><title>Node28&#45;&gt;Node33</title>
<path fill="none" stroke="midnightblue" d="M857.525,-382.484C874.38,-377.133 898.83,-369.372 919.946,-362.668"/>
<polygon fill="midnightblue" stroke="midnightblue" points="921.212,-365.938 929.684,-359.577 919.093,-359.267 921.212,-365.938"/>
</g>
<!-- Node37 -->
<g id="node76" class="node"><title>Node37</title>
<a xlink:href="hfa-lnx_8c.html#a546f3769e735d4bef0bfab1cba56921c" target="_top" xlink:title="Load graph to HFA memory and cache.">
<polygon fill="white" stroke="red" points="928.5,-642.5 928.5,-663.5 997.5,-663.5 997.5,-642.5 928.5,-642.5"/>
<text text-anchor="middle" x="963" y="-650.5" font-family="FreeSans" font-size="10.00">graph_load</text>
</a>
</g>
<!-- Node28&#45;&gt;Node37 -->
<g id="edge78" class="edge"><title>Node28&#45;&gt;Node37</title>
<path fill="none" stroke="midnightblue" d="M855.412,-399.582C858.728,-402.259 861.818,-405.411 864,-409 916.386,-495.157 834.168,-556.623 900,-633 904.945,-638.737 911.527,-642.845 918.574,-645.783"/>
<polygon fill="midnightblue" stroke="midnightblue" points="917.768,-649.205 928.362,-649.107 920.019,-642.577 917.768,-649.205"/>
</g>
<!-- Node38 -->
<g id="node78" class="node"><title>Node38</title>
<a xlink:href="hfa-lnx_8c.html#a924d2733ebc7a856f8c3fd293193ba44" target="_top" xlink:title="Initialize search context.">
<polygon fill="white" stroke="red" points="925.5,-602.5 925.5,-623.5 1000.5,-623.5 1000.5,-602.5 925.5,-602.5"/>
<text text-anchor="middle" x="963" y="-610.5" font-family="FreeSans" font-size="10.00">initialize_ctx</text>
</a>
</g>
<!-- Node28&#45;&gt;Node38 -->
<g id="edge80" class="edge"><title>Node28&#45;&gt;Node38</title>
<path fill="none" stroke="midnightblue" d="M855.319,-399.64C858.641,-402.313 861.757,-405.449 864,-409 908.491,-479.457 844.536,-530.812 900,-593 904.311,-597.833 909.783,-601.508 915.694,-604.299"/>
<polygon fill="midnightblue" stroke="midnightblue" points="914.653,-607.649 925.243,-607.998 917.182,-601.122 914.653,-607.649"/>
</g>
<!-- Node39 -->
<g id="node80" class="node"><title>Node39</title>
<a xlink:href="app-utils_8c.html#a4b47f3c9c5a0b3eaee64e264171628a3" target="_top" xlink:title="This routine reads data of chunksize/a packet from given payload(Normal/PCAP) file and returns data b...">
<polygon fill="white" stroke="red" points="900,-562.5 900,-583.5 1026,-583.5 1026,-562.5 900,-562.5"/>
<text text-anchor="middle" x="963" y="-570.5" font-family="FreeSans" font-size="10.00">hfautils_parse_payload</text>
</a>
</g>
<!-- Node28&#45;&gt;Node39 -->
<g id="edge82" class="edge"><title>Node28&#45;&gt;Node39</title>
<path fill="none" stroke="midnightblue" d="M854.899,-399.511C858.334,-402.226 861.602,-405.411 864,-409 900.654,-463.849 854.831,-504.919 900,-553 901.242,-554.322 902.572,-555.558 903.972,-556.712"/>
<polygon fill="midnightblue" stroke="midnightblue" points="902.398,-559.867 912.668,-562.472 906.264,-554.031 902.398,-559.867"/>
</g>
<!-- Node40 -->
<g id="node82" class="node"><title>Node40</title>
<a xlink:href="cvm-hfa-search_8h.html#ae9741e867075c9b8cc63a7d889d5bf20" target="_top" xlink:title="This routine is a variant of hfa_searchparam_set_inputiovec() when the previously searched input IO v...">
<polygon fill="white" stroke="black" points="902.5,-510 902.5,-544 1023.5,-544 1023.5,-510 902.5,-510"/>
<text text-anchor="start" x="910.5" y="-531" font-family="FreeSans" font-size="10.00">hfa_searchparam_set</text>
<text text-anchor="middle" x="963" y="-518" font-family="FreeSans" font-size="10.00">_inputiovec_0_n</text>
</a>
</g>
<!-- Node28&#45;&gt;Node40 -->
<g id="edge84" class="edge"><title>Node28&#45;&gt;Node40</title>
<path fill="none" stroke="midnightblue" d="M854.278,-399.536C857.832,-402.286 861.306,-405.479 864,-409 890.681,-443.871 869.24,-469.668 900,-501 900.933,-501.95 901.905,-502.866 902.911,-503.751"/>
<polygon fill="midnightblue" stroke="midnightblue" points="901.1,-506.766 911.215,-509.919 905.275,-501.146 901.1,-506.766"/>
</g>
<!-- Node41 -->
<g id="node85" class="node"><title>Node41</title>
<a xlink:href="cvm-hfa-search_8c.html#a57d7540278164eb6b6c132be00db0de5" target="_top" xlink:title="This routine performs a pattern search using the given parameters in a blocking manner.">
<polygon fill="white" stroke="black" points="901.5,-206.5 901.5,-227.5 1024.5,-227.5 1024.5,-206.5 901.5,-206.5"/>
<text text-anchor="middle" x="963" y="-214.5" font-family="FreeSans" font-size="10.00">hfa_searchctx_search</text>
</a>
</g>
<!-- Node28&#45;&gt;Node41 -->
<g id="edge88" class="edge"><title>Node28&#45;&gt;Node41</title>
<path fill="none" stroke="midnightblue" d="M838.31,-378.424C842.272,-350.968 856.649,-276.793 900,-237 901.683,-235.455 903.485,-234.03 905.377,-232.714"/>
<polygon fill="midnightblue" stroke="midnightblue" points="907.267,-235.665 914.166,-227.624 903.758,-229.608 907.267,-235.665"/>
</g>
<!-- Node42 -->
<g id="node90" class="node"><title>Node42</title>
<a xlink:href="cvm-hfa-common_8h.html#ad117ba199386b8d427cbb04f288b5905" target="_top" xlink:title="Dump HFA related registers.">
<polygon fill="white" stroke="black" points="917.5,-470.5 917.5,-491.5 1008.5,-491.5 1008.5,-470.5 917.5,-470.5"/>
<text text-anchor="middle" x="963" y="-478.5" font-family="FreeSans" font-size="10.00">hfa_dump_regs</text>
</a>
</g>
<!-- Node28&#45;&gt;Node42 -->
<g id="edge96" class="edge"><title>Node28&#45;&gt;Node42</title>
<path fill="none" stroke="midnightblue" d="M853.134,-399.608C856.899,-402.438 860.753,-405.648 864,-409 883.556,-429.192 877.392,-444.296 900,-461 902.504,-462.85 905.184,-464.532 907.975,-466.062"/>
<polygon fill="midnightblue" stroke="midnightblue" points="906.655,-469.309 917.189,-470.445 909.662,-462.988 906.655,-469.309"/>
</g>
<!-- Node43 -->
<g id="node92" class="node"><title>Node43</title>
<a xlink:href="cvm-hfa-search_8h.html#ad18e328b50b109e1e44821f3d006bd9d" target="_top" xlink:title="This routine returns the data&#45;buffer offset.">
<polygon fill="white" stroke="black" points="902,-418 902,-452 1024,-452 1024,-418 902,-418"/>
<text text-anchor="start" x="910" y="-439" font-family="FreeSans" font-size="10.00">hfa_searchparam_get</text>
<text text-anchor="middle" x="963" y="-426" font-family="FreeSans" font-size="10.00">_hwsearch_pdboff</text>
</a>
</g>
<!-- Node28&#45;&gt;Node43 -->
<g id="edge98" class="edge"><title>Node28&#45;&gt;Node43</title>
<path fill="none" stroke="midnightblue" d="M857.525,-396.493C870.94,-401.391 889.164,-408.044 906.69,-414.442"/>
<polygon fill="midnightblue" stroke="midnightblue" points="905.726,-417.816 916.32,-417.958 908.127,-411.241 905.726,-417.816"/>
</g>
<!-- Node44 -->
<g id="node95" class="node"><title>Node44</title>
<a xlink:href="app-utils_8c.html#a633038357891aa5147b77fe939f300bf" target="_top" xlink:title="Print pattern matches via match buffer and cleanup all matches.">
<polygon fill="white" stroke="red" points="901,-378.5 901,-399.5 1025,-399.5 1025,-378.5 901,-378.5"/>
<text text-anchor="middle" x="963" y="-386.5" font-family="FreeSans" font-size="10.00">hfautils_print_matches</text>
</a>
</g>
<!-- Node28&#45;&gt;Node44 -->
<g id="edge102" class="edge"><title>Node28&#45;&gt;Node44</title>
<path fill="none" stroke="midnightblue" d="M857.525,-389C866.84,-389 878.476,-389 890.586,-389"/>
<polygon fill="midnightblue" stroke="midnightblue" points="890.83,-392.5 900.83,-389 890.83,-385.5 890.83,-392.5"/>
</g>
<!-- Node45 -->
<g id="node97" class="node"><title>Node45</title>
<a xlink:href="cvm-hfa-search_8h.html#ac5bcfbfda7036d9aca28a3c5828847a5" target="_top" xlink:title="This routine retrieves flags returned by post&#45;processor.">
<polygon fill="white" stroke="black" points="902,-286 902,-320 1024,-320 1024,-286 902,-286"/>
<text text-anchor="start" x="910" y="-307" font-family="FreeSans" font-size="10.00">hfa_searchparam_get</text>
<text text-anchor="middle" x="963" y="-294" font-family="FreeSans" font-size="10.00">_ppoflags</text>
</a>
</g>
<!-- Node28&#45;&gt;Node45 -->
<g id="edge104" class="edge"><title>Node28&#45;&gt;Node45</title>
<path fill="none" stroke="midnightblue" d="M845.861,-378.431C857.265,-365.374 878.216,-343.155 900,-329 902.17,-327.59 904.43,-326.231 906.747,-324.924"/>
<polygon fill="midnightblue" stroke="midnightblue" points="908.657,-327.876 915.908,-320.15 905.422,-321.668 908.657,-327.876"/>
</g>
<!-- Node46 -->
<g id="node99" class="node"><title>Node46</title>
<a xlink:href="hfa-lnx_8c.html#a5c6551bf9ea9cf51ae7f2076c4cbe8ef" target="_top" xlink:title="Application cleanup will be done by this routine.">
<polygon fill="white" stroke="red" points="936,-246.5 936,-267.5 990,-267.5 990,-246.5 936,-246.5"/>
<text text-anchor="middle" x="963" y="-254.5" font-family="FreeSans" font-size="10.00">cleanup</text>
</a>
</g>
<!-- Node28&#45;&gt;Node46 -->
<g id="edge106" class="edge"><title>Node28&#45;&gt;Node46</title>
<path fill="none" stroke="midnightblue" d="M840.064,-378.315C846.978,-356.108 865.906,-304.734 900,-277 907.453,-270.937 916.768,-266.701 925.932,-263.745"/>
<polygon fill="midnightblue" stroke="midnightblue" points="927.028,-267.073 935.72,-261.014 925.147,-260.331 927.028,-267.073"/>
</g>
<!-- Node30 -->
<g id="node62" class="node"><title>Node30</title>
<a xlink:href="app-utils_8c.html#a8d5ec2ca8ebb2e04916983e6053a5c79" target="_top" xlink:title="Return size of a file(compressed or uncompressed).">
<polygon fill="white" stroke="red" points="1100.5,-728.5 1100.5,-749.5 1195.5,-749.5 1195.5,-728.5 1100.5,-728.5"/>
<text text-anchor="middle" x="1148" y="-736.5" font-family="FreeSans" font-size="10.00">hfautils_file_size</text>
</a>
</g>
<!-- Node29&#45;&gt;Node30 -->
<g id="edge64" class="edge"><title>Node29&#45;&gt;Node30</title>
<path fill="none" stroke="midnightblue" d="M1001.96,-703.505C1020.17,-708.344 1042.16,-714.09 1062,-719 1071.6,-721.376 1081.82,-723.824 1091.74,-726.157"/>
<polygon fill="midnightblue" stroke="midnightblue" points="1090.99,-729.577 1101.52,-728.445 1092.58,-722.761 1090.99,-729.577"/>
</g>
<!-- Node31 -->
<g id="node64" class="node"><title>Node31</title>
<a xlink:href="app-utils_8c.html#a12339c67618c4b3a54c32f43d378c273" target="_top" xlink:title="Read data from a file to a buffer(compressed or uncompressed).">
<polygon fill="white" stroke="red" points="1099.5,-636.5 1099.5,-657.5 1196.5,-657.5 1196.5,-636.5 1099.5,-636.5"/>
<text text-anchor="middle" x="1148" y="-644.5" font-family="FreeSans" font-size="10.00">hfautils_read_file</text>
</a>
</g>
<!-- Node29&#45;&gt;Node31 -->
<g id="edge66" class="edge"><title>Node29&#45;&gt;Node31</title>
<path fill="none" stroke="midnightblue" d="M1001.96,-682.495C1020.17,-677.656 1042.16,-671.91 1062,-667 1071.6,-664.624 1081.82,-662.176 1091.74,-659.843"/>
<polygon fill="midnightblue" stroke="midnightblue" points="1092.58,-663.239 1101.52,-657.555 1090.99,-656.423 1092.58,-663.239"/>
</g>
<!-- Node32 -->
<g id="node66" class="node"><title>Node32</title>
<a xlink:href="app-utils_8c.html#a1944a739d03e86dcaee1a7d245cfeba0" target="_top" xlink:title="Initialize the attributes needed for parsing the payload file.">
<polygon fill="white" stroke="red" points="1091.5,-676 1091.5,-710 1204.5,-710 1204.5,-676 1091.5,-676"/>
<text text-anchor="start" x="1099.5" y="-697" font-family="FreeSans" font-size="10.00">hfautils_init_payload</text>
<text text-anchor="middle" x="1148" y="-684" font-family="FreeSans" font-size="10.00">_attributes</text>
</a>
</g>
<!-- Node29&#45;&gt;Node32 -->
<g id="edge68" class="edge"><title>Node29&#45;&gt;Node32</title>
<path fill="none" stroke="midnightblue" d="M1010.16,-693C1031.7,-693 1057.6,-693 1081.11,-693"/>
<polygon fill="midnightblue" stroke="midnightblue" points="1081.36,-696.5 1091.36,-693 1081.36,-689.5 1081.36,-696.5"/>
</g>
<!-- Node34 -->
<g id="node70" class="node"><title>Node34</title>
<a xlink:href="cvm-hfa-stats_8c.html#a2fcf955b47370bfa46705ee5a23a70cf" target="_top" xlink:title="This routine allocates memory for counters to maintain statistics of each processing core...">
<polygon fill="white" stroke="red" points="1097,-338.5 1097,-359.5 1199,-359.5 1199,-338.5 1097,-338.5"/>
<text text-anchor="middle" x="1148" y="-346.5" font-family="FreeSans" font-size="10.00">hfa_dev_stats_init</text>
</a>
</g>
<!-- Node33&#45;&gt;Node34 -->
<g id="edge72" class="edge"><title>Node33&#45;&gt;Node34</title>
<path fill="none" stroke="midnightblue" d="M1000.44,-349C1025.17,-349 1058.16,-349 1086.67,-349"/>
<polygon fill="midnightblue" stroke="midnightblue" points="1086.95,-352.5 1096.95,-349 1086.95,-345.5 1086.95,-352.5"/>
</g>
<!-- Node35 -->
<g id="node72" class="node"><title>Node35</title>
<a xlink:href="cvm-hfa_8c.html#a27982497398da2118cd5287ed51732e7" target="_top" xlink:title="Provides device&#45;specific information This is a utility routine used to obtain HFA device&#45;specific det...">
<polygon fill="white" stroke="black" points="1092.5,-298.5 1092.5,-319.5 1203.5,-319.5 1203.5,-298.5 1092.5,-298.5"/>
<text text-anchor="middle" x="1148" y="-306.5" font-family="FreeSans" font-size="10.00">hfa_dev_getdevinfo</text>
</a>
</g>
<!-- Node33&#45;&gt;Node35 -->
<g id="edge74" class="edge"><title>Node33&#45;&gt;Node35</title>
<path fill="none" stroke="midnightblue" d="M1000.44,-340.905C1025.94,-335.392 1060.22,-327.98 1089.32,-321.688"/>
<polygon fill="midnightblue" stroke="midnightblue" points="1090.34,-325.049 1099.37,-319.514 1088.86,-318.207 1090.34,-325.049"/>
</g>
<!-- Node36 -->
<g id="node74" class="node"><title>Node36</title>
<a xlink:href="pp_8h.html#a6f5982b2671e9682262a26b0d2996396" target="_top" xlink:title="Constructs a readable version string for the PP library.">
<polygon fill="white" stroke="black" points="1088,-378.5 1088,-399.5 1208,-399.5 1208,-378.5 1088,-378.5"/>
<text text-anchor="middle" x="1148" y="-386.5" font-family="FreeSans" font-size="10.00">pp_get_version_string</text>
</a>
</g>
<!-- Node33&#45;&gt;Node36 -->
<g id="edge76" class="edge"><title>Node33&#45;&gt;Node36</title>
<path fill="none" stroke="midnightblue" d="M1000.44,-357.095C1025.94,-362.608 1060.22,-370.02 1089.32,-376.312"/>
<polygon fill="midnightblue" stroke="midnightblue" points="1088.86,-379.793 1099.37,-378.486 1090.34,-372.951 1088.86,-379.793"/>
</g>
<!-- Node41&#45;&gt;Node13 -->
<g id="edge90" class="edge"><title>Node41&#45;&gt;Node13</title>
<path fill="none" stroke="midnightblue" d="M978.139,-206.443C1007.89,-185.701 1074.57,-139.201 1114.97,-111.029"/>
<polygon fill="midnightblue" stroke="midnightblue" points="1117.22,-113.731 1123.42,-105.141 1113.21,-107.989 1117.22,-113.731"/>
</g>
<!-- Node41&#45;&gt;Node17 -->
<g id="edge92" class="edge"><title>Node41&#45;&gt;Node17</title>
<path fill="none" stroke="midnightblue" d="M1024.6,-210.673C1033.4,-209.77 1042.62,-208.822 1051.89,-207.87"/>
<polygon fill="midnightblue" stroke="midnightblue" points="1052.36,-211.341 1061.95,-206.837 1051.65,-204.377 1052.36,-211.341"/>
</g>
<!-- Node49 -->
<g id="node105" class="node"><title>Node49</title>
<a xlink:href="cvm-hfa-res_8c.html#a70c9e55ba1fcb934f74ad71ddca9d08f" target="_top" xlink:title="Radd">
<polygon fill="white" stroke="black" points="816.5,-498.5 816.5,-519.5 857.5,-519.5 857.5,-498.5 816.5,-498.5"/>
<text text-anchor="middle" x="837" y="-506.5" font-family="FreeSans" font-size="10.00">Radd</text>
</a>
</g>
<!-- Node48&#45;&gt;Node49 -->
<g id="edge112" class="edge"><title>Node48&#45;&gt;Node49</title>
<path fill="none" stroke="midnightblue" d="M772.662,-509C783.229,-509 795.245,-509 806.009,-509"/>
<polygon fill="midnightblue" stroke="midnightblue" points="806.256,-512.5 816.256,-509 806.256,-505.5 806.256,-512.5"/>
</g>
</g>
</svg>
