<?xml version="1.0" encoding="UTF-8" standalone="no"?>
<!DOCTYPE svg PUBLIC "-//W3C//DTD SVG 1.1//EN"
 "http://www.w3.org/Graphics/SVG/1.1/DTD/svg11.dtd">
<!-- Generated by graphviz version 2.24.0 (20090616.2323)
 -->
<!-- Title: post_process Pages: 1 -->
<!--zoomable 922 -->
<svg id="main" version="1.1" xmlns="http://www.w3.org/2000/svg" xmlns:xlink="http://www.w3.org/1999/xlink" xml:space="preserve" onload="init(evt)">
        <defs>
                <circle id="rim" cx="0" cy="0" r="7"/>
                <circle id="rim2" cx="0" cy="0" r="3.5"/>
                <g id="zoomPlus">
                        <use xlink:href="#rim" fill="#404040">
                                <set attributeName="fill" to="#808080" begin="zoomplus.mouseover" end="zoomplus.mouseout"/>
                        </use>
                        <path d="M-4,0h8M0,-4v8" fill="none" stroke="white" stroke-width="1.5" pointer-events="none"/>
                </g>
                <g id="zoomMin">
                        <use xlink:href="#rim" fill="#404040">
                                <set attributeName="fill" to="#808080" begin="zoomminus.mouseover" end="zoomminus.mouseout"/>
                        </use>
                        <path d="M-4,0h8" fill="none" stroke="white" stroke-width="1.5" pointer-events="none"/>
                </g>
                <g id="dirArrow">
                        <path fill="none" stroke="white" stroke-width="1.5" d="M0,-3.0v7 M-2.5,-0.5L0,-3.0L2.5,-0.5"/>
                </g>
               <g id="resetDef">
                       <use xlink:href="#rim2" fill="#404040">
                               <set attributeName="fill" to="#808080" begin="reset.mouseover" end="reset.mouseout"/>
                       </use>
               </g>
        </defs>

<script type="text/javascript">
var viewWidth = 1022;
var viewHeight = 922;
var sectionId = 'dynsection-9';
</script>
<script xlink:href="svgpan.js"/>
<svg id="graph" class="graph">
<g id="viewport">
<title>post_process</title>
<polygon fill="white" stroke="white" points="-4,5 -4,-918 1019,-918 1019,5 -4,5"/>
<!-- Node1 -->
<g id="node1" class="node"><title>Node1</title>
<polygon fill="#bfbfbf" stroke="black" points="0,-134.5 0,-155.5 80,-155.5 80,-134.5 0,-134.5"/>
<text text-anchor="middle" x="40" y="-142.5" font-family="FreeSans" font-size="10.00">post_process</text>
</g>
<!-- Node2 -->
<g id="node3" class="node"><title>Node2</title>
<a xlink:href="cvm-hfa-search_8h.html#ab50a2d84e35b5a4a03a23fc90e4dffa0" target="_top" xlink:title="This routine retrieves the reason code after a search operation has been completed by the HFA engine...">
<polygon fill="white" stroke="black" points="610,-612 610,-646 732,-646 732,-612 610,-612"/>
<text text-anchor="start" x="618" y="-633" font-family="FreeSans" font-size="10.00">hfa_searchparam_get</text>
<text text-anchor="middle" x="671" y="-620" font-family="FreeSans" font-size="10.00">_hwsearch_reason</text>
</a>
</g>
<!-- Node1&#45;&gt;Node2 -->
<g id="edge2" class="edge"><title>Node1&#45;&gt;Node2</title>
<path fill="none" stroke="midnightblue" d="M42.6217,-155.588C58.5485,-217.122 148.197,-526 343,-526 343,-526 343,-526 452,-526 529.319,-526 537.558,-571.123 608,-603 611.596,-604.627 615.325,-606.272 619.09,-607.902"/>
<polygon fill="midnightblue" stroke="midnightblue" points="617.901,-611.2 628.472,-611.905 620.648,-604.761 617.901,-611.2"/>
</g>
<!-- Node3 -->
<g id="node5" class="node"><title>Node3</title>
<a xlink:href="cvm-hfa-common_8h.html#ad117ba199386b8d427cbb04f288b5905" target="_top" xlink:title="Dump HFA related registers.">
<polygon fill="white" stroke="black" points="625.5,-136.5 625.5,-157.5 716.5,-157.5 716.5,-136.5 625.5,-136.5"/>
<text text-anchor="middle" x="671" y="-144.5" font-family="FreeSans" font-size="10.00">hfa_dump_regs</text>
</a>
</g>
<!-- Node1&#45;&gt;Node3 -->
<g id="edge4" class="edge"><title>Node1&#45;&gt;Node3</title>
<path fill="none" stroke="midnightblue" d="M80.1903,-145C138.217,-145 248.839,-145 343,-145 343,-145 343,-145 452,-145 507.441,-145 570.773,-145.649 615.021,-146.207"/>
<polygon fill="midnightblue" stroke="midnightblue" points="615.237,-149.71 625.281,-146.34 615.327,-142.711 615.237,-149.71"/>
</g>
<!-- Node4 -->
<g id="node7" class="node"><title>Node4</title>
<a xlink:href="cvm-hfa-search_8h.html#ad18e328b50b109e1e44821f3d006bd9d" target="_top" xlink:title="This routine returns the data&#45;buffer offset.">
<polygon fill="white" stroke="black" points="610,-84 610,-118 732,-118 732,-84 610,-84"/>
<text text-anchor="start" x="618" y="-105" font-family="FreeSans" font-size="10.00">hfa_searchparam_get</text>
<text text-anchor="middle" x="671" y="-92" font-family="FreeSans" font-size="10.00">_hwsearch_pdboff</text>
</a>
</g>
<!-- Node1&#45;&gt;Node4 -->
<g id="edge6" class="edge"><title>Node1&#45;&gt;Node4</title>
<path fill="none" stroke="midnightblue" d="M80.431,-135.783C138.292,-123.42 248.204,-103 343,-103 343,-103 343,-103 452,-103 501.281,-103 556.796,-102.487 599.602,-101.981"/>
<polygon fill="midnightblue" stroke="midnightblue" points="599.685,-105.48 609.642,-101.86 599.6,-98.481 599.685,-105.48"/>
</g>
<!-- Node5 -->
<g id="node9" class="node"><title>Node5</title>
<a xlink:href="cvm-hfa-search_8c.html#a6dbb15dc58155b2c94b19784ad42ef89" target="_top" xlink:title="This routine post&#45;processes the search results from the HFA engine and reports the pattern matches fo...">
<polygon fill="white" stroke="black" points="116.5,-233.5 116.5,-254.5 263.5,-254.5 263.5,-233.5 116.5,-233.5"/>
<text text-anchor="middle" x="190" y="-241.5" font-family="FreeSans" font-size="10.00">hfa_searchctx_getmatches</text>
</a>
</g>
<!-- Node1&#45;&gt;Node5 -->
<g id="edge8" class="edge"><title>Node1&#45;&gt;Node5</title>
<path fill="none" stroke="midnightblue" d="M56.0526,-155.595C82.3295,-172.937 134.686,-207.493 165.585,-227.886"/>
<polygon fill="midnightblue" stroke="midnightblue" points="163.789,-230.894 174.063,-233.481 167.645,-225.052 163.789,-230.894"/>
</g>
<!-- Node41 -->
<g id="node85" class="node"><title>Node41</title>
<a xlink:href="app-utils_8c.html#a633038357891aa5147b77fe939f300bf" target="_top" xlink:title="Print pattern matches via match buffer and cleanup all matches.">
<polygon fill="white" stroke="black" points="609,-42.5 609,-63.5 733,-63.5 733,-42.5 609,-42.5"/>
<text text-anchor="middle" x="671" y="-50.5" font-family="FreeSans" font-size="10.00">hfautils_print_matches</text>
</a>
</g>
<!-- Node1&#45;&gt;Node41 -->
<g id="edge108" class="edge"><title>Node1&#45;&gt;Node41</title>
<path fill="none" stroke="midnightblue" d="M56.2341,-134.381C71.1847,-125.063 94.2744,-111.813 116,-104 212.784,-69.1951 240.148,-59 343,-59 343,-59 343,-59 452,-59 500.945,-59 556.02,-57.4839 598.695,-55.976"/>
<polygon fill="midnightblue" stroke="midnightblue" points="598.843,-59.473 608.71,-55.6142 598.59,-52.4776 598.843,-59.473"/>
</g>
<!-- Node6 -->
<g id="node11" class="node"><title>Node6</title>
<a xlink:href="cvm-hfa-common_8h.html#a0da7c57174fb96d75ae9cc2ed3116a05" target="_top" xlink:title="Dump buffer pointed by &quot;buf&quot; in readable format.">
<polygon fill="white" stroke="black" points="300,-213.5 300,-234.5 386,-234.5 386,-213.5 300,-213.5"/>
<text text-anchor="middle" x="343" y="-221.5" font-family="FreeSans" font-size="10.00">hfa_dump_buf</text>
</a>
</g>
<!-- Node5&#45;&gt;Node6 -->
<g id="edge10" class="edge"><title>Node5&#45;&gt;Node6</title>
<path fill="none" stroke="midnightblue" d="M263.811,-234.351C272.612,-233.201 281.46,-232.044 289.89,-230.943"/>
<polygon fill="midnightblue" stroke="midnightblue" points="290.47,-234.396 299.932,-229.63 289.563,-227.456 290.47,-234.396"/>
</g>
<!-- Node7 -->
<g id="node13" class="node"><title>Node7</title>
<a xlink:href="cvm-hfa-pp_8c.html#a02d24f276578f8a39a93968262a08f1d" target="_top" xlink:title="pp">
<polygon fill="white" stroke="black" points="328.5,-253.5 328.5,-274.5 357.5,-274.5 357.5,-253.5 328.5,-253.5"/>
<text text-anchor="middle" x="343" y="-261.5" font-family="FreeSans" font-size="10.00">pp</text>
</a>
</g>
<!-- Node5&#45;&gt;Node7 -->
<g id="edge12" class="edge"><title>Node5&#45;&gt;Node7</title>
<path fill="none" stroke="midnightblue" d="M263.811,-253.649C283.488,-256.221 303.403,-258.824 318.339,-260.776"/>
<polygon fill="midnightblue" stroke="midnightblue" points="317.891,-264.247 328.26,-262.073 318.798,-257.307 317.891,-264.247"/>
</g>
<!-- Node8 -->
<g id="node15" class="node"><title>Node8</title>
<a xlink:href="pp_8h.html#af7a68f9e08d3b54012ad008a4f47e1cd" target="_top" xlink:title="pphfa">
<polygon fill="white" stroke="black" points="430,-333.5 430,-354.5 474,-354.5 474,-333.5 430,-333.5"/>
<text text-anchor="middle" x="452" y="-341.5" font-family="FreeSans" font-size="10.00">pphfa</text>
</a>
</g>
<!-- Node7&#45;&gt;Node8 -->
<g id="edge14" class="edge"><title>Node7&#45;&gt;Node8</title>
<path fill="none" stroke="midnightblue" d="M356.511,-274.664C372.091,-286.867 398.571,-307.317 422,-324 423.644,-325.171 425.351,-326.364 427.077,-327.556"/>
<polygon fill="midnightblue" stroke="midnightblue" points="425.441,-330.675 435.683,-333.386 429.367,-324.88 425.441,-330.675"/>
</g>
<!-- Node9 -->
<g id="node17" class="node"><title>Node9</title>
<a xlink:href="cvm-hfa-res_8c.html#ad0de0b790a5786053d59797884dbdd23" target="_top" xlink:title="Rinit">
<polygon fill="white" stroke="black" points="434,-293.5 434,-314.5 470,-314.5 470,-293.5 434,-293.5"/>
<text text-anchor="middle" x="452" y="-301.5" font-family="FreeSans" font-size="10.00">Rinit</text>
</a>
</g>
<!-- Node7&#45;&gt;Node9 -->
<g id="edge16" class="edge"><title>Node7&#45;&gt;Node9</title>
<path fill="none" stroke="midnightblue" d="M357.7,-269.395C374.756,-275.654 403.248,-286.109 424.458,-293.893"/>
<polygon fill="midnightblue" stroke="midnightblue" points="423.319,-297.203 433.913,-297.363 425.731,-290.632 423.319,-297.203"/>
</g>
<!-- Node10 -->
<g id="node19" class="node"><title>Node10</title>
<a xlink:href="cvm-hfa-pp_8c.html#adcc1149c628372e2e566c246870929cb" target="_top" xlink:title="infoentry">
<polygon fill="white" stroke="black" points="422.5,-213.5 422.5,-234.5 481.5,-234.5 481.5,-213.5 422.5,-213.5"/>
<text text-anchor="middle" x="452" y="-221.5" font-family="FreeSans" font-size="10.00">infoentry</text>
</a>
</g>
<!-- Node7&#45;&gt;Node10 -->
<g id="edge18" class="edge"><title>Node7&#45;&gt;Node10</title>
<path fill="none" stroke="midnightblue" d="M357.7,-258.605C372.017,-253.352 394.391,-245.141 413.753,-238.036"/>
<polygon fill="midnightblue" stroke="midnightblue" points="415.073,-241.28 423.255,-234.549 412.661,-234.708 415.073,-241.28"/>
</g>
<!-- Node48 -->
<g id="node99" class="node"><title>Node48</title>
<a xlink:href="cvm-hfa-res_8c.html#a6c56aa24fa6551b23e4283ae2d5bcad8" target="_top" xlink:title="Rreport1">
<polygon fill="white" stroke="black" points="423.5,-173.5 423.5,-194.5 480.5,-194.5 480.5,-173.5 423.5,-173.5"/>
<text text-anchor="middle" x="452" y="-181.5" font-family="FreeSans" font-size="10.00">Rreport1</text>
</a>
</g>
<!-- Node7&#45;&gt;Node48 -->
<g id="edge102" class="edge"><title>Node7&#45;&gt;Node48</title>
<path fill="none" stroke="midnightblue" d="M357.742,-258.859C366.44,-255.421 377.394,-250.363 386,-244 405.232,-229.781 403.909,-219.644 422,-204 423.335,-202.846 424.739,-201.703 426.182,-200.584"/>
<polygon fill="midnightblue" stroke="midnightblue" points="428.564,-203.182 434.643,-194.505 424.48,-197.497 428.564,-203.182"/>
</g>
<!-- Node50 -->
<g id="node103" class="node"><title>Node50</title>
<a xlink:href="cvm-hfa-res_8c.html#a38aa04fce135199ec3bb8726da163846" target="_top" xlink:title="Rfinish">
<polygon fill="white" stroke="black" points="428,-253.5 428,-274.5 476,-274.5 476,-253.5 428,-253.5"/>
<text text-anchor="middle" x="452" y="-261.5" font-family="FreeSans" font-size="10.00">Rfinish</text>
</a>
</g>
<!-- Node7&#45;&gt;Node50 -->
<g id="edge106" class="edge"><title>Node7&#45;&gt;Node50</title>
<path fill="none" stroke="midnightblue" d="M357.7,-264C373.04,-264 397.63,-264 417.854,-264"/>
<polygon fill="midnightblue" stroke="midnightblue" points="417.959,-267.5 427.959,-264 417.959,-260.5 417.959,-267.5"/>
</g>
<!-- Node11 -->
<g id="node21" class="node"><title>Node11</title>
<a xlink:href="hfa-lnx_8c.html#a78ffddbcd7cdd164889cfb53ea367886" target="_top" xlink:title="entry">
<polygon fill="white" stroke="black" points="524.5,-340.5 524.5,-361.5 565.5,-361.5 565.5,-340.5 524.5,-340.5"/>
<text text-anchor="middle" x="545" y="-348.5" font-family="FreeSans" font-size="10.00">entry</text>
</a>
</g>
<!-- Node10&#45;&gt;Node11 -->
<g id="edge20" class="edge"><title>Node10&#45;&gt;Node11</title>
<path fill="none" stroke="midnightblue" d="M470.79,-234.632C474.759,-237.376 478.731,-240.543 482,-244 506.79,-270.215 526.093,-307.887 536.488,-330.83"/>
<polygon fill="midnightblue" stroke="midnightblue" points="533.397,-332.495 540.625,-340.241 539.805,-329.678 533.397,-332.495"/>
</g>
<!-- Node47 -->
<g id="node97" class="node"><title>Node47</title>
<a xlink:href="cvm-hfa-pp_8c.html#a85b4c8af06430f26eab8afdeea3a7395" target="_top" xlink:title="hashidx">
<polygon fill="white" stroke="black" points="518,-213.5 518,-234.5 572,-234.5 572,-213.5 518,-213.5"/>
<text text-anchor="middle" x="545" y="-221.5" font-family="FreeSans" font-size="10.00">hashidx</text>
</a>
</g>
<!-- Node10&#45;&gt;Node47 -->
<g id="edge100" class="edge"><title>Node10&#45;&gt;Node47</title>
<path fill="none" stroke="midnightblue" d="M481.681,-224C489.92,-224 498.973,-224 507.592,-224"/>
<polygon fill="midnightblue" stroke="midnightblue" points="507.807,-227.5 517.807,-224 507.807,-220.5 507.807,-227.5"/>
</g>
<!-- Node11&#45;&gt;Node2 -->
<g id="edge80" class="edge"><title>Node11&#45;&gt;Node2</title>
<path fill="none" stroke="midnightblue" d="M546.385,-361.728C552.145,-404.882 575.436,-565.281 608,-603 608.735,-603.851 609.501,-604.674 610.297,-605.471"/>
<polygon fill="midnightblue" stroke="midnightblue" points="608.205,-608.283 618.144,-611.953 612.663,-602.886 608.205,-608.283"/>
</g>
<!-- Node11&#45;&gt;Node3 -->
<g id="edge82" class="edge"><title>Node11&#45;&gt;Node3</title>
<path fill="none" stroke="midnightblue" d="M547.333,-340.306C555.251,-304.91 582.047,-192.376 608,-167 610.538,-164.518 613.383,-162.344 616.424,-160.439"/>
<polygon fill="midnightblue" stroke="midnightblue" points="618.166,-163.478 625.417,-155.754 614.931,-157.27 618.166,-163.478"/>
</g>
<!-- Node11&#45;&gt;Node4 -->
<g id="edge84" class="edge"><title>Node11&#45;&gt;Node4</title>
<path fill="none" stroke="midnightblue" d="M547.719,-340.347C558.833,-296.946 600.568,-135.359 608,-127 608.747,-126.16 609.525,-125.346 610.331,-124.559"/>
<polygon fill="midnightblue" stroke="midnightblue" points="612.685,-127.156 618.252,-118.142 608.279,-121.717 612.685,-127.156"/>
</g>
<!-- Node11&#45;&gt;Node5 -->
<g id="edge86" class="edge"><title>Node11&#45;&gt;Node5</title>
<path fill="none" stroke="midnightblue" d="M524.255,-357.456C499.571,-364.166 457.261,-372.579 422,-364 338.845,-343.767 252.208,-288.148 212.416,-260.314"/>
<polygon fill="midnightblue" stroke="midnightblue" points="214.396,-257.427 204.213,-254.502 210.35,-263.139 214.396,-257.427"/>
</g>
<!-- Node12 -->
<g id="node23" class="node"><title>Node12</title>
<a xlink:href="hfa-lnx_8c.html#a4c3443f524b4c0d95639694f0b74e850" target="_top" xlink:title="Process command line options, Read graph and payload.">
<polygon fill="white" stroke="black" points="624,-480.5 624,-501.5 718,-501.5 718,-480.5 624,-480.5"/>
<text text-anchor="middle" x="671" y="-488.5" font-family="FreeSans" font-size="10.00">process_options</text>
</a>
</g>
<!-- Node11&#45;&gt;Node12 -->
<g id="edge22" class="edge"><title>Node11&#45;&gt;Node12</title>
<path fill="none" stroke="midnightblue" d="M547.641,-361.726C553.948,-385.097 572.108,-440.929 608,-471 610.04,-472.709 612.227,-474.272 614.518,-475.702"/>
<polygon fill="midnightblue" stroke="midnightblue" points="613.299,-479.017 623.777,-480.585 616.564,-472.825 613.299,-479.017"/>
</g>
<!-- Node16 -->
<g id="node31" class="node"><title>Node16</title>
<a xlink:href="cvm-hfa_8c.html#a873768042b716d60996ec5d858fc8fd9" target="_top" xlink:title="This function must be called by application to initialize HFA engine and setup resources for HFA hard...">
<polygon fill="white" stroke="black" points="634,-440.5 634,-461.5 708,-461.5 708,-440.5 634,-440.5"/>
<text text-anchor="middle" x="671" y="-448.5" font-family="FreeSans" font-size="10.00">hfa_dev_init</text>
</a>
</g>
<!-- Node11&#45;&gt;Node16 -->
<g id="edge30" class="edge"><title>Node11&#45;&gt;Node16</title>
<path fill="none" stroke="midnightblue" d="M550.645,-361.751C560.184,-378.895 581.11,-412.383 608,-431 612.956,-434.431 618.531,-437.297 624.262,-439.684"/>
<polygon fill="midnightblue" stroke="midnightblue" points="623.38,-443.089 633.973,-443.265 625.802,-436.521 623.38,-443.089"/>
</g>
<!-- Node35 -->
<g id="node69" class="node"><title>Node35</title>
<a xlink:href="hfa-lnx_8c.html#a546f3769e735d4bef0bfab1cba56921c" target="_top" xlink:title="Load graph to HFA memory and cache.">
<polygon fill="white" stroke="red" points="636.5,-400.5 636.5,-421.5 705.5,-421.5 705.5,-400.5 636.5,-400.5"/>
<text text-anchor="middle" x="671" y="-408.5" font-family="FreeSans" font-size="10.00">graph_load</text>
</a>
</g>
<!-- Node11&#45;&gt;Node35 -->
<g id="edge68" class="edge"><title>Node11&#45;&gt;Node35</title>
<path fill="none" stroke="midnightblue" d="M559.401,-361.668C571.786,-370.462 590.389,-382.783 608,-391 613.869,-393.738 620.212,-396.241 626.535,-398.48"/>
<polygon fill="midnightblue" stroke="midnightblue" points="625.79,-401.921 636.384,-401.775 628.011,-395.283 625.79,-401.921"/>
</g>
<!-- Node36 -->
<g id="node71" class="node"><title>Node36</title>
<a xlink:href="hfa-lnx_8c.html#a924d2733ebc7a856f8c3fd293193ba44" target="_top" xlink:title="Initialize search context.">
<polygon fill="white" stroke="red" points="633.5,-360.5 633.5,-381.5 708.5,-381.5 708.5,-360.5 633.5,-360.5"/>
<text text-anchor="middle" x="671" y="-368.5" font-family="FreeSans" font-size="10.00">initialize_ctx</text>
</a>
</g>
<!-- Node11&#45;&gt;Node36 -->
<g id="edge70" class="edge"><title>Node11&#45;&gt;Node36</title>
<path fill="none" stroke="midnightblue" d="M565.525,-354.258C581.214,-356.748 603.482,-360.283 623.517,-363.463"/>
<polygon fill="midnightblue" stroke="midnightblue" points="623.013,-366.927 633.438,-365.038 624.11,-360.013 623.013,-366.927"/>
</g>
<!-- Node37 -->
<g id="node73" class="node"><title>Node37</title>
<a xlink:href="app-utils_8c.html#a4b47f3c9c5a0b3eaee64e264171628a3" target="_top" xlink:title="This routine reads data of chunksize/a packet from given payload(Normal/PCAP) file and returns data b...">
<polygon fill="white" stroke="red" points="608,-320.5 608,-341.5 734,-341.5 734,-320.5 608,-320.5"/>
<text text-anchor="middle" x="671" y="-328.5" font-family="FreeSans" font-size="10.00">hfautils_parse_payload</text>
</a>
</g>
<!-- Node11&#45;&gt;Node37 -->
<g id="edge72" class="edge"><title>Node11&#45;&gt;Node37</title>
<path fill="none" stroke="midnightblue" d="M565.525,-347.742C574.623,-346.298 585.933,-344.503 597.737,-342.629"/>
<polygon fill="midnightblue" stroke="midnightblue" points="598.403,-346.067 607.731,-341.043 597.306,-339.154 598.403,-346.067"/>
</g>
<!-- Node38 -->
<g id="node75" class="node"><title>Node38</title>
<a xlink:href="cvm-hfa-search_8h.html#ae9741e867075c9b8cc63a7d889d5bf20" target="_top" xlink:title="This routine is a variant of hfa_searchparam_set_inputiovec() when the previously searched input IO v...">
<polygon fill="white" stroke="black" points="610.5,-268 610.5,-302 731.5,-302 731.5,-268 610.5,-268"/>
<text text-anchor="start" x="618.5" y="-289" font-family="FreeSans" font-size="10.00">hfa_searchparam_set</text>
<text text-anchor="middle" x="671" y="-276" font-family="FreeSans" font-size="10.00">_inputiovec_0_n</text>
</a>
</g>
<!-- Node11&#45;&gt;Node38 -->
<g id="edge74" class="edge"><title>Node11&#45;&gt;Node38</title>
<path fill="none" stroke="midnightblue" d="M560.089,-340.364C572.582,-331.819 590.979,-319.83 608,-311 611.087,-309.399 614.295,-307.822 617.557,-306.286"/>
<polygon fill="midnightblue" stroke="midnightblue" points="619.172,-309.397 626.832,-302.077 616.279,-303.022 619.172,-309.397"/>
</g>
<!-- Node39 -->
<g id="node77" class="node"><title>Node39</title>
<a xlink:href="cvm-hfa-search_8h.html#a12882fa53f8ec49b9b2950711161db42" target="_top" xlink:title="This routine sets the output buffer in the sparam.">
<polygon fill="white" stroke="black" points="610.5,-216 610.5,-250 731.5,-250 731.5,-216 610.5,-216"/>
<text text-anchor="start" x="618.5" y="-237" font-family="FreeSans" font-size="10.00">hfa_searchparam_set</text>
<text text-anchor="middle" x="671" y="-224" font-family="FreeSans" font-size="10.00">_output</text>
</a>
</g>
<!-- Node11&#45;&gt;Node39 -->
<g id="edge76" class="edge"><title>Node11&#45;&gt;Node39</title>
<path fill="none" stroke="midnightblue" d="M549.704,-340.425C558.561,-321.616 579.421,-282.153 608,-259 609.551,-257.743 611.172,-256.539 612.846,-255.386"/>
<polygon fill="midnightblue" stroke="midnightblue" points="614.881,-258.244 621.587,-250.042 611.23,-252.272 614.881,-258.244"/>
</g>
<!-- Node40 -->
<g id="node79" class="node"><title>Node40</title>
<a xlink:href="cvm-hfa-search_8c.html#a57d7540278164eb6b6c132be00db0de5" target="_top" xlink:title="This routine performs a pattern search using the given parameters in a blocking manner.">
<polygon fill="white" stroke="red" points="609.5,-176.5 609.5,-197.5 732.5,-197.5 732.5,-176.5 609.5,-176.5"/>
<text text-anchor="middle" x="671" y="-184.5" font-family="FreeSans" font-size="10.00">hfa_searchctx_search</text>
</a>
</g>
<!-- Node11&#45;&gt;Node40 -->
<g id="edge78" class="edge"><title>Node11&#45;&gt;Node40</title>
<path fill="none" stroke="midnightblue" d="M546.621,-340.199C551.186,-313.571 566.626,-244.243 608,-207 609.732,-205.441 611.587,-204.003 613.532,-202.677"/>
<polygon fill="midnightblue" stroke="midnightblue" points="615.588,-205.534 622.555,-197.552 612.131,-199.448 615.588,-205.534"/>
</g>
<!-- Node11&#45;&gt;Node41 -->
<g id="edge88" class="edge"><title>Node11&#45;&gt;Node41</title>
<path fill="none" stroke="midnightblue" d="M547.814,-340.401C552.875,-321.222 563.753,-279.455 572,-244 589.398,-169.2 557.226,-132.617 608,-75 609.975,-72.7591 612.191,-70.7465 614.579,-68.9388"/>
<polygon fill="midnightblue" stroke="midnightblue" points="616.614,-71.7954 623.265,-63.5488 612.923,-65.8475 616.614,-71.7954"/>
</g>
<!-- Node45 -->
<g id="node93" class="node"><title>Node45</title>
<a xlink:href="cvm-hfa-search_8h.html#ac5bcfbfda7036d9aca28a3c5828847a5" target="_top" xlink:title="This routine retrieves flags returned by post&#45;processor.">
<polygon fill="white" stroke="black" points="610,-560 610,-594 732,-594 732,-560 610,-560"/>
<text text-anchor="start" x="618" y="-581" font-family="FreeSans" font-size="10.00">hfa_searchparam_get</text>
<text text-anchor="middle" x="671" y="-568" font-family="FreeSans" font-size="10.00">_ppoflags</text>
</a>
</g>
<!-- Node11&#45;&gt;Node45 -->
<g id="edge96" class="edge"><title>Node11&#45;&gt;Node45</title>
<path fill="none" stroke="midnightblue" d="M545.32,-361.653C546.862,-394.291 555.831,-494.126 608,-551 608.877,-551.956 609.795,-552.879 610.748,-553.768"/>
<polygon fill="midnightblue" stroke="midnightblue" points="608.631,-556.555 618.665,-559.957 612.942,-551.04 608.631,-556.555"/>
</g>
<!-- Node46 -->
<g id="node95" class="node"><title>Node46</title>
<a xlink:href="hfa-lnx_8c.html#a5c6551bf9ea9cf51ae7f2076c4cbe8ef" target="_top" xlink:title="Application cleanup will be done by this routine.">
<polygon fill="white" stroke="red" points="644,-520.5 644,-541.5 698,-541.5 698,-520.5 644,-520.5"/>
<text text-anchor="middle" x="671" y="-528.5" font-family="FreeSans" font-size="10.00">cleanup</text>
</a>
</g>
<!-- Node11&#45;&gt;Node46 -->
<g id="edge98" class="edge"><title>Node11&#45;&gt;Node46</title>
<path fill="none" stroke="midnightblue" d="M546.078,-361.704C549.525,-390.236 562.849,-468.807 608,-511 615.218,-517.745 624.707,-522.216 634.122,-525.179"/>
<polygon fill="midnightblue" stroke="midnightblue" points="633.246,-528.567 643.809,-527.752 635.044,-521.802 633.246,-528.567"/>
</g>
<!-- Node13 -->
<g id="node25" class="node"><title>Node13</title>
<a xlink:href="app-utils_8c.html#a8d5ec2ca8ebb2e04916983e6053a5c79" target="_top" xlink:title="Return size of a file(compressed or uncompressed).">
<polygon fill="white" stroke="red" points="805.5,-892.5 805.5,-913.5 900.5,-913.5 900.5,-892.5 805.5,-892.5"/>
<text text-anchor="middle" x="853" y="-900.5" font-family="FreeSans" font-size="10.00">hfautils_file_size</text>
</a>
</g>
<!-- Node12&#45;&gt;Node13 -->
<g id="edge24" class="edge"><title>Node12&#45;&gt;Node13</title>
<path fill="none" stroke="midnightblue" d="M718.254,-499.097C724.293,-501.967 729.815,-505.824 734,-511 786.219,-575.583 715.524,-820.31 770,-883 776.708,-890.72 785.83,-895.731 795.577,-898.933"/>
<polygon fill="midnightblue" stroke="midnightblue" points="794.902,-902.375 805.466,-901.565 796.703,-895.611 794.902,-902.375"/>
</g>
<!-- Node14 -->
<g id="node27" class="node"><title>Node14</title>
<a xlink:href="app-utils_8c.html#a12339c67618c4b3a54c32f43d378c273" target="_top" xlink:title="Read data from a file to a buffer(compressed or uncompressed).">
<polygon fill="white" stroke="red" points="804.5,-852.5 804.5,-873.5 901.5,-873.5 901.5,-852.5 804.5,-852.5"/>
<text text-anchor="middle" x="853" y="-860.5" font-family="FreeSans" font-size="10.00">hfautils_read_file</text>
</a>
</g>
<!-- Node12&#45;&gt;Node14 -->
<g id="edge26" class="edge"><title>Node12&#45;&gt;Node14</title>
<path fill="none" stroke="midnightblue" d="M718.2,-499.141C724.247,-502.005 729.785,-505.849 734,-511 827.983,-625.873 672.003,-731.532 770,-843 776.465,-850.353 785.119,-855.243 794.403,-858.452"/>
<polygon fill="midnightblue" stroke="midnightblue" points="793.666,-861.88 804.24,-861.219 795.562,-855.142 793.666,-861.88"/>
</g>
<!-- Node15 -->
<g id="node29" class="node"><title>Node15</title>
<a xlink:href="app-utils_8c.html#a1944a739d03e86dcaee1a7d245cfeba0" target="_top" xlink:title="Initialize the attributes needed for parsing the payload file.">
<polygon fill="white" stroke="red" points="796.5,-800 796.5,-834 909.5,-834 909.5,-800 796.5,-800"/>
<text text-anchor="start" x="804.5" y="-821" font-family="FreeSans" font-size="10.00">hfautils_init_payload</text>
<text text-anchor="middle" x="853" y="-808" font-family="FreeSans" font-size="10.00">_attributes</text>
</a>
</g>
<!-- Node12&#45;&gt;Node15 -->
<g id="edge28" class="edge"><title>Node12&#45;&gt;Node15</title>
<path fill="none" stroke="midnightblue" d="M718.109,-499.216C724.168,-502.07 729.735,-505.891 734,-511 814.41,-607.316 689.406,-694.838 770,-791 774.735,-796.649 780.681,-801.089 787.206,-804.576"/>
<polygon fill="midnightblue" stroke="midnightblue" points="785.85,-807.804 796.401,-808.764 788.751,-801.434 785.85,-807.804"/>
</g>
<!-- Node17 -->
<g id="node33" class="node"><title>Node17</title>
<a xlink:href="cvm-hfa-stats_8c.html#a2fcf955b47370bfa46705ee5a23a70cf" target="_top" xlink:title="This routine allocates memory for counters to maintain statistics of each processing core...">
<polygon fill="white" stroke="red" points="802,-160.5 802,-181.5 904,-181.5 904,-160.5 802,-160.5"/>
<text text-anchor="middle" x="853" y="-168.5" font-family="FreeSans" font-size="10.00">hfa_dev_stats_init</text>
</a>
</g>
<!-- Node16&#45;&gt;Node17 -->
<g id="edge32" class="edge"><title>Node16&#45;&gt;Node17</title>
<path fill="none" stroke="midnightblue" d="M708.319,-446.392C717.955,-443.448 727.447,-438.684 734,-431 803.991,-348.933 697.143,-270.534 770,-191 776.038,-184.409 783.837,-179.813 792.232,-176.639"/>
<polygon fill="midnightblue" stroke="midnightblue" points="793.395,-179.943 801.902,-173.628 791.314,-173.259 793.395,-179.943"/>
</g>
<!-- Node18 -->
<g id="node35" class="node"><title>Node18</title>
<a xlink:href="cvm-hfa_8c.html#a27982497398da2118cd5287ed51732e7" target="_top" xlink:title="Provides device&#45;specific information This is a utility routine used to obtain HFA device&#45;specific det...">
<polygon fill="white" stroke="black" points="797.5,-120.5 797.5,-141.5 908.5,-141.5 908.5,-120.5 797.5,-120.5"/>
<text text-anchor="middle" x="853" y="-128.5" font-family="FreeSans" font-size="10.00">hfa_dev_getdevinfo</text>
</a>
</g>
<!-- Node16&#45;&gt;Node18 -->
<g id="edge34" class="edge"><title>Node16&#45;&gt;Node18</title>
<path fill="none" stroke="midnightblue" d="M708.095,-446.58C717.846,-443.646 727.455,-438.84 734,-431 814.41,-334.684 686.225,-244.404 770,-151 774.967,-145.462 781.176,-141.327 787.95,-138.257"/>
<polygon fill="midnightblue" stroke="midnightblue" points="789.33,-141.478 797.473,-134.7 786.881,-134.921 789.33,-141.478"/>
</g>
<!-- Node19 -->
<g id="node37" class="node"><title>Node19</title>
<a xlink:href="pp_8h.html#a6f5982b2671e9682262a26b0d2996396" target="_top" xlink:title="Constructs a readable version string for the PP library.">
<polygon fill="white" stroke="black" points="793,-80.5 793,-101.5 913,-101.5 913,-80.5 793,-80.5"/>
<text text-anchor="middle" x="853" y="-88.5" font-family="FreeSans" font-size="10.00">pp_get_version_string</text>
</a>
</g>
<!-- Node16&#45;&gt;Node19 -->
<g id="edge36" class="edge"><title>Node16&#45;&gt;Node19</title>
<path fill="none" stroke="midnightblue" d="M708.174,-446.646C717.927,-443.713 727.517,-438.892 734,-431 824.848,-320.412 675.287,-218.297 770,-111 773.801,-106.694 778.353,-103.233 783.341,-100.461"/>
<polygon fill="midnightblue" stroke="midnightblue" points="785.08,-103.515 792.724,-96.1793 782.174,-97.1465 785.08,-103.515"/>
</g>
<!-- Node20 -->
<g id="node39" class="node"><title>Node20</title>
<a xlink:href="cvm-hfa_8c.html#afd1d53fe8a402d4c5799e6e98c67baaa" target="_top" xlink:title="Displays HFA Device info.">
<polygon fill="white" stroke="red" points="794.5,-760.5 794.5,-781.5 911.5,-781.5 911.5,-760.5 794.5,-760.5"/>
<text text-anchor="middle" x="853" y="-768.5" font-family="FreeSans" font-size="10.00">hfa_dev_display_info</text>
</a>
</g>
<!-- Node16&#45;&gt;Node20 -->
<g id="edge38" class="edge"><title>Node16&#45;&gt;Node20</title>
<path fill="none" stroke="midnightblue" d="M708.095,-455.42C717.846,-458.354 727.455,-463.16 734,-471 814.41,-567.316 686.225,-657.596 770,-751 774.286,-755.779 779.498,-759.514 785.2,-762.42"/>
<polygon fill="midnightblue" stroke="midnightblue" points="783.925,-765.681 794.5,-766.337 786.642,-759.23 783.925,-765.681"/>
</g>
<!-- Node21 -->
<g id="node41" class="node"><title>Node21</title>
<a xlink:href="cvm-hfa_8c.html#a236e64ca73680ea6761204d5c44d4e96" target="_top" xlink:title="API to set PP resource allocator for partial matches.">
<polygon fill="white" stroke="black" points="785.5,-720.5 785.5,-741.5 920.5,-741.5 920.5,-720.5 785.5,-720.5"/>
<text text-anchor="middle" x="853" y="-728.5" font-family="FreeSans" font-size="10.00">hfa_dev_set_fnp_ppalloc</text>
</a>
</g>
<!-- Node16&#45;&gt;Node21 -->
<g id="edge40" class="edge"><title>Node16&#45;&gt;Node21</title>
<path fill="none" stroke="midnightblue" d="M708.319,-455.608C717.955,-458.552 727.447,-463.316 734,-471 803.991,-553.067 697.143,-631.466 770,-711 772.018,-713.203 774.233,-715.183 776.601,-716.962"/>
<polygon fill="midnightblue" stroke="midnightblue" points="774.833,-719.984 785.18,-722.264 778.513,-714.029 774.833,-719.984"/>
</g>
<!-- Node22 -->
<g id="node43" class="node"><title>Node22</title>
<a xlink:href="cvm-hfa_8c.html#ab547f175726534d6a0a334eb35af4980" target="_top" xlink:title="Default function pointer for PP allocations.">
<polygon fill="white" stroke="black" points="793,-680.5 793,-701.5 913,-701.5 913,-680.5 793,-680.5"/>
<text text-anchor="middle" x="853" y="-688.5" font-family="FreeSans" font-size="10.00">hfa_defaultfn_ppalloc</text>
</a>
</g>
<!-- Node16&#45;&gt;Node22 -->
<g id="edge42" class="edge"><title>Node16&#45;&gt;Node22</title>
<path fill="none" stroke="midnightblue" d="M708.175,-455.733C717.809,-458.679 727.336,-463.413 734,-471 793.605,-538.857 708.027,-605.3 770,-671 773.878,-675.111 778.441,-678.441 783.4,-681.131"/>
<polygon fill="midnightblue" stroke="midnightblue" points="782.136,-684.4 792.691,-685.314 785.009,-678.017 782.136,-684.4"/>
</g>
<!-- Node23 -->
<g id="node45" class="node"><title>Node23</title>
<a xlink:href="cvm-hfa_8c.html#a148abbfdeebb207ff46884af8eeb8fa4" target="_top" xlink:title="API to set PP resource deallocator for partial matches.">
<polygon fill="white" stroke="black" points="787,-640.5 787,-661.5 919,-661.5 919,-640.5 787,-640.5"/>
<text text-anchor="middle" x="853" y="-648.5" font-family="FreeSans" font-size="10.00">hfa_dev_set_fnp_ppfree</text>
</a>
</g>
<!-- Node16&#45;&gt;Node23 -->
<g id="edge44" class="edge"><title>Node16&#45;&gt;Node23</title>
<path fill="none" stroke="midnightblue" d="M708.293,-456.022C717.813,-458.977 727.251,-463.643 734,-471 783.275,-524.71 718.851,-579.071 770,-631 772.392,-633.429 775.025,-635.583 777.835,-637.491"/>
<polygon fill="midnightblue" stroke="midnightblue" points="776.306,-640.647 786.735,-642.511 779.745,-634.55 776.306,-640.647"/>
</g>
<!-- Node24 -->
<g id="node47" class="node"><title>Node24</title>
<a xlink:href="cvm-hfa_8c.html#a832239ee7b188265bdacbbfb7e879af1" target="_top" xlink:title="Default function pointer for PP deallocations.">
<polygon fill="white" stroke="black" points="794.5,-600.5 794.5,-621.5 911.5,-621.5 911.5,-600.5 794.5,-600.5"/>
<text text-anchor="middle" x="853" y="-608.5" font-family="FreeSans" font-size="10.00">hfa_defaultfn_ppfree</text>
</a>
</g>
<!-- Node16&#45;&gt;Node24 -->
<g id="edge46" class="edge"><title>Node16&#45;&gt;Node24</title>
<path fill="none" stroke="midnightblue" d="M708.289,-456.44C717.696,-459.401 727.078,-463.966 734,-471 773.058,-510.685 729.559,-552.725 770,-591 774.345,-595.112 779.382,-598.425 784.787,-601.088"/>
<polygon fill="midnightblue" stroke="midnightblue" points="783.592,-604.381 794.17,-604.983 786.276,-597.916 783.592,-604.381"/>
</g>
<!-- Node25 -->
<g id="node49" class="node"><title>Node25</title>
<a xlink:href="cvm-hfa_8c.html#a774451b83b300f862763d189c9758e1f" target="_top" xlink:title="API to set PP buffer size function pointer.">
<polygon fill="white" stroke="black" points="787,-560.5 787,-581.5 919,-581.5 919,-560.5 787,-560.5"/>
<text text-anchor="middle" x="853" y="-568.5" font-family="FreeSans" font-size="10.00">hfa_dev_set_fnp_ppsize</text>
</a>
</g>
<!-- Node16&#45;&gt;Node25 -->
<g id="edge48" class="edge"><title>Node16&#45;&gt;Node25</title>
<path fill="none" stroke="midnightblue" d="M708.026,-457.165C717.324,-460.128 726.716,-464.512 734,-471 763.115,-496.933 739.984,-526.116 770,-551 772.432,-553.016 775.034,-554.835 777.762,-556.476"/>
<polygon fill="midnightblue" stroke="midnightblue" points="776.347,-559.684 786.842,-561.133 779.541,-553.455 776.347,-559.684"/>
</g>
<!-- Node26 -->
<g id="node51" class="node"><title>Node26</title>
<a xlink:href="cvm-hfa_8c.html#a11aab8e30488e4cfc900f60a0dabc784" target="_top" xlink:title="Default function pointer for PP size.">
<polygon fill="white" stroke="black" points="794.5,-520.5 794.5,-541.5 911.5,-541.5 911.5,-520.5 794.5,-520.5"/>
<text text-anchor="middle" x="853" y="-528.5" font-family="FreeSans" font-size="10.00">hfa_defaultfn_ppsize</text>
</a>
</g>
<!-- Node16&#45;&gt;Node26 -->
<g id="edge50" class="edge"><title>Node16&#45;&gt;Node26</title>
<path fill="none" stroke="midnightblue" d="M708.118,-459.199C717.012,-462.111 726.188,-465.963 734,-471 754.101,-483.961 749.452,-498.76 770,-511 774.501,-513.681 779.341,-516.003 784.341,-518.014"/>
<polygon fill="midnightblue" stroke="midnightblue" points="783.511,-521.434 794.106,-521.51 785.871,-514.844 783.511,-521.434"/>
</g>
<!-- Node27 -->
<g id="node53" class="node"><title>Node27</title>
<a xlink:href="cvm-hfa_8c.html#a9a0b038e0d29435cb91a21d9c62806cc" target="_top" xlink:title="API to set PP resource allocator for temporary memory.">
<polygon fill="white" stroke="black" points="784,-480.5 784,-501.5 922,-501.5 922,-480.5 784,-480.5"/>
<text text-anchor="middle" x="853" y="-488.5" font-family="FreeSans" font-size="10.00">hfa_dev_set_fnp_pptalloc</text>
</a>
</g>
<!-- Node16&#45;&gt;Node27 -->
<g id="edge52" class="edge"><title>Node16&#45;&gt;Node27</title>
<path fill="none" stroke="midnightblue" d="M708.27,-459.191C733.294,-464.691 766.765,-472.047 795.215,-478.3"/>
<polygon fill="midnightblue" stroke="midnightblue" points="794.529,-481.733 805.047,-480.461 796.031,-474.896 794.529,-481.733"/>
</g>
<!-- Node28 -->
<g id="node55" class="node"><title>Node28</title>
<a xlink:href="cvm-hfa_8c.html#a2cbca63c413f08d3861f9b4c2855391f" target="_top" xlink:title="API to set PP resource deallocator for temporary memory.">
<polygon fill="white" stroke="black" points="785.5,-440.5 785.5,-461.5 920.5,-461.5 920.5,-440.5 785.5,-440.5"/>
<text text-anchor="middle" x="853" y="-448.5" font-family="FreeSans" font-size="10.00">hfa_dev_set_fnp_pptfree</text>
</a>
</g>
<!-- Node16&#45;&gt;Node28 -->
<g id="edge54" class="edge"><title>Node16&#45;&gt;Node28</title>
<path fill="none" stroke="midnightblue" d="M708.27,-451C727.566,-451 751.883,-451 775.048,-451"/>
<polygon fill="midnightblue" stroke="midnightblue" points="775.237,-454.5 785.237,-451 775.237,-447.5 775.237,-454.5"/>
</g>
<!-- Node29 -->
<g id="node57" class="node"><title>Node29</title>
<a xlink:href="cvm-hfa_8c.html#af0b17e8a09b1f7a1dd438ddcb1e4cd14" target="_top" xlink:title="API to set temporary memory size function pointer.">
<polygon fill="white" stroke="black" points="785.5,-400.5 785.5,-421.5 920.5,-421.5 920.5,-400.5 785.5,-400.5"/>
<text text-anchor="middle" x="853" y="-408.5" font-family="FreeSans" font-size="10.00">hfa_dev_set_fnp_pptsize</text>
</a>
</g>
<!-- Node16&#45;&gt;Node29 -->
<g id="edge56" class="edge"><title>Node16&#45;&gt;Node29</title>
<path fill="none" stroke="midnightblue" d="M708.27,-442.809C733.294,-437.309 766.765,-429.953 795.215,-423.7"/>
<polygon fill="midnightblue" stroke="midnightblue" points="796.031,-427.104 805.047,-421.539 794.529,-420.267 796.031,-427.104"/>
</g>
<!-- Node30 -->
<g id="node59" class="node"><title>Node30</title>
<a xlink:href="cvm-hfa_8c.html#aa2754afcdd94eb3dcd90c374f779dd24" target="_top" xlink:title="API to set PP resource allocator for match/result buffer.">
<polygon fill="white" stroke="black" points="770,-360.5 770,-381.5 936,-381.5 936,-360.5 770,-360.5"/>
<text text-anchor="middle" x="853" y="-368.5" font-family="FreeSans" font-size="10.00">hfa_dev_set_fnp_ppmatchalloc</text>
</a>
</g>
<!-- Node16&#45;&gt;Node30 -->
<g id="edge58" class="edge"><title>Node16&#45;&gt;Node30</title>
<path fill="none" stroke="midnightblue" d="M708.118,-442.801C717.012,-439.889 726.188,-436.037 734,-431 754.101,-418.039 749.452,-403.24 770,-391 773.582,-388.867 777.378,-386.961 781.299,-385.258"/>
<polygon fill="midnightblue" stroke="midnightblue" points="782.571,-388.519 790.63,-381.642 780.041,-381.992 782.571,-388.519"/>
</g>
<!-- Node31 -->
<g id="node61" class="node"><title>Node31</title>
<a xlink:href="cvm-hfa_8c.html#ad022f5aec72780af8b36533884693539" target="_top" xlink:title="API to set PP resource deallocator for result/match buf.">
<polygon fill="white" stroke="black" points="771.5,-320.5 771.5,-341.5 934.5,-341.5 934.5,-320.5 771.5,-320.5"/>
<text text-anchor="middle" x="853" y="-328.5" font-family="FreeSans" font-size="10.00">hfa_dev_set_fnp_ppmatchfree</text>
</a>
</g>
<!-- Node16&#45;&gt;Node31 -->
<g id="edge60" class="edge"><title>Node16&#45;&gt;Node31</title>
<path fill="none" stroke="midnightblue" d="M708.026,-444.835C717.324,-441.872 726.716,-437.488 734,-431 763.115,-405.067 739.984,-375.884 770,-351 771.997,-349.345 774.109,-347.822 776.31,-346.422"/>
<polygon fill="midnightblue" stroke="midnightblue" points="778.07,-349.449 785.194,-341.606 774.735,-343.295 778.07,-349.449"/>
</g>
<!-- Node32 -->
<g id="node63" class="node"><title>Node32</title>
<a xlink:href="cvm-hfa_8c.html#a8b71887165c143e32600513d12f9274f" target="_top" xlink:title="API to set match buffer size function pointer.">
<polygon fill="white" stroke="black" points="771.5,-280.5 771.5,-301.5 934.5,-301.5 934.5,-280.5 771.5,-280.5"/>
<text text-anchor="middle" x="853" y="-288.5" font-family="FreeSans" font-size="10.00">hfa_dev_set_fnp_ppmatchsize</text>
</a>
</g>
<!-- Node16&#45;&gt;Node32 -->
<g id="edge62" class="edge"><title>Node16&#45;&gt;Node32</title>
<path fill="none" stroke="midnightblue" d="M708.289,-445.56C717.696,-442.599 727.078,-438.034 734,-431 773.058,-391.315 729.559,-349.275 770,-311 771.494,-309.586 773.069,-308.267 774.713,-307.036"/>
<polygon fill="midnightblue" stroke="midnightblue" points="776.812,-309.852 783.445,-301.591 773.108,-303.913 776.812,-309.852"/>
</g>
<!-- Node33 -->
<g id="node65" class="node"><title>Node33</title>
<a xlink:href="cvm-hfa_8c.html#abcc0595aa8b2bb2d6116d600abbf55f8" target="_top" xlink:title="API to set PP error callback.">
<polygon fill="white" stroke="black" points="785,-240.5 785,-261.5 921,-261.5 921,-240.5 785,-240.5"/>
<text text-anchor="middle" x="853" y="-248.5" font-family="FreeSans" font-size="10.00">hfa_dev_set_fnp_pperror</text>
</a>
</g>
<!-- Node16&#45;&gt;Node33 -->
<g id="edge64" class="edge"><title>Node16&#45;&gt;Node33</title>
<path fill="none" stroke="midnightblue" d="M708.293,-445.978C717.813,-443.023 727.251,-438.357 734,-431 783.275,-377.29 718.851,-322.929 770,-271 771.866,-269.106 773.877,-267.379 776.006,-265.805"/>
<polygon fill="midnightblue" stroke="midnightblue" points="778.028,-268.671 784.729,-260.464 774.373,-262.701 778.028,-268.671"/>
</g>
<!-- Node34 -->
<g id="node67" class="node"><title>Node34</title>
<a xlink:href="cvm-hfa_8c.html#ac115556b315ff135ed2fd059cdf7d066" target="_top" xlink:title="Default function pointer for PP errors.">
<polygon fill="white" stroke="black" points="797.5,-200.5 797.5,-221.5 908.5,-221.5 908.5,-200.5 797.5,-200.5"/>
<text text-anchor="middle" x="853" y="-208.5" font-family="FreeSans" font-size="10.00">hfa_defaultfn_pperr</text>
</a>
</g>
<!-- Node16&#45;&gt;Node34 -->
<g id="edge66" class="edge"><title>Node16&#45;&gt;Node34</title>
<path fill="none" stroke="midnightblue" d="M708.175,-446.267C717.809,-443.321 727.336,-438.587 734,-431 793.605,-363.143 708.027,-296.7 770,-231 775.034,-225.663 781.225,-221.642 787.937,-218.628"/>
<polygon fill="midnightblue" stroke="midnightblue" points="789.208,-221.889 797.352,-215.112 786.76,-215.331 789.208,-221.889"/>
</g>
<!-- Node42 -->
<g id="node87" class="node"><title>Node42</title>
<a xlink:href="cvm-hfa-search_8c.html#a0ac0bca99358ad294a18f86696acf218" target="_top" xlink:title="This routine returns a match by parsing through the match buffer.">
<polygon fill="white" stroke="black" points="809,-0.5 809,-21.5 897,-21.5 897,-0.5 809,-0.5"/>
<text text-anchor="middle" x="853" y="-8.5" font-family="FreeSans" font-size="10.00">hfa_match_get</text>
</a>
</g>
<!-- Node41&#45;&gt;Node42 -->
<g id="edge90" class="edge"><title>Node41&#45;&gt;Node42</title>
<path fill="none" stroke="midnightblue" d="M716.926,-42.4016C741.951,-36.6267 773.06,-29.4478 799.214,-23.4122"/>
<polygon fill="midnightblue" stroke="midnightblue" points="800.015,-26.8194 808.972,-21.1603 798.441,-19.9986 800.015,-26.8194"/>
</g>
<!-- Node43 -->
<g id="node89" class="node"><title>Node43</title>
<a xlink:href="cvm-hfa-search_8c.html#a543990bc2a5e1726298e5053391e3bf5" target="_top" xlink:title="This routine cleans&#45;up the match&#45;buffers allocated by hfa_searchctx_getmatches().">
<polygon fill="white" stroke="black" points="791.5,-40.5 791.5,-61.5 914.5,-61.5 914.5,-40.5 791.5,-40.5"/>
<text text-anchor="middle" x="853" y="-48.5" font-family="FreeSans" font-size="10.00">hfa_matches_cleanup</text>
</a>
</g>
<!-- Node41&#45;&gt;Node43 -->
<g id="edge92" class="edge"><title>Node41&#45;&gt;Node43</title>
<path fill="none" stroke="midnightblue" d="M733.125,-52.3173C748.584,-52.1474 765.282,-51.9639 781.165,-51.7894"/>
<polygon fill="midnightblue" stroke="midnightblue" points="781.503,-55.286 791.463,-51.6762 781.426,-48.2864 781.503,-55.286"/>
</g>
<!-- Node44 -->
<g id="node91" class="node"><title>Node44</title>
<a xlink:href="cvm-hfa-res_8c.html#a78813e2d747c1d659277b705ebdffc50" target="_top" xlink:title="Rfree">
<polygon fill="white" stroke="black" points="972,-40.5 972,-61.5 1014,-61.5 1014,-40.5 972,-40.5"/>
<text text-anchor="middle" x="993" y="-48.5" font-family="FreeSans" font-size="10.00">Rfree</text>
</a>
</g>
<!-- Node43&#45;&gt;Node44 -->
<g id="edge94" class="edge"><title>Node43&#45;&gt;Node44</title>
<path fill="none" stroke="midnightblue" d="M914.814,-51C930.882,-51 947.533,-51 961.319,-51"/>
<polygon fill="midnightblue" stroke="midnightblue" points="961.694,-54.5001 971.694,-51 961.694,-47.5001 961.694,-54.5001"/>
</g>
<!-- Node49 -->
<g id="node101" class="node"><title>Node49</title>
<a xlink:href="cvm-hfa-res_8c.html#a70c9e55ba1fcb934f74ad71ddca9d08f" target="_top" xlink:title="Radd">
<polygon fill="white" stroke="black" points="524.5,-173.5 524.5,-194.5 565.5,-194.5 565.5,-173.5 524.5,-173.5"/>
<text text-anchor="middle" x="545" y="-181.5" font-family="FreeSans" font-size="10.00">Radd</text>
</a>
</g>
<!-- Node48&#45;&gt;Node49 -->
<g id="edge104" class="edge"><title>Node48&#45;&gt;Node49</title>
<path fill="none" stroke="midnightblue" d="M480.662,-184C491.229,-184 503.245,-184 514.009,-184"/>
<polygon fill="midnightblue" stroke="midnightblue" points="514.256,-187.5 524.256,-184 514.256,-180.5 514.256,-187.5"/>
</g>
</g>
</svg>
        <g id="navigator" transform="translate(0 0)" fill="#404254">
                <rect fill="#f2f5e9" fill-opacity="0.5" stroke="#606060" stroke-width=".5" x="0" y="0" width="60" height="60"/>
                <use id="zoomplus" xlink:href="#zoomPlus" x="17" y="9" onmousedown="handleZoom(evt,'in')"/>
                <use id="zoomminus" xlink:href="#zoomMin" x="42" y="9" onmousedown="handleZoom(evt,'out')"/>
                <use id="reset" xlink:href="#resetDef" x="30" y="36" onmousedown="handleReset()"/>
                <g id="arrowUp" xlink:href="#dirArrow" transform="translate(30 24)" onmousedown="handlePan(0,-1)">
                  <use xlink:href="#rim" fill="#404040">
                        <set attributeName="fill" to="#808080" begin="arrowUp.mouseover" end="arrowUp.mouseout"/>
                  </use>
                  <path fill="none" stroke="white" stroke-width="1.5" d="M0,-3.0v7 M-2.5,-0.5L0,-3.0L2.5,-0.5"/>
                </g>
                <g id="arrowRight" xlink:href="#dirArrow" transform="rotate(90) translate(36 -43)" onmousedown="handlePan(1,0)">
                  <use xlink:href="#rim" fill="#404040">
                        <set attributeName="fill" to="#808080" begin="arrowRight.mouseover" end="arrowRight.mouseout"/>
                  </use>
                  <path fill="none" stroke="white" stroke-width="1.5" d="M0,-3.0v7 M-2.5,-0.5L0,-3.0L2.5,-0.5"/>
                </g>
                <g id="arrowDown" xlink:href="#dirArrow" transform="rotate(180) translate(-30 -48)" onmousedown="handlePan(0,1)">
                  <use xlink:href="#rim" fill="#404040">
                        <set attributeName="fill" to="#808080" begin="arrowDown.mouseover" end="arrowDown.mouseout"/>
                  </use>
                  <path fill="none" stroke="white" stroke-width="1.5" d="M0,-3.0v7 M-2.5,-0.5L0,-3.0L2.5,-0.5"/>
                </g>
                <g id="arrowLeft" xlink:href="#dirArrow" transform="rotate(270) translate(-36 17)" onmousedown="handlePan(-1,0)">
                  <use xlink:href="#rim" fill="#404040">
                        <set attributeName="fill" to="#808080" begin="arrowLeft.mouseover" end="arrowLeft.mouseout"/>
                  </use>
                  <path fill="none" stroke="white" stroke-width="1.5" d="M0,-3.0v7 M-2.5,-0.5L0,-3.0L2.5,-0.5"/>
                </g>
        </g>
        <svg viewBox="0 0 15 15" width="100%" height="30px" preserveAspectRatio="xMaxYMin meet">
         <g id="arrow_out" transform="scale(0.3 0.3)">
          <a xlink:href="hfa-se-nctx_8c_a4fbafc7a7cdf59be14583808c4469e83_cgraph_org.svg" target="_base">
           <rect id="button" ry="5" rx="5" y="6" x="6" height="38" width="38"
                fill="#f2f5e9" fill-opacity="0.5" stroke="#606060" stroke-width="1.0"/>
           <path id="arrow"
             d="M 11.500037,31.436501 C 11.940474,20.09759 22.043105,11.32322 32.158766,21.979434 L 37.068811,17.246167 C 37.068811,17.246167 37.088388,32 37.088388,32 L 22.160133,31.978069 C 22.160133,31.978069 26.997745,27.140456 26.997745,27.140456 C 18.528582,18.264221 13.291696,25.230495 11.500037,31.436501 z"
             style="fill:#404040;"/>
          </a>
         </g>
        </svg>
</svg>
