<?xml version="1.0" encoding="UTF-8" standalone="no"?>
<!DOCTYPE svg PUBLIC "-//W3C//DTD SVG 1.1//EN"
 "http://www.w3.org/Graphics/SVG/1.1/DTD/svg11.dtd">
<!-- Generated by graphviz version 2.24.0 (20090616.2323)
 -->
<!-- Title: graphptrs_cleanup Pages: 1 -->
<svg width="386pt" height="50pt"
 viewBox="0.00 0.00 386.00 50.00" xmlns="http://www.w3.org/2000/svg" xmlns:xlink="http://www.w3.org/1999/xlink">
<g id="graph1" class="graph" transform="scale(1 1) rotate(0) translate(4 46)">
<title>graphptrs_cleanup</title>
<polygon fill="white" stroke="white" points="-4,5 -4,-46 383,-46 383,5 -4,5"/>
<!-- Node1 -->
<g id="node1" class="node"><title>Node1</title>
<polygon fill="#bfbfbf" stroke="black" points="0.5,-0.5 0.5,-21.5 105.5,-21.5 105.5,-0.5 0.5,-0.5"/>
<text text-anchor="middle" x="53" y="-8.5" font-family="FreeSans" font-size="10.00">graphptrs_cleanup</text>
</g>
<!-- Node2 -->
<g id="node3" class="node"><title>Node2</title>
<a xlink:href="hfa-se-ngraphs_8c.html#a5c6551bf9ea9cf51ae7f2076c4cbe8ef" target="_top" xlink:title="Application cleanup will be done by this routine.">
<polygon fill="white" stroke="black" points="142,-0.5 142,-21.5 196,-21.5 196,-0.5 142,-0.5"/>
<text text-anchor="middle" x="169" y="-8.5" font-family="FreeSans" font-size="10.00">cleanup</text>
</a>
</g>
<!-- Node1&#45;&gt;Node2 -->
<g id="edge2" class="edge"><title>Node1&#45;&gt;Node2</title>
<path fill="none" stroke="midnightblue" d="M115.629,-11C124.884,-11 133.98,-11 141.968,-11"/>
<polygon fill="midnightblue" stroke="midnightblue" points="115.57,-7.5001 105.57,-11 115.57,-14.5001 115.57,-7.5001"/>
</g>
<!-- Node3 -->
<g id="node5" class="node"><title>Node3</title>
<a xlink:href="hfa-se-ngraphs_8c.html#a546f3769e735d4bef0bfab1cba56921c" target="_top" xlink:title="Load ngraphs into HFA memory and cache.">
<polygon fill="white" stroke="black" points="232.5,-20.5 232.5,-41.5 301.5,-41.5 301.5,-20.5 232.5,-20.5"/>
<text text-anchor="middle" x="267" y="-28.5" font-family="FreeSans" font-size="10.00">graph_load</text>
</a>
</g>
<!-- Node2&#45;&gt;Node3 -->
<g id="edge4" class="edge"><title>Node2&#45;&gt;Node3</title>
<path fill="none" stroke="midnightblue" d="M205.892,-18.529C214.557,-20.2974 223.761,-22.1757 232.325,-23.9235"/>
<polygon fill="midnightblue" stroke="midnightblue" points="206.536,-15.0884 196.038,-16.518 205.137,-21.947 206.536,-15.0884"/>
</g>
<!-- Node4 -->
<g id="node7" class="node"><title>Node4</title>
<a xlink:href="hfa-se-ngraphs_8c.html#a3c04138a5bfe5d72780bb7e82a18e627" target="_top" xlink:title="main">
<polygon fill="white" stroke="black" points="338,-0.5 338,-21.5 378,-21.5 378,-0.5 338,-0.5"/>
<text text-anchor="middle" x="358" y="-8.5" font-family="FreeSans" font-size="10.00">main</text>
</a>
</g>
<!-- Node2&#45;&gt;Node4 -->
<g id="edge8" class="edge"><title>Node2&#45;&gt;Node4</title>
<path fill="none" stroke="midnightblue" d="M206.112,-11C245.596,-11 306.592,-11 337.919,-11"/>
<polygon fill="midnightblue" stroke="midnightblue" points="206.079,-7.5001 196.079,-11 206.079,-14.5001 206.079,-7.5001"/>
</g>
<!-- Node3&#45;&gt;Node4 -->
<g id="edge6" class="edge"><title>Node3&#45;&gt;Node4</title>
<path fill="none" stroke="midnightblue" d="M311.593,-21.1994C320.828,-19.1697 330.113,-17.1289 337.926,-15.4119"/>
<polygon fill="midnightblue" stroke="midnightblue" points="310.678,-17.8167 301.663,-23.3818 312.181,-24.6536 310.678,-17.8167"/>
</g>
</g>
</svg>
