<?xml version="1.0" encoding="UTF-8" standalone="no"?>
<!DOCTYPE svg PUBLIC "-//W3C//DTD SVG 1.1//EN"
 "http://www.w3.org/Graphics/SVG/1.1/DTD/svg11.dtd">
<!-- Generated by graphviz version 2.24.0 (20090616.2323)
 -->
<!-- Title: freeparam Pages: 1 -->
<svg width="532pt" height="247pt"
 viewBox="0.00 0.00 532.00 247.26" xmlns="http://www.w3.org/2000/svg" xmlns:xlink="http://www.w3.org/1999/xlink">
<g id="graph1" class="graph" transform="scale(1 1) rotate(0) translate(4 243.258)">
<title>freeparam</title>
<polygon fill="white" stroke="white" points="-4,5 -4,-243.258 529,-243.258 529,5 -4,5"/>
<!-- Node1 -->
<g id="node1" class="node"><title>Node1</title>
<polygon fill="#bfbfbf" stroke="black" points="0.5,-99.5 0.5,-120.5 67.5,-120.5 67.5,-99.5 0.5,-99.5"/>
<text text-anchor="middle" x="34" y="-107.5" font-family="FreeSans" font-size="10.00">freeparam</text>
</g>
<!-- Node2 -->
<g id="node3" class="node"><title>Node2</title>
<a xlink:href="hfa-lnx-ctx_8c.html#a630ea21ffa0ae1e09e74fc5add8c2715" target="_top" xlink:title="destroyctx">
<polygon fill="white" stroke="black" points="118.5,-198.5 118.5,-219.5 185.5,-219.5 185.5,-198.5 118.5,-198.5"/>
<text text-anchor="middle" x="152" y="-206.5" font-family="FreeSans" font-size="10.00">destroyctx</text>
</a>
</g>
<!-- Node1&#45;&gt;Node2 -->
<g id="edge2" class="edge"><title>Node1&#45;&gt;Node2</title>
<path fill="none" stroke="midnightblue" d="M46.8819,-128.908C59.6489,-146.456 80.6357,-172.311 104,-189 109.142,-192.673 115.061,-195.833 120.948,-198.485"/>
<polygon fill="midnightblue" stroke="midnightblue" points="49.621,-126.72 40.9858,-120.581 43.9082,-130.765 49.621,-126.72"/>
</g>
<!-- Node7 -->
<g id="node14" class="node"><title>Node7</title>
<a xlink:href="hfa-lnx-ctx_8c.html#a1bf8357c95e9c9afcbc15f7f45d349a8" target="_top" xlink:title="get_sparam">
<polygon fill="white" stroke="black" points="115.5,-158.5 115.5,-179.5 188.5,-179.5 188.5,-158.5 115.5,-158.5"/>
<text text-anchor="middle" x="152" y="-166.5" font-family="FreeSans" font-size="10.00">get_sparam</text>
</a>
</g>
<!-- Node1&#45;&gt;Node7 -->
<g id="edge14" class="edge"><title>Node1&#45;&gt;Node7</title>
<path fill="none" stroke="midnightblue" d="M64.1548,-125.077C84.9596,-135.48 112.111,-149.056 130.689,-158.344"/>
<polygon fill="midnightblue" stroke="midnightblue" points="65.6056,-121.89 55.096,-120.548 62.4751,-128.151 65.6056,-121.89"/>
</g>
<!-- Node8 -->
<g id="node16" class="node"><title>Node8</title>
<a xlink:href="hfa-lnx-ctx_8c.html#a97df0ba8293c1b8436547946fd9d0d17" target="_top" xlink:title="process_pkt">
<polygon fill="white" stroke="black" points="239,-139.5 239,-160.5 313,-160.5 313,-139.5 239,-139.5"/>
<text text-anchor="middle" x="276" y="-147.5" font-family="FreeSans" font-size="10.00">process_pkt</text>
</a>
</g>
<!-- Node1&#45;&gt;Node8 -->
<g id="edge18" class="edge"><title>Node1&#45;&gt;Node8</title>
<path fill="none" stroke="midnightblue" d="M77.6149,-117.209C123.583,-124.807 195.223,-136.648 238.668,-143.829"/>
<polygon fill="midnightblue" stroke="midnightblue" points="78.086,-113.74 67.6491,-115.562 76.9444,-120.646 78.086,-113.74"/>
</g>
<!-- Node9 -->
<g id="node19" class="node"><title>Node9</title>
<a xlink:href="hfa-se-ctx_8c.html#aaf2d1bda55a80b5467e3ef350c514243" target="_top" xlink:title="Process search on recieved packet wqe.">
<polygon fill="white" stroke="black" points="112,-80.5 112,-101.5 192,-101.5 192,-80.5 112,-80.5"/>
<text text-anchor="middle" x="152" y="-88.5" font-family="FreeSans" font-size="10.00">process_wqe</text>
</a>
</g>
<!-- Node1&#45;&gt;Node9 -->
<g id="edge20" class="edge"><title>Node1&#45;&gt;Node9</title>
<path fill="none" stroke="midnightblue" d="M77.807,-102.946C88.982,-101.147 100.937,-99.222 111.916,-97.4543"/>
<polygon fill="midnightblue" stroke="midnightblue" points="77.1305,-99.5101 67.8141,-104.555 78.2433,-106.421 77.1305,-99.5101"/>
</g>
<!-- Node14 -->
<g id="node30" class="node"><title>Node14</title>
<a xlink:href="hfa-se-flow-wqe_8c.html#a98871b329f369c72a6d033310e1fd576" target="_top" xlink:title="Allocate and set parameters for search.">
<polygon fill="white" stroke="black" points="116,-40.5 116,-61.5 188,-61.5 188,-40.5 116,-40.5"/>
<text text-anchor="middle" x="152" y="-48.5" font-family="FreeSans" font-size="10.00">get_fparam</text>
</a>
</g>
<!-- Node1&#45;&gt;Node14 -->
<g id="edge32" class="edge"><title>Node1&#45;&gt;Node14</title>
<path fill="none" stroke="midnightblue" d="M60.3873,-94.3663C73.3432,-86.9316 89.2941,-78.1319 104,-71 110.742,-67.7303 118.158,-64.4785 125.102,-61.5766"/>
<polygon fill="midnightblue" stroke="midnightblue" points="58.4379,-91.4508 51.5433,-99.4953 61.9497,-97.5062 58.4379,-91.4508"/>
</g>
<!-- Node15 -->
<g id="node32" class="node"><title>Node15</title>
<a xlink:href="hfa-se-flow_8c.html#aba72a61590283e37ffd78b4defd38220" target="_top" xlink:title="Receive network packets and process.">
<polygon fill="white" stroke="black" points="104,-0.5 104,-21.5 200,-21.5 200,-0.5 104,-0.5"/>
<text text-anchor="middle" x="152" y="-8.5" font-family="FreeSans" font-size="10.00">process_packets</text>
</a>
</g>
<!-- Node1&#45;&gt;Node15 -->
<g id="edge34" class="edge"><title>Node1&#45;&gt;Node15</title>
<path fill="none" stroke="midnightblue" d="M46.8819,-91.0918C59.6489,-73.5436 80.6357,-47.6891 104,-31 109.142,-27.3268 115.061,-24.1671 120.948,-21.5146"/>
<polygon fill="midnightblue" stroke="midnightblue" points="43.9082,-89.2349 40.9858,-99.4188 49.621,-93.2801 43.9082,-89.2349"/>
</g>
<!-- Node3 -->
<g id="node5" class="node"><title>Node3</title>
<a xlink:href="hfa-lnx-ctx_8c.html#a78ffddbcd7cdd164889cfb53ea367886" target="_top" xlink:title="entry">
<polygon fill="white" stroke="black" points="482.5,-198.5 482.5,-219.5 523.5,-219.5 523.5,-198.5 482.5,-198.5"/>
<text text-anchor="middle" x="503" y="-206.5" font-family="FreeSans" font-size="10.00">entry</text>
</a>
</g>
<!-- Node2&#45;&gt;Node3 -->
<g id="edge4" class="edge"><title>Node2&#45;&gt;Node3</title>
<path fill="none" stroke="midnightblue" d="M195.613,-221.426C208.507,-224.542 222.725,-227.441 236,-229 328.697,-239.883 353.992,-244.673 446,-229 458.406,-226.887 471.706,-222.36 482.336,-218.147"/>
<polygon fill="midnightblue" stroke="midnightblue" points="196.152,-217.952 185.6,-218.901 194.441,-224.74 196.152,-217.952"/>
</g>
<!-- Node4 -->
<g id="node7" class="node"><title>Node4</title>
<a xlink:href="hfa-lnx-ctx_8c.html#a3c1f07835ef5be8d3adfbaf09af5ca28" target="_top" xlink:title="core_exit">
<polygon fill="white" stroke="black" points="246,-198.5 246,-219.5 306,-219.5 306,-198.5 246,-198.5"/>
<text text-anchor="middle" x="276" y="-206.5" font-family="FreeSans" font-size="10.00">core_exit</text>
</a>
</g>
<!-- Node2&#45;&gt;Node4 -->
<g id="edge6" class="edge"><title>Node2&#45;&gt;Node4</title>
<path fill="none" stroke="midnightblue" d="M195.592,-209C212.189,-209 230.722,-209 245.809,-209"/>
<polygon fill="midnightblue" stroke="midnightblue" points="195.556,-205.5 185.556,-209 195.556,-212.5 195.556,-205.5"/>
</g>
<!-- Node5 -->
<g id="node9" class="node"><title>Node5</title>
<a xlink:href="hfa-lnx-ctx_8c.html#a4c3443f524b4c0d95639694f0b74e850" target="_top" xlink:title="Process command line options, Read graph and payload.">
<polygon fill="white" stroke="black" points="352,-198.5 352,-219.5 446,-219.5 446,-198.5 352,-198.5"/>
<text text-anchor="middle" x="399" y="-206.5" font-family="FreeSans" font-size="10.00">process_options</text>
</a>
</g>
<!-- Node4&#45;&gt;Node5 -->
<g id="edge8" class="edge"><title>Node4&#45;&gt;Node5</title>
<path fill="none" stroke="midnightblue" d="M316.212,-209C327.635,-209 340.176,-209 351.966,-209"/>
<polygon fill="midnightblue" stroke="midnightblue" points="316.089,-205.5 306.089,-209 316.089,-212.5 316.089,-205.5"/>
</g>
<!-- Node6 -->
<g id="node12" class="node"><title>Node6</title>
<a xlink:href="hfa-lnx-ctx_8c.html#aaf98ef7cdde3a0dfb2e49919de3298b1" target="_top" xlink:title="exit">
<polygon fill="white" stroke="black" points="382.5,-158.5 382.5,-179.5 415.5,-179.5 415.5,-158.5 382.5,-158.5"/>
<text text-anchor="middle" x="399" y="-166.5" font-family="FreeSans" font-size="10.00">exit</text>
</a>
</g>
<!-- Node4&#45;&gt;Node6 -->
<g id="edge12" class="edge"><title>Node4&#45;&gt;Node6</title>
<path fill="none" stroke="midnightblue" d="M315.775,-196.065C338.361,-188.72 365.434,-179.916 382.431,-174.388"/>
<polygon fill="midnightblue" stroke="midnightblue" points="314.517,-192.794 306.089,-199.215 316.681,-199.451 314.517,-192.794"/>
</g>
<!-- Node5&#45;&gt;Node3 -->
<g id="edge10" class="edge"><title>Node5&#45;&gt;Node3</title>
<path fill="none" stroke="midnightblue" d="M456.264,-209C465.572,-209 474.653,-209 482.297,-209"/>
<polygon fill="midnightblue" stroke="midnightblue" points="456.131,-205.5 446.131,-209 456.131,-212.5 456.131,-205.5"/>
</g>
<!-- Node7&#45;&gt;Node8 -->
<g id="edge16" class="edge"><title>Node7&#45;&gt;Node8</title>
<path fill="none" stroke="midnightblue" d="M198.486,-161.877C211.821,-159.834 226.178,-157.634 238.869,-155.689"/>
<polygon fill="midnightblue" stroke="midnightblue" points="197.888,-158.428 188.533,-163.402 198.948,-165.347 197.888,-158.428"/>
</g>
<!-- Node10 -->
<g id="node21" class="node"><title>Node10</title>
<a xlink:href="hfa-se-ctx_8c.html#ac6740f043d197065a62fbd0570b4f735" target="_top" xlink:title="Do asynchrounous get work operation then pre&#45;fetch recieved wqe and process search on recieved packet...">
<polygon fill="white" stroke="black" points="239,-80.5 239,-101.5 313,-101.5 313,-80.5 239,-80.5"/>
<text text-anchor="middle" x="276" y="-88.5" font-family="FreeSans" font-size="10.00">process_pkt</text>
</a>
</g>
<!-- Node9&#45;&gt;Node10 -->
<g id="edge22" class="edge"><title>Node9&#45;&gt;Node10</title>
<path fill="none" stroke="midnightblue" d="M202.333,-91C214.553,-91 227.4,-91 238.883,-91"/>
<polygon fill="midnightblue" stroke="midnightblue" points="202.259,-87.5001 192.259,-91 202.259,-94.5001 202.259,-87.5001"/>
</g>
<!-- Node12 -->
<g id="node26" class="node"><title>Node12</title>
<a xlink:href="hfa-se-wqe-lock_8c.html#a06b5fcfab0e1d5eb36b633ec080ad7f9" target="_top" xlink:title="Process search for given contexts.">
<polygon fill="white" stroke="black" points="236,-40.5 236,-61.5 316,-61.5 316,-40.5 236,-40.5"/>
<text text-anchor="middle" x="276" y="-48.5" font-family="FreeSans" font-size="10.00">process_nctx</text>
</a>
</g>
<!-- Node9&#45;&gt;Node12 -->
<g id="edge28" class="edge"><title>Node9&#45;&gt;Node12</title>
<path fill="none" stroke="midnightblue" d="M194.245,-77.3727C210.245,-72.2114 228.205,-66.4178 243.208,-61.5782"/>
<polygon fill="midnightblue" stroke="midnightblue" points="193.022,-74.0894 184.58,-80.4905 195.171,-80.7514 193.022,-74.0894"/>
</g>
<!-- Node10&#45;&gt;Node3 -->
<g id="edge24" class="edge"><title>Node10&#45;&gt;Node3</title>
<path fill="none" stroke="midnightblue" d="M322.777,-104.216C365.579,-116.798 425.296,-135.732 446,-149 466.807,-162.334 485.385,-184.835 495.337,-198.166"/>
<polygon fill="midnightblue" stroke="midnightblue" points="323.69,-100.836 313.11,-101.397 321.73,-107.556 323.69,-100.836"/>
</g>
<!-- Node11 -->
<g id="node24" class="node"><title>Node11</title>
<a xlink:href="hfa-se-ctx_8c.html#a3c04138a5bfe5d72780bb7e82a18e627" target="_top" xlink:title="main">
<polygon fill="white" stroke="black" points="379,-80.5 379,-101.5 419,-101.5 419,-80.5 379,-80.5"/>
<text text-anchor="middle" x="399" y="-88.5" font-family="FreeSans" font-size="10.00">main</text>
</a>
</g>
<!-- Node10&#45;&gt;Node11 -->
<g id="edge26" class="edge"><title>Node10&#45;&gt;Node11</title>
<path fill="none" stroke="midnightblue" d="M323.343,-91C342.521,-91 363.64,-91 378.68,-91"/>
<polygon fill="midnightblue" stroke="midnightblue" points="323.238,-87.5001 313.238,-91 323.238,-94.5001 323.238,-87.5001"/>
</g>
<!-- Node13 -->
<g id="node28" class="node"><title>Node13</title>
<a xlink:href="hfa-se-wqe-lock_8c.html#a3c04138a5bfe5d72780bb7e82a18e627" target="_top" xlink:title="main">
<polygon fill="white" stroke="black" points="379,-40.5 379,-61.5 419,-61.5 419,-40.5 379,-40.5"/>
<text text-anchor="middle" x="399" y="-48.5" font-family="FreeSans" font-size="10.00">main</text>
</a>
</g>
<!-- Node12&#45;&gt;Node13 -->
<g id="edge30" class="edge"><title>Node12&#45;&gt;Node13</title>
<path fill="none" stroke="midnightblue" d="M326.291,-51C344.653,-51 364.395,-51 378.668,-51"/>
<polygon fill="midnightblue" stroke="midnightblue" points="326.275,-47.5001 316.275,-51 326.275,-54.5001 326.275,-47.5001"/>
</g>
<!-- Node16 -->
<g id="node34" class="node"><title>Node16</title>
<a xlink:href="hfa-se-flow-wqe_8c.html#a3c04138a5bfe5d72780bb7e82a18e627" target="_top" xlink:title="Implementation.">
<polygon fill="white" stroke="black" points="256,-0.5 256,-21.5 296,-21.5 296,-0.5 256,-0.5"/>
<text text-anchor="middle" x="276" y="-8.5" font-family="FreeSans" font-size="10.00">main</text>
</a>
</g>
<!-- Node15&#45;&gt;Node16 -->
<g id="edge36" class="edge"><title>Node15&#45;&gt;Node16</title>
<path fill="none" stroke="midnightblue" d="M210.38,-11C226.708,-11 243.373,-11 255.823,-11"/>
<polygon fill="midnightblue" stroke="midnightblue" points="210.297,-7.5001 200.297,-11 210.297,-14.5001 210.297,-7.5001"/>
</g>
</g>
</svg>
