<?xml version="1.0" encoding="UTF-8" standalone="no"?>
<!DOCTYPE svg PUBLIC "-//W3C//DTD SVG 1.1//EN"
 "http://www.w3.org/Graphics/SVG/1.1/DTD/svg11.dtd">
<!-- Generated by graphviz version 2.24.0 (20090616.2323)
 -->
<!-- Title: exit Pages: 1 -->
<svg width="820pt" height="510pt"
 viewBox="0.00 0.00 820.00 510.00" xmlns="http://www.w3.org/2000/svg" xmlns:xlink="http://www.w3.org/1999/xlink">
<g id="graph1" class="graph" transform="scale(1 1) rotate(0) translate(4 506)">
<title>exit</title>
<polygon fill="white" stroke="white" points="-4,5 -4,-506 817,-506 817,5 -4,5"/>
<!-- Node1 -->
<g id="node1" class="node"><title>Node1</title>
<polygon fill="#bfbfbf" stroke="black" points="0.5,-80.5 0.5,-101.5 33.5,-101.5 33.5,-80.5 0.5,-80.5"/>
<text text-anchor="middle" x="17" y="-88.5" font-family="FreeSans" font-size="10.00">exit</text>
</g>
<!-- Node2 -->
<g id="node3" class="node"><title>Node2</title>
<a xlink:href="hfa-lnx-nctx_8c.html#acd9e54f020b77f14d54c200b65423a15" target="_top" xlink:title="Application cleanup will be done by this routine.">
<polygon fill="white" stroke="black" points="70,-80.5 70,-101.5 124,-101.5 124,-80.5 70,-80.5"/>
<text text-anchor="middle" x="97" y="-88.5" font-family="FreeSans" font-size="10.00">cleanup</text>
</a>
</g>
<!-- Node1&#45;&gt;Node2 -->
<g id="edge2" class="edge"><title>Node1&#45;&gt;Node2</title>
<path fill="none" stroke="midnightblue" d="M33.5761,-91C41.1576,-91 50.4725,-91 59.6056,-91"/>
<polygon fill="midnightblue" stroke="midnightblue" points="59.7377,-94.5001 69.7377,-91 59.7377,-87.5001 59.7377,-94.5001"/>
</g>
<!-- Node3 -->
<g id="node5" class="node"><title>Node3</title>
<a xlink:href="cvm-hfa-graph_8c.html#aa4ce7845277b4b3099159bbd7afd5c08" target="_top" xlink:title="This routine is used to cacheunload a cacheload&#39;ed graph in a non&#45;blocking manner.">
<polygon fill="white" stroke="black" points="160,-120.5 160,-141.5 292,-141.5 292,-120.5 160,-120.5"/>
<text text-anchor="middle" x="226" y="-128.5" font-family="FreeSans" font-size="10.00">hfa_graph_cacheunload</text>
</a>
</g>
<!-- Node2&#45;&gt;Node3 -->
<g id="edge4" class="edge"><title>Node2&#45;&gt;Node3</title>
<path fill="none" stroke="midnightblue" d="M124.264,-99.7414C135.343,-103.271 148.273,-107.362 160,-111 166.918,-113.146 174.253,-115.395 181.42,-117.578"/>
<polygon fill="midnightblue" stroke="midnightblue" points="180.451,-120.941 191.036,-120.498 182.485,-114.244 180.451,-120.941"/>
</g>
<!-- Node21 -->
<g id="node41" class="node"><title>Node21</title>
<a xlink:href="cvm-hfa-graph_8c.html#a5e79919f5903d97aee5e82bfc7e71597" target="_top" xlink:title="This routine is the counterpart of hfa_dev_graph_init().">
<polygon fill="white" stroke="black" points="160,-80.5 160,-101.5 292,-101.5 292,-80.5 160,-80.5"/>
<text text-anchor="middle" x="226" y="-88.5" font-family="FreeSans" font-size="10.00">hfa_dev_graph_cleanup</text>
</a>
</g>
<!-- Node2&#45;&gt;Node21 -->
<g id="edge40" class="edge"><title>Node2&#45;&gt;Node21</title>
<path fill="none" stroke="midnightblue" d="M124.043,-91C131.801,-91 140.666,-91 149.858,-91"/>
<polygon fill="midnightblue" stroke="midnightblue" points="149.923,-94.5001 159.923,-91 149.923,-87.5001 149.923,-94.5001"/>
</g>
<!-- Node22 -->
<g id="node43" class="node"><title>Node22</title>
<a xlink:href="cvm-hfa_8c.html#af14bebdd444bd0bf92faac9d5d88b492" target="_top" xlink:title="This function is called by application to cleanup all resources configured for HFA device and then sh...">
<polygon fill="white" stroke="black" points="176.5,-40.5 176.5,-61.5 275.5,-61.5 275.5,-40.5 176.5,-40.5"/>
<text text-anchor="middle" x="226" y="-48.5" font-family="FreeSans" font-size="10.00">hfa_dev_cleanup</text>
</a>
</g>
<!-- Node2&#45;&gt;Node22 -->
<g id="edge42" class="edge"><title>Node2&#45;&gt;Node22</title>
<path fill="none" stroke="midnightblue" d="M124.264,-82.2586C135.343,-78.729 148.273,-74.6382 160,-71 166.918,-68.8537 174.253,-66.6049 181.42,-64.4218"/>
<polygon fill="midnightblue" stroke="midnightblue" points="182.485,-67.7565 191.036,-61.5015 180.451,-61.0586 182.485,-67.7565"/>
</g>
<!-- Node4 -->
<g id="node7" class="node"><title>Node4</title>
<a xlink:href="cvm-hfa-graph_8c.html#afb63ce4f42afc7987e6222b1c1ea91a1" target="_top" xlink:title="This routine is used to cacheunload a cacheload&#39;ed graph in a non&#45;blocking manner.">
<polygon fill="white" stroke="black" points="328,-314 328,-348 460,-348 460,-314 328,-314"/>
<text text-anchor="start" x="336" y="-335" font-family="FreeSans" font-size="10.00">hfa_graph_cacheunload</text>
<text text-anchor="middle" x="394" y="-322" font-family="FreeSans" font-size="10.00">_async</text>
</a>
</g>
<!-- Node3&#45;&gt;Node4 -->
<g id="edge6" class="edge"><title>Node3&#45;&gt;Node4</title>
<path fill="none" stroke="midnightblue" d="M235.032,-141.753C260.964,-172.624 336.142,-262.121 373.053,-306.064"/>
<polygon fill="midnightblue" stroke="midnightblue" points="370.578,-308.558 379.69,-313.964 375.938,-304.056 370.578,-308.558"/>
</g>
<!-- Node14 -->
<g id="node27" class="node"><title>Node14</title>
<a xlink:href="cvm-hfa-graph_8c.html#a0f2f13fb51e5d56dcf049ff3c7c6ad78" target="_top" xlink:title="This routine is used to check the status of the graph.">
<polygon fill="white" stroke="black" points="337,-120.5 337,-141.5 451,-141.5 451,-120.5 337,-120.5"/>
<text text-anchor="middle" x="394" y="-128.5" font-family="FreeSans" font-size="10.00">hfa_graph_getstatus</text>
</a>
</g>
<!-- Node3&#45;&gt;Node14 -->
<g id="edge26" class="edge"><title>Node3&#45;&gt;Node14</title>
<path fill="none" stroke="midnightblue" d="M292.398,-131C303.633,-131 315.308,-131 326.57,-131"/>
<polygon fill="midnightblue" stroke="midnightblue" points="326.771,-134.5 336.771,-131 326.771,-127.5 326.771,-134.5"/>
</g>
<!-- Node5 -->
<g id="node9" class="node"><title>Node5</title>
<a xlink:href="cvm-hfa-instr_8h.html#acaf8def6cbffb04c100bf7f7684f242e" target="_top" xlink:title="Initialize the HFA instruction.">
<polygon fill="white" stroke="black" points="518.5,-480.5 518.5,-501.5 621.5,-501.5 621.5,-480.5 518.5,-480.5"/>
<text text-anchor="middle" x="570" y="-488.5" font-family="FreeSans" font-size="10.00">cvm_hfa_instr_init</text>
</a>
</g>
<!-- Node4&#45;&gt;Node5 -->
<g id="edge8" class="edge"><title>Node4&#45;&gt;Node5</title>
<path fill="none" stroke="midnightblue" d="M401.68,-348.13C415.893,-377.831 449.173,-438.788 496,-471 499.971,-473.732 504.3,-476.091 508.806,-478.128"/>
<polygon fill="midnightblue" stroke="midnightblue" points="507.659,-481.438 518.244,-481.874 510.241,-474.932 507.659,-481.438"/>
</g>
<!-- Node6 -->
<g id="node11" class="node"><title>Node6</title>
<a xlink:href="cvm-hfa-instr_8h.html#a2d6082e2e599fe8523162b18d0a06f6c" target="_top" xlink:title="Sets rptr in the instruction.">
<polygon fill="white" stroke="black" points="510,-440.5 510,-461.5 630,-461.5 630,-440.5 510,-440.5"/>
<text text-anchor="middle" x="570" y="-448.5" font-family="FreeSans" font-size="10.00">cvm_hfa_instr_setrptr</text>
</a>
</g>
<!-- Node4&#45;&gt;Node6 -->
<g id="edge10" class="edge"><title>Node4&#45;&gt;Node6</title>
<path fill="none" stroke="midnightblue" d="M406.859,-348.225C424.499,-370.631 458.332,-409.446 496,-431 499.873,-433.216 504.001,-435.195 508.251,-436.961"/>
<polygon fill="midnightblue" stroke="midnightblue" points="507.105,-440.269 517.697,-440.494 509.557,-433.712 507.105,-440.269"/>
</g>
<!-- Node7 -->
<g id="node13" class="node"><title>Node7</title>
<a xlink:href="cvm-hfa-instr_8h.html#a6960a0761295ada9f449ea5e8c41ec80" target="_top" xlink:title="Sets clmsk in the instruction.">
<polygon fill="white" stroke="black" points="504,-400.5 504,-421.5 636,-421.5 636,-400.5 504,-400.5"/>
<text text-anchor="middle" x="570" y="-408.5" font-family="FreeSans" font-size="10.00">cvm_hfa_instr_setclmsk</text>
</a>
</g>
<!-- Node4&#45;&gt;Node7 -->
<g id="edge12" class="edge"><title>Node4&#45;&gt;Node7</title>
<path fill="none" stroke="midnightblue" d="M418.585,-348.006C438.658,-361.252 468.158,-379.299 496,-391 501.716,-393.402 507.803,-395.593 513.937,-397.569"/>
<polygon fill="midnightblue" stroke="midnightblue" points="512.98,-400.936 523.566,-400.497 515.017,-394.239 512.98,-400.936"/>
</g>
<!-- Node8 -->
<g id="node15" class="node"><title>Node8</title>
<a xlink:href="cvm-hfa-instr_8h.html#add4e981377a02cd06e2bca116e584bca" target="_top" xlink:title="Sets vgid in the instruction.">
<polygon fill="white" stroke="black" points="508,-360.5 508,-381.5 632,-381.5 632,-360.5 508,-360.5"/>
<text text-anchor="middle" x="570" y="-368.5" font-family="FreeSans" font-size="10.00">cvm_hfa_instr_setvgid</text>
</a>
</g>
<!-- Node4&#45;&gt;Node8 -->
<g id="edge14" class="edge"><title>Node4&#45;&gt;Node8</title>
<path fill="none" stroke="midnightblue" d="M460.037,-346.008C477.73,-350.03 496.69,-354.339 513.797,-358.226"/>
<polygon fill="midnightblue" stroke="midnightblue" points="513.104,-361.658 523.631,-360.462 514.656,-354.832 513.104,-361.658"/>
</g>
<!-- Node9 -->
<g id="node17" class="node"><title>Node9</title>
<a xlink:href="cvm-hfa-common_8h.html#a0da7c57174fb96d75ae9cc2ed3116a05" target="_top" xlink:title="Dump buffer pointed by &quot;buf&quot; in readable format.">
<polygon fill="white" stroke="black" points="527,-320.5 527,-341.5 613,-341.5 613,-320.5 527,-320.5"/>
<text text-anchor="middle" x="570" y="-328.5" font-family="FreeSans" font-size="10.00">hfa_dump_buf</text>
</a>
</g>
<!-- Node4&#45;&gt;Node9 -->
<g id="edge16" class="edge"><title>Node4&#45;&gt;Node9</title>
<path fill="none" stroke="midnightblue" d="M460.037,-331C478.709,-331 498.79,-331 516.617,-331"/>
<polygon fill="midnightblue" stroke="midnightblue" points="516.825,-334.5 526.825,-331 516.825,-327.5 516.825,-334.5"/>
</g>
<!-- Node10 -->
<g id="node19" class="node"><title>Node10</title>
<a xlink:href="cvm-hfa-instr_8h.html#a88a92a987acac81360f3b880d013cd10" target="_top" xlink:title="Sets wqptr instruction.">
<polygon fill="white" stroke="black" points="504.5,-280.5 504.5,-301.5 635.5,-301.5 635.5,-280.5 504.5,-280.5"/>
<text text-anchor="middle" x="570" y="-288.5" font-family="FreeSans" font-size="10.00">cvm_hfa_instr_setwqptr</text>
</a>
</g>
<!-- Node4&#45;&gt;Node10 -->
<g id="edge18" class="edge"><title>Node4&#45;&gt;Node10</title>
<path fill="none" stroke="midnightblue" d="M460.037,-315.992C477.73,-311.97 496.69,-307.661 513.797,-303.774"/>
<polygon fill="midnightblue" stroke="midnightblue" points="514.656,-307.168 523.631,-301.538 513.104,-300.342 514.656,-307.168"/>
</g>
<!-- Node11 -->
<g id="node21" class="node"><title>Node11</title>
<a xlink:href="cvm-hfa-graph_8c.html#a1320f0566be0069bd604cc820a12a114" target="_top" xlink:title="This routine sets WQE field in graph data structure.">
<polygon fill="white" stroke="black" points="517.5,-240.5 517.5,-261.5 622.5,-261.5 622.5,-240.5 517.5,-240.5"/>
<text text-anchor="middle" x="570" y="-248.5" font-family="FreeSans" font-size="10.00">hfa_graph_setwqe</text>
</a>
</g>
<!-- Node4&#45;&gt;Node11 -->
<g id="edge20" class="edge"><title>Node4&#45;&gt;Node11</title>
<path fill="none" stroke="midnightblue" d="M418.585,-313.994C438.658,-300.748 468.158,-282.701 496,-271 501.716,-268.598 507.803,-266.407 513.937,-264.431"/>
<polygon fill="midnightblue" stroke="midnightblue" points="515.017,-267.761 523.566,-261.503 512.98,-261.064 515.017,-267.761"/>
</g>
<!-- Node12 -->
<g id="node23" class="node"><title>Node12</title>
<a xlink:href="cvm-hfa_8c.html#a4677d07b901d6aeb02e793c1dbdfabbf" target="_top" xlink:title="Asynchronous instruction submit to HFA hardware Do not wait for instruction to complete.">
<polygon fill="white" stroke="black" points="509,-200.5 509,-221.5 631,-221.5 631,-200.5 509,-200.5"/>
<text text-anchor="middle" x="570" y="-208.5" font-family="FreeSans" font-size="10.00">hfa_dev_submitasync</text>
</a>
</g>
<!-- Node4&#45;&gt;Node12 -->
<g id="edge22" class="edge"><title>Node4&#45;&gt;Node12</title>
<path fill="none" stroke="midnightblue" d="M406.859,-313.775C424.499,-291.369 458.332,-252.554 496,-231 499.873,-228.784 504.001,-226.805 508.251,-225.039"/>
<polygon fill="midnightblue" stroke="midnightblue" points="509.557,-228.288 517.697,-221.506 507.105,-221.731 509.557,-228.288"/>
</g>
<!-- Node13 -->
<g id="node25" class="node"><title>Node13</title>
<a xlink:href="cvmx-hfa_8c.html#a96a123c8918e83cdf914f6de1bfb4f00" target="_top" xlink:title="Submit a command to the DFA block.">
<polygon fill="white" stroke="black" points="695,-200.5 695,-221.5 797,-221.5 797,-200.5 695,-200.5"/>
<text text-anchor="middle" x="746" y="-208.5" font-family="FreeSans" font-size="10.00">cvmx_hfa_submit</text>
</a>
</g>
<!-- Node12&#45;&gt;Node13 -->
<g id="edge24" class="edge"><title>Node12&#45;&gt;Node13</title>
<path fill="none" stroke="midnightblue" d="M631.062,-211C648.491,-211 667.48,-211 684.911,-211"/>
<polygon fill="midnightblue" stroke="midnightblue" points="684.97,-214.5 694.97,-211 684.97,-207.5 684.97,-214.5"/>
</g>
<!-- Node15 -->
<g id="node29" class="node"><title>Node15</title>
<a xlink:href="cvm-hfa_8c.html#a4753d2dd586e19676b1a59dd16baaeed" target="_top" xlink:title="Obtain status of submitted insruction.">
<polygon fill="white" stroke="black" points="503.5,-160.5 503.5,-181.5 636.5,-181.5 636.5,-160.5 503.5,-160.5"/>
<text text-anchor="middle" x="570" y="-168.5" font-family="FreeSans" font-size="10.00">hfa_dev_getasyncstatus</text>
</a>
</g>
<!-- Node14&#45;&gt;Node15 -->
<g id="edge28" class="edge"><title>Node14&#45;&gt;Node15</title>
<path fill="none" stroke="midnightblue" d="M440.242,-141.51C462.788,-146.634 490.096,-152.84 513.832,-158.235"/>
<polygon fill="midnightblue" stroke="midnightblue" points="513.235,-161.688 523.762,-160.491 514.786,-154.862 513.235,-161.688"/>
</g>
<!-- Node18 -->
<g id="node35" class="node"><title>Node18</title>
<a xlink:href="cvm-hfa-instr_8h.html#aa7b5661907cf23e01fe784a70980ed4b" target="_top" xlink:title="Gets itype from RWORD0.">
<polygon fill="white" stroke="black" points="509,-120.5 509,-141.5 631,-141.5 631,-120.5 509,-120.5"/>
<text text-anchor="middle" x="570" y="-128.5" font-family="FreeSans" font-size="10.00">cvm_hfa_rslt_getitype</text>
</a>
</g>
<!-- Node14&#45;&gt;Node18 -->
<g id="edge34" class="edge"><title>Node14&#45;&gt;Node18</title>
<path fill="none" stroke="midnightblue" d="M451.142,-131C466.292,-131 482.839,-131 498.643,-131"/>
<polygon fill="midnightblue" stroke="midnightblue" points="498.899,-134.5 508.899,-131 498.899,-127.5 498.899,-134.5"/>
</g>
<!-- Node19 -->
<g id="node37" class="node"><title>Node19</title>
<a xlink:href="cvm-hfa-graph_8c.html#aa4c0667cc4f92a08c249041eb8a4ec58" target="_top" xlink:title="This routine is used to free the buffers and change the graph load status after instruction completio...">
<polygon fill="white" stroke="black" points="496.5,-80.5 496.5,-101.5 643.5,-101.5 643.5,-80.5 496.5,-80.5"/>
<text text-anchor="middle" x="570" y="-88.5" font-family="FreeSans" font-size="10.00">__hfa_graph_processstatus</text>
</a>
</g>
<!-- Node14&#45;&gt;Node19 -->
<g id="edge36" class="edge"><title>Node14&#45;&gt;Node19</title>
<path fill="none" stroke="midnightblue" d="M440.242,-120.49C462.788,-115.366 490.096,-109.16 513.832,-103.765"/>
<polygon fill="midnightblue" stroke="midnightblue" points="514.786,-107.138 523.762,-101.509 513.235,-100.312 514.786,-107.138"/>
</g>
<!-- Node16 -->
<g id="node31" class="node"><title>Node16</title>
<a xlink:href="cvm-hfa-instr_8h.html#a56f2522dcba965745a1bc239fc432dca" target="_top" xlink:title="Gets done from RWORD0.">
<polygon fill="white" stroke="black" points="684.5,-160.5 684.5,-181.5 807.5,-181.5 807.5,-160.5 684.5,-160.5"/>
<text text-anchor="middle" x="746" y="-168.5" font-family="FreeSans" font-size="10.00">cvm_hfa_rslt_getdone</text>
</a>
</g>
<!-- Node15&#45;&gt;Node16 -->
<g id="edge30" class="edge"><title>Node15&#45;&gt;Node16</title>
<path fill="none" stroke="midnightblue" d="M636.538,-171C648.782,-171 661.616,-171 674.012,-171"/>
<polygon fill="midnightblue" stroke="midnightblue" points="674.299,-174.5 684.299,-171 674.299,-167.5 674.299,-174.5"/>
</g>
<!-- Node17 -->
<g id="node33" class="node"><title>Node17</title>
<a xlink:href="cvm-hfa-instr_8h.html#a9700a50b68b6616506528eb725a8bda1" target="_top" xlink:title="Gets reason from RWORD0.">
<polygon fill="white" stroke="black" points="680.5,-120.5 680.5,-141.5 811.5,-141.5 811.5,-120.5 680.5,-120.5"/>
<text text-anchor="middle" x="746" y="-128.5" font-family="FreeSans" font-size="10.00">cvm_hfa_rslt_getreason</text>
</a>
</g>
<!-- Node15&#45;&gt;Node17 -->
<g id="edge32" class="edge"><title>Node15&#45;&gt;Node17</title>
<path fill="none" stroke="midnightblue" d="M616.242,-160.49C638.788,-155.366 666.096,-149.16 689.832,-143.765"/>
<polygon fill="midnightblue" stroke="midnightblue" points="690.786,-147.138 699.762,-141.509 689.235,-140.312 690.786,-147.138"/>
</g>
<!-- Node20 -->
<g id="node39" class="node"><title>Node20</title>
<a xlink:href="cvm-hfa-cluster_8c.html#ad8cad96579f5a310b62caaf8c166658f" target="_top" xlink:title="Returns a copy of a cluster of the HFA device.">
<polygon fill="white" stroke="black" points="701,-80.5 701,-101.5 791,-101.5 791,-80.5 701,-80.5"/>
<text text-anchor="middle" x="746" y="-88.5" font-family="FreeSans" font-size="10.00">hfa_get_cluster</text>
</a>
</g>
<!-- Node19&#45;&gt;Node20 -->
<g id="edge38" class="edge"><title>Node19&#45;&gt;Node20</title>
<path fill="none" stroke="midnightblue" d="M643.62,-91C659.386,-91 675.785,-91 690.719,-91"/>
<polygon fill="midnightblue" stroke="midnightblue" points="690.797,-94.5001 700.797,-91 690.797,-87.5001 690.797,-94.5001"/>
</g>
<!-- Node23 -->
<g id="node45" class="node"><title>Node23</title>
<a xlink:href="cvm-hfa-stats_8c.html#ad6d5ab096d9d84d2b2f52bd551443592" target="_top" xlink:title="This routine is the counterpart of hfa_dev_init_stats().">
<polygon fill="white" stroke="black" points="331,-40.5 331,-61.5 457,-61.5 457,-40.5 331,-40.5"/>
<text text-anchor="middle" x="394" y="-48.5" font-family="FreeSans" font-size="10.00">hfa_dev_stats_cleanup</text>
</a>
</g>
<!-- Node22&#45;&gt;Node23 -->
<g id="edge44" class="edge"><title>Node22&#45;&gt;Node23</title>
<path fill="none" stroke="midnightblue" d="M275.951,-51C289.939,-51 305.444,-51 320.493,-51"/>
<polygon fill="midnightblue" stroke="midnightblue" points="320.814,-54.5001 330.814,-51 320.814,-47.5001 320.814,-54.5001"/>
</g>
<!-- Node25 -->
<g id="node49" class="node"><title>Node25</title>
<a xlink:href="cvm-hfa-stats_8c.html#a75504ae5d9797d314ee11704fc86cdb1" target="_top" xlink:title="This routine prints statistics of each core.">
<polygon fill="white" stroke="black" points="339.5,-0.5 339.5,-21.5 448.5,-21.5 448.5,-0.5 339.5,-0.5"/>
<text text-anchor="middle" x="394" y="-8.5" font-family="FreeSans" font-size="10.00">hfa_dev_stats_print</text>
</a>
</g>
<!-- Node22&#45;&gt;Node25 -->
<g id="edge48" class="edge"><title>Node22&#45;&gt;Node25</title>
<path fill="none" stroke="midnightblue" d="M270.14,-40.4905C291.566,-35.3892 317.495,-29.2155 340.081,-23.8378"/>
<polygon fill="midnightblue" stroke="midnightblue" points="340.946,-27.2298 349.863,-21.5087 339.325,-20.4202 340.946,-27.2298"/>
</g>
<!-- Node24 -->
<g id="node47" class="node"><title>Node24</title>
<a xlink:href="cvm-hfa-stats_8c.html#a7a2acbe48c3850d43256938ee996aa16" target="_top" xlink:title="This routine frees memory to STATS ARENA.">
<polygon fill="white" stroke="black" points="507.5,-40.5 507.5,-61.5 632.5,-61.5 632.5,-40.5 507.5,-40.5"/>
<text text-anchor="middle" x="570" y="-48.5" font-family="FreeSans" font-size="10.00">hfa_stats_memoryfree</text>
</a>
</g>
<!-- Node23&#45;&gt;Node24 -->
<g id="edge46" class="edge"><title>Node23&#45;&gt;Node24</title>
<path fill="none" stroke="midnightblue" d="M457.043,-51C470.091,-51 483.936,-51 497.296,-51"/>
<polygon fill="midnightblue" stroke="midnightblue" points="497.397,-54.5001 507.397,-51 497.397,-47.5001 497.397,-54.5001"/>
</g>
</g>
</svg>
