<?xml version="1.0" encoding="UTF-8" standalone="no"?>
<!DOCTYPE svg PUBLIC "-//W3C//DTD SVG 1.1//EN"
 "http://www.w3.org/Graphics/SVG/1.1/DTD/svg11.dtd">
<!-- Generated by graphviz version 2.24.0 (20090616.2323)
 -->
<!-- Title: snode_cleanup Pages: 1 -->
<!--zoomable 162 -->
<svg id="main" version="1.1" xmlns="http://www.w3.org/2000/svg" xmlns:xlink="http://www.w3.org/1999/xlink" xml:space="preserve" onload="init(evt)">
        <defs>
                <circle id="rim" cx="0" cy="0" r="7"/>
                <circle id="rim2" cx="0" cy="0" r="3.5"/>
                <g id="zoomPlus">
                        <use xlink:href="#rim" fill="#404040">
                                <set attributeName="fill" to="#808080" begin="zoomplus.mouseover" end="zoomplus.mouseout"/>
                        </use>
                        <path d="M-4,0h8M0,-4v8" fill="none" stroke="white" stroke-width="1.5" pointer-events="none"/>
                </g>
                <g id="zoomMin">
                        <use xlink:href="#rim" fill="#404040">
                                <set attributeName="fill" to="#808080" begin="zoomminus.mouseover" end="zoomminus.mouseout"/>
                        </use>
                        <path d="M-4,0h8" fill="none" stroke="white" stroke-width="1.5" pointer-events="none"/>
                </g>
                <g id="dirArrow">
                        <path fill="none" stroke="white" stroke-width="1.5" d="M0,-3.0v7 M-2.5,-0.5L0,-3.0L2.5,-0.5"/>
                </g>
               <g id="resetDef">
                       <use xlink:href="#rim2" fill="#404040">
                               <set attributeName="fill" to="#808080" begin="reset.mouseover" end="reset.mouseout"/>
                       </use>
               </g>
        </defs>

<script type="text/javascript">
var viewWidth = 598;
var viewHeight = 162;
var sectionId = 'dynsection-15';
</script>
<script xlink:href="svgpan.js"/>
<svg id="graph" class="graph">
<g id="viewport">
<title>snode_cleanup</title>
<polygon fill="white" stroke="white" points="-4,5 -4,-158 595,-158 595,5 -4,5"/>
<!-- Node1 -->
<g id="node1" class="node"><title>Node1</title>
<polygon fill="#bfbfbf" stroke="black" points="0.5,-72.5 0.5,-93.5 89.5,-93.5 89.5,-72.5 0.5,-72.5"/>
<text text-anchor="middle" x="45" y="-80.5" font-family="FreeSans" font-size="10.00">snode_cleanup</text>
</g>
<!-- Node2 -->
<g id="node3" class="node"><title>Node2</title>
<a xlink:href="cvm-hfa-search_8c.html#a30064f173d814bd3791b59d675c2f45f" target="_top" xlink:title="This routine cleans&#45;up a Search Context.">
<polygon fill="white" stroke="black" points="126,-72.5 126,-93.5 278,-93.5 278,-72.5 126,-72.5"/>
<text text-anchor="middle" x="202" y="-80.5" font-family="FreeSans" font-size="10.00">hfa_dev_searchctx_cleanup</text>
</a>
</g>
<!-- Node1&#45;&gt;Node2 -->
<g id="edge2" class="edge"><title>Node1&#45;&gt;Node2</title>
<path fill="none" stroke="midnightblue" d="M89.5699,-83C97.8034,-83 106.653,-83 115.642,-83"/>
<polygon fill="midnightblue" stroke="midnightblue" points="115.825,-86.5001 125.825,-83 115.825,-79.5001 115.825,-86.5001"/>
</g>
<!-- Node3 -->
<g id="node5" class="node"><title>Node3</title>
<a xlink:href="cvm-hfa-pp_8c.html#add6064138ec2e35741929056a0992d8d" target="_top" xlink:title="ppgetstats">
<polygon fill="white" stroke="black" points="338,-132.5 338,-153.5 404,-153.5 404,-132.5 338,-132.5"/>
<text text-anchor="middle" x="371" y="-140.5" font-family="FreeSans" font-size="10.00">ppgetstats</text>
</a>
</g>
<!-- Node2&#45;&gt;Node3 -->
<g id="edge4" class="edge"><title>Node2&#45;&gt;Node3</title>
<path fill="none" stroke="midnightblue" d="M231.461,-93.5721C254.038,-101.662 285.972,-113.078 314,-123 319.573,-124.973 325.456,-127.047 331.242,-129.082"/>
<polygon fill="midnightblue" stroke="midnightblue" points="330.221,-132.432 340.816,-132.444 332.54,-125.828 330.221,-132.432"/>
</g>
<!-- Node5 -->
<g id="node9" class="node"><title>Node5</title>
<a xlink:href="cvm-hfa-pp_8c.html#a57ec655c9bdb6ce63ada6767c7e14763" target="_top" xlink:title="ppcleanstats">
<polygon fill="white" stroke="black" points="332.5,-92.5 332.5,-113.5 409.5,-113.5 409.5,-92.5 332.5,-92.5"/>
<text text-anchor="middle" x="371" y="-100.5" font-family="FreeSans" font-size="10.00">ppcleanstats</text>
</a>
</g>
<!-- Node2&#45;&gt;Node5 -->
<g id="edge8" class="edge"><title>Node2&#45;&gt;Node5</title>
<path fill="none" stroke="midnightblue" d="M278.095,-92.0054C293.036,-93.7735 308.33,-95.5835 322.085,-97.2113"/>
<polygon fill="midnightblue" stroke="midnightblue" points="321.931,-100.717 332.273,-98.4169 322.753,-93.7658 321.931,-100.717"/>
</g>
<!-- Node7 -->
<g id="node13" class="node"><title>Node7</title>
<a xlink:href="cvm-hfa-pp_8c.html#a41ce9d3103c639e474783d3843e09071" target="_top" xlink:title="ppcleanup">
<polygon fill="white" stroke="black" points="338,-52.5 338,-73.5 404,-73.5 404,-52.5 338,-52.5"/>
<text text-anchor="middle" x="371" y="-60.5" font-family="FreeSans" font-size="10.00">ppcleanup</text>
</a>
</g>
<!-- Node2&#45;&gt;Node7 -->
<g id="edge12" class="edge"><title>Node2&#45;&gt;Node7</title>
<path fill="none" stroke="midnightblue" d="M278.095,-73.9946C295.037,-71.9897 312.434,-69.9309 327.526,-68.1449"/>
<polygon fill="midnightblue" stroke="midnightblue" points="328.052,-71.6071 337.572,-66.956 327.23,-64.6556 328.052,-71.6071"/>
</g>
<!-- Node9 -->
<g id="node17" class="node"><title>Node9</title>
<a xlink:href="cvm-hfa-stats_8c.html#a2df4c76e04e7b028ed2df4bba1b2de3d" target="_top" xlink:title="This routine is the counterpart of hfa_searchctx_init_stats().">
<polygon fill="white" stroke="black" points="314.5,-0 314.5,-34 427.5,-34 427.5,-0 314.5,-0"/>
<text text-anchor="start" x="322.5" y="-21" font-family="FreeSans" font-size="10.00">hfa_searchctx_stats</text>
<text text-anchor="middle" x="371" y="-8" font-family="FreeSans" font-size="10.00">_cleanup</text>
</a>
</g>
<!-- Node2&#45;&gt;Node9 -->
<g id="edge16" class="edge"><title>Node2&#45;&gt;Node9</title>
<path fill="none" stroke="midnightblue" d="M229.153,-72.396C253.064,-63.0579 288.574,-49.1899 318.083,-37.6659"/>
<polygon fill="midnightblue" stroke="midnightblue" points="319.389,-40.9134 327.43,-34.0154 316.842,-34.393 319.389,-40.9134"/>
</g>
<!-- Node4 -->
<g id="node7" class="node"><title>Node4</title>
<a xlink:href="pp_8h.html#a808d5057ee5670ce724a6a88fc22b799" target="_top" xlink:title="pphfa_getstats">
<polygon fill="white" stroke="black" points="483.5,-132.5 483.5,-153.5 570.5,-153.5 570.5,-132.5 483.5,-132.5"/>
<text text-anchor="middle" x="527" y="-140.5" font-family="FreeSans" font-size="10.00">pphfa_getstats</text>
</a>
</g>
<!-- Node3&#45;&gt;Node4 -->
<g id="edge6" class="edge"><title>Node3&#45;&gt;Node4</title>
<path fill="none" stroke="midnightblue" d="M404.084,-143C424.094,-143 450.087,-143 473.014,-143"/>
<polygon fill="midnightblue" stroke="midnightblue" points="473.299,-146.5 483.299,-143 473.299,-139.5 473.299,-146.5"/>
</g>
<!-- Node6 -->
<g id="node11" class="node"><title>Node6</title>
<a xlink:href="pp_8h.html#a978b171bd7a736cb7fa0d5d034aa94e2" target="_top" xlink:title="pphfa_cleanstats">
<polygon fill="white" stroke="black" points="478,-92.5 478,-113.5 576,-113.5 576,-92.5 478,-92.5"/>
<text text-anchor="middle" x="527" y="-100.5" font-family="FreeSans" font-size="10.00">pphfa_cleanstats</text>
</a>
</g>
<!-- Node5&#45;&gt;Node6 -->
<g id="edge10" class="edge"><title>Node5&#45;&gt;Node6</title>
<path fill="none" stroke="midnightblue" d="M409.562,-103C427.157,-103 448.385,-103 467.926,-103"/>
<polygon fill="midnightblue" stroke="midnightblue" points="467.963,-106.5 477.963,-103 467.963,-99.5001 467.963,-106.5"/>
</g>
<!-- Node8 -->
<g id="node15" class="node"><title>Node8</title>
<a xlink:href="pp_8h.html#a428ad073d1fd72da37ab8b00f13693a3" target="_top" xlink:title="pphfa_cleanup">
<polygon fill="white" stroke="black" points="483.5,-52.5 483.5,-73.5 570.5,-73.5 570.5,-52.5 483.5,-52.5"/>
<text text-anchor="middle" x="527" y="-60.5" font-family="FreeSans" font-size="10.00">pphfa_cleanup</text>
</a>
</g>
<!-- Node7&#45;&gt;Node8 -->
<g id="edge14" class="edge"><title>Node7&#45;&gt;Node8</title>
<path fill="none" stroke="midnightblue" d="M404.084,-63C424.094,-63 450.087,-63 473.014,-63"/>
<polygon fill="midnightblue" stroke="midnightblue" points="473.299,-66.5001 483.299,-63 473.299,-59.5001 473.299,-66.5001"/>
</g>
<!-- Node10 -->
<g id="node19" class="node"><title>Node10</title>
<a xlink:href="cvm-hfa-stats_8c.html#a7a2acbe48c3850d43256938ee996aa16" target="_top" xlink:title="This routine frees memory to STATS ARENA.">
<polygon fill="white" stroke="black" points="464.5,-6.5 464.5,-27.5 589.5,-27.5 589.5,-6.5 464.5,-6.5"/>
<text text-anchor="middle" x="527" y="-14.5" font-family="FreeSans" font-size="10.00">hfa_stats_memoryfree</text>
</a>
</g>
<!-- Node9&#45;&gt;Node10 -->
<g id="edge18" class="edge"><title>Node9&#45;&gt;Node10</title>
<path fill="none" stroke="midnightblue" d="M427.761,-17C436.432,-17 445.483,-17 454.438,-17"/>
<polygon fill="midnightblue" stroke="midnightblue" points="454.482,-20.5001 464.482,-17 454.482,-13.5001 454.482,-20.5001"/>
</g>
</g>
</svg>
        <g id="navigator" transform="translate(0 0)" fill="#404254">
                <rect fill="#f2f5e9" fill-opacity="0.5" stroke="#606060" stroke-width=".5" x="0" y="0" width="60" height="60"/>
                <use id="zoomplus" xlink:href="#zoomPlus" x="17" y="9" onmousedown="handleZoom(evt,'in')"/>
                <use id="zoomminus" xlink:href="#zoomMin" x="42" y="9" onmousedown="handleZoom(evt,'out')"/>
                <use id="reset" xlink:href="#resetDef" x="30" y="36" onmousedown="handleReset()"/>
                <g id="arrowUp" xlink:href="#dirArrow" transform="translate(30 24)" onmousedown="handlePan(0,-1)">
                  <use xlink:href="#rim" fill="#404040">
                        <set attributeName="fill" to="#808080" begin="arrowUp.mouseover" end="arrowUp.mouseout"/>
                  </use>
                  <path fill="none" stroke="white" stroke-width="1.5" d="M0,-3.0v7 M-2.5,-0.5L0,-3.0L2.5,-0.5"/>
                </g>
                <g id="arrowRight" xlink:href="#dirArrow" transform="rotate(90) translate(36 -43)" onmousedown="handlePan(1,0)">
                  <use xlink:href="#rim" fill="#404040">
                        <set attributeName="fill" to="#808080" begin="arrowRight.mouseover" end="arrowRight.mouseout"/>
                  </use>
                  <path fill="none" stroke="white" stroke-width="1.5" d="M0,-3.0v7 M-2.5,-0.5L0,-3.0L2.5,-0.5"/>
                </g>
                <g id="arrowDown" xlink:href="#dirArrow" transform="rotate(180) translate(-30 -48)" onmousedown="handlePan(0,1)">
                  <use xlink:href="#rim" fill="#404040">
                        <set attributeName="fill" to="#808080" begin="arrowDown.mouseover" end="arrowDown.mouseout"/>
                  </use>
                  <path fill="none" stroke="white" stroke-width="1.5" d="M0,-3.0v7 M-2.5,-0.5L0,-3.0L2.5,-0.5"/>
                </g>
                <g id="arrowLeft" xlink:href="#dirArrow" transform="rotate(270) translate(-36 17)" onmousedown="handlePan(-1,0)">
                  <use xlink:href="#rim" fill="#404040">
                        <set attributeName="fill" to="#808080" begin="arrowLeft.mouseover" end="arrowLeft.mouseout"/>
                  </use>
                  <path fill="none" stroke="white" stroke-width="1.5" d="M0,-3.0v7 M-2.5,-0.5L0,-3.0L2.5,-0.5"/>
                </g>
        </g>
        <svg viewBox="0 0 15 15" width="100%" height="30px" preserveAspectRatio="xMaxYMin meet">
         <g id="arrow_out" transform="scale(0.3 0.3)">
          <a xlink:href="hfa-lnx-nctx-lock_8c_a524accbd3a8024ee7cc3254698dbd8e3_cgraph_org.svg" target="_base">
           <rect id="button" ry="5" rx="5" y="6" x="6" height="38" width="38"
                fill="#f2f5e9" fill-opacity="0.5" stroke="#606060" stroke-width="1.0"/>
           <path id="arrow"
             d="M 11.500037,31.436501 C 11.940474,20.09759 22.043105,11.32322 32.158766,21.979434 L 37.068811,17.246167 C 37.068811,17.246167 37.088388,32 37.088388,32 L 22.160133,31.978069 C 22.160133,31.978069 26.997745,27.140456 26.997745,27.140456 C 18.528582,18.264221 13.291696,25.230495 11.500037,31.436501 z"
             style="fill:#404040;"/>
          </a>
         </g>
        </svg>
</svg>
