<?xml version="1.0" encoding="UTF-8" standalone="no"?>
<!DOCTYPE svg PUBLIC "-//W3C//DTD SVG 1.1//EN"
 "http://www.w3.org/Graphics/SVG/1.1/DTD/svg11.dtd">
<!-- Generated by graphviz version 2.24.0 (20090616.2323)
 -->
<!-- Title: get_fparam Pages: 1 -->
<svg width="314pt" height="226pt"
 viewBox="0.00 0.00 314.00 226.00" xmlns="http://www.w3.org/2000/svg" xmlns:xlink="http://www.w3.org/1999/xlink">
<g id="graph1" class="graph" transform="scale(1 1) rotate(0) translate(4 222)">
<title>get_fparam</title>
<polygon fill="white" stroke="white" points="-4,5 -4,-222 311,-222 311,5 -4,5"/>
<!-- Node1 -->
<g id="node1" class="node"><title>Node1</title>
<polygon fill="#bfbfbf" stroke="black" points="0,-104.5 0,-125.5 72,-125.5 72,-104.5 0,-104.5"/>
<text text-anchor="middle" x="36" y="-112.5" font-family="FreeSans" font-size="10.00">get_fparam</text>
</g>
<!-- Node2 -->
<g id="node3" class="node"><title>Node2</title>
<a xlink:href="hfa-se-flow_8c.html#a7ab45fe0bf9371bbe81609ffe8a62702" target="_top" xlink:title="Cleanup memory allocated for search parameters.">
<polygon fill="white" stroke="black" points="135.5,-196.5 135.5,-217.5 202.5,-217.5 202.5,-196.5 135.5,-196.5"/>
<text text-anchor="middle" x="169" y="-204.5" font-family="FreeSans" font-size="10.00">freeparam</text>
</a>
</g>
<!-- Node1&#45;&gt;Node2 -->
<g id="edge2" class="edge"><title>Node1&#45;&gt;Node2</title>
<path fill="none" stroke="midnightblue" d="M43.8994,-125.604C56.0355,-141.191 80.7407,-170.245 108,-187 113.483,-190.37 119.597,-193.238 125.777,-195.658"/>
<polygon fill="midnightblue" stroke="midnightblue" points="124.869,-199.049 135.464,-199.1 127.213,-192.453 124.869,-199.049"/>
</g>
<!-- Node4 -->
<g id="node7" class="node"><title>Node4</title>
<a xlink:href="cvm-hfa-search_8h.html#a0210e636ef06f718be0e67753bebaa04" target="_top" xlink:title="This routine configures the application callback routine which will be invoked when a pattern match i...">
<polygon fill="white" stroke="black" points="108.5,-144 108.5,-178 229.5,-178 229.5,-144 108.5,-144"/>
<text text-anchor="start" x="116.5" y="-165" font-family="FreeSans" font-size="10.00">hfa_searchparam_set</text>
<text text-anchor="middle" x="169" y="-152" font-family="FreeSans" font-size="10.00">_matchcb</text>
</a>
</g>
<!-- Node1&#45;&gt;Node4 -->
<g id="edge6" class="edge"><title>Node1&#45;&gt;Node4</title>
<path fill="none" stroke="midnightblue" d="M66.5129,-125.553C79.4097,-130.014 94.8906,-135.368 109.867,-140.548"/>
<polygon fill="midnightblue" stroke="midnightblue" points="109.009,-143.954 119.603,-143.915 111.297,-137.339 109.009,-143.954"/>
</g>
<!-- Node5 -->
<g id="node9" class="node"><title>Node5</title>
<a xlink:href="app-utils_8c.html#a97d86363214adebf7bbc22fa81e2c6b6" target="_top" xlink:title="Match callback to count number of matches.">
<polygon fill="white" stroke="black" points="119.5,-104.5 119.5,-125.5 218.5,-125.5 218.5,-104.5 119.5,-104.5"/>
<text text-anchor="middle" x="169" y="-112.5" font-family="FreeSans" font-size="10.00">hfautils_matchcb</text>
</a>
</g>
<!-- Node1&#45;&gt;Node5 -->
<g id="edge8" class="edge"><title>Node1&#45;&gt;Node5</title>
<path fill="none" stroke="midnightblue" d="M72.3428,-115C83.6393,-115 96.4087,-115 108.876,-115"/>
<polygon fill="midnightblue" stroke="midnightblue" points="109.239,-118.5 119.239,-115 109.239,-111.5 109.239,-118.5"/>
</g>
<!-- Node6 -->
<g id="node11" class="node"><title>Node6</title>
<a xlink:href="cvm-hfa-search_8h.html#a3c407460808f038770473ffc6e4b5c38" target="_top" xlink:title="This routine adds a new input IO vector to Search Param.">
<polygon fill="white" stroke="black" points="108.5,-52 108.5,-86 229.5,-86 229.5,-52 108.5,-52"/>
<text text-anchor="start" x="116.5" y="-73" font-family="FreeSans" font-size="10.00">hfa_searchparam_set</text>
<text text-anchor="middle" x="169" y="-60" font-family="FreeSans" font-size="10.00">_inputiovec</text>
</a>
</g>
<!-- Node1&#45;&gt;Node6 -->
<g id="edge10" class="edge"><title>Node1&#45;&gt;Node6</title>
<path fill="none" stroke="midnightblue" d="M66.5129,-104.447C79.4097,-99.9861 94.8906,-94.6318 109.867,-89.452"/>
<polygon fill="midnightblue" stroke="midnightblue" points="111.297,-92.661 119.603,-86.0845 109.009,-86.0455 111.297,-92.661"/>
</g>
<!-- Node7 -->
<g id="node13" class="node"><title>Node7</title>
<a xlink:href="cvm-hfa-search_8h.html#a12882fa53f8ec49b9b2950711161db42" target="_top" xlink:title="This routine sets the output buffer in the sparam.">
<polygon fill="white" stroke="black" points="108.5,-0 108.5,-34 229.5,-34 229.5,-0 108.5,-0"/>
<text text-anchor="start" x="116.5" y="-21" font-family="FreeSans" font-size="10.00">hfa_searchparam_set</text>
<text text-anchor="middle" x="169" y="-8" font-family="FreeSans" font-size="10.00">_output</text>
</a>
</g>
<!-- Node1&#45;&gt;Node7 -->
<g id="edge12" class="edge"><title>Node1&#45;&gt;Node7</title>
<path fill="none" stroke="midnightblue" d="M44.2979,-104.44C56.7491,-89.1722 81.6334,-60.813 108,-43 110.087,-41.5902 112.262,-40.2316 114.496,-38.9256"/>
<polygon fill="midnightblue" stroke="midnightblue" points="116.2,-41.983 123.337,-34.1524 112.875,-35.8233 116.2,-41.983"/>
</g>
<!-- Node3 -->
<g id="node5" class="node"><title>Node3</title>
<a xlink:href="hfa-se-flow_8c.html#a49535197bf697f5b0b5f2952e1e5063c" target="_top" xlink:title="Free packet buffer and wqe to the corresponding fpa pools.">
<polygon fill="white" stroke="black" points="266.5,-196.5 266.5,-217.5 305.5,-217.5 305.5,-196.5 266.5,-196.5"/>
<text text-anchor="middle" x="286" y="-204.5" font-family="FreeSans" font-size="10.00">send</text>
</a>
</g>
<!-- Node2&#45;&gt;Node3 -->
<g id="edge4" class="edge"><title>Node2&#45;&gt;Node3</title>
<path fill="none" stroke="midnightblue" d="M202.528,-207C219.478,-207 239.871,-207 256.257,-207"/>
<polygon fill="midnightblue" stroke="midnightblue" points="256.371,-210.5 266.37,-207 256.37,-203.5 256.371,-210.5"/>
</g>
</g>
</svg>
