<?xml version="1.0" encoding="UTF-8" standalone="no"?>
<!DOCTYPE svg PUBLIC "-//W3C//DTD SVG 1.1//EN"
 "http://www.w3.org/Graphics/SVG/1.1/DTD/svg11.dtd">
<!-- Generated by graphviz version 2.24.0 (20090616.2323)
 -->
<!-- Title: configure_cluster_memory_resources Pages: 1 -->
<svg width="528pt" height="430pt"
 viewBox="0.00 0.00 528.00 430.00" xmlns="http://www.w3.org/2000/svg" xmlns:xlink="http://www.w3.org/1999/xlink">
<g id="graph1" class="graph" transform="scale(1 1) rotate(0) translate(4 426)">
<title>configure_cluster_memory_resources</title>
<polygon fill="white" stroke="white" points="-4,5 -4,-426 525,-426 525,5 -4,5"/>
<!-- Node1 -->
<g id="node1" class="node"><title>Node1</title>
<polygon fill="#bfbfbf" stroke="black" points="0,-194 0,-228 146,-228 146,-194 0,-194"/>
<text text-anchor="start" x="8" y="-215" font-family="FreeSans" font-size="10.00">configure_cluster_memory</text>
<text text-anchor="middle" x="73" y="-202" font-family="FreeSans" font-size="10.00">_resources</text>
</g>
<!-- Node2 -->
<g id="node3" class="node"><title>Node2</title>
<a xlink:href="cvm-hfa_8h.html#a1afec397da10d79424478877387414f3" target="_top" xlink:title="Returns number of clusters configured in device.">
<polygon fill="white" stroke="black" points="198,-400.5 198,-421.5 322,-421.5 322,-400.5 198,-400.5"/>
<text text-anchor="middle" x="260" y="-408.5" font-family="FreeSans" font-size="10.00">hfa_dev_get_nclusters</text>
</a>
</g>
<!-- Node1&#45;&gt;Node2 -->
<g id="edge2" class="edge"><title>Node1&#45;&gt;Node2</title>
<path fill="none" stroke="midnightblue" d="M78.3989,-228.165C90.648,-264.209 124.069,-347.989 182,-391 184.501,-392.857 187.157,-394.542 189.923,-396.071"/>
<polygon fill="midnightblue" stroke="midnightblue" points="188.542,-399.29 199.073,-400.444 191.56,-392.974 188.542,-399.29"/>
</g>
<!-- Node3 -->
<g id="node5" class="node"><title>Node3</title>
<a xlink:href="cvm-hfa-cluster_8c.html#ad8cad96579f5a310b62caaf8c166658f" target="_top" xlink:title="Returns a copy of a cluster of the HFA device.">
<polygon fill="white" stroke="black" points="215,-360.5 215,-381.5 305,-381.5 305,-360.5 215,-360.5"/>
<text text-anchor="middle" x="260" y="-368.5" font-family="FreeSans" font-size="10.00">hfa_get_cluster</text>
</a>
</g>
<!-- Node1&#45;&gt;Node3 -->
<g id="edge4" class="edge"><title>Node1&#45;&gt;Node3</title>
<path fill="none" stroke="midnightblue" d="M81.4843,-228.192C97.1004,-257.988 133.306,-319.088 182,-351 189.059,-355.626 197.127,-359.183 205.336,-361.917"/>
<polygon fill="midnightblue" stroke="midnightblue" points="204.402,-365.291 214.984,-364.764 206.383,-358.577 204.402,-365.291"/>
</g>
<!-- Node4 -->
<g id="node7" class="node"><title>Node4</title>
<a xlink:href="cvm-hfa-cluster_8c.html#ae4fec611b1343b2f6cad63b81987d98b" target="_top" xlink:title="Cleanup Cluster.">
<polygon fill="white" stroke="black" points="203.5,-320.5 203.5,-341.5 316.5,-341.5 316.5,-320.5 203.5,-320.5"/>
<text text-anchor="middle" x="260" y="-328.5" font-family="FreeSans" font-size="10.00">hfa_cluster_cleanup</text>
</a>
</g>
<!-- Node1&#45;&gt;Node4 -->
<g id="edge6" class="edge"><title>Node1&#45;&gt;Node4</title>
<path fill="none" stroke="midnightblue" d="M86.9647,-228.267C106.061,-250.718 142.489,-289.585 182,-311 186.16,-313.255 190.583,-315.262 195.127,-317.05"/>
<polygon fill="midnightblue" stroke="midnightblue" points="193.984,-320.358 204.578,-320.416 196.333,-313.764 193.984,-320.358"/>
</g>
<!-- Node7 -->
<g id="node13" class="node"><title>Node7</title>
<a xlink:href="cvm-hfa-cluster_8c.html#aa0d1e40097e956ad06c9f7c454f77b80" target="_top" xlink:title="The HFA device consists of one or more clusters.">
<polygon fill="white" stroke="black" points="216,-280.5 216,-301.5 304,-301.5 304,-280.5 216,-280.5"/>
<text text-anchor="middle" x="260" y="-288.5" font-family="FreeSans" font-size="10.00">hfa_cluster_init</text>
</a>
</g>
<!-- Node1&#45;&gt;Node7 -->
<g id="edge12" class="edge"><title>Node1&#45;&gt;Node7</title>
<path fill="none" stroke="midnightblue" d="M99.3979,-228.01C120.919,-241.259 152.477,-259.307 182,-271 189.577,-274.001 197.748,-276.672 205.85,-279.008"/>
<polygon fill="midnightblue" stroke="midnightblue" points="205.083,-282.427 215.653,-281.692 206.931,-275.676 205.083,-282.427"/>
</g>
<!-- Node9 -->
<g id="node17" class="node"><title>Node9</title>
<a xlink:href="cvm-hfa_8h.html#a760b4a245f0bf0c6823c9edb7eba6425" target="_top" xlink:title="Indicates whether device has its own HFA memory.">
<polygon fill="white" stroke="black" points="182.5,-240.5 182.5,-261.5 337.5,-261.5 337.5,-240.5 182.5,-240.5"/>
<text text-anchor="middle" x="260" y="-248.5" font-family="FreeSans" font-size="10.00">hfa_dev_haspvt_hfamemory</text>
</a>
</g>
<!-- Node1&#45;&gt;Node9 -->
<g id="edge16" class="edge"><title>Node1&#45;&gt;Node9</title>
<path fill="none" stroke="midnightblue" d="M146.103,-226.637C164.256,-230.52 183.489,-234.634 200.878,-238.354"/>
<polygon fill="midnightblue" stroke="midnightblue" points="200.37,-241.824 210.881,-240.493 201.835,-234.979 200.37,-241.824"/>
</g>
<!-- Node10 -->
<g id="node19" class="node"><title>Node10</title>
<a xlink:href="cvm-hfa_8h.html#a426b2044f6c6a2367ea14a92665e6851" target="_top" xlink:title="Returns configured memory address in device.">
<polygon fill="white" stroke="black" points="196,-200.5 196,-221.5 324,-221.5 324,-200.5 196,-200.5"/>
<text text-anchor="middle" x="260" y="-208.5" font-family="FreeSans" font-size="10.00">hfa_dev_get_memaddr</text>
</a>
</g>
<!-- Node1&#45;&gt;Node10 -->
<g id="edge18" class="edge"><title>Node1&#45;&gt;Node10</title>
<path fill="none" stroke="midnightblue" d="M146.103,-211C159.035,-211 172.515,-211 185.486,-211"/>
<polygon fill="midnightblue" stroke="midnightblue" points="185.76,-214.5 195.76,-211 185.76,-207.5 185.76,-214.5"/>
</g>
<!-- Node11 -->
<g id="node21" class="node"><title>Node11</title>
<a xlink:href="cvm-hfa_8h.html#a17131375a514b77a425632ee41a2d347" target="_top" xlink:title="Returns configured memory size in device.">
<polygon fill="white" stroke="black" points="197,-160.5 197,-181.5 323,-181.5 323,-160.5 197,-160.5"/>
<text text-anchor="middle" x="260" y="-168.5" font-family="FreeSans" font-size="10.00">hfa_dev_get_memsize</text>
</a>
</g>
<!-- Node1&#45;&gt;Node11 -->
<g id="edge20" class="edge"><title>Node1&#45;&gt;Node11</title>
<path fill="none" stroke="midnightblue" d="M146.103,-195.363C164.256,-191.48 183.489,-187.366 200.878,-183.646"/>
<polygon fill="midnightblue" stroke="midnightblue" points="201.835,-187.021 210.881,-181.507 200.37,-180.176 201.835,-187.021"/>
</g>
<!-- Node12 -->
<g id="node23" class="node"><title>Node12</title>
<a xlink:href="app-utils_8c.html#a9c2ecc9580f894c6d3cf3a682e42ffb6" target="_top" xlink:title="Return base address of named block.">
<polygon fill="white" stroke="black" points="212.5,-120.5 212.5,-141.5 307.5,-141.5 307.5,-120.5 212.5,-120.5"/>
<text text-anchor="middle" x="260" y="-128.5" font-family="FreeSans" font-size="10.00">hfautils_read_nb</text>
</a>
</g>
<!-- Node1&#45;&gt;Node12 -->
<g id="edge22" class="edge"><title>Node1&#45;&gt;Node12</title>
<path fill="none" stroke="midnightblue" d="M99.3979,-193.99C120.919,-180.741 152.477,-162.693 182,-151 188.462,-148.441 195.356,-146.121 202.271,-144.045"/>
<polygon fill="midnightblue" stroke="midnightblue" points="203.705,-147.276 212.368,-141.177 201.793,-140.542 203.705,-147.276"/>
</g>
<!-- Node14 -->
<g id="node27" class="node"><title>Node14</title>
<a xlink:href="app-utils_8c.html#a3e85d4c12420d8086bc60dedf59ab11f" target="_top" xlink:title="Return size of named block.">
<polygon fill="white" stroke="black" points="206,-80.5 206,-101.5 314,-101.5 314,-80.5 206,-80.5"/>
<text text-anchor="middle" x="260" y="-88.5" font-family="FreeSans" font-size="10.00">hfautils_getnb_size</text>
</a>
</g>
<!-- Node1&#45;&gt;Node14 -->
<g id="edge26" class="edge"><title>Node1&#45;&gt;Node14</title>
<path fill="none" stroke="midnightblue" d="M86.9647,-193.733C106.061,-171.282 142.489,-132.415 182,-111 186.494,-108.564 191.295,-106.417 196.224,-104.524"/>
<polygon fill="midnightblue" stroke="midnightblue" points="197.517,-107.78 205.814,-101.19 195.219,-101.168 197.517,-107.78"/>
</g>
<!-- Node15 -->
<g id="node30" class="node"><title>Node15</title>
<a xlink:href="cvm-hfa-cluster_8c.html#ad3dc54e450e08d6bf010a81b1eb11f15" target="_top" xlink:title="Assigns a memory block to the cluster as HFA memory for the purpose of loading graphs.">
<polygon fill="white" stroke="black" points="203,-40.5 203,-61.5 317,-61.5 317,-40.5 203,-40.5"/>
<text text-anchor="middle" x="260" y="-48.5" font-family="FreeSans" font-size="10.00">hfa_cluster_setmem</text>
</a>
</g>
<!-- Node1&#45;&gt;Node15 -->
<g id="edge30" class="edge"><title>Node1&#45;&gt;Node15</title>
<path fill="none" stroke="midnightblue" d="M81.4843,-193.808C97.1004,-164.012 133.306,-102.912 182,-71 185.552,-68.6724 189.359,-66.6156 193.31,-64.7981"/>
<polygon fill="midnightblue" stroke="midnightblue" points="194.787,-67.976 202.741,-60.9768 192.159,-61.4883 194.787,-67.976"/>
</g>
<!-- Node16 -->
<g id="node32" class="node"><title>Node16</title>
<a xlink:href="cvm-hfa-cluster_8c.html#af2466b1e67058e962fac92ac1d93f716" target="_top" xlink:title="This routine allows multiple clusters to share the same HFA memory block for loading graphs...">
<polygon fill="white" stroke="black" points="194,-0.5 194,-21.5 326,-21.5 326,-0.5 194,-0.5"/>
<text text-anchor="middle" x="260" y="-8.5" font-family="FreeSans" font-size="10.00">hfa_cluster_share_mem</text>
</a>
</g>
<!-- Node1&#45;&gt;Node16 -->
<g id="edge32" class="edge"><title>Node1&#45;&gt;Node16</title>
<path fill="none" stroke="midnightblue" d="M78.3989,-193.835C90.648,-157.791 124.069,-74.0113 182,-31 184.501,-29.1432 187.157,-27.4581 189.923,-25.9289"/>
<polygon fill="midnightblue" stroke="midnightblue" points="191.56,-29.026 199.073,-21.5561 188.542,-22.7101 191.56,-29.026"/>
</g>
<!-- Node5 -->
<g id="node9" class="node"><title>Node5</title>
<a xlink:href="cvm-hfa-cluster_8c.html#a5eb9ad880a56c9e7af7891cb994ae9db" target="_top" xlink:title="Counterpart of hfa_cluster_setmem().">
<polygon fill="white" stroke="black" points="378,-360.5 378,-381.5 516,-381.5 516,-360.5 378,-360.5"/>
<text text-anchor="middle" x="447" y="-368.5" font-family="FreeSans" font-size="10.00">hfa_cluster_cleanupmem</text>
</a>
</g>
<!-- Node4&#45;&gt;Node5 -->
<g id="edge8" class="edge"><title>Node4&#45;&gt;Node5</title>
<path fill="none" stroke="midnightblue" d="M309.132,-341.51C333.302,-346.679 362.62,-352.951 387.996,-358.379"/>
<polygon fill="midnightblue" stroke="midnightblue" points="387.361,-361.822 397.872,-360.491 388.825,-354.977 387.361,-361.822"/>
</g>
<!-- Node6 -->
<g id="node11" class="node"><title>Node6</title>
<a xlink:href="cvm-hfa-cluster_8c.html#a6c30dec281084f6e40bf9d98356418bd" target="_top" xlink:title="Frees Cache pool for cluster.">
<polygon fill="white" stroke="black" points="375.5,-320.5 375.5,-341.5 518.5,-341.5 518.5,-320.5 375.5,-320.5"/>
<text text-anchor="middle" x="447" y="-328.5" font-family="FreeSans" font-size="10.00">hfa_cluster_cleanupcache</text>
</a>
</g>
<!-- Node4&#45;&gt;Node6 -->
<g id="edge10" class="edge"><title>Node4&#45;&gt;Node6</title>
<path fill="none" stroke="midnightblue" d="M316.614,-331C331.925,-331 348.809,-331 365.205,-331"/>
<polygon fill="midnightblue" stroke="midnightblue" points="365.332,-334.5 375.332,-331 365.332,-327.5 365.332,-334.5"/>
</g>
<!-- Node8 -->
<g id="node15" class="node"><title>Node8</title>
<a xlink:href="cvm-hfa-cluster_8c.html#ae7f77575030285c474e1ee2669171a3c" target="_top" xlink:title="Each HFA cluster has predefined cache size and addresses to be used by cluster for graph cache load I...">
<polygon fill="white" stroke="black" points="387.5,-280.5 387.5,-301.5 506.5,-301.5 506.5,-280.5 387.5,-280.5"/>
<text text-anchor="middle" x="447" y="-288.5" font-family="FreeSans" font-size="10.00">hfa_cluster_setcache</text>
</a>
</g>
<!-- Node7&#45;&gt;Node8 -->
<g id="edge14" class="edge"><title>Node7&#45;&gt;Node8</title>
<path fill="none" stroke="midnightblue" d="M304.316,-291C326.052,-291 352.746,-291 377.141,-291"/>
<polygon fill="midnightblue" stroke="midnightblue" points="377.435,-294.5 387.434,-291 377.434,-287.5 377.435,-294.5"/>
</g>
<!-- Node13 -->
<g id="node25" class="node"><title>Node13</title>
<a xlink:href="cvmx-hfa_8c.html#a547dc48185d98dcfe05c3f2cf49429fd" target="_top" xlink:title="Finds a named bootmem block by name.">
<polygon fill="white" stroke="black" points="374,-94 374,-128 520,-128 520,-94 374,-94"/>
<text text-anchor="start" x="382" y="-115" font-family="FreeSans" font-size="10.00">hfa_bootmem_find_named</text>
<text text-anchor="middle" x="447" y="-102" font-family="FreeSans" font-size="10.00">_block</text>
</a>
</g>
<!-- Node12&#45;&gt;Node13 -->
<g id="edge24" class="edge"><title>Node12&#45;&gt;Node13</title>
<path fill="none" stroke="midnightblue" d="M307.672,-125.901C324.811,-124.068 344.68,-121.943 363.95,-119.882"/>
<polygon fill="midnightblue" stroke="midnightblue" points="364.383,-123.356 373.954,-118.812 363.638,-116.396 364.383,-123.356"/>
</g>
<!-- Node14&#45;&gt;Node13 -->
<g id="edge28" class="edge"><title>Node14&#45;&gt;Node13</title>
<path fill="none" stroke="midnightblue" d="M314.088,-96.7848C329.542,-98.4376 346.754,-100.278 363.53,-102.073"/>
<polygon fill="midnightblue" stroke="midnightblue" points="363.584,-105.598 373.9,-103.182 364.329,-98.6381 363.584,-105.598"/>
</g>
<!-- Node17 -->
<g id="node34" class="node"><title>Node17</title>
<a xlink:href="cvm-hfa-osapi_8h.html#a87f3d3c0849e129d606a8858b090e21a" target="_top" xlink:title="hfa_os_listempty">
<polygon fill="white" stroke="black" points="398.5,-0.5 398.5,-21.5 495.5,-21.5 495.5,-0.5 398.5,-0.5"/>
<text text-anchor="middle" x="447" y="-8.5" font-family="FreeSans" font-size="10.00">hfa_os_listempty</text>
</a>
</g>
<!-- Node16&#45;&gt;Node17 -->
<g id="edge34" class="edge"><title>Node16&#45;&gt;Node17</title>
<path fill="none" stroke="midnightblue" d="M326.192,-11C346.413,-11 368.501,-11 388.196,-11"/>
<polygon fill="midnightblue" stroke="midnightblue" points="388.254,-14.5001 398.254,-11 388.254,-7.5001 388.254,-14.5001"/>
</g>
</g>
</svg>
