<?xml version="1.0" encoding="UTF-8" standalone="no"?>
<!DOCTYPE svg PUBLIC "-//W3C//DTD SVG 1.1//EN"
 "http://www.w3.org/Graphics/SVG/1.1/DTD/svg11.dtd">
<!-- Generated by graphviz version 2.24.0 (20090616.2323)
 -->
<!-- Title: core_exit Pages: 1 -->
<svg width="718pt" height="242pt"
 viewBox="0.00 0.00 718.00 242.00" xmlns="http://www.w3.org/2000/svg" xmlns:xlink="http://www.w3.org/1999/xlink">
<g id="graph1" class="graph" transform="scale(1 1) rotate(0) translate(4 238)">
<title>core_exit</title>
<polygon fill="white" stroke="white" points="-4,5 -4,-238 715,-238 715,5 -4,5"/>
<!-- Node1 -->
<g id="node1" class="node"><title>Node1</title>
<polygon fill="#bfbfbf" stroke="black" points="0,-172.5 0,-193.5 60,-193.5 60,-172.5 0,-172.5"/>
<text text-anchor="middle" x="30" y="-180.5" font-family="FreeSans" font-size="10.00">core_exit</text>
</g>
<!-- Node2 -->
<g id="node3" class="node"><title>Node2</title>
<a xlink:href="hfa-lnx-ctx_8c.html#a630ea21ffa0ae1e09e74fc5add8c2715" target="_top" xlink:title="destroyctx">
<polygon fill="white" stroke="black" points="96.5,-172.5 96.5,-193.5 163.5,-193.5 163.5,-172.5 96.5,-172.5"/>
<text text-anchor="middle" x="130" y="-180.5" font-family="FreeSans" font-size="10.00">destroyctx</text>
</a>
</g>
<!-- Node1&#45;&gt;Node2 -->
<g id="edge2" class="edge"><title>Node1&#45;&gt;Node2</title>
<path fill="none" stroke="midnightblue" d="M60.0033,-183C68.1906,-183 77.2344,-183 86.0259,-183"/>
<polygon fill="midnightblue" stroke="midnightblue" points="86.1642,-186.5 96.1642,-183 86.1641,-179.5 86.1642,-186.5"/>
</g>
<!-- Node3 -->
<g id="node5" class="node"><title>Node3</title>
<a xlink:href="hfa-se-flow_8c.html#a7ab45fe0bf9371bbe81609ffe8a62702" target="_top" xlink:title="Cleanup memory allocated for search parameters.">
<polygon fill="white" stroke="black" points="252.5,-212.5 252.5,-233.5 319.5,-233.5 319.5,-212.5 252.5,-212.5"/>
<text text-anchor="middle" x="286" y="-220.5" font-family="FreeSans" font-size="10.00">freeparam</text>
</a>
</g>
<!-- Node2&#45;&gt;Node3 -->
<g id="edge4" class="edge"><title>Node2&#45;&gt;Node3</title>
<path fill="none" stroke="midnightblue" d="M163.731,-193.005C175.207,-196.311 188.132,-199.927 200,-203 213.717,-206.552 228.741,-210.147 242.34,-213.29"/>
<polygon fill="midnightblue" stroke="midnightblue" points="241.886,-216.777 252.415,-215.597 243.449,-209.953 241.886,-216.777"/>
</g>
<!-- Node5 -->
<g id="node9" class="node"><title>Node5</title>
<a xlink:href="cvm-hfa-search_8c.html#a6a8e1d7e70e0a10520302df5651e5fc5" target="_top" xlink:title="This routine provides the status of an outstanding pattern search operation initiated using hfa_searc...">
<polygon fill="white" stroke="black" points="200,-172.5 200,-193.5 372,-193.5 372,-172.5 200,-172.5"/>
<text text-anchor="middle" x="286" y="-180.5" font-family="FreeSans" font-size="10.00">hfa_searchctx_get_searchstatus</text>
</a>
</g>
<!-- Node2&#45;&gt;Node5 -->
<g id="edge8" class="edge"><title>Node2&#45;&gt;Node5</title>
<path fill="none" stroke="midnightblue" d="M163.85,-183C171.747,-183 180.544,-183 189.698,-183"/>
<polygon fill="midnightblue" stroke="midnightblue" points="189.744,-186.5 199.744,-183 189.744,-179.5 189.744,-186.5"/>
</g>
<!-- Node9 -->
<g id="node17" class="node"><title>Node9</title>
<a xlink:href="cvm-hfa-search_8c.html#a30064f173d814bd3791b59d675c2f45f" target="_top" xlink:title="This routine cleans&#45;up a Search Context.">
<polygon fill="white" stroke="black" points="210,-92.5 210,-113.5 362,-113.5 362,-92.5 210,-92.5"/>
<text text-anchor="middle" x="286" y="-100.5" font-family="FreeSans" font-size="10.00">hfa_dev_searchctx_cleanup</text>
</a>
</g>
<!-- Node2&#45;&gt;Node9 -->
<g id="edge16" class="edge"><title>Node2&#45;&gt;Node9</title>
<path fill="none" stroke="midnightblue" d="M150.716,-172.377C177.756,-158.51 225.265,-134.146 256.179,-118.293"/>
<polygon fill="midnightblue" stroke="midnightblue" points="257.898,-121.345 265.199,-113.667 254.703,-115.116 257.898,-121.345"/>
</g>
<!-- Node4 -->
<g id="node7" class="node"><title>Node4</title>
<a xlink:href="hfa-se-flow_8c.html#a49535197bf697f5b0b5f2952e1e5063c" target="_top" xlink:title="Free packet buffer and wqe to the corresponding fpa pools.">
<polygon fill="white" stroke="black" points="455.5,-212.5 455.5,-233.5 494.5,-233.5 494.5,-212.5 455.5,-212.5"/>
<text text-anchor="middle" x="475" y="-220.5" font-family="FreeSans" font-size="10.00">send</text>
</a>
</g>
<!-- Node3&#45;&gt;Node4 -->
<g id="edge6" class="edge"><title>Node3&#45;&gt;Node4</title>
<path fill="none" stroke="midnightblue" d="M319.789,-223C355.43,-223 411.051,-223 445.135,-223"/>
<polygon fill="midnightblue" stroke="midnightblue" points="445.392,-226.5 455.392,-223 445.392,-219.5 445.392,-226.5"/>
</g>
<!-- Node6 -->
<g id="node11" class="node"><title>Node6</title>
<a xlink:href="cvm-hfa_8c.html#a4753d2dd586e19676b1a59dd16baaeed" target="_top" xlink:title="Obtain status of submitted insruction.">
<polygon fill="white" stroke="black" points="408.5,-172.5 408.5,-193.5 541.5,-193.5 541.5,-172.5 408.5,-172.5"/>
<text text-anchor="middle" x="475" y="-180.5" font-family="FreeSans" font-size="10.00">hfa_dev_getasyncstatus</text>
</a>
</g>
<!-- Node5&#45;&gt;Node6 -->
<g id="edge10" class="edge"><title>Node5&#45;&gt;Node6</title>
<path fill="none" stroke="midnightblue" d="M372.204,-183C380.951,-183 389.793,-183 398.428,-183"/>
<polygon fill="midnightblue" stroke="midnightblue" points="398.452,-186.5 408.452,-183 398.452,-179.5 398.452,-186.5"/>
</g>
<!-- Node7 -->
<g id="node13" class="node"><title>Node7</title>
<a xlink:href="cvm-hfa-instr_8h.html#a56f2522dcba965745a1bc239fc432dca" target="_top" xlink:title="Gets done from RWORD0.">
<polygon fill="white" stroke="black" points="582.5,-212.5 582.5,-233.5 705.5,-233.5 705.5,-212.5 582.5,-212.5"/>
<text text-anchor="middle" x="644" y="-220.5" font-family="FreeSans" font-size="10.00">cvm_hfa_rslt_getdone</text>
</a>
</g>
<!-- Node6&#45;&gt;Node7 -->
<g id="edge12" class="edge"><title>Node6&#45;&gt;Node7</title>
<path fill="none" stroke="midnightblue" d="M519.403,-193.51C540.956,-198.611 567.04,-204.785 589.76,-210.162"/>
<polygon fill="midnightblue" stroke="midnightblue" points="589.063,-213.594 599.601,-212.491 590.676,-206.782 589.063,-213.594"/>
</g>
<!-- Node8 -->
<g id="node15" class="node"><title>Node8</title>
<a xlink:href="cvm-hfa-instr_8h.html#a9700a50b68b6616506528eb725a8bda1" target="_top" xlink:title="Gets reason from RWORD0.">
<polygon fill="white" stroke="black" points="578.5,-172.5 578.5,-193.5 709.5,-193.5 709.5,-172.5 578.5,-172.5"/>
<text text-anchor="middle" x="644" y="-180.5" font-family="FreeSans" font-size="10.00">cvm_hfa_rslt_getreason</text>
</a>
</g>
<!-- Node6&#45;&gt;Node8 -->
<g id="edge14" class="edge"><title>Node6&#45;&gt;Node8</title>
<path fill="none" stroke="midnightblue" d="M541.793,-183C550.414,-183 559.292,-183 568.047,-183"/>
<polygon fill="midnightblue" stroke="midnightblue" points="568.244,-186.5 578.244,-183 568.244,-179.5 568.244,-186.5"/>
</g>
<!-- Node10 -->
<g id="node19" class="node"><title>Node10</title>
<a xlink:href="cvm-hfa-pp_8c.html#add6064138ec2e35741929056a0992d8d" target="_top" xlink:title="ppgetstats">
<polygon fill="white" stroke="black" points="442,-132.5 442,-153.5 508,-153.5 508,-132.5 442,-132.5"/>
<text text-anchor="middle" x="475" y="-140.5" font-family="FreeSans" font-size="10.00">ppgetstats</text>
</a>
</g>
<!-- Node9&#45;&gt;Node10 -->
<g id="edge18" class="edge"><title>Node9&#45;&gt;Node10</title>
<path fill="none" stroke="midnightblue" d="M335.658,-113.51C365.464,-119.818 403.019,-127.766 431.629,-133.821"/>
<polygon fill="midnightblue" stroke="midnightblue" points="431.226,-137.313 441.734,-135.96 432.675,-130.465 431.226,-137.313"/>
</g>
<!-- Node12 -->
<g id="node23" class="node"><title>Node12</title>
<a xlink:href="cvm-hfa-pp_8c.html#a57ec655c9bdb6ce63ada6767c7e14763" target="_top" xlink:title="ppcleanstats">
<polygon fill="white" stroke="black" points="436.5,-92.5 436.5,-113.5 513.5,-113.5 513.5,-92.5 436.5,-92.5"/>
<text text-anchor="middle" x="475" y="-100.5" font-family="FreeSans" font-size="10.00">ppcleanstats</text>
</a>
</g>
<!-- Node9&#45;&gt;Node12 -->
<g id="edge22" class="edge"><title>Node9&#45;&gt;Node12</title>
<path fill="none" stroke="midnightblue" d="M362.057,-103C383.707,-103 406.7,-103 426.251,-103"/>
<polygon fill="midnightblue" stroke="midnightblue" points="426.43,-106.5 436.43,-103 426.43,-99.5001 426.43,-106.5"/>
</g>
<!-- Node14 -->
<g id="node27" class="node"><title>Node14</title>
<a xlink:href="cvm-hfa-pp_8c.html#a41ce9d3103c639e474783d3843e09071" target="_top" xlink:title="ppcleanup">
<polygon fill="white" stroke="black" points="442,-52.5 442,-73.5 508,-73.5 508,-52.5 442,-52.5"/>
<text text-anchor="middle" x="475" y="-60.5" font-family="FreeSans" font-size="10.00">ppcleanup</text>
</a>
</g>
<!-- Node9&#45;&gt;Node14 -->
<g id="edge26" class="edge"><title>Node9&#45;&gt;Node14</title>
<path fill="none" stroke="midnightblue" d="M335.658,-92.4905C365.464,-86.1822 403.019,-78.234 431.629,-72.179"/>
<polygon fill="midnightblue" stroke="midnightblue" points="432.675,-75.5352 441.734,-70.0405 431.226,-68.6869 432.675,-75.5352"/>
</g>
<!-- Node16 -->
<g id="node31" class="node"><title>Node16</title>
<a xlink:href="cvm-hfa-stats_8c.html#a2df4c76e04e7b028ed2df4bba1b2de3d" target="_top" xlink:title="This routine is the counterpart of hfa_searchctx_init_stats().">
<polygon fill="white" stroke="black" points="418.5,-0 418.5,-34 531.5,-34 531.5,-0 418.5,-0"/>
<text text-anchor="start" x="426.5" y="-21" font-family="FreeSans" font-size="10.00">hfa_searchctx_stats</text>
<text text-anchor="middle" x="475" y="-8" font-family="FreeSans" font-size="10.00">_cleanup</text>
</a>
</g>
<!-- Node9&#45;&gt;Node16 -->
<g id="edge30" class="edge"><title>Node9&#45;&gt;Node16</title>
<path fill="none" stroke="midnightblue" d="M306.038,-92.4762C330.005,-80.0457 371.474,-59.0328 408,-43 411.856,-41.3075 415.86,-39.6093 419.905,-37.9365"/>
<polygon fill="midnightblue" stroke="midnightblue" points="421.422,-41.0982 429.371,-34.0935 418.789,-34.6123 421.422,-41.0982"/>
</g>
<!-- Node11 -->
<g id="node21" class="node"><title>Node11</title>
<a xlink:href="pp_8h.html#a808d5057ee5670ce724a6a88fc22b799" target="_top" xlink:title="pphfa_getstats">
<polygon fill="white" stroke="black" points="600.5,-132.5 600.5,-153.5 687.5,-153.5 687.5,-132.5 600.5,-132.5"/>
<text text-anchor="middle" x="644" y="-140.5" font-family="FreeSans" font-size="10.00">pphfa_getstats</text>
</a>
</g>
<!-- Node10&#45;&gt;Node11 -->
<g id="edge20" class="edge"><title>Node10&#45;&gt;Node11</title>
<path fill="none" stroke="midnightblue" d="M508.389,-143C531.761,-143 563.488,-143 590.378,-143"/>
<polygon fill="midnightblue" stroke="midnightblue" points="590.42,-146.5 600.42,-143 590.42,-139.5 590.42,-146.5"/>
</g>
<!-- Node13 -->
<g id="node25" class="node"><title>Node13</title>
<a xlink:href="pp_8h.html#a978b171bd7a736cb7fa0d5d034aa94e2" target="_top" xlink:title="pphfa_cleanstats">
<polygon fill="white" stroke="black" points="595,-92.5 595,-113.5 693,-113.5 693,-92.5 595,-92.5"/>
<text text-anchor="middle" x="644" y="-100.5" font-family="FreeSans" font-size="10.00">pphfa_cleanstats</text>
</a>
</g>
<!-- Node12&#45;&gt;Node13 -->
<g id="edge24" class="edge"><title>Node12&#45;&gt;Node13</title>
<path fill="none" stroke="midnightblue" d="M513.772,-103C534.739,-103 561.082,-103 584.58,-103"/>
<polygon fill="midnightblue" stroke="midnightblue" points="584.798,-106.5 594.798,-103 584.798,-99.5001 584.798,-106.5"/>
</g>
<!-- Node15 -->
<g id="node29" class="node"><title>Node15</title>
<a xlink:href="pp_8h.html#a428ad073d1fd72da37ab8b00f13693a3" target="_top" xlink:title="pphfa_cleanup">
<polygon fill="white" stroke="black" points="600.5,-52.5 600.5,-73.5 687.5,-73.5 687.5,-52.5 600.5,-52.5"/>
<text text-anchor="middle" x="644" y="-60.5" font-family="FreeSans" font-size="10.00">pphfa_cleanup</text>
</a>
</g>
<!-- Node14&#45;&gt;Node15 -->
<g id="edge28" class="edge"><title>Node14&#45;&gt;Node15</title>
<path fill="none" stroke="midnightblue" d="M508.389,-63C531.761,-63 563.488,-63 590.378,-63"/>
<polygon fill="midnightblue" stroke="midnightblue" points="590.42,-66.5001 600.42,-63 590.42,-59.5001 590.42,-66.5001"/>
</g>
<!-- Node17 -->
<g id="node33" class="node"><title>Node17</title>
<a xlink:href="cvm-hfa-stats_8c.html#a7a2acbe48c3850d43256938ee996aa16" target="_top" xlink:title="This routine frees memory to STATS ARENA.">
<polygon fill="white" stroke="black" points="581.5,-6.5 581.5,-27.5 706.5,-27.5 706.5,-6.5 581.5,-6.5"/>
<text text-anchor="middle" x="644" y="-14.5" font-family="FreeSans" font-size="10.00">hfa_stats_memoryfree</text>
</a>
</g>
<!-- Node16&#45;&gt;Node17 -->
<g id="edge32" class="edge"><title>Node16&#45;&gt;Node17</title>
<path fill="none" stroke="midnightblue" d="M531.745,-17C544.429,-17 558.053,-17 571.283,-17"/>
<polygon fill="midnightblue" stroke="midnightblue" points="571.301,-20.5001 581.301,-17 571.301,-13.5001 571.301,-20.5001"/>
</g>
</g>
</svg>
