<?xml version="1.0" encoding="UTF-8" standalone="no"?>
<!DOCTYPE svg PUBLIC "-//W3C//DTD SVG 1.1//EN"
 "http://www.w3.org/Graphics/SVG/1.1/DTD/svg11.dtd">
<!-- Generated by graphviz version 2.24.0 (20090616.2323)
 -->
<!-- Title: snode_cleanup Pages: 1 -->
<svg width="310pt" height="50pt"
 viewBox="0.00 0.00 310.00 50.00" xmlns="http://www.w3.org/2000/svg" xmlns:xlink="http://www.w3.org/1999/xlink">
<g id="graph1" class="graph" transform="scale(1 1) rotate(0) translate(4 46)">
<title>snode_cleanup</title>
<polygon fill="white" stroke="white" points="-4,5 -4,-46 307,-46 307,5 -4,5"/>
<!-- Node1 -->
<g id="node1" class="node"><title>Node1</title>
<polygon fill="#bfbfbf" stroke="black" points="0.5,-0.5 0.5,-21.5 89.5,-21.5 89.5,-0.5 0.5,-0.5"/>
<text text-anchor="middle" x="45" y="-8.5" font-family="FreeSans" font-size="10.00">snode_cleanup</text>
</g>
<!-- Node2 -->
<g id="node3" class="node"><title>Node2</title>
<a xlink:href="hfa-se-nctx_8c.html#a2c813b2ff20c5bf67f487908476604d6" target="_top" xlink:title="Initialize search context object for nctxts and a global list to track nctxts.">
<polygon fill="white" stroke="black" points="126.5,-20.5 126.5,-41.5 225.5,-41.5 225.5,-20.5 126.5,-20.5"/>
<text text-anchor="middle" x="176" y="-28.5" font-family="FreeSans" font-size="10.00">initialize_ctx_glist</text>
</a>
</g>
<!-- Node1&#45;&gt;Node2 -->
<g id="edge2" class="edge"><title>Node1&#45;&gt;Node2</title>
<path fill="none" stroke="midnightblue" d="M99.7938,-19.3655C108.513,-20.6966 117.492,-22.0675 126.091,-23.3802"/>
<polygon fill="midnightblue" stroke="midnightblue" points="100.13,-15.8763 89.7164,-17.8269 99.0736,-22.7962 100.13,-15.8763"/>
</g>
<!-- Node3 -->
<g id="node5" class="node"><title>Node3</title>
<a xlink:href="hfa-se-nctx_8c.html#a3c04138a5bfe5d72780bb7e82a18e627" target="_top" xlink:title="main">
<polygon fill="white" stroke="black" points="262,-0.5 262,-21.5 302,-21.5 302,-0.5 262,-0.5"/>
<text text-anchor="middle" x="282" y="-8.5" font-family="FreeSans" font-size="10.00">main</text>
</a>
</g>
<!-- Node1&#45;&gt;Node3 -->
<g id="edge6" class="edge"><title>Node1&#45;&gt;Node3</title>
<path fill="none" stroke="midnightblue" d="M99.604,-11C151.375,-11 226.359,-11 261.885,-11"/>
<polygon fill="midnightblue" stroke="midnightblue" points="99.5779,-7.5001 89.5779,-11 99.5779,-14.5001 99.5779,-7.5001"/>
</g>
<!-- Node2&#45;&gt;Node3 -->
<g id="edge4" class="edge"><title>Node2&#45;&gt;Node3</title>
<path fill="none" stroke="midnightblue" d="M235.506,-19.7724C244.977,-17.9854 254.167,-16.2515 261.841,-14.8036"/>
<polygon fill="midnightblue" stroke="midnightblue" points="234.764,-16.3507 225.586,-21.6441 236.062,-23.2293 234.764,-16.3507"/>
</g>
</g>
</svg>
