<?xml version="1.0" encoding="UTF-8" standalone="no"?>
<!DOCTYPE svg PUBLIC "-//W3C//DTD SVG 1.1//EN"
 "http://www.w3.org/Graphics/SVG/1.1/DTD/svg11.dtd">
<!-- Generated by graphviz version 2.24.0 (20090616.2323)
 -->
<!-- Title: poll Pages: 1 -->
<svg width="352pt" height="110pt"
 viewBox="0.00 0.00 352.00 110.00" xmlns="http://www.w3.org/2000/svg" xmlns:xlink="http://www.w3.org/1999/xlink">
<g id="graph1" class="graph" transform="scale(1 1) rotate(0) translate(4 106)">
<title>poll</title>
<polygon fill="white" stroke="white" points="-4,5 -4,-106 349,-106 349,5 -4,5"/>
<!-- Node1 -->
<g id="node1" class="node"><title>Node1</title>
<polygon fill="#bfbfbf" stroke="black" points="0.5,-20.5 0.5,-41.5 33.5,-41.5 33.5,-20.5 0.5,-20.5"/>
<text text-anchor="middle" x="17" y="-28.5" font-family="FreeSans" font-size="10.00">poll</text>
</g>
<!-- Node2 -->
<g id="node3" class="node"><title>Node2</title>
<a xlink:href="hfa-se-ctx_8c.html#aaf2d1bda55a80b5467e3ef350c514243" target="_top" xlink:title="Process search on recieved packet wqe.">
<polygon fill="white" stroke="black" points="70,-1.5 70,-22.5 150,-22.5 150,-1.5 70,-1.5"/>
<text text-anchor="middle" x="110" y="-9.5" font-family="FreeSans" font-size="10.00">process_wqe</text>
</a>
</g>
<!-- Node1&#45;&gt;Node2 -->
<g id="edge2" class="edge"><title>Node1&#45;&gt;Node2</title>
<path fill="none" stroke="midnightblue" d="M43.6943,-25.5463C51.8787,-23.8742 61.0698,-21.9965 69.9418,-20.1839"/>
<polygon fill="midnightblue" stroke="midnightblue" points="42.7235,-22.1723 33.6265,-27.6032 44.1248,-29.0306 42.7235,-22.1723"/>
</g>
<!-- Node3 -->
<g id="node5" class="node"><title>Node3</title>
<a xlink:href="hfa-se-ctx_8c.html#ac6740f043d197065a62fbd0570b4f735" target="_top" xlink:title="Do asynchrounous get work operation then pre&#45;fetch recieved wqe and process search on recieved packet...">
<polygon fill="white" stroke="black" points="189,-40.5 189,-61.5 263,-61.5 263,-40.5 189,-40.5"/>
<text text-anchor="middle" x="226" y="-48.5" font-family="FreeSans" font-size="10.00">process_pkt</text>
</a>
</g>
<!-- Node1&#45;&gt;Node3 -->
<g id="edge14" class="edge"><title>Node1&#45;&gt;Node3</title>
<path fill="none" stroke="midnightblue" d="M43.7283,-33.5577C80.5247,-37.0789 146.956,-43.436 188.649,-47.4258"/>
<polygon fill="midnightblue" stroke="midnightblue" points="44.038,-30.0715 33.7501,-32.6029 43.3711,-37.0396 44.038,-30.0715"/>
</g>
<!-- Node2&#45;&gt;Node3 -->
<g id="edge4" class="edge"><title>Node2&#45;&gt;Node3</title>
<path fill="none" stroke="midnightblue" d="M151.015,-25.7894C165.335,-30.6039 181.17,-35.9277 194.584,-40.4376"/>
<polygon fill="midnightblue" stroke="midnightblue" points="151.985,-22.4233 141.391,-22.554 149.755,-29.0583 151.985,-22.4233"/>
</g>
<!-- Node6 -->
<g id="node11" class="node"><title>Node6</title>
<a xlink:href="hfa-se-wqe-lock_8c.html#a06b5fcfab0e1d5eb36b633ec080ad7f9" target="_top" xlink:title="Process search for given contexts.">
<polygon fill="white" stroke="black" points="186,-0.5 186,-21.5 266,-21.5 266,-0.5 186,-0.5"/>
<text text-anchor="middle" x="226" y="-8.5" font-family="FreeSans" font-size="10.00">process_nctx</text>
</a>
</g>
<!-- Node2&#45;&gt;Node6 -->
<g id="edge10" class="edge"><title>Node2&#45;&gt;Node6</title>
<path fill="none" stroke="midnightblue" d="M160.442,-11.5652C168.931,-11.492 177.641,-11.4169 185.826,-11.3463"/>
<polygon fill="midnightblue" stroke="midnightblue" points="160.215,-8.06688 150.246,-11.6531 160.275,-15.0666 160.215,-8.06688"/>
</g>
<!-- Node4 -->
<g id="node7" class="node"><title>Node4</title>
<a xlink:href="hfa-lnx-ctx_8c.html#a78ffddbcd7cdd164889cfb53ea367886" target="_top" xlink:title="entry">
<polygon fill="white" stroke="black" points="302.5,-80.5 302.5,-101.5 343.5,-101.5 343.5,-80.5 302.5,-80.5"/>
<text text-anchor="middle" x="323" y="-88.5" font-family="FreeSans" font-size="10.00">entry</text>
</a>
</g>
<!-- Node3&#45;&gt;Node4 -->
<g id="edge6" class="edge"><title>Node3&#45;&gt;Node4</title>
<path fill="none" stroke="midnightblue" d="M260.776,-65.3406C274.663,-71.0674 290.187,-77.4687 302.254,-82.4451"/>
<polygon fill="midnightblue" stroke="midnightblue" points="262.065,-62.0862 251.486,-61.5095 259.396,-68.5576 262.065,-62.0862"/>
</g>
<!-- Node5 -->
<g id="node9" class="node"><title>Node5</title>
<a xlink:href="hfa-se-ctx_8c.html#a3c04138a5bfe5d72780bb7e82a18e627" target="_top" xlink:title="main">
<polygon fill="white" stroke="black" points="303,-40.5 303,-61.5 343,-61.5 343,-40.5 303,-40.5"/>
<text text-anchor="middle" x="323" y="-48.5" font-family="FreeSans" font-size="10.00">main</text>
</a>
</g>
<!-- Node3&#45;&gt;Node5 -->
<g id="edge8" class="edge"><title>Node3&#45;&gt;Node5</title>
<path fill="none" stroke="midnightblue" d="M273.483,-51C283.832,-51 294.242,-51 302.828,-51"/>
<polygon fill="midnightblue" stroke="midnightblue" points="273.225,-47.5001 263.225,-51 273.225,-54.5001 273.225,-47.5001"/>
</g>
<!-- Node7 -->
<g id="node13" class="node"><title>Node7</title>
<a xlink:href="hfa-se-wqe-lock_8c.html#a3c04138a5bfe5d72780bb7e82a18e627" target="_top" xlink:title="main">
<polygon fill="white" stroke="black" points="303,-0.5 303,-21.5 343,-21.5 343,-0.5 303,-0.5"/>
<text text-anchor="middle" x="323" y="-8.5" font-family="FreeSans" font-size="10.00">main</text>
</a>
</g>
<!-- Node6&#45;&gt;Node7 -->
<g id="edge12" class="edge"><title>Node6&#45;&gt;Node7</title>
<path fill="none" stroke="midnightblue" d="M276.263,-11C285.739,-11 295.125,-11 302.971,-11"/>
<polygon fill="midnightblue" stroke="midnightblue" points="276.014,-7.5001 266.014,-11 276.014,-14.5001 276.014,-7.5001"/>
</g>
</g>
</svg>
