<?xml version="1.0" encoding="UTF-8" standalone="no"?>
<!DOCTYPE svg PUBLIC "-//W3C//DTD SVG 1.1//EN"
 "http://www.w3.org/Graphics/SVG/1.1/DTD/svg11.dtd">
<!-- Generated by graphviz version 2.24.0 (20090616.2323)
 -->
<!-- Title: process_search Pages: 1 -->
<svg width="306pt" height="70pt"
 viewBox="0.00 0.00 306.00 70.00" xmlns="http://www.w3.org/2000/svg" xmlns:xlink="http://www.w3.org/1999/xlink">
<g id="graph1" class="graph" transform="scale(1 1) rotate(0) translate(4 66)">
<title>process_search</title>
<polygon fill="white" stroke="white" points="-4,5 -4,-66 303,-66 303,5 -4,5"/>
<!-- Node1 -->
<g id="node1" class="node"><title>Node1</title>
<polygon fill="#bfbfbf" stroke="black" points="0,-20.5 0,-41.5 92,-41.5 92,-20.5 0,-20.5"/>
<text text-anchor="middle" x="46" y="-28.5" font-family="FreeSans" font-size="10.00">process_search</text>
</g>
<!-- Node2 -->
<g id="node3" class="node"><title>Node2</title>
<a xlink:href="hfa-lnx-async_8c.html#a1e97b1d598034fdc92d57054a6c386e6" target="_top" xlink:title="tasklet_callback">
<polygon fill="white" stroke="black" points="128,-40.5 128,-61.5 220,-61.5 220,-40.5 128,-40.5"/>
<text text-anchor="middle" x="174" y="-48.5" font-family="FreeSans" font-size="10.00">tasklet_callback</text>
</a>
</g>
<!-- Node1&#45;&gt;Node2 -->
<g id="edge2" class="edge"><title>Node1&#45;&gt;Node2</title>
<path fill="none" stroke="midnightblue" d="M102.162,-39.7754C110.746,-41.1166 119.521,-42.4877 127.857,-43.7901"/>
<polygon fill="midnightblue" stroke="midnightblue" points="102.631,-36.3063 92.2109,-38.2205 101.551,-43.2224 102.631,-36.3063"/>
</g>
<!-- Node4 -->
<g id="node7" class="node"><title>Node4</title>
<a xlink:href="hfa-lnx-async_8c.html#a7dea7d59754828b1173c4c7ec5d42f3e" target="_top" xlink:title="thread_callback">
<polygon fill="white" stroke="black" points="128,-0.5 128,-21.5 220,-21.5 220,-0.5 128,-0.5"/>
<text text-anchor="middle" x="174" y="-8.5" font-family="FreeSans" font-size="10.00">thread_callback</text>
</a>
</g>
<!-- Node1&#45;&gt;Node4 -->
<g id="edge6" class="edge"><title>Node1&#45;&gt;Node4</title>
<path fill="none" stroke="midnightblue" d="M102.162,-22.2246C110.746,-20.8834 119.521,-19.5123 127.857,-18.2099"/>
<polygon fill="midnightblue" stroke="midnightblue" points="101.551,-18.7776 92.2109,-23.7795 102.631,-25.6937 101.551,-18.7776"/>
</g>
<!-- Node3 -->
<g id="node5" class="node"><title>Node3</title>
<a xlink:href="hfa-lnx-async_8c.html#a78ffddbcd7cdd164889cfb53ea367886" target="_top" xlink:title="entry">
<polygon fill="white" stroke="black" points="256.5,-20.5 256.5,-41.5 297.5,-41.5 297.5,-20.5 256.5,-20.5"/>
<text text-anchor="middle" x="277" y="-28.5" font-family="FreeSans" font-size="10.00">entry</text>
</a>
</g>
<!-- Node2&#45;&gt;Node3 -->
<g id="edge4" class="edge"><title>Node2&#45;&gt;Node3</title>
<path fill="none" stroke="midnightblue" d="M229.972,-40.1316C239.449,-38.2915 248.722,-36.491 256.495,-34.9816"/>
<polygon fill="midnightblue" stroke="midnightblue" points="229.227,-36.7109 220.077,-42.0529 230.561,-43.5826 229.227,-36.7109"/>
</g>
<!-- Node4&#45;&gt;Node3 -->
<g id="edge8" class="edge"><title>Node4&#45;&gt;Node3</title>
<path fill="none" stroke="midnightblue" d="M229.972,-21.8684C239.449,-23.7085 248.722,-25.509 256.495,-27.0184"/>
<polygon fill="midnightblue" stroke="midnightblue" points="230.561,-18.4174 220.077,-19.9471 229.227,-25.2891 230.561,-18.4174"/>
</g>
</g>
</svg>
