<?xml version="1.0" encoding="UTF-8" standalone="no"?>
<!DOCTYPE svg PUBLIC "-//W3C//DTD SVG 1.1//EN"
 "http://www.w3.org/Graphics/SVG/1.1/DTD/svg11.dtd">
<!-- Generated by graphviz version 2.24.0 (20090616.2323)
 -->
<!-- Title: submit_wqe Pages: 1 -->
<svg width="242pt" height="146pt"
 viewBox="0.00 0.00 242.00 146.00" xmlns="http://www.w3.org/2000/svg" xmlns:xlink="http://www.w3.org/1999/xlink">
<g id="graph1" class="graph" transform="scale(1 1) rotate(0) translate(4 142)">
<title>submit_wqe</title>
<polygon fill="white" stroke="white" points="-4,5 -4,-142 239,-142 239,5 -4,5"/>
<!-- Node1 -->
<g id="node1" class="node"><title>Node1</title>
<polygon fill="#bfbfbf" stroke="black" points="0,-58.5 0,-79.5 74,-79.5 74,-58.5 0,-58.5"/>
<text text-anchor="middle" x="37" y="-66.5" font-family="FreeSans" font-size="10.00">submit_wqe</text>
</g>
<!-- Node2 -->
<g id="node3" class="node"><title>Node2</title>
<a xlink:href="cvm-hfa-search_8h.html#a3c407460808f038770473ffc6e4b5c38" target="_top" xlink:title="This routine adds a new input IO vector to Search Param.">
<polygon fill="white" stroke="black" points="111.5,-104 111.5,-138 232.5,-138 232.5,-104 111.5,-104"/>
<text text-anchor="start" x="119.5" y="-125" font-family="FreeSans" font-size="10.00">hfa_searchparam_set</text>
<text text-anchor="middle" x="172" y="-112" font-family="FreeSans" font-size="10.00">_inputiovec</text>
</a>
</g>
<!-- Node1&#45;&gt;Node2 -->
<g id="edge2" class="edge"><title>Node1&#45;&gt;Node2</title>
<path fill="none" stroke="midnightblue" d="M64.3193,-79.523C79.803,-85.4871 99.7219,-93.1595 118.208,-100.28"/>
<polygon fill="midnightblue" stroke="midnightblue" points="117.124,-103.613 127.714,-103.942 119.641,-97.0812 117.124,-103.613"/>
</g>
<!-- Node3 -->
<g id="node5" class="node"><title>Node3</title>
<a xlink:href="cvm-hfa-search_8h.html#a12882fa53f8ec49b9b2950711161db42" target="_top" xlink:title="This routine sets the output buffer in the sparam.">
<polygon fill="white" stroke="black" points="111.5,-52 111.5,-86 232.5,-86 232.5,-52 111.5,-52"/>
<text text-anchor="start" x="119.5" y="-73" font-family="FreeSans" font-size="10.00">hfa_searchparam_set</text>
<text text-anchor="middle" x="172" y="-60" font-family="FreeSans" font-size="10.00">_output</text>
</a>
</g>
<!-- Node1&#45;&gt;Node3 -->
<g id="edge4" class="edge"><title>Node1&#45;&gt;Node3</title>
<path fill="none" stroke="midnightblue" d="M74.2467,-69C82.6719,-69 91.89,-69 101.192,-69"/>
<polygon fill="midnightblue" stroke="midnightblue" points="101.285,-72.5001 111.285,-69 101.285,-65.5001 101.285,-72.5001"/>
</g>
<!-- Node4 -->
<g id="node7" class="node"><title>Node4</title>
<a xlink:href="cvm-hfa-search_8c.html#a0c36da280b39bd8afdf6081baea24472" target="_top" xlink:title="This routine performs a pattern search using the given parameters in a non&#45;blocking manner...">
<polygon fill="white" stroke="black" points="110.5,-0 110.5,-34 233.5,-34 233.5,-0 110.5,-0"/>
<text text-anchor="start" x="118.5" y="-21" font-family="FreeSans" font-size="10.00">hfa_searchctx_search</text>
<text text-anchor="middle" x="172" y="-8" font-family="FreeSans" font-size="10.00">_async</text>
</a>
</g>
<!-- Node1&#45;&gt;Node4 -->
<g id="edge6" class="edge"><title>Node1&#45;&gt;Node4</title>
<path fill="none" stroke="midnightblue" d="M64.3193,-58.477C79.803,-52.5129 99.7219,-44.8405 118.208,-37.7197"/>
<polygon fill="midnightblue" stroke="midnightblue" points="119.641,-40.9188 127.714,-34.0582 117.124,-34.3866 119.641,-40.9188"/>
</g>
</g>
</svg>
