<?xml version="1.0" encoding="UTF-8" standalone="no"?>
<!DOCTYPE svg PUBLIC "-//W3C//DTD SVG 1.1//EN"
 "http://www.w3.org/Graphics/SVG/1.1/DTD/svg11.dtd">
<!-- Generated by graphviz version 2.24.0 (20090616.2323)
 -->
<!-- Title: get_flowptr Pages: 1 -->
<!--zoomable 407 -->
<svg id="main" version="1.1" xmlns="http://www.w3.org/2000/svg" xmlns:xlink="http://www.w3.org/1999/xlink" xml:space="preserve" onload="init(evt)">
        <defs>
                <circle id="rim" cx="0" cy="0" r="7"/>
                <circle id="rim2" cx="0" cy="0" r="3.5"/>
                <g id="zoomPlus">
                        <use xlink:href="#rim" fill="#404040">
                                <set attributeName="fill" to="#808080" begin="zoomplus.mouseover" end="zoomplus.mouseout"/>
                        </use>
                        <path d="M-4,0h8M0,-4v8" fill="none" stroke="white" stroke-width="1.5" pointer-events="none"/>
                </g>
                <g id="zoomMin">
                        <use xlink:href="#rim" fill="#404040">
                                <set attributeName="fill" to="#808080" begin="zoomminus.mouseover" end="zoomminus.mouseout"/>
                        </use>
                        <path d="M-4,0h8" fill="none" stroke="white" stroke-width="1.5" pointer-events="none"/>
                </g>
                <g id="dirArrow">
                        <path fill="none" stroke="white" stroke-width="1.5" d="M0,-3.0v7 M-2.5,-0.5L0,-3.0L2.5,-0.5"/>
                </g>
               <g id="resetDef">
                       <use xlink:href="#rim2" fill="#404040">
                               <set attributeName="fill" to="#808080" begin="reset.mouseover" end="reset.mouseout"/>
                       </use>
               </g>
        </defs>

<script type="text/javascript">
var viewWidth = 1102;
var viewHeight = 407;
var sectionId = 'dynsection-4';
</script>
<script xlink:href="svgpan.js"/>
<svg id="graph" class="graph">
<g id="viewport">
<title>get_flowptr</title>
<polygon fill="white" stroke="white" points="-4,5 -4,-402.668 1099,-402.668 1099,5 -4,5"/>
<!-- Node1 -->
<g id="node1" class="node"><title>Node1</title>
<polygon fill="#bfbfbf" stroke="black" points="0.5,-259.168 0.5,-280.168 69.5,-280.168 69.5,-259.168 0.5,-259.168"/>
<text text-anchor="middle" x="35" y="-267.168" font-family="FreeSans" font-size="10.00">get_flowptr</text>
</g>
<!-- Node2 -->
<g id="node3" class="node"><title>Node2</title>
<a xlink:href="flow_8h.html#aa81c6978f07ac20238858896bacb5e7b" target="_top" xlink:title="Search particular flowid or flow in Flow database and return 1 if present or 0 otherwise.">
<polygon fill="white" stroke="black" points="114,-279.168 114,-300.168 210,-300.168 210,-279.168 114,-279.168"/>
<text text-anchor="middle" x="162" y="-287.168" font-family="FreeSans" font-size="10.00">hfaf_isflow_exist</text>
</a>
</g>
<!-- Node1&#45;&gt;Node2 -->
<g id="edge2" class="edge"><title>Node1&#45;&gt;Node2</title>
<path fill="none" stroke="midnightblue" d="M69.7033,-275.133C80.155,-276.779 91.9273,-278.633 103.478,-280.452"/>
<polygon fill="midnightblue" stroke="midnightblue" points="103.111,-283.937 113.534,-282.035 104.2,-277.022 103.111,-283.937"/>
</g>
<!-- Node4 -->
<g id="node7" class="node"><title>Node4</title>
<a xlink:href="flow_8c.html#afd4334cffa6be01afda5aa31eeecf6c4" target="_top" xlink:title="Create Packet Flow in Flowdb.">
<polygon fill="white" stroke="black" points="106.5,-239.168 106.5,-260.168 217.5,-260.168 217.5,-239.168 106.5,-239.168"/>
<text text-anchor="middle" x="162" y="-247.168" font-family="FreeSans" font-size="10.00">hfaf_create_pktflow</text>
</a>
</g>
<!-- Node1&#45;&gt;Node4 -->
<g id="edge6" class="edge"><title>Node1&#45;&gt;Node4</title>
<path fill="none" stroke="midnightblue" d="M69.7033,-264.203C78.0092,-262.895 87.1489,-261.455 96.349,-260.007"/>
<polygon fill="midnightblue" stroke="midnightblue" points="96.9853,-263.45 106.319,-258.436 95.8963,-256.535 96.9853,-263.45"/>
</g>
<!-- Node3 -->
<g id="node5" class="node"><title>Node3</title>
<a xlink:href="flow_8h.html#afe2603c8b1fe38bb2528f405a3e8c137" target="_top" xlink:title="Calculate Array index to which received flowid should be present or added.">
<polygon fill="white" stroke="black" points="263,-279.168 263,-300.168 359,-300.168 359,-279.168 263,-279.168"/>
<text text-anchor="middle" x="311" y="-287.168" font-family="FreeSans" font-size="10.00">hfaf_get_flowidx</text>
</a>
</g>
<!-- Node2&#45;&gt;Node3 -->
<g id="edge4" class="edge"><title>Node2&#45;&gt;Node3</title>
<path fill="none" stroke="midnightblue" d="M210.376,-289.668C223.915,-289.668 238.772,-289.668 252.815,-289.668"/>
<polygon fill="midnightblue" stroke="midnightblue" points="252.867,-293.168 262.867,-289.668 252.867,-286.168 252.867,-293.168"/>
</g>
<!-- Node4&#45;&gt;Node3 -->
<g id="edge8" class="edge"><title>Node4&#45;&gt;Node3</title>
<path fill="none" stroke="midnightblue" d="M201.148,-260.177C219.81,-265.187 242.324,-271.231 262.099,-276.54"/>
<polygon fill="midnightblue" stroke="midnightblue" points="261.29,-279.947 271.855,-279.159 263.105,-273.186 261.29,-279.947"/>
</g>
<!-- Node5 -->
<g id="node10" class="node"><title>Node5</title>
<a xlink:href="flow_8c.html#a28378e8a6f53ff0e87f2e688d1c21834" target="_top" xlink:title="Low level API to create a flow Allocate Flow, Intialize searchctx, set graph and setflags,.">
<polygon fill="white" stroke="black" points="257.5,-121.168 257.5,-142.168 364.5,-142.168 364.5,-121.168 257.5,-121.168"/>
<text text-anchor="middle" x="311" y="-129.168" font-family="FreeSans" font-size="10.00">__hfaf_create_flow</text>
</a>
</g>
<!-- Node4&#45;&gt;Node5 -->
<g id="edge10" class="edge"><title>Node4&#45;&gt;Node5</title>
<path fill="none" stroke="midnightblue" d="M175.486,-238.988C201.416,-218.453 258.413,-173.314 289.591,-148.623"/>
<polygon fill="midnightblue" stroke="midnightblue" points="291.986,-151.191 297.652,-142.238 287.64,-145.703 291.986,-151.191"/>
</g>
<!-- Node27 -->
<g id="node58" class="node"><title>Node27</title>
<a xlink:href="cvm-hfa-osapi_8h.html#ac5c56c7b06dac27ce7a8225802f3828f" target="_top" xlink:title="hfa_os_listaddtail">
<polygon fill="white" stroke="black" points="262,-199.168 262,-220.168 360,-220.168 360,-199.168 262,-199.168"/>
<text text-anchor="middle" x="311" y="-207.168" font-family="FreeSans" font-size="10.00">hfa_os_listaddtail</text>
</a>
</g>
<!-- Node4&#45;&gt;Node27 -->
<g id="edge62" class="edge"><title>Node4&#45;&gt;Node27</title>
<path fill="none" stroke="midnightblue" d="M201.148,-239.158C219.81,-234.148 242.324,-228.104 262.099,-222.796"/>
<polygon fill="midnightblue" stroke="midnightblue" points="263.105,-226.15 271.855,-220.176 261.29,-219.389 263.105,-226.15"/>
</g>
<!-- Node29 -->
<g id="node62" class="node"><title>Node29</title>
<a xlink:href="flow_8c.html#a696ee2b7ad7078c47242360be84d89bf" target="_top" xlink:title="Counterpart of __hfaf_create_flow.">
<polygon fill="white" stroke="black" points="254.5,-239.168 254.5,-260.168 367.5,-260.168 367.5,-239.168 254.5,-239.168"/>
<text text-anchor="middle" x="311" y="-247.168" font-family="FreeSans" font-size="10.00">__hfaf_destroy_flow</text>
</a>
</g>
<!-- Node4&#45;&gt;Node29 -->
<g id="edge66" class="edge"><title>Node4&#45;&gt;Node29</title>
<path fill="none" stroke="midnightblue" d="M217.906,-249.668C226.453,-249.668 235.348,-249.668 244.102,-249.668"/>
<polygon fill="midnightblue" stroke="midnightblue" points="244.284,-253.168 254.284,-249.668 244.284,-246.168 244.284,-253.168"/>
</g>
<!-- Node6 -->
<g id="node12" class="node"><title>Node6</title>
<a xlink:href="hfa-se-xml-parser_8c.html#a7a1a023f618d2721b68175551e1c6fe0" target="_top" xlink:title="matchcb">
<polygon fill="white" stroke="black" points="460.5,-41.1678 460.5,-62.1678 519.5,-62.1678 519.5,-41.1678 460.5,-41.1678"/>
<text text-anchor="middle" x="490" y="-49.1678" font-family="FreeSans" font-size="10.00">matchcb</text>
</a>
</g>
<!-- Node5&#45;&gt;Node6 -->
<g id="edge12" class="edge"><title>Node5&#45;&gt;Node6</title>
<path fill="none" stroke="midnightblue" d="M324.037,-121.158C341.315,-107.741 373.216,-84.7098 404,-71.6678 418.564,-65.4974 435.36,-61.0519 450.222,-57.9433"/>
<polygon fill="midnightblue" stroke="midnightblue" points="451.01,-61.3556 460.151,-55.9999 449.665,-54.486 451.01,-61.3556"/>
</g>
<!-- Node7 -->
<g id="node14" class="node"><title>Node7</title>
<a xlink:href="cvm-hfa-search_8c.html#a64ba7a41c7d677da10e588a58789015b" target="_top" xlink:title="This routine initializes a Search Context.">
<polygon fill="white" stroke="black" points="426.5,-1.16776 426.5,-22.1678 553.5,-22.1678 553.5,-1.16776 426.5,-1.16776"/>
<text text-anchor="middle" x="490" y="-9.16776" font-family="FreeSans" font-size="10.00">hfa_dev_searchctx_init</text>
</a>
</g>
<!-- Node5&#45;&gt;Node7 -->
<g id="edge14" class="edge"><title>Node5&#45;&gt;Node7</title>
<path fill="none" stroke="midnightblue" d="M317.719,-120.969C331.315,-100.264 364.201,-54.7238 404,-31.6678 408.095,-29.2953 412.454,-27.2042 416.952,-25.3611"/>
<polygon fill="midnightblue" stroke="midnightblue" points="418.161,-28.6459 426.343,-21.9155 415.749,-22.0743 418.161,-28.6459"/>
</g>
<!-- Node11 -->
<g id="node22" class="node"><title>Node11</title>
<a xlink:href="cvm-hfa-search_8c.html#a954753c0e6f4a59599d05f1262a25b38" target="_top" xlink:title="This routine associates a graph with sctx.">
<polygon fill="white" stroke="black" points="424,-277.168 424,-298.168 556,-298.168 556,-277.168 424,-277.168"/>
<text text-anchor="middle" x="490" y="-285.168" font-family="FreeSans" font-size="10.00">hfa_searchctx_setgraph</text>
</a>
</g>
<!-- Node5&#45;&gt;Node11 -->
<g id="edge22" class="edge"><title>Node5&#45;&gt;Node11</title>
<path fill="none" stroke="midnightblue" d="M321.647,-142.221C333.206,-153.742 352.137,-172.802 368,-189.668 384.386,-207.09 385.95,-213.975 404,-229.668 422.401,-245.666 445.395,-260.966 462.976,-271.831"/>
<polygon fill="midnightblue" stroke="midnightblue" points="461.26,-274.884 471.623,-277.089 464.897,-268.903 461.26,-274.884"/>
</g>
<!-- Node15 -->
<g id="node31" class="node"><title>Node15</title>
<a xlink:href="hfa-se-wqe_8c.html#ab846ebf81c4fbc23cfe854940c82d8e8" target="_top" xlink:title="Cleanup memory allocated for context.">
<polygon fill="white" stroke="black" points="452.5,-121.168 452.5,-142.168 527.5,-142.168 527.5,-121.168 452.5,-121.168"/>
<text text-anchor="middle" x="490" y="-129.168" font-family="FreeSans" font-size="10.00">cleanup_ctx</text>
</a>
</g>
<!-- Node5&#45;&gt;Node15 -->
<g id="edge32" class="edge"><title>Node5&#45;&gt;Node15</title>
<path fill="none" stroke="midnightblue" d="M364.706,-131.668C389.285,-131.668 418.176,-131.668 442.018,-131.668"/>
<polygon fill="midnightblue" stroke="midnightblue" points="442.24,-135.168 452.24,-131.668 442.24,-128.168 442.24,-135.168"/>
</g>
<!-- Node16 -->
<g id="node33" class="node"><title>Node16</title>
<a xlink:href="cvm-hfa-search_8c.html#a30064f173d814bd3791b59d675c2f45f" target="_top" xlink:title="This routine cleans&#45;up a Search Context.">
<polygon fill="white" stroke="black" points="612,-160.168 612,-181.168 764,-181.168 764,-160.168 612,-160.168"/>
<text text-anchor="middle" x="688" y="-168.168" font-family="FreeSans" font-size="10.00">hfa_dev_searchctx_cleanup</text>
</a>
</g>
<!-- Node5&#45;&gt;Node16 -->
<g id="edge60" class="edge"><title>Node5&#45;&gt;Node16</title>
<path fill="none" stroke="midnightblue" d="M353.828,-142.238C369.521,-145.75 387.481,-149.351 404,-151.668 469.88,-160.906 545.007,-165.682 601.438,-168.134"/>
<polygon fill="midnightblue" stroke="midnightblue" points="601.614,-171.645 611.751,-168.566 601.906,-164.651 601.614,-171.645"/>
</g>
<!-- Node24 -->
<g id="node50" class="node"><title>Node24</title>
<a xlink:href="cvm-hfa-search_8c.html#a60c8025118f6a47f924733e47db8c77d" target="_top" xlink:title="This routine is used to specify settings used during the search and getmatches API.">
<polygon fill="white" stroke="black" points="426,-81.1678 426,-102.168 554,-102.168 554,-81.1678 426,-81.1678"/>
<text text-anchor="middle" x="490" y="-89.1678" font-family="FreeSans" font-size="10.00">hfa_searchctx_setflags</text>
</a>
</g>
<!-- Node5&#45;&gt;Node24 -->
<g id="edge52" class="edge"><title>Node5&#45;&gt;Node24</title>
<path fill="none" stroke="midnightblue" d="M358.03,-121.158C381.063,-116.011 408.982,-109.772 433.198,-104.361"/>
<polygon fill="midnightblue" stroke="midnightblue" points="433.978,-107.773 442.974,-102.176 432.451,-100.942 433.978,-107.773"/>
</g>
<!-- Node8 -->
<g id="node16" class="node"><title>Node8</title>
<a xlink:href="cvm-hfa-stats_8c.html#a1cff986555a79b0d5ccee49801cb0056" target="_top" xlink:title="This routine allocates the memory for counters to maintain the statistics of search context...">
<polygon fill="white" stroke="black" points="622.5,-1.16776 622.5,-22.1678 753.5,-22.1678 753.5,-1.16776 622.5,-1.16776"/>
<text text-anchor="middle" x="688" y="-9.16776" font-family="FreeSans" font-size="10.00">hfa_searchctx_stats_init</text>
</a>
</g>
<!-- Node7&#45;&gt;Node8 -->
<g id="edge16" class="edge"><title>Node7&#45;&gt;Node8</title>
<path fill="none" stroke="midnightblue" d="M553.738,-11.6678C572.329,-11.6678 592.828,-11.6678 612.091,-11.6678"/>
<polygon fill="midnightblue" stroke="midnightblue" points="612.34,-15.1679 622.34,-11.6678 612.34,-8.16786 612.34,-15.1679"/>
</g>
<!-- Node9 -->
<g id="node18" class="node"><title>Node9</title>
<a xlink:href="cvm-hfa-stats_8c.html#acbdfa65e476c04cd9b67b7c462eefe56" target="_top" xlink:title="This routine allocates required memory from STATS ARENA.">
<polygon fill="white" stroke="black" points="801.5,-13.1678 801.5,-34.1678 930.5,-34.1678 930.5,-13.1678 801.5,-13.1678"/>
<text text-anchor="middle" x="866" y="-21.1678" font-family="FreeSans" font-size="10.00">hfa_stats_memoryalloc</text>
</a>
</g>
<!-- Node8&#45;&gt;Node9 -->
<g id="edge18" class="edge"><title>Node8&#45;&gt;Node9</title>
<path fill="none" stroke="midnightblue" d="M753.522,-16.085C765.681,-16.9047 778.469,-17.7668 790.888,-18.604"/>
<polygon fill="midnightblue" stroke="midnightblue" points="790.997,-22.1193 801.21,-19.2999 791.468,-15.1351 790.997,-22.1193"/>
</g>
<!-- Node10 -->
<g id="node20" class="node"><title>Node10</title>
<a xlink:href="cvm-hfa-stats_8c.html#a7a2acbe48c3850d43256938ee996aa16" target="_top" xlink:title="This routine frees memory to STATS ARENA.">
<polygon fill="white" stroke="black" points="968.5,-14.1678 968.5,-35.1678 1093.5,-35.1678 1093.5,-14.1678 968.5,-14.1678"/>
<text text-anchor="middle" x="1031" y="-22.1678" font-family="FreeSans" font-size="10.00">hfa_stats_memoryfree</text>
</a>
</g>
<!-- Node8&#45;&gt;Node10 -->
<g id="edge20" class="edge"><title>Node8&#45;&gt;Node10</title>
<path fill="none" stroke="midnightblue" d="M753.678,-4.65043C802.893,-0.570838 871.827,2.64399 932,-3.66776 948.054,-5.35176 965.336,-8.53182 980.897,-11.9172"/>
<polygon fill="midnightblue" stroke="midnightblue" points="980.319,-15.3747 990.844,-14.1579 981.858,-8.5458 980.319,-15.3747"/>
</g>
<!-- Node12 -->
<g id="node24" class="node"><title>Node12</title>
<a xlink:href="cvm-hfa-pp_8c.html#a9ad01b0f0de0f65b99a53f6c64f147e2" target="_top" xlink:title="ppinit">
<polygon fill="white" stroke="black" points="845,-277.168 845,-298.168 887,-298.168 887,-277.168 845,-277.168"/>
<text text-anchor="middle" x="866" y="-285.168" font-family="FreeSans" font-size="10.00">ppinit</text>
</a>
</g>
<!-- Node11&#45;&gt;Node12 -->
<g id="edge24" class="edge"><title>Node11&#45;&gt;Node12</title>
<path fill="none" stroke="midnightblue" d="M542.614,-277.123C564.042,-273.331 589.11,-269.532 612,-267.668 679.333,-262.185 696.761,-261.138 764,-267.668 788.013,-270 814.764,-275.351 834.844,-279.932"/>
<polygon fill="midnightblue" stroke="midnightblue" points="834.152,-283.364 844.687,-282.237 835.749,-276.549 834.152,-283.364"/>
</g>
<!-- Node14 -->
<g id="node28" class="node"><title>Node14</title>
<a xlink:href="cvm-hfa-search_8c.html#a3200f5303f0611887f35dd500e7a8d00" target="_top" xlink:title="This is a utility routine which associates an application&#45;specifc cookie in the sctx.">
<polygon fill="white" stroke="black" points="619,-277.168 619,-298.168 757,-298.168 757,-277.168 619,-277.168"/>
<text text-anchor="middle" x="688" y="-285.168" font-family="FreeSans" font-size="10.00">hfa_searchctx_setppuarg</text>
</a>
</g>
<!-- Node11&#45;&gt;Node14 -->
<g id="edge28" class="edge"><title>Node11&#45;&gt;Node14</title>
<path fill="none" stroke="midnightblue" d="M556.206,-287.668C573.028,-287.668 591.275,-287.668 608.676,-287.668"/>
<polygon fill="midnightblue" stroke="midnightblue" points="608.806,-291.168 618.806,-287.668 608.806,-284.168 608.806,-291.168"/>
</g>
<!-- Node13 -->
<g id="node26" class="node"><title>Node13</title>
<a xlink:href="pp_8h.html#adc8d105abb8f12812385bb87d15e6e32" target="_top" xlink:title="pphfa_init">
<polygon fill="white" stroke="black" points="999.5,-277.168 999.5,-298.168 1062.5,-298.168 1062.5,-277.168 999.5,-277.168"/>
<text text-anchor="middle" x="1031" y="-285.168" font-family="FreeSans" font-size="10.00">pphfa_init</text>
</a>
</g>
<!-- Node12&#45;&gt;Node13 -->
<g id="edge26" class="edge"><title>Node12&#45;&gt;Node13</title>
<path fill="none" stroke="midnightblue" d="M887.233,-287.668C912.915,-287.668 956.744,-287.668 989.275,-287.668"/>
<polygon fill="midnightblue" stroke="midnightblue" points="989.402,-291.168 999.402,-287.668 989.402,-284.168 989.402,-291.168"/>
</g>
<!-- Node14&#45;&gt;Node12 -->
<g id="edge30" class="edge"><title>Node14&#45;&gt;Node12</title>
<path fill="none" stroke="midnightblue" d="M757.074,-287.668C783.826,-287.668 813.11,-287.668 834.57,-287.668"/>
<polygon fill="midnightblue" stroke="midnightblue" points="834.728,-291.168 844.728,-287.668 834.728,-284.168 834.728,-291.168"/>
</g>
<!-- Node15&#45;&gt;Node16 -->
<g id="edge34" class="edge"><title>Node15&#45;&gt;Node16</title>
<path fill="none" stroke="midnightblue" d="M527.708,-139.095C554.943,-144.46 592.381,-151.834 624.227,-158.106"/>
<polygon fill="midnightblue" stroke="midnightblue" points="623.862,-161.602 634.35,-160.1 625.215,-154.734 623.862,-161.602"/>
</g>
<!-- Node17 -->
<g id="node35" class="node"><title>Node17</title>
<a xlink:href="cvm-hfa-pp_8c.html#add6064138ec2e35741929056a0992d8d" target="_top" xlink:title="ppgetstats">
<polygon fill="white" stroke="black" points="833,-93.1678 833,-114.168 899,-114.168 899,-93.1678 833,-93.1678"/>
<text text-anchor="middle" x="866" y="-101.168" font-family="FreeSans" font-size="10.00">ppgetstats</text>
</a>
</g>
<!-- Node16&#45;&gt;Node17 -->
<g id="edge36" class="edge"><title>Node16&#45;&gt;Node17</title>
<path fill="none" stroke="midnightblue" d="M711.32,-160.052C733.785,-150.024 768.853,-134.889 800,-123.668 807.445,-120.986 815.445,-118.355 823.217,-115.929"/>
<polygon fill="midnightblue" stroke="midnightblue" points="824.341,-119.246 832.881,-112.976 822.295,-112.551 824.341,-119.246"/>
</g>
<!-- Node19 -->
<g id="node39" class="node"><title>Node19</title>
<a xlink:href="cvm-hfa-pp_8c.html#a57ec655c9bdb6ce63ada6767c7e14763" target="_top" xlink:title="ppcleanstats">
<polygon fill="white" stroke="black" points="827.5,-225.168 827.5,-246.168 904.5,-246.168 904.5,-225.168 827.5,-225.168"/>
<text text-anchor="middle" x="866" y="-233.168" font-family="FreeSans" font-size="10.00">ppcleanstats</text>
</a>
</g>
<!-- Node16&#45;&gt;Node19 -->
<g id="edge40" class="edge"><title>Node16&#45;&gt;Node19</title>
<path fill="none" stroke="midnightblue" d="M712.673,-181.308C735.21,-190.852 769.556,-204.962 800,-215.668 806.299,-217.883 812.985,-220.082 819.591,-222.167"/>
<polygon fill="midnightblue" stroke="midnightblue" points="818.571,-225.514 829.158,-225.128 820.641,-218.827 818.571,-225.514"/>
</g>
<!-- Node21 -->
<g id="node43" class="node"><title>Node21</title>
<a xlink:href="cvm-hfa-pp_8c.html#a41ce9d3103c639e474783d3843e09071" target="_top" xlink:title="ppcleanup">
<polygon fill="white" stroke="black" points="833,-185.168 833,-206.168 899,-206.168 899,-185.168 833,-185.168"/>
<text text-anchor="middle" x="866" y="-193.168" font-family="FreeSans" font-size="10.00">ppcleanup</text>
</a>
</g>
<!-- Node16&#45;&gt;Node21 -->
<g id="edge44" class="edge"><title>Node16&#45;&gt;Node21</title>
<path fill="none" stroke="midnightblue" d="M762.972,-181.198C783.305,-184.053 804.639,-187.05 822.586,-189.57"/>
<polygon fill="midnightblue" stroke="midnightblue" points="822.339,-193.07 832.728,-190.995 823.312,-186.138 822.339,-193.07"/>
</g>
<!-- Node23 -->
<g id="node47" class="node"><title>Node23</title>
<a xlink:href="cvm-hfa-stats_8c.html#a2df4c76e04e7b028ed2df4bba1b2de3d" target="_top" xlink:title="This routine is the counterpart of hfa_searchctx_init_stats().">
<polygon fill="white" stroke="black" points="809.5,-132.668 809.5,-166.668 922.5,-166.668 922.5,-132.668 809.5,-132.668"/>
<text text-anchor="start" x="817.5" y="-153.668" font-family="FreeSans" font-size="10.00">hfa_searchctx_stats</text>
<text text-anchor="middle" x="866" y="-140.668" font-family="FreeSans" font-size="10.00">_cleanup</text>
</a>
</g>
<!-- Node16&#45;&gt;Node23 -->
<g id="edge48" class="edge"><title>Node16&#45;&gt;Node23</title>
<path fill="none" stroke="midnightblue" d="M764.004,-161.701C775.771,-160.313 787.847,-158.888 799.386,-157.527"/>
<polygon fill="midnightblue" stroke="midnightblue" points="799.846,-160.997 809.367,-156.349 799.026,-154.045 799.846,-160.997"/>
</g>
<!-- Node18 -->
<g id="node37" class="node"><title>Node18</title>
<a xlink:href="pp_8h.html#a808d5057ee5670ce724a6a88fc22b799" target="_top" xlink:title="pphfa_getstats">
<polygon fill="white" stroke="black" points="987.5,-93.1678 987.5,-114.168 1074.5,-114.168 1074.5,-93.1678 987.5,-93.1678"/>
<text text-anchor="middle" x="1031" y="-101.168" font-family="FreeSans" font-size="10.00">pphfa_getstats</text>
</a>
</g>
<!-- Node17&#45;&gt;Node18 -->
<g id="edge38" class="edge"><title>Node17&#45;&gt;Node18</title>
<path fill="none" stroke="midnightblue" d="M899.39,-103.668C921.654,-103.668 951.419,-103.668 977.011,-103.668"/>
<polygon fill="midnightblue" stroke="midnightblue" points="977.321,-107.168 987.321,-103.668 977.321,-100.168 977.321,-107.168"/>
</g>
<!-- Node20 -->
<g id="node41" class="node"><title>Node20</title>
<a xlink:href="pp_8h.html#a978b171bd7a736cb7fa0d5d034aa94e2" target="_top" xlink:title="pphfa_cleanstats">
<polygon fill="white" stroke="black" points="982,-225.168 982,-246.168 1080,-246.168 1080,-225.168 982,-225.168"/>
<text text-anchor="middle" x="1031" y="-233.168" font-family="FreeSans" font-size="10.00">pphfa_cleanstats</text>
</a>
</g>
<!-- Node19&#45;&gt;Node20 -->
<g id="edge42" class="edge"><title>Node19&#45;&gt;Node20</title>
<path fill="none" stroke="midnightblue" d="M904.685,-235.668C924.675,-235.668 949.499,-235.668 971.836,-235.668"/>
<polygon fill="midnightblue" stroke="midnightblue" points="971.898,-239.168 981.898,-235.668 971.898,-232.168 971.898,-239.168"/>
</g>
<!-- Node22 -->
<g id="node45" class="node"><title>Node22</title>
<a xlink:href="pp_8h.html#a428ad073d1fd72da37ab8b00f13693a3" target="_top" xlink:title="pphfa_cleanup">
<polygon fill="white" stroke="black" points="987.5,-185.168 987.5,-206.168 1074.5,-206.168 1074.5,-185.168 987.5,-185.168"/>
<text text-anchor="middle" x="1031" y="-193.168" font-family="FreeSans" font-size="10.00">pphfa_cleanup</text>
</a>
</g>
<!-- Node21&#45;&gt;Node22 -->
<g id="edge46" class="edge"><title>Node21&#45;&gt;Node22</title>
<path fill="none" stroke="midnightblue" d="M899.39,-195.668C921.654,-195.668 951.419,-195.668 977.011,-195.668"/>
<polygon fill="midnightblue" stroke="midnightblue" points="977.321,-199.168 987.321,-195.668 977.321,-192.168 977.321,-199.168"/>
</g>
<!-- Node23&#45;&gt;Node10 -->
<g id="edge50" class="edge"><title>Node23&#45;&gt;Node10</title>
<path fill="none" stroke="midnightblue" d="M916.634,-132.573C922.011,-129.932 927.245,-126.968 932,-123.668 951.65,-110.032 951.256,-100.747 968,-83.6678 982.113,-69.2724 998.791,-53.7133 1011.44,-42.189"/>
<polygon fill="midnightblue" stroke="midnightblue" points="1014.04,-44.5573 1019.1,-35.2514 1009.34,-39.3679 1014.04,-44.5573"/>
</g>
<!-- Node24&#45;&gt;Node17 -->
<g id="edge54" class="edge"><title>Node24&#45;&gt;Node17</title>
<path fill="none" stroke="midnightblue" d="M554.209,-93.717C630.861,-96.1633 756.936,-100.187 822.829,-102.29"/>
<polygon fill="midnightblue" stroke="midnightblue" points="822.765,-105.79 832.871,-102.61 822.988,-98.7932 822.765,-105.79"/>
</g>
<!-- Node25 -->
<g id="node53" class="node"><title>Node25</title>
<a xlink:href="cvm-hfa-pp_8c.html#a73cd0d7244d64410753dac7b809d2060" target="_top" xlink:title="ppassignstats">
<polygon fill="white" stroke="black" points="647.5,-53.1678 647.5,-74.1678 728.5,-74.1678 728.5,-53.1678 647.5,-53.1678"/>
<text text-anchor="middle" x="688" y="-61.1678" font-family="FreeSans" font-size="10.00">ppassignstats</text>
</a>
</g>
<!-- Node24&#45;&gt;Node25 -->
<g id="edge56" class="edge"><title>Node24&#45;&gt;Node25</title>
<path fill="none" stroke="midnightblue" d="M554.011,-82.6156C580.923,-78.81 611.793,-74.4446 637.114,-70.8638"/>
<polygon fill="midnightblue" stroke="midnightblue" points="637.828,-74.2977 647.239,-69.4319 636.848,-67.3667 637.828,-74.2977"/>
</g>
<!-- Node26 -->
<g id="node55" class="node"><title>Node26</title>
<a xlink:href="pp_8h.html#ad0cc4aeca687557949697bef25cdb764" target="_top" xlink:title="pphfa_assignstats">
<polygon fill="white" stroke="black" points="815,-53.1678 815,-74.1678 917,-74.1678 917,-53.1678 815,-53.1678"/>
<text text-anchor="middle" x="866" y="-61.1678" font-family="FreeSans" font-size="10.00">pphfa_assignstats</text>
</a>
</g>
<!-- Node25&#45;&gt;Node26 -->
<g id="edge58" class="edge"><title>Node25&#45;&gt;Node26</title>
<path fill="none" stroke="midnightblue" d="M728.837,-63.6678C751.299,-63.6678 779.619,-63.6678 804.685,-63.6678"/>
<polygon fill="midnightblue" stroke="midnightblue" points="804.837,-67.1679 814.837,-63.6678 804.837,-60.1679 804.837,-67.1679"/>
</g>
<!-- Node28 -->
<g id="node60" class="node"><title>Node28</title>
<a xlink:href="cvm-hfa-osapi_8h.html#a4fd034fe8e16048838cfb6427ecc93cc" target="_top" xlink:title="Linked list data structure.">
<polygon fill="white" stroke="black" points="442.5,-199.168 442.5,-220.168 537.5,-220.168 537.5,-199.168 442.5,-199.168"/>
<text text-anchor="middle" x="490" y="-207.168" font-family="FreeSans" font-size="10.00">__hfa_os_listadd</text>
</a>
</g>
<!-- Node27&#45;&gt;Node28 -->
<g id="edge64" class="edge"><title>Node27&#45;&gt;Node28</title>
<path fill="none" stroke="midnightblue" d="M360.386,-209.668C382.652,-209.668 409.093,-209.668 432.269,-209.668"/>
<polygon fill="midnightblue" stroke="midnightblue" points="432.319,-213.168 442.319,-209.668 432.319,-206.168 432.319,-213.168"/>
</g>
<!-- Node29&#45;&gt;Node16 -->
<g id="edge80" class="edge"><title>Node29&#45;&gt;Node16</title>
<path fill="none" stroke="midnightblue" d="M367.749,-251.989C422.221,-252.687 506.276,-249.724 576,-229.668 608.526,-220.312 642.45,-200.861 664.319,-186.847"/>
<polygon fill="midnightblue" stroke="midnightblue" points="666.465,-189.625 672.914,-181.219 662.631,-183.769 666.465,-189.625"/>
</g>
<!-- Node30 -->
<g id="node64" class="node"><title>Node30</title>
<a xlink:href="cvm-hfa-osapi_8h.html#acacbbbac0cb1e827a08946bcdf13209b" target="_top" xlink:title="hfa_os_listdel">
<polygon fill="white" stroke="black" points="449.5,-317.168 449.5,-338.168 530.5,-338.168 530.5,-317.168 449.5,-317.168"/>
<text text-anchor="middle" x="490" y="-325.168" font-family="FreeSans" font-size="10.00">hfa_os_listdel</text>
</a>
</g>
<!-- Node29&#45;&gt;Node30 -->
<g id="edge68" class="edge"><title>Node29&#45;&gt;Node30</title>
<path fill="none" stroke="midnightblue" d="M349.288,-260.264C355.789,-262.847 362.279,-265.961 368,-269.668 387.524,-282.319 383.816,-296.099 404,-307.668 414.702,-313.802 427.173,-318.056 439.244,-321.005"/>
<polygon fill="midnightblue" stroke="midnightblue" points="438.725,-324.474 449.241,-323.189 440.218,-317.635 438.725,-324.474"/>
</g>
<!-- Node32 -->
<g id="node68" class="node"><title>Node32</title>
<a xlink:href="cvm-hfa-search_8c.html#a6a8e1d7e70e0a10520302df5651e5fc5" target="_top" xlink:title="This routine provides the status of an outstanding pattern search operation initiated using hfa_searc...">
<polygon fill="white" stroke="black" points="404,-357.168 404,-378.168 576,-378.168 576,-357.168 404,-357.168"/>
<text text-anchor="middle" x="490" y="-365.168" font-family="FreeSans" font-size="10.00">hfa_searchctx_get_searchstatus</text>
</a>
</g>
<!-- Node29&#45;&gt;Node32 -->
<g id="edge72" class="edge"><title>Node29&#45;&gt;Node32</title>
<path fill="none" stroke="midnightblue" d="M353.635,-260.257C358.851,-262.765 363.81,-265.858 368,-269.668 396.249,-295.354 374.394,-323.558 404,-347.668 406.028,-349.319 408.168,-350.84 410.395,-352.239"/>
<polygon fill="midnightblue" stroke="midnightblue" points="408.906,-355.411 419.372,-357.056 412.216,-349.244 408.906,-355.411"/>
</g>
<!-- Node31 -->
<g id="node66" class="node"><title>Node31</title>
<a xlink:href="cvm-hfa-osapi_8h.html#a8f7a99f931e344eaaf9dd1fadd341a46" target="_top" xlink:title="__hfa_os_listdel">
<polygon fill="white" stroke="black" points="642.5,-317.168 642.5,-338.168 733.5,-338.168 733.5,-317.168 642.5,-317.168"/>
<text text-anchor="middle" x="688" y="-325.168" font-family="FreeSans" font-size="10.00">__hfa_os_listdel</text>
</a>
</g>
<!-- Node30&#45;&gt;Node31 -->
<g id="edge70" class="edge"><title>Node30&#45;&gt;Node31</title>
<path fill="none" stroke="midnightblue" d="M530.546,-327.668C559.846,-327.668 599.789,-327.668 632.112,-327.668"/>
<polygon fill="midnightblue" stroke="midnightblue" points="632.316,-331.168 642.315,-327.668 632.315,-324.168 632.316,-331.168"/>
</g>
<!-- Node33 -->
<g id="node70" class="node"><title>Node33</title>
<a xlink:href="cvm-hfa_8c.html#a4753d2dd586e19676b1a59dd16baaeed" target="_top" xlink:title="Obtain status of submitted insruction.">
<polygon fill="white" stroke="black" points="621.5,-357.168 621.5,-378.168 754.5,-378.168 754.5,-357.168 621.5,-357.168"/>
<text text-anchor="middle" x="688" y="-365.168" font-family="FreeSans" font-size="10.00">hfa_dev_getasyncstatus</text>
</a>
</g>
<!-- Node32&#45;&gt;Node33 -->
<g id="edge74" class="edge"><title>Node32&#45;&gt;Node33</title>
<path fill="none" stroke="midnightblue" d="M576.27,-367.668C587.839,-367.668 599.644,-367.668 611.039,-367.668"/>
<polygon fill="midnightblue" stroke="midnightblue" points="611.369,-371.168 621.369,-367.668 611.369,-364.168 611.369,-371.168"/>
</g>
<!-- Node34 -->
<g id="node72" class="node"><title>Node34</title>
<a xlink:href="cvm-hfa-instr_8h.html#a56f2522dcba965745a1bc239fc432dca" target="_top" xlink:title="Gets done from RWORD0.">
<polygon fill="white" stroke="black" points="804.5,-337.168 804.5,-358.168 927.5,-358.168 927.5,-337.168 804.5,-337.168"/>
<text text-anchor="middle" x="866" y="-345.168" font-family="FreeSans" font-size="10.00">cvm_hfa_rslt_getdone</text>
</a>
</g>
<!-- Node33&#45;&gt;Node34 -->
<g id="edge76" class="edge"><title>Node33&#45;&gt;Node34</title>
<path fill="none" stroke="midnightblue" d="M754.534,-360.192C767.39,-358.748 780.916,-357.228 793.939,-355.765"/>
<polygon fill="midnightblue" stroke="midnightblue" points="794.706,-359.2 804.253,-354.606 793.925,-352.244 794.706,-359.2"/>
</g>
<!-- Node35 -->
<g id="node74" class="node"><title>Node35</title>
<a xlink:href="cvm-hfa-instr_8h.html#a9700a50b68b6616506528eb725a8bda1" target="_top" xlink:title="Gets reason from RWORD0.">
<polygon fill="white" stroke="black" points="800.5,-377.168 800.5,-398.168 931.5,-398.168 931.5,-377.168 800.5,-377.168"/>
<text text-anchor="middle" x="866" y="-385.168" font-family="FreeSans" font-size="10.00">cvm_hfa_rslt_getreason</text>
</a>
</g>
<!-- Node33&#45;&gt;Node35 -->
<g id="edge78" class="edge"><title>Node33&#45;&gt;Node35</title>
<path fill="none" stroke="midnightblue" d="M754.534,-375.143C766.26,-376.461 778.543,-377.841 790.493,-379.184"/>
<polygon fill="midnightblue" stroke="midnightblue" points="790.106,-382.662 800.434,-380.301 790.888,-375.706 790.106,-382.662"/>
</g>
</g>
</svg>
        <g id="navigator" transform="translate(0 0)" fill="#404254">
                <rect fill="#f2f5e9" fill-opacity="0.5" stroke="#606060" stroke-width=".5" x="0" y="0" width="60" height="60"/>
                <use id="zoomplus" xlink:href="#zoomPlus" x="17" y="9" onmousedown="handleZoom(evt,'in')"/>
                <use id="zoomminus" xlink:href="#zoomMin" x="42" y="9" onmousedown="handleZoom(evt,'out')"/>
                <use id="reset" xlink:href="#resetDef" x="30" y="36" onmousedown="handleReset()"/>
                <g id="arrowUp" xlink:href="#dirArrow" transform="translate(30 24)" onmousedown="handlePan(0,-1)">
                  <use xlink:href="#rim" fill="#404040">
                        <set attributeName="fill" to="#808080" begin="arrowUp.mouseover" end="arrowUp.mouseout"/>
                  </use>
                  <path fill="none" stroke="white" stroke-width="1.5" d="M0,-3.0v7 M-2.5,-0.5L0,-3.0L2.5,-0.5"/>
                </g>
                <g id="arrowRight" xlink:href="#dirArrow" transform="rotate(90) translate(36 -43)" onmousedown="handlePan(1,0)">
                  <use xlink:href="#rim" fill="#404040">
                        <set attributeName="fill" to="#808080" begin="arrowRight.mouseover" end="arrowRight.mouseout"/>
                  </use>
                  <path fill="none" stroke="white" stroke-width="1.5" d="M0,-3.0v7 M-2.5,-0.5L0,-3.0L2.5,-0.5"/>
                </g>
                <g id="arrowDown" xlink:href="#dirArrow" transform="rotate(180) translate(-30 -48)" onmousedown="handlePan(0,1)">
                  <use xlink:href="#rim" fill="#404040">
                        <set attributeName="fill" to="#808080" begin="arrowDown.mouseover" end="arrowDown.mouseout"/>
                  </use>
                  <path fill="none" stroke="white" stroke-width="1.5" d="M0,-3.0v7 M-2.5,-0.5L0,-3.0L2.5,-0.5"/>
                </g>
                <g id="arrowLeft" xlink:href="#dirArrow" transform="rotate(270) translate(-36 17)" onmousedown="handlePan(-1,0)">
                  <use xlink:href="#rim" fill="#404040">
                        <set attributeName="fill" to="#808080" begin="arrowLeft.mouseover" end="arrowLeft.mouseout"/>
                  </use>
                  <path fill="none" stroke="white" stroke-width="1.5" d="M0,-3.0v7 M-2.5,-0.5L0,-3.0L2.5,-0.5"/>
                </g>
        </g>
        <svg viewBox="0 0 15 15" width="100%" height="30px" preserveAspectRatio="xMaxYMin meet">
         <g id="arrow_out" transform="scale(0.3 0.3)">
          <a xlink:href="hfa-se-flow-wqe_8c_a6d3e23d8f7a3aaf1b0d6e350b7631a0e_cgraph_org.svg" target="_base">
           <rect id="button" ry="5" rx="5" y="6" x="6" height="38" width="38"
                fill="#f2f5e9" fill-opacity="0.5" stroke="#606060" stroke-width="1.0"/>
           <path id="arrow"
             d="M 11.500037,31.436501 C 11.940474,20.09759 22.043105,11.32322 32.158766,21.979434 L 37.068811,17.246167 C 37.068811,17.246167 37.088388,32 37.088388,32 L 22.160133,31.978069 C 22.160133,31.978069 26.997745,27.140456 26.997745,27.140456 C 18.528582,18.264221 13.291696,25.230495 11.500037,31.436501 z"
             style="fill:#404040;"/>
          </a>
         </g>
        </svg>
</svg>
