<?xml version="1.0" encoding="UTF-8" standalone="no"?>
<!DOCTYPE svg PUBLIC "-//W3C//DTD SVG 1.1//EN"
 "http://www.w3.org/Graphics/SVG/1.1/DTD/svg11.dtd">
<!-- Generated by graphviz version 2.24.0 (20090616.2323)
 -->
<!-- Title: process_packets Pages: 1 -->
<svg width="1100pt" height="718pt"
 viewBox="0.00 0.00 1100.00 717.50" xmlns="http://www.w3.org/2000/svg" xmlns:xlink="http://www.w3.org/1999/xlink">
<g id="graph1" class="graph" transform="scale(1 1) rotate(0) translate(4 713.504)">
<title>process_packets</title>
<polygon fill="white" stroke="white" points="-4,5 -4,-713.504 1097,-713.504 1097,5 -4,5"/>
<!-- Node1 -->
<g id="node1" class="node"><title>Node1</title>
<polygon fill="#bfbfbf" stroke="black" points="0,-344.004 0,-365.004 96,-365.004 96,-344.004 0,-344.004"/>
<text text-anchor="middle" x="48" y="-352.004" font-family="FreeSans" font-size="10.00">process_packets</text>
</g>
<!-- Node2 -->
<g id="node3" class="node"><title>Node2</title>
<a xlink:href="app-utils_8c.html#a2ef10d45430fedd0dba3431f8d6ee14a" target="_top" xlink:title="Print performance statistics.">
<polygon fill="white" stroke="black" points="132.5,-620.004 132.5,-641.004 231.5,-641.004 231.5,-620.004 132.5,-620.004"/>
<text text-anchor="middle" x="182" y="-628.004" font-family="FreeSans" font-size="10.00">hfautils_printstats</text>
</a>
</g>
<!-- Node1&#45;&gt;Node2 -->
<g id="edge2" class="edge"><title>Node1&#45;&gt;Node2</title>
<path fill="none" stroke="midnightblue" d="M48.4042,-365.099C50.425,-403.401 62.3788,-536.319 132,-610.504 133.232,-611.817 134.561,-613.045 135.966,-614.194"/>
<polygon fill="midnightblue" stroke="midnightblue" points="134.416,-617.365 144.691,-619.947 138.269,-611.521 134.416,-617.365"/>
</g>
<!-- Node3 -->
<g id="node5" class="node"><title>Node3</title>
<a xlink:href="hfa-se-flow_8c.html#a22f8c12ff92ccf01518baa93343fd971" target="_top" xlink:title="Free wqe to the WQE fpa pool.">
<polygon fill="white" stroke="black" points="154,-580.004 154,-601.004 210,-601.004 210,-580.004 154,-580.004"/>
<text text-anchor="middle" x="182" y="-588.004" font-family="FreeSans" font-size="10.00">freewqe</text>
</a>
</g>
<!-- Node1&#45;&gt;Node3 -->
<g id="edge4" class="edge"><title>Node1&#45;&gt;Node3</title>
<path fill="none" stroke="midnightblue" d="M49.5049,-365.129C54.7628,-398.657 75.1857,-503.657 132,-565.504 135.734,-569.569 140.277,-573.062 145.085,-576.036"/>
<polygon fill="midnightblue" stroke="midnightblue" points="143.452,-579.132 153.908,-580.841 146.8,-572.985 143.452,-579.132"/>
</g>
<!-- Node4 -->
<g id="node7" class="node"><title>Node4</title>
<a xlink:href="flow_8h.html#afe2603c8b1fe38bb2528f405a3e8c137" target="_top" xlink:title="Calculate Array index to which received flowid should be present or added.">
<polygon fill="white" stroke="black" points="438,-543.004 438,-564.004 534,-564.004 534,-543.004 438,-543.004"/>
<text text-anchor="middle" x="486" y="-551.004" font-family="FreeSans" font-size="10.00">hfaf_get_flowidx</text>
</a>
</g>
<!-- Node1&#45;&gt;Node4 -->
<g id="edge6" class="edge"><title>Node1&#45;&gt;Node4</title>
<path fill="none" stroke="midnightblue" d="M51.5044,-365.34C60.4848,-391.368 86.8473,-457.82 132,-492.504 218.322,-558.814 351.492,-563.06 427.502,-559.048"/>
<polygon fill="midnightblue" stroke="midnightblue" points="428.063,-562.521 437.837,-558.433 427.647,-555.533 428.063,-562.521"/>
</g>
<!-- Node5 -->
<g id="node9" class="node"><title>Node5</title>
<a xlink:href="hfa-se-flow_8c.html#a6d3e23d8f7a3aaf1b0d6e350b7631a0e" target="_top" xlink:title="Get flow pointer from Flow database, If flow ptr is NULL then create at runtime.">
<polygon fill="white" stroke="black" points="147.5,-462.004 147.5,-483.004 216.5,-483.004 216.5,-462.004 147.5,-462.004"/>
<text text-anchor="middle" x="182" y="-470.004" font-family="FreeSans" font-size="10.00">get_flowptr</text>
</a>
</g>
<!-- Node1&#45;&gt;Node5 -->
<g id="edge8" class="edge"><title>Node1&#45;&gt;Node5</title>
<path fill="none" stroke="midnightblue" d="M58.5799,-365.058C74.2261,-380.525 104.639,-410.054 132,-433.504 140.777,-441.027 150.765,-448.939 159.495,-455.657"/>
<polygon fill="midnightblue" stroke="midnightblue" points="157.638,-458.642 167.714,-461.917 161.879,-453.073 157.638,-458.642"/>
</g>
<!-- Node31 -->
<g id="node67" class="node"><title>Node31</title>
<a xlink:href="hfa-se-flow_8c.html#a49535197bf697f5b0b5f2952e1e5063c" target="_top" xlink:title="Free packet buffer and wqe to the corresponding fpa pools.">
<polygon fill="white" stroke="black" points="466.5,-11.0045 466.5,-32.0045 505.5,-32.0045 505.5,-11.0045 466.5,-11.0045"/>
<text text-anchor="middle" x="486" y="-19.0045" font-family="FreeSans" font-size="10.00">send</text>
</a>
</g>
<!-- Node1&#45;&gt;Node31 -->
<g id="edge72" class="edge"><title>Node1&#45;&gt;Node31</title>
<path fill="none" stroke="midnightblue" d="M49.7584,-343.746C57.6851,-296.457 91.4766,-107.542 132,-65.5045 218.494,24.2214 387.747,0.0732901 456.204,-14.3649"/>
<polygon fill="midnightblue" stroke="midnightblue" points="455.78,-17.855 466.298,-16.5799 457.28,-11.0177 455.78,-17.855"/>
</g>
<!-- Node32 -->
<g id="node69" class="node"><title>Node32</title>
<a xlink:href="hfa-se-nctx_8c.html#a508e8db841721921a39875f1b628b92c" target="_top" xlink:title="Set search parameters and submit a search instruction to HW.">
<polygon fill="white" stroke="black" points="158,-243.004 158,-264.004 206,-264.004 206,-243.004 158,-243.004"/>
<text text-anchor="middle" x="182" y="-251.004" font-family="FreeSans" font-size="10.00">submit</text>
</a>
</g>
<!-- Node1&#45;&gt;Node32 -->
<g id="edge74" class="edge"><title>Node1&#45;&gt;Node32</title>
<path fill="none" stroke="midnightblue" d="M62.3403,-343.696C85.6129,-326.154 131.785,-291.353 159.474,-270.483"/>
<polygon fill="midnightblue" stroke="midnightblue" points="161.884,-273.05 167.763,-264.236 157.67,-267.46 161.884,-273.05"/>
</g>
<!-- Node36 -->
<g id="node77" class="node"><title>Node36</title>
<a xlink:href="hfa-se-flow_8c.html#adf93d28c9d0b1014e2e3e0e8f28475de" target="_top" xlink:title="Allocate and set parameters for search.">
<polygon fill="white" stroke="black" points="146,-143.004 146,-164.004 218,-164.004 218,-143.004 146,-143.004"/>
<text text-anchor="middle" x="182" y="-151.004" font-family="FreeSans" font-size="10.00">get_fparam</text>
</a>
</g>
<!-- Node1&#45;&gt;Node36 -->
<g id="edge82" class="edge"><title>Node1&#45;&gt;Node36</title>
<path fill="none" stroke="midnightblue" d="M55.0158,-343.981C76.4432,-311.84 141.261,-214.613 169.085,-172.877"/>
<polygon fill="midnightblue" stroke="midnightblue" points="172.094,-174.673 174.729,-164.411 166.269,-170.79 172.094,-174.673"/>
</g>
<!-- Node37 -->
<g id="node79" class="node"><title>Node37</title>
<a xlink:href="hfa-se-flow_8c.html#a7ab45fe0bf9371bbe81609ffe8a62702" target="_top" xlink:title="Cleanup memory allocated for search parameters.">
<polygon fill="white" stroke="black" points="295.5,-30.0045 295.5,-51.0045 362.5,-51.0045 362.5,-30.0045 295.5,-30.0045"/>
<text text-anchor="middle" x="329" y="-38.0045" font-family="FreeSans" font-size="10.00">freeparam</text>
</a>
</g>
<!-- Node1&#45;&gt;Node37 -->
<g id="edge100" class="edge"><title>Node1&#45;&gt;Node37</title>
<path fill="none" stroke="midnightblue" d="M49.3604,-343.94C54.2816,-309.593 74.0344,-199.502 132,-133.504 172.606,-87.2721 241.167,-62.2413 285.75,-50.1368"/>
<polygon fill="midnightblue" stroke="midnightblue" points="286.64,-53.5218 295.432,-47.6086 284.872,-46.7489 286.64,-53.5218"/>
</g>
<!-- Node40 -->
<g id="node88" class="node"><title>Node40</title>
<a xlink:href="flow_8c.html#ae695ed2e606d873e01bd4ae5fd66919d" target="_top" xlink:title="Add Search Parameter to a Flow Search parameter is added to the flow&#45;&gt;paramlist.">
<polygon fill="white" stroke="black" points="134,-403.004 134,-424.004 230,-424.004 230,-403.004 134,-403.004"/>
<text text-anchor="middle" x="182" y="-411.004" font-family="FreeSans" font-size="10.00">hfaf_addsparam</text>
</a>
</g>
<!-- Node1&#45;&gt;Node40 -->
<g id="edge96" class="edge"><title>Node1&#45;&gt;Node40</title>
<path fill="none" stroke="midnightblue" d="M71.9565,-365.052C93.2612,-374.433 124.635,-388.247 148.438,-398.727"/>
<polygon fill="midnightblue" stroke="midnightblue" points="147.237,-402.022 157.799,-402.849 150.057,-395.616 147.237,-402.022"/>
</g>
<!-- Node41 -->
<g id="node92" class="node"><title>Node41</title>
<a xlink:href="hfa-se-flow_8c.html#a779659fedbbc8e698802f2d8e2da9067" target="_top" xlink:title="Submits a packet of a flow to the HFA Engine if no pending instruction on that flow.">
<polygon fill="white" stroke="black" points="289.5,-304.004 289.5,-325.004 368.5,-325.004 368.5,-304.004 289.5,-304.004"/>
<text text-anchor="middle" x="329" y="-312.004" font-family="FreeSans" font-size="10.00">__submitflow</text>
</a>
</g>
<!-- Node1&#45;&gt;Node41 -->
<g id="edge102" class="edge"><title>Node1&#45;&gt;Node41</title>
<path fill="none" stroke="midnightblue" d="M87.5177,-343.955C101.489,-340.53 117.367,-336.978 132,-334.504 181.735,-326.097 239.174,-320.757 279.148,-317.73"/>
<polygon fill="midnightblue" stroke="midnightblue" points="279.457,-321.217 289.173,-316.992 278.943,-314.236 279.457,-321.217"/>
</g>
<!-- Node44 -->
<g id="node100" class="node"><title>Node44</title>
<a xlink:href="hfa-se-flow_8c.html#a786591694a8f8fb46cedbc8a580c88f6" target="_top" xlink:title="Submitting or Polling flows from the software recently used cache IF Cache is empty, it tries to refill it.">
<polygon fill="white" stroke="black" points="150.5,-344.004 150.5,-365.004 213.5,-365.004 213.5,-344.004 150.5,-344.004"/>
<text text-anchor="middle" x="182" y="-352.004" font-family="FreeSans" font-size="10.00">do_cache</text>
</a>
</g>
<!-- Node1&#45;&gt;Node44 -->
<g id="edge112" class="edge"><title>Node1&#45;&gt;Node44</title>
<path fill="none" stroke="midnightblue" d="M96.3771,-354.504C110.714,-354.504 126.288,-354.504 140.173,-354.504"/>
<polygon fill="midnightblue" stroke="midnightblue" points="140.414,-358.005 150.414,-354.504 140.414,-351.005 140.414,-358.005"/>
</g>
<!-- Node6 -->
<g id="node11" class="node"><title>Node6</title>
<a xlink:href="flow_8h.html#aa81c6978f07ac20238858896bacb5e7b" target="_top" xlink:title="Search particular flowid or flow in Flow database and return 1 if present or 0 otherwise.">
<polygon fill="white" stroke="black" points="281,-502.004 281,-523.004 377,-523.004 377,-502.004 281,-502.004"/>
<text text-anchor="middle" x="329" y="-510.004" font-family="FreeSans" font-size="10.00">hfaf_isflow_exist</text>
</a>
</g>
<!-- Node5&#45;&gt;Node6 -->
<g id="edge10" class="edge"><title>Node5&#45;&gt;Node6</title>
<path fill="none" stroke="midnightblue" d="M216.837,-481.984C235.807,-487.146 259.581,-493.615 280.353,-499.267"/>
<polygon fill="midnightblue" stroke="midnightblue" points="279.707,-502.719 290.275,-501.967 281.545,-495.964 279.707,-502.719"/>
</g>
<!-- Node7 -->
<g id="node14" class="node"><title>Node7</title>
<a xlink:href="flow_8c.html#afd4334cffa6be01afda5aa31eeecf6c4" target="_top" xlink:title="Create Packet Flow in Flowdb.">
<polygon fill="white" stroke="black" points="273.5,-462.004 273.5,-483.004 384.5,-483.004 384.5,-462.004 273.5,-462.004"/>
<text text-anchor="middle" x="329" y="-470.004" font-family="FreeSans" font-size="10.00">hfaf_create_pktflow</text>
</a>
</g>
<!-- Node5&#45;&gt;Node7 -->
<g id="edge14" class="edge"><title>Node5&#45;&gt;Node7</title>
<path fill="none" stroke="midnightblue" d="M216.837,-472.504C230.697,-472.504 247.12,-472.504 263.064,-472.504"/>
<polygon fill="midnightblue" stroke="midnightblue" points="263.44,-476.005 273.44,-472.504 263.44,-469.005 263.44,-476.005"/>
</g>
<!-- Node6&#45;&gt;Node4 -->
<g id="edge12" class="edge"><title>Node6&#45;&gt;Node4</title>
<path fill="none" stroke="midnightblue" d="M369.431,-523.063C389.667,-528.348 414.356,-534.795 435.795,-540.394"/>
<polygon fill="midnightblue" stroke="midnightblue" points="435.146,-543.841 445.706,-542.982 436.914,-537.069 435.146,-543.841"/>
</g>
<!-- Node7&#45;&gt;Node4 -->
<g id="edge16" class="edge"><title>Node7&#45;&gt;Node4</title>
<path fill="none" stroke="midnightblue" d="M371.385,-483.119C377.893,-485.662 384.327,-488.759 390,-492.504 410.237,-505.865 405.796,-520.094 426,-533.504 428.925,-535.446 432.054,-537.214 435.293,-538.822"/>
<polygon fill="midnightblue" stroke="midnightblue" points="434.063,-542.105 444.625,-542.942 436.89,-535.702 434.063,-542.105"/>
</g>
<!-- Node8 -->
<g id="node17" class="node"><title>Node8</title>
<a xlink:href="flow_8c.html#a28378e8a6f53ff0e87f2e688d1c21834" target="_top" xlink:title="Low level API to create a flow Allocate Flow, Intialize searchctx, set graph and setflags,.">
<polygon fill="white" stroke="black" points="432.5,-503.004 432.5,-524.004 539.5,-524.004 539.5,-503.004 432.5,-503.004"/>
<text text-anchor="middle" x="486" y="-511.004" font-family="FreeSans" font-size="10.00">__hfaf_create_flow</text>
</a>
</g>
<!-- Node7&#45;&gt;Node8 -->
<g id="edge18" class="edge"><title>Node7&#45;&gt;Node8</title>
<path fill="none" stroke="midnightblue" d="M369.431,-483.063C389.667,-488.348 414.356,-494.795 435.795,-500.394"/>
<polygon fill="midnightblue" stroke="midnightblue" points="435.146,-503.841 445.706,-502.982 436.914,-497.069 435.146,-503.841"/>
</g>
<!-- Node24 -->
<g id="node52" class="node"><title>Node24</title>
<a xlink:href="cvm-hfa-osapi_8h.html#ac5c56c7b06dac27ce7a8225802f3828f" target="_top" xlink:title="hfa_os_listaddtail">
<polygon fill="white" stroke="black" points="437,-423.004 437,-444.004 535,-444.004 535,-423.004 437,-423.004"/>
<text text-anchor="middle" x="486" y="-431.004" font-family="FreeSans" font-size="10.00">hfa_os_listaddtail</text>
</a>
</g>
<!-- Node7&#45;&gt;Node24 -->
<g id="edge56" class="edge"><title>Node7&#45;&gt;Node24</title>
<path fill="none" stroke="midnightblue" d="M371.486,-461.951C390.598,-457.203 413.345,-451.553 433.51,-446.543"/>
<polygon fill="midnightblue" stroke="midnightblue" points="434.618,-449.875 443.48,-444.067 432.931,-443.081 434.618,-449.875"/>
</g>
<!-- Node26 -->
<g id="node56" class="node"><title>Node26</title>
<a xlink:href="flow_8c.html#a696ee2b7ad7078c47242360be84d89bf" target="_top" xlink:title="Counterpart of __hfaf_create_flow.">
<polygon fill="white" stroke="black" points="591.5,-424.004 591.5,-445.004 704.5,-445.004 704.5,-424.004 591.5,-424.004"/>
<text text-anchor="middle" x="648" y="-432.004" font-family="FreeSans" font-size="10.00">__hfaf_destroy_flow</text>
</a>
</g>
<!-- Node7&#45;&gt;Node26 -->
<g id="edge60" class="edge"><title>Node7&#45;&gt;Node26</title>
<path fill="none" stroke="midnightblue" d="M384.915,-469.103C428.837,-466.071 491.481,-460.951 546,-453.504 559.226,-451.698 573.343,-449.345 586.726,-446.913"/>
<polygon fill="midnightblue" stroke="midnightblue" points="587.596,-450.312 596.79,-445.047 586.32,-443.429 587.596,-450.312"/>
</g>
<!-- Node9 -->
<g id="node19" class="node"><title>Node9</title>
<a xlink:href="hfa-se-xml-parser_8c.html#a7a1a023f618d2721b68175551e1c6fe0" target="_top" xlink:title="matchcb">
<polygon fill="white" stroke="black" points="618.5,-622.004 618.5,-643.004 677.5,-643.004 677.5,-622.004 618.5,-622.004"/>
<text text-anchor="middle" x="648" y="-630.004" font-family="FreeSans" font-size="10.00">matchcb</text>
</a>
</g>
<!-- Node8&#45;&gt;Node9 -->
<g id="edge20" class="edge"><title>Node8&#45;&gt;Node9</title>
<path fill="none" stroke="midnightblue" d="M531.492,-524.09C536.759,-526.594 541.755,-529.686 546,-533.504 574.688,-559.307 552.959,-587.099 582,-612.504 589.491,-619.057 599.075,-623.463 608.605,-626.426"/>
<polygon fill="midnightblue" stroke="midnightblue" points="607.863,-629.85 618.425,-629.02 609.65,-623.082 607.863,-629.85"/>
</g>
<!-- Node10 -->
<g id="node21" class="node"><title>Node10</title>
<a xlink:href="cvm-hfa-search_8c.html#a64ba7a41c7d677da10e588a58789015b" target="_top" xlink:title="This routine initializes a Search Context.">
<polygon fill="white" stroke="black" points="584.5,-464.004 584.5,-485.004 711.5,-485.004 711.5,-464.004 584.5,-464.004"/>
<text text-anchor="middle" x="648" y="-472.004" font-family="FreeSans" font-size="10.00">hfa_dev_searchctx_init</text>
</a>
</g>
<!-- Node8&#45;&gt;Node10 -->
<g id="edge22" class="edge"><title>Node8&#45;&gt;Node10</title>
<path fill="none" stroke="midnightblue" d="M529.84,-502.951C549.649,-498.181 573.245,-492.501 594.123,-487.475"/>
<polygon fill="midnightblue" stroke="midnightblue" points="595.222,-490.81 604.125,-485.067 593.584,-484.005 595.222,-490.81"/>
</g>
<!-- Node13 -->
<g id="node27" class="node"><title>Node13</title>
<a xlink:href="cvm-hfa-search_8c.html#a954753c0e6f4a59599d05f1262a25b38" target="_top" xlink:title="This routine associates a graph with sctx.">
<polygon fill="white" stroke="black" points="582,-662.004 582,-683.004 714,-683.004 714,-662.004 582,-662.004"/>
<text text-anchor="middle" x="648" y="-670.004" font-family="FreeSans" font-size="10.00">hfa_searchctx_setgraph</text>
</a>
</g>
<!-- Node8&#45;&gt;Node13 -->
<g id="edge28" class="edge"><title>Node8&#45;&gt;Node13</title>
<path fill="none" stroke="midnightblue" d="M532.89,-524.021C537.736,-526.534 542.249,-529.647 546,-533.504 584.521,-573.119 542.937,-613.423 582,-652.504 583.428,-653.933 584.955,-655.261 586.561,-656.494"/>
<polygon fill="midnightblue" stroke="midnightblue" points="584.836,-659.544 595.164,-661.907 588.564,-653.619 584.836,-659.544"/>
</g>
<!-- Node16 -->
<g id="node34" class="node"><title>Node16</title>
<a xlink:href="hfa-se-wqe_8c.html#ab846ebf81c4fbc23cfe854940c82d8e8" target="_top" xlink:title="Cleanup memory allocated for context.">
<polygon fill="white" stroke="black" points="610.5,-504.004 610.5,-525.004 685.5,-525.004 685.5,-504.004 610.5,-504.004"/>
<text text-anchor="middle" x="648" y="-512.004" font-family="FreeSans" font-size="10.00">cleanup_ctx</text>
</a>
</g>
<!-- Node8&#45;&gt;Node16 -->
<g id="edge36" class="edge"><title>Node8&#45;&gt;Node16</title>
<path fill="none" stroke="midnightblue" d="M539.944,-513.837C559.437,-513.958 581.291,-514.093 600.219,-514.21"/>
<polygon fill="midnightblue" stroke="midnightblue" points="600.378,-517.71 610.4,-514.272 600.421,-510.711 600.378,-517.71"/>
</g>
<!-- Node17 -->
<g id="node36" class="node"><title>Node17</title>
<a xlink:href="cvm-hfa-search_8c.html#a30064f173d814bd3791b59d675c2f45f" target="_top" xlink:title="This routine cleans&#45;up a Search Context.">
<polygon fill="white" stroke="black" points="760,-543.004 760,-564.004 912,-564.004 912,-543.004 760,-543.004"/>
<text text-anchor="middle" x="836" y="-551.004" font-family="FreeSans" font-size="10.00">hfa_dev_searchctx_cleanup</text>
</a>
</g>
<!-- Node8&#45;&gt;Node17 -->
<g id="edge54" class="edge"><title>Node8&#45;&gt;Node17</title>
<path fill="none" stroke="midnightblue" d="M528.297,-524.102C544.939,-527.918 564.274,-531.916 582,-534.504 637.571,-542.62 700.517,-547.359 749.844,-550.075"/>
<polygon fill="midnightblue" stroke="midnightblue" points="749.666,-553.571 759.838,-550.608 750.039,-546.58 749.666,-553.571"/>
</g>
<!-- Node22 -->
<g id="node46" class="node"><title>Node22</title>
<a xlink:href="cvm-hfa-search_8c.html#a60c8025118f6a47f924733e47db8c77d" target="_top" xlink:title="This routine is used to specify settings used during the search and getmatches API.">
<polygon fill="white" stroke="black" points="584,-582.004 584,-603.004 712,-603.004 712,-582.004 584,-582.004"/>
<text text-anchor="middle" x="648" y="-590.004" font-family="FreeSans" font-size="10.00">hfa_searchctx_setflags</text>
</a>
</g>
<!-- Node8&#45;&gt;Node22 -->
<g id="edge48" class="edge"><title>Node8&#45;&gt;Node22</title>
<path fill="none" stroke="midnightblue" d="M525.816,-524.052C532.782,-526.651 539.782,-529.783 546,-533.504 564.884,-544.806 563.347,-555.824 582,-567.504 588.426,-571.528 595.601,-575.067 602.788,-578.121"/>
<polygon fill="midnightblue" stroke="midnightblue" points="601.94,-581.55 612.526,-581.984 604.521,-575.043 601.94,-581.55"/>
</g>
<!-- Node11 -->
<g id="node23" class="node"><title>Node11</title>
<a xlink:href="cvm-hfa-stats_8c.html#a1cff986555a79b0d5ccee49801cb0056" target="_top" xlink:title="This routine allocates the memory for counters to maintain the statistics of search context...">
<polygon fill="white" stroke="red" points="770.5,-464.004 770.5,-485.004 901.5,-485.004 901.5,-464.004 770.5,-464.004"/>
<text text-anchor="middle" x="836" y="-472.004" font-family="FreeSans" font-size="10.00">hfa_searchctx_stats_init</text>
</a>
</g>
<!-- Node10&#45;&gt;Node11 -->
<g id="edge24" class="edge"><title>Node10&#45;&gt;Node11</title>
<path fill="none" stroke="midnightblue" d="M711.648,-474.504C727.202,-474.504 743.999,-474.504 760.063,-474.504"/>
<polygon fill="midnightblue" stroke="midnightblue" points="760.494,-478.005 770.494,-474.504 760.494,-471.005 760.494,-478.005"/>
</g>
<!-- Node12 -->
<g id="node25" class="node"><title>Node12</title>
<a xlink:href="cvm-hfa-stats_8c.html#acbdfa65e476c04cd9b67b7c462eefe56" target="_top" xlink:title="This routine allocates required memory from STATS ARENA.">
<polygon fill="white" stroke="black" points="960.5,-463.004 960.5,-484.004 1089.5,-484.004 1089.5,-463.004 960.5,-463.004"/>
<text text-anchor="middle" x="1025" y="-471.004" font-family="FreeSans" font-size="10.00">hfa_stats_memoryalloc</text>
</a>
</g>
<!-- Node11&#45;&gt;Node12 -->
<g id="edge26" class="edge"><title>Node11&#45;&gt;Node12</title>
<path fill="none" stroke="midnightblue" d="M901.573,-474.158C917.14,-474.075 933.867,-473.987 949.826,-473.902"/>
<polygon fill="midnightblue" stroke="midnightblue" points="950.201,-477.4 960.182,-473.847 950.164,-470.4 950.201,-477.4"/>
</g>
<!-- Node14 -->
<g id="node29" class="node"><title>Node14</title>
<a xlink:href="cvm-hfa-pp_8c.html#a9ad01b0f0de0f65b99a53f6c64f147e2" target="_top" xlink:title="ppinit">
<polygon fill="white" stroke="red" points="1004,-688.004 1004,-709.004 1046,-709.004 1046,-688.004 1004,-688.004"/>
<text text-anchor="middle" x="1025" y="-696.004" font-family="FreeSans" font-size="10.00">ppinit</text>
</a>
</g>
<!-- Node13&#45;&gt;Node14 -->
<g id="edge30" class="edge"><title>Node13&#45;&gt;Node14</title>
<path fill="none" stroke="midnightblue" d="M692.936,-683.045C710.618,-686.737 731.162,-690.467 750,-692.504 837.985,-702.019 942.694,-700.903 993.807,-699.561"/>
<polygon fill="midnightblue" stroke="midnightblue" points="993.978,-703.057 1003.88,-699.275 993.78,-696.06 993.978,-703.057"/>
</g>
<!-- Node15 -->
<g id="node31" class="node"><title>Node15</title>
<a xlink:href="cvm-hfa-search_8c.html#a3200f5303f0611887f35dd500e7a8d00" target="_top" xlink:title="This is a utility routine which associates an application&#45;specifc cookie in the sctx.">
<polygon fill="white" stroke="black" points="767,-662.004 767,-683.004 905,-683.004 905,-662.004 767,-662.004"/>
<text text-anchor="middle" x="836" y="-670.004" font-family="FreeSans" font-size="10.00">hfa_searchctx_setppuarg</text>
</a>
</g>
<!-- Node13&#45;&gt;Node15 -->
<g id="edge32" class="edge"><title>Node13&#45;&gt;Node15</title>
<path fill="none" stroke="midnightblue" d="M714.017,-672.504C727.81,-672.504 742.486,-672.504 756.703,-672.504"/>
<polygon fill="midnightblue" stroke="midnightblue" points="756.954,-676.005 766.954,-672.504 756.954,-669.005 756.954,-676.005"/>
</g>
<!-- Node15&#45;&gt;Node14 -->
<g id="edge34" class="edge"><title>Node15&#45;&gt;Node14</title>
<path fill="none" stroke="midnightblue" d="M905.036,-682.001C935.532,-686.197 969.852,-690.918 993.946,-694.232"/>
<polygon fill="midnightblue" stroke="midnightblue" points="993.541,-697.71 1003.92,-695.605 994.495,-690.775 993.541,-697.71"/>
</g>
<!-- Node16&#45;&gt;Node17 -->
<g id="edge38" class="edge"><title>Node16&#45;&gt;Node17</title>
<path fill="none" stroke="midnightblue" d="M685.593,-522.303C711.297,-527.635 745.932,-534.82 775.486,-540.951"/>
<polygon fill="midnightblue" stroke="midnightblue" points="774.791,-544.381 785.294,-542.986 776.213,-537.527 774.791,-544.381"/>
</g>
<!-- Node18 -->
<g id="node38" class="node"><title>Node18</title>
<a xlink:href="cvm-hfa-pp_8c.html#add6064138ec2e35741929056a0992d8d" target="_top" xlink:title="ppgetstats">
<polygon fill="white" stroke="red" points="992,-635.004 992,-656.004 1058,-656.004 1058,-635.004 992,-635.004"/>
<text text-anchor="middle" x="1025" y="-643.004" font-family="FreeSans" font-size="10.00">ppgetstats</text>
</a>
</g>
<!-- Node17&#45;&gt;Node18 -->
<g id="edge40" class="edge"><title>Node17&#45;&gt;Node18</title>
<path fill="none" stroke="midnightblue" d="M891.55,-564.036C902.217,-567.572 912.889,-572.271 922,-578.504 943.716,-593.362 936.337,-610.569 958,-625.504 965.183,-630.457 973.614,-634.205 982.026,-637.035"/>
<polygon fill="midnightblue" stroke="midnightblue" points="981.233,-640.451 991.817,-639.952 983.232,-633.742 981.233,-640.451"/>
</g>
<!-- Node19 -->
<g id="node40" class="node"><title>Node19</title>
<a xlink:href="cvm-hfa-pp_8c.html#a57ec655c9bdb6ce63ada6767c7e14763" target="_top" xlink:title="ppcleanstats">
<polygon fill="white" stroke="red" points="986.5,-543.004 986.5,-564.004 1063.5,-564.004 1063.5,-543.004 986.5,-543.004"/>
<text text-anchor="middle" x="1025" y="-551.004" font-family="FreeSans" font-size="10.00">ppcleanstats</text>
</a>
</g>
<!-- Node17&#45;&gt;Node19 -->
<g id="edge42" class="edge"><title>Node17&#45;&gt;Node19</title>
<path fill="none" stroke="midnightblue" d="M912.057,-553.504C933.707,-553.504 956.7,-553.504 976.251,-553.504"/>
<polygon fill="midnightblue" stroke="midnightblue" points="976.43,-557.005 986.43,-553.504 976.43,-550.005 976.43,-557.005"/>
</g>
<!-- Node20 -->
<g id="node42" class="node"><title>Node20</title>
<a xlink:href="cvm-hfa-pp_8c.html#a41ce9d3103c639e474783d3843e09071" target="_top" xlink:title="ppcleanup">
<polygon fill="white" stroke="red" points="992,-503.004 992,-524.004 1058,-524.004 1058,-503.004 992,-503.004"/>
<text text-anchor="middle" x="1025" y="-511.004" font-family="FreeSans" font-size="10.00">ppcleanup</text>
</a>
</g>
<!-- Node17&#45;&gt;Node20 -->
<g id="edge44" class="edge"><title>Node17&#45;&gt;Node20</title>
<path fill="none" stroke="midnightblue" d="M885.658,-542.995C915.464,-536.687 953.019,-528.738 981.629,-522.684"/>
<polygon fill="midnightblue" stroke="midnightblue" points="982.675,-526.04 991.734,-520.545 981.226,-519.191 982.675,-526.04"/>
</g>
<!-- Node21 -->
<g id="node44" class="node"><title>Node21</title>
<a xlink:href="cvm-hfa-stats_8c.html#a2df4c76e04e7b028ed2df4bba1b2de3d" target="_top" xlink:title="This routine is the counterpart of hfa_searchctx_init_stats().">
<polygon fill="white" stroke="red" points="968.5,-582.504 968.5,-616.504 1081.5,-616.504 1081.5,-582.504 968.5,-582.504"/>
<text text-anchor="start" x="976.5" y="-603.504" font-family="FreeSans" font-size="10.00">hfa_searchctx_stats</text>
<text text-anchor="middle" x="1025" y="-590.504" font-family="FreeSans" font-size="10.00">_cleanup</text>
</a>
</g>
<!-- Node17&#45;&gt;Node21 -->
<g id="edge46" class="edge"><title>Node17&#45;&gt;Node21</title>
<path fill="none" stroke="midnightblue" d="M879.36,-564.058C902.747,-569.75 932.112,-576.897 958.337,-583.28"/>
<polygon fill="midnightblue" stroke="midnightblue" points="957.672,-586.72 968.216,-585.684 959.327,-579.918 957.672,-586.72"/>
</g>
<!-- Node22&#45;&gt;Node18 -->
<g id="edge50" class="edge"><title>Node22&#45;&gt;Node18</title>
<path fill="none" stroke="midnightblue" d="M712.177,-591.533C768.209,-591.964 851.385,-595.709 922,-611.504 938.753,-615.252 941.762,-619.934 958,-625.504 965.755,-628.165 974.081,-630.814 982.138,-633.272"/>
<polygon fill="midnightblue" stroke="midnightblue" points="981.191,-636.642 991.775,-636.163 983.203,-629.937 981.191,-636.642"/>
</g>
<!-- Node23 -->
<g id="node49" class="node"><title>Node23</title>
<a xlink:href="cvm-hfa-pp_8c.html#a73cd0d7244d64410753dac7b809d2060" target="_top" xlink:title="ppassignstats">
<polygon fill="white" stroke="red" points="795.5,-621.004 795.5,-642.004 876.5,-642.004 876.5,-621.004 795.5,-621.004"/>
<text text-anchor="middle" x="836" y="-629.004" font-family="FreeSans" font-size="10.00">ppassignstats</text>
</a>
</g>
<!-- Node22&#45;&gt;Node23 -->
<g id="edge52" class="edge"><title>Node22&#45;&gt;Node23</title>
<path fill="none" stroke="midnightblue" d="M698.876,-603.058C725.682,-608.619 758.462,-615.419 785.249,-620.976"/>
<polygon fill="midnightblue" stroke="midnightblue" points="784.695,-624.436 795.198,-623.04 786.117,-617.582 784.695,-624.436"/>
</g>
<!-- Node25 -->
<g id="node54" class="node"><title>Node25</title>
<a xlink:href="cvm-hfa-osapi_8h.html#a4fd034fe8e16048838cfb6427ecc93cc" target="_top" xlink:title="Linked list data structure.">
<polygon fill="white" stroke="black" points="600.5,-384.004 600.5,-405.004 695.5,-405.004 695.5,-384.004 600.5,-384.004"/>
<text text-anchor="middle" x="648" y="-392.004" font-family="FreeSans" font-size="10.00">__hfa_os_listadd</text>
</a>
</g>
<!-- Node24&#45;&gt;Node25 -->
<g id="edge58" class="edge"><title>Node24&#45;&gt;Node25</title>
<path fill="none" stroke="midnightblue" d="M529.84,-422.951C549.649,-418.181 573.245,-412.501 594.123,-407.475"/>
<polygon fill="midnightblue" stroke="midnightblue" points="595.222,-410.81 604.125,-405.067 593.584,-404.005 595.222,-410.81"/>
</g>
<!-- Node26&#45;&gt;Node17 -->
<g id="edge70" class="edge"><title>Node26&#45;&gt;Node17</title>
<path fill="none" stroke="midnightblue" d="M694.507,-445.076C701.318,-447.611 708.038,-450.716 714,-454.504 734.186,-467.333 732.013,-478.74 750,-494.504 768.553,-510.765 791.718,-526.429 809.33,-537.526"/>
<polygon fill="midnightblue" stroke="midnightblue" points="807.638,-540.595 817.98,-542.892 811.327,-534.647 807.638,-540.595"/>
</g>
<!-- Node27 -->
<g id="node58" class="node"><title>Node27</title>
<a xlink:href="cvm-hfa-osapi_8h.html#acacbbbac0cb1e827a08946bcdf13209b" target="_top" xlink:title="hfa_os_listdel">
<polygon fill="white" stroke="black" points="795.5,-384.004 795.5,-405.004 876.5,-405.004 876.5,-384.004 795.5,-384.004"/>
<text text-anchor="middle" x="836" y="-392.004" font-family="FreeSans" font-size="10.00">hfa_os_listdel</text>
</a>
</g>
<!-- Node26&#45;&gt;Node27 -->
<g id="edge62" class="edge"><title>Node26&#45;&gt;Node27</title>
<path fill="none" stroke="midnightblue" d="M697.395,-423.995C724.502,-418.227 758.052,-411.089 785.354,-405.28"/>
<polygon fill="midnightblue" stroke="midnightblue" points="786.433,-408.629 795.485,-403.125 784.976,-401.782 786.433,-408.629"/>
</g>
<!-- Node29 -->
<g id="node62" class="node"><title>Node29</title>
<a xlink:href="cvm-hfa-search_8c.html#a6a8e1d7e70e0a10520302df5651e5fc5" target="_top" xlink:title="This routine provides the status of an outstanding pattern search operation initiated using hfa_searc...">
<polygon fill="white" stroke="black" points="750,-424.004 750,-445.004 922,-445.004 922,-424.004 750,-424.004"/>
<text text-anchor="middle" x="836" y="-432.004" font-family="FreeSans" font-size="10.00">hfa_searchctx_get_searchstatus</text>
</a>
</g>
<!-- Node26&#45;&gt;Node29 -->
<g id="edge66" class="edge"><title>Node26&#45;&gt;Node29</title>
<path fill="none" stroke="midnightblue" d="M704.661,-434.504C715.811,-434.504 727.797,-434.504 739.831,-434.504"/>
<polygon fill="midnightblue" stroke="midnightblue" points="739.933,-438.005 749.933,-434.504 739.933,-431.005 739.933,-438.005"/>
</g>
<!-- Node28 -->
<g id="node60" class="node"><title>Node28</title>
<a xlink:href="cvm-hfa-osapi_8h.html#a8f7a99f931e344eaaf9dd1fadd341a46" target="_top" xlink:title="__hfa_os_listdel">
<polygon fill="white" stroke="black" points="979.5,-383.004 979.5,-404.004 1070.5,-404.004 1070.5,-383.004 979.5,-383.004"/>
<text text-anchor="middle" x="1025" y="-391.004" font-family="FreeSans" font-size="10.00">__hfa_os_listdel</text>
</a>
</g>
<!-- Node27&#45;&gt;Node28 -->
<g id="edge64" class="edge"><title>Node27&#45;&gt;Node28</title>
<path fill="none" stroke="midnightblue" d="M876.545,-394.29C903.518,-394.147 939.311,-393.958 968.993,-393.801"/>
<polygon fill="midnightblue" stroke="midnightblue" points="969.231,-397.3 979.213,-393.747 969.194,-390.3 969.231,-397.3"/>
</g>
<!-- Node30 -->
<g id="node64" class="node"><title>Node30</title>
<a xlink:href="cvm-hfa_8c.html#a4753d2dd586e19676b1a59dd16baaeed" target="_top" xlink:title="Obtain status of submitted insruction.">
<polygon fill="white" stroke="red" points="958.5,-423.004 958.5,-444.004 1091.5,-444.004 1091.5,-423.004 958.5,-423.004"/>
<text text-anchor="middle" x="1025" y="-431.004" font-family="FreeSans" font-size="10.00">hfa_dev_getasyncstatus</text>
</a>
</g>
<!-- Node29&#45;&gt;Node30 -->
<g id="edge68" class="edge"><title>Node29&#45;&gt;Node30</title>
<path fill="none" stroke="midnightblue" d="M922.204,-434.048C930.951,-434.002 939.793,-433.955 948.428,-433.91"/>
<polygon fill="midnightblue" stroke="midnightblue" points="948.471,-437.41 958.452,-433.857 948.433,-430.41 948.471,-437.41"/>
</g>
<!-- Node33 -->
<g id="node71" class="node"><title>Node33</title>
<a xlink:href="cvm-hfa-search_8h.html#a3c407460808f038770473ffc6e4b5c38" target="_top" xlink:title="This routine adds a new input IO vector to Search Param.">
<polygon fill="white" stroke="black" points="268.5,-161.504 268.5,-195.504 389.5,-195.504 389.5,-161.504 268.5,-161.504"/>
<text text-anchor="start" x="276.5" y="-182.504" font-family="FreeSans" font-size="10.00">hfa_searchparam_set</text>
<text text-anchor="middle" x="329" y="-169.504" font-family="FreeSans" font-size="10.00">_inputiovec</text>
</a>
</g>
<!-- Node32&#45;&gt;Node33 -->
<g id="edge76" class="edge"><title>Node32&#45;&gt;Node33</title>
<path fill="none" stroke="midnightblue" d="M199.142,-242.96C216.275,-232.606 243.522,-216.644 268,-204.504 271.138,-202.948 274.391,-201.395 277.688,-199.866"/>
<polygon fill="midnightblue" stroke="midnightblue" points="279.368,-202.947 287.037,-195.637 276.483,-196.569 279.368,-202.947"/>
</g>
<!-- Node34 -->
<g id="node73" class="node"><title>Node34</title>
<a xlink:href="cvm-hfa-search_8h.html#a12882fa53f8ec49b9b2950711161db42" target="_top" xlink:title="This routine sets the output buffer in the sparam.">
<polygon fill="white" stroke="black" points="268.5,-213.504 268.5,-247.504 389.5,-247.504 389.5,-213.504 268.5,-213.504"/>
<text text-anchor="start" x="276.5" y="-234.504" font-family="FreeSans" font-size="10.00">hfa_searchparam_set</text>
<text text-anchor="middle" x="329" y="-221.504" font-family="FreeSans" font-size="10.00">_output</text>
</a>
</g>
<!-- Node32&#45;&gt;Node34 -->
<g id="edge78" class="edge"><title>Node32&#45;&gt;Node34</title>
<path fill="none" stroke="midnightblue" d="M206.274,-249.706C220.583,-247.468 239.498,-244.508 258.182,-241.585"/>
<polygon fill="midnightblue" stroke="midnightblue" points="258.866,-245.02 268.205,-240.017 257.784,-238.105 258.866,-245.02"/>
</g>
<!-- Node35 -->
<g id="node75" class="node"><title>Node35</title>
<a xlink:href="cvm-hfa-search_8c.html#a0c36da280b39bd8afdf6081baea24472" target="_top" xlink:title="This routine performs a pattern search using the given parameters in a non&#45;blocking manner...">
<polygon fill="white" stroke="black" points="774.5,-239.504 774.5,-273.504 897.5,-273.504 897.5,-239.504 774.5,-239.504"/>
<text text-anchor="start" x="782.5" y="-260.504" font-family="FreeSans" font-size="10.00">hfa_searchctx_search</text>
<text text-anchor="middle" x="836" y="-247.504" font-family="FreeSans" font-size="10.00">_async</text>
</a>
</g>
<!-- Node32&#45;&gt;Node35 -->
<g id="edge80" class="edge"><title>Node32&#45;&gt;Node35</title>
<path fill="none" stroke="midnightblue" d="M206.09,-254.57C223.328,-255.277 247.088,-256.14 268,-256.504 446.374,-259.615 656.306,-258.329 764.108,-257.307"/>
<polygon fill="midnightblue" stroke="midnightblue" points="764.252,-260.806 774.217,-257.209 764.184,-253.806 764.252,-260.806"/>
</g>
<!-- Node36&#45;&gt;Node33 -->
<g id="edge92" class="edge"><title>Node36&#45;&gt;Node33</title>
<path fill="none" stroke="midnightblue" d="M218.337,-159.684C230.515,-161.755 244.54,-164.141 258.426,-166.502"/>
<polygon fill="midnightblue" stroke="midnightblue" points="258.038,-169.986 268.484,-168.213 259.212,-163.085 258.038,-169.986"/>
</g>
<!-- Node36&#45;&gt;Node34 -->
<g id="edge94" class="edge"><title>Node36&#45;&gt;Node34</title>
<path fill="none" stroke="midnightblue" d="M198.441,-164.142C215.484,-174.956 243.072,-191.87 268,-204.504 271.124,-206.088 274.367,-207.662 277.656,-209.207"/>
<polygon fill="midnightblue" stroke="midnightblue" points="276.439,-212.499 286.99,-213.466 279.345,-206.13 276.439,-212.499"/>
</g>
<!-- Node36&#45;&gt;Node37 -->
<g id="edge84" class="edge"><title>Node36&#45;&gt;Node37</title>
<path fill="none" stroke="midnightblue" d="M193.408,-142.659C203.734,-132.711 219.236,-117.45 232,-103.504 248.829,-85.1188 247.363,-74.4811 268,-60.5045 273.39,-56.8543 279.495,-53.8287 285.709,-51.3326"/>
<polygon fill="midnightblue" stroke="midnightblue" points="287.244,-54.5008 295.477,-47.8324 284.882,-47.9111 287.244,-54.5008"/>
</g>
<!-- Node38 -->
<g id="node82" class="node"><title>Node38</title>
<a xlink:href="cvm-hfa-search_8h.html#a0210e636ef06f718be0e67753bebaa04" target="_top" xlink:title="This routine configures the application callback routine which will be invoked when a pattern match i...">
<polygon fill="white" stroke="black" points="268.5,-109.504 268.5,-143.504 389.5,-143.504 389.5,-109.504 268.5,-109.504"/>
<text text-anchor="start" x="276.5" y="-130.504" font-family="FreeSans" font-size="10.00">hfa_searchparam_set</text>
<text text-anchor="middle" x="329" y="-117.504" font-family="FreeSans" font-size="10.00">_matchcb</text>
</a>
</g>
<!-- Node36&#45;&gt;Node38 -->
<g id="edge88" class="edge"><title>Node36&#45;&gt;Node38</title>
<path fill="none" stroke="midnightblue" d="M218.337,-146.83C230.515,-144.594 244.54,-142.018 258.426,-139.467"/>
<polygon fill="midnightblue" stroke="midnightblue" points="259.28,-142.869 268.484,-137.62 258.016,-135.984 259.28,-142.869"/>
</g>
<!-- Node39 -->
<g id="node84" class="node"><title>Node39</title>
<a xlink:href="app-utils_8c.html#a97d86363214adebf7bbc22fa81e2c6b6" target="_top" xlink:title="Match callback to count number of matches.">
<polygon fill="white" stroke="black" points="279.5,-70.0045 279.5,-91.0045 378.5,-91.0045 378.5,-70.0045 279.5,-70.0045"/>
<text text-anchor="middle" x="329" y="-78.0045" font-family="FreeSans" font-size="10.00">hfautils_matchcb</text>
</a>
</g>
<!-- Node36&#45;&gt;Node39 -->
<g id="edge90" class="edge"><title>Node36&#45;&gt;Node39</title>
<path fill="none" stroke="midnightblue" d="M196.623,-143.003C213.272,-131.408 241.593,-112.762 268,-100.504 272.62,-98.36 277.535,-96.3438 282.492,-94.4784"/>
<polygon fill="midnightblue" stroke="midnightblue" points="283.767,-97.7395 292.01,-91.0829 281.415,-91.1465 283.767,-97.7395"/>
</g>
<!-- Node37&#45;&gt;Node31 -->
<g id="edge86" class="edge"><title>Node37&#45;&gt;Node31</title>
<path fill="none" stroke="midnightblue" d="M362.68,-36.4285C390.397,-33.0743 429.324,-28.3633 455.986,-25.1367"/>
<polygon fill="midnightblue" stroke="midnightblue" points="456.739,-28.5712 466.246,-23.8951 455.898,-21.6219 456.739,-28.5712"/>
</g>
<!-- Node40&#45;&gt;Node24 -->
<g id="edge98" class="edge"><title>Node40&#45;&gt;Node24</title>
<path fill="none" stroke="midnightblue" d="M230.17,-416.674C283.474,-420.18 369.411,-425.834 426.784,-429.609"/>
<polygon fill="midnightblue" stroke="midnightblue" points="426.588,-433.103 436.796,-430.267 427.048,-426.118 426.588,-433.103"/>
</g>
<!-- Node42 -->
<g id="node94" class="node"><title>Node42</title>
<a xlink:href="flow_8c.html#a6a0b19b2cbf279cbf487dccef83623da" target="_top" xlink:title="High Level API to submit Search Parameter to a Flow.">
<polygon fill="white" stroke="black" points="429.5,-304.004 429.5,-325.004 542.5,-325.004 542.5,-304.004 429.5,-304.004"/>
<text text-anchor="middle" x="486" y="-312.004" font-family="FreeSans" font-size="10.00">hfaf_submit_pktflow</text>
</a>
</g>
<!-- Node41&#45;&gt;Node42 -->
<g id="edge104" class="edge"><title>Node41&#45;&gt;Node42</title>
<path fill="none" stroke="midnightblue" d="M368.618,-314.504C384.033,-314.504 402.124,-314.504 419.424,-314.504"/>
<polygon fill="midnightblue" stroke="midnightblue" points="419.493,-318.005 429.493,-314.504 419.493,-311.005 419.493,-318.005"/>
</g>
<!-- Node43 -->
<g id="node96" class="node"><title>Node43</title>
<a xlink:href="flow_8c.html#a5034d9a3ed0a1dac918c6a8d84fae8c6" target="_top" xlink:title="Low level API to submit search parameter to flow.">
<polygon fill="white" stroke="black" points="586.5,-304.004 586.5,-325.004 709.5,-325.004 709.5,-304.004 586.5,-304.004"/>
<text text-anchor="middle" x="648" y="-312.004" font-family="FreeSans" font-size="10.00">__hfaf_submit_pktflow</text>
</a>
</g>
<!-- Node42&#45;&gt;Node43 -->
<g id="edge106" class="edge"><title>Node42&#45;&gt;Node43</title>
<path fill="none" stroke="midnightblue" d="M542.66,-314.504C553.488,-314.504 564.955,-314.504 576.184,-314.504"/>
<polygon fill="midnightblue" stroke="midnightblue" points="576.405,-318.005 586.405,-314.504 576.405,-311.005 576.405,-318.005"/>
</g>
<!-- Node43&#45;&gt;Node27 -->
<g id="edge110" class="edge"><title>Node43&#45;&gt;Node27</title>
<path fill="none" stroke="midnightblue" d="M694.507,-325.076C701.318,-327.611 708.038,-330.716 714,-334.504 734.186,-347.333 729.403,-362.347 750,-374.504 760.623,-380.775 773.064,-385.079 785.132,-388.034"/>
<polygon fill="midnightblue" stroke="midnightblue" points="784.617,-391.504 795.133,-390.212 786.107,-384.664 784.617,-391.504"/>
</g>
<!-- Node43&#45;&gt;Node35 -->
<g id="edge108" class="edge"><title>Node43&#45;&gt;Node35</title>
<path fill="none" stroke="midnightblue" d="M681.509,-303.895C701.398,-297.623 727.119,-289.552 750,-282.504 756.31,-280.561 762.884,-278.549 769.463,-276.545"/>
<polygon fill="midnightblue" stroke="midnightblue" points="770.525,-279.881 779.075,-273.623 768.489,-273.183 770.525,-279.881"/>
</g>
<!-- Node44&#45;&gt;Node41 -->
<g id="edge116" class="edge"><title>Node44&#45;&gt;Node41</title>
<path fill="none" stroke="midnightblue" d="M213.535,-345.923C232.995,-340.628 258.357,-333.727 280.354,-327.742"/>
<polygon fill="midnightblue" stroke="midnightblue" points="281.46,-331.068 290.19,-325.065 279.622,-324.314 281.46,-331.068"/>
</g>
<!-- Node45 -->
<g id="node102" class="node"><title>Node45</title>
<a xlink:href="hfa-se-flow_8c.html#a2d448a12b1b6ea9cfda8f5a86977133f" target="_top" xlink:title="Iterate over flowdb and found flow which is free to submit.">
<polygon fill="white" stroke="black" points="293.5,-384.004 293.5,-405.004 364.5,-405.004 364.5,-384.004 293.5,-384.004"/>
<text text-anchor="middle" x="329" y="-392.004" font-family="FreeSans" font-size="10.00">refill_cache</text>
</a>
</g>
<!-- Node44&#45;&gt;Node45 -->
<g id="edge114" class="edge"><title>Node44&#45;&gt;Node45</title>
<path fill="none" stroke="midnightblue" d="M213.535,-363.085C233.965,-368.645 260.899,-375.974 283.615,-382.155"/>
<polygon fill="midnightblue" stroke="midnightblue" points="282.819,-385.566 293.388,-384.814 284.657,-378.811 282.819,-385.566"/>
</g>
<!-- Node46 -->
<g id="node105" class="node"><title>Node46</title>
<a xlink:href="hfa-se-flow_8c.html#a2d83c733eacd7afc955c3af18edcb52a" target="_top" xlink:title="Polls for a submitted search instruction of a flow.">
<polygon fill="white" stroke="black" points="286.5,-344.004 286.5,-365.004 371.5,-365.004 371.5,-344.004 286.5,-344.004"/>
<text text-anchor="middle" x="329" y="-352.004" font-family="FreeSans" font-size="10.00">__processflow</text>
</a>
</g>
<!-- Node44&#45;&gt;Node46 -->
<g id="edge118" class="edge"><title>Node44&#45;&gt;Node46</title>
<path fill="none" stroke="midnightblue" d="M213.535,-354.504C231.805,-354.504 255.277,-354.504 276.282,-354.504"/>
<polygon fill="midnightblue" stroke="midnightblue" points="276.361,-358.005 286.361,-354.504 276.361,-351.005 276.361,-358.005"/>
</g>
<!-- Node47 -->
<g id="node107" class="node"><title>Node47</title>
<a xlink:href="flow_8c.html#a1bcaad6265810bf942a4a5d40a3b1e3a" target="_top" xlink:title="All submitted search parameters in Paramlist of flow are polled If low level API __hfaf_process_pktfl...">
<polygon fill="white" stroke="black" points="426.5,-344.004 426.5,-365.004 545.5,-365.004 545.5,-344.004 426.5,-344.004"/>
<text text-anchor="middle" x="486" y="-352.004" font-family="FreeSans" font-size="10.00">hfaf_process_pktflow</text>
</a>
</g>
<!-- Node46&#45;&gt;Node47 -->
<g id="edge120" class="edge"><title>Node46&#45;&gt;Node47</title>
<path fill="none" stroke="midnightblue" d="M371.901,-354.504C385.548,-354.504 401.016,-354.504 416.06,-354.504"/>
<polygon fill="midnightblue" stroke="midnightblue" points="416.379,-358.005 426.379,-354.504 416.379,-351.005 416.379,-358.005"/>
</g>
<!-- Node47&#45;&gt;Node43 -->
<g id="edge132" class="edge"><title>Node47&#45;&gt;Node43</title>
<path fill="none" stroke="midnightblue" d="M528.564,-343.995C549.131,-338.917 574.003,-332.775 595.714,-327.415"/>
<polygon fill="midnightblue" stroke="midnightblue" points="596.57,-330.808 605.44,-325.013 594.892,-324.012 596.57,-330.808"/>
</g>
<!-- Node48 -->
<g id="node109" class="node"><title>Node48</title>
<a xlink:href="flow_8c.html#a2976ab60901b133a56214323fb901663" target="_top" xlink:title="Low level API to poll a flow.">
<polygon fill="white" stroke="black" points="583.5,-344.004 583.5,-365.004 712.5,-365.004 712.5,-344.004 583.5,-344.004"/>
<text text-anchor="middle" x="648" y="-352.004" font-family="FreeSans" font-size="10.00">__hfaf_process_pktflow</text>
</a>
</g>
<!-- Node47&#45;&gt;Node48 -->
<g id="edge122" class="edge"><title>Node47&#45;&gt;Node48</title>
<path fill="none" stroke="midnightblue" d="M545.863,-354.504C554.769,-354.504 564.042,-354.504 573.208,-354.504"/>
<polygon fill="midnightblue" stroke="midnightblue" points="573.486,-358.005 583.486,-354.504 573.486,-351.005 573.486,-358.005"/>
</g>
<!-- Node48&#45;&gt;Node27 -->
<g id="edge126" class="edge"><title>Node48&#45;&gt;Node27</title>
<path fill="none" stroke="midnightblue" d="M697.395,-365.014C724.502,-370.782 758.052,-377.92 785.354,-383.729"/>
<polygon fill="midnightblue" stroke="midnightblue" points="784.976,-387.227 795.485,-385.884 786.433,-380.38 784.976,-387.227"/>
</g>
<!-- Node48&#45;&gt;Node29 -->
<g id="edge124" class="edge"><title>Node48&#45;&gt;Node29</title>
<path fill="none" stroke="midnightblue" d="M694.507,-365.076C701.318,-367.611 708.038,-370.716 714,-374.504 734.186,-387.333 729.403,-402.347 750,-414.504 753.638,-416.652 757.49,-418.569 761.468,-420.28"/>
<polygon fill="midnightblue" stroke="midnightblue" points="760.343,-423.598 770.934,-423.911 762.85,-417.062 760.343,-423.598"/>
</g>
<!-- Node49 -->
<g id="node113" class="node"><title>Node49</title>
<a xlink:href="cvm-hfa-search_8h.html#ab50a2d84e35b5a4a03a23fc90e4dffa0" target="_top" xlink:title="This routine retrieves the reason code after a search operation has been completed by the HFA engine...">
<polygon fill="white" stroke="black" points="775,-331.504 775,-365.504 897,-365.504 897,-331.504 775,-331.504"/>
<text text-anchor="start" x="783" y="-352.504" font-family="FreeSans" font-size="10.00">hfa_searchparam_get</text>
<text text-anchor="middle" x="836" y="-339.504" font-family="FreeSans" font-size="10.00">_hwsearch_reason</text>
</a>
</g>
<!-- Node48&#45;&gt;Node49 -->
<g id="edge128" class="edge"><title>Node48&#45;&gt;Node49</title>
<path fill="none" stroke="midnightblue" d="M712.699,-352.44C729.411,-351.906 747.496,-351.329 764.532,-350.785"/>
<polygon fill="midnightblue" stroke="midnightblue" points="765.099,-354.269 774.982,-350.452 764.875,-347.273 765.099,-354.269"/>
</g>
<!-- Node50 -->
<g id="node115" class="node"><title>Node50</title>
<a xlink:href="cvm-hfa-search_8c.html#a6dbb15dc58155b2c94b19784ad42ef89" target="_top" xlink:title="This routine post&#45;processes the search results from the HFA engine and reports the pattern matches fo...">
<polygon fill="white" stroke="red" points="762.5,-292.004 762.5,-313.004 909.5,-313.004 909.5,-292.004 762.5,-292.004"/>
<text text-anchor="middle" x="836" y="-300.004" font-family="FreeSans" font-size="10.00">hfa_searchctx_getmatches</text>
</a>
</g>
<!-- Node48&#45;&gt;Node50 -->
<g id="edge130" class="edge"><title>Node48&#45;&gt;Node50</title>
<path fill="none" stroke="midnightblue" d="M683.335,-343.993C693.272,-340.983 704.074,-337.662 714,-334.504 730.072,-329.392 733.769,-327.086 750,-322.504 758.775,-320.027 768.116,-317.622 777.285,-315.388"/>
<polygon fill="midnightblue" stroke="midnightblue" points="778.219,-318.763 787.133,-313.036 776.593,-311.955 778.219,-318.763"/>
</g>
</g>
</svg>
