<?xml version="1.0" encoding="UTF-8" standalone="no"?>
<!DOCTYPE svg PUBLIC "-//W3C//DTD SVG 1.1//EN"
 "http://www.w3.org/Graphics/SVG/1.1/DTD/svg11.dtd">
<!-- Generated by graphviz version 2.24.0 (20090616.2323)
 -->
<!-- Title: __submitflow Pages: 1 -->
<svg width="686pt" height="82pt"
 viewBox="0.00 0.00 686.00 82.00" xmlns="http://www.w3.org/2000/svg" xmlns:xlink="http://www.w3.org/1999/xlink">
<g id="graph1" class="graph" transform="scale(1 1) rotate(0) translate(4 78)">
<title>__submitflow</title>
<polygon fill="white" stroke="white" points="-4,5 -4,-78 683,-78 683,5 -4,5"/>
<!-- Node1 -->
<g id="node1" class="node"><title>Node1</title>
<polygon fill="#bfbfbf" stroke="black" points="0.5,-23.5 0.5,-44.5 79.5,-44.5 79.5,-23.5 0.5,-23.5"/>
<text text-anchor="middle" x="40" y="-31.5" font-family="FreeSans" font-size="10.00">__submitflow</text>
</g>
<!-- Node2 -->
<g id="node3" class="node"><title>Node2</title>
<a xlink:href="flow_8c.html#a6a0b19b2cbf279cbf487dccef83623da" target="_top" xlink:title="High Level API to submit Search Parameter to a Flow.">
<polygon fill="white" stroke="black" points="116.5,-23.5 116.5,-44.5 229.5,-44.5 229.5,-23.5 116.5,-23.5"/>
<text text-anchor="middle" x="173" y="-31.5" font-family="FreeSans" font-size="10.00">hfaf_submit_pktflow</text>
</a>
</g>
<!-- Node1&#45;&gt;Node2 -->
<g id="edge2" class="edge"><title>Node1&#45;&gt;Node2</title>
<path fill="none" stroke="midnightblue" d="M79.5443,-34C87.8894,-34 96.9163,-34 105.957,-34"/>
<polygon fill="midnightblue" stroke="midnightblue" points="106.133,-37.5001 116.133,-34 106.133,-30.5001 106.133,-37.5001"/>
</g>
<!-- Node3 -->
<g id="node5" class="node"><title>Node3</title>
<a xlink:href="flow_8c.html#a5034d9a3ed0a1dac918c6a8d84fae8c6" target="_top" xlink:title="Low level API to submit search parameter to flow.">
<polygon fill="white" stroke="black" points="266.5,-23.5 266.5,-44.5 389.5,-44.5 389.5,-23.5 266.5,-23.5"/>
<text text-anchor="middle" x="328" y="-31.5" font-family="FreeSans" font-size="10.00">__hfaf_submit_pktflow</text>
</a>
</g>
<!-- Node2&#45;&gt;Node3 -->
<g id="edge4" class="edge"><title>Node2&#45;&gt;Node3</title>
<path fill="none" stroke="midnightblue" d="M229.836,-34C238.499,-34 247.534,-34 256.462,-34"/>
<polygon fill="midnightblue" stroke="midnightblue" points="256.472,-37.5001 266.472,-34 256.472,-30.5001 256.472,-37.5001"/>
</g>
<!-- Node4 -->
<g id="node7" class="node"><title>Node4</title>
<a xlink:href="cvm-hfa-search_8c.html#a0c36da280b39bd8afdf6081baea24472" target="_top" xlink:title="This routine performs a pattern search using the given parameters in a non&#45;blocking manner...">
<polygon fill="white" stroke="black" points="426.5,-40 426.5,-74 549.5,-74 549.5,-40 426.5,-40"/>
<text text-anchor="start" x="434.5" y="-61" font-family="FreeSans" font-size="10.00">hfa_searchctx_search</text>
<text text-anchor="middle" x="488" y="-48" font-family="FreeSans" font-size="10.00">_async</text>
</a>
</g>
<!-- Node3&#45;&gt;Node4 -->
<g id="edge6" class="edge"><title>Node3&#45;&gt;Node4</title>
<path fill="none" stroke="midnightblue" d="M389.86,-42.8924C398.549,-44.1415 407.54,-45.4339 416.392,-46.7064"/>
<polygon fill="midnightblue" stroke="midnightblue" points="415.908,-50.1727 426.304,-48.1312 416.904,-43.2439 415.908,-50.1727"/>
</g>
<!-- Node5 -->
<g id="node9" class="node"><title>Node5</title>
<a xlink:href="cvm-hfa-osapi_8h.html#acacbbbac0cb1e827a08946bcdf13209b" target="_top" xlink:title="hfa_os_listdel">
<polygon fill="white" stroke="black" points="447.5,-0.5 447.5,-21.5 528.5,-21.5 528.5,-0.5 447.5,-0.5"/>
<text text-anchor="middle" x="488" y="-8.5" font-family="FreeSans" font-size="10.00">hfa_os_listdel</text>
</a>
</g>
<!-- Node3&#45;&gt;Node5 -->
<g id="edge8" class="edge"><title>Node3&#45;&gt;Node5</title>
<path fill="none" stroke="midnightblue" d="M389.86,-25.1076C405.436,-22.8686 421.98,-20.4903 436.959,-18.3371"/>
<polygon fill="midnightblue" stroke="midnightblue" points="437.647,-21.7743 447.048,-16.8869 436.651,-14.8455 437.647,-21.7743"/>
</g>
<!-- Node6 -->
<g id="node11" class="node"><title>Node6</title>
<a xlink:href="cvm-hfa-osapi_8h.html#a8f7a99f931e344eaaf9dd1fadd341a46" target="_top" xlink:title="__hfa_os_listdel">
<polygon fill="white" stroke="black" points="586.5,-0.5 586.5,-21.5 677.5,-21.5 677.5,-0.5 586.5,-0.5"/>
<text text-anchor="middle" x="632" y="-8.5" font-family="FreeSans" font-size="10.00">__hfa_os_listdel</text>
</a>
</g>
<!-- Node5&#45;&gt;Node6 -->
<g id="edge10" class="edge"><title>Node5&#45;&gt;Node6</title>
<path fill="none" stroke="midnightblue" d="M528.879,-11C543.613,-11 560.498,-11 576.283,-11"/>
<polygon fill="midnightblue" stroke="midnightblue" points="576.462,-14.5001 586.462,-11 576.462,-7.5001 576.462,-14.5001"/>
</g>
</g>
</svg>
