<?xml version="1.0" encoding="UTF-8" standalone="no"?>
<!DOCTYPE svg PUBLIC "-//W3C//DTD SVG 1.1//EN"
 "http://www.w3.org/Graphics/SVG/1.1/DTD/svg11.dtd">
<!-- Generated by graphviz version 2.24.0 (20090616.2323)
 -->
<!-- Title: poll Pages: 1 -->
<svg width="1364pt" height="839pt"
 viewBox="0.00 0.00 1364.00 839.00" xmlns="http://www.w3.org/2000/svg" xmlns:xlink="http://www.w3.org/1999/xlink">
<g id="graph1" class="graph" transform="scale(1 1) rotate(0) translate(4 835)">
<title>poll</title>
<polygon fill="white" stroke="white" points="-4,5 -4,-835 1361,-835 1361,5 -4,5"/>
<!-- Node1 -->
<g id="node1" class="node"><title>Node1</title>
<polygon fill="#bfbfbf" stroke="black" points="0.5,-237.5 0.5,-258.5 33.5,-258.5 33.5,-237.5 0.5,-237.5"/>
<text text-anchor="middle" x="17" y="-245.5" font-family="FreeSans" font-size="10.00">poll</text>
</g>
<!-- Node2 -->
<g id="node3" class="node"><title>Node2</title>
<a xlink:href="hfa-lnx-ctx_8c.html#a71e1d3d18cc48b90a1ecde583ffb3f7a" target="_top" xlink:title="poll_searchctx">
<polygon fill="white" stroke="black" points="70,-237.5 70,-258.5 156,-258.5 156,-237.5 70,-237.5"/>
<text text-anchor="middle" x="113" y="-245.5" font-family="FreeSans" font-size="10.00">poll_searchctx</text>
</a>
</g>
<!-- Node1&#45;&gt;Node2 -->
<g id="edge2" class="edge"><title>Node1&#45;&gt;Node2</title>
<path fill="none" stroke="midnightblue" d="M33.7219,-248C41.0597,-248 50.1249,-248 59.4734,-248"/>
<polygon fill="midnightblue" stroke="midnightblue" points="59.6605,-251.5 69.6605,-248 59.6604,-244.5 59.6605,-251.5"/>
</g>
<!-- Node3 -->
<g id="node5" class="node"><title>Node3</title>
<a xlink:href="cvm-hfa-search_8c.html#a6a8e1d7e70e0a10520302df5651e5fc5" target="_top" xlink:title="This routine provides the status of an outstanding pattern search operation initiated using hfa_searc...">
<polygon fill="white" stroke="black" points="846,-20.5 846,-41.5 1018,-41.5 1018,-20.5 846,-20.5"/>
<text text-anchor="middle" x="932" y="-28.5" font-family="FreeSans" font-size="10.00">hfa_searchctx_get_searchstatus</text>
</a>
</g>
<!-- Node2&#45;&gt;Node3 -->
<g id="edge4" class="edge"><title>Node2&#45;&gt;Node3</title>
<path fill="none" stroke="midnightblue" d="M119.497,-237.292C148.296,-191.319 269.627,-13 419,-13 419,-13 419,-13 621,-13 693.108,-13 774.464,-17.8824 835.876,-22.5616"/>
<polygon fill="midnightblue" stroke="midnightblue" points="835.701,-26.0585 845.942,-23.3403 836.241,-19.0793 835.701,-26.0585"/>
</g>
<!-- Node7 -->
<g id="node13" class="node"><title>Node7</title>
<a xlink:href="cvm-hfa-search_8h.html#ab50a2d84e35b5a4a03a23fc90e4dffa0" target="_top" xlink:title="This routine retrieves the reason code after a search operation has been completed by the HFA engine...">
<polygon fill="white" stroke="black" points="686,-683 686,-717 808,-717 808,-683 686,-683"/>
<text text-anchor="start" x="694" y="-704" font-family="FreeSans" font-size="10.00">hfa_searchparam_get</text>
<text text-anchor="middle" x="747" y="-691" font-family="FreeSans" font-size="10.00">_hwsearch_reason</text>
</a>
</g>
<!-- Node2&#45;&gt;Node7 -->
<g id="edge12" class="edge"><title>Node2&#45;&gt;Node7</title>
<path fill="none" stroke="midnightblue" d="M118.214,-258.506C143.625,-308.055 259.753,-516 419,-516 419,-516 419,-516 528,-516 626.683,-516 602.088,-618.967 684,-674 686.148,-675.443 688.39,-676.83 690.692,-678.159"/>
<polygon fill="midnightblue" stroke="midnightblue" points="689.336,-681.402 699.81,-682.997 692.617,-675.218 689.336,-681.402"/>
</g>
<!-- Node8 -->
<g id="node15" class="node"><title>Node8</title>
<a xlink:href="cvm-hfa-search_8c.html#a6dbb15dc58155b2c94b19784ad42ef89" target="_top" xlink:title="This routine post&#45;processes the search results from the HFA engine and reports the pattern matches fo...">
<polygon fill="white" stroke="black" points="192.5,-237.5 192.5,-258.5 339.5,-258.5 339.5,-237.5 192.5,-237.5"/>
<text text-anchor="middle" x="266" y="-245.5" font-family="FreeSans" font-size="10.00">hfa_searchctx_getmatches</text>
</a>
</g>
<!-- Node2&#45;&gt;Node8 -->
<g id="edge14" class="edge"><title>Node2&#45;&gt;Node8</title>
<path fill="none" stroke="midnightblue" d="M156.026,-248C164.246,-248 173.108,-248 182.108,-248"/>
<polygon fill="midnightblue" stroke="midnightblue" points="182.301,-251.5 192.301,-248 182.301,-244.5 182.301,-251.5"/>
</g>
<!-- Node4 -->
<g id="node7" class="node"><title>Node4</title>
<a xlink:href="cvm-hfa_8c.html#a4753d2dd586e19676b1a59dd16baaeed" target="_top" xlink:title="Obtain status of submitted insruction.">
<polygon fill="white" stroke="black" points="1054.5,-20.5 1054.5,-41.5 1187.5,-41.5 1187.5,-20.5 1054.5,-20.5"/>
<text text-anchor="middle" x="1121" y="-28.5" font-family="FreeSans" font-size="10.00">hfa_dev_getasyncstatus</text>
</a>
</g>
<!-- Node3&#45;&gt;Node4 -->
<g id="edge6" class="edge"><title>Node3&#45;&gt;Node4</title>
<path fill="none" stroke="midnightblue" d="M1018.2,-31C1026.95,-31 1035.79,-31 1044.43,-31"/>
<polygon fill="midnightblue" stroke="midnightblue" points="1044.45,-34.5001 1054.45,-31 1044.45,-27.5001 1044.45,-34.5001"/>
</g>
<!-- Node5 -->
<g id="node9" class="node"><title>Node5</title>
<a xlink:href="cvm-hfa-instr_8h.html#a56f2522dcba965745a1bc239fc432dca" target="_top" xlink:title="Gets done from RWORD0.">
<polygon fill="white" stroke="black" points="1228.5,-40.5 1228.5,-61.5 1351.5,-61.5 1351.5,-40.5 1228.5,-40.5"/>
<text text-anchor="middle" x="1290" y="-48.5" font-family="FreeSans" font-size="10.00">cvm_hfa_rslt_getdone</text>
</a>
</g>
<!-- Node4&#45;&gt;Node5 -->
<g id="edge8" class="edge"><title>Node4&#45;&gt;Node5</title>
<path fill="none" stroke="midnightblue" d="M1187.79,-38.9045C1197.83,-40.0919 1208.21,-41.3206 1218.34,-42.5194"/>
<polygon fill="midnightblue" stroke="midnightblue" points="1218.02,-46.0061 1228.36,-43.7057 1218.84,-39.0546 1218.02,-46.0061"/>
</g>
<!-- Node6 -->
<g id="node11" class="node"><title>Node6</title>
<a xlink:href="cvm-hfa-instr_8h.html#a9700a50b68b6616506528eb725a8bda1" target="_top" xlink:title="Gets reason from RWORD0.">
<polygon fill="white" stroke="black" points="1224.5,-0.5 1224.5,-21.5 1355.5,-21.5 1355.5,-0.5 1224.5,-0.5"/>
<text text-anchor="middle" x="1290" y="-8.5" font-family="FreeSans" font-size="10.00">cvm_hfa_rslt_getreason</text>
</a>
</g>
<!-- Node4&#45;&gt;Node6 -->
<g id="edge10" class="edge"><title>Node4&#45;&gt;Node6</title>
<path fill="none" stroke="midnightblue" d="M1187.79,-23.0955C1196.41,-22.0753 1205.29,-21.0246 1214.05,-19.9885"/>
<polygon fill="midnightblue" stroke="midnightblue" points="1214.73,-23.4328 1224.24,-18.7817 1213.9,-16.4813 1214.73,-23.4328"/>
</g>
<!-- Node9 -->
<g id="node17" class="node"><title>Node9</title>
<a xlink:href="cvm-hfa-common_8h.html#a0da7c57174fb96d75ae9cc2ed3116a05" target="_top" xlink:title="Dump buffer pointed by &quot;buf&quot; in readable format.">
<polygon fill="white" stroke="black" points="376,-197.5 376,-218.5 462,-218.5 462,-197.5 376,-197.5"/>
<text text-anchor="middle" x="419" y="-205.5" font-family="FreeSans" font-size="10.00">hfa_dump_buf</text>
</a>
</g>
<!-- Node8&#45;&gt;Node9 -->
<g id="edge16" class="edge"><title>Node8&#45;&gt;Node9</title>
<path fill="none" stroke="midnightblue" d="M306.199,-237.49C325.449,-232.458 348.691,-226.381 369.064,-221.055"/>
<polygon fill="midnightblue" stroke="midnightblue" points="370.015,-224.424 378.804,-218.509 368.244,-217.652 370.015,-224.424"/>
</g>
<!-- Node10 -->
<g id="node19" class="node"><title>Node10</title>
<a xlink:href="cvm-hfa-pp_8c.html#a02d24f276578f8a39a93968262a08f1d" target="_top" xlink:title="pp">
<polygon fill="white" stroke="black" points="404.5,-237.5 404.5,-258.5 433.5,-258.5 433.5,-237.5 404.5,-237.5"/>
<text text-anchor="middle" x="419" y="-245.5" font-family="FreeSans" font-size="10.00">pp</text>
</a>
</g>
<!-- Node8&#45;&gt;Node10 -->
<g id="edge18" class="edge"><title>Node8&#45;&gt;Node10</title>
<path fill="none" stroke="midnightblue" d="M339.811,-248C359.297,-248 379.016,-248 393.902,-248"/>
<polygon fill="midnightblue" stroke="midnightblue" points="394.26,-251.5 404.26,-248 394.26,-244.5 394.26,-251.5"/>
</g>
<!-- Node11 -->
<g id="node21" class="node"><title>Node11</title>
<a xlink:href="pp_8h.html#af7a68f9e08d3b54012ad008a4f47e1cd" target="_top" xlink:title="pphfa">
<polygon fill="white" stroke="black" points="506,-177.5 506,-198.5 550,-198.5 550,-177.5 506,-177.5"/>
<text text-anchor="middle" x="528" y="-185.5" font-family="FreeSans" font-size="10.00">pphfa</text>
</a>
</g>
<!-- Node10&#45;&gt;Node11 -->
<g id="edge20" class="edge"><title>Node10&#45;&gt;Node11</title>
<path fill="none" stroke="midnightblue" d="M433.527,-241.721C441.952,-237.961 452.702,-232.961 462,-228 475.847,-220.612 490.841,-211.61 503.033,-204.018"/>
<polygon fill="midnightblue" stroke="midnightblue" points="505.144,-206.825 511.745,-198.537 501.417,-200.9 505.144,-206.825"/>
</g>
<!-- Node12 -->
<g id="node23" class="node"><title>Node12</title>
<a xlink:href="cvm-hfa-res_8c.html#ad0de0b790a5786053d59797884dbdd23" target="_top" xlink:title="Rinit">
<polygon fill="white" stroke="black" points="510,-137.5 510,-158.5 546,-158.5 546,-137.5 510,-137.5"/>
<text text-anchor="middle" x="528" y="-145.5" font-family="FreeSans" font-size="10.00">Rinit</text>
</a>
</g>
<!-- Node10&#45;&gt;Node12 -->
<g id="edge22" class="edge"><title>Node10&#45;&gt;Node12</title>
<path fill="none" stroke="midnightblue" d="M433.807,-243.586C442.742,-240.361 453.922,-235.271 462,-228 485.114,-207.195 476.539,-190.507 498,-168 499.188,-166.754 500.467,-165.545 501.803,-164.38"/>
<polygon fill="midnightblue" stroke="midnightblue" points="504.039,-167.076 509.858,-158.222 499.788,-161.515 504.039,-167.076"/>
</g>
<!-- Node13 -->
<g id="node25" class="node"><title>Node13</title>
<a xlink:href="cvm-hfa-pp_8c.html#adcc1149c628372e2e566c246870929cb" target="_top" xlink:title="infoentry">
<polygon fill="white" stroke="black" points="498.5,-297.5 498.5,-318.5 557.5,-318.5 557.5,-297.5 498.5,-297.5"/>
<text text-anchor="middle" x="528" y="-305.5" font-family="FreeSans" font-size="10.00">infoentry</text>
</a>
</g>
<!-- Node10&#45;&gt;Node13 -->
<g id="edge24" class="edge"><title>Node10&#45;&gt;Node13</title>
<path fill="none" stroke="midnightblue" d="M433.7,-256.092C450.607,-265.398 478.75,-280.89 499.899,-292.532"/>
<polygon fill="midnightblue" stroke="midnightblue" points="498.321,-295.658 508.77,-297.415 501.697,-289.526 498.321,-295.658"/>
</g>
<!-- Node48 -->
<g id="node98" class="node"><title>Node48</title>
<a xlink:href="cvm-hfa-res_8c.html#a6c56aa24fa6551b23e4283ae2d5bcad8" target="_top" xlink:title="Rreport1">
<polygon fill="white" stroke="black" points="499.5,-257.5 499.5,-278.5 556.5,-278.5 556.5,-257.5 499.5,-257.5"/>
<text text-anchor="middle" x="528" y="-265.5" font-family="FreeSans" font-size="10.00">Rreport1</text>
</a>
</g>
<!-- Node10&#45;&gt;Node48 -->
<g id="edge100" class="edge"><title>Node10&#45;&gt;Node48</title>
<path fill="none" stroke="midnightblue" d="M433.7,-250.697C447.886,-253.3 469.983,-257.355 489.221,-260.885"/>
<polygon fill="midnightblue" stroke="midnightblue" points="488.787,-264.363 499.255,-262.726 490.051,-257.478 488.787,-264.363"/>
</g>
<!-- Node50 -->
<g id="node102" class="node"><title>Node50</title>
<a xlink:href="cvm-hfa-res_8c.html#a38aa04fce135199ec3bb8726da163846" target="_top" xlink:title="Rfinish">
<polygon fill="white" stroke="black" points="504,-217.5 504,-238.5 552,-238.5 552,-217.5 504,-217.5"/>
<text text-anchor="middle" x="528" y="-225.5" font-family="FreeSans" font-size="10.00">Rfinish</text>
</a>
</g>
<!-- Node10&#45;&gt;Node50 -->
<g id="edge104" class="edge"><title>Node10&#45;&gt;Node50</title>
<path fill="none" stroke="midnightblue" d="M433.7,-245.303C449.04,-242.488 473.63,-237.976 493.854,-234.265"/>
<polygon fill="midnightblue" stroke="midnightblue" points="494.755,-237.658 503.959,-232.411 493.492,-230.773 494.755,-237.658"/>
</g>
<!-- Node14 -->
<g id="node27" class="node"><title>Node14</title>
<a xlink:href="hfa-lnx_8c.html#a78ffddbcd7cdd164889cfb53ea367886" target="_top" xlink:title="entry">
<polygon fill="white" stroke="black" points="600.5,-337.5 600.5,-358.5 641.5,-358.5 641.5,-337.5 600.5,-337.5"/>
<text text-anchor="middle" x="621" y="-345.5" font-family="FreeSans" font-size="10.00">entry</text>
</a>
</g>
<!-- Node13&#45;&gt;Node14 -->
<g id="edge26" class="edge"><title>Node13&#45;&gt;Node14</title>
<path fill="none" stroke="midnightblue" d="M552.435,-318.51C564.155,-323.551 578.31,-329.639 590.708,-334.971"/>
<polygon fill="midnightblue" stroke="midnightblue" points="589.625,-338.315 600.194,-339.051 592.391,-331.885 589.625,-338.315"/>
</g>
<!-- Node47 -->
<g id="node96" class="node"><title>Node47</title>
<a xlink:href="cvm-hfa-pp_8c.html#a85b4c8af06430f26eab8afdeea3a7395" target="_top" xlink:title="hashidx">
<polygon fill="white" stroke="black" points="594,-297.5 594,-318.5 648,-318.5 648,-297.5 594,-297.5"/>
<text text-anchor="middle" x="621" y="-305.5" font-family="FreeSans" font-size="10.00">hashidx</text>
</a>
</g>
<!-- Node13&#45;&gt;Node47 -->
<g id="edge98" class="edge"><title>Node13&#45;&gt;Node47</title>
<path fill="none" stroke="midnightblue" d="M557.681,-308C565.92,-308 574.973,-308 583.592,-308"/>
<polygon fill="midnightblue" stroke="midnightblue" points="583.807,-311.5 593.807,-308 583.807,-304.5 583.807,-311.5"/>
</g>
<!-- Node14&#45;&gt;Node7 -->
<g id="edge84" class="edge"><title>Node14&#45;&gt;Node7</title>
<path fill="none" stroke="midnightblue" d="M622.91,-358.618C632.891,-414.021 678.802,-667.639 684,-674 684.606,-674.742 685.237,-675.462 685.89,-676.163"/>
<polygon fill="midnightblue" stroke="midnightblue" points="683.808,-678.991 693.65,-682.915 688.403,-673.71 683.808,-678.991"/>
</g>
<!-- Node14&#45;&gt;Node8 -->
<g id="edge90" class="edge"><title>Node14&#45;&gt;Node8</title>
<path fill="none" stroke="midnightblue" d="M600.323,-345.733C575.703,-342.783 533.456,-336.926 498,-328 426.79,-310.073 346.306,-280.023 301.313,-262.3"/>
<polygon fill="midnightblue" stroke="midnightblue" points="302.585,-259.039 291.999,-258.607 300.005,-265.546 302.585,-259.039"/>
</g>
<!-- Node15 -->
<g id="node29" class="node"><title>Node15</title>
<a xlink:href="hfa-lnx_8c.html#a4c3443f524b4c0d95639694f0b74e850" target="_top" xlink:title="Process command line options, Read graph and payload.">
<polygon fill="white" stroke="black" points="700,-643.5 700,-664.5 794,-664.5 794,-643.5 700,-643.5"/>
<text text-anchor="middle" x="747" y="-651.5" font-family="FreeSans" font-size="10.00">process_options</text>
</a>
</g>
<!-- Node14&#45;&gt;Node15 -->
<g id="edge28" class="edge"><title>Node14&#45;&gt;Node15</title>
<path fill="none" stroke="midnightblue" d="M622.959,-358.553C629.079,-390.207 649.517,-486.689 684,-560 697.15,-587.958 717.919,-617.04 731.983,-635.314"/>
<polygon fill="midnightblue" stroke="midnightblue" points="729.366,-637.648 738.286,-643.365 734.877,-633.333 729.366,-637.648"/>
</g>
<!-- Node19 -->
<g id="node37" class="node"><title>Node19</title>
<a xlink:href="cvm-hfa_8c.html#a873768042b716d60996ec5d858fc8fd9" target="_top" xlink:title="This function must be called by application to initialize HFA engine and setup resources for HFA hard...">
<polygon fill="white" stroke="red" points="710,-437.5 710,-458.5 784,-458.5 784,-437.5 710,-437.5"/>
<text text-anchor="middle" x="747" y="-445.5" font-family="FreeSans" font-size="10.00">hfa_dev_init</text>
</a>
</g>
<!-- Node14&#45;&gt;Node19 -->
<g id="edge36" class="edge"><title>Node14&#45;&gt;Node19</title>
<path fill="none" stroke="midnightblue" d="M626.645,-358.751C636.184,-375.895 657.11,-409.383 684,-428 688.956,-431.431 694.531,-434.297 700.262,-436.684"/>
<polygon fill="midnightblue" stroke="midnightblue" points="699.38,-440.089 709.973,-440.265 701.802,-433.521 699.38,-440.089"/>
</g>
<!-- Node36 -->
<g id="node71" class="node"><title>Node36</title>
<a xlink:href="hfa-lnx_8c.html#a546f3769e735d4bef0bfab1cba56921c" target="_top" xlink:title="Load graph to HFA memory and cache.">
<polygon fill="white" stroke="red" points="712.5,-357.5 712.5,-378.5 781.5,-378.5 781.5,-357.5 712.5,-357.5"/>
<text text-anchor="middle" x="747" y="-365.5" font-family="FreeSans" font-size="10.00">graph_load</text>
</a>
</g>
<!-- Node14&#45;&gt;Node36 -->
<g id="edge70" class="edge"><title>Node14&#45;&gt;Node36</title>
<path fill="none" stroke="midnightblue" d="M641.525,-351.258C657.945,-353.864 681.57,-357.614 702.301,-360.905"/>
<polygon fill="midnightblue" stroke="midnightblue" points="701.776,-364.365 712.201,-362.476 702.874,-357.452 701.776,-364.365"/>
</g>
<!-- Node37 -->
<g id="node73" class="node"><title>Node37</title>
<a xlink:href="hfa-lnx_8c.html#a924d2733ebc7a856f8c3fd293193ba44" target="_top" xlink:title="Initialize search context.">
<polygon fill="white" stroke="red" points="709.5,-317.5 709.5,-338.5 784.5,-338.5 784.5,-317.5 709.5,-317.5"/>
<text text-anchor="middle" x="747" y="-325.5" font-family="FreeSans" font-size="10.00">initialize_ctx</text>
</a>
</g>
<!-- Node14&#45;&gt;Node37 -->
<g id="edge72" class="edge"><title>Node14&#45;&gt;Node37</title>
<path fill="none" stroke="midnightblue" d="M641.525,-344.742C657.214,-342.252 679.482,-338.717 699.517,-335.537"/>
<polygon fill="midnightblue" stroke="midnightblue" points="700.11,-338.987 709.438,-333.962 699.013,-332.073 700.11,-338.987"/>
</g>
<!-- Node38 -->
<g id="node75" class="node"><title>Node38</title>
<a xlink:href="app-utils_8c.html#a4b47f3c9c5a0b3eaee64e264171628a3" target="_top" xlink:title="This routine reads data of chunksize/a packet from given payload(Normal/PCAP) file and returns data b...">
<polygon fill="white" stroke="red" points="684,-277.5 684,-298.5 810,-298.5 810,-277.5 684,-277.5"/>
<text text-anchor="middle" x="747" y="-285.5" font-family="FreeSans" font-size="10.00">hfautils_parse_payload</text>
</a>
</g>
<!-- Node14&#45;&gt;Node38 -->
<g id="edge74" class="edge"><title>Node14&#45;&gt;Node38</title>
<path fill="none" stroke="midnightblue" d="M635.401,-337.332C647.786,-328.538 666.389,-316.217 684,-308 688.689,-305.812 693.681,-303.774 698.724,-301.902"/>
<polygon fill="midnightblue" stroke="midnightblue" points="700.136,-305.116 708.418,-298.508 697.823,-298.509 700.136,-305.116"/>
</g>
<!-- Node39 -->
<g id="node77" class="node"><title>Node39</title>
<a xlink:href="cvm-hfa-search_8h.html#ae9741e867075c9b8cc63a7d889d5bf20" target="_top" xlink:title="This routine is a variant of hfa_searchparam_set_inputiovec() when the previously searched input IO v...">
<polygon fill="white" stroke="black" points="686.5,-225 686.5,-259 807.5,-259 807.5,-225 686.5,-225"/>
<text text-anchor="start" x="694.5" y="-246" font-family="FreeSans" font-size="10.00">hfa_searchparam_set</text>
<text text-anchor="middle" x="747" y="-233" font-family="FreeSans" font-size="10.00">_inputiovec_0_n</text>
</a>
</g>
<!-- Node14&#45;&gt;Node39 -->
<g id="edge76" class="edge"><title>Node14&#45;&gt;Node39</title>
<path fill="none" stroke="midnightblue" d="M637.573,-337.326C641.242,-334.543 644.943,-331.37 648,-328 668.896,-304.969 660.434,-288.292 684,-268 685.325,-266.859 686.708,-265.763 688.136,-264.71"/>
<polygon fill="midnightblue" stroke="midnightblue" points="690.242,-267.517 696.742,-259.151 686.443,-261.637 690.242,-267.517"/>
</g>
<!-- Node40 -->
<g id="node79" class="node"><title>Node40</title>
<a xlink:href="cvm-hfa-search_8h.html#a12882fa53f8ec49b9b2950711161db42" target="_top" xlink:title="This routine sets the output buffer in the sparam.">
<polygon fill="white" stroke="black" points="686.5,-173 686.5,-207 807.5,-207 807.5,-173 686.5,-173"/>
<text text-anchor="start" x="694.5" y="-194" font-family="FreeSans" font-size="10.00">hfa_searchparam_set</text>
<text text-anchor="middle" x="747" y="-181" font-family="FreeSans" font-size="10.00">_output</text>
</a>
</g>
<!-- Node14&#45;&gt;Node40 -->
<g id="edge78" class="edge"><title>Node14&#45;&gt;Node40</title>
<path fill="none" stroke="midnightblue" d="M638.722,-337.366C642.167,-334.659 645.484,-331.508 648,-328 678.47,-285.51 648.544,-254.428 684,-216 684.88,-215.046 685.8,-214.126 686.756,-213.239"/>
<polygon fill="midnightblue" stroke="midnightblue" points="688.947,-215.969 694.686,-207.063 684.646,-210.446 688.947,-215.969"/>
</g>
<!-- Node41 -->
<g id="node81" class="node"><title>Node41</title>
<a xlink:href="cvm-hfa-search_8c.html#a57d7540278164eb6b6c132be00db0de5" target="_top" xlink:title="This routine performs a pattern search using the given parameters in a blocking manner.">
<polygon fill="white" stroke="red" points="685.5,-397.5 685.5,-418.5 808.5,-418.5 808.5,-397.5 685.5,-397.5"/>
<text text-anchor="middle" x="747" y="-405.5" font-family="FreeSans" font-size="10.00">hfa_searchctx_search</text>
</a>
</g>
<!-- Node14&#45;&gt;Node41 -->
<g id="edge80" class="edge"><title>Node14&#45;&gt;Node41</title>
<path fill="none" stroke="midnightblue" d="M635.401,-358.668C647.786,-367.462 666.389,-379.783 684,-388 688.689,-390.188 693.681,-392.226 698.724,-394.098"/>
<polygon fill="midnightblue" stroke="midnightblue" points="697.823,-397.491 708.418,-397.492 700.136,-390.884 697.823,-397.491"/>
</g>
<!-- Node42 -->
<g id="node85" class="node"><title>Node42</title>
<a xlink:href="cvm-hfa-common_8h.html#ad117ba199386b8d427cbb04f288b5905" target="_top" xlink:title="Dump HFA related registers.">
<polygon fill="white" stroke="black" points="701.5,-133.5 701.5,-154.5 792.5,-154.5 792.5,-133.5 701.5,-133.5"/>
<text text-anchor="middle" x="747" y="-141.5" font-family="FreeSans" font-size="10.00">hfa_dump_regs</text>
</a>
</g>
<!-- Node14&#45;&gt;Node42 -->
<g id="edge86" class="edge"><title>Node14&#45;&gt;Node42</title>
<path fill="none" stroke="midnightblue" d="M639.256,-337.32C642.582,-334.65 645.717,-331.525 648,-328 688.562,-265.362 633.696,-219.121 684,-164 686.433,-161.334 689.219,-159.021 692.235,-157.015"/>
<polygon fill="midnightblue" stroke="midnightblue" points="694.116,-159.977 701.24,-152.134 690.78,-153.822 694.116,-159.977"/>
</g>
<!-- Node43 -->
<g id="node87" class="node"><title>Node43</title>
<a xlink:href="cvm-hfa-search_8h.html#ad18e328b50b109e1e44821f3d006bd9d" target="_top" xlink:title="This routine returns the data&#45;buffer offset.">
<polygon fill="white" stroke="black" points="686,-81 686,-115 808,-115 808,-81 686,-81"/>
<text text-anchor="start" x="694" y="-102" font-family="FreeSans" font-size="10.00">hfa_searchparam_get</text>
<text text-anchor="middle" x="747" y="-89" font-family="FreeSans" font-size="10.00">_hwsearch_pdboff</text>
</a>
</g>
<!-- Node14&#45;&gt;Node43 -->
<g id="edge88" class="edge"><title>Node14&#45;&gt;Node43</title>
<path fill="none" stroke="midnightblue" d="M639.37,-337.392C642.688,-334.717 645.791,-331.572 648,-328 696.433,-249.701 626.321,-195.761 684,-124 684.6,-123.254 685.225,-122.528 685.873,-121.824"/>
<polygon fill="midnightblue" stroke="midnightblue" points="688.392,-124.269 693.589,-115.036 683.769,-119.013 688.392,-124.269"/>
</g>
<!-- Node44 -->
<g id="node90" class="node"><title>Node44</title>
<a xlink:href="app-utils_8c.html#a633038357891aa5147b77fe939f300bf" target="_top" xlink:title="Print pattern matches via match buffer and cleanup all matches.">
<polygon fill="white" stroke="red" points="685,-41.5 685,-62.5 809,-62.5 809,-41.5 685,-41.5"/>
<text text-anchor="middle" x="747" y="-49.5" font-family="FreeSans" font-size="10.00">hfautils_print_matches</text>
</a>
</g>
<!-- Node14&#45;&gt;Node44 -->
<g id="edge92" class="edge"><title>Node14&#45;&gt;Node44</title>
<path fill="none" stroke="midnightblue" d="M639.467,-337.451C642.778,-334.771 645.853,-331.61 648,-328 706.725,-229.244 609.845,-159.763 684,-72 684.995,-70.8222 686.06,-69.7128 687.183,-68.6681"/>
<polygon fill="midnightblue" stroke="midnightblue" points="689.362,-71.4101 695.349,-62.6689 685.218,-65.7687 689.362,-71.4101"/>
</g>
<!-- Node45 -->
<g id="node92" class="node"><title>Node45</title>
<a xlink:href="cvm-hfa-search_8h.html#ac5bcfbfda7036d9aca28a3c5828847a5" target="_top" xlink:title="This routine retrieves flags returned by post&#45;processor.">
<polygon fill="white" stroke="black" points="686,-517 686,-551 808,-551 808,-517 686,-517"/>
<text text-anchor="start" x="694" y="-538" font-family="FreeSans" font-size="10.00">hfa_searchparam_get</text>
<text text-anchor="middle" x="747" y="-525" font-family="FreeSans" font-size="10.00">_ppoflags</text>
</a>
</g>
<!-- Node14&#45;&gt;Node45 -->
<g id="edge94" class="edge"><title>Node14&#45;&gt;Node45</title>
<path fill="none" stroke="midnightblue" d="M622.335,-358.909C626.358,-387.272 640.87,-464.161 684,-508 684.934,-508.949 685.907,-509.865 686.914,-510.748"/>
<polygon fill="midnightblue" stroke="midnightblue" points="685.106,-513.765 695.223,-516.912 689.277,-508.143 685.106,-513.765"/>
</g>
<!-- Node46 -->
<g id="node94" class="node"><title>Node46</title>
<a xlink:href="hfa-lnx_8c.html#a5c6551bf9ea9cf51ae7f2076c4cbe8ef" target="_top" xlink:title="Application cleanup will be done by this routine.">
<polygon fill="white" stroke="red" points="720,-477.5 720,-498.5 774,-498.5 774,-477.5 720,-477.5"/>
<text text-anchor="middle" x="747" y="-485.5" font-family="FreeSans" font-size="10.00">cleanup</text>
</a>
</g>
<!-- Node14&#45;&gt;Node46 -->
<g id="edge96" class="edge"><title>Node14&#45;&gt;Node46</title>
<path fill="none" stroke="midnightblue" d="M623.641,-358.726C629.948,-382.097 648.108,-437.929 684,-468 691.429,-474.224 700.812,-478.518 710.053,-481.478"/>
<polygon fill="midnightblue" stroke="midnightblue" points="709.354,-484.916 719.924,-484.195 711.211,-478.167 709.354,-484.916"/>
</g>
<!-- Node16 -->
<g id="node31" class="node"><title>Node16</title>
<a xlink:href="app-utils_8c.html#a8d5ec2ca8ebb2e04916983e6053a5c79" target="_top" xlink:title="Return size of a file(compressed or uncompressed).">
<polygon fill="white" stroke="red" points="884.5,-717.5 884.5,-738.5 979.5,-738.5 979.5,-717.5 884.5,-717.5"/>
<text text-anchor="middle" x="932" y="-725.5" font-family="FreeSans" font-size="10.00">hfautils_file_size</text>
</a>
</g>
<!-- Node15&#45;&gt;Node16 -->
<g id="edge30" class="edge"><title>Node15&#45;&gt;Node16</title>
<path fill="none" stroke="midnightblue" d="M789.476,-664.587C796.569,-667.161 803.671,-670.274 810,-674 828.965,-685.166 826.609,-697.591 846,-708 854.813,-712.731 864.72,-716.349 874.591,-719.115"/>
<polygon fill="midnightblue" stroke="midnightblue" points="873.855,-722.539 884.409,-721.606 875.577,-715.754 873.855,-722.539"/>
</g>
<!-- Node17 -->
<g id="node33" class="node"><title>Node17</title>
<a xlink:href="app-utils_8c.html#a12339c67618c4b3a54c32f43d378c273" target="_top" xlink:title="Read data from a file to a buffer(compressed or uncompressed).">
<polygon fill="white" stroke="red" points="883.5,-809.5 883.5,-830.5 980.5,-830.5 980.5,-809.5 883.5,-809.5"/>
<text text-anchor="middle" x="932" y="-817.5" font-family="FreeSans" font-size="10.00">hfautils_read_file</text>
</a>
</g>
<!-- Node15&#45;&gt;Node17 -->
<g id="edge32" class="edge"><title>Node15&#45;&gt;Node17</title>
<path fill="none" stroke="midnightblue" d="M794.077,-663.107C799.989,-665.84 805.523,-669.39 810,-674 850.579,-715.777 803.805,-759.856 846,-800 853.659,-807.286 863.432,-812.098 873.624,-815.241"/>
<polygon fill="midnightblue" stroke="midnightblue" points="872.914,-818.672 883.47,-817.768 874.654,-811.891 872.914,-818.672"/>
</g>
<!-- Node18 -->
<g id="node35" class="node"><title>Node18</title>
<a xlink:href="app-utils_8c.html#a1944a739d03e86dcaee1a7d245cfeba0" target="_top" xlink:title="Initialize the attributes needed for parsing the payload file.">
<polygon fill="white" stroke="red" points="875.5,-757 875.5,-791 988.5,-791 988.5,-757 875.5,-757"/>
<text text-anchor="start" x="883.5" y="-778" font-family="FreeSans" font-size="10.00">hfautils_init_payload</text>
<text text-anchor="middle" x="932" y="-765" font-family="FreeSans" font-size="10.00">_attributes</text>
</a>
</g>
<!-- Node15&#45;&gt;Node18 -->
<g id="edge34" class="edge"><title>Node15&#45;&gt;Node18</title>
<path fill="none" stroke="midnightblue" d="M794.016,-664.137C799.798,-666.716 805.312,-669.948 810,-674 837.672,-697.915 818.164,-724.276 846,-748 851.926,-753.051 858.812,-757.121 866.057,-760.4"/>
<polygon fill="midnightblue" stroke="midnightblue" points="864.797,-763.665 875.381,-764.145 867.406,-757.17 864.797,-763.665"/>
</g>
<!-- Node20 -->
<g id="node39" class="node"><title>Node20</title>
<a xlink:href="cvm-hfa-stats_8c.html#a2fcf955b47370bfa46705ee5a23a70cf" target="_top" xlink:title="This routine allocates memory for counters to maintain statistics of each processing core...">
<polygon fill="white" stroke="red" points="881,-517.5 881,-538.5 983,-538.5 983,-517.5 881,-517.5"/>
<text text-anchor="middle" x="932" y="-525.5" font-family="FreeSans" font-size="10.00">hfa_dev_stats_init</text>
</a>
</g>
<!-- Node19&#45;&gt;Node20 -->
<g id="edge38" class="edge"><title>Node19&#45;&gt;Node20</title>
<path fill="none" stroke="midnightblue" d="M784.118,-456.199C793.012,-459.111 802.188,-462.963 810,-468 830.101,-480.961 825.403,-495.842 846,-508 853.673,-512.529 862.295,-516.033 871.04,-518.743"/>
<polygon fill="midnightblue" stroke="midnightblue" points="870.35,-522.183 880.921,-521.478 872.217,-515.437 870.35,-522.183"/>
</g>
<!-- Node21 -->
<g id="node41" class="node"><title>Node21</title>
<a xlink:href="cvm-hfa_8c.html#a27982497398da2118cd5287ed51732e7" target="_top" xlink:title="Provides device&#45;specific information This is a utility routine used to obtain HFA device&#45;specific det...">
<polygon fill="white" stroke="black" points="876.5,-477.5 876.5,-498.5 987.5,-498.5 987.5,-477.5 876.5,-477.5"/>
<text text-anchor="middle" x="932" y="-485.5" font-family="FreeSans" font-size="10.00">hfa_dev_getdevinfo</text>
</a>
</g>
<!-- Node19&#45;&gt;Node21 -->
<g id="edge40" class="edge"><title>Node19&#45;&gt;Node21</title>
<path fill="none" stroke="midnightblue" d="M784.438,-456.095C809.938,-461.608 844.216,-469.02 873.316,-475.312"/>
<polygon fill="midnightblue" stroke="midnightblue" points="872.857,-478.793 883.371,-477.486 874.336,-471.951 872.857,-478.793"/>
</g>
<!-- Node22 -->
<g id="node43" class="node"><title>Node22</title>
<a xlink:href="pp_8h.html#a6f5982b2671e9682262a26b0d2996396" target="_top" xlink:title="Constructs a readable version string for the PP library.">
<polygon fill="white" stroke="black" points="872,-437.5 872,-458.5 992,-458.5 992,-437.5 872,-437.5"/>
<text text-anchor="middle" x="932" y="-445.5" font-family="FreeSans" font-size="10.00">pp_get_version_string</text>
</a>
</g>
<!-- Node19&#45;&gt;Node22 -->
<g id="edge42" class="edge"><title>Node19&#45;&gt;Node22</title>
<path fill="none" stroke="midnightblue" d="M784.438,-448C806.528,-448 835.206,-448 861.398,-448"/>
<polygon fill="midnightblue" stroke="midnightblue" points="861.676,-451.5 871.676,-448 861.676,-444.5 861.676,-451.5"/>
</g>
<!-- Node23 -->
<g id="node45" class="node"><title>Node23</title>
<a xlink:href="cvm-hfa_8c.html#afd1d53fe8a402d4c5799e6e98c67baaa" target="_top" xlink:title="Displays HFA Device info.">
<polygon fill="white" stroke="red" points="873.5,-397.5 873.5,-418.5 990.5,-418.5 990.5,-397.5 873.5,-397.5"/>
<text text-anchor="middle" x="932" y="-405.5" font-family="FreeSans" font-size="10.00">hfa_dev_display_info</text>
</a>
</g>
<!-- Node19&#45;&gt;Node23 -->
<g id="edge44" class="edge"><title>Node19&#45;&gt;Node23</title>
<path fill="none" stroke="midnightblue" d="M784.438,-439.905C809.938,-434.392 844.216,-426.98 873.316,-420.688"/>
<polygon fill="midnightblue" stroke="midnightblue" points="874.336,-424.049 883.371,-418.514 872.857,-417.207 874.336,-424.049"/>
</g>
<!-- Node24 -->
<g id="node47" class="node"><title>Node24</title>
<a xlink:href="cvm-hfa_8c.html#a236e64ca73680ea6761204d5c44d4e96" target="_top" xlink:title="API to set PP resource allocator for partial matches.">
<polygon fill="white" stroke="black" points="864.5,-357.5 864.5,-378.5 999.5,-378.5 999.5,-357.5 864.5,-357.5"/>
<text text-anchor="middle" x="932" y="-365.5" font-family="FreeSans" font-size="10.00">hfa_dev_set_fnp_ppalloc</text>
</a>
</g>
<!-- Node19&#45;&gt;Node24 -->
<g id="edge46" class="edge"><title>Node19&#45;&gt;Node24</title>
<path fill="none" stroke="midnightblue" d="M784.118,-439.801C793.012,-436.889 802.188,-433.037 810,-428 830.101,-415.039 825.403,-400.158 846,-388 849.638,-385.852 853.49,-383.935 857.468,-382.224"/>
<polygon fill="midnightblue" stroke="midnightblue" points="858.85,-385.442 866.934,-378.593 856.343,-378.907 858.85,-385.442"/>
</g>
<!-- Node25 -->
<g id="node49" class="node"><title>Node25</title>
<a xlink:href="cvm-hfa_8c.html#ab547f175726534d6a0a334eb35af4980" target="_top" xlink:title="Default function pointer for PP allocations.">
<polygon fill="white" stroke="black" points="872,-317.5 872,-338.5 992,-338.5 992,-317.5 872,-317.5"/>
<text text-anchor="middle" x="932" y="-325.5" font-family="FreeSans" font-size="10.00">hfa_defaultfn_ppalloc</text>
</a>
</g>
<!-- Node19&#45;&gt;Node25 -->
<g id="edge48" class="edge"><title>Node19&#45;&gt;Node25</title>
<path fill="none" stroke="midnightblue" d="M784.026,-441.835C793.324,-438.872 802.716,-434.488 810,-428 839.115,-402.067 815.885,-372.765 846,-348 850.895,-343.975 856.452,-340.728 862.329,-338.113"/>
<polygon fill="midnightblue" stroke="midnightblue" points="863.687,-341.341 871.78,-334.503 861.19,-334.802 863.687,-341.341"/>
</g>
<!-- Node26 -->
<g id="node51" class="node"><title>Node26</title>
<a xlink:href="cvm-hfa_8c.html#a148abbfdeebb207ff46884af8eeb8fa4" target="_top" xlink:title="API to set PP resource deallocator for partial matches.">
<polygon fill="white" stroke="black" points="866,-277.5 866,-298.5 998,-298.5 998,-277.5 866,-277.5"/>
<text text-anchor="middle" x="932" y="-285.5" font-family="FreeSans" font-size="10.00">hfa_dev_set_fnp_ppfree</text>
</a>
</g>
<!-- Node19&#45;&gt;Node26 -->
<g id="edge50" class="edge"><title>Node19&#45;&gt;Node26</title>
<path fill="none" stroke="midnightblue" d="M784.289,-442.56C793.696,-439.599 803.078,-435.034 810,-428 849.058,-388.315 805.407,-346.114 846,-308 849.206,-304.99 852.773,-302.403 856.581,-300.183"/>
<polygon fill="midnightblue" stroke="midnightblue" points="858.406,-303.186 865.844,-295.64 855.324,-296.901 858.406,-303.186"/>
</g>
<!-- Node27 -->
<g id="node53" class="node"><title>Node27</title>
<a xlink:href="cvm-hfa_8c.html#a832239ee7b188265bdacbbfb7e879af1" target="_top" xlink:title="Default function pointer for PP deallocations.">
<polygon fill="white" stroke="black" points="873.5,-237.5 873.5,-258.5 990.5,-258.5 990.5,-237.5 873.5,-237.5"/>
<text text-anchor="middle" x="932" y="-245.5" font-family="FreeSans" font-size="10.00">hfa_defaultfn_ppfree</text>
</a>
</g>
<!-- Node19&#45;&gt;Node27 -->
<g id="edge52" class="edge"><title>Node19&#45;&gt;Node27</title>
<path fill="none" stroke="midnightblue" d="M784.293,-442.978C793.813,-440.023 803.251,-435.357 810,-428 859.275,-374.29 794.645,-319.725 846,-268 851.007,-262.957 857.021,-259.085 863.513,-256.124"/>
<polygon fill="midnightblue" stroke="midnightblue" points="865.196,-259.229 873.304,-252.409 862.713,-252.684 865.196,-259.229"/>
</g>
<!-- Node28 -->
<g id="node55" class="node"><title>Node28</title>
<a xlink:href="cvm-hfa_8c.html#a774451b83b300f862763d189c9758e1f" target="_top" xlink:title="API to set PP buffer size function pointer.">
<polygon fill="white" stroke="black" points="866,-197.5 866,-218.5 998,-218.5 998,-197.5 866,-197.5"/>
<text text-anchor="middle" x="932" y="-205.5" font-family="FreeSans" font-size="10.00">hfa_dev_set_fnp_ppsize</text>
</a>
</g>
<!-- Node19&#45;&gt;Node28 -->
<g id="edge54" class="edge"><title>Node19&#45;&gt;Node28</title>
<path fill="none" stroke="midnightblue" d="M784.175,-443.267C793.809,-440.321 803.336,-435.587 810,-428 869.605,-360.143 783.766,-293.453 846,-228 849.175,-224.66 852.791,-221.829 856.7,-219.433"/>
<polygon fill="midnightblue" stroke="midnightblue" points="858.352,-222.519 865.667,-214.855 855.169,-216.285 858.352,-222.519"/>
</g>
<!-- Node29 -->
<g id="node57" class="node"><title>Node29</title>
<a xlink:href="cvm-hfa_8c.html#a11aab8e30488e4cfc900f60a0dabc784" target="_top" xlink:title="Default function pointer for PP size.">
<polygon fill="white" stroke="black" points="873.5,-157.5 873.5,-178.5 990.5,-178.5 990.5,-157.5 873.5,-157.5"/>
<text text-anchor="middle" x="932" y="-165.5" font-family="FreeSans" font-size="10.00">hfa_defaultfn_ppsize</text>
</a>
</g>
<!-- Node19&#45;&gt;Node29 -->
<g id="edge56" class="edge"><title>Node19&#45;&gt;Node29</title>
<path fill="none" stroke="midnightblue" d="M784.319,-443.392C793.955,-440.448 803.447,-435.684 810,-428 879.991,-345.933 772.827,-267.243 846,-188 851.005,-182.58 857.167,-178.491 863.875,-175.424"/>
<polygon fill="midnightblue" stroke="midnightblue" points="865.194,-178.667 873.302,-171.847 862.711,-172.123 865.194,-178.667"/>
</g>
<!-- Node30 -->
<g id="node59" class="node"><title>Node30</title>
<a xlink:href="cvm-hfa_8c.html#a9a0b038e0d29435cb91a21d9c62806cc" target="_top" xlink:title="API to set PP resource allocator for temporary memory.">
<polygon fill="white" stroke="black" points="863,-117.5 863,-138.5 1001,-138.5 1001,-117.5 863,-117.5"/>
<text text-anchor="middle" x="932" y="-125.5" font-family="FreeSans" font-size="10.00">hfa_dev_set_fnp_pptalloc</text>
</a>
</g>
<!-- Node19&#45;&gt;Node30 -->
<g id="edge58" class="edge"><title>Node19&#45;&gt;Node30</title>
<path fill="none" stroke="midnightblue" d="M784.095,-443.58C793.846,-440.646 803.455,-435.84 810,-428 890.41,-331.684 761.854,-241.069 846,-148 848.438,-145.303 851.163,-142.934 854.1,-140.856"/>
<polygon fill="midnightblue" stroke="midnightblue" points="856.004,-143.797 862.879,-135.736 852.477,-137.75 856.004,-143.797"/>
</g>
<!-- Node31 -->
<g id="node61" class="node"><title>Node31</title>
<a xlink:href="cvm-hfa_8c.html#a2cbca63c413f08d3861f9b4c2855391f" target="_top" xlink:title="API to set PP resource deallocator for temporary memory.">
<polygon fill="white" stroke="black" points="864.5,-77.5 864.5,-98.5 999.5,-98.5 999.5,-77.5 864.5,-77.5"/>
<text text-anchor="middle" x="932" y="-85.5" font-family="FreeSans" font-size="10.00">hfa_dev_set_fnp_pptfree</text>
</a>
</g>
<!-- Node19&#45;&gt;Node31 -->
<g id="edge60" class="edge"><title>Node19&#45;&gt;Node31</title>
<path fill="none" stroke="midnightblue" d="M784.174,-443.646C793.927,-440.713 803.517,-435.892 810,-428 900.848,-317.412 750.861,-214.919 846,-108 848.786,-104.869 851.959,-102.178 855.403,-99.8698"/>
<polygon fill="midnightblue" stroke="midnightblue" points="857.384,-102.774 864.458,-94.8864 854.009,-96.6416 857.384,-102.774"/>
</g>
<!-- Node32 -->
<g id="node63" class="node"><title>Node32</title>
<a xlink:href="cvm-hfa_8c.html#af0b17e8a09b1f7a1dd438ddcb1e4cd14" target="_top" xlink:title="API to set temporary memory size function pointer.">
<polygon fill="white" stroke="black" points="864.5,-677.5 864.5,-698.5 999.5,-698.5 999.5,-677.5 864.5,-677.5"/>
<text text-anchor="middle" x="932" y="-685.5" font-family="FreeSans" font-size="10.00">hfa_dev_set_fnp_pptsize</text>
</a>
</g>
<!-- Node19&#45;&gt;Node32 -->
<g id="edge62" class="edge"><title>Node19&#45;&gt;Node32</title>
<path fill="none" stroke="midnightblue" d="M784.175,-452.733C793.809,-455.679 803.336,-460.413 810,-468 869.605,-535.857 783.766,-602.547 846,-668 848.83,-670.977 852.011,-673.55 855.436,-675.77"/>
<polygon fill="midnightblue" stroke="midnightblue" points="853.934,-678.936 864.398,-680.595 857.252,-672.773 853.934,-678.936"/>
</g>
<!-- Node33 -->
<g id="node65" class="node"><title>Node33</title>
<a xlink:href="cvm-hfa_8c.html#aa2754afcdd94eb3dcd90c374f779dd24" target="_top" xlink:title="API to set PP resource allocator for match/result buffer.">
<polygon fill="white" stroke="black" points="849,-637.5 849,-658.5 1015,-658.5 1015,-637.5 849,-637.5"/>
<text text-anchor="middle" x="932" y="-645.5" font-family="FreeSans" font-size="10.00">hfa_dev_set_fnp_ppmatchalloc</text>
</a>
</g>
<!-- Node19&#45;&gt;Node33 -->
<g id="edge64" class="edge"><title>Node19&#45;&gt;Node33</title>
<path fill="none" stroke="midnightblue" d="M784.293,-453.022C793.813,-455.977 803.251,-460.643 810,-468 859.275,-521.71 794.645,-576.275 846,-628 847.262,-629.271 848.589,-630.468 849.97,-631.595"/>
<polygon fill="midnightblue" stroke="midnightblue" points="848.186,-634.613 858.432,-637.309 852.103,-628.812 848.186,-634.613"/>
</g>
<!-- Node34 -->
<g id="node67" class="node"><title>Node34</title>
<a xlink:href="cvm-hfa_8c.html#ad022f5aec72780af8b36533884693539" target="_top" xlink:title="API to set PP resource deallocator for result/match buf.">
<polygon fill="white" stroke="black" points="850.5,-597.5 850.5,-618.5 1013.5,-618.5 1013.5,-597.5 850.5,-597.5"/>
<text text-anchor="middle" x="932" y="-605.5" font-family="FreeSans" font-size="10.00">hfa_dev_set_fnp_ppmatchfree</text>
</a>
</g>
<!-- Node19&#45;&gt;Node34 -->
<g id="edge66" class="edge"><title>Node19&#45;&gt;Node34</title>
<path fill="none" stroke="midnightblue" d="M784.289,-453.44C793.696,-456.401 803.078,-460.966 810,-468 849.058,-507.685 805.407,-549.886 846,-588 847.509,-589.417 849.097,-590.739 850.753,-591.974"/>
<polygon fill="midnightblue" stroke="midnightblue" points="849.198,-595.129 859.537,-597.444 852.899,-589.187 849.198,-595.129"/>
</g>
<!-- Node35 -->
<g id="node69" class="node"><title>Node35</title>
<a xlink:href="cvm-hfa_8c.html#a8b71887165c143e32600513d12f9274f" target="_top" xlink:title="API to set match buffer size function pointer.">
<polygon fill="white" stroke="black" points="850.5,-557.5 850.5,-578.5 1013.5,-578.5 1013.5,-557.5 850.5,-557.5"/>
<text text-anchor="middle" x="932" y="-565.5" font-family="FreeSans" font-size="10.00">hfa_dev_set_fnp_ppmatchsize</text>
</a>
</g>
<!-- Node19&#45;&gt;Node35 -->
<g id="edge68" class="edge"><title>Node19&#45;&gt;Node35</title>
<path fill="none" stroke="midnightblue" d="M784.026,-454.165C793.324,-457.128 802.716,-461.512 810,-468 839.115,-493.933 815.885,-523.235 846,-548 848.02,-549.661 850.153,-551.19 852.375,-552.596"/>
<polygon fill="midnightblue" stroke="midnightblue" points="850.871,-555.762 861.333,-557.436 854.199,-549.603 850.871,-555.762"/>
</g>
<!-- Node41&#45;&gt;Node3 -->
<g id="edge82" class="edge"><title>Node41&#45;&gt;Node3</title>
<path fill="none" stroke="midnightblue" d="M798.76,-397.422C803.01,-394.909 806.868,-391.813 810,-388 900.848,-277.412 760.729,-182.944 846,-68 853.263,-58.2096 863.652,-50.98 874.711,-45.6511"/>
<polygon fill="midnightblue" stroke="midnightblue" points="876.304,-48.7761 884.105,-41.6074 873.536,-42.3464 876.304,-48.7761"/>
</g>
<!-- Node49 -->
<g id="node100" class="node"><title>Node49</title>
<a xlink:href="cvm-hfa-res_8c.html#a70c9e55ba1fcb934f74ad71ddca9d08f" target="_top" xlink:title="Radd">
<polygon fill="white" stroke="black" points="600.5,-257.5 600.5,-278.5 641.5,-278.5 641.5,-257.5 600.5,-257.5"/>
<text text-anchor="middle" x="621" y="-265.5" font-family="FreeSans" font-size="10.00">Radd</text>
</a>
</g>
<!-- Node48&#45;&gt;Node49 -->
<g id="edge102" class="edge"><title>Node48&#45;&gt;Node49</title>
<path fill="none" stroke="midnightblue" d="M556.662,-268C567.229,-268 579.245,-268 590.009,-268"/>
<polygon fill="midnightblue" stroke="midnightblue" points="590.256,-271.5 600.256,-268 590.256,-264.5 590.256,-271.5"/>
</g>
</g>
</svg>
