<?xml version="1.0" encoding="UTF-8" standalone="no"?>
<!DOCTYPE svg PUBLIC "-//W3C//DTD SVG 1.1//EN"
 "http://www.w3.org/Graphics/SVG/1.1/DTD/svg11.dtd">
<!-- Generated by graphviz version 2.24.0 (20090616.2323)
 -->
<!-- Title: main Pages: 1 -->
<svg width="538pt" height="1540pt"
 viewBox="0.00 0.00 538.00 1540.00" xmlns="http://www.w3.org/2000/svg" xmlns:xlink="http://www.w3.org/1999/xlink">
<g id="graph1" class="graph" transform="scale(1 1) rotate(0) translate(4 1536)">
<title>main</title>
<polygon fill="white" stroke="white" points="-4,5 -4,-1536 535,-1536 535,5 -4,5"/>
<!-- Node1 -->
<g id="node1" class="node"><title>Node1</title>
<polygon fill="#bfbfbf" stroke="black" points="0,-362.5 0,-383.5 40,-383.5 40,-362.5 0,-362.5"/>
<text text-anchor="middle" x="20" y="-370.5" font-family="FreeSans" font-size="10.00">main</text>
</g>
<!-- Node2 -->
<g id="node3" class="node"><title>Node2</title>
<a xlink:href="app-utils_8c.html#a4ef3fc7ca0729733044bc1430922cb2f" target="_top" xlink:title="Register signal handler for SIGINT(CTRL&#45;C).">
<polygon fill="white" stroke="black" points="76.5,-1490.5 76.5,-1511.5 237.5,-1511.5 237.5,-1490.5 76.5,-1490.5"/>
<text text-anchor="middle" x="157" y="-1498.5" font-family="FreeSans" font-size="10.00">hfautils_register_signalhandler</text>
</a>
</g>
<!-- Node1&#45;&gt;Node2 -->
<g id="edge2" class="edge"><title>Node1&#45;&gt;Node2</title>
<path fill="none" stroke="midnightblue" d="M20.2367,-383.628C22.7153,-493.227 44.4586,-1414.56 76,-1462 83.091,-1472.67 93.9591,-1480.5 105.454,-1486.22"/>
<polygon fill="midnightblue" stroke="midnightblue" points="104.189,-1489.49 114.747,-1490.38 107.044,-1483.1 104.189,-1489.49"/>
</g>
<!-- Node4 -->
<g id="node7" class="node"><title>Node4</title>
<a xlink:href="hfa-se_8c.html#ab42726e951c529a41b8e09fd6e84ada2" target="_top" xlink:title="Process command line options and read graph.">
<polygon fill="white" stroke="black" points="110,-1352.5 110,-1373.5 204,-1373.5 204,-1352.5 110,-1352.5"/>
<text text-anchor="middle" x="157" y="-1360.5" font-family="FreeSans" font-size="10.00">process_options</text>
</a>
</g>
<!-- Node1&#45;&gt;Node4 -->
<g id="edge6" class="edge"><title>Node1&#45;&gt;Node4</title>
<path fill="none" stroke="midnightblue" d="M20.7303,-383.68C24.6749,-440.322 44.4333,-711.271 76,-931 98.8821,-1090.28 139.028,-1280.28 152.47,-1342.31"/>
<polygon fill="midnightblue" stroke="midnightblue" points="149.112,-1343.34 154.659,-1352.37 155.952,-1341.85 149.112,-1343.34"/>
</g>
<!-- Node10 -->
<g id="node20" class="node"><title>Node10</title>
<a xlink:href="cvm-hfa_8c.html#a873768042b716d60996ec5d858fc8fd9" target="_top" xlink:title="This function must be called by application to initialize HFA engine and setup resources for HFA hard...">
<polygon fill="white" stroke="black" points="120,-900.5 120,-921.5 194,-921.5 194,-900.5 120,-900.5"/>
<text text-anchor="middle" x="157" y="-908.5" font-family="FreeSans" font-size="10.00">hfa_dev_init</text>
</a>
</g>
<!-- Node1&#45;&gt;Node10 -->
<g id="edge20" class="edge"><title>Node1&#45;&gt;Node10</title>
<path fill="none" stroke="midnightblue" d="M22.7366,-383.747C39.5708,-449.855 129.106,-801.459 151.779,-890.497"/>
<polygon fill="midnightblue" stroke="midnightblue" points="148.397,-891.401 154.257,-900.228 155.181,-889.673 148.397,-891.401"/>
</g>
<!-- Node29 -->
<g id="node58" class="node"><title>Node29</title>
<a xlink:href="hfa-se_8c.html#a546f3769e735d4bef0bfab1cba56921c" target="_top" xlink:title="Load graph into HFA memory and cache.">
<polygon fill="white" stroke="black" points="122.5,-500.5 122.5,-521.5 191.5,-521.5 191.5,-500.5 122.5,-500.5"/>
<text text-anchor="middle" x="157" y="-508.5" font-family="FreeSans" font-size="10.00">graph_load</text>
</a>
</g>
<!-- Node1&#45;&gt;Node29 -->
<g id="edge58" class="edge"><title>Node1&#45;&gt;Node29</title>
<path fill="none" stroke="midnightblue" d="M21.8945,-383.699C26.5979,-406.985 41.0508,-462.455 76,-491 86.2683,-499.387 99.5488,-504.333 112.375,-507.227"/>
<polygon fill="midnightblue" stroke="midnightblue" points="112.022,-510.722 122.497,-509.134 113.318,-503.843 112.022,-510.722"/>
</g>
<!-- Node36 -->
<g id="node72" class="node"><title>Node36</title>
<a xlink:href="hfa-se_8c.html#a924d2733ebc7a856f8c3fd293193ba44" target="_top" xlink:title="Initialize search context.">
<polygon fill="white" stroke="black" points="119.5,-40.5 119.5,-61.5 194.5,-61.5 194.5,-40.5 119.5,-40.5"/>
<text text-anchor="middle" x="157" y="-48.5" font-family="FreeSans" font-size="10.00">initialize_ctx</text>
</a>
</g>
<!-- Node1&#45;&gt;Node36 -->
<g id="edge72" class="edge"><title>Node1&#45;&gt;Node36</title>
<path fill="none" stroke="midnightblue" d="M20.4698,-362.386C22.8277,-313.969 34.9358,-114.549 76,-71 84.7036,-61.7697 96.9331,-56.5142 109.257,-53.5943"/>
<polygon fill="midnightblue" stroke="midnightblue" points="109.926,-57.0299 119.095,-51.7219 108.617,-50.1533 109.926,-57.0299"/>
</g>
<!-- Node41 -->
<g id="node82" class="node"><title>Node41</title>
<a xlink:href="app-utils_8c.html#a4b47f3c9c5a0b3eaee64e264171628a3" target="_top" xlink:title="This routine reads data of chunksize/a packet from given payload(Normal/PCAP) file and returns data b...">
<polygon fill="white" stroke="black" points="94,-1431.5 94,-1452.5 220,-1452.5 220,-1431.5 94,-1431.5"/>
<text text-anchor="middle" x="157" y="-1439.5" font-family="FreeSans" font-size="10.00">hfautils_parse_payload</text>
</a>
</g>
<!-- Node1&#45;&gt;Node41 -->
<g id="edge82" class="edge"><title>Node1&#45;&gt;Node41</title>
<path fill="none" stroke="midnightblue" d="M20.0401,-383.574C20.4967,-485.415 25.6901,-1290.54 76,-1383 86.4798,-1402.26 106.273,-1416.86 123.669,-1426.71"/>
<polygon fill="midnightblue" stroke="midnightblue" points="122.018,-1429.8 132.486,-1431.43 125.323,-1423.63 122.018,-1429.8"/>
</g>
<!-- Node42 -->
<g id="node85" class="node"><title>Node42</title>
<a xlink:href="cvm-hfa-search_8h.html#ae9741e867075c9b8cc63a7d889d5bf20" target="_top" xlink:title="This routine is a variant of hfa_searchparam_set_inputiovec() when the previously searched input IO v...">
<polygon fill="white" stroke="black" points="96.5,-408 96.5,-442 217.5,-442 217.5,-408 96.5,-408"/>
<text text-anchor="start" x="104.5" y="-429" font-family="FreeSans" font-size="10.00">hfa_searchparam_set</text>
<text text-anchor="middle" x="157" y="-416" font-family="FreeSans" font-size="10.00">_inputiovec_0_n</text>
</a>
</g>
<!-- Node1&#45;&gt;Node42 -->
<g id="edge86" class="edge"><title>Node1&#45;&gt;Node42</title>
<path fill="none" stroke="midnightblue" d="M40.2167,-383.126C50.7489,-388.211 63.9201,-394.278 76,-399 80.9864,-400.949 86.1848,-402.868 91.4351,-404.725"/>
<polygon fill="midnightblue" stroke="midnightblue" points="90.3125,-408.04 100.907,-407.996 92.5973,-401.424 90.3125,-408.04"/>
</g>
<!-- Node43 -->
<g id="node87" class="node"><title>Node43</title>
<a xlink:href="cvm-hfa-search_8h.html#a12882fa53f8ec49b9b2950711161db42" target="_top" xlink:title="This routine sets the output buffer in the sparam.">
<polygon fill="white" stroke="black" points="96.5,-356 96.5,-390 217.5,-390 217.5,-356 96.5,-356"/>
<text text-anchor="start" x="104.5" y="-377" font-family="FreeSans" font-size="10.00">hfa_searchparam_set</text>
<text text-anchor="middle" x="157" y="-364" font-family="FreeSans" font-size="10.00">_output</text>
</a>
</g>
<!-- Node1&#45;&gt;Node43 -->
<g id="edge88" class="edge"><title>Node1&#45;&gt;Node43</title>
<path fill="none" stroke="midnightblue" d="M40.2148,-373C52.5425,-373 69.1153,-373 85.8968,-373"/>
<polygon fill="midnightblue" stroke="midnightblue" points="86.3365,-376.5 96.3365,-373 86.3364,-369.5 86.3365,-376.5"/>
</g>
<!-- Node44 -->
<g id="node89" class="node"><title>Node44</title>
<a xlink:href="cvm-hfa-search_8c.html#a57d7540278164eb6b6c132be00db0de5" target="_top" xlink:title="This routine performs a pattern search using the given parameters in a blocking manner.">
<polygon fill="white" stroke="red" points="95.5,-316.5 95.5,-337.5 218.5,-337.5 218.5,-316.5 95.5,-316.5"/>
<text text-anchor="middle" x="157" y="-324.5" font-family="FreeSans" font-size="10.00">hfa_searchctx_search</text>
</a>
</g>
<!-- Node1&#45;&gt;Node44 -->
<g id="edge90" class="edge"><title>Node1&#45;&gt;Node44</title>
<path fill="none" stroke="midnightblue" d="M40.0876,-362.527C50.5858,-357.349 63.7655,-351.305 76,-347 83.0303,-344.526 90.5067,-342.239 97.9658,-340.163"/>
<polygon fill="midnightblue" stroke="midnightblue" points="98.9641,-343.519 107.723,-337.558 97.1584,-336.756 98.9641,-343.519"/>
</g>
<!-- Node45 -->
<g id="node91" class="node"><title>Node45</title>
<a xlink:href="cvm-hfa-search_8h.html#ab50a2d84e35b5a4a03a23fc90e4dffa0" target="_top" xlink:title="This routine retrieves the reason code after a search operation has been completed by the HFA engine...">
<polygon fill="white" stroke="black" points="96,-264 96,-298 218,-298 218,-264 96,-264"/>
<text text-anchor="start" x="104" y="-285" font-family="FreeSans" font-size="10.00">hfa_searchparam_get</text>
<text text-anchor="middle" x="157" y="-272" font-family="FreeSans" font-size="10.00">_hwsearch_reason</text>
</a>
</g>
<!-- Node1&#45;&gt;Node45 -->
<g id="edge92" class="edge"><title>Node1&#45;&gt;Node45</title>
<path fill="none" stroke="midnightblue" d="M26.2335,-362.49C35.3721,-347.962 53.7572,-321.857 76,-307 79.3582,-304.757 82.9231,-302.696 86.6123,-300.805"/>
<polygon fill="midnightblue" stroke="midnightblue" points="88.3993,-303.834 95.9915,-296.444 85.448,-297.486 88.3993,-303.834"/>
</g>
<!-- Node46 -->
<g id="node93" class="node"><title>Node46</title>
<a xlink:href="cvm-hfa-search_8h.html#ad18e328b50b109e1e44821f3d006bd9d" target="_top" xlink:title="This routine returns the data&#45;buffer offset.">
<polygon fill="white" stroke="black" points="96,-212 96,-246 218,-246 218,-212 96,-212"/>
<text text-anchor="start" x="104" y="-233" font-family="FreeSans" font-size="10.00">hfa_searchparam_get</text>
<text text-anchor="middle" x="157" y="-220" font-family="FreeSans" font-size="10.00">_hwsearch_pdboff</text>
</a>
</g>
<!-- Node1&#45;&gt;Node46 -->
<g id="edge94" class="edge"><title>Node1&#45;&gt;Node46</title>
<path fill="none" stroke="midnightblue" d="M22.043,-362.476C27.0425,-339.54 42.0491,-284.726 76,-255 79.2502,-252.154 82.8152,-249.619 86.5805,-247.361"/>
<polygon fill="midnightblue" stroke="midnightblue" points="88.4533,-250.331 95.676,-242.58 85.196,-244.135 88.4533,-250.331"/>
</g>
<!-- Node47 -->
<g id="node95" class="node"><title>Node47</title>
<a xlink:href="cvm-hfa-search_8c.html#a6dbb15dc58155b2c94b19784ad42ef89" target="_top" xlink:title="This routine post&#45;processes the search results from the HFA engine and reports the pattern matches fo...">
<polygon fill="white" stroke="red" points="83.5,-172.5 83.5,-193.5 230.5,-193.5 230.5,-172.5 83.5,-172.5"/>
<text text-anchor="middle" x="157" y="-180.5" font-family="FreeSans" font-size="10.00">hfa_searchctx_getmatches</text>
</a>
</g>
<!-- Node1&#45;&gt;Node47 -->
<g id="edge96" class="edge"><title>Node1&#45;&gt;Node47</title>
<path fill="none" stroke="midnightblue" d="M22.1545,-362.126C29.0778,-328.243 51.7254,-225.493 76,-203 77.514,-201.597 79.1105,-200.288 80.7755,-199.068"/>
<polygon fill="midnightblue" stroke="midnightblue" points="82.9,-201.871 89.6076,-193.67 79.2497,-195.898 82.9,-201.871"/>
</g>
<!-- Node48 -->
<g id="node97" class="node"><title>Node48</title>
<a xlink:href="app-utils_8c.html#a633038357891aa5147b77fe939f300bf" target="_top" xlink:title="Print pattern matches via match buffer and cleanup all matches.">
<polygon fill="white" stroke="red" points="95,-132.5 95,-153.5 219,-153.5 219,-132.5 95,-132.5"/>
<text text-anchor="middle" x="157" y="-140.5" font-family="FreeSans" font-size="10.00">hfautils_print_matches</text>
</a>
</g>
<!-- Node1&#45;&gt;Node48 -->
<g id="edge98" class="edge"><title>Node1&#45;&gt;Node48</title>
<path fill="none" stroke="midnightblue" d="M21.3953,-362.397C26.6777,-323.837 46.6497,-191.811 76,-163 78.9395,-160.114 82.2255,-157.623 85.7447,-155.474"/>
<polygon fill="midnightblue" stroke="midnightblue" points="87.5853,-158.465 94.9082,-150.808 84.4088,-152.227 87.5853,-158.465"/>
</g>
<!-- Node49 -->
<g id="node99" class="node"><title>Node49</title>
<a xlink:href="cvm-hfa-search_8h.html#ac5bcfbfda7036d9aca28a3c5828847a5" target="_top" xlink:title="This routine retrieves flags returned by post&#45;processor.">
<polygon fill="white" stroke="black" points="96,-80 96,-114 218,-114 218,-80 96,-80"/>
<text text-anchor="start" x="104" y="-101" font-family="FreeSans" font-size="10.00">hfa_searchparam_get</text>
<text text-anchor="middle" x="157" y="-88" font-family="FreeSans" font-size="10.00">_ppoflags</text>
</a>
</g>
<!-- Node1&#45;&gt;Node49 -->
<g id="edge100" class="edge"><title>Node1&#45;&gt;Node49</title>
<path fill="none" stroke="midnightblue" d="M20.9951,-362.294C25.2012,-319.235 42.8496,-159.285 76,-123 79.1675,-119.533 82.7978,-116.526 86.727,-113.918"/>
<polygon fill="midnightblue" stroke="midnightblue" points="88.7582,-116.791 95.7427,-108.824 85.3146,-110.696 88.7582,-116.791"/>
</g>
<!-- Node50 -->
<g id="node101" class="node"><title>Node50</title>
<a xlink:href="hfa-se_8c.html#a5036058ffdb029e5c5dc2a76a58760b8" target="_top" xlink:title="Application cleanup will be done by this routine.">
<polygon fill="white" stroke="red" points="130,-460.5 130,-481.5 184,-481.5 184,-460.5 130,-460.5"/>
<text text-anchor="middle" x="157" y="-468.5" font-family="FreeSans" font-size="10.00">cleanup</text>
</a>
</g>
<!-- Node1&#45;&gt;Node50 -->
<g id="edge102" class="edge"><title>Node1&#45;&gt;Node50</title>
<path fill="none" stroke="midnightblue" d="M24.64,-383.682C32.5892,-400.676 50.4616,-433.711 76,-451 88.8372,-459.69 105.098,-464.61 119.676,-467.393"/>
<polygon fill="midnightblue" stroke="midnightblue" points="119.487,-470.908 129.92,-469.065 120.615,-464 119.487,-470.908"/>
</g>
<!-- Node3 -->
<g id="node5" class="node"><title>Node3</title>
<a xlink:href="app-utils_8c.html#a0f2df8f03baa5b4006040e8a18069557" target="_top" xlink:title="Signal handler to ignore CTRL&#45;C.">
<polygon fill="white" stroke="black" points="305.5,-1510.5 305.5,-1531.5 408.5,-1531.5 408.5,-1510.5 305.5,-1510.5"/>
<text text-anchor="middle" x="357" y="-1518.5" font-family="FreeSans" font-size="10.00">hfa_sigint_handler</text>
</a>
</g>
<!-- Node2&#45;&gt;Node3 -->
<g id="edge4" class="edge"><title>Node2&#45;&gt;Node3</title>
<path fill="none" stroke="midnightblue" d="M237.771,-1509.08C256.892,-1510.99 276.987,-1513 295.116,-1514.81"/>
<polygon fill="midnightblue" stroke="midnightblue" points="294.955,-1518.31 305.253,-1515.83 295.651,-1511.35 294.955,-1518.31"/>
</g>
<!-- Node5 -->
<g id="node9" class="node"><title>Node5</title>
<a xlink:href="app-utils_8c.html#a312f3a19b49c759fe09b5bee727b879b" target="_top" xlink:title="Initialize command line arguments.">
<polygon fill="white" stroke="black" points="302.5,-1392.5 302.5,-1413.5 411.5,-1413.5 411.5,-1392.5 302.5,-1392.5"/>
<text text-anchor="middle" x="357" y="-1400.5" font-family="FreeSans" font-size="10.00">hfautils_options_init</text>
</a>
</g>
<!-- Node4&#45;&gt;Node5 -->
<g id="edge8" class="edge"><title>Node4&#45;&gt;Node5</title>
<path fill="none" stroke="midnightblue" d="M204.144,-1372.43C231.003,-1377.8 265.002,-1384.6 294.112,-1390.42"/>
<polygon fill="midnightblue" stroke="midnightblue" points="293.692,-1393.91 304.185,-1392.44 295.065,-1387.04 293.692,-1393.91"/>
</g>
<!-- Node6 -->
<g id="node11" class="node"><title>Node6</title>
<a xlink:href="app-utils_8c.html#ae04c31b3e2ff1468333729059052375c" target="_top" xlink:title="Parse command line arguments.">
<polygon fill="white" stroke="red" points="287,-1352.5 287,-1373.5 427,-1373.5 427,-1352.5 287,-1352.5"/>
<text text-anchor="middle" x="357" y="-1360.5" font-family="FreeSans" font-size="10.00">hfautils_parse_arguments</text>
</a>
</g>
<!-- Node4&#45;&gt;Node6 -->
<g id="edge10" class="edge"><title>Node4&#45;&gt;Node6</title>
<path fill="none" stroke="midnightblue" d="M204.144,-1363C225.764,-1363 252.009,-1363 276.607,-1363"/>
<polygon fill="midnightblue" stroke="midnightblue" points="276.664,-1366.5 286.664,-1363 276.664,-1359.5 276.664,-1366.5"/>
</g>
<!-- Node7 -->
<g id="node13" class="node"><title>Node7</title>
<a xlink:href="app-utils_8c.html#a12339c67618c4b3a54c32f43d378c273" target="_top" xlink:title="Read data from a file to a buffer(compressed or uncompressed).">
<polygon fill="white" stroke="red" points="308.5,-1432.5 308.5,-1453.5 405.5,-1453.5 405.5,-1432.5 308.5,-1432.5"/>
<text text-anchor="middle" x="357" y="-1440.5" font-family="FreeSans" font-size="10.00">hfautils_read_file</text>
</a>
</g>
<!-- Node4&#45;&gt;Node7 -->
<g id="edge12" class="edge"><title>Node4&#45;&gt;Node7</title>
<path fill="none" stroke="midnightblue" d="M174.245,-1373.5C196.558,-1386.69 236.973,-1409.27 274,-1423 281.791,-1425.89 290.15,-1428.47 298.455,-1430.75"/>
<polygon fill="midnightblue" stroke="midnightblue" points="297.583,-1434.13 308.142,-1433.27 299.348,-1427.36 297.583,-1434.13"/>
</g>
<!-- Node9 -->
<g id="node17" class="node"><title>Node9</title>
<a xlink:href="app-utils_8c.html#a1944a739d03e86dcaee1a7d245cfeba0" target="_top" xlink:title="Initialize the attributes needed for parsing the payload file.">
<polygon fill="white" stroke="black" points="300.5,-1300 300.5,-1334 413.5,-1334 413.5,-1300 300.5,-1300"/>
<text text-anchor="start" x="308.5" y="-1321" font-family="FreeSans" font-size="10.00">hfautils_init_payload</text>
<text text-anchor="middle" x="357" y="-1308" font-family="FreeSans" font-size="10.00">_attributes</text>
</a>
</g>
<!-- Node4&#45;&gt;Node9 -->
<g id="edge16" class="edge"><title>Node4&#45;&gt;Node9</title>
<path fill="none" stroke="midnightblue" d="M202.884,-1352.45C228.778,-1346.49 261.599,-1338.94 290.292,-1332.34"/>
<polygon fill="midnightblue" stroke="midnightblue" points="291.29,-1335.7 300.251,-1330.05 289.721,-1328.88 291.29,-1335.7"/>
</g>
<!-- Node8 -->
<g id="node15" class="node"><title>Node8</title>
<a xlink:href="app-utils_8c.html#a7fbf4d982c3e4493bda83be020e7274c" target="_top" xlink:title="Read file data from a gzip&#45;stream(compressed or uncompressed).">
<polygon fill="white" stroke="black" points="476.5,-1432.5 476.5,-1453.5 529.5,-1453.5 529.5,-1432.5 476.5,-1432.5"/>
<text text-anchor="middle" x="503" y="-1440.5" font-family="FreeSans" font-size="10.00">fd_read</text>
</a>
</g>
<!-- Node7&#45;&gt;Node8 -->
<g id="edge14" class="edge"><title>Node7&#45;&gt;Node8</title>
<path fill="none" stroke="midnightblue" d="M405.616,-1443C425.401,-1443 447.887,-1443 466.263,-1443"/>
<polygon fill="midnightblue" stroke="midnightblue" points="466.28,-1446.5 476.28,-1443 466.28,-1439.5 466.28,-1446.5"/>
</g>
<!-- Node9&#45;&gt;Node8 -->
<g id="edge18" class="edge"><title>Node9&#45;&gt;Node8</title>
<path fill="none" stroke="midnightblue" d="M413.677,-1328.82C423.044,-1332.39 432.223,-1337.01 440,-1343 467.212,-1363.95 485.771,-1400.25 495.36,-1422.87"/>
<polygon fill="midnightblue" stroke="midnightblue" points="492.138,-1424.24 499.133,-1432.2 498.628,-1421.62 492.138,-1424.24"/>
</g>
<!-- Node11 -->
<g id="node22" class="node"><title>Node11</title>
<a xlink:href="cvm-hfa-stats_8c.html#a2fcf955b47370bfa46705ee5a23a70cf" target="_top" xlink:title="This routine allocates memory for counters to maintain statistics of each processing core...">
<polygon fill="white" stroke="red" points="306,-620.5 306,-641.5 408,-641.5 408,-620.5 306,-620.5"/>
<text text-anchor="middle" x="357" y="-628.5" font-family="FreeSans" font-size="10.00">hfa_dev_stats_init</text>
</a>
</g>
<!-- Node10&#45;&gt;Node11 -->
<g id="edge22" class="edge"><title>Node10&#45;&gt;Node11</title>
<path fill="none" stroke="midnightblue" d="M158.436,-900.341C164.374,-860.63 190.738,-720.028 274,-651 280.479,-645.629 288.167,-641.656 296.21,-638.726"/>
<polygon fill="midnightblue" stroke="midnightblue" points="297.259,-642.065 305.762,-635.744 295.173,-635.383 297.259,-642.065"/>
</g>
<!-- Node12 -->
<g id="node24" class="node"><title>Node12</title>
<a xlink:href="cvm-hfa_8c.html#a27982497398da2118cd5287ed51732e7" target="_top" xlink:title="Provides device&#45;specific information This is a utility routine used to obtain HFA device&#45;specific det...">
<polygon fill="white" stroke="black" points="301.5,-580.5 301.5,-601.5 412.5,-601.5 412.5,-580.5 301.5,-580.5"/>
<text text-anchor="middle" x="357" y="-588.5" font-family="FreeSans" font-size="10.00">hfa_dev_getdevinfo</text>
</a>
</g>
<!-- Node10&#45;&gt;Node12 -->
<g id="edge24" class="edge"><title>Node10&#45;&gt;Node12</title>
<path fill="none" stroke="midnightblue" d="M157.744,-900.267C161.356,-856.794 180.929,-692.252 274,-611 279.176,-606.481 285.2,-602.943 291.594,-600.178"/>
<polygon fill="midnightblue" stroke="midnightblue" points="292.993,-603.393 301.172,-596.658 290.578,-596.823 292.993,-603.393"/>
</g>
<!-- Node13 -->
<g id="node26" class="node"><title>Node13</title>
<a xlink:href="pp_8h.html#a6f5982b2671e9682262a26b0d2996396" target="_top" xlink:title="Constructs a readable version string for the PP library.">
<polygon fill="white" stroke="black" points="297,-1260.5 297,-1281.5 417,-1281.5 417,-1260.5 297,-1260.5"/>
<text text-anchor="middle" x="357" y="-1268.5" font-family="FreeSans" font-size="10.00">pp_get_version_string</text>
</a>
</g>
<!-- Node10&#45;&gt;Node13 -->
<g id="edge26" class="edge"><title>Node10&#45;&gt;Node13</title>
<path fill="none" stroke="midnightblue" d="M159.219,-921.609C170.356,-973.883 221.694,-1203.44 274,-1251 277.943,-1254.59 282.415,-1257.56 287.191,-1260.02"/>
<polygon fill="midnightblue" stroke="midnightblue" points="286.122,-1263.37 296.688,-1264.15 288.914,-1256.95 286.122,-1263.37"/>
</g>
<!-- Node14 -->
<g id="node28" class="node"><title>Node14</title>
<a xlink:href="cvm-hfa_8c.html#afd1d53fe8a402d4c5799e6e98c67baaa" target="_top" xlink:title="Displays HFA Device info.">
<polygon fill="white" stroke="red" points="298.5,-1220.5 298.5,-1241.5 415.5,-1241.5 415.5,-1220.5 298.5,-1220.5"/>
<text text-anchor="middle" x="357" y="-1228.5" font-family="FreeSans" font-size="10.00">hfa_dev_display_info</text>
</a>
</g>
<!-- Node10&#45;&gt;Node14 -->
<g id="edge28" class="edge"><title>Node10&#45;&gt;Node14</title>
<path fill="none" stroke="midnightblue" d="M157.744,-921.733C161.356,-965.206 180.929,-1129.75 274,-1211 278.435,-1214.87 283.492,-1218.02 288.871,-1220.59"/>
<polygon fill="midnightblue" stroke="midnightblue" points="287.592,-1223.84 298.174,-1224.36 290.225,-1217.36 287.592,-1223.84"/>
</g>
<!-- Node15 -->
<g id="node30" class="node"><title>Node15</title>
<a xlink:href="cvm-hfa_8c.html#a236e64ca73680ea6761204d5c44d4e96" target="_top" xlink:title="API to set PP resource allocator for partial matches.">
<polygon fill="white" stroke="black" points="289.5,-1180.5 289.5,-1201.5 424.5,-1201.5 424.5,-1180.5 289.5,-1180.5"/>
<text text-anchor="middle" x="357" y="-1188.5" font-family="FreeSans" font-size="10.00">hfa_dev_set_fnp_ppalloc</text>
</a>
</g>
<!-- Node10&#45;&gt;Node15 -->
<g id="edge30" class="edge"><title>Node10&#45;&gt;Node15</title>
<path fill="none" stroke="midnightblue" d="M158.436,-921.659C164.374,-961.37 190.738,-1101.97 274,-1171 275.997,-1172.66 278.109,-1174.18 280.31,-1175.58"/>
<polygon fill="midnightblue" stroke="midnightblue" points="278.735,-1178.71 289.194,-1180.39 282.07,-1172.55 278.735,-1178.71"/>
</g>
<!-- Node16 -->
<g id="node32" class="node"><title>Node16</title>
<a xlink:href="cvm-hfa_8c.html#ab547f175726534d6a0a334eb35af4980" target="_top" xlink:title="Default function pointer for PP allocations.">
<polygon fill="white" stroke="black" points="297,-1140.5 297,-1161.5 417,-1161.5 417,-1140.5 297,-1140.5"/>
<text text-anchor="middle" x="357" y="-1148.5" font-family="FreeSans" font-size="10.00">hfa_defaultfn_ppalloc</text>
</a>
</g>
<!-- Node10&#45;&gt;Node16 -->
<g id="edge32" class="edge"><title>Node10&#45;&gt;Node16</title>
<path fill="none" stroke="midnightblue" d="M159.385,-921.738C167.926,-957.578 200.48,-1074.03 274,-1131 278.07,-1134.15 282.563,-1136.82 287.29,-1139.07"/>
<polygon fill="midnightblue" stroke="midnightblue" points="286.039,-1142.34 296.618,-1142.91 288.705,-1135.87 286.039,-1142.34"/>
</g>
<!-- Node17 -->
<g id="node34" class="node"><title>Node17</title>
<a xlink:href="cvm-hfa_8c.html#a148abbfdeebb207ff46884af8eeb8fa4" target="_top" xlink:title="API to set PP resource deallocator for partial matches.">
<polygon fill="white" stroke="black" points="291,-1100.5 291,-1121.5 423,-1121.5 423,-1100.5 291,-1100.5"/>
<text text-anchor="middle" x="357" y="-1108.5" font-family="FreeSans" font-size="10.00">hfa_dev_set_fnp_ppfree</text>
</a>
</g>
<!-- Node10&#45;&gt;Node17 -->
<g id="edge34" class="edge"><title>Node10&#45;&gt;Node17</title>
<path fill="none" stroke="midnightblue" d="M160.622,-921.522C171.943,-952.758 209.787,-1045.6 274,-1091 276.723,-1092.93 279.609,-1094.67 282.607,-1096.24"/>
<polygon fill="midnightblue" stroke="midnightblue" points="281.342,-1099.51 291.892,-1100.48 284.251,-1093.14 281.342,-1099.51"/>
</g>
<!-- Node18 -->
<g id="node36" class="node"><title>Node18</title>
<a xlink:href="cvm-hfa_8c.html#a832239ee7b188265bdacbbfb7e879af1" target="_top" xlink:title="Default function pointer for PP deallocations.">
<polygon fill="white" stroke="black" points="298.5,-1060.5 298.5,-1081.5 415.5,-1081.5 415.5,-1060.5 298.5,-1060.5"/>
<text text-anchor="middle" x="357" y="-1068.5" font-family="FreeSans" font-size="10.00">hfa_defaultfn_ppfree</text>
</a>
</g>
<!-- Node10&#45;&gt;Node18 -->
<g id="edge36" class="edge"><title>Node10&#45;&gt;Node18</title>
<path fill="none" stroke="midnightblue" d="M162.726,-921.764C177.401,-948.253 219.099,-1016.92 274,-1051 278.644,-1053.88 283.672,-1056.35 288.877,-1058.46"/>
<polygon fill="midnightblue" stroke="midnightblue" points="287.799,-1061.79 298.393,-1061.89 290.172,-1055.21 287.799,-1061.79"/>
</g>
<!-- Node19 -->
<g id="node38" class="node"><title>Node19</title>
<a xlink:href="cvm-hfa_8c.html#a774451b83b300f862763d189c9758e1f" target="_top" xlink:title="API to set PP buffer size function pointer.">
<polygon fill="white" stroke="black" points="291,-1020.5 291,-1041.5 423,-1041.5 423,-1020.5 291,-1020.5"/>
<text text-anchor="middle" x="357" y="-1028.5" font-family="FreeSans" font-size="10.00">hfa_dev_set_fnp_ppsize</text>
</a>
</g>
<!-- Node10&#45;&gt;Node19 -->
<g id="edge38" class="edge"><title>Node10&#45;&gt;Node19</title>
<path fill="none" stroke="midnightblue" d="M166.139,-921.609C184.444,-942.159 227.826,-987.438 274,-1011 278.586,-1013.34 283.455,-1015.41 288.447,-1017.25"/>
<polygon fill="midnightblue" stroke="midnightblue" points="287.56,-1020.64 298.154,-1020.49 289.78,-1014 287.56,-1020.64"/>
</g>
<!-- Node20 -->
<g id="node40" class="node"><title>Node20</title>
<a xlink:href="cvm-hfa_8c.html#a11aab8e30488e4cfc900f60a0dabc784" target="_top" xlink:title="Default function pointer for PP size.">
<polygon fill="white" stroke="black" points="298.5,-980.5 298.5,-1001.5 415.5,-1001.5 415.5,-980.5 298.5,-980.5"/>
<text text-anchor="middle" x="357" y="-988.5" font-family="FreeSans" font-size="10.00">hfa_defaultfn_ppsize</text>
</a>
</g>
<!-- Node10&#45;&gt;Node20 -->
<g id="edge40" class="edge"><title>Node10&#45;&gt;Node20</title>
<path fill="none" stroke="midnightblue" d="M174.245,-921.501C196.558,-934.694 236.973,-957.267 274,-971 280.784,-973.516 287.998,-975.799 295.232,-977.848"/>
<polygon fill="midnightblue" stroke="midnightblue" points="294.504,-981.277 305.07,-980.495 296.323,-974.517 294.504,-981.277"/>
</g>
<!-- Node21 -->
<g id="node42" class="node"><title>Node21</title>
<a xlink:href="cvm-hfa_8c.html#a9a0b038e0d29435cb91a21d9c62806cc" target="_top" xlink:title="API to set PP resource allocator for temporary memory.">
<polygon fill="white" stroke="black" points="288,-940.5 288,-961.5 426,-961.5 426,-940.5 288,-940.5"/>
<text text-anchor="middle" x="357" y="-948.5" font-family="FreeSans" font-size="10.00">hfa_dev_set_fnp_pptalloc</text>
</a>
</g>
<!-- Node10&#45;&gt;Node21 -->
<g id="edge42" class="edge"><title>Node10&#45;&gt;Node21</title>
<path fill="none" stroke="midnightblue" d="M194.15,-918.43C222.201,-924.04 261.347,-931.869 294.229,-938.446"/>
<polygon fill="midnightblue" stroke="midnightblue" points="293.721,-941.913 304.213,-940.443 295.094,-935.049 293.721,-941.913"/>
</g>
<!-- Node22 -->
<g id="node44" class="node"><title>Node22</title>
<a xlink:href="cvm-hfa_8c.html#a2cbca63c413f08d3861f9b4c2855391f" target="_top" xlink:title="API to set PP resource deallocator for temporary memory.">
<polygon fill="white" stroke="black" points="289.5,-900.5 289.5,-921.5 424.5,-921.5 424.5,-900.5 289.5,-900.5"/>
<text text-anchor="middle" x="357" y="-908.5" font-family="FreeSans" font-size="10.00">hfa_dev_set_fnp_pptfree</text>
</a>
</g>
<!-- Node10&#45;&gt;Node22 -->
<g id="edge44" class="edge"><title>Node10&#45;&gt;Node22</title>
<path fill="none" stroke="midnightblue" d="M194.15,-911C217.998,-911 249.866,-911 279.086,-911"/>
<polygon fill="midnightblue" stroke="midnightblue" points="279.294,-914.5 289.293,-911 279.293,-907.5 279.294,-914.5"/>
</g>
<!-- Node23 -->
<g id="node46" class="node"><title>Node23</title>
<a xlink:href="cvm-hfa_8c.html#af0b17e8a09b1f7a1dd438ddcb1e4cd14" target="_top" xlink:title="API to set temporary memory size function pointer.">
<polygon fill="white" stroke="black" points="289.5,-860.5 289.5,-881.5 424.5,-881.5 424.5,-860.5 289.5,-860.5"/>
<text text-anchor="middle" x="357" y="-868.5" font-family="FreeSans" font-size="10.00">hfa_dev_set_fnp_pptsize</text>
</a>
</g>
<!-- Node10&#45;&gt;Node23 -->
<g id="edge46" class="edge"><title>Node10&#45;&gt;Node23</title>
<path fill="none" stroke="midnightblue" d="M194.15,-903.57C222.201,-897.96 261.347,-890.131 294.229,-883.554"/>
<polygon fill="midnightblue" stroke="midnightblue" points="295.094,-886.951 304.213,-881.557 293.721,-880.087 295.094,-886.951"/>
</g>
<!-- Node24 -->
<g id="node48" class="node"><title>Node24</title>
<a xlink:href="cvm-hfa_8c.html#aa2754afcdd94eb3dcd90c374f779dd24" target="_top" xlink:title="API to set PP resource allocator for match/result buffer.">
<polygon fill="white" stroke="black" points="274,-820.5 274,-841.5 440,-841.5 440,-820.5 274,-820.5"/>
<text text-anchor="middle" x="357" y="-828.5" font-family="FreeSans" font-size="10.00">hfa_dev_set_fnp_ppmatchalloc</text>
</a>
</g>
<!-- Node10&#45;&gt;Node24 -->
<g id="edge48" class="edge"><title>Node10&#45;&gt;Node24</title>
<path fill="none" stroke="midnightblue" d="M174.245,-900.499C196.558,-887.306 236.973,-864.733 274,-851 280.784,-848.484 287.998,-846.201 295.232,-844.152"/>
<polygon fill="midnightblue" stroke="midnightblue" points="296.323,-847.483 305.07,-841.505 294.504,-840.723 296.323,-847.483"/>
</g>
<!-- Node25 -->
<g id="node50" class="node"><title>Node25</title>
<a xlink:href="cvm-hfa_8c.html#ad022f5aec72780af8b36533884693539" target="_top" xlink:title="API to set PP resource deallocator for result/match buf.">
<polygon fill="white" stroke="black" points="275.5,-780.5 275.5,-801.5 438.5,-801.5 438.5,-780.5 275.5,-780.5"/>
<text text-anchor="middle" x="357" y="-788.5" font-family="FreeSans" font-size="10.00">hfa_dev_set_fnp_ppmatchfree</text>
</a>
</g>
<!-- Node10&#45;&gt;Node25 -->
<g id="edge50" class="edge"><title>Node10&#45;&gt;Node25</title>
<path fill="none" stroke="midnightblue" d="M166.139,-900.391C184.444,-879.841 227.826,-834.562 274,-811 278.586,-808.66 283.455,-806.587 288.447,-804.751"/>
<polygon fill="midnightblue" stroke="midnightblue" points="289.78,-807.996 298.154,-801.506 287.56,-801.357 289.78,-807.996"/>
</g>
<!-- Node26 -->
<g id="node52" class="node"><title>Node26</title>
<a xlink:href="cvm-hfa_8c.html#a8b71887165c143e32600513d12f9274f" target="_top" xlink:title="API to set match buffer size function pointer.">
<polygon fill="white" stroke="black" points="275.5,-740.5 275.5,-761.5 438.5,-761.5 438.5,-740.5 275.5,-740.5"/>
<text text-anchor="middle" x="357" y="-748.5" font-family="FreeSans" font-size="10.00">hfa_dev_set_fnp_ppmatchsize</text>
</a>
</g>
<!-- Node10&#45;&gt;Node26 -->
<g id="edge52" class="edge"><title>Node10&#45;&gt;Node26</title>
<path fill="none" stroke="midnightblue" d="M162.726,-900.236C177.401,-873.747 219.099,-805.081 274,-771 277.375,-768.905 280.952,-767.03 284.653,-765.351"/>
<polygon fill="midnightblue" stroke="midnightblue" points="286.089,-768.546 294.062,-761.569 283.478,-762.051 286.089,-768.546"/>
</g>
<!-- Node27 -->
<g id="node54" class="node"><title>Node27</title>
<a xlink:href="cvm-hfa_8c.html#abcc0595aa8b2bb2d6116d600abbf55f8" target="_top" xlink:title="API to set PP error callback.">
<polygon fill="white" stroke="black" points="289,-700.5 289,-721.5 425,-721.5 425,-700.5 289,-700.5"/>
<text text-anchor="middle" x="357" y="-708.5" font-family="FreeSans" font-size="10.00">hfa_dev_set_fnp_pperror</text>
</a>
</g>
<!-- Node10&#45;&gt;Node27 -->
<g id="edge54" class="edge"><title>Node10&#45;&gt;Node27</title>
<path fill="none" stroke="midnightblue" d="M160.622,-900.478C171.943,-869.242 209.787,-776.402 274,-731 276.723,-729.075 279.609,-727.333 282.607,-725.758"/>
<polygon fill="midnightblue" stroke="midnightblue" points="284.251,-728.855 291.892,-721.516 281.342,-722.489 284.251,-728.855"/>
</g>
<!-- Node28 -->
<g id="node56" class="node"><title>Node28</title>
<a xlink:href="cvm-hfa_8c.html#ac115556b315ff135ed2fd059cdf7d066" target="_top" xlink:title="Default function pointer for PP errors.">
<polygon fill="white" stroke="black" points="301.5,-660.5 301.5,-681.5 412.5,-681.5 412.5,-660.5 301.5,-660.5"/>
<text text-anchor="middle" x="357" y="-668.5" font-family="FreeSans" font-size="10.00">hfa_defaultfn_pperr</text>
</a>
</g>
<!-- Node10&#45;&gt;Node28 -->
<g id="edge56" class="edge"><title>Node10&#45;&gt;Node28</title>
<path fill="none" stroke="midnightblue" d="M159.385,-900.262C167.926,-864.422 200.48,-747.969 274,-691 279.353,-686.852 285.439,-683.548 291.825,-680.918"/>
<polygon fill="midnightblue" stroke="midnightblue" points="293.101,-684.179 301.348,-677.528 290.753,-677.585 293.101,-684.179"/>
</g>
<!-- Node30 -->
<g id="node60" class="node"><title>Node30</title>
<a xlink:href="cvm-hfa-graph_8c.html#a80a6427d5a90c7bd1e4cbfd62a808524" target="_top" xlink:title="This routine initializes a graph object which can be used to perform various operations on a graph fi...">
<polygon fill="white" stroke="black" points="303.5,-380.5 303.5,-401.5 410.5,-401.5 410.5,-380.5 303.5,-380.5"/>
<text text-anchor="middle" x="357" y="-388.5" font-family="FreeSans" font-size="10.00">hfa_dev_graph_init</text>
</a>
</g>
<!-- Node29&#45;&gt;Node30 -->
<g id="edge60" class="edge"><title>Node29&#45;&gt;Node30</title>
<path fill="none" stroke="midnightblue" d="M191.6,-509.252C207.254,-506.875 225.095,-501.76 238,-491 267.946,-466.031 243.984,-435.884 274,-411 279.727,-406.252 286.398,-402.597 293.424,-399.789"/>
<polygon fill="midnightblue" stroke="midnightblue" points="294.835,-403.006 303.168,-396.462 292.573,-396.381 294.835,-403.006"/>
</g>
<!-- Node31 -->
<g id="node62" class="node"><title>Node31</title>
<a xlink:href="cvm-hfa-graph_8c.html#a32df4a93ffcd7da232613b13204b2a80" target="_top" xlink:title="This routine sets the cluster&#45;mask for the graph.">
<polygon fill="white" stroke="black" points="298.5,-540.5 298.5,-561.5 415.5,-561.5 415.5,-540.5 298.5,-540.5"/>
<text text-anchor="middle" x="357" y="-548.5" font-family="FreeSans" font-size="10.00">hfa_graph_setcluster</text>
</a>
</g>
<!-- Node29&#45;&gt;Node31 -->
<g id="edge62" class="edge"><title>Node29&#45;&gt;Node31</title>
<path fill="none" stroke="midnightblue" d="M191.837,-517.967C219.932,-523.586 260.181,-531.636 293.912,-538.382"/>
<polygon fill="midnightblue" stroke="midnightblue" points="293.658,-541.901 304.15,-540.43 295.03,-535.037 293.658,-541.901"/>
</g>
<!-- Node32 -->
<g id="node64" class="node"><title>Node32</title>
<a xlink:href="app-utils_8c.html#aed95bb72627cff313c596ebcfcd8af61" target="_top" xlink:title="Parse graph into chunks and load graph to HFA memory.">
<polygon fill="white" stroke="red" points="289.5,-500.5 289.5,-521.5 424.5,-521.5 424.5,-500.5 289.5,-500.5"/>
<text text-anchor="middle" x="357" y="-508.5" font-family="FreeSans" font-size="10.00">hfautils_download_graph</text>
</a>
</g>
<!-- Node29&#45;&gt;Node32 -->
<g id="edge64" class="edge"><title>Node29&#45;&gt;Node32</title>
<path fill="none" stroke="midnightblue" d="M191.837,-511C215.969,-511 249.069,-511 279.302,-511"/>
<polygon fill="midnightblue" stroke="midnightblue" points="279.429,-514.5 289.429,-511 279.429,-507.5 279.429,-514.5"/>
</g>
<!-- Node33 -->
<g id="node66" class="node"><title>Node33</title>
<a xlink:href="cvm-hfa-graph_8c.html#a60861d15ed5f6bccc42bbde834aa2b32" target="_top" xlink:title="This routine is used to cacheload a cacheable graph in a blocking manner.">
<polygon fill="white" stroke="red" points="297,-460.5 297,-481.5 417,-481.5 417,-460.5 297,-460.5"/>
<text text-anchor="middle" x="357" y="-468.5" font-family="FreeSans" font-size="10.00">hfa_graph_cacheload</text>
</a>
</g>
<!-- Node29&#45;&gt;Node33 -->
<g id="edge66" class="edge"><title>Node29&#45;&gt;Node33</title>
<path fill="none" stroke="midnightblue" d="M191.837,-504.033C219.932,-498.414 260.181,-490.364 293.912,-483.618"/>
<polygon fill="midnightblue" stroke="midnightblue" points="295.03,-486.963 304.15,-481.57 293.658,-480.099 295.03,-486.963"/>
</g>
<!-- Node34 -->
<g id="node68" class="node"><title>Node34</title>
<a xlink:href="cvm-hfa-graph_8c.html#a5e79919f5903d97aee5e82bfc7e71597" target="_top" xlink:title="This routine is the counterpart of hfa_dev_graph_init().">
<polygon fill="white" stroke="black" points="291,-340.5 291,-361.5 423,-361.5 423,-340.5 291,-340.5"/>
<text text-anchor="middle" x="357" y="-348.5" font-family="FreeSans" font-size="10.00">hfa_dev_graph_cleanup</text>
</a>
</g>
<!-- Node29&#45;&gt;Node34 -->
<g id="edge68" class="edge"><title>Node29&#45;&gt;Node34</title>
<path fill="none" stroke="midnightblue" d="M191.851,-510.048C207.75,-507.866 225.724,-502.684 238,-491 278.333,-452.611 233.559,-409.275 274,-371 276.422,-368.708 279.06,-366.664 281.856,-364.842"/>
<polygon fill="midnightblue" stroke="midnightblue" points="283.574,-367.892 290.665,-360.019 280.213,-361.752 283.574,-367.892"/>
</g>
<!-- Node35 -->
<g id="node70" class="node"><title>Node35</title>
<a xlink:href="cvm-hfa-graph_8c.html#abbfd41020571ab71bee78818f54f88b8" target="_top" xlink:title="This is a utility routine which returns the savelen property of the graph.">
<polygon fill="white" stroke="black" points="295.5,-420.5 295.5,-441.5 418.5,-441.5 418.5,-420.5 295.5,-420.5"/>
<text text-anchor="middle" x="357" y="-428.5" font-family="FreeSans" font-size="10.00">hfa_graph_getsavelen</text>
</a>
</g>
<!-- Node29&#45;&gt;Node35 -->
<g id="edge70" class="edge"><title>Node29&#45;&gt;Node35</title>
<path fill="none" stroke="midnightblue" d="M191.846,-507.052C206.842,-504.212 224.086,-499.341 238,-491 258.514,-478.703 253.452,-463.24 274,-451 277.828,-448.72 281.902,-446.699 286.111,-444.909"/>
<polygon fill="midnightblue" stroke="midnightblue" points="287.39,-448.167 295.497,-441.346 284.906,-441.622 287.39,-448.167"/>
</g>
<!-- Node37 -->
<g id="node74" class="node"><title>Node37</title>
<a xlink:href="cvm-hfa-search_8c.html#a64ba7a41c7d677da10e588a58789015b" target="_top" xlink:title="This routine initializes a Search Context.">
<polygon fill="white" stroke="red" points="293.5,-40.5 293.5,-61.5 420.5,-61.5 420.5,-40.5 293.5,-40.5"/>
<text text-anchor="middle" x="357" y="-48.5" font-family="FreeSans" font-size="10.00">hfa_dev_searchctx_init</text>
</a>
</g>
<!-- Node36&#45;&gt;Node37 -->
<g id="edge74" class="edge"><title>Node36&#45;&gt;Node37</title>
<path fill="none" stroke="midnightblue" d="M194.618,-51C219.526,-51 253.03,-51 283.135,-51"/>
<polygon fill="midnightblue" stroke="midnightblue" points="283.197,-54.5001 293.197,-51 283.197,-47.5001 283.197,-54.5001"/>
</g>
<!-- Node38 -->
<g id="node76" class="node"><title>Node38</title>
<a xlink:href="cvm-hfa-search_8c.html#a954753c0e6f4a59599d05f1262a25b38" target="_top" xlink:title="This routine associates a graph with sctx.">
<polygon fill="white" stroke="red" points="291,-0.5 291,-21.5 423,-21.5 423,-0.5 291,-0.5"/>
<text text-anchor="middle" x="357" y="-8.5" font-family="FreeSans" font-size="10.00">hfa_searchctx_setgraph</text>
</a>
</g>
<!-- Node36&#45;&gt;Node38 -->
<g id="edge76" class="edge"><title>Node36&#45;&gt;Node38</title>
<path fill="none" stroke="midnightblue" d="M194.618,-43.4763C222.716,-37.8568 261.754,-30.0492 294.511,-23.4978"/>
<polygon fill="midnightblue" stroke="midnightblue" points="295.337,-26.902 304.456,-21.5087 293.964,-20.0379 295.337,-26.902"/>
</g>
<!-- Node39 -->
<g id="node78" class="node"><title>Node39</title>
<a xlink:href="cvm-hfa-search_8c.html#a60c8025118f6a47f924733e47db8c77d" target="_top" xlink:title="This routine is used to specify settings used during the search and getmatches API.">
<polygon fill="white" stroke="red" points="293,-80.5 293,-101.5 421,-101.5 421,-80.5 293,-80.5"/>
<text text-anchor="middle" x="357" y="-88.5" font-family="FreeSans" font-size="10.00">hfa_searchctx_setflags</text>
</a>
</g>
<!-- Node36&#45;&gt;Node39 -->
<g id="edge78" class="edge"><title>Node36&#45;&gt;Node39</title>
<path fill="none" stroke="midnightblue" d="M194.618,-58.5237C222.716,-64.1432 261.754,-71.9508 294.511,-78.5022"/>
<polygon fill="midnightblue" stroke="midnightblue" points="293.964,-81.9621 304.456,-80.4913 295.337,-75.098 293.964,-81.9621"/>
</g>
<!-- Node40 -->
<g id="node80" class="node"><title>Node40</title>
<a xlink:href="cvm-hfa-search_8c.html#a30064f173d814bd3791b59d675c2f45f" target="_top" xlink:title="This routine cleans&#45;up a Search Context.">
<polygon fill="white" stroke="red" points="281,-210.5 281,-231.5 433,-231.5 433,-210.5 281,-210.5"/>
<text text-anchor="middle" x="357" y="-218.5" font-family="FreeSans" font-size="10.00">hfa_dev_searchctx_cleanup</text>
</a>
</g>
<!-- Node36&#45;&gt;Node40 -->
<g id="edge80" class="edge"><title>Node36&#45;&gt;Node40</title>
<path fill="none" stroke="midnightblue" d="M194.534,-55.0043C208.975,-57.8448 225.083,-62.7003 238,-71 251.722,-79.8167 314.349,-163.28 342.828,-201.751"/>
<polygon fill="midnightblue" stroke="midnightblue" points="340.219,-204.11 348.976,-210.074 345.849,-199.951 340.219,-204.11"/>
</g>
<!-- Node41&#45;&gt;Node8 -->
<g id="edge84" class="edge"><title>Node41&#45;&gt;Node8</title>
<path fill="none" stroke="midnightblue" d="M204.558,-1452.51C225.705,-1456.67 250.978,-1460.95 274,-1463 347.487,-1469.54 367.092,-1474.29 440,-1463 448.803,-1461.64 458.06,-1459.26 466.686,-1456.61"/>
<polygon fill="midnightblue" stroke="midnightblue" points="468.037,-1459.85 476.458,-1453.42 465.865,-1453.2 468.037,-1459.85"/>
</g>
<!-- Node50&#45;&gt;Node34 -->
<g id="edge106" class="edge"><title>Node50&#45;&gt;Node34</title>
<path fill="none" stroke="midnightblue" d="M184.115,-470.212C201.277,-468.4 222.981,-463.523 238,-451 267.946,-426.031 243.984,-395.884 274,-371 276.432,-368.984 279.034,-367.165 281.762,-365.524"/>
<polygon fill="midnightblue" stroke="midnightblue" points="283.541,-368.545 290.842,-360.867 280.347,-362.316 283.541,-368.545"/>
</g>
<!-- Node50&#45;&gt;Node40 -->
<g id="edge104" class="edge"><title>Node50&#45;&gt;Node40</title>
<path fill="none" stroke="midnightblue" d="M184.302,-470.889C201.762,-469.377 223.731,-464.581 238,-451 278.333,-412.611 248.836,-380.671 274,-331 291.944,-295.58 321.507,-259.852 340.082,-239.103"/>
<polygon fill="midnightblue" stroke="midnightblue" points="342.705,-241.421 346.845,-231.668 337.527,-236.711 342.705,-241.421"/>
</g>
</g>
</svg>
