<?xml version="1.0" encoding="UTF-8" standalone="no"?>
<!DOCTYPE svg PUBLIC "-//W3C//DTD SVG 1.1//EN"
 "http://www.w3.org/Graphics/SVG/1.1/DTD/svg11.dtd">
<!-- Generated by graphviz version 2.24.0 (20090616.2323)
 -->
<!-- Title: Initialize_Ctx Pages: 1 -->
<!--zoomable 218 -->
<svg id="main" version="1.1" xmlns="http://www.w3.org/2000/svg" xmlns:xlink="http://www.w3.org/1999/xlink" xml:space="preserve" onload="init(evt)">
        <defs>
                <circle id="rim" cx="0" cy="0" r="7"/>
                <circle id="rim2" cx="0" cy="0" r="3.5"/>
                <g id="zoomPlus">
                        <use xlink:href="#rim" fill="#404040">
                                <set attributeName="fill" to="#808080" begin="zoomplus.mouseover" end="zoomplus.mouseout"/>
                        </use>
                        <path d="M-4,0h8M0,-4v8" fill="none" stroke="white" stroke-width="1.5" pointer-events="none"/>
                </g>
                <g id="zoomMin">
                        <use xlink:href="#rim" fill="#404040">
                                <set attributeName="fill" to="#808080" begin="zoomminus.mouseover" end="zoomminus.mouseout"/>
                        </use>
                        <path d="M-4,0h8" fill="none" stroke="white" stroke-width="1.5" pointer-events="none"/>
                </g>
                <g id="dirArrow">
                        <path fill="none" stroke="white" stroke-width="1.5" d="M0,-3.0v7 M-2.5,-0.5L0,-3.0L2.5,-0.5"/>
                </g>
               <g id="resetDef">
                       <use xlink:href="#rim2" fill="#404040">
                               <set attributeName="fill" to="#808080" begin="reset.mouseover" end="reset.mouseout"/>
                       </use>
               </g>
        </defs>

<script type="text/javascript">
var viewWidth = 692;
var viewHeight = 218;
var sectionId = 'dynsection-4';
</script>
<script xlink:href="svgpan.js"/>
<svg id="graph" class="graph">
<g id="viewport">
<title>Initialize_Ctx</title>
<polygon fill="white" stroke="white" points="-4,5 -4,-214 689,-214 689,5 -4,5"/>
<!-- Node1 -->
<g id="node1" class="node"><title>Node1</title>
<polygon fill="#bfbfbf" stroke="black" points="0,-119.5 0,-140.5 76,-140.5 76,-119.5 0,-119.5"/>
<text text-anchor="middle" x="38" y="-127.5" font-family="FreeSans" font-size="10.00">Initialize_Ctx</text>
</g>
<!-- Node2 -->
<g id="node3" class="node"><title>Node2</title>
<a xlink:href="cvm-hfa-graph_8c.html#a44cb6a05b551fe7bc3090c1ba4ee9d8b" target="_top" xlink:title="This routine returns a subgraph of a linked graph.">
<polygon fill="white" stroke="black" points="113,-179.5 113,-200.5 243,-200.5 243,-179.5 113,-179.5"/>
<text text-anchor="middle" x="178" y="-187.5" font-family="FreeSans" font-size="10.00">hfa_graph_getsubgraph</text>
</a>
</g>
<!-- Node1&#45;&gt;Node2 -->
<g id="edge2" class="edge"><title>Node1&#45;&gt;Node2</title>
<path fill="none" stroke="midnightblue" d="M55.1548,-140.56C69.8494,-149.288 91.78,-161.573 112,-170 117.381,-172.243 123.102,-174.356 128.84,-176.307"/>
<polygon fill="midnightblue" stroke="midnightblue" points="127.862,-179.67 138.454,-179.433 130.026,-173.013 127.862,-179.67"/>
</g>
<!-- Node3 -->
<g id="node5" class="node"><title>Node3</title>
<a xlink:href="cvm-hfa-search_8c.html#a64ba7a41c7d677da10e588a58789015b" target="_top" xlink:title="This routine initializes a Search Context.">
<polygon fill="white" stroke="black" points="114.5,-139.5 114.5,-160.5 241.5,-160.5 241.5,-139.5 114.5,-139.5"/>
<text text-anchor="middle" x="178" y="-147.5" font-family="FreeSans" font-size="10.00">hfa_dev_searchctx_init</text>
</a>
</g>
<!-- Node1&#45;&gt;Node3 -->
<g id="edge4" class="edge"><title>Node1&#45;&gt;Node3</title>
<path fill="none" stroke="midnightblue" d="M76.2556,-135.465C85.0284,-136.718 94.6451,-138.092 104.356,-139.479"/>
<polygon fill="midnightblue" stroke="midnightblue" points="104.083,-142.976 114.477,-140.925 105.073,-136.046 104.083,-142.976"/>
</g>
<!-- Node7 -->
<g id="node13" class="node"><title>Node7</title>
<a xlink:href="cvm-hfa-search_8c.html#a954753c0e6f4a59599d05f1262a25b38" target="_top" xlink:title="This routine associates a graph with sctx.">
<polygon fill="white" stroke="black" points="112,-99.5 112,-120.5 244,-120.5 244,-99.5 112,-99.5"/>
<text text-anchor="middle" x="178" y="-107.5" font-family="FreeSans" font-size="10.00">hfa_searchctx_setgraph</text>
</a>
</g>
<!-- Node1&#45;&gt;Node7 -->
<g id="edge12" class="edge"><title>Node1&#45;&gt;Node7</title>
<path fill="none" stroke="midnightblue" d="M76.2556,-124.535C84.2555,-123.392 92.9571,-122.149 101.792,-120.887"/>
<polygon fill="midnightblue" stroke="midnightblue" points="102.388,-124.337 111.792,-119.458 101.398,-117.408 102.388,-124.337"/>
</g>
<!-- Node11 -->
<g id="node22" class="node"><title>Node11</title>
<a xlink:href="cvm-hfa-search_8c.html#a60c8025118f6a47f924733e47db8c77d" target="_top" xlink:title="This routine is used to specify settings used during the search and getmatches API.">
<polygon fill="white" stroke="black" points="114,-40.5 114,-61.5 242,-61.5 242,-40.5 114,-40.5"/>
<text text-anchor="middle" x="178" y="-48.5" font-family="FreeSans" font-size="10.00">hfa_searchctx_setflags</text>
</a>
</g>
<!-- Node1&#45;&gt;Node11 -->
<g id="edge22" class="edge"><title>Node1&#45;&gt;Node11</title>
<path fill="none" stroke="midnightblue" d="M56.881,-119.346C80.8872,-105.799 122.53,-82.3008 150.177,-66.6999"/>
<polygon fill="midnightblue" stroke="midnightblue" points="151.982,-69.7005 158.971,-61.7378 148.542,-63.6041 151.982,-69.7005"/>
</g>
<!-- Node4 -->
<g id="node7" class="node"><title>Node4</title>
<a xlink:href="cvm-hfa-stats_8c.html#a1cff986555a79b0d5ccee49801cb0056" target="_top" xlink:title="This routine allocates the memory for counters to maintain the statistics of search context...">
<polygon fill="white" stroke="black" points="283.5,-158.5 283.5,-179.5 414.5,-179.5 414.5,-158.5 283.5,-158.5"/>
<text text-anchor="middle" x="349" y="-166.5" font-family="FreeSans" font-size="10.00">hfa_searchctx_stats_init</text>
</a>
</g>
<!-- Node3&#45;&gt;Node4 -->
<g id="edge6" class="edge"><title>Node3&#45;&gt;Node4</title>
<path fill="none" stroke="midnightblue" d="M241.674,-157.075C251.964,-158.218 262.706,-159.412 273.248,-160.583"/>
<polygon fill="midnightblue" stroke="midnightblue" points="272.947,-164.071 283.273,-161.697 273.721,-157.114 272.947,-164.071"/>
</g>
<!-- Node5 -->
<g id="node9" class="node"><title>Node5</title>
<a xlink:href="cvm-hfa-stats_8c.html#acbdfa65e476c04cd9b67b7c462eefe56" target="_top" xlink:title="This routine allocates required memory from STATS ARENA.">
<polygon fill="white" stroke="black" points="454.5,-188.5 454.5,-209.5 583.5,-209.5 583.5,-188.5 454.5,-188.5"/>
<text text-anchor="middle" x="519" y="-196.5" font-family="FreeSans" font-size="10.00">hfa_stats_memoryalloc</text>
</a>
</g>
<!-- Node4&#45;&gt;Node5 -->
<g id="edge8" class="edge"><title>Node4&#45;&gt;Node5</title>
<path fill="none" stroke="midnightblue" d="M408.936,-179.577C421.962,-181.876 435.85,-184.327 449.22,-186.686"/>
<polygon fill="midnightblue" stroke="midnightblue" points="448.863,-190.177 459.319,-188.468 450.08,-183.283 448.863,-190.177"/>
</g>
<!-- Node6 -->
<g id="node11" class="node"><title>Node6</title>
<a xlink:href="cvm-hfa-stats_8c.html#a7a2acbe48c3850d43256938ee996aa16" target="_top" xlink:title="This routine frees memory to STATS ARENA.">
<polygon fill="white" stroke="black" points="456.5,-148.5 456.5,-169.5 581.5,-169.5 581.5,-148.5 456.5,-148.5"/>
<text text-anchor="middle" x="519" y="-156.5" font-family="FreeSans" font-size="10.00">hfa_stats_memoryfree</text>
</a>
</g>
<!-- Node4&#45;&gt;Node6 -->
<g id="edge10" class="edge"><title>Node4&#45;&gt;Node6</title>
<path fill="none" stroke="midnightblue" d="M414.726,-165.134C424.957,-164.532 435.582,-163.907 445.963,-163.296"/>
<polygon fill="midnightblue" stroke="midnightblue" points="446.463,-166.773 456.24,-162.692 446.051,-159.785 446.463,-166.773"/>
</g>
<!-- Node8 -->
<g id="node15" class="node"><title>Node8</title>
<a xlink:href="cvm-hfa-pp_8c.html#a9ad01b0f0de0f65b99a53f6c64f147e2" target="_top" xlink:title="ppinit">
<polygon fill="white" stroke="black" points="498,-89.5 498,-110.5 540,-110.5 540,-89.5 498,-89.5"/>
<text text-anchor="middle" x="519" y="-97.5" font-family="FreeSans" font-size="10.00">ppinit</text>
</a>
</g>
<!-- Node7&#45;&gt;Node8 -->
<g id="edge14" class="edge"><title>Node7&#45;&gt;Node8</title>
<path fill="none" stroke="midnightblue" d="M244.01,-112.346C292.25,-113.556 359.232,-114.191 418,-111 441.439,-109.727 467.803,-106.805 487.717,-104.292"/>
<polygon fill="midnightblue" stroke="midnightblue" points="488.307,-107.745 497.774,-102.989 487.408,-100.803 488.307,-107.745"/>
</g>
<!-- Node10 -->
<g id="node19" class="node"><title>Node10</title>
<a xlink:href="cvm-hfa-search_8c.html#a3200f5303f0611887f35dd500e7a8d00" target="_top" xlink:title="This is a utility routine which associates an application&#45;specifc cookie in the sctx.">
<polygon fill="white" stroke="black" points="280,-80.5 280,-101.5 418,-101.5 418,-80.5 280,-80.5"/>
<text text-anchor="middle" x="349" y="-88.5" font-family="FreeSans" font-size="10.00">hfa_searchctx_setppuarg</text>
</a>
</g>
<!-- Node7&#45;&gt;Node10 -->
<g id="edge18" class="edge"><title>Node7&#45;&gt;Node10</title>
<path fill="none" stroke="midnightblue" d="M244.113,-102.654C252.557,-101.716 261.267,-100.748 269.89,-99.79"/>
<polygon fill="midnightblue" stroke="midnightblue" points="270.399,-103.255 279.951,-98.6721 269.626,-96.2979 270.399,-103.255"/>
</g>
<!-- Node9 -->
<g id="node17" class="node"><title>Node9</title>
<a xlink:href="pp_8h.html#adc8d105abb8f12812385bb87d15e6e32" target="_top" xlink:title="pphfa_init">
<polygon fill="white" stroke="black" points="620.5,-89.5 620.5,-110.5 683.5,-110.5 683.5,-89.5 620.5,-89.5"/>
<text text-anchor="middle" x="652" y="-97.5" font-family="FreeSans" font-size="10.00">pphfa_init</text>
</a>
</g>
<!-- Node8&#45;&gt;Node9 -->
<g id="edge16" class="edge"><title>Node8&#45;&gt;Node9</title>
<path fill="none" stroke="midnightblue" d="M540.074,-100C558.897,-100 587.02,-100 610.366,-100"/>
<polygon fill="midnightblue" stroke="midnightblue" points="610.371,-103.5 620.371,-100 610.371,-96.5001 610.371,-103.5"/>
</g>
<!-- Node10&#45;&gt;Node8 -->
<g id="edge20" class="edge"><title>Node10&#45;&gt;Node8</title>
<path fill="none" stroke="midnightblue" d="M418.146,-94.6606C442.345,-95.9418 468.321,-97.317 487.85,-98.3509"/>
<polygon fill="midnightblue" stroke="midnightblue" points="487.813,-101.854 497.984,-98.8874 488.183,-94.8635 487.813,-101.854"/>
</g>
<!-- Node12 -->
<g id="node24" class="node"><title>Node12</title>
<a xlink:href="cvm-hfa-pp_8c.html#add6064138ec2e35741929056a0992d8d" target="_top" xlink:title="ppgetstats">
<polygon fill="white" stroke="black" points="316,-40.5 316,-61.5 382,-61.5 382,-40.5 316,-40.5"/>
<text text-anchor="middle" x="349" y="-48.5" font-family="FreeSans" font-size="10.00">ppgetstats</text>
</a>
</g>
<!-- Node11&#45;&gt;Node12 -->
<g id="edge24" class="edge"><title>Node11&#45;&gt;Node12</title>
<path fill="none" stroke="midnightblue" d="M242.161,-51C263.27,-51 286.234,-51 305.444,-51"/>
<polygon fill="midnightblue" stroke="midnightblue" points="305.693,-54.5001 315.693,-51 305.693,-47.5001 305.693,-54.5001"/>
</g>
<!-- Node14 -->
<g id="node28" class="node"><title>Node14</title>
<a xlink:href="cvm-hfa-pp_8c.html#a73cd0d7244d64410753dac7b809d2060" target="_top" xlink:title="ppassignstats">
<polygon fill="white" stroke="black" points="308.5,-0.5 308.5,-21.5 389.5,-21.5 389.5,-0.5 308.5,-0.5"/>
<text text-anchor="middle" x="349" y="-8.5" font-family="FreeSans" font-size="10.00">ppassignstats</text>
</a>
</g>
<!-- Node11&#45;&gt;Node14 -->
<g id="edge28" class="edge"><title>Node11&#45;&gt;Node14</title>
<path fill="none" stroke="midnightblue" d="M222.928,-40.4905C246.133,-35.0625 274.528,-28.4204 298.491,-22.8149"/>
<polygon fill="midnightblue" stroke="midnightblue" points="299.522,-26.1684 308.462,-20.4826 297.927,-19.3524 299.522,-26.1684"/>
</g>
<!-- Node13 -->
<g id="node26" class="node"><title>Node13</title>
<a xlink:href="pp_8h.html#a808d5057ee5670ce724a6a88fc22b799" target="_top" xlink:title="pphfa_getstats">
<polygon fill="white" stroke="black" points="475.5,-40.5 475.5,-61.5 562.5,-61.5 562.5,-40.5 475.5,-40.5"/>
<text text-anchor="middle" x="519" y="-48.5" font-family="FreeSans" font-size="10.00">pphfa_getstats</text>
</a>
</g>
<!-- Node12&#45;&gt;Node13 -->
<g id="edge26" class="edge"><title>Node12&#45;&gt;Node13</title>
<path fill="none" stroke="midnightblue" d="M382.181,-51C405.744,-51 437.896,-51 465.113,-51"/>
<polygon fill="midnightblue" stroke="midnightblue" points="465.273,-54.5001 475.273,-51 465.273,-47.5001 465.273,-54.5001"/>
</g>
<!-- Node15 -->
<g id="node30" class="node"><title>Node15</title>
<a xlink:href="pp_8h.html#ad0cc4aeca687557949697bef25cdb764" target="_top" xlink:title="pphfa_assignstats">
<polygon fill="white" stroke="black" points="468,-0.5 468,-21.5 570,-21.5 570,-0.5 468,-0.5"/>
<text text-anchor="middle" x="519" y="-8.5" font-family="FreeSans" font-size="10.00">pphfa_assignstats</text>
</a>
</g>
<!-- Node14&#45;&gt;Node15 -->
<g id="edge30" class="edge"><title>Node14&#45;&gt;Node15</title>
<path fill="none" stroke="midnightblue" d="M389.719,-11C410.078,-11 435.139,-11 457.758,-11"/>
<polygon fill="midnightblue" stroke="midnightblue" points="457.954,-14.5001 467.954,-11 457.954,-7.5001 457.954,-14.5001"/>
</g>
</g>
</svg>
        <g id="navigator" transform="translate(0 0)" fill="#404254">
                <rect fill="#f2f5e9" fill-opacity="0.5" stroke="#606060" stroke-width=".5" x="0" y="0" width="60" height="60"/>
                <use id="zoomplus" xlink:href="#zoomPlus" x="17" y="9" onmousedown="handleZoom(evt,'in')"/>
                <use id="zoomminus" xlink:href="#zoomMin" x="42" y="9" onmousedown="handleZoom(evt,'out')"/>
                <use id="reset" xlink:href="#resetDef" x="30" y="36" onmousedown="handleReset()"/>
                <g id="arrowUp" xlink:href="#dirArrow" transform="translate(30 24)" onmousedown="handlePan(0,-1)">
                  <use xlink:href="#rim" fill="#404040">
                        <set attributeName="fill" to="#808080" begin="arrowUp.mouseover" end="arrowUp.mouseout"/>
                  </use>
                  <path fill="none" stroke="white" stroke-width="1.5" d="M0,-3.0v7 M-2.5,-0.5L0,-3.0L2.5,-0.5"/>
                </g>
                <g id="arrowRight" xlink:href="#dirArrow" transform="rotate(90) translate(36 -43)" onmousedown="handlePan(1,0)">
                  <use xlink:href="#rim" fill="#404040">
                        <set attributeName="fill" to="#808080" begin="arrowRight.mouseover" end="arrowRight.mouseout"/>
                  </use>
                  <path fill="none" stroke="white" stroke-width="1.5" d="M0,-3.0v7 M-2.5,-0.5L0,-3.0L2.5,-0.5"/>
                </g>
                <g id="arrowDown" xlink:href="#dirArrow" transform="rotate(180) translate(-30 -48)" onmousedown="handlePan(0,1)">
                  <use xlink:href="#rim" fill="#404040">
                        <set attributeName="fill" to="#808080" begin="arrowDown.mouseover" end="arrowDown.mouseout"/>
                  </use>
                  <path fill="none" stroke="white" stroke-width="1.5" d="M0,-3.0v7 M-2.5,-0.5L0,-3.0L2.5,-0.5"/>
                </g>
                <g id="arrowLeft" xlink:href="#dirArrow" transform="rotate(270) translate(-36 17)" onmousedown="handlePan(-1,0)">
                  <use xlink:href="#rim" fill="#404040">
                        <set attributeName="fill" to="#808080" begin="arrowLeft.mouseover" end="arrowLeft.mouseout"/>
                  </use>
                  <path fill="none" stroke="white" stroke-width="1.5" d="M0,-3.0v7 M-2.5,-0.5L0,-3.0L2.5,-0.5"/>
                </g>
        </g>
        <svg viewBox="0 0 15 15" width="100%" height="30px" preserveAspectRatio="xMaxYMin meet">
         <g id="arrow_out" transform="scale(0.3 0.3)">
          <a xlink:href="hfa-se-linkgraph_8c_a6604748091c732cb29568c12d0f77b4e_cgraph_org.svg" target="_base">
           <rect id="button" ry="5" rx="5" y="6" x="6" height="38" width="38"
                fill="#f2f5e9" fill-opacity="0.5" stroke="#606060" stroke-width="1.0"/>
           <path id="arrow"
             d="M 11.500037,31.436501 C 11.940474,20.09759 22.043105,11.32322 32.158766,21.979434 L 37.068811,17.246167 C 37.068811,17.246167 37.088388,32 37.088388,32 L 22.160133,31.978069 C 22.160133,31.978069 26.997745,27.140456 26.997745,27.140456 C 18.528582,18.264221 13.291696,25.230495 11.500037,31.436501 z"
             style="fill:#404040;"/>
          </a>
         </g>
        </svg>
</svg>
