<?xml version="1.0" encoding="UTF-8" standalone="no"?>
<!DOCTYPE svg PUBLIC "-//W3C//DTD SVG 1.1//EN"
 "http://www.w3.org/Graphics/SVG/1.1/DTD/svg11.dtd">
<!-- Generated by graphviz version 2.24.0 (20090616.2323)
 -->
<!-- Title: freewqe Pages: 1 -->
<svg width="272pt" height="30pt"
 viewBox="0.00 0.00 272.00 30.00" xmlns="http://www.w3.org/2000/svg" xmlns:xlink="http://www.w3.org/1999/xlink">
<g id="graph1" class="graph" transform="scale(1 1) rotate(0) translate(4 26)">
<title>freewqe</title>
<polygon fill="white" stroke="white" points="-4,5 -4,-26 269,-26 269,5 -4,5"/>
<!-- Node1 -->
<g id="node1" class="node"><title>Node1</title>
<polygon fill="#bfbfbf" stroke="black" points="0,-0.5 0,-21.5 56,-21.5 56,-0.5 0,-0.5"/>
<text text-anchor="middle" x="28" y="-8.5" font-family="FreeSans" font-size="10.00">freewqe</text>
</g>
<!-- Node2 -->
<g id="node3" class="node"><title>Node2</title>
<a xlink:href="hfa-se-flow_8c.html#aba72a61590283e37ffd78b4defd38220" target="_top" xlink:title="Receive network packets and process.">
<polygon fill="white" stroke="black" points="92,-0.5 92,-21.5 188,-21.5 188,-0.5 92,-0.5"/>
<text text-anchor="middle" x="140" y="-8.5" font-family="FreeSans" font-size="10.00">process_packets</text>
</a>
</g>
<!-- Node1&#45;&gt;Node2 -->
<g id="edge2" class="edge"><title>Node1&#45;&gt;Node2</title>
<path fill="none" stroke="midnightblue" d="M66.2655,-11C74.4484,-11 83.1947,-11 91.6994,-11"/>
<polygon fill="midnightblue" stroke="midnightblue" points="66.2624,-7.5001 56.2623,-11 66.2623,-14.5001 66.2624,-7.5001"/>
</g>
<!-- Node3 -->
<g id="node5" class="node"><title>Node3</title>
<a xlink:href="hfa-se-flow-wqe_8c.html#a3c04138a5bfe5d72780bb7e82a18e627" target="_top" xlink:title="Implementation.">
<polygon fill="white" stroke="black" points="224,-0.5 224,-21.5 264,-21.5 264,-0.5 224,-0.5"/>
<text text-anchor="middle" x="244" y="-8.5" font-family="FreeSans" font-size="10.00">main</text>
</a>
</g>
<!-- Node2&#45;&gt;Node3 -->
<g id="edge4" class="edge"><title>Node2&#45;&gt;Node3</title>
<path fill="none" stroke="midnightblue" d="M198.146,-11C207.414,-11 216.419,-11 223.958,-11"/>
<polygon fill="midnightblue" stroke="midnightblue" points="198.043,-7.5001 188.042,-11 198.042,-14.5001 198.043,-7.5001"/>
</g>
</g>
</svg>
