<?xml version="1.0" encoding="UTF-8" standalone="no"?>
<!DOCTYPE svg PUBLIC "-//W3C//DTD SVG 1.1//EN"
 "http://www.w3.org/Graphics/SVG/1.1/DTD/svg11.dtd">
<!-- Generated by graphviz version 2.24.0 (20090616.2323)
 -->
<!-- Title: sendpktwqe Pages: 1 -->
<svg width="192pt" height="70pt"
 viewBox="0.00 0.00 192.00 70.00" xmlns="http://www.w3.org/2000/svg" xmlns:xlink="http://www.w3.org/1999/xlink">
<g id="graph1" class="graph" transform="scale(1 1) rotate(0) translate(4 66)">
<title>sendpktwqe</title>
<polygon fill="white" stroke="white" points="-4,5 -4,-66 189,-66 189,5 -4,5"/>
<!-- Node1 -->
<g id="node1" class="node"><title>Node1</title>
<polygon fill="#bfbfbf" stroke="black" points="0,-20.5 0,-41.5 74,-41.5 74,-20.5 0,-20.5"/>
<text text-anchor="middle" x="37" y="-28.5" font-family="FreeSans" font-size="10.00">sendpktwqe</text>
</g>
<!-- Node2 -->
<g id="node3" class="node"><title>Node2</title>
<a xlink:href="hfa-lnx-ctx_8c.html#a064576c58038a1afa64cf8cb45271bf4" target="_top" xlink:title="freeparam">
<polygon fill="white" stroke="black" points="113.5,-40.5 113.5,-61.5 180.5,-61.5 180.5,-40.5 113.5,-40.5"/>
<text text-anchor="middle" x="147" y="-48.5" font-family="FreeSans" font-size="10.00">freeparam</text>
</a>
</g>
<!-- Node1&#45;&gt;Node2 -->
<g id="edge2" class="edge"><title>Node1&#45;&gt;Node2</title>
<path fill="none" stroke="midnightblue" d="M84.304,-39.6007C94.1284,-41.387 104.287,-43.234 113.492,-44.9077"/>
<polygon fill="midnightblue" stroke="midnightblue" points="84.7058,-36.1165 74.241,-37.7711 83.4536,-43.0036 84.7058,-36.1165"/>
</g>
<!-- Node3 -->
<g id="node5" class="node"><title>Node3</title>
<a xlink:href="hfa-lnx-ctx_8c.html#a97df0ba8293c1b8436547946fd9d0d17" target="_top" xlink:title="process_pkt">
<polygon fill="white" stroke="black" points="110,-0.5 110,-21.5 184,-21.5 184,-0.5 110,-0.5"/>
<text text-anchor="middle" x="147" y="-8.5" font-family="FreeSans" font-size="10.00">process_pkt</text>
</a>
</g>
<!-- Node1&#45;&gt;Node3 -->
<g id="edge4" class="edge"><title>Node1&#45;&gt;Node3</title>
<path fill="none" stroke="midnightblue" d="M84.1398,-22.4291C92.7179,-20.8695 101.556,-19.2625 109.797,-17.7641"/>
<polygon fill="midnightblue" stroke="midnightblue" points="83.4536,-18.9964 74.241,-24.2289 84.7058,-25.8835 83.4536,-18.9964"/>
</g>
</g>
</svg>
