<?xml version="1.0" encoding="UTF-8" standalone="no"?>
<!DOCTYPE svg PUBLIC "-//W3C//DTD SVG 1.1//EN"
 "http://www.w3.org/Graphics/SVG/1.1/DTD/svg11.dtd">
<!-- Generated by graphviz version 2.24.0 (20090616.2323)
 -->
<!-- Title: cleanup_ctx Pages: 1 -->
<svg width="584pt" height="162pt"
 viewBox="0.00 0.00 584.00 162.00" xmlns="http://www.w3.org/2000/svg" xmlns:xlink="http://www.w3.org/1999/xlink">
<g id="graph1" class="graph" transform="scale(1 1) rotate(0) translate(4 158)">
<title>cleanup_ctx</title>
<polygon fill="white" stroke="white" points="-4,5 -4,-158 581,-158 581,5 -4,5"/>
<!-- Node1 -->
<g id="node1" class="node"><title>Node1</title>
<polygon fill="#bfbfbf" stroke="black" points="0.5,-72.5 0.5,-93.5 75.5,-93.5 75.5,-72.5 0.5,-72.5"/>
<text text-anchor="middle" x="38" y="-80.5" font-family="FreeSans" font-size="10.00">cleanup_ctx</text>
</g>
<!-- Node2 -->
<g id="node3" class="node"><title>Node2</title>
<a xlink:href="cvm-hfa-search_8c.html#a30064f173d814bd3791b59d675c2f45f" target="_top" xlink:title="This routine cleans&#45;up a Search Context.">
<polygon fill="white" stroke="black" points="112,-72.5 112,-93.5 264,-93.5 264,-72.5 112,-72.5"/>
<text text-anchor="middle" x="188" y="-80.5" font-family="FreeSans" font-size="10.00">hfa_dev_searchctx_cleanup</text>
</a>
</g>
<!-- Node1&#45;&gt;Node2 -->
<g id="edge2" class="edge"><title>Node1&#45;&gt;Node2</title>
<path fill="none" stroke="midnightblue" d="M75.8513,-83C83.8597,-83 92.6241,-83 101.612,-83"/>
<polygon fill="midnightblue" stroke="midnightblue" points="101.826,-86.5001 111.826,-83 101.826,-79.5001 101.826,-86.5001"/>
</g>
<!-- Node3 -->
<g id="node5" class="node"><title>Node3</title>
<a xlink:href="cvm-hfa-pp_8c.html#add6064138ec2e35741929056a0992d8d" target="_top" xlink:title="ppgetstats">
<polygon fill="white" stroke="black" points="324,-132.5 324,-153.5 390,-153.5 390,-132.5 324,-132.5"/>
<text text-anchor="middle" x="357" y="-140.5" font-family="FreeSans" font-size="10.00">ppgetstats</text>
</a>
</g>
<!-- Node2&#45;&gt;Node3 -->
<g id="edge4" class="edge"><title>Node2&#45;&gt;Node3</title>
<path fill="none" stroke="midnightblue" d="M217.461,-93.5721C240.038,-101.662 271.972,-113.078 300,-123 305.573,-124.973 311.456,-127.047 317.242,-129.082"/>
<polygon fill="midnightblue" stroke="midnightblue" points="316.221,-132.432 326.816,-132.444 318.54,-125.828 316.221,-132.432"/>
</g>
<!-- Node5 -->
<g id="node9" class="node"><title>Node5</title>
<a xlink:href="cvm-hfa-pp_8c.html#a57ec655c9bdb6ce63ada6767c7e14763" target="_top" xlink:title="ppcleanstats">
<polygon fill="white" stroke="black" points="318.5,-92.5 318.5,-113.5 395.5,-113.5 395.5,-92.5 318.5,-92.5"/>
<text text-anchor="middle" x="357" y="-100.5" font-family="FreeSans" font-size="10.00">ppcleanstats</text>
</a>
</g>
<!-- Node2&#45;&gt;Node5 -->
<g id="edge8" class="edge"><title>Node2&#45;&gt;Node5</title>
<path fill="none" stroke="midnightblue" d="M264.095,-92.0054C279.036,-93.7735 294.33,-95.5835 308.085,-97.2113"/>
<polygon fill="midnightblue" stroke="midnightblue" points="307.931,-100.717 318.273,-98.4169 308.753,-93.7658 307.931,-100.717"/>
</g>
<!-- Node7 -->
<g id="node13" class="node"><title>Node7</title>
<a xlink:href="cvm-hfa-pp_8c.html#a41ce9d3103c639e474783d3843e09071" target="_top" xlink:title="ppcleanup">
<polygon fill="white" stroke="black" points="324,-52.5 324,-73.5 390,-73.5 390,-52.5 324,-52.5"/>
<text text-anchor="middle" x="357" y="-60.5" font-family="FreeSans" font-size="10.00">ppcleanup</text>
</a>
</g>
<!-- Node2&#45;&gt;Node7 -->
<g id="edge12" class="edge"><title>Node2&#45;&gt;Node7</title>
<path fill="none" stroke="midnightblue" d="M264.095,-73.9946C281.037,-71.9897 298.434,-69.9309 313.526,-68.1449"/>
<polygon fill="midnightblue" stroke="midnightblue" points="314.052,-71.6071 323.572,-66.956 313.23,-64.6556 314.052,-71.6071"/>
</g>
<!-- Node9 -->
<g id="node17" class="node"><title>Node9</title>
<a xlink:href="cvm-hfa-stats_8c.html#a2df4c76e04e7b028ed2df4bba1b2de3d" target="_top" xlink:title="This routine is the counterpart of hfa_searchctx_init_stats().">
<polygon fill="white" stroke="black" points="300.5,-0 300.5,-34 413.5,-34 413.5,-0 300.5,-0"/>
<text text-anchor="start" x="308.5" y="-21" font-family="FreeSans" font-size="10.00">hfa_searchctx_stats</text>
<text text-anchor="middle" x="357" y="-8" font-family="FreeSans" font-size="10.00">_cleanup</text>
</a>
</g>
<!-- Node2&#45;&gt;Node9 -->
<g id="edge16" class="edge"><title>Node2&#45;&gt;Node9</title>
<path fill="none" stroke="midnightblue" d="M215.153,-72.396C239.064,-63.0579 274.574,-49.1899 304.083,-37.6659"/>
<polygon fill="midnightblue" stroke="midnightblue" points="305.389,-40.9134 313.43,-34.0154 302.842,-34.393 305.389,-40.9134"/>
</g>
<!-- Node4 -->
<g id="node7" class="node"><title>Node4</title>
<a xlink:href="pp_8h.html#a808d5057ee5670ce724a6a88fc22b799" target="_top" xlink:title="pphfa_getstats">
<polygon fill="white" stroke="black" points="469.5,-132.5 469.5,-153.5 556.5,-153.5 556.5,-132.5 469.5,-132.5"/>
<text text-anchor="middle" x="513" y="-140.5" font-family="FreeSans" font-size="10.00">pphfa_getstats</text>
</a>
</g>
<!-- Node3&#45;&gt;Node4 -->
<g id="edge6" class="edge"><title>Node3&#45;&gt;Node4</title>
<path fill="none" stroke="midnightblue" d="M390.084,-143C410.094,-143 436.087,-143 459.014,-143"/>
<polygon fill="midnightblue" stroke="midnightblue" points="459.299,-146.5 469.299,-143 459.299,-139.5 459.299,-146.5"/>
</g>
<!-- Node6 -->
<g id="node11" class="node"><title>Node6</title>
<a xlink:href="pp_8h.html#a978b171bd7a736cb7fa0d5d034aa94e2" target="_top" xlink:title="pphfa_cleanstats">
<polygon fill="white" stroke="black" points="464,-92.5 464,-113.5 562,-113.5 562,-92.5 464,-92.5"/>
<text text-anchor="middle" x="513" y="-100.5" font-family="FreeSans" font-size="10.00">pphfa_cleanstats</text>
</a>
</g>
<!-- Node5&#45;&gt;Node6 -->
<g id="edge10" class="edge"><title>Node5&#45;&gt;Node6</title>
<path fill="none" stroke="midnightblue" d="M395.562,-103C413.157,-103 434.385,-103 453.926,-103"/>
<polygon fill="midnightblue" stroke="midnightblue" points="453.963,-106.5 463.963,-103 453.963,-99.5001 453.963,-106.5"/>
</g>
<!-- Node8 -->
<g id="node15" class="node"><title>Node8</title>
<a xlink:href="pp_8h.html#a428ad073d1fd72da37ab8b00f13693a3" target="_top" xlink:title="pphfa_cleanup">
<polygon fill="white" stroke="black" points="469.5,-52.5 469.5,-73.5 556.5,-73.5 556.5,-52.5 469.5,-52.5"/>
<text text-anchor="middle" x="513" y="-60.5" font-family="FreeSans" font-size="10.00">pphfa_cleanup</text>
</a>
</g>
<!-- Node7&#45;&gt;Node8 -->
<g id="edge14" class="edge"><title>Node7&#45;&gt;Node8</title>
<path fill="none" stroke="midnightblue" d="M390.084,-63C410.094,-63 436.087,-63 459.014,-63"/>
<polygon fill="midnightblue" stroke="midnightblue" points="459.299,-66.5001 469.299,-63 459.299,-59.5001 459.299,-66.5001"/>
</g>
<!-- Node10 -->
<g id="node19" class="node"><title>Node10</title>
<a xlink:href="cvm-hfa-stats_8c.html#a7a2acbe48c3850d43256938ee996aa16" target="_top" xlink:title="This routine frees memory to STATS ARENA.">
<polygon fill="white" stroke="black" points="450.5,-6.5 450.5,-27.5 575.5,-27.5 575.5,-6.5 450.5,-6.5"/>
<text text-anchor="middle" x="513" y="-14.5" font-family="FreeSans" font-size="10.00">hfa_stats_memoryfree</text>
</a>
</g>
<!-- Node9&#45;&gt;Node10 -->
<g id="edge18" class="edge"><title>Node9&#45;&gt;Node10</title>
<path fill="none" stroke="midnightblue" d="M413.761,-17C422.432,-17 431.483,-17 440.438,-17"/>
<polygon fill="midnightblue" stroke="midnightblue" points="440.482,-20.5001 450.482,-17 440.482,-13.5001 440.482,-20.5001"/>
</g>
</g>
</svg>
