<?xml version="1.0" encoding="UTF-8" standalone="no"?>
<!DOCTYPE svg PUBLIC "-//W3C//DTD SVG 1.1//EN"
 "http://www.w3.org/Graphics/SVG/1.1/DTD/svg11.dtd">
<!-- Generated by graphviz version 2.24.0 (20090616.2323)
 -->
<!-- Title: core_exit Pages: 1 -->
<svg width="276pt" height="70pt"
 viewBox="0.00 0.00 276.00 70.00" xmlns="http://www.w3.org/2000/svg" xmlns:xlink="http://www.w3.org/1999/xlink">
<g id="graph1" class="graph" transform="scale(1 1) rotate(0) translate(4 66)">
<title>core_exit</title>
<polygon fill="white" stroke="white" points="-4,5 -4,-66 273,-66 273,5 -4,5"/>
<!-- Node1 -->
<g id="node1" class="node"><title>Node1</title>
<polygon fill="#bfbfbf" stroke="black" points="0,-20.5 0,-41.5 60,-41.5 60,-20.5 0,-20.5"/>
<text text-anchor="middle" x="30" y="-28.5" font-family="FreeSans" font-size="10.00">core_exit</text>
</g>
<!-- Node2 -->
<g id="node3" class="node"><title>Node2</title>
<a xlink:href="hfa-lnx-ctx_8c.html#a4c3443f524b4c0d95639694f0b74e850" target="_top" xlink:title="Process command line options, Read graph and payload.">
<polygon fill="white" stroke="black" points="96,-40.5 96,-61.5 190,-61.5 190,-40.5 96,-40.5"/>
<text text-anchor="middle" x="143" y="-48.5" font-family="FreeSans" font-size="10.00">process_options</text>
</a>
</g>
<!-- Node1&#45;&gt;Node2 -->
<g id="edge2" class="edge"><title>Node1&#45;&gt;Node2</title>
<path fill="none" stroke="midnightblue" d="M70.3276,-38.1376C78.513,-39.5864 87.193,-41.1226 95.5971,-42.6101"/>
<polygon fill="midnightblue" stroke="midnightblue" points="70.7389,-34.6561 60.2819,-36.3596 69.5189,-41.549 70.7389,-34.6561"/>
</g>
<!-- Node4 -->
<g id="node7" class="node"><title>Node4</title>
<a xlink:href="hfa-lnx-ctx_8c.html#aaf98ef7cdde3a0dfb2e49919de3298b1" target="_top" xlink:title="exit">
<polygon fill="white" stroke="black" points="126.5,-0.5 126.5,-21.5 159.5,-21.5 159.5,-0.5 126.5,-0.5"/>
<text text-anchor="middle" x="143" y="-8.5" font-family="FreeSans" font-size="10.00">exit</text>
</a>
</g>
<!-- Node1&#45;&gt;Node4 -->
<g id="edge6" class="edge"><title>Node1&#45;&gt;Node4</title>
<path fill="none" stroke="midnightblue" d="M70.3441,-23.8595C89.606,-20.4503 111.603,-16.557 126.3,-13.9558"/>
<polygon fill="midnightblue" stroke="midnightblue" points="69.5189,-20.451 60.2819,-25.6404 70.7389,-27.3439 69.5189,-20.451"/>
</g>
<!-- Node3 -->
<g id="node5" class="node"><title>Node3</title>
<a xlink:href="hfa-lnx-ctx_8c.html#a78ffddbcd7cdd164889cfb53ea367886" target="_top" xlink:title="entry">
<polygon fill="white" stroke="black" points="226.5,-40.5 226.5,-61.5 267.5,-61.5 267.5,-40.5 226.5,-40.5"/>
<text text-anchor="middle" x="247" y="-48.5" font-family="FreeSans" font-size="10.00">entry</text>
</a>
</g>
<!-- Node2&#45;&gt;Node3 -->
<g id="edge4" class="edge"><title>Node2&#45;&gt;Node3</title>
<path fill="none" stroke="midnightblue" d="M200.264,-51C209.572,-51 218.653,-51 226.297,-51"/>
<polygon fill="midnightblue" stroke="midnightblue" points="200.131,-47.5001 190.131,-51 200.131,-54.5001 200.131,-47.5001"/>
</g>
</g>
</svg>
