<?xml version="1.0" encoding="UTF-8" standalone="no"?>
<!DOCTYPE svg PUBLIC "-//W3C//DTD SVG 1.1//EN"
 "http://www.w3.org/Graphics/SVG/1.1/DTD/svg11.dtd">
<!-- Generated by graphviz version 2.24.0 (20090616.2323)
 -->
<!-- Title: process_options Pages: 1 -->
<!--zoomable 188 -->
<svg id="main" version="1.1" xmlns="http://www.w3.org/2000/svg" xmlns:xlink="http://www.w3.org/1999/xlink" xml:space="preserve" onload="init(evt)">
        <defs>
                <circle id="rim" cx="0" cy="0" r="7"/>
                <circle id="rim2" cx="0" cy="0" r="3.5"/>
                <g id="zoomPlus">
                        <use xlink:href="#rim" fill="#404040">
                                <set attributeName="fill" to="#808080" begin="zoomplus.mouseover" end="zoomplus.mouseout"/>
                        </use>
                        <path d="M-4,0h8M0,-4v8" fill="none" stroke="white" stroke-width="1.5" pointer-events="none"/>
                </g>
                <g id="zoomMin">
                        <use xlink:href="#rim" fill="#404040">
                                <set attributeName="fill" to="#808080" begin="zoomminus.mouseover" end="zoomminus.mouseout"/>
                        </use>
                        <path d="M-4,0h8" fill="none" stroke="white" stroke-width="1.5" pointer-events="none"/>
                </g>
                <g id="dirArrow">
                        <path fill="none" stroke="white" stroke-width="1.5" d="M0,-3.0v7 M-2.5,-0.5L0,-3.0L2.5,-0.5"/>
                </g>
               <g id="resetDef">
                       <use xlink:href="#rim2" fill="#404040">
                               <set attributeName="fill" to="#808080" begin="reset.mouseover" end="reset.mouseout"/>
                       </use>
               </g>
        </defs>

<script type="text/javascript">
var viewWidth = 532;
var viewHeight = 188;
var sectionId = 'dynsection-6';
</script>
<script xlink:href="svgpan.js"/>
<svg id="graph" class="graph">
<g id="viewport">
<title>process_options</title>
<polygon fill="white" stroke="white" points="-4,5 -4,-184 529,-184 529,5 -4,5"/>
<!-- Node1 -->
<g id="node1" class="node"><title>Node1</title>
<polygon fill="#bfbfbf" stroke="black" points="0,-82.5 0,-103.5 94,-103.5 94,-82.5 0,-82.5"/>
<text text-anchor="middle" x="47" y="-90.5" font-family="FreeSans" font-size="10.00">process_options</text>
</g>
<!-- Node2 -->
<g id="node3" class="node"><title>Node2</title>
<a xlink:href="app-utils_8c.html#a312f3a19b49c759fe09b5bee727b879b" target="_top" xlink:title="Initialize command line arguments.">
<polygon fill="white" stroke="black" points="145.5,-145.5 145.5,-166.5 254.5,-166.5 254.5,-145.5 145.5,-145.5"/>
<text text-anchor="middle" x="200" y="-153.5" font-family="FreeSans" font-size="10.00">hfautils_options_init</text>
</a>
</g>
<!-- Node1&#45;&gt;Node2 -->
<g id="edge2" class="edge"><title>Node1&#45;&gt;Node2</title>
<path fill="none" stroke="midnightblue" d="M64.9676,-103.645C81.4556,-113.086 106.774,-126.773 130,-136 135.781,-138.297 141.927,-140.45 148.083,-142.429"/>
<polygon fill="midnightblue" stroke="midnightblue" points="147.128,-145.797 157.716,-145.393 149.187,-139.107 147.128,-145.797"/>
</g>
<!-- Node3 -->
<g id="node5" class="node"><title>Node3</title>
<a xlink:href="app-utils_8c.html#ae04c31b3e2ff1468333729059052375c" target="_top" xlink:title="Parse command line arguments.">
<polygon fill="white" stroke="black" points="130,-105.5 130,-126.5 270,-126.5 270,-105.5 130,-105.5"/>
<text text-anchor="middle" x="200" y="-113.5" font-family="FreeSans" font-size="10.00">hfautils_parse_arguments</text>
</a>
</g>
<!-- Node1&#45;&gt;Node3 -->
<g id="edge4" class="edge"><title>Node1&#45;&gt;Node3</title>
<path fill="none" stroke="midnightblue" d="M94.1535,-100.088C102.383,-101.326 111.146,-102.643 119.973,-103.97"/>
<polygon fill="midnightblue" stroke="midnightblue" points="119.53,-107.442 129.939,-105.468 120.571,-100.52 119.53,-107.442"/>
</g>
<!-- Node8 -->
<g id="node16" class="node"><title>Node8</title>
<a xlink:href="app-utils_8c.html#a12339c67618c4b3a54c32f43d378c273" target="_top" xlink:title="Read data from a file to a buffer(compressed or uncompressed).">
<polygon fill="white" stroke="black" points="151.5,-13.5 151.5,-34.5 248.5,-34.5 248.5,-13.5 151.5,-13.5"/>
<text text-anchor="middle" x="200" y="-21.5" font-family="FreeSans" font-size="10.00">hfautils_read_file</text>
</a>
</g>
<!-- Node1&#45;&gt;Node8 -->
<g id="edge16" class="edge"><title>Node1&#45;&gt;Node8</title>
<path fill="none" stroke="midnightblue" d="M62.2795,-82.3605C78.4717,-71.4807 105.093,-54.7011 130,-44 135.356,-41.6987 141.055,-39.5774 146.799,-37.6459"/>
<polygon fill="midnightblue" stroke="midnightblue" points="147.985,-40.9414 156.455,-34.5764 145.864,-34.2704 147.985,-40.9414"/>
</g>
<!-- Node11 -->
<g id="node22" class="node"><title>Node11</title>
<a xlink:href="app-utils_8c.html#a1944a739d03e86dcaee1a7d245cfeba0" target="_top" xlink:title="Initialize the attributes needed for parsing the payload file.">
<polygon fill="white" stroke="black" points="143.5,-53 143.5,-87 256.5,-87 256.5,-53 143.5,-53"/>
<text text-anchor="start" x="151.5" y="-74" font-family="FreeSans" font-size="10.00">hfautils_init_payload</text>
<text text-anchor="middle" x="200" y="-61" font-family="FreeSans" font-size="10.00">_attributes</text>
</a>
</g>
<!-- Node1&#45;&gt;Node11 -->
<g id="edge22" class="edge"><title>Node1&#45;&gt;Node11</title>
<path fill="none" stroke="midnightblue" d="M94.1535,-85.9116C106.538,-84.0499 120.132,-82.0064 133.328,-80.0225"/>
<polygon fill="midnightblue" stroke="midnightblue" points="133.948,-83.4688 143.316,-78.5211 132.907,-76.5466 133.948,-83.4688"/>
</g>
<!-- Node4 -->
<g id="node7" class="node"><title>Node4</title>
<a xlink:href="app-utils_8c.html#ad9aef676c72e2455ff8cc29b0451a533" target="_top" xlink:title="initialize the tar for gzip.">
<polygon fill="white" stroke="black" points="321,-158.5 321,-179.5 399,-179.5 399,-158.5 321,-158.5"/>
<text text-anchor="middle" x="360" y="-166.5" font-family="FreeSans" font-size="10.00">hfautils_fsinit</text>
</a>
</g>
<!-- Node3&#45;&gt;Node4 -->
<g id="edge6" class="edge"><title>Node3&#45;&gt;Node4</title>
<path fill="none" stroke="midnightblue" d="M238.665,-126.5C248.898,-129.428 259.905,-132.712 270,-136 287.56,-141.719 306.807,-148.681 322.979,-154.733"/>
<polygon fill="midnightblue" stroke="midnightblue" points="322.017,-158.111 332.609,-158.365 324.487,-151.561 322.017,-158.111"/>
</g>
<!-- Node5 -->
<g id="node9" class="node"><title>Node5</title>
<a xlink:href="app-utils_8c.html#a091d7c63f67cac17115c60efc4f5ec8b" target="_top" xlink:title="gz_fsinit">
<polygon fill="white" stroke="black" points="459,-139.5 459,-160.5 515,-160.5 515,-139.5 459,-139.5"/>
<text text-anchor="middle" x="487" y="-147.5" font-family="FreeSans" font-size="10.00">gz_fsinit</text>
</a>
</g>
<!-- Node3&#45;&gt;Node5 -->
<g id="edge10" class="edge"><title>Node3&#45;&gt;Node5</title>
<path fill="none" stroke="midnightblue" d="M270.208,-124.317C326.556,-130.993 403.514,-140.11 448.963,-145.494"/>
<polygon fill="midnightblue" stroke="midnightblue" points="448.643,-148.98 458.985,-146.681 449.467,-142.029 448.643,-148.98"/>
</g>
<!-- Node6 -->
<g id="node12" class="node"><title>Node6</title>
<a xlink:href="app-utils_8c.html#a8d5ec2ca8ebb2e04916983e6053a5c79" target="_top" xlink:title="Return size of a file(compressed or uncompressed).">
<polygon fill="white" stroke="black" points="312.5,-80.5 312.5,-101.5 407.5,-101.5 407.5,-80.5 312.5,-80.5"/>
<text text-anchor="middle" x="360" y="-88.5" font-family="FreeSans" font-size="10.00">hfautils_file_size</text>
</a>
</g>
<!-- Node3&#45;&gt;Node6 -->
<g id="edge12" class="edge"><title>Node3&#45;&gt;Node6</title>
<path fill="none" stroke="midnightblue" d="M267.391,-105.47C278.899,-103.672 290.764,-101.818 302.001,-100.062"/>
<polygon fill="midnightblue" stroke="midnightblue" points="302.777,-103.484 312.117,-98.4818 301.696,-96.5676 302.777,-103.484"/>
</g>
<!-- Node4&#45;&gt;Node5 -->
<g id="edge8" class="edge"><title>Node4&#45;&gt;Node5</title>
<path fill="none" stroke="midnightblue" d="M399.14,-163.144C414.924,-160.783 433.074,-158.068 448.765,-155.72"/>
<polygon fill="midnightblue" stroke="midnightblue" points="449.3,-159.179 458.672,-154.238 448.264,-152.256 449.3,-159.179"/>
</g>
<!-- Node7 -->
<g id="node14" class="node"><title>Node7</title>
<a xlink:href="app-utils_8c.html#a7c78f1e7a6e793fea566793e167e22bc" target="_top" xlink:title="gz_get_size">
<polygon fill="white" stroke="black" points="450.5,-80.5 450.5,-101.5 523.5,-101.5 523.5,-80.5 450.5,-80.5"/>
<text text-anchor="middle" x="487" y="-88.5" font-family="FreeSans" font-size="10.00">gz_get_size</text>
</a>
</g>
<!-- Node6&#45;&gt;Node7 -->
<g id="edge14" class="edge"><title>Node6&#45;&gt;Node7</title>
<path fill="none" stroke="midnightblue" d="M407.651,-91C418.209,-91 429.391,-91 439.926,-91"/>
<polygon fill="midnightblue" stroke="midnightblue" points="440.197,-94.5001 450.197,-91 440.197,-87.5001 440.197,-94.5001"/>
</g>
<!-- Node9 -->
<g id="node18" class="node"><title>Node9</title>
<a xlink:href="app-utils_8c.html#a7fbf4d982c3e4493bda83be020e7274c" target="_top" xlink:title="Read file data from a gzip&#45;stream(compressed or uncompressed).">
<polygon fill="white" stroke="black" points="333.5,-40.5 333.5,-61.5 386.5,-61.5 386.5,-40.5 333.5,-40.5"/>
<text text-anchor="middle" x="360" y="-48.5" font-family="FreeSans" font-size="10.00">fd_read</text>
</a>
</g>
<!-- Node8&#45;&gt;Node9 -->
<g id="edge18" class="edge"><title>Node8&#45;&gt;Node9</title>
<path fill="none" stroke="midnightblue" d="M248.875,-32.2476C272.834,-36.2908 301.206,-41.0786 323.285,-44.8044"/>
<polygon fill="midnightblue" stroke="midnightblue" points="322.816,-48.2746 333.259,-46.4875 323.981,-41.3722 322.816,-48.2746"/>
</g>
<!-- Node10 -->
<g id="node20" class="node"><title>Node10</title>
<a xlink:href="cvmx-hfa_8c.html#a3db44a30b1033c1ab4ac64bac81a41f6" target="_top" xlink:title="hfa_bootmem_free">
<polygon fill="white" stroke="black" points="306,-0.5 306,-21.5 414,-21.5 414,-0.5 306,-0.5"/>
<text text-anchor="middle" x="360" y="-8.5" font-family="FreeSans" font-size="10.00">hfa_bootmem_free</text>
</a>
</g>
<!-- Node8&#45;&gt;Node10 -->
<g id="edge20" class="edge"><title>Node8&#45;&gt;Node10</title>
<path fill="none" stroke="midnightblue" d="M248.875,-20.0289C263.651,-18.8284 280.105,-17.4915 295.726,-16.2223"/>
<polygon fill="midnightblue" stroke="midnightblue" points="296.162,-19.6985 305.845,-15.4001 295.595,-12.7215 296.162,-19.6985"/>
</g>
<!-- Node11&#45;&gt;Node9 -->
<g id="edge24" class="edge"><title>Node11&#45;&gt;Node9</title>
<path fill="none" stroke="midnightblue" d="M256.861,-63.2478C278.94,-60.6258 303.593,-57.6983 323.259,-55.363"/>
<polygon fill="midnightblue" stroke="midnightblue" points="323.818,-58.8214 333.335,-54.1665 322.992,-51.8702 323.818,-58.8214"/>
</g>
</g>
</svg>
        <g id="navigator" transform="translate(0 0)" fill="#404254">
                <rect fill="#f2f5e9" fill-opacity="0.5" stroke="#606060" stroke-width=".5" x="0" y="0" width="60" height="60"/>
                <use id="zoomplus" xlink:href="#zoomPlus" x="17" y="9" onmousedown="handleZoom(evt,'in')"/>
                <use id="zoomminus" xlink:href="#zoomMin" x="42" y="9" onmousedown="handleZoom(evt,'out')"/>
                <use id="reset" xlink:href="#resetDef" x="30" y="36" onmousedown="handleReset()"/>
                <g id="arrowUp" xlink:href="#dirArrow" transform="translate(30 24)" onmousedown="handlePan(0,-1)">
                  <use xlink:href="#rim" fill="#404040">
                        <set attributeName="fill" to="#808080" begin="arrowUp.mouseover" end="arrowUp.mouseout"/>
                  </use>
                  <path fill="none" stroke="white" stroke-width="1.5" d="M0,-3.0v7 M-2.5,-0.5L0,-3.0L2.5,-0.5"/>
                </g>
                <g id="arrowRight" xlink:href="#dirArrow" transform="rotate(90) translate(36 -43)" onmousedown="handlePan(1,0)">
                  <use xlink:href="#rim" fill="#404040">
                        <set attributeName="fill" to="#808080" begin="arrowRight.mouseover" end="arrowRight.mouseout"/>
                  </use>
                  <path fill="none" stroke="white" stroke-width="1.5" d="M0,-3.0v7 M-2.5,-0.5L0,-3.0L2.5,-0.5"/>
                </g>
                <g id="arrowDown" xlink:href="#dirArrow" transform="rotate(180) translate(-30 -48)" onmousedown="handlePan(0,1)">
                  <use xlink:href="#rim" fill="#404040">
                        <set attributeName="fill" to="#808080" begin="arrowDown.mouseover" end="arrowDown.mouseout"/>
                  </use>
                  <path fill="none" stroke="white" stroke-width="1.5" d="M0,-3.0v7 M-2.5,-0.5L0,-3.0L2.5,-0.5"/>
                </g>
                <g id="arrowLeft" xlink:href="#dirArrow" transform="rotate(270) translate(-36 17)" onmousedown="handlePan(-1,0)">
                  <use xlink:href="#rim" fill="#404040">
                        <set attributeName="fill" to="#808080" begin="arrowLeft.mouseover" end="arrowLeft.mouseout"/>
                  </use>
                  <path fill="none" stroke="white" stroke-width="1.5" d="M0,-3.0v7 M-2.5,-0.5L0,-3.0L2.5,-0.5"/>
                </g>
        </g>
        <svg viewBox="0 0 15 15" width="100%" height="30px" preserveAspectRatio="xMaxYMin meet">
         <g id="arrow_out" transform="scale(0.3 0.3)">
          <a xlink:href="hfa-se-linkgraph_8c_ab42726e951c529a41b8e09fd6e84ada2_cgraph_org.svg" target="_base">
           <rect id="button" ry="5" rx="5" y="6" x="6" height="38" width="38"
                fill="#f2f5e9" fill-opacity="0.5" stroke="#606060" stroke-width="1.0"/>
           <path id="arrow"
             d="M 11.500037,31.436501 C 11.940474,20.09759 22.043105,11.32322 32.158766,21.979434 L 37.068811,17.246167 C 37.068811,17.246167 37.088388,32 37.088388,32 L 22.160133,31.978069 C 22.160133,31.978069 26.997745,27.140456 26.997745,27.140456 C 18.528582,18.264221 13.291696,25.230495 11.500037,31.436501 z"
             style="fill:#404040;"/>
          </a>
         </g>
        </svg>
</svg>
