<?xml version="1.0" encoding="UTF-8" standalone="no"?>
<!DOCTYPE svg PUBLIC "-//W3C//DTD SVG 1.1//EN"
 "http://www.w3.org/Graphics/SVG/1.1/DTD/svg11.dtd">
<!-- Generated by graphviz version 2.24.0 (20090616.2323)
 -->
<!-- Title: graph_load Pages: 1 -->
<!--zoomable 888 -->
<svg id="main" version="1.1" xmlns="http://www.w3.org/2000/svg" xmlns:xlink="http://www.w3.org/1999/xlink" xml:space="preserve" onload="init(evt)">
        <defs>
                <circle id="rim" cx="0" cy="0" r="7"/>
                <circle id="rim2" cx="0" cy="0" r="3.5"/>
                <g id="zoomPlus">
                        <use xlink:href="#rim" fill="#404040">
                                <set attributeName="fill" to="#808080" begin="zoomplus.mouseover" end="zoomplus.mouseout"/>
                        </use>
                        <path d="M-4,0h8M0,-4v8" fill="none" stroke="white" stroke-width="1.5" pointer-events="none"/>
                </g>
                <g id="zoomMin">
                        <use xlink:href="#rim" fill="#404040">
                                <set attributeName="fill" to="#808080" begin="zoomminus.mouseover" end="zoomminus.mouseout"/>
                        </use>
                        <path d="M-4,0h8" fill="none" stroke="white" stroke-width="1.5" pointer-events="none"/>
                </g>
                <g id="dirArrow">
                        <path fill="none" stroke="white" stroke-width="1.5" d="M0,-3.0v7 M-2.5,-0.5L0,-3.0L2.5,-0.5"/>
                </g>
               <g id="resetDef">
                       <use xlink:href="#rim2" fill="#404040">
                               <set attributeName="fill" to="#808080" begin="reset.mouseover" end="reset.mouseout"/>
                       </use>
               </g>
        </defs>

<script type="text/javascript">
var viewWidth = 1150;
var viewHeight = 888;
var sectionId = 'dynsection-2';
</script>
<script xlink:href="svgpan.js"/>
<svg id="graph" class="graph">
<g id="viewport">
<title>graph_load</title>
<polygon fill="white" stroke="white" points="-4,5 -4,-884 1147,-884 1147,5 -4,5"/>
<!-- Node1 -->
<g id="node1" class="node"><title>Node1</title>
<polygon fill="#bfbfbf" stroke="black" points="0.5,-741.5 0.5,-762.5 69.5,-762.5 69.5,-741.5 0.5,-741.5"/>
<text text-anchor="middle" x="35" y="-749.5" font-family="FreeSans" font-size="10.00">graph_load</text>
</g>
<!-- Node2 -->
<g id="node3" class="node"><title>Node2</title>
<a xlink:href="cvm-hfa-graph_8c.html#a80a6427d5a90c7bd1e4cbfd62a808524" target="_top" xlink:title="This routine initializes a graph object which can be used to perform various operations on a graph fi...">
<polygon fill="white" stroke="black" points="120.5,-821.5 120.5,-842.5 227.5,-842.5 227.5,-821.5 120.5,-821.5"/>
<text text-anchor="middle" x="174" y="-829.5" font-family="FreeSans" font-size="10.00">hfa_dev_graph_init</text>
</a>
</g>
<!-- Node1&#45;&gt;Node2 -->
<g id="edge2" class="edge"><title>Node1&#45;&gt;Node2</title>
<path fill="none" stroke="midnightblue" d="M45.0218,-762.891C57.9098,-776.28 81.5585,-798.842 106,-812 110.009,-814.158 114.28,-816.11 118.653,-817.871"/>
<polygon fill="midnightblue" stroke="midnightblue" points="117.734,-821.262 128.327,-821.425 120.147,-814.691 117.734,-821.262"/>
</g>
<!-- Node3 -->
<g id="node5" class="node"><title>Node3</title>
<a xlink:href="cvm-hfa-graph_8c.html#a32df4a93ffcd7da232613b13204b2a80" target="_top" xlink:title="This routine sets the cluster&#45;mask for the graph.">
<polygon fill="white" stroke="black" points="115.5,-781.5 115.5,-802.5 232.5,-802.5 232.5,-781.5 115.5,-781.5"/>
<text text-anchor="middle" x="174" y="-789.5" font-family="FreeSans" font-size="10.00">hfa_graph_setcluster</text>
</a>
</g>
<!-- Node1&#45;&gt;Node3 -->
<g id="edge4" class="edge"><title>Node1&#45;&gt;Node3</title>
<path fill="none" stroke="midnightblue" d="M69.717,-761.991C87.2468,-767.035 108.754,-773.224 127.674,-778.669"/>
<polygon fill="midnightblue" stroke="midnightblue" points="126.72,-782.036 137.298,-781.438 128.655,-775.309 126.72,-782.036"/>
</g>
<!-- Node4 -->
<g id="node7" class="node"><title>Node4</title>
<a xlink:href="app-utils_8c.html#aed95bb72627cff313c596ebcfcd8af61" target="_top" xlink:title="Parse graph into chunks and load graph to HFA memory.">
<polygon fill="white" stroke="black" points="106.5,-741.5 106.5,-762.5 241.5,-762.5 241.5,-741.5 106.5,-741.5"/>
<text text-anchor="middle" x="174" y="-749.5" font-family="FreeSans" font-size="10.00">hfautils_download_graph</text>
</a>
</g>
<!-- Node1&#45;&gt;Node4 -->
<g id="edge6" class="edge"><title>Node1&#45;&gt;Node4</title>
<path fill="none" stroke="midnightblue" d="M69.717,-752C77.9253,-752 87.0057,-752 96.2843,-752"/>
<polygon fill="midnightblue" stroke="midnightblue" points="96.3984,-755.5 106.398,-752 96.3983,-748.5 96.3984,-755.5"/>
</g>
<!-- Node15 -->
<g id="node32" class="node"><title>Node15</title>
<a xlink:href="cvm-hfa-graph_8c.html#a60861d15ed5f6bccc42bbde834aa2b32" target="_top" xlink:title="This routine is used to cacheload a cacheable graph in a blocking manner.">
<polygon fill="white" stroke="black" points="467,-701.5 467,-722.5 587,-722.5 587,-701.5 467,-701.5"/>
<text text-anchor="middle" x="527" y="-709.5" font-family="FreeSans" font-size="10.00">hfa_graph_cacheload</text>
</a>
</g>
<!-- Node1&#45;&gt;Node15 -->
<g id="edge34" class="edge"><title>Node1&#45;&gt;Node15</title>
<path fill="none" stroke="midnightblue" d="M66.4639,-741.479C78.6713,-737.836 92.8539,-734.135 106,-732 228.202,-712.151 372.769,-709.803 456.76,-710.492"/>
<polygon fill="midnightblue" stroke="midnightblue" points="456.913,-713.994 466.947,-710.594 456.983,-706.994 456.913,-713.994"/>
</g>
<!-- Node36 -->
<g id="node76" class="node"><title>Node36</title>
<a xlink:href="cvm-hfa-graph_8c.html#a5e79919f5903d97aee5e82bfc7e71597" target="_top" xlink:title="This routine is the counterpart of hfa_dev_graph_init().">
<polygon fill="white" stroke="black" points="108,-663.5 108,-684.5 240,-684.5 240,-663.5 108,-663.5"/>
<text text-anchor="middle" x="174" y="-671.5" font-family="FreeSans" font-size="10.00">hfa_dev_graph_cleanup</text>
</a>
</g>
<!-- Node1&#45;&gt;Node36 -->
<g id="edge80" class="edge"><title>Node1&#45;&gt;Node36</title>
<path fill="none" stroke="midnightblue" d="M46.8325,-741.466C60.3631,-729.842 83.5524,-711.169 106,-699 113.471,-694.95 121.735,-691.296 129.853,-688.112"/>
<polygon fill="midnightblue" stroke="midnightblue" points="131.119,-691.375 139.259,-684.594 128.666,-684.819 131.119,-691.375"/>
</g>
<!-- Node5 -->
<g id="node9" class="node"><title>Node5</title>
<a xlink:href="cvm-hfa-graph_8c.html#a647ccf649077cb5170221218ab2cdccf" target="_top" xlink:title="This routine downloads graph data to the HFA engine in a non&#45;blocking manner.">
<polygon fill="white" stroke="black" points="456,-817 456,-851 598,-851 598,-817 456,-817"/>
<text text-anchor="start" x="464" y="-838" font-family="FreeSans" font-size="10.00">hfa_graph_memload_data</text>
<text text-anchor="middle" x="527" y="-825" font-family="FreeSans" font-size="10.00">_async</text>
</a>
</g>
<!-- Node4&#45;&gt;Node5 -->
<g id="edge8" class="edge"><title>Node4&#45;&gt;Node5</title>
<path fill="none" stroke="midnightblue" d="M221.828,-762.569C228.858,-765.104 235.808,-768.21 242,-772 261.843,-784.145 257.095,-799.792 278,-810 329.844,-835.316 394.935,-840.82 445.563,-840.258"/>
<polygon fill="midnightblue" stroke="midnightblue" points="445.881,-843.752 455.812,-840.059 445.746,-836.753 445.881,-843.752"/>
</g>
<!-- Node7 -->
<g id="node13" class="node"><title>Node7</title>
<a xlink:href="cvm-hfa-graph_8c.html#a0f2f13fb51e5d56dcf049ff3c7c6ad78" target="_top" xlink:title="This routine is used to check the status of the graph.">
<polygon fill="white" stroke="black" points="655,-778.5 655,-799.5 769,-799.5 769,-778.5 655,-778.5"/>
<text text-anchor="middle" x="712" y="-786.5" font-family="FreeSans" font-size="10.00">hfa_graph_getstatus</text>
</a>
</g>
<!-- Node4&#45;&gt;Node7 -->
<g id="edge26" class="edge"><title>Node4&#45;&gt;Node7</title>
<path fill="none" stroke="midnightblue" d="M241.593,-756.649C345.107,-763.768 541.723,-777.289 644.925,-784.387"/>
<polygon fill="midnightblue" stroke="midnightblue" points="644.7,-787.88 654.917,-785.074 645.181,-780.896 644.7,-787.88"/>
</g>
<!-- Node14 -->
<g id="node28" class="node"><title>Node14</title>
<a xlink:href="cvm-hfa-graph_8c.html#a9e3f1a4bf2be683265108b5131541e89" target="_top" xlink:title="This routine downloads graph data to the HFA engine in a blocking manner.">
<polygon fill="white" stroke="black" points="278,-779.5 278,-800.5 420,-800.5 420,-779.5 278,-779.5"/>
<text text-anchor="middle" x="349" y="-787.5" font-family="FreeSans" font-size="10.00">hfa_graph_memload_data</text>
</a>
</g>
<!-- Node4&#45;&gt;Node14 -->
<g id="edge28" class="edge"><title>Node4&#45;&gt;Node14</title>
<path fill="none" stroke="midnightblue" d="M222.747,-762.585C243.796,-767.156 268.594,-772.54 290.615,-777.322"/>
<polygon fill="midnightblue" stroke="midnightblue" points="289.999,-780.77 300.514,-779.472 291.485,-773.929 289.999,-780.77"/>
</g>
<!-- Node6 -->
<g id="node11" class="node"><title>Node6</title>
<a xlink:href="cvm-hfa_8h.html#a760b4a245f0bf0c6823c9edb7eba6425" target="_top" xlink:title="Indicates whether device has its own HFA memory.">
<polygon fill="white" stroke="black" points="634.5,-823.5 634.5,-844.5 789.5,-844.5 789.5,-823.5 634.5,-823.5"/>
<text text-anchor="middle" x="712" y="-831.5" font-family="FreeSans" font-size="10.00">hfa_dev_haspvt_hfamemory</text>
</a>
</g>
<!-- Node5&#45;&gt;Node6 -->
<g id="edge10" class="edge"><title>Node5&#45;&gt;Node6</title>
<path fill="none" stroke="midnightblue" d="M598.261,-834C606.748,-834 615.486,-834 624.17,-834"/>
<polygon fill="midnightblue" stroke="midnightblue" points="624.32,-837.5 634.32,-834 624.32,-830.5 624.32,-837.5"/>
</g>
<!-- Node5&#45;&gt;Node7 -->
<g id="edge12" class="edge"><title>Node5&#45;&gt;Node7</title>
<path fill="none" stroke="midnightblue" d="M596.941,-816.987C617.504,-811.986 639.652,-806.598 658.972,-801.899"/>
<polygon fill="midnightblue" stroke="midnightblue" points="659.904,-805.274 668.794,-799.51 658.25,-798.472 659.904,-805.274"/>
</g>
<!-- Node8 -->
<g id="node15" class="node"><title>Node8</title>
<a xlink:href="cvm-hfa_8c.html#a4753d2dd586e19676b1a59dd16baaeed" target="_top" xlink:title="Obtain status of submitted insruction.">
<polygon fill="white" stroke="black" points="833.5,-838.5 833.5,-859.5 966.5,-859.5 966.5,-838.5 833.5,-838.5"/>
<text text-anchor="middle" x="900" y="-846.5" font-family="FreeSans" font-size="10.00">hfa_dev_getasyncstatus</text>
</a>
</g>
<!-- Node7&#45;&gt;Node8 -->
<g id="edge14" class="edge"><title>Node7&#45;&gt;Node8</title>
<path fill="none" stroke="midnightblue" d="M747.161,-799.575C760.645,-803.811 776.12,-808.894 790,-814 806.268,-819.984 809.598,-823.393 826,-829 832.839,-831.338 840.108,-833.584 847.315,-835.672"/>
<polygon fill="midnightblue" stroke="midnightblue" points="846.485,-839.074 857.059,-838.415 848.381,-832.336 846.485,-839.074"/>
</g>
<!-- Node11 -->
<g id="node21" class="node"><title>Node11</title>
<a xlink:href="cvm-hfa-instr_8h.html#aa7b5661907cf23e01fe784a70980ed4b" target="_top" xlink:title="Gets itype from RWORD0.">
<polygon fill="white" stroke="black" points="839,-758.5 839,-779.5 961,-779.5 961,-758.5 839,-758.5"/>
<text text-anchor="middle" x="900" y="-766.5" font-family="FreeSans" font-size="10.00">cvm_hfa_rslt_getitype</text>
</a>
</g>
<!-- Node7&#45;&gt;Node11 -->
<g id="edge20" class="edge"><title>Node7&#45;&gt;Node11</title>
<path fill="none" stroke="midnightblue" d="M769.172,-782.918C787.939,-780.921 809.031,-778.678 828.711,-776.584"/>
<polygon fill="midnightblue" stroke="midnightblue" points="829.281,-780.043 838.854,-775.505 828.54,-773.082 829.281,-780.043"/>
</g>
<!-- Node12 -->
<g id="node23" class="node"><title>Node12</title>
<a xlink:href="cvm-hfa-graph_8c.html#aa4c0667cc4f92a08c249041eb8a4ec58" target="_top" xlink:title="This routine is used to free the buffers and change the graph load status after instruction completio...">
<polygon fill="white" stroke="black" points="826.5,-798.5 826.5,-819.5 973.5,-819.5 973.5,-798.5 826.5,-798.5"/>
<text text-anchor="middle" x="900" y="-806.5" font-family="FreeSans" font-size="10.00">__hfa_graph_processstatus</text>
</a>
</g>
<!-- Node7&#45;&gt;Node12 -->
<g id="edge22" class="edge"><title>Node7&#45;&gt;Node12</title>
<path fill="none" stroke="midnightblue" d="M769.172,-795.082C783.971,-796.656 800.217,-798.385 816.075,-800.072"/>
<polygon fill="midnightblue" stroke="midnightblue" points="816.108,-803.595 826.422,-801.173 816.848,-796.634 816.108,-803.595"/>
</g>
<!-- Node9 -->
<g id="node17" class="node"><title>Node9</title>
<a xlink:href="cvm-hfa-instr_8h.html#a56f2522dcba965745a1bc239fc432dca" target="_top" xlink:title="Gets done from RWORD0.">
<polygon fill="white" stroke="black" points="1014.5,-858.5 1014.5,-879.5 1137.5,-879.5 1137.5,-858.5 1014.5,-858.5"/>
<text text-anchor="middle" x="1076" y="-866.5" font-family="FreeSans" font-size="10.00">cvm_hfa_rslt_getdone</text>
</a>
</g>
<!-- Node8&#45;&gt;Node9 -->
<g id="edge16" class="edge"><title>Node8&#45;&gt;Node9</title>
<path fill="none" stroke="midnightblue" d="M966.538,-856.561C978.782,-857.953 991.616,-859.411 1004.01,-860.82"/>
<polygon fill="midnightblue" stroke="midnightblue" points="1003.97,-864.337 1014.3,-861.989 1004.76,-857.382 1003.97,-864.337"/>
</g>
<!-- Node10 -->
<g id="node19" class="node"><title>Node10</title>
<a xlink:href="cvm-hfa-instr_8h.html#a9700a50b68b6616506528eb725a8bda1" target="_top" xlink:title="Gets reason from RWORD0.">
<polygon fill="white" stroke="black" points="1010.5,-818.5 1010.5,-839.5 1141.5,-839.5 1141.5,-818.5 1010.5,-818.5"/>
<text text-anchor="middle" x="1076" y="-826.5" font-family="FreeSans" font-size="10.00">cvm_hfa_rslt_getreason</text>
</a>
</g>
<!-- Node8&#45;&gt;Node10 -->
<g id="edge18" class="edge"><title>Node8&#45;&gt;Node10</title>
<path fill="none" stroke="midnightblue" d="M966.538,-841.439C977.494,-840.194 988.922,-838.895 1000.09,-837.627"/>
<polygon fill="midnightblue" stroke="midnightblue" points="1000.7,-841.079 1010.24,-836.472 999.912,-834.124 1000.7,-841.079"/>
</g>
<!-- Node13 -->
<g id="node25" class="node"><title>Node13</title>
<a xlink:href="cvm-hfa-cluster_8c.html#ad8cad96579f5a310b62caaf8c166658f" target="_top" xlink:title="Returns a copy of a cluster of the HFA device.">
<polygon fill="white" stroke="black" points="1031,-709.5 1031,-730.5 1121,-730.5 1121,-709.5 1031,-709.5"/>
<text text-anchor="middle" x="1076" y="-717.5" font-family="FreeSans" font-size="10.00">hfa_get_cluster</text>
</a>
</g>
<!-- Node12&#45;&gt;Node13 -->
<g id="edge24" class="edge"><title>Node12&#45;&gt;Node13</title>
<path fill="none" stroke="midnightblue" d="M948.19,-798.462C956.961,-795.851 965.893,-792.712 974,-789 1004.31,-775.122 1035.54,-752.552 1055.32,-737.027"/>
<polygon fill="midnightblue" stroke="midnightblue" points="1057.68,-739.622 1063.31,-730.648 1053.31,-734.152 1057.68,-739.622"/>
</g>
<!-- Node14&#45;&gt;Node5 -->
<g id="edge30" class="edge"><title>Node14&#45;&gt;Node5</title>
<path fill="none" stroke="midnightblue" d="M391.635,-800.539C408.617,-804.737 428.722,-809.707 448.171,-814.514"/>
<polygon fill="midnightblue" stroke="midnightblue" points="447.407,-817.931 457.955,-816.933 449.087,-811.135 447.407,-817.931"/>
</g>
<!-- Node14&#45;&gt;Node7 -->
<g id="edge32" class="edge"><title>Node14&#45;&gt;Node7</title>
<path fill="none" stroke="midnightblue" d="M420.284,-789.804C485.317,-789.624 580.732,-789.362 644.538,-789.186"/>
<polygon fill="midnightblue" stroke="midnightblue" points="644.9,-792.685 654.89,-789.157 644.88,-785.685 644.9,-792.685"/>
</g>
<!-- Node15&#45;&gt;Node7 -->
<g id="edge78" class="edge"><title>Node15&#45;&gt;Node7</title>
<path fill="none" stroke="midnightblue" d="M559.036,-722.599C571.314,-726.839 585.395,-731.918 598,-737 626.598,-748.531 658.478,-763.235 681.237,-774.063"/>
<polygon fill="midnightblue" stroke="midnightblue" points="679.866,-777.287 690.397,-778.446 682.887,-770.972 679.866,-777.287"/>
</g>
<!-- Node16 -->
<g id="node34" class="node"><title>Node16</title>
<a xlink:href="cvm-hfa-graph_8c.html#aa296e0c6b36b3d5b4f8e01c2fe765bed" target="_top" xlink:title="This routine is used to cacheload a cacheable graph in a non&#45;blocking manner.">
<polygon fill="white" stroke="black" points="652,-374 652,-408 772,-408 772,-374 652,-374"/>
<text text-anchor="start" x="660" y="-395" font-family="FreeSans" font-size="10.00">hfa_graph_cacheload</text>
<text text-anchor="middle" x="712" y="-382" font-family="FreeSans" font-size="10.00">_async</text>
</a>
</g>
<!-- Node15&#45;&gt;Node16 -->
<g id="edge36" class="edge"><title>Node15&#45;&gt;Node16</title>
<path fill="none" stroke="midnightblue" d="M533.155,-701.32C558.911,-656.631 658.468,-483.886 696.819,-417.342"/>
<polygon fill="midnightblue" stroke="midnightblue" points="700.056,-418.734 702.017,-408.322 693.991,-415.239 700.056,-418.734"/>
</g>
<!-- Node16&#45;&gt;Node13 -->
<g id="edge54" class="edge"><title>Node16&#45;&gt;Node13</title>
<path fill="none" stroke="midnightblue" d="M715.019,-408.295C723.681,-452.561 752.851,-570.709 826,-631 878.405,-674.193 910.382,-645.236 974,-669 1000.26,-678.808 1028.67,-693.366 1048.82,-704.421"/>
<polygon fill="midnightblue" stroke="midnightblue" points="1047.29,-707.575 1057.73,-709.376 1050.69,-701.457 1047.29,-707.575"/>
</g>
<!-- Node17 -->
<g id="node36" class="node"><title>Node17</title>
<a xlink:href="cvm-hfa-instr_8h.html#acaf8def6cbffb04c100bf7f7684f242e" target="_top" xlink:title="Initialize the HFA instruction.">
<polygon fill="white" stroke="black" points="848.5,-560.5 848.5,-581.5 951.5,-581.5 951.5,-560.5 848.5,-560.5"/>
<text text-anchor="middle" x="900" y="-568.5" font-family="FreeSans" font-size="10.00">cvm_hfa_instr_init</text>
</a>
</g>
<!-- Node16&#45;&gt;Node17 -->
<g id="edge38" class="edge"><title>Node16&#45;&gt;Node17</title>
<path fill="none" stroke="midnightblue" d="M719.379,-408.214C734.416,-441.184 771.824,-513.309 826,-551 829.957,-553.753 834.275,-556.127 838.773,-558.174"/>
<polygon fill="midnightblue" stroke="midnightblue" points="837.617,-561.481 848.202,-561.935 840.21,-554.979 837.617,-561.481"/>
</g>
<!-- Node18 -->
<g id="node38" class="node"><title>Node18</title>
<a xlink:href="cvm-hfa-instr_8h.html#ae3c5617039956247653e8ab215744691" target="_top" xlink:title="Sets le in the instruction.">
<polygon fill="white" stroke="black" points="844,-520.5 844,-541.5 956,-541.5 956,-520.5 844,-520.5"/>
<text text-anchor="middle" x="900" y="-528.5" font-family="FreeSans" font-size="10.00">cvm_hfa_instr_setle</text>
</a>
</g>
<!-- Node16&#45;&gt;Node18 -->
<g id="edge40" class="edge"><title>Node16&#45;&gt;Node18</title>
<path fill="none" stroke="midnightblue" d="M723.504,-408.14C741.984,-434.325 780.829,-484.076 826,-511 829.601,-513.146 833.436,-515.067 837.393,-516.786"/>
<polygon fill="midnightblue" stroke="midnightblue" points="836.207,-520.08 846.796,-520.439 838.742,-513.555 836.207,-520.08"/>
</g>
<!-- Node19 -->
<g id="node40" class="node"><title>Node19</title>
<a xlink:href="cvm-hfa-instr_8h.html#a8261a957d73f83f0e9d827f0740e418f" target="_top" xlink:title="Sets gm in the instruction.">
<polygon fill="white" stroke="black" points="832.5,-480.5 832.5,-501.5 967.5,-501.5 967.5,-480.5 832.5,-480.5"/>
<text text-anchor="middle" x="900" y="-488.5" font-family="FreeSans" font-size="10.00">cvm_hfa_instr_setgather</text>
</a>
</g>
<!-- Node16&#45;&gt;Node19 -->
<g id="edge42" class="edge"><title>Node16&#45;&gt;Node19</title>
<path fill="none" stroke="midnightblue" d="M731.673,-408.055C753.403,-426.082 790.089,-454.184 826,-471 830.972,-473.328 836.262,-475.425 841.64,-477.305"/>
<polygon fill="midnightblue" stroke="midnightblue" points="840.773,-480.703 851.365,-480.458 842.932,-474.044 840.773,-480.703"/>
</g>
<!-- Node20 -->
<g id="node42" class="node"><title>Node20</title>
<a xlink:href="cvm-hfa-instr_8h.html#aad258e7b6ac8e829b365867eff83f0ca" target="_top" xlink:title="Sets dsize in the CACHELOAD instruction.">
<polygon fill="white" stroke="black" points="835.5,-440.5 835.5,-461.5 964.5,-461.5 964.5,-440.5 835.5,-440.5"/>
<text text-anchor="middle" x="900" y="-448.5" font-family="FreeSans" font-size="10.00">cvm_hfa_instr_setdsize</text>
</a>
</g>
<!-- Node16&#45;&gt;Node20 -->
<g id="edge44" class="edge"><title>Node16&#45;&gt;Node20</title>
<path fill="none" stroke="midnightblue" d="M758.058,-408.027C778.718,-415.44 803.462,-424.011 826,-431 833.418,-433.3 841.3,-435.591 849.048,-437.758"/>
<polygon fill="midnightblue" stroke="midnightblue" points="848.176,-441.148 858.746,-440.426 850.033,-434.399 848.176,-441.148"/>
</g>
<!-- Node21 -->
<g id="node44" class="node"><title>Node21</title>
<a xlink:href="cvm-hfa-instr_8h.html#ad91227f5246b9ab04b5151cbf93f38db" target="_top" xlink:title="Sets dptr in the instruction.">
<polygon fill="white" stroke="black" points="838.5,-400.5 838.5,-421.5 961.5,-421.5 961.5,-400.5 838.5,-400.5"/>
<text text-anchor="middle" x="900" y="-408.5" font-family="FreeSans" font-size="10.00">cvm_hfa_instr_setdptr</text>
</a>
</g>
<!-- Node16&#45;&gt;Node21 -->
<g id="edge46" class="edge"><title>Node16&#45;&gt;Node21</title>
<path fill="none" stroke="midnightblue" d="M772.001,-397.383C789.863,-399.283 809.618,-401.385 828.154,-403.357"/>
<polygon fill="midnightblue" stroke="midnightblue" points="827.992,-406.859 838.307,-404.437 828.733,-399.899 827.992,-406.859"/>
</g>
<!-- Node22 -->
<g id="node46" class="node"><title>Node22</title>
<a xlink:href="cvm-hfa-instr_8h.html#a4e2b3c4160c4ecad70f391800f7d9dba" target="_top" xlink:title="Sets rmax in the CACHELOAD instruction.">
<polygon fill="white" stroke="black" points="835.5,-360.5 835.5,-381.5 964.5,-381.5 964.5,-360.5 835.5,-360.5"/>
<text text-anchor="middle" x="900" y="-368.5" font-family="FreeSans" font-size="10.00">cvm_hfa_instr_setrmax</text>
</a>
</g>
<!-- Node16&#45;&gt;Node22 -->
<g id="edge48" class="edge"><title>Node16&#45;&gt;Node22</title>
<path fill="none" stroke="midnightblue" d="M772.001,-384.617C788.889,-382.82 807.469,-380.844 825.112,-378.967"/>
<polygon fill="midnightblue" stroke="midnightblue" points="825.797,-382.414 835.371,-377.875 825.057,-375.453 825.797,-382.414"/>
</g>
<!-- Node23 -->
<g id="node48" class="node"><title>Node23</title>
<a xlink:href="cvm-hfa-instr_8h.html#ae835dc8f1211f0efa86a88df8e618c80" target="_top" xlink:title="Sets dlen in the instruction.">
<polygon fill="white" stroke="black" points="838,-320.5 838,-341.5 962,-341.5 962,-320.5 838,-320.5"/>
<text text-anchor="middle" x="900" y="-328.5" font-family="FreeSans" font-size="10.00">cvm_hfa_instr_setdlen</text>
</a>
</g>
<!-- Node16&#45;&gt;Node23 -->
<g id="edge50" class="edge"><title>Node16&#45;&gt;Node23</title>
<path fill="none" stroke="midnightblue" d="M758.058,-373.973C778.718,-366.56 803.462,-357.989 826,-351 833.418,-348.7 841.3,-346.409 849.048,-344.242"/>
<polygon fill="midnightblue" stroke="midnightblue" points="850.033,-347.601 858.746,-341.574 848.176,-340.852 850.033,-347.601"/>
</g>
<!-- Node24 -->
<g id="node50" class="node"><title>Node24</title>
<a xlink:href="cvm-hfa-instr_8h.html#a823a53a14312c8ef7cf8eae714ee8994" target="_top" xlink:title="Sets f4 in the MEMLOAD/CACHELOAD instruction.">
<polygon fill="white" stroke="black" points="843,-280.5 843,-301.5 957,-301.5 957,-280.5 843,-280.5"/>
<text text-anchor="middle" x="900" y="-288.5" font-family="FreeSans" font-size="10.00">cvm_hfa_instr_setf4</text>
</a>
</g>
<!-- Node16&#45;&gt;Node24 -->
<g id="edge52" class="edge"><title>Node16&#45;&gt;Node24</title>
<path fill="none" stroke="midnightblue" d="M731.673,-373.945C753.403,-355.918 790.089,-327.816 826,-311 830.972,-308.672 836.262,-306.575 841.64,-304.695"/>
<polygon fill="midnightblue" stroke="midnightblue" points="842.932,-307.956 851.365,-301.542 840.773,-301.297 842.932,-307.956"/>
</g>
<!-- Node25 -->
<g id="node53" class="node"><title>Node25</title>
<a xlink:href="cvm-hfa-instr_8h.html#ae68e1302e0d2010814eb883d768bab97" target="_top" xlink:title="Sets cbase in the CACHELOAD instruction.">
<polygon fill="white" stroke="black" points="833.5,-240.5 833.5,-261.5 966.5,-261.5 966.5,-240.5 833.5,-240.5"/>
<text text-anchor="middle" x="900" y="-248.5" font-family="FreeSans" font-size="10.00">cvm_hfa_instr_setcbase</text>
</a>
</g>
<!-- Node16&#45;&gt;Node25 -->
<g id="edge56" class="edge"><title>Node16&#45;&gt;Node25</title>
<path fill="none" stroke="midnightblue" d="M723.504,-373.86C741.984,-347.675 780.829,-297.924 826,-271 829.601,-268.854 833.436,-266.933 837.393,-265.214"/>
<polygon fill="midnightblue" stroke="midnightblue" points="838.742,-268.445 846.796,-261.561 836.207,-261.92 838.742,-268.445"/>
</g>
<!-- Node26 -->
<g id="node55" class="node"><title>Node26</title>
<a xlink:href="cvm-hfa-instr_8h.html#aac026144550c5d2d8c5e9084da909a16" target="_top" xlink:title="Sets dbase in the CACHELOAD instruction.">
<polygon fill="white" stroke="black" points="833.5,-200.5 833.5,-221.5 966.5,-221.5 966.5,-200.5 833.5,-200.5"/>
<text text-anchor="middle" x="900" y="-208.5" font-family="FreeSans" font-size="10.00">cvm_hfa_instr_setdbase</text>
</a>
</g>
<!-- Node16&#45;&gt;Node26 -->
<g id="edge58" class="edge"><title>Node16&#45;&gt;Node26</title>
<path fill="none" stroke="midnightblue" d="M719.379,-373.786C734.416,-340.816 771.824,-268.691 826,-231 828.731,-229.1 831.635,-227.38 834.651,-225.824"/>
<polygon fill="midnightblue" stroke="midnightblue" points="836.294,-228.922 843.977,-221.627 833.421,-222.539 836.294,-228.922"/>
</g>
<!-- Node27 -->
<g id="node57" class="node"><title>Node27</title>
<a xlink:href="cvm-hfa-instr_8h.html#a5202ffb084dff479254eddd9d1ad3884" target="_top" xlink:title="Sets pgid in the CACHELOAD instruction.">
<polygon fill="white" stroke="black" points="838,-160.5 838,-181.5 962,-181.5 962,-160.5 838,-160.5"/>
<text text-anchor="middle" x="900" y="-168.5" font-family="FreeSans" font-size="10.00">cvm_hfa_instr_setpgid</text>
</a>
</g>
<!-- Node16&#45;&gt;Node27 -->
<g id="edge60" class="edge"><title>Node16&#45;&gt;Node27</title>
<path fill="none" stroke="midnightblue" d="M716.813,-373.788C728.588,-334.939 762.614,-240.026 826,-191 828.319,-189.206 830.787,-187.573 833.361,-186.086"/>
<polygon fill="midnightblue" stroke="midnightblue" points="835.057,-189.152 842.46,-181.573 831.946,-182.881 835.057,-189.152"/>
</g>
<!-- Node28 -->
<g id="node59" class="node"><title>Node28</title>
<a xlink:href="cvm-hfa-instr_8h.html#add4e981377a02cd06e2bca116e584bca" target="_top" xlink:title="Sets vgid in the instruction.">
<polygon fill="white" stroke="black" points="838,-120.5 838,-141.5 962,-141.5 962,-120.5 838,-120.5"/>
<text text-anchor="middle" x="900" y="-128.5" font-family="FreeSans" font-size="10.00">cvm_hfa_instr_setvgid</text>
</a>
</g>
<!-- Node16&#45;&gt;Node28 -->
<g id="edge62" class="edge"><title>Node16&#45;&gt;Node28</title>
<path fill="none" stroke="midnightblue" d="M715.063,-373.759C723.832,-329.62 753.233,-211.752 826,-151 828.011,-149.321 830.151,-147.782 832.387,-146.371"/>
<polygon fill="midnightblue" stroke="midnightblue" points="834.255,-149.341 841.425,-141.541 830.955,-143.168 834.255,-149.341"/>
</g>
<!-- Node29 -->
<g id="node61" class="node"><title>Node29</title>
<a xlink:href="cvm-hfa-instr_8h.html#a2d6082e2e599fe8523162b18d0a06f6c" target="_top" xlink:title="Sets rptr in the instruction.">
<polygon fill="white" stroke="black" points="840,-80.5 840,-101.5 960,-101.5 960,-80.5 840,-80.5"/>
<text text-anchor="middle" x="900" y="-88.5" font-family="FreeSans" font-size="10.00">cvm_hfa_instr_setrptr</text>
</a>
</g>
<!-- Node16&#45;&gt;Node29 -->
<g id="edge64" class="edge"><title>Node16&#45;&gt;Node29</title>
<path fill="none" stroke="midnightblue" d="M713.764,-373.851C719.729,-324.98 743.628,-183.839 826,-111 827.742,-109.46 829.59,-108.037 831.523,-106.722"/>
<polygon fill="midnightblue" stroke="midnightblue" points="833.511,-109.617 840.465,-101.624 830.044,-103.536 833.511,-109.617"/>
</g>
<!-- Node30 -->
<g id="node63" class="node"><title>Node30</title>
<a xlink:href="cvm-hfa-instr_8h.html#a6960a0761295ada9f449ea5e8c41ec80" target="_top" xlink:title="Sets clmsk in the instruction.">
<polygon fill="white" stroke="black" points="834,-40.5 834,-61.5 966,-61.5 966,-40.5 834,-40.5"/>
<text text-anchor="middle" x="900" y="-48.5" font-family="FreeSans" font-size="10.00">cvm_hfa_instr_setclmsk</text>
</a>
</g>
<!-- Node16&#45;&gt;Node30 -->
<g id="edge66" class="edge"><title>Node16&#45;&gt;Node30</title>
<path fill="none" stroke="midnightblue" d="M712.786,-373.791C716.179,-320.404 733.984,-156.082 826,-71 827.667,-69.4584 829.441,-68.0335 831.3,-66.7165"/>
<polygon fill="midnightblue" stroke="midnightblue" points="833.106,-69.7147 839.925,-61.6066 829.538,-63.6922 833.106,-69.7147"/>
</g>
<!-- Node31 -->
<g id="node65" class="node"><title>Node31</title>
<a xlink:href="cvm-hfa-instr_8h.html#a88a92a987acac81360f3b880d013cd10" target="_top" xlink:title="Sets wqptr instruction.">
<polygon fill="white" stroke="black" points="834.5,-0.5 834.5,-21.5 965.5,-21.5 965.5,-0.5 834.5,-0.5"/>
<text text-anchor="middle" x="900" y="-8.5" font-family="FreeSans" font-size="10.00">cvm_hfa_instr_setwqptr</text>
</a>
</g>
<!-- Node16&#45;&gt;Node31 -->
<g id="edge68" class="edge"><title>Node16&#45;&gt;Node31</title>
<path fill="none" stroke="midnightblue" d="M715.207,-373.726C727.589,-308.814 774.167,-80.6655 826,-31 827.477,-29.5844 829.044,-28.2667 830.685,-27.0402"/>
<polygon fill="midnightblue" stroke="midnightblue" points="832.758,-29.8733 839.423,-21.6375 829.077,-23.9194 832.758,-29.8733"/>
</g>
<!-- Node32 -->
<g id="node67" class="node"><title>Node32</title>
<a xlink:href="cvm-hfa-graph_8c.html#a1320f0566be0069bd604cc820a12a114" target="_top" xlink:title="This routine sets WQE field in graph data structure.">
<polygon fill="white" stroke="black" points="847.5,-718.5 847.5,-739.5 952.5,-739.5 952.5,-718.5 847.5,-718.5"/>
<text text-anchor="middle" x="900" y="-726.5" font-family="FreeSans" font-size="10.00">hfa_graph_setwqe</text>
</a>
</g>
<!-- Node16&#45;&gt;Node32 -->
<g id="edge70" class="edge"><title>Node16&#45;&gt;Node32</title>
<path fill="none" stroke="midnightblue" d="M712.823,-408.104C716.324,-461.165 734.41,-624.481 826,-709 829.6,-712.322 833.695,-715.103 838.068,-717.429"/>
<polygon fill="midnightblue" stroke="midnightblue" points="836.809,-720.699 847.366,-721.591 839.669,-714.31 836.809,-720.699"/>
</g>
<!-- Node33 -->
<g id="node69" class="node"><title>Node33</title>
<a xlink:href="cvm-hfa-common_8h.html#a0da7c57174fb96d75ae9cc2ed3116a05" target="_top" xlink:title="Dump buffer pointed by &quot;buf&quot; in readable format.">
<polygon fill="white" stroke="black" points="857,-678.5 857,-699.5 943,-699.5 943,-678.5 857,-678.5"/>
<text text-anchor="middle" x="900" y="-686.5" font-family="FreeSans" font-size="10.00">hfa_dump_buf</text>
</a>
</g>
<!-- Node16&#45;&gt;Node33 -->
<g id="edge72" class="edge"><title>Node16&#45;&gt;Node33</title>
<path fill="none" stroke="midnightblue" d="M714.229,-408.165C721.316,-455.806 747.681,-590.963 826,-664 832.064,-669.655 839.452,-674.034 847.186,-677.425"/>
<polygon fill="midnightblue" stroke="midnightblue" points="846.136,-680.771 856.726,-681.091 848.647,-674.237 846.136,-680.771"/>
</g>
<!-- Node34 -->
<g id="node71" class="node"><title>Node34</title>
<a xlink:href="cvm-hfa_8c.html#a4677d07b901d6aeb02e793c1dbdfabbf" target="_top" xlink:title="Asynchronous instruction submit to HFA hardware Do not wait for instruction to complete.">
<polygon fill="white" stroke="black" points="839,-600.5 839,-621.5 961,-621.5 961,-600.5 839,-600.5"/>
<text text-anchor="middle" x="900" y="-608.5" font-family="FreeSans" font-size="10.00">hfa_dev_submitasync</text>
</a>
</g>
<!-- Node16&#45;&gt;Node34 -->
<g id="edge74" class="edge"><title>Node16&#45;&gt;Node34</title>
<path fill="none" stroke="midnightblue" d="M716.813,-408.212C728.588,-447.061 762.614,-541.974 826,-591 828.319,-592.794 830.787,-594.427 833.361,-595.914"/>
<polygon fill="midnightblue" stroke="midnightblue" points="831.946,-599.119 842.46,-600.427 835.057,-592.848 831.946,-599.119"/>
</g>
<!-- Node35 -->
<g id="node73" class="node"><title>Node35</title>
<a xlink:href="cvmx-hfa_8c.html#a96a123c8918e83cdf914f6de1bfb4f00" target="_top" xlink:title="Submit a command to the DFA block.">
<polygon fill="white" stroke="black" points="1025,-600.5 1025,-621.5 1127,-621.5 1127,-600.5 1025,-600.5"/>
<text text-anchor="middle" x="1076" y="-608.5" font-family="FreeSans" font-size="10.00">cvmx_hfa_submit</text>
</a>
</g>
<!-- Node34&#45;&gt;Node35 -->
<g id="edge76" class="edge"><title>Node34&#45;&gt;Node35</title>
<path fill="none" stroke="midnightblue" d="M961.062,-611C978.491,-611 997.48,-611 1014.91,-611"/>
<polygon fill="midnightblue" stroke="midnightblue" points="1014.97,-614.5 1024.97,-611 1014.97,-607.5 1014.97,-614.5"/>
</g>
</g>
</svg>
        <g id="navigator" transform="translate(0 0)" fill="#404254">
                <rect fill="#f2f5e9" fill-opacity="0.5" stroke="#606060" stroke-width=".5" x="0" y="0" width="60" height="60"/>
                <use id="zoomplus" xlink:href="#zoomPlus" x="17" y="9" onmousedown="handleZoom(evt,'in')"/>
                <use id="zoomminus" xlink:href="#zoomMin" x="42" y="9" onmousedown="handleZoom(evt,'out')"/>
                <use id="reset" xlink:href="#resetDef" x="30" y="36" onmousedown="handleReset()"/>
                <g id="arrowUp" xlink:href="#dirArrow" transform="translate(30 24)" onmousedown="handlePan(0,-1)">
                  <use xlink:href="#rim" fill="#404040">
                        <set attributeName="fill" to="#808080" begin="arrowUp.mouseover" end="arrowUp.mouseout"/>
                  </use>
                  <path fill="none" stroke="white" stroke-width="1.5" d="M0,-3.0v7 M-2.5,-0.5L0,-3.0L2.5,-0.5"/>
                </g>
                <g id="arrowRight" xlink:href="#dirArrow" transform="rotate(90) translate(36 -43)" onmousedown="handlePan(1,0)">
                  <use xlink:href="#rim" fill="#404040">
                        <set attributeName="fill" to="#808080" begin="arrowRight.mouseover" end="arrowRight.mouseout"/>
                  </use>
                  <path fill="none" stroke="white" stroke-width="1.5" d="M0,-3.0v7 M-2.5,-0.5L0,-3.0L2.5,-0.5"/>
                </g>
                <g id="arrowDown" xlink:href="#dirArrow" transform="rotate(180) translate(-30 -48)" onmousedown="handlePan(0,1)">
                  <use xlink:href="#rim" fill="#404040">
                        <set attributeName="fill" to="#808080" begin="arrowDown.mouseover" end="arrowDown.mouseout"/>
                  </use>
                  <path fill="none" stroke="white" stroke-width="1.5" d="M0,-3.0v7 M-2.5,-0.5L0,-3.0L2.5,-0.5"/>
                </g>
                <g id="arrowLeft" xlink:href="#dirArrow" transform="rotate(270) translate(-36 17)" onmousedown="handlePan(-1,0)">
                  <use xlink:href="#rim" fill="#404040">
                        <set attributeName="fill" to="#808080" begin="arrowLeft.mouseover" end="arrowLeft.mouseout"/>
                  </use>
                  <path fill="none" stroke="white" stroke-width="1.5" d="M0,-3.0v7 M-2.5,-0.5L0,-3.0L2.5,-0.5"/>
                </g>
        </g>
        <svg viewBox="0 0 15 15" width="100%" height="30px" preserveAspectRatio="xMaxYMin meet">
         <g id="arrow_out" transform="scale(0.3 0.3)">
          <a xlink:href="hfa-se-linkgraph_8c_a546f3769e735d4bef0bfab1cba56921c_cgraph_org.svg" target="_base">
           <rect id="button" ry="5" rx="5" y="6" x="6" height="38" width="38"
                fill="#f2f5e9" fill-opacity="0.5" stroke="#606060" stroke-width="1.0"/>
           <path id="arrow"
             d="M 11.500037,31.436501 C 11.940474,20.09759 22.043105,11.32322 32.158766,21.979434 L 37.068811,17.246167 C 37.068811,17.246167 37.088388,32 37.088388,32 L 22.160133,31.978069 C 22.160133,31.978069 26.997745,27.140456 26.997745,27.140456 C 18.528582,18.264221 13.291696,25.230495 11.500037,31.436501 z"
             style="fill:#404040;"/>
          </a>
         </g>
        </svg>
</svg>
