<?xml version="1.0" encoding="UTF-8" standalone="no"?>
<!DOCTYPE svg PUBLIC "-//W3C//DTD SVG 1.1//EN"
 "http://www.w3.org/Graphics/SVG/1.1/DTD/svg11.dtd">
<!-- Generated by graphviz version 2.24.0 (20090616.2323)
 -->
<!-- Title: snode_cleanup Pages: 1 -->
<svg width="312pt" height="70pt"
 viewBox="0.00 0.00 312.00 70.00" xmlns="http://www.w3.org/2000/svg" xmlns:xlink="http://www.w3.org/1999/xlink">
<g id="graph1" class="graph" transform="scale(1 1) rotate(0) translate(4 66)">
<title>snode_cleanup</title>
<polygon fill="white" stroke="white" points="-4,5 -4,-66 309,-66 309,5 -4,5"/>
<!-- Node1 -->
<g id="node1" class="node"><title>Node1</title>
<polygon fill="#bfbfbf" stroke="black" points="0.5,-20.5 0.5,-41.5 89.5,-41.5 89.5,-20.5 0.5,-20.5"/>
<text text-anchor="middle" x="45" y="-28.5" font-family="FreeSans" font-size="10.00">snode_cleanup</text>
</g>
<!-- Node2 -->
<g id="node3" class="node"><title>Node2</title>
<a xlink:href="hfa-lnx-nctx-lock_8c.html#acd9e54f020b77f14d54c200b65423a15" target="_top" xlink:title="Application cleanup will be done by this routine.">
<polygon fill="white" stroke="black" points="149,-0.5 149,-21.5 203,-21.5 203,-0.5 149,-0.5"/>
<text text-anchor="middle" x="176" y="-8.5" font-family="FreeSans" font-size="10.00">cleanup</text>
</a>
</g>
<!-- Node1&#45;&gt;Node2 -->
<g id="edge2" class="edge"><title>Node1&#45;&gt;Node2</title>
<path fill="none" stroke="midnightblue" d="M100.01,-22.6016C116.803,-20.0376 134.542,-17.3295 148.653,-15.1752"/>
<polygon fill="midnightblue" stroke="midnightblue" points="99.0736,-19.2039 89.7164,-24.1731 100.13,-26.1237 99.0736,-19.2039"/>
</g>
<!-- Node5 -->
<g id="node9" class="node"><title>Node5</title>
<a xlink:href="hfa-lnx-nctx-lock_8c.html#a2c813b2ff20c5bf67f487908476604d6" target="_top" xlink:title="Initialize search context object for nctxts and a global list to track nctxts.">
<polygon fill="white" stroke="black" points="126.5,-40.5 126.5,-61.5 225.5,-61.5 225.5,-40.5 126.5,-40.5"/>
<text text-anchor="middle" x="176" y="-48.5" font-family="FreeSans" font-size="10.00">initialize_ctx_glist</text>
</a>
</g>
<!-- Node1&#45;&gt;Node5 -->
<g id="edge8" class="edge"><title>Node1&#45;&gt;Node5</title>
<path fill="none" stroke="midnightblue" d="M99.7938,-39.3655C108.513,-40.6966 117.492,-42.0675 126.091,-43.3802"/>
<polygon fill="midnightblue" stroke="midnightblue" points="100.13,-35.8763 89.7164,-37.8269 99.0736,-42.7962 100.13,-35.8763"/>
</g>
<!-- Node3 -->
<g id="node5" class="node"><title>Node3</title>
<a xlink:href="hfa-lnx-nctx-lock_8c.html#a78ffddbcd7cdd164889cfb53ea367886" target="_top" xlink:title="entry">
<polygon fill="white" stroke="black" points="262.5,-40.5 262.5,-61.5 303.5,-61.5 303.5,-40.5 262.5,-40.5"/>
<text text-anchor="middle" x="283" y="-48.5" font-family="FreeSans" font-size="10.00">entry</text>
</a>
</g>
<!-- Node2&#45;&gt;Node3 -->
<g id="edge4" class="edge"><title>Node2&#45;&gt;Node3</title>
<path fill="none" stroke="midnightblue" d="M212.479,-24.6369C229.156,-30.8714 248.296,-38.0267 262.425,-43.3083"/>
<polygon fill="midnightblue" stroke="midnightblue" points="213.593,-21.317 203.001,-21.0937 211.142,-27.8738 213.593,-21.317"/>
</g>
<!-- Node4 -->
<g id="node7" class="node"><title>Node4</title>
<a xlink:href="hfa-lnx-nctx-lock_8c.html#aaf98ef7cdde3a0dfb2e49919de3298b1" target="_top" xlink:title="exit">
<polygon fill="white" stroke="black" points="266.5,-0.5 266.5,-21.5 299.5,-21.5 299.5,-0.5 266.5,-0.5"/>
<text text-anchor="middle" x="283" y="-8.5" font-family="FreeSans" font-size="10.00">exit</text>
</a>
</g>
<!-- Node2&#45;&gt;Node4 -->
<g id="edge6" class="edge"><title>Node2&#45;&gt;Node4</title>
<path fill="none" stroke="midnightblue" d="M213.018,-11C231.179,-11 252.148,-11 266.362,-11"/>
<polygon fill="midnightblue" stroke="midnightblue" points="213.001,-7.5001 203.001,-11 213.001,-14.5001 213.001,-7.5001"/>
</g>
<!-- Node5&#45;&gt;Node3 -->
<g id="edge10" class="edge"><title>Node5&#45;&gt;Node3</title>
<path fill="none" stroke="midnightblue" d="M236.01,-51C245.427,-51 254.57,-51 262.25,-51"/>
<polygon fill="midnightblue" stroke="midnightblue" points="235.741,-47.5001 225.741,-51 235.741,-54.5001 235.741,-47.5001"/>
</g>
</g>
</svg>
