<?xml version="1.0" encoding="UTF-8" standalone="no"?>
<!DOCTYPE svg PUBLIC "-//W3C//DTD SVG 1.1//EN"
 "http://www.w3.org/Graphics/SVG/1.1/DTD/svg11.dtd">
<!-- Generated by graphviz version 2.24.0 (20090616.2323)
 -->
<!-- Title: ngraphs_read Pages: 1 -->
<svg width="368pt" height="110pt"
 viewBox="0.00 0.00 368.00 110.00" xmlns="http://www.w3.org/2000/svg" xmlns:xlink="http://www.w3.org/1999/xlink">
<g id="graph1" class="graph" transform="scale(1 1) rotate(0) translate(4 106)">
<title>ngraphs_read</title>
<polygon fill="white" stroke="white" points="-4,5 -4,-106 365,-106 365,5 -4,5"/>
<!-- Node1 -->
<g id="node1" class="node"><title>Node1</title>
<polygon fill="#bfbfbf" stroke="black" points="0,-60.5 0,-81.5 82,-81.5 82,-60.5 0,-60.5"/>
<text text-anchor="middle" x="41" y="-68.5" font-family="FreeSans" font-size="10.00">ngraphs_read</text>
</g>
<!-- Node2 -->
<g id="node3" class="node"><title>Node2</title>
<a xlink:href="app-utils_8c.html#a8d5ec2ca8ebb2e04916983e6053a5c79" target="_top" xlink:title="Return size of a file(compressed or uncompressed).">
<polygon fill="white" stroke="black" points="119.5,-80.5 119.5,-101.5 214.5,-101.5 214.5,-80.5 119.5,-80.5"/>
<text text-anchor="middle" x="167" y="-88.5" font-family="FreeSans" font-size="10.00">hfautils_file_size</text>
</a>
</g>
<!-- Node1&#45;&gt;Node2 -->
<g id="edge2" class="edge"><title>Node1&#45;&gt;Node2</title>
<path fill="none" stroke="midnightblue" d="M82.2571,-77.5487C90.8091,-78.9062 99.9704,-80.3604 108.994,-81.7927"/>
<polygon fill="midnightblue" stroke="midnightblue" points="108.659,-85.2833 119.084,-83.3943 109.756,-78.3698 108.659,-85.2833"/>
</g>
<!-- Node4 -->
<g id="node7" class="node"><title>Node4</title>
<a xlink:href="app-utils_8c.html#a12339c67618c4b3a54c32f43d378c273" target="_top" xlink:title="Read data from a file to a buffer(compressed or uncompressed).">
<polygon fill="white" stroke="black" points="118.5,-40.5 118.5,-61.5 215.5,-61.5 215.5,-40.5 118.5,-40.5"/>
<text text-anchor="middle" x="167" y="-48.5" font-family="FreeSans" font-size="10.00">hfautils_read_file</text>
</a>
</g>
<!-- Node1&#45;&gt;Node4 -->
<g id="edge6" class="edge"><title>Node1&#45;&gt;Node4</title>
<path fill="none" stroke="midnightblue" d="M82.2571,-64.4513C90.5108,-63.1411 99.332,-61.7409 108.049,-60.3572"/>
<polygon fill="midnightblue" stroke="midnightblue" points="108.867,-63.7713 118.195,-58.7468 107.77,-56.8579 108.867,-63.7713"/>
</g>
<!-- Node3 -->
<g id="node5" class="node"><title>Node3</title>
<a xlink:href="app-utils_8c.html#a7c78f1e7a6e793fea566793e167e22bc" target="_top" xlink:title="gz_get_size">
<polygon fill="white" stroke="black" points="269.5,-80.5 269.5,-101.5 342.5,-101.5 342.5,-80.5 269.5,-80.5"/>
<text text-anchor="middle" x="306" y="-88.5" font-family="FreeSans" font-size="10.00">gz_get_size</text>
</a>
</g>
<!-- Node2&#45;&gt;Node3 -->
<g id="edge4" class="edge"><title>Node2&#45;&gt;Node3</title>
<path fill="none" stroke="midnightblue" d="M214.836,-91C229.244,-91 245.032,-91 259.361,-91"/>
<polygon fill="midnightblue" stroke="midnightblue" points="259.496,-94.5001 269.496,-91 259.496,-87.5001 259.496,-94.5001"/>
</g>
<!-- Node5 -->
<g id="node9" class="node"><title>Node5</title>
<a xlink:href="app-utils_8c.html#a7fbf4d982c3e4493bda83be020e7274c" target="_top" xlink:title="Read file data from a gzip&#45;stream(compressed or uncompressed).">
<polygon fill="white" stroke="black" points="279.5,-40.5 279.5,-61.5 332.5,-61.5 332.5,-40.5 279.5,-40.5"/>
<text text-anchor="middle" x="306" y="-48.5" font-family="FreeSans" font-size="10.00">fd_read</text>
</a>
</g>
<!-- Node4&#45;&gt;Node5 -->
<g id="edge8" class="edge"><title>Node4&#45;&gt;Node5</title>
<path fill="none" stroke="midnightblue" d="M215.615,-51C233.212,-51 252.778,-51 269.192,-51"/>
<polygon fill="midnightblue" stroke="midnightblue" points="269.472,-54.5001 279.472,-51 269.472,-47.5001 269.472,-54.5001"/>
</g>
<!-- Node6 -->
<g id="node11" class="node"><title>Node6</title>
<a xlink:href="cvmx-hfa_8c.html#a3db44a30b1033c1ab4ac64bac81a41f6" target="_top" xlink:title="hfa_bootmem_free">
<polygon fill="white" stroke="black" points="252,-0.5 252,-21.5 360,-21.5 360,-0.5 252,-0.5"/>
<text text-anchor="middle" x="306" y="-8.5" font-family="FreeSans" font-size="10.00">hfa_bootmem_free</text>
</a>
</g>
<!-- Node4&#45;&gt;Node6 -->
<g id="edge10" class="edge"><title>Node4&#45;&gt;Node6</title>
<path fill="none" stroke="midnightblue" d="M203.521,-40.4905C220.623,-35.5688 241.195,-29.649 259.404,-24.4088"/>
<polygon fill="midnightblue" stroke="midnightblue" points="260.599,-27.7073 269.241,-21.5782 258.663,-20.9803 260.599,-27.7073"/>
</g>
</g>
</svg>
