<?xml version="1.0" encoding="UTF-8" standalone="no"?>
<!DOCTYPE svg PUBLIC "-//W3C//DTD SVG 1.1//EN"
 "http://www.w3.org/Graphics/SVG/1.1/DTD/svg11.dtd">
<!-- Generated by graphviz version 2.24.0 (20090616.2323)
 -->
<!-- Title: process_nctx Pages: 1 -->
<svg width="1600pt" height="924pt"
 viewBox="0.00 0.00 1600.00 924.00" xmlns="http://www.w3.org/2000/svg" xmlns:xlink="http://www.w3.org/1999/xlink">
<g id="graph1" class="graph" transform="scale(1 1) rotate(0) translate(4 920)">
<title>process_nctx</title>
<polygon fill="white" stroke="white" points="-4,5 -4,-920 1597,-920 1597,5 -4,5"/>
<!-- Node1 -->
<g id="node1" class="node"><title>Node1</title>
<polygon fill="#bfbfbf" stroke="black" points="0,-209.5 0,-230.5 80,-230.5 80,-209.5 0,-209.5"/>
<text text-anchor="middle" x="40" y="-217.5" font-family="FreeSans" font-size="10.00">process_nctx</text>
</g>
<!-- Node2 -->
<g id="node3" class="node"><title>Node2</title>
<a xlink:href="app-utils_8c.html#a1944a739d03e86dcaee1a7d245cfeba0" target="_top" xlink:title="Initialize the attributes needed for parsing the payload file.">
<polygon fill="white" stroke="black" points="1279.5,-287 1279.5,-321 1392.5,-321 1392.5,-287 1279.5,-287"/>
<text text-anchor="start" x="1287.5" y="-308" font-family="FreeSans" font-size="10.00">hfautils_init_payload</text>
<text text-anchor="middle" x="1336" y="-295" font-family="FreeSans" font-size="10.00">_attributes</text>
</a>
</g>
<!-- Node1&#45;&gt;Node2 -->
<g id="edge2" class="edge"><title>Node1&#45;&gt;Node2</title>
<path fill="none" stroke="midnightblue" d="M80.0213,-220C139.542,-220 254.916,-220 353,-220 353,-220 353,-220 932,-220 1057.56,-220 1093.37,-202.154 1214,-237 1246.52,-246.395 1279.99,-265.574 1303.62,-281.014"/>
<polygon fill="midnightblue" stroke="midnightblue" points="1301.92,-284.082 1312.18,-286.72 1305.8,-278.259 1301.92,-284.082"/>
</g>
<!-- Node4 -->
<g id="node7" class="node"><title>Node4</title>
<a xlink:href="app-utils_8c.html#a4b47f3c9c5a0b3eaee64e264171628a3" target="_top" xlink:title="This routine reads data of chunksize/a packet from given payload(Normal/PCAP) file and returns data b...">
<polygon fill="white" stroke="black" points="1088,-338.5 1088,-359.5 1214,-359.5 1214,-338.5 1088,-338.5"/>
<text text-anchor="middle" x="1151" y="-346.5" font-family="FreeSans" font-size="10.00">hfautils_parse_payload</text>
</a>
</g>
<!-- Node1&#45;&gt;Node4 -->
<g id="edge6" class="edge"><title>Node1&#45;&gt;Node4</title>
<path fill="none" stroke="midnightblue" d="M56.5201,-230.647C71.4741,-239.8 94.4025,-252.653 116,-260 217.203,-294.426 246.102,-301 353,-301 353,-301 353,-301 932,-301 964.704,-301 1048.83,-321.682 1102.79,-335.894"/>
<polygon fill="midnightblue" stroke="midnightblue" points="1101.93,-339.287 1112.49,-338.466 1103.72,-332.521 1101.93,-339.287"/>
</g>
<!-- Node5 -->
<g id="node10" class="node"><title>Node5</title>
<a xlink:href="hfa-se-wqe-lock_8c.html#af7c0c8f95babfb34f0364c1a1d8ca226" target="_top" xlink:title="Classify the given number of ctx among cores based on nctx_per_core.">
<polygon fill="white" stroke="black" points="165.5,-132.5 165.5,-153.5 218.5,-153.5 218.5,-132.5 165.5,-132.5"/>
<text text-anchor="middle" x="192" y="-140.5" font-family="FreeSans" font-size="10.00">classify</text>
</a>
</g>
<!-- Node1&#45;&gt;Node5 -->
<g id="edge10" class="edge"><title>Node1&#45;&gt;Node5</title>
<path fill="none" stroke="midnightblue" d="M53.0174,-209.389C67.6146,-197.91 92.3504,-179.685 116,-168 128.381,-161.883 142.608,-156.746 155.38,-152.751"/>
<polygon fill="midnightblue" stroke="midnightblue" points="156.673,-156.018 165.248,-149.795 154.664,-149.312 156.673,-156.018"/>
</g>
<!-- Node6 -->
<g id="node12" class="node"><title>Node6</title>
<a xlink:href="hfa-se-ctx_8c.html#aaf2d1bda55a80b5467e3ef350c514243" target="_top" xlink:title="Process search on recieved packet wqe.">
<polygon fill="white" stroke="black" points="152,-569.5 152,-590.5 232,-590.5 232,-569.5 152,-569.5"/>
<text text-anchor="middle" x="192" y="-577.5" font-family="FreeSans" font-size="10.00">process_wqe</text>
</a>
</g>
<!-- Node1&#45;&gt;Node6 -->
<g id="edge12" class="edge"><title>Node1&#45;&gt;Node6</title>
<path fill="none" stroke="midnightblue" d="M44.5491,-230.774C65.7893,-281.08 155.354,-493.206 183.499,-559.866"/>
<polygon fill="midnightblue" stroke="midnightblue" points="180.355,-561.417 187.469,-569.268 186.803,-558.694 180.355,-561.417"/>
</g>
<!-- Node25 -->
<g id="node53" class="node"><title>Node25</title>
<a xlink:href="cvm-hfa-search_8c.html#a6dbb15dc58155b2c94b19784ad42ef89" target="_top" xlink:title="This routine post&#45;processes the search results from the HFA engine and reports the pattern matches fo...">
<polygon fill="white" stroke="black" points="596.5,-412.5 596.5,-433.5 743.5,-433.5 743.5,-412.5 596.5,-412.5"/>
<text text-anchor="middle" x="670" y="-420.5" font-family="FreeSans" font-size="10.00">hfa_searchctx_getmatches</text>
</a>
</g>
<!-- Node1&#45;&gt;Node25 -->
<g id="edge128" class="edge"><title>Node1&#45;&gt;Node25</title>
<path fill="none" stroke="midnightblue" d="M45.2067,-230.593C55.6392,-250.615 81.1264,-293.892 116,-315 126.47,-321.337 458.152,-383.586 603.201,-410.598"/>
<polygon fill="midnightblue" stroke="midnightblue" points="602.844,-414.092 613.315,-412.481 604.125,-407.21 602.844,-414.092"/>
</g>
<!-- Node38 -->
<g id="node85" class="node"><title>Node38</title>
<a xlink:href="cvm-hfa-search_8h.html#ad18e328b50b109e1e44821f3d006bd9d" target="_top" xlink:title="This routine returns the data&#45;buffer offset.">
<polygon fill="white" stroke="black" points="1090,-246 1090,-280 1212,-280 1212,-246 1090,-246"/>
<text text-anchor="start" x="1098" y="-267" font-family="FreeSans" font-size="10.00">hfa_searchparam_get</text>
<text text-anchor="middle" x="1151" y="-254" font-family="FreeSans" font-size="10.00">_hwsearch_pdboff</text>
</a>
</g>
<!-- Node1&#45;&gt;Node38 -->
<g id="edge126" class="edge"><title>Node1&#45;&gt;Node38</title>
<path fill="none" stroke="midnightblue" d="M80.2963,-228.695C139.685,-240.73 254.352,-261 353,-261 353,-261 353,-261 932,-261 981.281,-261 1036.8,-261.513 1079.6,-262.019"/>
<polygon fill="midnightblue" stroke="midnightblue" points="1079.6,-265.519 1089.64,-262.14 1079.69,-258.52 1079.6,-265.519"/>
</g>
<!-- Node39 -->
<g id="node88" class="node"><title>Node39</title>
<a xlink:href="app-utils_8c.html#a633038357891aa5147b77fe939f300bf" target="_top" xlink:title="Print pattern matches via match buffer and cleanup all matches.">
<polygon fill="white" stroke="black" points="1089,-168.5 1089,-189.5 1213,-189.5 1213,-168.5 1089,-168.5"/>
<text text-anchor="middle" x="1151" y="-176.5" font-family="FreeSans" font-size="10.00">hfautils_print_matches</text>
</a>
</g>
<!-- Node1&#45;&gt;Node39 -->
<g id="edge130" class="edge"><title>Node1&#45;&gt;Node39</title>
<path fill="none" stroke="midnightblue" d="M80.3273,-211.941C139.755,-200.787 254.469,-182 353,-182 353,-182 353,-182 932,-182 980.931,-182 1036.01,-181.242 1078.68,-180.488"/>
<polygon fill="midnightblue" stroke="midnightblue" points="1078.77,-183.987 1088.7,-180.307 1078.64,-176.988 1078.77,-183.987"/>
</g>
<!-- Node47 -->
<g id="node104" class="node"><title>Node47</title>
<a xlink:href="hfa-se-wqe_8c.html#a04f39f57f0b34482133ae70ab812a11e" target="_top" xlink:title="Set search parameters and submit WQE to the HW.">
<polygon fill="white" stroke="black" points="316,-868.5 316,-889.5 390,-889.5 390,-868.5 316,-868.5"/>
<text text-anchor="middle" x="353" y="-876.5" font-family="FreeSans" font-size="10.00">submit_wqe</text>
</a>
</g>
<!-- Node1&#45;&gt;Node47 -->
<g id="edge114" class="edge"><title>Node1&#45;&gt;Node47</title>
<path fill="none" stroke="midnightblue" d="M40.447,-230.788C42.7112,-277.13 55.3317,-463.15 116,-600 172.92,-728.396 196.825,-763.232 304,-854 308.236,-857.588 313.074,-860.835 318.023,-863.711"/>
<polygon fill="midnightblue" stroke="midnightblue" points="316.476,-866.853 326.945,-868.482 319.777,-860.68 316.476,-866.853"/>
</g>
<!-- Node48 -->
<g id="node109" class="node"><title>Node48</title>
<a xlink:href="cvm-hfa-common_8h.html#ab6b5a9b432c71164f1c1aaa4db029031" target="_top" xlink:title="This routine is for getting WQE type.">
<polygon fill="white" stroke="black" points="140,-92.5 140,-113.5 244,-113.5 244,-92.5 140,-92.5"/>
<text text-anchor="middle" x="192" y="-100.5" font-family="FreeSans" font-size="10.00">hfa_get_wqe_type</text>
</a>
</g>
<!-- Node1&#45;&gt;Node48 -->
<g id="edge122" class="edge"><title>Node1&#45;&gt;Node48</title>
<path fill="none" stroke="midnightblue" d="M45.275,-209.39C55.8243,-189.299 81.5025,-145.688 116,-123 120.376,-120.122 125.149,-117.657 130.101,-115.547"/>
<polygon fill="midnightblue" stroke="midnightblue" points="131.657,-118.701 139.788,-111.909 129.196,-112.148 131.657,-118.701"/>
</g>
<!-- Node49 -->
<g id="node111" class="node"><title>Node49</title>
<a xlink:href="cvm-hfa-search_8c.html#a4e3a1a826235d80899e23fb44c69eb0f" target="_top" xlink:title="This routine handles HFA WQE posted by HFA engine to indicate instruction completion.">
<polygon fill="white" stroke="black" points="116.5,-52.5 116.5,-73.5 267.5,-73.5 267.5,-52.5 116.5,-52.5"/>
<text text-anchor="middle" x="192" y="-60.5" font-family="FreeSans" font-size="10.00">hfa_searchctx_processwork</text>
</a>
</g>
<!-- Node1&#45;&gt;Node49 -->
<g id="edge124" class="edge"><title>Node1&#45;&gt;Node49</title>
<path fill="none" stroke="midnightblue" d="M42.8185,-209.173C50.1617,-183.178 72.4086,-116.889 116,-83 118.323,-81.1944 120.793,-79.551 123.37,-78.0554"/>
<polygon fill="midnightblue" stroke="midnightblue" points="125.091,-81.1087 132.482,-73.5185 121.971,-74.8425 125.091,-81.1087"/>
</g>
<!-- Node50 -->
<g id="node116" class="node"><title>Node50</title>
<a xlink:href="app-utils_8c.html#a1f92c93fe820ec9fc9f4d8e993883b05" target="_top" xlink:title="This routine is counter part of hfautils_init_payload_attributes().">
<polygon fill="white" stroke="black" points="123,-0 123,-34 261,-34 261,-0 123,-0"/>
<text text-anchor="start" x="131" y="-21" font-family="FreeSans" font-size="10.00">hfautils_cleanup_payload</text>
<text text-anchor="middle" x="192" y="-8" font-family="FreeSans" font-size="10.00">_attributes</text>
</a>
</g>
<!-- Node1&#45;&gt;Node50 -->
<g id="edge132" class="edge"><title>Node1&#45;&gt;Node50</title>
<path fill="none" stroke="midnightblue" d="M41.5608,-209.097C46.5213,-178.419 64.7367,-90.5106 116,-43 117.266,-41.8269 118.587,-40.7065 119.955,-39.6364"/>
<polygon fill="midnightblue" stroke="midnightblue" points="121.913,-42.5369 128.244,-34.0414 117.997,-36.7349 121.913,-42.5369"/>
</g>
<!-- Node3 -->
<g id="node5" class="node"><title>Node3</title>
<a xlink:href="app-utils_8c.html#a7fbf4d982c3e4493bda83be020e7274c" target="_top" xlink:title="Read file data from a gzip&#45;stream(compressed or uncompressed).">
<polygon fill="white" stroke="black" points="1498.5,-315.5 1498.5,-336.5 1551.5,-336.5 1551.5,-315.5 1498.5,-315.5"/>
<text text-anchor="middle" x="1525" y="-323.5" font-family="FreeSans" font-size="10.00">fd_read</text>
</a>
</g>
<!-- Node2&#45;&gt;Node3 -->
<g id="edge4" class="edge"><title>Node2&#45;&gt;Node3</title>
<path fill="none" stroke="midnightblue" d="M1392.71,-310.601C1423.62,-314.199 1460.98,-318.548 1488.11,-321.706"/>
<polygon fill="midnightblue" stroke="midnightblue" points="1487.99,-325.216 1498.33,-322.896 1488.8,-318.263 1487.99,-325.216"/>
</g>
<!-- Node4&#45;&gt;Node3 -->
<g id="edge8" class="edge"><title>Node4&#45;&gt;Node3</title>
<path fill="none" stroke="midnightblue" d="M1214.02,-345.124C1292.7,-340.286 1424.68,-332.169 1488.4,-328.251"/>
<polygon fill="midnightblue" stroke="midnightblue" points="1488.61,-331.744 1498.38,-327.637 1488.19,-324.758 1488.61,-331.744"/>
</g>
<!-- Node7 -->
<g id="node14" class="node"><title>Node7</title>
<a xlink:href="hfa-se-ctx_8c.html#a07eb255c008c854386962d955ebe636e" target="_top" xlink:title="Send packet back or free packet data depending on wqe_status.">
<polygon fill="white" stroke="black" points="316,-540.5 316,-561.5 390,-561.5 390,-540.5 316,-540.5"/>
<text text-anchor="middle" x="353" y="-548.5" font-family="FreeSans" font-size="10.00">sendpktwqe</text>
</a>
</g>
<!-- Node6&#45;&gt;Node7 -->
<g id="edge14" class="edge"><title>Node6&#45;&gt;Node7</title>
<path fill="none" stroke="midnightblue" d="M232.212,-572.757C254.523,-568.738 282.398,-563.717 305.746,-559.512"/>
<polygon fill="midnightblue" stroke="midnightblue" points="306.56,-562.921 315.781,-557.704 305.319,-556.032 306.56,-562.921"/>
</g>
<!-- Node11 -->
<g id="node22" class="node"><title>Node11</title>
<a xlink:href="hfa-se-ctx_8c.html#a1bf8357c95e9c9afcbc15f7f45d349a8" target="_top" xlink:title="Allocate and set parameters for search.">
<polygon fill="white" stroke="black" points="316.5,-654.5 316.5,-675.5 389.5,-675.5 389.5,-654.5 316.5,-654.5"/>
<text text-anchor="middle" x="353" y="-662.5" font-family="FreeSans" font-size="10.00">get_sparam</text>
</a>
</g>
<!-- Node6&#45;&gt;Node11 -->
<g id="edge22" class="edge"><title>Node6&#45;&gt;Node11</title>
<path fill="none" stroke="midnightblue" d="M212.065,-590.593C240.222,-605.459 291.625,-632.597 323.958,-649.667"/>
<polygon fill="midnightblue" stroke="midnightblue" points="322.458,-652.833 332.935,-654.407 325.726,-646.643 322.458,-652.833"/>
</g>
<!-- Node12 -->
<g id="node24" class="node"><title>Node12</title>
<a xlink:href="hfa-se-flow_8c.html#a7ab45fe0bf9371bbe81609ffe8a62702" target="_top" xlink:title="Cleanup memory allocated for search parameters.">
<polygon fill="white" stroke="black" points="465.5,-608.5 465.5,-629.5 532.5,-629.5 532.5,-608.5 465.5,-608.5"/>
<text text-anchor="middle" x="499" y="-616.5" font-family="FreeSans" font-size="10.00">freeparam</text>
</a>
</g>
<!-- Node6&#45;&gt;Node12 -->
<g id="edge38" class="edge"><title>Node6&#45;&gt;Node12</title>
<path fill="none" stroke="midnightblue" d="M232.135,-585.099C289.785,-592.422 395.638,-605.869 455.237,-613.44"/>
<polygon fill="midnightblue" stroke="midnightblue" points="455.09,-616.95 465.451,-614.738 455.972,-610.006 455.09,-616.95"/>
</g>
<!-- Node17 -->
<g id="node35" class="node"><title>Node17</title>
<a xlink:href="hfa-se-ctx_8c.html#a9309c0b1faf948cf8698429ff743fcab" target="_top" xlink:title="Add search param to the paramlist to process search later.">
<polygon fill="white" stroke="black" points="304,-694.5 304,-715.5 402,-715.5 402,-694.5 304,-694.5"/>
<text text-anchor="middle" x="353" y="-702.5" font-family="FreeSans" font-size="10.00">addsearchparam</text>
</a>
</g>
<!-- Node6&#45;&gt;Node17 -->
<g id="edge36" class="edge"><title>Node6&#45;&gt;Node17</title>
<path fill="none" stroke="midnightblue" d="M200.868,-590.581C218.599,-611.178 260.477,-657.083 304,-685 306.784,-686.786 309.754,-688.465 312.803,-690.032"/>
<polygon fill="midnightblue" stroke="midnightblue" points="311.539,-693.305 322.078,-694.392 314.517,-686.97 311.539,-693.305"/>
</g>
<!-- Node18 -->
<g id="node38" class="node"><title>Node18</title>
<a xlink:href="cvm-hfa-search_8c.html#a0c36da280b39bd8afdf6081baea24472" target="_top" xlink:title="This routine performs a pattern search using the given parameters in a non&#45;blocking manner...">
<polygon fill="white" stroke="black" points="1274.5,-753 1274.5,-787 1397.5,-787 1397.5,-753 1274.5,-753"/>
<text text-anchor="start" x="1282.5" y="-774" font-family="FreeSans" font-size="10.00">hfa_searchctx_search</text>
<text text-anchor="middle" x="1336" y="-761" font-family="FreeSans" font-size="10.00">_async</text>
</a>
</g>
<!-- Node6&#45;&gt;Node18 -->
<g id="edge40" class="edge"><title>Node6&#45;&gt;Node18</title>
<path fill="none" stroke="midnightblue" d="M232.098,-580.434C244.962,-582.5 258.359,-586.963 268,-596 311.428,-636.708 269.869,-676.233 304,-725 361.692,-807.432 398.385,-840 499,-840 499,-840 499,-840 1025,-840 1116.28,-840 1219.03,-810.946 1280.58,-790.274"/>
<polygon fill="midnightblue" stroke="midnightblue" points="1281.76,-793.57 1290.1,-787.034 1279.5,-786.944 1281.76,-793.57"/>
</g>
<!-- Node19 -->
<g id="node40" class="node"><title>Node19</title>
<a xlink:href="hfa-se-ctx_8c.html#a77695c0833b3a3ee78df0d66b41c510e" target="_top" xlink:title="Submit search instruction to the HW by parsing through the paramlist.">
<polygon fill="white" stroke="black" points="646,-635.5 646,-656.5 694,-656.5 694,-635.5 646,-635.5"/>
<text text-anchor="middle" x="670" y="-643.5" font-family="FreeSans" font-size="10.00">submit</text>
</a>
</g>
<!-- Node6&#45;&gt;Node19 -->
<g id="edge42" class="edge"><title>Node6&#45;&gt;Node19</title>
<path fill="none" stroke="midnightblue" d="M204.961,-569.386C255.872,-529.029 444.974,-391.81 560,-481 610.772,-520.368 552.285,-573.919 596,-621 606.321,-632.115 621.749,-638.29 635.852,-641.72"/>
<polygon fill="midnightblue" stroke="midnightblue" points="635.295,-645.178 645.795,-643.763 636.704,-638.321 635.295,-645.178"/>
</g>
<!-- Node20 -->
<g id="node43" class="node"><title>Node20</title>
<a xlink:href="hfa-se-ctx_8c.html#a934a9fc08c4aab25d6f0d861e4a4f762" target="_top" xlink:title="poll for all submitted searches.">
<polygon fill="white" stroke="black" points="336.5,-412.5 336.5,-433.5 369.5,-433.5 369.5,-412.5 336.5,-412.5"/>
<text text-anchor="middle" x="353" y="-420.5" font-family="FreeSans" font-size="10.00">poll</text>
</a>
</g>
<!-- Node6&#45;&gt;Node20 -->
<g id="edge46" class="edge"><title>Node6&#45;&gt;Node20</title>
<path fill="none" stroke="midnightblue" d="M198.967,-569.169C215.02,-544.886 256.866,-485.302 304,-448 310.921,-442.522 319.232,-437.742 327.026,-433.868"/>
<polygon fill="midnightblue" stroke="midnightblue" points="328.569,-437.01 336.149,-429.608 325.608,-430.668 328.569,-437.01"/>
</g>
<!-- Node8 -->
<g id="node16" class="node"><title>Node8</title>
<a xlink:href="hfa-se-ctx_8c.html#aee1d462f9d43161cf38d392ac80596a7" target="_top" xlink:title="Signal handler for CTRL+C(SIGINT)">
<polygon fill="white" stroke="black" points="464,-490.5 464,-511.5 534,-511.5 534,-490.5 464,-490.5"/>
<text text-anchor="middle" x="499" y="-498.5" font-family="FreeSans" font-size="10.00">freepktwqe</text>
</a>
</g>
<!-- Node7&#45;&gt;Node8 -->
<g id="edge16" class="edge"><title>Node7&#45;&gt;Node8</title>
<path fill="none" stroke="midnightblue" d="M382.447,-540.424C398.782,-534.603 419.482,-527.303 438,-521 444.024,-518.95 450.395,-516.819 456.658,-514.746"/>
<polygon fill="midnightblue" stroke="midnightblue" points="457.944,-518.008 466.348,-511.556 455.755,-511.359 457.944,-518.008"/>
</g>
<!-- Node9 -->
<g id="node18" class="node"><title>Node9</title>
<a xlink:href="hfa-se-flow_8c.html#a49535197bf697f5b0b5f2952e1e5063c" target="_top" xlink:title="Free packet buffer and wqe to the corresponding fpa pools.">
<polygon fill="white" stroke="black" points="650.5,-675.5 650.5,-696.5 689.5,-696.5 689.5,-675.5 650.5,-675.5"/>
<text text-anchor="middle" x="670" y="-683.5" font-family="FreeSans" font-size="10.00">send</text>
</a>
</g>
<!-- Node7&#45;&gt;Node9 -->
<g id="edge18" class="edge"><title>Node7&#45;&gt;Node9</title>
<path fill="none" stroke="midnightblue" d="M390.361,-555.909C442.511,-563.382 533.698,-578.889 560,-599 586.853,-619.533 569.522,-644.986 596,-666 608.582,-675.986 625.75,-681.001 640.383,-683.513"/>
<polygon fill="midnightblue" stroke="midnightblue" points="640.097,-687.008 650.488,-684.936 641.073,-680.076 640.097,-687.008"/>
</g>
<!-- Node10 -->
<g id="node20" class="node"><title>Node10</title>
<a xlink:href="hfa-se-ctx_8c.html#abb3fee4415d5c2eb56562bf80c4e75f9" target="_top" xlink:title="Resubmit WQE to HW.">
<polygon fill="white" stroke="black" points="470,-530.5 470,-551.5 528,-551.5 528,-530.5 470,-530.5"/>
<text text-anchor="middle" x="499" y="-538.5" font-family="FreeSans" font-size="10.00">resubmit</text>
</a>
</g>
<!-- Node7&#45;&gt;Node10 -->
<g id="edge20" class="edge"><title>Node7&#45;&gt;Node10</title>
<path fill="none" stroke="midnightblue" d="M390.22,-548.451C411.42,-546.999 437.969,-545.18 459.532,-543.703"/>
<polygon fill="midnightblue" stroke="midnightblue" points="459.934,-547.184 469.671,-543.009 459.456,-540.2 459.934,-547.184"/>
</g>
<!-- Node11&#45;&gt;Node12 -->
<g id="edge24" class="edge"><title>Node11&#45;&gt;Node12</title>
<path fill="none" stroke="midnightblue" d="M386.495,-654.447C407.083,-647.96 433.67,-639.583 455.829,-632.602"/>
<polygon fill="midnightblue" stroke="midnightblue" points="457.175,-635.848 465.661,-629.504 455.071,-629.171 457.175,-635.848"/>
</g>
<!-- Node13 -->
<g id="node27" class="node"><title>Node13</title>
<a xlink:href="cvm-hfa-search_8h.html#a0210e636ef06f718be0e67753bebaa04" target="_top" xlink:title="This routine configures the application callback routine which will be invoked when a pattern match i...">
<polygon fill="white" stroke="black" points="438.5,-648 438.5,-682 559.5,-682 559.5,-648 438.5,-648"/>
<text text-anchor="start" x="446.5" y="-669" font-family="FreeSans" font-size="10.00">hfa_searchparam_set</text>
<text text-anchor="middle" x="499" y="-656" font-family="FreeSans" font-size="10.00">_matchcb</text>
</a>
</g>
<!-- Node11&#45;&gt;Node13 -->
<g id="edge28" class="edge"><title>Node11&#45;&gt;Node13</title>
<path fill="none" stroke="midnightblue" d="M389.842,-665C401.555,-665 414.93,-665 428.207,-665"/>
<polygon fill="midnightblue" stroke="midnightblue" points="428.312,-668.5 438.312,-665 428.312,-661.5 428.312,-668.5"/>
</g>
<!-- Node14 -->
<g id="node29" class="node"><title>Node14</title>
<a xlink:href="app-utils_8c.html#a97d86363214adebf7bbc22fa81e2c6b6" target="_top" xlink:title="Match callback to count number of matches.">
<polygon fill="white" stroke="black" points="449.5,-700.5 449.5,-721.5 548.5,-721.5 548.5,-700.5 449.5,-700.5"/>
<text text-anchor="middle" x="499" y="-708.5" font-family="FreeSans" font-size="10.00">hfautils_matchcb</text>
</a>
</g>
<!-- Node11&#45;&gt;Node14 -->
<g id="edge30" class="edge"><title>Node11&#45;&gt;Node14</title>
<path fill="none" stroke="midnightblue" d="M386.495,-675.553C407.083,-682.04 433.67,-690.417 455.829,-697.398"/>
<polygon fill="midnightblue" stroke="midnightblue" points="455.071,-700.829 465.661,-700.496 457.175,-694.152 455.071,-700.829"/>
</g>
<!-- Node15 -->
<g id="node31" class="node"><title>Node15</title>
<a xlink:href="cvm-hfa-search_8h.html#a3c407460808f038770473ffc6e4b5c38" target="_top" xlink:title="This routine adds a new input IO vector to Search Param.">
<polygon fill="white" stroke="black" points="438.5,-778 438.5,-812 559.5,-812 559.5,-778 438.5,-778"/>
<text text-anchor="start" x="446.5" y="-799" font-family="FreeSans" font-size="10.00">hfa_searchparam_set</text>
<text text-anchor="middle" x="499" y="-786" font-family="FreeSans" font-size="10.00">_inputiovec</text>
</a>
</g>
<!-- Node11&#45;&gt;Node15 -->
<g id="edge32" class="edge"><title>Node11&#45;&gt;Node15</title>
<path fill="none" stroke="midnightblue" d="M388.196,-675.502C393.221,-678.053 398.024,-681.181 402,-685 429.825,-711.732 411.304,-736.141 438,-764 440.913,-767.039 444.188,-769.831 447.669,-772.386"/>
<polygon fill="midnightblue" stroke="midnightblue" points="445.815,-775.355 456.094,-777.922 449.659,-769.505 445.815,-775.355"/>
</g>
<!-- Node16 -->
<g id="node33" class="node"><title>Node16</title>
<a xlink:href="cvm-hfa-search_8h.html#a12882fa53f8ec49b9b2950711161db42" target="_top" xlink:title="This routine sets the output buffer in the sparam.">
<polygon fill="white" stroke="black" points="1090.5,-733 1090.5,-767 1211.5,-767 1211.5,-733 1090.5,-733"/>
<text text-anchor="start" x="1098.5" y="-754" font-family="FreeSans" font-size="10.00">hfa_searchparam_set</text>
<text text-anchor="middle" x="1151" y="-741" font-family="FreeSans" font-size="10.00">_output</text>
</a>
</g>
<!-- Node11&#45;&gt;Node16 -->
<g id="edge34" class="edge"><title>Node11&#45;&gt;Node16</title>
<path fill="none" stroke="midnightblue" d="M385.657,-675.538C391.392,-678.15 397.089,-681.288 402,-685 422.712,-700.652 415.146,-718.685 438,-731 529.076,-780.075 566.544,-750 670,-750 670,-750 670,-750 932,-750 981.455,-750 1037.19,-750 1080.06,-750"/>
<polygon fill="midnightblue" stroke="midnightblue" points="1080.11,-753.5 1090.11,-750 1080.11,-746.5 1080.11,-753.5"/>
</g>
<!-- Node12&#45;&gt;Node9 -->
<g id="edge26" class="edge"><title>Node12&#45;&gt;Node9</title>
<path fill="none" stroke="midnightblue" d="M532.727,-627.888C541.826,-630.863 551.499,-634.573 560,-639 577.738,-648.238 578.024,-657.234 596,-666 609.917,-672.787 626.468,-677.536 640.385,-680.697"/>
<polygon fill="midnightblue" stroke="midnightblue" points="639.92,-684.176 650.426,-682.813 641.363,-677.326 639.92,-684.176"/>
</g>
<!-- Node19&#45;&gt;Node18 -->
<g id="edge44" class="edge"><title>Node19&#45;&gt;Node18</title>
<path fill="none" stroke="midnightblue" d="M694.206,-652.3C749.758,-666.545 885.209,-700 932,-700 932,-700 932,-700 1025,-700 1109.67,-700 1131.82,-703.59 1214,-724 1239.07,-730.226 1266.03,-740.042 1288.21,-749.01"/>
<polygon fill="midnightblue" stroke="midnightblue" points="1287.15,-752.356 1297.73,-752.921 1289.81,-745.881 1287.15,-752.356"/>
</g>
<!-- Node21 -->
<g id="node45" class="node"><title>Node21</title>
<a xlink:href="hfa-se-ctx_8c.html#a71e1d3d18cc48b90a1ecde583ffb3f7a" target="_top" xlink:title="Polls once for all submitted searches.If a search is completed the result is processed.">
<polygon fill="white" stroke="black" points="456,-412.5 456,-433.5 542,-433.5 542,-412.5 456,-412.5"/>
<text text-anchor="middle" x="499" y="-420.5" font-family="FreeSans" font-size="10.00">poll_searchctx</text>
</a>
</g>
<!-- Node20&#45;&gt;Node21 -->
<g id="edge48" class="edge"><title>Node20&#45;&gt;Node21</title>
<path fill="none" stroke="midnightblue" d="M369.748,-423C388.212,-423 418.858,-423 445.675,-423"/>
<polygon fill="midnightblue" stroke="midnightblue" points="445.732,-426.5 455.732,-423 445.732,-419.5 445.732,-426.5"/>
</g>
<!-- Node22 -->
<g id="node47" class="node"><title>Node22</title>
<a xlink:href="cvm-hfa-search_8c.html#a6a8e1d7e70e0a10520302df5651e5fc5" target="_top" xlink:title="This routine provides the status of an outstanding pattern search operation initiated using hfa_searc...">
<polygon fill="white" stroke="black" points="1250,-595.5 1250,-616.5 1422,-616.5 1422,-595.5 1250,-595.5"/>
<text text-anchor="middle" x="1336" y="-603.5" font-family="FreeSans" font-size="10.00">hfa_searchctx_get_searchstatus</text>
</a>
</g>
<!-- Node21&#45;&gt;Node22 -->
<g id="edge50" class="edge"><title>Node21&#45;&gt;Node22</title>
<path fill="none" stroke="midnightblue" d="M526.799,-433.582C635.539,-474.883 1028.99,-623.425 1088,-633 1143.28,-641.97 1158.33,-639.086 1214,-633 1238.87,-630.281 1266.1,-624.531 1288.5,-619.034"/>
<polygon fill="midnightblue" stroke="midnightblue" points="1289.59,-622.37 1298.44,-616.538 1287.88,-615.581 1289.59,-622.37"/>
</g>
<!-- Node24 -->
<g id="node51" class="node"><title>Node24</title>
<a xlink:href="cvm-hfa-search_8h.html#ab50a2d84e35b5a4a03a23fc90e4dffa0" target="_top" xlink:title="This routine retrieves the reason code after a search operation has been completed by the HFA engine...">
<polygon fill="white" stroke="black" points="1090,-590 1090,-624 1212,-624 1212,-590 1090,-590"/>
<text text-anchor="start" x="1098" y="-611" font-family="FreeSans" font-size="10.00">hfa_searchparam_get</text>
<text text-anchor="middle" x="1151" y="-598" font-family="FreeSans" font-size="10.00">_hwsearch_reason</text>
</a>
</g>
<!-- Node21&#45;&gt;Node24 -->
<g id="edge54" class="edge"><title>Node21&#45;&gt;Node24</title>
<path fill="none" stroke="midnightblue" d="M528.92,-433.595C538.959,-437.458 550.112,-442.092 560,-447 682.556,-507.826 686.18,-607 823,-607 823,-607 823,-607 932,-607 981.279,-607 1036.79,-607 1079.6,-607"/>
<polygon fill="midnightblue" stroke="midnightblue" points="1079.64,-610.5 1089.64,-607 1079.64,-603.5 1079.64,-610.5"/>
</g>
<!-- Node21&#45;&gt;Node25 -->
<g id="edge56" class="edge"><title>Node21&#45;&gt;Node25</title>
<path fill="none" stroke="midnightblue" d="M542.151,-423C555.623,-423 570.973,-423 586.249,-423"/>
<polygon fill="midnightblue" stroke="midnightblue" points="586.255,-426.5 596.255,-423 586.255,-419.5 586.255,-426.5"/>
</g>
<!-- Node23 -->
<g id="node49" class="node"><title>Node23</title>
<a xlink:href="cvm-hfa_8c.html#a4753d2dd586e19676b1a59dd16baaeed" target="_top" xlink:title="Obtain status of submitted insruction.">
<polygon fill="white" stroke="red" points="1458.5,-595.5 1458.5,-616.5 1591.5,-616.5 1591.5,-595.5 1458.5,-595.5"/>
<text text-anchor="middle" x="1525" y="-603.5" font-family="FreeSans" font-size="10.00">hfa_dev_getasyncstatus</text>
</a>
</g>
<!-- Node22&#45;&gt;Node23 -->
<g id="edge52" class="edge"><title>Node22&#45;&gt;Node23</title>
<path fill="none" stroke="midnightblue" d="M1422.2,-606C1430.95,-606 1439.79,-606 1448.43,-606"/>
<polygon fill="midnightblue" stroke="midnightblue" points="1448.45,-609.5 1458.45,-606 1448.45,-602.5 1448.45,-609.5"/>
</g>
<!-- Node26 -->
<g id="node55" class="node"><title>Node26</title>
<a xlink:href="cvm-hfa-common_8h.html#a0da7c57174fb96d75ae9cc2ed3116a05" target="_top" xlink:title="Dump buffer pointed by &quot;buf&quot; in readable format.">
<polygon fill="white" stroke="black" points="780,-460.5 780,-481.5 866,-481.5 866,-460.5 780,-460.5"/>
<text text-anchor="middle" x="823" y="-468.5" font-family="FreeSans" font-size="10.00">hfa_dump_buf</text>
</a>
</g>
<!-- Node25&#45;&gt;Node26 -->
<g id="edge58" class="edge"><title>Node25&#45;&gt;Node26</title>
<path fill="none" stroke="midnightblue" d="M703.576,-433.534C725.997,-440.568 755.691,-449.883 779.86,-457.466"/>
<polygon fill="midnightblue" stroke="midnightblue" points="778.913,-460.837 789.502,-460.491 781.008,-454.158 778.913,-460.837"/>
</g>
<!-- Node27 -->
<g id="node57" class="node"><title>Node27</title>
<a xlink:href="cvm-hfa-pp_8c.html#a02d24f276578f8a39a93968262a08f1d" target="_top" xlink:title="pp">
<polygon fill="white" stroke="black" points="808.5,-420.5 808.5,-441.5 837.5,-441.5 837.5,-420.5 808.5,-420.5"/>
<text text-anchor="middle" x="823" y="-428.5" font-family="FreeSans" font-size="10.00">pp</text>
</a>
</g>
<!-- Node25&#45;&gt;Node27 -->
<g id="edge60" class="edge"><title>Node25&#45;&gt;Node27</title>
<path fill="none" stroke="midnightblue" d="M743.811,-426.859C763.297,-427.878 783.016,-428.909 797.902,-429.688"/>
<polygon fill="midnightblue" stroke="midnightblue" points="798.091,-433.202 808.26,-430.229 798.457,-426.212 798.091,-433.202"/>
</g>
<!-- Node28 -->
<g id="node59" class="node"><title>Node28</title>
<a xlink:href="pp_8h.html#af7a68f9e08d3b54012ad008a4f47e1cd" target="_top" xlink:title="pphfa">
<polygon fill="white" stroke="black" points="910,-500.5 910,-521.5 954,-521.5 954,-500.5 910,-500.5"/>
<text text-anchor="middle" x="932" y="-508.5" font-family="FreeSans" font-size="10.00">pphfa</text>
</a>
</g>
<!-- Node27&#45;&gt;Node28 -->
<g id="edge62" class="edge"><title>Node27&#45;&gt;Node28</title>
<path fill="none" stroke="midnightblue" d="M837.742,-436.141C846.44,-439.579 857.394,-444.637 866,-451 885.232,-465.219 883.909,-475.356 902,-491 903.335,-492.154 904.739,-493.297 906.182,-494.416"/>
<polygon fill="midnightblue" stroke="midnightblue" points="904.48,-497.503 914.643,-500.495 908.564,-491.818 904.48,-497.503"/>
</g>
<!-- Node29 -->
<g id="node61" class="node"><title>Node29</title>
<a xlink:href="cvm-hfa-res_8c.html#ad0de0b790a5786053d59797884dbdd23" target="_top" xlink:title="Rinit">
<polygon fill="white" stroke="black" points="914,-420.5 914,-441.5 950,-441.5 950,-420.5 914,-420.5"/>
<text text-anchor="middle" x="932" y="-428.5" font-family="FreeSans" font-size="10.00">Rinit</text>
</a>
</g>
<!-- Node27&#45;&gt;Node29 -->
<g id="edge64" class="edge"><title>Node27&#45;&gt;Node29</title>
<path fill="none" stroke="midnightblue" d="M837.7,-431C854.602,-431 882.733,-431 903.88,-431"/>
<polygon fill="midnightblue" stroke="midnightblue" points="903.913,-434.5 913.913,-431 903.913,-427.5 903.913,-434.5"/>
</g>
<!-- Node30 -->
<g id="node63" class="node"><title>Node30</title>
<a xlink:href="cvm-hfa-pp_8c.html#adcc1149c628372e2e566c246870929cb" target="_top" xlink:title="infoentry">
<polygon fill="white" stroke="black" points="902.5,-460.5 902.5,-481.5 961.5,-481.5 961.5,-460.5 902.5,-460.5"/>
<text text-anchor="middle" x="932" y="-468.5" font-family="FreeSans" font-size="10.00">infoentry</text>
</a>
</g>
<!-- Node27&#45;&gt;Node30 -->
<g id="edge66" class="edge"><title>Node27&#45;&gt;Node30</title>
<path fill="none" stroke="midnightblue" d="M837.7,-436.395C852.017,-441.648 874.391,-449.859 893.753,-456.964"/>
<polygon fill="midnightblue" stroke="midnightblue" points="892.661,-460.292 903.255,-460.451 895.073,-453.72 892.661,-460.292"/>
</g>
<!-- Node44 -->
<g id="node98" class="node"><title>Node44</title>
<a xlink:href="cvm-hfa-res_8c.html#a6c56aa24fa6551b23e4283ae2d5bcad8" target="_top" xlink:title="Rreport1">
<polygon fill="white" stroke="black" points="903.5,-540.5 903.5,-561.5 960.5,-561.5 960.5,-540.5 903.5,-540.5"/>
<text text-anchor="middle" x="932" y="-548.5" font-family="FreeSans" font-size="10.00">Rreport1</text>
</a>
</g>
<!-- Node27&#45;&gt;Node44 -->
<g id="edge108" class="edge"><title>Node27&#45;&gt;Node44</title>
<path fill="none" stroke="midnightblue" d="M837.707,-434.949C846.83,-438.038 858.248,-443.15 866,-451 893.397,-478.742 876.798,-501.25 902,-531 902.842,-531.994 903.746,-532.959 904.695,-533.892"/>
<polygon fill="midnightblue" stroke="midnightblue" points="902.665,-536.755 912.611,-540.407 907.113,-531.35 902.665,-536.755"/>
</g>
<!-- Node46 -->
<g id="node102" class="node"><title>Node46</title>
<a xlink:href="cvm-hfa-res_8c.html#a38aa04fce135199ec3bb8726da163846" target="_top" xlink:title="Rfinish">
<polygon fill="white" stroke="black" points="908,-380.5 908,-401.5 956,-401.5 956,-380.5 908,-380.5"/>
<text text-anchor="middle" x="932" y="-388.5" font-family="FreeSans" font-size="10.00">Rfinish</text>
</a>
</g>
<!-- Node27&#45;&gt;Node46 -->
<g id="edge112" class="edge"><title>Node27&#45;&gt;Node46</title>
<path fill="none" stroke="midnightblue" d="M837.7,-425.605C853.181,-419.924 878.082,-410.786 898.409,-403.327"/>
<polygon fill="midnightblue" stroke="midnightblue" points="899.777,-406.553 907.959,-399.822 897.366,-399.982 899.777,-406.553"/>
</g>
<!-- Node31 -->
<g id="node65" class="node"><title>Node31</title>
<a xlink:href="hfa-lnx_8c.html#a78ffddbcd7cdd164889cfb53ea367886" target="_top" xlink:title="entry">
<polygon fill="white" stroke="red" points="1004.5,-427.5 1004.5,-448.5 1045.5,-448.5 1045.5,-427.5 1004.5,-427.5"/>
<text text-anchor="middle" x="1025" y="-435.5" font-family="FreeSans" font-size="10.00">entry</text>
</a>
</g>
<!-- Node30&#45;&gt;Node31 -->
<g id="edge68" class="edge"><title>Node30&#45;&gt;Node31</title>
<path fill="none" stroke="midnightblue" d="M961.681,-460.468C972.236,-456.723 984.126,-452.504 994.729,-448.741"/>
<polygon fill="midnightblue" stroke="midnightblue" points="996.161,-451.947 1004.42,-445.304 993.821,-445.35 996.161,-451.947"/>
</g>
<!-- Node43 -->
<g id="node96" class="node"><title>Node43</title>
<a xlink:href="cvm-hfa-pp_8c.html#a85b4c8af06430f26eab8afdeea3a7395" target="_top" xlink:title="hashidx">
<polygon fill="white" stroke="black" points="998,-467.5 998,-488.5 1052,-488.5 1052,-467.5 998,-467.5"/>
<text text-anchor="middle" x="1025" y="-475.5" font-family="FreeSans" font-size="10.00">hashidx</text>
</a>
</g>
<!-- Node30&#45;&gt;Node43 -->
<g id="edge106" class="edge"><title>Node30&#45;&gt;Node43</title>
<path fill="none" stroke="midnightblue" d="M961.681,-473.234C969.92,-473.854 978.973,-474.536 987.592,-475.184"/>
<polygon fill="midnightblue" stroke="midnightblue" points="987.572,-478.693 997.807,-475.953 988.097,-471.712 987.572,-478.693"/>
</g>
<!-- Node31&#45;&gt;Node4 -->
<g id="edge80" class="edge"><title>Node31&#45;&gt;Node4</title>
<path fill="none" stroke="midnightblue" d="M1032.03,-427.275C1042.48,-412.147 1063.54,-384.647 1088,-369 1091.13,-366.996 1094.48,-365.179 1097.94,-363.533"/>
<polygon fill="midnightblue" stroke="midnightblue" points="1099.45,-366.695 1107.29,-359.568 1096.72,-360.251 1099.45,-366.695"/>
</g>
<!-- Node31&#45;&gt;Node16 -->
<g id="edge84" class="edge"><title>Node31&#45;&gt;Node16</title>
<path fill="none" stroke="midnightblue" d="M1043.29,-448.657C1046.62,-451.329 1049.74,-454.46 1052,-458 1094.72,-524.935 1060.89,-558.365 1088,-633 1100.03,-666.117 1120.13,-701.362 1134.39,-724.409"/>
<polygon fill="midnightblue" stroke="midnightblue" points="1131.44,-726.301 1139.72,-732.909 1137.37,-722.578 1131.44,-726.301"/>
</g>
<!-- Node31&#45;&gt;Node24 -->
<g id="edge92" class="edge"><title>Node31&#45;&gt;Node24</title>
<path fill="none" stroke="midnightblue" d="M1042.79,-448.584C1046.23,-451.294 1049.53,-454.459 1052,-458 1084.58,-504.72 1049.93,-538.633 1088,-581 1088.75,-581.836 1089.53,-582.646 1090.34,-583.43"/>
<polygon fill="midnightblue" stroke="midnightblue" points="1088.3,-586.282 1098.29,-589.824 1092.69,-580.828 1088.3,-586.282"/>
</g>
<!-- Node31&#45;&gt;Node25 -->
<g id="edge96" class="edge"><title>Node31&#45;&gt;Node25</title>
<path fill="none" stroke="midnightblue" d="M1018.94,-427.332C1009.26,-411.531 988.673,-382.532 962,-371 871.009,-331.66 751.736,-380.897 698.177,-407.736"/>
<polygon fill="midnightblue" stroke="midnightblue" points="696.264,-404.783 688.962,-412.46 699.458,-411.012 696.264,-404.783"/>
</g>
<!-- Node32 -->
<g id="node67" class="node"><title>Node32</title>
<a xlink:href="hfa-lnx_8c.html#a4c3443f524b4c0d95639694f0b74e850" target="_top" xlink:title="Process command line options, Read graph and payload.">
<polygon fill="white" stroke="red" points="1104,-298.5 1104,-319.5 1198,-319.5 1198,-298.5 1104,-298.5"/>
<text text-anchor="middle" x="1151" y="-306.5" font-family="FreeSans" font-size="10.00">process_options</text>
</a>
</g>
<!-- Node31&#45;&gt;Node32 -->
<g id="edge70" class="edge"><title>Node31&#45;&gt;Node32</title>
<path fill="none" stroke="midnightblue" d="M1028.26,-427.267C1035.42,-405.475 1054.61,-355.839 1088,-329 1090.07,-327.333 1092.29,-325.804 1094.6,-324.401"/>
<polygon fill="midnightblue" stroke="midnightblue" points="1096.64,-327.289 1103.93,-319.595 1093.43,-321.067 1096.64,-327.289"/>
</g>
<!-- Node33 -->
<g id="node70" class="node"><title>Node33</title>
<a xlink:href="cvm-hfa_8c.html#a873768042b716d60996ec5d858fc8fd9" target="_top" xlink:title="This function must be called by application to initialize HFA engine and setup resources for HFA hard...">
<polygon fill="white" stroke="red" points="1114,-510.5 1114,-531.5 1188,-531.5 1188,-510.5 1114,-510.5"/>
<text text-anchor="middle" x="1151" y="-518.5" font-family="FreeSans" font-size="10.00">hfa_dev_init</text>
</a>
</g>
<!-- Node31&#45;&gt;Node33 -->
<g id="edge74" class="edge"><title>Node31&#45;&gt;Node33</title>
<path fill="none" stroke="midnightblue" d="M1040.64,-448.612C1044.5,-451.489 1048.52,-454.72 1052,-458 1070.14,-475.093 1067.3,-487.121 1088,-501 1092.95,-504.316 1098.48,-507.109 1104.15,-509.456"/>
<polygon fill="midnightblue" stroke="midnightblue" points="1103.16,-512.822 1113.75,-512.996 1105.58,-506.253 1103.16,-512.822"/>
</g>
<!-- Node34 -->
<g id="node72" class="node"><title>Node34</title>
<a xlink:href="hfa-lnx_8c.html#a546f3769e735d4bef0bfab1cba56921c" target="_top" xlink:title="Load graph to HFA memory and cache.">
<polygon fill="white" stroke="red" points="1116.5,-470.5 1116.5,-491.5 1185.5,-491.5 1185.5,-470.5 1116.5,-470.5"/>
<text text-anchor="middle" x="1151" y="-478.5" font-family="FreeSans" font-size="10.00">graph_load</text>
</a>
</g>
<!-- Node31&#45;&gt;Node34 -->
<g id="edge76" class="edge"><title>Node31&#45;&gt;Node34</title>
<path fill="none" stroke="midnightblue" d="M1045.63,-445.785C1057.9,-450.349 1073.78,-456.151 1088,-461 1094.13,-463.091 1100.62,-465.232 1107.01,-467.299"/>
<polygon fill="midnightblue" stroke="midnightblue" points="1106.32,-470.753 1116.91,-470.47 1108.45,-464.086 1106.32,-470.753"/>
</g>
<!-- Node35 -->
<g id="node74" class="node"><title>Node35</title>
<a xlink:href="hfa-lnx_8c.html#a924d2733ebc7a856f8c3fd293193ba44" target="_top" xlink:title="Initialize search context.">
<polygon fill="white" stroke="red" points="1113.5,-430.5 1113.5,-451.5 1188.5,-451.5 1188.5,-430.5 1113.5,-430.5"/>
<text text-anchor="middle" x="1151" y="-438.5" font-family="FreeSans" font-size="10.00">initialize_ctx</text>
</a>
</g>
<!-- Node31&#45;&gt;Node35 -->
<g id="edge78" class="edge"><title>Node31&#45;&gt;Node35</title>
<path fill="none" stroke="midnightblue" d="M1045.52,-438.489C1061.14,-438.861 1083.28,-439.388 1103.24,-439.863"/>
<polygon fill="midnightblue" stroke="midnightblue" points="1103.36,-443.367 1113.44,-440.106 1103.52,-436.369 1103.36,-443.367"/>
</g>
<!-- Node36 -->
<g id="node77" class="node"><title>Node36</title>
<a xlink:href="cvm-hfa-search_8h.html#ae9741e867075c9b8cc63a7d889d5bf20" target="_top" xlink:title="This routine is a variant of hfa_searchparam_set_inputiovec() when the previously searched input IO v...">
<polygon fill="white" stroke="black" points="1090.5,-378 1090.5,-412 1211.5,-412 1211.5,-378 1090.5,-378"/>
<text text-anchor="start" x="1098.5" y="-399" font-family="FreeSans" font-size="10.00">hfa_searchparam_set</text>
<text text-anchor="middle" x="1151" y="-386" font-family="FreeSans" font-size="10.00">_inputiovec_0_n</text>
</a>
</g>
<!-- Node31&#45;&gt;Node36 -->
<g id="edge82" class="edge"><title>Node31&#45;&gt;Node36</title>
<path fill="none" stroke="midnightblue" d="M1045.52,-430.996C1058.12,-426.699 1074.94,-420.956 1091.46,-415.321"/>
<polygon fill="midnightblue" stroke="midnightblue" points="1092.77,-418.57 1101.11,-412.028 1090.51,-411.945 1092.77,-418.57"/>
</g>
<!-- Node37 -->
<g id="node80" class="node"><title>Node37</title>
<a xlink:href="cvm-hfa-search_8c.html#a57d7540278164eb6b6c132be00db0de5" target="_top" xlink:title="This routine performs a pattern search using the given parameters in a blocking manner.">
<polygon fill="white" stroke="black" points="1089.5,-550.5 1089.5,-571.5 1212.5,-571.5 1212.5,-550.5 1089.5,-550.5"/>
<text text-anchor="middle" x="1151" y="-558.5" font-family="FreeSans" font-size="10.00">hfa_searchctx_search</text>
</a>
</g>
<!-- Node31&#45;&gt;Node37 -->
<g id="edge86" class="edge"><title>Node31&#45;&gt;Node37</title>
<path fill="none" stroke="midnightblue" d="M1042.18,-448.61C1045.74,-451.355 1049.24,-454.528 1052,-458 1077.01,-489.486 1058.16,-514.052 1088,-541 1089.73,-542.562 1091.58,-544.002 1093.53,-545.33"/>
<polygon fill="midnightblue" stroke="midnightblue" points="1092.12,-548.557 1102.54,-550.461 1095.58,-542.473 1092.12,-548.557"/>
</g>
<!-- Node31&#45;&gt;Node38 -->
<g id="edge94" class="edge"><title>Node31&#45;&gt;Node38</title>
<path fill="none" stroke="midnightblue" d="M1026.64,-427.442C1031.31,-400.697 1047.11,-329.536 1088,-289 1088.95,-288.063 1089.93,-287.158 1090.95,-286.284"/>
<polygon fill="midnightblue" stroke="midnightblue" points="1093.3,-288.9 1099.31,-280.177 1089.17,-283.246 1093.3,-288.9"/>
</g>
<!-- Node31&#45;&gt;Node39 -->
<g id="edge98" class="edge"><title>Node31&#45;&gt;Node39</title>
<path fill="none" stroke="midnightblue" d="M1026.39,-427.145C1030.82,-395.562 1046.87,-301.853 1088,-237 1098.19,-220.934 1113.93,-206.437 1127.13,-195.955"/>
<polygon fill="midnightblue" stroke="midnightblue" points="1129.54,-198.524 1135.36,-189.671 1125.29,-192.962 1129.54,-198.524"/>
</g>
<!-- Node32&#45;&gt;Node2 -->
<g id="edge72" class="edge"><title>Node32&#45;&gt;Node2</title>
<path fill="none" stroke="midnightblue" d="M1198.16,-307.725C1219.7,-307.143 1245.6,-306.443 1269.11,-305.808"/>
<polygon fill="midnightblue" stroke="midnightblue" points="1269.46,-309.3 1279.36,-305.531 1269.27,-302.302 1269.46,-309.3"/>
</g>
<!-- Node37&#45;&gt;Node18 -->
<g id="edge88" class="edge"><title>Node37&#45;&gt;Node18</title>
<path fill="none" stroke="midnightblue" d="M1197.25,-571.54C1203.22,-574.059 1208.99,-577.168 1214,-581 1229.05,-592.501 1291.35,-695.106 1320.65,-744.134"/>
<polygon fill="midnightblue" stroke="midnightblue" points="1317.75,-746.111 1325.88,-752.907 1323.76,-742.525 1317.75,-746.111"/>
</g>
<!-- Node37&#45;&gt;Node22 -->
<g id="edge90" class="edge"><title>Node37&#45;&gt;Node22</title>
<path fill="none" stroke="midnightblue" d="M1194.37,-571.551C1220.72,-577.959 1254.56,-586.19 1282.55,-592.999"/>
<polygon fill="midnightblue" stroke="midnightblue" points="1282.03,-596.475 1292.58,-595.438 1283.69,-589.673 1282.03,-596.475"/>
</g>
<!-- Node40 -->
<g id="node90" class="node"><title>Node40</title>
<a xlink:href="cvm-hfa-search_8c.html#a0ac0bca99358ad294a18f86696acf218" target="_top" xlink:title="This routine returns a match by parsing through the match buffer.">
<polygon fill="white" stroke="black" points="1292,-188.5 1292,-209.5 1380,-209.5 1380,-188.5 1292,-188.5"/>
<text text-anchor="middle" x="1336" y="-196.5" font-family="FreeSans" font-size="10.00">hfa_match_get</text>
</a>
</g>
<!-- Node39&#45;&gt;Node40 -->
<g id="edge100" class="edge"><title>Node39&#45;&gt;Node40</title>
<path fill="none" stroke="midnightblue" d="M1213.12,-185.715C1235.41,-188.125 1260.35,-190.822 1281.91,-193.152"/>
<polygon fill="midnightblue" stroke="midnightblue" points="1281.55,-196.634 1291.87,-194.229 1282.3,-189.675 1281.55,-196.634"/>
</g>
<!-- Node41 -->
<g id="node92" class="node"><title>Node41</title>
<a xlink:href="cvm-hfa-search_8c.html#a543990bc2a5e1726298e5053391e3bf5" target="_top" xlink:title="This routine cleans&#45;up the match&#45;buffers allocated by hfa_searchctx_getmatches().">
<polygon fill="white" stroke="black" points="1274.5,-148.5 1274.5,-169.5 1397.5,-169.5 1397.5,-148.5 1274.5,-148.5"/>
<text text-anchor="middle" x="1336" y="-156.5" font-family="FreeSans" font-size="10.00">hfa_matches_cleanup</text>
</a>
</g>
<!-- Node39&#45;&gt;Node41 -->
<g id="edge102" class="edge"><title>Node39&#45;&gt;Node41</title>
<path fill="none" stroke="midnightblue" d="M1213.12,-172.285C1229.46,-170.518 1247.23,-168.597 1264.04,-166.78"/>
<polygon fill="midnightblue" stroke="midnightblue" points="1264.8,-170.218 1274.36,-165.664 1264.04,-163.259 1264.8,-170.218"/>
</g>
<!-- Node42 -->
<g id="node94" class="node"><title>Node42</title>
<a xlink:href="cvm-hfa-res_8c.html#a78813e2d747c1d659277b705ebdffc50" target="_top" xlink:title="Rfree">
<polygon fill="white" stroke="black" points="1504,-148.5 1504,-169.5 1546,-169.5 1546,-148.5 1504,-148.5"/>
<text text-anchor="middle" x="1525" y="-156.5" font-family="FreeSans" font-size="10.00">Rfree</text>
</a>
</g>
<!-- Node41&#45;&gt;Node42 -->
<g id="edge104" class="edge"><title>Node41&#45;&gt;Node42</title>
<path fill="none" stroke="midnightblue" d="M1397.62,-159C1429.81,-159 1467.82,-159 1493.89,-159"/>
<polygon fill="midnightblue" stroke="midnightblue" points="1493.93,-162.5 1503.93,-159 1493.93,-155.5 1493.93,-162.5"/>
</g>
<!-- Node45 -->
<g id="node100" class="node"><title>Node45</title>
<a xlink:href="cvm-hfa-res_8c.html#a70c9e55ba1fcb934f74ad71ddca9d08f" target="_top" xlink:title="Radd">
<polygon fill="white" stroke="black" points="1004.5,-540.5 1004.5,-561.5 1045.5,-561.5 1045.5,-540.5 1004.5,-540.5"/>
<text text-anchor="middle" x="1025" y="-548.5" font-family="FreeSans" font-size="10.00">Radd</text>
</a>
</g>
<!-- Node44&#45;&gt;Node45 -->
<g id="edge110" class="edge"><title>Node44&#45;&gt;Node45</title>
<path fill="none" stroke="midnightblue" d="M960.662,-551C971.229,-551 983.245,-551 994.009,-551"/>
<polygon fill="midnightblue" stroke="midnightblue" points="994.256,-554.5 1004.26,-551 994.256,-547.5 994.256,-554.5"/>
</g>
<!-- Node47&#45;&gt;Node15 -->
<g id="edge116" class="edge"><title>Node47&#45;&gt;Node15</title>
<path fill="none" stroke="midnightblue" d="M371.491,-868.361C393.716,-855.574 431.604,-833.776 460.319,-817.255"/>
<polygon fill="midnightblue" stroke="midnightblue" points="462.366,-820.115 469.288,-812.094 458.875,-814.048 462.366,-820.115"/>
</g>
<!-- Node47&#45;&gt;Node16 -->
<g id="edge118" class="edge"><title>Node47&#45;&gt;Node16</title>
<path fill="none" stroke="midnightblue" d="M390.1,-875.13C431.587,-870.661 500.739,-862.786 560,-854 748.626,-826.034 969.643,-784.893 1080.31,-763.714"/>
<polygon fill="midnightblue" stroke="midnightblue" points="1081.18,-767.11 1090.34,-761.79 1079.86,-760.235 1081.18,-767.11"/>
</g>
<!-- Node47&#45;&gt;Node18 -->
<g id="edge120" class="edge"><title>Node47&#45;&gt;Node18</title>
<path fill="none" stroke="midnightblue" d="M390.409,-886.222C449.537,-896.989 568.326,-916 670,-916 670,-916 670,-916 1025,-916 1138.85,-916 1255.82,-834.835 1307.96,-793.539"/>
<polygon fill="midnightblue" stroke="midnightblue" points="1310.46,-796.026 1316.06,-787.034 1306.07,-790.57 1310.46,-796.026"/>
</g>
</g>
</svg>
