<?xml version="1.0" encoding="UTF-8" standalone="no"?>
<!DOCTYPE svg PUBLIC "-//W3C//DTD SVG 1.1//EN"
 "http://www.w3.org/Graphics/SVG/1.1/DTD/svg11.dtd">
<!-- Generated by graphviz version 2.24.0 (20090616.2323)
 -->
<!-- Title: ctxdb_cleanup Pages: 1 -->
<svg width="596pt" height="162pt"
 viewBox="0.00 0.00 596.00 162.00" xmlns="http://www.w3.org/2000/svg" xmlns:xlink="http://www.w3.org/1999/xlink">
<g id="graph1" class="graph" transform="scale(1 1) rotate(0) translate(4 158)">
<title>ctxdb_cleanup</title>
<polygon fill="white" stroke="white" points="-4,5 -4,-158 593,-158 593,5 -4,5"/>
<!-- Node1 -->
<g id="node1" class="node"><title>Node1</title>
<polygon fill="#bfbfbf" stroke="black" points="0.5,-72.5 0.5,-93.5 87.5,-93.5 87.5,-72.5 0.5,-72.5"/>
<text text-anchor="middle" x="44" y="-80.5" font-family="FreeSans" font-size="10.00">ctxdb_cleanup</text>
</g>
<!-- Node2 -->
<g id="node3" class="node"><title>Node2</title>
<a xlink:href="cvm-hfa-search_8c.html#a30064f173d814bd3791b59d675c2f45f" target="_top" xlink:title="This routine cleans&#45;up a Search Context.">
<polygon fill="white" stroke="black" points="124,-72.5 124,-93.5 276,-93.5 276,-72.5 124,-72.5"/>
<text text-anchor="middle" x="200" y="-80.5" font-family="FreeSans" font-size="10.00">hfa_dev_searchctx_cleanup</text>
</a>
</g>
<!-- Node1&#45;&gt;Node2 -->
<g id="edge2" class="edge"><title>Node1&#45;&gt;Node2</title>
<path fill="none" stroke="midnightblue" d="M87.8698,-83C96.0545,-83 104.864,-83 113.818,-83"/>
<polygon fill="midnightblue" stroke="midnightblue" points="113.965,-86.5001 123.965,-83 113.964,-79.5001 113.965,-86.5001"/>
</g>
<!-- Node3 -->
<g id="node5" class="node"><title>Node3</title>
<a xlink:href="cvm-hfa-pp_8c.html#add6064138ec2e35741929056a0992d8d" target="_top" xlink:title="ppgetstats">
<polygon fill="white" stroke="black" points="336,-132.5 336,-153.5 402,-153.5 402,-132.5 336,-132.5"/>
<text text-anchor="middle" x="369" y="-140.5" font-family="FreeSans" font-size="10.00">ppgetstats</text>
</a>
</g>
<!-- Node2&#45;&gt;Node3 -->
<g id="edge4" class="edge"><title>Node2&#45;&gt;Node3</title>
<path fill="none" stroke="midnightblue" d="M229.461,-93.5721C252.038,-101.662 283.972,-113.078 312,-123 317.573,-124.973 323.456,-127.047 329.242,-129.082"/>
<polygon fill="midnightblue" stroke="midnightblue" points="328.221,-132.432 338.816,-132.444 330.54,-125.828 328.221,-132.432"/>
</g>
<!-- Node5 -->
<g id="node9" class="node"><title>Node5</title>
<a xlink:href="cvm-hfa-pp_8c.html#a57ec655c9bdb6ce63ada6767c7e14763" target="_top" xlink:title="ppcleanstats">
<polygon fill="white" stroke="black" points="330.5,-92.5 330.5,-113.5 407.5,-113.5 407.5,-92.5 330.5,-92.5"/>
<text text-anchor="middle" x="369" y="-100.5" font-family="FreeSans" font-size="10.00">ppcleanstats</text>
</a>
</g>
<!-- Node2&#45;&gt;Node5 -->
<g id="edge8" class="edge"><title>Node2&#45;&gt;Node5</title>
<path fill="none" stroke="midnightblue" d="M276.095,-92.0054C291.036,-93.7735 306.33,-95.5835 320.085,-97.2113"/>
<polygon fill="midnightblue" stroke="midnightblue" points="319.931,-100.717 330.273,-98.4169 320.753,-93.7658 319.931,-100.717"/>
</g>
<!-- Node7 -->
<g id="node13" class="node"><title>Node7</title>
<a xlink:href="cvm-hfa-pp_8c.html#a41ce9d3103c639e474783d3843e09071" target="_top" xlink:title="ppcleanup">
<polygon fill="white" stroke="black" points="336,-52.5 336,-73.5 402,-73.5 402,-52.5 336,-52.5"/>
<text text-anchor="middle" x="369" y="-60.5" font-family="FreeSans" font-size="10.00">ppcleanup</text>
</a>
</g>
<!-- Node2&#45;&gt;Node7 -->
<g id="edge12" class="edge"><title>Node2&#45;&gt;Node7</title>
<path fill="none" stroke="midnightblue" d="M276.095,-73.9946C293.037,-71.9897 310.434,-69.9309 325.526,-68.1449"/>
<polygon fill="midnightblue" stroke="midnightblue" points="326.052,-71.6071 335.572,-66.956 325.23,-64.6556 326.052,-71.6071"/>
</g>
<!-- Node9 -->
<g id="node17" class="node"><title>Node9</title>
<a xlink:href="cvm-hfa-stats_8c.html#a2df4c76e04e7b028ed2df4bba1b2de3d" target="_top" xlink:title="This routine is the counterpart of hfa_searchctx_init_stats().">
<polygon fill="white" stroke="black" points="312.5,-0 312.5,-34 425.5,-34 425.5,-0 312.5,-0"/>
<text text-anchor="start" x="320.5" y="-21" font-family="FreeSans" font-size="10.00">hfa_searchctx_stats</text>
<text text-anchor="middle" x="369" y="-8" font-family="FreeSans" font-size="10.00">_cleanup</text>
</a>
</g>
<!-- Node2&#45;&gt;Node9 -->
<g id="edge16" class="edge"><title>Node2&#45;&gt;Node9</title>
<path fill="none" stroke="midnightblue" d="M227.153,-72.396C251.064,-63.0579 286.574,-49.1899 316.083,-37.6659"/>
<polygon fill="midnightblue" stroke="midnightblue" points="317.389,-40.9134 325.43,-34.0154 314.842,-34.393 317.389,-40.9134"/>
</g>
<!-- Node4 -->
<g id="node7" class="node"><title>Node4</title>
<a xlink:href="pp_8h.html#a808d5057ee5670ce724a6a88fc22b799" target="_top" xlink:title="pphfa_getstats">
<polygon fill="white" stroke="black" points="481.5,-132.5 481.5,-153.5 568.5,-153.5 568.5,-132.5 481.5,-132.5"/>
<text text-anchor="middle" x="525" y="-140.5" font-family="FreeSans" font-size="10.00">pphfa_getstats</text>
</a>
</g>
<!-- Node3&#45;&gt;Node4 -->
<g id="edge6" class="edge"><title>Node3&#45;&gt;Node4</title>
<path fill="none" stroke="midnightblue" d="M402.084,-143C422.094,-143 448.087,-143 471.014,-143"/>
<polygon fill="midnightblue" stroke="midnightblue" points="471.299,-146.5 481.299,-143 471.299,-139.5 471.299,-146.5"/>
</g>
<!-- Node6 -->
<g id="node11" class="node"><title>Node6</title>
<a xlink:href="pp_8h.html#a978b171bd7a736cb7fa0d5d034aa94e2" target="_top" xlink:title="pphfa_cleanstats">
<polygon fill="white" stroke="black" points="476,-92.5 476,-113.5 574,-113.5 574,-92.5 476,-92.5"/>
<text text-anchor="middle" x="525" y="-100.5" font-family="FreeSans" font-size="10.00">pphfa_cleanstats</text>
</a>
</g>
<!-- Node5&#45;&gt;Node6 -->
<g id="edge10" class="edge"><title>Node5&#45;&gt;Node6</title>
<path fill="none" stroke="midnightblue" d="M407.562,-103C425.157,-103 446.385,-103 465.926,-103"/>
<polygon fill="midnightblue" stroke="midnightblue" points="465.963,-106.5 475.963,-103 465.963,-99.5001 465.963,-106.5"/>
</g>
<!-- Node8 -->
<g id="node15" class="node"><title>Node8</title>
<a xlink:href="pp_8h.html#a428ad073d1fd72da37ab8b00f13693a3" target="_top" xlink:title="pphfa_cleanup">
<polygon fill="white" stroke="black" points="481.5,-52.5 481.5,-73.5 568.5,-73.5 568.5,-52.5 481.5,-52.5"/>
<text text-anchor="middle" x="525" y="-60.5" font-family="FreeSans" font-size="10.00">pphfa_cleanup</text>
</a>
</g>
<!-- Node7&#45;&gt;Node8 -->
<g id="edge14" class="edge"><title>Node7&#45;&gt;Node8</title>
<path fill="none" stroke="midnightblue" d="M402.084,-63C422.094,-63 448.087,-63 471.014,-63"/>
<polygon fill="midnightblue" stroke="midnightblue" points="471.299,-66.5001 481.299,-63 471.299,-59.5001 471.299,-66.5001"/>
</g>
<!-- Node10 -->
<g id="node19" class="node"><title>Node10</title>
<a xlink:href="cvm-hfa-stats_8c.html#a7a2acbe48c3850d43256938ee996aa16" target="_top" xlink:title="This routine frees memory to STATS ARENA.">
<polygon fill="white" stroke="black" points="462.5,-6.5 462.5,-27.5 587.5,-27.5 587.5,-6.5 462.5,-6.5"/>
<text text-anchor="middle" x="525" y="-14.5" font-family="FreeSans" font-size="10.00">hfa_stats_memoryfree</text>
</a>
</g>
<!-- Node9&#45;&gt;Node10 -->
<g id="edge18" class="edge"><title>Node9&#45;&gt;Node10</title>
<path fill="none" stroke="midnightblue" d="M425.761,-17C434.432,-17 443.483,-17 452.438,-17"/>
<polygon fill="midnightblue" stroke="midnightblue" points="452.482,-20.5001 462.482,-17 452.482,-13.5001 452.482,-20.5001"/>
</g>
</g>
</svg>
