<?xml version="1.0" encoding="UTF-8" standalone="no"?>
<!DOCTYPE svg PUBLIC "-//W3C//DTD SVG 1.1//EN"
 "http://www.w3.org/Graphics/SVG/1.1/DTD/svg11.dtd">
<!-- Generated by graphviz version 2.24.0 (20090616.2323)
 -->
<!-- Title: main Pages: 1 -->
<!--zoomable 1599 -->
<svg id="main" version="1.1" xmlns="http://www.w3.org/2000/svg" xmlns:xlink="http://www.w3.org/1999/xlink" xml:space="preserve" onload="init(evt)">
        <defs>
                <circle id="rim" cx="0" cy="0" r="7"/>
                <circle id="rim2" cx="0" cy="0" r="3.5"/>
                <g id="zoomPlus">
                        <use xlink:href="#rim" fill="#404040">
                                <set attributeName="fill" to="#808080" begin="zoomplus.mouseover" end="zoomplus.mouseout"/>
                        </use>
                        <path d="M-4,0h8M0,-4v8" fill="none" stroke="white" stroke-width="1.5" pointer-events="none"/>
                </g>
                <g id="zoomMin">
                        <use xlink:href="#rim" fill="#404040">
                                <set attributeName="fill" to="#808080" begin="zoomminus.mouseover" end="zoomminus.mouseout"/>
                        </use>
                        <path d="M-4,0h8" fill="none" stroke="white" stroke-width="1.5" pointer-events="none"/>
                </g>
                <g id="dirArrow">
                        <path fill="none" stroke="white" stroke-width="1.5" d="M0,-3.0v7 M-2.5,-0.5L0,-3.0L2.5,-0.5"/>
                </g>
               <g id="resetDef">
                       <use xlink:href="#rim2" fill="#404040">
                               <set attributeName="fill" to="#808080" begin="reset.mouseover" end="reset.mouseout"/>
                       </use>
               </g>
        </defs>

<script type="text/javascript">
var viewWidth = 636;
var viewHeight = 1599;
var sectionId = 'dynsection-6';
</script>
<script xlink:href="svgpan.js"/>
<svg id="graph" class="graph">
<g id="viewport">
<title>main</title>
<polygon fill="white" stroke="white" points="-4,5 -4,-1595 633,-1595 633,5 -4,5"/>
<!-- Node1 -->
<g id="node1" class="node"><title>Node1</title>
<polygon fill="#bfbfbf" stroke="black" points="0,-420.5 0,-441.5 40,-441.5 40,-420.5 0,-420.5"/>
<text text-anchor="middle" x="20" y="-428.5" font-family="FreeSans" font-size="10.00">main</text>
</g>
<!-- Node2 -->
<g id="node3" class="node"><title>Node2</title>
<a xlink:href="app-utils_8c.html#a4ef3fc7ca0729733044bc1430922cb2f" target="_top" xlink:title="Register signal handler for SIGINT(CTRL&#45;C).">
<polygon fill="white" stroke="black" points="76.5,-1549.5 76.5,-1570.5 237.5,-1570.5 237.5,-1549.5 76.5,-1549.5"/>
<text text-anchor="middle" x="157" y="-1557.5" font-family="FreeSans" font-size="10.00">hfautils_register_signalhandler</text>
</a>
</g>
<!-- Node1&#45;&gt;Node2 -->
<g id="edge2" class="edge"><title>Node1&#45;&gt;Node2</title>
<path fill="none" stroke="midnightblue" d="M20.3003,-441.741C23.3753,-550.57 49.5688,-1450.78 76,-1500 86.5049,-1519.56 106.495,-1534.47 123.987,-1544.54"/>
<polygon fill="midnightblue" stroke="midnightblue" points="122.386,-1547.65 132.843,-1549.36 125.732,-1541.5 122.386,-1547.65"/>
</g>
<!-- Node4 -->
<g id="node7" class="node"><title>Node4</title>
<a xlink:href="hfa-se-ngraphs_8c.html#ab42726e951c529a41b8e09fd6e84ada2" target="_top" xlink:title="Process command line options, read graph.">
<polygon fill="white" stroke="black" points="110,-1469.5 110,-1490.5 204,-1490.5 204,-1469.5 110,-1469.5"/>
<text text-anchor="middle" x="157" y="-1477.5" font-family="FreeSans" font-size="10.00">process_options</text>
</a>
</g>
<!-- Node1&#45;&gt;Node4 -->
<g id="edge6" class="edge"><title>Node1&#45;&gt;Node4</title>
<path fill="none" stroke="midnightblue" d="M20.469,-441.756C23.271,-503.837 38.9471,-822.54 76,-1080 97.0975,-1226.59 137.745,-1400.48 151.951,-1459.35"/>
<polygon fill="midnightblue" stroke="midnightblue" points="148.596,-1460.37 154.356,-1469.26 155.399,-1458.72 148.596,-1460.37"/>
</g>
<!-- Node8 -->
<g id="node15" class="node"><title>Node8</title>
<a xlink:href="cvm-hfa_8c.html#a873768042b716d60996ec5d858fc8fd9" target="_top" xlink:title="This function must be called by application to initialize HFA engine and setup resources for HFA hard...">
<polygon fill="white" stroke="black" points="120,-1049.5 120,-1070.5 194,-1070.5 194,-1049.5 120,-1049.5"/>
<text text-anchor="middle" x="157" y="-1057.5" font-family="FreeSans" font-size="10.00">hfa_dev_init</text>
</a>
</g>
<!-- Node1&#45;&gt;Node8 -->
<g id="edge14" class="edge"><title>Node1&#45;&gt;Node8</title>
<path fill="none" stroke="midnightblue" d="M21.9482,-441.602C28.862,-479.06 53.0377,-608.649 76,-715 102.669,-838.519 138.684,-985.913 151.882,-1039.36"/>
<polygon fill="midnightblue" stroke="midnightblue" points="148.541,-1040.43 154.34,-1049.3 155.336,-1038.75 148.541,-1040.43"/>
</g>
<!-- Node27 -->
<g id="node53" class="node"><title>Node27</title>
<a xlink:href="hfa-se-ngraphs_8c.html#a546f3769e735d4bef0bfab1cba56921c" target="_top" xlink:title="Load ngraphs into HFA memory and cache.">
<polygon fill="white" stroke="black" points="122.5,-592.5 122.5,-613.5 191.5,-613.5 191.5,-592.5 122.5,-592.5"/>
<text text-anchor="middle" x="157" y="-600.5" font-family="FreeSans" font-size="10.00">graph_load</text>
</a>
</g>
<!-- Node1&#45;&gt;Node27 -->
<g id="edge52" class="edge"><title>Node1&#45;&gt;Node27</title>
<path fill="none" stroke="midnightblue" d="M20.6335,-441.709C22.8745,-469.486 32.8274,-544.369 76,-583 86.064,-592.005 99.5412,-597.104 112.611,-599.947"/>
<polygon fill="midnightblue" stroke="midnightblue" points="112.002,-603.394 122.462,-601.709 113.235,-596.503 112.002,-603.394"/>
</g>
<!-- Node29 -->
<g id="node57" class="node"><title>Node29</title>
<a xlink:href="hfa-se-ngraphs_8c.html#a5c6551bf9ea9cf51ae7f2076c4cbe8ef" target="_top" xlink:title="Application cleanup will be done by this routine.">
<polygon fill="white" stroke="red" points="330,-651.5 330,-672.5 384,-672.5 384,-651.5 330,-651.5"/>
<text text-anchor="middle" x="357" y="-659.5" font-family="FreeSans" font-size="10.00">cleanup</text>
</a>
</g>
<!-- Node1&#45;&gt;Node29 -->
<g id="edge106" class="edge"><title>Node1&#45;&gt;Node29</title>
<path fill="none" stroke="midnightblue" d="M21.5958,-441.802C27.2645,-478.652 47.6215,-598.486 76,-623 144.916,-682.53 260.867,-676.412 319.96,-668.422"/>
<polygon fill="midnightblue" stroke="midnightblue" points="320.57,-671.87 329.967,-666.976 319.569,-664.942 320.57,-671.87"/>
</g>
<!-- Node30 -->
<g id="node59" class="node"><title>Node30</title>
<a xlink:href="cvm-hfa-search_8c.html#a30064f173d814bd3791b59d675c2f45f" target="_top" xlink:title="This routine cleans&#45;up a Search Context.">
<polygon fill="white" stroke="red" points="476,-670.5 476,-691.5 628,-691.5 628,-670.5 476,-670.5"/>
<text text-anchor="middle" x="552" y="-678.5" font-family="FreeSans" font-size="10.00">hfa_dev_searchctx_cleanup</text>
</a>
</g>
<!-- Node1&#45;&gt;Node30 -->
<g id="edge102" class="edge"><title>Node1&#45;&gt;Node30</title>
<path fill="none" stroke="midnightblue" d="M20.9806,-441.65C25.0178,-483.013 41.7786,-632.178 76,-662 132.098,-710.886 344.508,-700.436 465.772,-689.911"/>
<polygon fill="midnightblue" stroke="midnightblue" points="466.125,-693.393 475.777,-689.024 465.507,-686.421 466.125,-693.393"/>
</g>
<!-- Node36 -->
<g id="node73" class="node"><title>Node36</title>
<a xlink:href="hfa-se-wqe_8c.html#af83136a23f35cac6269b0e552fc58de6" target="_top" xlink:title="Initializes the search context object of each context.">
<polygon fill="white" stroke="red" points="119,-552.5 119,-573.5 195,-573.5 195,-552.5 119,-552.5"/>
<text text-anchor="middle" x="157" y="-560.5" font-family="FreeSans" font-size="10.00">Initialize_Ctx</text>
</a>
</g>
<!-- Node1&#45;&gt;Node36 -->
<g id="edge74" class="edge"><title>Node1&#45;&gt;Node36</title>
<path fill="none" stroke="midnightblue" d="M22.1445,-441.502C27.2685,-463.819 42.3845,-516.115 76,-543 85.4561,-550.563 97.3734,-555.319 109.136,-558.295"/>
<polygon fill="midnightblue" stroke="midnightblue" points="108.411,-561.719 118.923,-560.399 109.882,-554.876 108.411,-561.719"/>
</g>
<!-- Node39 -->
<g id="node79" class="node"><title>Node39</title>
<a xlink:href="app-utils_8c.html#a1944a739d03e86dcaee1a7d245cfeba0" target="_top" xlink:title="Initialize the attributes needed for parsing the payload file.">
<polygon fill="white" stroke="red" points="100.5,-500 100.5,-534 213.5,-534 213.5,-500 100.5,-500"/>
<text text-anchor="start" x="108.5" y="-521" font-family="FreeSans" font-size="10.00">hfautils_init_payload</text>
<text text-anchor="middle" x="157" y="-508" font-family="FreeSans" font-size="10.00">_attributes</text>
</a>
</g>
<!-- Node1&#45;&gt;Node39 -->
<g id="edge80" class="edge"><title>Node1&#45;&gt;Node39</title>
<path fill="none" stroke="midnightblue" d="M27.4464,-441.901C37.1389,-455.301 55.3039,-477.873 76,-491 80.677,-493.966 85.7219,-496.622 90.9265,-498.993"/>
<polygon fill="midnightblue" stroke="midnightblue" points="89.846,-502.335 100.422,-502.962 92.5453,-495.876 89.846,-502.335"/>
</g>
<!-- Node40 -->
<g id="node81" class="node"><title>Node40</title>
<a xlink:href="app-utils_8c.html#a4b47f3c9c5a0b3eaee64e264171628a3" target="_top" xlink:title="This routine reads data of chunksize/a packet from given payload(Normal/PCAP) file and returns data b...">
<polygon fill="white" stroke="red" points="94,-460.5 94,-481.5 220,-481.5 220,-460.5 94,-460.5"/>
<text text-anchor="middle" x="157" y="-468.5" font-family="FreeSans" font-size="10.00">hfautils_parse_payload</text>
</a>
</g>
<!-- Node1&#45;&gt;Node40 -->
<g id="edge82" class="edge"><title>Node1&#45;&gt;Node40</title>
<path fill="none" stroke="midnightblue" d="M40.0547,-438.717C50.6567,-442.655 63.9403,-447.368 76,-451 84.0746,-453.432 92.6658,-455.792 101.121,-457.987"/>
<polygon fill="midnightblue" stroke="midnightblue" points="100.391,-461.413 110.945,-460.483 102.115,-454.629 100.391,-461.413"/>
</g>
<!-- Node41 -->
<g id="node83" class="node"><title>Node41</title>
<a xlink:href="hfa-se-wqe-lock_8c.html#af7c0c8f95babfb34f0364c1a1d8ca226" target="_top" xlink:title="Classify the given number of ctx among cores based on nctx_per_core.">
<polygon fill="white" stroke="black" points="130.5,-420.5 130.5,-441.5 183.5,-441.5 183.5,-420.5 130.5,-420.5"/>
<text text-anchor="middle" x="157" y="-428.5" font-family="FreeSans" font-size="10.00">classify</text>
</a>
</g>
<!-- Node1&#45;&gt;Node41 -->
<g id="edge84" class="edge"><title>Node1&#45;&gt;Node41</title>
<path fill="none" stroke="midnightblue" d="M40.2148,-431C61.1486,-431 94.3236,-431 119.974,-431"/>
<polygon fill="midnightblue" stroke="midnightblue" points="120.097,-434.5 130.097,-431 120.097,-427.5 120.097,-434.5"/>
</g>
<!-- Node42 -->
<g id="node85" class="node"><title>Node42</title>
<a xlink:href="cvm-hfa-search_8h.html#a3c407460808f038770473ffc6e4b5c38" target="_top" xlink:title="This routine adds a new input IO vector to Search Param.">
<polygon fill="white" stroke="black" points="96.5,-368 96.5,-402 217.5,-402 217.5,-368 96.5,-368"/>
<text text-anchor="start" x="104.5" y="-389" font-family="FreeSans" font-size="10.00">hfa_searchparam_set</text>
<text text-anchor="middle" x="157" y="-376" font-family="FreeSans" font-size="10.00">_inputiovec</text>
</a>
</g>
<!-- Node1&#45;&gt;Node42 -->
<g id="edge86" class="edge"><title>Node1&#45;&gt;Node42</title>
<path fill="none" stroke="midnightblue" d="M40.1628,-423.621C50.7944,-419.775 64.0718,-415.043 76,-411 81.5556,-409.117 87.3372,-407.192 93.1408,-405.284"/>
<polygon fill="midnightblue" stroke="midnightblue" points="94.4735,-408.531 102.893,-402.099 92.3002,-401.877 94.4735,-408.531"/>
</g>
<!-- Node43 -->
<g id="node87" class="node"><title>Node43</title>
<a xlink:href="cvm-hfa-search_8h.html#a12882fa53f8ec49b9b2950711161db42" target="_top" xlink:title="This routine sets the output buffer in the sparam.">
<polygon fill="white" stroke="black" points="96.5,-316 96.5,-350 217.5,-350 217.5,-316 96.5,-316"/>
<text text-anchor="start" x="104.5" y="-337" font-family="FreeSans" font-size="10.00">hfa_searchparam_set</text>
<text text-anchor="middle" x="157" y="-324" font-family="FreeSans" font-size="10.00">_output</text>
</a>
</g>
<!-- Node1&#45;&gt;Node43 -->
<g id="edge88" class="edge"><title>Node1&#45;&gt;Node43</title>
<path fill="none" stroke="midnightblue" d="M25.5546,-420.311C34.242,-404.616 52.5095,-375.424 76,-359 79.4724,-356.572 83.1836,-354.362 87.0367,-352.351"/>
<polygon fill="midnightblue" stroke="midnightblue" points="88.6865,-355.443 96.2388,-348.012 85.7011,-349.111 88.6865,-355.443"/>
</g>
<!-- Node44 -->
<g id="node89" class="node"><title>Node44</title>
<a xlink:href="cvm-hfa-search_8c.html#a57d7540278164eb6b6c132be00db0de5" target="_top" xlink:title="This routine performs a pattern search using the given parameters in a blocking manner.">
<polygon fill="white" stroke="red" points="95.5,-276.5 95.5,-297.5 218.5,-297.5 218.5,-276.5 95.5,-276.5"/>
<text text-anchor="middle" x="157" y="-284.5" font-family="FreeSans" font-size="10.00">hfa_searchctx_search</text>
</a>
</g>
<!-- Node1&#45;&gt;Node44 -->
<g id="edge90" class="edge"><title>Node1&#45;&gt;Node44</title>
<path fill="none" stroke="midnightblue" d="M21.5914,-420.496C25.7999,-396.496 39.5135,-337.381 76,-307 79.1046,-304.415 82.4941,-302.156 86.0697,-300.182"/>
<polygon fill="midnightblue" stroke="midnightblue" points="87.7293,-303.269 95.2844,-295.842 84.7463,-296.937 87.7293,-303.269"/>
</g>
<!-- Node45 -->
<g id="node91" class="node"><title>Node45</title>
<a xlink:href="cvm-hfa-search_8h.html#ab50a2d84e35b5a4a03a23fc90e4dffa0" target="_top" xlink:title="This routine retrieves the reason code after a search operation has been completed by the HFA engine...">
<polygon fill="white" stroke="black" points="96,-224 96,-258 218,-258 218,-224 96,-224"/>
<text text-anchor="start" x="104" y="-245" font-family="FreeSans" font-size="10.00">hfa_searchparam_get</text>
<text text-anchor="middle" x="157" y="-232" font-family="FreeSans" font-size="10.00">_hwsearch_reason</text>
</a>
</g>
<!-- Node1&#45;&gt;Node45 -->
<g id="edge92" class="edge"><title>Node1&#45;&gt;Node45</title>
<path fill="none" stroke="midnightblue" d="M20.4581,-420.489C22.2849,-391.706 31.3432,-310.84 76,-267 79.2902,-263.77 82.9826,-260.941 86.93,-258.463"/>
<polygon fill="midnightblue" stroke="midnightblue" points="88.8038,-261.429 95.9221,-253.581 85.4638,-255.277 88.8038,-261.429"/>
</g>
<!-- Node46 -->
<g id="node93" class="node"><title>Node46</title>
<a xlink:href="cvm-hfa-common_8h.html#ad117ba199386b8d427cbb04f288b5905" target="_top" xlink:title="Dump HFA related registers.">
<polygon fill="white" stroke="black" points="111.5,-184.5 111.5,-205.5 202.5,-205.5 202.5,-184.5 111.5,-184.5"/>
<text text-anchor="middle" x="157" y="-192.5" font-family="FreeSans" font-size="10.00">hfa_dump_regs</text>
</a>
</g>
<!-- Node1&#45;&gt;Node46 -->
<g id="edge94" class="edge"><title>Node1&#45;&gt;Node46</title>
<path fill="none" stroke="midnightblue" d="M21.3152,-420.369C26.3862,-381.07 45.8999,-244.753 76,-215 82.9576,-208.123 91.8819,-203.482 101.251,-200.377"/>
<polygon fill="midnightblue" stroke="midnightblue" points="102.396,-203.692 111.112,-197.667 100.542,-196.942 102.396,-203.692"/>
</g>
<!-- Node47 -->
<g id="node95" class="node"><title>Node47</title>
<a xlink:href="cvm-hfa-search_8h.html#ad18e328b50b109e1e44821f3d006bd9d" target="_top" xlink:title="This routine returns the data&#45;buffer offset.">
<polygon fill="white" stroke="black" points="96,-132 96,-166 218,-166 218,-132 96,-132"/>
<text text-anchor="start" x="104" y="-153" font-family="FreeSans" font-size="10.00">hfa_searchparam_get</text>
<text text-anchor="middle" x="157" y="-140" font-family="FreeSans" font-size="10.00">_hwsearch_pdboff</text>
</a>
</g>
<!-- Node1&#45;&gt;Node47 -->
<g id="edge96" class="edge"><title>Node1&#45;&gt;Node47</title>
<path fill="none" stroke="midnightblue" d="M20.9304,-420.336C24.9417,-376.699 42.108,-212.284 76,-175 79.1588,-171.525 82.7826,-168.512 86.707,-165.9"/>
<polygon fill="midnightblue" stroke="midnightblue" points="88.7381,-168.772 95.7149,-160.799 85.2886,-162.681 88.7381,-168.772"/>
</g>
<!-- Node48 -->
<g id="node97" class="node"><title>Node48</title>
<a xlink:href="cvm-hfa-search_8c.html#a6dbb15dc58155b2c94b19784ad42ef89" target="_top" xlink:title="This routine post&#45;processes the search results from the HFA engine and reports the pattern matches fo...">
<polygon fill="white" stroke="red" points="83.5,-92.5 83.5,-113.5 230.5,-113.5 230.5,-92.5 83.5,-92.5"/>
<text text-anchor="middle" x="157" y="-100.5" font-family="FreeSans" font-size="10.00">hfa_searchctx_getmatches</text>
</a>
</g>
<!-- Node1&#45;&gt;Node48 -->
<g id="edge98" class="edge"><title>Node1&#45;&gt;Node48</title>
<path fill="none" stroke="midnightblue" d="M20.4374,-420.177C22.6527,-370.808 34.2245,-167.459 76,-123 77.2274,-121.694 78.5255,-120.467 79.8845,-119.315"/>
<polygon fill="midnightblue" stroke="midnightblue" points="82.0415,-122.079 88.2662,-113.505 78.0537,-116.326 82.0415,-122.079"/>
</g>
<!-- Node49 -->
<g id="node99" class="node"><title>Node49</title>
<a xlink:href="app-utils_8c.html#a633038357891aa5147b77fe939f300bf" target="_top" xlink:title="Print pattern matches via match buffer and cleanup all matches.">
<polygon fill="white" stroke="red" points="95,-52.5 95,-73.5 219,-73.5 219,-52.5 95,-52.5"/>
<text text-anchor="middle" x="157" y="-60.5" font-family="FreeSans" font-size="10.00">hfautils_print_matches</text>
</a>
</g>
<!-- Node1&#45;&gt;Node49 -->
<g id="edge100" class="edge"><title>Node1&#45;&gt;Node49</title>
<path fill="none" stroke="midnightblue" d="M20.1895,-420.233C21.3442,-367.168 29.059,-133.984 76,-83 78.9249,-79.8232 82.2671,-77.115 85.8897,-74.8094"/>
<polygon fill="midnightblue" stroke="midnightblue" points="87.5661,-77.8824 94.787,-70.1294 84.3073,-71.6872 87.5661,-77.8824"/>
</g>
<!-- Node50 -->
<g id="node102" class="node"><title>Node50</title>
<a xlink:href="app-utils_8c.html#a1f92c93fe820ec9fc9f4d8e993883b05" target="_top" xlink:title="This routine is counter part of hfautils_init_payload_attributes().">
<polygon fill="white" stroke="black" points="88,-0 88,-34 226,-34 226,-0 88,-0"/>
<text text-anchor="start" x="96" y="-21" font-family="FreeSans" font-size="10.00">hfautils_cleanup_payload</text>
<text text-anchor="middle" x="157" y="-8" font-family="FreeSans" font-size="10.00">_attributes</text>
</a>
</g>
<!-- Node1&#45;&gt;Node50 -->
<g id="edge104" class="edge"><title>Node1&#45;&gt;Node50</title>
<path fill="none" stroke="midnightblue" d="M20.8656,-420.347C25.7747,-361.004 50.7912,-72.8217 76,-43 77.1799,-41.6042 78.435,-40.2826 79.7553,-39.0312"/>
<polygon fill="midnightblue" stroke="midnightblue" points="82.2449,-41.5271 87.9597,-32.6057 77.9288,-36.0161 82.2449,-41.5271"/>
</g>
<!-- Node3 -->
<g id="node5" class="node"><title>Node3</title>
<a xlink:href="app-utils_8c.html#a0f2df8f03baa5b4006040e8a18069557" target="_top" xlink:title="Signal handler to ignore CTRL&#45;C.">
<polygon fill="white" stroke="black" points="305.5,-1569.5 305.5,-1590.5 408.5,-1590.5 408.5,-1569.5 305.5,-1569.5"/>
<text text-anchor="middle" x="357" y="-1577.5" font-family="FreeSans" font-size="10.00">hfa_sigint_handler</text>
</a>
</g>
<!-- Node2&#45;&gt;Node3 -->
<g id="edge4" class="edge"><title>Node2&#45;&gt;Node3</title>
<path fill="none" stroke="midnightblue" d="M237.771,-1568.08C256.892,-1569.99 276.987,-1572 295.116,-1573.81"/>
<polygon fill="midnightblue" stroke="midnightblue" points="294.955,-1577.31 305.253,-1574.83 295.651,-1570.35 294.955,-1577.31"/>
</g>
<!-- Node5 -->
<g id="node9" class="node"><title>Node5</title>
<a xlink:href="app-utils_8c.html#a312f3a19b49c759fe09b5bee727b879b" target="_top" xlink:title="Initialize command line arguments.">
<polygon fill="white" stroke="black" points="302.5,-1529.5 302.5,-1550.5 411.5,-1550.5 411.5,-1529.5 302.5,-1529.5"/>
<text text-anchor="middle" x="357" y="-1537.5" font-family="FreeSans" font-size="10.00">hfautils_options_init</text>
</a>
</g>
<!-- Node4&#45;&gt;Node5 -->
<g id="edge8" class="edge"><title>Node4&#45;&gt;Node5</title>
<path fill="none" stroke="midnightblue" d="M185.612,-1490.61C209.154,-1499.15 243.492,-1511.13 274,-1520 282.376,-1522.44 291.288,-1524.81 300.046,-1527.02"/>
<polygon fill="midnightblue" stroke="midnightblue" points="299.284,-1530.43 309.832,-1529.44 300.965,-1523.64 299.284,-1530.43"/>
</g>
<!-- Node6 -->
<g id="node11" class="node"><title>Node6</title>
<a xlink:href="app-utils_8c.html#ae04c31b3e2ff1468333729059052375c" target="_top" xlink:title="Parse command line arguments.">
<polygon fill="white" stroke="red" points="287,-1489.5 287,-1510.5 427,-1510.5 427,-1489.5 287,-1489.5"/>
<text text-anchor="middle" x="357" y="-1497.5" font-family="FreeSans" font-size="10.00">hfautils_parse_arguments</text>
</a>
</g>
<!-- Node4&#45;&gt;Node6 -->
<g id="edge10" class="edge"><title>Node4&#45;&gt;Node6</title>
<path fill="none" stroke="midnightblue" d="M204.144,-1484.71C225.764,-1486.88 252.009,-1489.5 276.607,-1491.96"/>
<polygon fill="midnightblue" stroke="midnightblue" points="276.365,-1495.45 286.664,-1492.97 277.062,-1488.49 276.365,-1495.45"/>
</g>
<!-- Node7 -->
<g id="node13" class="node"><title>Node7</title>
<a xlink:href="hfa-se-ngraphs_8c.html#aec36c5b3621964d19698bd5331990827" target="_top" xlink:title="Allocate memory to store graph pointers and graph size and read graphs.">
<polygon fill="white" stroke="red" points="316,-1449.5 316,-1470.5 398,-1470.5 398,-1449.5 316,-1449.5"/>
<text text-anchor="middle" x="357" y="-1457.5" font-family="FreeSans" font-size="10.00">ngraphs_read</text>
</a>
</g>
<!-- Node4&#45;&gt;Node7 -->
<g id="edge12" class="edge"><title>Node4&#45;&gt;Node7</title>
<path fill="none" stroke="midnightblue" d="M204.144,-1475.29C234.648,-1472.24 274.361,-1468.26 305.663,-1465.13"/>
<polygon fill="midnightblue" stroke="midnightblue" points="306.328,-1468.58 315.93,-1464.11 305.631,-1461.62 306.328,-1468.58"/>
</g>
<!-- Node9 -->
<g id="node17" class="node"><title>Node9</title>
<a xlink:href="cvm-hfa-stats_8c.html#a2fcf955b47370bfa46705ee5a23a70cf" target="_top" xlink:title="This routine allocates memory for counters to maintain statistics of each processing core...">
<polygon fill="white" stroke="red" points="306,-1169.5 306,-1190.5 408,-1190.5 408,-1169.5 306,-1169.5"/>
<text text-anchor="middle" x="357" y="-1177.5" font-family="FreeSans" font-size="10.00">hfa_dev_stats_init</text>
</a>
</g>
<!-- Node8&#45;&gt;Node9 -->
<g id="edge16" class="edge"><title>Node8&#45;&gt;Node9</title>
<path fill="none" stroke="midnightblue" d="M166.139,-1070.61C184.444,-1091.16 227.826,-1136.44 274,-1160 280.869,-1163.51 288.375,-1166.41 295.975,-1168.82"/>
<polygon fill="midnightblue" stroke="midnightblue" points="295.032,-1172.19 305.61,-1171.61 296.977,-1165.46 295.032,-1172.19"/>
</g>
<!-- Node10 -->
<g id="node19" class="node"><title>Node10</title>
<a xlink:href="cvm-hfa_8c.html#a27982497398da2118cd5287ed51732e7" target="_top" xlink:title="Provides device&#45;specific information This is a utility routine used to obtain HFA device&#45;specific det...">
<polygon fill="white" stroke="black" points="301.5,-1129.5 301.5,-1150.5 412.5,-1150.5 412.5,-1129.5 301.5,-1129.5"/>
<text text-anchor="middle" x="357" y="-1137.5" font-family="FreeSans" font-size="10.00">hfa_dev_getdevinfo</text>
</a>
</g>
<!-- Node8&#45;&gt;Node10 -->
<g id="edge18" class="edge"><title>Node8&#45;&gt;Node10</title>
<path fill="none" stroke="midnightblue" d="M174.245,-1070.5C196.558,-1083.69 236.973,-1106.27 274,-1120 280.784,-1122.52 287.998,-1124.8 295.232,-1126.85"/>
<polygon fill="midnightblue" stroke="midnightblue" points="294.504,-1130.28 305.07,-1129.5 296.323,-1123.52 294.504,-1130.28"/>
</g>
<!-- Node11 -->
<g id="node21" class="node"><title>Node11</title>
<a xlink:href="pp_8h.html#a6f5982b2671e9682262a26b0d2996396" target="_top" xlink:title="Constructs a readable version string for the PP library.">
<polygon fill="white" stroke="black" points="297,-1089.5 297,-1110.5 417,-1110.5 417,-1089.5 297,-1089.5"/>
<text text-anchor="middle" x="357" y="-1097.5" font-family="FreeSans" font-size="10.00">pp_get_version_string</text>
</a>
</g>
<!-- Node8&#45;&gt;Node11 -->
<g id="edge20" class="edge"><title>Node8&#45;&gt;Node11</title>
<path fill="none" stroke="midnightblue" d="M194.15,-1067.43C222.201,-1073.04 261.347,-1080.87 294.229,-1087.45"/>
<polygon fill="midnightblue" stroke="midnightblue" points="293.721,-1090.91 304.213,-1089.44 295.094,-1084.05 293.721,-1090.91"/>
</g>
<!-- Node12 -->
<g id="node23" class="node"><title>Node12</title>
<a xlink:href="cvm-hfa_8c.html#afd1d53fe8a402d4c5799e6e98c67baaa" target="_top" xlink:title="Displays HFA Device info.">
<polygon fill="white" stroke="red" points="298.5,-1049.5 298.5,-1070.5 415.5,-1070.5 415.5,-1049.5 298.5,-1049.5"/>
<text text-anchor="middle" x="357" y="-1057.5" font-family="FreeSans" font-size="10.00">hfa_dev_display_info</text>
</a>
</g>
<!-- Node8&#45;&gt;Node12 -->
<g id="edge22" class="edge"><title>Node8&#45;&gt;Node12</title>
<path fill="none" stroke="midnightblue" d="M194.15,-1060C220.551,-1060 256.78,-1060 288.365,-1060"/>
<polygon fill="midnightblue" stroke="midnightblue" points="288.438,-1063.5 298.438,-1060 288.438,-1056.5 288.438,-1063.5"/>
</g>
<!-- Node13 -->
<g id="node25" class="node"><title>Node13</title>
<a xlink:href="cvm-hfa_8c.html#a236e64ca73680ea6761204d5c44d4e96" target="_top" xlink:title="API to set PP resource allocator for partial matches.">
<polygon fill="white" stroke="black" points="289.5,-1009.5 289.5,-1030.5 424.5,-1030.5 424.5,-1009.5 289.5,-1009.5"/>
<text text-anchor="middle" x="357" y="-1017.5" font-family="FreeSans" font-size="10.00">hfa_dev_set_fnp_ppalloc</text>
</a>
</g>
<!-- Node8&#45;&gt;Node13 -->
<g id="edge24" class="edge"><title>Node8&#45;&gt;Node13</title>
<path fill="none" stroke="midnightblue" d="M194.15,-1052.57C222.201,-1046.96 261.347,-1039.13 294.229,-1032.55"/>
<polygon fill="midnightblue" stroke="midnightblue" points="295.094,-1035.95 304.213,-1030.56 293.721,-1029.09 295.094,-1035.95"/>
</g>
<!-- Node14 -->
<g id="node27" class="node"><title>Node14</title>
<a xlink:href="cvm-hfa_8c.html#ab547f175726534d6a0a334eb35af4980" target="_top" xlink:title="Default function pointer for PP allocations.">
<polygon fill="white" stroke="black" points="297,-969.5 297,-990.5 417,-990.5 417,-969.5 297,-969.5"/>
<text text-anchor="middle" x="357" y="-977.5" font-family="FreeSans" font-size="10.00">hfa_defaultfn_ppalloc</text>
</a>
</g>
<!-- Node8&#45;&gt;Node14 -->
<g id="edge26" class="edge"><title>Node8&#45;&gt;Node14</title>
<path fill="none" stroke="midnightblue" d="M174.245,-1049.5C196.558,-1036.31 236.973,-1013.73 274,-1000 280.784,-997.484 287.998,-995.201 295.232,-993.152"/>
<polygon fill="midnightblue" stroke="midnightblue" points="296.323,-996.483 305.07,-990.505 294.504,-989.723 296.323,-996.483"/>
</g>
<!-- Node15 -->
<g id="node29" class="node"><title>Node15</title>
<a xlink:href="cvm-hfa_8c.html#a148abbfdeebb207ff46884af8eeb8fa4" target="_top" xlink:title="API to set PP resource deallocator for partial matches.">
<polygon fill="white" stroke="black" points="291,-929.5 291,-950.5 423,-950.5 423,-929.5 291,-929.5"/>
<text text-anchor="middle" x="357" y="-937.5" font-family="FreeSans" font-size="10.00">hfa_dev_set_fnp_ppfree</text>
</a>
</g>
<!-- Node8&#45;&gt;Node15 -->
<g id="edge28" class="edge"><title>Node8&#45;&gt;Node15</title>
<path fill="none" stroke="midnightblue" d="M166.139,-1049.39C184.444,-1028.84 227.826,-983.562 274,-960 278.586,-957.66 283.455,-955.587 288.447,-953.751"/>
<polygon fill="midnightblue" stroke="midnightblue" points="289.78,-956.996 298.154,-950.506 287.56,-950.357 289.78,-956.996"/>
</g>
<!-- Node16 -->
<g id="node31" class="node"><title>Node16</title>
<a xlink:href="cvm-hfa_8c.html#a832239ee7b188265bdacbbfb7e879af1" target="_top" xlink:title="Default function pointer for PP deallocations.">
<polygon fill="white" stroke="black" points="298.5,-889.5 298.5,-910.5 415.5,-910.5 415.5,-889.5 298.5,-889.5"/>
<text text-anchor="middle" x="357" y="-897.5" font-family="FreeSans" font-size="10.00">hfa_defaultfn_ppfree</text>
</a>
</g>
<!-- Node8&#45;&gt;Node16 -->
<g id="edge30" class="edge"><title>Node8&#45;&gt;Node16</title>
<path fill="none" stroke="midnightblue" d="M162.726,-1049.24C177.401,-1022.75 219.099,-954.081 274,-920 278.644,-917.117 283.672,-914.65 288.877,-912.539"/>
<polygon fill="midnightblue" stroke="midnightblue" points="290.172,-915.792 298.393,-909.109 287.799,-909.207 290.172,-915.792"/>
</g>
<!-- Node17 -->
<g id="node33" class="node"><title>Node17</title>
<a xlink:href="cvm-hfa_8c.html#a774451b83b300f862763d189c9758e1f" target="_top" xlink:title="API to set PP buffer size function pointer.">
<polygon fill="white" stroke="black" points="291,-849.5 291,-870.5 423,-870.5 423,-849.5 291,-849.5"/>
<text text-anchor="middle" x="357" y="-857.5" font-family="FreeSans" font-size="10.00">hfa_dev_set_fnp_ppsize</text>
</a>
</g>
<!-- Node8&#45;&gt;Node17 -->
<g id="edge32" class="edge"><title>Node8&#45;&gt;Node17</title>
<path fill="none" stroke="midnightblue" d="M160.622,-1049.48C171.943,-1018.24 209.787,-925.402 274,-880 276.723,-878.075 279.609,-876.333 282.607,-874.758"/>
<polygon fill="midnightblue" stroke="midnightblue" points="284.251,-877.855 291.892,-870.516 281.342,-871.489 284.251,-877.855"/>
</g>
<!-- Node18 -->
<g id="node35" class="node"><title>Node18</title>
<a xlink:href="cvm-hfa_8c.html#a11aab8e30488e4cfc900f60a0dabc784" target="_top" xlink:title="Default function pointer for PP size.">
<polygon fill="white" stroke="black" points="298.5,-809.5 298.5,-830.5 415.5,-830.5 415.5,-809.5 298.5,-809.5"/>
<text text-anchor="middle" x="357" y="-817.5" font-family="FreeSans" font-size="10.00">hfa_defaultfn_ppsize</text>
</a>
</g>
<!-- Node8&#45;&gt;Node18 -->
<g id="edge34" class="edge"><title>Node8&#45;&gt;Node18</title>
<path fill="none" stroke="midnightblue" d="M159.385,-1049.26C167.926,-1013.42 200.48,-896.969 274,-840 278.467,-836.539 283.444,-833.665 288.681,-831.28"/>
<polygon fill="midnightblue" stroke="midnightblue" points="290.301,-834.404 298.332,-827.495 287.745,-827.888 290.301,-834.404"/>
</g>
<!-- Node19 -->
<g id="node37" class="node"><title>Node19</title>
<a xlink:href="cvm-hfa_8c.html#a9a0b038e0d29435cb91a21d9c62806cc" target="_top" xlink:title="API to set PP resource allocator for temporary memory.">
<polygon fill="white" stroke="black" points="288,-769.5 288,-790.5 426,-790.5 426,-769.5 288,-769.5"/>
<text text-anchor="middle" x="357" y="-777.5" font-family="FreeSans" font-size="10.00">hfa_dev_set_fnp_pptalloc</text>
</a>
</g>
<!-- Node8&#45;&gt;Node19 -->
<g id="edge36" class="edge"><title>Node8&#45;&gt;Node19</title>
<path fill="none" stroke="midnightblue" d="M158.436,-1049.34C164.374,-1009.63 190.738,-869.028 274,-800 275.997,-798.345 278.109,-796.822 280.31,-795.422"/>
<polygon fill="midnightblue" stroke="midnightblue" points="282.07,-798.449 289.194,-790.606 278.735,-792.295 282.07,-798.449"/>
</g>
<!-- Node20 -->
<g id="node39" class="node"><title>Node20</title>
<a xlink:href="cvm-hfa_8c.html#a2cbca63c413f08d3861f9b4c2855391f" target="_top" xlink:title="API to set PP resource deallocator for temporary memory.">
<polygon fill="white" stroke="black" points="289.5,-729.5 289.5,-750.5 424.5,-750.5 424.5,-729.5 289.5,-729.5"/>
<text text-anchor="middle" x="357" y="-737.5" font-family="FreeSans" font-size="10.00">hfa_dev_set_fnp_pptfree</text>
</a>
</g>
<!-- Node8&#45;&gt;Node20 -->
<g id="edge38" class="edge"><title>Node8&#45;&gt;Node20</title>
<path fill="none" stroke="midnightblue" d="M157.744,-1049.27C161.356,-1005.79 180.929,-841.252 274,-760 276.003,-758.251 278.133,-756.65 280.361,-755.183"/>
<polygon fill="midnightblue" stroke="midnightblue" points="282.349,-758.083 289.392,-750.168 278.95,-751.963 282.349,-758.083"/>
</g>
<!-- Node21 -->
<g id="node41" class="node"><title>Node21</title>
<a xlink:href="cvm-hfa_8c.html#af0b17e8a09b1f7a1dd438ddcb1e4cd14" target="_top" xlink:title="API to set temporary memory size function pointer.">
<polygon fill="white" stroke="black" points="289.5,-1409.5 289.5,-1430.5 424.5,-1430.5 424.5,-1409.5 289.5,-1409.5"/>
<text text-anchor="middle" x="357" y="-1417.5" font-family="FreeSans" font-size="10.00">hfa_dev_set_fnp_pptsize</text>
</a>
</g>
<!-- Node8&#45;&gt;Node21 -->
<g id="edge40" class="edge"><title>Node8&#45;&gt;Node21</title>
<path fill="none" stroke="midnightblue" d="M159.219,-1070.61C170.356,-1122.88 221.694,-1352.44 274,-1400 275.967,-1401.79 278.066,-1403.42 280.269,-1404.92"/>
<polygon fill="midnightblue" stroke="midnightblue" points="278.799,-1408.11 289.219,-1410.03 282.266,-1402.03 278.799,-1408.11"/>
</g>
<!-- Node22 -->
<g id="node43" class="node"><title>Node22</title>
<a xlink:href="cvm-hfa_8c.html#aa2754afcdd94eb3dcd90c374f779dd24" target="_top" xlink:title="API to set PP resource allocator for match/result buffer.">
<polygon fill="white" stroke="black" points="274,-1369.5 274,-1390.5 440,-1390.5 440,-1369.5 274,-1369.5"/>
<text text-anchor="middle" x="357" y="-1377.5" font-family="FreeSans" font-size="10.00">hfa_dev_set_fnp_ppmatchalloc</text>
</a>
</g>
<!-- Node8&#45;&gt;Node22 -->
<g id="edge42" class="edge"><title>Node8&#45;&gt;Node22</title>
<path fill="none" stroke="midnightblue" d="M157.744,-1070.73C161.356,-1114.21 180.929,-1278.75 274,-1360 275.769,-1361.54 277.637,-1362.97 279.585,-1364.3"/>
<polygon fill="midnightblue" stroke="midnightblue" points="278.161,-1367.52 288.579,-1369.45 281.639,-1361.44 278.161,-1367.52"/>
</g>
<!-- Node23 -->
<g id="node45" class="node"><title>Node23</title>
<a xlink:href="cvm-hfa_8c.html#ad022f5aec72780af8b36533884693539" target="_top" xlink:title="API to set PP resource deallocator for result/match buf.">
<polygon fill="white" stroke="black" points="275.5,-1329.5 275.5,-1350.5 438.5,-1350.5 438.5,-1329.5 275.5,-1329.5"/>
<text text-anchor="middle" x="357" y="-1337.5" font-family="FreeSans" font-size="10.00">hfa_dev_set_fnp_ppmatchfree</text>
</a>
</g>
<!-- Node8&#45;&gt;Node23 -->
<g id="edge44" class="edge"><title>Node8&#45;&gt;Node23</title>
<path fill="none" stroke="midnightblue" d="M158.436,-1070.66C164.374,-1110.37 190.738,-1250.97 274,-1320 275.997,-1321.66 278.109,-1323.18 280.31,-1324.58"/>
<polygon fill="midnightblue" stroke="midnightblue" points="278.735,-1327.71 289.194,-1329.39 282.07,-1321.55 278.735,-1327.71"/>
</g>
<!-- Node24 -->
<g id="node47" class="node"><title>Node24</title>
<a xlink:href="cvm-hfa_8c.html#a8b71887165c143e32600513d12f9274f" target="_top" xlink:title="API to set match buffer size function pointer.">
<polygon fill="white" stroke="black" points="275.5,-1289.5 275.5,-1310.5 438.5,-1310.5 438.5,-1289.5 275.5,-1289.5"/>
<text text-anchor="middle" x="357" y="-1297.5" font-family="FreeSans" font-size="10.00">hfa_dev_set_fnp_ppmatchsize</text>
</a>
</g>
<!-- Node8&#45;&gt;Node24 -->
<g id="edge46" class="edge"><title>Node8&#45;&gt;Node24</title>
<path fill="none" stroke="midnightblue" d="M159.385,-1070.74C167.926,-1106.58 200.48,-1223.03 274,-1280 276.307,-1281.79 278.749,-1283.42 281.294,-1284.91"/>
<polygon fill="midnightblue" stroke="midnightblue" points="279.779,-1288.06 290.285,-1289.43 282.927,-1281.81 279.779,-1288.06"/>
</g>
<!-- Node25 -->
<g id="node49" class="node"><title>Node25</title>
<a xlink:href="cvm-hfa_8c.html#abcc0595aa8b2bb2d6116d600abbf55f8" target="_top" xlink:title="API to set PP error callback.">
<polygon fill="white" stroke="black" points="289,-1249.5 289,-1270.5 425,-1270.5 425,-1249.5 289,-1249.5"/>
<text text-anchor="middle" x="357" y="-1257.5" font-family="FreeSans" font-size="10.00">hfa_dev_set_fnp_pperror</text>
</a>
</g>
<!-- Node8&#45;&gt;Node25 -->
<g id="edge48" class="edge"><title>Node8&#45;&gt;Node25</title>
<path fill="none" stroke="midnightblue" d="M160.622,-1070.52C171.943,-1101.76 209.787,-1194.6 274,-1240 276.723,-1241.93 279.609,-1243.67 282.607,-1245.24"/>
<polygon fill="midnightblue" stroke="midnightblue" points="281.342,-1248.51 291.892,-1249.48 284.251,-1242.14 281.342,-1248.51"/>
</g>
<!-- Node26 -->
<g id="node51" class="node"><title>Node26</title>
<a xlink:href="cvm-hfa_8c.html#ac115556b315ff135ed2fd059cdf7d066" target="_top" xlink:title="Default function pointer for PP errors.">
<polygon fill="white" stroke="black" points="301.5,-1209.5 301.5,-1230.5 412.5,-1230.5 412.5,-1209.5 301.5,-1209.5"/>
<text text-anchor="middle" x="357" y="-1217.5" font-family="FreeSans" font-size="10.00">hfa_defaultfn_pperr</text>
</a>
</g>
<!-- Node8&#45;&gt;Node26 -->
<g id="edge50" class="edge"><title>Node8&#45;&gt;Node26</title>
<path fill="none" stroke="midnightblue" d="M162.726,-1070.76C177.401,-1097.25 219.099,-1165.92 274,-1200 279.454,-1203.39 285.439,-1206.2 291.618,-1208.54"/>
<polygon fill="midnightblue" stroke="midnightblue" points="290.847,-1211.97 301.441,-1211.83 293.072,-1205.33 290.847,-1211.97"/>
</g>
<!-- Node28 -->
<g id="node55" class="node"><title>Node28</title>
<a xlink:href="cvm-hfa-graph_8c.html#a80a6427d5a90c7bd1e4cbfd62a808524" target="_top" xlink:title="This routine initializes a graph object which can be used to perform various operations on a graph fi...">
<polygon fill="white" stroke="black" points="303.5,-611.5 303.5,-632.5 410.5,-632.5 410.5,-611.5 303.5,-611.5"/>
<text text-anchor="middle" x="357" y="-619.5" font-family="FreeSans" font-size="10.00">hfa_dev_graph_init</text>
</a>
</g>
<!-- Node27&#45;&gt;Node28 -->
<g id="edge54" class="edge"><title>Node27&#45;&gt;Node28</title>
<path fill="none" stroke="midnightblue" d="M191.837,-606.31C219.729,-608.959 259.6,-612.747 293.18,-615.937"/>
<polygon fill="midnightblue" stroke="midnightblue" points="293.093,-619.444 303.379,-616.906 293.755,-612.476 293.093,-619.444"/>
</g>
<!-- Node27&#45;&gt;Node29 -->
<g id="edge56" class="edge"><title>Node27&#45;&gt;Node29</title>
<path fill="none" stroke="midnightblue" d="M186.597,-613.644C210.12,-621.914 243.949,-633.388 274,-642 288.905,-646.272 305.488,-650.392 319.889,-653.771"/>
<polygon fill="midnightblue" stroke="midnightblue" points="319.403,-657.251 329.934,-656.092 320.979,-650.431 319.403,-657.251"/>
</g>
<!-- Node31 -->
<g id="node61" class="node"><title>Node31</title>
<a xlink:href="cvm-hfa-graph_8c.html#aa4ce7845277b4b3099159bbd7afd5c08" target="_top" xlink:title="This routine is used to cacheunload a cacheload&#39;ed graph in a non&#45;blocking manner.">
<polygon fill="white" stroke="red" points="486,-616.5 486,-637.5 618,-637.5 618,-616.5 486,-616.5"/>
<text text-anchor="middle" x="552" y="-624.5" font-family="FreeSans" font-size="10.00">hfa_graph_cacheunload</text>
</a>
</g>
<!-- Node27&#45;&gt;Node31 -->
<g id="edge72" class="edge"><title>Node27&#45;&gt;Node31</title>
<path fill="none" stroke="midnightblue" d="M191.549,-600.37C244.998,-596.866 350.874,-592.174 440,-602 461.515,-604.372 484.94,-609.233 504.78,-614.044"/>
<polygon fill="midnightblue" stroke="midnightblue" points="503.952,-617.445 514.502,-616.466 505.644,-610.652 503.952,-617.445"/>
</g>
<!-- Node32 -->
<g id="node63" class="node"><title>Node32</title>
<a xlink:href="cvm-hfa-graph_8c.html#a5e79919f5903d97aee5e82bfc7e71597" target="_top" xlink:title="This routine is the counterpart of hfa_dev_graph_init().">
<polygon fill="white" stroke="black" points="486,-548.5 486,-569.5 618,-569.5 618,-548.5 486,-548.5"/>
<text text-anchor="middle" x="552" y="-556.5" font-family="FreeSans" font-size="10.00">hfa_dev_graph_cleanup</text>
</a>
</g>
<!-- Node27&#45;&gt;Node32 -->
<g id="edge70" class="edge"><title>Node27&#45;&gt;Node32</title>
<path fill="none" stroke="midnightblue" d="M191.707,-599.134C254.842,-592.101 389.85,-577.062 475.487,-567.523"/>
<polygon fill="midnightblue" stroke="midnightblue" points="476.127,-570.973 485.678,-566.388 475.352,-564.016 476.127,-570.973"/>
</g>
<!-- Node33 -->
<g id="node65" class="node"><title>Node33</title>
<a xlink:href="cvm-hfa-graph_8c.html#a32df4a93ffcd7da232613b13204b2a80" target="_top" xlink:title="This routine sets the cluster&#45;mask for the graph.">
<polygon fill="white" stroke="black" points="298.5,-495.5 298.5,-516.5 415.5,-516.5 415.5,-495.5 298.5,-495.5"/>
<text text-anchor="middle" x="357" y="-503.5" font-family="FreeSans" font-size="10.00">hfa_graph_setcluster</text>
</a>
</g>
<!-- Node27&#45;&gt;Node33 -->
<g id="edge64" class="edge"><title>Node27&#45;&gt;Node33</title>
<path fill="none" stroke="midnightblue" d="M191.57,-600.018C206.856,-597.365 224.406,-592.374 238,-583 261.141,-567.044 251.269,-547.536 274,-531 279.857,-526.74 286.445,-523.197 293.282,-520.254"/>
<polygon fill="midnightblue" stroke="midnightblue" points="294.654,-523.476 302.715,-516.601 292.126,-516.949 294.654,-523.476"/>
</g>
<!-- Node34 -->
<g id="node67" class="node"><title>Node34</title>
<a xlink:href="app-utils_8c.html#aed95bb72627cff313c596ebcfcd8af61" target="_top" xlink:title="Parse graph into chunks and load graph to HFA memory.">
<polygon fill="white" stroke="red" points="289.5,-455.5 289.5,-476.5 424.5,-476.5 424.5,-455.5 289.5,-455.5"/>
<text text-anchor="middle" x="357" y="-463.5" font-family="FreeSans" font-size="10.00">hfautils_download_graph</text>
</a>
</g>
<!-- Node27&#45;&gt;Node34 -->
<g id="edge66" class="edge"><title>Node27&#45;&gt;Node34</title>
<path fill="none" stroke="midnightblue" d="M191.526,-601.696C207.352,-599.433 225.357,-594.286 238,-583 272.305,-552.377 239.609,-516.526 274,-486 275.988,-484.235 278.106,-482.619 280.324,-481.14"/>
<polygon fill="midnightblue" stroke="midnightblue" points="282.315,-484.036 289.322,-476.089 278.889,-477.932 282.315,-484.036"/>
</g>
<!-- Node35 -->
<g id="node69" class="node"><title>Node35</title>
<a xlink:href="cvm-hfa-graph_8c.html#a60861d15ed5f6bccc42bbde834aa2b32" target="_top" xlink:title="This routine is used to cacheload a cacheable graph in a blocking manner.">
<polygon fill="white" stroke="red" points="297,-415.5 297,-436.5 417,-436.5 417,-415.5 297,-415.5"/>
<text text-anchor="middle" x="357" y="-423.5" font-family="FreeSans" font-size="10.00">hfa_graph_cacheload</text>
</a>
</g>
<!-- Node27&#45;&gt;Node35 -->
<g id="edge68" class="edge"><title>Node27&#45;&gt;Node35</title>
<path fill="none" stroke="midnightblue" d="M191.622,-602.288C207.664,-600.182 225.824,-594.996 238,-583 282.847,-538.816 229.029,-490.058 274,-446 277.97,-442.11 282.559,-438.931 287.498,-436.337"/>
<polygon fill="midnightblue" stroke="midnightblue" points="288.974,-439.512 296.712,-432.274 286.15,-433.107 288.974,-439.512"/>
</g>
<!-- Node29&#45;&gt;Node30 -->
<g id="edge58" class="edge"><title>Node29&#45;&gt;Node30</title>
<path fill="none" stroke="midnightblue" d="M384.114,-664.642C405.364,-666.712 436.165,-669.714 465.6,-672.582"/>
<polygon fill="midnightblue" stroke="midnightblue" points="465.644,-676.102 475.936,-673.589 466.323,-669.135 465.644,-676.102"/>
</g>
<!-- Node29&#45;&gt;Node31 -->
<g id="edge60" class="edge"><title>Node29&#45;&gt;Node31</title>
<path fill="none" stroke="midnightblue" d="M384.114,-657.133C409.736,-652.535 449.243,-645.444 483.497,-639.295"/>
<polygon fill="midnightblue" stroke="midnightblue" points="484.244,-642.717 493.469,-637.506 483.008,-635.827 484.244,-642.717"/>
</g>
<!-- Node29&#45;&gt;Node32 -->
<g id="edge62" class="edge"><title>Node29&#45;&gt;Node32</title>
<path fill="none" stroke="midnightblue" d="M384.114,-659.178C401.008,-656.545 422.737,-651.518 440,-642 459.542,-631.225 458.472,-620.811 476,-607 491.125,-595.083 509.326,-583.502 524.124,-574.703"/>
<polygon fill="midnightblue" stroke="midnightblue" points="525.975,-577.675 532.84,-569.605 522.441,-571.632 525.975,-577.675"/>
</g>
<!-- Node37 -->
<g id="node75" class="node"><title>Node37</title>
<a xlink:href="cvm-hfa-search_8c.html#a64ba7a41c7d677da10e588a58789015b" target="_top" xlink:title="This routine initializes a Search Context.">
<polygon fill="white" stroke="red" points="293.5,-375.5 293.5,-396.5 420.5,-396.5 420.5,-375.5 293.5,-375.5"/>
<text text-anchor="middle" x="357" y="-383.5" font-family="FreeSans" font-size="10.00">hfa_dev_searchctx_init</text>
</a>
</g>
<!-- Node36&#45;&gt;Node37 -->
<g id="edge76" class="edge"><title>Node36&#45;&gt;Node37</title>
<path fill="none" stroke="midnightblue" d="M195.326,-561.751C210.399,-559.351 226.753,-554.081 238,-543 282.847,-498.816 229.029,-450.058 274,-406 277.097,-402.966 280.57,-400.364 284.292,-398.135"/>
<polygon fill="midnightblue" stroke="midnightblue" points="286,-401.195 293.371,-393.584 282.863,-394.937 286,-401.195"/>
</g>
<!-- Node38 -->
<g id="node77" class="node"><title>Node38</title>
<a xlink:href="cvm-hfa-search_8c.html#a954753c0e6f4a59599d05f1262a25b38" target="_top" xlink:title="This routine associates a graph with sctx.">
<polygon fill="white" stroke="red" points="291,-335.5 291,-356.5 423,-356.5 423,-335.5 291,-335.5"/>
<text text-anchor="middle" x="357" y="-343.5" font-family="FreeSans" font-size="10.00">hfa_searchctx_setgraph</text>
</a>
</g>
<!-- Node36&#45;&gt;Node38 -->
<g id="edge78" class="edge"><title>Node36&#45;&gt;Node38</title>
<path fill="none" stroke="midnightblue" d="M195.223,-562.123C210.463,-559.807 226.969,-554.497 238,-543 293.577,-485.072 218.261,-423.772 274,-366 276.367,-363.547 278.979,-361.373 281.772,-359.448"/>
<polygon fill="midnightblue" stroke="midnightblue" points="283.684,-362.387 290.633,-354.389 280.214,-356.307 283.684,-362.387"/>
</g>
</g>
</svg>
        <g id="navigator" transform="translate(0 0)" fill="#404254">
                <rect fill="#f2f5e9" fill-opacity="0.5" stroke="#606060" stroke-width=".5" x="0" y="0" width="60" height="60"/>
                <use id="zoomplus" xlink:href="#zoomPlus" x="17" y="9" onmousedown="handleZoom(evt,'in')"/>
                <use id="zoomminus" xlink:href="#zoomMin" x="42" y="9" onmousedown="handleZoom(evt,'out')"/>
                <use id="reset" xlink:href="#resetDef" x="30" y="36" onmousedown="handleReset()"/>
                <g id="arrowUp" xlink:href="#dirArrow" transform="translate(30 24)" onmousedown="handlePan(0,-1)">
                  <use xlink:href="#rim" fill="#404040">
                        <set attributeName="fill" to="#808080" begin="arrowUp.mouseover" end="arrowUp.mouseout"/>
                  </use>
                  <path fill="none" stroke="white" stroke-width="1.5" d="M0,-3.0v7 M-2.5,-0.5L0,-3.0L2.5,-0.5"/>
                </g>
                <g id="arrowRight" xlink:href="#dirArrow" transform="rotate(90) translate(36 -43)" onmousedown="handlePan(1,0)">
                  <use xlink:href="#rim" fill="#404040">
                        <set attributeName="fill" to="#808080" begin="arrowRight.mouseover" end="arrowRight.mouseout"/>
                  </use>
                  <path fill="none" stroke="white" stroke-width="1.5" d="M0,-3.0v7 M-2.5,-0.5L0,-3.0L2.5,-0.5"/>
                </g>
                <g id="arrowDown" xlink:href="#dirArrow" transform="rotate(180) translate(-30 -48)" onmousedown="handlePan(0,1)">
                  <use xlink:href="#rim" fill="#404040">
                        <set attributeName="fill" to="#808080" begin="arrowDown.mouseover" end="arrowDown.mouseout"/>
                  </use>
                  <path fill="none" stroke="white" stroke-width="1.5" d="M0,-3.0v7 M-2.5,-0.5L0,-3.0L2.5,-0.5"/>
                </g>
                <g id="arrowLeft" xlink:href="#dirArrow" transform="rotate(270) translate(-36 17)" onmousedown="handlePan(-1,0)">
                  <use xlink:href="#rim" fill="#404040">
                        <set attributeName="fill" to="#808080" begin="arrowLeft.mouseover" end="arrowLeft.mouseout"/>
                  </use>
                  <path fill="none" stroke="white" stroke-width="1.5" d="M0,-3.0v7 M-2.5,-0.5L0,-3.0L2.5,-0.5"/>
                </g>
        </g>
        <svg viewBox="0 0 15 15" width="100%" height="30px" preserveAspectRatio="xMaxYMin meet">
         <g id="arrow_out" transform="scale(0.3 0.3)">
          <a xlink:href="hfa-se-ngraphs_8c_a3c04138a5bfe5d72780bb7e82a18e627_cgraph_org.svg" target="_base">
           <rect id="button" ry="5" rx="5" y="6" x="6" height="38" width="38"
                fill="#f2f5e9" fill-opacity="0.5" stroke="#606060" stroke-width="1.0"/>
           <path id="arrow"
             d="M 11.500037,31.436501 C 11.940474,20.09759 22.043105,11.32322 32.158766,21.979434 L 37.068811,17.246167 C 37.068811,17.246167 37.088388,32 37.088388,32 L 22.160133,31.978069 C 22.160133,31.978069 26.997745,27.140456 26.997745,27.140456 C 18.528582,18.264221 13.291696,25.230495 11.500037,31.436501 z"
             style="fill:#404040;"/>
          </a>
         </g>
        </svg>
</svg>
