<?xml version="1.0" encoding="UTF-8" standalone="no"?>
<!DOCTYPE svg PUBLIC "-//W3C//DTD SVG 1.1//EN"
 "http://www.w3.org/Graphics/SVG/1.1/DTD/svg11.dtd">
<!-- Generated by graphviz version 2.24.0 (20090616.2323)
 -->
<!-- Title: __processflow Pages: 1 -->
<svg width="402pt" height="30pt"
 viewBox="0.00 0.00 402.00 30.00" xmlns="http://www.w3.org/2000/svg" xmlns:xlink="http://www.w3.org/1999/xlink">
<g id="graph1" class="graph" transform="scale(1 1) rotate(0) translate(4 26)">
<title>__processflow</title>
<polygon fill="white" stroke="white" points="-4,5 -4,-26 399,-26 399,5 -4,5"/>
<!-- Node1 -->
<g id="node1" class="node"><title>Node1</title>
<polygon fill="#bfbfbf" stroke="black" points="0.5,-0.5 0.5,-21.5 85.5,-21.5 85.5,-0.5 0.5,-0.5"/>
<text text-anchor="middle" x="43" y="-8.5" font-family="FreeSans" font-size="10.00">__processflow</text>
</g>
<!-- Node2 -->
<g id="node3" class="node"><title>Node2</title>
<a xlink:href="hfa-se-flow_8c.html#a786591694a8f8fb46cedbc8a580c88f6" target="_top" xlink:title="Submitting or Polling flows from the software recently used cache IF Cache is empty, it tries to refill it.">
<polygon fill="white" stroke="black" points="122.5,-0.5 122.5,-21.5 185.5,-21.5 185.5,-0.5 122.5,-0.5"/>
<text text-anchor="middle" x="154" y="-8.5" font-family="FreeSans" font-size="10.00">do_cache</text>
</a>
</g>
<!-- Node1&#45;&gt;Node2 -->
<g id="edge2" class="edge"><title>Node1&#45;&gt;Node2</title>
<path fill="none" stroke="midnightblue" d="M95.7746,-11C104.871,-11 114.066,-11 122.378,-11"/>
<polygon fill="midnightblue" stroke="midnightblue" points="95.5981,-7.5001 85.598,-11 95.598,-14.5001 95.5981,-7.5001"/>
</g>
<!-- Node3 -->
<g id="node5" class="node"><title>Node3</title>
<a xlink:href="hfa-se-flow_8c.html#aba72a61590283e37ffd78b4defd38220" target="_top" xlink:title="Receive network packets and process.">
<polygon fill="white" stroke="black" points="222,-0.5 222,-21.5 318,-21.5 318,-0.5 222,-0.5"/>
<text text-anchor="middle" x="270" y="-8.5" font-family="FreeSans" font-size="10.00">process_packets</text>
</a>
</g>
<!-- Node2&#45;&gt;Node3 -->
<g id="edge4" class="edge"><title>Node2&#45;&gt;Node3</title>
<path fill="none" stroke="midnightblue" d="M195.711,-11C204.17,-11 213.131,-11 221.792,-11"/>
<polygon fill="midnightblue" stroke="midnightblue" points="195.698,-7.5001 185.698,-11 195.697,-14.5001 195.698,-7.5001"/>
</g>
<!-- Node4 -->
<g id="node7" class="node"><title>Node4</title>
<a xlink:href="hfa-se-flow-wqe_8c.html#a3c04138a5bfe5d72780bb7e82a18e627" target="_top" xlink:title="Implementation.">
<polygon fill="white" stroke="black" points="354,-0.5 354,-21.5 394,-21.5 394,-0.5 354,-0.5"/>
<text text-anchor="middle" x="374" y="-8.5" font-family="FreeSans" font-size="10.00">main</text>
</a>
</g>
<!-- Node3&#45;&gt;Node4 -->
<g id="edge6" class="edge"><title>Node3&#45;&gt;Node4</title>
<path fill="none" stroke="midnightblue" d="M328.146,-11C337.414,-11 346.419,-11 353.958,-11"/>
<polygon fill="midnightblue" stroke="midnightblue" points="328.043,-7.5001 318.042,-11 328.042,-14.5001 328.043,-7.5001"/>
</g>
</g>
</svg>
