<?xml version="1.0" encoding="UTF-8" standalone="no"?>
<!DOCTYPE svg PUBLIC "-//W3C//DTD SVG 1.1//EN"
 "http://www.w3.org/Graphics/SVG/1.1/DTD/svg11.dtd">
<!-- Generated by graphviz version 2.24.0 (20090616.2323)
 -->
<!-- Title: parse_xml_matches Pages: 1 -->
<svg width="340pt" height="110pt"
 viewBox="0.00 0.00 340.00 110.00" xmlns="http://www.w3.org/2000/svg" xmlns:xlink="http://www.w3.org/1999/xlink">
<g id="graph1" class="graph" transform="scale(1 1) rotate(0) translate(4 106)">
<title>parse_xml_matches</title>
<polygon fill="white" stroke="white" points="-4,5 -4,-106 337,-106 337,5 -4,5"/>
<!-- Node1 -->
<g id="node1" class="node"><title>Node1</title>
<polygon fill="#bfbfbf" stroke="black" points="0,-40.5 0,-61.5 114,-61.5 114,-40.5 0,-40.5"/>
<text text-anchor="middle" x="57" y="-48.5" font-family="FreeSans" font-size="10.00">parse_xml_matches</text>
</g>
<!-- Node2 -->
<g id="node3" class="node"><title>Node2</title>
<a xlink:href="hfa-se-xml-parser_8c.html#afdb1e79589d7557b039aa24c34d185b1" target="_top" xlink:title="quicksort_list">
<polygon fill="white" stroke="black" points="163,-80.5 163,-101.5 241,-101.5 241,-80.5 163,-80.5"/>
<text text-anchor="middle" x="202" y="-88.5" font-family="FreeSans" font-size="10.00">quicksort_list</text>
</a>
</g>
<!-- Node1&#45;&gt;Node2 -->
<g id="edge2" class="edge"><title>Node1&#45;&gt;Node2</title>
<path fill="none" stroke="midnightblue" d="M95.097,-61.5095C113.175,-66.4965 134.967,-72.5082 154.148,-77.7993"/>
<polygon fill="midnightblue" stroke="midnightblue" points="153.335,-81.2059 163.906,-80.4913 155.197,-74.4579 153.335,-81.2059"/>
</g>
<!-- Node4 -->
<g id="node7" class="node"><title>Node4</title>
<a xlink:href="app-utils_8c.html#a414384543a5a61ed70c61605d85b7f6e" target="_top" xlink:title="This function locates the first occurrence of the null&#45;terminated string s2 in the string s1...">
<polygon fill="white" stroke="black" points="159,-40.5 159,-61.5 245,-61.5 245,-40.5 159,-40.5"/>
<text text-anchor="middle" x="202" y="-48.5" font-family="FreeSans" font-size="10.00">hfautils_strnstr</text>
</a>
</g>
<!-- Node1&#45;&gt;Node4 -->
<g id="edge6" class="edge"><title>Node1&#45;&gt;Node4</title>
<path fill="none" stroke="midnightblue" d="M114.308,-51C125.702,-51 137.62,-51 148.867,-51"/>
<polygon fill="midnightblue" stroke="midnightblue" points="148.974,-54.5001 158.974,-51 148.974,-47.5001 148.974,-54.5001"/>
</g>
<!-- Node5 -->
<g id="node9" class="node"><title>Node5</title>
<a xlink:href="hfa-se-xml-parser_8c.html#a20eee555a730ac0593bdfaf12735a735" target="_top" xlink:title="Cleanup allocated memory for match list.">
<polygon fill="white" stroke="black" points="150.5,-0.5 150.5,-21.5 253.5,-21.5 253.5,-0.5 150.5,-0.5"/>
<text text-anchor="middle" x="202" y="-8.5" font-family="FreeSans" font-size="10.00">cleanup_matchlist</text>
</a>
</g>
<!-- Node1&#45;&gt;Node5 -->
<g id="edge8" class="edge"><title>Node1&#45;&gt;Node5</title>
<path fill="none" stroke="midnightblue" d="M95.097,-40.4905C113.175,-35.5035 134.967,-29.4918 154.148,-24.2007"/>
<polygon fill="midnightblue" stroke="midnightblue" points="155.197,-27.5421 163.906,-21.5087 153.335,-20.7941 155.197,-27.5421"/>
</g>
<!-- Node3 -->
<g id="node5" class="node"><title>Node3</title>
<a xlink:href="hfa-se-xml-parser_8c.html#acaf84dd34411c7567ee913b5753c7d8f" target="_top" xlink:title="Swap two nodes.">
<polygon fill="white" stroke="black" points="290,-80.5 290,-101.5 332,-101.5 332,-80.5 290,-80.5"/>
<text text-anchor="middle" x="311" y="-88.5" font-family="FreeSans" font-size="10.00">swap</text>
</a>
</g>
<!-- Node2&#45;&gt;Node3 -->
<g id="edge4" class="edge"><title>Node2&#45;&gt;Node3</title>
<path fill="none" stroke="midnightblue" d="M241.044,-91C253.8,-91 267.789,-91 279.882,-91"/>
<polygon fill="midnightblue" stroke="midnightblue" points="279.942,-94.5001 289.942,-91 279.942,-87.5001 279.942,-94.5001"/>
</g>
</g>
</svg>
