<?xml version="1.0" encoding="UTF-8" standalone="no"?>
<!DOCTYPE svg PUBLIC "-//W3C//DTD SVG 1.1//EN"
 "http://www.w3.org/Graphics/SVG/1.1/DTD/svg11.dtd">
<!-- Generated by graphviz version 2.24.0 (20090616.2323)
 -->
<!-- Title: cleanup_ctx Pages: 1 -->
<svg width="482pt" height="70pt"
 viewBox="0.00 0.00 482.00 70.00" xmlns="http://www.w3.org/2000/svg" xmlns:xlink="http://www.w3.org/1999/xlink">
<g id="graph1" class="graph" transform="scale(1 1) rotate(0) translate(4 66)">
<title>cleanup_ctx</title>
<polygon fill="white" stroke="white" points="-4,5 -4,-66 479,-66 479,5 -4,5"/>
<!-- Node1 -->
<g id="node1" class="node"><title>Node1</title>
<polygon fill="#bfbfbf" stroke="black" points="0.5,-20.5 0.5,-41.5 75.5,-41.5 75.5,-20.5 0.5,-20.5"/>
<text text-anchor="middle" x="38" y="-28.5" font-family="FreeSans" font-size="10.00">cleanup_ctx</text>
</g>
<!-- Node2 -->
<g id="node3" class="node"><title>Node2</title>
<a xlink:href="flow_8c.html#a28378e8a6f53ff0e87f2e688d1c21834" target="_top" xlink:title="Low level API to create a flow Allocate Flow, Intialize searchctx, set graph and setflags,.">
<polygon fill="white" stroke="black" points="112.5,-40.5 112.5,-61.5 219.5,-61.5 219.5,-40.5 112.5,-40.5"/>
<text text-anchor="middle" x="166" y="-48.5" font-family="FreeSans" font-size="10.00">__hfaf_create_flow</text>
</a>
</g>
<!-- Node1&#45;&gt;Node2 -->
<g id="edge2" class="edge"><title>Node1&#45;&gt;Node2</title>
<path fill="none" stroke="midnightblue" d="M85.7016,-38.4534C94.4164,-39.8151 103.563,-41.2442 112.435,-42.6305"/>
<polygon fill="midnightblue" stroke="midnightblue" points="86.1324,-34.9783 75.7119,-36.8925 85.0517,-41.8944 86.1324,-34.9783"/>
</g>
<!-- Node5 -->
<g id="node9" class="node"><title>Node5</title>
<a xlink:href="hfa-se-wqe_8c.html#a3c04138a5bfe5d72780bb7e82a18e627" target="_top" xlink:title="main">
<polygon fill="white" stroke="black" points="146,-0.5 146,-21.5 186,-21.5 186,-0.5 146,-0.5"/>
<text text-anchor="middle" x="166" y="-8.5" font-family="FreeSans" font-size="10.00">main</text>
</a>
</g>
<!-- Node1&#45;&gt;Node5 -->
<g id="edge8" class="edge"><title>Node1&#45;&gt;Node5</title>
<path fill="none" stroke="midnightblue" d="M85.7016,-23.5466C106.541,-20.2904 129.851,-16.6483 145.965,-14.1305"/>
<polygon fill="midnightblue" stroke="midnightblue" points="85.0517,-20.1056 75.7119,-25.1075 86.1324,-27.0217 85.0517,-20.1056"/>
</g>
<!-- Node3 -->
<g id="node5" class="node"><title>Node3</title>
<a xlink:href="flow_8h.html#abdb62c6f71f5ca9ecddc66c90166d37b" target="_top" xlink:title="Create Packet Flow in Flowdb.">
<polygon fill="white" stroke="black" points="256.5,-40.5 256.5,-61.5 367.5,-61.5 367.5,-40.5 256.5,-40.5"/>
<text text-anchor="middle" x="312" y="-48.5" font-family="FreeSans" font-size="10.00">hfaf_create_pktflow</text>
</a>
</g>
<!-- Node2&#45;&gt;Node3 -->
<g id="edge4" class="edge"><title>Node2&#45;&gt;Node3</title>
<path fill="none" stroke="midnightblue" d="M229.707,-51C238.468,-51 247.411,-51 256.019,-51"/>
<polygon fill="midnightblue" stroke="midnightblue" points="229.536,-47.5001 219.536,-51 229.536,-54.5001 229.536,-47.5001"/>
</g>
<!-- Node4 -->
<g id="node7" class="node"><title>Node4</title>
<a xlink:href="hfa-se-flow-wqe_8c.html#a6d3e23d8f7a3aaf1b0d6e350b7631a0e" target="_top" xlink:title="Get flow pointer from Flow database, If flow ptr is NULL then create at runtime.">
<polygon fill="white" stroke="black" points="404.5,-40.5 404.5,-61.5 473.5,-61.5 473.5,-40.5 404.5,-40.5"/>
<text text-anchor="middle" x="439" y="-48.5" font-family="FreeSans" font-size="10.00">get_flowptr</text>
</a>
</g>
<!-- Node3&#45;&gt;Node4 -->
<g id="edge6" class="edge"><title>Node3&#45;&gt;Node4</title>
<path fill="none" stroke="midnightblue" d="M377.924,-51C386.986,-51 395.982,-51 404.172,-51"/>
<polygon fill="midnightblue" stroke="midnightblue" points="377.704,-47.5001 367.704,-51 377.704,-54.5001 377.704,-47.5001"/>
</g>
</g>
</svg>
