<?xml version="1.0" encoding="UTF-8" standalone="no"?>
<!DOCTYPE svg PUBLIC "-//W3C//DTD SVG 1.1//EN"
 "http://www.w3.org/Graphics/SVG/1.1/DTD/svg11.dtd">
<!-- Generated by graphviz version 2.24.0 (20090616.2323)
 -->
<!-- Title: graph_load Pages: 1 -->
<!--zoomable 289 -->
<svg id="main" version="1.1" xmlns="http://www.w3.org/2000/svg" xmlns:xlink="http://www.w3.org/1999/xlink" xml:space="preserve" onload="init(evt)">
        <defs>
                <circle id="rim" cx="0" cy="0" r="7"/>
                <circle id="rim2" cx="0" cy="0" r="3.5"/>
                <g id="zoomPlus">
                        <use xlink:href="#rim" fill="#404040">
                                <set attributeName="fill" to="#808080" begin="zoomplus.mouseover" end="zoomplus.mouseout"/>
                        </use>
                        <path d="M-4,0h8M0,-4v8" fill="none" stroke="white" stroke-width="1.5" pointer-events="none"/>
                </g>
                <g id="zoomMin">
                        <use xlink:href="#rim" fill="#404040">
                                <set attributeName="fill" to="#808080" begin="zoomminus.mouseover" end="zoomminus.mouseout"/>
                        </use>
                        <path d="M-4,0h8" fill="none" stroke="white" stroke-width="1.5" pointer-events="none"/>
                </g>
                <g id="dirArrow">
                        <path fill="none" stroke="white" stroke-width="1.5" d="M0,-3.0v7 M-2.5,-0.5L0,-3.0L2.5,-0.5"/>
                </g>
               <g id="resetDef">
                       <use xlink:href="#rim2" fill="#404040">
                               <set attributeName="fill" to="#808080" begin="reset.mouseover" end="reset.mouseout"/>
                       </use>
               </g>
        </defs>

<script type="text/javascript">
var viewWidth = 1260;
var viewHeight = 289;
var sectionId = 'dynsection-6';
</script>
<script xlink:href="svgpan.js"/>
<svg id="graph" class="graph">
<g id="viewport">
<title>graph_load</title>
<polygon fill="white" stroke="white" points="-4,5 -4,-285 1257,-285 1257,5 -4,5"/>
<!-- Node1 -->
<g id="node1" class="node"><title>Node1</title>
<polygon fill="#bfbfbf" stroke="black" points="0.5,-120.5 0.5,-141.5 69.5,-141.5 69.5,-120.5 0.5,-120.5"/>
<text text-anchor="middle" x="35" y="-128.5" font-family="FreeSans" font-size="10.00">graph_load</text>
</g>
<!-- Node2 -->
<g id="node3" class="node"><title>Node2</title>
<a xlink:href="hfa-lnx_8c.html#a78ffddbcd7cdd164889cfb53ea367886" target="_top" xlink:title="entry">
<polygon fill="white" stroke="black" points="106.5,-120.5 106.5,-141.5 147.5,-141.5 147.5,-120.5 106.5,-120.5"/>
<text text-anchor="middle" x="127" y="-128.5" font-family="FreeSans" font-size="10.00">entry</text>
</a>
</g>
<!-- Node1&#45;&gt;Node2 -->
<g id="edge2" class="edge"><title>Node1&#45;&gt;Node2</title>
<path fill="none" stroke="midnightblue" d="M79.612,-131C89.0097,-131 98.4847,-131 106.466,-131"/>
<polygon fill="midnightblue" stroke="midnightblue" points="79.5192,-127.5 69.5192,-131 79.5191,-134.5 79.5192,-127.5"/>
</g>
<!-- Node3 -->
<g id="node5" class="node"><title>Node3</title>
<a xlink:href="cvm-hfa-pp_8c.html#adcc1149c628372e2e566c246870929cb" target="_top" xlink:title="infoentry">
<polygon fill="white" stroke="black" points="184.5,-120.5 184.5,-141.5 243.5,-141.5 243.5,-120.5 184.5,-120.5"/>
<text text-anchor="middle" x="214" y="-128.5" font-family="FreeSans" font-size="10.00">infoentry</text>
</a>
</g>
<!-- Node2&#45;&gt;Node3 -->
<g id="edge4" class="edge"><title>Node2&#45;&gt;Node3</title>
<path fill="none" stroke="midnightblue" d="M157.692,-131C166.337,-131 175.723,-131 184.309,-131"/>
<polygon fill="midnightblue" stroke="midnightblue" points="157.618,-127.5 147.618,-131 157.618,-134.5 157.618,-127.5"/>
</g>
<!-- Node4 -->
<g id="node7" class="node"><title>Node4</title>
<a xlink:href="ppdfa_8h.html#a81b3389c2c25a4ba308f71501f980e38" target="_top" xlink:title="pp">
<polygon fill="white" stroke="black" points="280.5,-120.5 280.5,-141.5 309.5,-141.5 309.5,-120.5 280.5,-120.5"/>
<text text-anchor="middle" x="295" y="-128.5" font-family="FreeSans" font-size="10.00">pp</text>
</a>
</g>
<!-- Node3&#45;&gt;Node4 -->
<g id="edge6" class="edge"><title>Node3&#45;&gt;Node4</title>
<path fill="none" stroke="midnightblue" d="M253.846,-131C263.302,-131 272.805,-131 280.293,-131"/>
<polygon fill="midnightblue" stroke="midnightblue" points="253.702,-127.5 243.701,-131 253.701,-134.5 253.702,-127.5"/>
</g>
<!-- Node5 -->
<g id="node9" class="node"><title>Node5</title>
<a xlink:href="cvm-hfa-search_8c.html#a6dbb15dc58155b2c94b19784ad42ef89" target="_top" xlink:title="This routine post&#45;processes the search results from the HFA engine and reports the pattern matches fo...">
<polygon fill="white" stroke="black" points="346.5,-120.5 346.5,-141.5 493.5,-141.5 493.5,-120.5 346.5,-120.5"/>
<text text-anchor="middle" x="420" y="-128.5" font-family="FreeSans" font-size="10.00">hfa_searchctx_getmatches</text>
</a>
</g>
<!-- Node4&#45;&gt;Node5 -->
<g id="edge8" class="edge"><title>Node4&#45;&gt;Node5</title>
<path fill="none" stroke="midnightblue" d="M319.986,-131C327.825,-131 336.914,-131 346.354,-131"/>
<polygon fill="midnightblue" stroke="midnightblue" points="319.83,-127.5 309.83,-131 319.83,-134.5 319.83,-127.5"/>
</g>
<!-- Node6 -->
<g id="node11" class="node"><title>Node6</title>
<a xlink:href="flow_8c.html#a2976ab60901b133a56214323fb901663" target="_top" xlink:title="Low level API to poll a flow.">
<polygon fill="white" stroke="black" points="530.5,-259.5 530.5,-280.5 659.5,-280.5 659.5,-259.5 530.5,-259.5"/>
<text text-anchor="middle" x="595" y="-267.5" font-family="FreeSans" font-size="10.00">__hfaf_process_pktflow</text>
</a>
</g>
<!-- Node5&#45;&gt;Node6 -->
<g id="edge10" class="edge"><title>Node5&#45;&gt;Node6</title>
<path fill="none" stroke="midnightblue" d="M437.543,-148.979C458.494,-169.954 495.1,-205.063 530,-231 544.365,-241.676 561.812,-252.015 575.012,-259.363"/>
<polygon fill="midnightblue" stroke="midnightblue" points="439.839,-146.323 430.316,-141.68 434.865,-151.249 439.839,-146.323"/>
</g>
<!-- Node12 -->
<g id="node23" class="node"><title>Node12</title>
<a xlink:href="hfa-lnx-async_8c.html#a972f8b60ef804914c009c2ef85bac50e" target="_top" xlink:title="Process search for given payload and graph.">
<polygon fill="white" stroke="black" points="549,-200.5 549,-221.5 641,-221.5 641,-200.5 549,-200.5"/>
<text text-anchor="middle" x="595" y="-208.5" font-family="FreeSans" font-size="10.00">process_search</text>
</a>
</g>
<!-- Node5&#45;&gt;Node12 -->
<g id="edge22" class="edge"><title>Node5&#45;&gt;Node12</title>
<path fill="none" stroke="midnightblue" d="M445.659,-146.921C467.497,-159.997 500.007,-178.357 530,-191 538.269,-194.485 547.357,-197.664 556.048,-200.411"/>
<polygon fill="midnightblue" stroke="midnightblue" points="447.358,-143.858 436.991,-141.673 443.732,-149.846 447.358,-143.858"/>
</g>
<!-- Node16 -->
<g id="node32" class="node"><title>Node16</title>
<a xlink:href="hfa-lnx-ctx_8c.html#a71e1d3d18cc48b90a1ecde583ffb3f7a" target="_top" xlink:title="poll_searchctx">
<polygon fill="white" stroke="black" points="552,-160.5 552,-181.5 638,-181.5 638,-160.5 552,-160.5"/>
<text text-anchor="middle" x="595" y="-168.5" font-family="FreeSans" font-size="10.00">poll_searchctx</text>
</a>
</g>
<!-- Node5&#45;&gt;Node16 -->
<g id="edge32" class="edge"><title>Node5&#45;&gt;Node16</title>
<path fill="none" stroke="midnightblue" d="M475.885,-143.774C500.439,-149.386 528.83,-155.875 551.735,-161.111"/>
<polygon fill="midnightblue" stroke="midnightblue" points="476.508,-140.326 465.979,-141.51 474.948,-147.15 476.508,-140.326"/>
</g>
<!-- Node19 -->
<g id="node38" class="node"><title>Node19</title>
<a xlink:href="hfa-lnx-linkgraph_8c.html#a78ffddbcd7cdd164889cfb53ea367886" target="_top" xlink:title="entry">
<polygon fill="white" stroke="black" points="574.5,-120.5 574.5,-141.5 615.5,-141.5 615.5,-120.5 574.5,-120.5"/>
<text text-anchor="middle" x="595" y="-128.5" font-family="FreeSans" font-size="10.00">entry</text>
</a>
</g>
<!-- Node5&#45;&gt;Node19 -->
<g id="edge38" class="edge"><title>Node5&#45;&gt;Node19</title>
<path fill="none" stroke="midnightblue" d="M503.738,-131C530.018,-131 556.75,-131 574.431,-131"/>
<polygon fill="midnightblue" stroke="midnightblue" points="503.709,-127.5 493.709,-131 503.709,-134.5 503.709,-127.5"/>
</g>
<!-- Node20 -->
<g id="node40" class="node"><title>Node20</title>
<a xlink:href="hfa-lnx-nctx-lock_8c.html#adb0c831ef0f9af5441a6769c377d9c95" target="_top" xlink:title="Post process the results from HFA and record found matches.">
<polygon fill="white" stroke="black" points="555,-80.5 555,-101.5 635,-101.5 635,-80.5 555,-80.5"/>
<text text-anchor="middle" x="595" y="-88.5" font-family="FreeSans" font-size="10.00">post_process</text>
</a>
</g>
<!-- Node5&#45;&gt;Node20 -->
<g id="edge40" class="edge"><title>Node5&#45;&gt;Node20</title>
<path fill="none" stroke="midnightblue" d="M475.97,-118.207C501.678,-112.331 531.577,-105.497 554.978,-100.148"/>
<polygon fill="midnightblue" stroke="midnightblue" points="474.948,-114.85 465.979,-120.49 476.508,-121.674 474.948,-114.85"/>
</g>
<!-- Node23 -->
<g id="node47" class="node"><title>Node23</title>
<a xlink:href="hfa-se-async_8c.html#a3c04138a5bfe5d72780bb7e82a18e627" target="_top" xlink:title="main">
<polygon fill="white" stroke="black" points="575,-40.5 575,-61.5 615,-61.5 615,-40.5 575,-40.5"/>
<text text-anchor="middle" x="595" y="-48.5" font-family="FreeSans" font-size="10.00">main</text>
</a>
</g>
<!-- Node5&#45;&gt;Node23 -->
<g id="edge48" class="edge"><title>Node5&#45;&gt;Node23</title>
<path fill="none" stroke="midnightblue" d="M445.659,-115.079C467.497,-102.003 500.007,-83.6427 530,-71 544.579,-64.8547 561.705,-59.663 574.717,-56.1103"/>
<polygon fill="midnightblue" stroke="midnightblue" points="443.732,-112.154 436.991,-120.327 447.358,-118.142 443.732,-112.154"/>
</g>
<!-- Node24 -->
<g id="node49" class="node"><title>Node24</title>
<a xlink:href="hfa-se-wqe-lock_8c.html#a06b5fcfab0e1d5eb36b633ec080ad7f9" target="_top" xlink:title="Process search for given contexts.">
<polygon fill="white" stroke="black" points="555,-0.5 555,-21.5 635,-21.5 635,-0.5 555,-0.5"/>
<text text-anchor="middle" x="595" y="-8.5" font-family="FreeSans" font-size="10.00">process_nctx</text>
</a>
</g>
<!-- Node5&#45;&gt;Node24 -->
<g id="edge50" class="edge"><title>Node5&#45;&gt;Node24</title>
<path fill="none" stroke="midnightblue" d="M435.6,-112.53C455.402,-90.1933 491.629,-52.876 530,-31 537.59,-26.6727 546.223,-23.176 554.663,-20.3913"/>
<polygon fill="midnightblue" stroke="midnightblue" points="432.768,-110.453 428.845,-120.294 438.049,-115.048 432.768,-110.453"/>
</g>
<!-- Node7 -->
<g id="node13" class="node"><title>Node7</title>
<a xlink:href="flow_8h.html#ab1b3378af88a440a6c3c0851be942e65" target="_top" xlink:title="All submitted search parameters in Paramlist of flow are polled If low level API __hfaf_process_pktfl...">
<polygon fill="white" stroke="black" points="696.5,-259.5 696.5,-280.5 815.5,-280.5 815.5,-259.5 696.5,-259.5"/>
<text text-anchor="middle" x="756" y="-267.5" font-family="FreeSans" font-size="10.00">hfaf_process_pktflow</text>
</a>
</g>
<!-- Node6&#45;&gt;Node7 -->
<g id="edge12" class="edge"><title>Node6&#45;&gt;Node7</title>
<path fill="none" stroke="midnightblue" d="M669.622,-270C678.594,-270 687.665,-270 696.384,-270"/>
<polygon fill="midnightblue" stroke="midnightblue" points="669.557,-266.5 659.557,-270 669.557,-273.5 669.557,-266.5"/>
</g>
<!-- Node8 -->
<g id="node15" class="node"><title>Node8</title>
<a xlink:href="hfa-se-flow_8c.html#a2d83c733eacd7afc955c3af18edcb52a" target="_top" xlink:title="Polls for a submitted search instruction of a flow.">
<polygon fill="white" stroke="black" points="855.5,-259.5 855.5,-280.5 940.5,-280.5 940.5,-259.5 855.5,-259.5"/>
<text text-anchor="middle" x="898" y="-267.5" font-family="FreeSans" font-size="10.00">__processflow</text>
</a>
</g>
<!-- Node7&#45;&gt;Node8 -->
<g id="edge14" class="edge"><title>Node7&#45;&gt;Node8</title>
<path fill="none" stroke="midnightblue" d="M826.083,-270C835.981,-270 845.902,-270 855.078,-270"/>
<polygon fill="midnightblue" stroke="midnightblue" points="825.809,-266.5 815.809,-270 825.809,-273.5 825.809,-266.5"/>
</g>
<!-- Node9 -->
<g id="node17" class="node"><title>Node9</title>
<a xlink:href="hfa-se-flow_8c.html#a786591694a8f8fb46cedbc8a580c88f6" target="_top" xlink:title="Submitting or Polling flows from the software recently used cache IF Cache is empty, it tries to refill it.">
<polygon fill="white" stroke="black" points="980.5,-259.5 980.5,-280.5 1043.5,-280.5 1043.5,-259.5 980.5,-259.5"/>
<text text-anchor="middle" x="1012" y="-267.5" font-family="FreeSans" font-size="10.00">do_cache</text>
</a>
</g>
<!-- Node8&#45;&gt;Node9 -->
<g id="edge16" class="edge"><title>Node8&#45;&gt;Node9</title>
<path fill="none" stroke="midnightblue" d="M950.784,-270C960.902,-270 971.197,-270 980.387,-270"/>
<polygon fill="midnightblue" stroke="midnightblue" points="950.774,-266.5 940.774,-270 950.774,-273.5 950.774,-266.5"/>
</g>
<!-- Node10 -->
<g id="node19" class="node"><title>Node10</title>
<a xlink:href="hfa-se-flow_8c.html#aba72a61590283e37ffd78b4defd38220" target="_top" xlink:title="Receive network packets and process.">
<polygon fill="white" stroke="black" points="1080,-259.5 1080,-280.5 1176,-280.5 1176,-259.5 1080,-259.5"/>
<text text-anchor="middle" x="1128" y="-267.5" font-family="FreeSans" font-size="10.00">process_packets</text>
</a>
</g>
<!-- Node9&#45;&gt;Node10 -->
<g id="edge18" class="edge"><title>Node9&#45;&gt;Node10</title>
<path fill="none" stroke="midnightblue" d="M1053.71,-270C1062.17,-270 1071.13,-270 1079.79,-270"/>
<polygon fill="midnightblue" stroke="midnightblue" points="1053.7,-266.5 1043.7,-270 1053.7,-273.5 1053.7,-266.5"/>
</g>
<!-- Node11 -->
<g id="node21" class="node"><title>Node11</title>
<a xlink:href="hfa-se-flow-wqe_8c.html#a3c04138a5bfe5d72780bb7e82a18e627" target="_top" xlink:title="Implementation.">
<polygon fill="white" stroke="black" points="1212,-259.5 1212,-280.5 1252,-280.5 1252,-259.5 1212,-259.5"/>
<text text-anchor="middle" x="1232" y="-267.5" font-family="FreeSans" font-size="10.00">main</text>
</a>
</g>
<!-- Node10&#45;&gt;Node11 -->
<g id="edge20" class="edge"><title>Node10&#45;&gt;Node11</title>
<path fill="none" stroke="midnightblue" d="M1186.15,-270C1195.41,-270 1204.42,-270 1211.96,-270"/>
<polygon fill="midnightblue" stroke="midnightblue" points="1186.04,-266.5 1176.04,-270 1186.04,-273.5 1186.04,-266.5"/>
</g>
<!-- Node13 -->
<g id="node25" class="node"><title>Node13</title>
<a xlink:href="hfa-lnx-async_8c.html#a1e97b1d598034fdc92d57054a6c386e6" target="_top" xlink:title="tasklet_callback">
<polygon fill="white" stroke="black" points="710,-219.5 710,-240.5 802,-240.5 802,-219.5 710,-219.5"/>
<text text-anchor="middle" x="756" y="-227.5" font-family="FreeSans" font-size="10.00">tasklet_callback</text>
</a>
</g>
<!-- Node12&#45;&gt;Node13 -->
<g id="edge24" class="edge"><title>Node12&#45;&gt;Node13</title>
<path fill="none" stroke="midnightblue" d="M651.242,-217.637C670.401,-219.898 691.583,-222.398 709.857,-224.555"/>
<polygon fill="midnightblue" stroke="midnightblue" points="651.477,-214.141 641.136,-216.445 650.657,-221.093 651.477,-214.141"/>
</g>
<!-- Node15 -->
<g id="node29" class="node"><title>Node15</title>
<a xlink:href="hfa-lnx-async_8c.html#a7dea7d59754828b1173c4c7ec5d42f3e" target="_top" xlink:title="thread_callback">
<polygon fill="white" stroke="black" points="710,-179.5 710,-200.5 802,-200.5 802,-179.5 710,-179.5"/>
<text text-anchor="middle" x="756" y="-187.5" font-family="FreeSans" font-size="10.00">thread_callback</text>
</a>
</g>
<!-- Node12&#45;&gt;Node15 -->
<g id="edge28" class="edge"><title>Node12&#45;&gt;Node15</title>
<path fill="none" stroke="midnightblue" d="M651.242,-203.664C670.401,-201.165 691.583,-198.402 709.857,-196.019"/>
<polygon fill="midnightblue" stroke="midnightblue" points="650.599,-200.218 641.136,-204.982 651.505,-207.159 650.599,-200.218"/>
</g>
<!-- Node14 -->
<g id="node27" class="node"><title>Node14</title>
<a xlink:href="hfa-lnx-async_8c.html#a78ffddbcd7cdd164889cfb53ea367886" target="_top" xlink:title="entry">
<polygon fill="white" stroke="black" points="877.5,-199.5 877.5,-220.5 918.5,-220.5 918.5,-199.5 877.5,-199.5"/>
<text text-anchor="middle" x="898" y="-207.5" font-family="FreeSans" font-size="10.00">entry</text>
</a>
</g>
<!-- Node13&#45;&gt;Node14 -->
<g id="edge26" class="edge"><title>Node13&#45;&gt;Node14</title>
<path fill="none" stroke="midnightblue" d="M812.147,-222.092C835.168,-218.85 860.37,-215.3 877.476,-212.891"/>
<polygon fill="midnightblue" stroke="midnightblue" points="811.517,-218.646 802.103,-223.507 812.494,-225.578 811.517,-218.646"/>
</g>
<!-- Node15&#45;&gt;Node14 -->
<g id="edge30" class="edge"><title>Node15&#45;&gt;Node14</title>
<path fill="none" stroke="midnightblue" d="M812.147,-197.908C835.168,-201.15 860.37,-204.7 877.476,-207.109"/>
<polygon fill="midnightblue" stroke="midnightblue" points="812.494,-194.422 802.103,-196.493 811.517,-201.354 812.494,-194.422"/>
</g>
<!-- Node17 -->
<g id="node34" class="node"><title>Node17</title>
<a xlink:href="hfa-lnx-ctx_8c.html#a934a9fc08c4aab25d6f0d861e4a4f762" target="_top" xlink:title="poll">
<polygon fill="white" stroke="black" points="739.5,-139.5 739.5,-160.5 772.5,-160.5 772.5,-139.5 739.5,-139.5"/>
<text text-anchor="middle" x="756" y="-147.5" font-family="FreeSans" font-size="10.00">poll</text>
</a>
</g>
<!-- Node16&#45;&gt;Node17 -->
<g id="edge34" class="edge"><title>Node16&#45;&gt;Node17</title>
<path fill="none" stroke="midnightblue" d="M648.199,-164.061C679.953,-159.919 718.135,-154.939 739.478,-152.155"/>
<polygon fill="midnightblue" stroke="midnightblue" points="647.608,-160.608 638.145,-165.372 648.514,-167.55 647.608,-160.608"/>
</g>
<!-- Node18 -->
<g id="node36" class="node"><title>Node18</title>
<a xlink:href="hfa-lnx-ctx_8c.html#a97df0ba8293c1b8436547946fd9d0d17" target="_top" xlink:title="process_pkt">
<polygon fill="white" stroke="black" points="861,-139.5 861,-160.5 935,-160.5 935,-139.5 861,-139.5"/>
<text text-anchor="middle" x="898" y="-147.5" font-family="FreeSans" font-size="10.00">process_pkt</text>
</a>
</g>
<!-- Node17&#45;&gt;Node18 -->
<g id="edge36" class="edge"><title>Node17&#45;&gt;Node18</title>
<path fill="none" stroke="midnightblue" d="M782.858,-150C804.909,-150 836.376,-150 860.843,-150"/>
<polygon fill="midnightblue" stroke="midnightblue" points="782.567,-146.5 772.567,-150 782.567,-153.5 782.567,-146.5"/>
</g>
<!-- Node21 -->
<g id="node42" class="node"><title>Node21</title>
<a xlink:href="hfa-lnx-nctx-lock_8c.html#a48d3743fb7abc7d3c6b68359678e52a1" target="_top" xlink:title="Poll for the pending search instructions in the HW (blocked till instruction completes) and process t...">
<polygon fill="white" stroke="black" points="739.5,-90.5 739.5,-111.5 772.5,-111.5 772.5,-90.5 739.5,-90.5"/>
<text text-anchor="middle" x="756" y="-98.5" font-family="FreeSans" font-size="10.00">poll</text>
</a>
</g>
<!-- Node20&#45;&gt;Node21 -->
<g id="edge42" class="edge"><title>Node20&#45;&gt;Node21</title>
<path fill="none" stroke="midnightblue" d="M645.363,-94.1281C677.538,-96.1266 717.22,-98.5913 739.249,-99.9596"/>
<polygon fill="midnightblue" stroke="midnightblue" points="645.41,-90.6244 635.212,-93.4976 644.976,-97.6109 645.41,-90.6244"/>
</g>
<!-- Node22 -->
<g id="node44" class="node"><title>Node22</title>
<a xlink:href="hfa-lnx-nctx-lock_8c.html#a972f8b60ef804914c009c2ef85bac50e" target="_top" xlink:title="Performs search process for each core.">
<polygon fill="white" stroke="black" points="852,-71.5 852,-92.5 944,-92.5 944,-71.5 852,-71.5"/>
<text text-anchor="middle" x="898" y="-79.5" font-family="FreeSans" font-size="10.00">process_search</text>
</a>
</g>
<!-- Node20&#45;&gt;Node22 -->
<g id="edge46" class="edge"><title>Node20&#45;&gt;Node22</title>
<path fill="none" stroke="midnightblue" d="M645.524,-85.0106C661.631,-83.3661 679.542,-81.8128 696,-81 749.268,-78.3694 762.668,-80.6748 816,-81 827.532,-81.0703 839.976,-81.1962 851.599,-81.3356"/>
<polygon fill="midnightblue" stroke="midnightblue" points="644.81,-81.5664 635.233,-86.0975 645.546,-88.5277 644.81,-81.5664"/>
</g>
<!-- Node21&#45;&gt;Node22 -->
<g id="edge44" class="edge"><title>Node21&#45;&gt;Node22</title>
<path fill="none" stroke="midnightblue" d="M782.532,-97.4499C801.979,-94.8479 828.875,-91.2491 851.817,-88.1794"/>
<polygon fill="midnightblue" stroke="midnightblue" points="782.015,-93.9879 772.567,-98.7833 782.943,-100.926 782.015,-93.9879"/>
</g>
<!-- Node25 -->
<g id="node51" class="node"><title>Node25</title>
<a xlink:href="hfa-se-wqe-lock_8c.html#a3c04138a5bfe5d72780bb7e82a18e627" target="_top" xlink:title="main">
<polygon fill="white" stroke="black" points="736,-0.5 736,-21.5 776,-21.5 776,-0.5 736,-0.5"/>
<text text-anchor="middle" x="756" y="-8.5" font-family="FreeSans" font-size="10.00">main</text>
</a>
</g>
<!-- Node24&#45;&gt;Node25 -->
<g id="edge52" class="edge"><title>Node24&#45;&gt;Node25</title>
<path fill="none" stroke="midnightblue" d="M645.298,-11C675.9,-11 713.313,-11 735.869,-11"/>
<polygon fill="midnightblue" stroke="midnightblue" points="645.212,-7.5001 635.212,-11 645.212,-14.5001 645.212,-7.5001"/>
</g>
</g>
</svg>
        <g id="navigator" transform="translate(0 0)" fill="#404254">
                <rect fill="#f2f5e9" fill-opacity="0.5" stroke="#606060" stroke-width=".5" x="0" y="0" width="60" height="60"/>
                <use id="zoomplus" xlink:href="#zoomPlus" x="17" y="9" onmousedown="handleZoom(evt,'in')"/>
                <use id="zoomminus" xlink:href="#zoomMin" x="42" y="9" onmousedown="handleZoom(evt,'out')"/>
                <use id="reset" xlink:href="#resetDef" x="30" y="36" onmousedown="handleReset()"/>
                <g id="arrowUp" xlink:href="#dirArrow" transform="translate(30 24)" onmousedown="handlePan(0,-1)">
                  <use xlink:href="#rim" fill="#404040">
                        <set attributeName="fill" to="#808080" begin="arrowUp.mouseover" end="arrowUp.mouseout"/>
                  </use>
                  <path fill="none" stroke="white" stroke-width="1.5" d="M0,-3.0v7 M-2.5,-0.5L0,-3.0L2.5,-0.5"/>
                </g>
                <g id="arrowRight" xlink:href="#dirArrow" transform="rotate(90) translate(36 -43)" onmousedown="handlePan(1,0)">
                  <use xlink:href="#rim" fill="#404040">
                        <set attributeName="fill" to="#808080" begin="arrowRight.mouseover" end="arrowRight.mouseout"/>
                  </use>
                  <path fill="none" stroke="white" stroke-width="1.5" d="M0,-3.0v7 M-2.5,-0.5L0,-3.0L2.5,-0.5"/>
                </g>
                <g id="arrowDown" xlink:href="#dirArrow" transform="rotate(180) translate(-30 -48)" onmousedown="handlePan(0,1)">
                  <use xlink:href="#rim" fill="#404040">
                        <set attributeName="fill" to="#808080" begin="arrowDown.mouseover" end="arrowDown.mouseout"/>
                  </use>
                  <path fill="none" stroke="white" stroke-width="1.5" d="M0,-3.0v7 M-2.5,-0.5L0,-3.0L2.5,-0.5"/>
                </g>
                <g id="arrowLeft" xlink:href="#dirArrow" transform="rotate(270) translate(-36 17)" onmousedown="handlePan(-1,0)">
                  <use xlink:href="#rim" fill="#404040">
                        <set attributeName="fill" to="#808080" begin="arrowLeft.mouseover" end="arrowLeft.mouseout"/>
                  </use>
                  <path fill="none" stroke="white" stroke-width="1.5" d="M0,-3.0v7 M-2.5,-0.5L0,-3.0L2.5,-0.5"/>
                </g>
        </g>
        <svg viewBox="0 0 15 15" width="100%" height="30px" preserveAspectRatio="xMaxYMin meet">
         <g id="arrow_out" transform="scale(0.3 0.3)">
          <a xlink:href="hfa-lnx_8c_a546f3769e735d4bef0bfab1cba56921c_icgraph_org.svg" target="_base">
           <rect id="button" ry="5" rx="5" y="6" x="6" height="38" width="38"
                fill="#f2f5e9" fill-opacity="0.5" stroke="#606060" stroke-width="1.0"/>
           <path id="arrow"
             d="M 11.500037,31.436501 C 11.940474,20.09759 22.043105,11.32322 32.158766,21.979434 L 37.068811,17.246167 C 37.068811,17.246167 37.088388,32 37.088388,32 L 22.160133,31.978069 C 22.160133,31.978069 26.997745,27.140456 26.997745,27.140456 C 18.528582,18.264221 13.291696,25.230495 11.500037,31.436501 z"
             style="fill:#404040;"/>
          </a>
         </g>
        </svg>
</svg>
