<?xml version="1.0" encoding="UTF-8" standalone="no"?>
<!DOCTYPE svg PUBLIC "-//W3C//DTD SVG 1.1//EN"
 "http://www.w3.org/Graphics/SVG/1.1/DTD/svg11.dtd">
<!-- Generated by graphviz version 2.24.0 (20090616.2323)
 -->
<!-- Title: process_hwwqe Pages: 1 -->
<svg width="290pt" height="70pt"
 viewBox="0.00 0.00 290.00 70.00" xmlns="http://www.w3.org/2000/svg" xmlns:xlink="http://www.w3.org/1999/xlink">
<g id="graph1" class="graph" transform="scale(1 1) rotate(0) translate(4 66)">
<title>process_hwwqe</title>
<polygon fill="white" stroke="white" points="-4,5 -4,-66 287,-66 287,5 -4,5"/>
<!-- Node1 -->
<g id="node1" class="node"><title>Node1</title>
<polygon fill="#bfbfbf" stroke="black" points="0,-20.5 0,-41.5 94,-41.5 94,-20.5 0,-20.5"/>
<text text-anchor="middle" x="47" y="-28.5" font-family="FreeSans" font-size="10.00">process_hwwqe</text>
</g>
<!-- Node2 -->
<g id="node3" class="node"><title>Node2</title>
<a xlink:href="cvm-hfa-common_8h.html#ab6b5a9b432c71164f1c1aaa4db029031" target="_top" xlink:title="This routine is for getting WQE type.">
<polygon fill="white" stroke="black" points="154,-40.5 154,-61.5 258,-61.5 258,-40.5 154,-40.5"/>
<text text-anchor="middle" x="206" y="-48.5" font-family="FreeSans" font-size="10.00">hfa_get_wqe_type</text>
</a>
</g>
<!-- Node1&#45;&gt;Node2 -->
<g id="edge2" class="edge"><title>Node1&#45;&gt;Node2</title>
<path fill="none" stroke="midnightblue" d="M94.2748,-36.9465C109.815,-38.9013 127.333,-41.1048 143.809,-43.1772"/>
<polygon fill="midnightblue" stroke="midnightblue" points="143.547,-46.6718 153.906,-44.4472 144.421,-39.7265 143.547,-46.6718"/>
</g>
<!-- Node3 -->
<g id="node5" class="node"><title>Node3</title>
<a xlink:href="cvm-hfa-search_8c.html#a4e3a1a826235d80899e23fb44c69eb0f" target="_top" xlink:title="This routine handles HFA WQE posted by HFA engine to indicate instruction completion.">
<polygon fill="white" stroke="black" points="130.5,-0.5 130.5,-21.5 281.5,-21.5 281.5,-0.5 130.5,-0.5"/>
<text text-anchor="middle" x="206" y="-8.5" font-family="FreeSans" font-size="10.00">hfa_searchctx_processwork</text>
</a>
</g>
<!-- Node1&#45;&gt;Node3 -->
<g id="edge4" class="edge"><title>Node1&#45;&gt;Node3</title>
<path fill="none" stroke="midnightblue" d="M94.2748,-25.0535C102.522,-24.0161 111.326,-22.9087 120.236,-21.7879"/>
<polygon fill="midnightblue" stroke="midnightblue" points="120.831,-25.2407 130.316,-20.52 119.958,-18.2954 120.831,-25.2407"/>
</g>
</g>
</svg>
