<?xml version="1.0" encoding="UTF-8" standalone="no"?>
<!DOCTYPE svg PUBLIC "-//W3C//DTD SVG 1.1//EN"
 "http://www.w3.org/Graphics/SVG/1.1/DTD/svg11.dtd">
<!-- Generated by graphviz version 2.24.0 (20090616.2323)
 -->
<!-- Title: sendpktwqe Pages: 1 -->
<svg width="188pt" height="110pt"
 viewBox="0.00 0.00 188.00 110.00" xmlns="http://www.w3.org/2000/svg" xmlns:xlink="http://www.w3.org/1999/xlink">
<g id="graph1" class="graph" transform="scale(1 1) rotate(0) translate(4 106)">
<title>sendpktwqe</title>
<polygon fill="white" stroke="white" points="-4,5 -4,-106 185,-106 185,5 -4,5"/>
<!-- Node1 -->
<g id="node1" class="node"><title>Node1</title>
<polygon fill="#bfbfbf" stroke="black" points="0,-40.5 0,-61.5 74,-61.5 74,-40.5 0,-40.5"/>
<text text-anchor="middle" x="37" y="-48.5" font-family="FreeSans" font-size="10.00">sendpktwqe</text>
</g>
<!-- Node2 -->
<g id="node3" class="node"><title>Node2</title>
<a xlink:href="hfa-se-ctx_8c.html#aee1d462f9d43161cf38d392ac80596a7" target="_top" xlink:title="Signal handler for CTRL+C(SIGINT)">
<polygon fill="white" stroke="black" points="110,-80.5 110,-101.5 180,-101.5 180,-80.5 110,-80.5"/>
<text text-anchor="middle" x="145" y="-88.5" font-family="FreeSans" font-size="10.00">freepktwqe</text>
</a>
</g>
<!-- Node1&#45;&gt;Node2 -->
<g id="edge2" class="edge"><title>Node1&#45;&gt;Node2</title>
<path fill="none" stroke="midnightblue" d="M65.3757,-61.5095C78.049,-66.2033 93.1735,-71.805 106.82,-76.8592"/>
<polygon fill="midnightblue" stroke="midnightblue" points="105.846,-80.2307 116.439,-80.4218 108.277,-73.6665 105.846,-80.2307"/>
</g>
<!-- Node3 -->
<g id="node5" class="node"><title>Node3</title>
<a xlink:href="hfa-se-flow_8c.html#a49535197bf697f5b0b5f2952e1e5063c" target="_top" xlink:title="Free packet buffer and wqe to the corresponding fpa pools.">
<polygon fill="white" stroke="black" points="125.5,-40.5 125.5,-61.5 164.5,-61.5 164.5,-40.5 125.5,-40.5"/>
<text text-anchor="middle" x="145" y="-48.5" font-family="FreeSans" font-size="10.00">send</text>
</a>
</g>
<!-- Node1&#45;&gt;Node3 -->
<g id="edge4" class="edge"><title>Node1&#45;&gt;Node3</title>
<path fill="none" stroke="midnightblue" d="M74.1675,-51C87.6102,-51 102.599,-51 115.315,-51"/>
<polygon fill="midnightblue" stroke="midnightblue" points="115.377,-54.5001 125.377,-51 115.377,-47.5001 115.377,-54.5001"/>
</g>
<!-- Node4 -->
<g id="node7" class="node"><title>Node4</title>
<a xlink:href="hfa-se-ctx_8c.html#abb3fee4415d5c2eb56562bf80c4e75f9" target="_top" xlink:title="Resubmit WQE to HW.">
<polygon fill="white" stroke="black" points="116,-0.5 116,-21.5 174,-21.5 174,-0.5 116,-0.5"/>
<text text-anchor="middle" x="145" y="-8.5" font-family="FreeSans" font-size="10.00">resubmit</text>
</a>
</g>
<!-- Node1&#45;&gt;Node4 -->
<g id="edge6" class="edge"><title>Node1&#45;&gt;Node4</title>
<path fill="none" stroke="midnightblue" d="M65.3757,-40.4905C78.049,-35.7967 93.1735,-30.195 106.82,-25.1408"/>
<polygon fill="midnightblue" stroke="midnightblue" points="108.277,-28.3335 116.439,-21.5782 105.846,-21.7693 108.277,-28.3335"/>
</g>
</g>
</svg>
