<?xml version="1.0" encoding="UTF-8" standalone="no"?>
<!DOCTYPE svg PUBLIC "-//W3C//DTD SVG 1.1//EN"
 "http://www.w3.org/Graphics/SVG/1.1/DTD/svg11.dtd">
<!-- Generated by graphviz version 2.24.0 (20090616.2323)
 -->
<!-- Title: poll_searchctx Pages: 1 -->
<!--zoomable 871 -->
<svg id="main" version="1.1" xmlns="http://www.w3.org/2000/svg" xmlns:xlink="http://www.w3.org/1999/xlink" xml:space="preserve" onload="init(evt)">
        <defs>
                <circle id="rim" cx="0" cy="0" r="7"/>
                <circle id="rim2" cx="0" cy="0" r="3.5"/>
                <g id="zoomPlus">
                        <use xlink:href="#rim" fill="#404040">
                                <set attributeName="fill" to="#808080" begin="zoomplus.mouseover" end="zoomplus.mouseout"/>
                        </use>
                        <path d="M-4,0h8M0,-4v8" fill="none" stroke="white" stroke-width="1.5" pointer-events="none"/>
                </g>
                <g id="zoomMin">
                        <use xlink:href="#rim" fill="#404040">
                                <set attributeName="fill" to="#808080" begin="zoomminus.mouseover" end="zoomminus.mouseout"/>
                        </use>
                        <path d="M-4,0h8" fill="none" stroke="white" stroke-width="1.5" pointer-events="none"/>
                </g>
                <g id="dirArrow">
                        <path fill="none" stroke="white" stroke-width="1.5" d="M0,-3.0v7 M-2.5,-0.5L0,-3.0L2.5,-0.5"/>
                </g>
               <g id="resetDef">
                       <use xlink:href="#rim2" fill="#404040">
                               <set attributeName="fill" to="#808080" begin="reset.mouseover" end="reset.mouseout"/>
                       </use>
               </g>
        </defs>

<script type="text/javascript">
var viewWidth = 1294;
var viewHeight = 871;
var sectionId = 'dynsection-16';
</script>
<script xlink:href="svgpan.js"/>
<svg id="graph" class="graph">
<g id="viewport">
<title>poll_searchctx</title>
<polygon fill="white" stroke="white" points="-4,5 -4,-867 1291,-867 1291,5 -4,5"/>
<!-- Node1 -->
<g id="node1" class="node"><title>Node1</title>
<polygon fill="#bfbfbf" stroke="black" points="0,-238.5 0,-259.5 86,-259.5 86,-238.5 0,-238.5"/>
<text text-anchor="middle" x="43" y="-246.5" font-family="FreeSans" font-size="10.00">poll_searchctx</text>
</g>
<!-- Node2 -->
<g id="node3" class="node"><title>Node2</title>
<a xlink:href="cvm-hfa-search_8c.html#a6a8e1d7e70e0a10520302df5651e5fc5" target="_top" xlink:title="This routine provides the status of an outstanding pattern search operation initiated using hfa_searc...">
<polygon fill="white" stroke="black" points="776,-20.5 776,-41.5 948,-41.5 948,-20.5 776,-20.5"/>
<text text-anchor="middle" x="862" y="-28.5" font-family="FreeSans" font-size="10.00">hfa_searchctx_get_searchstatus</text>
</a>
</g>
<!-- Node1&#45;&gt;Node2 -->
<g id="edge2" class="edge"><title>Node1&#45;&gt;Node2</title>
<path fill="none" stroke="midnightblue" d="M49.497,-238.292C78.2956,-192.319 199.627,-14 349,-14 349,-14 349,-14 551,-14 623.095,-14 704.451,-18.6112 765.867,-23.0304"/>
<polygon fill="midnightblue" stroke="midnightblue" points="765.705,-26.5278 775.933,-23.7658 766.215,-19.5464 765.705,-26.5278"/>
</g>
<!-- Node6 -->
<g id="node11" class="node"><title>Node6</title>
<a xlink:href="cvm-hfa-search_8h.html#ab50a2d84e35b5a4a03a23fc90e4dffa0" target="_top" xlink:title="This routine retrieves the reason code after a search operation has been completed by the HFA engine...">
<polygon fill="white" stroke="black" points="616,-689 616,-723 738,-723 738,-689 616,-689"/>
<text text-anchor="start" x="624" y="-710" font-family="FreeSans" font-size="10.00">hfa_searchparam_get</text>
<text text-anchor="middle" x="677" y="-697" font-family="FreeSans" font-size="10.00">_hwsearch_reason</text>
</a>
</g>
<!-- Node1&#45;&gt;Node6 -->
<g id="edge10" class="edge"><title>Node1&#45;&gt;Node6</title>
<path fill="none" stroke="midnightblue" d="M48.2143,-259.506C73.625,-309.055 189.753,-517 349,-517 349,-517 349,-517 458,-517 558.276,-517 531.203,-623.432 614,-680 616.094,-681.431 618.28,-682.805 620.526,-684.12"/>
<polygon fill="midnightblue" stroke="midnightblue" points="618.966,-687.255 629.431,-688.908 622.281,-681.09 618.966,-687.255"/>
</g>
<!-- Node7 -->
<g id="node13" class="node"><title>Node7</title>
<a xlink:href="cvm-hfa-search_8c.html#a6dbb15dc58155b2c94b19784ad42ef89" target="_top" xlink:title="This routine post&#45;processes the search results from the HFA engine and reports the pattern matches fo...">
<polygon fill="white" stroke="black" points="122.5,-238.5 122.5,-259.5 269.5,-259.5 269.5,-238.5 122.5,-238.5"/>
<text text-anchor="middle" x="196" y="-246.5" font-family="FreeSans" font-size="10.00">hfa_searchctx_getmatches</text>
</a>
</g>
<!-- Node1&#45;&gt;Node7 -->
<g id="edge12" class="edge"><title>Node1&#45;&gt;Node7</title>
<path fill="none" stroke="midnightblue" d="M86.0262,-249C94.2461,-249 103.108,-249 112.108,-249"/>
<polygon fill="midnightblue" stroke="midnightblue" points="112.301,-252.5 122.301,-249 112.301,-245.5 112.301,-252.5"/>
</g>
<!-- Node3 -->
<g id="node5" class="node"><title>Node3</title>
<a xlink:href="cvm-hfa_8c.html#a4753d2dd586e19676b1a59dd16baaeed" target="_top" xlink:title="Obtain status of submitted insruction.">
<polygon fill="white" stroke="black" points="984.5,-20.5 984.5,-41.5 1117.5,-41.5 1117.5,-20.5 984.5,-20.5"/>
<text text-anchor="middle" x="1051" y="-28.5" font-family="FreeSans" font-size="10.00">hfa_dev_getasyncstatus</text>
</a>
</g>
<!-- Node2&#45;&gt;Node3 -->
<g id="edge4" class="edge"><title>Node2&#45;&gt;Node3</title>
<path fill="none" stroke="midnightblue" d="M948.204,-31C956.951,-31 965.793,-31 974.428,-31"/>
<polygon fill="midnightblue" stroke="midnightblue" points="974.452,-34.5001 984.452,-31 974.452,-27.5001 974.452,-34.5001"/>
</g>
<!-- Node4 -->
<g id="node7" class="node"><title>Node4</title>
<a xlink:href="cvm-hfa-instr_8h.html#a56f2522dcba965745a1bc239fc432dca" target="_top" xlink:title="Gets done from RWORD0.">
<polygon fill="white" stroke="black" points="1158.5,-40.5 1158.5,-61.5 1281.5,-61.5 1281.5,-40.5 1158.5,-40.5"/>
<text text-anchor="middle" x="1220" y="-48.5" font-family="FreeSans" font-size="10.00">cvm_hfa_rslt_getdone</text>
</a>
</g>
<!-- Node3&#45;&gt;Node4 -->
<g id="edge6" class="edge"><title>Node3&#45;&gt;Node4</title>
<path fill="none" stroke="midnightblue" d="M1117.79,-38.9045C1127.83,-40.0919 1138.21,-41.3206 1148.34,-42.5194"/>
<polygon fill="midnightblue" stroke="midnightblue" points="1148.02,-46.0061 1158.36,-43.7057 1148.84,-39.0546 1148.02,-46.0061"/>
</g>
<!-- Node5 -->
<g id="node9" class="node"><title>Node5</title>
<a xlink:href="cvm-hfa-instr_8h.html#a9700a50b68b6616506528eb725a8bda1" target="_top" xlink:title="Gets reason from RWORD0.">
<polygon fill="white" stroke="black" points="1154.5,-0.5 1154.5,-21.5 1285.5,-21.5 1285.5,-0.5 1154.5,-0.5"/>
<text text-anchor="middle" x="1220" y="-8.5" font-family="FreeSans" font-size="10.00">cvm_hfa_rslt_getreason</text>
</a>
</g>
<!-- Node3&#45;&gt;Node5 -->
<g id="edge8" class="edge"><title>Node3&#45;&gt;Node5</title>
<path fill="none" stroke="midnightblue" d="M1117.79,-23.0955C1126.41,-22.0753 1135.29,-21.0246 1144.05,-19.9885"/>
<polygon fill="midnightblue" stroke="midnightblue" points="1144.73,-23.4328 1154.24,-18.7817 1143.9,-16.4813 1144.73,-23.4328"/>
</g>
<!-- Node8 -->
<g id="node15" class="node"><title>Node8</title>
<a xlink:href="cvm-hfa-common_8h.html#a0da7c57174fb96d75ae9cc2ed3116a05" target="_top" xlink:title="Dump buffer pointed by &quot;buf&quot; in readable format.">
<polygon fill="white" stroke="black" points="306,-198.5 306,-219.5 392,-219.5 392,-198.5 306,-198.5"/>
<text text-anchor="middle" x="349" y="-206.5" font-family="FreeSans" font-size="10.00">hfa_dump_buf</text>
</a>
</g>
<!-- Node7&#45;&gt;Node8 -->
<g id="edge14" class="edge"><title>Node7&#45;&gt;Node8</title>
<path fill="none" stroke="midnightblue" d="M236.199,-238.49C255.449,-233.458 278.691,-227.381 299.064,-222.055"/>
<polygon fill="midnightblue" stroke="midnightblue" points="300.015,-225.424 308.804,-219.509 298.244,-218.652 300.015,-225.424"/>
</g>
<!-- Node9 -->
<g id="node17" class="node"><title>Node9</title>
<a xlink:href="cvm-hfa-pp_8c.html#a02d24f276578f8a39a93968262a08f1d" target="_top" xlink:title="pp">
<polygon fill="white" stroke="black" points="334.5,-238.5 334.5,-259.5 363.5,-259.5 363.5,-238.5 334.5,-238.5"/>
<text text-anchor="middle" x="349" y="-246.5" font-family="FreeSans" font-size="10.00">pp</text>
</a>
</g>
<!-- Node7&#45;&gt;Node9 -->
<g id="edge16" class="edge"><title>Node7&#45;&gt;Node9</title>
<path fill="none" stroke="midnightblue" d="M269.811,-249C289.297,-249 309.016,-249 323.902,-249"/>
<polygon fill="midnightblue" stroke="midnightblue" points="324.26,-252.5 334.26,-249 324.26,-245.5 324.26,-252.5"/>
</g>
<!-- Node10 -->
<g id="node19" class="node"><title>Node10</title>
<a xlink:href="pp_8h.html#af7a68f9e08d3b54012ad008a4f47e1cd" target="_top" xlink:title="pphfa">
<polygon fill="white" stroke="black" points="436,-178.5 436,-199.5 480,-199.5 480,-178.5 436,-178.5"/>
<text text-anchor="middle" x="458" y="-186.5" font-family="FreeSans" font-size="10.00">pphfa</text>
</a>
</g>
<!-- Node9&#45;&gt;Node10 -->
<g id="edge18" class="edge"><title>Node9&#45;&gt;Node10</title>
<path fill="none" stroke="midnightblue" d="M363.527,-242.721C371.952,-238.961 382.702,-233.961 392,-229 405.847,-221.612 420.841,-212.61 433.033,-205.018"/>
<polygon fill="midnightblue" stroke="midnightblue" points="435.144,-207.825 441.745,-199.537 431.417,-201.9 435.144,-207.825"/>
</g>
<!-- Node11 -->
<g id="node21" class="node"><title>Node11</title>
<a xlink:href="cvm-hfa-res_8c.html#ad0de0b790a5786053d59797884dbdd23" target="_top" xlink:title="Rinit">
<polygon fill="white" stroke="black" points="440,-138.5 440,-159.5 476,-159.5 476,-138.5 440,-138.5"/>
<text text-anchor="middle" x="458" y="-146.5" font-family="FreeSans" font-size="10.00">Rinit</text>
</a>
</g>
<!-- Node9&#45;&gt;Node11 -->
<g id="edge20" class="edge"><title>Node9&#45;&gt;Node11</title>
<path fill="none" stroke="midnightblue" d="M363.807,-244.586C372.742,-241.361 383.922,-236.271 392,-229 415.114,-208.195 406.539,-191.507 428,-169 429.188,-167.754 430.467,-166.545 431.803,-165.38"/>
<polygon fill="midnightblue" stroke="midnightblue" points="434.039,-168.076 439.858,-159.222 429.788,-162.515 434.039,-168.076"/>
</g>
<!-- Node12 -->
<g id="node23" class="node"><title>Node12</title>
<a xlink:href="cvm-hfa-pp_8c.html#adcc1149c628372e2e566c246870929cb" target="_top" xlink:title="infoentry">
<polygon fill="white" stroke="black" points="428.5,-298.5 428.5,-319.5 487.5,-319.5 487.5,-298.5 428.5,-298.5"/>
<text text-anchor="middle" x="458" y="-306.5" font-family="FreeSans" font-size="10.00">infoentry</text>
</a>
</g>
<!-- Node9&#45;&gt;Node12 -->
<g id="edge22" class="edge"><title>Node9&#45;&gt;Node12</title>
<path fill="none" stroke="midnightblue" d="M363.7,-257.092C380.607,-266.398 408.75,-281.89 429.899,-293.532"/>
<polygon fill="midnightblue" stroke="midnightblue" points="428.321,-296.658 438.77,-298.415 431.697,-290.526 428.321,-296.658"/>
</g>
<!-- Node48 -->
<g id="node98" class="node"><title>Node48</title>
<a xlink:href="cvm-hfa-res_8c.html#a6c56aa24fa6551b23e4283ae2d5bcad8" target="_top" xlink:title="Rreport1">
<polygon fill="white" stroke="black" points="429.5,-258.5 429.5,-279.5 486.5,-279.5 486.5,-258.5 429.5,-258.5"/>
<text text-anchor="middle" x="458" y="-266.5" font-family="FreeSans" font-size="10.00">Rreport1</text>
</a>
</g>
<!-- Node9&#45;&gt;Node48 -->
<g id="edge100" class="edge"><title>Node9&#45;&gt;Node48</title>
<path fill="none" stroke="midnightblue" d="M363.7,-251.697C377.886,-254.3 399.983,-258.355 419.221,-261.885"/>
<polygon fill="midnightblue" stroke="midnightblue" points="418.787,-265.363 429.255,-263.726 420.051,-258.478 418.787,-265.363"/>
</g>
<!-- Node50 -->
<g id="node102" class="node"><title>Node50</title>
<a xlink:href="cvm-hfa-res_8c.html#a38aa04fce135199ec3bb8726da163846" target="_top" xlink:title="Rfinish">
<polygon fill="white" stroke="black" points="434,-218.5 434,-239.5 482,-239.5 482,-218.5 434,-218.5"/>
<text text-anchor="middle" x="458" y="-226.5" font-family="FreeSans" font-size="10.00">Rfinish</text>
</a>
</g>
<!-- Node9&#45;&gt;Node50 -->
<g id="edge104" class="edge"><title>Node9&#45;&gt;Node50</title>
<path fill="none" stroke="midnightblue" d="M363.7,-246.303C379.04,-243.488 403.63,-238.976 423.854,-235.265"/>
<polygon fill="midnightblue" stroke="midnightblue" points="424.755,-238.658 433.959,-233.411 423.492,-231.773 424.755,-238.658"/>
</g>
<!-- Node13 -->
<g id="node25" class="node"><title>Node13</title>
<a xlink:href="hfa-lnx_8c.html#a78ffddbcd7cdd164889cfb53ea367886" target="_top" xlink:title="entry">
<polygon fill="white" stroke="black" points="530.5,-338.5 530.5,-359.5 571.5,-359.5 571.5,-338.5 530.5,-338.5"/>
<text text-anchor="middle" x="551" y="-346.5" font-family="FreeSans" font-size="10.00">entry</text>
</a>
</g>
<!-- Node12&#45;&gt;Node13 -->
<g id="edge24" class="edge"><title>Node12&#45;&gt;Node13</title>
<path fill="none" stroke="midnightblue" d="M482.435,-319.51C494.155,-324.551 508.31,-330.639 520.708,-335.971"/>
<polygon fill="midnightblue" stroke="midnightblue" points="519.625,-339.315 530.194,-340.051 522.391,-332.885 519.625,-339.315"/>
</g>
<!-- Node47 -->
<g id="node96" class="node"><title>Node47</title>
<a xlink:href="cvm-hfa-pp_8c.html#a85b4c8af06430f26eab8afdeea3a7395" target="_top" xlink:title="hashidx">
<polygon fill="white" stroke="black" points="524,-298.5 524,-319.5 578,-319.5 578,-298.5 524,-298.5"/>
<text text-anchor="middle" x="551" y="-306.5" font-family="FreeSans" font-size="10.00">hashidx</text>
</a>
</g>
<!-- Node12&#45;&gt;Node47 -->
<g id="edge98" class="edge"><title>Node12&#45;&gt;Node47</title>
<path fill="none" stroke="midnightblue" d="M487.681,-309C495.92,-309 504.973,-309 513.592,-309"/>
<polygon fill="midnightblue" stroke="midnightblue" points="513.807,-312.5 523.807,-309 513.807,-305.5 513.807,-312.5"/>
</g>
<!-- Node13&#45;&gt;Node6 -->
<g id="edge84" class="edge"><title>Node13&#45;&gt;Node6</title>
<path fill="none" stroke="midnightblue" d="M552.907,-359.781C562.876,-416.033 608.734,-673.538 614,-680 614.605,-680.742 615.235,-681.464 615.887,-682.165"/>
<polygon fill="midnightblue" stroke="midnightblue" points="613.802,-684.99 623.639,-688.924 618.402,-679.714 613.802,-684.99"/>
</g>
<!-- Node13&#45;&gt;Node7 -->
<g id="edge90" class="edge"><title>Node13&#45;&gt;Node7</title>
<path fill="none" stroke="midnightblue" d="M530.323,-346.733C505.703,-343.783 463.456,-337.926 428,-329 356.79,-311.073 276.306,-281.023 231.313,-263.3"/>
<polygon fill="midnightblue" stroke="midnightblue" points="232.585,-260.039 221.999,-259.607 230.005,-266.546 232.585,-260.039"/>
</g>
<!-- Node14 -->
<g id="node27" class="node"><title>Node14</title>
<a xlink:href="hfa-lnx_8c.html#a4c3443f524b4c0d95639694f0b74e850" target="_top" xlink:title="Process command line options, Read graph and payload.">
<polygon fill="white" stroke="black" points="630,-649.5 630,-670.5 724,-670.5 724,-649.5 630,-649.5"/>
<text text-anchor="middle" x="677" y="-657.5" font-family="FreeSans" font-size="10.00">process_options</text>
</a>
</g>
<!-- Node13&#45;&gt;Node14 -->
<g id="edge26" class="edge"><title>Node13&#45;&gt;Node14</title>
<path fill="none" stroke="midnightblue" d="M553.04,-359.516C559.386,-391.065 580.389,-487.285 614,-561 627.498,-590.604 648.674,-621.801 662.694,-641.082"/>
<polygon fill="midnightblue" stroke="midnightblue" points="660.002,-643.328 668.758,-649.292 665.632,-639.169 660.002,-643.328"/>
</g>
<!-- Node18 -->
<g id="node35" class="node"><title>Node18</title>
<a xlink:href="cvm-hfa_8c.html#a873768042b716d60996ec5d858fc8fd9" target="_top" xlink:title="This function must be called by application to initialize HFA engine and setup resources for HFA hard...">
<polygon fill="white" stroke="red" points="640,-438.5 640,-459.5 714,-459.5 714,-438.5 640,-438.5"/>
<text text-anchor="middle" x="677" y="-446.5" font-family="FreeSans" font-size="10.00">hfa_dev_init</text>
</a>
</g>
<!-- Node13&#45;&gt;Node18 -->
<g id="edge34" class="edge"><title>Node13&#45;&gt;Node18</title>
<path fill="none" stroke="midnightblue" d="M556.645,-359.751C566.184,-376.895 587.11,-410.383 614,-429 618.956,-432.431 624.531,-435.297 630.262,-437.684"/>
<polygon fill="midnightblue" stroke="midnightblue" points="629.38,-441.089 639.973,-441.265 631.802,-434.521 629.38,-441.089"/>
</g>
<!-- Node36 -->
<g id="node71" class="node"><title>Node36</title>
<a xlink:href="hfa-lnx_8c.html#a546f3769e735d4bef0bfab1cba56921c" target="_top" xlink:title="Load graph to HFA memory and cache.">
<polygon fill="white" stroke="red" points="642.5,-358.5 642.5,-379.5 711.5,-379.5 711.5,-358.5 642.5,-358.5"/>
<text text-anchor="middle" x="677" y="-366.5" font-family="FreeSans" font-size="10.00">graph_load</text>
</a>
</g>
<!-- Node13&#45;&gt;Node36 -->
<g id="edge70" class="edge"><title>Node13&#45;&gt;Node36</title>
<path fill="none" stroke="midnightblue" d="M571.525,-352.258C587.945,-354.864 611.57,-358.614 632.301,-361.905"/>
<polygon fill="midnightblue" stroke="midnightblue" points="631.776,-365.365 642.201,-363.476 632.874,-358.452 631.776,-365.365"/>
</g>
<!-- Node37 -->
<g id="node73" class="node"><title>Node37</title>
<a xlink:href="hfa-lnx_8c.html#a924d2733ebc7a856f8c3fd293193ba44" target="_top" xlink:title="Initialize search context.">
<polygon fill="white" stroke="red" points="639.5,-318.5 639.5,-339.5 714.5,-339.5 714.5,-318.5 639.5,-318.5"/>
<text text-anchor="middle" x="677" y="-326.5" font-family="FreeSans" font-size="10.00">initialize_ctx</text>
</a>
</g>
<!-- Node13&#45;&gt;Node37 -->
<g id="edge72" class="edge"><title>Node13&#45;&gt;Node37</title>
<path fill="none" stroke="midnightblue" d="M571.525,-345.742C587.214,-343.252 609.482,-339.717 629.517,-336.537"/>
<polygon fill="midnightblue" stroke="midnightblue" points="630.11,-339.987 639.438,-334.962 629.013,-333.073 630.11,-339.987"/>
</g>
<!-- Node38 -->
<g id="node75" class="node"><title>Node38</title>
<a xlink:href="app-utils_8c.html#a4b47f3c9c5a0b3eaee64e264171628a3" target="_top" xlink:title="This routine reads data of chunksize/a packet from given payload(Normal/PCAP) file and returns data b...">
<polygon fill="white" stroke="red" points="614,-278.5 614,-299.5 740,-299.5 740,-278.5 614,-278.5"/>
<text text-anchor="middle" x="677" y="-286.5" font-family="FreeSans" font-size="10.00">hfautils_parse_payload</text>
</a>
</g>
<!-- Node13&#45;&gt;Node38 -->
<g id="edge74" class="edge"><title>Node13&#45;&gt;Node38</title>
<path fill="none" stroke="midnightblue" d="M565.401,-338.332C577.786,-329.538 596.389,-317.217 614,-309 618.689,-306.812 623.681,-304.774 628.724,-302.902"/>
<polygon fill="midnightblue" stroke="midnightblue" points="630.136,-306.116 638.418,-299.508 627.823,-299.509 630.136,-306.116"/>
</g>
<!-- Node39 -->
<g id="node77" class="node"><title>Node39</title>
<a xlink:href="cvm-hfa-search_8h.html#ae9741e867075c9b8cc63a7d889d5bf20" target="_top" xlink:title="This routine is a variant of hfa_searchparam_set_inputiovec() when the previously searched input IO v...">
<polygon fill="white" stroke="black" points="616.5,-226 616.5,-260 737.5,-260 737.5,-226 616.5,-226"/>
<text text-anchor="start" x="624.5" y="-247" font-family="FreeSans" font-size="10.00">hfa_searchparam_set</text>
<text text-anchor="middle" x="677" y="-234" font-family="FreeSans" font-size="10.00">_inputiovec_0_n</text>
</a>
</g>
<!-- Node13&#45;&gt;Node39 -->
<g id="edge76" class="edge"><title>Node13&#45;&gt;Node39</title>
<path fill="none" stroke="midnightblue" d="M567.573,-338.326C571.242,-335.543 574.943,-332.37 578,-329 598.896,-305.969 590.434,-289.292 614,-269 615.325,-267.859 616.708,-266.763 618.136,-265.71"/>
<polygon fill="midnightblue" stroke="midnightblue" points="620.242,-268.517 626.742,-260.151 616.443,-262.637 620.242,-268.517"/>
</g>
<!-- Node40 -->
<g id="node79" class="node"><title>Node40</title>
<a xlink:href="cvm-hfa-search_8h.html#a12882fa53f8ec49b9b2950711161db42" target="_top" xlink:title="This routine sets the output buffer in the sparam.">
<polygon fill="white" stroke="black" points="616.5,-174 616.5,-208 737.5,-208 737.5,-174 616.5,-174"/>
<text text-anchor="start" x="624.5" y="-195" font-family="FreeSans" font-size="10.00">hfa_searchparam_set</text>
<text text-anchor="middle" x="677" y="-182" font-family="FreeSans" font-size="10.00">_output</text>
</a>
</g>
<!-- Node13&#45;&gt;Node40 -->
<g id="edge78" class="edge"><title>Node13&#45;&gt;Node40</title>
<path fill="none" stroke="midnightblue" d="M568.722,-338.366C572.167,-335.659 575.484,-332.508 578,-329 608.47,-286.51 578.544,-255.428 614,-217 614.88,-216.046 615.8,-215.126 616.756,-214.239"/>
<polygon fill="midnightblue" stroke="midnightblue" points="618.947,-216.969 624.686,-208.063 614.646,-211.446 618.947,-216.969"/>
</g>
<!-- Node41 -->
<g id="node81" class="node"><title>Node41</title>
<a xlink:href="cvm-hfa-search_8c.html#a57d7540278164eb6b6c132be00db0de5" target="_top" xlink:title="This routine performs a pattern search using the given parameters in a blocking manner.">
<polygon fill="white" stroke="red" points="615.5,-398.5 615.5,-419.5 738.5,-419.5 738.5,-398.5 615.5,-398.5"/>
<text text-anchor="middle" x="677" y="-406.5" font-family="FreeSans" font-size="10.00">hfa_searchctx_search</text>
</a>
</g>
<!-- Node13&#45;&gt;Node41 -->
<g id="edge80" class="edge"><title>Node13&#45;&gt;Node41</title>
<path fill="none" stroke="midnightblue" d="M565.401,-359.668C577.786,-368.462 596.389,-380.783 614,-389 618.689,-391.188 623.681,-393.226 628.724,-395.098"/>
<polygon fill="midnightblue" stroke="midnightblue" points="627.823,-398.491 638.418,-398.492 630.136,-391.884 627.823,-398.491"/>
</g>
<!-- Node42 -->
<g id="node85" class="node"><title>Node42</title>
<a xlink:href="cvm-hfa-common_8h.html#ad117ba199386b8d427cbb04f288b5905" target="_top" xlink:title="Dump HFA related registers.">
<polygon fill="white" stroke="black" points="631.5,-134.5 631.5,-155.5 722.5,-155.5 722.5,-134.5 631.5,-134.5"/>
<text text-anchor="middle" x="677" y="-142.5" font-family="FreeSans" font-size="10.00">hfa_dump_regs</text>
</a>
</g>
<!-- Node13&#45;&gt;Node42 -->
<g id="edge86" class="edge"><title>Node13&#45;&gt;Node42</title>
<path fill="none" stroke="midnightblue" d="M569.256,-338.32C572.582,-335.65 575.717,-332.525 578,-329 618.562,-266.362 563.696,-220.121 614,-165 616.433,-162.334 619.219,-160.021 622.235,-158.015"/>
<polygon fill="midnightblue" stroke="midnightblue" points="624.116,-160.977 631.24,-153.134 620.78,-154.822 624.116,-160.977"/>
</g>
<!-- Node43 -->
<g id="node87" class="node"><title>Node43</title>
<a xlink:href="cvm-hfa-search_8h.html#ad18e328b50b109e1e44821f3d006bd9d" target="_top" xlink:title="This routine returns the data&#45;buffer offset.">
<polygon fill="white" stroke="black" points="616,-82 616,-116 738,-116 738,-82 616,-82"/>
<text text-anchor="start" x="624" y="-103" font-family="FreeSans" font-size="10.00">hfa_searchparam_get</text>
<text text-anchor="middle" x="677" y="-90" font-family="FreeSans" font-size="10.00">_hwsearch_pdboff</text>
</a>
</g>
<!-- Node13&#45;&gt;Node43 -->
<g id="edge88" class="edge"><title>Node13&#45;&gt;Node43</title>
<path fill="none" stroke="midnightblue" d="M569.37,-338.392C572.688,-335.717 575.791,-332.572 578,-329 626.433,-250.701 556.321,-196.761 614,-125 614.6,-124.254 615.225,-123.528 615.873,-122.824"/>
<polygon fill="midnightblue" stroke="midnightblue" points="618.392,-125.269 623.589,-116.036 613.769,-120.013 618.392,-125.269"/>
</g>
<!-- Node44 -->
<g id="node90" class="node"><title>Node44</title>
<a xlink:href="app-utils_8c.html#a633038357891aa5147b77fe939f300bf" target="_top" xlink:title="Print pattern matches via match buffer and cleanup all matches.">
<polygon fill="white" stroke="red" points="615,-42.5 615,-63.5 739,-63.5 739,-42.5 615,-42.5"/>
<text text-anchor="middle" x="677" y="-50.5" font-family="FreeSans" font-size="10.00">hfautils_print_matches</text>
</a>
</g>
<!-- Node13&#45;&gt;Node44 -->
<g id="edge92" class="edge"><title>Node13&#45;&gt;Node44</title>
<path fill="none" stroke="midnightblue" d="M569.467,-338.451C572.778,-335.771 575.853,-332.61 578,-329 636.725,-230.244 539.845,-160.763 614,-73 614.995,-71.8222 616.06,-70.7128 617.183,-69.6681"/>
<polygon fill="midnightblue" stroke="midnightblue" points="619.362,-72.4101 625.349,-63.6689 615.218,-66.7687 619.362,-72.4101"/>
</g>
<!-- Node45 -->
<g id="node92" class="node"><title>Node45</title>
<a xlink:href="cvm-hfa-search_8h.html#ac5bcfbfda7036d9aca28a3c5828847a5" target="_top" xlink:title="This routine retrieves flags returned by post&#45;processor.">
<polygon fill="white" stroke="black" points="616,-518 616,-552 738,-552 738,-518 616,-518"/>
<text text-anchor="start" x="624" y="-539" font-family="FreeSans" font-size="10.00">hfa_searchparam_get</text>
<text text-anchor="middle" x="677" y="-526" font-family="FreeSans" font-size="10.00">_ppoflags</text>
</a>
</g>
<!-- Node13&#45;&gt;Node45 -->
<g id="edge94" class="edge"><title>Node13&#45;&gt;Node45</title>
<path fill="none" stroke="midnightblue" d="M552.335,-359.909C556.358,-388.272 570.87,-465.161 614,-509 614.934,-509.949 615.907,-510.865 616.914,-511.748"/>
<polygon fill="midnightblue" stroke="midnightblue" points="615.106,-514.765 625.223,-517.912 619.277,-509.143 615.106,-514.765"/>
</g>
<!-- Node46 -->
<g id="node94" class="node"><title>Node46</title>
<a xlink:href="hfa-lnx_8c.html#a5c6551bf9ea9cf51ae7f2076c4cbe8ef" target="_top" xlink:title="Application cleanup will be done by this routine.">
<polygon fill="white" stroke="red" points="650,-478.5 650,-499.5 704,-499.5 704,-478.5 650,-478.5"/>
<text text-anchor="middle" x="677" y="-486.5" font-family="FreeSans" font-size="10.00">cleanup</text>
</a>
</g>
<!-- Node13&#45;&gt;Node46 -->
<g id="edge96" class="edge"><title>Node13&#45;&gt;Node46</title>
<path fill="none" stroke="midnightblue" d="M553.641,-359.726C559.948,-383.097 578.108,-438.929 614,-469 621.429,-475.224 630.812,-479.518 640.053,-482.478"/>
<polygon fill="midnightblue" stroke="midnightblue" points="639.354,-485.916 649.924,-485.195 641.211,-479.167 639.354,-485.916"/>
</g>
<!-- Node15 -->
<g id="node29" class="node"><title>Node15</title>
<a xlink:href="app-utils_8c.html#a8d5ec2ca8ebb2e04916983e6053a5c79" target="_top" xlink:title="Return size of a file(compressed or uncompressed).">
<polygon fill="white" stroke="red" points="814.5,-841.5 814.5,-862.5 909.5,-862.5 909.5,-841.5 814.5,-841.5"/>
<text text-anchor="middle" x="862" y="-849.5" font-family="FreeSans" font-size="10.00">hfautils_file_size</text>
</a>
</g>
<!-- Node14&#45;&gt;Node15 -->
<g id="edge28" class="edge"><title>Node14&#45;&gt;Node15</title>
<path fill="none" stroke="midnightblue" d="M724.272,-668.922C730.156,-671.682 735.629,-675.289 740,-680 787.22,-730.893 726.81,-783.009 776,-832 783.734,-839.702 793.818,-844.667 804.348,-847.821"/>
<polygon fill="midnightblue" stroke="midnightblue" points="803.54,-851.227 814.088,-850.236 805.224,-844.433 803.54,-851.227"/>
</g>
<!-- Node16 -->
<g id="node31" class="node"><title>Node16</title>
<a xlink:href="app-utils_8c.html#a12339c67618c4b3a54c32f43d378c273" target="_top" xlink:title="Read data from a file to a buffer(compressed or uncompressed).">
<polygon fill="white" stroke="red" points="813.5,-801.5 813.5,-822.5 910.5,-822.5 910.5,-801.5 813.5,-801.5"/>
<text text-anchor="middle" x="862" y="-809.5" font-family="FreeSans" font-size="10.00">hfautils_read_file</text>
</a>
</g>
<!-- Node14&#45;&gt;Node16 -->
<g id="edge30" class="edge"><title>Node14&#45;&gt;Node16</title>
<path fill="none" stroke="midnightblue" d="M724.257,-669.388C730.071,-672.081 735.529,-675.545 740,-680 777.038,-716.905 737.535,-756.584 776,-792 783.691,-799.082 793.389,-803.809 803.477,-806.935"/>
<polygon fill="midnightblue" stroke="midnightblue" points="802.658,-810.338 813.217,-809.465 804.418,-803.563 802.658,-810.338"/>
</g>
<!-- Node17 -->
<g id="node33" class="node"><title>Node17</title>
<a xlink:href="app-utils_8c.html#a1944a739d03e86dcaee1a7d245cfeba0" target="_top" xlink:title="Initialize the attributes needed for parsing the payload file.">
<polygon fill="white" stroke="red" points="805.5,-749 805.5,-783 918.5,-783 918.5,-749 805.5,-749"/>
<text text-anchor="start" x="813.5" y="-770" font-family="FreeSans" font-size="10.00">hfautils_init_payload</text>
<text text-anchor="middle" x="862" y="-757" font-family="FreeSans" font-size="10.00">_attributes</text>
</a>
</g>
<!-- Node14&#45;&gt;Node17 -->
<g id="edge32" class="edge"><title>Node14&#45;&gt;Node17</title>
<path fill="none" stroke="midnightblue" d="M723.693,-670.528C729.525,-673.046 735.139,-676.157 740,-680 764.397,-699.285 751.47,-720.884 776,-740 781.921,-744.614 788.655,-748.412 795.687,-751.538"/>
<polygon fill="midnightblue" stroke="midnightblue" points="794.827,-754.962 805.413,-755.398 797.409,-748.456 794.827,-754.962"/>
</g>
<!-- Node19 -->
<g id="node37" class="node"><title>Node19</title>
<a xlink:href="cvm-hfa-stats_8c.html#a2fcf955b47370bfa46705ee5a23a70cf" target="_top" xlink:title="This routine allocates memory for counters to maintain statistics of each processing core...">
<polygon fill="white" stroke="red" points="811,-549.5 811,-570.5 913,-570.5 913,-549.5 811,-549.5"/>
<text text-anchor="middle" x="862" y="-557.5" font-family="FreeSans" font-size="10.00">hfa_dev_stats_init</text>
</a>
</g>
<!-- Node18&#45;&gt;Node19 -->
<g id="edge36" class="edge"><title>Node18&#45;&gt;Node19</title>
<path fill="none" stroke="midnightblue" d="M714.156,-455.499C723.347,-458.458 732.655,-462.757 740,-469 766.958,-491.913 748.159,-518.168 776,-540 783.352,-545.766 792.079,-549.919 801.109,-552.902"/>
<polygon fill="midnightblue" stroke="midnightblue" points="800.4,-556.339 810.975,-555.7 802.309,-549.605 800.4,-556.339"/>
</g>
<!-- Node20 -->
<g id="node39" class="node"><title>Node20</title>
<a xlink:href="cvm-hfa_8c.html#a27982497398da2118cd5287ed51732e7" target="_top" xlink:title="Provides device&#45;specific information This is a utility routine used to obtain HFA device&#45;specific det...">
<polygon fill="white" stroke="black" points="806.5,-509.5 806.5,-530.5 917.5,-530.5 917.5,-509.5 806.5,-509.5"/>
<text text-anchor="middle" x="862" y="-517.5" font-family="FreeSans" font-size="10.00">hfa_dev_getdevinfo</text>
</a>
</g>
<!-- Node18&#45;&gt;Node20 -->
<g id="edge38" class="edge"><title>Node18&#45;&gt;Node20</title>
<path fill="none" stroke="midnightblue" d="M714.022,-458.016C722.826,-460.894 731.984,-464.525 740,-469 758.436,-479.292 757.172,-490.443 776,-500 782.484,-503.291 789.518,-506.05 796.676,-508.359"/>
<polygon fill="midnightblue" stroke="midnightblue" points="795.891,-511.777 806.473,-511.239 797.866,-505.061 795.891,-511.777"/>
</g>
<!-- Node21 -->
<g id="node41" class="node"><title>Node21</title>
<a xlink:href="pp_8h.html#a6f5982b2671e9682262a26b0d2996396" target="_top" xlink:title="Constructs a readable version string for the PP library.">
<polygon fill="white" stroke="black" points="802,-469.5 802,-490.5 922,-490.5 922,-469.5 802,-469.5"/>
<text text-anchor="middle" x="862" y="-477.5" font-family="FreeSans" font-size="10.00">pp_get_version_string</text>
</a>
</g>
<!-- Node18&#45;&gt;Node21 -->
<g id="edge40" class="edge"><title>Node18&#45;&gt;Node21</title>
<path fill="none" stroke="midnightblue" d="M714.438,-455.273C736.626,-458.991 765.46,-463.823 791.746,-468.228"/>
<polygon fill="midnightblue" stroke="midnightblue" points="791.235,-471.691 801.676,-469.892 792.392,-464.787 791.235,-471.691"/>
</g>
<!-- Node22 -->
<g id="node43" class="node"><title>Node22</title>
<a xlink:href="cvm-hfa_8c.html#afd1d53fe8a402d4c5799e6e98c67baaa" target="_top" xlink:title="Displays HFA Device info.">
<polygon fill="white" stroke="red" points="803.5,-429.5 803.5,-450.5 920.5,-450.5 920.5,-429.5 803.5,-429.5"/>
<text text-anchor="middle" x="862" y="-437.5" font-family="FreeSans" font-size="10.00">hfa_dev_display_info</text>
</a>
</g>
<!-- Node18&#45;&gt;Node22 -->
<g id="edge42" class="edge"><title>Node18&#45;&gt;Node22</title>
<path fill="none" stroke="midnightblue" d="M714.438,-447.179C737.094,-446.077 766.679,-444.637 793.406,-443.337"/>
<polygon fill="midnightblue" stroke="midnightblue" points="793.671,-446.828 803.489,-442.846 793.33,-439.837 793.671,-446.828"/>
</g>
<!-- Node23 -->
<g id="node45" class="node"><title>Node23</title>
<a xlink:href="cvm-hfa_8c.html#a236e64ca73680ea6761204d5c44d4e96" target="_top" xlink:title="API to set PP resource allocator for partial matches.">
<polygon fill="white" stroke="black" points="794.5,-389.5 794.5,-410.5 929.5,-410.5 929.5,-389.5 794.5,-389.5"/>
<text text-anchor="middle" x="862" y="-397.5" font-family="FreeSans" font-size="10.00">hfa_dev_set_fnp_ppalloc</text>
</a>
</g>
<!-- Node18&#45;&gt;Node23 -->
<g id="edge44" class="edge"><title>Node18&#45;&gt;Node23</title>
<path fill="none" stroke="midnightblue" d="M711.23,-438.456C730.236,-432.732 754.347,-425.684 776,-420 785.243,-417.573 795.085,-415.143 804.686,-412.853"/>
<polygon fill="midnightblue" stroke="midnightblue" points="805.637,-416.225 814.568,-410.525 804.032,-409.412 805.637,-416.225"/>
</g>
<!-- Node24 -->
<g id="node47" class="node"><title>Node24</title>
<a xlink:href="cvm-hfa_8c.html#ab547f175726534d6a0a334eb35af4980" target="_top" xlink:title="Default function pointer for PP allocations.">
<polygon fill="white" stroke="black" points="802,-349.5 802,-370.5 922,-370.5 922,-349.5 802,-349.5"/>
<text text-anchor="middle" x="862" y="-357.5" font-family="FreeSans" font-size="10.00">hfa_defaultfn_ppalloc</text>
</a>
</g>
<!-- Node18&#45;&gt;Node24 -->
<g id="edge46" class="edge"><title>Node18&#45;&gt;Node24</title>
<path fill="none" stroke="midnightblue" d="M714.153,-441.443C723.142,-438.508 732.354,-434.485 740,-429 761.958,-413.248 753.438,-394.873 776,-380 781.001,-376.703 786.48,-373.947 792.173,-371.642"/>
<polygon fill="midnightblue" stroke="midnightblue" points="793.664,-374.827 801.911,-368.176 791.316,-368.232 793.664,-374.827"/>
</g>
<!-- Node25 -->
<g id="node49" class="node"><title>Node25</title>
<a xlink:href="cvm-hfa_8c.html#a148abbfdeebb207ff46884af8eeb8fa4" target="_top" xlink:title="API to set PP resource deallocator for partial matches.">
<polygon fill="white" stroke="black" points="796,-309.5 796,-330.5 928,-330.5 928,-309.5 796,-309.5"/>
<text text-anchor="middle" x="862" y="-317.5" font-family="FreeSans" font-size="10.00">hfa_dev_set_fnp_ppfree</text>
</a>
</g>
<!-- Node18&#45;&gt;Node25 -->
<g id="edge48" class="edge"><title>Node18&#45;&gt;Node25</title>
<path fill="none" stroke="midnightblue" d="M714.195,-443.021C723.493,-440.058 732.843,-435.627 740,-429 771.31,-400.012 743.571,-367.731 776,-340 779.277,-337.198 782.871,-334.77 786.675,-332.669"/>
<polygon fill="midnightblue" stroke="midnightblue" points="788.322,-335.762 795.876,-328.333 785.338,-329.429 788.322,-335.762"/>
</g>
<!-- Node26 -->
<g id="node51" class="node"><title>Node26</title>
<a xlink:href="cvm-hfa_8c.html#a832239ee7b188265bdacbbfb7e879af1" target="_top" xlink:title="Default function pointer for PP deallocations.">
<polygon fill="white" stroke="black" points="803.5,-269.5 803.5,-290.5 920.5,-290.5 920.5,-269.5 803.5,-269.5"/>
<text text-anchor="middle" x="862" y="-277.5" font-family="FreeSans" font-size="10.00">hfa_defaultfn_ppfree</text>
</a>
</g>
<!-- Node18&#45;&gt;Node26 -->
<g id="edge50" class="edge"><title>Node18&#45;&gt;Node26</title>
<path fill="none" stroke="midnightblue" d="M714.052,-443.751C723.569,-440.793 733.066,-436.183 740,-429 781.341,-386.175 733.002,-341.161 776,-300 781.059,-295.157 787.052,-291.406 793.483,-288.511"/>
<polygon fill="midnightblue" stroke="midnightblue" points="795.045,-291.662 803.163,-284.854 792.571,-285.114 795.045,-291.662"/>
</g>
<!-- Node27 -->
<g id="node53" class="node"><title>Node27</title>
<a xlink:href="cvm-hfa_8c.html#a774451b83b300f862763d189c9758e1f" target="_top" xlink:title="API to set PP buffer size function pointer.">
<polygon fill="white" stroke="black" points="796,-229.5 796,-250.5 928,-250.5 928,-229.5 796,-229.5"/>
<text text-anchor="middle" x="862" y="-237.5" font-family="FreeSans" font-size="10.00">hfa_dev_set_fnp_ppsize</text>
</a>
</g>
<!-- Node18&#45;&gt;Node27 -->
<g id="edge52" class="edge"><title>Node18&#45;&gt;Node27</title>
<path fill="none" stroke="midnightblue" d="M714.02,-444.129C723.652,-441.181 733.216,-436.48 740,-429 791.592,-372.115 722.205,-314.806 776,-260 779.228,-256.711 782.884,-253.919 786.823,-251.552"/>
<polygon fill="midnightblue" stroke="midnightblue" points="788.476,-254.639 795.841,-247.023 785.334,-248.384 788.476,-254.639"/>
</g>
<!-- Node28 -->
<g id="node55" class="node"><title>Node28</title>
<a xlink:href="cvm-hfa_8c.html#a11aab8e30488e4cfc900f60a0dabc784" target="_top" xlink:title="Default function pointer for PP size.">
<polygon fill="white" stroke="black" points="803.5,-189.5 803.5,-210.5 920.5,-210.5 920.5,-189.5 803.5,-189.5"/>
<text text-anchor="middle" x="862" y="-197.5" font-family="FreeSans" font-size="10.00">hfa_defaultfn_ppsize</text>
</a>
</g>
<!-- Node18&#45;&gt;Node28 -->
<g id="edge54" class="edge"><title>Node18&#45;&gt;Node28</title>
<path fill="none" stroke="midnightblue" d="M714.212,-444.3C723.846,-441.354 733.364,-436.612 740,-429 801.938,-357.95 711.308,-288.552 776,-220 781.063,-214.635 787.262,-210.58 793.99,-207.532"/>
<polygon fill="midnightblue" stroke="midnightblue" points="795.313,-210.774 803.437,-203.973 792.845,-204.224 795.313,-210.774"/>
</g>
<!-- Node29 -->
<g id="node57" class="node"><title>Node29</title>
<a xlink:href="cvm-hfa_8c.html#a9a0b038e0d29435cb91a21d9c62806cc" target="_top" xlink:title="API to set PP resource allocator for temporary memory.">
<polygon fill="white" stroke="black" points="793,-149.5 793,-170.5 931,-170.5 931,-149.5 793,-149.5"/>
<text text-anchor="middle" x="862" y="-157.5" font-family="FreeSans" font-size="10.00">hfa_dev_set_fnp_pptalloc</text>
</a>
</g>
<!-- Node18&#45;&gt;Node29 -->
<g id="edge56" class="edge"><title>Node18&#45;&gt;Node29</title>
<path fill="none" stroke="midnightblue" d="M714.016,-444.514C723.766,-441.579 733.393,-436.788 740,-429 812.333,-343.729 700.36,-262.351 776,-180 778.459,-177.322 781.201,-174.969 784.153,-172.903"/>
<polygon fill="midnightblue" stroke="midnightblue" points="786.055,-175.846 792.962,-167.811 782.552,-169.786 786.055,-175.846"/>
</g>
<!-- Node30 -->
<g id="node59" class="node"><title>Node30</title>
<a xlink:href="cvm-hfa_8c.html#a2cbca63c413f08d3861f9b4c2855391f" target="_top" xlink:title="API to set PP resource deallocator for temporary memory.">
<polygon fill="white" stroke="black" points="794.5,-109.5 794.5,-130.5 929.5,-130.5 929.5,-109.5 794.5,-109.5"/>
<text text-anchor="middle" x="862" y="-117.5" font-family="FreeSans" font-size="10.00">hfa_dev_set_fnp_pptfree</text>
</a>
</g>
<!-- Node18&#45;&gt;Node30 -->
<g id="edge58" class="edge"><title>Node18&#45;&gt;Node30</title>
<path fill="none" stroke="midnightblue" d="M714.115,-444.597C723.866,-441.663 733.47,-436.853 740,-429 822.757,-329.475 689.382,-236.184 776,-140 778.749,-136.948 781.864,-134.315 785.24,-132.048"/>
<polygon fill="midnightblue" stroke="midnightblue" points="787.056,-135.043 794.105,-127.134 783.662,-128.921 787.056,-135.043"/>
</g>
<!-- Node31 -->
<g id="node61" class="node"><title>Node31</title>
<a xlink:href="cvm-hfa_8c.html#af0b17e8a09b1f7a1dd438ddcb1e4cd14" target="_top" xlink:title="API to set temporary memory size function pointer.">
<polygon fill="white" stroke="black" points="794.5,-69.5 794.5,-90.5 929.5,-90.5 929.5,-69.5 794.5,-69.5"/>
<text text-anchor="middle" x="862" y="-77.5" font-family="FreeSans" font-size="10.00">hfa_dev_set_fnp_pptsize</text>
</a>
</g>
<!-- Node18&#45;&gt;Node31 -->
<g id="edge60" class="edge"><title>Node18&#45;&gt;Node31</title>
<path fill="none" stroke="midnightblue" d="M714.19,-444.659C723.943,-441.726 733.529,-436.902 740,-429 833.199,-315.198 678.385,-210.038 776,-100 778.782,-96.8644 781.95,-94.1705 785.391,-91.8597"/>
<polygon fill="midnightblue" stroke="midnightblue" points="787.373,-94.7639 794.441,-86.8713 783.994,-88.6336 787.373,-94.7639"/>
</g>
<!-- Node32 -->
<g id="node63" class="node"><title>Node32</title>
<a xlink:href="cvm-hfa_8c.html#aa2754afcdd94eb3dcd90c374f779dd24" target="_top" xlink:title="API to set PP resource allocator for match/result buffer.">
<polygon fill="white" stroke="black" points="779,-709.5 779,-730.5 945,-730.5 945,-709.5 779,-709.5"/>
<text text-anchor="middle" x="862" y="-717.5" font-family="FreeSans" font-size="10.00">hfa_dev_set_fnp_ppmatchalloc</text>
</a>
</g>
<!-- Node18&#45;&gt;Node32 -->
<g id="edge62" class="edge"><title>Node18&#45;&gt;Node32</title>
<path fill="none" stroke="midnightblue" d="M714.29,-453.632C723.926,-456.577 733.425,-461.335 740,-469 807.651,-547.866 705.292,-623.863 776,-700 777.076,-701.158 778.204,-702.256 779.38,-703.295"/>
<polygon fill="midnightblue" stroke="midnightblue" points="777.6,-706.328 787.755,-709.349 781.701,-700.654 777.6,-706.328"/>
</g>
<!-- Node33 -->
<g id="node65" class="node"><title>Node33</title>
<a xlink:href="cvm-hfa_8c.html#ad022f5aec72780af8b36533884693539" target="_top" xlink:title="API to set PP resource deallocator for result/match buf.">
<polygon fill="white" stroke="black" points="780.5,-669.5 780.5,-690.5 943.5,-690.5 943.5,-669.5 780.5,-669.5"/>
<text text-anchor="middle" x="862" y="-677.5" font-family="FreeSans" font-size="10.00">hfa_dev_set_fnp_ppmatchfree</text>
</a>
</g>
<!-- Node18&#45;&gt;Node33 -->
<g id="edge64" class="edge"><title>Node18&#45;&gt;Node33</title>
<path fill="none" stroke="midnightblue" d="M714.135,-453.768C723.768,-456.715 733.305,-461.44 740,-469 797.274,-533.667 716.22,-597.642 776,-660 777.24,-661.293 778.546,-662.51 779.909,-663.655"/>
<polygon fill="midnightblue" stroke="midnightblue" points="778.071,-666.639 788.285,-669.452 782.054,-660.883 778.071,-666.639"/>
</g>
<!-- Node34 -->
<g id="node67" class="node"><title>Node34</title>
<a xlink:href="cvm-hfa_8c.html#a8b71887165c143e32600513d12f9274f" target="_top" xlink:title="API to set match buffer size function pointer.">
<polygon fill="white" stroke="black" points="780.5,-629.5 780.5,-650.5 943.5,-650.5 943.5,-629.5 780.5,-629.5"/>
<text text-anchor="middle" x="862" y="-637.5" font-family="FreeSans" font-size="10.00">hfa_dev_set_fnp_ppmatchsize</text>
</a>
</g>
<!-- Node18&#45;&gt;Node34 -->
<g id="edge66" class="edge"><title>Node18&#45;&gt;Node34</title>
<path fill="none" stroke="midnightblue" d="M714.232,-454.078C723.751,-457.034 733.204,-461.686 740,-469 786.963,-519.541 727.08,-571.351 776,-620 777.427,-621.419 778.933,-622.744 780.507,-623.983"/>
<polygon fill="midnightblue" stroke="midnightblue" points="778.606,-626.922 788.888,-629.478 782.444,-621.068 778.606,-626.922"/>
</g>
<!-- Node35 -->
<g id="node69" class="node"><title>Node35</title>
<a xlink:href="cvm-hfa_8c.html#abcc0595aa8b2bb2d6116d600abbf55f8" target="_top" xlink:title="API to set PP error callback.">
<polygon fill="white" stroke="black" points="794,-589.5 794,-610.5 930,-610.5 930,-589.5 794,-589.5"/>
<text text-anchor="middle" x="862" y="-597.5" font-family="FreeSans" font-size="10.00">hfa_dev_set_fnp_pperror</text>
</a>
</g>
<!-- Node18&#45;&gt;Node35 -->
<g id="edge68" class="edge"><title>Node18&#45;&gt;Node35</title>
<path fill="none" stroke="midnightblue" d="M714.187,-454.542C723.593,-457.504 733,-462.043 740,-469 776.787,-505.558 737.8,-544.921 776,-580 778.678,-582.459 781.598,-584.634 784.692,-586.557"/>
<polygon fill="midnightblue" stroke="midnightblue" points="783.334,-589.797 793.817,-591.333 786.58,-583.595 783.334,-589.797"/>
</g>
<!-- Node41&#45;&gt;Node2 -->
<g id="edge82" class="edge"><title>Node41&#45;&gt;Node2</title>
<path fill="none" stroke="midnightblue" d="M728.772,-398.432C733.02,-395.917 736.874,-392.818 740,-389 833.199,-275.198 683.82,-174.629 776,-60 780.445,-54.4726 785.986,-49.9924 792.1,-46.362"/>
<polygon fill="midnightblue" stroke="midnightblue" points="794.08,-49.2816 801.407,-41.6282 790.907,-43.0423 794.08,-49.2816"/>
</g>
<!-- Node49 -->
<g id="node100" class="node"><title>Node49</title>
<a xlink:href="cvm-hfa-res_8c.html#a70c9e55ba1fcb934f74ad71ddca9d08f" target="_top" xlink:title="Radd">
<polygon fill="white" stroke="black" points="530.5,-258.5 530.5,-279.5 571.5,-279.5 571.5,-258.5 530.5,-258.5"/>
<text text-anchor="middle" x="551" y="-266.5" font-family="FreeSans" font-size="10.00">Radd</text>
</a>
</g>
<!-- Node48&#45;&gt;Node49 -->
<g id="edge102" class="edge"><title>Node48&#45;&gt;Node49</title>
<path fill="none" stroke="midnightblue" d="M486.662,-269C497.229,-269 509.245,-269 520.009,-269"/>
<polygon fill="midnightblue" stroke="midnightblue" points="520.256,-272.5 530.256,-269 520.256,-265.5 520.256,-272.5"/>
</g>
</g>
</svg>
        <g id="navigator" transform="translate(0 0)" fill="#404254">
                <rect fill="#f2f5e9" fill-opacity="0.5" stroke="#606060" stroke-width=".5" x="0" y="0" width="60" height="60"/>
                <use id="zoomplus" xlink:href="#zoomPlus" x="17" y="9" onmousedown="handleZoom(evt,'in')"/>
                <use id="zoomminus" xlink:href="#zoomMin" x="42" y="9" onmousedown="handleZoom(evt,'out')"/>
                <use id="reset" xlink:href="#resetDef" x="30" y="36" onmousedown="handleReset()"/>
                <g id="arrowUp" xlink:href="#dirArrow" transform="translate(30 24)" onmousedown="handlePan(0,-1)">
                  <use xlink:href="#rim" fill="#404040">
                        <set attributeName="fill" to="#808080" begin="arrowUp.mouseover" end="arrowUp.mouseout"/>
                  </use>
                  <path fill="none" stroke="white" stroke-width="1.5" d="M0,-3.0v7 M-2.5,-0.5L0,-3.0L2.5,-0.5"/>
                </g>
                <g id="arrowRight" xlink:href="#dirArrow" transform="rotate(90) translate(36 -43)" onmousedown="handlePan(1,0)">
                  <use xlink:href="#rim" fill="#404040">
                        <set attributeName="fill" to="#808080" begin="arrowRight.mouseover" end="arrowRight.mouseout"/>
                  </use>
                  <path fill="none" stroke="white" stroke-width="1.5" d="M0,-3.0v7 M-2.5,-0.5L0,-3.0L2.5,-0.5"/>
                </g>
                <g id="arrowDown" xlink:href="#dirArrow" transform="rotate(180) translate(-30 -48)" onmousedown="handlePan(0,1)">
                  <use xlink:href="#rim" fill="#404040">
                        <set attributeName="fill" to="#808080" begin="arrowDown.mouseover" end="arrowDown.mouseout"/>
                  </use>
                  <path fill="none" stroke="white" stroke-width="1.5" d="M0,-3.0v7 M-2.5,-0.5L0,-3.0L2.5,-0.5"/>
                </g>
                <g id="arrowLeft" xlink:href="#dirArrow" transform="rotate(270) translate(-36 17)" onmousedown="handlePan(-1,0)">
                  <use xlink:href="#rim" fill="#404040">
                        <set attributeName="fill" to="#808080" begin="arrowLeft.mouseover" end="arrowLeft.mouseout"/>
                  </use>
                  <path fill="none" stroke="white" stroke-width="1.5" d="M0,-3.0v7 M-2.5,-0.5L0,-3.0L2.5,-0.5"/>
                </g>
        </g>
        <svg viewBox="0 0 15 15" width="100%" height="30px" preserveAspectRatio="xMaxYMin meet">
         <g id="arrow_out" transform="scale(0.3 0.3)">
          <a xlink:href="hfa-se-ctx_8c_a71e1d3d18cc48b90a1ecde583ffb3f7a_cgraph_org.svg" target="_base">
           <rect id="button" ry="5" rx="5" y="6" x="6" height="38" width="38"
                fill="#f2f5e9" fill-opacity="0.5" stroke="#606060" stroke-width="1.0"/>
           <path id="arrow"
             d="M 11.500037,31.436501 C 11.940474,20.09759 22.043105,11.32322 32.158766,21.979434 L 37.068811,17.246167 C 37.068811,17.246167 37.088388,32 37.088388,32 L 22.160133,31.978069 C 22.160133,31.978069 26.997745,27.140456 26.997745,27.140456 C 18.528582,18.264221 13.291696,25.230495 11.500037,31.436501 z"
             style="fill:#404040;"/>
          </a>
         </g>
        </svg>
</svg>
