<?xml version="1.0" encoding="UTF-8" standalone="no"?>
<!DOCTYPE svg PUBLIC "-//W3C//DTD SVG 1.1//EN"
 "http://www.w3.org/Graphics/SVG/1.1/DTD/svg11.dtd">
<!-- Generated by graphviz version 2.24.0 (20090616.2323)
 -->
<!-- Title: poll Pages: 1 -->
<!--zoomable 814 -->
<svg id="main" version="1.1" xmlns="http://www.w3.org/2000/svg" xmlns:xlink="http://www.w3.org/1999/xlink" xml:space="preserve" onload="init(evt)">
        <defs>
                <circle id="rim" cx="0" cy="0" r="7"/>
                <circle id="rim2" cx="0" cy="0" r="3.5"/>
                <g id="zoomPlus">
                        <use xlink:href="#rim" fill="#404040">
                                <set attributeName="fill" to="#808080" begin="zoomplus.mouseover" end="zoomplus.mouseout"/>
                        </use>
                        <path d="M-4,0h8M0,-4v8" fill="none" stroke="white" stroke-width="1.5" pointer-events="none"/>
                </g>
                <g id="zoomMin">
                        <use xlink:href="#rim" fill="#404040">
                                <set attributeName="fill" to="#808080" begin="zoomminus.mouseover" end="zoomminus.mouseout"/>
                        </use>
                        <path d="M-4,0h8" fill="none" stroke="white" stroke-width="1.5" pointer-events="none"/>
                </g>
                <g id="dirArrow">
                        <path fill="none" stroke="white" stroke-width="1.5" d="M0,-3.0v7 M-2.5,-0.5L0,-3.0L2.5,-0.5"/>
                </g>
               <g id="resetDef">
                       <use xlink:href="#rim2" fill="#404040">
                               <set attributeName="fill" to="#808080" begin="reset.mouseover" end="reset.mouseout"/>
                       </use>
               </g>
        </defs>

<script type="text/javascript">
var viewWidth = 1358;
var viewHeight = 814;
var sectionId = 'dynsection-8';
</script>
<script xlink:href="svgpan.js"/>
<svg id="graph" class="graph">
<g id="viewport">
<title>poll</title>
<polygon fill="white" stroke="white" points="-4,5 -4,-810 1355,-810 1355,5 -4,5"/>
<!-- Node1 -->
<g id="node1" class="node"><title>Node1</title>
<polygon fill="#bfbfbf" stroke="black" points="0.5,-264.5 0.5,-285.5 33.5,-285.5 33.5,-264.5 0.5,-264.5"/>
<text text-anchor="middle" x="17" y="-272.5" font-family="FreeSans" font-size="10.00">poll</text>
</g>
<!-- Node2 -->
<g id="node3" class="node"><title>Node2</title>
<a xlink:href="cvm-hfa-search_8c.html#a6a8e1d7e70e0a10520302df5651e5fc5" target="_top" xlink:title="This routine provides the status of an outstanding pattern search operation initiated using hfa_searc...">
<polygon fill="white" stroke="black" points="840,-21.5 840,-42.5 1012,-42.5 1012,-21.5 840,-21.5"/>
<text text-anchor="middle" x="926" y="-29.5" font-family="FreeSans" font-size="10.00">hfa_searchctx_get_searchstatus</text>
</a>
</g>
<!-- Node1&#45;&gt;Node2 -->
<g id="edge2" class="edge"><title>Node1&#45;&gt;Node2</title>
<path fill="none" stroke="midnightblue" d="M20.4079,-264.22C37.2192,-213.376 116.33,-0 260,-0 260,-0 260,-0 615,-0 696.108,-0 788.493,-10.9032 851.355,-19.9808"/>
<polygon fill="midnightblue" stroke="midnightblue" points="851.17,-23.491 861.572,-21.4777 852.185,-16.5649 851.17,-23.491"/>
</g>
<!-- Node6 -->
<g id="node11" class="node"><title>Node6</title>
<a xlink:href="hfa-lnx-nctx-lock_8c.html#adb0c831ef0f9af5441a6769c377d9c95" target="_top" xlink:title="Post process the results from HFA and record found matches.">
<polygon fill="white" stroke="black" points="70,-539.5 70,-560.5 150,-560.5 150,-539.5 70,-539.5"/>
<text text-anchor="middle" x="110" y="-547.5" font-family="FreeSans" font-size="10.00">post_process</text>
</a>
</g>
<!-- Node1&#45;&gt;Node6 -->
<g id="edge10" class="edge"><title>Node1&#45;&gt;Node6</title>
<path fill="none" stroke="midnightblue" d="M20.6457,-285.78C34.593,-327.022 84.7064,-475.207 103.136,-529.704"/>
<polygon fill="midnightblue" stroke="midnightblue" points="99.8603,-530.943 106.379,-539.294 106.491,-528.7 99.8603,-530.943"/>
</g>
<!-- Node3 -->
<g id="node5" class="node"><title>Node3</title>
<a xlink:href="cvm-hfa_8c.html#a4753d2dd586e19676b1a59dd16baaeed" target="_top" xlink:title="Obtain status of submitted insruction.">
<polygon fill="white" stroke="black" points="1048.5,-21.5 1048.5,-42.5 1181.5,-42.5 1181.5,-21.5 1048.5,-21.5"/>
<text text-anchor="middle" x="1115" y="-29.5" font-family="FreeSans" font-size="10.00">hfa_dev_getasyncstatus</text>
</a>
</g>
<!-- Node2&#45;&gt;Node3 -->
<g id="edge4" class="edge"><title>Node2&#45;&gt;Node3</title>
<path fill="none" stroke="midnightblue" d="M1012.2,-32C1020.95,-32 1029.79,-32 1038.43,-32"/>
<polygon fill="midnightblue" stroke="midnightblue" points="1038.45,-35.5001 1048.45,-32 1038.45,-28.5001 1038.45,-35.5001"/>
</g>
<!-- Node4 -->
<g id="node7" class="node"><title>Node4</title>
<a xlink:href="cvm-hfa-instr_8h.html#a56f2522dcba965745a1bc239fc432dca" target="_top" xlink:title="Gets done from RWORD0.">
<polygon fill="white" stroke="black" points="1222.5,-41.5 1222.5,-62.5 1345.5,-62.5 1345.5,-41.5 1222.5,-41.5"/>
<text text-anchor="middle" x="1284" y="-49.5" font-family="FreeSans" font-size="10.00">cvm_hfa_rslt_getdone</text>
</a>
</g>
<!-- Node3&#45;&gt;Node4 -->
<g id="edge6" class="edge"><title>Node3&#45;&gt;Node4</title>
<path fill="none" stroke="midnightblue" d="M1181.79,-39.9045C1191.83,-41.0919 1202.21,-42.3206 1212.34,-43.5194"/>
<polygon fill="midnightblue" stroke="midnightblue" points="1212.02,-47.0061 1222.36,-44.7057 1212.84,-40.0546 1212.02,-47.0061"/>
</g>
<!-- Node5 -->
<g id="node9" class="node"><title>Node5</title>
<a xlink:href="cvm-hfa-instr_8h.html#a9700a50b68b6616506528eb725a8bda1" target="_top" xlink:title="Gets reason from RWORD0.">
<polygon fill="white" stroke="black" points="1218.5,-1.5 1218.5,-22.5 1349.5,-22.5 1349.5,-1.5 1218.5,-1.5"/>
<text text-anchor="middle" x="1284" y="-9.5" font-family="FreeSans" font-size="10.00">cvm_hfa_rslt_getreason</text>
</a>
</g>
<!-- Node3&#45;&gt;Node5 -->
<g id="edge8" class="edge"><title>Node3&#45;&gt;Node5</title>
<path fill="none" stroke="midnightblue" d="M1181.79,-24.0955C1190.41,-23.0753 1199.29,-22.0246 1208.05,-20.9885"/>
<polygon fill="midnightblue" stroke="midnightblue" points="1208.73,-24.4328 1218.24,-19.7817 1207.9,-17.4813 1208.73,-24.4328"/>
</g>
<!-- Node7 -->
<g id="node13" class="node"><title>Node7</title>
<a xlink:href="cvm-hfa-search_8h.html#ab50a2d84e35b5a4a03a23fc90e4dffa0" target="_top" xlink:title="This routine retrieves the reason code after a search operation has been completed by the HFA engine...">
<polygon fill="white" stroke="black" points="680,-575 680,-609 802,-609 802,-575 680,-575"/>
<text text-anchor="start" x="688" y="-596" font-family="FreeSans" font-size="10.00">hfa_searchparam_get</text>
<text text-anchor="middle" x="741" y="-583" font-family="FreeSans" font-size="10.00">_hwsearch_reason</text>
</a>
</g>
<!-- Node6&#45;&gt;Node7 -->
<g id="edge12" class="edge"><title>Node6&#45;&gt;Node7</title>
<path fill="none" stroke="midnightblue" d="M150.454,-558.778C208.342,-570.553 318.287,-590 413,-590 413,-590 413,-590 522,-590 571.281,-590 626.796,-590.513 669.602,-591.019"/>
<polygon fill="midnightblue" stroke="midnightblue" points="669.6,-594.519 679.642,-591.14 669.685,-587.52 669.6,-594.519"/>
</g>
<!-- Node8 -->
<g id="node15" class="node"><title>Node8</title>
<a xlink:href="cvm-hfa-common_8h.html#ad117ba199386b8d427cbb04f288b5905" target="_top" xlink:title="Dump HFA related registers.">
<polygon fill="white" stroke="black" points="695.5,-535.5 695.5,-556.5 786.5,-556.5 786.5,-535.5 695.5,-535.5"/>
<text text-anchor="middle" x="741" y="-543.5" font-family="FreeSans" font-size="10.00">hfa_dump_regs</text>
</a>
</g>
<!-- Node6&#45;&gt;Node8 -->
<g id="edge14" class="edge"><title>Node6&#45;&gt;Node8</title>
<path fill="none" stroke="midnightblue" d="M150.19,-550C208.217,-550 318.839,-550 413,-550 413,-550 413,-550 522,-550 577.448,-550 640.779,-548.702 685.025,-547.585"/>
<polygon fill="midnightblue" stroke="midnightblue" points="685.378,-551.077 695.285,-547.321 685.198,-544.08 685.378,-551.077"/>
</g>
<!-- Node9 -->
<g id="node17" class="node"><title>Node9</title>
<a xlink:href="cvm-hfa-search_8c.html#a6dbb15dc58155b2c94b19784ad42ef89" target="_top" xlink:title="This routine post&#45;processes the search results from the HFA engine and reports the pattern matches fo...">
<polygon fill="white" stroke="black" points="186.5,-351.5 186.5,-372.5 333.5,-372.5 333.5,-351.5 186.5,-351.5"/>
<text text-anchor="middle" x="260" y="-359.5" font-family="FreeSans" font-size="10.00">hfa_searchctx_getmatches</text>
</a>
</g>
<!-- Node6&#45;&gt;Node9 -->
<g id="edge16" class="edge"><title>Node6&#45;&gt;Node9</title>
<path fill="none" stroke="midnightblue" d="M118.494,-539.354C143.04,-508.59 214.281,-419.301 245.291,-380.435"/>
<polygon fill="midnightblue" stroke="midnightblue" points="248.098,-382.529 251.599,-372.53 242.626,-378.164 248.098,-382.529"/>
</g>
<!-- Node41 -->
<g id="node85" class="node"><title>Node41</title>
<a xlink:href="app-utils_8c.html#a633038357891aa5147b77fe939f300bf" target="_top" xlink:title="Print pattern matches via match buffer and cleanup all matches.">
<polygon fill="white" stroke="black" points="679,-685.5 679,-706.5 803,-706.5 803,-685.5 679,-685.5"/>
<text text-anchor="middle" x="741" y="-693.5" font-family="FreeSans" font-size="10.00">hfautils_print_matches</text>
</a>
</g>
<!-- Node6&#45;&gt;Node41 -->
<g id="edge108" class="edge"><title>Node6&#45;&gt;Node41</title>
<path fill="none" stroke="midnightblue" d="M125.975,-560.537C169.839,-588.418 296.628,-662 413,-662 413,-662 413,-662 522,-662 579.47,-662 644.43,-673.574 688.576,-683.217"/>
<polygon fill="midnightblue" stroke="midnightblue" points="687.978,-686.669 698.5,-685.429 689.501,-679.837 687.978,-686.669"/>
</g>
<!-- Node10 -->
<g id="node19" class="node"><title>Node10</title>
<a xlink:href="cvm-hfa-common_8h.html#a0da7c57174fb96d75ae9cc2ed3116a05" target="_top" xlink:title="Dump buffer pointed by &quot;buf&quot; in readable format.">
<polygon fill="white" stroke="black" points="370,-262.5 370,-283.5 456,-283.5 456,-262.5 370,-262.5"/>
<text text-anchor="middle" x="413" y="-270.5" font-family="FreeSans" font-size="10.00">hfa_dump_buf</text>
</a>
</g>
<!-- Node9&#45;&gt;Node10 -->
<g id="edge18" class="edge"><title>Node9&#45;&gt;Node10</title>
<path fill="none" stroke="midnightblue" d="M278.152,-351.441C304.838,-335.918 354.845,-306.829 385.892,-288.769"/>
<polygon fill="midnightblue" stroke="midnightblue" points="387.988,-291.599 394.872,-283.545 384.468,-285.548 387.988,-291.599"/>
</g>
<!-- Node11 -->
<g id="node21" class="node"><title>Node11</title>
<a xlink:href="cvm-hfa-pp_8c.html#a02d24f276578f8a39a93968262a08f1d" target="_top" xlink:title="pp">
<polygon fill="white" stroke="black" points="398.5,-400.5 398.5,-421.5 427.5,-421.5 427.5,-400.5 398.5,-400.5"/>
<text text-anchor="middle" x="413" y="-408.5" font-family="FreeSans" font-size="10.00">pp</text>
</a>
</g>
<!-- Node9&#45;&gt;Node11 -->
<g id="edge20" class="edge"><title>Node9&#45;&gt;Node11</title>
<path fill="none" stroke="midnightblue" d="M292.822,-372.512C321.531,-381.706 362.58,-394.853 388.503,-403.155"/>
<polygon fill="midnightblue" stroke="midnightblue" points="387.693,-406.57 398.284,-406.287 389.828,-399.904 387.693,-406.57"/>
</g>
<!-- Node12 -->
<g id="node23" class="node"><title>Node12</title>
<a xlink:href="pp_8h.html#af7a68f9e08d3b54012ad008a4f47e1cd" target="_top" xlink:title="pphfa">
<polygon fill="white" stroke="black" points="500,-340.5 500,-361.5 544,-361.5 544,-340.5 500,-340.5"/>
<text text-anchor="middle" x="522" y="-348.5" font-family="FreeSans" font-size="10.00">pphfa</text>
</a>
</g>
<!-- Node11&#45;&gt;Node12 -->
<g id="edge22" class="edge"><title>Node11&#45;&gt;Node12</title>
<path fill="none" stroke="midnightblue" d="M427.7,-402.908C444.607,-393.602 472.75,-378.11 493.899,-366.468"/>
<polygon fill="midnightblue" stroke="midnightblue" points="495.697,-369.474 502.77,-361.585 492.321,-363.342 495.697,-369.474"/>
</g>
<!-- Node13 -->
<g id="node25" class="node"><title>Node13</title>
<a xlink:href="cvm-hfa-res_8c.html#ad0de0b790a5786053d59797884dbdd23" target="_top" xlink:title="Rinit">
<polygon fill="white" stroke="black" points="504,-500.5 504,-521.5 540,-521.5 540,-500.5 504,-500.5"/>
<text text-anchor="middle" x="522" y="-508.5" font-family="FreeSans" font-size="10.00">Rinit</text>
</a>
</g>
<!-- Node11&#45;&gt;Node13 -->
<g id="edge24" class="edge"><title>Node11&#45;&gt;Node13</title>
<path fill="none" stroke="midnightblue" d="M422.118,-421.522C436.229,-437.495 464.598,-468.391 492,-491 493.361,-492.123 494.786,-493.241 496.244,-494.342"/>
<polygon fill="midnightblue" stroke="midnightblue" points="494.567,-497.443 504.749,-500.369 498.614,-491.731 494.567,-497.443"/>
</g>
<!-- Node14 -->
<g id="node27" class="node"><title>Node14</title>
<a xlink:href="cvm-hfa-pp_8c.html#adcc1149c628372e2e566c246870929cb" target="_top" xlink:title="infoentry">
<polygon fill="white" stroke="black" points="492.5,-380.5 492.5,-401.5 551.5,-401.5 551.5,-380.5 492.5,-380.5"/>
<text text-anchor="middle" x="522" y="-388.5" font-family="FreeSans" font-size="10.00">infoentry</text>
</a>
</g>
<!-- Node11&#45;&gt;Node14 -->
<g id="edge26" class="edge"><title>Node11&#45;&gt;Node14</title>
<path fill="none" stroke="midnightblue" d="M427.7,-408.303C441.689,-405.736 463.371,-401.758 482.418,-398.263"/>
<polygon fill="midnightblue" stroke="midnightblue" points="483.169,-401.684 492.373,-396.436 481.905,-394.798 483.169,-401.684"/>
</g>
<!-- Node48 -->
<g id="node99" class="node"><title>Node48</title>
<a xlink:href="cvm-hfa-res_8c.html#a6c56aa24fa6551b23e4283ae2d5bcad8" target="_top" xlink:title="Rreport1">
<polygon fill="white" stroke="black" points="493.5,-420.5 493.5,-441.5 550.5,-441.5 550.5,-420.5 493.5,-420.5"/>
<text text-anchor="middle" x="522" y="-428.5" font-family="FreeSans" font-size="10.00">Rreport1</text>
</a>
</g>
<!-- Node11&#45;&gt;Node48 -->
<g id="edge102" class="edge"><title>Node11&#45;&gt;Node48</title>
<path fill="none" stroke="midnightblue" d="M427.7,-413.697C441.886,-416.3 463.983,-420.355 483.221,-423.885"/>
<polygon fill="midnightblue" stroke="midnightblue" points="482.787,-427.363 493.255,-425.726 484.051,-420.478 482.787,-427.363"/>
</g>
<!-- Node50 -->
<g id="node103" class="node"><title>Node50</title>
<a xlink:href="cvm-hfa-res_8c.html#a38aa04fce135199ec3bb8726da163846" target="_top" xlink:title="Rfinish">
<polygon fill="white" stroke="black" points="498,-460.5 498,-481.5 546,-481.5 546,-460.5 498,-460.5"/>
<text text-anchor="middle" x="522" y="-468.5" font-family="FreeSans" font-size="10.00">Rfinish</text>
</a>
</g>
<!-- Node11&#45;&gt;Node50 -->
<g id="edge106" class="edge"><title>Node11&#45;&gt;Node50</title>
<path fill="none" stroke="midnightblue" d="M427.7,-419.092C444.607,-428.398 472.75,-443.89 493.899,-455.532"/>
<polygon fill="midnightblue" stroke="midnightblue" points="492.321,-458.658 502.77,-460.415 495.697,-452.526 492.321,-458.658"/>
</g>
<!-- Node15 -->
<g id="node29" class="node"><title>Node15</title>
<a xlink:href="hfa-lnx_8c.html#a78ffddbcd7cdd164889cfb53ea367886" target="_top" xlink:title="entry">
<polygon fill="white" stroke="black" points="594.5,-328.5 594.5,-349.5 635.5,-349.5 635.5,-328.5 594.5,-328.5"/>
<text text-anchor="middle" x="615" y="-336.5" font-family="FreeSans" font-size="10.00">entry</text>
</a>
</g>
<!-- Node14&#45;&gt;Node15 -->
<g id="edge28" class="edge"><title>Node14&#45;&gt;Node15</title>
<path fill="none" stroke="midnightblue" d="M540.82,-380.477C554.182,-373.006 572.338,-362.854 587.343,-354.464"/>
<polygon fill="midnightblue" stroke="midnightblue" points="589.188,-357.443 596.208,-349.507 585.772,-351.333 589.188,-357.443"/>
</g>
<!-- Node47 -->
<g id="node97" class="node"><title>Node47</title>
<a xlink:href="cvm-hfa-pp_8c.html#a85b4c8af06430f26eab8afdeea3a7395" target="_top" xlink:title="hashidx">
<polygon fill="white" stroke="black" points="588,-380.5 588,-401.5 642,-401.5 642,-380.5 588,-380.5"/>
<text text-anchor="middle" x="615" y="-388.5" font-family="FreeSans" font-size="10.00">hashidx</text>
</a>
</g>
<!-- Node14&#45;&gt;Node47 -->
<g id="edge100" class="edge"><title>Node14&#45;&gt;Node47</title>
<path fill="none" stroke="midnightblue" d="M551.681,-391C559.92,-391 568.973,-391 577.592,-391"/>
<polygon fill="midnightblue" stroke="midnightblue" points="577.807,-394.5 587.807,-391 577.807,-387.5 577.807,-394.5"/>
</g>
<!-- Node15&#45;&gt;Node7 -->
<g id="edge80" class="edge"><title>Node15&#45;&gt;Node7</title>
<path fill="none" stroke="midnightblue" d="M626.333,-349.535C631.899,-355.34 638.209,-362.983 642,-371 679.675,-450.673 622.517,-497.526 678,-566 678.603,-566.744 679.231,-567.467 679.881,-568.17"/>
<polygon fill="midnightblue" stroke="midnightblue" points="677.788,-570.989 687.619,-574.94 682.398,-565.721 677.788,-570.989"/>
</g>
<!-- Node15&#45;&gt;Node8 -->
<g id="edge82" class="edge"><title>Node15&#45;&gt;Node8</title>
<path fill="none" stroke="midnightblue" d="M626.183,-349.607C631.709,-355.432 638.027,-363.072 642,-371 673.684,-434.228 630.01,-474.051 678,-526 680.449,-528.651 683.248,-530.953 686.272,-532.951"/>
<polygon fill="midnightblue" stroke="midnightblue" points="684.831,-536.15 695.294,-537.816 688.153,-529.989 684.831,-536.15"/>
</g>
<!-- Node15&#45;&gt;Node9 -->
<g id="edge86" class="edge"><title>Node15&#45;&gt;Node9</title>
<path fill="none" stroke="midnightblue" d="M594.349,-335.71C582.08,-333.922 566.194,-331.898 552,-331 471.561,-325.913 379.104,-338.934 320.155,-349.636"/>
<polygon fill="midnightblue" stroke="midnightblue" points="319.465,-346.204 310.269,-351.466 320.739,-353.087 319.465,-346.204"/>
</g>
<!-- Node16 -->
<g id="node31" class="node"><title>Node16</title>
<a xlink:href="hfa-lnx_8c.html#a4c3443f524b4c0d95639694f0b74e850" target="_top" xlink:title="Process command line options, Read graph and payload.">
<polygon fill="white" stroke="black" points="694,-495.5 694,-516.5 788,-516.5 788,-495.5 694,-495.5"/>
<text text-anchor="middle" x="741" y="-503.5" font-family="FreeSans" font-size="10.00">process_options</text>
</a>
</g>
<!-- Node15&#45;&gt;Node16 -->
<g id="edge30" class="edge"><title>Node15&#45;&gt;Node16</title>
<path fill="none" stroke="midnightblue" d="M625.499,-349.546C630.968,-355.471 637.445,-363.222 642,-371 665.029,-410.321 649.078,-431.787 678,-467 685.83,-476.533 696.636,-484.397 707.088,-490.505"/>
<polygon fill="midnightblue" stroke="midnightblue" points="705.644,-493.704 716.099,-495.418 708.995,-487.558 705.644,-493.704"/>
</g>
<!-- Node20 -->
<g id="node39" class="node"><title>Node20</title>
<a xlink:href="cvm-hfa_8c.html#a873768042b716d60996ec5d858fc8fd9" target="_top" xlink:title="This function must be called by application to initialize HFA engine and setup resources for HFA hard...">
<polygon fill="white" stroke="red" points="704,-436.5 704,-457.5 778,-457.5 778,-436.5 704,-436.5"/>
<text text-anchor="middle" x="741" y="-444.5" font-family="FreeSans" font-size="10.00">hfa_dev_init</text>
</a>
</g>
<!-- Node15&#45;&gt;Node20 -->
<g id="edge38" class="edge"><title>Node15&#45;&gt;Node20</title>
<path fill="none" stroke="midnightblue" d="M624.607,-349.675C629.933,-355.765 636.559,-363.632 642,-371 659.577,-394.801 654.507,-409.013 678,-427 682.845,-430.709 688.395,-433.741 694.148,-436.215"/>
<polygon fill="midnightblue" stroke="midnightblue" points="693.342,-439.65 703.934,-439.877 695.795,-433.094 693.342,-439.65"/>
</g>
<!-- Node34 -->
<g id="node67" class="node"><title>Node34</title>
<a xlink:href="hfa-lnx_8c.html#a546f3769e735d4bef0bfab1cba56921c" target="_top" xlink:title="Load graph to HFA memory and cache.">
<polygon fill="white" stroke="red" points="706.5,-396.5 706.5,-417.5 775.5,-417.5 775.5,-396.5 706.5,-396.5"/>
<text text-anchor="middle" x="741" y="-404.5" font-family="FreeSans" font-size="10.00">graph_load</text>
</a>
</g>
<!-- Node15&#45;&gt;Node34 -->
<g id="edge66" class="edge"><title>Node15&#45;&gt;Node34</title>
<path fill="none" stroke="midnightblue" d="M626.249,-349.508C638.256,-360.235 658.234,-376.729 678,-387 683.952,-390.093 690.471,-392.816 696.987,-395.177"/>
<polygon fill="midnightblue" stroke="midnightblue" points="695.871,-398.495 706.465,-398.378 698.111,-391.863 695.871,-398.495"/>
</g>
<!-- Node35 -->
<g id="node69" class="node"><title>Node35</title>
<a xlink:href="hfa-lnx_8c.html#a924d2733ebc7a856f8c3fd293193ba44" target="_top" xlink:title="Initialize search context.">
<polygon fill="white" stroke="red" points="703.5,-356.5 703.5,-377.5 778.5,-377.5 778.5,-356.5 703.5,-356.5"/>
<text text-anchor="middle" x="741" y="-364.5" font-family="FreeSans" font-size="10.00">initialize_ctx</text>
</a>
</g>
<!-- Node15&#45;&gt;Node35 -->
<g id="edge68" class="edge"><title>Node15&#45;&gt;Node35</title>
<path fill="none" stroke="midnightblue" d="M635.525,-343.561C651.214,-347.047 673.482,-351.996 693.517,-356.448"/>
<polygon fill="midnightblue" stroke="midnightblue" points="692.917,-359.9 703.438,-358.653 694.435,-353.067 692.917,-359.9"/>
</g>
<!-- Node36 -->
<g id="node71" class="node"><title>Node36</title>
<a xlink:href="app-utils_8c.html#a4b47f3c9c5a0b3eaee64e264171628a3" target="_top" xlink:title="This routine reads data of chunksize/a packet from given payload(Normal/PCAP) file and returns data b...">
<polygon fill="white" stroke="red" points="678,-316.5 678,-337.5 804,-337.5 804,-316.5 678,-316.5"/>
<text text-anchor="middle" x="741" y="-324.5" font-family="FreeSans" font-size="10.00">hfautils_parse_payload</text>
</a>
</g>
<!-- Node15&#45;&gt;Node36 -->
<g id="edge70" class="edge"><title>Node15&#45;&gt;Node36</title>
<path fill="none" stroke="midnightblue" d="M635.525,-337.045C644.623,-336.179 655.933,-335.102 667.737,-333.977"/>
<polygon fill="midnightblue" stroke="midnightblue" points="668.108,-337.458 677.731,-333.026 667.444,-330.49 668.108,-337.458"/>
</g>
<!-- Node37 -->
<g id="node73" class="node"><title>Node37</title>
<a xlink:href="cvm-hfa-search_8h.html#ae9741e867075c9b8cc63a7d889d5bf20" target="_top" xlink:title="This routine is a variant of hfa_searchparam_set_inputiovec() when the previously searched input IO v...">
<polygon fill="white" stroke="black" points="680.5,-264 680.5,-298 801.5,-298 801.5,-264 680.5,-264"/>
<text text-anchor="start" x="688.5" y="-285" font-family="FreeSans" font-size="10.00">hfa_searchparam_set</text>
<text text-anchor="middle" x="741" y="-272" font-family="FreeSans" font-size="10.00">_inputiovec_0_n</text>
</a>
</g>
<!-- Node15&#45;&gt;Node37 -->
<g id="edge72" class="edge"><title>Node15&#45;&gt;Node37</title>
<path fill="none" stroke="midnightblue" d="M634.948,-328.361C647.242,-321.932 663.397,-313.709 678,-307 681.587,-305.352 685.308,-303.692 689.069,-302.051"/>
<polygon fill="midnightblue" stroke="midnightblue" points="690.633,-305.189 698.443,-298.03 687.873,-298.756 690.633,-305.189"/>
</g>
<!-- Node38 -->
<g id="node75" class="node"><title>Node38</title>
<a xlink:href="cvm-hfa-search_8h.html#a12882fa53f8ec49b9b2950711161db42" target="_top" xlink:title="This routine sets the output buffer in the sparam.">
<polygon fill="white" stroke="black" points="680.5,-212 680.5,-246 801.5,-246 801.5,-212 680.5,-212"/>
<text text-anchor="start" x="688.5" y="-233" font-family="FreeSans" font-size="10.00">hfa_searchparam_set</text>
<text text-anchor="middle" x="741" y="-220" font-family="FreeSans" font-size="10.00">_output</text>
</a>
</g>
<!-- Node15&#45;&gt;Node38 -->
<g id="edge74" class="edge"><title>Node15&#45;&gt;Node38</title>
<path fill="none" stroke="midnightblue" d="M620.544,-328.252C630.087,-310.702 651.201,-275.771 678,-255 679.613,-253.75 681.295,-252.55 683.029,-251.399"/>
<polygon fill="midnightblue" stroke="midnightblue" points="685.236,-254.16 692.056,-246.052 681.668,-248.137 685.236,-254.16"/>
</g>
<!-- Node39 -->
<g id="node77" class="node"><title>Node39</title>
<a xlink:href="cvm-hfa-search_8c.html#a57d7540278164eb6b6c132be00db0de5" target="_top" xlink:title="This routine performs a pattern search using the given parameters in a blocking manner.">
<polygon fill="white" stroke="red" points="679.5,-68.5 679.5,-89.5 802.5,-89.5 802.5,-68.5 679.5,-68.5"/>
<text text-anchor="middle" x="741" y="-76.5" font-family="FreeSans" font-size="10.00">hfa_searchctx_search</text>
</a>
</g>
<!-- Node15&#45;&gt;Node39 -->
<g id="edge76" class="edge"><title>Node15&#45;&gt;Node39</title>
<path fill="none" stroke="midnightblue" d="M616.411,-328.42C622.186,-286.6 645.279,-133.423 678,-99 679.25,-97.6848 680.586,-96.4558 681.993,-95.3073"/>
<polygon fill="midnightblue" stroke="midnightblue" points="684.282,-97.9909 690.713,-89.5711 680.435,-92.1427 684.282,-97.9909"/>
</g>
<!-- Node40 -->
<g id="node82" class="node"><title>Node40</title>
<a xlink:href="cvm-hfa-search_8h.html#ad18e328b50b109e1e44821f3d006bd9d" target="_top" xlink:title="This routine returns the data&#45;buffer offset.">
<polygon fill="white" stroke="black" points="680,-160 680,-194 802,-194 802,-160 680,-160"/>
<text text-anchor="start" x="688" y="-181" font-family="FreeSans" font-size="10.00">hfa_searchparam_get</text>
<text text-anchor="middle" x="741" y="-168" font-family="FreeSans" font-size="10.00">_hwsearch_pdboff</text>
</a>
</g>
<!-- Node15&#45;&gt;Node40 -->
<g id="edge84" class="edge"><title>Node15&#45;&gt;Node40</title>
<path fill="none" stroke="midnightblue" d="M617.162,-328.254C622.766,-303.021 640.053,-239.372 678,-203 679.094,-201.951 680.237,-200.942 681.421,-199.971"/>
<polygon fill="midnightblue" stroke="midnightblue" points="683.582,-202.73 689.741,-194.11 679.55,-197.008 683.582,-202.73"/>
</g>
<!-- Node15&#45;&gt;Node41 -->
<g id="edge88" class="edge"><title>Node15&#45;&gt;Node41</title>
<path fill="none" stroke="midnightblue" d="M626.734,-349.763C632.265,-355.517 638.421,-363.045 642,-371 687.519,-472.169 633.569,-516.349 678,-618 688.176,-641.282 707.23,-663.373 721.729,-678.061"/>
<polygon fill="midnightblue" stroke="midnightblue" points="719.641,-680.916 729.23,-685.421 724.543,-675.919 719.641,-680.916"/>
</g>
<!-- Node45 -->
<g id="node93" class="node"><title>Node45</title>
<a xlink:href="cvm-hfa-search_8h.html#ac5bcfbfda7036d9aca28a3c5828847a5" target="_top" xlink:title="This routine retrieves flags returned by post&#45;processor.">
<polygon fill="white" stroke="black" points="680,-108 680,-142 802,-142 802,-108 680,-108"/>
<text text-anchor="start" x="688" y="-129" font-family="FreeSans" font-size="10.00">hfa_searchparam_get</text>
<text text-anchor="middle" x="741" y="-116" font-family="FreeSans" font-size="10.00">_ppoflags</text>
</a>
</g>
<!-- Node15&#45;&gt;Node45 -->
<g id="edge96" class="edge"><title>Node15&#45;&gt;Node45</title>
<path fill="none" stroke="midnightblue" d="M615.592,-328.088C617.873,-296.491 628.654,-203.825 678,-151 678.886,-150.052 679.812,-149.137 680.772,-148.254"/>
<polygon fill="midnightblue" stroke="midnightblue" points="682.958,-150.988 688.731,-142.105 678.678,-145.449 682.958,-150.988"/>
</g>
<!-- Node46 -->
<g id="node95" class="node"><title>Node46</title>
<a xlink:href="hfa-lnx_8c.html#a5c6551bf9ea9cf51ae7f2076c4cbe8ef" target="_top" xlink:title="Application cleanup will be done by this routine.">
<polygon fill="white" stroke="red" points="714,-28.5 714,-49.5 768,-49.5 768,-28.5 714,-28.5"/>
<text text-anchor="middle" x="741" y="-36.5" font-family="FreeSans" font-size="10.00">cleanup</text>
</a>
</g>
<!-- Node15&#45;&gt;Node46 -->
<g id="edge98" class="edge"><title>Node15&#45;&gt;Node46</title>
<path fill="none" stroke="midnightblue" d="M615.998,-328.282C620.513,-282.02 640.442,-99.9383 678,-59 684.794,-51.5944 694.313,-46.9151 703.897,-43.9634"/>
<polygon fill="midnightblue" stroke="midnightblue" points="704.953,-47.3066 713.796,-41.471 703.244,-40.5185 704.953,-47.3066"/>
</g>
<!-- Node17 -->
<g id="node33" class="node"><title>Node17</title>
<a xlink:href="app-utils_8c.html#a8d5ec2ca8ebb2e04916983e6053a5c79" target="_top" xlink:title="Return size of a file(compressed or uncompressed).">
<polygon fill="white" stroke="red" points="878.5,-704.5 878.5,-725.5 973.5,-725.5 973.5,-704.5 878.5,-704.5"/>
<text text-anchor="middle" x="926" y="-712.5" font-family="FreeSans" font-size="10.00">hfautils_file_size</text>
</a>
</g>
<!-- Node16&#45;&gt;Node17 -->
<g id="edge32" class="edge"><title>Node16&#45;&gt;Node17</title>
<path fill="none" stroke="midnightblue" d="M788.055,-514.684C794.045,-517.476 799.606,-521.155 804,-526 855.592,-582.885 786.205,-640.194 840,-695 847.728,-702.873 857.908,-707.9 868.55,-711.059"/>
<polygon fill="midnightblue" stroke="midnightblue" points="867.851,-714.491 878.396,-713.463 869.512,-707.691 867.851,-714.491"/>
</g>
<!-- Node18 -->
<g id="node35" class="node"><title>Node18</title>
<a xlink:href="app-utils_8c.html#a12339c67618c4b3a54c32f43d378c273" target="_top" xlink:title="Read data from a file to a buffer(compressed or uncompressed).">
<polygon fill="white" stroke="red" points="877.5,-664.5 877.5,-685.5 974.5,-685.5 974.5,-664.5 877.5,-664.5"/>
<text text-anchor="middle" x="926" y="-672.5" font-family="FreeSans" font-size="10.00">hfautils_read_file</text>
</a>
</g>
<!-- Node16&#45;&gt;Node18 -->
<g id="edge34" class="edge"><title>Node16&#45;&gt;Node18</title>
<path fill="none" stroke="midnightblue" d="M788.103,-515.082C794.012,-517.819 799.537,-521.377 804,-526 845.341,-568.825 797.002,-613.839 840,-655 847.636,-662.31 857.399,-667.133 867.588,-670.278"/>
<polygon fill="midnightblue" stroke="midnightblue" points="866.877,-673.709 877.433,-672.806 868.618,-666.929 866.877,-673.709"/>
</g>
<!-- Node19 -->
<g id="node37" class="node"><title>Node19</title>
<a xlink:href="app-utils_8c.html#a1944a739d03e86dcaee1a7d245cfeba0" target="_top" xlink:title="Initialize the attributes needed for parsing the payload file.">
<polygon fill="white" stroke="red" points="869.5,-612 869.5,-646 982.5,-646 982.5,-612 869.5,-612"/>
<text text-anchor="start" x="877.5" y="-633" font-family="FreeSans" font-size="10.00">hfautils_init_payload</text>
<text text-anchor="middle" x="926" y="-620" font-family="FreeSans" font-size="10.00">_attributes</text>
</a>
</g>
<!-- Node16&#45;&gt;Node19 -->
<g id="edge36" class="edge"><title>Node16&#45;&gt;Node19</title>
<path fill="none" stroke="midnightblue" d="M788.075,-516.07C793.848,-518.659 799.343,-521.912 804,-526 832.391,-550.922 811.438,-578.274 840,-603 845.887,-608.096 852.749,-612.194 859.981,-615.488"/>
<polygon fill="midnightblue" stroke="midnightblue" points="858.711,-618.75 869.294,-619.246 861.33,-612.259 858.711,-618.75"/>
</g>
<!-- Node21 -->
<g id="node41" class="node"><title>Node21</title>
<a xlink:href="cvm-hfa-stats_8c.html#a2fcf955b47370bfa46705ee5a23a70cf" target="_top" xlink:title="This routine allocates memory for counters to maintain statistics of each processing core...">
<polygon fill="white" stroke="red" points="875,-372.5 875,-393.5 977,-393.5 977,-372.5 875,-372.5"/>
<text text-anchor="middle" x="926" y="-380.5" font-family="FreeSans" font-size="10.00">hfa_dev_stats_init</text>
</a>
</g>
<!-- Node20&#45;&gt;Node21 -->
<g id="edge40" class="edge"><title>Node20&#45;&gt;Node21</title>
<path fill="none" stroke="midnightblue" d="M778.316,-437.059C786.931,-434.245 795.931,-430.875 804,-427 821.334,-418.676 822.351,-410.634 840,-403 847.786,-399.632 856.226,-396.785 864.671,-394.392"/>
<polygon fill="midnightblue" stroke="midnightblue" points="865.773,-397.722 874.55,-391.787 863.988,-390.953 865.773,-397.722"/>
</g>
<!-- Node22 -->
<g id="node43" class="node"><title>Node22</title>
<a xlink:href="cvm-hfa_8c.html#a27982497398da2118cd5287ed51732e7" target="_top" xlink:title="Provides device&#45;specific information This is a utility routine used to obtain HFA device&#45;specific det...">
<polygon fill="white" stroke="black" points="870.5,-332.5 870.5,-353.5 981.5,-353.5 981.5,-332.5 870.5,-332.5"/>
<text text-anchor="middle" x="926" y="-340.5" font-family="FreeSans" font-size="10.00">hfa_dev_getdevinfo</text>
</a>
</g>
<!-- Node20&#45;&gt;Node22 -->
<g id="edge42" class="edge"><title>Node20&#45;&gt;Node22</title>
<path fill="none" stroke="midnightblue" d="M778.304,-440.178C787.391,-437.226 796.611,-433.01 804,-427 829.317,-406.405 813.891,-382.58 840,-363 846.208,-358.344 853.325,-354.748 860.747,-351.973"/>
<polygon fill="midnightblue" stroke="midnightblue" points="861.836,-355.299 870.266,-348.881 859.674,-348.642 861.836,-355.299"/>
</g>
<!-- Node23 -->
<g id="node45" class="node"><title>Node23</title>
<a xlink:href="pp_8h.html#a6f5982b2671e9682262a26b0d2996396" target="_top" xlink:title="Constructs a readable version string for the PP library.">
<polygon fill="white" stroke="black" points="866,-292.5 866,-313.5 986,-313.5 986,-292.5 866,-292.5"/>
<text text-anchor="middle" x="926" y="-300.5" font-family="FreeSans" font-size="10.00">pp_get_version_string</text>
</a>
</g>
<!-- Node20&#45;&gt;Node23 -->
<g id="edge44" class="edge"><title>Node20&#45;&gt;Node23</title>
<path fill="none" stroke="midnightblue" d="M778.097,-441.367C787.503,-438.405 796.932,-433.888 804,-427 839.031,-392.863 803.65,-355.729 840,-323 844.785,-318.692 850.314,-315.259 856.215,-312.531"/>
<polygon fill="midnightblue" stroke="midnightblue" points="857.707,-315.705 865.741,-308.798 855.153,-309.188 857.707,-315.705"/>
</g>
<!-- Node24 -->
<g id="node47" class="node"><title>Node24</title>
<a xlink:href="cvm-hfa_8c.html#afd1d53fe8a402d4c5799e6e98c67baaa" target="_top" xlink:title="Displays HFA Device info.">
<polygon fill="white" stroke="red" points="867.5,-252.5 867.5,-273.5 984.5,-273.5 984.5,-252.5 867.5,-252.5"/>
<text text-anchor="middle" x="926" y="-260.5" font-family="FreeSans" font-size="10.00">hfa_dev_display_info</text>
</a>
</g>
<!-- Node20&#45;&gt;Node24 -->
<g id="edge46" class="edge"><title>Node20&#45;&gt;Node24</title>
<path fill="none" stroke="midnightblue" d="M778.18,-441.873C787.699,-438.917 797.164,-434.276 804,-427 849.169,-378.919 792.97,-329.262 840,-283 845.066,-278.017 851.118,-274.182 857.632,-271.244"/>
<polygon fill="midnightblue" stroke="midnightblue" points="859.319,-274.349 867.445,-267.551 856.853,-267.797 859.319,-274.349"/>
</g>
<!-- Node25 -->
<g id="node49" class="node"><title>Node25</title>
<a xlink:href="cvm-hfa_8c.html#a236e64ca73680ea6761204d5c44d4e96" target="_top" xlink:title="API to set PP resource allocator for partial matches.">
<polygon fill="white" stroke="black" points="858.5,-212.5 858.5,-233.5 993.5,-233.5 993.5,-212.5 858.5,-212.5"/>
<text text-anchor="middle" x="926" y="-220.5" font-family="FreeSans" font-size="10.00">hfa_dev_set_fnp_ppalloc</text>
</a>
</g>
<!-- Node20&#45;&gt;Node25 -->
<g id="edge48" class="edge"><title>Node20&#45;&gt;Node25</title>
<path fill="none" stroke="midnightblue" d="M778.101,-442.202C787.734,-439.255 797.278,-434.536 804,-427 859.464,-364.812 782.127,-302.952 840,-243 842.853,-240.045 846.051,-237.489 849.49,-235.281"/>
<polygon fill="midnightblue" stroke="midnightblue" points="851.306,-238.28 858.478,-230.482 848.009,-232.105 851.306,-238.28"/>
</g>
<!-- Node26 -->
<g id="node51" class="node"><title>Node26</title>
<a xlink:href="cvm-hfa_8c.html#ab547f175726534d6a0a334eb35af4980" target="_top" xlink:title="Default function pointer for PP allocations.">
<polygon fill="white" stroke="black" points="866,-172.5 866,-193.5 986,-193.5 986,-172.5 866,-172.5"/>
<text text-anchor="middle" x="926" y="-180.5" font-family="FreeSans" font-size="10.00">hfa_defaultfn_ppalloc</text>
</a>
</g>
<!-- Node20&#45;&gt;Node26 -->
<g id="edge50" class="edge"><title>Node20&#45;&gt;Node26</title>
<path fill="none" stroke="midnightblue" d="M778.267,-442.348C787.902,-439.403 797.407,-434.649 804,-427 869.832,-350.623 771.207,-276.722 840,-203 844.53,-198.146 849.988,-194.362 855.932,-191.424"/>
<polygon fill="midnightblue" stroke="midnightblue" points="857.673,-194.494 865.607,-187.474 855.026,-188.014 857.673,-194.494"/>
</g>
<!-- Node27 -->
<g id="node53" class="node"><title>Node27</title>
<a xlink:href="cvm-hfa_8c.html#a148abbfdeebb207ff46884af8eeb8fa4" target="_top" xlink:title="API to set PP resource deallocator for partial matches.">
<polygon fill="white" stroke="black" points="860,-132.5 860,-153.5 992,-153.5 992,-132.5 860,-132.5"/>
<text text-anchor="middle" x="926" y="-140.5" font-family="FreeSans" font-size="10.00">hfa_dev_set_fnp_ppfree</text>
</a>
</g>
<!-- Node20&#45;&gt;Node27 -->
<g id="edge52" class="edge"><title>Node20&#45;&gt;Node27</title>
<path fill="none" stroke="midnightblue" d="M778.057,-442.548C787.807,-439.613 797.425,-434.815 804,-427 880.239,-336.387 760.246,-250.536 840,-163 843.163,-159.528 846.801,-156.601 850.755,-154.137"/>
<polygon fill="midnightblue" stroke="midnightblue" points="852.564,-157.143 859.854,-149.454 849.361,-150.919 852.564,-157.143"/>
</g>
<!-- Node28 -->
<g id="node55" class="node"><title>Node28</title>
<a xlink:href="cvm-hfa_8c.html#a832239ee7b188265bdacbbfb7e879af1" target="_top" xlink:title="Default function pointer for PP deallocations.">
<polygon fill="white" stroke="black" points="867.5,-92.5 867.5,-113.5 984.5,-113.5 984.5,-92.5 867.5,-92.5"/>
<text text-anchor="middle" x="926" y="-100.5" font-family="FreeSans" font-size="10.00">hfa_defaultfn_ppfree</text>
</a>
</g>
<!-- Node20&#45;&gt;Node28 -->
<g id="edge54" class="edge"><title>Node20&#45;&gt;Node28</title>
<path fill="none" stroke="midnightblue" d="M778.145,-442.622C787.897,-439.689 797.494,-434.873 804,-427 890.671,-322.123 749.26,-224.377 840,-123 844.92,-117.503 851.029,-113.366 857.707,-110.272"/>
<polygon fill="midnightblue" stroke="midnightblue" points="859.022,-113.517 867.107,-106.67 856.517,-106.98 859.022,-113.517"/>
</g>
<!-- Node29 -->
<g id="node57" class="node"><title>Node29</title>
<a xlink:href="cvm-hfa_8c.html#a774451b83b300f862763d189c9758e1f" target="_top" xlink:title="API to set PP buffer size function pointer.">
<polygon fill="white" stroke="black" points="860,-572.5 860,-593.5 992,-593.5 992,-572.5 860,-572.5"/>
<text text-anchor="middle" x="926" y="-580.5" font-family="FreeSans" font-size="10.00">hfa_dev_set_fnp_ppsize</text>
</a>
</g>
<!-- Node20&#45;&gt;Node29 -->
<g id="edge56" class="edge"><title>Node20&#45;&gt;Node29</title>
<path fill="none" stroke="midnightblue" d="M764.905,-457.588C777.799,-464.252 793.229,-473.889 804,-486 829.106,-514.229 810.648,-539.217 840,-563 843.192,-565.586 846.657,-567.85 850.305,-569.83"/>
<polygon fill="midnightblue" stroke="midnightblue" points="849.149,-573.153 859.693,-574.193 852.099,-566.805 849.149,-573.153"/>
</g>
<!-- Node30 -->
<g id="node59" class="node"><title>Node30</title>
<a xlink:href="cvm-hfa_8c.html#a11aab8e30488e4cfc900f60a0dabc784" target="_top" xlink:title="Default function pointer for PP size.">
<polygon fill="white" stroke="black" points="867.5,-532.5 867.5,-553.5 984.5,-553.5 984.5,-532.5 867.5,-532.5"/>
<text text-anchor="middle" x="926" y="-540.5" font-family="FreeSans" font-size="10.00">hfa_defaultfn_ppsize</text>
</a>
</g>
<!-- Node20&#45;&gt;Node30 -->
<g id="edge58" class="edge"><title>Node20&#45;&gt;Node30</title>
<path fill="none" stroke="midnightblue" d="M760.844,-457.613C773.681,-464.874 790.461,-475.125 804,-486 821.888,-500.368 820.019,-511.723 840,-523 845.519,-526.115 851.499,-528.745 857.646,-530.966"/>
<polygon fill="midnightblue" stroke="midnightblue" points="856.81,-534.375 867.402,-534.131 858.97,-527.716 856.81,-534.375"/>
</g>
<!-- Node31 -->
<g id="node61" class="node"><title>Node31</title>
<a xlink:href="cvm-hfa_8c.html#a9a0b038e0d29435cb91a21d9c62806cc" target="_top" xlink:title="API to set PP resource allocator for temporary memory.">
<polygon fill="white" stroke="black" points="857,-492.5 857,-513.5 995,-513.5 995,-492.5 857,-492.5"/>
<text text-anchor="middle" x="926" y="-500.5" font-family="FreeSans" font-size="10.00">hfa_dev_set_fnp_pptalloc</text>
</a>
</g>
<!-- Node20&#45;&gt;Node31 -->
<g id="edge60" class="edge"><title>Node20&#45;&gt;Node31</title>
<path fill="none" stroke="midnightblue" d="M767.601,-457.661C787.367,-465.34 815.104,-475.608 840,-483 848.435,-485.504 857.41,-487.891 866.26,-490.087"/>
<polygon fill="midnightblue" stroke="midnightblue" points="865.621,-493.534 876.163,-492.482 867.266,-486.73 865.621,-493.534"/>
</g>
<!-- Node32 -->
<g id="node63" class="node"><title>Node32</title>
<a xlink:href="cvm-hfa_8c.html#a2cbca63c413f08d3861f9b4c2855391f" target="_top" xlink:title="API to set PP resource deallocator for temporary memory.">
<polygon fill="white" stroke="black" points="858.5,-452.5 858.5,-473.5 993.5,-473.5 993.5,-452.5 858.5,-452.5"/>
<text text-anchor="middle" x="926" y="-460.5" font-family="FreeSans" font-size="10.00">hfa_dev_set_fnp_pptfree</text>
</a>
</g>
<!-- Node20&#45;&gt;Node32 -->
<g id="edge62" class="edge"><title>Node20&#45;&gt;Node32</title>
<path fill="none" stroke="midnightblue" d="M778.438,-450.238C798.485,-451.972 823.957,-454.175 848.074,-456.26"/>
<polygon fill="midnightblue" stroke="midnightblue" points="848.042,-459.771 858.307,-457.145 848.645,-452.797 848.042,-459.771"/>
</g>
<!-- Node33 -->
<g id="node65" class="node"><title>Node33</title>
<a xlink:href="cvm-hfa_8c.html#af0b17e8a09b1f7a1dd438ddcb1e4cd14" target="_top" xlink:title="API to set temporary memory size function pointer.">
<polygon fill="white" stroke="black" points="858.5,-412.5 858.5,-433.5 993.5,-433.5 993.5,-412.5 858.5,-412.5"/>
<text text-anchor="middle" x="926" y="-420.5" font-family="FreeSans" font-size="10.00">hfa_dev_set_fnp_pptsize</text>
</a>
</g>
<!-- Node20&#45;&gt;Node33 -->
<g id="edge64" class="edge"><title>Node20&#45;&gt;Node33</title>
<path fill="none" stroke="midnightblue" d="M778.438,-442.143C798.485,-439.543 823.957,-436.238 848.074,-433.109"/>
<polygon fill="midnightblue" stroke="midnightblue" points="848.84,-436.539 858.307,-431.782 847.939,-429.598 848.84,-436.539"/>
</g>
<!-- Node39&#45;&gt;Node2 -->
<g id="edge78" class="edge"><title>Node39&#45;&gt;Node2</title>
<path fill="none" stroke="midnightblue" d="M782.518,-68.4523C809.772,-61.5281 845.614,-52.4223 874.657,-45.0439"/>
<polygon fill="midnightblue" stroke="midnightblue" points="875.791,-48.3671 884.621,-42.5125 874.067,-41.5827 875.791,-48.3671"/>
</g>
<!-- Node42 -->
<g id="node87" class="node"><title>Node42</title>
<a xlink:href="cvm-hfa-search_8c.html#a0ac0bca99358ad294a18f86696acf218" target="_top" xlink:title="This routine returns a match by parsing through the match buffer.">
<polygon fill="white" stroke="black" points="882,-744.5 882,-765.5 970,-765.5 970,-744.5 882,-744.5"/>
<text text-anchor="middle" x="926" y="-752.5" font-family="FreeSans" font-size="10.00">hfa_match_get</text>
</a>
</g>
<!-- Node41&#45;&gt;Node42 -->
<g id="edge90" class="edge"><title>Node41&#45;&gt;Node42</title>
<path fill="none" stroke="midnightblue" d="M765.055,-706.627C784.886,-715.106 813.896,-726.871 840,-735 850.204,-738.178 861.228,-741.108 871.87,-743.69"/>
<polygon fill="midnightblue" stroke="midnightblue" points="871.38,-747.17 881.916,-746.055 872.984,-740.356 871.38,-747.17"/>
</g>
<!-- Node43 -->
<g id="node89" class="node"><title>Node43</title>
<a xlink:href="cvm-hfa-search_8c.html#a543990bc2a5e1726298e5053391e3bf5" target="_top" xlink:title="This routine cleans&#45;up the match&#45;buffers allocated by hfa_searchctx_getmatches().">
<polygon fill="white" stroke="black" points="864.5,-784.5 864.5,-805.5 987.5,-805.5 987.5,-784.5 864.5,-784.5"/>
<text text-anchor="middle" x="926" y="-792.5" font-family="FreeSans" font-size="10.00">hfa_matches_cleanup</text>
</a>
</g>
<!-- Node41&#45;&gt;Node43 -->
<g id="edge92" class="edge"><title>Node41&#45;&gt;Node43</title>
<path fill="none" stroke="midnightblue" d="M751.173,-706.768C767.991,-723.909 803.388,-757.269 840,-775 844.915,-777.38 850.127,-779.485 855.459,-781.346"/>
<polygon fill="midnightblue" stroke="midnightblue" points="854.557,-784.732 865.147,-784.437 856.685,-778.063 854.557,-784.732"/>
</g>
<!-- Node44 -->
<g id="node91" class="node"><title>Node44</title>
<a xlink:href="cvm-hfa-res_8c.html#a78813e2d747c1d659277b705ebdffc50" target="_top" xlink:title="Rfree">
<polygon fill="white" stroke="black" points="1094,-784.5 1094,-805.5 1136,-805.5 1136,-784.5 1094,-784.5"/>
<text text-anchor="middle" x="1115" y="-792.5" font-family="FreeSans" font-size="10.00">Rfree</text>
</a>
</g>
<!-- Node43&#45;&gt;Node44 -->
<g id="edge94" class="edge"><title>Node43&#45;&gt;Node44</title>
<path fill="none" stroke="midnightblue" d="M987.624,-795C1019.81,-795 1057.82,-795 1083.89,-795"/>
<polygon fill="midnightblue" stroke="midnightblue" points="1083.93,-798.5 1093.93,-795 1083.93,-791.5 1083.93,-798.5"/>
</g>
<!-- Node49 -->
<g id="node101" class="node"><title>Node49</title>
<a xlink:href="cvm-hfa-res_8c.html#a70c9e55ba1fcb934f74ad71ddca9d08f" target="_top" xlink:title="Radd">
<polygon fill="white" stroke="black" points="594.5,-420.5 594.5,-441.5 635.5,-441.5 635.5,-420.5 594.5,-420.5"/>
<text text-anchor="middle" x="615" y="-428.5" font-family="FreeSans" font-size="10.00">Radd</text>
</a>
</g>
<!-- Node48&#45;&gt;Node49 -->
<g id="edge104" class="edge"><title>Node48&#45;&gt;Node49</title>
<path fill="none" stroke="midnightblue" d="M550.662,-431C561.229,-431 573.245,-431 584.009,-431"/>
<polygon fill="midnightblue" stroke="midnightblue" points="584.256,-434.5 594.256,-431 584.256,-427.5 584.256,-434.5"/>
</g>
</g>
</svg>
        <g id="navigator" transform="translate(0 0)" fill="#404254">
                <rect fill="#f2f5e9" fill-opacity="0.5" stroke="#606060" stroke-width=".5" x="0" y="0" width="60" height="60"/>
                <use id="zoomplus" xlink:href="#zoomPlus" x="17" y="9" onmousedown="handleZoom(evt,'in')"/>
                <use id="zoomminus" xlink:href="#zoomMin" x="42" y="9" onmousedown="handleZoom(evt,'out')"/>
                <use id="reset" xlink:href="#resetDef" x="30" y="36" onmousedown="handleReset()"/>
                <g id="arrowUp" xlink:href="#dirArrow" transform="translate(30 24)" onmousedown="handlePan(0,-1)">
                  <use xlink:href="#rim" fill="#404040">
                        <set attributeName="fill" to="#808080" begin="arrowUp.mouseover" end="arrowUp.mouseout"/>
                  </use>
                  <path fill="none" stroke="white" stroke-width="1.5" d="M0,-3.0v7 M-2.5,-0.5L0,-3.0L2.5,-0.5"/>
                </g>
                <g id="arrowRight" xlink:href="#dirArrow" transform="rotate(90) translate(36 -43)" onmousedown="handlePan(1,0)">
                  <use xlink:href="#rim" fill="#404040">
                        <set attributeName="fill" to="#808080" begin="arrowRight.mouseover" end="arrowRight.mouseout"/>
                  </use>
                  <path fill="none" stroke="white" stroke-width="1.5" d="M0,-3.0v7 M-2.5,-0.5L0,-3.0L2.5,-0.5"/>
                </g>
                <g id="arrowDown" xlink:href="#dirArrow" transform="rotate(180) translate(-30 -48)" onmousedown="handlePan(0,1)">
                  <use xlink:href="#rim" fill="#404040">
                        <set attributeName="fill" to="#808080" begin="arrowDown.mouseover" end="arrowDown.mouseout"/>
                  </use>
                  <path fill="none" stroke="white" stroke-width="1.5" d="M0,-3.0v7 M-2.5,-0.5L0,-3.0L2.5,-0.5"/>
                </g>
                <g id="arrowLeft" xlink:href="#dirArrow" transform="rotate(270) translate(-36 17)" onmousedown="handlePan(-1,0)">
                  <use xlink:href="#rim" fill="#404040">
                        <set attributeName="fill" to="#808080" begin="arrowLeft.mouseover" end="arrowLeft.mouseout"/>
                  </use>
                  <path fill="none" stroke="white" stroke-width="1.5" d="M0,-3.0v7 M-2.5,-0.5L0,-3.0L2.5,-0.5"/>
                </g>
        </g>
        <svg viewBox="0 0 15 15" width="100%" height="30px" preserveAspectRatio="xMaxYMin meet">
         <g id="arrow_out" transform="scale(0.3 0.3)">
          <a xlink:href="hfa-lnx-nctx-lock_8c_a48d3743fb7abc7d3c6b68359678e52a1_cgraph_org.svg" target="_base">
           <rect id="button" ry="5" rx="5" y="6" x="6" height="38" width="38"
                fill="#f2f5e9" fill-opacity="0.5" stroke="#606060" stroke-width="1.0"/>
           <path id="arrow"
             d="M 11.500037,31.436501 C 11.940474,20.09759 22.043105,11.32322 32.158766,21.979434 L 37.068811,17.246167 C 37.068811,17.246167 37.088388,32 37.088388,32 L 22.160133,31.978069 C 22.160133,31.978069 26.997745,27.140456 26.997745,27.140456 C 18.528582,18.264221 13.291696,25.230495 11.500037,31.436501 z"
             style="fill:#404040;"/>
          </a>
         </g>
        </svg>
</svg>
