<?xml version="1.0" encoding="UTF-8" standalone="no"?>
<!DOCTYPE svg PUBLIC "-//W3C//DTD SVG 1.1//EN"
 "http://www.w3.org/Graphics/SVG/1.1/DTD/svg11.dtd">
<!-- Generated by graphviz version 2.24.0 (20090616.2323)
 -->
<!-- Title: entry Pages: 1 -->
<svg width="584pt" height="1678pt"
 viewBox="0.00 0.00 584.00 1678.00" xmlns="http://www.w3.org/2000/svg" xmlns:xlink="http://www.w3.org/1999/xlink">
<g id="graph1" class="graph" transform="scale(1 1) rotate(0) translate(4 1674)">
<title>entry</title>
<polygon fill="white" stroke="white" points="-4,5 -4,-1674 581,-1674 581,5 -4,5"/>
<!-- Node1 -->
<g id="node1" class="node"><title>Node1</title>
<polygon fill="#bfbfbf" stroke="black" points="0.5,-518.5 0.5,-539.5 41.5,-539.5 41.5,-518.5 0.5,-518.5"/>
<text text-anchor="middle" x="21" y="-526.5" font-family="FreeSans" font-size="10.00">entry</text>
</g>
<!-- Node2 -->
<g id="node3" class="node"><title>Node2</title>
<a xlink:href="hfa-lnx-async_8c.html#a4c3443f524b4c0d95639694f0b74e850" target="_top" xlink:title="Process command line options, Read graph and payload.">
<polygon fill="white" stroke="black" points="104,-1608.5 104,-1629.5 198,-1629.5 198,-1608.5 104,-1608.5"/>
<text text-anchor="middle" x="151" y="-1616.5" font-family="FreeSans" font-size="10.00">process_options</text>
</a>
</g>
<!-- Node1&#45;&gt;Node2 -->
<g id="edge2" class="edge"><title>Node1&#45;&gt;Node2</title>
<path fill="none" stroke="midnightblue" d="M21.425,-539.892C24.0828,-605.616 39.5672,-955.942 78,-1239 96.8111,-1377.54 133.285,-1541.98 146.269,-1598.64"/>
<polygon fill="midnightblue" stroke="midnightblue" points="142.884,-1599.53 148.541,-1608.49 149.705,-1597.96 142.884,-1599.53"/>
</g>
<!-- Node5 -->
<g id="node9" class="node"><title>Node5</title>
<a xlink:href="cvm-hfa_8c.html#a873768042b716d60996ec5d858fc8fd9" target="_top" xlink:title="This function must be called by application to initialize HFA engine and setup resources for HFA hard...">
<polygon fill="white" stroke="black" points="114,-1208.5 114,-1229.5 188,-1229.5 188,-1208.5 114,-1208.5"/>
<text text-anchor="middle" x="151" y="-1216.5" font-family="FreeSans" font-size="10.00">hfa_dev_init</text>
</a>
</g>
<!-- Node1&#45;&gt;Node5 -->
<g id="edge8" class="edge"><title>Node1&#45;&gt;Node5</title>
<path fill="none" stroke="midnightblue" d="M22.99,-539.562C37.5223,-616.695 127.291,-1093.16 147.124,-1198.43"/>
<polygon fill="midnightblue" stroke="midnightblue" points="143.715,-1199.24 149.007,-1208.42 150.594,-1197.94 143.715,-1199.24"/>
</g>
<!-- Node24 -->
<g id="node47" class="node"><title>Node24</title>
<a xlink:href="hfa-lnx-async_8c.html#abc17fab65a320998a273d112ff24d658" target="_top" xlink:title="Configure cluster memory resources.">
<polygon fill="white" stroke="black" points="78,-254 78,-288 224,-288 224,-254 78,-254"/>
<text text-anchor="start" x="86" y="-275" font-family="FreeSans" font-size="10.00">configure_cluster_memory</text>
<text text-anchor="middle" x="151" y="-262" font-family="FreeSans" font-size="10.00">_resources</text>
</a>
</g>
<!-- Node1&#45;&gt;Node24 -->
<g id="edge46" class="edge"><title>Node1&#45;&gt;Node24</title>
<path fill="none" stroke="midnightblue" d="M26.4204,-518.243C45.4598,-480.457 109.636,-353.092 137.689,-297.418"/>
<polygon fill="midnightblue" stroke="midnightblue" points="140.959,-298.705 142.333,-288.2 134.708,-295.555 140.959,-298.705"/>
</g>
<!-- Node36 -->
<g id="node71" class="node"><title>Node36</title>
<a xlink:href="hfa-lnx-async_8c.html#a546f3769e735d4bef0bfab1cba56921c" target="_top" xlink:title="Load graph to HFA memory and cache.">
<polygon fill="white" stroke="black" points="116.5,-710.5 116.5,-731.5 185.5,-731.5 185.5,-710.5 116.5,-710.5"/>
<text text-anchor="middle" x="151" y="-718.5" font-family="FreeSans" font-size="10.00">graph_load</text>
</a>
</g>
<!-- Node1&#45;&gt;Node36 -->
<g id="edge70" class="edge"><title>Node1&#45;&gt;Node36</title>
<path fill="none" stroke="midnightblue" d="M28.1745,-539.596C49.2113,-570.666 110.955,-661.857 138.028,-701.841"/>
<polygon fill="midnightblue" stroke="midnightblue" points="135.183,-703.882 143.687,-710.2 140.979,-699.957 135.183,-703.882"/>
</g>
<!-- Node44 -->
<g id="node89" class="node"><title>Node44</title>
<a xlink:href="hfa-lnx-async_8c.html#a7dea7d59754828b1173c4c7ec5d42f3e" target="_top" xlink:title="thread_callback">
<polygon fill="white" stroke="black" points="105,-29.5 105,-50.5 197,-50.5 197,-29.5 105,-29.5"/>
<text text-anchor="middle" x="151" y="-37.5" font-family="FreeSans" font-size="10.00">thread_callback</text>
</a>
</g>
<!-- Node1&#45;&gt;Node44 -->
<g id="edge90" class="edge"><title>Node1&#45;&gt;Node44</title>
<path fill="none" stroke="midnightblue" d="M22.0365,-518.437C27.3436,-465.247 52.2279,-226.535 78,-157 91.9679,-119.314 119.007,-80.7422 135.969,-58.6518"/>
<polygon fill="midnightblue" stroke="midnightblue" points="138.938,-60.5371 142.345,-50.5051 133.425,-56.2227 138.938,-60.5371"/>
</g>
<!-- Node46 -->
<g id="node93" class="node"><title>Node46</title>
<a xlink:href="hfa-lnx-async_8c.html#a1e97b1d598034fdc92d57054a6c386e6" target="_top" xlink:title="tasklet_callback">
<polygon fill="white" stroke="black" points="105,-166.5 105,-187.5 197,-187.5 197,-166.5 105,-166.5"/>
<text text-anchor="middle" x="151" y="-174.5" font-family="FreeSans" font-size="10.00">tasklet_callback</text>
</a>
</g>
<!-- Node1&#45;&gt;Node46 -->
<g id="edge94" class="edge"><title>Node1&#45;&gt;Node46</title>
<path fill="none" stroke="midnightblue" d="M22.234,-518.499C27.6979,-473.121 50.6534,-293.951 78,-245 89.6175,-224.204 109.822,-206.127 126.033,-193.849"/>
<polygon fill="midnightblue" stroke="midnightblue" points="128.528,-196.362 134.549,-187.644 124.406,-190.704 128.528,-196.362"/>
</g>
<!-- Node47 -->
<g id="node96" class="node"><title>Node47</title>
<a xlink:href="hfa-lnx-async_8c.html#acd9e54f020b77f14d54c200b65423a15" target="_top" xlink:title="Application cleanup will be done by this routine.">
<polygon fill="white" stroke="black" points="124,-518.5 124,-539.5 178,-539.5 178,-518.5 124,-518.5"/>
<text text-anchor="middle" x="151" y="-526.5" font-family="FreeSans" font-size="10.00">cleanup</text>
</a>
</g>
<!-- Node1&#45;&gt;Node47 -->
<g id="edge98" class="edge"><title>Node1&#45;&gt;Node47</title>
<path fill="none" stroke="midnightblue" d="M41.5989,-529C60.8456,-529 90.0411,-529 113.432,-529"/>
<polygon fill="midnightblue" stroke="midnightblue" points="113.714,-532.5 123.714,-529 113.714,-525.5 113.714,-532.5"/>
</g>
<!-- Node3 -->
<g id="node5" class="node"><title>Node3</title>
<a xlink:href="app-utils_8c.html#a8d5ec2ca8ebb2e04916983e6053a5c79" target="_top" xlink:title="Return size of a file(compressed or uncompressed).">
<polygon fill="white" stroke="red" points="295.5,-1648.5 295.5,-1669.5 390.5,-1669.5 390.5,-1648.5 295.5,-1648.5"/>
<text text-anchor="middle" x="343" y="-1656.5" font-family="FreeSans" font-size="10.00">hfautils_file_size</text>
</a>
</g>
<!-- Node2&#45;&gt;Node3 -->
<g id="edge4" class="edge"><title>Node2&#45;&gt;Node3</title>
<path fill="none" stroke="midnightblue" d="M198.461,-1628.89C224.769,-1634.37 257.677,-1641.22 285.444,-1647.01"/>
<polygon fill="midnightblue" stroke="midnightblue" points="284.916,-1650.47 295.42,-1649.09 286.344,-1643.62 284.916,-1650.47"/>
</g>
<!-- Node4 -->
<g id="node7" class="node"><title>Node4</title>
<a xlink:href="app-utils_8c.html#a12339c67618c4b3a54c32f43d378c273" target="_top" xlink:title="Read data from a file to a buffer(compressed or uncompressed).">
<polygon fill="white" stroke="red" points="294.5,-1608.5 294.5,-1629.5 391.5,-1629.5 391.5,-1608.5 294.5,-1608.5"/>
<text text-anchor="middle" x="343" y="-1616.5" font-family="FreeSans" font-size="10.00">hfautils_read_file</text>
</a>
</g>
<!-- Node2&#45;&gt;Node4 -->
<g id="edge6" class="edge"><title>Node2&#45;&gt;Node4</title>
<path fill="none" stroke="midnightblue" d="M198.461,-1619C224.358,-1619 256.65,-1619 284.14,-1619"/>
<polygon fill="midnightblue" stroke="midnightblue" points="284.417,-1622.5 294.417,-1619 284.417,-1615.5 284.417,-1622.5"/>
</g>
<!-- Node6 -->
<g id="node11" class="node"><title>Node6</title>
<a xlink:href="cvm-hfa-stats_8c.html#a2fcf955b47370bfa46705ee5a23a70cf" target="_top" xlink:title="This routine allocates memory for counters to maintain statistics of each processing core...">
<polygon fill="white" stroke="red" points="292,-1568.5 292,-1589.5 394,-1589.5 394,-1568.5 292,-1568.5"/>
<text text-anchor="middle" x="343" y="-1576.5" font-family="FreeSans" font-size="10.00">hfa_dev_stats_init</text>
</a>
</g>
<!-- Node5&#45;&gt;Node6 -->
<g id="edge10" class="edge"><title>Node5&#45;&gt;Node6</title>
<path fill="none" stroke="midnightblue" d="M152.96,-1229.6C162.819,-1281.83 208.564,-1511.23 260,-1559 266.245,-1564.8 273.871,-1569 281.944,-1572.04"/>
<polygon fill="midnightblue" stroke="midnightblue" points="280.98,-1575.4 291.57,-1575.08 283.092,-1568.73 280.98,-1575.4"/>
</g>
<!-- Node7 -->
<g id="node13" class="node"><title>Node7</title>
<a xlink:href="cvm-hfa_8c.html#a27982497398da2118cd5287ed51732e7" target="_top" xlink:title="Provides device&#45;specific information This is a utility routine used to obtain HFA device&#45;specific det...">
<polygon fill="white" stroke="black" points="287.5,-1528.5 287.5,-1549.5 398.5,-1549.5 398.5,-1528.5 287.5,-1528.5"/>
<text text-anchor="middle" x="343" y="-1536.5" font-family="FreeSans" font-size="10.00">hfa_dev_getdevinfo</text>
</a>
</g>
<!-- Node5&#45;&gt;Node7 -->
<g id="edge12" class="edge"><title>Node5&#45;&gt;Node7</title>
<path fill="none" stroke="midnightblue" d="M151.435,-1229.71C153.8,-1273.11 168.69,-1437.39 260,-1519 265.198,-1523.65 271.287,-1527.26 277.765,-1530.06"/>
<polygon fill="midnightblue" stroke="midnightblue" points="276.881,-1533.47 287.475,-1533.62 279.288,-1526.89 276.881,-1533.47"/>
</g>
<!-- Node8 -->
<g id="node15" class="node"><title>Node8</title>
<a xlink:href="pp_8h.html#a6f5982b2671e9682262a26b0d2996396" target="_top" xlink:title="Constructs a readable version string for the PP library.">
<polygon fill="white" stroke="black" points="283,-1488.5 283,-1509.5 403,-1509.5 403,-1488.5 283,-1488.5"/>
<text text-anchor="middle" x="343" y="-1496.5" font-family="FreeSans" font-size="10.00">pp_get_version_string</text>
</a>
</g>
<!-- Node5&#45;&gt;Node8 -->
<g id="edge14" class="edge"><title>Node5&#45;&gt;Node8</title>
<path fill="none" stroke="midnightblue" d="M152.089,-1229.64C156.735,-1269.29 178.559,-1409.68 260,-1479 263.989,-1482.4 268.459,-1485.23 273.201,-1487.61"/>
<polygon fill="midnightblue" stroke="midnightblue" points="272.028,-1490.91 282.6,-1491.61 274.774,-1484.47 272.028,-1490.91"/>
</g>
<!-- Node9 -->
<g id="node17" class="node"><title>Node9</title>
<a xlink:href="cvm-hfa_8c.html#afd1d53fe8a402d4c5799e6e98c67baaa" target="_top" xlink:title="Displays HFA Device info.">
<polygon fill="white" stroke="red" points="284.5,-1448.5 284.5,-1469.5 401.5,-1469.5 401.5,-1448.5 284.5,-1448.5"/>
<text text-anchor="middle" x="343" y="-1456.5" font-family="FreeSans" font-size="10.00">hfa_dev_display_info</text>
</a>
</g>
<!-- Node5&#45;&gt;Node9 -->
<g id="edge16" class="edge"><title>Node5&#45;&gt;Node9</title>
<path fill="none" stroke="midnightblue" d="M152.98,-1229.72C160.175,-1265.51 188.374,-1381.83 260,-1439 264.417,-1442.53 269.359,-1445.44 274.571,-1447.86"/>
<polygon fill="midnightblue" stroke="midnightblue" points="273.607,-1451.24 284.192,-1451.68 276.192,-1444.74 273.607,-1451.24"/>
</g>
<!-- Node10 -->
<g id="node19" class="node"><title>Node10</title>
<a xlink:href="cvm-hfa_8c.html#a236e64ca73680ea6761204d5c44d4e96" target="_top" xlink:title="API to set PP resource allocator for partial matches.">
<polygon fill="white" stroke="black" points="275.5,-1408.5 275.5,-1429.5 410.5,-1429.5 410.5,-1408.5 275.5,-1408.5"/>
<text text-anchor="middle" x="343" y="-1416.5" font-family="FreeSans" font-size="10.00">hfa_dev_set_fnp_ppalloc</text>
</a>
</g>
<!-- Node5&#45;&gt;Node10 -->
<g id="edge18" class="edge"><title>Node5&#45;&gt;Node10</title>
<path fill="none" stroke="midnightblue" d="M154.152,-1229.51C164.077,-1260.72 197.776,-1353.5 260,-1399 262.55,-1400.86 265.251,-1402.56 268.059,-1404.09"/>
<polygon fill="midnightblue" stroke="midnightblue" points="266.808,-1407.37 277.344,-1408.49 269.803,-1401.05 266.808,-1407.37"/>
</g>
<!-- Node11 -->
<g id="node21" class="node"><title>Node11</title>
<a xlink:href="cvm-hfa_8c.html#ab547f175726534d6a0a334eb35af4980" target="_top" xlink:title="Default function pointer for PP allocations.">
<polygon fill="white" stroke="black" points="283,-1368.5 283,-1389.5 403,-1389.5 403,-1368.5 283,-1368.5"/>
<text text-anchor="middle" x="343" y="-1376.5" font-family="FreeSans" font-size="10.00">hfa_defaultfn_ppalloc</text>
</a>
</g>
<!-- Node5&#45;&gt;Node11 -->
<g id="edge20" class="edge"><title>Node5&#45;&gt;Node11</title>
<path fill="none" stroke="midnightblue" d="M156.128,-1229.77C169.331,-1256.26 207.193,-1324.94 260,-1359 264.142,-1361.67 268.607,-1363.99 273.244,-1365.99"/>
<polygon fill="midnightblue" stroke="midnightblue" points="272.359,-1369.4 282.95,-1369.69 274.851,-1362.86 272.359,-1369.4"/>
</g>
<!-- Node12 -->
<g id="node23" class="node"><title>Node12</title>
<a xlink:href="cvm-hfa_8c.html#a148abbfdeebb207ff46884af8eeb8fa4" target="_top" xlink:title="API to set PP resource deallocator for partial matches.">
<polygon fill="white" stroke="black" points="277,-1328.5 277,-1349.5 409,-1349.5 409,-1328.5 277,-1328.5"/>
<text text-anchor="middle" x="343" y="-1336.5" font-family="FreeSans" font-size="10.00">hfa_dev_set_fnp_ppfree</text>
</a>
</g>
<!-- Node5&#45;&gt;Node12 -->
<g id="edge22" class="edge"><title>Node5&#45;&gt;Node12</title>
<path fill="none" stroke="midnightblue" d="M159.346,-1229.63C176.104,-1250.23 216.027,-1295.58 260,-1319 264.272,-1321.28 268.805,-1323.3 273.462,-1325.09"/>
<polygon fill="midnightblue" stroke="midnightblue" points="272.559,-1328.48 283.154,-1328.46 274.859,-1321.87 272.559,-1328.48"/>
</g>
<!-- Node13 -->
<g id="node25" class="node"><title>Node13</title>
<a xlink:href="cvm-hfa_8c.html#a832239ee7b188265bdacbbfb7e879af1" target="_top" xlink:title="Default function pointer for PP deallocations.">
<polygon fill="white" stroke="black" points="284.5,-1288.5 284.5,-1309.5 401.5,-1309.5 401.5,-1288.5 284.5,-1288.5"/>
<text text-anchor="middle" x="343" y="-1296.5" font-family="FreeSans" font-size="10.00">hfa_defaultfn_ppfree</text>
</a>
</g>
<!-- Node5&#45;&gt;Node13 -->
<g id="edge24" class="edge"><title>Node5&#45;&gt;Node13</title>
<path fill="none" stroke="midnightblue" d="M166.956,-1229.57C187.628,-1242.84 225.157,-1265.49 260,-1279 266.407,-1281.48 273.215,-1283.72 280.069,-1285.73"/>
<polygon fill="midnightblue" stroke="midnightblue" points="279.533,-1289.21 290.103,-1288.49 281.393,-1282.46 279.533,-1289.21"/>
</g>
<!-- Node14 -->
<g id="node27" class="node"><title>Node14</title>
<a xlink:href="cvm-hfa_8c.html#a774451b83b300f862763d189c9758e1f" target="_top" xlink:title="API to set PP buffer size function pointer.">
<polygon fill="white" stroke="black" points="277,-1248.5 277,-1269.5 409,-1269.5 409,-1248.5 277,-1248.5"/>
<text text-anchor="middle" x="343" y="-1256.5" font-family="FreeSans" font-size="10.00">hfa_dev_set_fnp_ppsize</text>
</a>
</g>
<!-- Node5&#45;&gt;Node14 -->
<g id="edge26" class="edge"><title>Node5&#45;&gt;Node14</title>
<path fill="none" stroke="midnightblue" d="M188.02,-1226.71C214.765,-1232.28 251.482,-1239.93 282.465,-1246.39"/>
<polygon fill="midnightblue" stroke="midnightblue" points="281.799,-1249.82 292.303,-1248.44 283.227,-1242.97 281.799,-1249.82"/>
</g>
<!-- Node15 -->
<g id="node29" class="node"><title>Node15</title>
<a xlink:href="cvm-hfa_8c.html#a11aab8e30488e4cfc900f60a0dabc784" target="_top" xlink:title="Default function pointer for PP size.">
<polygon fill="white" stroke="black" points="284.5,-1208.5 284.5,-1229.5 401.5,-1229.5 401.5,-1208.5 284.5,-1208.5"/>
<text text-anchor="middle" x="343" y="-1216.5" font-family="FreeSans" font-size="10.00">hfa_defaultfn_ppsize</text>
</a>
</g>
<!-- Node5&#45;&gt;Node15 -->
<g id="edge28" class="edge"><title>Node5&#45;&gt;Node15</title>
<path fill="none" stroke="midnightblue" d="M188.02,-1219C212.389,-1219 245.037,-1219 274.083,-1219"/>
<polygon fill="midnightblue" stroke="midnightblue" points="274.187,-1222.5 284.187,-1219 274.187,-1215.5 274.187,-1222.5"/>
</g>
<!-- Node16 -->
<g id="node31" class="node"><title>Node16</title>
<a xlink:href="cvm-hfa_8c.html#a9a0b038e0d29435cb91a21d9c62806cc" target="_top" xlink:title="API to set PP resource allocator for temporary memory.">
<polygon fill="white" stroke="black" points="274,-1168.5 274,-1189.5 412,-1189.5 412,-1168.5 274,-1168.5"/>
<text text-anchor="middle" x="343" y="-1176.5" font-family="FreeSans" font-size="10.00">hfa_dev_set_fnp_pptalloc</text>
</a>
</g>
<!-- Node5&#45;&gt;Node16 -->
<g id="edge30" class="edge"><title>Node5&#45;&gt;Node16</title>
<path fill="none" stroke="midnightblue" d="M188.02,-1211.29C214.765,-1205.72 251.482,-1198.07 282.465,-1191.61"/>
<polygon fill="midnightblue" stroke="midnightblue" points="283.227,-1195.03 292.303,-1189.56 281.799,-1188.18 283.227,-1195.03"/>
</g>
<!-- Node17 -->
<g id="node33" class="node"><title>Node17</title>
<a xlink:href="cvm-hfa_8c.html#a2cbca63c413f08d3861f9b4c2855391f" target="_top" xlink:title="API to set PP resource deallocator for temporary memory.">
<polygon fill="white" stroke="black" points="275.5,-1128.5 275.5,-1149.5 410.5,-1149.5 410.5,-1128.5 275.5,-1128.5"/>
<text text-anchor="middle" x="343" y="-1136.5" font-family="FreeSans" font-size="10.00">hfa_dev_set_fnp_pptfree</text>
</a>
</g>
<!-- Node5&#45;&gt;Node17 -->
<g id="edge32" class="edge"><title>Node5&#45;&gt;Node17</title>
<path fill="none" stroke="midnightblue" d="M166.956,-1208.43C187.628,-1195.16 225.157,-1172.51 260,-1159 266.407,-1156.52 273.215,-1154.28 280.069,-1152.27"/>
<polygon fill="midnightblue" stroke="midnightblue" points="281.393,-1155.54 290.103,-1149.51 279.533,-1148.79 281.393,-1155.54"/>
</g>
<!-- Node18 -->
<g id="node35" class="node"><title>Node18</title>
<a xlink:href="cvm-hfa_8c.html#af0b17e8a09b1f7a1dd438ddcb1e4cd14" target="_top" xlink:title="API to set temporary memory size function pointer.">
<polygon fill="white" stroke="black" points="275.5,-1088.5 275.5,-1109.5 410.5,-1109.5 410.5,-1088.5 275.5,-1088.5"/>
<text text-anchor="middle" x="343" y="-1096.5" font-family="FreeSans" font-size="10.00">hfa_dev_set_fnp_pptsize</text>
</a>
</g>
<!-- Node5&#45;&gt;Node18 -->
<g id="edge34" class="edge"><title>Node5&#45;&gt;Node18</title>
<path fill="none" stroke="midnightblue" d="M159.346,-1208.37C176.104,-1187.77 216.027,-1142.42 260,-1119 264.272,-1116.72 268.805,-1114.7 273.462,-1112.91"/>
<polygon fill="midnightblue" stroke="midnightblue" points="274.859,-1116.13 283.154,-1109.54 272.559,-1109.52 274.859,-1116.13"/>
</g>
<!-- Node19 -->
<g id="node37" class="node"><title>Node19</title>
<a xlink:href="cvm-hfa_8c.html#aa2754afcdd94eb3dcd90c374f779dd24" target="_top" xlink:title="API to set PP resource allocator for match/result buffer.">
<polygon fill="white" stroke="black" points="260,-1048.5 260,-1069.5 426,-1069.5 426,-1048.5 260,-1048.5"/>
<text text-anchor="middle" x="343" y="-1056.5" font-family="FreeSans" font-size="10.00">hfa_dev_set_fnp_ppmatchalloc</text>
</a>
</g>
<!-- Node5&#45;&gt;Node19 -->
<g id="edge36" class="edge"><title>Node5&#45;&gt;Node19</title>
<path fill="none" stroke="midnightblue" d="M156.128,-1208.23C169.331,-1181.74 207.193,-1113.06 260,-1079 263.176,-1076.95 266.543,-1075.11 270.032,-1073.46"/>
<polygon fill="midnightblue" stroke="midnightblue" points="271.615,-1076.59 279.501,-1069.52 268.924,-1070.13 271.615,-1076.59"/>
</g>
<!-- Node20 -->
<g id="node39" class="node"><title>Node20</title>
<a xlink:href="cvm-hfa_8c.html#ad022f5aec72780af8b36533884693539" target="_top" xlink:title="API to set PP resource deallocator for result/match buf.">
<polygon fill="white" stroke="black" points="261.5,-1008.5 261.5,-1029.5 424.5,-1029.5 424.5,-1008.5 261.5,-1008.5"/>
<text text-anchor="middle" x="343" y="-1016.5" font-family="FreeSans" font-size="10.00">hfa_dev_set_fnp_ppmatchfree</text>
</a>
</g>
<!-- Node5&#45;&gt;Node20 -->
<g id="edge38" class="edge"><title>Node5&#45;&gt;Node20</title>
<path fill="none" stroke="midnightblue" d="M154.152,-1208.49C164.077,-1177.28 197.776,-1084.5 260,-1039 262.55,-1037.14 265.251,-1035.44 268.059,-1033.91"/>
<polygon fill="midnightblue" stroke="midnightblue" points="269.803,-1036.95 277.344,-1029.51 266.808,-1030.63 269.803,-1036.95"/>
</g>
<!-- Node21 -->
<g id="node41" class="node"><title>Node21</title>
<a xlink:href="cvm-hfa_8c.html#a8b71887165c143e32600513d12f9274f" target="_top" xlink:title="API to set match buffer size function pointer.">
<polygon fill="white" stroke="black" points="261.5,-968.5 261.5,-989.5 424.5,-989.5 424.5,-968.5 261.5,-968.5"/>
<text text-anchor="middle" x="343" y="-976.5" font-family="FreeSans" font-size="10.00">hfa_dev_set_fnp_ppmatchsize</text>
</a>
</g>
<!-- Node5&#45;&gt;Node21 -->
<g id="edge40" class="edge"><title>Node5&#45;&gt;Node21</title>
<path fill="none" stroke="midnightblue" d="M152.98,-1208.28C160.175,-1172.49 188.374,-1056.17 260,-999 262.078,-997.341 264.272,-995.817 266.556,-994.416"/>
<polygon fill="midnightblue" stroke="midnightblue" points="268.517,-997.341 275.755,-989.603 265.272,-991.138 268.517,-997.341"/>
</g>
<!-- Node22 -->
<g id="node43" class="node"><title>Node22</title>
<a xlink:href="cvm-hfa_8c.html#abcc0595aa8b2bb2d6116d600abbf55f8" target="_top" xlink:title="API to set PP error callback.">
<polygon fill="white" stroke="black" points="275,-928.5 275,-949.5 411,-949.5 411,-928.5 275,-928.5"/>
<text text-anchor="middle" x="343" y="-936.5" font-family="FreeSans" font-size="10.00">hfa_dev_set_fnp_pperror</text>
</a>
</g>
<!-- Node5&#45;&gt;Node22 -->
<g id="edge42" class="edge"><title>Node5&#45;&gt;Node22</title>
<path fill="none" stroke="midnightblue" d="M152.089,-1208.36C156.735,-1168.71 178.559,-1028.32 260,-959 261.788,-957.478 263.673,-956.068 265.636,-954.761"/>
<polygon fill="midnightblue" stroke="midnightblue" points="267.682,-957.626 274.681,-949.673 264.249,-951.525 267.682,-957.626"/>
</g>
<!-- Node23 -->
<g id="node45" class="node"><title>Node23</title>
<a xlink:href="cvm-hfa_8c.html#ac115556b315ff135ed2fd059cdf7d066" target="_top" xlink:title="Default function pointer for PP errors.">
<polygon fill="white" stroke="black" points="287.5,-888.5 287.5,-909.5 398.5,-909.5 398.5,-888.5 287.5,-888.5"/>
<text text-anchor="middle" x="343" y="-896.5" font-family="FreeSans" font-size="10.00">hfa_defaultfn_pperr</text>
</a>
</g>
<!-- Node5&#45;&gt;Node23 -->
<g id="edge44" class="edge"><title>Node5&#45;&gt;Node23</title>
<path fill="none" stroke="midnightblue" d="M151.435,-1208.29C153.8,-1164.89 168.69,-1000.61 260,-919 265.198,-914.354 271.287,-910.741 277.765,-907.937"/>
<polygon fill="midnightblue" stroke="midnightblue" points="279.288,-911.106 287.475,-904.382 276.881,-904.533 279.288,-911.106"/>
</g>
<!-- Node25 -->
<g id="node49" class="node"><title>Node25</title>
<a xlink:href="cvm-hfa_8h.html#a1afec397da10d79424478877387414f3" target="_top" xlink:title="Returns number of clusters configured in device.">
<polygon fill="white" stroke="black" points="281,-438.5 281,-459.5 405,-459.5 405,-438.5 281,-438.5"/>
<text text-anchor="middle" x="343" y="-446.5" font-family="FreeSans" font-size="10.00">hfa_dev_get_nclusters</text>
</a>
</g>
<!-- Node24&#45;&gt;Node25 -->
<g id="edge48" class="edge"><title>Node24&#45;&gt;Node25</title>
<path fill="none" stroke="midnightblue" d="M158.49,-288.064C173.245,-319.69 209.115,-387.506 260,-424 265.969,-428.281 272.68,-431.839 279.632,-434.793"/>
<polygon fill="midnightblue" stroke="midnightblue" points="278.624,-438.155 289.215,-438.458 281.125,-431.617 278.624,-438.155"/>
</g>
<!-- Node26 -->
<g id="node51" class="node"><title>Node26</title>
<a xlink:href="cvm-hfa-cluster_8c.html#ad8cad96579f5a310b62caaf8c166658f" target="_top" xlink:title="Returns a copy of a cluster of the HFA device.">
<polygon fill="white" stroke="black" points="474,-522.5 474,-543.5 564,-543.5 564,-522.5 474,-522.5"/>
<text text-anchor="middle" x="519" y="-530.5" font-family="FreeSans" font-size="10.00">hfa_get_cluster</text>
</a>
</g>
<!-- Node24&#45;&gt;Node26 -->
<g id="edge50" class="edge"><title>Node24&#45;&gt;Node26</title>
<path fill="none" stroke="midnightblue" d="M161.689,-288.365C178.945,-314.85 215.541,-364.997 260,-391 325.332,-429.211 360.817,-390.535 426,-429 461.911,-450.191 491.579,-489.91 507.162,-513.657"/>
<polygon fill="midnightblue" stroke="midnightblue" points="504.275,-515.64 512.604,-522.188 510.177,-511.875 504.275,-515.64"/>
</g>
<!-- Node27 -->
<g id="node53" class="node"><title>Node27</title>
<a xlink:href="cvm-hfa-cluster_8c.html#ae4fec611b1343b2f6cad63b81987d98b" target="_top" xlink:title="Cleanup Cluster.">
<polygon fill="white" stroke="red" points="286.5,-120.5 286.5,-141.5 399.5,-141.5 399.5,-120.5 286.5,-120.5"/>
<text text-anchor="middle" x="343" y="-128.5" font-family="FreeSans" font-size="10.00">hfa_cluster_cleanup</text>
</a>
</g>
<!-- Node24&#45;&gt;Node27 -->
<g id="edge52" class="edge"><title>Node24&#45;&gt;Node27</title>
<path fill="none" stroke="midnightblue" d="M168.988,-253.9C184.134,-239.24 206.124,-217.327 224,-197 241.144,-177.505 238.166,-165.044 260,-151 265.236,-147.632 270.988,-144.831 276.945,-142.502"/>
<polygon fill="midnightblue" stroke="midnightblue" points="278.129,-145.796 286.432,-139.215 275.837,-139.181 278.129,-145.796"/>
</g>
<!-- Node28 -->
<g id="node55" class="node"><title>Node28</title>
<a xlink:href="cvm-hfa-cluster_8c.html#aa0d1e40097e956ad06c9f7c454f77b80" target="_top" xlink:title="The HFA device consists of one or more clusters.">
<polygon fill="white" stroke="red" points="299,-80.5 299,-101.5 387,-101.5 387,-80.5 299,-80.5"/>
<text text-anchor="middle" x="343" y="-88.5" font-family="FreeSans" font-size="10.00">hfa_cluster_init</text>
</a>
</g>
<!-- Node24&#45;&gt;Node28 -->
<g id="edge54" class="edge"><title>Node24&#45;&gt;Node28</title>
<path fill="none" stroke="midnightblue" d="M171.762,-253.9C187.706,-239.915 209.396,-218.93 224,-197 246.968,-162.512 228.453,-137.865 260,-111 268.21,-104.009 278.456,-99.376 288.919,-96.3257"/>
<polygon fill="midnightblue" stroke="midnightblue" points="290.08,-99.6446 298.957,-93.8608 288.411,-92.8466 290.08,-99.6446"/>
</g>
<!-- Node29 -->
<g id="node57" class="node"><title>Node29</title>
<a xlink:href="cvm-hfa_8h.html#a760b4a245f0bf0c6823c9edb7eba6425" target="_top" xlink:title="Indicates whether device has its own HFA memory.">
<polygon fill="white" stroke="black" points="265.5,-40.5 265.5,-61.5 420.5,-61.5 420.5,-40.5 265.5,-40.5"/>
<text text-anchor="middle" x="343" y="-48.5" font-family="FreeSans" font-size="10.00">hfa_dev_haspvt_hfamemory</text>
</a>
</g>
<!-- Node24&#45;&gt;Node29 -->
<g id="edge56" class="edge"><title>Node24&#45;&gt;Node29</title>
<path fill="none" stroke="midnightblue" d="M173.168,-253.788C189.438,-240.051 210.898,-219.442 224,-197 253.365,-146.704 217.965,-111.312 260,-71 261.484,-69.5765 263.052,-68.2486 264.688,-67.01"/>
<polygon fill="midnightblue" stroke="midnightblue" points="266.791,-69.8221 273.39,-61.5335 263.063,-63.8977 266.791,-69.8221"/>
</g>
<!-- Node30 -->
<g id="node59" class="node"><title>Node30</title>
<a xlink:href="cvm-hfa_8h.html#a426b2044f6c6a2367ea14a92665e6851" target="_top" xlink:title="Returns configured memory address in device.">
<polygon fill="white" stroke="black" points="279,-360.5 279,-381.5 407,-381.5 407,-360.5 279,-360.5"/>
<text text-anchor="middle" x="343" y="-368.5" font-family="FreeSans" font-size="10.00">hfa_dev_get_memaddr</text>
</a>
</g>
<!-- Node24&#45;&gt;Node30 -->
<g id="edge58" class="edge"><title>Node24&#45;&gt;Node30</title>
<path fill="none" stroke="midnightblue" d="M169.586,-288.287C190.172,-306.513 225.085,-334.784 260,-351 265.253,-353.44 270.837,-355.601 276.527,-357.511"/>
<polygon fill="midnightblue" stroke="midnightblue" points="275.578,-360.881 286.166,-360.495 277.648,-354.194 275.578,-360.881"/>
</g>
<!-- Node31 -->
<g id="node61" class="node"><title>Node31</title>
<a xlink:href="cvm-hfa_8h.html#a17131375a514b77a425632ee41a2d347" target="_top" xlink:title="Returns configured memory size in device.">
<polygon fill="white" stroke="black" points="280,-320.5 280,-341.5 406,-341.5 406,-320.5 280,-320.5"/>
<text text-anchor="middle" x="343" y="-328.5" font-family="FreeSans" font-size="10.00">hfa_dev_get_memsize</text>
</a>
</g>
<!-- Node24&#45;&gt;Node31 -->
<g id="edge60" class="edge"><title>Node24&#45;&gt;Node31</title>
<path fill="none" stroke="midnightblue" d="M193.844,-288.02C213.776,-295.602 237.91,-304.31 260,-311 268.055,-313.44 276.62,-315.781 285.072,-317.947"/>
<polygon fill="midnightblue" stroke="midnightblue" points="284.356,-321.376 294.906,-320.406 286.054,-314.585 284.356,-321.376"/>
</g>
<!-- Node32 -->
<g id="node63" class="node"><title>Node32</title>
<a xlink:href="app-utils_8c.html#a9c2ecc9580f894c6d3cf3a682e42ffb6" target="_top" xlink:title="Return base address of named block.">
<polygon fill="white" stroke="red" points="295.5,-280.5 295.5,-301.5 390.5,-301.5 390.5,-280.5 295.5,-280.5"/>
<text text-anchor="middle" x="343" y="-288.5" font-family="FreeSans" font-size="10.00">hfautils_read_nb</text>
</a>
</g>
<!-- Node24&#45;&gt;Node32 -->
<g id="edge62" class="edge"><title>Node24&#45;&gt;Node32</title>
<path fill="none" stroke="midnightblue" d="M224.135,-278.618C244.346,-280.724 265.994,-282.979 285.203,-284.979"/>
<polygon fill="midnightblue" stroke="midnightblue" points="284.992,-288.476 295.301,-286.031 285.718,-281.514 284.992,-288.476"/>
</g>
<!-- Node33 -->
<g id="node65" class="node"><title>Node33</title>
<a xlink:href="app-utils_8c.html#a3e85d4c12420d8086bc60dedf59ab11f" target="_top" xlink:title="Return size of named block.">
<polygon fill="white" stroke="red" points="289,-240.5 289,-261.5 397,-261.5 397,-240.5 289,-240.5"/>
<text text-anchor="middle" x="343" y="-248.5" font-family="FreeSans" font-size="10.00">hfautils_getnb_size</text>
</a>
</g>
<!-- Node24&#45;&gt;Node33 -->
<g id="edge64" class="edge"><title>Node24&#45;&gt;Node33</title>
<path fill="none" stroke="midnightblue" d="M224.135,-263.382C242.118,-261.509 261.238,-259.517 278.766,-257.691"/>
<polygon fill="midnightblue" stroke="midnightblue" points="279.298,-261.155 288.881,-256.637 278.573,-254.192 279.298,-261.155"/>
</g>
<!-- Node34 -->
<g id="node67" class="node"><title>Node34</title>
<a xlink:href="cvm-hfa-cluster_8c.html#ad3dc54e450e08d6bf010a81b1eb11f15" target="_top" xlink:title="Assigns a memory block to the cluster as HFA memory for the purpose of loading graphs.">
<polygon fill="white" stroke="black" points="286,-200.5 286,-221.5 400,-221.5 400,-200.5 286,-200.5"/>
<text text-anchor="middle" x="343" y="-208.5" font-family="FreeSans" font-size="10.00">hfa_cluster_setmem</text>
</a>
</g>
<!-- Node24&#45;&gt;Node34 -->
<g id="edge66" class="edge"><title>Node24&#45;&gt;Node34</title>
<path fill="none" stroke="midnightblue" d="M193.844,-253.98C213.776,-246.398 237.91,-237.69 260,-231 268.055,-228.56 276.62,-226.219 285.072,-224.053"/>
<polygon fill="midnightblue" stroke="midnightblue" points="286.054,-227.415 294.906,-221.594 284.356,-220.624 286.054,-227.415"/>
</g>
<!-- Node35 -->
<g id="node69" class="node"><title>Node35</title>
<a xlink:href="cvm-hfa-cluster_8c.html#af2466b1e67058e962fac92ac1d93f716" target="_top" xlink:title="This routine allows multiple clusters to share the same HFA memory block for loading graphs...">
<polygon fill="white" stroke="red" points="277,-160.5 277,-181.5 409,-181.5 409,-160.5 277,-160.5"/>
<text text-anchor="middle" x="343" y="-168.5" font-family="FreeSans" font-size="10.00">hfa_cluster_share_mem</text>
</a>
</g>
<!-- Node24&#45;&gt;Node35 -->
<g id="edge68" class="edge"><title>Node24&#45;&gt;Node35</title>
<path fill="none" stroke="midnightblue" d="M169.586,-253.713C190.172,-235.487 225.085,-207.216 260,-191 265.253,-188.56 270.837,-186.399 276.527,-184.489"/>
<polygon fill="midnightblue" stroke="midnightblue" points="277.648,-187.806 286.166,-181.505 275.578,-181.119 277.648,-187.806"/>
</g>
<!-- Node37 -->
<g id="node73" class="node"><title>Node37</title>
<a xlink:href="cvm-hfa-graph_8c.html#a80a6427d5a90c7bd1e4cbfd62a808524" target="_top" xlink:title="This routine initializes a graph object which can be used to perform various operations on a graph fi...">
<polygon fill="white" stroke="black" points="289.5,-848.5 289.5,-869.5 396.5,-869.5 396.5,-848.5 289.5,-848.5"/>
<text text-anchor="middle" x="343" y="-856.5" font-family="FreeSans" font-size="10.00">hfa_dev_graph_init</text>
</a>
</g>
<!-- Node36&#45;&gt;Node37 -->
<g id="edge72" class="edge"><title>Node36&#45;&gt;Node37</title>
<path fill="none" stroke="midnightblue" d="M157.686,-731.767C172.821,-755.187 212.136,-810.908 260,-839 266.012,-842.529 272.616,-845.436 279.393,-847.83"/>
<polygon fill="midnightblue" stroke="midnightblue" points="278.805,-851.315 289.395,-850.985 280.911,-844.639 278.805,-851.315"/>
</g>
<!-- Node38 -->
<g id="node75" class="node"><title>Node38</title>
<a xlink:href="cvm-hfa-graph_8c.html#a32df4a93ffcd7da232613b13204b2a80" target="_top" xlink:title="This routine sets the cluster&#45;mask for the graph.">
<polygon fill="white" stroke="black" points="284.5,-808.5 284.5,-829.5 401.5,-829.5 401.5,-808.5 284.5,-808.5"/>
<text text-anchor="middle" x="343" y="-816.5" font-family="FreeSans" font-size="10.00">hfa_graph_setcluster</text>
</a>
</g>
<!-- Node36&#45;&gt;Node38 -->
<g id="edge74" class="edge"><title>Node36&#45;&gt;Node38</title>
<path fill="none" stroke="midnightblue" d="M163.987,-731.592C183.672,-747.19 222.726,-776.391 260,-794 269.185,-798.339 279.297,-802.128 289.208,-805.355"/>
<polygon fill="midnightblue" stroke="midnightblue" points="288.422,-808.776 299.01,-808.395 290.496,-802.09 288.422,-808.776"/>
</g>
<!-- Node39 -->
<g id="node77" class="node"><title>Node39</title>
<a xlink:href="app-utils_8c.html#aed95bb72627cff313c596ebcfcd8af61" target="_top" xlink:title="Parse graph into chunks and load graph to HFA memory.">
<polygon fill="white" stroke="red" points="275.5,-730.5 275.5,-751.5 410.5,-751.5 410.5,-730.5 275.5,-730.5"/>
<text text-anchor="middle" x="343" y="-738.5" font-family="FreeSans" font-size="10.00">hfautils_download_graph</text>
</a>
</g>
<!-- Node36&#45;&gt;Node39 -->
<g id="edge76" class="edge"><title>Node36&#45;&gt;Node39</title>
<path fill="none" stroke="midnightblue" d="M185.77,-724.622C208.002,-726.938 237.755,-730.037 265.394,-732.916"/>
<polygon fill="midnightblue" stroke="midnightblue" points="265.154,-736.41 275.463,-733.965 265.88,-729.448 265.154,-736.41"/>
</g>
<!-- Node40 -->
<g id="node79" class="node"><title>Node40</title>
<a xlink:href="cvm-hfa-graph_8c.html#a0f2f13fb51e5d56dcf049ff3c7c6ad78" target="_top" xlink:title="This routine is used to check the status of the graph.">
<polygon fill="white" stroke="red" points="462,-730.5 462,-751.5 576,-751.5 576,-730.5 462,-730.5"/>
<text text-anchor="middle" x="519" y="-738.5" font-family="FreeSans" font-size="10.00">hfa_graph_getstatus</text>
</a>
</g>
<!-- Node36&#45;&gt;Node40 -->
<g id="edge84" class="edge"><title>Node36&#45;&gt;Node40</title>
<path fill="none" stroke="midnightblue" d="M172.905,-731.648C194.471,-741.497 228.642,-755.428 260,-761 332.64,-773.908 352.636,-768.799 426,-761 440.14,-759.497 455.289,-756.742 469.168,-753.748"/>
<polygon fill="midnightblue" stroke="midnightblue" points="470.025,-757.143 479.017,-751.54 468.494,-750.313 470.025,-757.143"/>
</g>
<!-- Node41 -->
<g id="node81" class="node"><title>Node41</title>
<a xlink:href="cvm-hfa-graph_8c.html#aa296e0c6b36b3d5b4f8e01c2fe765bed" target="_top" xlink:title="This routine is used to cacheload a cacheable graph in a non&#45;blocking manner.">
<polygon fill="white" stroke="red" points="283,-638 283,-672 403,-672 403,-638 283,-638"/>
<text text-anchor="start" x="291" y="-659" font-family="FreeSans" font-size="10.00">hfa_graph_cacheload</text>
<text text-anchor="middle" x="343" y="-646" font-family="FreeSans" font-size="10.00">_async</text>
</a>
</g>
<!-- Node36&#45;&gt;Node41 -->
<g id="edge80" class="edge"><title>Node36&#45;&gt;Node41</title>
<path fill="none" stroke="midnightblue" d="M178.646,-710.437C200.601,-702.149 232.135,-690.471 260,-681 265.587,-679.101 271.402,-677.176 277.246,-675.277"/>
<polygon fill="midnightblue" stroke="midnightblue" points="278.625,-678.51 287.072,-672.115 276.481,-671.847 278.625,-678.51"/>
</g>
<!-- Node42 -->
<g id="node85" class="node"><title>Node42</title>
<a xlink:href="cvm-hfa-graph_8c.html#abbfd41020571ab71bee78818f54f88b8" target="_top" xlink:title="This is a utility routine which returns the savelen property of the graph.">
<polygon fill="white" stroke="black" points="281.5,-690.5 281.5,-711.5 404.5,-711.5 404.5,-690.5 281.5,-690.5"/>
<text text-anchor="middle" x="343" y="-698.5" font-family="FreeSans" font-size="10.00">hfa_graph_getsavelen</text>
</a>
</g>
<!-- Node36&#45;&gt;Node42 -->
<g id="edge86" class="edge"><title>Node36&#45;&gt;Node42</title>
<path fill="none" stroke="midnightblue" d="M185.77,-717.378C209.55,-714.901 241.933,-711.528 271.131,-708.486"/>
<polygon fill="midnightblue" stroke="midnightblue" points="271.723,-711.944 281.307,-707.426 270.998,-704.981 271.723,-711.944"/>
</g>
<!-- Node43 -->
<g id="node87" class="node"><title>Node43</title>
<a xlink:href="cvm-hfa-graph_8c.html#a5e79919f5903d97aee5e82bfc7e71597" target="_top" xlink:title="This routine is the counterpart of hfa_dev_graph_init().">
<polygon fill="white" stroke="black" points="277,-598.5 277,-619.5 409,-619.5 409,-598.5 277,-598.5"/>
<text text-anchor="middle" x="343" y="-606.5" font-family="FreeSans" font-size="10.00">hfa_dev_graph_cleanup</text>
</a>
</g>
<!-- Node36&#45;&gt;Node43 -->
<g id="edge88" class="edge"><title>Node36&#45;&gt;Node43</title>
<path fill="none" stroke="midnightblue" d="M160.352,-710.351C177.897,-691.063 217.804,-650.367 260,-629 264.593,-626.674 269.468,-624.611 274.463,-622.783"/>
<polygon fill="midnightblue" stroke="midnightblue" points="275.794,-626.029 284.176,-619.548 273.582,-619.387 275.794,-626.029"/>
</g>
<!-- Node39&#45;&gt;Node40 -->
<g id="edge78" class="edge"><title>Node39&#45;&gt;Node40</title>
<path fill="none" stroke="midnightblue" d="M410.543,-741C424.061,-741 438.262,-741 451.77,-741"/>
<polygon fill="midnightblue" stroke="midnightblue" points="451.941,-744.5 461.941,-741 451.941,-737.5 451.941,-744.5"/>
</g>
<!-- Node41&#45;&gt;Node26 -->
<g id="edge82" class="edge"><title>Node41&#45;&gt;Node26</title>
<path fill="none" stroke="midnightblue" d="M403.078,-640.145C411.067,-637.044 418.93,-633.358 426,-629 459.334,-608.452 489.132,-573.28 505.571,-551.692"/>
<polygon fill="midnightblue" stroke="midnightblue" points="508.419,-553.729 511.58,-543.616 502.803,-549.55 508.419,-553.729"/>
</g>
<!-- Node45 -->
<g id="node91" class="node"><title>Node45</title>
<a xlink:href="hfa-lnx-async_8c.html#a972f8b60ef804914c009c2ef85bac50e" target="_top" xlink:title="Process search for given payload and graph.">
<polygon fill="white" stroke="red" points="297,-0.5 297,-21.5 389,-21.5 389,-0.5 297,-0.5"/>
<text text-anchor="middle" x="343" y="-8.5" font-family="FreeSans" font-size="10.00">process_search</text>
</a>
</g>
<!-- Node44&#45;&gt;Node45 -->
<g id="edge92" class="edge"><title>Node44&#45;&gt;Node45</title>
<path fill="none" stroke="midnightblue" d="M197.478,-32.9799C224.363,-28.9191 258.385,-23.7804 286.771,-19.493"/>
<polygon fill="midnightblue" stroke="midnightblue" points="287.585,-22.9097 296.95,-17.9554 286.54,-15.9883 287.585,-22.9097"/>
</g>
<!-- Node46&#45;&gt;Node45 -->
<g id="edge96" class="edge"><title>Node46&#45;&gt;Node45</title>
<path fill="none" stroke="midnightblue" d="M155.809,-166.176C168.534,-138.846 205.865,-66.6981 260,-31 268.082,-25.6707 277.442,-21.7589 286.903,-18.8882"/>
<polygon fill="midnightblue" stroke="midnightblue" points="287.991,-22.2203 296.749,-16.2577 286.184,-15.4575 287.991,-22.2203"/>
</g>
<!-- Node47&#45;&gt;Node25 -->
<g id="edge106" class="edge"><title>Node47&#45;&gt;Node25</title>
<path fill="none" stroke="midnightblue" d="M166.956,-518.428C187.628,-505.16 225.157,-482.507 260,-469 266.407,-466.516 273.215,-464.276 280.069,-462.273"/>
<polygon fill="midnightblue" stroke="midnightblue" points="281.393,-465.539 290.103,-459.507 279.533,-458.791 281.393,-465.539"/>
</g>
<!-- Node47&#45;&gt;Node43 -->
<g id="edge104" class="edge"><title>Node47&#45;&gt;Node43</title>
<path fill="none" stroke="midnightblue" d="M166.956,-539.572C187.628,-552.84 225.157,-575.493 260,-589 266.407,-591.484 273.215,-593.724 280.069,-595.727"/>
<polygon fill="midnightblue" stroke="midnightblue" points="279.533,-599.209 290.103,-598.493 281.393,-592.461 279.533,-599.209"/>
</g>
<!-- Node48 -->
<g id="node98" class="node"><title>Node48</title>
<a xlink:href="cvm-hfa-graph_8c.html#aa4ce7845277b4b3099159bbd7afd5c08" target="_top" xlink:title="This routine is used to cacheunload a cacheload&#39;ed graph in a non&#45;blocking manner.">
<polygon fill="white" stroke="red" points="277,-558.5 277,-579.5 409,-579.5 409,-558.5 277,-558.5"/>
<text text-anchor="middle" x="343" y="-566.5" font-family="FreeSans" font-size="10.00">hfa_graph_cacheunload</text>
</a>
</g>
<!-- Node47&#45;&gt;Node48 -->
<g id="edge100" class="edge"><title>Node47&#45;&gt;Node48</title>
<path fill="none" stroke="midnightblue" d="M178.102,-534.646C205.009,-540.252 247.179,-549.037 282.138,-556.32"/>
<polygon fill="midnightblue" stroke="midnightblue" points="281.754,-559.816 292.258,-558.429 283.182,-552.963 281.754,-559.816"/>
</g>
<!-- Node49 -->
<g id="node103" class="node"><title>Node49</title>
<a xlink:href="cvm-hfa_8c.html#af14bebdd444bd0bf92faac9d5d88b492" target="_top" xlink:title="This function is called by application to cleanup all resources configured for HFA device and then sh...">
<polygon fill="white" stroke="red" points="293.5,-478.5 293.5,-499.5 392.5,-499.5 392.5,-478.5 293.5,-478.5"/>
<text text-anchor="middle" x="343" y="-486.5" font-family="FreeSans" font-size="10.00">hfa_dev_cleanup</text>
</a>
</g>
<!-- Node47&#45;&gt;Node49 -->
<g id="edge108" class="edge"><title>Node47&#45;&gt;Node49</title>
<path fill="none" stroke="midnightblue" d="M178.102,-523.354C205.291,-517.689 248.066,-508.778 283.236,-501.451"/>
<polygon fill="midnightblue" stroke="midnightblue" points="284.33,-504.798 293.406,-499.332 282.902,-497.945 284.33,-504.798"/>
</g>
<!-- Node50 -->
<g id="node105" class="node"><title>Node50</title>
<a xlink:href="hfa-lnx-async_8c.html#ab7c49f9e444155d2c083420cad401793" target="_top" xlink:title="Cleanup cluster memory resources.">
<polygon fill="white" stroke="black" points="297,-518.5 297,-539.5 389,-539.5 389,-518.5 297,-518.5"/>
<text text-anchor="middle" x="343" y="-526.5" font-family="FreeSans" font-size="10.00">cluster_cleanup</text>
</a>
</g>
<!-- Node47&#45;&gt;Node50 -->
<g id="edge110" class="edge"><title>Node47&#45;&gt;Node50</title>
<path fill="none" stroke="midnightblue" d="M178.102,-529C206.138,-529 250.745,-529 286.498,-529"/>
<polygon fill="midnightblue" stroke="midnightblue" points="286.803,-532.5 296.803,-529 286.803,-525.5 286.803,-532.5"/>
</g>
<!-- Node48&#45;&gt;Node40 -->
<g id="edge102" class="edge"><title>Node48&#45;&gt;Node40</title>
<path fill="none" stroke="midnightblue" d="M408.638,-579.536C414.814,-582.053 420.727,-585.163 426,-589 472.497,-622.837 500.503,-687.674 512.356,-720.653"/>
<polygon fill="midnightblue" stroke="midnightblue" points="509.067,-721.852 515.64,-730.161 515.684,-719.567 509.067,-721.852"/>
</g>
</g>
</svg>
