<?xml version="1.0" encoding="UTF-8" standalone="no"?>
<!DOCTYPE svg PUBLIC "-//W3C//DTD SVG 1.1//EN"
 "http://www.w3.org/Graphics/SVG/1.1/DTD/svg11.dtd">
<!-- Generated by graphviz version 2.24.0 (20090616.2323)
 -->
<!-- Title: poll_searchctx Pages: 1 -->
<svg width="474pt" height="110pt"
 viewBox="0.00 0.00 474.00 110.00" xmlns="http://www.w3.org/2000/svg" xmlns:xlink="http://www.w3.org/1999/xlink">
<g id="graph1" class="graph" transform="scale(1 1) rotate(0) translate(4 106)">
<title>poll_searchctx</title>
<polygon fill="white" stroke="white" points="-4,5 -4,-106 471,-106 471,5 -4,5"/>
<!-- Node1 -->
<g id="node1" class="node"><title>Node1</title>
<polygon fill="#bfbfbf" stroke="black" points="0,-20.5 0,-41.5 86,-41.5 86,-20.5 0,-20.5"/>
<text text-anchor="middle" x="43" y="-28.5" font-family="FreeSans" font-size="10.00">poll_searchctx</text>
</g>
<!-- Node2 -->
<g id="node3" class="node"><title>Node2</title>
<a xlink:href="hfa-se-ctx_8c.html#a934a9fc08c4aab25d6f0d861e4a4f762" target="_top" xlink:title="poll for all submitted searches.">
<polygon fill="white" stroke="black" points="122.5,-20.5 122.5,-41.5 155.5,-41.5 155.5,-20.5 122.5,-20.5"/>
<text text-anchor="middle" x="139" y="-28.5" font-family="FreeSans" font-size="10.00">poll</text>
</a>
</g>
<!-- Node1&#45;&gt;Node2 -->
<g id="edge2" class="edge"><title>Node1&#45;&gt;Node2</title>
<path fill="none" stroke="midnightblue" d="M96.406,-31C105.751,-31 114.818,-31 122.168,-31"/>
<polygon fill="midnightblue" stroke="midnightblue" points="96.2258,-27.5001 86.2258,-31 96.2257,-34.5001 96.2258,-27.5001"/>
</g>
<!-- Node3 -->
<g id="node5" class="node"><title>Node3</title>
<a xlink:href="hfa-se-ctx_8c.html#aaf2d1bda55a80b5467e3ef350c514243" target="_top" xlink:title="Process search on recieved packet wqe.">
<polygon fill="white" stroke="black" points="192,-1.5 192,-22.5 272,-22.5 272,-1.5 192,-1.5"/>
<text text-anchor="middle" x="232" y="-9.5" font-family="FreeSans" font-size="10.00">process_wqe</text>
</a>
</g>
<!-- Node2&#45;&gt;Node3 -->
<g id="edge4" class="edge"><title>Node2&#45;&gt;Node3</title>
<path fill="none" stroke="midnightblue" d="M165.694,-25.5463C173.879,-23.8742 183.07,-21.9965 191.942,-20.1839"/>
<polygon fill="midnightblue" stroke="midnightblue" points="164.724,-22.1723 155.627,-27.6032 166.125,-29.0306 164.724,-22.1723"/>
</g>
<!-- Node4 -->
<g id="node7" class="node"><title>Node4</title>
<a xlink:href="hfa-se-ctx_8c.html#ac6740f043d197065a62fbd0570b4f735" target="_top" xlink:title="Do asynchrounous get work operation then pre&#45;fetch recieved wqe and process search on recieved packet...">
<polygon fill="white" stroke="black" points="311,-40.5 311,-61.5 385,-61.5 385,-40.5 311,-40.5"/>
<text text-anchor="middle" x="348" y="-48.5" font-family="FreeSans" font-size="10.00">process_pkt</text>
</a>
</g>
<!-- Node2&#45;&gt;Node4 -->
<g id="edge16" class="edge"><title>Node2&#45;&gt;Node4</title>
<path fill="none" stroke="midnightblue" d="M165.728,-33.5577C202.525,-37.0789 268.956,-43.436 310.649,-47.4258"/>
<polygon fill="midnightblue" stroke="midnightblue" points="166.038,-30.0715 155.75,-32.6029 165.371,-37.0396 166.038,-30.0715"/>
</g>
<!-- Node3&#45;&gt;Node4 -->
<g id="edge6" class="edge"><title>Node3&#45;&gt;Node4</title>
<path fill="none" stroke="midnightblue" d="M273.015,-25.7894C287.335,-30.6039 303.17,-35.9277 316.584,-40.4376"/>
<polygon fill="midnightblue" stroke="midnightblue" points="273.985,-22.4233 263.391,-22.554 271.755,-29.0583 273.985,-22.4233"/>
</g>
<!-- Node7 -->
<g id="node13" class="node"><title>Node7</title>
<a xlink:href="hfa-se-wqe-lock_8c.html#a06b5fcfab0e1d5eb36b633ec080ad7f9" target="_top" xlink:title="Process search for given contexts.">
<polygon fill="white" stroke="black" points="308,-0.5 308,-21.5 388,-21.5 388,-0.5 308,-0.5"/>
<text text-anchor="middle" x="348" y="-8.5" font-family="FreeSans" font-size="10.00">process_nctx</text>
</a>
</g>
<!-- Node3&#45;&gt;Node7 -->
<g id="edge12" class="edge"><title>Node3&#45;&gt;Node7</title>
<path fill="none" stroke="midnightblue" d="M282.442,-11.5652C290.931,-11.492 299.641,-11.4169 307.826,-11.3463"/>
<polygon fill="midnightblue" stroke="midnightblue" points="282.215,-8.06688 272.246,-11.6531 282.275,-15.0666 282.215,-8.06688"/>
</g>
<!-- Node5 -->
<g id="node9" class="node"><title>Node5</title>
<a xlink:href="hfa-lnx-ctx_8c.html#a78ffddbcd7cdd164889cfb53ea367886" target="_top" xlink:title="entry">
<polygon fill="white" stroke="black" points="424.5,-80.5 424.5,-101.5 465.5,-101.5 465.5,-80.5 424.5,-80.5"/>
<text text-anchor="middle" x="445" y="-88.5" font-family="FreeSans" font-size="10.00">entry</text>
</a>
</g>
<!-- Node4&#45;&gt;Node5 -->
<g id="edge8" class="edge"><title>Node4&#45;&gt;Node5</title>
<path fill="none" stroke="midnightblue" d="M382.776,-65.3406C396.663,-71.0674 412.187,-77.4687 424.254,-82.4451"/>
<polygon fill="midnightblue" stroke="midnightblue" points="384.065,-62.0862 373.486,-61.5095 381.396,-68.5576 384.065,-62.0862"/>
</g>
<!-- Node6 -->
<g id="node11" class="node"><title>Node6</title>
<a xlink:href="hfa-se-ctx_8c.html#a3c04138a5bfe5d72780bb7e82a18e627" target="_top" xlink:title="main">
<polygon fill="white" stroke="black" points="425,-40.5 425,-61.5 465,-61.5 465,-40.5 425,-40.5"/>
<text text-anchor="middle" x="445" y="-48.5" font-family="FreeSans" font-size="10.00">main</text>
</a>
</g>
<!-- Node4&#45;&gt;Node6 -->
<g id="edge10" class="edge"><title>Node4&#45;&gt;Node6</title>
<path fill="none" stroke="midnightblue" d="M395.483,-51C405.832,-51 416.242,-51 424.828,-51"/>
<polygon fill="midnightblue" stroke="midnightblue" points="395.225,-47.5001 385.225,-51 395.225,-54.5001 395.225,-47.5001"/>
</g>
<!-- Node8 -->
<g id="node15" class="node"><title>Node8</title>
<a xlink:href="hfa-se-wqe-lock_8c.html#a3c04138a5bfe5d72780bb7e82a18e627" target="_top" xlink:title="main">
<polygon fill="white" stroke="black" points="425,-0.5 425,-21.5 465,-21.5 465,-0.5 425,-0.5"/>
<text text-anchor="middle" x="445" y="-8.5" font-family="FreeSans" font-size="10.00">main</text>
</a>
</g>
<!-- Node7&#45;&gt;Node8 -->
<g id="edge14" class="edge"><title>Node7&#45;&gt;Node8</title>
<path fill="none" stroke="midnightblue" d="M398.263,-11C407.739,-11 417.125,-11 424.971,-11"/>
<polygon fill="midnightblue" stroke="midnightblue" points="398.014,-7.5001 388.014,-11 398.014,-14.5001 398.014,-7.5001"/>
</g>
</g>
</svg>
