<?xml version="1.0" encoding="UTF-8" standalone="no"?>
<!DOCTYPE svg PUBLIC "-//W3C//DTD SVG 1.1//EN"
 "http://www.w3.org/Graphics/SVG/1.1/DTD/svg11.dtd">
<!-- Generated by graphviz version 2.24.0 (20090616.2323)
 -->
<!-- Title: exit Pages: 1 -->
<!--zoomable 535 -->
<svg id="main" version="1.1" xmlns="http://www.w3.org/2000/svg" xmlns:xlink="http://www.w3.org/1999/xlink" xml:space="preserve" onload="init(evt)">
        <defs>
                <circle id="rim" cx="0" cy="0" r="7"/>
                <circle id="rim2" cx="0" cy="0" r="3.5"/>
                <g id="zoomPlus">
                        <use xlink:href="#rim" fill="#404040">
                                <set attributeName="fill" to="#808080" begin="zoomplus.mouseover" end="zoomplus.mouseout"/>
                        </use>
                        <path d="M-4,0h8M0,-4v8" fill="none" stroke="white" stroke-width="1.5" pointer-events="none"/>
                </g>
                <g id="zoomMin">
                        <use xlink:href="#rim" fill="#404040">
                                <set attributeName="fill" to="#808080" begin="zoomminus.mouseover" end="zoomminus.mouseout"/>
                        </use>
                        <path d="M-4,0h8" fill="none" stroke="white" stroke-width="1.5" pointer-events="none"/>
                </g>
                <g id="dirArrow">
                        <path fill="none" stroke="white" stroke-width="1.5" d="M0,-3.0v7 M-2.5,-0.5L0,-3.0L2.5,-0.5"/>
                </g>
               <g id="resetDef">
                       <use xlink:href="#rim2" fill="#404040">
                               <set attributeName="fill" to="#808080" begin="reset.mouseover" end="reset.mouseout"/>
                       </use>
               </g>
        </defs>

<script type="text/javascript">
var viewWidth = 820;
var viewHeight = 535;
var sectionId = 'dynsection-6';
</script>
<script xlink:href="svgpan.js"/>
<svg id="graph" class="graph">
<g id="viewport">
<title>exit</title>
<polygon fill="white" stroke="white" points="-4,5 -4,-531 817,-531 817,5 -4,5"/>
<!-- Node1 -->
<g id="node1" class="node"><title>Node1</title>
<polygon fill="#bfbfbf" stroke="black" points="0.5,-80.5 0.5,-101.5 33.5,-101.5 33.5,-80.5 0.5,-80.5"/>
<text text-anchor="middle" x="17" y="-88.5" font-family="FreeSans" font-size="10.00">exit</text>
</g>
<!-- Node2 -->
<g id="node3" class="node"><title>Node2</title>
<a xlink:href="hfa-lnx-async_8c.html#acd9e54f020b77f14d54c200b65423a15" target="_top" xlink:title="Application cleanup will be done by this routine.">
<polygon fill="white" stroke="black" points="70,-80.5 70,-101.5 124,-101.5 124,-80.5 70,-80.5"/>
<text text-anchor="middle" x="97" y="-88.5" font-family="FreeSans" font-size="10.00">cleanup</text>
</a>
</g>
<!-- Node1&#45;&gt;Node2 -->
<g id="edge2" class="edge"><title>Node1&#45;&gt;Node2</title>
<path fill="none" stroke="midnightblue" d="M33.5761,-91C41.1576,-91 50.4725,-91 59.6056,-91"/>
<polygon fill="midnightblue" stroke="midnightblue" points="59.7377,-94.5001 69.7377,-91 59.7377,-87.5001 59.7377,-94.5001"/>
</g>
<!-- Node3 -->
<g id="node5" class="node"><title>Node3</title>
<a xlink:href="cvm-hfa-graph_8c.html#aa4ce7845277b4b3099159bbd7afd5c08" target="_top" xlink:title="This routine is used to cacheunload a cacheload&#39;ed graph in a non&#45;blocking manner.">
<polygon fill="white" stroke="black" points="160,-160.5 160,-181.5 292,-181.5 292,-160.5 160,-160.5"/>
<text text-anchor="middle" x="226" y="-168.5" font-family="FreeSans" font-size="10.00">hfa_graph_cacheunload</text>
</a>
</g>
<!-- Node2&#45;&gt;Node3 -->
<g id="edge4" class="edge"><title>Node2&#45;&gt;Node3</title>
<path fill="none" stroke="midnightblue" d="M105.647,-101.916C116.831,-115.331 137.554,-137.92 160,-151 163.608,-153.102 167.457,-155.003 171.416,-156.718"/>
<polygon fill="midnightblue" stroke="midnightblue" points="170.201,-160.001 180.788,-160.39 172.754,-153.483 170.201,-160.001"/>
</g>
<!-- Node21 -->
<g id="node41" class="node"><title>Node21</title>
<a xlink:href="cvm-hfa-graph_8c.html#a5e79919f5903d97aee5e82bfc7e71597" target="_top" xlink:title="This routine is the counterpart of hfa_dev_graph_init().">
<polygon fill="white" stroke="black" points="160,-120.5 160,-141.5 292,-141.5 292,-120.5 160,-120.5"/>
<text text-anchor="middle" x="226" y="-128.5" font-family="FreeSans" font-size="10.00">hfa_dev_graph_cleanup</text>
</a>
</g>
<!-- Node2&#45;&gt;Node21 -->
<g id="edge40" class="edge"><title>Node2&#45;&gt;Node21</title>
<path fill="none" stroke="midnightblue" d="M124.264,-99.7414C135.343,-103.271 148.273,-107.362 160,-111 166.918,-113.146 174.253,-115.395 181.42,-117.578"/>
<polygon fill="midnightblue" stroke="midnightblue" points="180.451,-120.941 191.036,-120.498 182.485,-114.244 180.451,-120.941"/>
</g>
<!-- Node22 -->
<g id="node43" class="node"><title>Node22</title>
<a xlink:href="cvm-hfa_8h.html#a1afec397da10d79424478877387414f3" target="_top" xlink:title="Returns number of clusters configured in device.">
<polygon fill="white" stroke="black" points="164,-80.5 164,-101.5 288,-101.5 288,-80.5 164,-80.5"/>
<text text-anchor="middle" x="226" y="-88.5" font-family="FreeSans" font-size="10.00">hfa_dev_get_nclusters</text>
</a>
</g>
<!-- Node2&#45;&gt;Node22 -->
<g id="edge42" class="edge"><title>Node2&#45;&gt;Node22</title>
<path fill="none" stroke="midnightblue" d="M124.043,-91C132.889,-91 143.173,-91 153.74,-91"/>
<polygon fill="midnightblue" stroke="midnightblue" points="153.919,-94.5001 163.919,-91 153.919,-87.5001 153.919,-94.5001"/>
</g>
<!-- Node23 -->
<g id="node45" class="node"><title>Node23</title>
<a xlink:href="cvm-hfa_8c.html#af14bebdd444bd0bf92faac9d5d88b492" target="_top" xlink:title="This function is called by application to cleanup all resources configured for HFA device and then sh...">
<polygon fill="white" stroke="black" points="176.5,-40.5 176.5,-61.5 275.5,-61.5 275.5,-40.5 176.5,-40.5"/>
<text text-anchor="middle" x="226" y="-48.5" font-family="FreeSans" font-size="10.00">hfa_dev_cleanup</text>
</a>
</g>
<!-- Node2&#45;&gt;Node23 -->
<g id="edge44" class="edge"><title>Node2&#45;&gt;Node23</title>
<path fill="none" stroke="midnightblue" d="M124.264,-82.2586C135.343,-78.729 148.273,-74.6382 160,-71 166.918,-68.8537 174.253,-66.6049 181.42,-64.4218"/>
<polygon fill="midnightblue" stroke="midnightblue" points="182.485,-67.7565 191.036,-61.5015 180.451,-61.0586 182.485,-67.7565"/>
</g>
<!-- Node27 -->
<g id="node53" class="node"><title>Node27</title>
<a xlink:href="hfa-lnx-async_8c.html#ab7c49f9e444155d2c083420cad401793" target="_top" xlink:title="Cleanup cluster memory resources.">
<polygon fill="white" stroke="black" points="180,-0.5 180,-21.5 272,-21.5 272,-0.5 180,-0.5"/>
<text text-anchor="middle" x="226" y="-8.5" font-family="FreeSans" font-size="10.00">cluster_cleanup</text>
</a>
</g>
<!-- Node2&#45;&gt;Node27 -->
<g id="edge52" class="edge"><title>Node2&#45;&gt;Node27</title>
<path fill="none" stroke="midnightblue" d="M105.647,-80.0843C116.831,-66.6687 137.554,-44.08 160,-31 163.608,-28.8977 167.457,-26.997 171.416,-25.282"/>
<polygon fill="midnightblue" stroke="midnightblue" points="172.754,-28.5168 180.788,-21.6099 170.201,-21.9992 172.754,-28.5168"/>
</g>
<!-- Node4 -->
<g id="node7" class="node"><title>Node4</title>
<a xlink:href="cvm-hfa-graph_8c.html#afb63ce4f42afc7987e6222b1c1ea91a1" target="_top" xlink:title="This routine is used to cacheunload a cacheload&#39;ed graph in a non&#45;blocking manner.">
<polygon fill="white" stroke="black" points="328,-339 328,-373 460,-373 460,-339 328,-339"/>
<text text-anchor="start" x="336" y="-360" font-family="FreeSans" font-size="10.00">hfa_graph_cacheunload</text>
<text text-anchor="middle" x="394" y="-347" font-family="FreeSans" font-size="10.00">_async</text>
</a>
</g>
<!-- Node3&#45;&gt;Node4 -->
<g id="edge6" class="edge"><title>Node3&#45;&gt;Node4</title>
<path fill="none" stroke="midnightblue" d="M235.759,-181.746C261.954,-210.592 334.337,-290.299 371.436,-331.153"/>
<polygon fill="midnightblue" stroke="midnightblue" points="369.048,-333.729 378.362,-338.779 374.23,-329.023 369.048,-333.729"/>
</g>
<!-- Node14 -->
<g id="node27" class="node"><title>Node14</title>
<a xlink:href="cvm-hfa-graph_8c.html#a0f2f13fb51e5d56dcf049ff3c7c6ad78" target="_top" xlink:title="This routine is used to check the status of the graph.">
<polygon fill="white" stroke="black" points="337,-155.5 337,-176.5 451,-176.5 451,-155.5 337,-155.5"/>
<text text-anchor="middle" x="394" y="-163.5" font-family="FreeSans" font-size="10.00">hfa_graph_getstatus</text>
</a>
</g>
<!-- Node3&#45;&gt;Node14 -->
<g id="edge26" class="edge"><title>Node3&#45;&gt;Node14</title>
<path fill="none" stroke="midnightblue" d="M292.398,-169.024C303.633,-168.689 315.308,-168.342 326.57,-168.007"/>
<polygon fill="midnightblue" stroke="midnightblue" points="326.88,-171.499 336.771,-167.703 326.671,-164.502 326.88,-171.499"/>
</g>
<!-- Node5 -->
<g id="node9" class="node"><title>Node5</title>
<a xlink:href="cvm-hfa-instr_8h.html#acaf8def6cbffb04c100bf7f7684f242e" target="_top" xlink:title="Initialize the HFA instruction.">
<polygon fill="white" stroke="black" points="518.5,-505.5 518.5,-526.5 621.5,-526.5 621.5,-505.5 518.5,-505.5"/>
<text text-anchor="middle" x="570" y="-513.5" font-family="FreeSans" font-size="10.00">cvm_hfa_instr_init</text>
</a>
</g>
<!-- Node4&#45;&gt;Node5 -->
<g id="edge8" class="edge"><title>Node4&#45;&gt;Node5</title>
<path fill="none" stroke="midnightblue" d="M401.68,-373.13C415.893,-402.831 449.173,-463.788 496,-496 499.971,-498.732 504.3,-501.091 508.806,-503.128"/>
<polygon fill="midnightblue" stroke="midnightblue" points="507.659,-506.438 518.244,-506.874 510.241,-499.932 507.659,-506.438"/>
</g>
<!-- Node6 -->
<g id="node11" class="node"><title>Node6</title>
<a xlink:href="cvm-hfa-instr_8h.html#a2d6082e2e599fe8523162b18d0a06f6c" target="_top" xlink:title="Sets rptr in the instruction.">
<polygon fill="white" stroke="black" points="510,-465.5 510,-486.5 630,-486.5 630,-465.5 510,-465.5"/>
<text text-anchor="middle" x="570" y="-473.5" font-family="FreeSans" font-size="10.00">cvm_hfa_instr_setrptr</text>
</a>
</g>
<!-- Node4&#45;&gt;Node6 -->
<g id="edge10" class="edge"><title>Node4&#45;&gt;Node6</title>
<path fill="none" stroke="midnightblue" d="M406.859,-373.225C424.499,-395.631 458.332,-434.446 496,-456 499.873,-458.216 504.001,-460.195 508.251,-461.961"/>
<polygon fill="midnightblue" stroke="midnightblue" points="507.105,-465.269 517.697,-465.494 509.557,-458.712 507.105,-465.269"/>
</g>
<!-- Node7 -->
<g id="node13" class="node"><title>Node7</title>
<a xlink:href="cvm-hfa-instr_8h.html#a6960a0761295ada9f449ea5e8c41ec80" target="_top" xlink:title="Sets clmsk in the instruction.">
<polygon fill="white" stroke="black" points="504,-425.5 504,-446.5 636,-446.5 636,-425.5 504,-425.5"/>
<text text-anchor="middle" x="570" y="-433.5" font-family="FreeSans" font-size="10.00">cvm_hfa_instr_setclmsk</text>
</a>
</g>
<!-- Node4&#45;&gt;Node7 -->
<g id="edge12" class="edge"><title>Node4&#45;&gt;Node7</title>
<path fill="none" stroke="midnightblue" d="M418.585,-373.006C438.658,-386.252 468.158,-404.299 496,-416 501.716,-418.402 507.803,-420.593 513.937,-422.569"/>
<polygon fill="midnightblue" stroke="midnightblue" points="512.98,-425.936 523.566,-425.497 515.017,-419.239 512.98,-425.936"/>
</g>
<!-- Node8 -->
<g id="node15" class="node"><title>Node8</title>
<a xlink:href="cvm-hfa-instr_8h.html#add4e981377a02cd06e2bca116e584bca" target="_top" xlink:title="Sets vgid in the instruction.">
<polygon fill="white" stroke="black" points="508,-385.5 508,-406.5 632,-406.5 632,-385.5 508,-385.5"/>
<text text-anchor="middle" x="570" y="-393.5" font-family="FreeSans" font-size="10.00">cvm_hfa_instr_setvgid</text>
</a>
</g>
<!-- Node4&#45;&gt;Node8 -->
<g id="edge14" class="edge"><title>Node4&#45;&gt;Node8</title>
<path fill="none" stroke="midnightblue" d="M460.037,-371.008C477.73,-375.03 496.69,-379.339 513.797,-383.226"/>
<polygon fill="midnightblue" stroke="midnightblue" points="513.104,-386.658 523.631,-385.462 514.656,-379.832 513.104,-386.658"/>
</g>
<!-- Node9 -->
<g id="node17" class="node"><title>Node9</title>
<a xlink:href="cvm-hfa-common_8h.html#a0da7c57174fb96d75ae9cc2ed3116a05" target="_top" xlink:title="Dump buffer pointed by &quot;buf&quot; in readable format.">
<polygon fill="white" stroke="black" points="527,-345.5 527,-366.5 613,-366.5 613,-345.5 527,-345.5"/>
<text text-anchor="middle" x="570" y="-353.5" font-family="FreeSans" font-size="10.00">hfa_dump_buf</text>
</a>
</g>
<!-- Node4&#45;&gt;Node9 -->
<g id="edge16" class="edge"><title>Node4&#45;&gt;Node9</title>
<path fill="none" stroke="midnightblue" d="M460.037,-356C478.709,-356 498.79,-356 516.617,-356"/>
<polygon fill="midnightblue" stroke="midnightblue" points="516.825,-359.5 526.825,-356 516.825,-352.5 516.825,-359.5"/>
</g>
<!-- Node10 -->
<g id="node19" class="node"><title>Node10</title>
<a xlink:href="cvm-hfa-instr_8h.html#a88a92a987acac81360f3b880d013cd10" target="_top" xlink:title="Sets wqptr instruction.">
<polygon fill="white" stroke="black" points="504.5,-305.5 504.5,-326.5 635.5,-326.5 635.5,-305.5 504.5,-305.5"/>
<text text-anchor="middle" x="570" y="-313.5" font-family="FreeSans" font-size="10.00">cvm_hfa_instr_setwqptr</text>
</a>
</g>
<!-- Node4&#45;&gt;Node10 -->
<g id="edge18" class="edge"><title>Node4&#45;&gt;Node10</title>
<path fill="none" stroke="midnightblue" d="M460.037,-340.992C477.73,-336.97 496.69,-332.661 513.797,-328.774"/>
<polygon fill="midnightblue" stroke="midnightblue" points="514.656,-332.168 523.631,-326.538 513.104,-325.342 514.656,-332.168"/>
</g>
<!-- Node11 -->
<g id="node21" class="node"><title>Node11</title>
<a xlink:href="cvm-hfa-graph_8c.html#a1320f0566be0069bd604cc820a12a114" target="_top" xlink:title="This routine sets WQE field in graph data structure.">
<polygon fill="white" stroke="black" points="517.5,-265.5 517.5,-286.5 622.5,-286.5 622.5,-265.5 517.5,-265.5"/>
<text text-anchor="middle" x="570" y="-273.5" font-family="FreeSans" font-size="10.00">hfa_graph_setwqe</text>
</a>
</g>
<!-- Node4&#45;&gt;Node11 -->
<g id="edge20" class="edge"><title>Node4&#45;&gt;Node11</title>
<path fill="none" stroke="midnightblue" d="M418.585,-338.994C438.658,-325.748 468.158,-307.701 496,-296 501.716,-293.598 507.803,-291.407 513.937,-289.431"/>
<polygon fill="midnightblue" stroke="midnightblue" points="515.017,-292.761 523.566,-286.503 512.98,-286.064 515.017,-292.761"/>
</g>
<!-- Node12 -->
<g id="node23" class="node"><title>Node12</title>
<a xlink:href="cvm-hfa_8c.html#a4677d07b901d6aeb02e793c1dbdfabbf" target="_top" xlink:title="Asynchronous instruction submit to HFA hardware Do not wait for instruction to complete.">
<polygon fill="white" stroke="black" points="509,-225.5 509,-246.5 631,-246.5 631,-225.5 509,-225.5"/>
<text text-anchor="middle" x="570" y="-233.5" font-family="FreeSans" font-size="10.00">hfa_dev_submitasync</text>
</a>
</g>
<!-- Node4&#45;&gt;Node12 -->
<g id="edge22" class="edge"><title>Node4&#45;&gt;Node12</title>
<path fill="none" stroke="midnightblue" d="M406.859,-338.775C424.499,-316.369 458.332,-277.554 496,-256 499.873,-253.784 504.001,-251.805 508.251,-250.039"/>
<polygon fill="midnightblue" stroke="midnightblue" points="509.557,-253.288 517.697,-246.506 507.105,-246.731 509.557,-253.288"/>
</g>
<!-- Node13 -->
<g id="node25" class="node"><title>Node13</title>
<a xlink:href="cvmx-hfa_8c.html#a96a123c8918e83cdf914f6de1bfb4f00" target="_top" xlink:title="Submit a command to the DFA block.">
<polygon fill="white" stroke="black" points="695,-225.5 695,-246.5 797,-246.5 797,-225.5 695,-225.5"/>
<text text-anchor="middle" x="746" y="-233.5" font-family="FreeSans" font-size="10.00">cvmx_hfa_submit</text>
</a>
</g>
<!-- Node12&#45;&gt;Node13 -->
<g id="edge24" class="edge"><title>Node12&#45;&gt;Node13</title>
<path fill="none" stroke="midnightblue" d="M631.062,-236C648.491,-236 667.48,-236 684.911,-236"/>
<polygon fill="midnightblue" stroke="midnightblue" points="684.97,-239.5 694.97,-236 684.97,-232.5 684.97,-239.5"/>
</g>
<!-- Node15 -->
<g id="node29" class="node"><title>Node15</title>
<a xlink:href="cvm-hfa_8c.html#a4753d2dd586e19676b1a59dd16baaeed" target="_top" xlink:title="Obtain status of submitted insruction.">
<polygon fill="white" stroke="black" points="503.5,-185.5 503.5,-206.5 636.5,-206.5 636.5,-185.5 503.5,-185.5"/>
<text text-anchor="middle" x="570" y="-193.5" font-family="FreeSans" font-size="10.00">hfa_dev_getasyncstatus</text>
</a>
</g>
<!-- Node14&#45;&gt;Node15 -->
<g id="edge28" class="edge"><title>Node14&#45;&gt;Node15</title>
<path fill="none" stroke="midnightblue" d="M451.142,-175.74C466.127,-178.294 482.48,-181.082 498.128,-183.749"/>
<polygon fill="midnightblue" stroke="midnightblue" points="497.841,-187.251 508.287,-185.481 499.018,-180.35 497.841,-187.251"/>
</g>
<!-- Node18 -->
<g id="node35" class="node"><title>Node18</title>
<a xlink:href="cvm-hfa-instr_8h.html#aa7b5661907cf23e01fe784a70980ed4b" target="_top" xlink:title="Gets itype from RWORD0.">
<polygon fill="white" stroke="black" points="509,-145.5 509,-166.5 631,-166.5 631,-145.5 509,-145.5"/>
<text text-anchor="middle" x="570" y="-153.5" font-family="FreeSans" font-size="10.00">cvm_hfa_rslt_getitype</text>
</a>
</g>
<!-- Node14&#45;&gt;Node18 -->
<g id="edge34" class="edge"><title>Node14&#45;&gt;Node18</title>
<path fill="none" stroke="midnightblue" d="M451.142,-162.753C466.292,-161.892 482.839,-160.952 498.643,-160.054"/>
<polygon fill="midnightblue" stroke="midnightblue" points="499.114,-163.533 508.899,-159.472 498.717,-156.545 499.114,-163.533"/>
</g>
<!-- Node19 -->
<g id="node37" class="node"><title>Node19</title>
<a xlink:href="cvm-hfa-graph_8c.html#aa4c0667cc4f92a08c249041eb8a4ec58" target="_top" xlink:title="This routine is used to free the buffers and change the graph load status after instruction completio...">
<polygon fill="white" stroke="black" points="496.5,-105.5 496.5,-126.5 643.5,-126.5 643.5,-105.5 496.5,-105.5"/>
<text text-anchor="middle" x="570" y="-113.5" font-family="FreeSans" font-size="10.00">__hfa_graph_processstatus</text>
</a>
</g>
<!-- Node14&#45;&gt;Node19 -->
<g id="edge36" class="edge"><title>Node14&#45;&gt;Node19</title>
<path fill="none" stroke="midnightblue" d="M429.348,-155.395C448.955,-149.565 473.794,-142.266 496,-136 503.922,-133.765 512.336,-131.442 520.541,-129.205"/>
<polygon fill="midnightblue" stroke="midnightblue" points="521.665,-132.526 530.399,-126.53 519.832,-125.771 521.665,-132.526"/>
</g>
<!-- Node16 -->
<g id="node31" class="node"><title>Node16</title>
<a xlink:href="cvm-hfa-instr_8h.html#a56f2522dcba965745a1bc239fc432dca" target="_top" xlink:title="Gets done from RWORD0.">
<polygon fill="white" stroke="black" points="684.5,-185.5 684.5,-206.5 807.5,-206.5 807.5,-185.5 684.5,-185.5"/>
<text text-anchor="middle" x="746" y="-193.5" font-family="FreeSans" font-size="10.00">cvm_hfa_rslt_getdone</text>
</a>
</g>
<!-- Node15&#45;&gt;Node16 -->
<g id="edge30" class="edge"><title>Node15&#45;&gt;Node16</title>
<path fill="none" stroke="midnightblue" d="M636.538,-196C648.782,-196 661.616,-196 674.012,-196"/>
<polygon fill="midnightblue" stroke="midnightblue" points="674.299,-199.5 684.299,-196 674.299,-192.5 674.299,-199.5"/>
</g>
<!-- Node17 -->
<g id="node33" class="node"><title>Node17</title>
<a xlink:href="cvm-hfa-instr_8h.html#a9700a50b68b6616506528eb725a8bda1" target="_top" xlink:title="Gets reason from RWORD0.">
<polygon fill="white" stroke="black" points="680.5,-145.5 680.5,-166.5 811.5,-166.5 811.5,-145.5 680.5,-145.5"/>
<text text-anchor="middle" x="746" y="-153.5" font-family="FreeSans" font-size="10.00">cvm_hfa_rslt_getreason</text>
</a>
</g>
<!-- Node15&#45;&gt;Node17 -->
<g id="edge32" class="edge"><title>Node15&#45;&gt;Node17</title>
<path fill="none" stroke="midnightblue" d="M616.242,-185.49C638.788,-180.366 666.096,-174.16 689.832,-168.765"/>
<polygon fill="midnightblue" stroke="midnightblue" points="690.786,-172.138 699.762,-166.509 689.235,-165.312 690.786,-172.138"/>
</g>
<!-- Node20 -->
<g id="node39" class="node"><title>Node20</title>
<a xlink:href="cvm-hfa-cluster_8c.html#ad8cad96579f5a310b62caaf8c166658f" target="_top" xlink:title="Returns a copy of a cluster of the HFA device.">
<polygon fill="white" stroke="black" points="701,-105.5 701,-126.5 791,-126.5 791,-105.5 701,-105.5"/>
<text text-anchor="middle" x="746" y="-113.5" font-family="FreeSans" font-size="10.00">hfa_get_cluster</text>
</a>
</g>
<!-- Node19&#45;&gt;Node20 -->
<g id="edge38" class="edge"><title>Node19&#45;&gt;Node20</title>
<path fill="none" stroke="midnightblue" d="M643.62,-116C659.386,-116 675.785,-116 690.719,-116"/>
<polygon fill="midnightblue" stroke="midnightblue" points="690.797,-119.5 700.797,-116 690.797,-112.5 690.797,-119.5"/>
</g>
<!-- Node24 -->
<g id="node47" class="node"><title>Node24</title>
<a xlink:href="cvm-hfa-stats_8c.html#ad6d5ab096d9d84d2b2f52bd551443592" target="_top" xlink:title="This routine is the counterpart of hfa_dev_init_stats().">
<polygon fill="white" stroke="black" points="331,-45.5 331,-66.5 457,-66.5 457,-45.5 331,-45.5"/>
<text text-anchor="middle" x="394" y="-53.5" font-family="FreeSans" font-size="10.00">hfa_dev_stats_cleanup</text>
</a>
</g>
<!-- Node23&#45;&gt;Node24 -->
<g id="edge46" class="edge"><title>Node23&#45;&gt;Node24</title>
<path fill="none" stroke="midnightblue" d="M275.951,-52.4866C289.939,-52.903 305.444,-53.3644 320.493,-53.8123"/>
<polygon fill="midnightblue" stroke="midnightblue" points="320.714,-57.3203 330.814,-54.1195 320.922,-50.3234 320.714,-57.3203"/>
</g>
<!-- Node26 -->
<g id="node51" class="node"><title>Node26</title>
<a xlink:href="cvm-hfa-stats_8c.html#a75504ae5d9797d314ee11704fc86cdb1" target="_top" xlink:title="This routine prints statistics of each core.">
<polygon fill="white" stroke="black" points="339.5,-5.5 339.5,-26.5 448.5,-26.5 448.5,-5.5 339.5,-5.5"/>
<text text-anchor="middle" x="394" y="-13.5" font-family="FreeSans" font-size="10.00">hfa_dev_stats_print</text>
</a>
</g>
<!-- Node23&#45;&gt;Node26 -->
<g id="edge50" class="edge"><title>Node23&#45;&gt;Node26</title>
<path fill="none" stroke="midnightblue" d="M275.951,-40.5936C293.988,-36.8359 314.546,-32.5528 333.397,-28.6257"/>
<polygon fill="midnightblue" stroke="midnightblue" points="334.294,-32.0139 343.37,-26.5479 332.867,-25.1611 334.294,-32.0139"/>
</g>
<!-- Node25 -->
<g id="node49" class="node"><title>Node25</title>
<a xlink:href="cvm-hfa-stats_8c.html#a7a2acbe48c3850d43256938ee996aa16" target="_top" xlink:title="This routine frees memory to STATS ARENA.">
<polygon fill="white" stroke="black" points="507.5,-45.5 507.5,-66.5 632.5,-66.5 632.5,-45.5 507.5,-45.5"/>
<text text-anchor="middle" x="570" y="-53.5" font-family="FreeSans" font-size="10.00">hfa_stats_memoryfree</text>
</a>
</g>
<!-- Node24&#45;&gt;Node25 -->
<g id="edge48" class="edge"><title>Node24&#45;&gt;Node25</title>
<path fill="none" stroke="midnightblue" d="M457.043,-56C470.091,-56 483.936,-56 497.296,-56"/>
<polygon fill="midnightblue" stroke="midnightblue" points="497.397,-59.5001 507.397,-56 497.397,-52.5001 497.397,-59.5001"/>
</g>
</g>
</svg>
        <g id="navigator" transform="translate(0 0)" fill="#404254">
                <rect fill="#f2f5e9" fill-opacity="0.5" stroke="#606060" stroke-width=".5" x="0" y="0" width="60" height="60"/>
                <use id="zoomplus" xlink:href="#zoomPlus" x="17" y="9" onmousedown="handleZoom(evt,'in')"/>
                <use id="zoomminus" xlink:href="#zoomMin" x="42" y="9" onmousedown="handleZoom(evt,'out')"/>
                <use id="reset" xlink:href="#resetDef" x="30" y="36" onmousedown="handleReset()"/>
                <g id="arrowUp" xlink:href="#dirArrow" transform="translate(30 24)" onmousedown="handlePan(0,-1)">
                  <use xlink:href="#rim" fill="#404040">
                        <set attributeName="fill" to="#808080" begin="arrowUp.mouseover" end="arrowUp.mouseout"/>
                  </use>
                  <path fill="none" stroke="white" stroke-width="1.5" d="M0,-3.0v7 M-2.5,-0.5L0,-3.0L2.5,-0.5"/>
                </g>
                <g id="arrowRight" xlink:href="#dirArrow" transform="rotate(90) translate(36 -43)" onmousedown="handlePan(1,0)">
                  <use xlink:href="#rim" fill="#404040">
                        <set attributeName="fill" to="#808080" begin="arrowRight.mouseover" end="arrowRight.mouseout"/>
                  </use>
                  <path fill="none" stroke="white" stroke-width="1.5" d="M0,-3.0v7 M-2.5,-0.5L0,-3.0L2.5,-0.5"/>
                </g>
                <g id="arrowDown" xlink:href="#dirArrow" transform="rotate(180) translate(-30 -48)" onmousedown="handlePan(0,1)">
                  <use xlink:href="#rim" fill="#404040">
                        <set attributeName="fill" to="#808080" begin="arrowDown.mouseover" end="arrowDown.mouseout"/>
                  </use>
                  <path fill="none" stroke="white" stroke-width="1.5" d="M0,-3.0v7 M-2.5,-0.5L0,-3.0L2.5,-0.5"/>
                </g>
                <g id="arrowLeft" xlink:href="#dirArrow" transform="rotate(270) translate(-36 17)" onmousedown="handlePan(-1,0)">
                  <use xlink:href="#rim" fill="#404040">
                        <set attributeName="fill" to="#808080" begin="arrowLeft.mouseover" end="arrowLeft.mouseout"/>
                  </use>
                  <path fill="none" stroke="white" stroke-width="1.5" d="M0,-3.0v7 M-2.5,-0.5L0,-3.0L2.5,-0.5"/>
                </g>
        </g>
        <svg viewBox="0 0 15 15" width="100%" height="30px" preserveAspectRatio="xMaxYMin meet">
         <g id="arrow_out" transform="scale(0.3 0.3)">
          <a xlink:href="hfa-lnx-async_8c_aaf98ef7cdde3a0dfb2e49919de3298b1_cgraph_org.svg" target="_base">
           <rect id="button" ry="5" rx="5" y="6" x="6" height="38" width="38"
                fill="#f2f5e9" fill-opacity="0.5" stroke="#606060" stroke-width="1.0"/>
           <path id="arrow"
             d="M 11.500037,31.436501 C 11.940474,20.09759 22.043105,11.32322 32.158766,21.979434 L 37.068811,17.246167 C 37.068811,17.246167 37.088388,32 37.088388,32 L 22.160133,31.978069 C 22.160133,31.978069 26.997745,27.140456 26.997745,27.140456 C 18.528582,18.264221 13.291696,25.230495 11.500037,31.436501 z"
             style="fill:#404040;"/>
          </a>
         </g>
        </svg>
</svg>
