<?xml version="1.0" encoding="UTF-8" standalone="no"?>
<!DOCTYPE svg PUBLIC "-//W3C//DTD SVG 1.1//EN"
 "http://www.w3.org/Graphics/SVG/1.1/DTD/svg11.dtd">
<!-- Generated by graphviz version 2.24.0 (20090616.2323)
 -->
<!-- Title: ctxdb_init Pages: 1 -->
<svg width="148pt" height="70pt"
 viewBox="0.00 0.00 148.00 70.00" xmlns="http://www.w3.org/2000/svg" xmlns:xlink="http://www.w3.org/1999/xlink">
<g id="graph1" class="graph" transform="scale(1 1) rotate(0) translate(4 66)">
<title>ctxdb_init</title>
<polygon fill="white" stroke="white" points="-4,5 -4,-66 145,-66 145,5 -4,5"/>
<!-- Node1 -->
<g id="node1" class="node"><title>Node1</title>
<polygon fill="#bfbfbf" stroke="black" points="0,-20.5 0,-41.5 62,-41.5 62,-20.5 0,-20.5"/>
<text text-anchor="middle" x="31" y="-28.5" font-family="FreeSans" font-size="10.00">ctxdb_init</text>
</g>
<!-- Node2 -->
<g id="node3" class="node"><title>Node2</title>
<a xlink:href="hfa-lnx-wqe-lock_8c.html#a78ffddbcd7cdd164889cfb53ea367886" target="_top" xlink:title="entry">
<polygon fill="white" stroke="black" points="98.5,-40.5 98.5,-61.5 139.5,-61.5 139.5,-40.5 98.5,-40.5"/>
<text text-anchor="middle" x="119" y="-48.5" font-family="FreeSans" font-size="10.00">entry</text>
</a>
</g>
<!-- Node1&#45;&gt;Node2 -->
<g id="edge2" class="edge"><title>Node1&#45;&gt;Node2</title>
<path fill="none" stroke="midnightblue" d="M72.3068,-40.3879C81.3225,-42.4369 90.4895,-44.5203 98.2862,-46.2923"/>
<polygon fill="midnightblue" stroke="midnightblue" points="72.8003,-36.9109 62.2733,-38.1076 71.2489,-43.7368 72.8003,-36.9109"/>
</g>
<!-- Node3 -->
<g id="node5" class="node"><title>Node3</title>
<a xlink:href="hfa-se-wqe-lock_8c.html#a3c04138a5bfe5d72780bb7e82a18e627" target="_top" xlink:title="main">
<polygon fill="white" stroke="black" points="99,-0.5 99,-21.5 139,-21.5 139,-0.5 99,-0.5"/>
<text text-anchor="middle" x="119" y="-8.5" font-family="FreeSans" font-size="10.00">main</text>
</a>
</g>
<!-- Node1&#45;&gt;Node3 -->
<g id="edge4" class="edge"><title>Node1&#45;&gt;Node3</title>
<path fill="none" stroke="midnightblue" d="M72.1795,-21.641C81.4412,-19.5361 90.8703,-17.3931 98.8162,-15.5872"/>
<polygon fill="midnightblue" stroke="midnightblue" points="71.2489,-18.2632 62.2733,-23.8924 72.8003,-25.0891 71.2489,-18.2632"/>
</g>
</g>
</svg>
