<?xml version="1.0" encoding="UTF-8" standalone="no"?>
<!DOCTYPE svg PUBLIC "-//W3C//DTD SVG 1.1//EN"
 "http://www.w3.org/Graphics/SVG/1.1/DTD/svg11.dtd">
<!-- Generated by graphviz version 2.24.0 (20090616.2323)
 -->
<!-- Title: process_search Pages: 1 -->
<svg width="1000pt" height="690pt"
 viewBox="0.00 0.00 1000.00 690.00" xmlns="http://www.w3.org/2000/svg" xmlns:xlink="http://www.w3.org/1999/xlink">
<g id="graph1" class="graph" transform="scale(1 1) rotate(0) translate(4 686)">
<title>process_search</title>
<polygon fill="white" stroke="white" points="-4,5 -4,-686 997,-686 997,5 -4,5"/>
<!-- Node1 -->
<g id="node1" class="node"><title>Node1</title>
<polygon fill="#bfbfbf" stroke="black" points="0,-271.5 0,-292.5 92,-292.5 92,-271.5 0,-271.5"/>
<text text-anchor="middle" x="46" y="-279.5" font-family="FreeSans" font-size="10.00">process_search</text>
</g>
<!-- Node2 -->
<g id="node3" class="node"><title>Node2</title>
<a xlink:href="hfa-lnx-nctx_8c.html#a3be0d2bba0ef048d0e01bcc341c36c5f" target="_top" xlink:title="Initialize search context object for nctxts and a global list to track nctxts.">
<polygon fill="white" stroke="black" points="147.5,-449.5 147.5,-470.5 246.5,-470.5 246.5,-449.5 147.5,-449.5"/>
<text text-anchor="middle" x="197" y="-457.5" font-family="FreeSans" font-size="10.00">initialize_ctx_glist</text>
</a>
</g>
<!-- Node1&#45;&gt;Node2 -->
<g id="edge2" class="edge"><title>Node1&#45;&gt;Node2</title>
<path fill="none" stroke="midnightblue" d="M51.8872,-292.76C64.2474,-314.823 94.5371,-366.202 128,-403 141.678,-418.041 159.399,-432.597 173.457,-443.235"/>
<polygon fill="midnightblue" stroke="midnightblue" points="171.55,-446.178 181.668,-449.321 175.719,-440.554 171.55,-446.178"/>
</g>
<!-- Node3 -->
<g id="node5" class="node"><title>Node3</title>
<a xlink:href="hfa-lnx-nctx_8c.html#acd9a270918c95a64084bc615d54791d9" target="_top" xlink:title="Cleanup search ctx and search node.">
<polygon fill="white" stroke="black" points="343.5,-529.5 343.5,-550.5 432.5,-550.5 432.5,-529.5 343.5,-529.5"/>
<text text-anchor="middle" x="388" y="-537.5" font-family="FreeSans" font-size="10.00">snode_cleanup</text>
</a>
</g>
<!-- Node1&#45;&gt;Node3 -->
<g id="edge112" class="edge"><title>Node1&#45;&gt;Node3</title>
<path fill="none" stroke="midnightblue" d="M47.0437,-292.548C50.9137,-325.728 67.5135,-428.796 128,-480 185.584,-528.747 275.13,-539.754 332.664,-541.31"/>
<polygon fill="midnightblue" stroke="midnightblue" points="332.958,-544.816 343.02,-541.498 333.085,-537.817 332.958,-544.816"/>
</g>
<!-- Node22 -->
<g id="node46" class="node"><title>Node22</title>
<a xlink:href="app-utils_8c.html#a1944a739d03e86dcaee1a7d245cfeba0" target="_top" xlink:title="Initialize the attributes needed for parsing the payload file.">
<polygon fill="white" stroke="black" points="140.5,-360 140.5,-394 253.5,-394 253.5,-360 140.5,-360"/>
<text text-anchor="start" x="148.5" y="-381" font-family="FreeSans" font-size="10.00">hfautils_init_payload</text>
<text text-anchor="middle" x="197" y="-368" font-family="FreeSans" font-size="10.00">_attributes</text>
</a>
</g>
<!-- Node1&#45;&gt;Node22 -->
<g id="edge48" class="edge"><title>Node1&#45;&gt;Node22</title>
<path fill="none" stroke="midnightblue" d="M57.1837,-292.721C72.3004,-306.792 100.534,-331.618 128,-348 132.42,-350.636 137.125,-353.151 141.919,-355.519"/>
<polygon fill="midnightblue" stroke="midnightblue" points="140.661,-358.795 151.2,-359.884 143.641,-352.461 140.661,-358.795"/>
</g>
<!-- Node24 -->
<g id="node50" class="node"><title>Node24</title>
<a xlink:href="app-utils_8c.html#a4b47f3c9c5a0b3eaee64e264171628a3" target="_top" xlink:title="This routine reads data of chunksize/a packet from given payload(Normal/PCAP) file and returns data b...">
<polygon fill="white" stroke="black" points="134,-317.5 134,-338.5 260,-338.5 260,-317.5 134,-317.5"/>
<text text-anchor="middle" x="197" y="-325.5" font-family="FreeSans" font-size="10.00">hfautils_parse_payload</text>
</a>
</g>
<!-- Node1&#45;&gt;Node24 -->
<g id="edge52" class="edge"><title>Node1&#45;&gt;Node24</title>
<path fill="none" stroke="midnightblue" d="M80.6425,-292.553C102.031,-299.069 129.681,-307.492 152.66,-314.492"/>
<polygon fill="midnightblue" stroke="midnightblue" points="151.933,-317.93 162.519,-317.496 153.973,-311.233 151.933,-317.93"/>
</g>
<!-- Node25 -->
<g id="node53" class="node"><title>Node25</title>
<a xlink:href="hfa-lnx-nctx_8c.html#a508e8db841721921a39875f1b628b92c" target="_top" xlink:title="Set search parameters and submit a search instruction to HW.">
<polygon fill="white" stroke="black" points="173,-271.5 173,-292.5 221,-292.5 221,-271.5 173,-271.5"/>
<text text-anchor="middle" x="197" y="-279.5" font-family="FreeSans" font-size="10.00">submit</text>
</a>
</g>
<!-- Node1&#45;&gt;Node25 -->
<g id="edge56" class="edge"><title>Node1&#45;&gt;Node25</title>
<path fill="none" stroke="midnightblue" d="M92.1255,-282C114.829,-282 141.732,-282 162.605,-282"/>
<polygon fill="midnightblue" stroke="midnightblue" points="162.619,-285.5 172.619,-282 162.619,-278.5 162.619,-285.5"/>
</g>
<!-- Node29 -->
<g id="node61" class="node"><title>Node29</title>
<a xlink:href="cvm-hfa-search_8c.html#a6a8e1d7e70e0a10520302df5651e5fc5" target="_top" xlink:title="This routine provides the status of an outstanding pattern search operation initiated using hfa_searc...">
<polygon fill="white" stroke="black" points="302,-173.5 302,-194.5 474,-194.5 474,-173.5 302,-173.5"/>
<text text-anchor="middle" x="388" y="-181.5" font-family="FreeSans" font-size="10.00">hfa_searchctx_get_searchstatus</text>
</a>
</g>
<!-- Node1&#45;&gt;Node29 -->
<g id="edge64" class="edge"><title>Node1&#45;&gt;Node29</title>
<path fill="none" stroke="midnightblue" d="M78.1291,-271.45C126.436,-255.76 220.777,-225.792 302,-204 311.12,-201.553 320.831,-199.126 330.32,-196.85"/>
<polygon fill="midnightblue" stroke="midnightblue" points="331.168,-200.246 340.094,-194.539 329.557,-193.434 331.168,-200.246"/>
</g>
<!-- Node33 -->
<g id="node69" class="node"><title>Node33</title>
<a xlink:href="hfa-lnx-nctx_8c.html#a4fbafc7a7cdf59be14583808c4469e83" target="_top" xlink:title="Post process the results from HFA and record found matches.">
<polygon fill="white" stroke="black" points="348,-133.5 348,-154.5 428,-154.5 428,-133.5 348,-133.5"/>
<text text-anchor="middle" x="388" y="-141.5" font-family="FreeSans" font-size="10.00">post_process</text>
</a>
</g>
<!-- Node1&#45;&gt;Node33 -->
<g id="edge72" class="edge"><title>Node1&#45;&gt;Node33</title>
<path fill="none" stroke="midnightblue" d="M50.1577,-271.25C59.8038,-247.945 86.127,-192.945 128,-169 193.088,-131.78 282.559,-132.21 337.764,-137.182"/>
<polygon fill="midnightblue" stroke="midnightblue" points="337.7,-140.693 347.995,-138.191 338.387,-133.727 337.7,-140.693"/>
</g>
<!-- Node49 -->
<g id="node101" class="node"><title>Node49</title>
<a xlink:href="hfa-lnx-nctx_8c.html#a14842e8e0a8309142e6e4132ff4aa606" target="_top" xlink:title="Poll for the pending search instructions in the HW (blocked till instruction completes) and process t...">
<polygon fill="white" stroke="black" points="180.5,-178.5 180.5,-199.5 213.5,-199.5 213.5,-178.5 180.5,-178.5"/>
<text text-anchor="middle" x="197" y="-186.5" font-family="FreeSans" font-size="10.00">poll</text>
</a>
</g>
<!-- Node1&#45;&gt;Node49 -->
<g id="edge104" class="edge"><title>Node1&#45;&gt;Node49</title>
<path fill="none" stroke="midnightblue" d="M57.8321,-271.4C73.2027,-257.997 101.244,-234.771 128,-219 141.541,-211.019 157.596,-203.912 170.811,-198.622"/>
<polygon fill="midnightblue" stroke="midnightblue" points="172.22,-201.829 180.274,-194.946 169.686,-195.304 172.22,-201.829"/>
</g>
<!-- Node50 -->
<g id="node105" class="node"><title>Node50</title>
<a xlink:href="app-utils_8c.html#a1f92c93fe820ec9fc9f4d8e993883b05" target="_top" xlink:title="This routine is counter part of hfautils_init_payload_attributes().">
<polygon fill="white" stroke="black" points="128,-88 128,-122 266,-122 266,-88 128,-88"/>
<text text-anchor="start" x="136" y="-109" font-family="FreeSans" font-size="10.00">hfautils_cleanup_payload</text>
<text text-anchor="middle" x="197" y="-96" font-family="FreeSans" font-size="10.00">_attributes</text>
</a>
</g>
<!-- Node1&#45;&gt;Node50 -->
<g id="edge110" class="edge"><title>Node1&#45;&gt;Node50</title>
<path fill="none" stroke="midnightblue" d="M49.3577,-271.329C58.1479,-244.969 84.2308,-176.018 128,-136 131.51,-132.79 135.409,-129.869 139.515,-127.217"/>
<polygon fill="midnightblue" stroke="midnightblue" points="141.313,-130.22 148.177,-122.149 137.778,-124.178 141.313,-130.22"/>
</g>
<!-- Node2&#45;&gt;Node3 -->
<g id="edge4" class="edge"><title>Node2&#45;&gt;Node3</title>
<path fill="none" stroke="midnightblue" d="M212.292,-470.649C232.123,-483.998 268.186,-506.736 302,-520 311.841,-523.86 322.621,-527.092 333.119,-529.754"/>
<polygon fill="midnightblue" stroke="midnightblue" points="332.519,-533.209 343.059,-532.133 334.148,-526.401 332.519,-533.209"/>
</g>
<!-- Node12 -->
<g id="node23" class="node"><title>Node12</title>
<a xlink:href="cvm-hfa-search_8c.html#a64ba7a41c7d677da10e588a58789015b" target="_top" xlink:title="This routine initializes a Search Context.">
<polygon fill="white" stroke="black" points="324.5,-449.5 324.5,-470.5 451.5,-470.5 451.5,-449.5 324.5,-449.5"/>
<text text-anchor="middle" x="388" y="-457.5" font-family="FreeSans" font-size="10.00">hfa_dev_searchctx_init</text>
</a>
</g>
<!-- Node2&#45;&gt;Node12 -->
<g id="edge22" class="edge"><title>Node2&#45;&gt;Node12</title>
<path fill="none" stroke="midnightblue" d="M246.684,-460C267.197,-460 291.405,-460 313.935,-460"/>
<polygon fill="midnightblue" stroke="midnightblue" points="314.149,-463.5 324.149,-460 314.149,-456.5 314.149,-463.5"/>
</g>
<!-- Node15 -->
<g id="node30" class="node"><title>Node15</title>
<a xlink:href="cvm-hfa-search_8c.html#a954753c0e6f4a59599d05f1262a25b38" target="_top" xlink:title="This routine associates a graph with sctx.">
<polygon fill="white" stroke="black" points="322,-409.5 322,-430.5 454,-430.5 454,-409.5 322,-409.5"/>
<text text-anchor="middle" x="388" y="-417.5" font-family="FreeSans" font-size="10.00">hfa_searchctx_setgraph</text>
</a>
</g>
<!-- Node2&#45;&gt;Node15 -->
<g id="edge30" class="edge"><title>Node2&#45;&gt;Node15</title>
<path fill="none" stroke="midnightblue" d="M246.684,-449.595C271.372,-444.425 301.413,-438.133 327.438,-432.683"/>
<polygon fill="midnightblue" stroke="midnightblue" points="328.498,-436.037 337.568,-430.562 327.063,-429.186 328.498,-436.037"/>
</g>
<!-- Node19 -->
<g id="node39" class="node"><title>Node19</title>
<a xlink:href="cvm-hfa-search_8c.html#a60c8025118f6a47f924733e47db8c77d" target="_top" xlink:title="This routine is used to specify settings used during the search and getmatches API.">
<polygon fill="white" stroke="black" points="324,-489.5 324,-510.5 452,-510.5 452,-489.5 324,-489.5"/>
<text text-anchor="middle" x="388" y="-497.5" font-family="FreeSans" font-size="10.00">hfa_searchctx_setflags</text>
</a>
</g>
<!-- Node2&#45;&gt;Node19 -->
<g id="edge40" class="edge"><title>Node2&#45;&gt;Node19</title>
<path fill="none" stroke="midnightblue" d="M246.684,-470.405C271.372,-475.575 301.413,-481.867 327.438,-487.317"/>
<polygon fill="midnightblue" stroke="midnightblue" points="327.063,-490.814 337.568,-489.438 328.498,-483.963 327.063,-490.814"/>
</g>
<!-- Node4 -->
<g id="node7" class="node"><title>Node4</title>
<a xlink:href="cvm-hfa-search_8c.html#a30064f173d814bd3791b59d675c2f45f" target="_top" xlink:title="This routine cleans&#45;up a Search Context.">
<polygon fill="white" stroke="black" points="510,-574.5 510,-595.5 662,-595.5 662,-574.5 510,-574.5"/>
<text text-anchor="middle" x="586" y="-582.5" font-family="FreeSans" font-size="10.00">hfa_dev_searchctx_cleanup</text>
</a>
</g>
<!-- Node3&#45;&gt;Node4 -->
<g id="edge6" class="edge"><title>Node3&#45;&gt;Node4</title>
<path fill="none" stroke="midnightblue" d="M432.929,-550.211C461.53,-556.711 498.815,-565.185 529.426,-572.142"/>
<polygon fill="midnightblue" stroke="midnightblue" points="529.002,-575.635 539.529,-574.438 530.553,-568.809 529.002,-575.635"/>
</g>
<!-- Node5 -->
<g id="node9" class="node"><title>Node5</title>
<a xlink:href="cvm-hfa-pp_8c.html#add6064138ec2e35741929056a0992d8d" target="_top" xlink:title="ppgetstats">
<polygon fill="white" stroke="black" points="731,-528.5 731,-549.5 797,-549.5 797,-528.5 731,-528.5"/>
<text text-anchor="middle" x="764" y="-536.5" font-family="FreeSans" font-size="10.00">ppgetstats</text>
</a>
</g>
<!-- Node4&#45;&gt;Node5 -->
<g id="edge8" class="edge"><title>Node4&#45;&gt;Node5</title>
<path fill="none" stroke="midnightblue" d="M626.837,-574.447C655.024,-567.162 692.434,-557.494 721.065,-550.096"/>
<polygon fill="midnightblue" stroke="midnightblue" points="721.99,-553.472 730.796,-547.581 720.238,-546.694 721.99,-553.472"/>
</g>
<!-- Node7 -->
<g id="node13" class="node"><title>Node7</title>
<a xlink:href="cvm-hfa-pp_8c.html#a57ec655c9bdb6ce63ada6767c7e14763" target="_top" xlink:title="ppcleanstats">
<polygon fill="white" stroke="black" points="725.5,-660.5 725.5,-681.5 802.5,-681.5 802.5,-660.5 725.5,-660.5"/>
<text text-anchor="middle" x="764" y="-668.5" font-family="FreeSans" font-size="10.00">ppcleanstats</text>
</a>
</g>
<!-- Node4&#45;&gt;Node7 -->
<g id="edge12" class="edge"><title>Node4&#45;&gt;Node7</title>
<path fill="none" stroke="midnightblue" d="M601.319,-595.633C622.327,-609.832 661.623,-635.044 698,-651 703.684,-653.493 709.773,-655.797 715.87,-657.886"/>
<polygon fill="midnightblue" stroke="midnightblue" points="714.806,-661.22 725.399,-660.987 716.973,-654.564 714.806,-661.22"/>
</g>
<!-- Node9 -->
<g id="node17" class="node"><title>Node9</title>
<a xlink:href="cvm-hfa-pp_8c.html#a41ce9d3103c639e474783d3843e09071" target="_top" xlink:title="ppcleanup">
<polygon fill="white" stroke="red" points="731,-620.5 731,-641.5 797,-641.5 797,-620.5 731,-620.5"/>
<text text-anchor="middle" x="764" y="-628.5" font-family="FreeSans" font-size="10.00">ppcleanup</text>
</a>
</g>
<!-- Node4&#45;&gt;Node9 -->
<g id="edge16" class="edge"><title>Node4&#45;&gt;Node9</title>
<path fill="none" stroke="midnightblue" d="M626.837,-595.553C655.024,-602.838 692.434,-612.506 721.065,-619.904"/>
<polygon fill="midnightblue" stroke="midnightblue" points="720.238,-623.306 730.796,-622.419 721.99,-616.528 720.238,-623.306"/>
</g>
<!-- Node10 -->
<g id="node19" class="node"><title>Node10</title>
<a xlink:href="cvm-hfa-stats_8c.html#a2df4c76e04e7b028ed2df4bba1b2de3d" target="_top" xlink:title="This routine is the counterpart of hfa_searchctx_init_stats().">
<polygon fill="white" stroke="black" points="707.5,-568 707.5,-602 820.5,-602 820.5,-568 707.5,-568"/>
<text text-anchor="start" x="715.5" y="-589" font-family="FreeSans" font-size="10.00">hfa_searchctx_stats</text>
<text text-anchor="middle" x="764" y="-576" font-family="FreeSans" font-size="10.00">_cleanup</text>
</a>
</g>
<!-- Node4&#45;&gt;Node10 -->
<g id="edge18" class="edge"><title>Node4&#45;&gt;Node10</title>
<path fill="none" stroke="midnightblue" d="M662.004,-585C673.652,-585 685.603,-585 697.036,-585"/>
<polygon fill="midnightblue" stroke="midnightblue" points="697.367,-588.5 707.367,-585 697.367,-581.5 697.367,-588.5"/>
</g>
<!-- Node6 -->
<g id="node11" class="node"><title>Node6</title>
<a xlink:href="pp_8h.html#a808d5057ee5670ce724a6a88fc22b799" target="_top" xlink:title="pphfa_getstats">
<polygon fill="white" stroke="black" points="885.5,-528.5 885.5,-549.5 972.5,-549.5 972.5,-528.5 885.5,-528.5"/>
<text text-anchor="middle" x="929" y="-536.5" font-family="FreeSans" font-size="10.00">pphfa_getstats</text>
</a>
</g>
<!-- Node5&#45;&gt;Node6 -->
<g id="edge10" class="edge"><title>Node5&#45;&gt;Node6</title>
<path fill="none" stroke="midnightblue" d="M797.39,-539C819.654,-539 849.419,-539 875.011,-539"/>
<polygon fill="midnightblue" stroke="midnightblue" points="875.321,-542.5 885.321,-539 875.321,-535.5 875.321,-542.5"/>
</g>
<!-- Node8 -->
<g id="node15" class="node"><title>Node8</title>
<a xlink:href="pp_8h.html#a978b171bd7a736cb7fa0d5d034aa94e2" target="_top" xlink:title="pphfa_cleanstats">
<polygon fill="white" stroke="black" points="880,-660.5 880,-681.5 978,-681.5 978,-660.5 880,-660.5"/>
<text text-anchor="middle" x="929" y="-668.5" font-family="FreeSans" font-size="10.00">pphfa_cleanstats</text>
</a>
</g>
<!-- Node7&#45;&gt;Node8 -->
<g id="edge14" class="edge"><title>Node7&#45;&gt;Node8</title>
<path fill="none" stroke="midnightblue" d="M802.685,-671C822.675,-671 847.499,-671 869.836,-671"/>
<polygon fill="midnightblue" stroke="midnightblue" points="869.898,-674.5 879.898,-671 869.898,-667.5 869.898,-674.5"/>
</g>
<!-- Node11 -->
<g id="node21" class="node"><title>Node11</title>
<a xlink:href="cvm-hfa-stats_8c.html#a7a2acbe48c3850d43256938ee996aa16" target="_top" xlink:title="This routine frees memory to STATS ARENA.">
<polygon fill="white" stroke="black" points="866.5,-571.5 866.5,-592.5 991.5,-592.5 991.5,-571.5 866.5,-571.5"/>
<text text-anchor="middle" x="929" y="-579.5" font-family="FreeSans" font-size="10.00">hfa_stats_memoryfree</text>
</a>
</g>
<!-- Node10&#45;&gt;Node11 -->
<g id="edge20" class="edge"><title>Node10&#45;&gt;Node11</title>
<path fill="none" stroke="midnightblue" d="M820.784,-583.968C832.175,-583.76 844.294,-583.54 856.144,-583.325"/>
<polygon fill="midnightblue" stroke="midnightblue" points="856.528,-586.818 866.463,-583.137 856.401,-579.82 856.528,-586.818"/>
</g>
<!-- Node13 -->
<g id="node25" class="node"><title>Node13</title>
<a xlink:href="cvm-hfa-stats_8c.html#a1cff986555a79b0d5ccee49801cb0056" target="_top" xlink:title="This routine allocates the memory for counters to maintain the statistics of search context...">
<polygon fill="white" stroke="black" points="520.5,-449.5 520.5,-470.5 651.5,-470.5 651.5,-449.5 520.5,-449.5"/>
<text text-anchor="middle" x="586" y="-457.5" font-family="FreeSans" font-size="10.00">hfa_searchctx_stats_init</text>
</a>
</g>
<!-- Node12&#45;&gt;Node13 -->
<g id="edge24" class="edge"><title>Node12&#45;&gt;Node13</title>
<path fill="none" stroke="midnightblue" d="M451.738,-460C470.329,-460 490.828,-460 510.091,-460"/>
<polygon fill="midnightblue" stroke="midnightblue" points="510.34,-463.5 520.34,-460 510.34,-456.5 510.34,-463.5"/>
</g>
<!-- Node13&#45;&gt;Node11 -->
<g id="edge28" class="edge"><title>Node13&#45;&gt;Node11</title>
<path fill="none" stroke="midnightblue" d="M639.992,-449.481C693.233,-442.244 774.475,-439.958 830,-479 861.895,-501.426 837.445,-532.452 866,-559 869.166,-561.943 872.738,-564.517 876.533,-566.765"/>
<polygon fill="midnightblue" stroke="midnightblue" points="875.206,-570.017 885.704,-571.445 878.387,-563.782 875.206,-570.017"/>
</g>
<!-- Node14 -->
<g id="node27" class="node"><title>Node14</title>
<a xlink:href="cvm-hfa-stats_8c.html#acbdfa65e476c04cd9b67b7c462eefe56" target="_top" xlink:title="This routine allocates required memory from STATS ARENA.">
<polygon fill="white" stroke="black" points="699.5,-410.5 699.5,-431.5 828.5,-431.5 828.5,-410.5 699.5,-410.5"/>
<text text-anchor="middle" x="764" y="-418.5" font-family="FreeSans" font-size="10.00">hfa_stats_memoryalloc</text>
</a>
</g>
<!-- Node13&#45;&gt;Node14 -->
<g id="edge26" class="edge"><title>Node13&#45;&gt;Node14</title>
<path fill="none" stroke="midnightblue" d="M634.169,-449.446C656.233,-444.612 682.57,-438.841 705.739,-433.765"/>
<polygon fill="midnightblue" stroke="midnightblue" points="706.773,-437.122 715.792,-431.562 705.275,-430.284 706.773,-437.122"/>
</g>
<!-- Node16 -->
<g id="node32" class="node"><title>Node16</title>
<a xlink:href="cvm-hfa-pp_8c.html#a9ad01b0f0de0f65b99a53f6c64f147e2" target="_top" xlink:title="ppinit">
<polygon fill="white" stroke="black" points="743,-370.5 743,-391.5 785,-391.5 785,-370.5 743,-370.5"/>
<text text-anchor="middle" x="764" y="-378.5" font-family="FreeSans" font-size="10.00">ppinit</text>
</a>
</g>
<!-- Node15&#45;&gt;Node16 -->
<g id="edge32" class="edge"><title>Node15&#45;&gt;Node16</title>
<path fill="none" stroke="midnightblue" d="M445.568,-409.496C465.875,-406.074 488.901,-402.514 510,-400 590.012,-390.468 684.809,-384.879 732.805,-382.45"/>
<polygon fill="midnightblue" stroke="midnightblue" points="733.05,-385.942 742.865,-381.952 732.705,-378.95 733.05,-385.942"/>
</g>
<!-- Node18 -->
<g id="node36" class="node"><title>Node18</title>
<a xlink:href="cvm-hfa-search_8c.html#a3200f5303f0611887f35dd500e7a8d00" target="_top" xlink:title="This is a utility routine which associates an application&#45;specifc cookie in the sctx.">
<polygon fill="white" stroke="black" points="517,-409.5 517,-430.5 655,-430.5 655,-409.5 517,-409.5"/>
<text text-anchor="middle" x="586" y="-417.5" font-family="FreeSans" font-size="10.00">hfa_searchctx_setppuarg</text>
</a>
</g>
<!-- Node15&#45;&gt;Node18 -->
<g id="edge36" class="edge"><title>Node15&#45;&gt;Node18</title>
<path fill="none" stroke="midnightblue" d="M454.206,-420C471.028,-420 489.275,-420 506.676,-420"/>
<polygon fill="midnightblue" stroke="midnightblue" points="506.806,-423.5 516.806,-420 506.806,-416.5 506.806,-423.5"/>
</g>
<!-- Node17 -->
<g id="node34" class="node"><title>Node17</title>
<a xlink:href="pp_8h.html#adc8d105abb8f12812385bb87d15e6e32" target="_top" xlink:title="pphfa_init">
<polygon fill="white" stroke="black" points="897.5,-370.5 897.5,-391.5 960.5,-391.5 960.5,-370.5 897.5,-370.5"/>
<text text-anchor="middle" x="929" y="-378.5" font-family="FreeSans" font-size="10.00">pphfa_init</text>
</a>
</g>
<!-- Node16&#45;&gt;Node17 -->
<g id="edge34" class="edge"><title>Node16&#45;&gt;Node17</title>
<path fill="none" stroke="midnightblue" d="M785.233,-381C810.915,-381 854.744,-381 887.275,-381"/>
<polygon fill="midnightblue" stroke="midnightblue" points="887.402,-384.5 897.402,-381 887.402,-377.5 887.402,-384.5"/>
</g>
<!-- Node18&#45;&gt;Node16 -->
<g id="edge38" class="edge"><title>Node18&#45;&gt;Node16</title>
<path fill="none" stroke="midnightblue" d="M634.169,-409.446C665.575,-402.565 705.642,-393.786 732.902,-387.814"/>
<polygon fill="midnightblue" stroke="midnightblue" points="733.659,-391.231 742.678,-385.672 732.161,-384.393 733.659,-391.231"/>
</g>
<!-- Node19&#45;&gt;Node5 -->
<g id="edge42" class="edge"><title>Node19&#45;&gt;Node5</title>
<path fill="none" stroke="midnightblue" d="M445.568,-510.504C465.875,-513.926 488.901,-517.486 510,-520 583.584,-528.766 669.673,-534.197 720.363,-536.903"/>
<polygon fill="midnightblue" stroke="midnightblue" points="720.457,-540.413 730.626,-537.44 720.822,-533.422 720.457,-540.413"/>
</g>
<!-- Node20 -->
<g id="node42" class="node"><title>Node20</title>
<a xlink:href="cvm-hfa-pp_8c.html#a73cd0d7244d64410753dac7b809d2060" target="_top" xlink:title="ppassignstats">
<polygon fill="white" stroke="black" points="545.5,-489.5 545.5,-510.5 626.5,-510.5 626.5,-489.5 545.5,-489.5"/>
<text text-anchor="middle" x="586" y="-497.5" font-family="FreeSans" font-size="10.00">ppassignstats</text>
</a>
</g>
<!-- Node19&#45;&gt;Node20 -->
<g id="edge44" class="edge"><title>Node19&#45;&gt;Node20</title>
<path fill="none" stroke="midnightblue" d="M452.011,-500C478.923,-500 509.793,-500 535.114,-500"/>
<polygon fill="midnightblue" stroke="midnightblue" points="535.239,-503.5 545.239,-500 535.239,-496.5 535.239,-503.5"/>
</g>
<!-- Node21 -->
<g id="node44" class="node"><title>Node21</title>
<a xlink:href="pp_8h.html#ad0cc4aeca687557949697bef25cdb764" target="_top" xlink:title="pphfa_assignstats">
<polygon fill="white" stroke="black" points="713,-488.5 713,-509.5 815,-509.5 815,-488.5 713,-488.5"/>
<text text-anchor="middle" x="764" y="-496.5" font-family="FreeSans" font-size="10.00">pphfa_assignstats</text>
</a>
</g>
<!-- Node20&#45;&gt;Node21 -->
<g id="edge46" class="edge"><title>Node20&#45;&gt;Node21</title>
<path fill="none" stroke="midnightblue" d="M626.837,-499.771C649.299,-499.644 677.619,-499.485 702.685,-499.344"/>
<polygon fill="midnightblue" stroke="midnightblue" points="702.857,-502.844 712.837,-499.287 702.817,-495.844 702.857,-502.844"/>
</g>
<!-- Node23 -->
<g id="node48" class="node"><title>Node23</title>
<a xlink:href="app-utils_8c.html#a7fbf4d982c3e4493bda83be020e7274c" target="_top" xlink:title="Read file data from a gzip&#45;stream(compressed or uncompressed).">
<polygon fill="white" stroke="black" points="361.5,-369.5 361.5,-390.5 414.5,-390.5 414.5,-369.5 361.5,-369.5"/>
<text text-anchor="middle" x="388" y="-377.5" font-family="FreeSans" font-size="10.00">fd_read</text>
</a>
</g>
<!-- Node22&#45;&gt;Node23 -->
<g id="edge50" class="edge"><title>Node22&#45;&gt;Node23</title>
<path fill="none" stroke="midnightblue" d="M253.531,-377.888C285.134,-378.384 323.61,-378.989 351.295,-379.423"/>
<polygon fill="midnightblue" stroke="midnightblue" points="351.286,-382.924 361.34,-379.581 351.396,-375.925 351.286,-382.924"/>
</g>
<!-- Node24&#45;&gt;Node23 -->
<g id="edge54" class="edge"><title>Node24&#45;&gt;Node23</title>
<path fill="none" stroke="midnightblue" d="M229.472,-338.514C250.136,-345.051 277.52,-353.431 302,-360 317.999,-364.293 335.815,-368.525 351.063,-371.983"/>
<polygon fill="midnightblue" stroke="midnightblue" points="350.632,-375.474 361.155,-374.245 352.163,-368.643 350.632,-375.474"/>
</g>
<!-- Node26 -->
<g id="node55" class="node"><title>Node26</title>
<a xlink:href="cvm-hfa-search_8h.html#a3c407460808f038770473ffc6e4b5c38" target="_top" xlink:title="This routine adds a new input IO vector to Search Param.">
<polygon fill="white" stroke="black" points="327.5,-213 327.5,-247 448.5,-247 448.5,-213 327.5,-213"/>
<text text-anchor="start" x="335.5" y="-234" font-family="FreeSans" font-size="10.00">hfa_searchparam_set</text>
<text text-anchor="middle" x="388" y="-221" font-family="FreeSans" font-size="10.00">_inputiovec</text>
</a>
</g>
<!-- Node25&#45;&gt;Node26 -->
<g id="edge58" class="edge"><title>Node25&#45;&gt;Node26</title>
<path fill="none" stroke="midnightblue" d="M221.19,-275.414C245.31,-268.848 283.53,-258.442 317.303,-249.247"/>
<polygon fill="midnightblue" stroke="midnightblue" points="318.427,-252.569 327.156,-246.565 316.588,-245.815 318.427,-252.569"/>
</g>
<!-- Node27 -->
<g id="node57" class="node"><title>Node27</title>
<a xlink:href="cvm-hfa-search_8h.html#a12882fa53f8ec49b9b2950711161db42" target="_top" xlink:title="This routine sets the output buffer in the sparam.">
<polygon fill="white" stroke="black" points="327.5,-317 327.5,-351 448.5,-351 448.5,-317 327.5,-317"/>
<text text-anchor="start" x="335.5" y="-338" font-family="FreeSans" font-size="10.00">hfa_searchparam_set</text>
<text text-anchor="middle" x="388" y="-325" font-family="FreeSans" font-size="10.00">_output</text>
</a>
</g>
<!-- Node25&#45;&gt;Node27 -->
<g id="edge60" class="edge"><title>Node25&#45;&gt;Node27</title>
<path fill="none" stroke="midnightblue" d="M221.19,-288.586C245.31,-295.152 283.53,-305.558 317.303,-314.753"/>
<polygon fill="midnightblue" stroke="midnightblue" points="316.588,-318.185 327.156,-317.435 318.427,-311.431 316.588,-318.185"/>
</g>
<!-- Node28 -->
<g id="node59" class="node"><title>Node28</title>
<a xlink:href="cvm-hfa-search_8c.html#a0c36da280b39bd8afdf6081baea24472" target="_top" xlink:title="This routine performs a pattern search using the given parameters in a non&#45;blocking manner...">
<polygon fill="white" stroke="black" points="326.5,-265 326.5,-299 449.5,-299 449.5,-265 326.5,-265"/>
<text text-anchor="start" x="334.5" y="-286" font-family="FreeSans" font-size="10.00">hfa_searchctx_search</text>
<text text-anchor="middle" x="388" y="-273" font-family="FreeSans" font-size="10.00">_async</text>
</a>
</g>
<!-- Node25&#45;&gt;Node28 -->
<g id="edge62" class="edge"><title>Node25&#45;&gt;Node28</title>
<path fill="none" stroke="midnightblue" d="M221.19,-282C245.025,-282 282.627,-282 316.102,-282"/>
<polygon fill="midnightblue" stroke="midnightblue" points="316.338,-285.5 326.338,-282 316.338,-278.5 316.338,-285.5"/>
</g>
<!-- Node30 -->
<g id="node63" class="node"><title>Node30</title>
<a xlink:href="cvm-hfa_8c.html#a4753d2dd586e19676b1a59dd16baaeed" target="_top" xlink:title="Obtain status of submitted insruction.">
<polygon fill="white" stroke="black" points="519.5,-242.5 519.5,-263.5 652.5,-263.5 652.5,-242.5 519.5,-242.5"/>
<text text-anchor="middle" x="586" y="-250.5" font-family="FreeSans" font-size="10.00">hfa_dev_getasyncstatus</text>
</a>
</g>
<!-- Node29&#45;&gt;Node30 -->
<g id="edge66" class="edge"><title>Node29&#45;&gt;Node30</title>
<path fill="none" stroke="midnightblue" d="M448.868,-194.53C457.524,-197.059 466.145,-200.173 474,-204 492.471,-212.998 491.661,-223.737 510,-233 514.527,-235.287 519.342,-237.331 524.265,-239.155"/>
<polygon fill="midnightblue" stroke="midnightblue" points="523.225,-242.498 533.82,-242.397 525.475,-235.869 523.225,-242.498"/>
</g>
<!-- Node31 -->
<g id="node65" class="node"><title>Node31</title>
<a xlink:href="cvm-hfa-instr_8h.html#a56f2522dcba965745a1bc239fc432dca" target="_top" xlink:title="Gets done from RWORD0.">
<polygon fill="white" stroke="black" points="702.5,-262.5 702.5,-283.5 825.5,-283.5 825.5,-262.5 702.5,-262.5"/>
<text text-anchor="middle" x="764" y="-270.5" font-family="FreeSans" font-size="10.00">cvm_hfa_rslt_getdone</text>
</a>
</g>
<!-- Node30&#45;&gt;Node31 -->
<g id="edge68" class="edge"><title>Node30&#45;&gt;Node31</title>
<path fill="none" stroke="midnightblue" d="M652.534,-260.476C665.39,-261.92 678.916,-263.44 691.939,-264.903"/>
<polygon fill="midnightblue" stroke="midnightblue" points="691.925,-268.424 702.253,-266.062 692.706,-261.467 691.925,-268.424"/>
</g>
<!-- Node32 -->
<g id="node67" class="node"><title>Node32</title>
<a xlink:href="cvm-hfa-instr_8h.html#a9700a50b68b6616506528eb725a8bda1" target="_top" xlink:title="Gets reason from RWORD0.">
<polygon fill="white" stroke="black" points="698.5,-222.5 698.5,-243.5 829.5,-243.5 829.5,-222.5 698.5,-222.5"/>
<text text-anchor="middle" x="764" y="-230.5" font-family="FreeSans" font-size="10.00">cvm_hfa_rslt_getreason</text>
</a>
</g>
<!-- Node30&#45;&gt;Node32 -->
<g id="edge70" class="edge"><title>Node30&#45;&gt;Node32</title>
<path fill="none" stroke="midnightblue" d="M652.534,-245.524C664.26,-244.207 676.543,-242.827 688.493,-241.484"/>
<polygon fill="midnightblue" stroke="midnightblue" points="688.888,-244.962 698.434,-240.367 688.106,-238.005 688.888,-244.962"/>
</g>
<!-- Node34 -->
<g id="node71" class="node"><title>Node34</title>
<a xlink:href="cvm-hfa-search_8h.html#ab50a2d84e35b5a4a03a23fc90e4dffa0" target="_top" xlink:title="This routine retrieves the reason code after a search operation has been completed by the HFA engine...">
<polygon fill="white" stroke="black" points="525,-18 525,-52 647,-52 647,-18 525,-18"/>
<text text-anchor="start" x="533" y="-39" font-family="FreeSans" font-size="10.00">hfa_searchparam_get</text>
<text text-anchor="middle" x="586" y="-26" font-family="FreeSans" font-size="10.00">_hwsearch_reason</text>
</a>
</g>
<!-- Node33&#45;&gt;Node34 -->
<g id="edge74" class="edge"><title>Node33&#45;&gt;Node34</title>
<path fill="none" stroke="midnightblue" d="M401.165,-133.278C422.773,-116.098 467.608,-82.1888 510,-61 513.547,-59.227 517.244,-57.527 521.014,-55.9058"/>
<polygon fill="midnightblue" stroke="midnightblue" points="522.552,-59.0584 530.49,-52.0413 519.909,-52.5767 522.552,-59.0584"/>
</g>
<!-- Node35 -->
<g id="node73" class="node"><title>Node35</title>
<a xlink:href="cvm-hfa-common_8h.html#ad117ba199386b8d427cbb04f288b5905" target="_top" xlink:title="Dump HFA related registers.">
<polygon fill="white" stroke="black" points="540.5,-202.5 540.5,-223.5 631.5,-223.5 631.5,-202.5 540.5,-202.5"/>
<text text-anchor="middle" x="586" y="-210.5" font-family="FreeSans" font-size="10.00">hfa_dump_regs</text>
</a>
</g>
<!-- Node33&#45;&gt;Node35 -->
<g id="edge76" class="edge"><title>Node33&#45;&gt;Node35</title>
<path fill="none" stroke="midnightblue" d="M428.227,-149.483C443.112,-152.497 459.806,-157.085 474,-164 492.471,-172.998 491.661,-183.737 510,-193 516.447,-196.256 523.477,-199.021 530.574,-201.359"/>
<polygon fill="midnightblue" stroke="midnightblue" points="529.66,-204.738 540.245,-204.287 531.688,-198.039 529.66,-204.738"/>
</g>
<!-- Node36 -->
<g id="node75" class="node"><title>Node36</title>
<a xlink:href="cvm-hfa-search_8h.html#ad18e328b50b109e1e44821f3d006bd9d" target="_top" xlink:title="This routine returns the data&#45;buffer offset.">
<polygon fill="white" stroke="black" points="525,-150 525,-184 647,-184 647,-150 525,-150"/>
<text text-anchor="start" x="533" y="-171" font-family="FreeSans" font-size="10.00">hfa_searchparam_get</text>
<text text-anchor="middle" x="586" y="-158" font-family="FreeSans" font-size="10.00">_hwsearch_pdboff</text>
</a>
</g>
<!-- Node33&#45;&gt;Node36 -->
<g id="edge78" class="edge"><title>Node33&#45;&gt;Node36</title>
<path fill="none" stroke="midnightblue" d="M428.068,-148.654C452.935,-151.543 485.6,-155.337 514.767,-158.725"/>
<polygon fill="midnightblue" stroke="midnightblue" points="514.582,-162.227 524.919,-159.905 515.389,-155.274 514.582,-162.227"/>
</g>
<!-- Node37 -->
<g id="node77" class="node"><title>Node37</title>
<a xlink:href="cvm-hfa-search_8c.html#a6dbb15dc58155b2c94b19784ad42ef89" target="_top" xlink:title="This routine post&#45;processes the search results from the HFA engine and reports the pattern matches fo...">
<polygon fill="white" stroke="black" points="512.5,-110.5 512.5,-131.5 659.5,-131.5 659.5,-110.5 512.5,-110.5"/>
<text text-anchor="middle" x="586" y="-118.5" font-family="FreeSans" font-size="10.00">hfa_searchctx_getmatches</text>
</a>
</g>
<!-- Node33&#45;&gt;Node37 -->
<g id="edge80" class="edge"><title>Node33&#45;&gt;Node37</title>
<path fill="none" stroke="midnightblue" d="M428.068,-139.346C449.416,-136.866 476.513,-133.718 502.209,-130.733"/>
<polygon fill="midnightblue" stroke="midnightblue" points="502.822,-134.186 512.351,-129.555 502.014,-127.232 502.822,-134.186"/>
</g>
<!-- Node45 -->
<g id="node93" class="node"><title>Node45</title>
<a xlink:href="app-utils_8c.html#a633038357891aa5147b77fe939f300bf" target="_top" xlink:title="Print pattern matches via match buffer and cleanup all matches.">
<polygon fill="white" stroke="black" points="524,-70.5 524,-91.5 648,-91.5 648,-70.5 524,-70.5"/>
<text text-anchor="middle" x="586" y="-78.5" font-family="FreeSans" font-size="10.00">hfautils_print_matches</text>
</a>
</g>
<!-- Node33&#45;&gt;Node45 -->
<g id="edge96" class="edge"><title>Node33&#45;&gt;Node45</title>
<path fill="none" stroke="midnightblue" d="M415.889,-133.44C440.478,-124.305 477.37,-111.026 510,-101 517.52,-98.6896 525.507,-96.4055 533.37,-94.2529"/>
<polygon fill="midnightblue" stroke="midnightblue" points="534.471,-97.5813 543.219,-91.6046 532.653,-90.8214 534.471,-97.5813"/>
</g>
<!-- Node38 -->
<g id="node79" class="node"><title>Node38</title>
<a xlink:href="cvm-hfa-common_8h.html#a0da7c57174fb96d75ae9cc2ed3116a05" target="_top" xlink:title="Dump buffer pointed by &quot;buf&quot; in readable format.">
<polygon fill="white" stroke="black" points="721,-150.5 721,-171.5 807,-171.5 807,-150.5 721,-150.5"/>
<text text-anchor="middle" x="764" y="-158.5" font-family="FreeSans" font-size="10.00">hfa_dump_buf</text>
</a>
</g>
<!-- Node37&#45;&gt;Node38 -->
<g id="edge82" class="edge"><title>Node37&#45;&gt;Node38</title>
<path fill="none" stroke="midnightblue" d="M632.767,-131.51C656.758,-136.901 686.079,-143.49 710.916,-149.071"/>
<polygon fill="midnightblue" stroke="midnightblue" points="710.376,-152.537 720.901,-151.315 711.911,-145.707 710.376,-152.537"/>
</g>
<!-- Node39 -->
<g id="node81" class="node"><title>Node39</title>
<a xlink:href="cvm-hfa-pp_8c.html#a02d24f276578f8a39a93968262a08f1d" target="_top" xlink:title="pp">
<polygon fill="white" stroke="black" points="749.5,-110.5 749.5,-131.5 778.5,-131.5 778.5,-110.5 749.5,-110.5"/>
<text text-anchor="middle" x="764" y="-118.5" font-family="FreeSans" font-size="10.00">pp</text>
</a>
</g>
<!-- Node37&#45;&gt;Node39 -->
<g id="edge84" class="edge"><title>Node37&#45;&gt;Node39</title>
<path fill="none" stroke="midnightblue" d="M659.684,-121C688.059,-121 718.576,-121 739.225,-121"/>
<polygon fill="midnightblue" stroke="midnightblue" points="739.332,-124.5 749.332,-121 739.332,-117.5 739.332,-124.5"/>
</g>
<!-- Node40 -->
<g id="node83" class="node"><title>Node40</title>
<a xlink:href="pp_8h.html#af7a68f9e08d3b54012ad008a4f47e1cd" target="_top" xlink:title="pphfa">
<polygon fill="white" stroke="black" points="907,-200.5 907,-221.5 951,-221.5 951,-200.5 907,-200.5"/>
<text text-anchor="middle" x="929" y="-208.5" font-family="FreeSans" font-size="10.00">pphfa</text>
</a>
</g>
<!-- Node39&#45;&gt;Node40 -->
<g id="edge86" class="edge"><title>Node39&#45;&gt;Node40</title>
<path fill="none" stroke="midnightblue" d="M778.575,-122.671C792.803,-124.897 814.512,-129.931 830,-141 852.278,-156.922 843.827,-174.932 866,-191 875.084,-197.583 886.417,-202.054 896.957,-205.067"/>
<polygon fill="midnightblue" stroke="midnightblue" points="896.167,-208.478 906.719,-207.531 897.879,-201.69 896.167,-208.478"/>
</g>
<!-- Node41 -->
<g id="node85" class="node"><title>Node41</title>
<a xlink:href="cvm-hfa-res_8c.html#ad0de0b790a5786053d59797884dbdd23" target="_top" xlink:title="Rinit">
<polygon fill="white" stroke="black" points="911,-160.5 911,-181.5 947,-181.5 947,-160.5 911,-160.5"/>
<text text-anchor="middle" x="929" y="-168.5" font-family="FreeSans" font-size="10.00">Rinit</text>
</a>
</g>
<!-- Node39&#45;&gt;Node41 -->
<g id="edge88" class="edge"><title>Node39&#45;&gt;Node41</title>
<path fill="none" stroke="midnightblue" d="M778.643,-125.437C806.136,-133.769 865.889,-151.876 901.23,-162.585"/>
<polygon fill="midnightblue" stroke="midnightblue" points="900.343,-165.973 910.928,-165.524 902.373,-159.274 900.343,-165.973"/>
</g>
<!-- Node42 -->
<g id="node87" class="node"><title>Node42</title>
<a xlink:href="cvm-hfa-pp_8c.html#adcc1149c628372e2e566c246870929cb" target="_top" xlink:title="infoentry">
<polygon fill="white" stroke="red" points="899.5,-120.5 899.5,-141.5 958.5,-141.5 958.5,-120.5 899.5,-120.5"/>
<text text-anchor="middle" x="929" y="-128.5" font-family="FreeSans" font-size="10.00">infoentry</text>
</a>
</g>
<!-- Node39&#45;&gt;Node42 -->
<g id="edge90" class="edge"><title>Node39&#45;&gt;Node42</title>
<path fill="none" stroke="midnightblue" d="M778.643,-121.887C803.193,-123.375 853.466,-126.422 889.111,-128.582"/>
<polygon fill="midnightblue" stroke="midnightblue" points="889.007,-132.083 899.2,-129.194 889.43,-125.095 889.007,-132.083"/>
</g>
<!-- Node43 -->
<g id="node89" class="node"><title>Node43</title>
<a xlink:href="cvm-hfa-res_8c.html#a6c56aa24fa6551b23e4283ae2d5bcad8" target="_top" xlink:title="Rreport1">
<polygon fill="white" stroke="red" points="900.5,-80.5 900.5,-101.5 957.5,-101.5 957.5,-80.5 900.5,-80.5"/>
<text text-anchor="middle" x="929" y="-88.5" font-family="FreeSans" font-size="10.00">Rreport1</text>
</a>
</g>
<!-- Node39&#45;&gt;Node43 -->
<g id="edge92" class="edge"><title>Node39&#45;&gt;Node43</title>
<path fill="none" stroke="midnightblue" d="M778.643,-118.338C803.48,-113.822 854.645,-104.519 890.356,-98.0263"/>
<polygon fill="midnightblue" stroke="midnightblue" points="891.226,-101.425 900.439,-96.193 889.974,-94.5383 891.226,-101.425"/>
</g>
<!-- Node44 -->
<g id="node91" class="node"><title>Node44</title>
<a xlink:href="cvm-hfa-res_8c.html#a38aa04fce135199ec3bb8726da163846" target="_top" xlink:title="Rfinish">
<polygon fill="white" stroke="black" points="905,-40.5 905,-61.5 953,-61.5 953,-40.5 905,-40.5"/>
<text text-anchor="middle" x="929" y="-48.5" font-family="FreeSans" font-size="10.00">Rfinish</text>
</a>
</g>
<!-- Node39&#45;&gt;Node44 -->
<g id="edge94" class="edge"><title>Node39&#45;&gt;Node44</title>
<path fill="none" stroke="midnightblue" d="M778.554,-118.343C792.379,-115.422 813.454,-109.921 830,-101 848.332,-91.1158 847.733,-81.0047 866,-71 874.964,-66.0906 885.316,-62.1764 895.005,-59.1593"/>
<polygon fill="midnightblue" stroke="midnightblue" points="896.141,-62.4742 904.777,-56.3356 894.198,-55.7494 896.141,-62.4742"/>
</g>
<!-- Node46 -->
<g id="node95" class="node"><title>Node46</title>
<a xlink:href="cvm-hfa-search_8c.html#a0ac0bca99358ad294a18f86696acf218" target="_top" xlink:title="This routine returns a match by parsing through the match buffer.">
<polygon fill="white" stroke="black" points="720,-70.5 720,-91.5 808,-91.5 808,-70.5 720,-70.5"/>
<text text-anchor="middle" x="764" y="-78.5" font-family="FreeSans" font-size="10.00">hfa_match_get</text>
</a>
</g>
<!-- Node45&#45;&gt;Node46 -->
<g id="edge98" class="edge"><title>Node45&#45;&gt;Node46</title>
<path fill="none" stroke="midnightblue" d="M648.256,-81C668.311,-81 690.364,-81 709.792,-81"/>
<polygon fill="midnightblue" stroke="midnightblue" points="709.986,-84.5001 719.986,-81 709.986,-77.5001 709.986,-84.5001"/>
</g>
<!-- Node47 -->
<g id="node97" class="node"><title>Node47</title>
<a xlink:href="cvm-hfa-search_8c.html#a543990bc2a5e1726298e5053391e3bf5" target="_top" xlink:title="This routine cleans&#45;up the match&#45;buffers allocated by hfa_searchctx_getmatches().">
<polygon fill="white" stroke="black" points="702.5,-20.5 702.5,-41.5 825.5,-41.5 825.5,-20.5 702.5,-20.5"/>
<text text-anchor="middle" x="764" y="-28.5" font-family="FreeSans" font-size="10.00">hfa_matches_cleanup</text>
</a>
</g>
<!-- Node45&#45;&gt;Node47 -->
<g id="edge100" class="edge"><title>Node45&#45;&gt;Node47</title>
<path fill="none" stroke="midnightblue" d="M627.079,-70.4204C638.411,-67.4391 650.697,-64.1488 662,-61 680.904,-55.7339 701.698,-49.6678 719.552,-44.3744"/>
<polygon fill="midnightblue" stroke="midnightblue" points="720.55,-47.729 729.137,-41.5231 718.554,-41.0195 720.55,-47.729"/>
</g>
<!-- Node48 -->
<g id="node99" class="node"><title>Node48</title>
<a xlink:href="cvm-hfa-res_8c.html#a78813e2d747c1d659277b705ebdffc50" target="_top" xlink:title="Rfree">
<polygon fill="white" stroke="black" points="908,-0.5 908,-21.5 950,-21.5 950,-0.5 908,-0.5"/>
<text text-anchor="middle" x="929" y="-8.5" font-family="FreeSans" font-size="10.00">Rfree</text>
</a>
</g>
<!-- Node47&#45;&gt;Node48 -->
<g id="edge102" class="edge"><title>Node47&#45;&gt;Node48</title>
<path fill="none" stroke="midnightblue" d="M825.909,-23.4958C850.404,-20.5268 877.485,-17.2443 897.742,-14.7889"/>
<polygon fill="midnightblue" stroke="midnightblue" points="898.442,-18.2297 907.948,-13.5517 897.6,-11.2806 898.442,-18.2297"/>
</g>
<!-- Node49&#45;&gt;Node29 -->
<g id="edge106" class="edge"><title>Node49&#45;&gt;Node29</title>
<path fill="none" stroke="midnightblue" d="M213.616,-188.565C231.474,-188.098 261.359,-187.315 291.391,-186.529"/>
<polygon fill="midnightblue" stroke="midnightblue" points="291.66,-190.023 301.564,-186.263 291.476,-183.026 291.66,-190.023"/>
</g>
<!-- Node49&#45;&gt;Node33 -->
<g id="edge108" class="edge"><title>Node49&#45;&gt;Node33</title>
<path fill="none" stroke="midnightblue" d="M213.724,-184.989C234.438,-180.029 270.809,-171.34 302,-164 313.541,-161.284 325.958,-158.384 337.669,-155.658"/>
<polygon fill="midnightblue" stroke="midnightblue" points="338.791,-158.991 347.738,-153.317 337.205,-152.173 338.791,-158.991"/>
</g>
</g>
</svg>
