<?xml version="1.0" encoding="UTF-8" standalone="no"?>
<!DOCTYPE svg PUBLIC "-//W3C//DTD SVG 1.1//EN"
 "http://www.w3.org/Graphics/SVG/1.1/DTD/svg11.dtd">
<!-- Generated by graphviz version 2.24.0 (20090616.2323)
 -->
<!-- Title: resubmit Pages: 1 -->
<svg width="486pt" height="110pt"
 viewBox="0.00 0.00 486.00 110.00" xmlns="http://www.w3.org/2000/svg" xmlns:xlink="http://www.w3.org/1999/xlink">
<g id="graph1" class="graph" transform="scale(1 1) rotate(0) translate(4 106)">
<title>resubmit</title>
<polygon fill="white" stroke="white" points="-4,5 -4,-106 483,-106 483,5 -4,5"/>
<!-- Node1 -->
<g id="node1" class="node"><title>Node1</title>
<polygon fill="#bfbfbf" stroke="black" points="0,-40.5 0,-61.5 58,-61.5 58,-40.5 0,-40.5"/>
<text text-anchor="middle" x="29" y="-48.5" font-family="FreeSans" font-size="10.00">resubmit</text>
</g>
<!-- Node2 -->
<g id="node3" class="node"><title>Node2</title>
<a xlink:href="hfa-se-ctx_8c.html#a07eb255c008c854386962d955ebe636e" target="_top" xlink:title="Send packet back or free packet data depending on wqe_status.">
<polygon fill="white" stroke="black" points="94,-40.5 94,-61.5 168,-61.5 168,-40.5 94,-40.5"/>
<text text-anchor="middle" x="131" y="-48.5" font-family="FreeSans" font-size="10.00">sendpktwqe</text>
</a>
</g>
<!-- Node1&#45;&gt;Node2 -->
<g id="edge2" class="edge"><title>Node1&#45;&gt;Node2</title>
<path fill="none" stroke="midnightblue" d="M68.4598,-51C76.7754,-51 85.523,-51 93.754,-51"/>
<polygon fill="midnightblue" stroke="midnightblue" points="68.2291,-47.5001 58.2291,-51 68.2291,-54.5001 68.2291,-47.5001"/>
</g>
<!-- Node3 -->
<g id="node5" class="node"><title>Node3</title>
<a xlink:href="hfa-se-ctx_8c.html#a064576c58038a1afa64cf8cb45271bf4" target="_top" xlink:title="Cleanup memory allocated for search parameters.">
<polygon fill="white" stroke="black" points="210.5,-60.5 210.5,-81.5 277.5,-81.5 277.5,-60.5 210.5,-60.5"/>
<text text-anchor="middle" x="244" y="-68.5" font-family="FreeSans" font-size="10.00">freeparam</text>
</a>
</g>
<!-- Node2&#45;&gt;Node3 -->
<g id="edge4" class="edge"><title>Node2&#45;&gt;Node3</title>
<path fill="none" stroke="midnightblue" d="M178.166,-59.3479C188.974,-61.2608 200.25,-63.2567 210.354,-65.045"/>
<polygon fill="midnightblue" stroke="midnightblue" points="178.457,-55.8452 168,-57.5487 177.237,-62.7381 178.457,-55.8452"/>
</g>
<!-- Node4 -->
<g id="node7" class="node"><title>Node4</title>
<a xlink:href="hfa-se-ctx_8c.html#aaf2d1bda55a80b5467e3ef350c514243" target="_top" xlink:title="Process search on recieved packet wqe.">
<polygon fill="white" stroke="black" points="204,-20.5 204,-41.5 284,-41.5 284,-20.5 204,-20.5"/>
<text text-anchor="middle" x="244" y="-28.5" font-family="FreeSans" font-size="10.00">process_wqe</text>
</a>
</g>
<!-- Node2&#45;&gt;Node4 -->
<g id="edge6" class="edge"><title>Node2&#45;&gt;Node4</title>
<path fill="none" stroke="midnightblue" d="M177.907,-42.6979C186.508,-41.1756 195.414,-39.5992 203.797,-38.1155"/>
<polygon fill="midnightblue" stroke="midnightblue" points="177.237,-39.2619 168,-44.4513 178.457,-46.1548 177.237,-39.2619"/>
</g>
<!-- Node5 -->
<g id="node9" class="node"><title>Node5</title>
<a xlink:href="hfa-se-ctx_8c.html#ac6740f043d197065a62fbd0570b4f735" target="_top" xlink:title="Do asynchrounous get work operation then pre&#45;fetch recieved wqe and process search on recieved packet...">
<polygon fill="white" stroke="black" points="323,-40.5 323,-61.5 397,-61.5 397,-40.5 323,-40.5"/>
<text text-anchor="middle" x="360" y="-48.5" font-family="FreeSans" font-size="10.00">process_pkt</text>
</a>
</g>
<!-- Node4&#45;&gt;Node5 -->
<g id="edge8" class="edge"><title>Node4&#45;&gt;Node5</title>
<path fill="none" stroke="midnightblue" d="M294.162,-39.6486C303.825,-41.3146 313.783,-43.0316 322.938,-44.61"/>
<polygon fill="midnightblue" stroke="midnightblue" points="294.695,-36.1889 284.246,-37.9389 293.506,-43.0872 294.695,-36.1889"/>
</g>
<!-- Node8 -->
<g id="node15" class="node"><title>Node8</title>
<a xlink:href="hfa-se-wqe-lock_8c.html#a06b5fcfab0e1d5eb36b633ec080ad7f9" target="_top" xlink:title="Process search for given contexts.">
<polygon fill="white" stroke="black" points="320,-0.5 320,-21.5 400,-21.5 400,-0.5 320,-0.5"/>
<text text-anchor="middle" x="360" y="-8.5" font-family="FreeSans" font-size="10.00">process_nctx</text>
</a>
</g>
<!-- Node4&#45;&gt;Node8 -->
<g id="edge14" class="edge"><title>Node4&#45;&gt;Node8</title>
<path fill="none" stroke="midnightblue" d="M294.162,-22.3514C302.74,-20.8724 311.551,-19.3533 319.826,-17.9266"/>
<polygon fill="midnightblue" stroke="midnightblue" points="293.506,-18.9128 284.246,-24.0611 294.695,-25.8111 293.506,-18.9128"/>
</g>
<!-- Node6 -->
<g id="node11" class="node"><title>Node6</title>
<a xlink:href="hfa-lnx-ctx_8c.html#a78ffddbcd7cdd164889cfb53ea367886" target="_top" xlink:title="entry">
<polygon fill="white" stroke="black" points="436.5,-80.5 436.5,-101.5 477.5,-101.5 477.5,-80.5 436.5,-80.5"/>
<text text-anchor="middle" x="457" y="-88.5" font-family="FreeSans" font-size="10.00">entry</text>
</a>
</g>
<!-- Node5&#45;&gt;Node6 -->
<g id="edge10" class="edge"><title>Node5&#45;&gt;Node6</title>
<path fill="none" stroke="midnightblue" d="M394.776,-65.3406C408.663,-71.0674 424.187,-77.4687 436.254,-82.4451"/>
<polygon fill="midnightblue" stroke="midnightblue" points="396.065,-62.0862 385.486,-61.5095 393.396,-68.5576 396.065,-62.0862"/>
</g>
<!-- Node7 -->
<g id="node13" class="node"><title>Node7</title>
<a xlink:href="hfa-se-ctx_8c.html#a3c04138a5bfe5d72780bb7e82a18e627" target="_top" xlink:title="main">
<polygon fill="white" stroke="black" points="437,-40.5 437,-61.5 477,-61.5 477,-40.5 437,-40.5"/>
<text text-anchor="middle" x="457" y="-48.5" font-family="FreeSans" font-size="10.00">main</text>
</a>
</g>
<!-- Node5&#45;&gt;Node7 -->
<g id="edge12" class="edge"><title>Node5&#45;&gt;Node7</title>
<path fill="none" stroke="midnightblue" d="M407.483,-51C417.832,-51 428.242,-51 436.828,-51"/>
<polygon fill="midnightblue" stroke="midnightblue" points="407.225,-47.5001 397.225,-51 407.225,-54.5001 407.225,-47.5001"/>
</g>
<!-- Node9 -->
<g id="node17" class="node"><title>Node9</title>
<a xlink:href="hfa-se-wqe-lock_8c.html#a3c04138a5bfe5d72780bb7e82a18e627" target="_top" xlink:title="main">
<polygon fill="white" stroke="black" points="437,-0.5 437,-21.5 477,-21.5 477,-0.5 437,-0.5"/>
<text text-anchor="middle" x="457" y="-8.5" font-family="FreeSans" font-size="10.00">main</text>
</a>
</g>
<!-- Node8&#45;&gt;Node9 -->
<g id="edge16" class="edge"><title>Node8&#45;&gt;Node9</title>
<path fill="none" stroke="midnightblue" d="M410.263,-11C419.739,-11 429.125,-11 436.971,-11"/>
<polygon fill="midnightblue" stroke="midnightblue" points="410.014,-7.5001 400.014,-11 410.014,-14.5001 410.014,-7.5001"/>
</g>
</g>
</svg>
