<?xml version="1.0" encoding="UTF-8" standalone="no"?>
<!DOCTYPE svg PUBLIC "-//W3C//DTD SVG 1.1//EN"
 "http://www.w3.org/Graphics/SVG/1.1/DTD/svg11.dtd">
<!-- Generated by graphviz version 2.24.0 (20090616.2323)
 -->
<!-- Title: cleanup Pages: 1 -->
<svg width="770pt" height="640pt"
 viewBox="0.00 0.00 770.00 640.00" xmlns="http://www.w3.org/2000/svg" xmlns:xlink="http://www.w3.org/1999/xlink">
<g id="graph1" class="graph" transform="scale(1 1) rotate(0) translate(4 636)">
<title>cleanup</title>
<polygon fill="white" stroke="white" points="-4,5 -4,-636 767,-636 767,5 -4,5"/>
<!-- Node1 -->
<g id="node1" class="node"><title>Node1</title>
<polygon fill="#bfbfbf" stroke="black" points="0,-331.5 0,-352.5 54,-352.5 54,-331.5 0,-331.5"/>
<text text-anchor="middle" x="27" y="-339.5" font-family="FreeSans" font-size="10.00">cleanup</text>
</g>
<!-- Node2 -->
<g id="node3" class="node"><title>Node2</title>
<a xlink:href="hfa-lnx-nctx-lock_8c.html#a524accbd3a8024ee7cc3254698dbd8e3" target="_top" xlink:title="Parse through global linked list and cleanup each search node.">
<polygon fill="white" stroke="black" points="111.5,-466.5 111.5,-487.5 200.5,-487.5 200.5,-466.5 111.5,-466.5"/>
<text text-anchor="middle" x="156" y="-474.5" font-family="FreeSans" font-size="10.00">snode_cleanup</text>
</a>
</g>
<!-- Node1&#45;&gt;Node2 -->
<g id="edge2" class="edge"><title>Node1&#45;&gt;Node2</title>
<path fill="none" stroke="midnightblue" d="M37.1224,-352.593C59.1647,-375.661 111.708,-430.648 138.956,-459.164"/>
<polygon fill="midnightblue" stroke="midnightblue" points="136.486,-461.644 145.925,-466.456 141.546,-456.808 136.486,-461.644"/>
</g>
<!-- Node12 -->
<g id="node23" class="node"><title>Node12</title>
<a xlink:href="cvm-hfa-graph_8c.html#aa4ce7845277b4b3099159bbd7afd5c08" target="_top" xlink:title="This routine is used to cacheunload a cacheload&#39;ed graph in a non&#45;blocking manner.">
<polygon fill="white" stroke="black" points="90,-301.5 90,-322.5 222,-322.5 222,-301.5 90,-301.5"/>
<text text-anchor="middle" x="156" y="-309.5" font-family="FreeSans" font-size="10.00">hfa_graph_cacheunload</text>
</a>
</g>
<!-- Node1&#45;&gt;Node12 -->
<g id="edge22" class="edge"><title>Node1&#45;&gt;Node12</title>
<path fill="none" stroke="midnightblue" d="M54.0426,-335.711C67.6251,-332.552 84.599,-328.605 100.778,-324.842"/>
<polygon fill="midnightblue" stroke="midnightblue" points="101.763,-328.207 110.711,-322.532 100.178,-321.389 101.763,-328.207"/>
</g>
<!-- Node30 -->
<g id="node59" class="node"><title>Node30</title>
<a xlink:href="cvm-hfa-graph_8c.html#a5e79919f5903d97aee5e82bfc7e71597" target="_top" xlink:title="This routine is the counterpart of hfa_dev_graph_init().">
<polygon fill="white" stroke="black" points="90,-261.5 90,-282.5 222,-282.5 222,-261.5 90,-261.5"/>
<text text-anchor="middle" x="156" y="-269.5" font-family="FreeSans" font-size="10.00">hfa_dev_graph_cleanup</text>
</a>
</g>
<!-- Node1&#45;&gt;Node30 -->
<g id="edge58" class="edge"><title>Node1&#45;&gt;Node30</title>
<path fill="none" stroke="midnightblue" d="M37.7017,-331.386C49.5646,-320.158 69.7146,-302.627 90,-292 94.2191,-289.79 98.7207,-287.784 103.315,-285.971"/>
<polygon fill="midnightblue" stroke="midnightblue" points="104.611,-289.224 112.815,-282.52 102.221,-282.645 104.611,-289.224"/>
</g>
<!-- Node31 -->
<g id="node61" class="node"><title>Node31</title>
<a xlink:href="cvm-hfa_8c.html#af14bebdd444bd0bf92faac9d5d88b492" target="_top" xlink:title="This function is called by application to cleanup all resources configured for HFA device and then sh...">
<polygon fill="white" stroke="black" points="106.5,-362.5 106.5,-383.5 205.5,-383.5 205.5,-362.5 106.5,-362.5"/>
<text text-anchor="middle" x="156" y="-370.5" font-family="FreeSans" font-size="10.00">hfa_dev_cleanup</text>
</a>
</g>
<!-- Node1&#45;&gt;Node31 -->
<g id="edge60" class="edge"><title>Node1&#45;&gt;Node31</title>
<path fill="none" stroke="midnightblue" d="M54.0426,-348.499C67.9922,-351.851 85.519,-356.063 102.087,-360.044"/>
<polygon fill="midnightblue" stroke="midnightblue" points="101.698,-363.55 112.239,-362.484 103.334,-356.744 101.698,-363.55"/>
</g>
<!-- Node3 -->
<g id="node5" class="node"><title>Node3</title>
<a xlink:href="cvm-hfa-search_8c.html#a30064f173d814bd3791b59d675c2f45f" target="_top" xlink:title="This routine cleans&#45;up a Search Context.">
<polygon fill="white" stroke="black" points="258,-530.5 258,-551.5 410,-551.5 410,-530.5 258,-530.5"/>
<text text-anchor="middle" x="334" y="-538.5" font-family="FreeSans" font-size="10.00">hfa_dev_searchctx_cleanup</text>
</a>
</g>
<!-- Node2&#45;&gt;Node3 -->
<g id="edge4" class="edge"><title>Node2&#45;&gt;Node3</title>
<path fill="none" stroke="midnightblue" d="M185.393,-487.568C215.282,-498.315 261.769,-515.029 294.783,-526.9"/>
<polygon fill="midnightblue" stroke="midnightblue" points="293.969,-530.326 304.563,-530.416 296.337,-523.739 293.969,-530.326"/>
</g>
<!-- Node4 -->
<g id="node7" class="node"><title>Node4</title>
<a xlink:href="cvm-hfa-pp_8c.html#add6064138ec2e35741929056a0992d8d" target="_top" xlink:title="ppgetstats">
<polygon fill="white" stroke="black" points="487,-610.5 487,-631.5 553,-631.5 553,-610.5 487,-610.5"/>
<text text-anchor="middle" x="520" y="-618.5" font-family="FreeSans" font-size="10.00">ppgetstats</text>
</a>
</g>
<!-- Node3&#45;&gt;Node4 -->
<g id="edge6" class="edge"><title>Node3&#45;&gt;Node4</title>
<path fill="none" stroke="midnightblue" d="M350.872,-551.619C372.299,-564.728 410.736,-587.001 446,-601 455.741,-604.867 466.491,-608.247 476.708,-611.074"/>
<polygon fill="midnightblue" stroke="midnightblue" points="476.128,-614.541 486.691,-613.715 477.918,-607.774 476.128,-614.541"/>
</g>
<!-- Node6 -->
<g id="node11" class="node"><title>Node6</title>
<a xlink:href="cvm-hfa-pp_8c.html#a57ec655c9bdb6ce63ada6767c7e14763" target="_top" xlink:title="ppcleanstats">
<polygon fill="white" stroke="black" points="481.5,-570.5 481.5,-591.5 558.5,-591.5 558.5,-570.5 481.5,-570.5"/>
<text text-anchor="middle" x="520" y="-578.5" font-family="FreeSans" font-size="10.00">ppcleanstats</text>
</a>
</g>
<!-- Node3&#45;&gt;Node6 -->
<g id="edge10" class="edge"><title>Node3&#45;&gt;Node6</title>
<path fill="none" stroke="midnightblue" d="M382.869,-551.51C410.165,-557.38 444.064,-564.67 471.329,-570.533"/>
<polygon fill="midnightblue" stroke="midnightblue" points="470.913,-574.024 481.425,-572.704 472.385,-567.18 470.913,-574.024"/>
</g>
<!-- Node8 -->
<g id="node15" class="node"><title>Node8</title>
<a xlink:href="cvm-hfa-pp_8c.html#a41ce9d3103c639e474783d3843e09071" target="_top" xlink:title="ppcleanup">
<polygon fill="white" stroke="black" points="487,-530.5 487,-551.5 553,-551.5 553,-530.5 487,-530.5"/>
<text text-anchor="middle" x="520" y="-538.5" font-family="FreeSans" font-size="10.00">ppcleanup</text>
</a>
</g>
<!-- Node3&#45;&gt;Node8 -->
<g id="edge14" class="edge"><title>Node3&#45;&gt;Node8</title>
<path fill="none" stroke="midnightblue" d="M410.19,-541C432.811,-541 456.804,-541 476.574,-541"/>
<polygon fill="midnightblue" stroke="midnightblue" points="476.792,-544.5 486.792,-541 476.792,-537.5 476.792,-544.5"/>
</g>
<!-- Node10 -->
<g id="node19" class="node"><title>Node10</title>
<a xlink:href="cvm-hfa-stats_8c.html#a2df4c76e04e7b028ed2df4bba1b2de3d" target="_top" xlink:title="This routine is the counterpart of hfa_searchctx_init_stats().">
<polygon fill="white" stroke="black" points="463.5,-478 463.5,-512 576.5,-512 576.5,-478 463.5,-478"/>
<text text-anchor="start" x="471.5" y="-499" font-family="FreeSans" font-size="10.00">hfa_searchctx_stats</text>
<text text-anchor="middle" x="520" y="-486" font-family="FreeSans" font-size="10.00">_cleanup</text>
</a>
</g>
<!-- Node3&#45;&gt;Node10 -->
<g id="edge18" class="edge"><title>Node3&#45;&gt;Node10</title>
<path fill="none" stroke="midnightblue" d="M376.672,-530.447C399.396,-524.827 427.857,-517.788 453.416,-511.467"/>
<polygon fill="midnightblue" stroke="midnightblue" points="454.553,-514.791 463.42,-508.993 452.873,-507.996 454.553,-514.791"/>
</g>
<!-- Node5 -->
<g id="node9" class="node"><title>Node5</title>
<a xlink:href="pp_8h.html#a808d5057ee5670ce724a6a88fc22b799" target="_top" xlink:title="pphfa_getstats">
<polygon fill="white" stroke="black" points="652.5,-610.5 652.5,-631.5 739.5,-631.5 739.5,-610.5 652.5,-610.5"/>
<text text-anchor="middle" x="696" y="-618.5" font-family="FreeSans" font-size="10.00">pphfa_getstats</text>
</a>
</g>
<!-- Node4&#45;&gt;Node5 -->
<g id="edge8" class="edge"><title>Node4&#45;&gt;Node5</title>
<path fill="none" stroke="midnightblue" d="M553.104,-621C578.223,-621 613.277,-621 642.38,-621"/>
<polygon fill="midnightblue" stroke="midnightblue" points="642.399,-624.5 652.399,-621 642.399,-617.5 642.399,-624.5"/>
</g>
<!-- Node7 -->
<g id="node13" class="node"><title>Node7</title>
<a xlink:href="pp_8h.html#a978b171bd7a736cb7fa0d5d034aa94e2" target="_top" xlink:title="pphfa_cleanstats">
<polygon fill="white" stroke="black" points="647,-570.5 647,-591.5 745,-591.5 745,-570.5 647,-570.5"/>
<text text-anchor="middle" x="696" y="-578.5" font-family="FreeSans" font-size="10.00">pphfa_cleanstats</text>
</a>
</g>
<!-- Node6&#45;&gt;Node7 -->
<g id="edge12" class="edge"><title>Node6&#45;&gt;Node7</title>
<path fill="none" stroke="midnightblue" d="M558.624,-581C581.493,-581 610.939,-581 636.7,-581"/>
<polygon fill="midnightblue" stroke="midnightblue" points="636.74,-584.5 646.74,-581 636.74,-577.5 636.74,-584.5"/>
</g>
<!-- Node9 -->
<g id="node17" class="node"><title>Node9</title>
<a xlink:href="pp_8h.html#a428ad073d1fd72da37ab8b00f13693a3" target="_top" xlink:title="pphfa_cleanup">
<polygon fill="white" stroke="black" points="652.5,-530.5 652.5,-551.5 739.5,-551.5 739.5,-530.5 652.5,-530.5"/>
<text text-anchor="middle" x="696" y="-538.5" font-family="FreeSans" font-size="10.00">pphfa_cleanup</text>
</a>
</g>
<!-- Node8&#45;&gt;Node9 -->
<g id="edge16" class="edge"><title>Node8&#45;&gt;Node9</title>
<path fill="none" stroke="midnightblue" d="M553.104,-541C578.223,-541 613.277,-541 642.38,-541"/>
<polygon fill="midnightblue" stroke="midnightblue" points="642.399,-544.5 652.399,-541 642.399,-537.5 642.399,-544.5"/>
</g>
<!-- Node11 -->
<g id="node21" class="node"><title>Node11</title>
<a xlink:href="cvm-hfa-stats_8c.html#a7a2acbe48c3850d43256938ee996aa16" target="_top" xlink:title="This routine frees memory to STATS ARENA.">
<polygon fill="white" stroke="black" points="633.5,-461.5 633.5,-482.5 758.5,-482.5 758.5,-461.5 633.5,-461.5"/>
<text text-anchor="middle" x="696" y="-469.5" font-family="FreeSans" font-size="10.00">hfa_stats_memoryfree</text>
</a>
</g>
<!-- Node10&#45;&gt;Node11 -->
<g id="edge20" class="edge"><title>Node10&#45;&gt;Node11</title>
<path fill="none" stroke="midnightblue" d="M576.656,-487.596C591.494,-485.657 607.7,-483.539 623.25,-481.507"/>
<polygon fill="midnightblue" stroke="midnightblue" points="623.891,-484.953 633.353,-480.187 622.983,-478.012 623.891,-484.953"/>
</g>
<!-- Node13 -->
<g id="node25" class="node"><title>Node13</title>
<a xlink:href="cvm-hfa-graph_8c.html#afb63ce4f42afc7987e6222b1c1ea91a1" target="_top" xlink:title="This routine is used to cacheunload a cacheload&#39;ed graph in a non&#45;blocking manner.">
<polygon fill="white" stroke="black" points="268,-274 268,-308 400,-308 400,-274 268,-274"/>
<text text-anchor="start" x="276" y="-295" font-family="FreeSans" font-size="10.00">hfa_graph_cacheunload</text>
<text text-anchor="middle" x="334" y="-282" font-family="FreeSans" font-size="10.00">_async</text>
</a>
</g>
<!-- Node12&#45;&gt;Node13 -->
<g id="edge24" class="edge"><title>Node12&#45;&gt;Node13</title>
<path fill="none" stroke="midnightblue" d="M222.028,-304.21C233.583,-302.847 245.692,-301.418 257.502,-300.025"/>
<polygon fill="midnightblue" stroke="midnightblue" points="258.261,-303.46 267.782,-298.812 257.441,-296.508 258.261,-303.46"/>
</g>
<!-- Node23 -->
<g id="node45" class="node"><title>Node23</title>
<a xlink:href="cvm-hfa-graph_8c.html#a0f2f13fb51e5d56dcf049ff3c7c6ad78" target="_top" xlink:title="This routine is used to check the status of the graph.">
<polygon fill="white" stroke="black" points="277,-60.5 277,-81.5 391,-81.5 391,-60.5 277,-60.5"/>
<text text-anchor="middle" x="334" y="-68.5" font-family="FreeSans" font-size="10.00">hfa_graph_getstatus</text>
</a>
</g>
<!-- Node12&#45;&gt;Node23 -->
<g id="edge44" class="edge"><title>Node12&#45;&gt;Node23</title>
<path fill="none" stroke="midnightblue" d="M206.521,-301.464C212.101,-298.955 217.414,-295.847 222,-292 287.179,-237.325 318.497,-135.219 329.37,-91.6064"/>
<polygon fill="midnightblue" stroke="midnightblue" points="332.837,-92.156 331.754,-81.6167 326.028,-90.5313 332.837,-92.156"/>
</g>
<!-- Node14 -->
<g id="node27" class="node"><title>Node14</title>
<a xlink:href="cvm-hfa-instr_8h.html#acaf8def6cbffb04c100bf7f7684f242e" target="_top" xlink:title="Initialize the HFA instruction.">
<polygon fill="white" stroke="black" points="468.5,-400.5 468.5,-421.5 571.5,-421.5 571.5,-400.5 468.5,-400.5"/>
<text text-anchor="middle" x="520" y="-408.5" font-family="FreeSans" font-size="10.00">cvm_hfa_instr_init</text>
</a>
</g>
<!-- Node13&#45;&gt;Node14 -->
<g id="edge26" class="edge"><title>Node13&#45;&gt;Node14</title>
<path fill="none" stroke="midnightblue" d="M356.58,-308.183C372.041,-320.243 392.78,-337.011 410,-353 427.048,-368.83 426.024,-379.075 446,-391 450.071,-393.43 454.442,-395.571 458.95,-397.457"/>
<polygon fill="midnightblue" stroke="midnightblue" points="457.754,-400.746 468.346,-400.979 460.211,-394.191 457.754,-400.746"/>
</g>
<!-- Node15 -->
<g id="node29" class="node"><title>Node15</title>
<a xlink:href="cvm-hfa-instr_8h.html#a2d6082e2e599fe8523162b18d0a06f6c" target="_top" xlink:title="Sets rptr in the instruction.">
<polygon fill="white" stroke="black" points="460,-360.5 460,-381.5 580,-381.5 580,-360.5 460,-360.5"/>
<text text-anchor="middle" x="520" y="-368.5" font-family="FreeSans" font-size="10.00">cvm_hfa_instr_setrptr</text>
</a>
</g>
<!-- Node13&#45;&gt;Node15 -->
<g id="edge28" class="edge"><title>Node13&#45;&gt;Node15</title>
<path fill="none" stroke="midnightblue" d="M361.685,-308.132C383.847,-321.273 416.066,-339.117 446,-351 451.926,-353.352 458.225,-355.525 464.55,-357.502"/>
<polygon fill="midnightblue" stroke="midnightblue" points="463.88,-360.954 474.462,-360.446 465.873,-354.243 463.88,-360.954"/>
</g>
<!-- Node16 -->
<g id="node31" class="node"><title>Node16</title>
<a xlink:href="cvm-hfa-instr_8h.html#a6960a0761295ada9f449ea5e8c41ec80" target="_top" xlink:title="Sets clmsk in the instruction.">
<polygon fill="white" stroke="black" points="454,-320.5 454,-341.5 586,-341.5 586,-320.5 454,-320.5"/>
<text text-anchor="middle" x="520" y="-328.5" font-family="FreeSans" font-size="10.00">cvm_hfa_instr_setclmsk</text>
</a>
</g>
<!-- Node13&#45;&gt;Node16 -->
<g id="edge30" class="edge"><title>Node13&#45;&gt;Node16</title>
<path fill="none" stroke="midnightblue" d="M400.1,-305.215C420.018,-309.498 441.737,-314.169 461.15,-318.344"/>
<polygon fill="midnightblue" stroke="midnightblue" points="460.558,-321.797 471.07,-320.477 462.029,-314.953 460.558,-321.797"/>
</g>
<!-- Node17 -->
<g id="node33" class="node"><title>Node17</title>
<a xlink:href="cvm-hfa-instr_8h.html#add4e981377a02cd06e2bca116e584bca" target="_top" xlink:title="Sets vgid in the instruction.">
<polygon fill="white" stroke="black" points="458,-280.5 458,-301.5 582,-301.5 582,-280.5 458,-280.5"/>
<text text-anchor="middle" x="520" y="-288.5" font-family="FreeSans" font-size="10.00">cvm_hfa_instr_setvgid</text>
</a>
</g>
<!-- Node13&#45;&gt;Node17 -->
<g id="edge32" class="edge"><title>Node13&#45;&gt;Node17</title>
<path fill="none" stroke="midnightblue" d="M400.1,-291C415.518,-291 432.015,-291 447.687,-291"/>
<polygon fill="midnightblue" stroke="midnightblue" points="447.847,-294.5 457.847,-291 447.846,-287.5 447.847,-294.5"/>
</g>
<!-- Node18 -->
<g id="node35" class="node"><title>Node18</title>
<a xlink:href="cvm-hfa-common_8h.html#a0da7c57174fb96d75ae9cc2ed3116a05" target="_top" xlink:title="Dump buffer pointed by &quot;buf&quot; in readable format.">
<polygon fill="white" stroke="black" points="477,-240.5 477,-261.5 563,-261.5 563,-240.5 477,-240.5"/>
<text text-anchor="middle" x="520" y="-248.5" font-family="FreeSans" font-size="10.00">hfa_dump_buf</text>
</a>
</g>
<!-- Node13&#45;&gt;Node18 -->
<g id="edge34" class="edge"><title>Node13&#45;&gt;Node18</title>
<path fill="none" stroke="midnightblue" d="M400.1,-276.785C421.995,-272.076 446.067,-266.9 466.86,-262.428"/>
<polygon fill="midnightblue" stroke="midnightblue" points="467.739,-265.819 476.78,-260.295 466.267,-258.975 467.739,-265.819"/>
</g>
<!-- Node19 -->
<g id="node37" class="node"><title>Node19</title>
<a xlink:href="cvm-hfa-instr_8h.html#a88a92a987acac81360f3b880d013cd10" target="_top" xlink:title="Sets wqptr instruction.">
<polygon fill="white" stroke="black" points="454.5,-200.5 454.5,-221.5 585.5,-221.5 585.5,-200.5 454.5,-200.5"/>
<text text-anchor="middle" x="520" y="-208.5" font-family="FreeSans" font-size="10.00">cvm_hfa_instr_setwqptr</text>
</a>
</g>
<!-- Node13&#45;&gt;Node19 -->
<g id="edge36" class="edge"><title>Node13&#45;&gt;Node19</title>
<path fill="none" stroke="midnightblue" d="M361.685,-273.868C383.847,-260.727 416.066,-242.883 446,-231 451.926,-228.648 458.225,-226.475 464.55,-224.498"/>
<polygon fill="midnightblue" stroke="midnightblue" points="465.873,-227.757 474.462,-221.554 463.88,-221.046 465.873,-227.757"/>
</g>
<!-- Node20 -->
<g id="node39" class="node"><title>Node20</title>
<a xlink:href="cvm-hfa-graph_8c.html#a1320f0566be0069bd604cc820a12a114" target="_top" xlink:title="This routine sets WQE field in graph data structure.">
<polygon fill="white" stroke="black" points="467.5,-160.5 467.5,-181.5 572.5,-181.5 572.5,-160.5 467.5,-160.5"/>
<text text-anchor="middle" x="520" y="-168.5" font-family="FreeSans" font-size="10.00">hfa_graph_setwqe</text>
</a>
</g>
<!-- Node13&#45;&gt;Node20 -->
<g id="edge38" class="edge"><title>Node13&#45;&gt;Node20</title>
<path fill="none" stroke="midnightblue" d="M348.495,-273.827C368.279,-251.479 405.889,-212.726 446,-191 450.169,-188.742 454.61,-186.725 459.168,-184.926"/>
<polygon fill="midnightblue" stroke="midnightblue" points="460.404,-188.201 468.636,-181.531 458.042,-181.612 460.404,-188.201"/>
</g>
<!-- Node21 -->
<g id="node41" class="node"><title>Node21</title>
<a xlink:href="cvm-hfa_8c.html#a4677d07b901d6aeb02e793c1dbdfabbf" target="_top" xlink:title="Asynchronous instruction submit to HFA hardware Do not wait for instruction to complete.">
<polygon fill="white" stroke="black" points="459,-120.5 459,-141.5 581,-141.5 581,-120.5 459,-120.5"/>
<text text-anchor="middle" x="520" y="-128.5" font-family="FreeSans" font-size="10.00">hfa_dev_submitasync</text>
</a>
</g>
<!-- Node13&#45;&gt;Node21 -->
<g id="edge40" class="edge"><title>Node13&#45;&gt;Node21</title>
<path fill="none" stroke="midnightblue" d="M342.888,-273.876C359.196,-244.184 396.792,-183.24 446,-151 449.075,-148.985 452.348,-147.172 455.741,-145.541"/>
<polygon fill="midnightblue" stroke="midnightblue" points="457.108,-148.763 464.947,-141.635 454.374,-142.319 457.108,-148.763"/>
</g>
<!-- Node22 -->
<g id="node43" class="node"><title>Node22</title>
<a xlink:href="cvmx-hfa_8c.html#a96a123c8918e83cdf914f6de1bfb4f00" target="_top" xlink:title="Submit a command to the DFA block.">
<polygon fill="white" stroke="black" points="645,-120.5 645,-141.5 747,-141.5 747,-120.5 645,-120.5"/>
<text text-anchor="middle" x="696" y="-128.5" font-family="FreeSans" font-size="10.00">cvmx_hfa_submit</text>
</a>
</g>
<!-- Node21&#45;&gt;Node22 -->
<g id="edge42" class="edge"><title>Node21&#45;&gt;Node22</title>
<path fill="none" stroke="midnightblue" d="M581.062,-131C598.491,-131 617.48,-131 634.911,-131"/>
<polygon fill="midnightblue" stroke="midnightblue" points="634.97,-134.5 644.97,-131 634.97,-127.5 634.97,-134.5"/>
</g>
<!-- Node24 -->
<g id="node47" class="node"><title>Node24</title>
<a xlink:href="cvm-hfa_8c.html#a4753d2dd586e19676b1a59dd16baaeed" target="_top" xlink:title="Obtain status of submitted insruction.">
<polygon fill="white" stroke="black" points="453.5,-80.5 453.5,-101.5 586.5,-101.5 586.5,-80.5 453.5,-80.5"/>
<text text-anchor="middle" x="520" y="-88.5" font-family="FreeSans" font-size="10.00">hfa_dev_getasyncstatus</text>
</a>
</g>
<!-- Node23&#45;&gt;Node24 -->
<g id="edge46" class="edge"><title>Node23&#45;&gt;Node24</title>
<path fill="none" stroke="midnightblue" d="M391.07,-77.1366C407.496,-78.9027 425.688,-80.8589 443.103,-82.7315"/>
<polygon fill="midnightblue" stroke="midnightblue" points="442.931,-86.2331 453.248,-83.8224 443.679,-79.2732 442.931,-86.2331"/>
</g>
<!-- Node27 -->
<g id="node53" class="node"><title>Node27</title>
<a xlink:href="cvm-hfa-instr_8h.html#aa7b5661907cf23e01fe784a70980ed4b" target="_top" xlink:title="Gets itype from RWORD0.">
<polygon fill="white" stroke="black" points="459,-40.5 459,-61.5 581,-61.5 581,-40.5 459,-40.5"/>
<text text-anchor="middle" x="520" y="-48.5" font-family="FreeSans" font-size="10.00">cvm_hfa_rslt_getitype</text>
</a>
</g>
<!-- Node23&#45;&gt;Node27 -->
<g id="edge52" class="edge"><title>Node23&#45;&gt;Node27</title>
<path fill="none" stroke="midnightblue" d="M391.07,-64.8634C409.265,-62.907 429.627,-60.7175 448.7,-58.6667"/>
<polygon fill="midnightblue" stroke="midnightblue" points="449.27,-62.1256 458.839,-57.5765 448.522,-55.1658 449.27,-62.1256"/>
</g>
<!-- Node28 -->
<g id="node55" class="node"><title>Node28</title>
<a xlink:href="cvm-hfa-graph_8c.html#aa4c0667cc4f92a08c249041eb8a4ec58" target="_top" xlink:title="This routine is used to free the buffers and change the graph load status after instruction completio...">
<polygon fill="white" stroke="black" points="446.5,-0.5 446.5,-21.5 593.5,-21.5 593.5,-0.5 446.5,-0.5"/>
<text text-anchor="middle" x="520" y="-8.5" font-family="FreeSans" font-size="10.00">__hfa_graph_processstatus</text>
</a>
</g>
<!-- Node23&#45;&gt;Node28 -->
<g id="edge54" class="edge"><title>Node23&#45;&gt;Node28</title>
<path fill="none" stroke="midnightblue" d="M361.87,-60.3537C384.406,-51.9134 417.036,-40.0708 446,-31 453.412,-28.6789 461.29,-26.3767 469.036,-24.2054"/>
<polygon fill="midnightblue" stroke="midnightblue" points="470.023,-27.5642 478.734,-21.5335 468.163,-20.8157 470.023,-27.5642"/>
</g>
<!-- Node25 -->
<g id="node49" class="node"><title>Node25</title>
<a xlink:href="cvm-hfa-instr_8h.html#a56f2522dcba965745a1bc239fc432dca" target="_top" xlink:title="Gets done from RWORD0.">
<polygon fill="white" stroke="black" points="634.5,-80.5 634.5,-101.5 757.5,-101.5 757.5,-80.5 634.5,-80.5"/>
<text text-anchor="middle" x="696" y="-88.5" font-family="FreeSans" font-size="10.00">cvm_hfa_rslt_getdone</text>
</a>
</g>
<!-- Node24&#45;&gt;Node25 -->
<g id="edge48" class="edge"><title>Node24&#45;&gt;Node25</title>
<path fill="none" stroke="midnightblue" d="M586.538,-91C598.782,-91 611.616,-91 624.012,-91"/>
<polygon fill="midnightblue" stroke="midnightblue" points="624.299,-94.5001 634.299,-91 624.299,-87.5001 624.299,-94.5001"/>
</g>
<!-- Node26 -->
<g id="node51" class="node"><title>Node26</title>
<a xlink:href="cvm-hfa-instr_8h.html#a9700a50b68b6616506528eb725a8bda1" target="_top" xlink:title="Gets reason from RWORD0.">
<polygon fill="white" stroke="black" points="630.5,-40.5 630.5,-61.5 761.5,-61.5 761.5,-40.5 630.5,-40.5"/>
<text text-anchor="middle" x="696" y="-48.5" font-family="FreeSans" font-size="10.00">cvm_hfa_rslt_getreason</text>
</a>
</g>
<!-- Node24&#45;&gt;Node26 -->
<g id="edge50" class="edge"><title>Node24&#45;&gt;Node26</title>
<path fill="none" stroke="midnightblue" d="M566.242,-80.4905C588.788,-75.3663 616.096,-69.1601 639.832,-63.7655"/>
<polygon fill="midnightblue" stroke="midnightblue" points="640.786,-67.138 649.762,-61.5087 639.235,-60.312 640.786,-67.138"/>
</g>
<!-- Node29 -->
<g id="node57" class="node"><title>Node29</title>
<a xlink:href="cvm-hfa-cluster_8c.html#ad8cad96579f5a310b62caaf8c166658f" target="_top" xlink:title="Returns a copy of a cluster of the HFA device.">
<polygon fill="white" stroke="black" points="651,-0.5 651,-21.5 741,-21.5 741,-0.5 651,-0.5"/>
<text text-anchor="middle" x="696" y="-8.5" font-family="FreeSans" font-size="10.00">hfa_get_cluster</text>
</a>
</g>
<!-- Node28&#45;&gt;Node29 -->
<g id="edge56" class="edge"><title>Node28&#45;&gt;Node29</title>
<path fill="none" stroke="midnightblue" d="M593.62,-11C609.386,-11 625.785,-11 640.719,-11"/>
<polygon fill="midnightblue" stroke="midnightblue" points="640.797,-14.5001 650.797,-11 640.797,-7.5001 640.797,-14.5001"/>
</g>
<!-- Node32 -->
<g id="node63" class="node"><title>Node32</title>
<a xlink:href="cvm-hfa-stats_8c.html#ad6d5ab096d9d84d2b2f52bd551443592" target="_top" xlink:title="This routine is the counterpart of hfa_dev_init_stats().">
<polygon fill="white" stroke="black" points="271,-421.5 271,-442.5 397,-442.5 397,-421.5 271,-421.5"/>
<text text-anchor="middle" x="334" y="-429.5" font-family="FreeSans" font-size="10.00">hfa_dev_stats_cleanup</text>
</a>
</g>
<!-- Node31&#45;&gt;Node32 -->
<g id="edge62" class="edge"><title>Node31&#45;&gt;Node32</title>
<path fill="none" stroke="midnightblue" d="M187.823,-383.548C217.094,-393.25 260.675,-407.696 292.636,-418.289"/>
<polygon fill="midnightblue" stroke="midnightblue" points="291.56,-421.62 302.153,-421.444 293.762,-414.975 291.56,-421.62"/>
</g>
<!-- Node33 -->
<g id="node66" class="node"><title>Node33</title>
<a xlink:href="cvm-hfa-stats_8c.html#a75504ae5d9797d314ee11704fc86cdb1" target="_top" xlink:title="This routine prints statistics of each core.">
<polygon fill="white" stroke="black" points="279.5,-362.5 279.5,-383.5 388.5,-383.5 388.5,-362.5 279.5,-362.5"/>
<text text-anchor="middle" x="334" y="-370.5" font-family="FreeSans" font-size="10.00">hfa_dev_stats_print</text>
</a>
</g>
<!-- Node31&#45;&gt;Node33 -->
<g id="edge66" class="edge"><title>Node31&#45;&gt;Node33</title>
<path fill="none" stroke="midnightblue" d="M205.583,-373C225.297,-373 248.244,-373 269.242,-373"/>
<polygon fill="midnightblue" stroke="midnightblue" points="269.371,-376.5 279.371,-373 269.371,-369.5 269.371,-376.5"/>
</g>
<!-- Node32&#45;&gt;Node11 -->
<g id="edge64" class="edge"><title>Node32&#45;&gt;Node11</title>
<path fill="none" stroke="midnightblue" d="M397.056,-438.967C460.158,-445.94 557.135,-456.656 623.409,-463.979"/>
<polygon fill="midnightblue" stroke="midnightblue" points="623.04,-467.459 633.364,-465.079 623.809,-460.502 623.04,-467.459"/>
</g>
</g>
</svg>
