<?xml version="1.0" encoding="UTF-8" standalone="no"?>
<!DOCTYPE svg PUBLIC "-//W3C//DTD SVG 1.1//EN"
 "http://www.w3.org/Graphics/SVG/1.1/DTD/svg11.dtd">
<!-- Generated by graphviz version 2.24.0 (20090616.2323)
 -->
<!-- Title: submit Pages: 1 -->
<svg width="264pt" height="70pt"
 viewBox="0.00 0.00 264.00 70.00" xmlns="http://www.w3.org/2000/svg" xmlns:xlink="http://www.w3.org/1999/xlink">
<g id="graph1" class="graph" transform="scale(1 1) rotate(0) translate(4 66)">
<title>submit</title>
<polygon fill="white" stroke="white" points="-4,5 -4,-66 261,-66 261,5 -4,5"/>
<!-- Node1 -->
<g id="node1" class="node"><title>Node1</title>
<polygon fill="#bfbfbf" stroke="black" points="0,-20.5 0,-41.5 48,-41.5 48,-20.5 0,-20.5"/>
<text text-anchor="middle" x="24" y="-28.5" font-family="FreeSans" font-size="10.00">submit</text>
</g>
<!-- Node2 -->
<g id="node3" class="node"><title>Node2</title>
<a xlink:href="hfa-se-flow_8c.html#aba72a61590283e37ffd78b4defd38220" target="_top" xlink:title="Receive network packets and process.">
<polygon fill="white" stroke="black" points="84,-40.5 84,-61.5 180,-61.5 180,-40.5 84,-40.5"/>
<text text-anchor="middle" x="132" y="-48.5" font-family="FreeSans" font-size="10.00">process_packets</text>
</a>
</g>
<!-- Node1&#45;&gt;Node2 -->
<g id="edge2" class="edge"><title>Node1&#45;&gt;Node2</title>
<path fill="none" stroke="midnightblue" d="M58.1698,-37.3277C66.3644,-38.8453 75.2666,-40.4938 83.9601,-42.1037"/>
<polygon fill="midnightblue" stroke="midnightblue" points="58.7075,-33.8679 48.2373,-35.4884 57.4328,-40.7509 58.7075,-33.8679"/>
</g>
<!-- Node4 -->
<g id="node7" class="node"><title>Node4</title>
<a xlink:href="hfa-se-nctx_8c.html#a3c04138a5bfe5d72780bb7e82a18e627" target="_top" xlink:title="main">
<polygon fill="white" stroke="black" points="112,-0.5 112,-21.5 152,-21.5 152,-0.5 112,-0.5"/>
<text text-anchor="middle" x="132" y="-8.5" font-family="FreeSans" font-size="10.00">main</text>
</a>
</g>
<!-- Node1&#45;&gt;Node4 -->
<g id="edge6" class="edge"><title>Node1&#45;&gt;Node4</title>
<path fill="none" stroke="midnightblue" d="M58.1826,-24.6699C75.8353,-21.4009 96.7685,-17.5243 111.827,-14.7358"/>
<polygon fill="midnightblue" stroke="midnightblue" points="57.4328,-21.2491 48.2373,-26.5116 58.7075,-28.1321 57.4328,-21.2491"/>
</g>
<!-- Node3 -->
<g id="node5" class="node"><title>Node3</title>
<a xlink:href="hfa-se-flow-wqe_8c.html#a3c04138a5bfe5d72780bb7e82a18e627" target="_top" xlink:title="Implementation.">
<polygon fill="white" stroke="black" points="216,-40.5 216,-61.5 256,-61.5 256,-40.5 216,-40.5"/>
<text text-anchor="middle" x="236" y="-48.5" font-family="FreeSans" font-size="10.00">main</text>
</a>
</g>
<!-- Node2&#45;&gt;Node3 -->
<g id="edge4" class="edge"><title>Node2&#45;&gt;Node3</title>
<path fill="none" stroke="midnightblue" d="M190.146,-51C199.414,-51 208.419,-51 215.958,-51"/>
<polygon fill="midnightblue" stroke="midnightblue" points="190.043,-47.5001 180.042,-51 190.042,-54.5001 190.043,-47.5001"/>
</g>
</g>
</svg>
