<?xml version="1.0" encoding="UTF-8" standalone="no"?>
<!DOCTYPE svg PUBLIC "-//W3C//DTD SVG 1.1//EN"
 "http://www.w3.org/Graphics/SVG/1.1/DTD/svg11.dtd">
<!-- Generated by graphviz version 2.24.0 (20090616.2323)
 -->
<!-- Title: main Pages: 1 -->
<svg width="448pt" height="1674pt"
 viewBox="0.00 0.00 448.00 1674.00" xmlns="http://www.w3.org/2000/svg" xmlns:xlink="http://www.w3.org/1999/xlink">
<g id="graph1" class="graph" transform="scale(1 1) rotate(0) translate(4 1670)">
<title>main</title>
<polygon fill="white" stroke="white" points="-4,5 -4,-1670 445,-1670 445,5 -4,5"/>
<!-- Node1 -->
<g id="node1" class="node"><title>Node1</title>
<polygon fill="#bfbfbf" stroke="black" points="0,-399.5 0,-420.5 40,-420.5 40,-399.5 0,-399.5"/>
<text text-anchor="middle" x="20" y="-407.5" font-family="FreeSans" font-size="10.00">main</text>
</g>
<!-- Node2 -->
<g id="node3" class="node"><title>Node2</title>
<a xlink:href="app-utils_8c.html#a4ef3fc7ca0729733044bc1430922cb2f" target="_top" xlink:title="Register signal handler for SIGINT(CTRL&#45;C).">
<polygon fill="white" stroke="black" points="76.5,-1601.5 76.5,-1622.5 237.5,-1622.5 237.5,-1601.5 76.5,-1601.5"/>
<text text-anchor="middle" x="157" y="-1609.5" font-family="FreeSans" font-size="10.00">hfautils_register_signalhandler</text>
</a>
</g>
<!-- Node1&#45;&gt;Node2 -->
<g id="edge2" class="edge"><title>Node1&#45;&gt;Node2</title>
<path fill="none" stroke="midnightblue" d="M20.2709,-420.728C23.1462,-533.365 48.4882,-1496.08 76,-1549 86.707,-1569.59 107.496,-1585.54 125.332,-1596.24"/>
<polygon fill="midnightblue" stroke="midnightblue" points="123.898,-1599.45 134.32,-1601.36 127.359,-1593.37 123.898,-1599.45"/>
</g>
<!-- Node4 -->
<g id="node7" class="node"><title>Node4</title>
<a xlink:href="hfa-se-xml-parser_8c.html#ab42726e951c529a41b8e09fd6e84ada2" target="_top" xlink:title="Process command line options and read graph.">
<polygon fill="white" stroke="black" points="110,-1518.5 110,-1539.5 204,-1539.5 204,-1518.5 110,-1518.5"/>
<text text-anchor="middle" x="157" y="-1526.5" font-family="FreeSans" font-size="10.00">process_options</text>
</a>
</g>
<!-- Node1&#45;&gt;Node4 -->
<g id="edge6" class="edge"><title>Node1&#45;&gt;Node4</title>
<path fill="none" stroke="midnightblue" d="M20.43,-420.631C23.1135,-484.774 38.6755,-826.682 76,-1103 97.2037,-1259.97 138.269,-1446.68 152.225,-1508.21"/>
<polygon fill="midnightblue" stroke="midnightblue" points="148.868,-1509.24 154.504,-1518.21 155.693,-1507.68 148.868,-1509.24"/>
</g>
<!-- Node9 -->
<g id="node17" class="node"><title>Node9</title>
<a xlink:href="cvm-hfa_8c.html#a873768042b716d60996ec5d858fc8fd9" target="_top" xlink:title="This function must be called by application to initialize HFA engine and setup resources for HFA hard...">
<polygon fill="white" stroke="black" points="120,-1072.5 120,-1093.5 194,-1093.5 194,-1072.5 120,-1072.5"/>
<text text-anchor="middle" x="157" y="-1080.5" font-family="FreeSans" font-size="10.00">hfa_dev_init</text>
</a>
</g>
<!-- Node1&#45;&gt;Node9 -->
<g id="edge16" class="edge"><title>Node1&#45;&gt;Node9</title>
<path fill="none" stroke="midnightblue" d="M22.1519,-420.571C37.6219,-496.566 131.863,-959.519 152.857,-1062.65"/>
<polygon fill="midnightblue" stroke="midnightblue" points="149.428,-1063.35 154.853,-1072.45 156.288,-1061.95 149.428,-1063.35"/>
</g>
<!-- Node28 -->
<g id="node55" class="node"><title>Node28</title>
<a xlink:href="hfa-se-xml-parser_8c.html#a546f3769e735d4bef0bfab1cba56921c" target="_top" xlink:title="Load graph into HFA memory and cache.">
<polygon fill="white" stroke="black" points="122.5,-652.5 122.5,-673.5 191.5,-673.5 191.5,-652.5 122.5,-652.5"/>
<text text-anchor="middle" x="157" y="-660.5" font-family="FreeSans" font-size="10.00">graph_load</text>
</a>
</g>
<!-- Node1&#45;&gt;Node28 -->
<g id="edge54" class="edge"><title>Node1&#45;&gt;Node28</title>
<path fill="none" stroke="midnightblue" d="M21.097,-420.601C25.5697,-461.794 43.7407,-610.54 76,-643 85.6011,-652.661 99.0772,-657.923 112.286,-660.714"/>
<polygon fill="midnightblue" stroke="midnightblue" points="111.824,-664.186 122.267,-662.399 112.989,-657.283 111.824,-664.186"/>
</g>
<!-- Node35 -->
<g id="node69" class="node"><title>Node35</title>
<a xlink:href="hfa-se-xml-parser_8c.html#a924d2733ebc7a856f8c3fd293193ba44" target="_top" xlink:title="Initialize search context.">
<polygon fill="white" stroke="red" points="119.5,-20.5 119.5,-41.5 194.5,-41.5 194.5,-20.5 119.5,-20.5"/>
<text text-anchor="middle" x="157" y="-28.5" font-family="FreeSans" font-size="10.00">initialize_ctx</text>
</a>
</g>
<!-- Node1&#45;&gt;Node35 -->
<g id="edge68" class="edge"><title>Node1&#45;&gt;Node35</title>
<path fill="none" stroke="midnightblue" d="M20.131,-399.255C21.0105,-345.231 27.6322,-103.788 76,-51 84.6479,-41.5619 96.9781,-36.2566 109.418,-33.3556"/>
<polygon fill="midnightblue" stroke="midnightblue" points="110.156,-36.7784 119.349,-31.5114 108.878,-29.896 110.156,-36.7784"/>
</g>
<!-- Node38 -->
<g id="node75" class="node"><title>Node38</title>
<a xlink:href="app-utils_8c.html#a4b47f3c9c5a0b3eaee64e264171628a3" target="_top" xlink:title="This routine reads data of chunksize/a packet from given payload(Normal/PCAP) file and returns data b...">
<polygon fill="white" stroke="red" points="94,-572.5 94,-593.5 220,-593.5 220,-572.5 94,-572.5"/>
<text text-anchor="middle" x="157" y="-580.5" font-family="FreeSans" font-size="10.00">hfautils_parse_payload</text>
</a>
</g>
<!-- Node1&#45;&gt;Node38 -->
<g id="edge74" class="edge"><title>Node1&#45;&gt;Node38</title>
<path fill="none" stroke="midnightblue" d="M20.6096,-420.778C22.7929,-448.733 32.6184,-524.099 76,-563 78.6691,-565.393 81.5791,-567.511 84.6587,-569.384"/>
<polygon fill="midnightblue" stroke="midnightblue" points="83.232,-572.585 93.7267,-574.039 86.4287,-566.358 83.232,-572.585"/>
</g>
<!-- Node39 -->
<g id="node77" class="node"><title>Node39</title>
<a xlink:href="cvm-hfa-search_8h.html#ae9741e867075c9b8cc63a7d889d5bf20" target="_top" xlink:title="This routine is a variant of hfa_searchparam_set_inputiovec() when the previously searched input IO v...">
<polygon fill="white" stroke="black" points="96.5,-520 96.5,-554 217.5,-554 217.5,-520 96.5,-520"/>
<text text-anchor="start" x="104.5" y="-541" font-family="FreeSans" font-size="10.00">hfa_searchparam_set</text>
<text text-anchor="middle" x="157" y="-528" font-family="FreeSans" font-size="10.00">_inputiovec_0_n</text>
</a>
</g>
<!-- Node1&#45;&gt;Node39 -->
<g id="edge76" class="edge"><title>Node1&#45;&gt;Node39</title>
<path fill="none" stroke="midnightblue" d="M22.9737,-420.559C29.2806,-441.04 45.9413,-486.314 76,-511 79.4972,-513.872 83.3176,-516.429 87.3337,-518.705"/>
<polygon fill="midnightblue" stroke="midnightblue" points="85.8819,-521.893 96.389,-523.253 89.0236,-515.637 85.8819,-521.893"/>
</g>
<!-- Node40 -->
<g id="node79" class="node"><title>Node40</title>
<a xlink:href="cvm-hfa-search_8h.html#a12882fa53f8ec49b9b2950711161db42" target="_top" xlink:title="This routine sets the output buffer in the sparam.">
<polygon fill="white" stroke="black" points="96.5,-468 96.5,-502 217.5,-502 217.5,-468 96.5,-468"/>
<text text-anchor="start" x="104.5" y="-489" font-family="FreeSans" font-size="10.00">hfa_searchparam_set</text>
<text text-anchor="middle" x="157" y="-476" font-family="FreeSans" font-size="10.00">_output</text>
</a>
</g>
<!-- Node1&#45;&gt;Node40 -->
<g id="edge78" class="edge"><title>Node1&#45;&gt;Node40</title>
<path fill="none" stroke="midnightblue" d="M29.7379,-420.801C40.197,-431.812 57.7835,-448.697 76,-459 79.4449,-460.948 83.0561,-462.774 86.7611,-464.48"/>
<polygon fill="midnightblue" stroke="midnightblue" points="85.5515,-467.77 96.1224,-468.481 88.3024,-461.333 85.5515,-467.77"/>
</g>
<!-- Node41 -->
<g id="node81" class="node"><title>Node41</title>
<a xlink:href="cvm-hfa-search_8h.html#a0210e636ef06f718be0e67753bebaa04" target="_top" xlink:title="This routine configures the application callback routine which will be invoked when a pattern match i...">
<polygon fill="white" stroke="black" points="96.5,-416 96.5,-450 217.5,-450 217.5,-416 96.5,-416"/>
<text text-anchor="start" x="104.5" y="-437" font-family="FreeSans" font-size="10.00">hfa_searchparam_set</text>
<text text-anchor="middle" x="157" y="-424" font-family="FreeSans" font-size="10.00">_matchcb</text>
</a>
</g>
<!-- Node1&#45;&gt;Node41 -->
<g id="edge80" class="edge"><title>Node1&#45;&gt;Node41</title>
<path fill="none" stroke="midnightblue" d="M40.2148,-413.394C52.6588,-415.483 69.4284,-418.298 86.3718,-421.143"/>
<polygon fill="midnightblue" stroke="midnightblue" points="85.895,-424.612 96.3365,-422.816 87.054,-417.708 85.895,-424.612"/>
</g>
<!-- Node42 -->
<g id="node83" class="node"><title>Node42</title>
<a xlink:href="hfa-se-xml-parser_8c.html#a7a1a023f618d2721b68175551e1c6fe0" target="_top" xlink:title="matchcb">
<polygon fill="white" stroke="black" points="127.5,-376.5 127.5,-397.5 186.5,-397.5 186.5,-376.5 127.5,-376.5"/>
<text text-anchor="middle" x="157" y="-384.5" font-family="FreeSans" font-size="10.00">matchcb</text>
</a>
</g>
<!-- Node1&#45;&gt;Node42 -->
<g id="edge82" class="edge"><title>Node1&#45;&gt;Node42</title>
<path fill="none" stroke="midnightblue" d="M40.2148,-406.606C60.429,-403.213 92.0573,-397.903 117.303,-393.664"/>
<polygon fill="midnightblue" stroke="midnightblue" points="118.046,-397.089 127.328,-391.981 116.887,-390.185 118.046,-397.089"/>
</g>
<!-- Node43 -->
<g id="node85" class="node"><title>Node43</title>
<a xlink:href="cvm-hfa-search_8c.html#a57d7540278164eb6b6c132be00db0de5" target="_top" xlink:title="This routine performs a pattern search using the given parameters in a blocking manner.">
<polygon fill="white" stroke="red" points="95.5,-336.5 95.5,-357.5 218.5,-357.5 218.5,-336.5 95.5,-336.5"/>
<text text-anchor="middle" x="157" y="-344.5" font-family="FreeSans" font-size="10.00">hfa_searchctx_search</text>
</a>
</g>
<!-- Node1&#45;&gt;Node43 -->
<g id="edge84" class="edge"><title>Node1&#45;&gt;Node43</title>
<path fill="none" stroke="midnightblue" d="M31.0712,-399.237C41.7432,-389.445 58.7687,-375.291 76,-367 80.8947,-364.645 86.0935,-362.551 91.4022,-360.691"/>
<polygon fill="midnightblue" stroke="midnightblue" points="92.5871,-363.987 101.035,-357.593 90.4434,-357.323 92.5871,-363.987"/>
</g>
<!-- Node44 -->
<g id="node87" class="node"><title>Node44</title>
<a xlink:href="cvm-hfa-search_8h.html#ab50a2d84e35b5a4a03a23fc90e4dffa0" target="_top" xlink:title="This routine retrieves the reason code after a search operation has been completed by the HFA engine...">
<polygon fill="white" stroke="black" points="96,-284 96,-318 218,-318 218,-284 96,-284"/>
<text text-anchor="start" x="104" y="-305" font-family="FreeSans" font-size="10.00">hfa_searchparam_get</text>
<text text-anchor="middle" x="157" y="-292" font-family="FreeSans" font-size="10.00">_hwsearch_reason</text>
</a>
</g>
<!-- Node1&#45;&gt;Node44 -->
<g id="edge86" class="edge"><title>Node1&#45;&gt;Node44</title>
<path fill="none" stroke="midnightblue" d="M24.346,-399.414C32.1056,-381.807 50.0036,-346.515 76,-327 79.3884,-324.456 83.0346,-322.156 86.8383,-320.077"/>
<polygon fill="midnightblue" stroke="midnightblue" points="88.5088,-323.156 95.9518,-315.616 85.4313,-316.869 88.5088,-323.156"/>
</g>
<!-- Node45 -->
<g id="node89" class="node"><title>Node45</title>
<a xlink:href="cvm-hfa-search_8h.html#ad18e328b50b109e1e44821f3d006bd9d" target="_top" xlink:title="This routine returns the data&#45;buffer offset.">
<polygon fill="white" stroke="black" points="96,-232 96,-266 218,-266 218,-232 96,-232"/>
<text text-anchor="start" x="104" y="-253" font-family="FreeSans" font-size="10.00">hfa_searchparam_get</text>
<text text-anchor="middle" x="157" y="-240" font-family="FreeSans" font-size="10.00">_hwsearch_pdboff</text>
</a>
</g>
<!-- Node1&#45;&gt;Node45 -->
<g id="edge88" class="edge"><title>Node1&#45;&gt;Node45</title>
<path fill="none" stroke="midnightblue" d="M21.3904,-399.148C25.2249,-373.699 38.2912,-309.715 76,-275 79.3293,-271.935 83.0221,-269.231 86.9435,-266.846"/>
<polygon fill="midnightblue" stroke="midnightblue" points="88.6536,-269.901 95.8414,-262.117 85.3684,-263.72 88.6536,-269.901"/>
</g>
<!-- Node46 -->
<g id="node91" class="node"><title>Node46</title>
<a xlink:href="cvm-hfa-search_8c.html#a6dbb15dc58155b2c94b19784ad42ef89" target="_top" xlink:title="This routine post&#45;processes the search results from the HFA engine and reports the pattern matches fo...">
<polygon fill="white" stroke="red" points="83.5,-192.5 83.5,-213.5 230.5,-213.5 230.5,-192.5 83.5,-192.5"/>
<text text-anchor="middle" x="157" y="-200.5" font-family="FreeSans" font-size="10.00">hfa_searchctx_getmatches</text>
</a>
</g>
<!-- Node1&#45;&gt;Node46 -->
<g id="edge90" class="edge"><title>Node1&#45;&gt;Node46</title>
<path fill="none" stroke="midnightblue" d="M21.7757,-399.331C27.95,-363.48 49.5557,-248.182 76,-223 77.4948,-221.577 79.0741,-220.25 80.724,-219.013"/>
<polygon fill="midnightblue" stroke="midnightblue" points="82.8569,-221.808 89.4959,-213.551 79.157,-215.866 82.8569,-221.808"/>
</g>
<!-- Node47 -->
<g id="node93" class="node"><title>Node47</title>
<a xlink:href="app-utils_8c.html#a633038357891aa5147b77fe939f300bf" target="_top" xlink:title="Print pattern matches via match buffer and cleanup all matches.">
<polygon fill="white" stroke="red" points="95,-152.5 95,-173.5 219,-173.5 219,-152.5 95,-152.5"/>
<text text-anchor="middle" x="157" y="-160.5" font-family="FreeSans" font-size="10.00">hfautils_print_matches</text>
</a>
</g>
<!-- Node1&#45;&gt;Node47 -->
<g id="edge92" class="edge"><title>Node1&#45;&gt;Node47</title>
<path fill="none" stroke="midnightblue" d="M21.1697,-399.393C25.8486,-358.868 44.5024,-214.504 76,-183 78.9124,-180.087 82.1772,-177.574 85.6803,-175.409"/>
<polygon fill="midnightblue" stroke="midnightblue" points="87.5212,-178.398 94.8136,-170.712 84.3199,-172.173 87.5212,-178.398"/>
</g>
<!-- Node48 -->
<g id="node95" class="node"><title>Node48</title>
<a xlink:href="cvm-hfa-search_8h.html#ac5bcfbfda7036d9aca28a3c5828847a5" target="_top" xlink:title="This routine retrieves flags returned by post&#45;processor.">
<polygon fill="white" stroke="black" points="96,-100 96,-134 218,-134 218,-100 96,-100"/>
<text text-anchor="start" x="104" y="-121" font-family="FreeSans" font-size="10.00">hfa_searchparam_get</text>
<text text-anchor="middle" x="157" y="-108" font-family="FreeSans" font-size="10.00">_ppoflags</text>
</a>
</g>
<!-- Node1&#45;&gt;Node48 -->
<g id="edge94" class="edge"><title>Node1&#45;&gt;Node48</title>
<path fill="none" stroke="midnightblue" d="M20.8138,-399.491C24.4654,-354.937 40.7259,-182.142 76,-143 79.1438,-139.511 82.7563,-136.488 86.6725,-133.869"/>
<polygon fill="midnightblue" stroke="midnightblue" points="88.7034,-136.741 95.6669,-128.756 85.2438,-130.655 88.7034,-136.741"/>
</g>
<!-- Node49 -->
<g id="node97" class="node"><title>Node49</title>
<a xlink:href="hfa-se-xml-parser_8c.html#a6247b3328e66a331e8a47d4085b547e9" target="_top" xlink:title="Parse xml matches.">
<polygon fill="white" stroke="red" points="100,-60.5 100,-81.5 214,-81.5 214,-60.5 100,-60.5"/>
<text text-anchor="middle" x="157" y="-68.5" font-family="FreeSans" font-size="10.00">parse_xml_matches</text>
</a>
</g>
<!-- Node1&#45;&gt;Node49 -->
<g id="edge96" class="edge"><title>Node1&#45;&gt;Node49</title>
<path fill="none" stroke="midnightblue" d="M20.3526,-399.468C22.2378,-349.557 32.7275,-137.334 76,-91 80.1169,-86.5919 85.0375,-83.0887 90.3916,-80.3126"/>
<polygon fill="midnightblue" stroke="midnightblue" points="91.9382,-83.4576 99.7458,-76.2957 89.1761,-77.0255 91.9382,-83.4576"/>
</g>
<!-- Node50 -->
<g id="node99" class="node"><title>Node50</title>
<a xlink:href="hfa-se-xml-parser_8c.html#a5036058ffdb029e5c5dc2a76a58760b8" target="_top" xlink:title="Application cleanup will be done by this routine.">
<polygon fill="white" stroke="red" points="130,-612.5 130,-633.5 184,-633.5 184,-612.5 130,-612.5"/>
<text text-anchor="middle" x="157" y="-620.5" font-family="FreeSans" font-size="10.00">cleanup</text>
</a>
</g>
<!-- Node1&#45;&gt;Node50 -->
<g id="edge98" class="edge"><title>Node1&#45;&gt;Node50</title>
<path fill="none" stroke="midnightblue" d="M21.6839,-420.752C27.6404,-457.444 48.8244,-576.899 76,-603 87.5437,-614.087 104.213,-619.329 119.433,-621.707"/>
<polygon fill="midnightblue" stroke="midnightblue" points="119.312,-625.217 129.657,-622.931 120.145,-618.267 119.312,-625.217"/>
</g>
<!-- Node3 -->
<g id="node5" class="node"><title>Node3</title>
<a xlink:href="app-utils_8c.html#a0f2df8f03baa5b4006040e8a18069557" target="_top" xlink:title="Signal handler to ignore CTRL&#45;C.">
<polygon fill="white" stroke="black" points="305.5,-1644.5 305.5,-1665.5 408.5,-1665.5 408.5,-1644.5 305.5,-1644.5"/>
<text text-anchor="middle" x="357" y="-1652.5" font-family="FreeSans" font-size="10.00">hfa_sigint_handler</text>
</a>
</g>
<!-- Node2&#45;&gt;Node3 -->
<g id="edge4" class="edge"><title>Node2&#45;&gt;Node3</title>
<path fill="none" stroke="midnightblue" d="M205.926,-1622.52C233.649,-1628.48 268.532,-1635.98 297.792,-1642.27"/>
<polygon fill="midnightblue" stroke="midnightblue" points="297.374,-1645.76 307.886,-1644.44 298.846,-1638.92 297.374,-1645.76"/>
</g>
<!-- Node5 -->
<g id="node9" class="node"><title>Node5</title>
<a xlink:href="app-utils_8c.html#a312f3a19b49c759fe09b5bee727b879b" target="_top" xlink:title="Initialize command line arguments.">
<polygon fill="white" stroke="black" points="302.5,-1472.5 302.5,-1493.5 411.5,-1493.5 411.5,-1472.5 302.5,-1472.5"/>
<text text-anchor="middle" x="357" y="-1480.5" font-family="FreeSans" font-size="10.00">hfautils_options_init</text>
</a>
</g>
<!-- Node4&#45;&gt;Node5 -->
<g id="edge8" class="edge"><title>Node4&#45;&gt;Node5</title>
<path fill="none" stroke="midnightblue" d="M202.884,-1518.45C232.23,-1511.7 270.474,-1502.9 301.522,-1495.76"/>
<polygon fill="midnightblue" stroke="midnightblue" points="302.368,-1499.16 311.329,-1493.5 300.799,-1492.33 302.368,-1499.16"/>
</g>
<!-- Node6 -->
<g id="node11" class="node"><title>Node6</title>
<a xlink:href="app-utils_8c.html#ae04c31b3e2ff1468333729059052375c" target="_top" xlink:title="Parse command line arguments.">
<polygon fill="white" stroke="red" points="287,-1604.5 287,-1625.5 427,-1625.5 427,-1604.5 287,-1604.5"/>
<text text-anchor="middle" x="357" y="-1612.5" font-family="FreeSans" font-size="10.00">hfautils_parse_arguments</text>
</a>
</g>
<!-- Node4&#45;&gt;Node6 -->
<g id="edge10" class="edge"><title>Node4&#45;&gt;Node6</title>
<path fill="none" stroke="midnightblue" d="M172.576,-1539.66C194.363,-1554.12 235.59,-1579.88 274,-1595 280.301,-1597.48 286.997,-1599.71 293.746,-1601.71"/>
<polygon fill="midnightblue" stroke="midnightblue" points="293.059,-1605.15 303.631,-1604.46 294.936,-1598.4 293.059,-1605.15"/>
</g>
<!-- Node7 -->
<g id="node13" class="node"><title>Node7</title>
<a xlink:href="app-utils_8c.html#a12339c67618c4b3a54c32f43d378c273" target="_top" xlink:title="Read data from a file to a buffer(compressed or uncompressed).">
<polygon fill="white" stroke="red" points="308.5,-1564.5 308.5,-1585.5 405.5,-1585.5 405.5,-1564.5 308.5,-1564.5"/>
<text text-anchor="middle" x="357" y="-1572.5" font-family="FreeSans" font-size="10.00">hfautils_read_file</text>
</a>
</g>
<!-- Node4&#45;&gt;Node7 -->
<g id="edge12" class="edge"><title>Node4&#45;&gt;Node7</title>
<path fill="none" stroke="midnightblue" d="M202.884,-1539.55C232.23,-1546.3 270.474,-1555.1 301.522,-1562.24"/>
<polygon fill="midnightblue" stroke="midnightblue" points="300.799,-1565.67 311.329,-1564.5 302.368,-1558.84 300.799,-1565.67"/>
</g>
<!-- Node8 -->
<g id="node15" class="node"><title>Node8</title>
<a xlink:href="app-utils_8c.html#a1944a739d03e86dcaee1a7d245cfeba0" target="_top" xlink:title="Initialize the attributes needed for parsing the payload file.">
<polygon fill="white" stroke="red" points="300.5,-1512 300.5,-1546 413.5,-1546 413.5,-1512 300.5,-1512"/>
<text text-anchor="start" x="308.5" y="-1533" font-family="FreeSans" font-size="10.00">hfautils_init_payload</text>
<text text-anchor="middle" x="357" y="-1520" font-family="FreeSans" font-size="10.00">_attributes</text>
</a>
</g>
<!-- Node4&#45;&gt;Node8 -->
<g id="edge14" class="edge"><title>Node4&#45;&gt;Node8</title>
<path fill="none" stroke="midnightblue" d="M204.144,-1529C229.755,-1529 261.856,-1529 290.021,-1529"/>
<polygon fill="midnightblue" stroke="midnightblue" points="290.201,-1532.5 300.201,-1529 290.201,-1525.5 290.201,-1532.5"/>
</g>
<!-- Node10 -->
<g id="node19" class="node"><title>Node10</title>
<a xlink:href="cvm-hfa-stats_8c.html#a2fcf955b47370bfa46705ee5a23a70cf" target="_top" xlink:title="This routine allocates memory for counters to maintain statistics of each processing core...">
<polygon fill="white" stroke="red" points="306,-912.5 306,-933.5 408,-933.5 408,-912.5 306,-912.5"/>
<text text-anchor="middle" x="357" y="-920.5" font-family="FreeSans" font-size="10.00">hfa_dev_stats_init</text>
</a>
</g>
<!-- Node9&#45;&gt;Node10 -->
<g id="edge18" class="edge"><title>Node9&#45;&gt;Node10</title>
<path fill="none" stroke="midnightblue" d="M162.726,-1072.24C177.401,-1045.75 219.099,-977.081 274,-943 280.729,-938.823 288.266,-935.518 295.979,-932.903"/>
<polygon fill="midnightblue" stroke="midnightblue" points="297.231,-936.182 305.797,-929.947 295.212,-929.479 297.231,-936.182"/>
</g>
<!-- Node11 -->
<g id="node21" class="node"><title>Node11</title>
<a xlink:href="cvm-hfa_8c.html#a27982497398da2118cd5287ed51732e7" target="_top" xlink:title="Provides device&#45;specific information This is a utility routine used to obtain HFA device&#45;specific det...">
<polygon fill="white" stroke="black" points="301.5,-872.5 301.5,-893.5 412.5,-893.5 412.5,-872.5 301.5,-872.5"/>
<text text-anchor="middle" x="357" y="-880.5" font-family="FreeSans" font-size="10.00">hfa_dev_getdevinfo</text>
</a>
</g>
<!-- Node9&#45;&gt;Node11 -->
<g id="edge20" class="edge"><title>Node9&#45;&gt;Node11</title>
<path fill="none" stroke="midnightblue" d="M160.622,-1072.48C171.943,-1041.24 209.787,-948.402 274,-903 279.321,-899.238 285.263,-896.178 291.455,-893.69"/>
<polygon fill="midnightblue" stroke="midnightblue" points="293.056,-896.838 301.339,-890.232 290.744,-890.231 293.056,-896.838"/>
</g>
<!-- Node12 -->
<g id="node23" class="node"><title>Node12</title>
<a xlink:href="pp_8h.html#a6f5982b2671e9682262a26b0d2996396" target="_top" xlink:title="Constructs a readable version string for the PP library.">
<polygon fill="white" stroke="black" points="297,-832.5 297,-853.5 417,-853.5 417,-832.5 297,-832.5"/>
<text text-anchor="middle" x="357" y="-840.5" font-family="FreeSans" font-size="10.00">pp_get_version_string</text>
</a>
</g>
<!-- Node9&#45;&gt;Node12 -->
<g id="edge22" class="edge"><title>Node9&#45;&gt;Node12</title>
<path fill="none" stroke="midnightblue" d="M159.385,-1072.26C167.926,-1036.42 200.48,-919.969 274,-863 278.07,-859.847 282.563,-857.181 287.29,-854.928"/>
<polygon fill="midnightblue" stroke="midnightblue" points="288.705,-858.131 296.618,-851.086 286.039,-851.658 288.705,-858.131"/>
</g>
<!-- Node13 -->
<g id="node25" class="node"><title>Node13</title>
<a xlink:href="cvm-hfa_8c.html#afd1d53fe8a402d4c5799e6e98c67baaa" target="_top" xlink:title="Displays HFA Device info.">
<polygon fill="white" stroke="red" points="298.5,-792.5 298.5,-813.5 415.5,-813.5 415.5,-792.5 298.5,-792.5"/>
<text text-anchor="middle" x="357" y="-800.5" font-family="FreeSans" font-size="10.00">hfa_dev_display_info</text>
</a>
</g>
<!-- Node9&#45;&gt;Node13 -->
<g id="edge24" class="edge"><title>Node9&#45;&gt;Node13</title>
<path fill="none" stroke="midnightblue" d="M158.436,-1072.34C164.374,-1032.63 190.738,-892.028 274,-823 278.532,-819.243 283.656,-816.17 289.079,-813.659"/>
<polygon fill="midnightblue" stroke="midnightblue" points="290.433,-816.888 298.435,-809.944 287.85,-810.382 290.433,-816.888"/>
</g>
<!-- Node14 -->
<g id="node27" class="node"><title>Node14</title>
<a xlink:href="cvm-hfa_8c.html#a236e64ca73680ea6761204d5c44d4e96" target="_top" xlink:title="API to set PP resource allocator for partial matches.">
<polygon fill="white" stroke="black" points="289.5,-752.5 289.5,-773.5 424.5,-773.5 424.5,-752.5 289.5,-752.5"/>
<text text-anchor="middle" x="357" y="-760.5" font-family="FreeSans" font-size="10.00">hfa_dev_set_fnp_ppalloc</text>
</a>
</g>
<!-- Node9&#45;&gt;Node14 -->
<g id="edge26" class="edge"><title>Node9&#45;&gt;Node14</title>
<path fill="none" stroke="midnightblue" d="M157.744,-1072.27C161.356,-1028.79 180.929,-864.252 274,-783 276.003,-781.251 278.133,-779.65 280.361,-778.183"/>
<polygon fill="midnightblue" stroke="midnightblue" points="282.349,-781.083 289.392,-773.168 278.95,-774.963 282.349,-781.083"/>
</g>
<!-- Node15 -->
<g id="node29" class="node"><title>Node15</title>
<a xlink:href="cvm-hfa_8c.html#ab547f175726534d6a0a334eb35af4980" target="_top" xlink:title="Default function pointer for PP allocations.">
<polygon fill="white" stroke="black" points="297,-1432.5 297,-1453.5 417,-1453.5 417,-1432.5 297,-1432.5"/>
<text text-anchor="middle" x="357" y="-1440.5" font-family="FreeSans" font-size="10.00">hfa_defaultfn_ppalloc</text>
</a>
</g>
<!-- Node9&#45;&gt;Node15 -->
<g id="edge28" class="edge"><title>Node9&#45;&gt;Node15</title>
<path fill="none" stroke="midnightblue" d="M159.219,-1093.61C170.356,-1145.88 221.694,-1375.44 274,-1423 277.943,-1426.59 282.415,-1429.56 287.191,-1432.02"/>
<polygon fill="midnightblue" stroke="midnightblue" points="286.122,-1435.37 296.688,-1436.15 288.914,-1428.95 286.122,-1435.37"/>
</g>
<!-- Node16 -->
<g id="node31" class="node"><title>Node16</title>
<a xlink:href="cvm-hfa_8c.html#a148abbfdeebb207ff46884af8eeb8fa4" target="_top" xlink:title="API to set PP resource deallocator for partial matches.">
<polygon fill="white" stroke="black" points="291,-1392.5 291,-1413.5 423,-1413.5 423,-1392.5 291,-1392.5"/>
<text text-anchor="middle" x="357" y="-1400.5" font-family="FreeSans" font-size="10.00">hfa_dev_set_fnp_ppfree</text>
</a>
</g>
<!-- Node9&#45;&gt;Node16 -->
<g id="edge30" class="edge"><title>Node9&#45;&gt;Node16</title>
<path fill="none" stroke="midnightblue" d="M157.744,-1093.73C161.356,-1137.21 180.929,-1301.75 274,-1383 276.38,-1385.08 278.938,-1386.95 281.63,-1388.63"/>
<polygon fill="midnightblue" stroke="midnightblue" points="280.146,-1391.81 290.621,-1393.39 283.422,-1385.62 280.146,-1391.81"/>
</g>
<!-- Node17 -->
<g id="node33" class="node"><title>Node17</title>
<a xlink:href="cvm-hfa_8c.html#a832239ee7b188265bdacbbfb7e879af1" target="_top" xlink:title="Default function pointer for PP deallocations.">
<polygon fill="white" stroke="black" points="298.5,-1352.5 298.5,-1373.5 415.5,-1373.5 415.5,-1352.5 298.5,-1352.5"/>
<text text-anchor="middle" x="357" y="-1360.5" font-family="FreeSans" font-size="10.00">hfa_defaultfn_ppfree</text>
</a>
</g>
<!-- Node9&#45;&gt;Node17 -->
<g id="edge32" class="edge"><title>Node9&#45;&gt;Node17</title>
<path fill="none" stroke="midnightblue" d="M158.436,-1093.66C164.374,-1133.37 190.738,-1273.97 274,-1343 278.532,-1346.76 283.656,-1349.83 289.079,-1352.34"/>
<polygon fill="midnightblue" stroke="midnightblue" points="287.85,-1355.62 298.435,-1356.06 290.433,-1349.11 287.85,-1355.62"/>
</g>
<!-- Node18 -->
<g id="node35" class="node"><title>Node18</title>
<a xlink:href="cvm-hfa_8c.html#a774451b83b300f862763d189c9758e1f" target="_top" xlink:title="API to set PP buffer size function pointer.">
<polygon fill="white" stroke="black" points="291,-1312.5 291,-1333.5 423,-1333.5 423,-1312.5 291,-1312.5"/>
<text text-anchor="middle" x="357" y="-1320.5" font-family="FreeSans" font-size="10.00">hfa_dev_set_fnp_ppsize</text>
</a>
</g>
<!-- Node9&#45;&gt;Node18 -->
<g id="edge34" class="edge"><title>Node9&#45;&gt;Node18</title>
<path fill="none" stroke="midnightblue" d="M159.385,-1093.74C167.926,-1129.58 200.48,-1246.03 274,-1303 276.44,-1304.89 279.033,-1306.61 281.737,-1308.16"/>
<polygon fill="midnightblue" stroke="midnightblue" points="280.188,-1311.3 290.702,-1312.61 283.299,-1305.03 280.188,-1311.3"/>
</g>
<!-- Node19 -->
<g id="node37" class="node"><title>Node19</title>
<a xlink:href="cvm-hfa_8c.html#a11aab8e30488e4cfc900f60a0dabc784" target="_top" xlink:title="Default function pointer for PP size.">
<polygon fill="white" stroke="black" points="298.5,-1272.5 298.5,-1293.5 415.5,-1293.5 415.5,-1272.5 298.5,-1272.5"/>
<text text-anchor="middle" x="357" y="-1280.5" font-family="FreeSans" font-size="10.00">hfa_defaultfn_ppsize</text>
</a>
</g>
<!-- Node9&#45;&gt;Node19 -->
<g id="edge36" class="edge"><title>Node9&#45;&gt;Node19</title>
<path fill="none" stroke="midnightblue" d="M160.622,-1093.52C171.943,-1124.76 209.787,-1217.6 274,-1263 278.538,-1266.21 283.528,-1268.91 288.74,-1271.17"/>
<polygon fill="midnightblue" stroke="midnightblue" points="287.719,-1274.53 298.311,-1274.81 290.205,-1267.99 287.719,-1274.53"/>
</g>
<!-- Node20 -->
<g id="node39" class="node"><title>Node20</title>
<a xlink:href="cvm-hfa_8c.html#a9a0b038e0d29435cb91a21d9c62806cc" target="_top" xlink:title="API to set PP resource allocator for temporary memory.">
<polygon fill="white" stroke="black" points="288,-1232.5 288,-1253.5 426,-1253.5 426,-1232.5 288,-1232.5"/>
<text text-anchor="middle" x="357" y="-1240.5" font-family="FreeSans" font-size="10.00">hfa_dev_set_fnp_pptalloc</text>
</a>
</g>
<!-- Node9&#45;&gt;Node20 -->
<g id="edge38" class="edge"><title>Node9&#45;&gt;Node20</title>
<path fill="none" stroke="midnightblue" d="M162.726,-1093.76C177.401,-1120.25 219.099,-1188.92 274,-1223 277.375,-1225.09 280.952,-1226.97 284.653,-1228.65"/>
<polygon fill="midnightblue" stroke="midnightblue" points="283.478,-1231.95 294.062,-1232.43 286.089,-1225.45 283.478,-1231.95"/>
</g>
<!-- Node21 -->
<g id="node41" class="node"><title>Node21</title>
<a xlink:href="cvm-hfa_8c.html#a2cbca63c413f08d3861f9b4c2855391f" target="_top" xlink:title="API to set PP resource deallocator for temporary memory.">
<polygon fill="white" stroke="black" points="289.5,-1192.5 289.5,-1213.5 424.5,-1213.5 424.5,-1192.5 289.5,-1192.5"/>
<text text-anchor="middle" x="357" y="-1200.5" font-family="FreeSans" font-size="10.00">hfa_dev_set_fnp_pptfree</text>
</a>
</g>
<!-- Node9&#45;&gt;Node21 -->
<g id="edge40" class="edge"><title>Node9&#45;&gt;Node21</title>
<path fill="none" stroke="midnightblue" d="M166.139,-1093.61C184.444,-1114.16 227.826,-1159.44 274,-1183 278.586,-1185.34 283.455,-1187.41 288.447,-1189.25"/>
<polygon fill="midnightblue" stroke="midnightblue" points="287.56,-1192.64 298.154,-1192.49 289.78,-1186 287.56,-1192.64"/>
</g>
<!-- Node22 -->
<g id="node43" class="node"><title>Node22</title>
<a xlink:href="cvm-hfa_8c.html#af0b17e8a09b1f7a1dd438ddcb1e4cd14" target="_top" xlink:title="API to set temporary memory size function pointer.">
<polygon fill="white" stroke="black" points="289.5,-1152.5 289.5,-1173.5 424.5,-1173.5 424.5,-1152.5 289.5,-1152.5"/>
<text text-anchor="middle" x="357" y="-1160.5" font-family="FreeSans" font-size="10.00">hfa_dev_set_fnp_pptsize</text>
</a>
</g>
<!-- Node9&#45;&gt;Node22 -->
<g id="edge42" class="edge"><title>Node9&#45;&gt;Node22</title>
<path fill="none" stroke="midnightblue" d="M174.245,-1093.5C196.558,-1106.69 236.973,-1129.27 274,-1143 280.784,-1145.52 287.998,-1147.8 295.232,-1149.85"/>
<polygon fill="midnightblue" stroke="midnightblue" points="294.504,-1153.28 305.07,-1152.5 296.323,-1146.52 294.504,-1153.28"/>
</g>
<!-- Node23 -->
<g id="node45" class="node"><title>Node23</title>
<a xlink:href="cvm-hfa_8c.html#aa2754afcdd94eb3dcd90c374f779dd24" target="_top" xlink:title="API to set PP resource allocator for match/result buffer.">
<polygon fill="white" stroke="black" points="274,-1112.5 274,-1133.5 440,-1133.5 440,-1112.5 274,-1112.5"/>
<text text-anchor="middle" x="357" y="-1120.5" font-family="FreeSans" font-size="10.00">hfa_dev_set_fnp_ppmatchalloc</text>
</a>
</g>
<!-- Node9&#45;&gt;Node23 -->
<g id="edge44" class="edge"><title>Node9&#45;&gt;Node23</title>
<path fill="none" stroke="midnightblue" d="M194.15,-1090.43C222.201,-1096.04 261.347,-1103.87 294.229,-1110.45"/>
<polygon fill="midnightblue" stroke="midnightblue" points="293.721,-1113.91 304.213,-1112.44 295.094,-1107.05 293.721,-1113.91"/>
</g>
<!-- Node24 -->
<g id="node47" class="node"><title>Node24</title>
<a xlink:href="cvm-hfa_8c.html#ad022f5aec72780af8b36533884693539" target="_top" xlink:title="API to set PP resource deallocator for result/match buf.">
<polygon fill="white" stroke="black" points="275.5,-1072.5 275.5,-1093.5 438.5,-1093.5 438.5,-1072.5 275.5,-1072.5"/>
<text text-anchor="middle" x="357" y="-1080.5" font-family="FreeSans" font-size="10.00">hfa_dev_set_fnp_ppmatchfree</text>
</a>
</g>
<!-- Node9&#45;&gt;Node24 -->
<g id="edge46" class="edge"><title>Node9&#45;&gt;Node24</title>
<path fill="none" stroke="midnightblue" d="M194.15,-1083C214.206,-1083 239.934,-1083 264.988,-1083"/>
<polygon fill="midnightblue" stroke="midnightblue" points="265.29,-1086.5 275.289,-1083 265.289,-1079.5 265.29,-1086.5"/>
</g>
<!-- Node25 -->
<g id="node49" class="node"><title>Node25</title>
<a xlink:href="cvm-hfa_8c.html#a8b71887165c143e32600513d12f9274f" target="_top" xlink:title="API to set match buffer size function pointer.">
<polygon fill="white" stroke="black" points="275.5,-1032.5 275.5,-1053.5 438.5,-1053.5 438.5,-1032.5 275.5,-1032.5"/>
<text text-anchor="middle" x="357" y="-1040.5" font-family="FreeSans" font-size="10.00">hfa_dev_set_fnp_ppmatchsize</text>
</a>
</g>
<!-- Node9&#45;&gt;Node25 -->
<g id="edge48" class="edge"><title>Node9&#45;&gt;Node25</title>
<path fill="none" stroke="midnightblue" d="M194.15,-1075.57C222.201,-1069.96 261.347,-1062.13 294.229,-1055.55"/>
<polygon fill="midnightblue" stroke="midnightblue" points="295.094,-1058.95 304.213,-1053.56 293.721,-1052.09 295.094,-1058.95"/>
</g>
<!-- Node26 -->
<g id="node51" class="node"><title>Node26</title>
<a xlink:href="cvm-hfa_8c.html#abcc0595aa8b2bb2d6116d600abbf55f8" target="_top" xlink:title="API to set PP error callback.">
<polygon fill="white" stroke="black" points="289,-992.5 289,-1013.5 425,-1013.5 425,-992.5 289,-992.5"/>
<text text-anchor="middle" x="357" y="-1000.5" font-family="FreeSans" font-size="10.00">hfa_dev_set_fnp_pperror</text>
</a>
</g>
<!-- Node9&#45;&gt;Node26 -->
<g id="edge50" class="edge"><title>Node9&#45;&gt;Node26</title>
<path fill="none" stroke="midnightblue" d="M174.245,-1072.5C196.558,-1059.31 236.973,-1036.73 274,-1023 280.784,-1020.48 287.998,-1018.2 295.232,-1016.15"/>
<polygon fill="midnightblue" stroke="midnightblue" points="296.323,-1019.48 305.07,-1013.5 294.504,-1012.72 296.323,-1019.48"/>
</g>
<!-- Node27 -->
<g id="node53" class="node"><title>Node27</title>
<a xlink:href="cvm-hfa_8c.html#ac115556b315ff135ed2fd059cdf7d066" target="_top" xlink:title="Default function pointer for PP errors.">
<polygon fill="white" stroke="black" points="301.5,-952.5 301.5,-973.5 412.5,-973.5 412.5,-952.5 301.5,-952.5"/>
<text text-anchor="middle" x="357" y="-960.5" font-family="FreeSans" font-size="10.00">hfa_defaultfn_pperr</text>
</a>
</g>
<!-- Node9&#45;&gt;Node27 -->
<g id="edge52" class="edge"><title>Node9&#45;&gt;Node27</title>
<path fill="none" stroke="midnightblue" d="M166.139,-1072.39C184.444,-1051.84 227.826,-1006.56 274,-983 279.545,-980.17 285.505,-977.731 291.594,-975.63"/>
<polygon fill="midnightblue" stroke="midnightblue" points="292.739,-978.939 301.228,-972.599 290.638,-972.261 292.739,-978.939"/>
</g>
<!-- Node29 -->
<g id="node57" class="node"><title>Node29</title>
<a xlink:href="cvm-hfa-graph_8c.html#a80a6427d5a90c7bd1e4cbfd62a808524" target="_top" xlink:title="This routine initializes a graph object which can be used to perform various operations on a graph fi...">
<polygon fill="white" stroke="black" points="303.5,-672.5 303.5,-693.5 410.5,-693.5 410.5,-672.5 303.5,-672.5"/>
<text text-anchor="middle" x="357" y="-680.5" font-family="FreeSans" font-size="10.00">hfa_dev_graph_init</text>
</a>
</g>
<!-- Node28&#45;&gt;Node29 -->
<g id="edge56" class="edge"><title>Node28&#45;&gt;Node29</title>
<path fill="none" stroke="midnightblue" d="M191.837,-666.484C219.729,-669.273 259.6,-673.26 293.18,-676.618"/>
<polygon fill="midnightblue" stroke="midnightblue" points="293.08,-680.125 303.379,-677.638 293.777,-673.16 293.08,-680.125"/>
</g>
<!-- Node30 -->
<g id="node59" class="node"><title>Node30</title>
<a xlink:href="cvm-hfa-graph_8c.html#a32df4a93ffcd7da232613b13204b2a80" target="_top" xlink:title="This routine sets the cluster&#45;mask for the graph.">
<polygon fill="white" stroke="black" points="298.5,-632.5 298.5,-653.5 415.5,-653.5 415.5,-632.5 298.5,-632.5"/>
<text text-anchor="middle" x="357" y="-640.5" font-family="FreeSans" font-size="10.00">hfa_graph_setcluster</text>
</a>
</g>
<!-- Node28&#45;&gt;Node30 -->
<g id="edge58" class="edge"><title>Node28&#45;&gt;Node30</title>
<path fill="none" stroke="midnightblue" d="M191.837,-659.516C218.296,-656.87 255.535,-653.147 287.957,-649.904"/>
<polygon fill="midnightblue" stroke="midnightblue" points="288.692,-653.348 298.294,-648.871 287.996,-646.383 288.692,-653.348"/>
</g>
<!-- Node31 -->
<g id="node61" class="node"><title>Node31</title>
<a xlink:href="app-utils_8c.html#aed95bb72627cff313c596ebcfcd8af61" target="_top" xlink:title="Parse graph into chunks and load graph to HFA memory.">
<polygon fill="white" stroke="red" points="289.5,-592.5 289.5,-613.5 424.5,-613.5 424.5,-592.5 289.5,-592.5"/>
<text text-anchor="middle" x="357" y="-600.5" font-family="FreeSans" font-size="10.00">hfautils_download_graph</text>
</a>
</g>
<!-- Node28&#45;&gt;Node31 -->
<g id="edge60" class="edge"><title>Node28&#45;&gt;Node31</title>
<path fill="none" stroke="midnightblue" d="M191.517,-656.593C206.131,-653.342 223.172,-648.83 238,-643 255.034,-636.303 256.947,-629.649 274,-623 280.309,-620.54 287.01,-618.321 293.762,-616.335"/>
<polygon fill="midnightblue" stroke="midnightblue" points="294.95,-619.638 303.651,-613.592 293.079,-612.893 294.95,-619.638"/>
</g>
<!-- Node32 -->
<g id="node63" class="node"><title>Node32</title>
<a xlink:href="cvm-hfa-graph_8c.html#a60861d15ed5f6bccc42bbde834aa2b32" target="_top" xlink:title="This routine is used to cacheload a cacheable graph in a blocking manner.">
<polygon fill="white" stroke="red" points="297,-552.5 297,-573.5 417,-573.5 417,-552.5 297,-552.5"/>
<text text-anchor="middle" x="357" y="-560.5" font-family="FreeSans" font-size="10.00">hfa_graph_cacheload</text>
</a>
</g>
<!-- Node28&#45;&gt;Node32 -->
<g id="edge62" class="edge"><title>Node28&#45;&gt;Node32</title>
<path fill="none" stroke="midnightblue" d="M191.858,-660.422C207.203,-657.85 224.718,-652.811 238,-643 263.014,-624.522 248.934,-601.407 274,-583 278.15,-579.953 282.701,-577.364 287.469,-575.166"/>
<polygon fill="midnightblue" stroke="midnightblue" points="288.878,-578.372 296.857,-571.402 286.272,-571.875 288.878,-578.372"/>
</g>
<!-- Node33 -->
<g id="node65" class="node"><title>Node33</title>
<a xlink:href="cvm-hfa-graph_8c.html#a5e79919f5903d97aee5e82bfc7e71597" target="_top" xlink:title="This routine is the counterpart of hfa_dev_graph_init().">
<polygon fill="white" stroke="black" points="291,-512.5 291,-533.5 423,-533.5 423,-512.5 291,-512.5"/>
<text text-anchor="middle" x="357" y="-520.5" font-family="FreeSans" font-size="10.00">hfa_dev_graph_cleanup</text>
</a>
</g>
<!-- Node28&#45;&gt;Node33 -->
<g id="edge64" class="edge"><title>Node28&#45;&gt;Node33</title>
<path fill="none" stroke="midnightblue" d="M191.575,-661.751C207.412,-659.5 225.413,-654.348 238,-643 273.084,-611.371 238.827,-574.531 274,-543 276.483,-540.774 279.171,-538.785 282.009,-537.008"/>
<polygon fill="midnightblue" stroke="midnightblue" points="283.716,-540.064 290.914,-532.29 280.439,-533.878 283.716,-540.064"/>
</g>
<!-- Node34 -->
<g id="node67" class="node"><title>Node34</title>
<a xlink:href="cvm-hfa-graph_8c.html#abbfd41020571ab71bee78818f54f88b8" target="_top" xlink:title="This is a utility routine which returns the savelen property of the graph.">
<polygon fill="white" stroke="black" points="295.5,-712.5 295.5,-733.5 418.5,-733.5 418.5,-712.5 295.5,-712.5"/>
<text text-anchor="middle" x="357" y="-720.5" font-family="FreeSans" font-size="10.00">hfa_graph_getsavelen</text>
</a>
</g>
<!-- Node28&#45;&gt;Node34 -->
<g id="edge66" class="edge"><title>Node28&#45;&gt;Node34</title>
<path fill="none" stroke="midnightblue" d="M185.612,-673.615C209.154,-682.147 243.492,-694.13 274,-703 282.376,-705.435 291.288,-707.808 300.046,-710.018"/>
<polygon fill="midnightblue" stroke="midnightblue" points="299.284,-713.435 309.832,-712.439 300.965,-706.64 299.284,-713.435"/>
</g>
<!-- Node36 -->
<g id="node71" class="node"><title>Node36</title>
<a xlink:href="cvm-hfa-search_8c.html#a64ba7a41c7d677da10e588a58789015b" target="_top" xlink:title="This routine initializes a Search Context.">
<polygon fill="white" stroke="red" points="293.5,-0.5 293.5,-21.5 420.5,-21.5 420.5,-0.5 293.5,-0.5"/>
<text text-anchor="middle" x="357" y="-8.5" font-family="FreeSans" font-size="10.00">hfa_dev_searchctx_init</text>
</a>
</g>
<!-- Node35&#45;&gt;Node36 -->
<g id="edge70" class="edge"><title>Node35&#45;&gt;Node36</title>
<path fill="none" stroke="midnightblue" d="M194.618,-27.2382C219.526,-24.7474 253.03,-21.397 283.135,-18.3865"/>
<polygon fill="midnightblue" stroke="midnightblue" points="283.595,-21.8581 293.197,-17.3803 282.898,-14.8928 283.595,-21.8581"/>
</g>
<!-- Node37 -->
<g id="node73" class="node"><title>Node37</title>
<a xlink:href="cvm-hfa-search_8c.html#a954753c0e6f4a59599d05f1262a25b38" target="_top" xlink:title="This routine associates a graph with sctx.">
<polygon fill="white" stroke="red" points="291,-40.5 291,-61.5 423,-61.5 423,-40.5 291,-40.5"/>
<text text-anchor="middle" x="357" y="-48.5" font-family="FreeSans" font-size="10.00">hfa_searchctx_setgraph</text>
</a>
</g>
<!-- Node35&#45;&gt;Node37 -->
<g id="edge72" class="edge"><title>Node35&#45;&gt;Node37</title>
<path fill="none" stroke="midnightblue" d="M194.618,-34.7618C218.81,-37.181 251.111,-40.4111 280.532,-43.3532"/>
<polygon fill="midnightblue" stroke="midnightblue" points="280.501,-46.8675 290.8,-44.38 281.198,-39.9022 280.501,-46.8675"/>
</g>
<!-- Node50&#45;&gt;Node33 -->
<g id="edge100" class="edge"><title>Node50&#45;&gt;Node33</title>
<path fill="none" stroke="midnightblue" d="M184.017,-621.56C200.927,-619.472 222.388,-614.533 238,-603 263.014,-584.522 248.934,-561.407 274,-543 276.488,-541.173 279.121,-539.51 281.858,-537.998"/>
<polygon fill="midnightblue" stroke="midnightblue" points="283.402,-541.14 290.907,-533.662 280.377,-534.827 283.402,-541.14"/>
</g>
</g>
</svg>
