<?xml version="1.0" encoding="UTF-8" standalone="no"?>
<!DOCTYPE svg PUBLIC "-//W3C//DTD SVG 1.1//EN"
 "http://www.w3.org/Graphics/SVG/1.1/DTD/svg11.dtd">
<!-- Generated by graphviz version 2.24.0 (20090616.2323)
 -->
<!-- Title: do_cache Pages: 1 -->
<svg width="280pt" height="30pt"
 viewBox="0.00 0.00 280.00 30.00" xmlns="http://www.w3.org/2000/svg" xmlns:xlink="http://www.w3.org/1999/xlink">
<g id="graph1" class="graph" transform="scale(1 1) rotate(0) translate(4 26)">
<title>do_cache</title>
<polygon fill="white" stroke="white" points="-4,5 -4,-26 277,-26 277,5 -4,5"/>
<!-- Node1 -->
<g id="node1" class="node"><title>Node1</title>
<polygon fill="#bfbfbf" stroke="black" points="0.5,-0.5 0.5,-21.5 63.5,-21.5 63.5,-0.5 0.5,-0.5"/>
<text text-anchor="middle" x="32" y="-8.5" font-family="FreeSans" font-size="10.00">do_cache</text>
</g>
<!-- Node2 -->
<g id="node3" class="node"><title>Node2</title>
<a xlink:href="hfa-se-flow_8c.html#aba72a61590283e37ffd78b4defd38220" target="_top" xlink:title="Receive network packets and process.">
<polygon fill="white" stroke="black" points="100,-0.5 100,-21.5 196,-21.5 196,-0.5 100,-0.5"/>
<text text-anchor="middle" x="148" y="-8.5" font-family="FreeSans" font-size="10.00">process_packets</text>
</a>
</g>
<!-- Node1&#45;&gt;Node2 -->
<g id="edge2" class="edge"><title>Node1&#45;&gt;Node2</title>
<path fill="none" stroke="midnightblue" d="M73.7114,-11C82.1698,-11 91.1311,-11 99.7923,-11"/>
<polygon fill="midnightblue" stroke="midnightblue" points="73.6975,-7.5001 63.6975,-11 73.6975,-14.5001 73.6975,-7.5001"/>
</g>
<!-- Node3 -->
<g id="node5" class="node"><title>Node3</title>
<a xlink:href="hfa-se-flow-wqe_8c.html#a3c04138a5bfe5d72780bb7e82a18e627" target="_top" xlink:title="Implementation.">
<polygon fill="white" stroke="black" points="232,-0.5 232,-21.5 272,-21.5 272,-0.5 232,-0.5"/>
<text text-anchor="middle" x="252" y="-8.5" font-family="FreeSans" font-size="10.00">main</text>
</a>
</g>
<!-- Node2&#45;&gt;Node3 -->
<g id="edge4" class="edge"><title>Node2&#45;&gt;Node3</title>
<path fill="none" stroke="midnightblue" d="M206.146,-11C215.414,-11 224.419,-11 231.958,-11"/>
<polygon fill="midnightblue" stroke="midnightblue" points="206.043,-7.5001 196.042,-11 206.042,-14.5001 206.043,-7.5001"/>
</g>
</g>
</svg>
