<?xml version="1.0" encoding="UTF-8" standalone="no"?>
<!DOCTYPE svg PUBLIC "-//W3C//DTD SVG 1.1//EN"
 "http://www.w3.org/Graphics/SVG/1.1/DTD/svg11.dtd">
<!-- Generated by graphviz version 2.24.0 (20090616.2323)
 -->
<!-- Title: process_pkt Pages: 1 -->
<!--zoomable 856 -->
<svg id="main" version="1.1" xmlns="http://www.w3.org/2000/svg" xmlns:xlink="http://www.w3.org/1999/xlink" xml:space="preserve" onload="init(evt)">
        <defs>
                <circle id="rim" cx="0" cy="0" r="7"/>
                <circle id="rim2" cx="0" cy="0" r="3.5"/>
                <g id="zoomPlus">
                        <use xlink:href="#rim" fill="#404040">
                                <set attributeName="fill" to="#808080" begin="zoomplus.mouseover" end="zoomplus.mouseout"/>
                        </use>
                        <path d="M-4,0h8M0,-4v8" fill="none" stroke="white" stroke-width="1.5" pointer-events="none"/>
                </g>
                <g id="zoomMin">
                        <use xlink:href="#rim" fill="#404040">
                                <set attributeName="fill" to="#808080" begin="zoomminus.mouseover" end="zoomminus.mouseout"/>
                        </use>
                        <path d="M-4,0h8" fill="none" stroke="white" stroke-width="1.5" pointer-events="none"/>
                </g>
                <g id="dirArrow">
                        <path fill="none" stroke="white" stroke-width="1.5" d="M0,-3.0v7 M-2.5,-0.5L0,-3.0L2.5,-0.5"/>
                </g>
               <g id="resetDef">
                       <use xlink:href="#rim2" fill="#404040">
                               <set attributeName="fill" to="#808080" begin="reset.mouseover" end="reset.mouseout"/>
                       </use>
               </g>
        </defs>

<script type="text/javascript">
var viewWidth = 1576;
var viewHeight = 856;
var sectionId = 'dynsection-21';
</script>
<script xlink:href="svgpan.js"/>
<svg id="graph" class="graph">
<g id="viewport">
<title>process_pkt</title>
<polygon fill="white" stroke="white" points="-4,5 -4,-852 1573,-852 1573,5 -4,5"/>
<!-- Node1 -->
<g id="node1" class="node"><title>Node1</title>
<polygon fill="#bfbfbf" stroke="black" points="0,-155.5 0,-176.5 74,-176.5 74,-155.5 0,-155.5"/>
<text text-anchor="middle" x="37" y="-163.5" font-family="FreeSans" font-size="10.00">process_pkt</text>
</g>
<!-- Node2 -->
<g id="node3" class="node"><title>Node2</title>
<a xlink:href="hfa-lnx-ctx_8c.html#a1bf8357c95e9c9afcbc15f7f45d349a8" target="_top" xlink:title="get_sparam">
<polygon fill="white" stroke="black" points="123.5,-600.5 123.5,-621.5 196.5,-621.5 196.5,-600.5 123.5,-600.5"/>
<text text-anchor="middle" x="160" y="-608.5" font-family="FreeSans" font-size="10.00">get_sparam</text>
</a>
</g>
<!-- Node1&#45;&gt;Node2 -->
<g id="edge2" class="edge"><title>Node1&#45;&gt;Node2</title>
<path fill="none" stroke="midnightblue" d="M39.9191,-176.561C55.8694,-234.267 132.557,-511.713 154.264,-590.246"/>
<polygon fill="midnightblue" stroke="midnightblue" points="151.016,-591.634 157.054,-600.34 157.763,-589.769 151.016,-591.634"/>
</g>
<!-- Node3 -->
<g id="node5" class="node"><title>Node3</title>
<a xlink:href="hfa-se-flow_8c.html#a7ab45fe0bf9371bbe81609ffe8a62702" target="_top" xlink:title="Cleanup memory allocated for search parameters.">
<polygon fill="white" stroke="black" points="273.5,-708.5 273.5,-729.5 340.5,-729.5 340.5,-708.5 273.5,-708.5"/>
<text text-anchor="middle" x="307" y="-716.5" font-family="FreeSans" font-size="10.00">freeparam</text>
</a>
</g>
<!-- Node1&#45;&gt;Node3 -->
<g id="edge26" class="edge"><title>Node1&#45;&gt;Node3</title>
<path fill="none" stroke="midnightblue" d="M37.3738,-176.659C39.7432,-238.878 54.4054,-554.98 110,-631 146.386,-680.755 217.392,-702.905 263.476,-712.382"/>
<polygon fill="midnightblue" stroke="midnightblue" points="262.996,-715.854 273.479,-714.321 264.328,-708.982 262.996,-715.854"/>
</g>
<!-- Node9 -->
<g id="node17" class="node"><title>Node9</title>
<a xlink:href="hfa-lnx-ctx_8c.html#a07eb255c008c854386962d955ebe636e" target="_top" xlink:title="sendpktwqe">
<polygon fill="white" stroke="black" points="123,-767.5 123,-788.5 197,-788.5 197,-767.5 123,-767.5"/>
<text text-anchor="middle" x="160" y="-775.5" font-family="FreeSans" font-size="10.00">sendpktwqe</text>
</a>
</g>
<!-- Node1&#45;&gt;Node9 -->
<g id="edge16" class="edge"><title>Node1&#45;&gt;Node9</title>
<path fill="none" stroke="midnightblue" d="M37.8587,-176.921C43.2048,-243.701 72.9103,-597.453 110,-699 118.146,-721.304 133.31,-743.914 144.81,-759.197"/>
<polygon fill="midnightblue" stroke="midnightblue" points="142.188,-761.527 151.078,-767.291 147.723,-757.242 142.188,-761.527"/>
</g>
<!-- Node12 -->
<g id="node24" class="node"><title>Node12</title>
<a xlink:href="hfa-lnx-ctx_8c.html#a9309c0b1faf948cf8698429ff743fcab" target="_top" xlink:title="addsearchparam">
<polygon fill="white" stroke="black" points="111,-40.5 111,-61.5 209,-61.5 209,-40.5 111,-40.5"/>
<text text-anchor="middle" x="160" y="-48.5" font-family="FreeSans" font-size="10.00">addsearchparam</text>
</a>
</g>
<!-- Node1&#45;&gt;Node12 -->
<g id="edge24" class="edge"><title>Node1&#45;&gt;Node12</title>
<path fill="none" stroke="midnightblue" d="M43.4727,-155.335C54.9621,-137.117 80.5063,-99.6793 110,-76 114.446,-72.4304 119.485,-69.1825 124.61,-66.2967"/>
<polygon fill="midnightblue" stroke="midnightblue" points="126.566,-69.2244 133.82,-61.5019 123.333,-63.0155 126.566,-69.2244"/>
</g>
<!-- Node13 -->
<g id="node27" class="node"><title>Node13</title>
<a xlink:href="cvm-hfa-search_8c.html#a0c36da280b39bd8afdf6081baea24472" target="_top" xlink:title="This routine performs a pattern search using the given parameters in a non&#45;blocking manner...">
<polygon fill="white" stroke="black" points="1082.5,-111 1082.5,-145 1205.5,-145 1205.5,-111 1082.5,-111"/>
<text text-anchor="start" x="1090.5" y="-132" font-family="FreeSans" font-size="10.00">hfa_searchctx_search</text>
<text text-anchor="middle" x="1144" y="-119" font-family="FreeSans" font-size="10.00">_async</text>
</a>
</g>
<!-- Node1&#45;&gt;Node13 -->
<g id="edge28" class="edge"><title>Node1&#45;&gt;Node13</title>
<path fill="none" stroke="midnightblue" d="M58.8134,-155.433C103.991,-134.55 211.555,-90 307,-90 307,-90 307,-90 833,-90 915.442,-90 1009.28,-103.319 1072.11,-114.187"/>
<polygon fill="midnightblue" stroke="midnightblue" points="1071.86,-117.696 1082.31,-115.977 1073.07,-110.801 1071.86,-117.696"/>
</g>
<!-- Node14 -->
<g id="node29" class="node"><title>Node14</title>
<a xlink:href="hfa-lnx-ctx_8c.html#a77695c0833b3a3ee78df0d66b41c510e" target="_top" xlink:title="submit">
<polygon fill="white" stroke="black" points="454,-120.5 454,-141.5 502,-141.5 502,-120.5 454,-120.5"/>
<text text-anchor="middle" x="478" y="-128.5" font-family="FreeSans" font-size="10.00">submit</text>
</a>
</g>
<!-- Node1&#45;&gt;Node14 -->
<g id="edge30" class="edge"><title>Node1&#45;&gt;Node14</title>
<path fill="none" stroke="midnightblue" d="M74.2193,-163.046C158.382,-156.366 362.323,-140.181 443.668,-133.725"/>
<polygon fill="midnightblue" stroke="midnightblue" points="444.169,-137.196 453.861,-132.916 443.615,-130.218 444.169,-137.196"/>
</g>
<!-- Node15 -->
<g id="node32" class="node"><title>Node15</title>
<a xlink:href="hfa-lnx-ctx_8c.html#a934a9fc08c4aab25d6f0d861e4a4f762" target="_top" xlink:title="poll">
<polygon fill="white" stroke="black" points="143.5,-178.5 143.5,-199.5 176.5,-199.5 176.5,-178.5 143.5,-178.5"/>
<text text-anchor="middle" x="160" y="-186.5" font-family="FreeSans" font-size="10.00">poll</text>
</a>
</g>
<!-- Node1&#45;&gt;Node15 -->
<g id="edge34" class="edge"><title>Node1&#45;&gt;Node15</title>
<path fill="none" stroke="midnightblue" d="M74.2378,-172.963C93.3266,-176.533 116.129,-180.797 133.422,-184.03"/>
<polygon fill="midnightblue" stroke="midnightblue" points="132.922,-187.497 143.395,-185.895 134.208,-180.616 132.922,-187.497"/>
</g>
<!-- Node50 -->
<g id="node107" class="node"><title>Node50</title>
<a xlink:href="app-utils_8c.html#a2ef10d45430fedd0dba3431f8d6ee14a" target="_top" xlink:title="Print performance statistics.">
<polygon fill="white" stroke="black" points="110.5,-0.5 110.5,-21.5 209.5,-21.5 209.5,-0.5 110.5,-0.5"/>
<text text-anchor="middle" x="160" y="-8.5" font-family="FreeSans" font-size="10.00">hfautils_printstats</text>
</a>
</g>
<!-- Node1&#45;&gt;Node50 -->
<g id="edge114" class="edge"><title>Node1&#45;&gt;Node50</title>
<path fill="none" stroke="midnightblue" d="M40.0099,-155.293C47.5954,-130.158 69.8142,-66.804 110,-31 111.73,-29.4588 113.593,-28.0285 115.548,-26.7022"/>
<polygon fill="midnightblue" stroke="midnightblue" points="117.638,-29.5386 124.576,-21.5308 114.159,-23.4646 117.638,-29.5386"/>
</g>
<!-- Node2&#45;&gt;Node3 -->
<g id="edge4" class="edge"><title>Node2&#45;&gt;Node3</title>
<path fill="none" stroke="midnightblue" d="M167.546,-621.543C181.184,-639.865 211.726,-677.661 246,-699 251.464,-702.402 257.567,-705.286 263.742,-707.714"/>
<polygon fill="midnightblue" stroke="midnightblue" points="262.831,-711.105 273.425,-711.162 265.179,-704.51 262.831,-711.105"/>
</g>
<!-- Node5 -->
<g id="node9" class="node"><title>Node5</title>
<a xlink:href="cvm-hfa-search_8h.html#a0210e636ef06f718be0e67753bebaa04" target="_top" xlink:title="This routine configures the application callback routine which will be invoked when a pattern match i...">
<polygon fill="white" stroke="black" points="246.5,-526 246.5,-560 367.5,-560 367.5,-526 246.5,-526"/>
<text text-anchor="start" x="254.5" y="-547" font-family="FreeSans" font-size="10.00">hfa_searchparam_set</text>
<text text-anchor="middle" x="307" y="-534" font-family="FreeSans" font-size="10.00">_matchcb</text>
</a>
</g>
<!-- Node2&#45;&gt;Node5 -->
<g id="edge8" class="edge"><title>Node2&#45;&gt;Node5</title>
<path fill="none" stroke="midnightblue" d="M182.969,-600.375C203.753,-590.761 234.986,-576.313 260.909,-564.321"/>
<polygon fill="midnightblue" stroke="midnightblue" points="262.584,-567.403 270.19,-560.028 259.645,-561.05 262.584,-567.403"/>
</g>
<!-- Node6 -->
<g id="node11" class="node"><title>Node6</title>
<a xlink:href="app-utils_8c.html#a97d86363214adebf7bbc22fa81e2c6b6" target="_top" xlink:title="Match callback to count number of matches.">
<polygon fill="white" stroke="black" points="257.5,-668.5 257.5,-689.5 356.5,-689.5 356.5,-668.5 257.5,-668.5"/>
<text text-anchor="middle" x="307" y="-676.5" font-family="FreeSans" font-size="10.00">hfautils_matchcb</text>
</a>
</g>
<!-- Node2&#45;&gt;Node6 -->
<g id="edge10" class="edge"><title>Node2&#45;&gt;Node6</title>
<path fill="none" stroke="midnightblue" d="M176.639,-621.556C193.613,-632.016 220.942,-648.021 246,-659 250.976,-661.18 256.27,-663.256 261.579,-665.187"/>
<polygon fill="midnightblue" stroke="midnightblue" points="260.491,-668.514 271.086,-668.498 262.794,-661.904 260.491,-668.514"/>
</g>
<!-- Node7 -->
<g id="node13" class="node"><title>Node7</title>
<a xlink:href="cvm-hfa-search_8h.html#a3c407460808f038770473ffc6e4b5c38" target="_top" xlink:title="This routine adds a new input IO vector to Search Param.">
<polygon fill="white" stroke="black" points="246.5,-616 246.5,-650 367.5,-650 367.5,-616 246.5,-616"/>
<text text-anchor="start" x="254.5" y="-637" font-family="FreeSans" font-size="10.00">hfa_searchparam_set</text>
<text text-anchor="middle" x="307" y="-624" font-family="FreeSans" font-size="10.00">_inputiovec</text>
</a>
</g>
<!-- Node2&#45;&gt;Node7 -->
<g id="edge12" class="edge"><title>Node2&#45;&gt;Node7</title>
<path fill="none" stroke="midnightblue" d="M196.715,-616.495C208.827,-618.307 222.735,-620.389 236.502,-622.449"/>
<polygon fill="midnightblue" stroke="midnightblue" points="236.066,-625.923 246.474,-623.942 237.103,-619 236.066,-625.923"/>
</g>
<!-- Node8 -->
<g id="node15" class="node"><title>Node8</title>
<a xlink:href="cvm-hfa-search_8h.html#a12882fa53f8ec49b9b2950711161db42" target="_top" xlink:title="This routine sets the output buffer in the sparam.">
<polygon fill="white" stroke="black" points="898.5,-762 898.5,-796 1019.5,-796 1019.5,-762 898.5,-762"/>
<text text-anchor="start" x="906.5" y="-783" font-family="FreeSans" font-size="10.00">hfa_searchparam_set</text>
<text text-anchor="middle" x="959" y="-770" font-family="FreeSans" font-size="10.00">_output</text>
</a>
</g>
<!-- Node2&#45;&gt;Node8 -->
<g id="edge14" class="edge"><title>Node2&#45;&gt;Node8</title>
<path fill="none" stroke="midnightblue" d="M196.662,-606.62C255.78,-599.946 375.875,-588 478,-588 478,-588 478,-588 740,-588 840.92,-588 812.845,-695.815 896,-753 898.09,-754.437 900.272,-755.816 902.515,-757.136"/>
<polygon fill="midnightblue" stroke="midnightblue" points="900.949,-760.268 911.411,-761.937 904.273,-754.108 900.949,-760.268"/>
</g>
<!-- Node4 -->
<g id="node7" class="node"><title>Node4</title>
<a xlink:href="hfa-se-flow_8c.html#a49535197bf697f5b0b5f2952e1e5063c" target="_top" xlink:title="Free packet buffer and wqe to the corresponding fpa pools.">
<polygon fill="white" stroke="black" points="458.5,-747.5 458.5,-768.5 497.5,-768.5 497.5,-747.5 458.5,-747.5"/>
<text text-anchor="middle" x="478" y="-755.5" font-family="FreeSans" font-size="10.00">send</text>
</a>
</g>
<!-- Node3&#45;&gt;Node4 -->
<g id="edge6" class="edge"><title>Node3&#45;&gt;Node4</title>
<path fill="none" stroke="midnightblue" d="M340.784,-726.705C372.128,-733.854 418.326,-744.39 448.293,-751.225"/>
<polygon fill="midnightblue" stroke="midnightblue" points="447.637,-754.665 458.165,-753.476 449.193,-747.84 447.637,-754.665"/>
</g>
<!-- Node9&#45;&gt;Node4 -->
<g id="edge20" class="edge"><title>Node9&#45;&gt;Node4</title>
<path fill="none" stroke="midnightblue" d="M197.25,-778.528C212.378,-778.717 230.023,-778.907 246,-779 300.221,-779.315 314.019,-784.107 368,-779 395.571,-776.392 426.515,-770.185 448.544,-765.191"/>
<polygon fill="midnightblue" stroke="midnightblue" points="449.34,-768.599 458.29,-762.929 447.757,-761.78 449.34,-768.599"/>
</g>
<!-- Node10 -->
<g id="node19" class="node"><title>Node10</title>
<a xlink:href="hfa-lnx-ctx_8c.html#aee1d462f9d43161cf38d392ac80596a7" target="_top" xlink:title="freepktwqe">
<polygon fill="white" stroke="black" points="272,-748.5 272,-769.5 342,-769.5 342,-748.5 272,-748.5"/>
<text text-anchor="middle" x="307" y="-756.5" font-family="FreeSans" font-size="10.00">freepktwqe</text>
</a>
</g>
<!-- Node9&#45;&gt;Node10 -->
<g id="edge18" class="edge"><title>Node9&#45;&gt;Node10</title>
<path fill="none" stroke="midnightblue" d="M197.094,-773.205C216.74,-770.666 241.027,-767.527 261.771,-764.846"/>
<polygon fill="midnightblue" stroke="midnightblue" points="262.473,-768.284 271.942,-763.531 261.575,-761.342 262.473,-768.284"/>
</g>
<!-- Node11 -->
<g id="node22" class="node"><title>Node11</title>
<a xlink:href="hfa-lnx-ctx_8c.html#abb3fee4415d5c2eb56562bf80c4e75f9" target="_top" xlink:title="resubmit">
<polygon fill="white" stroke="black" points="278,-826.5 278,-847.5 336,-847.5 336,-826.5 278,-826.5"/>
<text text-anchor="middle" x="307" y="-834.5" font-family="FreeSans" font-size="10.00">resubmit</text>
</a>
</g>
<!-- Node9&#45;&gt;Node11 -->
<g id="edge22" class="edge"><title>Node9&#45;&gt;Node11</title>
<path fill="none" stroke="midnightblue" d="M186.281,-788.548C209.86,-798.012 244.683,-811.988 270.876,-822.501"/>
<polygon fill="midnightblue" stroke="midnightblue" points="269.867,-825.868 280.451,-826.344 272.475,-819.371 269.867,-825.868"/>
</g>
<!-- Node14&#45;&gt;Node13 -->
<g id="edge32" class="edge"><title>Node14&#45;&gt;Node13</title>
<path fill="none" stroke="midnightblue" d="M502.2,-130.538C548.415,-129.696 652.433,-128 740,-128 740,-128 740,-128 833,-128 914.961,-128 1009.07,-128 1072.11,-128"/>
<polygon fill="midnightblue" stroke="midnightblue" points="1072.34,-131.5 1082.34,-128 1072.34,-124.5 1072.34,-131.5"/>
</g>
<!-- Node16 -->
<g id="node34" class="node"><title>Node16</title>
<a xlink:href="hfa-lnx-ctx_8c.html#a71e1d3d18cc48b90a1ecde583ffb3f7a" target="_top" xlink:title="poll_searchctx">
<polygon fill="white" stroke="black" points="264,-185.5 264,-206.5 350,-206.5 350,-185.5 264,-185.5"/>
<text text-anchor="middle" x="307" y="-193.5" font-family="FreeSans" font-size="10.00">poll_searchctx</text>
</a>
</g>
<!-- Node15&#45;&gt;Node16 -->
<g id="edge36" class="edge"><title>Node15&#45;&gt;Node16</title>
<path fill="none" stroke="midnightblue" d="M176.577,-189.789C195.22,-190.677 226.451,-192.164 253.678,-193.461"/>
<polygon fill="midnightblue" stroke="midnightblue" points="253.727,-196.967 263.882,-193.947 254.06,-189.975 253.727,-196.967"/>
</g>
<!-- Node17 -->
<g id="node36" class="node"><title>Node17</title>
<a xlink:href="cvm-hfa-search_8c.html#a6a8e1d7e70e0a10520302df5651e5fc5" target="_top" xlink:title="This routine provides the status of an outstanding pattern search operation initiated using hfa_searc...">
<polygon fill="white" stroke="black" points="1058,-227.5 1058,-248.5 1230,-248.5 1230,-227.5 1058,-227.5"/>
<text text-anchor="middle" x="1144" y="-235.5" font-family="FreeSans" font-size="10.00">hfa_searchctx_get_searchstatus</text>
</a>
</g>
<!-- Node16&#45;&gt;Node17 -->
<g id="edge38" class="edge"><title>Node16&#45;&gt;Node17</title>
<path fill="none" stroke="midnightblue" d="M350.173,-200.801C412.215,-207.274 530.222,-218 631,-218 631,-218 631,-218 833,-218 905.136,-218 986.491,-223.425 1047.9,-228.624"/>
<polygon fill="midnightblue" stroke="midnightblue" points="1047.7,-232.12 1057.96,-229.489 1048.3,-225.145 1047.7,-232.12"/>
</g>
<!-- Node21 -->
<g id="node44" class="node"><title>Node21</title>
<a xlink:href="cvm-hfa-search_8h.html#ab50a2d84e35b5a4a03a23fc90e4dffa0" target="_top" xlink:title="This routine retrieves the reason code after a search operation has been completed by the HFA engine...">
<polygon fill="white" stroke="black" points="898,-156 898,-190 1020,-190 1020,-156 898,-156"/>
<text text-anchor="start" x="906" y="-177" font-family="FreeSans" font-size="10.00">hfa_searchparam_get</text>
<text text-anchor="middle" x="959" y="-164" font-family="FreeSans" font-size="10.00">_hwsearch_reason</text>
</a>
</g>
<!-- Node16&#45;&gt;Node21 -->
<g id="edge46" class="edge"><title>Node16&#45;&gt;Node21</title>
<path fill="none" stroke="midnightblue" d="M350.184,-191.636C412.239,-185.751 530.262,-176 631,-176 631,-176 631,-176 740,-176 789.283,-176 844.799,-175.231 887.604,-174.472"/>
<polygon fill="midnightblue" stroke="midnightblue" points="887.709,-177.97 897.644,-174.29 887.582,-170.972 887.709,-177.97"/>
</g>
<!-- Node22 -->
<g id="node46" class="node"><title>Node22</title>
<a xlink:href="cvm-hfa-search_8c.html#a6dbb15dc58155b2c94b19784ad42ef89" target="_top" xlink:title="This routine post&#45;processes the search results from the HFA engine and reports the pattern matches fo...">
<polygon fill="white" stroke="black" points="404.5,-379.5 404.5,-400.5 551.5,-400.5 551.5,-379.5 404.5,-379.5"/>
<text text-anchor="middle" x="478" y="-387.5" font-family="FreeSans" font-size="10.00">hfa_searchctx_getmatches</text>
</a>
</g>
<!-- Node16&#45;&gt;Node22 -->
<g id="edge48" class="edge"><title>Node16&#45;&gt;Node22</title>
<path fill="none" stroke="midnightblue" d="M316.437,-206.707C344.283,-238.298 426.354,-331.407 461.606,-371.401"/>
<polygon fill="midnightblue" stroke="midnightblue" points="459.143,-373.9 468.381,-379.087 464.394,-369.271 459.143,-373.9"/>
</g>
<!-- Node18 -->
<g id="node38" class="node"><title>Node18</title>
<a xlink:href="cvm-hfa_8c.html#a4753d2dd586e19676b1a59dd16baaeed" target="_top" xlink:title="Obtain status of submitted insruction.">
<polygon fill="white" stroke="black" points="1266.5,-227.5 1266.5,-248.5 1399.5,-248.5 1399.5,-227.5 1266.5,-227.5"/>
<text text-anchor="middle" x="1333" y="-235.5" font-family="FreeSans" font-size="10.00">hfa_dev_getasyncstatus</text>
</a>
</g>
<!-- Node17&#45;&gt;Node18 -->
<g id="edge40" class="edge"><title>Node17&#45;&gt;Node18</title>
<path fill="none" stroke="midnightblue" d="M1230.2,-238C1238.95,-238 1247.79,-238 1256.43,-238"/>
<polygon fill="midnightblue" stroke="midnightblue" points="1256.45,-241.5 1266.45,-238 1256.45,-234.5 1256.45,-241.5"/>
</g>
<!-- Node19 -->
<g id="node40" class="node"><title>Node19</title>
<a xlink:href="cvm-hfa-instr_8h.html#a56f2522dcba965745a1bc239fc432dca" target="_top" xlink:title="Gets done from RWORD0.">
<polygon fill="white" stroke="black" points="1440.5,-247.5 1440.5,-268.5 1563.5,-268.5 1563.5,-247.5 1440.5,-247.5"/>
<text text-anchor="middle" x="1502" y="-255.5" font-family="FreeSans" font-size="10.00">cvm_hfa_rslt_getdone</text>
</a>
</g>
<!-- Node18&#45;&gt;Node19 -->
<g id="edge42" class="edge"><title>Node18&#45;&gt;Node19</title>
<path fill="none" stroke="midnightblue" d="M1399.79,-245.905C1409.83,-247.092 1420.21,-248.321 1430.34,-249.519"/>
<polygon fill="midnightblue" stroke="midnightblue" points="1430.02,-253.006 1440.36,-250.706 1430.84,-246.055 1430.02,-253.006"/>
</g>
<!-- Node20 -->
<g id="node42" class="node"><title>Node20</title>
<a xlink:href="cvm-hfa-instr_8h.html#a9700a50b68b6616506528eb725a8bda1" target="_top" xlink:title="Gets reason from RWORD0.">
<polygon fill="white" stroke="black" points="1436.5,-207.5 1436.5,-228.5 1567.5,-228.5 1567.5,-207.5 1436.5,-207.5"/>
<text text-anchor="middle" x="1502" y="-215.5" font-family="FreeSans" font-size="10.00">cvm_hfa_rslt_getreason</text>
</a>
</g>
<!-- Node18&#45;&gt;Node20 -->
<g id="edge44" class="edge"><title>Node18&#45;&gt;Node20</title>
<path fill="none" stroke="midnightblue" d="M1399.79,-230.095C1408.41,-229.075 1417.29,-228.025 1426.05,-226.989"/>
<polygon fill="midnightblue" stroke="midnightblue" points="1426.73,-230.433 1436.24,-225.782 1425.9,-223.481 1426.73,-230.433"/>
</g>
<!-- Node23 -->
<g id="node48" class="node"><title>Node23</title>
<a xlink:href="cvm-hfa-common_8h.html#a0da7c57174fb96d75ae9cc2ed3116a05" target="_top" xlink:title="Dump buffer pointed by &quot;buf&quot; in readable format.">
<polygon fill="white" stroke="black" points="588,-458.5 588,-479.5 674,-479.5 674,-458.5 588,-458.5"/>
<text text-anchor="middle" x="631" y="-466.5" font-family="FreeSans" font-size="10.00">hfa_dump_buf</text>
</a>
</g>
<!-- Node22&#45;&gt;Node23 -->
<g id="edge50" class="edge"><title>Node22&#45;&gt;Node23</title>
<path fill="none" stroke="midnightblue" d="M496.905,-400.564C518.684,-412.635 555.633,-432.809 588,-449 591.364,-450.683 594.897,-452.402 598.431,-454.091"/>
<polygon fill="midnightblue" stroke="midnightblue" points="597.137,-457.35 607.675,-458.445 600.12,-451.018 597.137,-457.35"/>
</g>
<!-- Node24 -->
<g id="node50" class="node"><title>Node24</title>
<a xlink:href="cvm-hfa-pp_8c.html#a02d24f276578f8a39a93968262a08f1d" target="_top" xlink:title="pp">
<polygon fill="white" stroke="black" points="616.5,-418.5 616.5,-439.5 645.5,-439.5 645.5,-418.5 616.5,-418.5"/>
<text text-anchor="middle" x="631" y="-426.5" font-family="FreeSans" font-size="10.00">pp</text>
</a>
</g>
<!-- Node22&#45;&gt;Node24 -->
<g id="edge52" class="edge"><title>Node22&#45;&gt;Node24</title>
<path fill="none" stroke="midnightblue" d="M519.404,-400.554C547.339,-407.675 583.246,-416.827 606.678,-422.8"/>
<polygon fill="midnightblue" stroke="midnightblue" points="605.937,-426.223 616.492,-425.302 607.666,-419.44 605.937,-426.223"/>
</g>
<!-- Node25 -->
<g id="node52" class="node"><title>Node25</title>
<a xlink:href="pp_8h.html#af7a68f9e08d3b54012ad008a4f47e1cd" target="_top" xlink:title="pphfa">
<polygon fill="white" stroke="black" points="718,-498.5 718,-519.5 762,-519.5 762,-498.5 718,-498.5"/>
<text text-anchor="middle" x="740" y="-506.5" font-family="FreeSans" font-size="10.00">pphfa</text>
</a>
</g>
<!-- Node24&#45;&gt;Node25 -->
<g id="edge54" class="edge"><title>Node24&#45;&gt;Node25</title>
<path fill="none" stroke="midnightblue" d="M645.742,-434.141C654.44,-437.579 665.394,-442.637 674,-449 693.232,-463.219 691.909,-473.356 710,-489 711.335,-490.154 712.739,-491.297 714.182,-492.416"/>
<polygon fill="midnightblue" stroke="midnightblue" points="712.48,-495.503 722.643,-498.495 716.564,-489.818 712.48,-495.503"/>
</g>
<!-- Node26 -->
<g id="node54" class="node"><title>Node26</title>
<a xlink:href="cvm-hfa-res_8c.html#ad0de0b790a5786053d59797884dbdd23" target="_top" xlink:title="Rinit">
<polygon fill="white" stroke="black" points="722,-458.5 722,-479.5 758,-479.5 758,-458.5 722,-458.5"/>
<text text-anchor="middle" x="740" y="-466.5" font-family="FreeSans" font-size="10.00">Rinit</text>
</a>
</g>
<!-- Node24&#45;&gt;Node26 -->
<g id="edge56" class="edge"><title>Node24&#45;&gt;Node26</title>
<path fill="none" stroke="midnightblue" d="M645.7,-434.395C662.756,-440.654 691.248,-451.109 712.458,-458.893"/>
<polygon fill="midnightblue" stroke="midnightblue" points="711.319,-462.203 721.913,-462.363 713.731,-455.632 711.319,-462.203"/>
</g>
<!-- Node27 -->
<g id="node56" class="node"><title>Node27</title>
<a xlink:href="cvm-hfa-pp_8c.html#adcc1149c628372e2e566c246870929cb" target="_top" xlink:title="infoentry">
<polygon fill="white" stroke="black" points="710.5,-378.5 710.5,-399.5 769.5,-399.5 769.5,-378.5 710.5,-378.5"/>
<text text-anchor="middle" x="740" y="-386.5" font-family="FreeSans" font-size="10.00">infoentry</text>
</a>
</g>
<!-- Node24&#45;&gt;Node27 -->
<g id="edge58" class="edge"><title>Node24&#45;&gt;Node27</title>
<path fill="none" stroke="midnightblue" d="M645.7,-423.605C660.017,-418.352 682.391,-410.141 701.753,-403.036"/>
<polygon fill="midnightblue" stroke="midnightblue" points="703.073,-406.28 711.255,-399.549 700.661,-399.708 703.073,-406.28"/>
</g>
<!-- Node47 -->
<g id="node101" class="node"><title>Node47</title>
<a xlink:href="cvm-hfa-res_8c.html#a6c56aa24fa6551b23e4283ae2d5bcad8" target="_top" xlink:title="Rreport1">
<polygon fill="white" stroke="black" points="711.5,-538.5 711.5,-559.5 768.5,-559.5 768.5,-538.5 711.5,-538.5"/>
<text text-anchor="middle" x="740" y="-546.5" font-family="FreeSans" font-size="10.00">Rreport1</text>
</a>
</g>
<!-- Node24&#45;&gt;Node47 -->
<g id="edge108" class="edge"><title>Node24&#45;&gt;Node47</title>
<path fill="none" stroke="midnightblue" d="M645.707,-432.949C654.83,-436.038 666.248,-441.15 674,-449 701.397,-476.742 684.798,-499.25 710,-529 710.842,-529.994 711.746,-530.959 712.695,-531.892"/>
<polygon fill="midnightblue" stroke="midnightblue" points="710.665,-534.755 720.611,-538.407 715.113,-529.35 710.665,-534.755"/>
</g>
<!-- Node49 -->
<g id="node105" class="node"><title>Node49</title>
<a xlink:href="cvm-hfa-res_8c.html#a38aa04fce135199ec3bb8726da163846" target="_top" xlink:title="Rfinish">
<polygon fill="white" stroke="black" points="716,-418.5 716,-439.5 764,-439.5 764,-418.5 716,-418.5"/>
<text text-anchor="middle" x="740" y="-426.5" font-family="FreeSans" font-size="10.00">Rfinish</text>
</a>
</g>
<!-- Node24&#45;&gt;Node49 -->
<g id="edge112" class="edge"><title>Node24&#45;&gt;Node49</title>
<path fill="none" stroke="midnightblue" d="M645.7,-429C661.04,-429 685.63,-429 705.854,-429"/>
<polygon fill="midnightblue" stroke="midnightblue" points="705.959,-432.5 715.959,-429 705.959,-425.5 705.959,-432.5"/>
</g>
<!-- Node28 -->
<g id="node58" class="node"><title>Node28</title>
<a xlink:href="hfa-lnx_8c.html#a78ffddbcd7cdd164889cfb53ea367886" target="_top" xlink:title="entry">
<polygon fill="white" stroke="black" points="812.5,-418.5 812.5,-439.5 853.5,-439.5 853.5,-418.5 812.5,-418.5"/>
<text text-anchor="middle" x="833" y="-426.5" font-family="FreeSans" font-size="10.00">entry</text>
</a>
</g>
<!-- Node27&#45;&gt;Node28 -->
<g id="edge60" class="edge"><title>Node27&#45;&gt;Node28</title>
<path fill="none" stroke="midnightblue" d="M764.435,-399.51C776.155,-404.551 790.31,-410.639 802.708,-415.971"/>
<polygon fill="midnightblue" stroke="midnightblue" points="801.625,-419.315 812.194,-420.051 804.391,-412.885 801.625,-419.315"/>
</g>
<!-- Node46 -->
<g id="node99" class="node"><title>Node46</title>
<a xlink:href="cvm-hfa-pp_8c.html#a85b4c8af06430f26eab8afdeea3a7395" target="_top" xlink:title="hashidx">
<polygon fill="white" stroke="black" points="806,-458.5 806,-479.5 860,-479.5 860,-458.5 806,-458.5"/>
<text text-anchor="middle" x="833" y="-466.5" font-family="FreeSans" font-size="10.00">hashidx</text>
</a>
</g>
<!-- Node27&#45;&gt;Node46 -->
<g id="edge106" class="edge"><title>Node27&#45;&gt;Node46</title>
<path fill="none" stroke="midnightblue" d="M757.357,-399.505C761.644,-402.384 766.117,-405.643 770,-409 788.091,-424.644 788.302,-432.912 806,-449 807.106,-450.005 808.261,-451.01 809.445,-452.004"/>
<polygon fill="midnightblue" stroke="midnightblue" points="807.42,-454.864 817.442,-458.301 811.75,-449.364 807.42,-454.864"/>
</g>
<!-- Node28&#45;&gt;Node8 -->
<g id="edge84" class="edge"><title>Node28&#45;&gt;Node8</title>
<path fill="none" stroke="midnightblue" d="M851.528,-439.513C854.835,-442.195 857.893,-445.367 860,-449 928.259,-566.694 813.81,-644.576 896,-753 896.482,-753.636 896.983,-754.257 897.501,-754.863"/>
<polygon fill="midnightblue" stroke="midnightblue" points="895.382,-757.672 905.088,-761.919 900.149,-752.546 895.382,-757.672"/>
</g>
<!-- Node28&#45;&gt;Node21 -->
<g id="edge92" class="edge"><title>Node28&#45;&gt;Node21</title>
<path fill="none" stroke="midnightblue" d="M834.733,-418.293C839.999,-387.962 857.845,-299.612 896,-237 905.051,-222.147 918.178,-208.085 930.11,-196.945"/>
<polygon fill="midnightblue" stroke="midnightblue" points="932.648,-199.369 937.723,-190.068 927.956,-194.174 932.648,-199.369"/>
</g>
<!-- Node28&#45;&gt;Node22 -->
<g id="edge98" class="edge"><title>Node28&#45;&gt;Node22</title>
<path fill="none" stroke="midnightblue" d="M825.97,-418.465C815.669,-404.092 794.962,-378.985 770,-369 685.417,-335.167 576.134,-359.005 518.202,-376.342"/>
<polygon fill="midnightblue" stroke="midnightblue" points="516.865,-373.092 508.339,-379.381 518.926,-379.781 516.865,-373.092"/>
</g>
<!-- Node29 -->
<g id="node60" class="node"><title>Node29</title>
<a xlink:href="hfa-lnx_8c.html#a4c3443f524b4c0d95639694f0b74e850" target="_top" xlink:title="Process command line options, Read graph and payload.">
<polygon fill="white" stroke="black" points="912,-722.5 912,-743.5 1006,-743.5 1006,-722.5 912,-722.5"/>
<text text-anchor="middle" x="959" y="-730.5" font-family="FreeSans" font-size="10.00">process_options</text>
</a>
</g>
<!-- Node28&#45;&gt;Node29 -->
<g id="edge62" class="edge"><title>Node28&#45;&gt;Node29</title>
<path fill="none" stroke="midnightblue" d="M851.479,-439.542C854.789,-442.222 857.861,-445.385 860,-449 920.313,-550.909 819.761,-622.387 896,-713 898.009,-715.387 900.301,-717.493 902.795,-719.35"/>
<polygon fill="midnightblue" stroke="midnightblue" points="901.538,-722.673 911.926,-724.754 905.103,-716.649 901.538,-722.673"/>
</g>
<!-- Node33 -->
<g id="node68" class="node"><title>Node33</title>
<a xlink:href="cvm-hfa_8c.html#a873768042b716d60996ec5d858fc8fd9" target="_top" xlink:title="This function must be called by application to initialize HFA engine and setup resources for HFA hard...">
<polygon fill="white" stroke="red" points="922,-378.5 922,-399.5 996,-399.5 996,-378.5 922,-378.5"/>
<text text-anchor="middle" x="959" y="-386.5" font-family="FreeSans" font-size="10.00">hfa_dev_init</text>
</a>
</g>
<!-- Node28&#45;&gt;Node33 -->
<g id="edge70" class="edge"><title>Node28&#45;&gt;Node33</title>
<path fill="none" stroke="midnightblue" d="M853.525,-422.484C870.38,-417.133 894.83,-409.372 915.946,-402.668"/>
<polygon fill="midnightblue" stroke="midnightblue" points="917.212,-405.938 925.684,-399.577 915.093,-399.267 917.212,-405.938"/>
</g>
<!-- Node36 -->
<g id="node74" class="node"><title>Node36</title>
<a xlink:href="hfa-lnx_8c.html#a546f3769e735d4bef0bfab1cba56921c" target="_top" xlink:title="Load graph to HFA memory and cache.">
<polygon fill="white" stroke="red" points="924.5,-682.5 924.5,-703.5 993.5,-703.5 993.5,-682.5 924.5,-682.5"/>
<text text-anchor="middle" x="959" y="-690.5" font-family="FreeSans" font-size="10.00">graph_load</text>
</a>
</g>
<!-- Node28&#45;&gt;Node36 -->
<g id="edge76" class="edge"><title>Node28&#45;&gt;Node36</title>
<path fill="none" stroke="midnightblue" d="M851.412,-439.582C854.728,-442.259 857.818,-445.411 860,-449 912.386,-535.157 830.168,-596.623 896,-673 900.945,-678.737 907.527,-682.845 914.574,-685.783"/>
<polygon fill="midnightblue" stroke="midnightblue" points="913.768,-689.205 924.362,-689.107 916.019,-682.577 913.768,-689.205"/>
</g>
<!-- Node37 -->
<g id="node76" class="node"><title>Node37</title>
<a xlink:href="hfa-lnx_8c.html#a924d2733ebc7a856f8c3fd293193ba44" target="_top" xlink:title="Initialize search context.">
<polygon fill="white" stroke="red" points="921.5,-642.5 921.5,-663.5 996.5,-663.5 996.5,-642.5 921.5,-642.5"/>
<text text-anchor="middle" x="959" y="-650.5" font-family="FreeSans" font-size="10.00">initialize_ctx</text>
</a>
</g>
<!-- Node28&#45;&gt;Node37 -->
<g id="edge78" class="edge"><title>Node28&#45;&gt;Node37</title>
<path fill="none" stroke="midnightblue" d="M851.319,-439.64C854.641,-442.313 857.757,-445.449 860,-449 904.491,-519.457 840.536,-570.812 896,-633 900.311,-637.833 905.783,-641.508 911.694,-644.299"/>
<polygon fill="midnightblue" stroke="midnightblue" points="910.653,-647.649 921.243,-647.998 913.182,-641.122 910.653,-647.649"/>
</g>
<!-- Node38 -->
<g id="node78" class="node"><title>Node38</title>
<a xlink:href="app-utils_8c.html#a4b47f3c9c5a0b3eaee64e264171628a3" target="_top" xlink:title="This routine reads data of chunksize/a packet from given payload(Normal/PCAP) file and returns data b...">
<polygon fill="white" stroke="red" points="896,-602.5 896,-623.5 1022,-623.5 1022,-602.5 896,-602.5"/>
<text text-anchor="middle" x="959" y="-610.5" font-family="FreeSans" font-size="10.00">hfautils_parse_payload</text>
</a>
</g>
<!-- Node28&#45;&gt;Node38 -->
<g id="edge80" class="edge"><title>Node28&#45;&gt;Node38</title>
<path fill="none" stroke="midnightblue" d="M850.899,-439.511C854.334,-442.226 857.602,-445.411 860,-449 896.654,-503.849 850.831,-544.919 896,-593 897.242,-594.322 898.572,-595.558 899.972,-596.712"/>
<polygon fill="midnightblue" stroke="midnightblue" points="898.398,-599.867 908.668,-602.472 902.264,-594.031 898.398,-599.867"/>
</g>
<!-- Node39 -->
<g id="node80" class="node"><title>Node39</title>
<a xlink:href="cvm-hfa-search_8h.html#ae9741e867075c9b8cc63a7d889d5bf20" target="_top" xlink:title="This routine is a variant of hfa_searchparam_set_inputiovec() when the previously searched input IO v...">
<polygon fill="white" stroke="black" points="898.5,-550 898.5,-584 1019.5,-584 1019.5,-550 898.5,-550"/>
<text text-anchor="start" x="906.5" y="-571" font-family="FreeSans" font-size="10.00">hfa_searchparam_set</text>
<text text-anchor="middle" x="959" y="-558" font-family="FreeSans" font-size="10.00">_inputiovec_0_n</text>
</a>
</g>
<!-- Node28&#45;&gt;Node39 -->
<g id="edge82" class="edge"><title>Node28&#45;&gt;Node39</title>
<path fill="none" stroke="midnightblue" d="M850.278,-439.536C853.832,-442.286 857.306,-445.479 860,-449 886.681,-483.871 865.24,-509.668 896,-541 896.933,-541.95 897.905,-542.866 898.911,-543.751"/>
<polygon fill="midnightblue" stroke="midnightblue" points="897.1,-546.766 907.215,-549.919 901.275,-541.146 897.1,-546.766"/>
</g>
<!-- Node40 -->
<g id="node83" class="node"><title>Node40</title>
<a xlink:href="cvm-hfa-search_8c.html#a57d7540278164eb6b6c132be00db0de5" target="_top" xlink:title="This routine performs a pattern search using the given parameters in a blocking manner.">
<polygon fill="white" stroke="black" points="897.5,-246.5 897.5,-267.5 1020.5,-267.5 1020.5,-246.5 897.5,-246.5"/>
<text text-anchor="middle" x="959" y="-254.5" font-family="FreeSans" font-size="10.00">hfa_searchctx_search</text>
</a>
</g>
<!-- Node28&#45;&gt;Node40 -->
<g id="edge86" class="edge"><title>Node28&#45;&gt;Node40</title>
<path fill="none" stroke="midnightblue" d="M834.31,-418.424C838.272,-390.968 852.649,-316.793 896,-277 897.683,-275.455 899.485,-274.03 901.377,-272.714"/>
<polygon fill="midnightblue" stroke="midnightblue" points="903.267,-275.665 910.166,-267.624 899.758,-269.608 903.267,-275.665"/>
</g>
<!-- Node41 -->
<g id="node88" class="node"><title>Node41</title>
<a xlink:href="cvm-hfa-common_8h.html#ad117ba199386b8d427cbb04f288b5905" target="_top" xlink:title="Dump HFA related registers.">
<polygon fill="white" stroke="black" points="913.5,-510.5 913.5,-531.5 1004.5,-531.5 1004.5,-510.5 913.5,-510.5"/>
<text text-anchor="middle" x="959" y="-518.5" font-family="FreeSans" font-size="10.00">hfa_dump_regs</text>
</a>
</g>
<!-- Node28&#45;&gt;Node41 -->
<g id="edge94" class="edge"><title>Node28&#45;&gt;Node41</title>
<path fill="none" stroke="midnightblue" d="M849.134,-439.608C852.899,-442.438 856.753,-445.648 860,-449 879.556,-469.192 873.392,-484.296 896,-501 898.504,-502.85 901.184,-504.532 903.975,-506.062"/>
<polygon fill="midnightblue" stroke="midnightblue" points="902.655,-509.309 913.189,-510.445 905.662,-502.988 902.655,-509.309"/>
</g>
<!-- Node42 -->
<g id="node90" class="node"><title>Node42</title>
<a xlink:href="cvm-hfa-search_8h.html#ad18e328b50b109e1e44821f3d006bd9d" target="_top" xlink:title="This routine returns the data&#45;buffer offset.">
<polygon fill="white" stroke="black" points="898,-458 898,-492 1020,-492 1020,-458 898,-458"/>
<text text-anchor="start" x="906" y="-479" font-family="FreeSans" font-size="10.00">hfa_searchparam_get</text>
<text text-anchor="middle" x="959" y="-466" font-family="FreeSans" font-size="10.00">_hwsearch_pdboff</text>
</a>
</g>
<!-- Node28&#45;&gt;Node42 -->
<g id="edge96" class="edge"><title>Node28&#45;&gt;Node42</title>
<path fill="none" stroke="midnightblue" d="M853.525,-436.493C866.94,-441.391 885.164,-448.044 902.69,-454.442"/>
<polygon fill="midnightblue" stroke="midnightblue" points="901.726,-457.816 912.32,-457.958 904.127,-451.241 901.726,-457.816"/>
</g>
<!-- Node43 -->
<g id="node93" class="node"><title>Node43</title>
<a xlink:href="app-utils_8c.html#a633038357891aa5147b77fe939f300bf" target="_top" xlink:title="Print pattern matches via match buffer and cleanup all matches.">
<polygon fill="white" stroke="red" points="897,-418.5 897,-439.5 1021,-439.5 1021,-418.5 897,-418.5"/>
<text text-anchor="middle" x="959" y="-426.5" font-family="FreeSans" font-size="10.00">hfautils_print_matches</text>
</a>
</g>
<!-- Node28&#45;&gt;Node43 -->
<g id="edge100" class="edge"><title>Node28&#45;&gt;Node43</title>
<path fill="none" stroke="midnightblue" d="M853.525,-429C862.84,-429 874.476,-429 886.586,-429"/>
<polygon fill="midnightblue" stroke="midnightblue" points="886.83,-432.5 896.83,-429 886.83,-425.5 886.83,-432.5"/>
</g>
<!-- Node44 -->
<g id="node95" class="node"><title>Node44</title>
<a xlink:href="cvm-hfa-search_8h.html#ac5bcfbfda7036d9aca28a3c5828847a5" target="_top" xlink:title="This routine retrieves flags returned by post&#45;processor.">
<polygon fill="white" stroke="black" points="898,-326 898,-360 1020,-360 1020,-326 898,-326"/>
<text text-anchor="start" x="906" y="-347" font-family="FreeSans" font-size="10.00">hfa_searchparam_get</text>
<text text-anchor="middle" x="959" y="-334" font-family="FreeSans" font-size="10.00">_ppoflags</text>
</a>
</g>
<!-- Node28&#45;&gt;Node44 -->
<g id="edge102" class="edge"><title>Node28&#45;&gt;Node44</title>
<path fill="none" stroke="midnightblue" d="M841.861,-418.431C853.265,-405.374 874.216,-383.155 896,-369 898.17,-367.59 900.43,-366.231 902.747,-364.924"/>
<polygon fill="midnightblue" stroke="midnightblue" points="904.657,-367.876 911.908,-360.15 901.422,-361.668 904.657,-367.876"/>
</g>
<!-- Node45 -->
<g id="node97" class="node"><title>Node45</title>
<a xlink:href="hfa-lnx_8c.html#a5c6551bf9ea9cf51ae7f2076c4cbe8ef" target="_top" xlink:title="Application cleanup will be done by this routine.">
<polygon fill="white" stroke="red" points="932,-286.5 932,-307.5 986,-307.5 986,-286.5 932,-286.5"/>
<text text-anchor="middle" x="959" y="-294.5" font-family="FreeSans" font-size="10.00">cleanup</text>
</a>
</g>
<!-- Node28&#45;&gt;Node45 -->
<g id="edge104" class="edge"><title>Node28&#45;&gt;Node45</title>
<path fill="none" stroke="midnightblue" d="M836.064,-418.315C842.978,-396.108 861.906,-344.734 896,-317 903.453,-310.937 912.768,-306.701 921.932,-303.745"/>
<polygon fill="midnightblue" stroke="midnightblue" points="923.028,-307.073 931.72,-301.014 921.147,-300.331 923.028,-307.073"/>
</g>
<!-- Node30 -->
<g id="node62" class="node"><title>Node30</title>
<a xlink:href="app-utils_8c.html#a8d5ec2ca8ebb2e04916983e6053a5c79" target="_top" xlink:title="Return size of a file(compressed or uncompressed).">
<polygon fill="white" stroke="red" points="1096.5,-682.5 1096.5,-703.5 1191.5,-703.5 1191.5,-682.5 1096.5,-682.5"/>
<text text-anchor="middle" x="1144" y="-690.5" font-family="FreeSans" font-size="10.00">hfautils_file_size</text>
</a>
</g>
<!-- Node29&#45;&gt;Node30 -->
<g id="edge64" class="edge"><title>Node29&#45;&gt;Node30</title>
<path fill="none" stroke="midnightblue" d="M1006.16,-722.803C1030.54,-717.531 1060.51,-711.052 1086.27,-705.482"/>
<polygon fill="midnightblue" stroke="midnightblue" points="1087.25,-708.852 1096.28,-703.318 1085.77,-702.01 1087.25,-708.852"/>
</g>
<!-- Node31 -->
<g id="node64" class="node"><title>Node31</title>
<a xlink:href="app-utils_8c.html#a12339c67618c4b3a54c32f43d378c273" target="_top" xlink:title="Read data from a file to a buffer(compressed or uncompressed).">
<polygon fill="white" stroke="red" points="1095.5,-722.5 1095.5,-743.5 1192.5,-743.5 1192.5,-722.5 1095.5,-722.5"/>
<text text-anchor="middle" x="1144" y="-730.5" font-family="FreeSans" font-size="10.00">hfautils_read_file</text>
</a>
</g>
<!-- Node29&#45;&gt;Node31 -->
<g id="edge66" class="edge"><title>Node29&#45;&gt;Node31</title>
<path fill="none" stroke="midnightblue" d="M1006.16,-733C1030.15,-733 1059.55,-733 1085.03,-733"/>
<polygon fill="midnightblue" stroke="midnightblue" points="1085.31,-736.5 1095.31,-733 1085.31,-729.5 1085.31,-736.5"/>
</g>
<!-- Node32 -->
<g id="node66" class="node"><title>Node32</title>
<a xlink:href="app-utils_8c.html#a1944a739d03e86dcaee1a7d245cfeba0" target="_top" xlink:title="Initialize the attributes needed for parsing the payload file.">
<polygon fill="white" stroke="red" points="1087.5,-762 1087.5,-796 1200.5,-796 1200.5,-762 1087.5,-762"/>
<text text-anchor="start" x="1095.5" y="-783" font-family="FreeSans" font-size="10.00">hfautils_init_payload</text>
<text text-anchor="middle" x="1144" y="-770" font-family="FreeSans" font-size="10.00">_attributes</text>
</a>
</g>
<!-- Node29&#45;&gt;Node32 -->
<g id="edge68" class="edge"><title>Node29&#45;&gt;Node32</title>
<path fill="none" stroke="midnightblue" d="M1001.44,-743.553C1023.95,-749.15 1052.12,-756.153 1077.46,-762.454"/>
<polygon fill="midnightblue" stroke="midnightblue" points="1076.83,-765.904 1087.38,-764.921 1078.52,-759.111 1076.83,-765.904"/>
</g>
<!-- Node34 -->
<g id="node70" class="node"><title>Node34</title>
<a xlink:href="cvm-hfa-stats_8c.html#a2fcf955b47370bfa46705ee5a23a70cf" target="_top" xlink:title="This routine allocates memory for counters to maintain statistics of each processing core...">
<polygon fill="white" stroke="red" points="1093,-398.5 1093,-419.5 1195,-419.5 1195,-398.5 1093,-398.5"/>
<text text-anchor="middle" x="1144" y="-406.5" font-family="FreeSans" font-size="10.00">hfa_dev_stats_init</text>
</a>
</g>
<!-- Node33&#45;&gt;Node34 -->
<g id="edge72" class="edge"><title>Node33&#45;&gt;Node34</title>
<path fill="none" stroke="midnightblue" d="M996.438,-393.047C1021.17,-395.721 1054.16,-399.287 1082.67,-402.37"/>
<polygon fill="midnightblue" stroke="midnightblue" points="1082.63,-405.886 1092.95,-403.481 1083.38,-398.926 1082.63,-405.886"/>
</g>
<!-- Node35 -->
<g id="node72" class="node"><title>Node35</title>
<a xlink:href="cvm-hfa_8c.html#a27982497398da2118cd5287ed51732e7" target="_top" xlink:title="Provides device&#45;specific information This is a utility routine used to obtain HFA device&#45;specific det...">
<polygon fill="white" stroke="black" points="1088.5,-358.5 1088.5,-379.5 1199.5,-379.5 1199.5,-358.5 1088.5,-358.5"/>
<text text-anchor="middle" x="1144" y="-366.5" font-family="FreeSans" font-size="10.00">hfa_dev_getdevinfo</text>
</a>
</g>
<!-- Node33&#45;&gt;Node35 -->
<g id="edge74" class="edge"><title>Node33&#45;&gt;Node35</title>
<path fill="none" stroke="midnightblue" d="M996.438,-384.953C1019.95,-382.411 1050.91,-379.063 1078.41,-376.091"/>
<polygon fill="midnightblue" stroke="midnightblue" points="1078.79,-379.57 1088.36,-375.015 1078.04,-372.61 1078.79,-379.57"/>
</g>
<!-- Node40&#45;&gt;Node13 -->
<g id="edge88" class="edge"><title>Node40&#45;&gt;Node13</title>
<path fill="none" stroke="midnightblue" d="M974.139,-246.443C1003.89,-225.701 1070.57,-179.201 1110.97,-151.029"/>
<polygon fill="midnightblue" stroke="midnightblue" points="1113.22,-153.731 1119.42,-145.141 1109.21,-147.989 1113.22,-153.731"/>
</g>
<!-- Node40&#45;&gt;Node17 -->
<g id="edge90" class="edge"><title>Node40&#45;&gt;Node17</title>
<path fill="none" stroke="midnightblue" d="M1020.6,-250.673C1029.4,-249.77 1038.62,-248.822 1047.89,-247.87"/>
<polygon fill="midnightblue" stroke="midnightblue" points="1048.36,-251.341 1057.95,-246.837 1047.65,-244.377 1048.36,-251.341"/>
</g>
<!-- Node48 -->
<g id="node103" class="node"><title>Node48</title>
<a xlink:href="cvm-hfa-res_8c.html#a70c9e55ba1fcb934f74ad71ddca9d08f" target="_top" xlink:title="Radd">
<polygon fill="white" stroke="black" points="812.5,-538.5 812.5,-559.5 853.5,-559.5 853.5,-538.5 812.5,-538.5"/>
<text text-anchor="middle" x="833" y="-546.5" font-family="FreeSans" font-size="10.00">Radd</text>
</a>
</g>
<!-- Node47&#45;&gt;Node48 -->
<g id="edge110" class="edge"><title>Node47&#45;&gt;Node48</title>
<path fill="none" stroke="midnightblue" d="M768.662,-549C779.229,-549 791.245,-549 802.009,-549"/>
<polygon fill="midnightblue" stroke="midnightblue" points="802.256,-552.5 812.256,-549 802.256,-545.5 802.256,-552.5"/>
</g>
</g>
</svg>
        <g id="navigator" transform="translate(0 0)" fill="#404254">
                <rect fill="#f2f5e9" fill-opacity="0.5" stroke="#606060" stroke-width=".5" x="0" y="0" width="60" height="60"/>
                <use id="zoomplus" xlink:href="#zoomPlus" x="17" y="9" onmousedown="handleZoom(evt,'in')"/>
                <use id="zoomminus" xlink:href="#zoomMin" x="42" y="9" onmousedown="handleZoom(evt,'out')"/>
                <use id="reset" xlink:href="#resetDef" x="30" y="36" onmousedown="handleReset()"/>
                <g id="arrowUp" xlink:href="#dirArrow" transform="translate(30 24)" onmousedown="handlePan(0,-1)">
                  <use xlink:href="#rim" fill="#404040">
                        <set attributeName="fill" to="#808080" begin="arrowUp.mouseover" end="arrowUp.mouseout"/>
                  </use>
                  <path fill="none" stroke="white" stroke-width="1.5" d="M0,-3.0v7 M-2.5,-0.5L0,-3.0L2.5,-0.5"/>
                </g>
                <g id="arrowRight" xlink:href="#dirArrow" transform="rotate(90) translate(36 -43)" onmousedown="handlePan(1,0)">
                  <use xlink:href="#rim" fill="#404040">
                        <set attributeName="fill" to="#808080" begin="arrowRight.mouseover" end="arrowRight.mouseout"/>
                  </use>
                  <path fill="none" stroke="white" stroke-width="1.5" d="M0,-3.0v7 M-2.5,-0.5L0,-3.0L2.5,-0.5"/>
                </g>
                <g id="arrowDown" xlink:href="#dirArrow" transform="rotate(180) translate(-30 -48)" onmousedown="handlePan(0,1)">
                  <use xlink:href="#rim" fill="#404040">
                        <set attributeName="fill" to="#808080" begin="arrowDown.mouseover" end="arrowDown.mouseout"/>
                  </use>
                  <path fill="none" stroke="white" stroke-width="1.5" d="M0,-3.0v7 M-2.5,-0.5L0,-3.0L2.5,-0.5"/>
                </g>
                <g id="arrowLeft" xlink:href="#dirArrow" transform="rotate(270) translate(-36 17)" onmousedown="handlePan(-1,0)">
                  <use xlink:href="#rim" fill="#404040">
                        <set attributeName="fill" to="#808080" begin="arrowLeft.mouseover" end="arrowLeft.mouseout"/>
                  </use>
                  <path fill="none" stroke="white" stroke-width="1.5" d="M0,-3.0v7 M-2.5,-0.5L0,-3.0L2.5,-0.5"/>
                </g>
        </g>
        <svg viewBox="0 0 15 15" width="100%" height="30px" preserveAspectRatio="xMaxYMin meet">
         <g id="arrow_out" transform="scale(0.3 0.3)">
          <a xlink:href="hfa-lnx-ctx_8c_a97df0ba8293c1b8436547946fd9d0d17_cgraph_org.svg" target="_base">
           <rect id="button" ry="5" rx="5" y="6" x="6" height="38" width="38"
                fill="#f2f5e9" fill-opacity="0.5" stroke="#606060" stroke-width="1.0"/>
           <path id="arrow"
             d="M 11.500037,31.436501 C 11.940474,20.09759 22.043105,11.32322 32.158766,21.979434 L 37.068811,17.246167 C 37.068811,17.246167 37.088388,32 37.088388,32 L 22.160133,31.978069 C 22.160133,31.978069 26.997745,27.140456 26.997745,27.140456 C 18.528582,18.264221 13.291696,25.230495 11.500037,31.436501 z"
             style="fill:#404040;"/>
          </a>
         </g>
        </svg>
</svg>
