<?xml version="1.0" encoding="UTF-8" standalone="no"?>
<!DOCTYPE svg PUBLIC "-//W3C//DTD SVG 1.1//EN"
 "http://www.w3.org/Graphics/SVG/1.1/DTD/svg11.dtd">
<!-- Generated by graphviz version 2.24.0 (20090616.2323)
 -->
<!-- Title: do_cache Pages: 1 -->
<svg width="1722pt" height="728pt"
 viewBox="0.00 0.00 1722.00 728.00" xmlns="http://www.w3.org/2000/svg" xmlns:xlink="http://www.w3.org/1999/xlink">
<g id="graph1" class="graph" transform="scale(1 1) rotate(0) translate(4 724)">
<title>do_cache</title>
<polygon fill="white" stroke="white" points="-4,5 -4,-724 1719,-724 1719,5 -4,5"/>
<!-- Node1 -->
<g id="node1" class="node"><title>Node1</title>
<polygon fill="#bfbfbf" stroke="black" points="0.5,-658.5 0.5,-679.5 63.5,-679.5 63.5,-658.5 0.5,-658.5"/>
<text text-anchor="middle" x="32" y="-666.5" font-family="FreeSans" font-size="10.00">do_cache</text>
</g>
<!-- Node2 -->
<g id="node3" class="node"><title>Node2</title>
<a xlink:href="hfa-se-flow_8c.html#a2d448a12b1b6ea9cfda8f5a86977133f" target="_top" xlink:title="Iterate over flowdb and found flow which is free to submit.">
<polygon fill="white" stroke="black" points="107.5,-698.5 107.5,-719.5 178.5,-719.5 178.5,-698.5 107.5,-698.5"/>
<text text-anchor="middle" x="143" y="-706.5" font-family="FreeSans" font-size="10.00">refill_cache</text>
</a>
</g>
<!-- Node1&#45;&gt;Node2 -->
<g id="edge2" class="edge"><title>Node1&#45;&gt;Node2</title>
<path fill="none" stroke="midnightblue" d="M61.1639,-679.51C74.3157,-684.249 90.036,-689.914 104.167,-695.006"/>
<polygon fill="midnightblue" stroke="midnightblue" points="103.051,-698.324 113.645,-698.422 105.424,-691.739 103.051,-698.324"/>
</g>
<!-- Node3 -->
<g id="node5" class="node"><title>Node3</title>
<a xlink:href="hfa-se-flow_8c.html#a779659fedbbc8e698802f2d8e2da9067" target="_top" xlink:title="Submits a packet of a flow to the HFA Engine if no pending instruction on that flow.">
<polygon fill="white" stroke="black" points="103.5,-658.5 103.5,-679.5 182.5,-679.5 182.5,-658.5 103.5,-658.5"/>
<text text-anchor="middle" x="143" y="-666.5" font-family="FreeSans" font-size="10.00">__submitflow</text>
</a>
</g>
<!-- Node1&#45;&gt;Node3 -->
<g id="edge4" class="edge"><title>Node1&#45;&gt;Node3</title>
<path fill="none" stroke="midnightblue" d="M63.5112,-669C72.837,-669 83.2818,-669 93.4564,-669"/>
<polygon fill="midnightblue" stroke="midnightblue" points="93.4895,-672.5 103.489,-669 93.4894,-665.5 93.4895,-672.5"/>
</g>
<!-- Node9 -->
<g id="node17" class="node"><title>Node9</title>
<a xlink:href="hfa-se-flow_8c.html#a2d83c733eacd7afc955c3af18edcb52a" target="_top" xlink:title="Polls for a submitted search instruction of a flow.">
<polygon fill="white" stroke="black" points="100.5,-618.5 100.5,-639.5 185.5,-639.5 185.5,-618.5 100.5,-618.5"/>
<text text-anchor="middle" x="143" y="-626.5" font-family="FreeSans" font-size="10.00">__processflow</text>
</a>
</g>
<!-- Node1&#45;&gt;Node9 -->
<g id="edge16" class="edge"><title>Node1&#45;&gt;Node9</title>
<path fill="none" stroke="midnightblue" d="M61.1639,-658.49C74.3157,-653.751 90.036,-648.086 104.167,-642.994"/>
<polygon fill="midnightblue" stroke="midnightblue" points="105.424,-646.261 113.645,-639.578 103.051,-639.676 105.424,-646.261"/>
</g>
<!-- Node4 -->
<g id="node7" class="node"><title>Node4</title>
<a xlink:href="flow_8c.html#a6a0b19b2cbf279cbf487dccef83623da" target="_top" xlink:title="High Level API to submit Search Parameter to a Flow.">
<polygon fill="white" stroke="black" points="225.5,-658.5 225.5,-679.5 338.5,-679.5 338.5,-658.5 225.5,-658.5"/>
<text text-anchor="middle" x="282" y="-666.5" font-family="FreeSans" font-size="10.00">hfaf_submit_pktflow</text>
</a>
</g>
<!-- Node3&#45;&gt;Node4 -->
<g id="edge6" class="edge"><title>Node3&#45;&gt;Node4</title>
<path fill="none" stroke="midnightblue" d="M182.832,-669C192.966,-669 204.137,-669 215.215,-669"/>
<polygon fill="midnightblue" stroke="midnightblue" points="215.331,-672.5 225.331,-669 215.331,-665.5 215.331,-672.5"/>
</g>
<!-- Node5 -->
<g id="node9" class="node"><title>Node5</title>
<a xlink:href="flow_8c.html#a5034d9a3ed0a1dac918c6a8d84fae8c6" target="_top" xlink:title="Low level API to submit search parameter to flow.">
<polygon fill="white" stroke="black" points="381.5,-658.5 381.5,-679.5 504.5,-679.5 504.5,-658.5 381.5,-658.5"/>
<text text-anchor="middle" x="443" y="-666.5" font-family="FreeSans" font-size="10.00">__hfaf_submit_pktflow</text>
</a>
</g>
<!-- Node4&#45;&gt;Node5 -->
<g id="edge8" class="edge"><title>Node4&#45;&gt;Node5</title>
<path fill="none" stroke="midnightblue" d="M338.763,-669C349.191,-669 360.203,-669 371.008,-669"/>
<polygon fill="midnightblue" stroke="midnightblue" points="371.278,-672.5 381.278,-669 371.278,-665.5 371.278,-672.5"/>
</g>
<!-- Node6 -->
<g id="node11" class="node"><title>Node6</title>
<a xlink:href="cvm-hfa-search_8c.html#a0c36da280b39bd8afdf6081baea24472" target="_top" xlink:title="This routine performs a pattern search using the given parameters in a non&#45;blocking manner...">
<polygon fill="white" stroke="black" points="1228.5,-675 1228.5,-709 1351.5,-709 1351.5,-675 1228.5,-675"/>
<text text-anchor="start" x="1236.5" y="-696" font-family="FreeSans" font-size="10.00">hfa_searchctx_search</text>
<text text-anchor="middle" x="1290" y="-683" font-family="FreeSans" font-size="10.00">_async</text>
</a>
</g>
<!-- Node5&#45;&gt;Node6 -->
<g id="edge10" class="edge"><title>Node5&#45;&gt;Node6</title>
<path fill="none" stroke="midnightblue" d="M490.339,-679.523C507.206,-682.967 526.386,-686.536 544,-689 645.582,-703.207 671.43,-708 774,-708 774,-708 774,-708 979,-708 1061.07,-708 1155.16,-702.374 1218.16,-697.795"/>
<polygon fill="midnightblue" stroke="midnightblue" points="1218.67,-701.267 1228.38,-697.041 1218.15,-694.286 1218.67,-701.267"/>
</g>
<!-- Node7 -->
<g id="node13" class="node"><title>Node7</title>
<a xlink:href="cvm-hfa-osapi_8h.html#acacbbbac0cb1e827a08946bcdf13209b" target="_top" xlink:title="hfa_os_listdel">
<polygon fill="white" stroke="black" points="577.5,-658.5 577.5,-679.5 658.5,-679.5 658.5,-658.5 577.5,-658.5"/>
<text text-anchor="middle" x="618" y="-666.5" font-family="FreeSans" font-size="10.00">hfa_os_listdel</text>
</a>
</g>
<!-- Node5&#45;&gt;Node7 -->
<g id="edge12" class="edge"><title>Node5&#45;&gt;Node7</title>
<path fill="none" stroke="midnightblue" d="M504.698,-669C525.135,-669 547.634,-669 567.159,-669"/>
<polygon fill="midnightblue" stroke="midnightblue" points="567.369,-672.5 577.369,-669 567.369,-665.5 567.369,-672.5"/>
</g>
<!-- Node8 -->
<g id="node15" class="node"><title>Node8</title>
<a xlink:href="cvm-hfa-osapi_8h.html#a8f7a99f931e344eaaf9dd1fadd341a46" target="_top" xlink:title="__hfa_os_listdel">
<polygon fill="white" stroke="black" points="728.5,-658.5 728.5,-679.5 819.5,-679.5 819.5,-658.5 728.5,-658.5"/>
<text text-anchor="middle" x="774" y="-666.5" font-family="FreeSans" font-size="10.00">__hfa_os_listdel</text>
</a>
</g>
<!-- Node7&#45;&gt;Node8 -->
<g id="edge14" class="edge"><title>Node7&#45;&gt;Node8</title>
<path fill="none" stroke="midnightblue" d="M658.58,-669C676.8,-669 698.59,-669 718.304,-669"/>
<polygon fill="midnightblue" stroke="midnightblue" points="718.394,-672.5 728.394,-669 718.394,-665.5 718.394,-672.5"/>
</g>
<!-- Node10 -->
<g id="node19" class="node"><title>Node10</title>
<a xlink:href="flow_8c.html#a1bcaad6265810bf942a4a5d40a3b1e3a" target="_top" xlink:title="All submitted search parameters in Paramlist of flow are polled If low level API __hfaf_process_pktfl...">
<polygon fill="white" stroke="black" points="222.5,-618.5 222.5,-639.5 341.5,-639.5 341.5,-618.5 222.5,-618.5"/>
<text text-anchor="middle" x="282" y="-626.5" font-family="FreeSans" font-size="10.00">hfaf_process_pktflow</text>
</a>
</g>
<!-- Node9&#45;&gt;Node10 -->
<g id="edge18" class="edge"><title>Node9&#45;&gt;Node10</title>
<path fill="none" stroke="midnightblue" d="M185.839,-629C194.243,-629 203.259,-629 212.281,-629"/>
<polygon fill="midnightblue" stroke="midnightblue" points="212.436,-632.5 222.436,-629 212.436,-625.5 212.436,-632.5"/>
</g>
<!-- Node10&#45;&gt;Node5 -->
<g id="edge110" class="edge"><title>Node10&#45;&gt;Node5</title>
<path fill="none" stroke="midnightblue" d="M324.301,-639.51C344.649,-644.565 369.237,-650.674 390.745,-656.017"/>
<polygon fill="midnightblue" stroke="midnightblue" points="390.154,-659.477 400.702,-658.491 391.841,-652.683 390.154,-659.477"/>
</g>
<!-- Node11 -->
<g id="node21" class="node"><title>Node11</title>
<a xlink:href="flow_8c.html#a2976ab60901b133a56214323fb901663" target="_top" xlink:title="Low level API to poll a flow.">
<polygon fill="white" stroke="black" points="378.5,-618.5 378.5,-639.5 507.5,-639.5 507.5,-618.5 378.5,-618.5"/>
<text text-anchor="middle" x="443" y="-626.5" font-family="FreeSans" font-size="10.00">__hfaf_process_pktflow</text>
</a>
</g>
<!-- Node10&#45;&gt;Node11 -->
<g id="edge20" class="edge"><title>Node10&#45;&gt;Node11</title>
<path fill="none" stroke="midnightblue" d="M341.95,-629C350.497,-629 359.374,-629 368.162,-629"/>
<polygon fill="midnightblue" stroke="midnightblue" points="368.41,-632.5 378.41,-629 368.41,-625.5 368.41,-632.5"/>
</g>
<!-- Node11&#45;&gt;Node7 -->
<g id="edge30" class="edge"><title>Node11&#45;&gt;Node7</title>
<path fill="none" stroke="midnightblue" d="M488.979,-639.51C513.1,-645.023 542.7,-651.789 567.462,-657.448"/>
<polygon fill="midnightblue" stroke="midnightblue" points="566.866,-660.902 577.394,-659.719 568.426,-654.078 566.866,-660.902"/>
</g>
<!-- Node12 -->
<g id="node23" class="node"><title>Node12</title>
<a xlink:href="cvm-hfa-search_8c.html#a6a8e1d7e70e0a10520302df5651e5fc5" target="_top" xlink:title="This routine provides the status of an outstanding pattern search operation initiated using hfa_searc...">
<polygon fill="white" stroke="black" points="1204,-613.5 1204,-634.5 1376,-634.5 1376,-613.5 1204,-613.5"/>
<text text-anchor="middle" x="1290" y="-621.5" font-family="FreeSans" font-size="10.00">hfa_searchctx_get_searchstatus</text>
</a>
</g>
<!-- Node11&#45;&gt;Node12 -->
<g id="edge22" class="edge"><title>Node11&#45;&gt;Node12</title>
<path fill="none" stroke="midnightblue" d="M507.693,-629.311C574.415,-629.604 681.48,-630 774,-630 774,-630 774,-630 979,-630 1051,-630 1132.36,-628.373 1193.8,-626.813"/>
<polygon fill="midnightblue" stroke="midnightblue" points="1193.97,-630.31 1203.87,-626.553 1193.79,-623.312 1193.97,-630.31"/>
</g>
<!-- Node16 -->
<g id="node32" class="node"><title>Node16</title>
<a xlink:href="cvm-hfa-search_8h.html#ab50a2d84e35b5a4a03a23fc90e4dffa0" target="_top" xlink:title="This routine retrieves the reason code after a search operation has been completed by the HFA engine...">
<polygon fill="white" stroke="black" points="1044,-0 1044,-34 1166,-34 1166,-0 1044,-0"/>
<text text-anchor="start" x="1052" y="-21" font-family="FreeSans" font-size="10.00">hfa_searchparam_get</text>
<text text-anchor="middle" x="1105" y="-8" font-family="FreeSans" font-size="10.00">_hwsearch_reason</text>
</a>
</g>
<!-- Node11&#45;&gt;Node16 -->
<g id="edge32" class="edge"><title>Node11&#45;&gt;Node16</title>
<path fill="none" stroke="midnightblue" d="M444.627,-618.201C456.194,-545.812 532.607,-134 774,-134 774,-134 774,-134 886,-134 966.267,-134 970.067,-78.6159 1042,-43 1045.27,-41.3823 1048.66,-39.7773 1052.1,-38.2055"/>
<polygon fill="midnightblue" stroke="midnightblue" points="1053.55,-41.3914 1061.27,-34.1362 1050.71,-34.993 1053.55,-41.3914"/>
</g>
<!-- Node17 -->
<g id="node34" class="node"><title>Node17</title>
<a xlink:href="cvm-hfa-search_8c.html#a6dbb15dc58155b2c94b19784ad42ef89" target="_top" xlink:title="This routine post&#45;processes the search results from the HFA engine and reports the pattern matches fo...">
<polygon fill="white" stroke="black" points="544.5,-367.5 544.5,-388.5 691.5,-388.5 691.5,-367.5 544.5,-367.5"/>
<text text-anchor="middle" x="618" y="-375.5" font-family="FreeSans" font-size="10.00">hfa_searchctx_getmatches</text>
</a>
</g>
<!-- Node11&#45;&gt;Node17 -->
<g id="edge34" class="edge"><title>Node11&#45;&gt;Node17</title>
<path fill="none" stroke="midnightblue" d="M450.52,-618.215C477.557,-579.435 570.067,-446.75 604.737,-397.023"/>
<polygon fill="midnightblue" stroke="midnightblue" points="607.66,-398.95 610.508,-388.745 601.918,-394.946 607.66,-398.95"/>
</g>
<!-- Node13 -->
<g id="node25" class="node"><title>Node13</title>
<a xlink:href="cvm-hfa_8c.html#a4753d2dd586e19676b1a59dd16baaeed" target="_top" xlink:title="Obtain status of submitted insruction.">
<polygon fill="white" stroke="black" points="1412.5,-613.5 1412.5,-634.5 1545.5,-634.5 1545.5,-613.5 1412.5,-613.5"/>
<text text-anchor="middle" x="1479" y="-621.5" font-family="FreeSans" font-size="10.00">hfa_dev_getasyncstatus</text>
</a>
</g>
<!-- Node12&#45;&gt;Node13 -->
<g id="edge24" class="edge"><title>Node12&#45;&gt;Node13</title>
<path fill="none" stroke="midnightblue" d="M1376.2,-624C1384.95,-624 1393.79,-624 1402.43,-624"/>
<polygon fill="midnightblue" stroke="midnightblue" points="1402.45,-627.5 1412.45,-624 1402.45,-620.5 1402.45,-627.5"/>
</g>
<!-- Node14 -->
<g id="node27" class="node"><title>Node14</title>
<a xlink:href="cvm-hfa-instr_8h.html#a56f2522dcba965745a1bc239fc432dca" target="_top" xlink:title="Gets done from RWORD0.">
<polygon fill="white" stroke="black" points="1586.5,-633.5 1586.5,-654.5 1709.5,-654.5 1709.5,-633.5 1586.5,-633.5"/>
<text text-anchor="middle" x="1648" y="-641.5" font-family="FreeSans" font-size="10.00">cvm_hfa_rslt_getdone</text>
</a>
</g>
<!-- Node13&#45;&gt;Node14 -->
<g id="edge26" class="edge"><title>Node13&#45;&gt;Node14</title>
<path fill="none" stroke="midnightblue" d="M1545.79,-631.905C1555.83,-633.092 1566.21,-634.321 1576.34,-635.519"/>
<polygon fill="midnightblue" stroke="midnightblue" points="1576.02,-639.006 1586.36,-636.706 1576.84,-632.055 1576.02,-639.006"/>
</g>
<!-- Node15 -->
<g id="node29" class="node"><title>Node15</title>
<a xlink:href="cvm-hfa-instr_8h.html#a9700a50b68b6616506528eb725a8bda1" target="_top" xlink:title="Gets reason from RWORD0.">
<polygon fill="white" stroke="black" points="1582.5,-593.5 1582.5,-614.5 1713.5,-614.5 1713.5,-593.5 1582.5,-593.5"/>
<text text-anchor="middle" x="1648" y="-601.5" font-family="FreeSans" font-size="10.00">cvm_hfa_rslt_getreason</text>
</a>
</g>
<!-- Node13&#45;&gt;Node15 -->
<g id="edge28" class="edge"><title>Node13&#45;&gt;Node15</title>
<path fill="none" stroke="midnightblue" d="M1545.79,-616.095C1554.41,-615.075 1563.29,-614.025 1572.05,-612.989"/>
<polygon fill="midnightblue" stroke="midnightblue" points="1572.73,-616.433 1582.24,-611.782 1571.9,-609.481 1572.73,-616.433"/>
</g>
<!-- Node18 -->
<g id="node36" class="node"><title>Node18</title>
<a xlink:href="cvm-hfa-common_8h.html#a0da7c57174fb96d75ae9cc2ed3116a05" target="_top" xlink:title="Dump buffer pointed by &quot;buf&quot; in readable format.">
<polygon fill="white" stroke="black" points="731,-278.5 731,-299.5 817,-299.5 817,-278.5 731,-278.5"/>
<text text-anchor="middle" x="774" y="-286.5" font-family="FreeSans" font-size="10.00">hfa_dump_buf</text>
</a>
</g>
<!-- Node17&#45;&gt;Node18 -->
<g id="edge36" class="edge"><title>Node17&#45;&gt;Node18</title>
<path fill="none" stroke="midnightblue" d="M635.818,-367.419C657.497,-354.595 695.263,-332.414 728,-314 733.615,-310.842 739.646,-307.516 745.434,-304.358"/>
<polygon fill="midnightblue" stroke="midnightblue" points="747.114,-307.428 754.232,-299.58 743.774,-301.276 747.114,-307.428"/>
</g>
<!-- Node19 -->
<g id="node38" class="node"><title>Node19</title>
<a xlink:href="cvm-hfa-pp_8c.html#a02d24f276578f8a39a93968262a08f1d" target="_top" xlink:title="pp">
<polygon fill="white" stroke="black" points="759.5,-416.5 759.5,-437.5 788.5,-437.5 788.5,-416.5 759.5,-416.5"/>
<text text-anchor="middle" x="774" y="-424.5" font-family="FreeSans" font-size="10.00">pp</text>
</a>
</g>
<!-- Node17&#45;&gt;Node19 -->
<g id="edge38" class="edge"><title>Node17&#45;&gt;Node19</title>
<path fill="none" stroke="midnightblue" d="M651.466,-388.512C681.025,-397.796 723.417,-411.112 749.799,-419.398"/>
<polygon fill="midnightblue" stroke="midnightblue" points="748.801,-422.754 759.391,-422.411 750.899,-416.075 748.801,-422.754"/>
</g>
<!-- Node20 -->
<g id="node40" class="node"><title>Node20</title>
<a xlink:href="pp_8h.html#af7a68f9e08d3b54012ad008a4f47e1cd" target="_top" xlink:title="pphfa">
<polygon fill="white" stroke="black" points="864,-436.5 864,-457.5 908,-457.5 908,-436.5 864,-436.5"/>
<text text-anchor="middle" x="886" y="-444.5" font-family="FreeSans" font-size="10.00">pphfa</text>
</a>
</g>
<!-- Node19&#45;&gt;Node20 -->
<g id="edge40" class="edge"><title>Node19&#45;&gt;Node20</title>
<path fill="none" stroke="midnightblue" d="M788.642,-429.615C805.05,-432.545 832.161,-437.386 853.612,-441.216"/>
<polygon fill="midnightblue" stroke="midnightblue" points="853.157,-444.691 863.617,-443.003 854.388,-437.8 853.157,-444.691"/>
</g>
<!-- Node21 -->
<g id="node42" class="node"><title>Node21</title>
<a xlink:href="cvm-hfa-res_8c.html#ad0de0b790a5786053d59797884dbdd23" target="_top" xlink:title="Rinit">
<polygon fill="white" stroke="black" points="868,-396.5 868,-417.5 904,-417.5 904,-396.5 868,-396.5"/>
<text text-anchor="middle" x="886" y="-404.5" font-family="FreeSans" font-size="10.00">Rinit</text>
</a>
</g>
<!-- Node19&#45;&gt;Node21 -->
<g id="edge42" class="edge"><title>Node19&#45;&gt;Node21</title>
<path fill="none" stroke="midnightblue" d="M788.642,-424.385C806.069,-421.273 835.57,-416.005 857.54,-412.082"/>
<polygon fill="midnightblue" stroke="midnightblue" points="858.406,-415.483 867.635,-410.279 857.175,-408.592 858.406,-415.483"/>
</g>
<!-- Node22 -->
<g id="node44" class="node"><title>Node22</title>
<a xlink:href="cvm-hfa-pp_8c.html#adcc1149c628372e2e566c246870929cb" target="_top" xlink:title="infoentry">
<polygon fill="white" stroke="black" points="856.5,-356.5 856.5,-377.5 915.5,-377.5 915.5,-356.5 856.5,-356.5"/>
<text text-anchor="middle" x="886" y="-364.5" font-family="FreeSans" font-size="10.00">infoentry</text>
</a>
</g>
<!-- Node19&#45;&gt;Node22 -->
<g id="edge44" class="edge"><title>Node19&#45;&gt;Node22</title>
<path fill="none" stroke="midnightblue" d="M788.642,-419.156C805.971,-409.873 835.238,-394.194 857.168,-382.446"/>
<polygon fill="midnightblue" stroke="midnightblue" points="858.899,-385.489 866.061,-377.681 855.594,-379.318 858.899,-385.489"/>
</g>
<!-- Node48 -->
<g id="node100" class="node"><title>Node48</title>
<a xlink:href="cvm-hfa-res_8c.html#a6c56aa24fa6551b23e4283ae2d5bcad8" target="_top" xlink:title="Rreport1">
<polygon fill="white" stroke="black" points="857.5,-516.5 857.5,-537.5 914.5,-537.5 914.5,-516.5 857.5,-516.5"/>
<text text-anchor="middle" x="886" y="-524.5" font-family="FreeSans" font-size="10.00">Rreport1</text>
</a>
</g>
<!-- Node19&#45;&gt;Node48 -->
<g id="edge104" class="edge"><title>Node19&#45;&gt;Node48</title>
<path fill="none" stroke="midnightblue" d="M783.786,-437.744C798.614,-453.737 828.02,-484.349 856,-507 857.371,-508.11 858.804,-509.218 860.269,-510.312"/>
<polygon fill="midnightblue" stroke="midnightblue" points="858.601,-513.418 868.791,-516.317 862.633,-507.696 858.601,-513.418"/>
</g>
<!-- Node50 -->
<g id="node104" class="node"><title>Node50</title>
<a xlink:href="cvm-hfa-res_8c.html#a38aa04fce135199ec3bb8726da163846" target="_top" xlink:title="Rfinish">
<polygon fill="white" stroke="black" points="862,-476.5 862,-497.5 910,-497.5 910,-476.5 862,-476.5"/>
<text text-anchor="middle" x="886" y="-484.5" font-family="FreeSans" font-size="10.00">Rfinish</text>
</a>
</g>
<!-- Node19&#45;&gt;Node50 -->
<g id="edge108" class="edge"><title>Node19&#45;&gt;Node50</title>
<path fill="none" stroke="midnightblue" d="M788.642,-434.844C805.971,-444.127 835.238,-459.806 857.168,-471.554"/>
<polygon fill="midnightblue" stroke="midnightblue" points="855.594,-474.682 866.061,-476.319 858.899,-468.511 855.594,-474.682"/>
</g>
<!-- Node23 -->
<g id="node46" class="node"><title>Node23</title>
<a xlink:href="hfa-lnx_8c.html#a78ffddbcd7cdd164889cfb53ea367886" target="_top" xlink:title="entry">
<polygon fill="white" stroke="black" points="958.5,-316.5 958.5,-337.5 999.5,-337.5 999.5,-316.5 958.5,-316.5"/>
<text text-anchor="middle" x="979" y="-324.5" font-family="FreeSans" font-size="10.00">entry</text>
</a>
</g>
<!-- Node22&#45;&gt;Node23 -->
<g id="edge46" class="edge"><title>Node22&#45;&gt;Node23</title>
<path fill="none" stroke="midnightblue" d="M910.435,-356.49C922.155,-351.449 936.31,-345.361 948.708,-340.029"/>
<polygon fill="midnightblue" stroke="midnightblue" points="950.391,-343.115 958.194,-335.949 947.625,-336.685 950.391,-343.115"/>
</g>
<!-- Node47 -->
<g id="node98" class="node"><title>Node47</title>
<a xlink:href="cvm-hfa-pp_8c.html#a85b4c8af06430f26eab8afdeea3a7395" target="_top" xlink:title="hashidx">
<polygon fill="white" stroke="black" points="952,-356.5 952,-377.5 1006,-377.5 1006,-356.5 952,-356.5"/>
<text text-anchor="middle" x="979" y="-364.5" font-family="FreeSans" font-size="10.00">hashidx</text>
</a>
</g>
<!-- Node22&#45;&gt;Node47 -->
<g id="edge102" class="edge"><title>Node22&#45;&gt;Node47</title>
<path fill="none" stroke="midnightblue" d="M915.681,-367C923.92,-367 932.973,-367 941.592,-367"/>
<polygon fill="midnightblue" stroke="midnightblue" points="941.807,-370.5 951.807,-367 941.807,-363.5 941.807,-370.5"/>
</g>
<!-- Node23&#45;&gt;Node16 -->
<g id="edge88" class="edge"><title>Node23&#45;&gt;Node16</title>
<path fill="none" stroke="midnightblue" d="M980.744,-316.472C988.908,-267.651 1023.72,-64.7492 1042,-43 1042.62,-42.2668 1043.26,-41.554 1043.92,-40.861"/>
<polygon fill="midnightblue" stroke="midnightblue" points="1046.42,-43.3257 1051.75,-34.169 1041.87,-38.0036 1046.42,-43.3257"/>
</g>
<!-- Node23&#45;&gt;Node17 -->
<g id="edge94" class="edge"><title>Node23&#45;&gt;Node17</title>
<path fill="none" stroke="midnightblue" d="M958.324,-329.921C909.738,-336.785 786.06,-354.257 701.975,-366.136"/>
<polygon fill="midnightblue" stroke="midnightblue" points="701.337,-362.692 691.925,-367.556 702.316,-369.623 701.337,-362.692"/>
</g>
<!-- Node24 -->
<g id="node48" class="node"><title>Node24</title>
<a xlink:href="hfa-lnx_8c.html#a4c3443f524b4c0d95639694f0b74e850" target="_top" xlink:title="Process command line options, Read graph and payload.">
<polygon fill="white" stroke="black" points="1058,-316.5 1058,-337.5 1152,-337.5 1152,-316.5 1058,-316.5"/>
<text text-anchor="middle" x="1105" y="-324.5" font-family="FreeSans" font-size="10.00">process_options</text>
</a>
</g>
<!-- Node23&#45;&gt;Node24 -->
<g id="edge48" class="edge"><title>Node23&#45;&gt;Node24</title>
<path fill="none" stroke="midnightblue" d="M999.525,-327C1012.7,-327 1030.51,-327 1047.75,-327"/>
<polygon fill="midnightblue" stroke="midnightblue" points="1047.79,-330.5 1057.79,-327 1047.79,-323.5 1047.79,-330.5"/>
</g>
<!-- Node28 -->
<g id="node56" class="node"><title>Node28</title>
<a xlink:href="cvm-hfa_8c.html#a873768042b716d60996ec5d858fc8fd9" target="_top" xlink:title="This function must be called by application to initialize HFA engine and setup resources for HFA hard...">
<polygon fill="white" stroke="red" points="1068,-396.5 1068,-417.5 1142,-417.5 1142,-396.5 1068,-396.5"/>
<text text-anchor="middle" x="1105" y="-404.5" font-family="FreeSans" font-size="10.00">hfa_dev_init</text>
</a>
</g>
<!-- Node23&#45;&gt;Node28 -->
<g id="edge56" class="edge"><title>Node23&#45;&gt;Node28</title>
<path fill="none" stroke="midnightblue" d="M994.558,-337.699C998.418,-340.574 1002.46,-343.783 1006,-347 1023.7,-363.088 1021.9,-374.039 1042,-387 1047,-390.227 1052.57,-392.967 1058.26,-395.286"/>
<polygon fill="midnightblue" stroke="midnightblue" points="1057.29,-398.657 1067.88,-398.801 1059.69,-392.082 1057.29,-398.657"/>
</g>
<!-- Node36 -->
<g id="node72" class="node"><title>Node36</title>
<a xlink:href="hfa-lnx_8c.html#a546f3769e735d4bef0bfab1cba56921c" target="_top" xlink:title="Load graph to HFA memory and cache.">
<polygon fill="white" stroke="red" points="1070.5,-92.5 1070.5,-113.5 1139.5,-113.5 1139.5,-92.5 1070.5,-92.5"/>
<text text-anchor="middle" x="1105" y="-100.5" font-family="FreeSans" font-size="10.00">graph_load</text>
</a>
</g>
<!-- Node23&#45;&gt;Node36 -->
<g id="edge72" class="edge"><title>Node23&#45;&gt;Node36</title>
<path fill="none" stroke="midnightblue" d="M980.92,-316.488C987.985,-278.862 1013.61,-151.616 1042,-123 1047.22,-117.736 1053.82,-113.854 1060.77,-110.994"/>
<polygon fill="midnightblue" stroke="midnightblue" points="1062.05,-114.255 1070.37,-107.691 1059.78,-107.636 1062.05,-114.255"/>
</g>
<!-- Node37 -->
<g id="node74" class="node"><title>Node37</title>
<a xlink:href="hfa-lnx_8c.html#a924d2733ebc7a856f8c3fd293193ba44" target="_top" xlink:title="Initialize search context.">
<polygon fill="white" stroke="red" points="1067.5,-52.5 1067.5,-73.5 1142.5,-73.5 1142.5,-52.5 1067.5,-52.5"/>
<text text-anchor="middle" x="1105" y="-60.5" font-family="FreeSans" font-size="10.00">initialize_ctx</text>
</a>
</g>
<!-- Node23&#45;&gt;Node37 -->
<g id="edge74" class="edge"><title>Node23&#45;&gt;Node37</title>
<path fill="none" stroke="midnightblue" d="M980.385,-316.246C986.064,-273.735 1008.84,-118.027 1042,-83 1046.4,-78.3516 1051.87,-74.7793 1057.75,-72.035"/>
<polygon fill="midnightblue" stroke="midnightblue" points="1059.14,-75.2473 1067.2,-68.3682 1056.61,-68.7209 1059.14,-75.2473"/>
</g>
<!-- Node38 -->
<g id="node76" class="node"><title>Node38</title>
<a xlink:href="app-utils_8c.html#a4b47f3c9c5a0b3eaee64e264171628a3" target="_top" xlink:title="This routine reads data of chunksize/a packet from given payload(Normal/PCAP) file and returns data b...">
<polygon fill="white" stroke="red" points="1042,-540.5 1042,-561.5 1168,-561.5 1168,-540.5 1042,-540.5"/>
<text text-anchor="middle" x="1105" y="-548.5" font-family="FreeSans" font-size="10.00">hfautils_parse_payload</text>
</a>
</g>
<!-- Node23&#45;&gt;Node38 -->
<g id="edge76" class="edge"><title>Node23&#45;&gt;Node38</title>
<path fill="none" stroke="midnightblue" d="M997.319,-337.64C1000.64,-340.313 1003.76,-343.449 1006,-347 1050.49,-417.457 986.536,-468.812 1042,-531 1043.18,-532.325 1044.45,-533.562 1045.79,-534.719"/>
<polygon fill="midnightblue" stroke="midnightblue" points="1043.94,-537.694 1054.16,-540.491 1047.92,-531.932 1043.94,-537.694"/>
</g>
<!-- Node39 -->
<g id="node78" class="node"><title>Node39</title>
<a xlink:href="cvm-hfa-search_8h.html#ae9741e867075c9b8cc63a7d889d5bf20" target="_top" xlink:title="This routine is a variant of hfa_searchparam_set_inputiovec() when the previously searched input IO v...">
<polygon fill="white" stroke="black" points="1044.5,-488 1044.5,-522 1165.5,-522 1165.5,-488 1044.5,-488"/>
<text text-anchor="start" x="1052.5" y="-509" font-family="FreeSans" font-size="10.00">hfa_searchparam_set</text>
<text text-anchor="middle" x="1105" y="-496" font-family="FreeSans" font-size="10.00">_inputiovec_0_n</text>
</a>
</g>
<!-- Node23&#45;&gt;Node39 -->
<g id="edge78" class="edge"><title>Node23&#45;&gt;Node39</title>
<path fill="none" stroke="midnightblue" d="M996.842,-337.55C1000.28,-340.262 1003.56,-343.437 1006,-347 1040.32,-397.197 1001.77,-433.396 1042,-479 1042.74,-479.843 1043.52,-480.659 1044.32,-481.45"/>
<polygon fill="midnightblue" stroke="midnightblue" points="1042.26,-484.283 1052.22,-487.884 1046.68,-478.855 1042.26,-484.283"/>
</g>
<!-- Node40 -->
<g id="node80" class="node"><title>Node40</title>
<a xlink:href="cvm-hfa-search_8h.html#a12882fa53f8ec49b9b2950711161db42" target="_top" xlink:title="This routine sets the output buffer in the sparam.">
<polygon fill="white" stroke="black" points="1044.5,-436 1044.5,-470 1165.5,-470 1165.5,-436 1044.5,-436"/>
<text text-anchor="start" x="1052.5" y="-457" font-family="FreeSans" font-size="10.00">hfa_searchparam_set</text>
<text text-anchor="middle" x="1105" y="-444" font-family="FreeSans" font-size="10.00">_output</text>
</a>
</g>
<!-- Node23&#45;&gt;Node40 -->
<g id="edge80" class="edge"><title>Node23&#45;&gt;Node40</title>
<path fill="none" stroke="midnightblue" d="M996.149,-337.638C999.71,-340.382 1003.22,-343.547 1006,-347 1030.46,-377.365 1014,-399.867 1042,-427 1043.09,-428.055 1044.23,-429.07 1045.41,-430.045"/>
<polygon fill="midnightblue" stroke="midnightblue" points="1043.52,-433 1053.7,-435.931 1047.57,-427.29 1043.52,-433"/>
</g>
<!-- Node41 -->
<g id="node82" class="node"><title>Node41</title>
<a xlink:href="cvm-hfa-search_8c.html#a57d7540278164eb6b6c132be00db0de5" target="_top" xlink:title="This routine performs a pattern search using the given parameters in a blocking manner.">
<polygon fill="white" stroke="black" points="1043.5,-580.5 1043.5,-601.5 1166.5,-601.5 1166.5,-580.5 1043.5,-580.5"/>
<text text-anchor="middle" x="1105" y="-588.5" font-family="FreeSans" font-size="10.00">hfa_searchctx_search</text>
</a>
</g>
<!-- Node23&#45;&gt;Node41 -->
<g id="edge82" class="edge"><title>Node23&#45;&gt;Node41</title>
<path fill="none" stroke="midnightblue" d="M997.412,-337.582C1000.73,-340.259 1003.82,-343.411 1006,-347 1058.39,-433.157 976.168,-494.623 1042,-571 1043.03,-572.195 1044.13,-573.32 1045.29,-574.378"/>
<polygon fill="midnightblue" stroke="midnightblue" points="1043.56,-577.444 1053.73,-580.438 1047.65,-571.76 1043.56,-577.444"/>
</g>
<!-- Node42 -->
<g id="node87" class="node"><title>Node42</title>
<a xlink:href="cvm-hfa-common_8h.html#ad117ba199386b8d427cbb04f288b5905" target="_top" xlink:title="Dump HFA related registers.">
<polygon fill="white" stroke="black" points="1059.5,-356.5 1059.5,-377.5 1150.5,-377.5 1150.5,-356.5 1059.5,-356.5"/>
<text text-anchor="middle" x="1105" y="-364.5" font-family="FreeSans" font-size="10.00">hfa_dump_regs</text>
</a>
</g>
<!-- Node23&#45;&gt;Node42 -->
<g id="edge90" class="edge"><title>Node23&#45;&gt;Node42</title>
<path fill="none" stroke="midnightblue" d="M999.525,-333.516C1016.38,-338.867 1040.83,-346.628 1061.95,-353.332"/>
<polygon fill="midnightblue" stroke="midnightblue" points="1061.09,-356.733 1071.68,-356.423 1063.21,-350.062 1061.09,-356.733"/>
</g>
<!-- Node43 -->
<g id="node89" class="node"><title>Node43</title>
<a xlink:href="cvm-hfa-search_8h.html#ad18e328b50b109e1e44821f3d006bd9d" target="_top" xlink:title="This routine returns the data&#45;buffer offset.">
<polygon fill="white" stroke="black" points="1044,-264 1044,-298 1166,-298 1166,-264 1044,-264"/>
<text text-anchor="start" x="1052" y="-285" font-family="FreeSans" font-size="10.00">hfa_searchparam_get</text>
<text text-anchor="middle" x="1105" y="-272" font-family="FreeSans" font-size="10.00">_hwsearch_pdboff</text>
</a>
</g>
<!-- Node23&#45;&gt;Node43 -->
<g id="edge92" class="edge"><title>Node23&#45;&gt;Node43</title>
<path fill="none" stroke="midnightblue" d="M999.525,-319.507C1012.94,-314.609 1031.16,-307.956 1048.69,-301.558"/>
<polygon fill="midnightblue" stroke="midnightblue" points="1050.13,-304.759 1058.32,-298.042 1047.73,-298.184 1050.13,-304.759"/>
</g>
<!-- Node44 -->
<g id="node92" class="node"><title>Node44</title>
<a xlink:href="app-utils_8c.html#a633038357891aa5147b77fe939f300bf" target="_top" xlink:title="Print pattern matches via match buffer and cleanup all matches.">
<polygon fill="white" stroke="red" points="1043,-224.5 1043,-245.5 1167,-245.5 1167,-224.5 1043,-224.5"/>
<text text-anchor="middle" x="1105" y="-232.5" font-family="FreeSans" font-size="10.00">hfautils_print_matches</text>
</a>
</g>
<!-- Node23&#45;&gt;Node44 -->
<g id="edge96" class="edge"><title>Node23&#45;&gt;Node44</title>
<path fill="none" stroke="midnightblue" d="M985.577,-316.322C995.769,-300.641 1016.85,-271.467 1042,-255 1044.97,-253.055 1048.14,-251.289 1051.43,-249.685"/>
<polygon fill="midnightblue" stroke="midnightblue" points="1053.1,-252.772 1060.89,-245.587 1050.32,-246.349 1053.1,-252.772"/>
</g>
<!-- Node45 -->
<g id="node94" class="node"><title>Node45</title>
<a xlink:href="cvm-hfa-search_8h.html#ac5bcfbfda7036d9aca28a3c5828847a5" target="_top" xlink:title="This routine retrieves flags returned by post&#45;processor.">
<polygon fill="white" stroke="black" points="1044,-172 1044,-206 1166,-206 1166,-172 1044,-172"/>
<text text-anchor="start" x="1052" y="-193" font-family="FreeSans" font-size="10.00">hfa_searchparam_get</text>
<text text-anchor="middle" x="1105" y="-180" font-family="FreeSans" font-size="10.00">_ppoflags</text>
</a>
</g>
<!-- Node23&#45;&gt;Node45 -->
<g id="edge98" class="edge"><title>Node23&#45;&gt;Node45</title>
<path fill="none" stroke="midnightblue" d="M982.366,-316.205C989.727,-294.243 1009.27,-243.994 1042,-215 1043.31,-213.84 1044.68,-212.728 1046.09,-211.661"/>
<polygon fill="midnightblue" stroke="midnightblue" points="1048.21,-214.457 1054.65,-206.039 1044.37,-208.608 1048.21,-214.457"/>
</g>
<!-- Node46 -->
<g id="node96" class="node"><title>Node46</title>
<a xlink:href="hfa-lnx_8c.html#a5c6551bf9ea9cf51ae7f2076c4cbe8ef" target="_top" xlink:title="Application cleanup will be done by this routine.">
<polygon fill="white" stroke="red" points="1078,-132.5 1078,-153.5 1132,-153.5 1132,-132.5 1078,-132.5"/>
<text text-anchor="middle" x="1105" y="-140.5" font-family="FreeSans" font-size="10.00">cleanup</text>
</a>
</g>
<!-- Node23&#45;&gt;Node46 -->
<g id="edge100" class="edge"><title>Node23&#45;&gt;Node46</title>
<path fill="none" stroke="midnightblue" d="M979.944,-316.454C983.096,-287.581 995.828,-206.509 1042,-163 1049.19,-156.224 1058.67,-151.744 1068.09,-148.782"/>
<polygon fill="midnightblue" stroke="midnightblue" points="1069.01,-152.158 1077.78,-146.211 1067.21,-145.392 1069.01,-152.158"/>
</g>
<!-- Node25 -->
<g id="node50" class="node"><title>Node25</title>
<a xlink:href="app-utils_8c.html#a8d5ec2ca8ebb2e04916983e6053a5c79" target="_top" xlink:title="Return size of a file(compressed or uncompressed).">
<polygon fill="white" stroke="red" points="1242.5,-190.5 1242.5,-211.5 1337.5,-211.5 1337.5,-190.5 1242.5,-190.5"/>
<text text-anchor="middle" x="1290" y="-198.5" font-family="FreeSans" font-size="10.00">hfautils_file_size</text>
</a>
</g>
<!-- Node24&#45;&gt;Node25 -->
<g id="edge50" class="edge"><title>Node24&#45;&gt;Node25</title>
<path fill="none" stroke="midnightblue" d="M1152.23,-317.106C1157.98,-314.49 1163.43,-311.182 1168,-307 1198.57,-279.033 1172.35,-247.739 1204,-221 1212.08,-214.178 1222.04,-209.581 1232.29,-206.504"/>
<polygon fill="midnightblue" stroke="midnightblue" points="1233.33,-209.852 1242.16,-203.997 1231.6,-203.068 1233.33,-209.852"/>
</g>
<!-- Node26 -->
<g id="node52" class="node"><title>Node26</title>
<a xlink:href="app-utils_8c.html#a12339c67618c4b3a54c32f43d378c273" target="_top" xlink:title="Read data from a file to a buffer(compressed or uncompressed).">
<polygon fill="white" stroke="red" points="1241.5,-282.5 1241.5,-303.5 1338.5,-303.5 1338.5,-282.5 1241.5,-282.5"/>
<text text-anchor="middle" x="1290" y="-290.5" font-family="FreeSans" font-size="10.00">hfautils_read_file</text>
</a>
</g>
<!-- Node24&#45;&gt;Node26 -->
<g id="edge52" class="edge"><title>Node24&#45;&gt;Node26</title>
<path fill="none" stroke="midnightblue" d="M1152.16,-318.332C1176.26,-313.903 1205.82,-308.472 1231.37,-303.775"/>
<polygon fill="midnightblue" stroke="midnightblue" points="1232.11,-307.198 1241.31,-301.948 1230.84,-300.314 1232.11,-307.198"/>
</g>
<!-- Node27 -->
<g id="node54" class="node"><title>Node27</title>
<a xlink:href="app-utils_8c.html#a1944a739d03e86dcaee1a7d245cfeba0" target="_top" xlink:title="Initialize the attributes needed for parsing the payload file.">
<polygon fill="white" stroke="red" points="1233.5,-230 1233.5,-264 1346.5,-264 1346.5,-230 1233.5,-230"/>
<text text-anchor="start" x="1241.5" y="-251" font-family="FreeSans" font-size="10.00">hfautils_init_payload</text>
<text text-anchor="middle" x="1290" y="-238" font-family="FreeSans" font-size="10.00">_attributes</text>
</a>
</g>
<!-- Node24&#45;&gt;Node27 -->
<g id="edge54" class="edge"><title>Node24&#45;&gt;Node27</title>
<path fill="none" stroke="midnightblue" d="M1147.48,-316.413C1154.57,-313.839 1161.67,-310.726 1168,-307 1186.96,-295.834 1184.96,-284.035 1204,-273 1210.22,-269.398 1216.98,-266.25 1223.89,-263.51"/>
<polygon fill="midnightblue" stroke="midnightblue" points="1225.2,-266.759 1233.37,-260.021 1222.78,-260.189 1225.2,-266.759"/>
</g>
<!-- Node29 -->
<g id="node58" class="node"><title>Node29</title>
<a xlink:href="cvm-hfa-stats_8c.html#a2fcf955b47370bfa46705ee5a23a70cf" target="_top" xlink:title="This routine allocates memory for counters to maintain statistics of each processing core...">
<polygon fill="white" stroke="red" points="1239,-522.5 1239,-543.5 1341,-543.5 1341,-522.5 1239,-522.5"/>
<text text-anchor="middle" x="1290" y="-530.5" font-family="FreeSans" font-size="10.00">hfa_dev_stats_init</text>
</a>
</g>
<!-- Node28&#45;&gt;Node29 -->
<g id="edge58" class="edge"><title>Node28&#45;&gt;Node29</title>
<path fill="none" stroke="midnightblue" d="M1142.14,-413.037C1151.44,-416 1160.8,-420.417 1168,-427 1198.57,-454.967 1172.35,-486.261 1204,-513 1211.14,-519.029 1219.75,-523.321 1228.73,-526.362"/>
<polygon fill="midnightblue" stroke="midnightblue" points="1228,-529.791 1238.57,-529.192 1229.93,-523.064 1228,-529.791"/>
</g>
<!-- Node30 -->
<g id="node60" class="node"><title>Node30</title>
<a xlink:href="cvm-hfa_8c.html#a27982497398da2118cd5287ed51732e7" target="_top" xlink:title="Provides device&#45;specific information This is a utility routine used to obtain HFA device&#45;specific det...">
<polygon fill="white" stroke="black" points="1234.5,-482.5 1234.5,-503.5 1345.5,-503.5 1345.5,-482.5 1234.5,-482.5"/>
<text text-anchor="middle" x="1290" y="-490.5" font-family="FreeSans" font-size="10.00">hfa_dev_getdevinfo</text>
</a>
</g>
<!-- Node28&#45;&gt;Node30 -->
<g id="edge60" class="edge"><title>Node28&#45;&gt;Node30</title>
<path fill="none" stroke="midnightblue" d="M1142.04,-414.719C1151.03,-417.651 1160.27,-421.632 1168,-427 1189.32,-441.81 1182.11,-459.043 1204,-473 1210.22,-476.966 1217.14,-480.148 1224.28,-482.7"/>
<polygon fill="midnightblue" stroke="midnightblue" points="1223.51,-486.128 1234.1,-485.804 1225.62,-479.454 1223.51,-486.128"/>
</g>
<!-- Node31 -->
<g id="node62" class="node"><title>Node31</title>
<a xlink:href="pp_8h.html#a6f5982b2671e9682262a26b0d2996396" target="_top" xlink:title="Constructs a readable version string for the PP library.">
<polygon fill="white" stroke="black" points="1230,-442.5 1230,-463.5 1350,-463.5 1350,-442.5 1230,-442.5"/>
<text text-anchor="middle" x="1290" y="-450.5" font-family="FreeSans" font-size="10.00">pp_get_version_string</text>
</a>
</g>
<!-- Node28&#45;&gt;Node31 -->
<g id="edge62" class="edge"><title>Node28&#45;&gt;Node31</title>
<path fill="none" stroke="midnightblue" d="M1142.08,-417.003C1160.64,-421.943 1183.47,-427.919 1204,-433 1213.6,-435.376 1223.82,-437.824 1233.74,-440.157"/>
<polygon fill="midnightblue" stroke="midnightblue" points="1232.99,-443.577 1243.52,-442.445 1234.58,-436.761 1232.99,-443.577"/>
</g>
<!-- Node32 -->
<g id="node64" class="node"><title>Node32</title>
<a xlink:href="cvm-hfa_8c.html#afd1d53fe8a402d4c5799e6e98c67baaa" target="_top" xlink:title="Displays HFA Device info.">
<polygon fill="white" stroke="red" points="1231.5,-402.5 1231.5,-423.5 1348.5,-423.5 1348.5,-402.5 1231.5,-402.5"/>
<text text-anchor="middle" x="1290" y="-410.5" font-family="FreeSans" font-size="10.00">hfa_dev_display_info</text>
</a>
</g>
<!-- Node28&#45;&gt;Node32 -->
<g id="edge64" class="edge"><title>Node28&#45;&gt;Node32</title>
<path fill="none" stroke="midnightblue" d="M1142.44,-408.214C1165.09,-408.949 1194.68,-409.909 1221.41,-410.775"/>
<polygon fill="midnightblue" stroke="midnightblue" points="1221.38,-414.276 1231.49,-411.102 1221.61,-407.28 1221.38,-414.276"/>
</g>
<!-- Node33 -->
<g id="node66" class="node"><title>Node33</title>
<a xlink:href="cvm-hfa_8c.html#a236e64ca73680ea6761204d5c44d4e96" target="_top" xlink:title="API to set PP resource allocator for partial matches.">
<polygon fill="white" stroke="black" points="1222.5,-362.5 1222.5,-383.5 1357.5,-383.5 1357.5,-362.5 1222.5,-362.5"/>
<text text-anchor="middle" x="1290" y="-370.5" font-family="FreeSans" font-size="10.00">hfa_dev_set_fnp_ppalloc</text>
</a>
</g>
<!-- Node28&#45;&gt;Node33 -->
<g id="edge66" class="edge"><title>Node28&#45;&gt;Node33</title>
<path fill="none" stroke="midnightblue" d="M1142.44,-400.12C1165.37,-395.904 1195.41,-390.383 1222.4,-385.424"/>
<polygon fill="midnightblue" stroke="midnightblue" points="1223.37,-388.805 1232.57,-383.555 1222.1,-381.92 1223.37,-388.805"/>
</g>
<!-- Node34 -->
<g id="node68" class="node"><title>Node34</title>
<a xlink:href="cvm-hfa_8c.html#ab547f175726534d6a0a334eb35af4980" target="_top" xlink:title="Default function pointer for PP allocations.">
<polygon fill="white" stroke="black" points="1230,-322.5 1230,-343.5 1350,-343.5 1350,-322.5 1230,-322.5"/>
<text text-anchor="middle" x="1290" y="-330.5" font-family="FreeSans" font-size="10.00">hfa_defaultfn_ppalloc</text>
</a>
</g>
<!-- Node28&#45;&gt;Node34 -->
<g id="edge68" class="edge"><title>Node28&#45;&gt;Node34</title>
<path fill="none" stroke="midnightblue" d="M1142.17,-398.243C1150.97,-395.357 1160.09,-391.658 1168,-387 1186.96,-375.834 1184.61,-363.409 1204,-353 1209.1,-350.26 1214.58,-347.892 1220.2,-345.848"/>
<polygon fill="midnightblue" stroke="midnightblue" points="1221.35,-349.153 1229.75,-342.703 1219.16,-342.504 1221.35,-349.153"/>
</g>
<!-- Node35 -->
<g id="node70" class="node"><title>Node35</title>
<a xlink:href="cvm-hfa_8c.html#a148abbfdeebb207ff46884af8eeb8fa4" target="_top" xlink:title="API to set PP resource deallocator for partial matches.">
<polygon fill="white" stroke="black" points="1224,-562.5 1224,-583.5 1356,-583.5 1356,-562.5 1224,-562.5"/>
<text text-anchor="middle" x="1290" y="-570.5" font-family="FreeSans" font-size="10.00">hfa_dev_set_fnp_ppfree</text>
</a>
</g>
<!-- Node28&#45;&gt;Node35 -->
<g id="edge70" class="edge"><title>Node28&#45;&gt;Node35</title>
<path fill="none" stroke="midnightblue" d="M1142.02,-412.277C1151.54,-415.235 1161.04,-419.839 1168,-427 1208.58,-468.777 1161.8,-512.856 1204,-553 1207.19,-556.031 1210.74,-558.634 1214.53,-560.867"/>
<polygon fill="midnightblue" stroke="midnightblue" points="1213.26,-564.141 1223.78,-565.431 1216.36,-557.865 1213.26,-564.141"/>
</g>
<!-- Node41&#45;&gt;Node6 -->
<g id="edge84" class="edge"><title>Node41&#45;&gt;Node6</title>
<path fill="none" stroke="midnightblue" d="M1124.45,-601.618C1153.99,-617.747 1210.83,-648.78 1249.58,-669.935"/>
<polygon fill="midnightblue" stroke="midnightblue" points="1248.08,-673.1 1258.53,-674.82 1251.43,-666.956 1248.08,-673.1"/>
</g>
<!-- Node41&#45;&gt;Node12 -->
<g id="edge86" class="edge"><title>Node41&#45;&gt;Node12</title>
<path fill="none" stroke="midnightblue" d="M1164.04,-601.532C1182.15,-604.762 1202.23,-608.344 1220.95,-611.682"/>
<polygon fill="midnightblue" stroke="midnightblue" points="1220.42,-615.144 1230.88,-613.455 1221.65,-608.253 1220.42,-615.144"/>
</g>
<!-- Node49 -->
<g id="node102" class="node"><title>Node49</title>
<a xlink:href="cvm-hfa-res_8c.html#a70c9e55ba1fcb934f74ad71ddca9d08f" target="_top" xlink:title="Radd">
<polygon fill="white" stroke="black" points="958.5,-516.5 958.5,-537.5 999.5,-537.5 999.5,-516.5 958.5,-516.5"/>
<text text-anchor="middle" x="979" y="-524.5" font-family="FreeSans" font-size="10.00">Radd</text>
</a>
</g>
<!-- Node48&#45;&gt;Node49 -->
<g id="edge106" class="edge"><title>Node48&#45;&gt;Node49</title>
<path fill="none" stroke="midnightblue" d="M914.662,-527C925.229,-527 937.245,-527 948.009,-527"/>
<polygon fill="midnightblue" stroke="midnightblue" points="948.256,-530.5 958.256,-527 948.256,-523.5 948.256,-530.5"/>
</g>
</g>
</svg>
