<?xml version="1.0" encoding="UTF-8" standalone="no"?>
<!DOCTYPE svg PUBLIC "-//W3C//DTD SVG 1.1//EN"
 "http://www.w3.org/Graphics/SVG/1.1/DTD/svg11.dtd">
<!-- Generated by graphviz version 2.24.0 (20090616.2323)
 -->
<!-- Title: exit Pages: 1 -->
<svg width="840pt" height="640pt"
 viewBox="0.00 0.00 840.00 640.00" xmlns="http://www.w3.org/2000/svg" xmlns:xlink="http://www.w3.org/1999/xlink">
<g id="graph1" class="graph" transform="scale(1 1) rotate(0) translate(4 636)">
<title>exit</title>
<polygon fill="white" stroke="white" points="-4,5 -4,-636 837,-636 837,5 -4,5"/>
<!-- Node1 -->
<g id="node1" class="node"><title>Node1</title>
<polygon fill="#bfbfbf" stroke="black" points="0.5,-439.5 0.5,-460.5 33.5,-460.5 33.5,-439.5 0.5,-439.5"/>
<text text-anchor="middle" x="17" y="-447.5" font-family="FreeSans" font-size="10.00">exit</text>
</g>
<!-- Node2 -->
<g id="node3" class="node"><title>Node2</title>
<a xlink:href="hfa-lnx-wqe-lock_8c.html#acd9e54f020b77f14d54c200b65423a15" target="_top" xlink:title="Application cleanup will be done by this routine.">
<polygon fill="white" stroke="black" points="70,-439.5 70,-460.5 124,-460.5 124,-439.5 70,-439.5"/>
<text text-anchor="middle" x="97" y="-447.5" font-family="FreeSans" font-size="10.00">cleanup</text>
</a>
</g>
<!-- Node1&#45;&gt;Node2 -->
<g id="edge2" class="edge"><title>Node1&#45;&gt;Node2</title>
<path fill="none" stroke="midnightblue" d="M33.5761,-450C41.1576,-450 50.4725,-450 59.6056,-450"/>
<polygon fill="midnightblue" stroke="midnightblue" points="59.7377,-453.5 69.7377,-450 59.7377,-446.5 59.7377,-453.5"/>
</g>
<!-- Node3 -->
<g id="node5" class="node"><title>Node3</title>
<a xlink:href="cvm-hfa-module_8c.html#a85a6306007b18d70af559a54c45aa209" target="_top" xlink:title="Register intercept callback for HFA HW WQE.">
<polygon fill="white" stroke="black" points="169.5,-519 169.5,-553 282.5,-553 282.5,-519 169.5,-519"/>
<text text-anchor="start" x="177.5" y="-540" font-family="FreeSans" font-size="10.00">hfa_register_hwwqe</text>
<text text-anchor="middle" x="226" y="-527" font-family="FreeSans" font-size="10.00">_interceptcb</text>
</a>
</g>
<!-- Node2&#45;&gt;Node3 -->
<g id="edge4" class="edge"><title>Node2&#45;&gt;Node3</title>
<path fill="none" stroke="midnightblue" d="M105.825,-460.625C117.19,-473.742 138.102,-496.021 160,-510 162.305,-511.471 164.706,-512.883 167.17,-514.234"/>
<polygon fill="midnightblue" stroke="midnightblue" points="165.803,-517.465 176.305,-518.862 168.966,-511.221 165.803,-517.465"/>
</g>
<!-- Node4 -->
<g id="node7" class="node"><title>Node4</title>
<a xlink:href="hfa-se-wqe-lock_8c.html#ad424f3eba8cf857dc801ee7c1cf580e5" target="_top" xlink:title="Cleanup memory allocated for context.">
<polygon fill="white" stroke="black" points="182.5,-479.5 182.5,-500.5 269.5,-500.5 269.5,-479.5 182.5,-479.5"/>
<text text-anchor="middle" x="226" y="-487.5" font-family="FreeSans" font-size="10.00">ctxdb_cleanup</text>
</a>
</g>
<!-- Node2&#45;&gt;Node4 -->
<g id="edge6" class="edge"><title>Node2&#45;&gt;Node4</title>
<path fill="none" stroke="midnightblue" d="M124.264,-458.741C135.343,-462.271 148.273,-466.362 160,-470 166.918,-472.146 174.253,-474.395 181.42,-476.578"/>
<polygon fill="midnightblue" stroke="midnightblue" points="180.451,-479.941 191.036,-479.498 182.485,-473.244 180.451,-479.941"/>
</g>
<!-- Node14 -->
<g id="node27" class="node"><title>Node14</title>
<a xlink:href="cvm-hfa-graph_8c.html#aa4ce7845277b4b3099159bbd7afd5c08" target="_top" xlink:title="This routine is used to cacheunload a cacheload&#39;ed graph in a non&#45;blocking manner.">
<polygon fill="white" stroke="black" points="160,-359.5 160,-380.5 292,-380.5 292,-359.5 160,-359.5"/>
<text text-anchor="middle" x="226" y="-367.5" font-family="FreeSans" font-size="10.00">hfa_graph_cacheunload</text>
</a>
</g>
<!-- Node2&#45;&gt;Node14 -->
<g id="edge26" class="edge"><title>Node2&#45;&gt;Node14</title>
<path fill="none" stroke="midnightblue" d="M105.647,-439.084C116.831,-425.669 137.554,-403.08 160,-390 163.608,-387.898 167.457,-385.997 171.416,-384.282"/>
<polygon fill="midnightblue" stroke="midnightblue" points="172.754,-387.517 180.788,-380.61 170.201,-380.999 172.754,-387.517"/>
</g>
<!-- Node32 -->
<g id="node63" class="node"><title>Node32</title>
<a xlink:href="cvm-hfa-graph_8c.html#a5e79919f5903d97aee5e82bfc7e71597" target="_top" xlink:title="This routine is the counterpart of hfa_dev_graph_init().">
<polygon fill="white" stroke="black" points="160,-399.5 160,-420.5 292,-420.5 292,-399.5 160,-399.5"/>
<text text-anchor="middle" x="226" y="-407.5" font-family="FreeSans" font-size="10.00">hfa_dev_graph_cleanup</text>
</a>
</g>
<!-- Node2&#45;&gt;Node32 -->
<g id="edge62" class="edge"><title>Node2&#45;&gt;Node32</title>
<path fill="none" stroke="midnightblue" d="M124.264,-441.259C135.343,-437.729 148.273,-433.638 160,-430 166.918,-427.854 174.253,-425.605 181.42,-423.422"/>
<polygon fill="midnightblue" stroke="midnightblue" points="182.485,-426.756 191.036,-420.502 180.451,-420.059 182.485,-426.756"/>
</g>
<!-- Node33 -->
<g id="node65" class="node"><title>Node33</title>
<a xlink:href="cvm-hfa_8c.html#af14bebdd444bd0bf92faac9d5d88b492" target="_top" xlink:title="This function is called by application to cleanup all resources configured for HFA device and then sh...">
<polygon fill="white" stroke="black" points="176.5,-439.5 176.5,-460.5 275.5,-460.5 275.5,-439.5 176.5,-439.5"/>
<text text-anchor="middle" x="226" y="-447.5" font-family="FreeSans" font-size="10.00">hfa_dev_cleanup</text>
</a>
</g>
<!-- Node2&#45;&gt;Node33 -->
<g id="edge64" class="edge"><title>Node2&#45;&gt;Node33</title>
<path fill="none" stroke="midnightblue" d="M124.043,-450C136.348,-450 151.438,-450 166.198,-450"/>
<polygon fill="midnightblue" stroke="midnightblue" points="166.325,-453.5 176.325,-450 166.325,-446.5 166.325,-453.5"/>
</g>
<!-- Node5 -->
<g id="node9" class="node"><title>Node5</title>
<a xlink:href="cvm-hfa-search_8c.html#a30064f173d814bd3791b59d675c2f45f" target="_top" xlink:title="This routine cleans&#45;up a Search Context.">
<polygon fill="white" stroke="black" points="328,-530.5 328,-551.5 480,-551.5 480,-530.5 328,-530.5"/>
<text text-anchor="middle" x="404" y="-538.5" font-family="FreeSans" font-size="10.00">hfa_dev_searchctx_cleanup</text>
</a>
</g>
<!-- Node4&#45;&gt;Node5 -->
<g id="edge8" class="edge"><title>Node4&#45;&gt;Node5</title>
<path fill="none" stroke="midnightblue" d="M262.882,-500.567C290.328,-508.431 327.985,-519.22 357.496,-527.676"/>
<polygon fill="midnightblue" stroke="midnightblue" points="356.588,-531.057 367.166,-530.446 358.516,-524.327 356.588,-531.057"/>
</g>
<!-- Node6 -->
<g id="node11" class="node"><title>Node6</title>
<a xlink:href="cvm-hfa-pp_8c.html#add6064138ec2e35741929056a0992d8d" target="_top" xlink:title="ppgetstats">
<polygon fill="white" stroke="black" points="557,-610.5 557,-631.5 623,-631.5 623,-610.5 557,-610.5"/>
<text text-anchor="middle" x="590" y="-618.5" font-family="FreeSans" font-size="10.00">ppgetstats</text>
</a>
</g>
<!-- Node5&#45;&gt;Node6 -->
<g id="edge10" class="edge"><title>Node5&#45;&gt;Node6</title>
<path fill="none" stroke="midnightblue" d="M420.872,-551.619C442.299,-564.728 480.736,-587.001 516,-601 525.741,-604.867 536.491,-608.247 546.708,-611.074"/>
<polygon fill="midnightblue" stroke="midnightblue" points="546.128,-614.541 556.691,-613.715 547.918,-607.774 546.128,-614.541"/>
</g>
<!-- Node8 -->
<g id="node15" class="node"><title>Node8</title>
<a xlink:href="cvm-hfa-pp_8c.html#a57ec655c9bdb6ce63ada6767c7e14763" target="_top" xlink:title="ppcleanstats">
<polygon fill="white" stroke="black" points="551.5,-570.5 551.5,-591.5 628.5,-591.5 628.5,-570.5 551.5,-570.5"/>
<text text-anchor="middle" x="590" y="-578.5" font-family="FreeSans" font-size="10.00">ppcleanstats</text>
</a>
</g>
<!-- Node5&#45;&gt;Node8 -->
<g id="edge14" class="edge"><title>Node5&#45;&gt;Node8</title>
<path fill="none" stroke="midnightblue" d="M452.869,-551.51C480.165,-557.38 514.064,-564.67 541.329,-570.533"/>
<polygon fill="midnightblue" stroke="midnightblue" points="540.913,-574.024 551.425,-572.704 542.385,-567.18 540.913,-574.024"/>
</g>
<!-- Node10 -->
<g id="node19" class="node"><title>Node10</title>
<a xlink:href="cvm-hfa-pp_8c.html#a41ce9d3103c639e474783d3843e09071" target="_top" xlink:title="ppcleanup">
<polygon fill="white" stroke="black" points="557,-530.5 557,-551.5 623,-551.5 623,-530.5 557,-530.5"/>
<text text-anchor="middle" x="590" y="-538.5" font-family="FreeSans" font-size="10.00">ppcleanup</text>
</a>
</g>
<!-- Node5&#45;&gt;Node10 -->
<g id="edge18" class="edge"><title>Node5&#45;&gt;Node10</title>
<path fill="none" stroke="midnightblue" d="M480.19,-541C502.811,-541 526.804,-541 546.574,-541"/>
<polygon fill="midnightblue" stroke="midnightblue" points="546.792,-544.5 556.792,-541 546.792,-537.5 546.792,-544.5"/>
</g>
<!-- Node12 -->
<g id="node23" class="node"><title>Node12</title>
<a xlink:href="cvm-hfa-stats_8c.html#a2df4c76e04e7b028ed2df4bba1b2de3d" target="_top" xlink:title="This routine is the counterpart of hfa_searchctx_init_stats().">
<polygon fill="white" stroke="black" points="533.5,-478 533.5,-512 646.5,-512 646.5,-478 533.5,-478"/>
<text text-anchor="start" x="541.5" y="-499" font-family="FreeSans" font-size="10.00">hfa_searchctx_stats</text>
<text text-anchor="middle" x="590" y="-486" font-family="FreeSans" font-size="10.00">_cleanup</text>
</a>
</g>
<!-- Node5&#45;&gt;Node12 -->
<g id="edge22" class="edge"><title>Node5&#45;&gt;Node12</title>
<path fill="none" stroke="midnightblue" d="M446.672,-530.447C469.396,-524.827 497.857,-517.788 523.416,-511.467"/>
<polygon fill="midnightblue" stroke="midnightblue" points="524.553,-514.791 533.42,-508.993 522.873,-507.996 524.553,-514.791"/>
</g>
<!-- Node7 -->
<g id="node13" class="node"><title>Node7</title>
<a xlink:href="pp_8h.html#a808d5057ee5670ce724a6a88fc22b799" target="_top" xlink:title="pphfa_getstats">
<polygon fill="white" stroke="black" points="722.5,-610.5 722.5,-631.5 809.5,-631.5 809.5,-610.5 722.5,-610.5"/>
<text text-anchor="middle" x="766" y="-618.5" font-family="FreeSans" font-size="10.00">pphfa_getstats</text>
</a>
</g>
<!-- Node6&#45;&gt;Node7 -->
<g id="edge12" class="edge"><title>Node6&#45;&gt;Node7</title>
<path fill="none" stroke="midnightblue" d="M623.104,-621C648.223,-621 683.277,-621 712.38,-621"/>
<polygon fill="midnightblue" stroke="midnightblue" points="712.399,-624.5 722.399,-621 712.399,-617.5 712.399,-624.5"/>
</g>
<!-- Node9 -->
<g id="node17" class="node"><title>Node9</title>
<a xlink:href="pp_8h.html#a978b171bd7a736cb7fa0d5d034aa94e2" target="_top" xlink:title="pphfa_cleanstats">
<polygon fill="white" stroke="black" points="717,-570.5 717,-591.5 815,-591.5 815,-570.5 717,-570.5"/>
<text text-anchor="middle" x="766" y="-578.5" font-family="FreeSans" font-size="10.00">pphfa_cleanstats</text>
</a>
</g>
<!-- Node8&#45;&gt;Node9 -->
<g id="edge16" class="edge"><title>Node8&#45;&gt;Node9</title>
<path fill="none" stroke="midnightblue" d="M628.624,-581C651.493,-581 680.939,-581 706.7,-581"/>
<polygon fill="midnightblue" stroke="midnightblue" points="706.74,-584.5 716.74,-581 706.74,-577.5 706.74,-584.5"/>
</g>
<!-- Node11 -->
<g id="node21" class="node"><title>Node11</title>
<a xlink:href="pp_8h.html#a428ad073d1fd72da37ab8b00f13693a3" target="_top" xlink:title="pphfa_cleanup">
<polygon fill="white" stroke="black" points="722.5,-530.5 722.5,-551.5 809.5,-551.5 809.5,-530.5 722.5,-530.5"/>
<text text-anchor="middle" x="766" y="-538.5" font-family="FreeSans" font-size="10.00">pphfa_cleanup</text>
</a>
</g>
<!-- Node10&#45;&gt;Node11 -->
<g id="edge20" class="edge"><title>Node10&#45;&gt;Node11</title>
<path fill="none" stroke="midnightblue" d="M623.104,-541C648.223,-541 683.277,-541 712.38,-541"/>
<polygon fill="midnightblue" stroke="midnightblue" points="712.399,-544.5 722.399,-541 712.399,-537.5 712.399,-544.5"/>
</g>
<!-- Node13 -->
<g id="node25" class="node"><title>Node13</title>
<a xlink:href="cvm-hfa-stats_8c.html#a7a2acbe48c3850d43256938ee996aa16" target="_top" xlink:title="This routine frees memory to STATS ARENA.">
<polygon fill="white" stroke="black" points="703.5,-462.5 703.5,-483.5 828.5,-483.5 828.5,-462.5 703.5,-462.5"/>
<text text-anchor="middle" x="766" y="-470.5" font-family="FreeSans" font-size="10.00">hfa_stats_memoryfree</text>
</a>
</g>
<!-- Node12&#45;&gt;Node13 -->
<g id="edge24" class="edge"><title>Node12&#45;&gt;Node13</title>
<path fill="none" stroke="midnightblue" d="M646.656,-487.918C661.494,-486.063 677.7,-484.038 693.25,-482.094"/>
<polygon fill="midnightblue" stroke="midnightblue" points="693.864,-485.544 703.353,-480.831 692.996,-478.598 693.864,-485.544"/>
</g>
<!-- Node15 -->
<g id="node29" class="node"><title>Node15</title>
<a xlink:href="cvm-hfa-graph_8c.html#afb63ce4f42afc7987e6222b1c1ea91a1" target="_top" xlink:title="This routine is used to cacheunload a cacheload&#39;ed graph in a non&#45;blocking manner.">
<polygon fill="white" stroke="black" points="338,-154 338,-188 470,-188 470,-154 338,-154"/>
<text text-anchor="start" x="346" y="-175" font-family="FreeSans" font-size="10.00">hfa_graph_cacheunload</text>
<text text-anchor="middle" x="404" y="-162" font-family="FreeSans" font-size="10.00">_async</text>
</a>
</g>
<!-- Node14&#45;&gt;Node15 -->
<g id="edge28" class="edge"><title>Node14&#45;&gt;Node15</title>
<path fill="none" stroke="midnightblue" d="M235.57,-359.301C263.034,-328.597 342.635,-239.605 381.76,-195.864"/>
<polygon fill="midnightblue" stroke="midnightblue" points="384.515,-198.034 388.573,-188.247 379.298,-193.367 384.515,-198.034"/>
</g>
<!-- Node25 -->
<g id="node49" class="node"><title>Node25</title>
<a xlink:href="cvm-hfa-graph_8c.html#a0f2f13fb51e5d56dcf049ff3c7c6ad78" target="_top" xlink:title="This routine is used to check the status of the graph.">
<polygon fill="white" stroke="black" points="347,-359.5 347,-380.5 461,-380.5 461,-359.5 347,-359.5"/>
<text text-anchor="middle" x="404" y="-367.5" font-family="FreeSans" font-size="10.00">hfa_graph_getstatus</text>
</a>
</g>
<!-- Node14&#45;&gt;Node25 -->
<g id="edge48" class="edge"><title>Node14&#45;&gt;Node25</title>
<path fill="none" stroke="midnightblue" d="M292.028,-370C306.658,-370 322.178,-370 336.853,-370"/>
<polygon fill="midnightblue" stroke="midnightblue" points="336.856,-373.5 346.856,-370 336.856,-366.5 336.856,-373.5"/>
</g>
<!-- Node16 -->
<g id="node31" class="node"><title>Node16</title>
<a xlink:href="cvm-hfa-instr_8h.html#acaf8def6cbffb04c100bf7f7684f242e" target="_top" xlink:title="Initialize the HFA instruction.">
<polygon fill="white" stroke="black" points="538.5,-120.5 538.5,-141.5 641.5,-141.5 641.5,-120.5 538.5,-120.5"/>
<text text-anchor="middle" x="590" y="-128.5" font-family="FreeSans" font-size="10.00">cvm_hfa_instr_init</text>
</a>
</g>
<!-- Node15&#45;&gt;Node16 -->
<g id="edge30" class="edge"><title>Node15&#45;&gt;Node16</title>
<path fill="none" stroke="midnightblue" d="M470.1,-156.785C490.018,-152.502 511.737,-147.831 531.15,-143.656"/>
<polygon fill="midnightblue" stroke="midnightblue" points="532.029,-147.047 541.07,-141.523 530.558,-140.203 532.029,-147.047"/>
</g>
<!-- Node17 -->
<g id="node33" class="node"><title>Node17</title>
<a xlink:href="cvm-hfa-instr_8h.html#a2d6082e2e599fe8523162b18d0a06f6c" target="_top" xlink:title="Sets rptr in the instruction.">
<polygon fill="white" stroke="black" points="530,-80.5 530,-101.5 650,-101.5 650,-80.5 530,-80.5"/>
<text text-anchor="middle" x="590" y="-88.5" font-family="FreeSans" font-size="10.00">cvm_hfa_instr_setrptr</text>
</a>
</g>
<!-- Node15&#45;&gt;Node17 -->
<g id="edge32" class="edge"><title>Node15&#45;&gt;Node17</title>
<path fill="none" stroke="midnightblue" d="M431.685,-153.868C453.847,-140.727 486.066,-122.883 516,-111 521.926,-108.648 528.225,-106.475 534.55,-104.498"/>
<polygon fill="midnightblue" stroke="midnightblue" points="535.873,-107.757 544.462,-101.554 533.88,-101.046 535.873,-107.757"/>
</g>
<!-- Node18 -->
<g id="node35" class="node"><title>Node18</title>
<a xlink:href="cvm-hfa-instr_8h.html#a6960a0761295ada9f449ea5e8c41ec80" target="_top" xlink:title="Sets clmsk in the instruction.">
<polygon fill="white" stroke="black" points="524,-40.5 524,-61.5 656,-61.5 656,-40.5 524,-40.5"/>
<text text-anchor="middle" x="590" y="-48.5" font-family="FreeSans" font-size="10.00">cvm_hfa_instr_setclmsk</text>
</a>
</g>
<!-- Node15&#45;&gt;Node18 -->
<g id="edge34" class="edge"><title>Node15&#45;&gt;Node18</title>
<path fill="none" stroke="midnightblue" d="M418.495,-153.827C438.279,-131.479 475.889,-92.7263 516,-71 520.169,-68.742 524.61,-66.7251 529.168,-64.926"/>
<polygon fill="midnightblue" stroke="midnightblue" points="530.404,-68.201 538.636,-61.5314 528.042,-61.6117 530.404,-68.201"/>
</g>
<!-- Node19 -->
<g id="node37" class="node"><title>Node19</title>
<a xlink:href="cvm-hfa-instr_8h.html#add4e981377a02cd06e2bca116e584bca" target="_top" xlink:title="Sets vgid in the instruction.">
<polygon fill="white" stroke="black" points="528,-280.5 528,-301.5 652,-301.5 652,-280.5 528,-280.5"/>
<text text-anchor="middle" x="590" y="-288.5" font-family="FreeSans" font-size="10.00">cvm_hfa_instr_setvgid</text>
</a>
</g>
<!-- Node15&#45;&gt;Node19 -->
<g id="edge36" class="edge"><title>Node15&#45;&gt;Node19</title>
<path fill="none" stroke="midnightblue" d="M418.495,-188.173C438.279,-210.521 475.889,-249.274 516,-271 520.169,-273.258 524.61,-275.275 529.168,-277.074"/>
<polygon fill="midnightblue" stroke="midnightblue" points="528.042,-280.388 538.636,-280.469 530.404,-273.799 528.042,-280.388"/>
</g>
<!-- Node20 -->
<g id="node39" class="node"><title>Node20</title>
<a xlink:href="cvm-hfa-common_8h.html#a0da7c57174fb96d75ae9cc2ed3116a05" target="_top" xlink:title="Dump buffer pointed by &quot;buf&quot; in readable format.">
<polygon fill="white" stroke="black" points="547,-240.5 547,-261.5 633,-261.5 633,-240.5 547,-240.5"/>
<text text-anchor="middle" x="590" y="-248.5" font-family="FreeSans" font-size="10.00">hfa_dump_buf</text>
</a>
</g>
<!-- Node15&#45;&gt;Node20 -->
<g id="edge38" class="edge"><title>Node15&#45;&gt;Node20</title>
<path fill="none" stroke="midnightblue" d="M431.685,-188.132C453.847,-201.273 486.066,-219.117 516,-231 522.718,-233.667 529.916,-236.102 537.089,-238.285"/>
<polygon fill="midnightblue" stroke="midnightblue" points="536.227,-241.679 546.806,-241.101 538.176,-234.955 536.227,-241.679"/>
</g>
<!-- Node21 -->
<g id="node41" class="node"><title>Node21</title>
<a xlink:href="cvm-hfa-instr_8h.html#a88a92a987acac81360f3b880d013cd10" target="_top" xlink:title="Sets wqptr instruction.">
<polygon fill="white" stroke="black" points="524.5,-200.5 524.5,-221.5 655.5,-221.5 655.5,-200.5 524.5,-200.5"/>
<text text-anchor="middle" x="590" y="-208.5" font-family="FreeSans" font-size="10.00">cvm_hfa_instr_setwqptr</text>
</a>
</g>
<!-- Node15&#45;&gt;Node21 -->
<g id="edge40" class="edge"><title>Node15&#45;&gt;Node21</title>
<path fill="none" stroke="midnightblue" d="M470.1,-185.215C490.018,-189.498 511.737,-194.169 531.15,-198.344"/>
<polygon fill="midnightblue" stroke="midnightblue" points="530.558,-201.797 541.07,-200.477 532.029,-194.953 530.558,-201.797"/>
</g>
<!-- Node22 -->
<g id="node43" class="node"><title>Node22</title>
<a xlink:href="cvm-hfa-graph_8c.html#a1320f0566be0069bd604cc820a12a114" target="_top" xlink:title="This routine sets WQE field in graph data structure.">
<polygon fill="white" stroke="black" points="537.5,-160.5 537.5,-181.5 642.5,-181.5 642.5,-160.5 537.5,-160.5"/>
<text text-anchor="middle" x="590" y="-168.5" font-family="FreeSans" font-size="10.00">hfa_graph_setwqe</text>
</a>
</g>
<!-- Node15&#45;&gt;Node22 -->
<g id="edge42" class="edge"><title>Node15&#45;&gt;Node22</title>
<path fill="none" stroke="midnightblue" d="M470.1,-171C488.69,-171 508.848,-171 527.237,-171"/>
<polygon fill="midnightblue" stroke="midnightblue" points="527.25,-174.5 537.25,-171 527.25,-167.5 527.25,-174.5"/>
</g>
<!-- Node23 -->
<g id="node45" class="node"><title>Node23</title>
<a xlink:href="cvm-hfa_8c.html#a4677d07b901d6aeb02e793c1dbdfabbf" target="_top" xlink:title="Asynchronous instruction submit to HFA hardware Do not wait for instruction to complete.">
<polygon fill="white" stroke="black" points="529,-0.5 529,-21.5 651,-21.5 651,-0.5 529,-0.5"/>
<text text-anchor="middle" x="590" y="-8.5" font-family="FreeSans" font-size="10.00">hfa_dev_submitasync</text>
</a>
</g>
<!-- Node15&#45;&gt;Node23 -->
<g id="edge44" class="edge"><title>Node15&#45;&gt;Node23</title>
<path fill="none" stroke="midnightblue" d="M412.888,-153.876C429.196,-124.184 466.792,-63.24 516,-31 519.075,-28.9852 522.348,-27.1724 525.741,-25.5414"/>
<polygon fill="midnightblue" stroke="midnightblue" points="527.108,-28.7632 534.947,-21.6348 524.374,-22.3194 527.108,-28.7632"/>
</g>
<!-- Node24 -->
<g id="node47" class="node"><title>Node24</title>
<a xlink:href="cvmx-hfa_8c.html#a96a123c8918e83cdf914f6de1bfb4f00" target="_top" xlink:title="Submit a command to the DFA block.">
<polygon fill="white" stroke="black" points="715,-0.5 715,-21.5 817,-21.5 817,-0.5 715,-0.5"/>
<text text-anchor="middle" x="766" y="-8.5" font-family="FreeSans" font-size="10.00">cvmx_hfa_submit</text>
</a>
</g>
<!-- Node23&#45;&gt;Node24 -->
<g id="edge46" class="edge"><title>Node23&#45;&gt;Node24</title>
<path fill="none" stroke="midnightblue" d="M651.062,-11C668.491,-11 687.48,-11 704.911,-11"/>
<polygon fill="midnightblue" stroke="midnightblue" points="704.97,-14.5001 714.97,-11 704.97,-7.5001 704.97,-14.5001"/>
</g>
<!-- Node26 -->
<g id="node51" class="node"><title>Node26</title>
<a xlink:href="cvm-hfa_8c.html#a4753d2dd586e19676b1a59dd16baaeed" target="_top" xlink:title="Obtain status of submitted insruction.">
<polygon fill="white" stroke="black" points="523.5,-360.5 523.5,-381.5 656.5,-381.5 656.5,-360.5 523.5,-360.5"/>
<text text-anchor="middle" x="590" y="-368.5" font-family="FreeSans" font-size="10.00">hfa_dev_getasyncstatus</text>
</a>
</g>
<!-- Node25&#45;&gt;Node26 -->
<g id="edge50" class="edge"><title>Node25&#45;&gt;Node26</title>
<path fill="none" stroke="midnightblue" d="M461.07,-370.307C477.496,-370.395 495.688,-370.493 513.103,-370.587"/>
<polygon fill="midnightblue" stroke="midnightblue" points="513.229,-374.087 523.248,-370.641 513.267,-367.087 513.229,-374.087"/>
</g>
<!-- Node29 -->
<g id="node57" class="node"><title>Node29</title>
<a xlink:href="cvm-hfa-instr_8h.html#aa7b5661907cf23e01fe784a70980ed4b" target="_top" xlink:title="Gets itype from RWORD0.">
<polygon fill="white" stroke="black" points="529,-320.5 529,-341.5 651,-341.5 651,-320.5 529,-320.5"/>
<text text-anchor="middle" x="590" y="-328.5" font-family="FreeSans" font-size="10.00">cvm_hfa_rslt_getitype</text>
</a>
</g>
<!-- Node25&#45;&gt;Node29 -->
<g id="edge56" class="edge"><title>Node25&#45;&gt;Node29</title>
<path fill="none" stroke="midnightblue" d="M454.334,-359.446C477.596,-354.569 505.404,-348.738 529.771,-343.629"/>
<polygon fill="midnightblue" stroke="midnightblue" points="530.557,-347.04 539.625,-341.562 529.12,-340.189 530.557,-347.04"/>
</g>
<!-- Node30 -->
<g id="node59" class="node"><title>Node30</title>
<a xlink:href="cvm-hfa-graph_8c.html#aa4c0667cc4f92a08c249041eb8a4ec58" target="_top" xlink:title="This routine is used to free the buffers and change the graph load status after instruction completio...">
<polygon fill="white" stroke="black" points="516.5,-400.5 516.5,-421.5 663.5,-421.5 663.5,-400.5 516.5,-400.5"/>
<text text-anchor="middle" x="590" y="-408.5" font-family="FreeSans" font-size="10.00">__hfa_graph_processstatus</text>
</a>
</g>
<!-- Node25&#45;&gt;Node30 -->
<g id="edge58" class="edge"><title>Node25&#45;&gt;Node30</title>
<path fill="none" stroke="midnightblue" d="M451.9,-380.559C476.416,-385.963 506.449,-392.583 532.239,-398.268"/>
<polygon fill="midnightblue" stroke="midnightblue" points="531.744,-401.743 542.263,-400.477 533.251,-394.907 531.744,-401.743"/>
</g>
<!-- Node27 -->
<g id="node53" class="node"><title>Node27</title>
<a xlink:href="cvm-hfa-instr_8h.html#a56f2522dcba965745a1bc239fc432dca" target="_top" xlink:title="Gets done from RWORD0.">
<polygon fill="white" stroke="black" points="704.5,-320.5 704.5,-341.5 827.5,-341.5 827.5,-320.5 704.5,-320.5"/>
<text text-anchor="middle" x="766" y="-328.5" font-family="FreeSans" font-size="10.00">cvm_hfa_rslt_getdone</text>
</a>
</g>
<!-- Node26&#45;&gt;Node27 -->
<g id="edge52" class="edge"><title>Node26&#45;&gt;Node27</title>
<path fill="none" stroke="midnightblue" d="M636.242,-360.49C658.788,-355.366 686.096,-349.16 709.832,-343.765"/>
<polygon fill="midnightblue" stroke="midnightblue" points="710.786,-347.138 719.762,-341.509 709.235,-340.312 710.786,-347.138"/>
</g>
<!-- Node28 -->
<g id="node55" class="node"><title>Node28</title>
<a xlink:href="cvm-hfa-instr_8h.html#a9700a50b68b6616506528eb725a8bda1" target="_top" xlink:title="Gets reason from RWORD0.">
<polygon fill="white" stroke="black" points="700.5,-360.5 700.5,-381.5 831.5,-381.5 831.5,-360.5 700.5,-360.5"/>
<text text-anchor="middle" x="766" y="-368.5" font-family="FreeSans" font-size="10.00">cvm_hfa_rslt_getreason</text>
</a>
</g>
<!-- Node26&#45;&gt;Node28 -->
<g id="edge54" class="edge"><title>Node26&#45;&gt;Node28</title>
<path fill="none" stroke="midnightblue" d="M656.538,-371C667.494,-371 678.922,-371 690.086,-371"/>
<polygon fill="midnightblue" stroke="midnightblue" points="690.243,-374.5 700.243,-371 690.243,-367.5 690.243,-374.5"/>
</g>
<!-- Node31 -->
<g id="node61" class="node"><title>Node31</title>
<a xlink:href="cvm-hfa-cluster_8c.html#ad8cad96579f5a310b62caaf8c166658f" target="_top" xlink:title="Returns a copy of a cluster of the HFA device.">
<polygon fill="white" stroke="black" points="721,-400.5 721,-421.5 811,-421.5 811,-400.5 721,-400.5"/>
<text text-anchor="middle" x="766" y="-408.5" font-family="FreeSans" font-size="10.00">hfa_get_cluster</text>
</a>
</g>
<!-- Node30&#45;&gt;Node31 -->
<g id="edge60" class="edge"><title>Node30&#45;&gt;Node31</title>
<path fill="none" stroke="midnightblue" d="M663.62,-411C679.386,-411 695.785,-411 710.719,-411"/>
<polygon fill="midnightblue" stroke="midnightblue" points="710.797,-414.5 720.797,-411 710.797,-407.5 710.797,-414.5"/>
</g>
<!-- Node34 -->
<g id="node67" class="node"><title>Node34</title>
<a xlink:href="cvm-hfa-stats_8c.html#ad6d5ab096d9d84d2b2f52bd551443592" target="_top" xlink:title="This routine is the counterpart of hfa_dev_init_stats().">
<polygon fill="white" stroke="black" points="341,-439.5 341,-460.5 467,-460.5 467,-439.5 341,-439.5"/>
<text text-anchor="middle" x="404" y="-447.5" font-family="FreeSans" font-size="10.00">hfa_dev_stats_cleanup</text>
</a>
</g>
<!-- Node33&#45;&gt;Node34 -->
<g id="edge66" class="edge"><title>Node33&#45;&gt;Node34</title>
<path fill="none" stroke="midnightblue" d="M275.583,-450C292.682,-450 312.213,-450 330.795,-450"/>
<polygon fill="midnightblue" stroke="midnightblue" points="330.999,-453.5 340.999,-450 330.999,-446.5 330.999,-453.5"/>
</g>
<!-- Node35 -->
<g id="node70" class="node"><title>Node35</title>
<a xlink:href="cvm-hfa-stats_8c.html#a75504ae5d9797d314ee11704fc86cdb1" target="_top" xlink:title="This routine prints statistics of each core.">
<polygon fill="white" stroke="black" points="349.5,-399.5 349.5,-420.5 458.5,-420.5 458.5,-399.5 349.5,-399.5"/>
<text text-anchor="middle" x="404" y="-407.5" font-family="FreeSans" font-size="10.00">hfa_dev_stats_print</text>
</a>
</g>
<!-- Node33&#45;&gt;Node35 -->
<g id="edge70" class="edge"><title>Node33&#45;&gt;Node35</title>
<path fill="none" stroke="midnightblue" d="M272.767,-439.49C295.57,-434.366 323.188,-428.16 347.194,-422.765"/>
<polygon fill="midnightblue" stroke="midnightblue" points="348.247,-426.116 357.236,-420.509 346.712,-419.286 348.247,-426.116"/>
</g>
<!-- Node34&#45;&gt;Node13 -->
<g id="edge68" class="edge"><title>Node34&#45;&gt;Node13</title>
<path fill="none" stroke="midnightblue" d="M467.056,-454.006C530.028,-458.007 626.737,-464.152 693.001,-468.362"/>
<polygon fill="midnightblue" stroke="midnightblue" points="693.162,-471.879 703.364,-469.02 693.606,-464.893 693.162,-471.879"/>
</g>
</g>
</svg>
