<?xml version="1.0" encoding="UTF-8" standalone="no"?>
<!DOCTYPE svg PUBLIC "-//W3C//DTD SVG 1.1//EN"
 "http://www.w3.org/Graphics/SVG/1.1/DTD/svg11.dtd">
<!-- Generated by graphviz version 2.24.0 (20090616.2323)
 -->
<!-- Title: post_process Pages: 1 -->
<!--zoomable 970 -->
<svg id="main" version="1.1" xmlns="http://www.w3.org/2000/svg" xmlns:xlink="http://www.w3.org/1999/xlink" xml:space="preserve" onload="init(evt)">
        <defs>
                <circle id="rim" cx="0" cy="0" r="7"/>
                <circle id="rim2" cx="0" cy="0" r="3.5"/>
                <g id="zoomPlus">
                        <use xlink:href="#rim" fill="#404040">
                                <set attributeName="fill" to="#808080" begin="zoomplus.mouseover" end="zoomplus.mouseout"/>
                        </use>
                        <path d="M-4,0h8M0,-4v8" fill="none" stroke="white" stroke-width="1.5" pointer-events="none"/>
                </g>
                <g id="zoomMin">
                        <use xlink:href="#rim" fill="#404040">
                                <set attributeName="fill" to="#808080" begin="zoomminus.mouseover" end="zoomminus.mouseout"/>
                        </use>
                        <path d="M-4,0h8" fill="none" stroke="white" stroke-width="1.5" pointer-events="none"/>
                </g>
                <g id="dirArrow">
                        <path fill="none" stroke="white" stroke-width="1.5" d="M0,-3.0v7 M-2.5,-0.5L0,-3.0L2.5,-0.5"/>
                </g>
               <g id="resetDef">
                       <use xlink:href="#rim2" fill="#404040">
                               <set attributeName="fill" to="#808080" begin="reset.mouseover" end="reset.mouseout"/>
                       </use>
               </g>
        </defs>

<script type="text/javascript">
var viewWidth = 1022;
var viewHeight = 970;
var sectionId = 'dynsection-9';
</script>
<script xlink:href="svgpan.js"/>
<svg id="graph" class="graph">
<g id="viewport">
<title>post_process</title>
<polygon fill="white" stroke="white" points="-4,5 -4,-966 1019,-966 1019,5 -4,5"/>
<!-- Node1 -->
<g id="node1" class="node"><title>Node1</title>
<polygon fill="#bfbfbf" stroke="black" points="0,-449.5 0,-470.5 80,-470.5 80,-449.5 0,-449.5"/>
<text text-anchor="middle" x="40" y="-457.5" font-family="FreeSans" font-size="10.00">post_process</text>
</g>
<!-- Node2 -->
<g id="node3" class="node"><title>Node2</title>
<a xlink:href="cvm-hfa-search_8h.html#ab50a2d84e35b5a4a03a23fc90e4dffa0" target="_top" xlink:title="This routine retrieves the reason code after a search operation has been completed by the HFA engine...">
<polygon fill="white" stroke="black" points="610,-928 610,-962 732,-962 732,-928 610,-928"/>
<text text-anchor="start" x="618" y="-949" font-family="FreeSans" font-size="10.00">hfa_searchparam_get</text>
<text text-anchor="middle" x="671" y="-936" font-family="FreeSans" font-size="10.00">_hwsearch_reason</text>
</a>
</g>
<!-- Node1&#45;&gt;Node2 -->
<g id="edge2" class="edge"><title>Node1&#45;&gt;Node2</title>
<path fill="none" stroke="midnightblue" d="M43.0804,-470.654C60.9211,-529.888 156.735,-816 343,-816 343,-816 343,-816 452,-816 535.083,-816 534.595,-880.084 608,-919 611.019,-920.6 614.158,-922.17 617.352,-923.697"/>
<polygon fill="midnightblue" stroke="midnightblue" points="615.896,-926.88 626.445,-927.871 618.817,-920.518 615.896,-926.88"/>
</g>
<!-- Node3 -->
<g id="node5" class="node"><title>Node3</title>
<a xlink:href="cvm-hfa-common_8h.html#ad117ba199386b8d427cbb04f288b5905" target="_top" xlink:title="Dump HFA related registers.">
<polygon fill="white" stroke="black" points="625.5,-400.5 625.5,-421.5 716.5,-421.5 716.5,-400.5 625.5,-400.5"/>
<text text-anchor="middle" x="671" y="-408.5" font-family="FreeSans" font-size="10.00">hfa_dump_regs</text>
</a>
</g>
<!-- Node1&#45;&gt;Node3 -->
<g id="edge4" class="edge"><title>Node1&#45;&gt;Node3</title>
<path fill="none" stroke="midnightblue" d="M79.3766,-449.488C136.866,-435.09 247.349,-411 343,-411 343,-411 343,-411 452,-411 507.438,-411 570.771,-411 615.02,-411"/>
<polygon fill="midnightblue" stroke="midnightblue" points="615.28,-414.5 625.28,-411 615.28,-407.5 615.28,-414.5"/>
</g>
<!-- Node4 -->
<g id="node7" class="node"><title>Node4</title>
<a xlink:href="cvm-hfa-search_8c.html#a6dbb15dc58155b2c94b19784ad42ef89" target="_top" xlink:title="This routine post&#45;processes the search results from the HFA engine and reports the pattern matches fo...">
<polygon fill="white" stroke="black" points="116.5,-499.5 116.5,-520.5 263.5,-520.5 263.5,-499.5 116.5,-499.5"/>
<text text-anchor="middle" x="190" y="-507.5" font-family="FreeSans" font-size="10.00">hfa_searchctx_getmatches</text>
</a>
</g>
<!-- Node1&#45;&gt;Node4 -->
<g id="edge6" class="edge"><title>Node1&#45;&gt;Node4</title>
<path fill="none" stroke="midnightblue" d="M71.8111,-470.604C94.2597,-478.087 124.539,-488.18 148.829,-496.276"/>
<polygon fill="midnightblue" stroke="midnightblue" points="147.899,-499.655 158.492,-499.497 150.112,-493.015 147.899,-499.655"/>
</g>
<!-- Node41 -->
<g id="node84" class="node"><title>Node41</title>
<a xlink:href="app-utils_8c.html#a633038357891aa5147b77fe939f300bf" target="_top" xlink:title="Print pattern matches via match buffer and cleanup all matches.">
<polygon fill="white" stroke="black" points="609,-200.5 609,-221.5 733,-221.5 733,-200.5 609,-200.5"/>
<text text-anchor="middle" x="671" y="-208.5" font-family="FreeSans" font-size="10.00">hfautils_print_matches</text>
</a>
</g>
<!-- Node1&#45;&gt;Node41 -->
<g id="edge106" class="edge"><title>Node1&#45;&gt;Node41</title>
<path fill="none" stroke="midnightblue" d="M45.8819,-449.344C72.9481,-401.875 190.73,-212 343,-212 343,-212 343,-212 452,-212 500.927,-212 556.002,-211.747 598.682,-211.496"/>
<polygon fill="midnightblue" stroke="midnightblue" points="598.719,-214.996 608.698,-211.436 598.677,-207.996 598.719,-214.996"/>
</g>
<!-- Node5 -->
<g id="node9" class="node"><title>Node5</title>
<a xlink:href="cvm-hfa-common_8h.html#a0da7c57174fb96d75ae9cc2ed3116a05" target="_top" xlink:title="Dump buffer pointed by &quot;buf&quot; in readable format.">
<polygon fill="white" stroke="black" points="300,-479.5 300,-500.5 386,-500.5 386,-479.5 300,-479.5"/>
<text text-anchor="middle" x="343" y="-487.5" font-family="FreeSans" font-size="10.00">hfa_dump_buf</text>
</a>
</g>
<!-- Node4&#45;&gt;Node5 -->
<g id="edge8" class="edge"><title>Node4&#45;&gt;Node5</title>
<path fill="none" stroke="midnightblue" d="M263.811,-500.351C272.612,-499.201 281.46,-498.044 289.89,-496.943"/>
<polygon fill="midnightblue" stroke="midnightblue" points="290.47,-500.396 299.932,-495.63 289.563,-493.456 290.47,-500.396"/>
</g>
<!-- Node6 -->
<g id="node11" class="node"><title>Node6</title>
<a xlink:href="cvm-hfa-pp_8c.html#a02d24f276578f8a39a93968262a08f1d" target="_top" xlink:title="pp">
<polygon fill="white" stroke="black" points="328.5,-519.5 328.5,-540.5 357.5,-540.5 357.5,-519.5 328.5,-519.5"/>
<text text-anchor="middle" x="343" y="-527.5" font-family="FreeSans" font-size="10.00">pp</text>
</a>
</g>
<!-- Node4&#45;&gt;Node6 -->
<g id="edge10" class="edge"><title>Node4&#45;&gt;Node6</title>
<path fill="none" stroke="midnightblue" d="M263.811,-519.649C283.488,-522.221 303.403,-524.824 318.339,-526.776"/>
<polygon fill="midnightblue" stroke="midnightblue" points="317.891,-530.247 328.26,-528.073 318.798,-523.307 317.891,-530.247"/>
</g>
<!-- Node7 -->
<g id="node13" class="node"><title>Node7</title>
<a xlink:href="pp_8h.html#af7a68f9e08d3b54012ad008a4f47e1cd" target="_top" xlink:title="pphfa">
<polygon fill="white" stroke="black" points="430,-479.5 430,-500.5 474,-500.5 474,-479.5 430,-479.5"/>
<text text-anchor="middle" x="452" y="-487.5" font-family="FreeSans" font-size="10.00">pphfa</text>
</a>
</g>
<!-- Node6&#45;&gt;Node7 -->
<g id="edge12" class="edge"><title>Node6&#45;&gt;Node7</title>
<path fill="none" stroke="midnightblue" d="M357.7,-524.605C373.581,-518.778 399.374,-509.312 419.974,-501.753"/>
<polygon fill="midnightblue" stroke="midnightblue" points="421.421,-504.95 429.603,-498.219 419.009,-498.378 421.421,-504.95"/>
</g>
<!-- Node8 -->
<g id="node15" class="node"><title>Node8</title>
<a xlink:href="cvm-hfa-res_8c.html#ad0de0b790a5786053d59797884dbdd23" target="_top" xlink:title="Rinit">
<polygon fill="white" stroke="black" points="434,-439.5 434,-460.5 470,-460.5 470,-439.5 434,-439.5"/>
<text text-anchor="middle" x="452" y="-447.5" font-family="FreeSans" font-size="10.00">Rinit</text>
</a>
</g>
<!-- Node6&#45;&gt;Node8 -->
<g id="edge14" class="edge"><title>Node6&#45;&gt;Node8</title>
<path fill="none" stroke="midnightblue" d="M357.742,-524.859C366.44,-521.421 377.394,-516.363 386,-510 405.232,-495.781 403.909,-485.644 422,-470 423.335,-468.846 424.739,-467.703 426.182,-466.584"/>
<polygon fill="midnightblue" stroke="midnightblue" points="428.564,-469.182 434.643,-460.505 424.48,-463.497 428.564,-469.182"/>
</g>
<!-- Node9 -->
<g id="node17" class="node"><title>Node9</title>
<a xlink:href="cvm-hfa-pp_8c.html#adcc1149c628372e2e566c246870929cb" target="_top" xlink:title="infoentry">
<polygon fill="white" stroke="black" points="422.5,-599.5 422.5,-620.5 481.5,-620.5 481.5,-599.5 422.5,-599.5"/>
<text text-anchor="middle" x="452" y="-607.5" font-family="FreeSans" font-size="10.00">infoentry</text>
</a>
</g>
<!-- Node6&#45;&gt;Node9 -->
<g id="edge16" class="edge"><title>Node6&#45;&gt;Node9</title>
<path fill="none" stroke="midnightblue" d="M356.511,-540.664C372.091,-552.867 398.571,-573.317 422,-590 423.644,-591.171 425.351,-592.364 427.077,-593.556"/>
<polygon fill="midnightblue" stroke="midnightblue" points="425.441,-596.675 435.683,-599.386 429.367,-590.88 425.441,-596.675"/>
</g>
<!-- Node48 -->
<g id="node98" class="node"><title>Node48</title>
<a xlink:href="cvm-hfa-res_8c.html#a6c56aa24fa6551b23e4283ae2d5bcad8" target="_top" xlink:title="Rreport1">
<polygon fill="white" stroke="black" points="423.5,-519.5 423.5,-540.5 480.5,-540.5 480.5,-519.5 423.5,-519.5"/>
<text text-anchor="middle" x="452" y="-527.5" font-family="FreeSans" font-size="10.00">Rreport1</text>
</a>
</g>
<!-- Node6&#45;&gt;Node48 -->
<g id="edge100" class="edge"><title>Node6&#45;&gt;Node48</title>
<path fill="none" stroke="midnightblue" d="M357.7,-530C371.886,-530 393.983,-530 413.221,-530"/>
<polygon fill="midnightblue" stroke="midnightblue" points="413.255,-533.5 423.255,-530 413.255,-526.5 413.255,-533.5"/>
</g>
<!-- Node50 -->
<g id="node102" class="node"><title>Node50</title>
<a xlink:href="cvm-hfa-res_8c.html#a38aa04fce135199ec3bb8726da163846" target="_top" xlink:title="Rfinish">
<polygon fill="white" stroke="black" points="428,-559.5 428,-580.5 476,-580.5 476,-559.5 428,-559.5"/>
<text text-anchor="middle" x="452" y="-567.5" font-family="FreeSans" font-size="10.00">Rfinish</text>
</a>
</g>
<!-- Node6&#45;&gt;Node50 -->
<g id="edge104" class="edge"><title>Node6&#45;&gt;Node50</title>
<path fill="none" stroke="midnightblue" d="M357.7,-535.395C373.181,-541.076 398.082,-550.214 418.409,-557.673"/>
<polygon fill="midnightblue" stroke="midnightblue" points="417.366,-561.018 427.959,-561.178 419.777,-554.447 417.366,-561.018"/>
</g>
<!-- Node10 -->
<g id="node19" class="node"><title>Node10</title>
<a xlink:href="hfa-lnx_8c.html#a78ffddbcd7cdd164889cfb53ea367886" target="_top" xlink:title="entry">
<polygon fill="white" stroke="black" points="524.5,-638.5 524.5,-659.5 565.5,-659.5 565.5,-638.5 524.5,-638.5"/>
<text text-anchor="middle" x="545" y="-646.5" font-family="FreeSans" font-size="10.00">entry</text>
</a>
</g>
<!-- Node9&#45;&gt;Node10 -->
<g id="edge18" class="edge"><title>Node9&#45;&gt;Node10</title>
<path fill="none" stroke="midnightblue" d="M477.413,-620.657C489.04,-625.533 502.899,-631.345 515.032,-636.433"/>
<polygon fill="midnightblue" stroke="midnightblue" points="513.741,-639.687 524.317,-640.326 516.449,-633.231 513.741,-639.687"/>
</g>
<!-- Node47 -->
<g id="node96" class="node"><title>Node47</title>
<a xlink:href="cvm-hfa-pp_8c.html#a85b4c8af06430f26eab8afdeea3a7395" target="_top" xlink:title="hashidx">
<polygon fill="white" stroke="black" points="518,-598.5 518,-619.5 572,-619.5 572,-598.5 518,-598.5"/>
<text text-anchor="middle" x="545" y="-606.5" font-family="FreeSans" font-size="10.00">hashidx</text>
</a>
</g>
<!-- Node9&#45;&gt;Node47 -->
<g id="edge98" class="edge"><title>Node9&#45;&gt;Node47</title>
<path fill="none" stroke="midnightblue" d="M481.681,-609.681C489.92,-609.592 498.973,-609.495 507.592,-609.402"/>
<polygon fill="midnightblue" stroke="midnightblue" points="507.845,-612.9 517.807,-609.292 507.769,-605.9 507.845,-612.9"/>
</g>
<!-- Node10&#45;&gt;Node2 -->
<g id="edge78" class="edge"><title>Node10&#45;&gt;Node2</title>
<path fill="none" stroke="midnightblue" d="M546.889,-659.639C555.402,-707.146 590.546,-898.459 608,-919 608.62,-919.73 609.264,-920.439 609.929,-921.129"/>
<polygon fill="midnightblue" stroke="midnightblue" points="607.901,-923.998 617.791,-927.797 612.429,-918.66 607.901,-923.998"/>
</g>
<!-- Node10&#45;&gt;Node3 -->
<g id="edge80" class="edge"><title>Node10&#45;&gt;Node3</title>
<path fill="none" stroke="midnightblue" d="M563.356,-638.383C566.675,-635.708 569.781,-632.566 572,-629 619.249,-553.056 548.914,-498.148 608,-431 610.497,-428.162 613.394,-425.724 616.548,-423.629"/>
<polygon fill="midnightblue" stroke="midnightblue" points="618.261,-426.681 625.393,-418.847 614.932,-420.524 618.261,-426.681"/>
</g>
<!-- Node10&#45;&gt;Node4 -->
<g id="edge84" class="edge"><title>Node10&#45;&gt;Node4</title>
<path fill="none" stroke="midnightblue" d="M524.067,-647.832C499.2,-645.977 456.716,-641.324 422,-630 341.84,-603.853 255.734,-552.384 214.608,-526.169"/>
<polygon fill="midnightblue" stroke="midnightblue" points="216.374,-523.144 206.07,-520.677 212.586,-529.031 216.374,-523.144"/>
</g>
<!-- Node11 -->
<g id="node21" class="node"><title>Node11</title>
<a xlink:href="hfa-lnx_8c.html#a4c3443f524b4c0d95639694f0b74e850" target="_top" xlink:title="Process command line options, Read graph and payload.">
<polygon fill="white" stroke="black" points="624,-480.5 624,-501.5 718,-501.5 718,-480.5 624,-480.5"/>
<text text-anchor="middle" x="671" y="-488.5" font-family="FreeSans" font-size="10.00">process_options</text>
</a>
</g>
<!-- Node10&#45;&gt;Node11 -->
<g id="edge20" class="edge"><title>Node10&#45;&gt;Node11</title>
<path fill="none" stroke="midnightblue" d="M562.761,-638.395C566.204,-635.686 569.511,-632.527 572,-629 603.621,-584.206 569.448,-549.989 608,-511 610.118,-508.858 612.464,-506.945 614.969,-505.237"/>
<polygon fill="midnightblue" stroke="midnightblue" points="616.983,-508.12 623.998,-500.18 613.563,-502.012 616.983,-508.12"/>
</g>
<!-- Node15 -->
<g id="node29" class="node"><title>Node15</title>
<a xlink:href="cvm-hfa_8c.html#a873768042b716d60996ec5d858fc8fd9" target="_top" xlink:title="This function must be called by application to initialize HFA engine and setup resources for HFA hard...">
<polygon fill="white" stroke="black" points="634,-440.5 634,-461.5 708,-461.5 708,-440.5 634,-440.5"/>
<text text-anchor="middle" x="671" y="-448.5" font-family="FreeSans" font-size="10.00">hfa_dev_init</text>
</a>
</g>
<!-- Node10&#45;&gt;Node15 -->
<g id="edge28" class="edge"><title>Node10&#45;&gt;Node15</title>
<path fill="none" stroke="midnightblue" d="M563.234,-638.306C566.562,-635.637 569.703,-632.516 572,-629 611.388,-568.703 559.239,-524.005 608,-471 612.436,-466.178 618.026,-462.512 624.036,-459.727"/>
<polygon fill="midnightblue" stroke="midnightblue" points="625.623,-462.867 633.72,-456.034 623.129,-456.327 625.623,-462.867"/>
</g>
<!-- Node34 -->
<g id="node67" class="node"><title>Node34</title>
<a xlink:href="hfa-lnx_8c.html#a546f3769e735d4bef0bfab1cba56921c" target="_top" xlink:title="Load graph to HFA memory and cache.">
<polygon fill="white" stroke="red" points="636.5,-888.5 636.5,-909.5 705.5,-909.5 705.5,-888.5 636.5,-888.5"/>
<text text-anchor="middle" x="671" y="-896.5" font-family="FreeSans" font-size="10.00">graph_load</text>
</a>
</g>
<!-- Node10&#45;&gt;Node34 -->
<g id="edge66" class="edge"><title>Node10&#45;&gt;Node34</title>
<path fill="none" stroke="midnightblue" d="M546.557,-659.695C552.707,-700.567 576.52,-846.234 608,-879 613.138,-884.348 619.696,-888.27 626.631,-891.146"/>
<polygon fill="midnightblue" stroke="midnightblue" points="625.628,-894.502 636.222,-894.454 627.91,-887.885 625.628,-894.502"/>
</g>
<!-- Node35 -->
<g id="node69" class="node"><title>Node35</title>
<a xlink:href="hfa-lnx_8c.html#a924d2733ebc7a856f8c3fd293193ba44" target="_top" xlink:title="Initialize search context.">
<polygon fill="white" stroke="red" points="633.5,-848.5 633.5,-869.5 708.5,-869.5 708.5,-848.5 633.5,-848.5"/>
<text text-anchor="middle" x="671" y="-856.5" font-family="FreeSans" font-size="10.00">initialize_ctx</text>
</a>
</g>
<!-- Node10&#45;&gt;Node35 -->
<g id="edge68" class="edge"><title>Node10&#45;&gt;Node35</title>
<path fill="none" stroke="midnightblue" d="M547.177,-659.535C554.803,-695.496 581.292,-812.631 608,-839 612.502,-843.444 617.986,-846.902 623.82,-849.592"/>
<polygon fill="midnightblue" stroke="midnightblue" points="622.598,-852.872 633.187,-853.218 625.125,-846.344 622.598,-852.872"/>
</g>
<!-- Node36 -->
<g id="node71" class="node"><title>Node36</title>
<a xlink:href="app-utils_8c.html#a4b47f3c9c5a0b3eaee64e264171628a3" target="_top" xlink:title="This routine reads data of chunksize/a packet from given payload(Normal/PCAP) file and returns data b...">
<polygon fill="white" stroke="red" points="608,-808.5 608,-829.5 734,-829.5 734,-808.5 608,-808.5"/>
<text text-anchor="middle" x="671" y="-816.5" font-family="FreeSans" font-size="10.00">hfautils_parse_payload</text>
</a>
</g>
<!-- Node10&#45;&gt;Node36 -->
<g id="edge70" class="edge"><title>Node10&#45;&gt;Node36</title>
<path fill="none" stroke="midnightblue" d="M546.415,-659.838C550.569,-687.251 565.252,-759.945 608,-799 609.686,-800.541 611.492,-801.963 613.387,-803.275"/>
<polygon fill="midnightblue" stroke="midnightblue" points="611.774,-806.385 622.183,-808.357 615.275,-800.324 611.774,-806.385"/>
</g>
<!-- Node37 -->
<g id="node73" class="node"><title>Node37</title>
<a xlink:href="cvm-hfa-search_8h.html#ae9741e867075c9b8cc63a7d889d5bf20" target="_top" xlink:title="This routine is a variant of hfa_searchparam_set_inputiovec() when the previously searched input IO v...">
<polygon fill="white" stroke="black" points="610.5,-756 610.5,-790 731.5,-790 731.5,-756 610.5,-756"/>
<text text-anchor="start" x="618.5" y="-777" font-family="FreeSans" font-size="10.00">hfa_searchparam_set</text>
<text text-anchor="middle" x="671" y="-764" font-family="FreeSans" font-size="10.00">_inputiovec_0_n</text>
</a>
</g>
<!-- Node10&#45;&gt;Node37 -->
<g id="edge72" class="edge"><title>Node10&#45;&gt;Node37</title>
<path fill="none" stroke="midnightblue" d="M549.253,-659.647C557.654,-679.434 578.184,-722.118 608,-747 609.499,-748.251 611.066,-749.449 612.687,-750.595"/>
<polygon fill="midnightblue" stroke="midnightblue" points="610.834,-753.564 621.167,-755.903 614.548,-747.63 610.834,-753.564"/>
</g>
<!-- Node38 -->
<g id="node75" class="node"><title>Node38</title>
<a xlink:href="cvm-hfa-search_8h.html#a12882fa53f8ec49b9b2950711161db42" target="_top" xlink:title="This routine sets the output buffer in the sparam.">
<polygon fill="white" stroke="black" points="610.5,-704 610.5,-738 731.5,-738 731.5,-704 610.5,-704"/>
<text text-anchor="start" x="618.5" y="-725" font-family="FreeSans" font-size="10.00">hfa_searchparam_set</text>
<text text-anchor="middle" x="671" y="-712" font-family="FreeSans" font-size="10.00">_output</text>
</a>
</g>
<!-- Node10&#45;&gt;Node38 -->
<g id="edge74" class="edge"><title>Node10&#45;&gt;Node38</title>
<path fill="none" stroke="midnightblue" d="M557.893,-659.844C570.209,-669.846 589.573,-684.667 608,-695 610.838,-696.591 613.794,-698.141 616.808,-699.639"/>
<polygon fill="midnightblue" stroke="midnightblue" points="615.436,-702.862 625.972,-703.971 618.427,-696.533 615.436,-702.862"/>
</g>
<!-- Node39 -->
<g id="node77" class="node"><title>Node39</title>
<a xlink:href="cvm-hfa-search_8c.html#a57d7540278164eb6b6c132be00db0de5" target="_top" xlink:title="This routine performs a pattern search using the given parameters in a blocking manner.">
<polygon fill="white" stroke="red" points="609.5,-664.5 609.5,-685.5 732.5,-685.5 732.5,-664.5 609.5,-664.5"/>
<text text-anchor="middle" x="671" y="-672.5" font-family="FreeSans" font-size="10.00">hfa_searchctx_search</text>
</a>
</g>
<!-- Node10&#45;&gt;Node39 -->
<g id="edge76" class="edge"><title>Node10&#45;&gt;Node39</title>
<path fill="none" stroke="midnightblue" d="M565.525,-653.235C577.767,-655.761 594.015,-659.114 610.083,-662.43"/>
<polygon fill="midnightblue" stroke="midnightblue" points="609.525,-665.888 620.026,-664.482 610.94,-659.033 609.525,-665.888"/>
</g>
<!-- Node40 -->
<g id="node81" class="node"><title>Node40</title>
<a xlink:href="cvm-hfa-search_8h.html#ad18e328b50b109e1e44821f3d006bd9d" target="_top" xlink:title="This routine returns the data&#45;buffer offset.">
<polygon fill="white" stroke="black" points="610,-612 610,-646 732,-646 732,-612 610,-612"/>
<text text-anchor="start" x="618" y="-633" font-family="FreeSans" font-size="10.00">hfa_searchparam_get</text>
<text text-anchor="middle" x="671" y="-620" font-family="FreeSans" font-size="10.00">_hwsearch_pdboff</text>
</a>
</g>
<!-- Node10&#45;&gt;Node40 -->
<g id="edge82" class="edge"><title>Node10&#45;&gt;Node40</title>
<path fill="none" stroke="midnightblue" d="M565.525,-645.742C575.154,-644.214 587.261,-642.292 599.809,-640.3"/>
<polygon fill="midnightblue" stroke="midnightblue" points="600.601,-643.718 609.928,-638.694 599.503,-636.805 600.601,-643.718"/>
</g>
<!-- Node10&#45;&gt;Node41 -->
<g id="edge86" class="edge"><title>Node10&#45;&gt;Node41</title>
<path fill="none" stroke="midnightblue" d="M563.438,-638.434C566.751,-635.755 569.835,-632.599 572,-629 627.157,-537.334 582.217,-494.828 608,-391 622.76,-331.56 649.083,-264.039 662.552,-231.149"/>
<polygon fill="midnightblue" stroke="midnightblue" points="665.855,-232.321 666.443,-221.742 659.387,-229.645 665.855,-232.321"/>
</g>
<!-- Node45 -->
<g id="node92" class="node"><title>Node45</title>
<a xlink:href="cvm-hfa-search_8h.html#ac5bcfbfda7036d9aca28a3c5828847a5" target="_top" xlink:title="This routine retrieves flags returned by post&#45;processor.">
<polygon fill="white" stroke="black" points="610,-560 610,-594 732,-594 732,-560 610,-560"/>
<text text-anchor="start" x="618" y="-581" font-family="FreeSans" font-size="10.00">hfa_searchparam_get</text>
<text text-anchor="middle" x="671" y="-568" font-family="FreeSans" font-size="10.00">_ppoflags</text>
</a>
</g>
<!-- Node10&#45;&gt;Node45 -->
<g id="edge94" class="edge"><title>Node10&#45;&gt;Node45</title>
<path fill="none" stroke="midnightblue" d="M559.46,-638.308C577.25,-625.174 605.431,-604.441 608,-603 610.838,-601.409 613.794,-599.859 616.808,-598.361"/>
<polygon fill="midnightblue" stroke="midnightblue" points="618.427,-601.467 625.972,-594.029 615.436,-595.138 618.427,-601.467"/>
</g>
<!-- Node46 -->
<g id="node94" class="node"><title>Node46</title>
<a xlink:href="hfa-lnx_8c.html#a5c6551bf9ea9cf51ae7f2076c4cbe8ef" target="_top" xlink:title="Application cleanup will be done by this routine.">
<polygon fill="white" stroke="red" points="644,-520.5 644,-541.5 698,-541.5 698,-520.5 644,-520.5"/>
<text text-anchor="middle" x="671" y="-528.5" font-family="FreeSans" font-size="10.00">cleanup</text>
</a>
</g>
<!-- Node10&#45;&gt;Node46 -->
<g id="edge96" class="edge"><title>Node10&#45;&gt;Node46</title>
<path fill="none" stroke="midnightblue" d="M562.125,-638.343C565.686,-635.599 569.203,-632.439 572,-629 596.092,-599.38 579.368,-576.259 608,-551 615.267,-544.589 624.596,-540.231 633.835,-537.269"/>
<polygon fill="midnightblue" stroke="midnightblue" points="634.997,-540.58 643.724,-534.573 633.155,-533.827 634.997,-540.58"/>
</g>
<!-- Node12 -->
<g id="node23" class="node"><title>Node12</title>
<a xlink:href="app-utils_8c.html#a8d5ec2ca8ebb2e04916983e6053a5c79" target="_top" xlink:title="Return size of a file(compressed or uncompressed).">
<polygon fill="white" stroke="red" points="805.5,-892.5 805.5,-913.5 900.5,-913.5 900.5,-892.5 805.5,-892.5"/>
<text text-anchor="middle" x="853" y="-900.5" font-family="FreeSans" font-size="10.00">hfautils_file_size</text>
</a>
</g>
<!-- Node11&#45;&gt;Node12 -->
<g id="edge22" class="edge"><title>Node11&#45;&gt;Node12</title>
<path fill="none" stroke="midnightblue" d="M718.254,-499.097C724.293,-501.967 729.815,-505.824 734,-511 786.219,-575.583 715.524,-820.31 770,-883 776.708,-890.72 785.83,-895.731 795.577,-898.933"/>
<polygon fill="midnightblue" stroke="midnightblue" points="794.902,-902.375 805.466,-901.565 796.703,-895.611 794.902,-902.375"/>
</g>
<!-- Node13 -->
<g id="node25" class="node"><title>Node13</title>
<a xlink:href="app-utils_8c.html#a12339c67618c4b3a54c32f43d378c273" target="_top" xlink:title="Read data from a file to a buffer(compressed or uncompressed).">
<polygon fill="white" stroke="red" points="804.5,-852.5 804.5,-873.5 901.5,-873.5 901.5,-852.5 804.5,-852.5"/>
<text text-anchor="middle" x="853" y="-860.5" font-family="FreeSans" font-size="10.00">hfautils_read_file</text>
</a>
</g>
<!-- Node11&#45;&gt;Node13 -->
<g id="edge24" class="edge"><title>Node11&#45;&gt;Node13</title>
<path fill="none" stroke="midnightblue" d="M718.2,-499.141C724.247,-502.005 729.785,-505.849 734,-511 827.983,-625.873 672.003,-731.532 770,-843 776.465,-850.353 785.119,-855.243 794.403,-858.452"/>
<polygon fill="midnightblue" stroke="midnightblue" points="793.666,-861.88 804.24,-861.219 795.562,-855.142 793.666,-861.88"/>
</g>
<!-- Node14 -->
<g id="node27" class="node"><title>Node14</title>
<a xlink:href="app-utils_8c.html#a1944a739d03e86dcaee1a7d245cfeba0" target="_top" xlink:title="Initialize the attributes needed for parsing the payload file.">
<polygon fill="white" stroke="red" points="796.5,-800 796.5,-834 909.5,-834 909.5,-800 796.5,-800"/>
<text text-anchor="start" x="804.5" y="-821" font-family="FreeSans" font-size="10.00">hfautils_init_payload</text>
<text text-anchor="middle" x="853" y="-808" font-family="FreeSans" font-size="10.00">_attributes</text>
</a>
</g>
<!-- Node11&#45;&gt;Node14 -->
<g id="edge26" class="edge"><title>Node11&#45;&gt;Node14</title>
<path fill="none" stroke="midnightblue" d="M718.109,-499.216C724.168,-502.07 729.735,-505.891 734,-511 814.41,-607.316 689.406,-694.838 770,-791 774.735,-796.649 780.681,-801.089 787.206,-804.576"/>
<polygon fill="midnightblue" stroke="midnightblue" points="785.85,-807.804 796.401,-808.764 788.751,-801.434 785.85,-807.804"/>
</g>
<!-- Node16 -->
<g id="node31" class="node"><title>Node16</title>
<a xlink:href="cvm-hfa-stats_8c.html#a2fcf955b47370bfa46705ee5a23a70cf" target="_top" xlink:title="This routine allocates memory for counters to maintain statistics of each processing core...">
<polygon fill="white" stroke="red" points="802,-160.5 802,-181.5 904,-181.5 904,-160.5 802,-160.5"/>
<text text-anchor="middle" x="853" y="-168.5" font-family="FreeSans" font-size="10.00">hfa_dev_stats_init</text>
</a>
</g>
<!-- Node15&#45;&gt;Node16 -->
<g id="edge30" class="edge"><title>Node15&#45;&gt;Node16</title>
<path fill="none" stroke="midnightblue" d="M708.319,-446.392C717.955,-443.448 727.447,-438.684 734,-431 803.991,-348.933 697.143,-270.534 770,-191 776.038,-184.409 783.837,-179.813 792.232,-176.639"/>
<polygon fill="midnightblue" stroke="midnightblue" points="793.395,-179.943 801.902,-173.628 791.314,-173.259 793.395,-179.943"/>
</g>
<!-- Node17 -->
<g id="node33" class="node"><title>Node17</title>
<a xlink:href="cvm-hfa_8c.html#a27982497398da2118cd5287ed51732e7" target="_top" xlink:title="Provides device&#45;specific information This is a utility routine used to obtain HFA device&#45;specific det...">
<polygon fill="white" stroke="black" points="797.5,-120.5 797.5,-141.5 908.5,-141.5 908.5,-120.5 797.5,-120.5"/>
<text text-anchor="middle" x="853" y="-128.5" font-family="FreeSans" font-size="10.00">hfa_dev_getdevinfo</text>
</a>
</g>
<!-- Node15&#45;&gt;Node17 -->
<g id="edge32" class="edge"><title>Node15&#45;&gt;Node17</title>
<path fill="none" stroke="midnightblue" d="M708.095,-446.58C717.846,-443.646 727.455,-438.84 734,-431 814.41,-334.684 686.225,-244.404 770,-151 774.967,-145.462 781.176,-141.327 787.95,-138.257"/>
<polygon fill="midnightblue" stroke="midnightblue" points="789.33,-141.478 797.473,-134.7 786.881,-134.921 789.33,-141.478"/>
</g>
<!-- Node18 -->
<g id="node35" class="node"><title>Node18</title>
<a xlink:href="pp_8h.html#a6f5982b2671e9682262a26b0d2996396" target="_top" xlink:title="Constructs a readable version string for the PP library.">
<polygon fill="white" stroke="black" points="793,-80.5 793,-101.5 913,-101.5 913,-80.5 793,-80.5"/>
<text text-anchor="middle" x="853" y="-88.5" font-family="FreeSans" font-size="10.00">pp_get_version_string</text>
</a>
</g>
<!-- Node15&#45;&gt;Node18 -->
<g id="edge34" class="edge"><title>Node15&#45;&gt;Node18</title>
<path fill="none" stroke="midnightblue" d="M708.174,-446.646C717.927,-443.713 727.517,-438.892 734,-431 824.848,-320.412 675.287,-218.297 770,-111 773.801,-106.694 778.353,-103.233 783.341,-100.461"/>
<polygon fill="midnightblue" stroke="midnightblue" points="785.08,-103.515 792.724,-96.1793 782.174,-97.1465 785.08,-103.515"/>
</g>
<!-- Node19 -->
<g id="node37" class="node"><title>Node19</title>
<a xlink:href="cvm-hfa_8c.html#afd1d53fe8a402d4c5799e6e98c67baaa" target="_top" xlink:title="Displays HFA Device info.">
<polygon fill="white" stroke="red" points="794.5,-760.5 794.5,-781.5 911.5,-781.5 911.5,-760.5 794.5,-760.5"/>
<text text-anchor="middle" x="853" y="-768.5" font-family="FreeSans" font-size="10.00">hfa_dev_display_info</text>
</a>
</g>
<!-- Node15&#45;&gt;Node19 -->
<g id="edge36" class="edge"><title>Node15&#45;&gt;Node19</title>
<path fill="none" stroke="midnightblue" d="M708.095,-455.42C717.846,-458.354 727.455,-463.16 734,-471 814.41,-567.316 686.225,-657.596 770,-751 774.286,-755.779 779.498,-759.514 785.2,-762.42"/>
<polygon fill="midnightblue" stroke="midnightblue" points="783.925,-765.681 794.5,-766.337 786.642,-759.23 783.925,-765.681"/>
</g>
<!-- Node20 -->
<g id="node39" class="node"><title>Node20</title>
<a xlink:href="cvm-hfa_8c.html#a236e64ca73680ea6761204d5c44d4e96" target="_top" xlink:title="API to set PP resource allocator for partial matches.">
<polygon fill="white" stroke="black" points="785.5,-720.5 785.5,-741.5 920.5,-741.5 920.5,-720.5 785.5,-720.5"/>
<text text-anchor="middle" x="853" y="-728.5" font-family="FreeSans" font-size="10.00">hfa_dev_set_fnp_ppalloc</text>
</a>
</g>
<!-- Node15&#45;&gt;Node20 -->
<g id="edge38" class="edge"><title>Node15&#45;&gt;Node20</title>
<path fill="none" stroke="midnightblue" d="M708.319,-455.608C717.955,-458.552 727.447,-463.316 734,-471 803.991,-553.067 697.143,-631.466 770,-711 772.018,-713.203 774.233,-715.183 776.601,-716.962"/>
<polygon fill="midnightblue" stroke="midnightblue" points="774.833,-719.984 785.18,-722.264 778.513,-714.029 774.833,-719.984"/>
</g>
<!-- Node21 -->
<g id="node41" class="node"><title>Node21</title>
<a xlink:href="cvm-hfa_8c.html#ab547f175726534d6a0a334eb35af4980" target="_top" xlink:title="Default function pointer for PP allocations.">
<polygon fill="white" stroke="black" points="793,-680.5 793,-701.5 913,-701.5 913,-680.5 793,-680.5"/>
<text text-anchor="middle" x="853" y="-688.5" font-family="FreeSans" font-size="10.00">hfa_defaultfn_ppalloc</text>
</a>
</g>
<!-- Node15&#45;&gt;Node21 -->
<g id="edge40" class="edge"><title>Node15&#45;&gt;Node21</title>
<path fill="none" stroke="midnightblue" d="M708.175,-455.733C717.809,-458.679 727.336,-463.413 734,-471 793.605,-538.857 708.027,-605.3 770,-671 773.878,-675.111 778.441,-678.441 783.4,-681.131"/>
<polygon fill="midnightblue" stroke="midnightblue" points="782.136,-684.4 792.691,-685.314 785.009,-678.017 782.136,-684.4"/>
</g>
<!-- Node22 -->
<g id="node43" class="node"><title>Node22</title>
<a xlink:href="cvm-hfa_8c.html#a148abbfdeebb207ff46884af8eeb8fa4" target="_top" xlink:title="API to set PP resource deallocator for partial matches.">
<polygon fill="white" stroke="black" points="787,-640.5 787,-661.5 919,-661.5 919,-640.5 787,-640.5"/>
<text text-anchor="middle" x="853" y="-648.5" font-family="FreeSans" font-size="10.00">hfa_dev_set_fnp_ppfree</text>
</a>
</g>
<!-- Node15&#45;&gt;Node22 -->
<g id="edge42" class="edge"><title>Node15&#45;&gt;Node22</title>
<path fill="none" stroke="midnightblue" d="M708.293,-456.022C717.813,-458.977 727.251,-463.643 734,-471 783.275,-524.71 718.851,-579.071 770,-631 772.392,-633.429 775.025,-635.583 777.835,-637.491"/>
<polygon fill="midnightblue" stroke="midnightblue" points="776.306,-640.647 786.735,-642.511 779.745,-634.55 776.306,-640.647"/>
</g>
<!-- Node23 -->
<g id="node45" class="node"><title>Node23</title>
<a xlink:href="cvm-hfa_8c.html#a832239ee7b188265bdacbbfb7e879af1" target="_top" xlink:title="Default function pointer for PP deallocations.">
<polygon fill="white" stroke="black" points="794.5,-600.5 794.5,-621.5 911.5,-621.5 911.5,-600.5 794.5,-600.5"/>
<text text-anchor="middle" x="853" y="-608.5" font-family="FreeSans" font-size="10.00">hfa_defaultfn_ppfree</text>
</a>
</g>
<!-- Node15&#45;&gt;Node23 -->
<g id="edge44" class="edge"><title>Node15&#45;&gt;Node23</title>
<path fill="none" stroke="midnightblue" d="M708.289,-456.44C717.696,-459.401 727.078,-463.966 734,-471 773.058,-510.685 729.559,-552.725 770,-591 774.345,-595.112 779.382,-598.425 784.787,-601.088"/>
<polygon fill="midnightblue" stroke="midnightblue" points="783.592,-604.381 794.17,-604.983 786.276,-597.916 783.592,-604.381"/>
</g>
<!-- Node24 -->
<g id="node47" class="node"><title>Node24</title>
<a xlink:href="cvm-hfa_8c.html#a774451b83b300f862763d189c9758e1f" target="_top" xlink:title="API to set PP buffer size function pointer.">
<polygon fill="white" stroke="black" points="787,-560.5 787,-581.5 919,-581.5 919,-560.5 787,-560.5"/>
<text text-anchor="middle" x="853" y="-568.5" font-family="FreeSans" font-size="10.00">hfa_dev_set_fnp_ppsize</text>
</a>
</g>
<!-- Node15&#45;&gt;Node24 -->
<g id="edge46" class="edge"><title>Node15&#45;&gt;Node24</title>
<path fill="none" stroke="midnightblue" d="M708.026,-457.165C717.324,-460.128 726.716,-464.512 734,-471 763.115,-496.933 739.984,-526.116 770,-551 772.432,-553.016 775.034,-554.835 777.762,-556.476"/>
<polygon fill="midnightblue" stroke="midnightblue" points="776.347,-559.684 786.842,-561.133 779.541,-553.455 776.347,-559.684"/>
</g>
<!-- Node25 -->
<g id="node49" class="node"><title>Node25</title>
<a xlink:href="cvm-hfa_8c.html#a11aab8e30488e4cfc900f60a0dabc784" target="_top" xlink:title="Default function pointer for PP size.">
<polygon fill="white" stroke="black" points="794.5,-520.5 794.5,-541.5 911.5,-541.5 911.5,-520.5 794.5,-520.5"/>
<text text-anchor="middle" x="853" y="-528.5" font-family="FreeSans" font-size="10.00">hfa_defaultfn_ppsize</text>
</a>
</g>
<!-- Node15&#45;&gt;Node25 -->
<g id="edge48" class="edge"><title>Node15&#45;&gt;Node25</title>
<path fill="none" stroke="midnightblue" d="M708.118,-459.199C717.012,-462.111 726.188,-465.963 734,-471 754.101,-483.961 749.452,-498.76 770,-511 774.501,-513.681 779.341,-516.003 784.341,-518.014"/>
<polygon fill="midnightblue" stroke="midnightblue" points="783.511,-521.434 794.106,-521.51 785.871,-514.844 783.511,-521.434"/>
</g>
<!-- Node26 -->
<g id="node51" class="node"><title>Node26</title>
<a xlink:href="cvm-hfa_8c.html#a9a0b038e0d29435cb91a21d9c62806cc" target="_top" xlink:title="API to set PP resource allocator for temporary memory.">
<polygon fill="white" stroke="black" points="784,-480.5 784,-501.5 922,-501.5 922,-480.5 784,-480.5"/>
<text text-anchor="middle" x="853" y="-488.5" font-family="FreeSans" font-size="10.00">hfa_dev_set_fnp_pptalloc</text>
</a>
</g>
<!-- Node15&#45;&gt;Node26 -->
<g id="edge50" class="edge"><title>Node15&#45;&gt;Node26</title>
<path fill="none" stroke="midnightblue" d="M708.27,-459.191C733.294,-464.691 766.765,-472.047 795.215,-478.3"/>
<polygon fill="midnightblue" stroke="midnightblue" points="794.529,-481.733 805.047,-480.461 796.031,-474.896 794.529,-481.733"/>
</g>
<!-- Node27 -->
<g id="node53" class="node"><title>Node27</title>
<a xlink:href="cvm-hfa_8c.html#a2cbca63c413f08d3861f9b4c2855391f" target="_top" xlink:title="API to set PP resource deallocator for temporary memory.">
<polygon fill="white" stroke="black" points="785.5,-440.5 785.5,-461.5 920.5,-461.5 920.5,-440.5 785.5,-440.5"/>
<text text-anchor="middle" x="853" y="-448.5" font-family="FreeSans" font-size="10.00">hfa_dev_set_fnp_pptfree</text>
</a>
</g>
<!-- Node15&#45;&gt;Node27 -->
<g id="edge52" class="edge"><title>Node15&#45;&gt;Node27</title>
<path fill="none" stroke="midnightblue" d="M708.27,-451C727.566,-451 751.883,-451 775.048,-451"/>
<polygon fill="midnightblue" stroke="midnightblue" points="775.237,-454.5 785.237,-451 775.237,-447.5 775.237,-454.5"/>
</g>
<!-- Node28 -->
<g id="node55" class="node"><title>Node28</title>
<a xlink:href="cvm-hfa_8c.html#af0b17e8a09b1f7a1dd438ddcb1e4cd14" target="_top" xlink:title="API to set temporary memory size function pointer.">
<polygon fill="white" stroke="black" points="785.5,-400.5 785.5,-421.5 920.5,-421.5 920.5,-400.5 785.5,-400.5"/>
<text text-anchor="middle" x="853" y="-408.5" font-family="FreeSans" font-size="10.00">hfa_dev_set_fnp_pptsize</text>
</a>
</g>
<!-- Node15&#45;&gt;Node28 -->
<g id="edge54" class="edge"><title>Node15&#45;&gt;Node28</title>
<path fill="none" stroke="midnightblue" d="M708.27,-442.809C733.294,-437.309 766.765,-429.953 795.215,-423.7"/>
<polygon fill="midnightblue" stroke="midnightblue" points="796.031,-427.104 805.047,-421.539 794.529,-420.267 796.031,-427.104"/>
</g>
<!-- Node29 -->
<g id="node57" class="node"><title>Node29</title>
<a xlink:href="cvm-hfa_8c.html#aa2754afcdd94eb3dcd90c374f779dd24" target="_top" xlink:title="API to set PP resource allocator for match/result buffer.">
<polygon fill="white" stroke="black" points="770,-360.5 770,-381.5 936,-381.5 936,-360.5 770,-360.5"/>
<text text-anchor="middle" x="853" y="-368.5" font-family="FreeSans" font-size="10.00">hfa_dev_set_fnp_ppmatchalloc</text>
</a>
</g>
<!-- Node15&#45;&gt;Node29 -->
<g id="edge56" class="edge"><title>Node15&#45;&gt;Node29</title>
<path fill="none" stroke="midnightblue" d="M708.118,-442.801C717.012,-439.889 726.188,-436.037 734,-431 754.101,-418.039 749.452,-403.24 770,-391 773.582,-388.867 777.378,-386.961 781.299,-385.258"/>
<polygon fill="midnightblue" stroke="midnightblue" points="782.571,-388.519 790.63,-381.642 780.041,-381.992 782.571,-388.519"/>
</g>
<!-- Node30 -->
<g id="node59" class="node"><title>Node30</title>
<a xlink:href="cvm-hfa_8c.html#ad022f5aec72780af8b36533884693539" target="_top" xlink:title="API to set PP resource deallocator for result/match buf.">
<polygon fill="white" stroke="black" points="771.5,-320.5 771.5,-341.5 934.5,-341.5 934.5,-320.5 771.5,-320.5"/>
<text text-anchor="middle" x="853" y="-328.5" font-family="FreeSans" font-size="10.00">hfa_dev_set_fnp_ppmatchfree</text>
</a>
</g>
<!-- Node15&#45;&gt;Node30 -->
<g id="edge58" class="edge"><title>Node15&#45;&gt;Node30</title>
<path fill="none" stroke="midnightblue" d="M708.026,-444.835C717.324,-441.872 726.716,-437.488 734,-431 763.115,-405.067 739.984,-375.884 770,-351 771.997,-349.345 774.109,-347.822 776.31,-346.422"/>
<polygon fill="midnightblue" stroke="midnightblue" points="778.07,-349.449 785.194,-341.606 774.735,-343.295 778.07,-349.449"/>
</g>
<!-- Node31 -->
<g id="node61" class="node"><title>Node31</title>
<a xlink:href="cvm-hfa_8c.html#a8b71887165c143e32600513d12f9274f" target="_top" xlink:title="API to set match buffer size function pointer.">
<polygon fill="white" stroke="black" points="771.5,-280.5 771.5,-301.5 934.5,-301.5 934.5,-280.5 771.5,-280.5"/>
<text text-anchor="middle" x="853" y="-288.5" font-family="FreeSans" font-size="10.00">hfa_dev_set_fnp_ppmatchsize</text>
</a>
</g>
<!-- Node15&#45;&gt;Node31 -->
<g id="edge60" class="edge"><title>Node15&#45;&gt;Node31</title>
<path fill="none" stroke="midnightblue" d="M708.289,-445.56C717.696,-442.599 727.078,-438.034 734,-431 773.058,-391.315 729.559,-349.275 770,-311 771.494,-309.586 773.069,-308.267 774.713,-307.036"/>
<polygon fill="midnightblue" stroke="midnightblue" points="776.812,-309.852 783.445,-301.591 773.108,-303.913 776.812,-309.852"/>
</g>
<!-- Node32 -->
<g id="node63" class="node"><title>Node32</title>
<a xlink:href="cvm-hfa_8c.html#abcc0595aa8b2bb2d6116d600abbf55f8" target="_top" xlink:title="API to set PP error callback.">
<polygon fill="white" stroke="black" points="785,-240.5 785,-261.5 921,-261.5 921,-240.5 785,-240.5"/>
<text text-anchor="middle" x="853" y="-248.5" font-family="FreeSans" font-size="10.00">hfa_dev_set_fnp_pperror</text>
</a>
</g>
<!-- Node15&#45;&gt;Node32 -->
<g id="edge62" class="edge"><title>Node15&#45;&gt;Node32</title>
<path fill="none" stroke="midnightblue" d="M708.293,-445.978C717.813,-443.023 727.251,-438.357 734,-431 783.275,-377.29 718.851,-322.929 770,-271 771.866,-269.106 773.877,-267.379 776.006,-265.805"/>
<polygon fill="midnightblue" stroke="midnightblue" points="778.028,-268.671 784.729,-260.464 774.373,-262.701 778.028,-268.671"/>
</g>
<!-- Node33 -->
<g id="node65" class="node"><title>Node33</title>
<a xlink:href="cvm-hfa_8c.html#ac115556b315ff135ed2fd059cdf7d066" target="_top" xlink:title="Default function pointer for PP errors.">
<polygon fill="white" stroke="black" points="797.5,-200.5 797.5,-221.5 908.5,-221.5 908.5,-200.5 797.5,-200.5"/>
<text text-anchor="middle" x="853" y="-208.5" font-family="FreeSans" font-size="10.00">hfa_defaultfn_pperr</text>
</a>
</g>
<!-- Node15&#45;&gt;Node33 -->
<g id="edge64" class="edge"><title>Node15&#45;&gt;Node33</title>
<path fill="none" stroke="midnightblue" d="M708.175,-446.267C717.809,-443.321 727.336,-438.587 734,-431 793.605,-363.143 708.027,-296.7 770,-231 775.034,-225.663 781.225,-221.642 787.937,-218.628"/>
<polygon fill="midnightblue" stroke="midnightblue" points="789.208,-221.889 797.352,-215.112 786.76,-215.331 789.208,-221.889"/>
</g>
<!-- Node42 -->
<g id="node86" class="node"><title>Node42</title>
<a xlink:href="cvm-hfa-search_8c.html#a0ac0bca99358ad294a18f86696acf218" target="_top" xlink:title="This routine returns a match by parsing through the match buffer.">
<polygon fill="white" stroke="black" points="809,-0.5 809,-21.5 897,-21.5 897,-0.5 809,-0.5"/>
<text text-anchor="middle" x="853" y="-8.5" font-family="FreeSans" font-size="10.00">hfa_match_get</text>
</a>
</g>
<!-- Node41&#45;&gt;Node42 -->
<g id="edge88" class="edge"><title>Node41&#45;&gt;Node42</title>
<path fill="none" stroke="midnightblue" d="M673.675,-200.056C681.99,-168.46 710.477,-76.4573 770,-31 778.391,-24.5916 788.539,-20.2011 798.816,-17.2016"/>
<polygon fill="midnightblue" stroke="midnightblue" points="799.81,-20.561 808.656,-14.7315 798.105,-13.7716 799.81,-20.561"/>
</g>
<!-- Node43 -->
<g id="node88" class="node"><title>Node43</title>
<a xlink:href="cvm-hfa-search_8c.html#a543990bc2a5e1726298e5053391e3bf5" target="_top" xlink:title="This routine cleans&#45;up the match&#45;buffers allocated by hfa_searchctx_getmatches().">
<polygon fill="white" stroke="black" points="791.5,-40.5 791.5,-61.5 914.5,-61.5 914.5,-40.5 791.5,-40.5"/>
<text text-anchor="middle" x="853" y="-48.5" font-family="FreeSans" font-size="10.00">hfa_matches_cleanup</text>
</a>
</g>
<!-- Node41&#45;&gt;Node43 -->
<g id="edge90" class="edge"><title>Node41&#45;&gt;Node43</title>
<path fill="none" stroke="midnightblue" d="M675.373,-200.236C686.715,-173.747 719.738,-105.083 770,-71 773.759,-68.4511 777.807,-66.2258 782.021,-64.2833"/>
<polygon fill="midnightblue" stroke="midnightblue" points="783.505,-67.4587 791.465,-60.4663 780.882,-60.9688 783.505,-67.4587"/>
</g>
<!-- Node44 -->
<g id="node90" class="node"><title>Node44</title>
<a xlink:href="cvm-hfa-res_8c.html#a78813e2d747c1d659277b705ebdffc50" target="_top" xlink:title="Rfree">
<polygon fill="white" stroke="black" points="972,-40.5 972,-61.5 1014,-61.5 1014,-40.5 972,-40.5"/>
<text text-anchor="middle" x="993" y="-48.5" font-family="FreeSans" font-size="10.00">Rfree</text>
</a>
</g>
<!-- Node43&#45;&gt;Node44 -->
<g id="edge92" class="edge"><title>Node43&#45;&gt;Node44</title>
<path fill="none" stroke="midnightblue" d="M914.814,-51C930.882,-51 947.533,-51 961.319,-51"/>
<polygon fill="midnightblue" stroke="midnightblue" points="961.694,-54.5001 971.694,-51 961.694,-47.5001 961.694,-54.5001"/>
</g>
<!-- Node49 -->
<g id="node100" class="node"><title>Node49</title>
<a xlink:href="cvm-hfa-res_8c.html#a70c9e55ba1fcb934f74ad71ddca9d08f" target="_top" xlink:title="Radd">
<polygon fill="white" stroke="black" points="524.5,-519.5 524.5,-540.5 565.5,-540.5 565.5,-519.5 524.5,-519.5"/>
<text text-anchor="middle" x="545" y="-527.5" font-family="FreeSans" font-size="10.00">Radd</text>
</a>
</g>
<!-- Node48&#45;&gt;Node49 -->
<g id="edge102" class="edge"><title>Node48&#45;&gt;Node49</title>
<path fill="none" stroke="midnightblue" d="M480.662,-530C491.229,-530 503.245,-530 514.009,-530"/>
<polygon fill="midnightblue" stroke="midnightblue" points="514.256,-533.5 524.256,-530 514.256,-526.5 514.256,-533.5"/>
</g>
</g>
</svg>
        <g id="navigator" transform="translate(0 0)" fill="#404254">
                <rect fill="#f2f5e9" fill-opacity="0.5" stroke="#606060" stroke-width=".5" x="0" y="0" width="60" height="60"/>
                <use id="zoomplus" xlink:href="#zoomPlus" x="17" y="9" onmousedown="handleZoom(evt,'in')"/>
                <use id="zoomminus" xlink:href="#zoomMin" x="42" y="9" onmousedown="handleZoom(evt,'out')"/>
                <use id="reset" xlink:href="#resetDef" x="30" y="36" onmousedown="handleReset()"/>
                <g id="arrowUp" xlink:href="#dirArrow" transform="translate(30 24)" onmousedown="handlePan(0,-1)">
                  <use xlink:href="#rim" fill="#404040">
                        <set attributeName="fill" to="#808080" begin="arrowUp.mouseover" end="arrowUp.mouseout"/>
                  </use>
                  <path fill="none" stroke="white" stroke-width="1.5" d="M0,-3.0v7 M-2.5,-0.5L0,-3.0L2.5,-0.5"/>
                </g>
                <g id="arrowRight" xlink:href="#dirArrow" transform="rotate(90) translate(36 -43)" onmousedown="handlePan(1,0)">
                  <use xlink:href="#rim" fill="#404040">
                        <set attributeName="fill" to="#808080" begin="arrowRight.mouseover" end="arrowRight.mouseout"/>
                  </use>
                  <path fill="none" stroke="white" stroke-width="1.5" d="M0,-3.0v7 M-2.5,-0.5L0,-3.0L2.5,-0.5"/>
                </g>
                <g id="arrowDown" xlink:href="#dirArrow" transform="rotate(180) translate(-30 -48)" onmousedown="handlePan(0,1)">
                  <use xlink:href="#rim" fill="#404040">
                        <set attributeName="fill" to="#808080" begin="arrowDown.mouseover" end="arrowDown.mouseout"/>
                  </use>
                  <path fill="none" stroke="white" stroke-width="1.5" d="M0,-3.0v7 M-2.5,-0.5L0,-3.0L2.5,-0.5"/>
                </g>
                <g id="arrowLeft" xlink:href="#dirArrow" transform="rotate(270) translate(-36 17)" onmousedown="handlePan(-1,0)">
                  <use xlink:href="#rim" fill="#404040">
                        <set attributeName="fill" to="#808080" begin="arrowLeft.mouseover" end="arrowLeft.mouseout"/>
                  </use>
                  <path fill="none" stroke="white" stroke-width="1.5" d="M0,-3.0v7 M-2.5,-0.5L0,-3.0L2.5,-0.5"/>
                </g>
        </g>
        <svg viewBox="0 0 15 15" width="100%" height="30px" preserveAspectRatio="xMaxYMin meet">
         <g id="arrow_out" transform="scale(0.3 0.3)">
          <a xlink:href="hfa-se-nctx-lock_8c_adb0c831ef0f9af5441a6769c377d9c95_cgraph_org.svg" target="_base">
           <rect id="button" ry="5" rx="5" y="6" x="6" height="38" width="38"
                fill="#f2f5e9" fill-opacity="0.5" stroke="#606060" stroke-width="1.0"/>
           <path id="arrow"
             d="M 11.500037,31.436501 C 11.940474,20.09759 22.043105,11.32322 32.158766,21.979434 L 37.068811,17.246167 C 37.068811,17.246167 37.088388,32 37.088388,32 L 22.160133,31.978069 C 22.160133,31.978069 26.997745,27.140456 26.997745,27.140456 C 18.528582,18.264221 13.291696,25.230495 11.500037,31.436501 z"
             style="fill:#404040;"/>
          </a>
         </g>
        </svg>
</svg>
