<?xml version="1.0" encoding="UTF-8" standalone="no"?>
<!DOCTYPE svg PUBLIC "-//W3C//DTD SVG 1.1//EN"
 "http://www.w3.org/Graphics/SVG/1.1/DTD/svg11.dtd">
<!-- Generated by graphviz version 2.24.0 (20090616.2323)
 -->
<!-- Title: matchcb Pages: 1 -->
<svg width="466pt" height="70pt"
 viewBox="0.00 0.00 466.00 70.00" xmlns="http://www.w3.org/2000/svg" xmlns:xlink="http://www.w3.org/1999/xlink">
<g id="graph1" class="graph" transform="scale(1 1) rotate(0) translate(4 66)">
<title>matchcb</title>
<polygon fill="white" stroke="white" points="-4,5 -4,-66 463,-66 463,5 -4,5"/>
<!-- Node1 -->
<g id="node1" class="node"><title>Node1</title>
<polygon fill="#bfbfbf" stroke="black" points="0.5,-20.5 0.5,-41.5 59.5,-41.5 59.5,-20.5 0.5,-20.5"/>
<text text-anchor="middle" x="30" y="-28.5" font-family="FreeSans" font-size="10.00">matchcb</text>
</g>
<!-- Node2 -->
<g id="node3" class="node"><title>Node2</title>
<a xlink:href="flow_8c.html#a28378e8a6f53ff0e87f2e688d1c21834" target="_top" xlink:title="Low level API to create a flow Allocate Flow, Intialize searchctx, set graph and setflags,.">
<polygon fill="white" stroke="black" points="96.5,-40.5 96.5,-61.5 203.5,-61.5 203.5,-40.5 96.5,-40.5"/>
<text text-anchor="middle" x="150" y="-48.5" font-family="FreeSans" font-size="10.00">__hfaf_create_flow</text>
</a>
</g>
<!-- Node1&#45;&gt;Node2 -->
<g id="edge2" class="edge"><title>Node1&#45;&gt;Node2</title>
<path fill="none" stroke="midnightblue" d="M69.7099,-37.6183C78.2438,-39.0406 87.3984,-40.5664 96.3614,-42.0602"/>
<polygon fill="midnightblue" stroke="midnightblue" points="70.1023,-34.1355 59.6629,-35.9438 68.9514,-41.0403 70.1023,-34.1355"/>
</g>
<!-- Node5 -->
<g id="node9" class="node"><title>Node5</title>
<a xlink:href="hfa-se-xml-parser_8c.html#a3c04138a5bfe5d72780bb7e82a18e627" target="_top" xlink:title="main">
<polygon fill="white" stroke="black" points="130,-0.5 130,-21.5 170,-21.5 170,-0.5 130,-0.5"/>
<text text-anchor="middle" x="150" y="-8.5" font-family="FreeSans" font-size="10.00">main</text>
</a>
</g>
<!-- Node1&#45;&gt;Node5 -->
<g id="edge8" class="edge"><title>Node1&#45;&gt;Node5</title>
<path fill="none" stroke="midnightblue" d="M69.7908,-24.3682C89.8605,-21.0233 113.346,-17.109 129.697,-14.3839"/>
<polygon fill="midnightblue" stroke="midnightblue" points="68.9514,-20.9597 59.6629,-26.0562 70.1023,-27.8645 68.9514,-20.9597"/>
</g>
<!-- Node3 -->
<g id="node5" class="node"><title>Node3</title>
<a xlink:href="flow_8h.html#abdb62c6f71f5ca9ecddc66c90166d37b" target="_top" xlink:title="Create Packet Flow in Flowdb.">
<polygon fill="white" stroke="black" points="240.5,-40.5 240.5,-61.5 351.5,-61.5 351.5,-40.5 240.5,-40.5"/>
<text text-anchor="middle" x="296" y="-48.5" font-family="FreeSans" font-size="10.00">hfaf_create_pktflow</text>
</a>
</g>
<!-- Node2&#45;&gt;Node3 -->
<g id="edge4" class="edge"><title>Node2&#45;&gt;Node3</title>
<path fill="none" stroke="midnightblue" d="M213.707,-51C222.468,-51 231.411,-51 240.019,-51"/>
<polygon fill="midnightblue" stroke="midnightblue" points="213.536,-47.5001 203.536,-51 213.536,-54.5001 213.536,-47.5001"/>
</g>
<!-- Node4 -->
<g id="node7" class="node"><title>Node4</title>
<a xlink:href="hfa-se-flow-wqe_8c.html#a6d3e23d8f7a3aaf1b0d6e350b7631a0e" target="_top" xlink:title="Get flow pointer from Flow database, If flow ptr is NULL then create at runtime.">
<polygon fill="white" stroke="black" points="388.5,-40.5 388.5,-61.5 457.5,-61.5 457.5,-40.5 388.5,-40.5"/>
<text text-anchor="middle" x="423" y="-48.5" font-family="FreeSans" font-size="10.00">get_flowptr</text>
</a>
</g>
<!-- Node3&#45;&gt;Node4 -->
<g id="edge6" class="edge"><title>Node3&#45;&gt;Node4</title>
<path fill="none" stroke="midnightblue" d="M361.924,-51C370.986,-51 379.982,-51 388.172,-51"/>
<polygon fill="midnightblue" stroke="midnightblue" points="361.704,-47.5001 351.704,-51 361.704,-54.5001 361.704,-47.5001"/>
</g>
</g>
</svg>
