<?xml version="1.0" encoding="UTF-8" standalone="no"?>
<!DOCTYPE svg PUBLIC "-//W3C//DTD SVG 1.1//EN"
 "http://www.w3.org/Graphics/SVG/1.1/DTD/svg11.dtd">
<!-- Generated by graphviz version 2.24.0 (20090616.2323)
 -->
<!-- Title: snode_cleanup Pages: 1 -->
<svg width="310pt" height="70pt"
 viewBox="0.00 0.00 310.00 70.00" xmlns="http://www.w3.org/2000/svg" xmlns:xlink="http://www.w3.org/1999/xlink">
<g id="graph1" class="graph" transform="scale(1 1) rotate(0) translate(4 66)">
<title>snode_cleanup</title>
<polygon fill="white" stroke="white" points="-4,5 -4,-66 307,-66 307,5 -4,5"/>
<!-- Node1 -->
<g id="node1" class="node"><title>Node1</title>
<polygon fill="#bfbfbf" stroke="black" points="0.5,-20.5 0.5,-41.5 89.5,-41.5 89.5,-20.5 0.5,-20.5"/>
<text text-anchor="middle" x="45" y="-28.5" font-family="FreeSans" font-size="10.00">snode_cleanup</text>
</g>
<!-- Node2 -->
<g id="node3" class="node"><title>Node2</title>
<a xlink:href="hfa-se-nctx-lock_8c.html#acd9e54f020b77f14d54c200b65423a15" target="_top" xlink:title="Application cleanup will be done by this routine.">
<polygon fill="white" stroke="black" points="149,-40.5 149,-61.5 203,-61.5 203,-40.5 149,-40.5"/>
<text text-anchor="middle" x="176" y="-48.5" font-family="FreeSans" font-size="10.00">cleanup</text>
</a>
</g>
<!-- Node1&#45;&gt;Node2 -->
<g id="edge2" class="edge"><title>Node1&#45;&gt;Node2</title>
<path fill="none" stroke="midnightblue" d="M100.01,-39.3984C116.803,-41.9624 134.542,-44.6705 148.653,-46.8248"/>
<polygon fill="midnightblue" stroke="midnightblue" points="100.13,-35.8763 89.7164,-37.8269 99.0736,-42.7961 100.13,-35.8763"/>
</g>
<!-- Node4 -->
<g id="node7" class="node"><title>Node4</title>
<a xlink:href="hfa-se-nctx-lock_8c.html#a2c813b2ff20c5bf67f487908476604d6" target="_top" xlink:title="Initialize search context object for nctxts and a global list to track nctxts.">
<polygon fill="white" stroke="black" points="126.5,-0.5 126.5,-21.5 225.5,-21.5 225.5,-0.5 126.5,-0.5"/>
<text text-anchor="middle" x="176" y="-8.5" font-family="FreeSans" font-size="10.00">initialize_ctx_glist</text>
</a>
</g>
<!-- Node1&#45;&gt;Node4 -->
<g id="edge6" class="edge"><title>Node1&#45;&gt;Node4</title>
<path fill="none" stroke="midnightblue" d="M99.7938,-22.6345C108.513,-21.3034 117.492,-19.9325 126.091,-18.6198"/>
<polygon fill="midnightblue" stroke="midnightblue" points="99.0736,-19.2038 89.7164,-24.1731 100.13,-26.1237 99.0736,-19.2038"/>
</g>
<!-- Node3 -->
<g id="node5" class="node"><title>Node3</title>
<a xlink:href="hfa-se-nctx-lock_8c.html#a3c04138a5bfe5d72780bb7e82a18e627" target="_top" xlink:title="main">
<polygon fill="white" stroke="black" points="262,-20.5 262,-41.5 302,-41.5 302,-20.5 262,-20.5"/>
<text text-anchor="middle" x="282" y="-28.5" font-family="FreeSans" font-size="10.00">main</text>
</a>
</g>
<!-- Node2&#45;&gt;Node3 -->
<g id="edge4" class="edge"><title>Node2&#45;&gt;Node3</title>
<path fill="none" stroke="midnightblue" d="M212.869,-44.0436C229.258,-40.9514 247.921,-37.43 261.722,-34.8261"/>
<polygon fill="midnightblue" stroke="midnightblue" points="212.2,-40.6079 203.023,-45.9014 213.498,-47.4866 212.2,-40.6079"/>
</g>
<!-- Node4&#45;&gt;Node3 -->
<g id="edge8" class="edge"><title>Node4&#45;&gt;Node3</title>
<path fill="none" stroke="midnightblue" d="M235.506,-22.2276C244.977,-24.0146 254.167,-25.7485 261.841,-27.1964"/>
<polygon fill="midnightblue" stroke="midnightblue" points="236.062,-18.7707 225.586,-20.3559 234.764,-25.6493 236.062,-18.7707"/>
</g>
</g>
</svg>
