<?xml version="1.0" encoding="UTF-8" standalone="no"?>
<!DOCTYPE svg PUBLIC "-//W3C//DTD SVG 1.1//EN"
 "http://www.w3.org/Graphics/SVG/1.1/DTD/svg11.dtd">
<!-- Generated by graphviz version 2.24.0 (20090616.2323)
 -->
<!-- Title: __submitflow Pages: 1 -->
<svg width="396pt" height="50pt"
 viewBox="0.00 0.00 396.00 50.00" xmlns="http://www.w3.org/2000/svg" xmlns:xlink="http://www.w3.org/1999/xlink">
<g id="graph1" class="graph" transform="scale(1 1) rotate(0) translate(4 46)">
<title>__submitflow</title>
<polygon fill="white" stroke="white" points="-4,5 -4,-46 393,-46 393,5 -4,5"/>
<!-- Node1 -->
<g id="node1" class="node"><title>Node1</title>
<polygon fill="#bfbfbf" stroke="black" points="0.5,-0.5 0.5,-21.5 79.5,-21.5 79.5,-0.5 0.5,-0.5"/>
<text text-anchor="middle" x="40" y="-8.5" font-family="FreeSans" font-size="10.00">__submitflow</text>
</g>
<!-- Node2 -->
<g id="node3" class="node"><title>Node2</title>
<a xlink:href="hfa-se-flow_8c.html#a786591694a8f8fb46cedbc8a580c88f6" target="_top" xlink:title="Submitting or Polling flows from the software recently used cache IF Cache is empty, it tries to refill it.">
<polygon fill="white" stroke="black" points="116.5,-20.5 116.5,-41.5 179.5,-41.5 179.5,-20.5 116.5,-20.5"/>
<text text-anchor="middle" x="148" y="-28.5" font-family="FreeSans" font-size="10.00">do_cache</text>
</a>
</g>
<!-- Node1&#45;&gt;Node2 -->
<g id="edge2" class="edge"><title>Node1&#45;&gt;Node2</title>
<path fill="none" stroke="midnightblue" d="M89.6558,-20.1955C98.6697,-21.8648 107.846,-23.5641 116.171,-25.1058"/>
<polygon fill="midnightblue" stroke="midnightblue" points="90.0721,-16.7132 79.602,-18.3337 88.7974,-23.5962 90.0721,-16.7132"/>
</g>
<!-- Node3 -->
<g id="node5" class="node"><title>Node3</title>
<a xlink:href="hfa-se-flow_8c.html#aba72a61590283e37ffd78b4defd38220" target="_top" xlink:title="Receive network packets and process.">
<polygon fill="white" stroke="black" points="216,-0.5 216,-21.5 312,-21.5 312,-0.5 216,-0.5"/>
<text text-anchor="middle" x="264" y="-8.5" font-family="FreeSans" font-size="10.00">process_packets</text>
</a>
</g>
<!-- Node1&#45;&gt;Node3 -->
<g id="edge8" class="edge"><title>Node1&#45;&gt;Node3</title>
<path fill="none" stroke="midnightblue" d="M89.7527,-11C127.365,-11 178.703,-11 215.904,-11"/>
<polygon fill="midnightblue" stroke="midnightblue" points="89.5311,-7.5001 79.5311,-11 89.531,-14.5001 89.5311,-7.5001"/>
</g>
<!-- Node2&#45;&gt;Node3 -->
<g id="edge4" class="edge"><title>Node2&#45;&gt;Node3</title>
<path fill="none" stroke="midnightblue" d="M189.711,-23.8084C198.17,-22.35 207.131,-20.805 215.792,-19.3117"/>
<polygon fill="midnightblue" stroke="midnightblue" points="188.957,-20.3867 179.698,-25.5349 190.147,-27.2849 188.957,-20.3867"/>
</g>
<!-- Node4 -->
<g id="node7" class="node"><title>Node4</title>
<a xlink:href="hfa-se-flow-wqe_8c.html#a3c04138a5bfe5d72780bb7e82a18e627" target="_top" xlink:title="Implementation.">
<polygon fill="white" stroke="black" points="348,-0.5 348,-21.5 388,-21.5 388,-0.5 348,-0.5"/>
<text text-anchor="middle" x="368" y="-8.5" font-family="FreeSans" font-size="10.00">main</text>
</a>
</g>
<!-- Node3&#45;&gt;Node4 -->
<g id="edge6" class="edge"><title>Node3&#45;&gt;Node4</title>
<path fill="none" stroke="midnightblue" d="M322.146,-11C331.414,-11 340.419,-11 347.958,-11"/>
<polygon fill="midnightblue" stroke="midnightblue" points="322.043,-7.5001 312.042,-11 322.042,-14.5001 322.043,-7.5001"/>
</g>
</g>
</svg>
