<?xml version="1.0" encoding="UTF-8" standalone="no"?>
<!DOCTYPE svg PUBLIC "-//W3C//DTD SVG 1.1//EN"
 "http://www.w3.org/Graphics/SVG/1.1/DTD/svg11.dtd">
<!-- Generated by graphviz version 2.24.0 (20090616.2323)
 -->
<!-- Title: cleanup Pages: 1 -->
<!--zoomable 593 -->
<svg id="main" version="1.1" xmlns="http://www.w3.org/2000/svg" xmlns:xlink="http://www.w3.org/1999/xlink" xml:space="preserve" onload="init(evt)">
        <defs>
                <circle id="rim" cx="0" cy="0" r="7"/>
                <circle id="rim2" cx="0" cy="0" r="3.5"/>
                <g id="zoomPlus">
                        <use xlink:href="#rim" fill="#404040">
                                <set attributeName="fill" to="#808080" begin="zoomplus.mouseover" end="zoomplus.mouseout"/>
                        </use>
                        <path d="M-4,0h8M0,-4v8" fill="none" stroke="white" stroke-width="1.5" pointer-events="none"/>
                </g>
                <g id="zoomMin">
                        <use xlink:href="#rim" fill="#404040">
                                <set attributeName="fill" to="#808080" begin="zoomminus.mouseover" end="zoomminus.mouseout"/>
                        </use>
                        <path d="M-4,0h8" fill="none" stroke="white" stroke-width="1.5" pointer-events="none"/>
                </g>
                <g id="dirArrow">
                        <path fill="none" stroke="white" stroke-width="1.5" d="M0,-3.0v7 M-2.5,-0.5L0,-3.0L2.5,-0.5"/>
                </g>
               <g id="resetDef">
                       <use xlink:href="#rim2" fill="#404040">
                               <set attributeName="fill" to="#808080" begin="reset.mouseover" end="reset.mouseout"/>
                       </use>
               </g>
        </defs>

<script type="text/javascript">
var viewWidth = 770;
var viewHeight = 593;
var sectionId = 'dynsection-0';
</script>
<script xlink:href="svgpan.js"/>
<svg id="graph" class="graph">
<g id="viewport">
<title>cleanup</title>
<polygon fill="white" stroke="white" points="-4,5 -4,-589 767,-589 767,5 -4,5"/>
<!-- Node1 -->
<g id="node1" class="node"><title>Node1</title>
<polygon fill="#bfbfbf" stroke="black" points="0,-287.5 0,-308.5 54,-308.5 54,-287.5 0,-287.5"/>
<text text-anchor="middle" x="27" y="-295.5" font-family="FreeSans" font-size="10.00">cleanup</text>
</g>
<!-- Node2 -->
<g id="node3" class="node"><title>Node2</title>
<a xlink:href="cvm-hfa-search_8c.html#a30064f173d814bd3791b59d675c2f45f" target="_top" xlink:title="This routine cleans&#45;up a Search Context.">
<polygon fill="white" stroke="black" points="90,-483.5 90,-504.5 242,-504.5 242,-483.5 90,-483.5"/>
<text text-anchor="middle" x="166" y="-491.5" font-family="FreeSans" font-size="10.00">hfa_dev_searchctx_cleanup</text>
</a>
</g>
<!-- Node1&#45;&gt;Node2 -->
<g id="edge2" class="edge"><title>Node1&#45;&gt;Node2</title>
<path fill="none" stroke="midnightblue" d="M34.4732,-308.538C56.9112,-340.177 123.913,-434.654 152.66,-475.189"/>
<polygon fill="midnightblue" stroke="midnightblue" points="149.85,-477.278 158.49,-483.41 155.56,-473.228 149.85,-477.278"/>
</g>
<!-- Node11 -->
<g id="node21" class="node"><title>Node11</title>
<a xlink:href="cvm-hfa-graph_8c.html#aa4ce7845277b4b3099159bbd7afd5c08" target="_top" xlink:title="This routine is used to cacheunload a cacheload&#39;ed graph in a non&#45;blocking manner.">
<polygon fill="white" stroke="black" points="100,-287.5 100,-308.5 232,-308.5 232,-287.5 100,-287.5"/>
<text text-anchor="middle" x="166" y="-295.5" font-family="FreeSans" font-size="10.00">hfa_graph_cacheunload</text>
</a>
</g>
<!-- Node1&#45;&gt;Node11 -->
<g id="edge20" class="edge"><title>Node1&#45;&gt;Node11</title>
<path fill="none" stroke="midnightblue" d="M54.1306,-298C64.4792,-298 76.8546,-298 89.5424,-298"/>
<polygon fill="midnightblue" stroke="midnightblue" points="89.752,-301.5 99.752,-298 89.752,-294.5 89.752,-301.5"/>
</g>
<!-- Node29 -->
<g id="node57" class="node"><title>Node29</title>
<a xlink:href="cvm-hfa-graph_8c.html#a5e79919f5903d97aee5e82bfc7e71597" target="_top" xlink:title="This routine is the counterpart of hfa_dev_graph_init().">
<polygon fill="white" stroke="black" points="100,-247.5 100,-268.5 232,-268.5 232,-247.5 100,-247.5"/>
<text text-anchor="middle" x="166" y="-255.5" font-family="FreeSans" font-size="10.00">hfa_dev_graph_cleanup</text>
</a>
</g>
<!-- Node1&#45;&gt;Node29 -->
<g id="edge56" class="edge"><title>Node1&#45;&gt;Node29</title>
<path fill="none" stroke="midnightblue" d="M54.1979,-289.038C65.2669,-285.476 78.2075,-281.421 90,-278 97.9183,-275.703 106.333,-273.376 114.569,-271.161"/>
<polygon fill="midnightblue" stroke="midnightblue" points="115.716,-274.477 124.48,-268.524 113.917,-267.713 115.716,-274.477"/>
</g>
<!-- Node30 -->
<g id="node59" class="node"><title>Node30</title>
<a xlink:href="cvm-hfa_8c.html#af14bebdd444bd0bf92faac9d5d88b492" target="_top" xlink:title="This function is called by application to cleanup all resources configured for HFA device and then sh...">
<polygon fill="white" stroke="black" points="116.5,-333.5 116.5,-354.5 215.5,-354.5 215.5,-333.5 116.5,-333.5"/>
<text text-anchor="middle" x="166" y="-341.5" font-family="FreeSans" font-size="10.00">hfa_dev_cleanup</text>
</a>
</g>
<!-- Node1&#45;&gt;Node30 -->
<g id="edge58" class="edge"><title>Node1&#45;&gt;Node30</title>
<path fill="none" stroke="midnightblue" d="M54.1306,-306.978C74.0891,-313.583 101.586,-322.683 124.324,-330.208"/>
<polygon fill="midnightblue" stroke="midnightblue" points="123.472,-333.613 134.066,-333.432 125.672,-326.967 123.472,-333.613"/>
</g>
<!-- Node33 -->
<g id="node66" class="node"><title>Node33</title>
<a xlink:href="app-utils_8c.html#a1f92c93fe820ec9fc9f4d8e993883b05" target="_top" xlink:title="This routine is counter part of hfautils_init_payload_attributes().">
<polygon fill="white" stroke="black" points="97,-195 97,-229 235,-229 235,-195 97,-195"/>
<text text-anchor="start" x="105" y="-216" font-family="FreeSans" font-size="10.00">hfautils_cleanup_payload</text>
<text text-anchor="middle" x="166" y="-203" font-family="FreeSans" font-size="10.00">_attributes</text>
</a>
</g>
<!-- Node1&#45;&gt;Node33 -->
<g id="edge66" class="edge"><title>Node1&#45;&gt;Node33</title>
<path fill="none" stroke="midnightblue" d="M35.7234,-287.212C46.9847,-273.928 67.7888,-251.475 90,-238 92.6565,-236.388 95.4263,-234.86 98.2696,-233.413"/>
<polygon fill="midnightblue" stroke="midnightblue" points="99.9798,-236.477 107.551,-229.066 97.0108,-230.138 99.9798,-236.477"/>
</g>
<!-- Node3 -->
<g id="node5" class="node"><title>Node3</title>
<a xlink:href="cvm-hfa-pp_8c.html#add6064138ec2e35741929056a0992d8d" target="_top" xlink:title="ppgetstats">
<polygon fill="white" stroke="black" points="311,-563.5 311,-584.5 377,-584.5 377,-563.5 311,-563.5"/>
<text text-anchor="middle" x="344" y="-571.5" font-family="FreeSans" font-size="10.00">ppgetstats</text>
</a>
</g>
<!-- Node2&#45;&gt;Node3 -->
<g id="edge4" class="edge"><title>Node2&#45;&gt;Node3</title>
<path fill="none" stroke="midnightblue" d="M183.318,-504.674C204.889,-517.636 243.155,-539.554 278,-554 285.388,-557.063 293.414,-559.889 301.242,-562.394"/>
<polygon fill="midnightblue" stroke="midnightblue" points="300.401,-565.797 310.988,-565.387 302.457,-559.105 300.401,-565.797"/>
</g>
<!-- Node5 -->
<g id="node9" class="node"><title>Node5</title>
<a xlink:href="cvm-hfa-pp_8c.html#a57ec655c9bdb6ce63ada6767c7e14763" target="_top" xlink:title="ppcleanstats">
<polygon fill="white" stroke="black" points="305.5,-523.5 305.5,-544.5 382.5,-544.5 382.5,-523.5 305.5,-523.5"/>
<text text-anchor="middle" x="344" y="-531.5" font-family="FreeSans" font-size="10.00">ppcleanstats</text>
</a>
</g>
<!-- Node2&#45;&gt;Node5 -->
<g id="edge8" class="edge"><title>Node2&#45;&gt;Node5</title>
<path fill="none" stroke="midnightblue" d="M212.767,-504.51C238.229,-510.231 269.694,-517.302 295.43,-523.085"/>
<polygon fill="midnightblue" stroke="midnightblue" points="294.825,-526.537 305.349,-525.314 296.36,-519.707 294.825,-526.537"/>
</g>
<!-- Node7 -->
<g id="node13" class="node"><title>Node7</title>
<a xlink:href="cvm-hfa-pp_8c.html#a41ce9d3103c639e474783d3843e09071" target="_top" xlink:title="ppcleanup">
<polygon fill="white" stroke="black" points="311,-483.5 311,-504.5 377,-504.5 377,-483.5 311,-483.5"/>
<text text-anchor="middle" x="344" y="-491.5" font-family="FreeSans" font-size="10.00">ppcleanup</text>
</a>
</g>
<!-- Node2&#45;&gt;Node7 -->
<g id="edge12" class="edge"><title>Node2&#45;&gt;Node7</title>
<path fill="none" stroke="midnightblue" d="M242.004,-494C261.88,-494 282.64,-494 300.202,-494"/>
<polygon fill="midnightblue" stroke="midnightblue" points="300.688,-497.5 310.688,-494 300.688,-490.5 300.688,-497.5"/>
</g>
<!-- Node9 -->
<g id="node17" class="node"><title>Node9</title>
<a xlink:href="cvm-hfa-stats_8c.html#a2df4c76e04e7b028ed2df4bba1b2de3d" target="_top" xlink:title="This routine is the counterpart of hfa_searchctx_init_stats().">
<polygon fill="white" stroke="black" points="287.5,-431 287.5,-465 400.5,-465 400.5,-431 287.5,-431"/>
<text text-anchor="start" x="295.5" y="-452" font-family="FreeSans" font-size="10.00">hfa_searchctx_stats</text>
<text text-anchor="middle" x="344" y="-439" font-family="FreeSans" font-size="10.00">_cleanup</text>
</a>
</g>
<!-- Node2&#45;&gt;Node9 -->
<g id="edge16" class="edge"><title>Node2&#45;&gt;Node9</title>
<path fill="none" stroke="midnightblue" d="M206.837,-483.447C227.673,-478.062 253.548,-471.375 277.192,-465.265"/>
<polygon fill="midnightblue" stroke="midnightblue" points="278.361,-468.578 287.167,-462.687 276.61,-461.801 278.361,-468.578"/>
</g>
<!-- Node4 -->
<g id="node7" class="node"><title>Node4</title>
<a xlink:href="pp_8h.html#a808d5057ee5670ce724a6a88fc22b799" target="_top" xlink:title="pphfa_getstats">
<polygon fill="white" stroke="black" points="476.5,-563.5 476.5,-584.5 563.5,-584.5 563.5,-563.5 476.5,-563.5"/>
<text text-anchor="middle" x="520" y="-571.5" font-family="FreeSans" font-size="10.00">pphfa_getstats</text>
</a>
</g>
<!-- Node3&#45;&gt;Node4 -->
<g id="edge6" class="edge"><title>Node3&#45;&gt;Node4</title>
<path fill="none" stroke="midnightblue" d="M377.104,-574C402.223,-574 437.277,-574 466.38,-574"/>
<polygon fill="midnightblue" stroke="midnightblue" points="466.399,-577.5 476.399,-574 466.399,-570.5 466.399,-577.5"/>
</g>
<!-- Node6 -->
<g id="node11" class="node"><title>Node6</title>
<a xlink:href="pp_8h.html#a978b171bd7a736cb7fa0d5d034aa94e2" target="_top" xlink:title="pphfa_cleanstats">
<polygon fill="white" stroke="black" points="471,-523.5 471,-544.5 569,-544.5 569,-523.5 471,-523.5"/>
<text text-anchor="middle" x="520" y="-531.5" font-family="FreeSans" font-size="10.00">pphfa_cleanstats</text>
</a>
</g>
<!-- Node5&#45;&gt;Node6 -->
<g id="edge10" class="edge"><title>Node5&#45;&gt;Node6</title>
<path fill="none" stroke="midnightblue" d="M382.624,-534C405.493,-534 434.939,-534 460.7,-534"/>
<polygon fill="midnightblue" stroke="midnightblue" points="460.74,-537.5 470.74,-534 460.74,-530.5 460.74,-537.5"/>
</g>
<!-- Node8 -->
<g id="node15" class="node"><title>Node8</title>
<a xlink:href="pp_8h.html#a428ad073d1fd72da37ab8b00f13693a3" target="_top" xlink:title="pphfa_cleanup">
<polygon fill="white" stroke="black" points="476.5,-483.5 476.5,-504.5 563.5,-504.5 563.5,-483.5 476.5,-483.5"/>
<text text-anchor="middle" x="520" y="-491.5" font-family="FreeSans" font-size="10.00">pphfa_cleanup</text>
</a>
</g>
<!-- Node7&#45;&gt;Node8 -->
<g id="edge14" class="edge"><title>Node7&#45;&gt;Node8</title>
<path fill="none" stroke="midnightblue" d="M377.104,-494C402.223,-494 437.277,-494 466.38,-494"/>
<polygon fill="midnightblue" stroke="midnightblue" points="466.399,-497.5 476.399,-494 466.399,-490.5 466.399,-497.5"/>
</g>
<!-- Node10 -->
<g id="node19" class="node"><title>Node10</title>
<a xlink:href="cvm-hfa-stats_8c.html#a7a2acbe48c3850d43256938ee996aa16" target="_top" xlink:title="This routine frees memory to STATS ARENA.">
<polygon fill="white" stroke="black" points="457.5,-440.5 457.5,-461.5 582.5,-461.5 582.5,-440.5 457.5,-440.5"/>
<text text-anchor="middle" x="520" y="-448.5" font-family="FreeSans" font-size="10.00">hfa_stats_memoryfree</text>
</a>
</g>
<!-- Node9&#45;&gt;Node10 -->
<g id="edge18" class="edge"><title>Node9&#45;&gt;Node10</title>
<path fill="none" stroke="midnightblue" d="M400.656,-448.966C415.494,-449.219 431.7,-449.495 447.25,-449.76"/>
<polygon fill="midnightblue" stroke="midnightblue" points="447.294,-453.261 457.353,-449.932 447.414,-446.262 447.294,-453.261"/>
</g>
<!-- Node12 -->
<g id="node23" class="node"><title>Node12</title>
<a xlink:href="cvm-hfa-graph_8c.html#afb63ce4f42afc7987e6222b1c1ea91a1" target="_top" xlink:title="This routine is used to cacheunload a cacheload&#39;ed graph in a non&#45;blocking manner.">
<polygon fill="white" stroke="black" points="278,-274 278,-308 410,-308 410,-274 278,-274"/>
<text text-anchor="start" x="286" y="-295" font-family="FreeSans" font-size="10.00">hfa_graph_cacheunload</text>
<text text-anchor="middle" x="344" y="-282" font-family="FreeSans" font-size="10.00">_async</text>
</a>
</g>
<!-- Node11&#45;&gt;Node12 -->
<g id="edge22" class="edge"><title>Node11&#45;&gt;Node12</title>
<path fill="none" stroke="midnightblue" d="M232.028,-295.403C243.583,-294.949 255.692,-294.473 267.502,-294.008"/>
<polygon fill="midnightblue" stroke="midnightblue" points="267.927,-297.494 277.782,-293.604 267.652,-290.5 267.927,-297.494"/>
</g>
<!-- Node22 -->
<g id="node43" class="node"><title>Node22</title>
<a xlink:href="cvm-hfa-graph_8c.html#a0f2f13fb51e5d56dcf049ff3c7c6ad78" target="_top" xlink:title="This routine is used to check the status of the graph.">
<polygon fill="white" stroke="black" points="287,-60.5 287,-81.5 401,-81.5 401,-60.5 287,-60.5"/>
<text text-anchor="middle" x="344" y="-68.5" font-family="FreeSans" font-size="10.00">hfa_graph_getstatus</text>
</a>
</g>
<!-- Node11&#45;&gt;Node22 -->
<g id="edge42" class="edge"><title>Node11&#45;&gt;Node22</title>
<path fill="none" stroke="midnightblue" d="M226.473,-287.385C232.056,-284.882 237.352,-281.799 242,-278 302.942,-228.198 330.417,-132.937 339.902,-91.31"/>
<polygon fill="midnightblue" stroke="midnightblue" points="343.33,-92.0203 342.025,-81.5061 336.488,-90.5388 343.33,-92.0203"/>
</g>
<!-- Node13 -->
<g id="node25" class="node"><title>Node13</title>
<a xlink:href="cvm-hfa-instr_8h.html#acaf8def6cbffb04c100bf7f7684f242e" target="_top" xlink:title="Initialize the HFA instruction.">
<polygon fill="white" stroke="black" points="468.5,-400.5 468.5,-421.5 571.5,-421.5 571.5,-400.5 468.5,-400.5"/>
<text text-anchor="middle" x="520" y="-408.5" font-family="FreeSans" font-size="10.00">cvm_hfa_instr_init</text>
</a>
</g>
<!-- Node12&#45;&gt;Node13 -->
<g id="edge24" class="edge"><title>Node12&#45;&gt;Node13</title>
<path fill="none" stroke="midnightblue" d="M387.706,-308.054C395.717,-312.455 403.566,-317.753 410,-324 434.252,-347.549 419.522,-369.986 446,-391 450.002,-394.176 454.468,-396.849 459.168,-399.099"/>
<polygon fill="midnightblue" stroke="midnightblue" points="457.858,-402.345 468.437,-402.925 460.529,-395.874 457.858,-402.345"/>
</g>
<!-- Node14 -->
<g id="node27" class="node"><title>Node14</title>
<a xlink:href="cvm-hfa-instr_8h.html#a2d6082e2e599fe8523162b18d0a06f6c" target="_top" xlink:title="Sets rptr in the instruction.">
<polygon fill="white" stroke="black" points="460,-360.5 460,-381.5 580,-381.5 580,-360.5 460,-360.5"/>
<text text-anchor="middle" x="520" y="-368.5" font-family="FreeSans" font-size="10.00">cvm_hfa_instr_setrptr</text>
</a>
</g>
<!-- Node12&#45;&gt;Node14 -->
<g id="edge26" class="edge"><title>Node12&#45;&gt;Node14</title>
<path fill="none" stroke="midnightblue" d="M380.949,-308.011C390.593,-312.845 400.846,-318.343 410,-324 427.013,-334.515 428.024,-342.234 446,-351 450.665,-353.275 455.626,-355.321 460.685,-357.155"/>
<polygon fill="midnightblue" stroke="midnightblue" points="459.887,-360.579 470.481,-360.425 462.104,-353.939 459.887,-360.579"/>
</g>
<!-- Node15 -->
<g id="node29" class="node"><title>Node15</title>
<a xlink:href="cvm-hfa-instr_8h.html#a6960a0761295ada9f449ea5e8c41ec80" target="_top" xlink:title="Sets clmsk in the instruction.">
<polygon fill="white" stroke="black" points="454,-320.5 454,-341.5 586,-341.5 586,-320.5 454,-320.5"/>
<text text-anchor="middle" x="520" y="-328.5" font-family="FreeSans" font-size="10.00">cvm_hfa_instr_setclmsk</text>
</a>
</g>
<!-- Node12&#45;&gt;Node15 -->
<g id="edge28" class="edge"><title>Node12&#45;&gt;Node15</title>
<path fill="none" stroke="midnightblue" d="M410.037,-306.008C427.73,-310.03 446.69,-314.339 463.797,-318.226"/>
<polygon fill="midnightblue" stroke="midnightblue" points="463.104,-321.658 473.631,-320.462 464.656,-314.832 463.104,-321.658"/>
</g>
<!-- Node16 -->
<g id="node31" class="node"><title>Node16</title>
<a xlink:href="cvm-hfa-instr_8h.html#add4e981377a02cd06e2bca116e584bca" target="_top" xlink:title="Sets vgid in the instruction.">
<polygon fill="white" stroke="black" points="458,-280.5 458,-301.5 582,-301.5 582,-280.5 458,-280.5"/>
<text text-anchor="middle" x="520" y="-288.5" font-family="FreeSans" font-size="10.00">cvm_hfa_instr_setvgid</text>
</a>
</g>
<!-- Node12&#45;&gt;Node16 -->
<g id="edge30" class="edge"><title>Node12&#45;&gt;Node16</title>
<path fill="none" stroke="midnightblue" d="M410.037,-291C422.305,-291 435.183,-291 447.629,-291"/>
<polygon fill="midnightblue" stroke="midnightblue" points="447.96,-294.5 457.96,-291 447.96,-287.5 447.96,-294.5"/>
</g>
<!-- Node17 -->
<g id="node33" class="node"><title>Node17</title>
<a xlink:href="cvm-hfa-common_8h.html#a0da7c57174fb96d75ae9cc2ed3116a05" target="_top" xlink:title="Dump buffer pointed by &quot;buf&quot; in readable format.">
<polygon fill="white" stroke="black" points="477,-240.5 477,-261.5 563,-261.5 563,-240.5 477,-240.5"/>
<text text-anchor="middle" x="520" y="-248.5" font-family="FreeSans" font-size="10.00">hfa_dump_buf</text>
</a>
</g>
<!-- Node12&#45;&gt;Node17 -->
<g id="edge32" class="edge"><title>Node12&#45;&gt;Node17</title>
<path fill="none" stroke="midnightblue" d="M410.037,-275.992C428.796,-271.728 448.978,-267.141 466.867,-263.076"/>
<polygon fill="midnightblue" stroke="midnightblue" points="467.849,-266.442 476.825,-260.813 466.298,-259.616 467.849,-266.442"/>
</g>
<!-- Node18 -->
<g id="node35" class="node"><title>Node18</title>
<a xlink:href="cvm-hfa-instr_8h.html#a88a92a987acac81360f3b880d013cd10" target="_top" xlink:title="Sets wqptr instruction.">
<polygon fill="white" stroke="black" points="454.5,-200.5 454.5,-221.5 585.5,-221.5 585.5,-200.5 454.5,-200.5"/>
<text text-anchor="middle" x="520" y="-208.5" font-family="FreeSans" font-size="10.00">cvm_hfa_instr_setwqptr</text>
</a>
</g>
<!-- Node12&#45;&gt;Node18 -->
<g id="edge34" class="edge"><title>Node12&#45;&gt;Node18</title>
<path fill="none" stroke="midnightblue" d="M368.585,-273.994C388.658,-260.748 418.158,-242.701 446,-231 451.716,-228.598 457.803,-226.407 463.937,-224.431"/>
<polygon fill="midnightblue" stroke="midnightblue" points="465.017,-227.761 473.566,-221.503 462.98,-221.064 465.017,-227.761"/>
</g>
<!-- Node19 -->
<g id="node37" class="node"><title>Node19</title>
<a xlink:href="cvm-hfa-graph_8c.html#a1320f0566be0069bd604cc820a12a114" target="_top" xlink:title="This routine sets WQE field in graph data structure.">
<polygon fill="white" stroke="black" points="467.5,-160.5 467.5,-181.5 572.5,-181.5 572.5,-160.5 467.5,-160.5"/>
<text text-anchor="middle" x="520" y="-168.5" font-family="FreeSans" font-size="10.00">hfa_graph_setwqe</text>
</a>
</g>
<!-- Node12&#45;&gt;Node19 -->
<g id="edge36" class="edge"><title>Node12&#45;&gt;Node19</title>
<path fill="none" stroke="midnightblue" d="M356.859,-273.775C374.499,-251.369 408.332,-212.554 446,-191 449.873,-188.784 454.001,-186.805 458.251,-185.039"/>
<polygon fill="midnightblue" stroke="midnightblue" points="459.557,-188.288 467.697,-181.506 457.105,-181.731 459.557,-188.288"/>
</g>
<!-- Node20 -->
<g id="node39" class="node"><title>Node20</title>
<a xlink:href="cvm-hfa_8c.html#a4677d07b901d6aeb02e793c1dbdfabbf" target="_top" xlink:title="Asynchronous instruction submit to HFA hardware Do not wait for instruction to complete.">
<polygon fill="white" stroke="black" points="459,-120.5 459,-141.5 581,-141.5 581,-120.5 459,-120.5"/>
<text text-anchor="middle" x="520" y="-128.5" font-family="FreeSans" font-size="10.00">hfa_dev_submitasync</text>
</a>
</g>
<!-- Node12&#45;&gt;Node20 -->
<g id="edge38" class="edge"><title>Node12&#45;&gt;Node20</title>
<path fill="none" stroke="midnightblue" d="M351.68,-273.87C365.893,-244.169 399.173,-183.212 446,-151 448.883,-149.017 451.955,-147.23 455.146,-145.62"/>
<polygon fill="midnightblue" stroke="midnightblue" points="456.663,-148.776 464.398,-141.535 453.836,-142.372 456.663,-148.776"/>
</g>
<!-- Node21 -->
<g id="node41" class="node"><title>Node21</title>
<a xlink:href="cvmx-hfa_8c.html#a96a123c8918e83cdf914f6de1bfb4f00" target="_top" xlink:title="Submit a command to the DFA block.">
<polygon fill="white" stroke="black" points="645,-120.5 645,-141.5 747,-141.5 747,-120.5 645,-120.5"/>
<text text-anchor="middle" x="696" y="-128.5" font-family="FreeSans" font-size="10.00">cvmx_hfa_submit</text>
</a>
</g>
<!-- Node20&#45;&gt;Node21 -->
<g id="edge40" class="edge"><title>Node20&#45;&gt;Node21</title>
<path fill="none" stroke="midnightblue" d="M581.062,-131C598.491,-131 617.48,-131 634.911,-131"/>
<polygon fill="midnightblue" stroke="midnightblue" points="634.97,-134.5 644.97,-131 634.97,-127.5 634.97,-134.5"/>
</g>
<!-- Node23 -->
<g id="node45" class="node"><title>Node23</title>
<a xlink:href="cvm-hfa_8c.html#a4753d2dd586e19676b1a59dd16baaeed" target="_top" xlink:title="Obtain status of submitted insruction.">
<polygon fill="white" stroke="black" points="453.5,-80.5 453.5,-101.5 586.5,-101.5 586.5,-80.5 453.5,-80.5"/>
<text text-anchor="middle" x="520" y="-88.5" font-family="FreeSans" font-size="10.00">hfa_dev_getasyncstatus</text>
</a>
</g>
<!-- Node22&#45;&gt;Node23 -->
<g id="edge44" class="edge"><title>Node22&#45;&gt;Node23</title>
<path fill="none" stroke="midnightblue" d="M401.142,-77.4934C414.55,-79.017 429.052,-80.665 443.164,-82.2687"/>
<polygon fill="midnightblue" stroke="midnightblue" points="443.019,-85.7746 453.35,-83.4262 443.809,-78.8194 443.019,-85.7746"/>
</g>
<!-- Node26 -->
<g id="node51" class="node"><title>Node26</title>
<a xlink:href="cvm-hfa-instr_8h.html#aa7b5661907cf23e01fe784a70980ed4b" target="_top" xlink:title="Gets itype from RWORD0.">
<polygon fill="white" stroke="black" points="459,-40.5 459,-61.5 581,-61.5 581,-40.5 459,-40.5"/>
<text text-anchor="middle" x="520" y="-48.5" font-family="FreeSans" font-size="10.00">cvm_hfa_rslt_getitype</text>
</a>
</g>
<!-- Node22&#45;&gt;Node26 -->
<g id="edge50" class="edge"><title>Node22&#45;&gt;Node26</title>
<path fill="none" stroke="midnightblue" d="M401.142,-64.5066C416.292,-62.785 432.839,-60.9046 448.643,-59.1087"/>
<polygon fill="midnightblue" stroke="midnightblue" points="449.358,-62.5501 458.899,-57.9433 448.568,-55.5948 449.358,-62.5501"/>
</g>
<!-- Node27 -->
<g id="node53" class="node"><title>Node27</title>
<a xlink:href="cvm-hfa-graph_8c.html#aa4c0667cc4f92a08c249041eb8a4ec58" target="_top" xlink:title="This routine is used to free the buffers and change the graph load status after instruction completio...">
<polygon fill="white" stroke="black" points="446.5,-0.5 446.5,-21.5 593.5,-21.5 593.5,-0.5 446.5,-0.5"/>
<text text-anchor="middle" x="520" y="-8.5" font-family="FreeSans" font-size="10.00">__hfa_graph_processstatus</text>
</a>
</g>
<!-- Node22&#45;&gt;Node27 -->
<g id="edge52" class="edge"><title>Node22&#45;&gt;Node27</title>
<path fill="none" stroke="midnightblue" d="M368.871,-60.3612C389.353,-51.815 419.267,-39.8247 446,-31 453.117,-28.6505 460.685,-26.3667 468.16,-24.2336"/>
<polygon fill="midnightblue" stroke="midnightblue" points="469.194,-27.5789 477.887,-21.5231 467.315,-20.8357 469.194,-27.5789"/>
</g>
<!-- Node24 -->
<g id="node47" class="node"><title>Node24</title>
<a xlink:href="cvm-hfa-instr_8h.html#a56f2522dcba965745a1bc239fc432dca" target="_top" xlink:title="Gets done from RWORD0.">
<polygon fill="white" stroke="black" points="634.5,-80.5 634.5,-101.5 757.5,-101.5 757.5,-80.5 634.5,-80.5"/>
<text text-anchor="middle" x="696" y="-88.5" font-family="FreeSans" font-size="10.00">cvm_hfa_rslt_getdone</text>
</a>
</g>
<!-- Node23&#45;&gt;Node24 -->
<g id="edge46" class="edge"><title>Node23&#45;&gt;Node24</title>
<path fill="none" stroke="midnightblue" d="M586.538,-91C598.782,-91 611.616,-91 624.012,-91"/>
<polygon fill="midnightblue" stroke="midnightblue" points="624.299,-94.5001 634.299,-91 624.299,-87.5001 624.299,-94.5001"/>
</g>
<!-- Node25 -->
<g id="node49" class="node"><title>Node25</title>
<a xlink:href="cvm-hfa-instr_8h.html#a9700a50b68b6616506528eb725a8bda1" target="_top" xlink:title="Gets reason from RWORD0.">
<polygon fill="white" stroke="black" points="630.5,-40.5 630.5,-61.5 761.5,-61.5 761.5,-40.5 630.5,-40.5"/>
<text text-anchor="middle" x="696" y="-48.5" font-family="FreeSans" font-size="10.00">cvm_hfa_rslt_getreason</text>
</a>
</g>
<!-- Node23&#45;&gt;Node25 -->
<g id="edge48" class="edge"><title>Node23&#45;&gt;Node25</title>
<path fill="none" stroke="midnightblue" d="M566.242,-80.4905C588.788,-75.3663 616.096,-69.1601 639.832,-63.7655"/>
<polygon fill="midnightblue" stroke="midnightblue" points="640.786,-67.138 649.762,-61.5087 639.235,-60.312 640.786,-67.138"/>
</g>
<!-- Node28 -->
<g id="node55" class="node"><title>Node28</title>
<a xlink:href="cvm-hfa-cluster_8c.html#ad8cad96579f5a310b62caaf8c166658f" target="_top" xlink:title="Returns a copy of a cluster of the HFA device.">
<polygon fill="white" stroke="black" points="651,-0.5 651,-21.5 741,-21.5 741,-0.5 651,-0.5"/>
<text text-anchor="middle" x="696" y="-8.5" font-family="FreeSans" font-size="10.00">hfa_get_cluster</text>
</a>
</g>
<!-- Node27&#45;&gt;Node28 -->
<g id="edge54" class="edge"><title>Node27&#45;&gt;Node28</title>
<path fill="none" stroke="midnightblue" d="M593.62,-11C609.386,-11 625.785,-11 640.719,-11"/>
<polygon fill="midnightblue" stroke="midnightblue" points="640.797,-14.5001 650.797,-11 640.797,-7.5001 640.797,-14.5001"/>
</g>
<!-- Node31 -->
<g id="node61" class="node"><title>Node31</title>
<a xlink:href="cvm-hfa-stats_8c.html#ad6d5ab096d9d84d2b2f52bd551443592" target="_top" xlink:title="This routine is the counterpart of hfa_dev_init_stats().">
<polygon fill="white" stroke="black" points="281,-385.5 281,-406.5 407,-406.5 407,-385.5 281,-385.5"/>
<text text-anchor="middle" x="344" y="-393.5" font-family="FreeSans" font-size="10.00">hfa_dev_stats_cleanup</text>
</a>
</g>
<!-- Node30&#45;&gt;Node31 -->
<g id="edge60" class="edge"><title>Node30&#45;&gt;Node31</title>
<path fill="none" stroke="midnightblue" d="M202.021,-354.523C229.767,-362.628 268.313,-373.889 298.241,-382.632"/>
<polygon fill="midnightblue" stroke="midnightblue" points="297.452,-386.048 308.033,-385.493 299.415,-379.329 297.452,-386.048"/>
</g>
<!-- Node32 -->
<g id="node64" class="node"><title>Node32</title>
<a xlink:href="cvm-hfa-stats_8c.html#a75504ae5d9797d314ee11704fc86cdb1" target="_top" xlink:title="This routine prints statistics of each core.">
<polygon fill="white" stroke="black" points="289.5,-333.5 289.5,-354.5 398.5,-354.5 398.5,-333.5 289.5,-333.5"/>
<text text-anchor="middle" x="344" y="-341.5" font-family="FreeSans" font-size="10.00">hfa_dev_stats_print</text>
</a>
</g>
<!-- Node30&#45;&gt;Node32 -->
<g id="edge64" class="edge"><title>Node30&#45;&gt;Node32</title>
<path fill="none" stroke="midnightblue" d="M215.583,-344C235.297,-344 258.244,-344 279.242,-344"/>
<polygon fill="midnightblue" stroke="midnightblue" points="279.371,-347.5 289.371,-344 279.371,-340.5 279.371,-347.5"/>
</g>
<!-- Node31&#45;&gt;Node10 -->
<g id="edge62" class="edge"><title>Node31&#45;&gt;Node10</title>
<path fill="none" stroke="midnightblue" d="M373.29,-406.63C393.587,-413.853 421.297,-423.433 446,-431 453.515,-433.302 461.502,-435.607 469.342,-437.79"/>
<polygon fill="midnightblue" stroke="midnightblue" points="468.579,-441.21 479.148,-440.481 470.431,-434.459 468.579,-441.21"/>
</g>
</g>
</svg>
        <g id="navigator" transform="translate(0 0)" fill="#404254">
                <rect fill="#f2f5e9" fill-opacity="0.5" stroke="#606060" stroke-width=".5" x="0" y="0" width="60" height="60"/>
                <use id="zoomplus" xlink:href="#zoomPlus" x="17" y="9" onmousedown="handleZoom(evt,'in')"/>
                <use id="zoomminus" xlink:href="#zoomMin" x="42" y="9" onmousedown="handleZoom(evt,'out')"/>
                <use id="reset" xlink:href="#resetDef" x="30" y="36" onmousedown="handleReset()"/>
                <g id="arrowUp" xlink:href="#dirArrow" transform="translate(30 24)" onmousedown="handlePan(0,-1)">
                  <use xlink:href="#rim" fill="#404040">
                        <set attributeName="fill" to="#808080" begin="arrowUp.mouseover" end="arrowUp.mouseout"/>
                  </use>
                  <path fill="none" stroke="white" stroke-width="1.5" d="M0,-3.0v7 M-2.5,-0.5L0,-3.0L2.5,-0.5"/>
                </g>
                <g id="arrowRight" xlink:href="#dirArrow" transform="rotate(90) translate(36 -43)" onmousedown="handlePan(1,0)">
                  <use xlink:href="#rim" fill="#404040">
                        <set attributeName="fill" to="#808080" begin="arrowRight.mouseover" end="arrowRight.mouseout"/>
                  </use>
                  <path fill="none" stroke="white" stroke-width="1.5" d="M0,-3.0v7 M-2.5,-0.5L0,-3.0L2.5,-0.5"/>
                </g>
                <g id="arrowDown" xlink:href="#dirArrow" transform="rotate(180) translate(-30 -48)" onmousedown="handlePan(0,1)">
                  <use xlink:href="#rim" fill="#404040">
                        <set attributeName="fill" to="#808080" begin="arrowDown.mouseover" end="arrowDown.mouseout"/>
                  </use>
                  <path fill="none" stroke="white" stroke-width="1.5" d="M0,-3.0v7 M-2.5,-0.5L0,-3.0L2.5,-0.5"/>
                </g>
                <g id="arrowLeft" xlink:href="#dirArrow" transform="rotate(270) translate(-36 17)" onmousedown="handlePan(-1,0)">
                  <use xlink:href="#rim" fill="#404040">
                        <set attributeName="fill" to="#808080" begin="arrowLeft.mouseover" end="arrowLeft.mouseout"/>
                  </use>
                  <path fill="none" stroke="white" stroke-width="1.5" d="M0,-3.0v7 M-2.5,-0.5L0,-3.0L2.5,-0.5"/>
                </g>
        </g>
        <svg viewBox="0 0 15 15" width="100%" height="30px" preserveAspectRatio="xMaxYMin meet">
         <g id="arrow_out" transform="scale(0.3 0.3)">
          <a xlink:href="hfa-lnx-linkgraph_8c_acd9e54f020b77f14d54c200b65423a15_cgraph_org.svg" target="_base">
           <rect id="button" ry="5" rx="5" y="6" x="6" height="38" width="38"
                fill="#f2f5e9" fill-opacity="0.5" stroke="#606060" stroke-width="1.0"/>
           <path id="arrow"
             d="M 11.500037,31.436501 C 11.940474,20.09759 22.043105,11.32322 32.158766,21.979434 L 37.068811,17.246167 C 37.068811,17.246167 37.088388,32 37.088388,32 L 22.160133,31.978069 C 22.160133,31.978069 26.997745,27.140456 26.997745,27.140456 C 18.528582,18.264221 13.291696,25.230495 11.500037,31.436501 z"
             style="fill:#404040;"/>
          </a>
         </g>
        </svg>
</svg>
