<?xml version="1.0" encoding="UTF-8" standalone="no"?>
<!DOCTYPE svg PUBLIC "-//W3C//DTD SVG 1.1//EN"
 "http://www.w3.org/Graphics/SVG/1.1/DTD/svg11.dtd">
<!-- Generated by graphviz version 2.24.0 (20090616.2323)
 -->
<!-- Title: exit Pages: 1 -->
<!--zoomable 640 -->
<svg id="main" version="1.1" xmlns="http://www.w3.org/2000/svg" xmlns:xlink="http://www.w3.org/1999/xlink" xml:space="preserve" onload="init(evt)">
        <defs>
                <circle id="rim" cx="0" cy="0" r="7"/>
                <circle id="rim2" cx="0" cy="0" r="3.5"/>
                <g id="zoomPlus">
                        <use xlink:href="#rim" fill="#404040">
                                <set attributeName="fill" to="#808080" begin="zoomplus.mouseover" end="zoomplus.mouseout"/>
                        </use>
                        <path d="M-4,0h8M0,-4v8" fill="none" stroke="white" stroke-width="1.5" pointer-events="none"/>
                </g>
                <g id="zoomMin">
                        <use xlink:href="#rim" fill="#404040">
                                <set attributeName="fill" to="#808080" begin="zoomminus.mouseover" end="zoomminus.mouseout"/>
                        </use>
                        <path d="M-4,0h8" fill="none" stroke="white" stroke-width="1.5" pointer-events="none"/>
                </g>
                <g id="dirArrow">
                        <path fill="none" stroke="white" stroke-width="1.5" d="M0,-3.0v7 M-2.5,-0.5L0,-3.0L2.5,-0.5"/>
                </g>
               <g id="resetDef">
                       <use xlink:href="#rim2" fill="#404040">
                               <set attributeName="fill" to="#808080" begin="reset.mouseover" end="reset.mouseout"/>
                       </use>
               </g>
        </defs>

<script type="text/javascript">
var viewWidth = 840;
var viewHeight = 640;
var sectionId = 'dynsection-3';
</script>
<script xlink:href="svgpan.js"/>
<svg id="graph" class="graph">
<g id="viewport">
<title>exit</title>
<polygon fill="white" stroke="white" points="-4,5 -4,-636 837,-636 837,5 -4,5"/>
<!-- Node1 -->
<g id="node1" class="node"><title>Node1</title>
<polygon fill="#bfbfbf" stroke="black" points="0.5,-331.5 0.5,-352.5 33.5,-352.5 33.5,-331.5 0.5,-331.5"/>
<text text-anchor="middle" x="17" y="-339.5" font-family="FreeSans" font-size="10.00">exit</text>
</g>
<!-- Node2 -->
<g id="node3" class="node"><title>Node2</title>
<a xlink:href="hfa-lnx-nctx-lock_8c.html#acd9e54f020b77f14d54c200b65423a15" target="_top" xlink:title="Application cleanup will be done by this routine.">
<polygon fill="white" stroke="black" points="70,-331.5 70,-352.5 124,-352.5 124,-331.5 70,-331.5"/>
<text text-anchor="middle" x="97" y="-339.5" font-family="FreeSans" font-size="10.00">cleanup</text>
</a>
</g>
<!-- Node1&#45;&gt;Node2 -->
<g id="edge2" class="edge"><title>Node1&#45;&gt;Node2</title>
<path fill="none" stroke="midnightblue" d="M33.5761,-342C41.1576,-342 50.4725,-342 59.6056,-342"/>
<polygon fill="midnightblue" stroke="midnightblue" points="59.7377,-345.5 69.7377,-342 59.7377,-338.5 59.7377,-345.5"/>
</g>
<!-- Node3 -->
<g id="node5" class="node"><title>Node3</title>
<a xlink:href="hfa-lnx-nctx-lock_8c.html#a524accbd3a8024ee7cc3254698dbd8e3" target="_top" xlink:title="Parse through global linked list and cleanup each search node.">
<polygon fill="white" stroke="black" points="181.5,-466.5 181.5,-487.5 270.5,-487.5 270.5,-466.5 181.5,-466.5"/>
<text text-anchor="middle" x="226" y="-474.5" font-family="FreeSans" font-size="10.00">snode_cleanup</text>
</a>
</g>
<!-- Node2&#45;&gt;Node3 -->
<g id="edge4" class="edge"><title>Node2&#45;&gt;Node3</title>
<path fill="none" stroke="midnightblue" d="M107.122,-352.593C129.165,-375.661 181.708,-430.648 208.956,-459.164"/>
<polygon fill="midnightblue" stroke="midnightblue" points="206.486,-461.644 215.925,-466.456 211.546,-456.808 206.486,-461.644"/>
</g>
<!-- Node13 -->
<g id="node25" class="node"><title>Node13</title>
<a xlink:href="cvm-hfa-graph_8c.html#aa4ce7845277b4b3099159bbd7afd5c08" target="_top" xlink:title="This routine is used to cacheunload a cacheload&#39;ed graph in a non&#45;blocking manner.">
<polygon fill="white" stroke="black" points="160,-301.5 160,-322.5 292,-322.5 292,-301.5 160,-301.5"/>
<text text-anchor="middle" x="226" y="-309.5" font-family="FreeSans" font-size="10.00">hfa_graph_cacheunload</text>
</a>
</g>
<!-- Node2&#45;&gt;Node13 -->
<g id="edge24" class="edge"><title>Node2&#45;&gt;Node13</title>
<path fill="none" stroke="midnightblue" d="M124.043,-335.711C137.625,-332.552 154.599,-328.605 170.778,-324.842"/>
<polygon fill="midnightblue" stroke="midnightblue" points="171.763,-328.207 180.711,-322.532 170.178,-321.389 171.763,-328.207"/>
</g>
<!-- Node31 -->
<g id="node61" class="node"><title>Node31</title>
<a xlink:href="cvm-hfa-graph_8c.html#a5e79919f5903d97aee5e82bfc7e71597" target="_top" xlink:title="This routine is the counterpart of hfa_dev_graph_init().">
<polygon fill="white" stroke="black" points="160,-261.5 160,-282.5 292,-282.5 292,-261.5 160,-261.5"/>
<text text-anchor="middle" x="226" y="-269.5" font-family="FreeSans" font-size="10.00">hfa_dev_graph_cleanup</text>
</a>
</g>
<!-- Node2&#45;&gt;Node31 -->
<g id="edge60" class="edge"><title>Node2&#45;&gt;Node31</title>
<path fill="none" stroke="midnightblue" d="M107.702,-331.386C119.565,-320.158 139.715,-302.627 160,-292 164.219,-289.79 168.721,-287.784 173.315,-285.971"/>
<polygon fill="midnightblue" stroke="midnightblue" points="174.611,-289.224 182.815,-282.52 172.221,-282.645 174.611,-289.224"/>
</g>
<!-- Node32 -->
<g id="node63" class="node"><title>Node32</title>
<a xlink:href="cvm-hfa_8c.html#af14bebdd444bd0bf92faac9d5d88b492" target="_top" xlink:title="This function is called by application to cleanup all resources configured for HFA device and then sh...">
<polygon fill="white" stroke="black" points="176.5,-362.5 176.5,-383.5 275.5,-383.5 275.5,-362.5 176.5,-362.5"/>
<text text-anchor="middle" x="226" y="-370.5" font-family="FreeSans" font-size="10.00">hfa_dev_cleanup</text>
</a>
</g>
<!-- Node2&#45;&gt;Node32 -->
<g id="edge62" class="edge"><title>Node2&#45;&gt;Node32</title>
<path fill="none" stroke="midnightblue" d="M124.043,-348.499C137.992,-351.851 155.519,-356.063 172.087,-360.044"/>
<polygon fill="midnightblue" stroke="midnightblue" points="171.698,-363.55 182.239,-362.484 173.334,-356.744 171.698,-363.55"/>
</g>
<!-- Node4 -->
<g id="node7" class="node"><title>Node4</title>
<a xlink:href="cvm-hfa-search_8c.html#a30064f173d814bd3791b59d675c2f45f" target="_top" xlink:title="This routine cleans&#45;up a Search Context.">
<polygon fill="white" stroke="black" points="328,-530.5 328,-551.5 480,-551.5 480,-530.5 328,-530.5"/>
<text text-anchor="middle" x="404" y="-538.5" font-family="FreeSans" font-size="10.00">hfa_dev_searchctx_cleanup</text>
</a>
</g>
<!-- Node3&#45;&gt;Node4 -->
<g id="edge6" class="edge"><title>Node3&#45;&gt;Node4</title>
<path fill="none" stroke="midnightblue" d="M255.393,-487.568C285.282,-498.315 331.769,-515.029 364.783,-526.9"/>
<polygon fill="midnightblue" stroke="midnightblue" points="363.969,-530.326 374.563,-530.416 366.337,-523.739 363.969,-530.326"/>
</g>
<!-- Node5 -->
<g id="node9" class="node"><title>Node5</title>
<a xlink:href="cvm-hfa-pp_8c.html#add6064138ec2e35741929056a0992d8d" target="_top" xlink:title="ppgetstats">
<polygon fill="white" stroke="black" points="557,-610.5 557,-631.5 623,-631.5 623,-610.5 557,-610.5"/>
<text text-anchor="middle" x="590" y="-618.5" font-family="FreeSans" font-size="10.00">ppgetstats</text>
</a>
</g>
<!-- Node4&#45;&gt;Node5 -->
<g id="edge8" class="edge"><title>Node4&#45;&gt;Node5</title>
<path fill="none" stroke="midnightblue" d="M420.872,-551.619C442.299,-564.728 480.736,-587.001 516,-601 525.741,-604.867 536.491,-608.247 546.708,-611.074"/>
<polygon fill="midnightblue" stroke="midnightblue" points="546.128,-614.541 556.691,-613.715 547.918,-607.774 546.128,-614.541"/>
</g>
<!-- Node7 -->
<g id="node13" class="node"><title>Node7</title>
<a xlink:href="cvm-hfa-pp_8c.html#a57ec655c9bdb6ce63ada6767c7e14763" target="_top" xlink:title="ppcleanstats">
<polygon fill="white" stroke="black" points="551.5,-570.5 551.5,-591.5 628.5,-591.5 628.5,-570.5 551.5,-570.5"/>
<text text-anchor="middle" x="590" y="-578.5" font-family="FreeSans" font-size="10.00">ppcleanstats</text>
</a>
</g>
<!-- Node4&#45;&gt;Node7 -->
<g id="edge12" class="edge"><title>Node4&#45;&gt;Node7</title>
<path fill="none" stroke="midnightblue" d="M452.869,-551.51C480.165,-557.38 514.064,-564.67 541.329,-570.533"/>
<polygon fill="midnightblue" stroke="midnightblue" points="540.913,-574.024 551.425,-572.704 542.385,-567.18 540.913,-574.024"/>
</g>
<!-- Node9 -->
<g id="node17" class="node"><title>Node9</title>
<a xlink:href="cvm-hfa-pp_8c.html#a41ce9d3103c639e474783d3843e09071" target="_top" xlink:title="ppcleanup">
<polygon fill="white" stroke="black" points="557,-530.5 557,-551.5 623,-551.5 623,-530.5 557,-530.5"/>
<text text-anchor="middle" x="590" y="-538.5" font-family="FreeSans" font-size="10.00">ppcleanup</text>
</a>
</g>
<!-- Node4&#45;&gt;Node9 -->
<g id="edge16" class="edge"><title>Node4&#45;&gt;Node9</title>
<path fill="none" stroke="midnightblue" d="M480.19,-541C502.811,-541 526.804,-541 546.574,-541"/>
<polygon fill="midnightblue" stroke="midnightblue" points="546.792,-544.5 556.792,-541 546.792,-537.5 546.792,-544.5"/>
</g>
<!-- Node11 -->
<g id="node21" class="node"><title>Node11</title>
<a xlink:href="cvm-hfa-stats_8c.html#a2df4c76e04e7b028ed2df4bba1b2de3d" target="_top" xlink:title="This routine is the counterpart of hfa_searchctx_init_stats().">
<polygon fill="white" stroke="black" points="533.5,-478 533.5,-512 646.5,-512 646.5,-478 533.5,-478"/>
<text text-anchor="start" x="541.5" y="-499" font-family="FreeSans" font-size="10.00">hfa_searchctx_stats</text>
<text text-anchor="middle" x="590" y="-486" font-family="FreeSans" font-size="10.00">_cleanup</text>
</a>
</g>
<!-- Node4&#45;&gt;Node11 -->
<g id="edge20" class="edge"><title>Node4&#45;&gt;Node11</title>
<path fill="none" stroke="midnightblue" d="M446.672,-530.447C469.396,-524.827 497.857,-517.788 523.416,-511.467"/>
<polygon fill="midnightblue" stroke="midnightblue" points="524.553,-514.791 533.42,-508.993 522.873,-507.996 524.553,-514.791"/>
</g>
<!-- Node6 -->
<g id="node11" class="node"><title>Node6</title>
<a xlink:href="pp_8h.html#a808d5057ee5670ce724a6a88fc22b799" target="_top" xlink:title="pphfa_getstats">
<polygon fill="white" stroke="black" points="722.5,-610.5 722.5,-631.5 809.5,-631.5 809.5,-610.5 722.5,-610.5"/>
<text text-anchor="middle" x="766" y="-618.5" font-family="FreeSans" font-size="10.00">pphfa_getstats</text>
</a>
</g>
<!-- Node5&#45;&gt;Node6 -->
<g id="edge10" class="edge"><title>Node5&#45;&gt;Node6</title>
<path fill="none" stroke="midnightblue" d="M623.104,-621C648.223,-621 683.277,-621 712.38,-621"/>
<polygon fill="midnightblue" stroke="midnightblue" points="712.399,-624.5 722.399,-621 712.399,-617.5 712.399,-624.5"/>
</g>
<!-- Node8 -->
<g id="node15" class="node"><title>Node8</title>
<a xlink:href="pp_8h.html#a978b171bd7a736cb7fa0d5d034aa94e2" target="_top" xlink:title="pphfa_cleanstats">
<polygon fill="white" stroke="black" points="717,-570.5 717,-591.5 815,-591.5 815,-570.5 717,-570.5"/>
<text text-anchor="middle" x="766" y="-578.5" font-family="FreeSans" font-size="10.00">pphfa_cleanstats</text>
</a>
</g>
<!-- Node7&#45;&gt;Node8 -->
<g id="edge14" class="edge"><title>Node7&#45;&gt;Node8</title>
<path fill="none" stroke="midnightblue" d="M628.624,-581C651.493,-581 680.939,-581 706.7,-581"/>
<polygon fill="midnightblue" stroke="midnightblue" points="706.74,-584.5 716.74,-581 706.74,-577.5 706.74,-584.5"/>
</g>
<!-- Node10 -->
<g id="node19" class="node"><title>Node10</title>
<a xlink:href="pp_8h.html#a428ad073d1fd72da37ab8b00f13693a3" target="_top" xlink:title="pphfa_cleanup">
<polygon fill="white" stroke="black" points="722.5,-530.5 722.5,-551.5 809.5,-551.5 809.5,-530.5 722.5,-530.5"/>
<text text-anchor="middle" x="766" y="-538.5" font-family="FreeSans" font-size="10.00">pphfa_cleanup</text>
</a>
</g>
<!-- Node9&#45;&gt;Node10 -->
<g id="edge18" class="edge"><title>Node9&#45;&gt;Node10</title>
<path fill="none" stroke="midnightblue" d="M623.104,-541C648.223,-541 683.277,-541 712.38,-541"/>
<polygon fill="midnightblue" stroke="midnightblue" points="712.399,-544.5 722.399,-541 712.399,-537.5 712.399,-544.5"/>
</g>
<!-- Node12 -->
<g id="node23" class="node"><title>Node12</title>
<a xlink:href="cvm-hfa-stats_8c.html#a7a2acbe48c3850d43256938ee996aa16" target="_top" xlink:title="This routine frees memory to STATS ARENA.">
<polygon fill="white" stroke="black" points="703.5,-461.5 703.5,-482.5 828.5,-482.5 828.5,-461.5 703.5,-461.5"/>
<text text-anchor="middle" x="766" y="-469.5" font-family="FreeSans" font-size="10.00">hfa_stats_memoryfree</text>
</a>
</g>
<!-- Node11&#45;&gt;Node12 -->
<g id="edge22" class="edge"><title>Node11&#45;&gt;Node12</title>
<path fill="none" stroke="midnightblue" d="M646.656,-487.596C661.494,-485.657 677.7,-483.539 693.25,-481.507"/>
<polygon fill="midnightblue" stroke="midnightblue" points="693.891,-484.953 703.353,-480.187 692.983,-478.012 693.891,-484.953"/>
</g>
<!-- Node14 -->
<g id="node27" class="node"><title>Node14</title>
<a xlink:href="cvm-hfa-graph_8c.html#afb63ce4f42afc7987e6222b1c1ea91a1" target="_top" xlink:title="This routine is used to cacheunload a cacheload&#39;ed graph in a non&#45;blocking manner.">
<polygon fill="white" stroke="black" points="338,-274 338,-308 470,-308 470,-274 338,-274"/>
<text text-anchor="start" x="346" y="-295" font-family="FreeSans" font-size="10.00">hfa_graph_cacheunload</text>
<text text-anchor="middle" x="404" y="-282" font-family="FreeSans" font-size="10.00">_async</text>
</a>
</g>
<!-- Node13&#45;&gt;Node14 -->
<g id="edge26" class="edge"><title>Node13&#45;&gt;Node14</title>
<path fill="none" stroke="midnightblue" d="M292.028,-304.21C303.583,-302.847 315.692,-301.418 327.502,-300.025"/>
<polygon fill="midnightblue" stroke="midnightblue" points="328.261,-303.46 337.782,-298.812 327.441,-296.508 328.261,-303.46"/>
</g>
<!-- Node24 -->
<g id="node47" class="node"><title>Node24</title>
<a xlink:href="cvm-hfa-graph_8c.html#a0f2f13fb51e5d56dcf049ff3c7c6ad78" target="_top" xlink:title="This routine is used to check the status of the graph.">
<polygon fill="white" stroke="black" points="347,-60.5 347,-81.5 461,-81.5 461,-60.5 347,-60.5"/>
<text text-anchor="middle" x="404" y="-68.5" font-family="FreeSans" font-size="10.00">hfa_graph_getstatus</text>
</a>
</g>
<!-- Node13&#45;&gt;Node24 -->
<g id="edge46" class="edge"><title>Node13&#45;&gt;Node24</title>
<path fill="none" stroke="midnightblue" d="M276.521,-301.464C282.101,-298.955 287.414,-295.847 292,-292 357.179,-237.325 388.497,-135.219 399.37,-91.6064"/>
<polygon fill="midnightblue" stroke="midnightblue" points="402.837,-92.156 401.754,-81.6167 396.028,-90.5313 402.837,-92.156"/>
</g>
<!-- Node15 -->
<g id="node29" class="node"><title>Node15</title>
<a xlink:href="cvm-hfa-instr_8h.html#acaf8def6cbffb04c100bf7f7684f242e" target="_top" xlink:title="Initialize the HFA instruction.">
<polygon fill="white" stroke="black" points="538.5,-400.5 538.5,-421.5 641.5,-421.5 641.5,-400.5 538.5,-400.5"/>
<text text-anchor="middle" x="590" y="-408.5" font-family="FreeSans" font-size="10.00">cvm_hfa_instr_init</text>
</a>
</g>
<!-- Node14&#45;&gt;Node15 -->
<g id="edge28" class="edge"><title>Node14&#45;&gt;Node15</title>
<path fill="none" stroke="midnightblue" d="M426.58,-308.183C442.041,-320.243 462.78,-337.011 480,-353 497.048,-368.83 496.024,-379.075 516,-391 520.071,-393.43 524.442,-395.571 528.95,-397.457"/>
<polygon fill="midnightblue" stroke="midnightblue" points="527.754,-400.746 538.346,-400.979 530.211,-394.191 527.754,-400.746"/>
</g>
<!-- Node16 -->
<g id="node31" class="node"><title>Node16</title>
<a xlink:href="cvm-hfa-instr_8h.html#a2d6082e2e599fe8523162b18d0a06f6c" target="_top" xlink:title="Sets rptr in the instruction.">
<polygon fill="white" stroke="black" points="530,-360.5 530,-381.5 650,-381.5 650,-360.5 530,-360.5"/>
<text text-anchor="middle" x="590" y="-368.5" font-family="FreeSans" font-size="10.00">cvm_hfa_instr_setrptr</text>
</a>
</g>
<!-- Node14&#45;&gt;Node16 -->
<g id="edge30" class="edge"><title>Node14&#45;&gt;Node16</title>
<path fill="none" stroke="midnightblue" d="M431.685,-308.132C453.847,-321.273 486.066,-339.117 516,-351 521.926,-353.352 528.225,-355.525 534.55,-357.502"/>
<polygon fill="midnightblue" stroke="midnightblue" points="533.88,-360.954 544.462,-360.446 535.873,-354.243 533.88,-360.954"/>
</g>
<!-- Node17 -->
<g id="node33" class="node"><title>Node17</title>
<a xlink:href="cvm-hfa-instr_8h.html#a6960a0761295ada9f449ea5e8c41ec80" target="_top" xlink:title="Sets clmsk in the instruction.">
<polygon fill="white" stroke="black" points="524,-320.5 524,-341.5 656,-341.5 656,-320.5 524,-320.5"/>
<text text-anchor="middle" x="590" y="-328.5" font-family="FreeSans" font-size="10.00">cvm_hfa_instr_setclmsk</text>
</a>
</g>
<!-- Node14&#45;&gt;Node17 -->
<g id="edge32" class="edge"><title>Node14&#45;&gt;Node17</title>
<path fill="none" stroke="midnightblue" d="M470.1,-305.215C490.018,-309.498 511.737,-314.169 531.15,-318.344"/>
<polygon fill="midnightblue" stroke="midnightblue" points="530.558,-321.797 541.07,-320.477 532.029,-314.953 530.558,-321.797"/>
</g>
<!-- Node18 -->
<g id="node35" class="node"><title>Node18</title>
<a xlink:href="cvm-hfa-instr_8h.html#add4e981377a02cd06e2bca116e584bca" target="_top" xlink:title="Sets vgid in the instruction.">
<polygon fill="white" stroke="black" points="528,-280.5 528,-301.5 652,-301.5 652,-280.5 528,-280.5"/>
<text text-anchor="middle" x="590" y="-288.5" font-family="FreeSans" font-size="10.00">cvm_hfa_instr_setvgid</text>
</a>
</g>
<!-- Node14&#45;&gt;Node18 -->
<g id="edge34" class="edge"><title>Node14&#45;&gt;Node18</title>
<path fill="none" stroke="midnightblue" d="M470.1,-291C485.518,-291 502.015,-291 517.687,-291"/>
<polygon fill="midnightblue" stroke="midnightblue" points="517.847,-294.5 527.847,-291 517.846,-287.5 517.847,-294.5"/>
</g>
<!-- Node19 -->
<g id="node37" class="node"><title>Node19</title>
<a xlink:href="cvm-hfa-common_8h.html#a0da7c57174fb96d75ae9cc2ed3116a05" target="_top" xlink:title="Dump buffer pointed by &quot;buf&quot; in readable format.">
<polygon fill="white" stroke="black" points="547,-240.5 547,-261.5 633,-261.5 633,-240.5 547,-240.5"/>
<text text-anchor="middle" x="590" y="-248.5" font-family="FreeSans" font-size="10.00">hfa_dump_buf</text>
</a>
</g>
<!-- Node14&#45;&gt;Node19 -->
<g id="edge36" class="edge"><title>Node14&#45;&gt;Node19</title>
<path fill="none" stroke="midnightblue" d="M470.1,-276.785C491.995,-272.076 516.067,-266.9 536.86,-262.428"/>
<polygon fill="midnightblue" stroke="midnightblue" points="537.739,-265.819 546.78,-260.295 536.267,-258.975 537.739,-265.819"/>
</g>
<!-- Node20 -->
<g id="node39" class="node"><title>Node20</title>
<a xlink:href="cvm-hfa-instr_8h.html#a88a92a987acac81360f3b880d013cd10" target="_top" xlink:title="Sets wqptr instruction.">
<polygon fill="white" stroke="black" points="524.5,-200.5 524.5,-221.5 655.5,-221.5 655.5,-200.5 524.5,-200.5"/>
<text text-anchor="middle" x="590" y="-208.5" font-family="FreeSans" font-size="10.00">cvm_hfa_instr_setwqptr</text>
</a>
</g>
<!-- Node14&#45;&gt;Node20 -->
<g id="edge38" class="edge"><title>Node14&#45;&gt;Node20</title>
<path fill="none" stroke="midnightblue" d="M431.685,-273.868C453.847,-260.727 486.066,-242.883 516,-231 521.926,-228.648 528.225,-226.475 534.55,-224.498"/>
<polygon fill="midnightblue" stroke="midnightblue" points="535.873,-227.757 544.462,-221.554 533.88,-221.046 535.873,-227.757"/>
</g>
<!-- Node21 -->
<g id="node41" class="node"><title>Node21</title>
<a xlink:href="cvm-hfa-graph_8c.html#a1320f0566be0069bd604cc820a12a114" target="_top" xlink:title="This routine sets WQE field in graph data structure.">
<polygon fill="white" stroke="black" points="537.5,-160.5 537.5,-181.5 642.5,-181.5 642.5,-160.5 537.5,-160.5"/>
<text text-anchor="middle" x="590" y="-168.5" font-family="FreeSans" font-size="10.00">hfa_graph_setwqe</text>
</a>
</g>
<!-- Node14&#45;&gt;Node21 -->
<g id="edge40" class="edge"><title>Node14&#45;&gt;Node21</title>
<path fill="none" stroke="midnightblue" d="M418.495,-273.827C438.279,-251.479 475.889,-212.726 516,-191 520.169,-188.742 524.61,-186.725 529.168,-184.926"/>
<polygon fill="midnightblue" stroke="midnightblue" points="530.404,-188.201 538.636,-181.531 528.042,-181.612 530.404,-188.201"/>
</g>
<!-- Node22 -->
<g id="node43" class="node"><title>Node22</title>
<a xlink:href="cvm-hfa_8c.html#a4677d07b901d6aeb02e793c1dbdfabbf" target="_top" xlink:title="Asynchronous instruction submit to HFA hardware Do not wait for instruction to complete.">
<polygon fill="white" stroke="black" points="529,-120.5 529,-141.5 651,-141.5 651,-120.5 529,-120.5"/>
<text text-anchor="middle" x="590" y="-128.5" font-family="FreeSans" font-size="10.00">hfa_dev_submitasync</text>
</a>
</g>
<!-- Node14&#45;&gt;Node22 -->
<g id="edge42" class="edge"><title>Node14&#45;&gt;Node22</title>
<path fill="none" stroke="midnightblue" d="M412.888,-273.876C429.196,-244.184 466.792,-183.24 516,-151 519.075,-148.985 522.348,-147.172 525.741,-145.541"/>
<polygon fill="midnightblue" stroke="midnightblue" points="527.108,-148.763 534.947,-141.635 524.374,-142.319 527.108,-148.763"/>
</g>
<!-- Node23 -->
<g id="node45" class="node"><title>Node23</title>
<a xlink:href="cvmx-hfa_8c.html#a96a123c8918e83cdf914f6de1bfb4f00" target="_top" xlink:title="Submit a command to the DFA block.">
<polygon fill="white" stroke="black" points="715,-120.5 715,-141.5 817,-141.5 817,-120.5 715,-120.5"/>
<text text-anchor="middle" x="766" y="-128.5" font-family="FreeSans" font-size="10.00">cvmx_hfa_submit</text>
</a>
</g>
<!-- Node22&#45;&gt;Node23 -->
<g id="edge44" class="edge"><title>Node22&#45;&gt;Node23</title>
<path fill="none" stroke="midnightblue" d="M651.062,-131C668.491,-131 687.48,-131 704.911,-131"/>
<polygon fill="midnightblue" stroke="midnightblue" points="704.97,-134.5 714.97,-131 704.97,-127.5 704.97,-134.5"/>
</g>
<!-- Node25 -->
<g id="node49" class="node"><title>Node25</title>
<a xlink:href="cvm-hfa_8c.html#a4753d2dd586e19676b1a59dd16baaeed" target="_top" xlink:title="Obtain status of submitted insruction.">
<polygon fill="white" stroke="black" points="523.5,-80.5 523.5,-101.5 656.5,-101.5 656.5,-80.5 523.5,-80.5"/>
<text text-anchor="middle" x="590" y="-88.5" font-family="FreeSans" font-size="10.00">hfa_dev_getasyncstatus</text>
</a>
</g>
<!-- Node24&#45;&gt;Node25 -->
<g id="edge48" class="edge"><title>Node24&#45;&gt;Node25</title>
<path fill="none" stroke="midnightblue" d="M461.07,-77.1366C477.496,-78.9027 495.688,-80.8589 513.103,-82.7315"/>
<polygon fill="midnightblue" stroke="midnightblue" points="512.931,-86.2331 523.248,-83.8224 513.679,-79.2732 512.931,-86.2331"/>
</g>
<!-- Node28 -->
<g id="node55" class="node"><title>Node28</title>
<a xlink:href="cvm-hfa-instr_8h.html#aa7b5661907cf23e01fe784a70980ed4b" target="_top" xlink:title="Gets itype from RWORD0.">
<polygon fill="white" stroke="black" points="529,-40.5 529,-61.5 651,-61.5 651,-40.5 529,-40.5"/>
<text text-anchor="middle" x="590" y="-48.5" font-family="FreeSans" font-size="10.00">cvm_hfa_rslt_getitype</text>
</a>
</g>
<!-- Node24&#45;&gt;Node28 -->
<g id="edge54" class="edge"><title>Node24&#45;&gt;Node28</title>
<path fill="none" stroke="midnightblue" d="M461.07,-64.8634C479.265,-62.907 499.627,-60.7175 518.7,-58.6667"/>
<polygon fill="midnightblue" stroke="midnightblue" points="519.27,-62.1256 528.839,-57.5765 518.522,-55.1658 519.27,-62.1256"/>
</g>
<!-- Node29 -->
<g id="node57" class="node"><title>Node29</title>
<a xlink:href="cvm-hfa-graph_8c.html#aa4c0667cc4f92a08c249041eb8a4ec58" target="_top" xlink:title="This routine is used to free the buffers and change the graph load status after instruction completio...">
<polygon fill="white" stroke="black" points="516.5,-0.5 516.5,-21.5 663.5,-21.5 663.5,-0.5 516.5,-0.5"/>
<text text-anchor="middle" x="590" y="-8.5" font-family="FreeSans" font-size="10.00">__hfa_graph_processstatus</text>
</a>
</g>
<!-- Node24&#45;&gt;Node29 -->
<g id="edge56" class="edge"><title>Node24&#45;&gt;Node29</title>
<path fill="none" stroke="midnightblue" d="M431.87,-60.3537C454.406,-51.9134 487.036,-40.0708 516,-31 523.412,-28.6789 531.29,-26.3767 539.036,-24.2054"/>
<polygon fill="midnightblue" stroke="midnightblue" points="540.023,-27.5642 548.734,-21.5335 538.163,-20.8157 540.023,-27.5642"/>
</g>
<!-- Node26 -->
<g id="node51" class="node"><title>Node26</title>
<a xlink:href="cvm-hfa-instr_8h.html#a56f2522dcba965745a1bc239fc432dca" target="_top" xlink:title="Gets done from RWORD0.">
<polygon fill="white" stroke="black" points="704.5,-80.5 704.5,-101.5 827.5,-101.5 827.5,-80.5 704.5,-80.5"/>
<text text-anchor="middle" x="766" y="-88.5" font-family="FreeSans" font-size="10.00">cvm_hfa_rslt_getdone</text>
</a>
</g>
<!-- Node25&#45;&gt;Node26 -->
<g id="edge50" class="edge"><title>Node25&#45;&gt;Node26</title>
<path fill="none" stroke="midnightblue" d="M656.538,-91C668.782,-91 681.616,-91 694.012,-91"/>
<polygon fill="midnightblue" stroke="midnightblue" points="694.299,-94.5001 704.299,-91 694.299,-87.5001 694.299,-94.5001"/>
</g>
<!-- Node27 -->
<g id="node53" class="node"><title>Node27</title>
<a xlink:href="cvm-hfa-instr_8h.html#a9700a50b68b6616506528eb725a8bda1" target="_top" xlink:title="Gets reason from RWORD0.">
<polygon fill="white" stroke="black" points="700.5,-40.5 700.5,-61.5 831.5,-61.5 831.5,-40.5 700.5,-40.5"/>
<text text-anchor="middle" x="766" y="-48.5" font-family="FreeSans" font-size="10.00">cvm_hfa_rslt_getreason</text>
</a>
</g>
<!-- Node25&#45;&gt;Node27 -->
<g id="edge52" class="edge"><title>Node25&#45;&gt;Node27</title>
<path fill="none" stroke="midnightblue" d="M636.242,-80.4905C658.788,-75.3663 686.096,-69.1601 709.832,-63.7655"/>
<polygon fill="midnightblue" stroke="midnightblue" points="710.786,-67.138 719.762,-61.5087 709.235,-60.312 710.786,-67.138"/>
</g>
<!-- Node30 -->
<g id="node59" class="node"><title>Node30</title>
<a xlink:href="cvm-hfa-cluster_8c.html#ad8cad96579f5a310b62caaf8c166658f" target="_top" xlink:title="Returns a copy of a cluster of the HFA device.">
<polygon fill="white" stroke="black" points="721,-0.5 721,-21.5 811,-21.5 811,-0.5 721,-0.5"/>
<text text-anchor="middle" x="766" y="-8.5" font-family="FreeSans" font-size="10.00">hfa_get_cluster</text>
</a>
</g>
<!-- Node29&#45;&gt;Node30 -->
<g id="edge58" class="edge"><title>Node29&#45;&gt;Node30</title>
<path fill="none" stroke="midnightblue" d="M663.62,-11C679.386,-11 695.785,-11 710.719,-11"/>
<polygon fill="midnightblue" stroke="midnightblue" points="710.797,-14.5001 720.797,-11 710.797,-7.5001 710.797,-14.5001"/>
</g>
<!-- Node33 -->
<g id="node65" class="node"><title>Node33</title>
<a xlink:href="cvm-hfa-stats_8c.html#ad6d5ab096d9d84d2b2f52bd551443592" target="_top" xlink:title="This routine is the counterpart of hfa_dev_init_stats().">
<polygon fill="white" stroke="black" points="341,-421.5 341,-442.5 467,-442.5 467,-421.5 341,-421.5"/>
<text text-anchor="middle" x="404" y="-429.5" font-family="FreeSans" font-size="10.00">hfa_dev_stats_cleanup</text>
</a>
</g>
<!-- Node32&#45;&gt;Node33 -->
<g id="edge64" class="edge"><title>Node32&#45;&gt;Node33</title>
<path fill="none" stroke="midnightblue" d="M257.823,-383.548C287.094,-393.25 330.675,-407.696 362.636,-418.289"/>
<polygon fill="midnightblue" stroke="midnightblue" points="361.56,-421.62 372.153,-421.444 363.762,-414.975 361.56,-421.62"/>
</g>
<!-- Node34 -->
<g id="node68" class="node"><title>Node34</title>
<a xlink:href="cvm-hfa-stats_8c.html#a75504ae5d9797d314ee11704fc86cdb1" target="_top" xlink:title="This routine prints statistics of each core.">
<polygon fill="white" stroke="black" points="349.5,-362.5 349.5,-383.5 458.5,-383.5 458.5,-362.5 349.5,-362.5"/>
<text text-anchor="middle" x="404" y="-370.5" font-family="FreeSans" font-size="10.00">hfa_dev_stats_print</text>
</a>
</g>
<!-- Node32&#45;&gt;Node34 -->
<g id="edge68" class="edge"><title>Node32&#45;&gt;Node34</title>
<path fill="none" stroke="midnightblue" d="M275.583,-373C295.297,-373 318.244,-373 339.242,-373"/>
<polygon fill="midnightblue" stroke="midnightblue" points="339.371,-376.5 349.371,-373 339.371,-369.5 339.371,-376.5"/>
</g>
<!-- Node33&#45;&gt;Node12 -->
<g id="edge66" class="edge"><title>Node33&#45;&gt;Node12</title>
<path fill="none" stroke="midnightblue" d="M467.056,-438.967C530.158,-445.94 627.135,-456.656 693.409,-463.979"/>
<polygon fill="midnightblue" stroke="midnightblue" points="693.04,-467.459 703.364,-465.079 693.809,-460.502 693.04,-467.459"/>
</g>
</g>
</svg>
        <g id="navigator" transform="translate(0 0)" fill="#404254">
                <rect fill="#f2f5e9" fill-opacity="0.5" stroke="#606060" stroke-width=".5" x="0" y="0" width="60" height="60"/>
                <use id="zoomplus" xlink:href="#zoomPlus" x="17" y="9" onmousedown="handleZoom(evt,'in')"/>
                <use id="zoomminus" xlink:href="#zoomMin" x="42" y="9" onmousedown="handleZoom(evt,'out')"/>
                <use id="reset" xlink:href="#resetDef" x="30" y="36" onmousedown="handleReset()"/>
                <g id="arrowUp" xlink:href="#dirArrow" transform="translate(30 24)" onmousedown="handlePan(0,-1)">
                  <use xlink:href="#rim" fill="#404040">
                        <set attributeName="fill" to="#808080" begin="arrowUp.mouseover" end="arrowUp.mouseout"/>
                  </use>
                  <path fill="none" stroke="white" stroke-width="1.5" d="M0,-3.0v7 M-2.5,-0.5L0,-3.0L2.5,-0.5"/>
                </g>
                <g id="arrowRight" xlink:href="#dirArrow" transform="rotate(90) translate(36 -43)" onmousedown="handlePan(1,0)">
                  <use xlink:href="#rim" fill="#404040">
                        <set attributeName="fill" to="#808080" begin="arrowRight.mouseover" end="arrowRight.mouseout"/>
                  </use>
                  <path fill="none" stroke="white" stroke-width="1.5" d="M0,-3.0v7 M-2.5,-0.5L0,-3.0L2.5,-0.5"/>
                </g>
                <g id="arrowDown" xlink:href="#dirArrow" transform="rotate(180) translate(-30 -48)" onmousedown="handlePan(0,1)">
                  <use xlink:href="#rim" fill="#404040">
                        <set attributeName="fill" to="#808080" begin="arrowDown.mouseover" end="arrowDown.mouseout"/>
                  </use>
                  <path fill="none" stroke="white" stroke-width="1.5" d="M0,-3.0v7 M-2.5,-0.5L0,-3.0L2.5,-0.5"/>
                </g>
                <g id="arrowLeft" xlink:href="#dirArrow" transform="rotate(270) translate(-36 17)" onmousedown="handlePan(-1,0)">
                  <use xlink:href="#rim" fill="#404040">
                        <set attributeName="fill" to="#808080" begin="arrowLeft.mouseover" end="arrowLeft.mouseout"/>
                  </use>
                  <path fill="none" stroke="white" stroke-width="1.5" d="M0,-3.0v7 M-2.5,-0.5L0,-3.0L2.5,-0.5"/>
                </g>
        </g>
        <svg viewBox="0 0 15 15" width="100%" height="30px" preserveAspectRatio="xMaxYMin meet">
         <g id="arrow_out" transform="scale(0.3 0.3)">
          <a xlink:href="hfa-lnx-nctx-lock_8c_aaf98ef7cdde3a0dfb2e49919de3298b1_cgraph_org.svg" target="_base">
           <rect id="button" ry="5" rx="5" y="6" x="6" height="38" width="38"
                fill="#f2f5e9" fill-opacity="0.5" stroke="#606060" stroke-width="1.0"/>
           <path id="arrow"
             d="M 11.500037,31.436501 C 11.940474,20.09759 22.043105,11.32322 32.158766,21.979434 L 37.068811,17.246167 C 37.068811,17.246167 37.088388,32 37.088388,32 L 22.160133,31.978069 C 22.160133,31.978069 26.997745,27.140456 26.997745,27.140456 C 18.528582,18.264221 13.291696,25.230495 11.500037,31.436501 z"
             style="fill:#404040;"/>
          </a>
         </g>
        </svg>
</svg>
