<?xml version="1.0" encoding="UTF-8" standalone="no"?>
<!DOCTYPE svg PUBLIC "-//W3C//DTD SVG 1.1//EN"
 "http://www.w3.org/Graphics/SVG/1.1/DTD/svg11.dtd">
<!-- Generated by graphviz version 2.24.0 (20090616.2323)
 -->
<!-- Title: intercept_callback Pages: 1 -->
<svg width="300pt" height="70pt"
 viewBox="0.00 0.00 300.00 70.00" xmlns="http://www.w3.org/2000/svg" xmlns:xlink="http://www.w3.org/1999/xlink">
<g id="graph1" class="graph" transform="scale(1 1) rotate(0) translate(4 66)">
<title>intercept_callback</title>
<polygon fill="white" stroke="white" points="-4,5 -4,-66 297,-66 297,5 -4,5"/>
<!-- Node1 -->
<g id="node1" class="node"><title>Node1</title>
<polygon fill="#bfbfbf" stroke="black" points="0.5,-20.5 0.5,-41.5 103.5,-41.5 103.5,-20.5 0.5,-20.5"/>
<text text-anchor="middle" x="52" y="-28.5" font-family="FreeSans" font-size="10.00">intercept_callback</text>
</g>
<!-- Node2 -->
<g id="node3" class="node"><title>Node2</title>
<a xlink:href="cvm-hfa-common_8h.html#ab6b5a9b432c71164f1c1aaa4db029031" target="_top" xlink:title="This routine is for getting WQE type.">
<polygon fill="white" stroke="black" points="164,-40.5 164,-61.5 268,-61.5 268,-40.5 164,-40.5"/>
<text text-anchor="middle" x="216" y="-48.5" font-family="FreeSans" font-size="10.00">hfa_get_wqe_type</text>
</a>
</g>
<!-- Node1&#45;&gt;Node2 -->
<g id="edge2" class="edge"><title>Node1&#45;&gt;Node2</title>
<path fill="none" stroke="midnightblue" d="M103.891,-37.3281C119.744,-39.2615 137.341,-41.4074 153.805,-43.4152"/>
<polygon fill="midnightblue" stroke="midnightblue" points="153.534,-46.908 163.884,-44.6444 154.381,-39.9595 153.534,-46.908"/>
</g>
<!-- Node3 -->
<g id="node5" class="node"><title>Node3</title>
<a xlink:href="cvm-hfa-search_8c.html#a4e3a1a826235d80899e23fb44c69eb0f" target="_top" xlink:title="This routine handles HFA WQE posted by HFA engine to indicate instruction completion.">
<polygon fill="white" stroke="black" points="140.5,-0.5 140.5,-21.5 291.5,-21.5 291.5,-0.5 140.5,-0.5"/>
<text text-anchor="middle" x="216" y="-8.5" font-family="FreeSans" font-size="10.00">hfa_searchctx_processwork</text>
</a>
</g>
<!-- Node1&#45;&gt;Node3 -->
<g id="edge4" class="edge"><title>Node1&#45;&gt;Node3</title>
<path fill="none" stroke="midnightblue" d="M103.891,-24.6719C112.345,-23.6408 121.296,-22.5493 130.306,-21.4505"/>
<polygon fill="midnightblue" stroke="midnightblue" points="130.978,-24.8946 140.48,-20.2097 130.13,-17.9461 130.978,-24.8946"/>
</g>
</g>
</svg>
