<?xml version="1.0" encoding="UTF-8" standalone="no"?>
<!DOCTYPE svg PUBLIC "-//W3C//DTD SVG 1.1//EN"
 "http://www.w3.org/Graphics/SVG/1.1/DTD/svg11.dtd">
<!-- Generated by graphviz version 2.24.0 (20090616.2323)
 -->
<!-- Title: sendpktwqe Pages: 1 -->
<svg width="392pt" height="110pt"
 viewBox="0.00 0.00 392.00 110.00" xmlns="http://www.w3.org/2000/svg" xmlns:xlink="http://www.w3.org/1999/xlink">
<g id="graph1" class="graph" transform="scale(1 1) rotate(0) translate(4 106)">
<title>sendpktwqe</title>
<polygon fill="white" stroke="white" points="-4,5 -4,-106 389,-106 389,5 -4,5"/>
<!-- Node1 -->
<g id="node1" class="node"><title>Node1</title>
<polygon fill="#bfbfbf" stroke="black" points="0,-40.5 0,-61.5 74,-61.5 74,-40.5 0,-40.5"/>
<text text-anchor="middle" x="37" y="-48.5" font-family="FreeSans" font-size="10.00">sendpktwqe</text>
</g>
<!-- Node2 -->
<g id="node3" class="node"><title>Node2</title>
<a xlink:href="hfa-se-ctx_8c.html#a064576c58038a1afa64cf8cb45271bf4" target="_top" xlink:title="Cleanup memory allocated for search parameters.">
<polygon fill="white" stroke="black" points="116.5,-60.5 116.5,-81.5 183.5,-81.5 183.5,-60.5 116.5,-60.5"/>
<text text-anchor="middle" x="150" y="-68.5" font-family="FreeSans" font-size="10.00">freeparam</text>
</a>
</g>
<!-- Node1&#45;&gt;Node2 -->
<g id="edge2" class="edge"><title>Node1&#45;&gt;Node2</title>
<path fill="none" stroke="midnightblue" d="M84.1656,-59.3479C94.9737,-61.2608 106.25,-63.2567 116.354,-65.045"/>
<polygon fill="midnightblue" stroke="midnightblue" points="84.4574,-55.8452 74.0004,-57.5487 83.2374,-62.7381 84.4574,-55.8452"/>
</g>
<!-- Node3 -->
<g id="node5" class="node"><title>Node3</title>
<a xlink:href="hfa-se-ctx_8c.html#aaf2d1bda55a80b5467e3ef350c514243" target="_top" xlink:title="Process search on recieved packet wqe.">
<polygon fill="white" stroke="black" points="110,-20.5 110,-41.5 190,-41.5 190,-20.5 110,-20.5"/>
<text text-anchor="middle" x="150" y="-28.5" font-family="FreeSans" font-size="10.00">process_wqe</text>
</a>
</g>
<!-- Node1&#45;&gt;Node3 -->
<g id="edge4" class="edge"><title>Node1&#45;&gt;Node3</title>
<path fill="none" stroke="midnightblue" d="M83.9071,-42.6979C92.508,-41.1756 101.414,-39.5992 109.797,-38.1155"/>
<polygon fill="midnightblue" stroke="midnightblue" points="83.2374,-39.2619 74.0004,-44.4513 84.4574,-46.1548 83.2374,-39.2619"/>
</g>
<!-- Node4 -->
<g id="node7" class="node"><title>Node4</title>
<a xlink:href="hfa-se-ctx_8c.html#ac6740f043d197065a62fbd0570b4f735" target="_top" xlink:title="Do asynchrounous get work operation then pre&#45;fetch recieved wqe and process search on recieved packet...">
<polygon fill="white" stroke="black" points="229,-40.5 229,-61.5 303,-61.5 303,-40.5 229,-40.5"/>
<text text-anchor="middle" x="266" y="-48.5" font-family="FreeSans" font-size="10.00">process_pkt</text>
</a>
</g>
<!-- Node3&#45;&gt;Node4 -->
<g id="edge6" class="edge"><title>Node3&#45;&gt;Node4</title>
<path fill="none" stroke="midnightblue" d="M200.162,-39.6486C209.825,-41.3146 219.783,-43.0316 228.938,-44.61"/>
<polygon fill="midnightblue" stroke="midnightblue" points="200.695,-36.1889 190.246,-37.9389 199.506,-43.0872 200.695,-36.1889"/>
</g>
<!-- Node7 -->
<g id="node13" class="node"><title>Node7</title>
<a xlink:href="hfa-se-wqe-lock_8c.html#a06b5fcfab0e1d5eb36b633ec080ad7f9" target="_top" xlink:title="Process search for given contexts.">
<polygon fill="white" stroke="black" points="226,-0.5 226,-21.5 306,-21.5 306,-0.5 226,-0.5"/>
<text text-anchor="middle" x="266" y="-8.5" font-family="FreeSans" font-size="10.00">process_nctx</text>
</a>
</g>
<!-- Node3&#45;&gt;Node7 -->
<g id="edge12" class="edge"><title>Node3&#45;&gt;Node7</title>
<path fill="none" stroke="midnightblue" d="M200.162,-22.3514C208.74,-20.8724 217.551,-19.3533 225.826,-17.9266"/>
<polygon fill="midnightblue" stroke="midnightblue" points="199.506,-18.9128 190.246,-24.0611 200.695,-25.8111 199.506,-18.9128"/>
</g>
<!-- Node5 -->
<g id="node9" class="node"><title>Node5</title>
<a xlink:href="hfa-lnx-ctx_8c.html#a78ffddbcd7cdd164889cfb53ea367886" target="_top" xlink:title="entry">
<polygon fill="white" stroke="black" points="342.5,-80.5 342.5,-101.5 383.5,-101.5 383.5,-80.5 342.5,-80.5"/>
<text text-anchor="middle" x="363" y="-88.5" font-family="FreeSans" font-size="10.00">entry</text>
</a>
</g>
<!-- Node4&#45;&gt;Node5 -->
<g id="edge8" class="edge"><title>Node4&#45;&gt;Node5</title>
<path fill="none" stroke="midnightblue" d="M300.776,-65.3406C314.663,-71.0674 330.187,-77.4687 342.254,-82.4451"/>
<polygon fill="midnightblue" stroke="midnightblue" points="302.065,-62.0862 291.486,-61.5095 299.396,-68.5576 302.065,-62.0862"/>
</g>
<!-- Node6 -->
<g id="node11" class="node"><title>Node6</title>
<a xlink:href="hfa-se-ctx_8c.html#a3c04138a5bfe5d72780bb7e82a18e627" target="_top" xlink:title="main">
<polygon fill="white" stroke="black" points="343,-40.5 343,-61.5 383,-61.5 383,-40.5 343,-40.5"/>
<text text-anchor="middle" x="363" y="-48.5" font-family="FreeSans" font-size="10.00">main</text>
</a>
</g>
<!-- Node4&#45;&gt;Node6 -->
<g id="edge10" class="edge"><title>Node4&#45;&gt;Node6</title>
<path fill="none" stroke="midnightblue" d="M313.483,-51C323.832,-51 334.242,-51 342.828,-51"/>
<polygon fill="midnightblue" stroke="midnightblue" points="313.225,-47.5001 303.225,-51 313.225,-54.5001 313.225,-47.5001"/>
</g>
<!-- Node8 -->
<g id="node15" class="node"><title>Node8</title>
<a xlink:href="hfa-se-wqe-lock_8c.html#a3c04138a5bfe5d72780bb7e82a18e627" target="_top" xlink:title="main">
<polygon fill="white" stroke="black" points="343,-0.5 343,-21.5 383,-21.5 383,-0.5 343,-0.5"/>
<text text-anchor="middle" x="363" y="-8.5" font-family="FreeSans" font-size="10.00">main</text>
</a>
</g>
<!-- Node7&#45;&gt;Node8 -->
<g id="edge14" class="edge"><title>Node7&#45;&gt;Node8</title>
<path fill="none" stroke="midnightblue" d="M316.263,-11C325.739,-11 335.125,-11 342.971,-11"/>
<polygon fill="midnightblue" stroke="midnightblue" points="316.014,-7.5001 306.014,-11 316.014,-14.5001 316.014,-7.5001"/>
</g>
</g>
</svg>
