<?xml version="1.0" encoding="UTF-8" standalone="no"?>
<!DOCTYPE svg PUBLIC "-//W3C//DTD SVG 1.1//EN"
 "http://www.w3.org/Graphics/SVG/1.1/DTD/svg11.dtd">
<!-- Generated by graphviz version 2.24.0 (20090616.2323)
 -->
<!-- Title: poll_searchctx Pages: 1 -->
<svg width="274pt" height="30pt"
 viewBox="0.00 0.00 274.00 30.00" xmlns="http://www.w3.org/2000/svg" xmlns:xlink="http://www.w3.org/1999/xlink">
<g id="graph1" class="graph" transform="scale(1 1) rotate(0) translate(4 26)">
<title>poll_searchctx</title>
<polygon fill="white" stroke="white" points="-4,5 -4,-26 271,-26 271,5 -4,5"/>
<!-- Node1 -->
<g id="node1" class="node"><title>Node1</title>
<polygon fill="#bfbfbf" stroke="black" points="0,-0.5 0,-21.5 86,-21.5 86,-0.5 0,-0.5"/>
<text text-anchor="middle" x="43" y="-8.5" font-family="FreeSans" font-size="10.00">poll_searchctx</text>
</g>
<!-- Node2 -->
<g id="node3" class="node"><title>Node2</title>
<a xlink:href="hfa-lnx-ctx_8c.html#a934a9fc08c4aab25d6f0d861e4a4f762" target="_top" xlink:title="poll">
<polygon fill="white" stroke="black" points="122.5,-0.5 122.5,-21.5 155.5,-21.5 155.5,-0.5 122.5,-0.5"/>
<text text-anchor="middle" x="139" y="-8.5" font-family="FreeSans" font-size="10.00">poll</text>
</a>
</g>
<!-- Node1&#45;&gt;Node2 -->
<g id="edge2" class="edge"><title>Node1&#45;&gt;Node2</title>
<path fill="none" stroke="midnightblue" d="M96.406,-11C105.751,-11 114.818,-11 122.168,-11"/>
<polygon fill="midnightblue" stroke="midnightblue" points="96.2258,-7.5001 86.2258,-11 96.2257,-14.5001 96.2258,-7.5001"/>
</g>
<!-- Node3 -->
<g id="node5" class="node"><title>Node3</title>
<a xlink:href="hfa-lnx-ctx_8c.html#a97df0ba8293c1b8436547946fd9d0d17" target="_top" xlink:title="process_pkt">
<polygon fill="white" stroke="black" points="192,-0.5 192,-21.5 266,-21.5 266,-0.5 192,-0.5"/>
<text text-anchor="middle" x="229" y="-8.5" font-family="FreeSans" font-size="10.00">process_pkt</text>
</a>
</g>
<!-- Node2&#45;&gt;Node3 -->
<g id="edge4" class="edge"><title>Node2&#45;&gt;Node3</title>
<path fill="none" stroke="midnightblue" d="M165.583,-11C173.766,-11 182.931,-11 191.695,-11"/>
<polygon fill="midnightblue" stroke="midnightblue" points="165.507,-7.5001 155.507,-11 165.507,-14.5001 165.507,-7.5001"/>
</g>
</g>
</svg>
