<?xml version="1.0" encoding="UTF-8" standalone="no"?>
<!DOCTYPE svg PUBLIC "-//W3C//DTD SVG 1.1//EN"
 "http://www.w3.org/Graphics/SVG/1.1/DTD/svg11.dtd">
<!-- Generated by graphviz version 2.24.0 (20090616.2323)
 -->
<!-- Title: entry Pages: 1 -->
<!--zoomable 1198 -->
<svg id="main" version="1.1" xmlns="http://www.w3.org/2000/svg" xmlns:xlink="http://www.w3.org/1999/xlink" xml:space="preserve" onload="init(evt)">
        <defs>
                <circle id="rim" cx="0" cy="0" r="7"/>
                <circle id="rim2" cx="0" cy="0" r="3.5"/>
                <g id="zoomPlus">
                        <use xlink:href="#rim" fill="#404040">
                                <set attributeName="fill" to="#808080" begin="zoomplus.mouseover" end="zoomplus.mouseout"/>
                        </use>
                        <path d="M-4,0h8M0,-4v8" fill="none" stroke="white" stroke-width="1.5" pointer-events="none"/>
                </g>
                <g id="zoomMin">
                        <use xlink:href="#rim" fill="#404040">
                                <set attributeName="fill" to="#808080" begin="zoomminus.mouseover" end="zoomminus.mouseout"/>
                        </use>
                        <path d="M-4,0h8" fill="none" stroke="white" stroke-width="1.5" pointer-events="none"/>
                </g>
                <g id="dirArrow">
                        <path fill="none" stroke="white" stroke-width="1.5" d="M0,-3.0v7 M-2.5,-0.5L0,-3.0L2.5,-0.5"/>
                </g>
               <g id="resetDef">
                       <use xlink:href="#rim2" fill="#404040">
                               <set attributeName="fill" to="#808080" begin="reset.mouseover" end="reset.mouseout"/>
                       </use>
               </g>
        </defs>

<script type="text/javascript">
var viewWidth = 710;
var viewHeight = 1198;
var sectionId = 'dynsection-2';
</script>
<script xlink:href="svgpan.js"/>
<svg id="graph" class="graph">
<g id="viewport">
<title>entry</title>
<polygon fill="white" stroke="white" points="-4,5 -4,-1194 707,-1194 707,5 -4,5"/>
<!-- Node1 -->
<g id="node1" class="node"><title>Node1</title>
<polygon fill="#bfbfbf" stroke="black" points="0.5,-157.5 0.5,-178.5 41.5,-178.5 41.5,-157.5 0.5,-157.5"/>
<text text-anchor="middle" x="21" y="-165.5" font-family="FreeSans" font-size="10.00">entry</text>
</g>
<!-- Node2 -->
<g id="node3" class="node"><title>Node2</title>
<a xlink:href="hfa-lnx-nctx-lock_8c.html#a4c3443f524b4c0d95639694f0b74e850" target="_top" xlink:title="Process command line options, Read graph and payload.">
<polygon fill="white" stroke="black" points="78,-1128.5 78,-1149.5 172,-1149.5 172,-1128.5 78,-1128.5"/>
<text text-anchor="middle" x="125" y="-1136.5" font-family="FreeSans" font-size="10.00">process_options</text>
</a>
</g>
<!-- Node1&#45;&gt;Node2 -->
<g id="edge2" class="edge"><title>Node1&#45;&gt;Node2</title>
<path fill="none" stroke="midnightblue" d="M21.9067,-178.505C26.9428,-236.596 52.1793,-524.363 78,-759 93.102,-896.234 114.635,-1060.91 122.224,-1118.17"/>
<polygon fill="midnightblue" stroke="midnightblue" points="118.801,-1118.98 123.587,-1128.43 125.74,-1118.06 118.801,-1118.98"/>
</g>
<!-- Node8 -->
<g id="node15" class="node"><title>Node8</title>
<a xlink:href="cvm-hfa_8c.html#a873768042b716d60996ec5d858fc8fd9" target="_top" xlink:title="This function must be called by application to initialize HFA engine and setup resources for HFA hard...">
<polygon fill="white" stroke="black" points="88,-728.5 88,-749.5 162,-749.5 162,-728.5 88,-728.5"/>
<text text-anchor="middle" x="125" y="-736.5" font-family="FreeSans" font-size="10.00">hfa_dev_init</text>
</a>
</g>
<!-- Node1&#45;&gt;Node8 -->
<g id="edge14" class="edge"><title>Node1&#45;&gt;Node8</title>
<path fill="none" stroke="midnightblue" d="M22.9847,-178.897C35.5739,-248.016 104.328,-625.502 121.24,-718.359"/>
<polygon fill="midnightblue" stroke="midnightblue" points="117.843,-719.238 123.078,-728.449 124.73,-717.984 117.843,-719.238"/>
</g>
<!-- Node32 -->
<g id="node63" class="node"><title>Node32</title>
<a xlink:href="hfa-lnx-nctx-lock_8c.html#a546f3769e735d4bef0bfab1cba56921c" target="_top" xlink:title="Load graph into HFA memory and cache.">
<polygon fill="white" stroke="black" points="90.5,-246.5 90.5,-267.5 159.5,-267.5 159.5,-246.5 90.5,-246.5"/>
<text text-anchor="middle" x="125" y="-254.5" font-family="FreeSans" font-size="10.00">graph_load</text>
</a>
</g>
<!-- Node1&#45;&gt;Node32 -->
<g id="edge62" class="edge"><title>Node1&#45;&gt;Node32</title>
<path fill="none" stroke="midnightblue" d="M33.3386,-178.559C51.0087,-193.681 83.7221,-221.676 104.911,-239.808"/>
<polygon fill="midnightblue" stroke="midnightblue" points="102.804,-242.612 112.677,-246.455 107.355,-237.294 102.804,-242.612"/>
</g>
<!-- Node40 -->
<g id="node81" class="node"><title>Node40</title>
<a xlink:href="hfa-lnx-nctx-lock_8c.html#a2c813b2ff20c5bf67f487908476604d6" target="_top" xlink:title="Initialize search context object for nctxts and a global list to track nctxts.">
<polygon fill="white" stroke="black" points="241.5,-80.5 241.5,-101.5 340.5,-101.5 340.5,-80.5 241.5,-80.5"/>
<text text-anchor="middle" x="291" y="-88.5" font-family="FreeSans" font-size="10.00">initialize_ctx_glist</text>
</a>
</g>
<!-- Node1&#45;&gt;Node40 -->
<g id="edge82" class="edge"><title>Node1&#45;&gt;Node40</title>
<path fill="none" stroke="midnightblue" d="M41.6091,-158.943C52.3377,-154.418 65.7421,-149.058 78,-145 129.071,-128.094 188.508,-113.428 231.598,-103.664"/>
<polygon fill="midnightblue" stroke="midnightblue" points="232.367,-107.079 241.358,-101.473 230.834,-100.249 232.367,-107.079"/>
</g>
<!-- Node45 -->
<g id="node91" class="node"><title>Node45</title>
<a xlink:href="hfa-lnx-async_8c.html#a7dea7d59754828b1173c4c7ec5d42f3e" target="_top" xlink:title="thread_callback">
<polygon fill="white" stroke="black" points="79,-80.5 79,-101.5 171,-101.5 171,-80.5 79,-80.5"/>
<text text-anchor="middle" x="125" y="-88.5" font-family="FreeSans" font-size="10.00">thread_callback</text>
</a>
</g>
<!-- Node1&#45;&gt;Node45 -->
<g id="edge92" class="edge"><title>Node1&#45;&gt;Node45</title>
<path fill="none" stroke="midnightblue" d="M31.2386,-157.174C42.1509,-146.008 60.266,-128.506 78,-116 82.7207,-112.671 87.9377,-109.477 93.1274,-106.551"/>
<polygon fill="midnightblue" stroke="midnightblue" points="95.1781,-109.423 102.326,-101.602 91.8616,-103.258 95.1781,-109.423"/>
</g>
<!-- Node47 -->
<g id="node98" class="node"><title>Node47</title>
<a xlink:href="hfa-lnx-async_8c.html#a1e97b1d598034fdc92d57054a6c386e6" target="_top" xlink:title="tasklet_callback">
<polygon fill="white" stroke="black" points="79,-40.5 79,-61.5 171,-61.5 171,-40.5 79,-40.5"/>
<text text-anchor="middle" x="125" y="-48.5" font-family="FreeSans" font-size="10.00">tasklet_callback</text>
</a>
</g>
<!-- Node1&#45;&gt;Node47 -->
<g id="edge102" class="edge"><title>Node1&#45;&gt;Node47</title>
<path fill="none" stroke="midnightblue" d="M24.624,-157.485C31.8516,-137.94 49.8281,-95.7546 78,-71 79.732,-69.4781 81.5969,-68.0591 83.55,-66.7376"/>
<polygon fill="midnightblue" stroke="midnightblue" points="85.6246,-69.5816 92.5381,-61.5533 82.127,-63.518 85.6246,-69.5816"/>
</g>
<!-- Node48 -->
<g id="node101" class="node"><title>Node48</title>
<a xlink:href="hfa-lnx-nctx-lock_8c.html#acd9e54f020b77f14d54c200b65423a15" target="_top" xlink:title="Application cleanup will be done by this routine.">
<polygon fill="white" stroke="black" points="264,-120.5 264,-141.5 318,-141.5 318,-120.5 264,-120.5"/>
<text text-anchor="middle" x="291" y="-128.5" font-family="FreeSans" font-size="10.00">cleanup</text>
</a>
</g>
<!-- Node1&#45;&gt;Node48 -->
<g id="edge106" class="edge"><title>Node1&#45;&gt;Node48</title>
<path fill="none" stroke="midnightblue" d="M41.7381,-165.158C87.1914,-158.929 196.122,-144.002 253.766,-136.102"/>
<polygon fill="midnightblue" stroke="midnightblue" points="254.473,-139.538 263.905,-134.713 253.523,-132.603 254.473,-139.538"/>
</g>
<!-- Node3 -->
<g id="node5" class="node"><title>Node3</title>
<a xlink:href="app-utils_8c.html#a8d5ec2ca8ebb2e04916983e6053a5c79" target="_top" xlink:title="Return size of a file(compressed or uncompressed).">
<polygon fill="white" stroke="black" points="243.5,-1168.5 243.5,-1189.5 338.5,-1189.5 338.5,-1168.5 243.5,-1168.5"/>
<text text-anchor="middle" x="291" y="-1176.5" font-family="FreeSans" font-size="10.00">hfautils_file_size</text>
</a>
</g>
<!-- Node2&#45;&gt;Node3 -->
<g id="edge4" class="edge"><title>Node2&#45;&gt;Node3</title>
<path fill="none" stroke="midnightblue" d="M168.615,-1149.51C189.69,-1154.59 215.176,-1160.73 237.423,-1166.09"/>
<polygon fill="midnightblue" stroke="midnightblue" points="236.847,-1169.55 247.389,-1168.49 238.487,-1162.75 236.847,-1169.55"/>
</g>
<!-- Node5 -->
<g id="node9" class="node"><title>Node5</title>
<a xlink:href="app-utils_8c.html#a12339c67618c4b3a54c32f43d378c273" target="_top" xlink:title="Read data from a file to a buffer(compressed or uncompressed).">
<polygon fill="white" stroke="black" points="242.5,-1128.5 242.5,-1149.5 339.5,-1149.5 339.5,-1128.5 242.5,-1128.5"/>
<text text-anchor="middle" x="291" y="-1136.5" font-family="FreeSans" font-size="10.00">hfautils_read_file</text>
</a>
</g>
<!-- Node2&#45;&gt;Node5 -->
<g id="edge8" class="edge"><title>Node2&#45;&gt;Node5</title>
<path fill="none" stroke="midnightblue" d="M172.125,-1139C190.817,-1139 212.515,-1139 232.218,-1139"/>
<polygon fill="midnightblue" stroke="midnightblue" points="232.313,-1142.5 242.313,-1139 232.313,-1135.5 232.313,-1142.5"/>
</g>
<!-- Node4 -->
<g id="node7" class="node"><title>Node4</title>
<a xlink:href="app-utils_8c.html#a7c78f1e7a6e793fea566793e167e22bc" target="_top" xlink:title="gz_get_size">
<polygon fill="white" stroke="black" points="444.5,-1168.5 444.5,-1189.5 517.5,-1189.5 517.5,-1168.5 444.5,-1168.5"/>
<text text-anchor="middle" x="481" y="-1176.5" font-family="FreeSans" font-size="10.00">gz_get_size</text>
</a>
</g>
<!-- Node3&#45;&gt;Node4 -->
<g id="edge6" class="edge"><title>Node3&#45;&gt;Node4</title>
<path fill="none" stroke="midnightblue" d="M338.945,-1179C368.122,-1179 405.221,-1179 434.19,-1179"/>
<polygon fill="midnightblue" stroke="midnightblue" points="434.465,-1182.5 444.465,-1179 434.464,-1175.5 434.465,-1182.5"/>
</g>
<!-- Node6 -->
<g id="node11" class="node"><title>Node6</title>
<a xlink:href="app-utils_8c.html#a7fbf4d982c3e4493bda83be020e7274c" target="_top" xlink:title="Read file data from a gzip&#45;stream(compressed or uncompressed).">
<polygon fill="white" stroke="black" points="454.5,-1088.5 454.5,-1109.5 507.5,-1109.5 507.5,-1088.5 454.5,-1088.5"/>
<text text-anchor="middle" x="481" y="-1096.5" font-family="FreeSans" font-size="10.00">fd_read</text>
</a>
</g>
<!-- Node5&#45;&gt;Node6 -->
<g id="edge10" class="edge"><title>Node5&#45;&gt;Node6</title>
<path fill="none" stroke="midnightblue" d="M339.93,-1128.7C372.584,-1121.82 414.82,-1112.93 444.535,-1106.68"/>
<polygon fill="midnightblue" stroke="midnightblue" points="445.423,-1110.07 454.488,-1104.58 443.981,-1103.22 445.423,-1110.07"/>
</g>
<!-- Node7 -->
<g id="node13" class="node"><title>Node7</title>
<a xlink:href="cvmx-hfa_8c.html#a3db44a30b1033c1ab4ac64bac81a41f6" target="_top" xlink:title="hfa_bootmem_free">
<polygon fill="white" stroke="black" points="427,-1128.5 427,-1149.5 535,-1149.5 535,-1128.5 427,-1128.5"/>
<text text-anchor="middle" x="481" y="-1136.5" font-family="FreeSans" font-size="10.00">hfa_bootmem_free</text>
</a>
</g>
<!-- Node5&#45;&gt;Node7 -->
<g id="edge12" class="edge"><title>Node5&#45;&gt;Node7</title>
<path fill="none" stroke="midnightblue" d="M339.93,-1139C363.316,-1139 391.617,-1139 416.714,-1139"/>
<polygon fill="midnightblue" stroke="midnightblue" points="416.883,-1142.5 426.883,-1139 416.883,-1135.5 416.883,-1142.5"/>
</g>
<!-- Node9 -->
<g id="node17" class="node"><title>Node9</title>
<a xlink:href="cvm-hfa-stats_8c.html#a2fcf955b47370bfa46705ee5a23a70cf" target="_top" xlink:title="This routine allocates memory for counters to maintain statistics of each processing core...">
<polygon fill="white" stroke="black" points="240,-928.5 240,-949.5 342,-949.5 342,-928.5 240,-928.5"/>
<text text-anchor="middle" x="291" y="-936.5" font-family="FreeSans" font-size="10.00">hfa_dev_stats_init</text>
</a>
</g>
<!-- Node8&#45;&gt;Node9 -->
<g id="edge16" class="edge"><title>Node8&#45;&gt;Node9</title>
<path fill="none" stroke="midnightblue" d="M126.667,-749.904C132.079,-781.393 152.155,-873.134 208,-919 214.504,-924.342 222.206,-928.298 230.254,-931.22"/>
<polygon fill="midnightblue" stroke="midnightblue" points="229.223,-934.564 239.811,-934.196 231.304,-927.881 229.223,-934.564"/>
</g>
<!-- Node13 -->
<g id="node25" class="node"><title>Node13</title>
<a xlink:href="cvm-hfa_8c.html#a27982497398da2118cd5287ed51732e7" target="_top" xlink:title="Provides device&#45;specific information This is a utility routine used to obtain HFA device&#45;specific det...">
<polygon fill="white" stroke="black" points="235.5,-888.5 235.5,-909.5 346.5,-909.5 346.5,-888.5 235.5,-888.5"/>
<text text-anchor="middle" x="291" y="-896.5" font-family="FreeSans" font-size="10.00">hfa_dev_getdevinfo</text>
</a>
</g>
<!-- Node8&#45;&gt;Node13 -->
<g id="edge24" class="edge"><title>Node8&#45;&gt;Node13</title>
<path fill="none" stroke="midnightblue" d="M128.143,-749.744C136.456,-776.188 161.63,-844.759 208,-879 213.243,-882.871 219.133,-886.003 225.294,-888.534"/>
<polygon fill="midnightblue" stroke="midnightblue" points="224.548,-891.984 235.143,-892.039 226.895,-885.389 224.548,-891.984"/>
</g>
<!-- Node14 -->
<g id="node27" class="node"><title>Node14</title>
<a xlink:href="pp_8h.html#a6f5982b2671e9682262a26b0d2996396" target="_top" xlink:title="Constructs a readable version string for the PP library.">
<polygon fill="white" stroke="black" points="231,-848.5 231,-869.5 351,-869.5 351,-848.5 231,-848.5"/>
<text text-anchor="middle" x="291" y="-856.5" font-family="FreeSans" font-size="10.00">pp_get_version_string</text>
</a>
</g>
<!-- Node8&#45;&gt;Node14 -->
<g id="edge26" class="edge"><title>Node8&#45;&gt;Node14</title>
<path fill="none" stroke="midnightblue" d="M130.71,-749.682C142.341,-770.36 170.851,-815.852 208,-839 212.108,-841.56 216.519,-843.792 221.088,-845.738"/>
<polygon fill="midnightblue" stroke="midnightblue" points="220.051,-849.088 230.643,-849.346 222.524,-842.539 220.051,-849.088"/>
</g>
<!-- Node15 -->
<g id="node29" class="node"><title>Node15</title>
<a xlink:href="cvm-hfa_8c.html#afd1d53fe8a402d4c5799e6e98c67baaa" target="_top" xlink:title="Displays HFA Device info.">
<polygon fill="white" stroke="black" points="232.5,-808.5 232.5,-829.5 349.5,-829.5 349.5,-808.5 232.5,-808.5"/>
<text text-anchor="middle" x="291" y="-816.5" font-family="FreeSans" font-size="10.00">hfa_dev_display_info</text>
</a>
</g>
<!-- Node8&#45;&gt;Node15 -->
<g id="edge28" class="edge"><title>Node8&#45;&gt;Node15</title>
<path fill="none" stroke="midnightblue" d="M136.441,-749.544C151.65,-762.998 179.894,-786.069 208,-799 213.262,-801.421 218.852,-803.569 224.546,-805.47"/>
<polygon fill="midnightblue" stroke="midnightblue" points="223.602,-808.842 234.189,-808.443 225.664,-802.153 223.602,-808.842"/>
</g>
<!-- Node18 -->
<g id="node35" class="node"><title>Node18</title>
<a xlink:href="cvm-hfa_8c.html#a236e64ca73680ea6761204d5c44d4e96" target="_top" xlink:title="API to set PP resource allocator for partial matches.">
<polygon fill="white" stroke="black" points="223.5,-768.5 223.5,-789.5 358.5,-789.5 358.5,-768.5 223.5,-768.5"/>
<text text-anchor="middle" x="291" y="-776.5" font-family="FreeSans" font-size="10.00">hfa_dev_set_fnp_ppalloc</text>
</a>
</g>
<!-- Node8&#45;&gt;Node18 -->
<g id="edge34" class="edge"><title>Node8&#45;&gt;Node18</title>
<path fill="none" stroke="midnightblue" d="M162.254,-747.977C184.434,-753.321 212.952,-760.193 237.508,-766.11"/>
<polygon fill="midnightblue" stroke="midnightblue" points="236.864,-769.555 247.406,-768.495 238.504,-762.75 236.864,-769.555"/>
</g>
<!-- Node19 -->
<g id="node37" class="node"><title>Node19</title>
<a xlink:href="cvm-hfa_8c.html#ab547f175726534d6a0a334eb35af4980" target="_top" xlink:title="Default function pointer for PP allocations.">
<polygon fill="white" stroke="black" points="231,-728.5 231,-749.5 351,-749.5 351,-728.5 231,-728.5"/>
<text text-anchor="middle" x="291" y="-736.5" font-family="FreeSans" font-size="10.00">hfa_defaultfn_ppalloc</text>
</a>
</g>
<!-- Node8&#45;&gt;Node19 -->
<g id="edge36" class="edge"><title>Node8&#45;&gt;Node19</title>
<path fill="none" stroke="midnightblue" d="M162.254,-739C179.508,-739 200.598,-739 220.675,-739"/>
<polygon fill="midnightblue" stroke="midnightblue" points="220.741,-742.5 230.741,-739 220.741,-735.5 220.741,-742.5"/>
</g>
<!-- Node20 -->
<g id="node39" class="node"><title>Node20</title>
<a xlink:href="cvm-hfa_8c.html#a148abbfdeebb207ff46884af8eeb8fa4" target="_top" xlink:title="API to set PP resource deallocator for partial matches.">
<polygon fill="white" stroke="black" points="225,-688.5 225,-709.5 357,-709.5 357,-688.5 225,-688.5"/>
<text text-anchor="middle" x="291" y="-696.5" font-family="FreeSans" font-size="10.00">hfa_dev_set_fnp_ppfree</text>
</a>
</g>
<!-- Node8&#45;&gt;Node20 -->
<g id="edge38" class="edge"><title>Node8&#45;&gt;Node20</title>
<path fill="none" stroke="midnightblue" d="M162.254,-730.023C184.434,-724.679 212.952,-717.807 237.508,-711.89"/>
<polygon fill="midnightblue" stroke="midnightblue" points="238.504,-715.25 247.406,-709.505 236.864,-708.445 238.504,-715.25"/>
</g>
<!-- Node21 -->
<g id="node41" class="node"><title>Node21</title>
<a xlink:href="cvm-hfa_8c.html#a832239ee7b188265bdacbbfb7e879af1" target="_top" xlink:title="Default function pointer for PP deallocations.">
<polygon fill="white" stroke="black" points="232.5,-648.5 232.5,-669.5 349.5,-669.5 349.5,-648.5 232.5,-648.5"/>
<text text-anchor="middle" x="291" y="-656.5" font-family="FreeSans" font-size="10.00">hfa_defaultfn_ppfree</text>
</a>
</g>
<!-- Node8&#45;&gt;Node21 -->
<g id="edge40" class="edge"><title>Node8&#45;&gt;Node21</title>
<path fill="none" stroke="midnightblue" d="M136.441,-728.456C151.65,-715.002 179.894,-691.931 208,-679 213.262,-676.579 218.852,-674.431 224.546,-672.53"/>
<polygon fill="midnightblue" stroke="midnightblue" points="225.664,-675.847 234.189,-669.557 223.602,-669.158 225.664,-675.847"/>
</g>
<!-- Node22 -->
<g id="node43" class="node"><title>Node22</title>
<a xlink:href="cvm-hfa_8c.html#a774451b83b300f862763d189c9758e1f" target="_top" xlink:title="API to set PP buffer size function pointer.">
<polygon fill="white" stroke="black" points="225,-608.5 225,-629.5 357,-629.5 357,-608.5 225,-608.5"/>
<text text-anchor="middle" x="291" y="-616.5" font-family="FreeSans" font-size="10.00">hfa_dev_set_fnp_ppsize</text>
</a>
</g>
<!-- Node8&#45;&gt;Node22 -->
<g id="edge42" class="edge"><title>Node8&#45;&gt;Node22</title>
<path fill="none" stroke="midnightblue" d="M130.71,-728.318C142.341,-707.64 170.851,-662.148 208,-639 211.371,-636.899 214.946,-635.02 218.645,-633.337"/>
<polygon fill="midnightblue" stroke="midnightblue" points="220.081,-636.532 228.049,-629.548 217.466,-630.039 220.081,-636.532"/>
</g>
<!-- Node23 -->
<g id="node45" class="node"><title>Node23</title>
<a xlink:href="cvm-hfa_8c.html#a11aab8e30488e4cfc900f60a0dabc784" target="_top" xlink:title="Default function pointer for PP size.">
<polygon fill="white" stroke="black" points="232.5,-568.5 232.5,-589.5 349.5,-589.5 349.5,-568.5 232.5,-568.5"/>
<text text-anchor="middle" x="291" y="-576.5" font-family="FreeSans" font-size="10.00">hfa_defaultfn_ppsize</text>
</a>
</g>
<!-- Node8&#45;&gt;Node23 -->
<g id="edge44" class="edge"><title>Node8&#45;&gt;Node23</title>
<path fill="none" stroke="midnightblue" d="M128.143,-728.256C136.456,-701.812 161.63,-633.241 208,-599 212.471,-595.698 217.414,-592.935 222.593,-590.622"/>
<polygon fill="midnightblue" stroke="midnightblue" points="224.063,-593.807 232.122,-586.929 221.533,-587.28 224.063,-593.807"/>
</g>
<!-- Node24 -->
<g id="node47" class="node"><title>Node24</title>
<a xlink:href="cvm-hfa_8c.html#a9a0b038e0d29435cb91a21d9c62806cc" target="_top" xlink:title="API to set PP resource allocator for temporary memory.">
<polygon fill="white" stroke="black" points="222,-528.5 222,-549.5 360,-549.5 360,-528.5 222,-528.5"/>
<text text-anchor="middle" x="291" y="-536.5" font-family="FreeSans" font-size="10.00">hfa_dev_set_fnp_pptalloc</text>
</a>
</g>
<!-- Node8&#45;&gt;Node24 -->
<g id="edge46" class="edge"><title>Node8&#45;&gt;Node24</title>
<path fill="none" stroke="midnightblue" d="M126.667,-728.096C132.079,-696.607 152.155,-604.866 208,-559 210.004,-557.354 212.123,-555.839 214.33,-554.446"/>
<polygon fill="midnightblue" stroke="midnightblue" points="216.087,-557.475 223.231,-549.651 212.767,-551.312 216.087,-557.475"/>
</g>
<!-- Node25 -->
<g id="node49" class="node"><title>Node25</title>
<a xlink:href="cvm-hfa_8c.html#a2cbca63c413f08d3861f9b4c2855391f" target="_top" xlink:title="API to set PP resource deallocator for temporary memory.">
<polygon fill="white" stroke="black" points="223.5,-488.5 223.5,-509.5 358.5,-509.5 358.5,-488.5 223.5,-488.5"/>
<text text-anchor="middle" x="291" y="-496.5" font-family="FreeSans" font-size="10.00">hfa_dev_set_fnp_pptfree</text>
</a>
</g>
<!-- Node8&#45;&gt;Node25 -->
<g id="edge48" class="edge"><title>Node8&#45;&gt;Node25</title>
<path fill="none" stroke="midnightblue" d="M125.642,-728.348C128.382,-692.78 142.204,-577.087 208,-519 209.993,-517.24 212.114,-515.629 214.336,-514.154"/>
<polygon fill="midnightblue" stroke="midnightblue" points="216.326,-517.051 223.345,-509.115 212.909,-510.942 216.326,-517.051"/>
</g>
<!-- Node26 -->
<g id="node51" class="node"><title>Node26</title>
<a xlink:href="cvm-hfa_8c.html#af0b17e8a09b1f7a1dd438ddcb1e4cd14" target="_top" xlink:title="API to set temporary memory size function pointer.">
<polygon fill="white" stroke="black" points="223.5,-448.5 223.5,-469.5 358.5,-469.5 358.5,-448.5 223.5,-448.5"/>
<text text-anchor="middle" x="291" y="-456.5" font-family="FreeSans" font-size="10.00">hfa_dev_set_fnp_pptsize</text>
</a>
</g>
<!-- Node8&#45;&gt;Node26 -->
<g id="edge50" class="edge"><title>Node8&#45;&gt;Node26</title>
<path fill="none" stroke="midnightblue" d="M126.965,-728.355C135.352,-684.038 169.485,-514.817 208,-479 209.947,-477.189 212.029,-475.534 214.216,-474.022"/>
<polygon fill="midnightblue" stroke="midnightblue" points="216.22,-476.907 223.122,-468.868 212.713,-470.848 216.22,-476.907"/>
</g>
<!-- Node27 -->
<g id="node53" class="node"><title>Node27</title>
<a xlink:href="cvm-hfa_8c.html#aa2754afcdd94eb3dcd90c374f779dd24" target="_top" xlink:title="API to set PP resource allocator for match/result buffer.">
<polygon fill="white" stroke="black" points="208,-408.5 208,-429.5 374,-429.5 374,-408.5 208,-408.5"/>
<text text-anchor="middle" x="291" y="-416.5" font-family="FreeSans" font-size="10.00">hfa_dev_set_fnp_ppmatchalloc</text>
</a>
</g>
<!-- Node8&#45;&gt;Node27 -->
<g id="edge52" class="edge"><title>Node8&#45;&gt;Node27</title>
<path fill="none" stroke="midnightblue" d="M126.48,-728.407C133.438,-680.092 164.395,-481.169 208,-439 209.319,-437.725 210.704,-436.526 212.145,-435.4"/>
<polygon fill="midnightblue" stroke="midnightblue" points="214.46,-438.072 220.961,-429.706 210.662,-432.192 214.46,-438.072"/>
</g>
<!-- Node28 -->
<g id="node55" class="node"><title>Node28</title>
<a xlink:href="cvm-hfa_8c.html#ad022f5aec72780af8b36533884693539" target="_top" xlink:title="API to set PP resource deallocator for result/match buf.">
<polygon fill="white" stroke="black" points="209.5,-1088.5 209.5,-1109.5 372.5,-1109.5 372.5,-1088.5 209.5,-1088.5"/>
<text text-anchor="middle" x="291" y="-1096.5" font-family="FreeSans" font-size="10.00">hfa_dev_set_fnp_ppmatchfree</text>
</a>
</g>
<!-- Node8&#45;&gt;Node28 -->
<g id="edge54" class="edge"><title>Node8&#45;&gt;Node28</title>
<path fill="none" stroke="midnightblue" d="M126.111,-749.569C131.796,-801.647 159.27,-1030.42 208,-1079 209.299,-1080.3 210.666,-1081.51 212.092,-1082.65"/>
<polygon fill="midnightblue" stroke="midnightblue" points="210.56,-1085.84 220.834,-1088.42 214.415,-1079.99 210.56,-1085.84"/>
</g>
<!-- Node29 -->
<g id="node57" class="node"><title>Node29</title>
<a xlink:href="cvm-hfa_8c.html#a8b71887165c143e32600513d12f9274f" target="_top" xlink:title="API to set match buffer size function pointer.">
<polygon fill="white" stroke="black" points="209.5,-1048.5 209.5,-1069.5 372.5,-1069.5 372.5,-1048.5 209.5,-1048.5"/>
<text text-anchor="middle" x="291" y="-1056.5" font-family="FreeSans" font-size="10.00">hfa_dev_set_fnp_ppmatchsize</text>
</a>
</g>
<!-- Node8&#45;&gt;Node29 -->
<g id="edge56" class="edge"><title>Node8&#45;&gt;Node29</title>
<path fill="none" stroke="midnightblue" d="M126.48,-749.593C133.438,-797.908 164.395,-996.831 208,-1039 209.319,-1040.28 210.704,-1041.47 212.145,-1042.6"/>
<polygon fill="midnightblue" stroke="midnightblue" points="210.662,-1045.81 220.961,-1048.29 214.46,-1039.93 210.662,-1045.81"/>
</g>
<!-- Node30 -->
<g id="node59" class="node"><title>Node30</title>
<a xlink:href="cvm-hfa_8c.html#abcc0595aa8b2bb2d6116d600abbf55f8" target="_top" xlink:title="API to set PP error callback.">
<polygon fill="white" stroke="black" points="223,-1008.5 223,-1029.5 359,-1029.5 359,-1008.5 223,-1008.5"/>
<text text-anchor="middle" x="291" y="-1016.5" font-family="FreeSans" font-size="10.00">hfa_dev_set_fnp_pperror</text>
</a>
</g>
<!-- Node8&#45;&gt;Node30 -->
<g id="edge58" class="edge"><title>Node8&#45;&gt;Node30</title>
<path fill="none" stroke="midnightblue" d="M126.965,-749.645C135.352,-793.962 169.485,-963.183 208,-999 209.899,-1000.77 211.927,-1002.38 214.056,-1003.87"/>
<polygon fill="midnightblue" stroke="midnightblue" points="212.32,-1006.91 222.718,-1008.94 215.855,-1000.86 212.32,-1006.91"/>
</g>
<!-- Node31 -->
<g id="node61" class="node"><title>Node31</title>
<a xlink:href="cvm-hfa_8c.html#ac115556b315ff135ed2fd059cdf7d066" target="_top" xlink:title="Default function pointer for PP errors.">
<polygon fill="white" stroke="black" points="235.5,-968.5 235.5,-989.5 346.5,-989.5 346.5,-968.5 235.5,-968.5"/>
<text text-anchor="middle" x="291" y="-976.5" font-family="FreeSans" font-size="10.00">hfa_defaultfn_pperr</text>
</a>
</g>
<!-- Node8&#45;&gt;Node31 -->
<g id="edge60" class="edge"><title>Node8&#45;&gt;Node31</title>
<path fill="none" stroke="midnightblue" d="M125.642,-749.652C128.382,-785.22 142.204,-900.913 208,-959 213.151,-963.548 219.159,-967.104 225.543,-969.879"/>
<polygon fill="midnightblue" stroke="midnightblue" points="224.518,-973.232 235.112,-973.411 226.942,-966.665 224.518,-973.232"/>
</g>
<!-- Node10 -->
<g id="node19" class="node"><title>Node10</title>
<a xlink:href="cvm-hfa-stats_8c.html#ab70d294575883530a6ecd321a2a09fc3" target="_top" xlink:title="Create ARENA for hfa statistics.">
<polygon fill="white" stroke="red" points="417,-968.5 417,-989.5 545,-989.5 545,-968.5 417,-968.5"/>
<text text-anchor="middle" x="481" y="-976.5" font-family="FreeSans" font-size="10.00">hfa_stats_create_arena</text>
</a>
</g>
<!-- Node9&#45;&gt;Node10 -->
<g id="edge18" class="edge"><title>Node9&#45;&gt;Node10</title>
<path fill="none" stroke="midnightblue" d="M340.92,-949.51C365.477,-954.679 395.266,-960.951 421.049,-966.379"/>
<polygon fill="midnightblue" stroke="midnightblue" points="420.577,-969.856 431.084,-968.491 422.019,-963.006 420.577,-969.856"/>
</g>
<!-- Node11 -->
<g id="node21" class="node"><title>Node11</title>
<a xlink:href="cvm-hfa-stats_8c.html#acbdfa65e476c04cd9b67b7c462eefe56" target="_top" xlink:title="This routine allocates required memory from STATS ARENA.">
<polygon fill="white" stroke="black" points="416.5,-928.5 416.5,-949.5 545.5,-949.5 545.5,-928.5 416.5,-928.5"/>
<text text-anchor="middle" x="481" y="-936.5" font-family="FreeSans" font-size="10.00">hfa_stats_memoryalloc</text>
</a>
</g>
<!-- Node9&#45;&gt;Node11 -->
<g id="edge20" class="edge"><title>Node9&#45;&gt;Node11</title>
<path fill="none" stroke="midnightblue" d="M342.166,-939C361.903,-939 384.871,-939 406.378,-939"/>
<polygon fill="midnightblue" stroke="midnightblue" points="406.468,-942.5 416.468,-939 406.468,-935.5 406.468,-942.5"/>
</g>
<!-- Node12 -->
<g id="node23" class="node"><title>Node12</title>
<a xlink:href="cvm-hfa-stats_8c.html#a7a2acbe48c3850d43256938ee996aa16" target="_top" xlink:title="This routine frees memory to STATS ARENA.">
<polygon fill="white" stroke="black" points="418.5,-888.5 418.5,-909.5 543.5,-909.5 543.5,-888.5 418.5,-888.5"/>
<text text-anchor="middle" x="481" y="-896.5" font-family="FreeSans" font-size="10.00">hfa_stats_memoryfree</text>
</a>
</g>
<!-- Node9&#45;&gt;Node12 -->
<g id="edge22" class="edge"><title>Node9&#45;&gt;Node12</title>
<path fill="none" stroke="midnightblue" d="M340.92,-928.49C365.477,-923.321 395.266,-917.049 421.049,-911.621"/>
<polygon fill="midnightblue" stroke="midnightblue" points="422.019,-914.994 431.084,-909.509 420.577,-908.144 422.019,-914.994"/>
</g>
<!-- Node16 -->
<g id="node31" class="node"><title>Node16</title>
<a xlink:href="pp_8h.html#a9e7b310f36183e66e8880a57028cb670" target="_top" xlink:title="Constructs a readable extended version string for the PP library.">
<polygon fill="white" stroke="black" points="412.5,-828.5 412.5,-849.5 549.5,-849.5 549.5,-828.5 412.5,-828.5"/>
<text text-anchor="middle" x="481" y="-836.5" font-family="FreeSans" font-size="10.00">pp_get_version_string_ex</text>
</a>
</g>
<!-- Node15&#45;&gt;Node16 -->
<g id="edge30" class="edge"><title>Node15&#45;&gt;Node16</title>
<path fill="none" stroke="midnightblue" d="M349.557,-825.164C366.145,-826.91 384.482,-828.84 402.062,-830.691"/>
<polygon fill="midnightblue" stroke="midnightblue" points="401.996,-834.203 412.307,-831.769 402.728,-827.241 401.996,-834.203"/>
</g>
<!-- Node17 -->
<g id="node33" class="node"><title>Node17</title>
<a xlink:href="cvmx-hfa_8c.html#a04d071e03c6b4ceee5c1f527b34de173" target="_top" xlink:title="Given the chip processor ID from COP0, this function returns a string representing the chip model num...">
<polygon fill="white" stroke="black" points="418,-776 418,-810 544,-810 544,-776 418,-776"/>
<text text-anchor="start" x="426" y="-797" font-family="FreeSans" font-size="10.00">hfa_octeon_model_get</text>
<text text-anchor="middle" x="481" y="-784" font-family="FreeSans" font-size="10.00">_string</text>
</a>
</g>
<!-- Node15&#45;&gt;Node17 -->
<g id="edge32" class="edge"><title>Node15&#45;&gt;Node17</title>
<path fill="none" stroke="midnightblue" d="M349.557,-810.987C367.941,-808.471 388.472,-805.662 407.742,-803.025"/>
<polygon fill="midnightblue" stroke="midnightblue" points="408.252,-806.488 417.685,-801.664 407.303,-799.552 408.252,-806.488"/>
</g>
<!-- Node33 -->
<g id="node65" class="node"><title>Node33</title>
<a xlink:href="cvm-hfa-graph_8c.html#a80a6427d5a90c7bd1e4cbfd62a808524" target="_top" xlink:title="This routine initializes a graph object which can be used to perform various operations on a graph fi...">
<polygon fill="white" stroke="black" points="237.5,-200.5 237.5,-221.5 344.5,-221.5 344.5,-200.5 237.5,-200.5"/>
<text text-anchor="middle" x="291" y="-208.5" font-family="FreeSans" font-size="10.00">hfa_dev_graph_init</text>
</a>
</g>
<!-- Node32&#45;&gt;Node33 -->
<g id="edge64" class="edge"><title>Node32&#45;&gt;Node33</title>
<path fill="none" stroke="midnightblue" d="M156.777,-246.496C172.173,-241.548 190.973,-235.713 208,-231 216.707,-228.59 225.973,-226.194 235.039,-223.942"/>
<polygon fill="midnightblue" stroke="midnightblue" points="235.881,-227.339 244.761,-221.56 234.215,-220.54 235.881,-227.339"/>
</g>
<!-- Node34 -->
<g id="node67" class="node"><title>Node34</title>
<a xlink:href="cvm-hfa-graph_8c.html#a32df4a93ffcd7da232613b13204b2a80" target="_top" xlink:title="This routine sets the cluster&#45;mask for the graph.">
<polygon fill="white" stroke="black" points="232.5,-160.5 232.5,-181.5 349.5,-181.5 349.5,-160.5 232.5,-160.5"/>
<text text-anchor="middle" x="291" y="-168.5" font-family="FreeSans" font-size="10.00">hfa_graph_setcluster</text>
</a>
</g>
<!-- Node32&#45;&gt;Node34 -->
<g id="edge66" class="edge"><title>Node32&#45;&gt;Node34</title>
<path fill="none" stroke="midnightblue" d="M135.219,-246.356C149.928,-231.668 178.551,-205.375 208,-191 212.828,-188.643 217.954,-186.552 223.195,-184.7"/>
<polygon fill="midnightblue" stroke="midnightblue" points="224.28,-188.028 232.715,-181.617 222.123,-181.368 224.28,-188.028"/>
</g>
<!-- Node35 -->
<g id="node69" class="node"><title>Node35</title>
<a xlink:href="app-utils_8c.html#aed95bb72627cff313c596ebcfcd8af61" target="_top" xlink:title="Parse graph into chunks and load graph to HFA memory.">
<polygon fill="white" stroke="red" points="223.5,-330.5 223.5,-351.5 358.5,-351.5 358.5,-330.5 223.5,-330.5"/>
<text text-anchor="middle" x="291" y="-338.5" font-family="FreeSans" font-size="10.00">hfautils_download_graph</text>
</a>
</g>
<!-- Node32&#45;&gt;Node35 -->
<g id="edge68" class="edge"><title>Node32&#45;&gt;Node35</title>
<path fill="none" stroke="midnightblue" d="M137.123,-267.57C152.609,-280.592 180.689,-302.629 208,-316 217.022,-320.417 226.982,-324.23 236.778,-327.454"/>
<polygon fill="midnightblue" stroke="midnightblue" points="235.889,-330.843 246.478,-330.482 237.975,-324.161 235.889,-330.843"/>
</g>
<!-- Node37 -->
<g id="node73" class="node"><title>Node37</title>
<a xlink:href="cvm-hfa-graph_8c.html#a0f2f13fb51e5d56dcf049ff3c7c6ad78" target="_top" xlink:title="This routine is used to check the status of the graph.">
<polygon fill="white" stroke="red" points="588,-301.5 588,-322.5 702,-322.5 702,-301.5 588,-301.5"/>
<text text-anchor="middle" x="645" y="-309.5" font-family="FreeSans" font-size="10.00">hfa_graph_getstatus</text>
</a>
</g>
<!-- Node32&#45;&gt;Node37 -->
<g id="edge78" class="edge"><title>Node32&#45;&gt;Node37</title>
<path fill="none" stroke="midnightblue" d="M129.504,-267.541C139.674,-289.798 166.787,-341.162 208,-361 276.88,-394.155 477.792,-379.354 552,-361 577.496,-354.694 603.717,-339.993 621.79,-328.328"/>
<polygon fill="midnightblue" stroke="midnightblue" points="624.064,-331.019 630.451,-322.565 620.187,-325.191 624.064,-331.019"/>
</g>
<!-- Node38 -->
<g id="node76" class="node"><title>Node38</title>
<a xlink:href="cvm-hfa-graph_8c.html#aa296e0c6b36b3d5b4f8e01c2fe765bed" target="_top" xlink:title="This routine is used to cacheload a cacheable graph in a non&#45;blocking manner.">
<polygon fill="white" stroke="red" points="231,-240 231,-274 351,-274 351,-240 231,-240"/>
<text text-anchor="start" x="239" y="-261" font-family="FreeSans" font-size="10.00">hfa_graph_cacheload</text>
<text text-anchor="middle" x="291" y="-248" font-family="FreeSans" font-size="10.00">_async</text>
</a>
</g>
<!-- Node32&#45;&gt;Node38 -->
<g id="edge76" class="edge"><title>Node32&#45;&gt;Node38</title>
<path fill="none" stroke="midnightblue" d="M159.799,-257C177.447,-257 199.543,-257 220.543,-257"/>
<polygon fill="midnightblue" stroke="midnightblue" points="220.74,-260.5 230.74,-257 220.74,-253.5 220.74,-260.5"/>
</g>
<!-- Node39 -->
<g id="node79" class="node"><title>Node39</title>
<a xlink:href="cvm-hfa-graph_8c.html#a5e79919f5903d97aee5e82bfc7e71597" target="_top" xlink:title="This routine is the counterpart of hfa_dev_graph_init().">
<polygon fill="white" stroke="black" points="415,-240.5 415,-261.5 547,-261.5 547,-240.5 415,-240.5"/>
<text text-anchor="middle" x="481" y="-248.5" font-family="FreeSans" font-size="10.00">hfa_dev_graph_cleanup</text>
</a>
</g>
<!-- Node32&#45;&gt;Node39 -->
<g id="edge80" class="edge"><title>Node32&#45;&gt;Node39</title>
<path fill="none" stroke="midnightblue" d="M151.425,-267.538C167.495,-273.374 188.595,-280.032 208,-283 280.93,-294.155 301,-293.682 374,-283 397.906,-279.502 423.891,-271.827 444.267,-264.871"/>
<polygon fill="midnightblue" stroke="midnightblue" points="445.506,-268.146 453.785,-261.535 443.191,-261.54 445.506,-268.146"/>
</g>
<!-- Node36 -->
<g id="node71" class="node"><title>Node36</title>
<a xlink:href="cvm-hfa-graph_8c.html#a647ccf649077cb5170221218ab2cdccf" target="_top" xlink:title="This routine downloads graph data to the HFA engine in a non&#45;blocking manner.">
<polygon fill="white" stroke="red" points="410,-318 410,-352 552,-352 552,-318 410,-318"/>
<text text-anchor="start" x="418" y="-339" font-family="FreeSans" font-size="10.00">hfa_graph_memload_data</text>
<text text-anchor="middle" x="481" y="-326" font-family="FreeSans" font-size="10.00">_async</text>
</a>
</g>
<!-- Node35&#45;&gt;Node36 -->
<g id="edge70" class="edge"><title>Node35&#45;&gt;Node36</title>
<path fill="none" stroke="midnightblue" d="M358.522,-338.868C371.781,-338.449 385.822,-338.006 399.484,-337.574"/>
<polygon fill="midnightblue" stroke="midnightblue" points="399.953,-341.061 409.837,-337.247 399.732,-334.065 399.953,-341.061"/>
</g>
<!-- Node35&#45;&gt;Node37 -->
<g id="edge74" class="edge"><title>Node35&#45;&gt;Node37</title>
<path fill="none" stroke="midnightblue" d="M321.371,-330.46C345.154,-322.789 379.246,-313.063 410,-309 472.567,-300.734 488.897,-307.982 552,-309 560.359,-309.135 569.138,-309.338 577.827,-309.576"/>
<polygon fill="midnightblue" stroke="midnightblue" points="577.858,-313.078 587.955,-309.869 578.06,-306.081 577.858,-313.078"/>
</g>
<!-- Node36&#45;&gt;Node37 -->
<g id="edge72" class="edge"><title>Node36&#45;&gt;Node37</title>
<path fill="none" stroke="midnightblue" d="M552.456,-324.979C560.802,-323.808 569.296,-322.617 577.584,-321.455"/>
<polygon fill="midnightblue" stroke="midnightblue" points="578.152,-324.909 587.569,-320.054 577.18,-317.977 578.152,-324.909"/>
</g>
<!-- Node41 -->
<g id="node83" class="node"><title>Node41</title>
<a xlink:href="hfa-lnx-nctx-lock_8c.html#a524accbd3a8024ee7cc3254698dbd8e3" target="_top" xlink:title="Parse through global linked list and cleanup each search node.">
<polygon fill="white" stroke="red" points="436.5,-120.5 436.5,-141.5 525.5,-141.5 525.5,-120.5 436.5,-120.5"/>
<text text-anchor="middle" x="481" y="-128.5" font-family="FreeSans" font-size="10.00">snode_cleanup</text>
</a>
</g>
<!-- Node40&#45;&gt;Node41 -->
<g id="edge84" class="edge"><title>Node40&#45;&gt;Node41</title>
<path fill="none" stroke="midnightblue" d="M340.92,-101.51C367.146,-107.031 399.339,-113.808 426.247,-119.473"/>
<polygon fill="midnightblue" stroke="midnightblue" points="425.771,-122.949 436.277,-121.585 427.213,-116.1 425.771,-122.949"/>
</g>
<!-- Node42 -->
<g id="node85" class="node"><title>Node42</title>
<a xlink:href="cvm-hfa-search_8c.html#a64ba7a41c7d677da10e588a58789015b" target="_top" xlink:title="This routine initializes a Search Context.">
<polygon fill="white" stroke="red" points="417.5,-40.5 417.5,-61.5 544.5,-61.5 544.5,-40.5 417.5,-40.5"/>
<text text-anchor="middle" x="481" y="-48.5" font-family="FreeSans" font-size="10.00">hfa_dev_searchctx_init</text>
</a>
</g>
<!-- Node40&#45;&gt;Node42 -->
<g id="edge86" class="edge"><title>Node40&#45;&gt;Node42</title>
<path fill="none" stroke="midnightblue" d="M340.92,-80.4905C365.477,-75.3205 395.266,-69.0492 421.049,-63.6212"/>
<polygon fill="midnightblue" stroke="midnightblue" points="422.019,-66.9938 431.084,-61.5087 420.577,-60.144 422.019,-66.9938"/>
</g>
<!-- Node43 -->
<g id="node87" class="node"><title>Node43</title>
<a xlink:href="cvm-hfa-search_8c.html#a954753c0e6f4a59599d05f1262a25b38" target="_top" xlink:title="This routine associates a graph with sctx.">
<polygon fill="white" stroke="red" points="415,-0.5 415,-21.5 547,-21.5 547,-0.5 415,-0.5"/>
<text text-anchor="middle" x="481" y="-8.5" font-family="FreeSans" font-size="10.00">hfa_searchctx_setgraph</text>
</a>
</g>
<!-- Node40&#45;&gt;Node43 -->
<g id="edge88" class="edge"><title>Node40&#45;&gt;Node43</title>
<path fill="none" stroke="midnightblue" d="M340.739,-84.1321C352.185,-81.1909 363.94,-76.9923 374,-71 394.548,-58.7602 389.689,-43.6292 410,-31 413.331,-28.9291 416.88,-27.0675 420.549,-25.3947"/>
<polygon fill="midnightblue" stroke="midnightblue" points="421.91,-28.6199 429.857,-21.6139 419.275,-22.1345 421.91,-28.6199"/>
</g>
<!-- Node44 -->
<g id="node89" class="node"><title>Node44</title>
<a xlink:href="cvm-hfa-search_8c.html#a60c8025118f6a47f924733e47db8c77d" target="_top" xlink:title="This routine is used to specify settings used during the search and getmatches API.">
<polygon fill="white" stroke="red" points="417,-80.5 417,-101.5 545,-101.5 545,-80.5 417,-80.5"/>
<text text-anchor="middle" x="481" y="-88.5" font-family="FreeSans" font-size="10.00">hfa_searchctx_setflags</text>
</a>
</g>
<!-- Node40&#45;&gt;Node44 -->
<g id="edge90" class="edge"><title>Node40&#45;&gt;Node44</title>
<path fill="none" stroke="midnightblue" d="M340.92,-91C361.038,-91 384.668,-91 406.729,-91"/>
<polygon fill="midnightblue" stroke="midnightblue" points="406.737,-94.5001 416.737,-91 406.737,-87.5001 406.737,-94.5001"/>
</g>
<!-- Node46 -->
<g id="node93" class="node"><title>Node46</title>
<a xlink:href="hfa-lnx-async_8c.html#a972f8b60ef804914c009c2ef85bac50e" target="_top" xlink:title="Process search for given payload and graph.">
<polygon fill="white" stroke="red" points="245,-40.5 245,-61.5 337,-61.5 337,-40.5 245,-40.5"/>
<text text-anchor="middle" x="291" y="-48.5" font-family="FreeSans" font-size="10.00">process_search</text>
</a>
</g>
<!-- Node45&#45;&gt;Node46 -->
<g id="edge94" class="edge"><title>Node45&#45;&gt;Node46</title>
<path fill="none" stroke="midnightblue" d="M168.615,-80.4905C189.69,-75.412 215.176,-69.2708 237.423,-63.9102"/>
<polygon fill="midnightblue" stroke="midnightblue" points="238.487,-67.254 247.389,-61.5087 236.847,-60.4488 238.487,-67.254"/>
</g>
<!-- Node46&#45;&gt;Node42 -->
<g id="edge96" class="edge"><title>Node46&#45;&gt;Node42</title>
<path fill="none" stroke="midnightblue" d="M337.479,-51C358.438,-51 383.703,-51 407.155,-51"/>
<polygon fill="midnightblue" stroke="midnightblue" points="407.428,-54.5001 417.428,-51 407.428,-47.5001 407.428,-54.5001"/>
</g>
<!-- Node46&#45;&gt;Node43 -->
<g id="edge98" class="edge"><title>Node46&#45;&gt;Node43</title>
<path fill="none" stroke="midnightblue" d="M337.479,-41.2149C362.613,-35.9236 393.94,-29.3285 420.908,-23.651"/>
<polygon fill="midnightblue" stroke="midnightblue" points="421.943,-27.0098 431.008,-21.5246 420.501,-20.1599 421.943,-27.0098"/>
</g>
<!-- Node46&#45;&gt;Node44 -->
<g id="edge100" class="edge"><title>Node46&#45;&gt;Node44</title>
<path fill="none" stroke="midnightblue" d="M337.479,-60.7851C362.613,-66.0764 393.94,-72.6715 420.908,-78.349"/>
<polygon fill="midnightblue" stroke="midnightblue" points="420.501,-81.8401 431.008,-80.4754 421.943,-74.9902 420.501,-81.8401"/>
</g>
<!-- Node47&#45;&gt;Node46 -->
<g id="edge104" class="edge"><title>Node47&#45;&gt;Node46</title>
<path fill="none" stroke="midnightblue" d="M171.24,-51C190.855,-51 213.901,-51 234.511,-51"/>
<polygon fill="midnightblue" stroke="midnightblue" points="234.72,-54.5001 244.72,-51 234.72,-47.5001 234.72,-54.5001"/>
</g>
<!-- Node48&#45;&gt;Node39 -->
<g id="edge114" class="edge"><title>Node48&#45;&gt;Node39</title>
<path fill="none" stroke="midnightblue" d="M318.385,-131.583C336.026,-133.294 358.481,-138.134 374,-151 404.016,-175.884 380.464,-205.548 410,-231 411.952,-232.682 414.037,-234.224 416.22,-235.636"/>
<polygon fill="midnightblue" stroke="midnightblue" points="414.608,-238.744 425.062,-240.468 417.965,-232.601 414.608,-238.744"/>
</g>
<!-- Node48&#45;&gt;Node41 -->
<g id="edge108" class="edge"><title>Node48&#45;&gt;Node41</title>
<path fill="none" stroke="midnightblue" d="M318.222,-131C346.24,-131 390.669,-131 426.036,-131"/>
<polygon fill="midnightblue" stroke="midnightblue" points="426.221,-134.5 436.221,-131 426.221,-127.5 426.221,-134.5"/>
</g>
<!-- Node49 -->
<g id="node104" class="node"><title>Node49</title>
<a xlink:href="cvm-hfa-graph_8c.html#aa4ce7845277b4b3099159bbd7afd5c08" target="_top" xlink:title="This routine is used to cacheunload a cacheload&#39;ed graph in a non&#45;blocking manner.">
<polygon fill="white" stroke="red" points="415,-200.5 415,-221.5 547,-221.5 547,-200.5 415,-200.5"/>
<text text-anchor="middle" x="481" y="-208.5" font-family="FreeSans" font-size="10.00">hfa_graph_cacheunload</text>
</a>
</g>
<!-- Node48&#45;&gt;Node49 -->
<g id="edge110" class="edge"><title>Node48&#45;&gt;Node49</title>
<path fill="none" stroke="midnightblue" d="M318.34,-133.428C335.322,-135.907 357.063,-140.912 374,-151 394.548,-163.24 389.689,-178.371 410,-191 413.331,-193.071 416.88,-194.932 420.549,-196.605"/>
<polygon fill="midnightblue" stroke="midnightblue" points="419.275,-199.866 429.857,-200.386 421.91,-193.38 419.275,-199.866"/>
</g>
<!-- Node50 -->
<g id="node108" class="node"><title>Node50</title>
<a xlink:href="cvm-hfa_8c.html#af14bebdd444bd0bf92faac9d5d88b492" target="_top" xlink:title="This function is called by application to cleanup all resources configured for HFA device and then sh...">
<polygon fill="white" stroke="red" points="431.5,-160.5 431.5,-181.5 530.5,-181.5 530.5,-160.5 431.5,-160.5"/>
<text text-anchor="middle" x="481" y="-168.5" font-family="FreeSans" font-size="10.00">hfa_dev_cleanup</text>
</a>
</g>
<!-- Node48&#45;&gt;Node50 -->
<g id="edge116" class="edge"><title>Node48&#45;&gt;Node50</title>
<path fill="none" stroke="midnightblue" d="M318.222,-136.731C345.026,-142.374 386.849,-151.179 421.39,-158.45"/>
<polygon fill="midnightblue" stroke="midnightblue" points="420.878,-161.919 431.384,-160.555 422.32,-155.069 420.878,-161.919"/>
</g>
<!-- Node49&#45;&gt;Node37 -->
<g id="edge112" class="edge"><title>Node49&#45;&gt;Node37</title>
<path fill="none" stroke="midnightblue" d="M529.49,-221.544C537.249,-224.105 545.015,-227.224 552,-231 582.381,-247.423 611.397,-275.306 628.708,-293.689"/>
<polygon fill="midnightblue" stroke="midnightblue" points="626.452,-296.406 635.801,-301.391 631.601,-291.664 626.452,-296.406"/>
</g>
</g>
</svg>
        <g id="navigator" transform="translate(0 0)" fill="#404254">
                <rect fill="#f2f5e9" fill-opacity="0.5" stroke="#606060" stroke-width=".5" x="0" y="0" width="60" height="60"/>
                <use id="zoomplus" xlink:href="#zoomPlus" x="17" y="9" onmousedown="handleZoom(evt,'in')"/>
                <use id="zoomminus" xlink:href="#zoomMin" x="42" y="9" onmousedown="handleZoom(evt,'out')"/>
                <use id="reset" xlink:href="#resetDef" x="30" y="36" onmousedown="handleReset()"/>
                <g id="arrowUp" xlink:href="#dirArrow" transform="translate(30 24)" onmousedown="handlePan(0,-1)">
                  <use xlink:href="#rim" fill="#404040">
                        <set attributeName="fill" to="#808080" begin="arrowUp.mouseover" end="arrowUp.mouseout"/>
                  </use>
                  <path fill="none" stroke="white" stroke-width="1.5" d="M0,-3.0v7 M-2.5,-0.5L0,-3.0L2.5,-0.5"/>
                </g>
                <g id="arrowRight" xlink:href="#dirArrow" transform="rotate(90) translate(36 -43)" onmousedown="handlePan(1,0)">
                  <use xlink:href="#rim" fill="#404040">
                        <set attributeName="fill" to="#808080" begin="arrowRight.mouseover" end="arrowRight.mouseout"/>
                  </use>
                  <path fill="none" stroke="white" stroke-width="1.5" d="M0,-3.0v7 M-2.5,-0.5L0,-3.0L2.5,-0.5"/>
                </g>
                <g id="arrowDown" xlink:href="#dirArrow" transform="rotate(180) translate(-30 -48)" onmousedown="handlePan(0,1)">
                  <use xlink:href="#rim" fill="#404040">
                        <set attributeName="fill" to="#808080" begin="arrowDown.mouseover" end="arrowDown.mouseout"/>
                  </use>
                  <path fill="none" stroke="white" stroke-width="1.5" d="M0,-3.0v7 M-2.5,-0.5L0,-3.0L2.5,-0.5"/>
                </g>
                <g id="arrowLeft" xlink:href="#dirArrow" transform="rotate(270) translate(-36 17)" onmousedown="handlePan(-1,0)">
                  <use xlink:href="#rim" fill="#404040">
                        <set attributeName="fill" to="#808080" begin="arrowLeft.mouseover" end="arrowLeft.mouseout"/>
                  </use>
                  <path fill="none" stroke="white" stroke-width="1.5" d="M0,-3.0v7 M-2.5,-0.5L0,-3.0L2.5,-0.5"/>
                </g>
        </g>
        <svg viewBox="0 0 15 15" width="100%" height="30px" preserveAspectRatio="xMaxYMin meet">
         <g id="arrow_out" transform="scale(0.3 0.3)">
          <a xlink:href="hfa-lnx-nctx-lock_8c_a78ffddbcd7cdd164889cfb53ea367886_cgraph_org.svg" target="_base">
           <rect id="button" ry="5" rx="5" y="6" x="6" height="38" width="38"
                fill="#f2f5e9" fill-opacity="0.5" stroke="#606060" stroke-width="1.0"/>
           <path id="arrow"
             d="M 11.500037,31.436501 C 11.940474,20.09759 22.043105,11.32322 32.158766,21.979434 L 37.068811,17.246167 C 37.068811,17.246167 37.088388,32 37.088388,32 L 22.160133,31.978069 C 22.160133,31.978069 26.997745,27.140456 26.997745,27.140456 C 18.528582,18.264221 13.291696,25.230495 11.500037,31.436501 z"
             style="fill:#404040;"/>
          </a>
         </g>
        </svg>
</svg>
