<?xml version="1.0" encoding="UTF-8" standalone="no"?>
<!DOCTYPE svg PUBLIC "-//W3C//DTD SVG 1.1//EN"
 "http://www.w3.org/Graphics/SVG/1.1/DTD/svg11.dtd">
<!-- Generated by graphviz version 2.24.0 (20090616.2323)
 -->
<!-- Title: cleanup Pages: 1 -->
<!--zoomable 510 -->
<svg id="main" version="1.1" xmlns="http://www.w3.org/2000/svg" xmlns:xlink="http://www.w3.org/1999/xlink" xml:space="preserve" onload="init(evt)">
        <defs>
                <circle id="rim" cx="0" cy="0" r="7"/>
                <circle id="rim2" cx="0" cy="0" r="3.5"/>
                <g id="zoomPlus">
                        <use xlink:href="#rim" fill="#404040">
                                <set attributeName="fill" to="#808080" begin="zoomplus.mouseover" end="zoomplus.mouseout"/>
                        </use>
                        <path d="M-4,0h8M0,-4v8" fill="none" stroke="white" stroke-width="1.5" pointer-events="none"/>
                </g>
                <g id="zoomMin">
                        <use xlink:href="#rim" fill="#404040">
                                <set attributeName="fill" to="#808080" begin="zoomminus.mouseover" end="zoomminus.mouseout"/>
                        </use>
                        <path d="M-4,0h8" fill="none" stroke="white" stroke-width="1.5" pointer-events="none"/>
                </g>
                <g id="dirArrow">
                        <path fill="none" stroke="white" stroke-width="1.5" d="M0,-3.0v7 M-2.5,-0.5L0,-3.0L2.5,-0.5"/>
                </g>
               <g id="resetDef">
                       <use xlink:href="#rim2" fill="#404040">
                               <set attributeName="fill" to="#808080" begin="reset.mouseover" end="reset.mouseout"/>
                       </use>
               </g>
        </defs>

<script type="text/javascript">
var viewWidth = 756;
var viewHeight = 510;
var sectionId = 'dynsection-1';
</script>
<script xlink:href="svgpan.js"/>
<svg id="graph" class="graph">
<g id="viewport">
<title>cleanup</title>
<polygon fill="white" stroke="white" points="-4,5 -4,-506 753,-506 753,5 -4,5"/>
<!-- Node1 -->
<g id="node1" class="node"><title>Node1</title>
<polygon fill="#bfbfbf" stroke="black" points="0,-80.5 0,-101.5 54,-101.5 54,-80.5 0,-80.5"/>
<text text-anchor="middle" x="27" y="-88.5" font-family="FreeSans" font-size="10.00">cleanup</text>
</g>
<!-- Node2 -->
<g id="node3" class="node"><title>Node2</title>
<a xlink:href="app-utils_8c.html#a1f92c93fe820ec9fc9f4d8e993883b05" target="_top" xlink:title="This routine is counter part of hfautils_init_payload_attributes().">
<polygon fill="white" stroke="black" points="90,-160 90,-194 228,-194 228,-160 90,-160"/>
<text text-anchor="start" x="98" y="-181" font-family="FreeSans" font-size="10.00">hfautils_cleanup_payload</text>
<text text-anchor="middle" x="159" y="-168" font-family="FreeSans" font-size="10.00">_attributes</text>
</a>
</g>
<!-- Node1&#45;&gt;Node2 -->
<g id="edge2" class="edge"><title>Node1&#45;&gt;Node2</title>
<path fill="none" stroke="midnightblue" d="M35.7911,-101.678C47.1223,-114.849 67.9985,-137.185 90,-151 92.4393,-152.532 94.9828,-153.995 97.5934,-155.39"/>
<polygon fill="midnightblue" stroke="midnightblue" points="96.1573,-158.584 106.674,-159.871 99.2549,-152.307 96.1573,-158.584"/>
</g>
<!-- Node3 -->
<g id="node5" class="node"><title>Node3</title>
<a xlink:href="cvm-hfa-graph_8c.html#aa4ce7845277b4b3099159bbd7afd5c08" target="_top" xlink:title="This routine is used to cacheunload a cacheload&#39;ed graph in a non&#45;blocking manner.">
<polygon fill="white" stroke="black" points="93,-120.5 93,-141.5 225,-141.5 225,-120.5 93,-120.5"/>
<text text-anchor="middle" x="159" y="-128.5" font-family="FreeSans" font-size="10.00">hfa_graph_cacheunload</text>
</a>
</g>
<!-- Node1&#45;&gt;Node3 -->
<g id="edge4" class="edge"><title>Node1&#45;&gt;Node3</title>
<path fill="none" stroke="midnightblue" d="M54.242,-99.8137C65.3173,-103.354 78.2509,-107.433 90,-111 97.2193,-113.192 104.88,-115.465 112.369,-117.658"/>
<polygon fill="midnightblue" stroke="midnightblue" points="111.486,-121.046 122.065,-120.481 113.443,-114.325 111.486,-121.046"/>
</g>
<!-- Node21 -->
<g id="node41" class="node"><title>Node21</title>
<a xlink:href="cvm-hfa-graph_8c.html#a5e79919f5903d97aee5e82bfc7e71597" target="_top" xlink:title="This routine is the counterpart of hfa_dev_graph_init().">
<polygon fill="white" stroke="black" points="93,-80.5 93,-101.5 225,-101.5 225,-80.5 93,-80.5"/>
<text text-anchor="middle" x="159" y="-88.5" font-family="FreeSans" font-size="10.00">hfa_dev_graph_cleanup</text>
</a>
</g>
<!-- Node1&#45;&gt;Node21 -->
<g id="edge40" class="edge"><title>Node1&#45;&gt;Node21</title>
<path fill="none" stroke="midnightblue" d="M54.0307,-91C62.5162,-91 72.3406,-91 82.5058,-91"/>
<polygon fill="midnightblue" stroke="midnightblue" points="82.7478,-94.5001 92.7477,-91 82.7477,-87.5001 82.7478,-94.5001"/>
</g>
<!-- Node22 -->
<g id="node43" class="node"><title>Node22</title>
<a xlink:href="cvm-hfa_8c.html#af14bebdd444bd0bf92faac9d5d88b492" target="_top" xlink:title="This function is called by application to cleanup all resources configured for HFA device and then sh...">
<polygon fill="white" stroke="black" points="109.5,-40.5 109.5,-61.5 208.5,-61.5 208.5,-40.5 109.5,-40.5"/>
<text text-anchor="middle" x="159" y="-48.5" font-family="FreeSans" font-size="10.00">hfa_dev_cleanup</text>
</a>
</g>
<!-- Node1&#45;&gt;Node22 -->
<g id="edge42" class="edge"><title>Node1&#45;&gt;Node22</title>
<path fill="none" stroke="midnightblue" d="M54.242,-82.1863C65.3173,-78.6463 78.2509,-74.5671 90,-71 97.2193,-68.8082 104.88,-66.5355 112.369,-64.3425"/>
<polygon fill="midnightblue" stroke="midnightblue" points="113.443,-67.6753 122.065,-61.519 111.486,-60.9544 113.443,-67.6753"/>
</g>
<!-- Node26 -->
<g id="node51" class="node"><title>Node26</title>
<a xlink:href="app-utils_8c.html#ac901336400f0dbebd501a1c03730b031" target="_top" xlink:title="Perform a soft reset of Octeon.">
<polygon fill="white" stroke="black" points="100,-0.5 100,-21.5 218,-21.5 218,-0.5 100,-0.5"/>
<text text-anchor="middle" x="159" y="-8.5" font-family="FreeSans" font-size="10.00">hfautils_reset_octeon</text>
</a>
</g>
<!-- Node1&#45;&gt;Node26 -->
<g id="edge50" class="edge"><title>Node1&#45;&gt;Node26</title>
<path fill="none" stroke="midnightblue" d="M35.622,-80.0403C46.7788,-66.5794 67.4751,-43.9439 90,-31 93.7105,-28.8678 97.666,-26.9478 101.734,-25.2215"/>
<polygon fill="midnightblue" stroke="midnightblue" points="103.279,-28.3781 111.368,-21.5363 100.778,-21.8401 103.279,-28.3781"/>
</g>
<!-- Node4 -->
<g id="node7" class="node"><title>Node4</title>
<a xlink:href="cvm-hfa-graph_8c.html#afb63ce4f42afc7987e6222b1c1ea91a1" target="_top" xlink:title="This routine is used to cacheunload a cacheload&#39;ed graph in a non&#45;blocking manner.">
<polygon fill="white" stroke="black" points="264,-314 264,-348 396,-348 396,-314 264,-314"/>
<text text-anchor="start" x="272" y="-335" font-family="FreeSans" font-size="10.00">hfa_graph_cacheunload</text>
<text text-anchor="middle" x="330" y="-322" font-family="FreeSans" font-size="10.00">_async</text>
</a>
</g>
<!-- Node3&#45;&gt;Node4 -->
<g id="edge6" class="edge"><title>Node3&#45;&gt;Node4</title>
<path fill="none" stroke="midnightblue" d="M211.978,-141.651C217.717,-144.14 223.205,-147.211 228,-151 279.096,-191.372 308.977,-264.839 322.065,-304.277"/>
<polygon fill="midnightblue" stroke="midnightblue" points="318.792,-305.531 325.175,-313.987 325.458,-303.396 318.792,-305.531"/>
</g>
<!-- Node14 -->
<g id="node27" class="node"><title>Node14</title>
<a xlink:href="cvm-hfa-graph_8c.html#a0f2f13fb51e5d56dcf049ff3c7c6ad78" target="_top" xlink:title="This routine is used to check the status of the graph.">
<polygon fill="white" stroke="black" points="273,-120.5 273,-141.5 387,-141.5 387,-120.5 273,-120.5"/>
<text text-anchor="middle" x="330" y="-128.5" font-family="FreeSans" font-size="10.00">hfa_graph_getstatus</text>
</a>
</g>
<!-- Node3&#45;&gt;Node14 -->
<g id="edge26" class="edge"><title>Node3&#45;&gt;Node14</title>
<path fill="none" stroke="midnightblue" d="M225.113,-131C237.448,-131 250.352,-131 262.722,-131"/>
<polygon fill="midnightblue" stroke="midnightblue" points="262.963,-134.5 272.963,-131 262.963,-127.5 262.963,-134.5"/>
</g>
<!-- Node5 -->
<g id="node9" class="node"><title>Node5</title>
<a xlink:href="cvm-hfa-instr_8h.html#acaf8def6cbffb04c100bf7f7684f242e" target="_top" xlink:title="Initialize the HFA instruction.">
<polygon fill="white" stroke="black" points="454.5,-480.5 454.5,-501.5 557.5,-501.5 557.5,-480.5 454.5,-480.5"/>
<text text-anchor="middle" x="506" y="-488.5" font-family="FreeSans" font-size="10.00">cvm_hfa_instr_init</text>
</a>
</g>
<!-- Node4&#45;&gt;Node5 -->
<g id="edge8" class="edge"><title>Node4&#45;&gt;Node5</title>
<path fill="none" stroke="midnightblue" d="M337.68,-348.13C351.893,-377.831 385.173,-438.788 432,-471 435.971,-473.732 440.3,-476.091 444.806,-478.128"/>
<polygon fill="midnightblue" stroke="midnightblue" points="443.659,-481.438 454.244,-481.874 446.241,-474.932 443.659,-481.438"/>
</g>
<!-- Node6 -->
<g id="node11" class="node"><title>Node6</title>
<a xlink:href="cvm-hfa-instr_8h.html#a2d6082e2e599fe8523162b18d0a06f6c" target="_top" xlink:title="Sets rptr in the instruction.">
<polygon fill="white" stroke="black" points="446,-440.5 446,-461.5 566,-461.5 566,-440.5 446,-440.5"/>
<text text-anchor="middle" x="506" y="-448.5" font-family="FreeSans" font-size="10.00">cvm_hfa_instr_setrptr</text>
</a>
</g>
<!-- Node4&#45;&gt;Node6 -->
<g id="edge10" class="edge"><title>Node4&#45;&gt;Node6</title>
<path fill="none" stroke="midnightblue" d="M342.859,-348.225C360.499,-370.631 394.332,-409.446 432,-431 435.873,-433.216 440.001,-435.195 444.251,-436.961"/>
<polygon fill="midnightblue" stroke="midnightblue" points="443.105,-440.269 453.697,-440.494 445.557,-433.712 443.105,-440.269"/>
</g>
<!-- Node7 -->
<g id="node13" class="node"><title>Node7</title>
<a xlink:href="cvm-hfa-instr_8h.html#a6960a0761295ada9f449ea5e8c41ec80" target="_top" xlink:title="Sets clmsk in the instruction.">
<polygon fill="white" stroke="black" points="440,-400.5 440,-421.5 572,-421.5 572,-400.5 440,-400.5"/>
<text text-anchor="middle" x="506" y="-408.5" font-family="FreeSans" font-size="10.00">cvm_hfa_instr_setclmsk</text>
</a>
</g>
<!-- Node4&#45;&gt;Node7 -->
<g id="edge12" class="edge"><title>Node4&#45;&gt;Node7</title>
<path fill="none" stroke="midnightblue" d="M354.585,-348.006C374.658,-361.252 404.158,-379.299 432,-391 437.716,-393.402 443.803,-395.593 449.937,-397.569"/>
<polygon fill="midnightblue" stroke="midnightblue" points="448.98,-400.936 459.566,-400.497 451.017,-394.239 448.98,-400.936"/>
</g>
<!-- Node8 -->
<g id="node15" class="node"><title>Node8</title>
<a xlink:href="cvm-hfa-instr_8h.html#add4e981377a02cd06e2bca116e584bca" target="_top" xlink:title="Sets vgid in the instruction.">
<polygon fill="white" stroke="black" points="444,-360.5 444,-381.5 568,-381.5 568,-360.5 444,-360.5"/>
<text text-anchor="middle" x="506" y="-368.5" font-family="FreeSans" font-size="10.00">cvm_hfa_instr_setvgid</text>
</a>
</g>
<!-- Node4&#45;&gt;Node8 -->
<g id="edge14" class="edge"><title>Node4&#45;&gt;Node8</title>
<path fill="none" stroke="midnightblue" d="M396.037,-346.008C413.73,-350.03 432.69,-354.339 449.797,-358.226"/>
<polygon fill="midnightblue" stroke="midnightblue" points="449.104,-361.658 459.631,-360.462 450.656,-354.832 449.104,-361.658"/>
</g>
<!-- Node9 -->
<g id="node17" class="node"><title>Node9</title>
<a xlink:href="cvm-hfa-common_8h.html#a0da7c57174fb96d75ae9cc2ed3116a05" target="_top" xlink:title="Dump buffer pointed by &quot;buf&quot; in readable format.">
<polygon fill="white" stroke="black" points="463,-320.5 463,-341.5 549,-341.5 549,-320.5 463,-320.5"/>
<text text-anchor="middle" x="506" y="-328.5" font-family="FreeSans" font-size="10.00">hfa_dump_buf</text>
</a>
</g>
<!-- Node4&#45;&gt;Node9 -->
<g id="edge16" class="edge"><title>Node4&#45;&gt;Node9</title>
<path fill="none" stroke="midnightblue" d="M396.037,-331C414.709,-331 434.79,-331 452.617,-331"/>
<polygon fill="midnightblue" stroke="midnightblue" points="452.825,-334.5 462.825,-331 452.825,-327.5 452.825,-334.5"/>
</g>
<!-- Node10 -->
<g id="node19" class="node"><title>Node10</title>
<a xlink:href="cvm-hfa-instr_8h.html#a88a92a987acac81360f3b880d013cd10" target="_top" xlink:title="Sets wqptr instruction.">
<polygon fill="white" stroke="black" points="440.5,-280.5 440.5,-301.5 571.5,-301.5 571.5,-280.5 440.5,-280.5"/>
<text text-anchor="middle" x="506" y="-288.5" font-family="FreeSans" font-size="10.00">cvm_hfa_instr_setwqptr</text>
</a>
</g>
<!-- Node4&#45;&gt;Node10 -->
<g id="edge18" class="edge"><title>Node4&#45;&gt;Node10</title>
<path fill="none" stroke="midnightblue" d="M396.037,-315.992C413.73,-311.97 432.69,-307.661 449.797,-303.774"/>
<polygon fill="midnightblue" stroke="midnightblue" points="450.656,-307.168 459.631,-301.538 449.104,-300.342 450.656,-307.168"/>
</g>
<!-- Node11 -->
<g id="node21" class="node"><title>Node11</title>
<a xlink:href="cvm-hfa-graph_8c.html#a1320f0566be0069bd604cc820a12a114" target="_top" xlink:title="This routine sets WQE field in graph data structure.">
<polygon fill="white" stroke="black" points="453.5,-240.5 453.5,-261.5 558.5,-261.5 558.5,-240.5 453.5,-240.5"/>
<text text-anchor="middle" x="506" y="-248.5" font-family="FreeSans" font-size="10.00">hfa_graph_setwqe</text>
</a>
</g>
<!-- Node4&#45;&gt;Node11 -->
<g id="edge20" class="edge"><title>Node4&#45;&gt;Node11</title>
<path fill="none" stroke="midnightblue" d="M354.585,-313.994C374.658,-300.748 404.158,-282.701 432,-271 437.716,-268.598 443.803,-266.407 449.937,-264.431"/>
<polygon fill="midnightblue" stroke="midnightblue" points="451.017,-267.761 459.566,-261.503 448.98,-261.064 451.017,-267.761"/>
</g>
<!-- Node12 -->
<g id="node23" class="node"><title>Node12</title>
<a xlink:href="cvm-hfa_8c.html#a4677d07b901d6aeb02e793c1dbdfabbf" target="_top" xlink:title="Asynchronous instruction submit to HFA hardware Do not wait for instruction to complete.">
<polygon fill="white" stroke="black" points="445,-200.5 445,-221.5 567,-221.5 567,-200.5 445,-200.5"/>
<text text-anchor="middle" x="506" y="-208.5" font-family="FreeSans" font-size="10.00">hfa_dev_submitasync</text>
</a>
</g>
<!-- Node4&#45;&gt;Node12 -->
<g id="edge22" class="edge"><title>Node4&#45;&gt;Node12</title>
<path fill="none" stroke="midnightblue" d="M342.859,-313.775C360.499,-291.369 394.332,-252.554 432,-231 435.873,-228.784 440.001,-226.805 444.251,-225.039"/>
<polygon fill="midnightblue" stroke="midnightblue" points="445.557,-228.288 453.697,-221.506 443.105,-221.731 445.557,-228.288"/>
</g>
<!-- Node13 -->
<g id="node25" class="node"><title>Node13</title>
<a xlink:href="cvmx-hfa_8c.html#a96a123c8918e83cdf914f6de1bfb4f00" target="_top" xlink:title="Submit a command to the DFA block.">
<polygon fill="white" stroke="black" points="631,-200.5 631,-221.5 733,-221.5 733,-200.5 631,-200.5"/>
<text text-anchor="middle" x="682" y="-208.5" font-family="FreeSans" font-size="10.00">cvmx_hfa_submit</text>
</a>
</g>
<!-- Node12&#45;&gt;Node13 -->
<g id="edge24" class="edge"><title>Node12&#45;&gt;Node13</title>
<path fill="none" stroke="midnightblue" d="M567.062,-211C584.491,-211 603.48,-211 620.911,-211"/>
<polygon fill="midnightblue" stroke="midnightblue" points="620.97,-214.5 630.97,-211 620.97,-207.5 620.97,-214.5"/>
</g>
<!-- Node15 -->
<g id="node29" class="node"><title>Node15</title>
<a xlink:href="cvm-hfa_8c.html#a4753d2dd586e19676b1a59dd16baaeed" target="_top" xlink:title="Obtain status of submitted insruction.">
<polygon fill="white" stroke="black" points="439.5,-160.5 439.5,-181.5 572.5,-181.5 572.5,-160.5 439.5,-160.5"/>
<text text-anchor="middle" x="506" y="-168.5" font-family="FreeSans" font-size="10.00">hfa_dev_getasyncstatus</text>
</a>
</g>
<!-- Node14&#45;&gt;Node15 -->
<g id="edge28" class="edge"><title>Node14&#45;&gt;Node15</title>
<path fill="none" stroke="midnightblue" d="M376.242,-141.51C398.788,-146.634 426.096,-152.84 449.832,-158.235"/>
<polygon fill="midnightblue" stroke="midnightblue" points="449.235,-161.688 459.762,-160.491 450.786,-154.862 449.235,-161.688"/>
</g>
<!-- Node18 -->
<g id="node35" class="node"><title>Node18</title>
<a xlink:href="cvm-hfa-instr_8h.html#aa7b5661907cf23e01fe784a70980ed4b" target="_top" xlink:title="Gets itype from RWORD0.">
<polygon fill="white" stroke="black" points="445,-120.5 445,-141.5 567,-141.5 567,-120.5 445,-120.5"/>
<text text-anchor="middle" x="506" y="-128.5" font-family="FreeSans" font-size="10.00">cvm_hfa_rslt_getitype</text>
</a>
</g>
<!-- Node14&#45;&gt;Node18 -->
<g id="edge34" class="edge"><title>Node14&#45;&gt;Node18</title>
<path fill="none" stroke="midnightblue" d="M387.142,-131C402.292,-131 418.839,-131 434.643,-131"/>
<polygon fill="midnightblue" stroke="midnightblue" points="434.899,-134.5 444.899,-131 434.899,-127.5 434.899,-134.5"/>
</g>
<!-- Node19 -->
<g id="node37" class="node"><title>Node19</title>
<a xlink:href="cvm-hfa-graph_8c.html#aa4c0667cc4f92a08c249041eb8a4ec58" target="_top" xlink:title="This routine is used to free the buffers and change the graph load status after instruction completio...">
<polygon fill="white" stroke="black" points="432.5,-80.5 432.5,-101.5 579.5,-101.5 579.5,-80.5 432.5,-80.5"/>
<text text-anchor="middle" x="506" y="-88.5" font-family="FreeSans" font-size="10.00">__hfa_graph_processstatus</text>
</a>
</g>
<!-- Node14&#45;&gt;Node19 -->
<g id="edge36" class="edge"><title>Node14&#45;&gt;Node19</title>
<path fill="none" stroke="midnightblue" d="M376.242,-120.49C398.788,-115.366 426.096,-109.16 449.832,-103.765"/>
<polygon fill="midnightblue" stroke="midnightblue" points="450.786,-107.138 459.762,-101.509 449.235,-100.312 450.786,-107.138"/>
</g>
<!-- Node16 -->
<g id="node31" class="node"><title>Node16</title>
<a xlink:href="cvm-hfa-instr_8h.html#a56f2522dcba965745a1bc239fc432dca" target="_top" xlink:title="Gets done from RWORD0.">
<polygon fill="white" stroke="black" points="620.5,-160.5 620.5,-181.5 743.5,-181.5 743.5,-160.5 620.5,-160.5"/>
<text text-anchor="middle" x="682" y="-168.5" font-family="FreeSans" font-size="10.00">cvm_hfa_rslt_getdone</text>
</a>
</g>
<!-- Node15&#45;&gt;Node16 -->
<g id="edge30" class="edge"><title>Node15&#45;&gt;Node16</title>
<path fill="none" stroke="midnightblue" d="M572.538,-171C584.782,-171 597.616,-171 610.012,-171"/>
<polygon fill="midnightblue" stroke="midnightblue" points="610.299,-174.5 620.299,-171 610.299,-167.5 610.299,-174.5"/>
</g>
<!-- Node17 -->
<g id="node33" class="node"><title>Node17</title>
<a xlink:href="cvm-hfa-instr_8h.html#a9700a50b68b6616506528eb725a8bda1" target="_top" xlink:title="Gets reason from RWORD0.">
<polygon fill="white" stroke="black" points="616.5,-120.5 616.5,-141.5 747.5,-141.5 747.5,-120.5 616.5,-120.5"/>
<text text-anchor="middle" x="682" y="-128.5" font-family="FreeSans" font-size="10.00">cvm_hfa_rslt_getreason</text>
</a>
</g>
<!-- Node15&#45;&gt;Node17 -->
<g id="edge32" class="edge"><title>Node15&#45;&gt;Node17</title>
<path fill="none" stroke="midnightblue" d="M552.242,-160.49C574.788,-155.366 602.096,-149.16 625.832,-143.765"/>
<polygon fill="midnightblue" stroke="midnightblue" points="626.786,-147.138 635.762,-141.509 625.235,-140.312 626.786,-147.138"/>
</g>
<!-- Node20 -->
<g id="node39" class="node"><title>Node20</title>
<a xlink:href="cvm-hfa-cluster_8c.html#ad8cad96579f5a310b62caaf8c166658f" target="_top" xlink:title="Returns a copy of a cluster of the HFA device.">
<polygon fill="white" stroke="black" points="637,-80.5 637,-101.5 727,-101.5 727,-80.5 637,-80.5"/>
<text text-anchor="middle" x="682" y="-88.5" font-family="FreeSans" font-size="10.00">hfa_get_cluster</text>
</a>
</g>
<!-- Node19&#45;&gt;Node20 -->
<g id="edge38" class="edge"><title>Node19&#45;&gt;Node20</title>
<path fill="none" stroke="midnightblue" d="M579.62,-91C595.386,-91 611.785,-91 626.719,-91"/>
<polygon fill="midnightblue" stroke="midnightblue" points="626.797,-94.5001 636.797,-91 626.797,-87.5001 626.797,-94.5001"/>
</g>
<!-- Node23 -->
<g id="node45" class="node"><title>Node23</title>
<a xlink:href="cvm-hfa-stats_8c.html#ad6d5ab096d9d84d2b2f52bd551443592" target="_top" xlink:title="This routine is the counterpart of hfa_dev_init_stats().">
<polygon fill="white" stroke="black" points="267,-40.5 267,-61.5 393,-61.5 393,-40.5 267,-40.5"/>
<text text-anchor="middle" x="330" y="-48.5" font-family="FreeSans" font-size="10.00">hfa_dev_stats_cleanup</text>
</a>
</g>
<!-- Node22&#45;&gt;Node23 -->
<g id="edge44" class="edge"><title>Node22&#45;&gt;Node23</title>
<path fill="none" stroke="midnightblue" d="M208.92,-51C223.799,-51 240.429,-51 256.483,-51"/>
<polygon fill="midnightblue" stroke="midnightblue" points="256.926,-54.5001 266.926,-51 256.925,-47.5001 256.926,-54.5001"/>
</g>
<!-- Node25 -->
<g id="node49" class="node"><title>Node25</title>
<a xlink:href="cvm-hfa-stats_8c.html#a75504ae5d9797d314ee11704fc86cdb1" target="_top" xlink:title="This routine prints statistics of each core.">
<polygon fill="white" stroke="black" points="275.5,-0.5 275.5,-21.5 384.5,-21.5 384.5,-0.5 275.5,-0.5"/>
<text text-anchor="middle" x="330" y="-8.5" font-family="FreeSans" font-size="10.00">hfa_dev_stats_print</text>
</a>
</g>
<!-- Node22&#45;&gt;Node25 -->
<g id="edge48" class="edge"><title>Node22&#45;&gt;Node25</title>
<path fill="none" stroke="midnightblue" d="M203.928,-40.4905C225.736,-35.3892 252.129,-29.2155 275.119,-23.8378"/>
<polygon fill="midnightblue" stroke="midnightblue" points="276.135,-27.1945 285.075,-21.5087 274.541,-20.3785 276.135,-27.1945"/>
</g>
<!-- Node24 -->
<g id="node47" class="node"><title>Node24</title>
<a xlink:href="cvm-hfa-stats_8c.html#a7a2acbe48c3850d43256938ee996aa16" target="_top" xlink:title="This routine frees memory to STATS ARENA.">
<polygon fill="white" stroke="black" points="443.5,-40.5 443.5,-61.5 568.5,-61.5 568.5,-40.5 443.5,-40.5"/>
<text text-anchor="middle" x="506" y="-48.5" font-family="FreeSans" font-size="10.00">hfa_stats_memoryfree</text>
</a>
</g>
<!-- Node23&#45;&gt;Node24 -->
<g id="edge46" class="edge"><title>Node23&#45;&gt;Node24</title>
<path fill="none" stroke="midnightblue" d="M393.043,-51C406.091,-51 419.936,-51 433.296,-51"/>
<polygon fill="midnightblue" stroke="midnightblue" points="433.397,-54.5001 443.397,-51 433.397,-47.5001 433.397,-54.5001"/>
</g>
</g>
</svg>
        <g id="navigator" transform="translate(0 0)" fill="#404254">
                <rect fill="#f2f5e9" fill-opacity="0.5" stroke="#606060" stroke-width=".5" x="0" y="0" width="60" height="60"/>
                <use id="zoomplus" xlink:href="#zoomPlus" x="17" y="9" onmousedown="handleZoom(evt,'in')"/>
                <use id="zoomminus" xlink:href="#zoomMin" x="42" y="9" onmousedown="handleZoom(evt,'out')"/>
                <use id="reset" xlink:href="#resetDef" x="30" y="36" onmousedown="handleReset()"/>
                <g id="arrowUp" xlink:href="#dirArrow" transform="translate(30 24)" onmousedown="handlePan(0,-1)">
                  <use xlink:href="#rim" fill="#404040">
                        <set attributeName="fill" to="#808080" begin="arrowUp.mouseover" end="arrowUp.mouseout"/>
                  </use>
                  <path fill="none" stroke="white" stroke-width="1.5" d="M0,-3.0v7 M-2.5,-0.5L0,-3.0L2.5,-0.5"/>
                </g>
                <g id="arrowRight" xlink:href="#dirArrow" transform="rotate(90) translate(36 -43)" onmousedown="handlePan(1,0)">
                  <use xlink:href="#rim" fill="#404040">
                        <set attributeName="fill" to="#808080" begin="arrowRight.mouseover" end="arrowRight.mouseout"/>
                  </use>
                  <path fill="none" stroke="white" stroke-width="1.5" d="M0,-3.0v7 M-2.5,-0.5L0,-3.0L2.5,-0.5"/>
                </g>
                <g id="arrowDown" xlink:href="#dirArrow" transform="rotate(180) translate(-30 -48)" onmousedown="handlePan(0,1)">
                  <use xlink:href="#rim" fill="#404040">
                        <set attributeName="fill" to="#808080" begin="arrowDown.mouseover" end="arrowDown.mouseout"/>
                  </use>
                  <path fill="none" stroke="white" stroke-width="1.5" d="M0,-3.0v7 M-2.5,-0.5L0,-3.0L2.5,-0.5"/>
                </g>
                <g id="arrowLeft" xlink:href="#dirArrow" transform="rotate(270) translate(-36 17)" onmousedown="handlePan(-1,0)">
                  <use xlink:href="#rim" fill="#404040">
                        <set attributeName="fill" to="#808080" begin="arrowLeft.mouseover" end="arrowLeft.mouseout"/>
                  </use>
                  <path fill="none" stroke="white" stroke-width="1.5" d="M0,-3.0v7 M-2.5,-0.5L0,-3.0L2.5,-0.5"/>
                </g>
        </g>
        <svg viewBox="0 0 15 15" width="100%" height="30px" preserveAspectRatio="xMaxYMin meet">
         <g id="arrow_out" transform="scale(0.3 0.3)">
          <a xlink:href="hfa-se-ctx_8c_acd9e54f020b77f14d54c200b65423a15_cgraph_org.svg" target="_base">
           <rect id="button" ry="5" rx="5" y="6" x="6" height="38" width="38"
                fill="#f2f5e9" fill-opacity="0.5" stroke="#606060" stroke-width="1.0"/>
           <path id="arrow"
             d="M 11.500037,31.436501 C 11.940474,20.09759 22.043105,11.32322 32.158766,21.979434 L 37.068811,17.246167 C 37.068811,17.246167 37.088388,32 37.088388,32 L 22.160133,31.978069 C 22.160133,31.978069 26.997745,27.140456 26.997745,27.140456 C 18.528582,18.264221 13.291696,25.230495 11.500037,31.436501 z"
             style="fill:#404040;"/>
          </a>
         </g>
        </svg>
</svg>
