<?xml version="1.0" encoding="UTF-8" standalone="no"?>
<!DOCTYPE svg PUBLIC "-//W3C//DTD SVG 1.1//EN"
 "http://www.w3.org/Graphics/SVG/1.1/DTD/svg11.dtd">
<!-- Generated by graphviz version 2.24.0 (20090616.2323)
 -->
<!-- Title: addsearchparam Pages: 1 -->
<svg width="416pt" height="110pt"
 viewBox="0.00 0.00 416.00 110.00" xmlns="http://www.w3.org/2000/svg" xmlns:xlink="http://www.w3.org/1999/xlink">
<g id="graph1" class="graph" transform="scale(1 1) rotate(0) translate(4 106)">
<title>addsearchparam</title>
<polygon fill="white" stroke="white" points="-4,5 -4,-106 413,-106 413,5 -4,5"/>
<!-- Node1 -->
<g id="node1" class="node"><title>Node1</title>
<polygon fill="#bfbfbf" stroke="black" points="0,-20.5 0,-41.5 98,-41.5 98,-20.5 0,-20.5"/>
<text text-anchor="middle" x="49" y="-28.5" font-family="FreeSans" font-size="10.00">addsearchparam</text>
</g>
<!-- Node2 -->
<g id="node3" class="node"><title>Node2</title>
<a xlink:href="hfa-se-ctx_8c.html#aaf2d1bda55a80b5467e3ef350c514243" target="_top" xlink:title="Process search on recieved packet wqe.">
<polygon fill="white" stroke="black" points="134,-20.5 134,-41.5 214,-41.5 214,-20.5 134,-20.5"/>
<text text-anchor="middle" x="174" y="-28.5" font-family="FreeSans" font-size="10.00">process_wqe</text>
</a>
</g>
<!-- Node1&#45;&gt;Node2 -->
<g id="edge2" class="edge"><title>Node1&#45;&gt;Node2</title>
<path fill="none" stroke="midnightblue" d="M108.207,-31C116.933,-31 125.745,-31 133.959,-31"/>
<polygon fill="midnightblue" stroke="midnightblue" points="108.045,-27.5001 98.0445,-31 108.045,-34.5001 108.045,-27.5001"/>
</g>
<!-- Node3 -->
<g id="node5" class="node"><title>Node3</title>
<a xlink:href="hfa-se-ctx_8c.html#ac6740f043d197065a62fbd0570b4f735" target="_top" xlink:title="Do asynchrounous get work operation then pre&#45;fetch recieved wqe and process search on recieved packet...">
<polygon fill="white" stroke="black" points="253,-40.5 253,-61.5 327,-61.5 327,-40.5 253,-40.5"/>
<text text-anchor="middle" x="290" y="-48.5" font-family="FreeSans" font-size="10.00">process_pkt</text>
</a>
</g>
<!-- Node2&#45;&gt;Node3 -->
<g id="edge4" class="edge"><title>Node2&#45;&gt;Node3</title>
<path fill="none" stroke="midnightblue" d="M224.162,-39.6486C233.825,-41.3146 243.783,-43.0316 252.938,-44.61"/>
<polygon fill="midnightblue" stroke="midnightblue" points="224.695,-36.1889 214.246,-37.9389 223.506,-43.0872 224.695,-36.1889"/>
</g>
<!-- Node6 -->
<g id="node11" class="node"><title>Node6</title>
<a xlink:href="hfa-se-wqe-lock_8c.html#a06b5fcfab0e1d5eb36b633ec080ad7f9" target="_top" xlink:title="Process search for given contexts.">
<polygon fill="white" stroke="black" points="250,-0.5 250,-21.5 330,-21.5 330,-0.5 250,-0.5"/>
<text text-anchor="middle" x="290" y="-8.5" font-family="FreeSans" font-size="10.00">process_nctx</text>
</a>
</g>
<!-- Node2&#45;&gt;Node6 -->
<g id="edge10" class="edge"><title>Node2&#45;&gt;Node6</title>
<path fill="none" stroke="midnightblue" d="M224.162,-22.3514C232.74,-20.8724 241.551,-19.3533 249.826,-17.9266"/>
<polygon fill="midnightblue" stroke="midnightblue" points="223.506,-18.9128 214.246,-24.0611 224.695,-25.8111 223.506,-18.9128"/>
</g>
<!-- Node4 -->
<g id="node7" class="node"><title>Node4</title>
<a xlink:href="hfa-lnx-ctx_8c.html#a78ffddbcd7cdd164889cfb53ea367886" target="_top" xlink:title="entry">
<polygon fill="white" stroke="black" points="366.5,-80.5 366.5,-101.5 407.5,-101.5 407.5,-80.5 366.5,-80.5"/>
<text text-anchor="middle" x="387" y="-88.5" font-family="FreeSans" font-size="10.00">entry</text>
</a>
</g>
<!-- Node3&#45;&gt;Node4 -->
<g id="edge6" class="edge"><title>Node3&#45;&gt;Node4</title>
<path fill="none" stroke="midnightblue" d="M324.776,-65.3406C338.663,-71.0674 354.187,-77.4687 366.254,-82.4451"/>
<polygon fill="midnightblue" stroke="midnightblue" points="326.065,-62.0862 315.486,-61.5095 323.396,-68.5576 326.065,-62.0862"/>
</g>
<!-- Node5 -->
<g id="node9" class="node"><title>Node5</title>
<a xlink:href="hfa-se-ctx_8c.html#a3c04138a5bfe5d72780bb7e82a18e627" target="_top" xlink:title="main">
<polygon fill="white" stroke="black" points="367,-40.5 367,-61.5 407,-61.5 407,-40.5 367,-40.5"/>
<text text-anchor="middle" x="387" y="-48.5" font-family="FreeSans" font-size="10.00">main</text>
</a>
</g>
<!-- Node3&#45;&gt;Node5 -->
<g id="edge8" class="edge"><title>Node3&#45;&gt;Node5</title>
<path fill="none" stroke="midnightblue" d="M337.483,-51C347.832,-51 358.242,-51 366.828,-51"/>
<polygon fill="midnightblue" stroke="midnightblue" points="337.225,-47.5001 327.225,-51 337.225,-54.5001 337.225,-47.5001"/>
</g>
<!-- Node7 -->
<g id="node13" class="node"><title>Node7</title>
<a xlink:href="hfa-se-wqe-lock_8c.html#a3c04138a5bfe5d72780bb7e82a18e627" target="_top" xlink:title="main">
<polygon fill="white" stroke="black" points="367,-0.5 367,-21.5 407,-21.5 407,-0.5 367,-0.5"/>
<text text-anchor="middle" x="387" y="-8.5" font-family="FreeSans" font-size="10.00">main</text>
</a>
</g>
<!-- Node6&#45;&gt;Node7 -->
<g id="edge12" class="edge"><title>Node6&#45;&gt;Node7</title>
<path fill="none" stroke="midnightblue" d="M340.263,-11C349.739,-11 359.125,-11 366.971,-11"/>
<polygon fill="midnightblue" stroke="midnightblue" points="340.014,-7.5001 330.014,-11 340.014,-14.5001 340.014,-7.5001"/>
</g>
</g>
</svg>
