<?xml version="1.0" encoding="UTF-8" standalone="no"?>
<!DOCTYPE svg PUBLIC "-//W3C//DTD SVG 1.1//EN"
 "http://www.w3.org/Graphics/SVG/1.1/DTD/svg11.dtd">
<!-- Generated by graphviz version 2.24.0 (20090616.2323)
 -->
<!-- Title: cleanup Pages: 1 -->
<svg width="244pt" height="50pt"
 viewBox="0.00 0.00 244.00 50.00" xmlns="http://www.w3.org/2000/svg" xmlns:xlink="http://www.w3.org/1999/xlink">
<g id="graph1" class="graph" transform="scale(1 1) rotate(0) translate(4 46)">
<title>cleanup</title>
<polygon fill="white" stroke="white" points="-4,5 -4,-46 241,-46 241,5 -4,5"/>
<!-- Node1 -->
<g id="node1" class="node"><title>Node1</title>
<polygon fill="#bfbfbf" stroke="black" points="0,-0.5 0,-21.5 54,-21.5 54,-0.5 0,-0.5"/>
<text text-anchor="middle" x="27" y="-8.5" font-family="FreeSans" font-size="10.00">cleanup</text>
</g>
<!-- Node2 -->
<g id="node3" class="node"><title>Node2</title>
<a xlink:href="hfa-se-ngraphs_8c.html#a546f3769e735d4bef0bfab1cba56921c" target="_top" xlink:title="Load ngraphs into HFA memory and cache.">
<polygon fill="white" stroke="black" points="90.5,-20.5 90.5,-41.5 159.5,-41.5 159.5,-20.5 90.5,-20.5"/>
<text text-anchor="middle" x="125" y="-28.5" font-family="FreeSans" font-size="10.00">graph_load</text>
</a>
</g>
<!-- Node1&#45;&gt;Node2 -->
<g id="edge2" class="edge"><title>Node1&#45;&gt;Node2</title>
<path fill="none" stroke="midnightblue" d="M63.8921,-18.529C72.5571,-20.2974 81.7611,-22.1757 90.325,-23.9235"/>
<polygon fill="midnightblue" stroke="midnightblue" points="64.5363,-15.0884 54.0384,-16.518 63.1365,-21.947 64.5363,-15.0884"/>
</g>
<!-- Node3 -->
<g id="node5" class="node"><title>Node3</title>
<a xlink:href="hfa-se-ngraphs_8c.html#a3c04138a5bfe5d72780bb7e82a18e627" target="_top" xlink:title="main">
<polygon fill="white" stroke="black" points="196,-0.5 196,-21.5 236,-21.5 236,-0.5 196,-0.5"/>
<text text-anchor="middle" x="216" y="-8.5" font-family="FreeSans" font-size="10.00">main</text>
</a>
</g>
<!-- Node1&#45;&gt;Node3 -->
<g id="edge6" class="edge"><title>Node1&#45;&gt;Node3</title>
<path fill="none" stroke="midnightblue" d="M64.1122,-11C103.596,-11 164.592,-11 195.919,-11"/>
<polygon fill="midnightblue" stroke="midnightblue" points="64.0791,-7.5001 54.0791,-11 64.0791,-14.5001 64.0791,-7.5001"/>
</g>
<!-- Node2&#45;&gt;Node3 -->
<g id="edge4" class="edge"><title>Node2&#45;&gt;Node3</title>
<path fill="none" stroke="midnightblue" d="M169.593,-21.1994C178.828,-19.1697 188.113,-17.1289 195.926,-15.4119"/>
<polygon fill="midnightblue" stroke="midnightblue" points="168.678,-17.8167 159.663,-23.3818 170.181,-24.6536 168.678,-17.8167"/>
</g>
</g>
</svg>
