<?xml version="1.0" encoding="UTF-8" standalone="no"?>
<!DOCTYPE svg PUBLIC "-//W3C//DTD SVG 1.1//EN"
 "http://www.w3.org/Graphics/SVG/1.1/DTD/svg11.dtd">
<!-- Generated by graphviz version 2.24.0 (20090616.2323)
 -->
<!-- Title: classify Pages: 1 -->
<svg width="266pt" height="110pt"
 viewBox="0.00 0.00 266.00 110.00" xmlns="http://www.w3.org/2000/svg" xmlns:xlink="http://www.w3.org/1999/xlink">
<g id="graph1" class="graph" transform="scale(1 1) rotate(0) translate(4 106)">
<title>classify</title>
<polygon fill="white" stroke="white" points="-4,5 -4,-106 263,-106 263,5 -4,5"/>
<!-- Node1 -->
<g id="node1" class="node"><title>Node1</title>
<polygon fill="#bfbfbf" stroke="black" points="0.5,-40.5 0.5,-61.5 53.5,-61.5 53.5,-40.5 0.5,-40.5"/>
<text text-anchor="middle" x="27" y="-48.5" font-family="FreeSans" font-size="10.00">classify</text>
</g>
<!-- Node2 -->
<g id="node3" class="node"><title>Node2</title>
<a xlink:href="hfa-lnx-wqe-lock_8c.html#a972f8b60ef804914c009c2ef85bac50e" target="_top" xlink:title="process_search">
<polygon fill="white" stroke="black" points="90,-80.5 90,-101.5 182,-101.5 182,-80.5 90,-80.5"/>
<text text-anchor="middle" x="136" y="-88.5" font-family="FreeSans" font-size="10.00">process_search</text>
</a>
</g>
<!-- Node1&#45;&gt;Node2 -->
<g id="edge2" class="edge"><title>Node1&#45;&gt;Node2</title>
<path fill="none" stroke="midnightblue" d="M63.2304,-64.2956C77.5711,-69.5582 93.8202,-75.5212 107.32,-80.4754"/>
<polygon fill="midnightblue" stroke="midnightblue" points="64.258,-60.9445 53.6644,-60.7851 61.8464,-67.516 64.258,-60.9445"/>
</g>
<!-- Node3 -->
<g id="node5" class="node"><title>Node3</title>
<a xlink:href="hfa-se-ngraphs_8c.html#a3c04138a5bfe5d72780bb7e82a18e627" target="_top" xlink:title="main">
<polygon fill="white" stroke="black" points="116,-40.5 116,-61.5 156,-61.5 156,-40.5 116,-40.5"/>
<text text-anchor="middle" x="136" y="-48.5" font-family="FreeSans" font-size="10.00">main</text>
</a>
</g>
<!-- Node1&#45;&gt;Node3 -->
<g id="edge4" class="edge"><title>Node1&#45;&gt;Node3</title>
<path fill="none" stroke="midnightblue" d="M64.0276,-51C81.333,-51 101.267,-51 115.761,-51"/>
<polygon fill="midnightblue" stroke="midnightblue" points="63.6644,-47.5001 53.6644,-51 63.6644,-54.5001 63.6644,-47.5001"/>
</g>
<!-- Node4 -->
<g id="node7" class="node"><title>Node4</title>
<a xlink:href="hfa-se-wqe-lock_8c.html#a06b5fcfab0e1d5eb36b633ec080ad7f9" target="_top" xlink:title="Process search for given contexts.">
<polygon fill="white" stroke="black" points="96,-0.5 96,-21.5 176,-21.5 176,-0.5 96,-0.5"/>
<text text-anchor="middle" x="136" y="-8.5" font-family="FreeSans" font-size="10.00">process_nctx</text>
</a>
</g>
<!-- Node1&#45;&gt;Node4 -->
<g id="edge6" class="edge"><title>Node1&#45;&gt;Node4</title>
<path fill="none" stroke="midnightblue" d="M63.2304,-37.7044C77.5711,-32.4418 93.8202,-26.4788 107.32,-21.5246"/>
<polygon fill="midnightblue" stroke="midnightblue" points="61.8464,-34.484 53.6644,-41.2149 64.258,-41.0555 61.8464,-34.484"/>
</g>
<!-- Node5 -->
<g id="node9" class="node"><title>Node5</title>
<a xlink:href="hfa-se-wqe-lock_8c.html#a3c04138a5bfe5d72780bb7e82a18e627" target="_top" xlink:title="main">
<polygon fill="white" stroke="black" points="218,-0.5 218,-21.5 258,-21.5 258,-0.5 218,-0.5"/>
<text text-anchor="middle" x="238" y="-8.5" font-family="FreeSans" font-size="10.00">main</text>
</a>
</g>
<!-- Node4&#45;&gt;Node5 -->
<g id="edge8" class="edge"><title>Node4&#45;&gt;Node5</title>
<path fill="none" stroke="midnightblue" d="M186.204,-11C197.375,-11 208.598,-11 217.726,-11"/>
<polygon fill="midnightblue" stroke="midnightblue" points="186.02,-7.5001 176.02,-11 186.02,-14.5001 186.02,-7.5001"/>
</g>
</g>
</svg>
