<?xml version="1.0" encoding="UTF-8" standalone="no"?>
<!DOCTYPE svg PUBLIC "-//W3C//DTD SVG 1.1//EN"
 "http://www.w3.org/Graphics/SVG/1.1/DTD/svg11.dtd">
<!-- Generated by graphviz version 2.24.0 (20090616.2323)
 -->
<!-- Title: quicksort_list Pages: 1 -->
<svg width="312pt" height="30pt"
 viewBox="0.00 0.00 312.00 30.00" xmlns="http://www.w3.org/2000/svg" xmlns:xlink="http://www.w3.org/1999/xlink">
<g id="graph1" class="graph" transform="scale(1 1) rotate(0) translate(4 26)">
<title>quicksort_list</title>
<polygon fill="white" stroke="white" points="-4,5 -4,-26 309,-26 309,5 -4,5"/>
<!-- Node1 -->
<g id="node1" class="node"><title>Node1</title>
<polygon fill="#bfbfbf" stroke="black" points="0,-0.5 0,-21.5 78,-21.5 78,-0.5 0,-0.5"/>
<text text-anchor="middle" x="39" y="-8.5" font-family="FreeSans" font-size="10.00">quicksort_list</text>
</g>
<!-- Node2 -->
<g id="node3" class="node"><title>Node2</title>
<a xlink:href="hfa-se-xml-parser_8c.html#a6247b3328e66a331e8a47d4085b547e9" target="_top" xlink:title="Parse xml matches.">
<polygon fill="white" stroke="black" points="114,-0.5 114,-21.5 228,-21.5 228,-0.5 114,-0.5"/>
<text text-anchor="middle" x="171" y="-8.5" font-family="FreeSans" font-size="10.00">parse_xml_matches</text>
</a>
</g>
<!-- Node1&#45;&gt;Node2 -->
<g id="edge2" class="edge"><title>Node1&#45;&gt;Node2</title>
<path fill="none" stroke="midnightblue" d="M88.4082,-11C96.6177,-11 105.194,-11 113.581,-11"/>
<polygon fill="midnightblue" stroke="midnightblue" points="88.247,-7.5001 78.247,-11 88.2469,-14.5001 88.247,-7.5001"/>
</g>
<!-- Node3 -->
<g id="node5" class="node"><title>Node3</title>
<a xlink:href="hfa-se-xml-parser_8c.html#a3c04138a5bfe5d72780bb7e82a18e627" target="_top" xlink:title="main">
<polygon fill="white" stroke="black" points="264,-0.5 264,-21.5 304,-21.5 304,-0.5 264,-0.5"/>
<text text-anchor="middle" x="284" y="-8.5" font-family="FreeSans" font-size="10.00">main</text>
</a>
</g>
<!-- Node2&#45;&gt;Node3 -->
<g id="edge4" class="edge"><title>Node2&#45;&gt;Node3</title>
<path fill="none" stroke="midnightblue" d="M238.311,-11C247.563,-11 256.414,-11 263.82,-11"/>
<polygon fill="midnightblue" stroke="midnightblue" points="238.162,-7.5001 228.162,-11 238.162,-14.5001 238.162,-7.5001"/>
</g>
</g>
</svg>
