<?xml version="1.0" encoding="UTF-8" standalone="no"?>
<!DOCTYPE svg PUBLIC "-//W3C//DTD SVG 1.1//EN"
 "http://www.w3.org/Graphics/SVG/1.1/DTD/svg11.dtd">
<!-- Generated by graphviz version 2.24.0 (20090616.2323)
 -->
<!-- Title: process_search Pages: 1 -->
<svg width="1154pt" height="864pt"
 viewBox="0.00 0.00 1154.00 864.18" xmlns="http://www.w3.org/2000/svg" xmlns:xlink="http://www.w3.org/1999/xlink">
<g id="graph1" class="graph" transform="scale(1 1) rotate(0) translate(4 860.178)">
<title>process_search</title>
<polygon fill="white" stroke="white" points="-4,5 -4,-860.178 1151,-860.178 1151,5 -4,5"/>
<!-- Node1 -->
<g id="node1" class="node"><title>Node1</title>
<polygon fill="#bfbfbf" stroke="black" points="0,-592.5 0,-613.5 92,-613.5 92,-592.5 0,-592.5"/>
<text text-anchor="middle" x="46" y="-600.5" font-family="FreeSans" font-size="10.00">process_search</text>
</g>
<!-- Node2 -->
<g id="node3" class="node"><title>Node2</title>
<a xlink:href="app-utils_8c.html#a1944a739d03e86dcaee1a7d245cfeba0" target="_top" xlink:title="Initialize the attributes needed for parsing the payload file.">
<polygon fill="white" stroke="black" points="930.5,-704 930.5,-738 1043.5,-738 1043.5,-704 930.5,-704"/>
<text text-anchor="start" x="938.5" y="-725" font-family="FreeSans" font-size="10.00">hfautils_init_payload</text>
<text text-anchor="middle" x="987" y="-712" font-family="FreeSans" font-size="10.00">_attributes</text>
</a>
</g>
<!-- Node1&#45;&gt;Node2 -->
<g id="edge2" class="edge"><title>Node1&#45;&gt;Node2</title>
<path fill="none" stroke="midnightblue" d="M50.9776,-613.656C73.9638,-661.125 174.855,-851 318,-851 318,-851 318,-851 683,-851 771.847,-851 802.16,-870.979 882,-832 920.978,-812.97 953.001,-772.965 971.051,-746.543"/>
<polygon fill="midnightblue" stroke="midnightblue" points="974.007,-748.419 976.627,-738.153 968.177,-744.544 974.007,-748.419"/>
</g>
<!-- Node4 -->
<g id="node7" class="node"><title>Node4</title>
<a xlink:href="app-utils_8c.html#a4b47f3c9c5a0b3eaee64e264171628a3" target="_top" xlink:title="This routine reads data of chunksize/a packet from given payload(Normal/PCAP) file and returns data b...">
<polygon fill="white" stroke="black" points="756,-749.5 756,-770.5 882,-770.5 882,-749.5 756,-749.5"/>
<text text-anchor="middle" x="819" y="-757.5" font-family="FreeSans" font-size="10.00">hfautils_parse_payload</text>
</a>
</g>
<!-- Node1&#45;&gt;Node4 -->
<g id="edge6" class="edge"><title>Node1&#45;&gt;Node4</title>
<path fill="none" stroke="midnightblue" d="M56.7966,-613.899C91.4098,-647.62 204.017,-748 318,-748 318,-748 318,-748 580,-748 635.639,-748 698.472,-751.284 745.745,-754.416"/>
<polygon fill="midnightblue" stroke="midnightblue" points="745.678,-757.92 755.891,-755.102 746.15,-750.935 745.678,-757.92"/>
</g>
<!-- Node5 -->
<g id="node10" class="node"><title>Node5</title>
<a xlink:href="hfa-se-wqe-lock_8c.html#af7c0c8f95babfb34f0364c1a1d8ca226" target="_top" xlink:title="Classify the given number of ctx among cores based on nctx_per_core.">
<polygon fill="white" stroke="black" points="141.5,-53.5 141.5,-74.5 194.5,-74.5 194.5,-53.5 141.5,-53.5"/>
<text text-anchor="middle" x="168" y="-61.5" font-family="FreeSans" font-size="10.00">classify</text>
</a>
</g>
<!-- Node1&#45;&gt;Node5 -->
<g id="edge10" class="edge"><title>Node1&#45;&gt;Node5</title>
<path fill="none" stroke="midnightblue" d="M46.5219,-592.174C49.8856,-526.014 70.2243,-176.192 128,-89 130.067,-85.8811 132.67,-83.0792 135.552,-80.5805"/>
<polygon fill="midnightblue" stroke="midnightblue" points="137.642,-83.3877 143.656,-74.6648 133.515,-77.7337 137.642,-83.3877"/>
</g>
<!-- Node6 -->
<g id="node12" class="node"><title>Node6</title>
<a xlink:href="hfa-se-wqe_8c.html#a04f39f57f0b34482133ae70ab812a11e" target="_top" xlink:title="Set search parameters and submit WQE to the HW.">
<polygon fill="white" stroke="black" points="646,-676.5 646,-697.5 720,-697.5 720,-676.5 646,-676.5"/>
<text text-anchor="middle" x="683" y="-684.5" font-family="FreeSans" font-size="10.00">submit_wqe</text>
</a>
</g>
<!-- Node1&#45;&gt;Node6 -->
<g id="edge12" class="edge"><title>Node1&#45;&gt;Node6</title>
<path fill="none" stroke="midnightblue" d="M76.579,-613.533C126.478,-629.755 228.807,-659 318,-659 318,-659 318,-659 471,-659 528.054,-659 593.007,-669.09 635.814,-677.157"/>
<polygon fill="midnightblue" stroke="midnightblue" points="635.186,-680.6 645.667,-679.051 636.508,-673.726 635.186,-680.6"/>
</g>
<!-- Node10 -->
<g id="node20" class="node"><title>Node10</title>
<a xlink:href="hfa-lnx-wqe-lock_8c.html#ac89bf5375eb44dceb24392125b9bdddb" target="_top" xlink:title="Post process the results from HFA and record found matches.">
<polygon fill="white" stroke="black" points="128,-500.5 128,-521.5 208,-521.5 208,-500.5 128,-500.5"/>
<text text-anchor="middle" x="168" y="-508.5" font-family="FreeSans" font-size="10.00">post_process</text>
</a>
</g>
<!-- Node1&#45;&gt;Node10 -->
<g id="edge20" class="edge"><title>Node1&#45;&gt;Node10</title>
<path fill="none" stroke="midnightblue" d="M59.995,-592.446C80.9343,-576.656 120.624,-546.726 145.619,-527.878"/>
<polygon fill="midnightblue" stroke="midnightblue" points="147.916,-530.529 153.792,-521.714 143.701,-524.94 147.916,-530.529"/>
</g>
<!-- Node46 -->
<g id="node101" class="node"><title>Node46</title>
<a xlink:href="app-utils_8c.html#a1f92c93fe820ec9fc9f4d8e993883b05" target="_top" xlink:title="This routine is counter part of hfautils_init_payload_attributes().">
<polygon fill="white" stroke="black" points="918,-80 918,-114 1056,-114 1056,-80 918,-80"/>
<text text-anchor="start" x="926" y="-101" font-family="FreeSans" font-size="10.00">hfautils_cleanup_payload</text>
<text text-anchor="middle" x="987" y="-88" font-family="FreeSans" font-size="10.00">_attributes</text>
</a>
</g>
<!-- Node1&#45;&gt;Node46 -->
<g id="edge122" class="edge"><title>Node1&#45;&gt;Node46</title>
<path fill="none" stroke="midnightblue" d="M46.5868,-592.092C51.1513,-518.972 87.2582,-103 318,-103 318,-103 318,-103 683,-103 759.382,-103 846.537,-101.083 907.886,-99.4164"/>
<polygon fill="midnightblue" stroke="midnightblue" points="907.986,-102.915 917.886,-99.1407 907.793,-95.9177 907.986,-102.915"/>
</g>
<!-- Node3 -->
<g id="node5" class="node"><title>Node3</title>
<a xlink:href="app-utils_8c.html#a7fbf4d982c3e4493bda83be020e7274c" target="_top" xlink:title="Read file data from a gzip&#45;stream(compressed or uncompressed).">
<polygon fill="white" stroke="black" points="1092.5,-710.5 1092.5,-731.5 1145.5,-731.5 1145.5,-710.5 1092.5,-710.5"/>
<text text-anchor="middle" x="1119" y="-718.5" font-family="FreeSans" font-size="10.00">fd_read</text>
</a>
</g>
<!-- Node2&#45;&gt;Node3 -->
<g id="edge4" class="edge"><title>Node2&#45;&gt;Node3</title>
<path fill="none" stroke="midnightblue" d="M1043.75,-721C1056.82,-721 1070.4,-721 1082.36,-721"/>
<polygon fill="midnightblue" stroke="midnightblue" points="1082.4,-724.5 1092.4,-721 1082.4,-717.5 1082.4,-724.5"/>
</g>
<!-- Node4&#45;&gt;Node3 -->
<g id="edge8" class="edge"><title>Node4&#45;&gt;Node3</title>
<path fill="none" stroke="midnightblue" d="M882.168,-762.251C930.377,-762.601 998.132,-760.129 1056,-747 1067.11,-744.48 1078.76,-740.181 1088.99,-735.795"/>
<polygon fill="midnightblue" stroke="midnightblue" points="1090.6,-738.908 1098.29,-731.62 1087.74,-732.522 1090.6,-738.908"/>
</g>
<!-- Node7 -->
<g id="node14" class="node"><title>Node7</title>
<a xlink:href="cvm-hfa-search_8h.html#a3c407460808f038770473ffc6e4b5c38" target="_top" xlink:title="This routine adds a new input IO vector to Search Param.">
<polygon fill="white" stroke="black" points="758.5,-789 758.5,-823 879.5,-823 879.5,-789 758.5,-789"/>
<text text-anchor="start" x="766.5" y="-810" font-family="FreeSans" font-size="10.00">hfa_searchparam_set</text>
<text text-anchor="middle" x="819" y="-797" font-family="FreeSans" font-size="10.00">_inputiovec</text>
</a>
</g>
<!-- Node6&#45;&gt;Node7 -->
<g id="edge14" class="edge"><title>Node6&#45;&gt;Node7</title>
<path fill="none" stroke="midnightblue" d="M688.856,-697.661C699.76,-716.628 724.915,-756.449 756,-780 757.627,-781.233 759.321,-782.417 761.065,-783.554"/>
<polygon fill="midnightblue" stroke="midnightblue" points="759.73,-786.828 770.129,-788.852 763.262,-780.784 759.73,-786.828"/>
</g>
<!-- Node8 -->
<g id="node16" class="node"><title>Node8</title>
<a xlink:href="cvm-hfa-search_8h.html#a12882fa53f8ec49b9b2950711161db42" target="_top" xlink:title="This routine sets the output buffer in the sparam.">
<polygon fill="white" stroke="black" points="758.5,-659 758.5,-693 879.5,-693 879.5,-659 758.5,-659"/>
<text text-anchor="start" x="766.5" y="-680" font-family="FreeSans" font-size="10.00">hfa_searchparam_set</text>
<text text-anchor="middle" x="819" y="-667" font-family="FreeSans" font-size="10.00">_output</text>
</a>
</g>
<!-- Node6&#45;&gt;Node8 -->
<g id="edge16" class="edge"><title>Node6&#45;&gt;Node8</title>
<path fill="none" stroke="midnightblue" d="M720.163,-683.994C728.918,-683.286 738.539,-682.508 748.235,-681.724"/>
<polygon fill="midnightblue" stroke="midnightblue" points="748.648,-685.202 758.333,-680.907 748.084,-678.225 748.648,-685.202"/>
</g>
<!-- Node9 -->
<g id="node18" class="node"><title>Node9</title>
<a xlink:href="cvm-hfa-search_8c.html#a0c36da280b39bd8afdf6081baea24472" target="_top" xlink:title="This routine performs a pattern search using the given parameters in a non&#45;blocking manner...">
<polygon fill="white" stroke="black" points="925.5,-652 925.5,-686 1048.5,-686 1048.5,-652 925.5,-652"/>
<text text-anchor="start" x="933.5" y="-673" font-family="FreeSans" font-size="10.00">hfa_searchctx_search</text>
<text text-anchor="middle" x="987" y="-660" font-family="FreeSans" font-size="10.00">_async</text>
</a>
</g>
<!-- Node6&#45;&gt;Node9 -->
<g id="edge18" class="edge"><title>Node6&#45;&gt;Node9</title>
<path fill="none" stroke="midnightblue" d="M720.287,-696.177C731.676,-698.569 744.286,-700.809 756,-702 811.713,-707.665 826.648,-710.493 882,-702 899.049,-699.384 917.129,-694.51 933.394,-689.296"/>
<polygon fill="midnightblue" stroke="midnightblue" points="934.872,-692.493 943.261,-686.022 932.667,-685.849 934.872,-692.493"/>
</g>
<!-- Node11 -->
<g id="node22" class="node"><title>Node11</title>
<a xlink:href="cvm-hfa-search_8h.html#ab50a2d84e35b5a4a03a23fc90e4dffa0" target="_top" xlink:title="This routine retrieves the reason code after a search operation has been completed by the HFA engine...">
<polygon fill="white" stroke="black" points="758,-607 758,-641 880,-641 880,-607 758,-607"/>
<text text-anchor="start" x="766" y="-628" font-family="FreeSans" font-size="10.00">hfa_searchparam_get</text>
<text text-anchor="middle" x="819" y="-615" font-family="FreeSans" font-size="10.00">_hwsearch_reason</text>
</a>
</g>
<!-- Node10&#45;&gt;Node11 -->
<g id="edge22" class="edge"><title>Node10&#45;&gt;Node11</title>
<path fill="none" stroke="midnightblue" d="M186.227,-521.556C201.312,-529.935 223.512,-541.457 244,-549 341.515,-584.901 367.086,-605 471,-605 471,-605 471,-605 580,-605 636.423,-605 700.103,-610.327 747.536,-615.34"/>
<polygon fill="midnightblue" stroke="midnightblue" points="747.388,-618.844 757.705,-616.436 748.138,-611.884 747.388,-618.844"/>
</g>
<!-- Node12 -->
<g id="node24" class="node"><title>Node12</title>
<a xlink:href="cvm-hfa-common_8h.html#ad117ba199386b8d427cbb04f288b5905" target="_top" xlink:title="Dump HFA related registers.">
<polygon fill="white" stroke="black" points="773.5,-567.5 773.5,-588.5 864.5,-588.5 864.5,-567.5 773.5,-567.5"/>
<text text-anchor="middle" x="819" y="-575.5" font-family="FreeSans" font-size="10.00">hfa_dump_regs</text>
</a>
</g>
<!-- Node10&#45;&gt;Node12 -->
<g id="edge24" class="edge"><title>Node10&#45;&gt;Node12</title>
<path fill="none" stroke="midnightblue" d="M208,-519.028C265.796,-529.91 376.139,-548 471,-548 471,-548 471,-548 580,-548 643.247,-548 715.182,-558.471 763.463,-567.041"/>
<polygon fill="midnightblue" stroke="midnightblue" points="762.932,-570.501 773.395,-568.836 764.178,-563.613 762.932,-570.501"/>
</g>
<!-- Node13 -->
<g id="node26" class="node"><title>Node13</title>
<a xlink:href="cvm-hfa-search_8h.html#ad18e328b50b109e1e44821f3d006bd9d" target="_top" xlink:title="This routine returns the data&#45;buffer offset.">
<polygon fill="white" stroke="black" points="758,-171 758,-205 880,-205 880,-171 758,-171"/>
<text text-anchor="start" x="766" y="-192" font-family="FreeSans" font-size="10.00">hfa_searchparam_get</text>
<text text-anchor="middle" x="819" y="-179" font-family="FreeSans" font-size="10.00">_hwsearch_pdboff</text>
</a>
</g>
<!-- Node10&#45;&gt;Node13 -->
<g id="edge26" class="edge"><title>Node10&#45;&gt;Node13</title>
<path fill="none" stroke="midnightblue" d="M172.304,-500.287C194.626,-446.667 302.683,-210 471,-210 471,-210 471,-210 580,-210 636.483,-210 700.16,-203.832 747.576,-198.027"/>
<polygon fill="midnightblue" stroke="midnightblue" points="748.252,-201.47 757.741,-196.758 747.385,-194.524 748.252,-201.47"/>
</g>
<!-- Node14 -->
<g id="node28" class="node"><title>Node14</title>
<a xlink:href="cvm-hfa-search_8c.html#a6dbb15dc58155b2c94b19784ad42ef89" target="_top" xlink:title="This routine post&#45;processes the search results from the HFA engine and reports the pattern matches fo...">
<polygon fill="white" stroke="black" points="244.5,-463.5 244.5,-484.5 391.5,-484.5 391.5,-463.5 244.5,-463.5"/>
<text text-anchor="middle" x="318" y="-471.5" font-family="FreeSans" font-size="10.00">hfa_searchctx_getmatches</text>
</a>
</g>
<!-- Node10&#45;&gt;Node14 -->
<g id="edge28" class="edge"><title>Node10&#45;&gt;Node14</title>
<path fill="none" stroke="midnightblue" d="M208.197,-501.085C225.778,-496.748 246.637,-491.603 265.428,-486.968"/>
<polygon fill="midnightblue" stroke="midnightblue" points="266.457,-490.319 275.328,-484.526 264.781,-483.523 266.457,-490.319"/>
</g>
<!-- Node40 -->
<g id="node89" class="node"><title>Node40</title>
<a xlink:href="app-utils_8c.html#a633038357891aa5147b77fe939f300bf" target="_top" xlink:title="Print pattern matches via match buffer and cleanup all matches.">
<polygon fill="white" stroke="black" points="757,-131.5 757,-152.5 881,-152.5 881,-131.5 757,-131.5"/>
<text text-anchor="middle" x="819" y="-139.5" font-family="FreeSans" font-size="10.00">hfautils_print_matches</text>
</a>
</g>
<!-- Node10&#45;&gt;Node40 -->
<g id="edge120" class="edge"><title>Node10&#45;&gt;Node40</title>
<path fill="none" stroke="midnightblue" d="M169.441,-500.376C175.977,-453.68 204.239,-267.156 244,-226 317.265,-150.163 365.553,-157 471,-157 471,-157 471,-157 580,-157 635.969,-157 699.165,-152.852 746.511,-148.919"/>
<polygon fill="midnightblue" stroke="midnightblue" points="746.999,-152.39 756.668,-148.058 746.408,-145.415 746.999,-152.39"/>
</g>
<!-- Node15 -->
<g id="node30" class="node"><title>Node15</title>
<a xlink:href="cvm-hfa-common_8h.html#a0da7c57174fb96d75ae9cc2ed3116a05" target="_top" xlink:title="Dump buffer pointed by &quot;buf&quot; in readable format.">
<polygon fill="white" stroke="black" points="428,-483.5 428,-504.5 514,-504.5 514,-483.5 428,-483.5"/>
<text text-anchor="middle" x="471" y="-491.5" font-family="FreeSans" font-size="10.00">hfa_dump_buf</text>
</a>
</g>
<!-- Node14&#45;&gt;Node15 -->
<g id="edge30" class="edge"><title>Node14&#45;&gt;Node15</title>
<path fill="none" stroke="midnightblue" d="M391.811,-483.649C400.612,-484.799 409.46,-485.956 417.89,-487.057"/>
<polygon fill="midnightblue" stroke="midnightblue" points="417.563,-490.544 427.932,-488.37 418.47,-483.604 417.563,-490.544"/>
</g>
<!-- Node16 -->
<g id="node32" class="node"><title>Node16</title>
<a xlink:href="cvm-hfa-pp_8c.html#a02d24f276578f8a39a93968262a08f1d" target="_top" xlink:title="pp">
<polygon fill="white" stroke="black" points="456.5,-345.5 456.5,-366.5 485.5,-366.5 485.5,-345.5 456.5,-345.5"/>
<text text-anchor="middle" x="471" y="-353.5" font-family="FreeSans" font-size="10.00">pp</text>
</a>
</g>
<!-- Node14&#45;&gt;Node16 -->
<g id="edge32" class="edge"><title>Node14&#45;&gt;Node16</title>
<path fill="none" stroke="midnightblue" d="M331.848,-463.32C358.474,-442.785 417.001,-397.646 449.016,-372.955"/>
<polygon fill="midnightblue" stroke="midnightblue" points="451.513,-375.449 457.294,-366.571 447.238,-369.906 451.513,-375.449"/>
</g>
<!-- Node17 -->
<g id="node34" class="node"><title>Node17</title>
<a xlink:href="pp_8h.html#af7a68f9e08d3b54012ad008a4f47e1cd" target="_top" xlink:title="pphfa">
<polygon fill="white" stroke="black" points="558,-365.5 558,-386.5 602,-386.5 602,-365.5 558,-365.5"/>
<text text-anchor="middle" x="580" y="-373.5" font-family="FreeSans" font-size="10.00">pphfa</text>
</a>
</g>
<!-- Node16&#45;&gt;Node17 -->
<g id="edge34" class="edge"><title>Node16&#45;&gt;Node17</title>
<path fill="none" stroke="midnightblue" d="M485.7,-358.697C501.508,-361.598 527.14,-366.301 547.692,-370.072"/>
<polygon fill="midnightblue" stroke="midnightblue" points="547.135,-373.528 557.603,-371.89 548.399,-366.643 547.135,-373.528"/>
</g>
<!-- Node18 -->
<g id="node36" class="node"><title>Node18</title>
<a xlink:href="cvm-hfa-res_8c.html#ad0de0b790a5786053d59797884dbdd23" target="_top" xlink:title="Rinit">
<polygon fill="white" stroke="black" points="562,-325.5 562,-346.5 598,-346.5 598,-325.5 562,-325.5"/>
<text text-anchor="middle" x="580" y="-333.5" font-family="FreeSans" font-size="10.00">Rinit</text>
</a>
</g>
<!-- Node16&#45;&gt;Node18 -->
<g id="edge36" class="edge"><title>Node16&#45;&gt;Node18</title>
<path fill="none" stroke="midnightblue" d="M485.7,-353.303C502.602,-350.201 530.733,-345.04 551.88,-341.16"/>
<polygon fill="midnightblue" stroke="midnightblue" points="552.709,-344.566 561.913,-339.319 551.445,-337.681 552.709,-344.566"/>
</g>
<!-- Node19 -->
<g id="node38" class="node"><title>Node19</title>
<a xlink:href="cvm-hfa-pp_8c.html#adcc1149c628372e2e566c246870929cb" target="_top" xlink:title="infoentry">
<polygon fill="white" stroke="black" points="550.5,-405.5 550.5,-426.5 609.5,-426.5 609.5,-405.5 550.5,-405.5"/>
<text text-anchor="middle" x="580" y="-413.5" font-family="FreeSans" font-size="10.00">infoentry</text>
</a>
</g>
<!-- Node16&#45;&gt;Node19 -->
<g id="edge38" class="edge"><title>Node16&#45;&gt;Node19</title>
<path fill="none" stroke="midnightblue" d="M485.7,-364.092C502.607,-373.398 530.75,-388.89 551.899,-400.532"/>
<polygon fill="midnightblue" stroke="midnightblue" points="550.321,-403.658 560.77,-405.415 553.697,-397.526 550.321,-403.658"/>
</g>
<!-- Node48 -->
<g id="node105" class="node"><title>Node48</title>
<a xlink:href="cvm-hfa-res_8c.html#a6c56aa24fa6551b23e4283ae2d5bcad8" target="_top" xlink:title="Rreport1">
<polygon fill="white" stroke="black" points="551.5,-285.5 551.5,-306.5 608.5,-306.5 608.5,-285.5 551.5,-285.5"/>
<text text-anchor="middle" x="580" y="-293.5" font-family="FreeSans" font-size="10.00">Rreport1</text>
</a>
</g>
<!-- Node16&#45;&gt;Node48 -->
<g id="edge114" class="edge"><title>Node16&#45;&gt;Node48</title>
<path fill="none" stroke="midnightblue" d="M485.7,-347.908C502.607,-338.602 530.75,-323.11 551.899,-311.468"/>
<polygon fill="midnightblue" stroke="midnightblue" points="553.697,-314.474 560.77,-306.585 550.321,-308.342 553.697,-314.474"/>
</g>
<!-- Node50 -->
<g id="node109" class="node"><title>Node50</title>
<a xlink:href="cvm-hfa-res_8c.html#a38aa04fce135199ec3bb8726da163846" target="_top" xlink:title="Rfinish">
<polygon fill="white" stroke="black" points="556,-245.5 556,-266.5 604,-266.5 604,-245.5 556,-245.5"/>
<text text-anchor="middle" x="580" y="-253.5" font-family="FreeSans" font-size="10.00">Rfinish</text>
</a>
</g>
<!-- Node16&#45;&gt;Node50 -->
<g id="edge118" class="edge"><title>Node16&#45;&gt;Node50</title>
<path fill="none" stroke="midnightblue" d="M480.118,-345.478C494.229,-329.505 522.598,-298.609 550,-276 551.361,-274.877 552.786,-273.759 554.244,-272.658"/>
<polygon fill="midnightblue" stroke="midnightblue" points="556.614,-275.269 562.749,-266.631 552.567,-269.557 556.614,-275.269"/>
</g>
<!-- Node20 -->
<g id="node40" class="node"><title>Node20</title>
<a xlink:href="hfa-lnx_8c.html#a78ffddbcd7cdd164889cfb53ea367886" target="_top" xlink:title="entry">
<polygon fill="white" stroke="black" points="662.5,-429.5 662.5,-450.5 703.5,-450.5 703.5,-429.5 662.5,-429.5"/>
<text text-anchor="middle" x="683" y="-437.5" font-family="FreeSans" font-size="10.00">entry</text>
</a>
</g>
<!-- Node19&#45;&gt;Node20 -->
<g id="edge40" class="edge"><title>Node19&#45;&gt;Node20</title>
<path fill="none" stroke="midnightblue" d="M609.516,-422.877C622.969,-426.012 638.886,-429.721 652.461,-432.884"/>
<polygon fill="midnightblue" stroke="midnightblue" points="651.772,-436.317 662.305,-435.178 653.361,-429.5 651.772,-436.317"/>
</g>
<!-- Node47 -->
<g id="node103" class="node"><title>Node47</title>
<a xlink:href="cvm-hfa-pp_8c.html#a85b4c8af06430f26eab8afdeea3a7395" target="_top" xlink:title="hashidx">
<polygon fill="white" stroke="black" points="656,-389.5 656,-410.5 710,-410.5 710,-389.5 656,-389.5"/>
<text text-anchor="middle" x="683" y="-397.5" font-family="FreeSans" font-size="10.00">hashidx</text>
</a>
</g>
<!-- Node19&#45;&gt;Node47 -->
<g id="edge112" class="edge"><title>Node19&#45;&gt;Node47</title>
<path fill="none" stroke="midnightblue" d="M609.516,-411.415C620.826,-409.658 633.878,-407.631 645.816,-405.776"/>
<polygon fill="midnightblue" stroke="midnightblue" points="646.603,-409.196 655.947,-404.202 645.529,-402.279 646.603,-409.196"/>
</g>
<!-- Node20&#45;&gt;Node4 -->
<g id="edge80" class="edge"><title>Node20&#45;&gt;Node4</title>
<path fill="none" stroke="midnightblue" d="M683.866,-450.56C687.321,-487.706 702.635,-614.806 756,-702 765.931,-718.227 781.676,-732.724 794.941,-743.166"/>
<polygon fill="midnightblue" stroke="midnightblue" points="793.125,-746.181 803.213,-749.419 797.347,-740.597 793.125,-746.181"/>
</g>
<!-- Node20&#45;&gt;Node8 -->
<g id="edge84" class="edge"><title>Node20&#45;&gt;Node8</title>
<path fill="none" stroke="midnightblue" d="M683.708,-450.726C686.497,-484.545 699.541,-590.237 756,-650 756.891,-650.943 757.822,-651.854 758.787,-652.732"/>
<polygon fill="midnightblue" stroke="midnightblue" points="756.707,-655.548 766.772,-658.857 760.967,-649.994 756.707,-655.548"/>
</g>
<!-- Node20&#45;&gt;Node11 -->
<g id="edge90" class="edge"><title>Node20&#45;&gt;Node11</title>
<path fill="none" stroke="midnightblue" d="M685.126,-450.796C691.185,-478.858 711.083,-554.906 756,-598 757.094,-599.05 758.236,-600.059 759.419,-601.03"/>
<polygon fill="midnightblue" stroke="midnightblue" points="757.548,-603.993 767.738,-606.894 761.581,-598.272 757.548,-603.993"/>
</g>
<!-- Node20&#45;&gt;Node12 -->
<g id="edge92" class="edge"><title>Node20&#45;&gt;Node12</title>
<path fill="none" stroke="midnightblue" d="M686.622,-450.562C695.052,-473.573 718.191,-528.529 756,-558 758.579,-560.011 761.365,-561.821 764.28,-563.452"/>
<polygon fill="midnightblue" stroke="midnightblue" points="762.804,-566.626 773.331,-567.823 765.848,-560.322 762.804,-566.626"/>
</g>
<!-- Node20&#45;&gt;Node13 -->
<g id="edge94" class="edge"><title>Node20&#45;&gt;Node13</title>
<path fill="none" stroke="midnightblue" d="M703.879,-432.801C709.935,-429.746 715.989,-425.57 720,-420 774.315,-344.579 697.833,-286.492 756,-214 756.599,-213.253 757.224,-212.527 757.871,-211.822"/>
<polygon fill="midnightblue" stroke="midnightblue" points="760.391,-214.267 765.583,-205.031 755.765,-209.013 760.391,-214.267"/>
</g>
<!-- Node20&#45;&gt;Node14 -->
<g id="edge96" class="edge"><title>Node20&#45;&gt;Node14</title>
<path fill="none" stroke="midnightblue" d="M662.363,-441.922C613.261,-446.496 487.227,-458.236 402.041,-466.171"/>
<polygon fill="midnightblue" stroke="midnightblue" points="401.495,-462.707 391.863,-467.12 402.145,-469.677 401.495,-462.707"/>
</g>
<!-- Node21 -->
<g id="node42" class="node"><title>Node21</title>
<a xlink:href="hfa-lnx_8c.html#a4c3443f524b4c0d95639694f0b74e850" target="_top" xlink:title="Process command line options, Read graph and payload.">
<polygon fill="white" stroke="black" points="772,-343.5 772,-364.5 866,-364.5 866,-343.5 772,-343.5"/>
<text text-anchor="middle" x="819" y="-351.5" font-family="FreeSans" font-size="10.00">process_options</text>
</a>
</g>
<!-- Node20&#45;&gt;Node21 -->
<g id="edge42" class="edge"><title>Node20&#45;&gt;Node21</title>
<path fill="none" stroke="midnightblue" d="M703.546,-430.821C709.184,-427.804 715.09,-424.145 720,-420 739.837,-403.253 734.678,-388.81 756,-374 758.733,-372.102 761.656,-370.377 764.689,-368.81"/>
<polygon fill="midnightblue" stroke="midnightblue" points="766.382,-371.886 774.046,-364.571 763.493,-365.51 766.382,-371.886"/>
</g>
<!-- Node24 -->
<g id="node50" class="node"><title>Node24</title>
<a xlink:href="cvm-hfa_8c.html#a873768042b716d60996ec5d858fc8fd9" target="_top" xlink:title="This function must be called by application to initialize HFA engine and setup resources for HFA hard...">
<polygon fill="white" stroke="red" points="782,-303.5 782,-324.5 856,-324.5 856,-303.5 782,-303.5"/>
<text text-anchor="middle" x="819" y="-311.5" font-family="FreeSans" font-size="10.00">hfa_dev_init</text>
</a>
</g>
<!-- Node20&#45;&gt;Node24 -->
<g id="edge52" class="edge"><title>Node20&#45;&gt;Node24</title>
<path fill="none" stroke="midnightblue" d="M703.547,-432.023C709.444,-428.963 715.491,-424.98 720,-420 747.812,-389.285 725.425,-361.967 756,-334 760.723,-329.68 766.379,-326.293 772.337,-323.637"/>
<polygon fill="midnightblue" stroke="midnightblue" points="773.742,-326.848 781.858,-320.037 771.266,-320.3 773.742,-326.848"/>
</g>
<!-- Node36 -->
<g id="node74" class="node"><title>Node36</title>
<a xlink:href="hfa-lnx_8c.html#a546f3769e735d4bef0bfab1cba56921c" target="_top" xlink:title="Load graph to HFA memory and cache.">
<polygon fill="white" stroke="red" points="784.5,-223.5 784.5,-244.5 853.5,-244.5 853.5,-223.5 784.5,-223.5"/>
<text text-anchor="middle" x="819" y="-231.5" font-family="FreeSans" font-size="10.00">graph_load</text>
</a>
</g>
<!-- Node20&#45;&gt;Node36 -->
<g id="edge76" class="edge"><title>Node20&#45;&gt;Node36</title>
<path fill="none" stroke="midnightblue" d="M703.744,-432.702C709.793,-429.642 715.877,-425.487 720,-420 765.35,-359.647 705.181,-309.826 756,-254 761.045,-248.458 767.617,-244.441 774.608,-241.533"/>
<polygon fill="midnightblue" stroke="midnightblue" points="775.969,-244.767 784.296,-238.216 773.701,-238.144 775.969,-244.767"/>
</g>
<!-- Node37 -->
<g id="node76" class="node"><title>Node37</title>
<a xlink:href="hfa-lnx_8c.html#a924d2733ebc7a856f8c3fd293193ba44" target="_top" xlink:title="Initialize search context.">
<polygon fill="white" stroke="red" points="781.5,-527.5 781.5,-548.5 856.5,-548.5 856.5,-527.5 781.5,-527.5"/>
<text text-anchor="middle" x="819" y="-535.5" font-family="FreeSans" font-size="10.00">initialize_ctx</text>
</a>
</g>
<!-- Node20&#45;&gt;Node37 -->
<g id="edge78" class="edge"><title>Node20&#45;&gt;Node37</title>
<path fill="none" stroke="midnightblue" d="M690.226,-450.717C702.054,-467.46 727.139,-499.787 756,-518 760.911,-521.099 766.343,-523.755 771.897,-526.021"/>
<polygon fill="midnightblue" stroke="midnightblue" points="770.697,-529.309 781.291,-529.477 773.114,-522.739 770.697,-529.309"/>
</g>
<!-- Node38 -->
<g id="node79" class="node"><title>Node38</title>
<a xlink:href="cvm-hfa-search_8h.html#ae9741e867075c9b8cc63a7d889d5bf20" target="_top" xlink:title="This routine is a variant of hfa_searchparam_set_inputiovec() when the previously searched input IO v...">
<polygon fill="white" stroke="black" points="758.5,-475 758.5,-509 879.5,-509 879.5,-475 758.5,-475"/>
<text text-anchor="start" x="766.5" y="-496" font-family="FreeSans" font-size="10.00">hfa_searchparam_set</text>
<text text-anchor="middle" x="819" y="-483" font-family="FreeSans" font-size="10.00">_inputiovec_0_n</text>
</a>
</g>
<!-- Node20&#45;&gt;Node38 -->
<g id="edge82" class="edge"><title>Node20&#45;&gt;Node38</title>
<path fill="none" stroke="midnightblue" d="M703.655,-447.898C719.967,-454.135 743.494,-463.13 765.052,-471.373"/>
<polygon fill="midnightblue" stroke="midnightblue" points="763.872,-474.669 774.463,-474.971 766.372,-468.13 763.872,-474.669"/>
</g>
<!-- Node39 -->
<g id="node82" class="node"><title>Node39</title>
<a xlink:href="cvm-hfa-search_8c.html#a57d7540278164eb6b6c132be00db0de5" target="_top" xlink:title="This routine performs a pattern search using the given parameters in a blocking manner.">
<polygon fill="white" stroke="red" points="757.5,-383.5 757.5,-404.5 880.5,-404.5 880.5,-383.5 757.5,-383.5"/>
<text text-anchor="middle" x="819" y="-391.5" font-family="FreeSans" font-size="10.00">hfa_searchctx_search</text>
</a>
</g>
<!-- Node20&#45;&gt;Node39 -->
<g id="edge86" class="edge"><title>Node20&#45;&gt;Node39</title>
<path fill="none" stroke="midnightblue" d="M703.701,-432.411C718.279,-427.12 738.277,-419.967 756,-414 762.138,-411.933 768.631,-409.806 775.025,-407.745"/>
<polygon fill="midnightblue" stroke="midnightblue" points="776.467,-410.959 784.926,-404.579 774.335,-404.291 776.467,-410.959"/>
</g>
<!-- Node20&#45;&gt;Node40 -->
<g id="edge98" class="edge"><title>Node20&#45;&gt;Node40</title>
<path fill="none" stroke="midnightblue" d="M703.608,-433.076C709.799,-430.01 716.002,-425.758 720,-420 786.035,-324.901 681.324,-250.475 756,-162 756.995,-160.822 758.058,-159.712 759.181,-158.667"/>
<polygon fill="midnightblue" stroke="midnightblue" points="761.361,-161.408 767.345,-152.665 757.215,-155.768 761.361,-161.408"/>
</g>
<!-- Node44 -->
<g id="node97" class="node"><title>Node44</title>
<a xlink:href="cvm-hfa-search_8h.html#ac5bcfbfda7036d9aca28a3c5828847a5" target="_top" xlink:title="This routine retrieves flags returned by post&#45;processor.">
<polygon fill="white" stroke="black" points="758,-423 758,-457 880,-457 880,-423 758,-423"/>
<text text-anchor="start" x="766" y="-444" font-family="FreeSans" font-size="10.00">hfa_searchparam_get</text>
<text text-anchor="middle" x="819" y="-431" font-family="FreeSans" font-size="10.00">_ppoflags</text>
</a>
</g>
<!-- Node20&#45;&gt;Node44 -->
<g id="edge106" class="edge"><title>Node20&#45;&gt;Node44</title>
<path fill="none" stroke="midnightblue" d="M703.655,-440C715.655,-440 731.559,-440 747.712,-440"/>
<polygon fill="midnightblue" stroke="midnightblue" points="747.768,-443.5 757.768,-440 747.768,-436.5 747.768,-443.5"/>
</g>
<!-- Node45 -->
<g id="node99" class="node"><title>Node45</title>
<a xlink:href="hfa-lnx_8c.html#a5c6551bf9ea9cf51ae7f2076c4cbe8ef" target="_top" xlink:title="Application cleanup will be done by this routine.">
<polygon fill="white" stroke="red" points="792,-263.5 792,-284.5 846,-284.5 846,-263.5 792,-263.5"/>
<text text-anchor="middle" x="819" y="-271.5" font-family="FreeSans" font-size="10.00">cleanup</text>
</a>
</g>
<!-- Node20&#45;&gt;Node45 -->
<g id="edge108" class="edge"><title>Node20&#45;&gt;Node45</title>
<path fill="none" stroke="midnightblue" d="M703.533,-432.538C709.571,-429.469 715.701,-425.351 720,-420 756.475,-374.596 715.421,-335.777 756,-294 762.943,-286.852 772.424,-282.252 781.923,-279.294"/>
<polygon fill="midnightblue" stroke="midnightblue" points="782.913,-282.653 791.723,-276.768 781.166,-275.875 782.913,-282.653"/>
</g>
<!-- Node21&#45;&gt;Node2 -->
<g id="edge50" class="edge"><title>Node21&#45;&gt;Node2</title>
<path fill="none" stroke="midnightblue" d="M866.183,-362.155C872.232,-365.017 877.776,-368.856 882,-374 973.109,-484.945 829.86,-581.681 918,-695 919.267,-696.629 920.649,-698.157 922.125,-699.588"/>
<polygon fill="midnightblue" stroke="midnightblue" points="920.19,-702.52 930.205,-705.978 924.532,-697.03 920.19,-702.52"/>
</g>
<!-- Node22 -->
<g id="node44" class="node"><title>Node22</title>
<a xlink:href="app-utils_8c.html#a8d5ec2ca8ebb2e04916983e6053a5c79" target="_top" xlink:title="Return size of a file(compressed or uncompressed).">
<polygon fill="white" stroke="red" points="939.5,-612.5 939.5,-633.5 1034.5,-633.5 1034.5,-612.5 939.5,-612.5"/>
<text text-anchor="middle" x="987" y="-620.5" font-family="FreeSans" font-size="10.00">hfautils_file_size</text>
</a>
</g>
<!-- Node21&#45;&gt;Node22 -->
<g id="edge44" class="edge"><title>Node21&#45;&gt;Node22</title>
<path fill="none" stroke="midnightblue" d="M866.295,-362.472C872.251,-365.294 877.738,-369.038 882,-374 949.131,-452.155 849.887,-525.7 918,-603 921.467,-606.935 925.657,-610.116 930.238,-612.686"/>
<polygon fill="midnightblue" stroke="midnightblue" points="928.895,-615.921 939.443,-616.911 931.815,-609.559 928.895,-615.921"/>
</g>
<!-- Node23 -->
<g id="node46" class="node"><title>Node23</title>
<a xlink:href="app-utils_8c.html#a12339c67618c4b3a54c32f43d378c273" target="_top" xlink:title="Read data from a file to a buffer(compressed or uncompressed).">
<polygon fill="white" stroke="red" points="938.5,-572.5 938.5,-593.5 1035.5,-593.5 1035.5,-572.5 938.5,-572.5"/>
<text text-anchor="middle" x="987" y="-580.5" font-family="FreeSans" font-size="10.00">hfautils_read_file</text>
</a>
</g>
<!-- Node21&#45;&gt;Node23 -->
<g id="edge46" class="edge"><title>Node21&#45;&gt;Node23</title>
<path fill="none" stroke="midnightblue" d="M866.151,-362.598C872.127,-365.402 877.658,-369.108 882,-374 938.757,-437.958 860.44,-499.764 918,-563 921.155,-566.466 924.87,-569.345 928.914,-571.736"/>
<polygon fill="midnightblue" stroke="midnightblue" points="927.673,-575.023 938.199,-576.225 930.72,-568.721 927.673,-575.023"/>
</g>
<!-- Node23&#45;&gt;Node3 -->
<g id="edge48" class="edge"><title>Node23&#45;&gt;Node3</title>
<path fill="none" stroke="midnightblue" d="M1035.83,-591.794C1043.08,-594.565 1050.09,-598.209 1056,-603 1087.55,-628.58 1105.4,-674.287 1113.54,-700.678"/>
<polygon fill="midnightblue" stroke="midnightblue" points="1110.21,-701.759 1116.36,-710.384 1116.93,-699.804 1110.21,-701.759"/>
</g>
<!-- Node25 -->
<g id="node52" class="node"><title>Node25</title>
<a xlink:href="cvm-hfa-stats_8c.html#a2fcf955b47370bfa46705ee5a23a70cf" target="_top" xlink:title="This routine allocates memory for counters to maintain statistics of each processing core...">
<polygon fill="white" stroke="red" points="936,-212.5 936,-233.5 1038,-233.5 1038,-212.5 936,-212.5"/>
<text text-anchor="middle" x="987" y="-220.5" font-family="FreeSans" font-size="10.00">hfa_dev_stats_init</text>
</a>
</g>
<!-- Node24&#45;&gt;Node25 -->
<g id="edge54" class="edge"><title>Node24&#45;&gt;Node25</title>
<path fill="none" stroke="midnightblue" d="M856.225,-306.543C865.214,-303.606 874.406,-299.557 882,-294 904.39,-277.615 895.405,-259.101 918,-243 920.692,-241.082 923.565,-239.347 926.555,-237.777"/>
<polygon fill="midnightblue" stroke="midnightblue" points="928.165,-240.889 935.803,-233.547 925.253,-234.524 928.165,-240.889"/>
</g>
<!-- Node26 -->
<g id="node54" class="node"><title>Node26</title>
<a xlink:href="cvm-hfa_8c.html#a27982497398da2118cd5287ed51732e7" target="_top" xlink:title="Provides device&#45;specific information This is a utility routine used to obtain HFA device&#45;specific det...">
<polygon fill="white" stroke="black" points="931.5,-172.5 931.5,-193.5 1042.5,-193.5 1042.5,-172.5 931.5,-172.5"/>
<text text-anchor="middle" x="987" y="-180.5" font-family="FreeSans" font-size="10.00">hfa_dev_getdevinfo</text>
</a>
</g>
<!-- Node24&#45;&gt;Node26 -->
<g id="edge56" class="edge"><title>Node24&#45;&gt;Node26</title>
<path fill="none" stroke="midnightblue" d="M856.229,-308.057C865.527,-305.094 874.868,-300.654 882,-294 913.802,-264.329 885.825,-232.267 918,-203 919.724,-201.432 921.564,-199.986 923.494,-198.653"/>
<polygon fill="midnightblue" stroke="midnightblue" points="925.527,-201.521 932.451,-193.501 922.037,-195.453 925.527,-201.521"/>
</g>
<!-- Node27 -->
<g id="node56" class="node"><title>Node27</title>
<a xlink:href="pp_8h.html#a6f5982b2671e9682262a26b0d2996396" target="_top" xlink:title="Constructs a readable version string for the PP library.">
<polygon fill="white" stroke="black" points="927,-132.5 927,-153.5 1047,-153.5 1047,-132.5 927,-132.5"/>
<text text-anchor="middle" x="987" y="-140.5" font-family="FreeSans" font-size="10.00">pp_get_version_string</text>
</a>
</g>
<!-- Node24&#45;&gt;Node27 -->
<g id="edge58" class="edge"><title>Node24&#45;&gt;Node27</title>
<path fill="none" stroke="midnightblue" d="M856.07,-308.768C865.588,-305.812 875.08,-301.197 882,-294 923.85,-250.476 875.603,-205.992 918,-163 919.412,-161.568 920.92,-160.237 922.506,-159"/>
<polygon fill="midnightblue" stroke="midnightblue" points="924.467,-161.901 931.007,-153.566 920.696,-156.003 924.467,-161.901"/>
</g>
<!-- Node28 -->
<g id="node58" class="node"><title>Node28</title>
<a xlink:href="cvm-hfa_8c.html#afd1d53fe8a402d4c5799e6e98c67baaa" target="_top" xlink:title="Displays HFA Device info.">
<polygon fill="white" stroke="red" points="928.5,-532.5 928.5,-553.5 1045.5,-553.5 1045.5,-532.5 928.5,-532.5"/>
<text text-anchor="middle" x="987" y="-540.5" font-family="FreeSans" font-size="10.00">hfa_dev_display_info</text>
</a>
</g>
<!-- Node24&#45;&gt;Node28 -->
<g id="edge60" class="edge"><title>Node24&#45;&gt;Node28</title>
<path fill="none" stroke="midnightblue" d="M856.125,-318.776C865.758,-321.723 875.297,-326.447 882,-334 938.757,-397.958 860.44,-459.764 918,-523 919.183,-524.3 920.445,-525.517 921.774,-526.657"/>
<polygon fill="midnightblue" stroke="midnightblue" points="919.814,-529.557 930.026,-532.377 923.801,-523.804 919.814,-529.557"/>
</g>
<!-- Node29 -->
<g id="node60" class="node"><title>Node29</title>
<a xlink:href="cvm-hfa_8c.html#a236e64ca73680ea6761204d5c44d4e96" target="_top" xlink:title="API to set PP resource allocator for partial matches.">
<polygon fill="white" stroke="black" points="919.5,-492.5 919.5,-513.5 1054.5,-513.5 1054.5,-492.5 919.5,-492.5"/>
<text text-anchor="middle" x="987" y="-500.5" font-family="FreeSans" font-size="10.00">hfa_dev_set_fnp_ppalloc</text>
</a>
</g>
<!-- Node24&#45;&gt;Node29 -->
<g id="edge62" class="edge"><title>Node24&#45;&gt;Node29</title>
<path fill="none" stroke="midnightblue" d="M856.218,-319.092C865.737,-322.047 875.193,-326.697 882,-334 928.45,-383.837 870.924,-433.754 918,-483 919.244,-484.302 920.568,-485.52 921.957,-486.661"/>
<polygon fill="midnightblue" stroke="midnightblue" points="920.286,-489.752 930.551,-492.376 924.163,-483.924 920.286,-489.752"/>
</g>
<!-- Node30 -->
<g id="node62" class="node"><title>Node30</title>
<a xlink:href="cvm-hfa_8c.html#ab547f175726534d6a0a334eb35af4980" target="_top" xlink:title="Default function pointer for PP allocations.">
<polygon fill="white" stroke="black" points="927,-452.5 927,-473.5 1047,-473.5 1047,-452.5 927,-452.5"/>
<text text-anchor="middle" x="987" y="-460.5" font-family="FreeSans" font-size="10.00">hfa_defaultfn_ppalloc</text>
</a>
</g>
<!-- Node24&#45;&gt;Node30 -->
<g id="edge64" class="edge"><title>Node24&#45;&gt;Node30</title>
<path fill="none" stroke="midnightblue" d="M856.162,-319.567C865.569,-322.529 874.981,-327.062 882,-334 918.284,-369.866 881.266,-407.596 918,-443 919.482,-444.428 921.059,-445.755 922.714,-446.988"/>
<polygon fill="midnightblue" stroke="midnightblue" points="921.189,-450.159 931.544,-452.404 924.849,-444.192 921.189,-450.159"/>
</g>
<!-- Node31 -->
<g id="node64" class="node"><title>Node31</title>
<a xlink:href="cvm-hfa_8c.html#a148abbfdeebb207ff46884af8eeb8fa4" target="_top" xlink:title="API to set PP resource deallocator for partial matches.">
<polygon fill="white" stroke="black" points="921,-412.5 921,-433.5 1053,-433.5 1053,-412.5 921,-412.5"/>
<text text-anchor="middle" x="987" y="-420.5" font-family="FreeSans" font-size="10.00">hfa_dev_set_fnp_ppfree</text>
</a>
</g>
<!-- Node24&#45;&gt;Node31 -->
<g id="edge66" class="edge"><title>Node24&#45;&gt;Node31</title>
<path fill="none" stroke="midnightblue" d="M856.107,-320.557C865.299,-323.516 874.619,-327.8 882,-334 908.486,-356.248 891.235,-381.089 918,-403 920.027,-404.659 922.185,-406.181 924.44,-407.576"/>
<polygon fill="midnightblue" stroke="midnightblue" points="923.061,-410.805 933.542,-412.356 926.316,-404.608 923.061,-410.805"/>
</g>
<!-- Node32 -->
<g id="node66" class="node"><title>Node32</title>
<a xlink:href="cvm-hfa_8c.html#a832239ee7b188265bdacbbfb7e879af1" target="_top" xlink:title="Default function pointer for PP deallocations.">
<polygon fill="white" stroke="black" points="928.5,-372.5 928.5,-393.5 1045.5,-393.5 1045.5,-372.5 928.5,-372.5"/>
<text text-anchor="middle" x="987" y="-380.5" font-family="FreeSans" font-size="10.00">hfa_defaultfn_ppfree</text>
</a>
</g>
<!-- Node24&#45;&gt;Node32 -->
<g id="edge68" class="edge"><title>Node24&#45;&gt;Node32</title>
<path fill="none" stroke="midnightblue" d="M856.25,-323.311C864.956,-326.165 874.013,-329.711 882,-334 900.101,-343.719 899.777,-353.51 918,-363 922.269,-365.223 926.82,-367.231 931.469,-369.037"/>
<polygon fill="midnightblue" stroke="midnightblue" points="930.499,-372.407 941.094,-372.467 932.849,-365.813 930.499,-372.407"/>
</g>
<!-- Node33 -->
<g id="node68" class="node"><title>Node33</title>
<a xlink:href="cvm-hfa_8c.html#a774451b83b300f862763d189c9758e1f" target="_top" xlink:title="API to set PP buffer size function pointer.">
<polygon fill="white" stroke="black" points="921,-332.5 921,-353.5 1053,-353.5 1053,-332.5 921,-332.5"/>
<text text-anchor="middle" x="987" y="-340.5" font-family="FreeSans" font-size="10.00">hfa_dev_set_fnp_ppsize</text>
</a>
</g>
<!-- Node24&#45;&gt;Node33 -->
<g id="edge70" class="edge"><title>Node24&#45;&gt;Node33</title>
<path fill="none" stroke="midnightblue" d="M856.285,-320.436C873.896,-323.476 895.525,-327.21 916.083,-330.758"/>
<polygon fill="midnightblue" stroke="midnightblue" points="915.616,-334.23 926.066,-332.482 916.807,-327.332 915.616,-334.23"/>
</g>
<!-- Node34 -->
<g id="node70" class="node"><title>Node34</title>
<a xlink:href="cvm-hfa_8c.html#a11aab8e30488e4cfc900f60a0dabc784" target="_top" xlink:title="Default function pointer for PP size.">
<polygon fill="white" stroke="black" points="928.5,-292.5 928.5,-313.5 1045.5,-313.5 1045.5,-292.5 928.5,-292.5"/>
<text text-anchor="middle" x="987" y="-300.5" font-family="FreeSans" font-size="10.00">hfa_defaultfn_ppsize</text>
</a>
</g>
<!-- Node24&#45;&gt;Node34 -->
<g id="edge72" class="edge"><title>Node24&#45;&gt;Node34</title>
<path fill="none" stroke="midnightblue" d="M856.285,-311.559C874.478,-310.368 896.958,-308.896 918.115,-307.51"/>
<polygon fill="midnightblue" stroke="midnightblue" points="918.621,-310.985 928.371,-306.839 918.163,-304 918.621,-310.985"/>
</g>
<!-- Node35 -->
<g id="node72" class="node"><title>Node35</title>
<a xlink:href="cvm-hfa_8c.html#a9a0b038e0d29435cb91a21d9c62806cc" target="_top" xlink:title="API to set PP resource allocator for temporary memory.">
<polygon fill="white" stroke="black" points="918,-252.5 918,-273.5 1056,-273.5 1056,-252.5 918,-252.5"/>
<text text-anchor="middle" x="987" y="-260.5" font-family="FreeSans" font-size="10.00">hfa_dev_set_fnp_pptalloc</text>
</a>
</g>
<!-- Node24&#45;&gt;Node35 -->
<g id="edge74" class="edge"><title>Node24&#45;&gt;Node35</title>
<path fill="none" stroke="midnightblue" d="M851.946,-303.49C871.178,-297.404 895.928,-289.654 918,-283 925.224,-280.822 932.886,-278.557 940.377,-276.367"/>
<polygon fill="midnightblue" stroke="midnightblue" points="941.45,-279.7 950.074,-273.546 939.494,-272.979 941.45,-279.7"/>
</g>
<!-- Node39&#45;&gt;Node9 -->
<g id="edge88" class="edge"><title>Node39&#45;&gt;Node9</title>
<path fill="none" stroke="midnightblue" d="M870.288,-404.55C874.69,-407.065 878.71,-410.17 882,-414 949.131,-492.155 852.962,-563.095 918,-643 918.601,-643.738 919.225,-644.456 919.871,-645.153"/>
<polygon fill="midnightblue" stroke="midnightblue" points="917.701,-647.905 927.527,-651.87 922.318,-642.644 917.701,-647.905"/>
</g>
<!-- Node41 -->
<g id="node91" class="node"><title>Node41</title>
<a xlink:href="cvm-hfa-search_8c.html#a0ac0bca99358ad294a18f86696acf218" target="_top" xlink:title="This routine returns a match by parsing through the match buffer.">
<polygon fill="white" stroke="black" points="943,-0.5 943,-21.5 1031,-21.5 1031,-0.5 943,-0.5"/>
<text text-anchor="middle" x="987" y="-8.5" font-family="FreeSans" font-size="10.00">hfa_match_get</text>
</a>
</g>
<!-- Node40&#45;&gt;Node41 -->
<g id="edge100" class="edge"><title>Node40&#45;&gt;Node41</title>
<path fill="none" stroke="midnightblue" d="M825.494,-131.352C839.537,-109.233 874.963,-58.1202 918,-31 922.682,-28.0493 927.815,-25.5207 933.1,-23.3564"/>
<polygon fill="midnightblue" stroke="midnightblue" points="934.525,-26.5621 942.716,-19.8417 932.122,-19.9875 934.525,-26.5621"/>
</g>
<!-- Node42 -->
<g id="node93" class="node"><title>Node42</title>
<a xlink:href="cvm-hfa-search_8c.html#a543990bc2a5e1726298e5053391e3bf5" target="_top" xlink:title="This routine cleans&#45;up the match&#45;buffers allocated by hfa_searchctx_getmatches().">
<polygon fill="white" stroke="black" points="925.5,-40.5 925.5,-61.5 1048.5,-61.5 1048.5,-40.5 925.5,-40.5"/>
<text text-anchor="middle" x="987" y="-48.5" font-family="FreeSans" font-size="10.00">hfa_matches_cleanup</text>
</a>
</g>
<!-- Node40&#45;&gt;Node42 -->
<g id="edge102" class="edge"><title>Node40&#45;&gt;Node42</title>
<path fill="none" stroke="midnightblue" d="M830.941,-131.341C848.723,-115.977 883.754,-87.633 918,-71 922.649,-68.7421 927.601,-66.6911 932.635,-64.8392"/>
<polygon fill="midnightblue" stroke="midnightblue" points="934.027,-68.0625 942.362,-61.5213 931.767,-61.4373 934.027,-68.0625"/>
</g>
<!-- Node43 -->
<g id="node95" class="node"><title>Node43</title>
<a xlink:href="cvm-hfa-res_8c.html#a78813e2d747c1d659277b705ebdffc50" target="_top" xlink:title="Rfree">
<polygon fill="white" stroke="black" points="1098,-40.5 1098,-61.5 1140,-61.5 1140,-40.5 1098,-40.5"/>
<text text-anchor="middle" x="1119" y="-48.5" font-family="FreeSans" font-size="10.00">Rfree</text>
</a>
</g>
<!-- Node42&#45;&gt;Node43 -->
<g id="edge104" class="edge"><title>Node42&#45;&gt;Node43</title>
<path fill="none" stroke="midnightblue" d="M1048.75,-51C1062.31,-51 1076.11,-51 1087.85,-51"/>
<polygon fill="midnightblue" stroke="midnightblue" points="1087.99,-54.5001 1097.99,-51 1087.99,-47.5001 1087.99,-54.5001"/>
</g>
<!-- Node45&#45;&gt;Node46 -->
<g id="edge110" class="edge"><title>Node45&#45;&gt;Node46</title>
<path fill="none" stroke="midnightblue" d="M846.002,-271.34C858.496,-268.773 872.615,-263.761 882,-254 923.85,-210.476 877.317,-167.617 918,-123 918.776,-122.149 919.583,-121.325 920.418,-120.528"/>
<polygon fill="midnightblue" stroke="midnightblue" points="922.923,-123.009 928.589,-114.057 918.577,-117.522 922.923,-123.009"/>
</g>
<!-- Node49 -->
<g id="node107" class="node"><title>Node49</title>
<a xlink:href="cvm-hfa-res_8c.html#a70c9e55ba1fcb934f74ad71ddca9d08f" target="_top" xlink:title="Radd">
<polygon fill="white" stroke="black" points="662.5,-285.5 662.5,-306.5 703.5,-306.5 703.5,-285.5 662.5,-285.5"/>
<text text-anchor="middle" x="683" y="-293.5" font-family="FreeSans" font-size="10.00">Radd</text>
</a>
</g>
<!-- Node48&#45;&gt;Node49 -->
<g id="edge116" class="edge"><title>Node48&#45;&gt;Node49</title>
<path fill="none" stroke="midnightblue" d="M608.691,-296C622.257,-296 638.47,-296 652.284,-296"/>
<polygon fill="midnightblue" stroke="midnightblue" points="652.298,-299.5 662.298,-296 652.298,-292.5 652.298,-299.5"/>
</g>
</g>
</svg>
