<?xml version="1.0" encoding="UTF-8" standalone="no"?>
<!DOCTYPE svg PUBLIC "-//W3C//DTD SVG 1.1//EN"
 "http://www.w3.org/Graphics/SVG/1.1/DTD/svg11.dtd">
<!-- Generated by graphviz version 2.24.0 (20090616.2323)
 -->
<!-- Title: refill_cache Pages: 1 -->
<svg width="388pt" height="30pt"
 viewBox="0.00 0.00 388.00 30.00" xmlns="http://www.w3.org/2000/svg" xmlns:xlink="http://www.w3.org/1999/xlink">
<g id="graph1" class="graph" transform="scale(1 1) rotate(0) translate(4 26)">
<title>refill_cache</title>
<polygon fill="white" stroke="white" points="-4,5 -4,-26 385,-26 385,5 -4,5"/>
<!-- Node1 -->
<g id="node1" class="node"><title>Node1</title>
<polygon fill="#bfbfbf" stroke="black" points="0.5,-0.5 0.5,-21.5 71.5,-21.5 71.5,-0.5 0.5,-0.5"/>
<text text-anchor="middle" x="36" y="-8.5" font-family="FreeSans" font-size="10.00">refill_cache</text>
</g>
<!-- Node2 -->
<g id="node3" class="node"><title>Node2</title>
<a xlink:href="hfa-se-flow_8c.html#a786591694a8f8fb46cedbc8a580c88f6" target="_top" xlink:title="Submitting or Polling flows from the software recently used cache IF Cache is empty, it tries to refill it.">
<polygon fill="white" stroke="black" points="108.5,-0.5 108.5,-21.5 171.5,-21.5 171.5,-0.5 108.5,-0.5"/>
<text text-anchor="middle" x="140" y="-8.5" font-family="FreeSans" font-size="10.00">do_cache</text>
</a>
</g>
<!-- Node1&#45;&gt;Node2 -->
<g id="edge2" class="edge"><title>Node1&#45;&gt;Node2</title>
<path fill="none" stroke="midnightblue" d="M81.5804,-11C90.662,-11 100.009,-11 108.49,-11"/>
<polygon fill="midnightblue" stroke="midnightblue" points="81.5001,-7.5001 71.5,-11 81.5,-14.5001 81.5001,-7.5001"/>
</g>
<!-- Node3 -->
<g id="node5" class="node"><title>Node3</title>
<a xlink:href="hfa-se-flow_8c.html#aba72a61590283e37ffd78b4defd38220" target="_top" xlink:title="Receive network packets and process.">
<polygon fill="white" stroke="black" points="208,-0.5 208,-21.5 304,-21.5 304,-0.5 208,-0.5"/>
<text text-anchor="middle" x="256" y="-8.5" font-family="FreeSans" font-size="10.00">process_packets</text>
</a>
</g>
<!-- Node2&#45;&gt;Node3 -->
<g id="edge4" class="edge"><title>Node2&#45;&gt;Node3</title>
<path fill="none" stroke="midnightblue" d="M181.711,-11C190.17,-11 199.131,-11 207.792,-11"/>
<polygon fill="midnightblue" stroke="midnightblue" points="181.698,-7.5001 171.698,-11 181.697,-14.5001 181.698,-7.5001"/>
</g>
<!-- Node4 -->
<g id="node7" class="node"><title>Node4</title>
<a xlink:href="hfa-se-flow-wqe_8c.html#a3c04138a5bfe5d72780bb7e82a18e627" target="_top" xlink:title="Implementation.">
<polygon fill="white" stroke="black" points="340,-0.5 340,-21.5 380,-21.5 380,-0.5 340,-0.5"/>
<text text-anchor="middle" x="360" y="-8.5" font-family="FreeSans" font-size="10.00">main</text>
</a>
</g>
<!-- Node3&#45;&gt;Node4 -->
<g id="edge6" class="edge"><title>Node3&#45;&gt;Node4</title>
<path fill="none" stroke="midnightblue" d="M314.146,-11C323.414,-11 332.419,-11 339.958,-11"/>
<polygon fill="midnightblue" stroke="midnightblue" points="314.043,-7.5001 304.042,-11 314.042,-14.5001 314.043,-7.5001"/>
</g>
</g>
</svg>
