<?xml version="1.0" encoding="UTF-8" standalone="no"?>
<!DOCTYPE svg PUBLIC "-//W3C//DTD SVG 1.1//EN"
 "http://www.w3.org/Graphics/SVG/1.1/DTD/svg11.dtd">
<!-- Generated by graphviz version 2.24.0 (20090616.2323)
 -->
<!-- Title: post_process Pages: 1 -->
<svg width="234pt" height="50pt"
 viewBox="0.00 0.00 234.00 50.00" xmlns="http://www.w3.org/2000/svg" xmlns:xlink="http://www.w3.org/1999/xlink">
<g id="graph1" class="graph" transform="scale(1 1) rotate(0) translate(4 46)">
<title>post_process</title>
<polygon fill="white" stroke="white" points="-4,5 -4,-46 231,-46 231,5 -4,5"/>
<!-- Node1 -->
<g id="node1" class="node"><title>Node1</title>
<polygon fill="#bfbfbf" stroke="black" points="0,-0.5 0,-21.5 80,-21.5 80,-0.5 0,-0.5"/>
<text text-anchor="middle" x="40" y="-8.5" font-family="FreeSans" font-size="10.00">post_process</text>
</g>
<!-- Node2 -->
<g id="node3" class="node"><title>Node2</title>
<a xlink:href="hfa-se-nctx_8c.html#ad660f62f0a8eed8d8358bbbdc7c83e97" target="_top" xlink:title="Poll for the pending search instructions in the HW (blocked till instruction completes) and process t...">
<polygon fill="white" stroke="black" points="116.5,-20.5 116.5,-41.5 149.5,-41.5 149.5,-20.5 116.5,-20.5"/>
<text text-anchor="middle" x="133" y="-28.5" font-family="FreeSans" font-size="10.00">poll</text>
</a>
</g>
<!-- Node1&#45;&gt;Node2 -->
<g id="edge2" class="edge"><title>Node1&#45;&gt;Node2</title>
<path fill="none" stroke="midnightblue" d="M90.0294,-21.759C99.4084,-23.776 108.595,-25.7516 116.051,-27.3549"/>
<polygon fill="midnightblue" stroke="midnightblue" points="90.7626,-18.3367 80.2503,-19.656 89.2909,-25.1803 90.7626,-18.3367"/>
</g>
<!-- Node3 -->
<g id="node5" class="node"><title>Node3</title>
<a xlink:href="hfa-se-nctx_8c.html#a3c04138a5bfe5d72780bb7e82a18e627" target="_top" xlink:title="main">
<polygon fill="white" stroke="black" points="186,-0.5 186,-21.5 226,-21.5 226,-0.5 186,-0.5"/>
<text text-anchor="middle" x="206" y="-8.5" font-family="FreeSans" font-size="10.00">main</text>
</a>
</g>
<!-- Node1&#45;&gt;Node3 -->
<g id="edge6" class="edge"><title>Node1&#45;&gt;Node3</title>
<path fill="none" stroke="midnightblue" d="M90.3005,-11C122.394,-11 162.25,-11 185.821,-11"/>
<polygon fill="midnightblue" stroke="midnightblue" points="90.184,-7.5001 80.184,-11 90.1839,-14.5001 90.184,-7.5001"/>
</g>
<!-- Node2&#45;&gt;Node3 -->
<g id="edge4" class="edge"><title>Node2&#45;&gt;Node3</title>
<path fill="none" stroke="midnightblue" d="M159.31,-23.7919C168.057,-21.3953 177.654,-18.7661 185.859,-16.518"/>
<polygon fill="midnightblue" stroke="midnightblue" points="158.285,-20.4437 149.565,-26.4617 160.134,-27.1949 158.285,-20.4437"/>
</g>
</g>
</svg>
