<?xml version="1.0" encoding="UTF-8" standalone="no"?>
<!DOCTYPE svg PUBLIC "-//W3C//DTD SVG 1.1//EN"
 "http://www.w3.org/Graphics/SVG/1.1/DTD/svg11.dtd">
<!-- Generated by graphviz version 2.24.0 (20090616.2323)
 -->
<!-- Title: cleanup Pages: 1 -->
<svg width="774pt" height="590pt"
 viewBox="0.00 0.00 774.00 590.00" xmlns="http://www.w3.org/2000/svg" xmlns:xlink="http://www.w3.org/1999/xlink">
<g id="graph1" class="graph" transform="scale(1 1) rotate(0) translate(4 586)">
<title>cleanup</title>
<polygon fill="white" stroke="white" points="-4,5 -4,-586 771,-586 771,5 -4,5"/>
<!-- Node1 -->
<g id="node1" class="node"><title>Node1</title>
<polygon fill="#bfbfbf" stroke="black" points="0,-100.5 0,-121.5 54,-121.5 54,-100.5 0,-100.5"/>
<text text-anchor="middle" x="27" y="-108.5" font-family="FreeSans" font-size="10.00">cleanup</text>
</g>
<!-- Node2 -->
<g id="node3" class="node"><title>Node2</title>
<a xlink:href="cvm-hfa-graph_8c.html#aa4ce7845277b4b3099159bbd7afd5c08" target="_top" xlink:title="This routine is used to cacheunload a cacheload&#39;ed graph in a non&#45;blocking manner.">
<polygon fill="white" stroke="black" points="90,-200.5 90,-221.5 222,-221.5 222,-200.5 90,-200.5"/>
<text text-anchor="middle" x="156" y="-208.5" font-family="FreeSans" font-size="10.00">hfa_graph_cacheunload</text>
</a>
</g>
<!-- Node1&#45;&gt;Node2 -->
<g id="edge2" class="edge"><title>Node1&#45;&gt;Node2</title>
<path fill="none" stroke="midnightblue" d="M32.4636,-121.515C41.8909,-138.63 62.8423,-172.461 90,-191 92.8553,-192.949 95.9062,-194.713 99.0722,-196.309"/>
<polygon fill="midnightblue" stroke="midnightblue" points="97.6724,-199.517 108.233,-200.374 100.512,-193.118 97.6724,-199.517"/>
</g>
<!-- Node20 -->
<g id="node39" class="node"><title>Node20</title>
<a xlink:href="cvm-hfa-graph_8c.html#a5e79919f5903d97aee5e82bfc7e71597" target="_top" xlink:title="This routine is the counterpart of hfa_dev_graph_init().">
<polygon fill="white" stroke="black" points="90,-160.5 90,-181.5 222,-181.5 222,-160.5 90,-160.5"/>
<text text-anchor="middle" x="156" y="-168.5" font-family="FreeSans" font-size="10.00">hfa_dev_graph_cleanup</text>
</a>
</g>
<!-- Node1&#45;&gt;Node20 -->
<g id="edge38" class="edge"><title>Node1&#45;&gt;Node20</title>
<path fill="none" stroke="midnightblue" d="M41.3731,-121.728C53.7419,-130.559 72.3351,-142.899 90,-151 94.8974,-153.246 100.112,-155.32 105.382,-157.214"/>
<polygon fill="midnightblue" stroke="midnightblue" points="104.275,-160.534 114.869,-160.425 106.52,-153.904 104.275,-160.534"/>
</g>
<!-- Node21 -->
<g id="node41" class="node"><title>Node21</title>
<a xlink:href="cvm-hfa_8h.html#a1afec397da10d79424478877387414f3" target="_top" xlink:title="Returns number of clusters configured in device.">
<polygon fill="white" stroke="black" points="94,-120.5 94,-141.5 218,-141.5 218,-120.5 94,-120.5"/>
<text text-anchor="middle" x="156" y="-128.5" font-family="FreeSans" font-size="10.00">hfa_dev_get_nclusters</text>
</a>
</g>
<!-- Node1&#45;&gt;Node21 -->
<g id="edge40" class="edge"><title>Node1&#45;&gt;Node21</title>
<path fill="none" stroke="midnightblue" d="M54.0426,-115.193C62.8887,-116.564 73.1733,-118.159 83.7397,-119.797"/>
<polygon fill="midnightblue" stroke="midnightblue" points="83.5009,-123.302 93.9191,-121.375 84.5734,-116.384 83.5009,-123.302"/>
</g>
<!-- Node22 -->
<g id="node43" class="node"><title>Node22</title>
<a xlink:href="cvm-hfa_8c.html#af14bebdd444bd0bf92faac9d5d88b492" target="_top" xlink:title="This function is called by application to cleanup all resources configured for HFA device and then sh...">
<polygon fill="white" stroke="black" points="106.5,-80.5 106.5,-101.5 205.5,-101.5 205.5,-80.5 106.5,-80.5"/>
<text text-anchor="middle" x="156" y="-88.5" font-family="FreeSans" font-size="10.00">hfa_dev_cleanup</text>
</a>
</g>
<!-- Node1&#45;&gt;Node22 -->
<g id="edge42" class="edge"><title>Node1&#45;&gt;Node22</title>
<path fill="none" stroke="midnightblue" d="M54.0426,-106.807C66.3484,-104.899 81.4379,-102.56 96.1976,-100.272"/>
<polygon fill="midnightblue" stroke="midnightblue" points="96.9792,-103.692 106.325,-98.7016 95.9067,-96.7751 96.9792,-103.692"/>
</g>
<!-- Node26 -->
<g id="node51" class="node"><title>Node26</title>
<a xlink:href="hfa-se-async_8c.html#ab7c49f9e444155d2c083420cad401793" target="_top" xlink:title="Cleanup cluster memory resources.">
<polygon fill="white" stroke="black" points="110,-40.5 110,-61.5 202,-61.5 202,-40.5 110,-40.5"/>
<text text-anchor="middle" x="156" y="-48.5" font-family="FreeSans" font-size="10.00">cluster_cleanup</text>
</a>
</g>
<!-- Node1&#45;&gt;Node26 -->
<g id="edge50" class="edge"><title>Node1&#45;&gt;Node26</title>
<path fill="none" stroke="midnightblue" d="M41.3731,-100.272C53.7419,-91.4414 72.3351,-79.1008 90,-71 94.8974,-68.7541 100.112,-66.6799 105.382,-64.7862"/>
<polygon fill="midnightblue" stroke="midnightblue" points="106.52,-68.0963 114.869,-61.5748 104.275,-61.4659 106.52,-68.0963"/>
</g>
<!-- Node28 -->
<g id="node55" class="node"><title>Node28</title>
<a xlink:href="app-utils_8c.html#ac901336400f0dbebd501a1c03730b031" target="_top" xlink:title="Perform a soft reset of Octeon.">
<polygon fill="white" stroke="black" points="97,-0.5 97,-21.5 215,-21.5 215,-0.5 97,-0.5"/>
<text text-anchor="middle" x="156" y="-8.5" font-family="FreeSans" font-size="10.00">hfautils_reset_octeon</text>
</a>
</g>
<!-- Node1&#45;&gt;Node28 -->
<g id="edge54" class="edge"><title>Node1&#45;&gt;Node28</title>
<path fill="none" stroke="midnightblue" d="M32.4636,-100.485C41.8909,-83.3699 62.8423,-49.5389 90,-31 92.8553,-29.0508 95.9062,-27.287 99.0722,-25.6913"/>
<polygon fill="midnightblue" stroke="midnightblue" points="100.512,-28.8816 108.233,-21.6259 97.6724,-22.4834 100.512,-28.8816"/>
</g>
<!-- Node3 -->
<g id="node5" class="node"><title>Node3</title>
<a xlink:href="cvm-hfa-graph_8c.html#afb63ce4f42afc7987e6222b1c1ea91a1" target="_top" xlink:title="This routine is used to cacheunload a cacheload&#39;ed graph in a non&#45;blocking manner.">
<polygon fill="white" stroke="black" points="270,-394 270,-428 402,-428 402,-394 270,-394"/>
<text text-anchor="start" x="278" y="-415" font-family="FreeSans" font-size="10.00">hfa_graph_cacheunload</text>
<text text-anchor="middle" x="336" y="-402" font-family="FreeSans" font-size="10.00">_async</text>
</a>
</g>
<!-- Node2&#45;&gt;Node3 -->
<g id="edge4" class="edge"><title>Node2&#45;&gt;Node3</title>
<path fill="none" stroke="midnightblue" d="M165.678,-221.753C193.519,-252.688 274.344,-342.493 313.803,-386.337"/>
<polygon fill="midnightblue" stroke="midnightblue" points="311.377,-388.873 320.668,-393.964 316.58,-384.19 311.377,-388.873"/>
</g>
<!-- Node13 -->
<g id="node25" class="node"><title>Node13</title>
<a xlink:href="cvm-hfa-graph_8c.html#a0f2f13fb51e5d56dcf049ff3c7c6ad78" target="_top" xlink:title="This routine is used to check the status of the graph.">
<polygon fill="white" stroke="black" points="279,-200.5 279,-221.5 393,-221.5 393,-200.5 279,-200.5"/>
<text text-anchor="middle" x="336" y="-208.5" font-family="FreeSans" font-size="10.00">hfa_graph_getstatus</text>
</a>
</g>
<!-- Node2&#45;&gt;Node13 -->
<g id="edge24" class="edge"><title>Node2&#45;&gt;Node13</title>
<path fill="none" stroke="midnightblue" d="M222.003,-211C237.167,-211 253.31,-211 268.534,-211"/>
<polygon fill="midnightblue" stroke="midnightblue" points="268.904,-214.5 278.904,-211 268.904,-207.5 268.904,-214.5"/>
</g>
<!-- Node4 -->
<g id="node7" class="node"><title>Node4</title>
<a xlink:href="cvm-hfa-instr_8h.html#acaf8def6cbffb04c100bf7f7684f242e" target="_top" xlink:title="Initialize the HFA instruction.">
<polygon fill="white" stroke="black" points="472.5,-560.5 472.5,-581.5 575.5,-581.5 575.5,-560.5 472.5,-560.5"/>
<text text-anchor="middle" x="524" y="-568.5" font-family="FreeSans" font-size="10.00">cvm_hfa_instr_init</text>
</a>
</g>
<!-- Node3&#45;&gt;Node4 -->
<g id="edge6" class="edge"><title>Node3&#45;&gt;Node4</title>
<path fill="none" stroke="midnightblue" d="M345.127,-428.122C361.852,-457.81 400.308,-518.749 450,-551 454.043,-553.624 458.423,-555.906 462.965,-557.89"/>
<polygon fill="midnightblue" stroke="midnightblue" points="461.866,-561.218 472.455,-561.558 464.39,-554.688 461.866,-561.218"/>
</g>
<!-- Node5 -->
<g id="node9" class="node"><title>Node5</title>
<a xlink:href="cvm-hfa-instr_8h.html#a2d6082e2e599fe8523162b18d0a06f6c" target="_top" xlink:title="Sets rptr in the instruction.">
<polygon fill="white" stroke="black" points="464,-520.5 464,-541.5 584,-541.5 584,-520.5 464,-520.5"/>
<text text-anchor="middle" x="524" y="-528.5" font-family="FreeSans" font-size="10.00">cvm_hfa_instr_setrptr</text>
</a>
</g>
<!-- Node3&#45;&gt;Node5 -->
<g id="edge8" class="edge"><title>Node3&#45;&gt;Node5</title>
<path fill="none" stroke="midnightblue" d="M350.82,-428.162C371.031,-450.497 409.393,-489.235 450,-511 454.179,-513.24 458.627,-515.243 463.19,-517.033"/>
<polygon fill="midnightblue" stroke="midnightblue" points="462.071,-520.35 472.666,-520.414 464.423,-513.757 462.071,-520.35"/>
</g>
<!-- Node6 -->
<g id="node11" class="node"><title>Node6</title>
<a xlink:href="cvm-hfa-instr_8h.html#a6960a0761295ada9f449ea5e8c41ec80" target="_top" xlink:title="Sets clmsk in the instruction.">
<polygon fill="white" stroke="black" points="458,-480.5 458,-501.5 590,-501.5 590,-480.5 458,-480.5"/>
<text text-anchor="middle" x="524" y="-488.5" font-family="FreeSans" font-size="10.00">cvm_hfa_instr_setclmsk</text>
</a>
</g>
<!-- Node3&#45;&gt;Node6 -->
<g id="edge10" class="edge"><title>Node3&#45;&gt;Node6</title>
<path fill="none" stroke="midnightblue" d="M364.221,-428.102C386.801,-441.227 419.606,-459.064 450,-471 455.934,-473.331 462.239,-475.489 468.567,-477.459"/>
<polygon fill="midnightblue" stroke="midnightblue" points="467.9,-480.911 478.482,-480.395 469.888,-474.2 467.9,-480.911"/>
</g>
<!-- Node7 -->
<g id="node13" class="node"><title>Node7</title>
<a xlink:href="cvm-hfa-instr_8h.html#add4e981377a02cd06e2bca116e584bca" target="_top" xlink:title="Sets vgid in the instruction.">
<polygon fill="white" stroke="black" points="462,-440.5 462,-461.5 586,-461.5 586,-440.5 462,-440.5"/>
<text text-anchor="middle" x="524" y="-448.5" font-family="FreeSans" font-size="10.00">cvm_hfa_instr_setvgid</text>
</a>
</g>
<!-- Node3&#45;&gt;Node7 -->
<g id="edge12" class="edge"><title>Node3&#45;&gt;Node7</title>
<path fill="none" stroke="midnightblue" d="M402.017,-425.046C422.382,-429.379 444.675,-434.122 464.568,-438.355"/>
<polygon fill="midnightblue" stroke="midnightblue" points="463.915,-441.794 474.424,-440.452 465.372,-434.947 463.915,-441.794"/>
</g>
<!-- Node8 -->
<g id="node15" class="node"><title>Node8</title>
<a xlink:href="cvm-hfa-common_8h.html#a0da7c57174fb96d75ae9cc2ed3116a05" target="_top" xlink:title="Dump buffer pointed by &quot;buf&quot; in readable format.">
<polygon fill="white" stroke="black" points="481,-400.5 481,-421.5 567,-421.5 567,-400.5 481,-400.5"/>
<text text-anchor="middle" x="524" y="-408.5" font-family="FreeSans" font-size="10.00">hfa_dump_buf</text>
</a>
</g>
<!-- Node3&#45;&gt;Node8 -->
<g id="edge14" class="edge"><title>Node3&#45;&gt;Node8</title>
<path fill="none" stroke="midnightblue" d="M402.017,-411C424.475,-411 449.278,-411 470.621,-411"/>
<polygon fill="midnightblue" stroke="midnightblue" points="470.796,-414.5 480.796,-411 470.796,-407.5 470.796,-414.5"/>
</g>
<!-- Node9 -->
<g id="node17" class="node"><title>Node9</title>
<a xlink:href="cvm-hfa-instr_8h.html#a88a92a987acac81360f3b880d013cd10" target="_top" xlink:title="Sets wqptr instruction.">
<polygon fill="white" stroke="black" points="458.5,-360.5 458.5,-381.5 589.5,-381.5 589.5,-360.5 458.5,-360.5"/>
<text text-anchor="middle" x="524" y="-368.5" font-family="FreeSans" font-size="10.00">cvm_hfa_instr_setwqptr</text>
</a>
</g>
<!-- Node3&#45;&gt;Node9 -->
<g id="edge16" class="edge"><title>Node3&#45;&gt;Node9</title>
<path fill="none" stroke="midnightblue" d="M402.017,-396.954C422.382,-392.621 444.675,-387.878 464.568,-383.645"/>
<polygon fill="midnightblue" stroke="midnightblue" points="465.372,-387.053 474.424,-381.548 463.915,-380.206 465.372,-387.053"/>
</g>
<!-- Node10 -->
<g id="node19" class="node"><title>Node10</title>
<a xlink:href="cvm-hfa-graph_8c.html#a1320f0566be0069bd604cc820a12a114" target="_top" xlink:title="This routine sets WQE field in graph data structure.">
<polygon fill="white" stroke="black" points="471.5,-320.5 471.5,-341.5 576.5,-341.5 576.5,-320.5 471.5,-320.5"/>
<text text-anchor="middle" x="524" y="-328.5" font-family="FreeSans" font-size="10.00">hfa_graph_setwqe</text>
</a>
</g>
<!-- Node3&#45;&gt;Node10 -->
<g id="edge18" class="edge"><title>Node3&#45;&gt;Node10</title>
<path fill="none" stroke="midnightblue" d="M364.221,-393.898C386.801,-380.773 419.606,-362.936 450,-351 455.934,-348.669 462.239,-346.511 468.567,-344.541"/>
<polygon fill="midnightblue" stroke="midnightblue" points="469.888,-347.8 478.482,-341.605 467.9,-341.089 469.888,-347.8"/>
</g>
<!-- Node11 -->
<g id="node21" class="node"><title>Node11</title>
<a xlink:href="cvm-hfa_8c.html#a4677d07b901d6aeb02e793c1dbdfabbf" target="_top" xlink:title="Asynchronous instruction submit to HFA hardware Do not wait for instruction to complete.">
<polygon fill="white" stroke="black" points="463,-280.5 463,-301.5 585,-301.5 585,-280.5 463,-280.5"/>
<text text-anchor="middle" x="524" y="-288.5" font-family="FreeSans" font-size="10.00">hfa_dev_submitasync</text>
</a>
</g>
<!-- Node3&#45;&gt;Node11 -->
<g id="edge20" class="edge"><title>Node3&#45;&gt;Node11</title>
<path fill="none" stroke="midnightblue" d="M350.82,-393.838C371.031,-371.503 409.393,-332.765 450,-311 454.179,-308.76 458.627,-306.757 463.19,-304.967"/>
<polygon fill="midnightblue" stroke="midnightblue" points="464.423,-308.243 472.666,-301.586 462.071,-301.65 464.423,-308.243"/>
</g>
<!-- Node12 -->
<g id="node23" class="node"><title>Node12</title>
<a xlink:href="cvmx-hfa_8c.html#a96a123c8918e83cdf914f6de1bfb4f00" target="_top" xlink:title="Submit a command to the DFA block.">
<polygon fill="white" stroke="black" points="649,-280.5 649,-301.5 751,-301.5 751,-280.5 649,-280.5"/>
<text text-anchor="middle" x="700" y="-288.5" font-family="FreeSans" font-size="10.00">cvmx_hfa_submit</text>
</a>
</g>
<!-- Node11&#45;&gt;Node12 -->
<g id="edge22" class="edge"><title>Node11&#45;&gt;Node12</title>
<path fill="none" stroke="midnightblue" d="M585.062,-291C602.491,-291 621.48,-291 638.911,-291"/>
<polygon fill="midnightblue" stroke="midnightblue" points="638.97,-294.5 648.97,-291 638.97,-287.5 638.97,-294.5"/>
</g>
<!-- Node14 -->
<g id="node27" class="node"><title>Node14</title>
<a xlink:href="cvm-hfa_8c.html#a4753d2dd586e19676b1a59dd16baaeed" target="_top" xlink:title="Obtain status of submitted insruction.">
<polygon fill="white" stroke="black" points="457.5,-240.5 457.5,-261.5 590.5,-261.5 590.5,-240.5 457.5,-240.5"/>
<text text-anchor="middle" x="524" y="-248.5" font-family="FreeSans" font-size="10.00">hfa_dev_getasyncstatus</text>
</a>
</g>
<!-- Node13&#45;&gt;Node14 -->
<g id="edge26" class="edge"><title>Node13&#45;&gt;Node14</title>
<path fill="none" stroke="midnightblue" d="M385.395,-221.51C409.694,-226.679 439.169,-232.951 464.68,-238.379"/>
<polygon fill="midnightblue" stroke="midnightblue" points="464.1,-241.834 474.609,-240.491 465.556,-234.987 464.1,-241.834"/>
</g>
<!-- Node17 -->
<g id="node33" class="node"><title>Node17</title>
<a xlink:href="cvm-hfa-instr_8h.html#aa7b5661907cf23e01fe784a70980ed4b" target="_top" xlink:title="Gets itype from RWORD0.">
<polygon fill="white" stroke="black" points="463,-200.5 463,-221.5 585,-221.5 585,-200.5 463,-200.5"/>
<text text-anchor="middle" x="524" y="-208.5" font-family="FreeSans" font-size="10.00">cvm_hfa_rslt_getitype</text>
</a>
</g>
<!-- Node13&#45;&gt;Node17 -->
<g id="edge32" class="edge"><title>Node13&#45;&gt;Node17</title>
<path fill="none" stroke="midnightblue" d="M393.172,-211C411.939,-211 433.031,-211 452.711,-211"/>
<polygon fill="midnightblue" stroke="midnightblue" points="452.854,-214.5 462.854,-211 452.854,-207.5 452.854,-214.5"/>
</g>
<!-- Node18 -->
<g id="node35" class="node"><title>Node18</title>
<a xlink:href="cvm-hfa-graph_8c.html#aa4c0667cc4f92a08c249041eb8a4ec58" target="_top" xlink:title="This routine is used to free the buffers and change the graph load status after instruction completio...">
<polygon fill="white" stroke="black" points="450.5,-160.5 450.5,-181.5 597.5,-181.5 597.5,-160.5 450.5,-160.5"/>
<text text-anchor="middle" x="524" y="-168.5" font-family="FreeSans" font-size="10.00">__hfa_graph_processstatus</text>
</a>
</g>
<!-- Node13&#45;&gt;Node18 -->
<g id="edge34" class="edge"><title>Node13&#45;&gt;Node18</title>
<path fill="none" stroke="midnightblue" d="M385.395,-200.49C409.694,-195.321 439.169,-189.049 464.68,-183.621"/>
<polygon fill="midnightblue" stroke="midnightblue" points="465.556,-187.013 474.609,-181.509 464.1,-180.166 465.556,-187.013"/>
</g>
<!-- Node15 -->
<g id="node29" class="node"><title>Node15</title>
<a xlink:href="cvm-hfa-instr_8h.html#a56f2522dcba965745a1bc239fc432dca" target="_top" xlink:title="Gets done from RWORD0.">
<polygon fill="white" stroke="black" points="638.5,-240.5 638.5,-261.5 761.5,-261.5 761.5,-240.5 638.5,-240.5"/>
<text text-anchor="middle" x="700" y="-248.5" font-family="FreeSans" font-size="10.00">cvm_hfa_rslt_getdone</text>
</a>
</g>
<!-- Node14&#45;&gt;Node15 -->
<g id="edge28" class="edge"><title>Node14&#45;&gt;Node15</title>
<path fill="none" stroke="midnightblue" d="M590.538,-251C602.782,-251 615.616,-251 628.012,-251"/>
<polygon fill="midnightblue" stroke="midnightblue" points="628.299,-254.5 638.299,-251 628.299,-247.5 628.299,-254.5"/>
</g>
<!-- Node16 -->
<g id="node31" class="node"><title>Node16</title>
<a xlink:href="cvm-hfa-instr_8h.html#a9700a50b68b6616506528eb725a8bda1" target="_top" xlink:title="Gets reason from RWORD0.">
<polygon fill="white" stroke="black" points="634.5,-200.5 634.5,-221.5 765.5,-221.5 765.5,-200.5 634.5,-200.5"/>
<text text-anchor="middle" x="700" y="-208.5" font-family="FreeSans" font-size="10.00">cvm_hfa_rslt_getreason</text>
</a>
</g>
<!-- Node14&#45;&gt;Node16 -->
<g id="edge30" class="edge"><title>Node14&#45;&gt;Node16</title>
<path fill="none" stroke="midnightblue" d="M570.242,-240.49C592.788,-235.366 620.096,-229.16 643.832,-223.765"/>
<polygon fill="midnightblue" stroke="midnightblue" points="644.786,-227.138 653.762,-221.509 643.235,-220.312 644.786,-227.138"/>
</g>
<!-- Node19 -->
<g id="node37" class="node"><title>Node19</title>
<a xlink:href="cvm-hfa-cluster_8c.html#ad8cad96579f5a310b62caaf8c166658f" target="_top" xlink:title="Returns a copy of a cluster of the HFA device.">
<polygon fill="white" stroke="black" points="655,-160.5 655,-181.5 745,-181.5 745,-160.5 655,-160.5"/>
<text text-anchor="middle" x="700" y="-168.5" font-family="FreeSans" font-size="10.00">hfa_get_cluster</text>
</a>
</g>
<!-- Node18&#45;&gt;Node19 -->
<g id="edge36" class="edge"><title>Node18&#45;&gt;Node19</title>
<path fill="none" stroke="midnightblue" d="M597.62,-171C613.386,-171 629.785,-171 644.719,-171"/>
<polygon fill="midnightblue" stroke="midnightblue" points="644.797,-174.5 654.797,-171 644.797,-167.5 644.797,-174.5"/>
</g>
<!-- Node23 -->
<g id="node45" class="node"><title>Node23</title>
<a xlink:href="cvm-hfa-stats_8c.html#ad6d5ab096d9d84d2b2f52bd551443592" target="_top" xlink:title="This routine is the counterpart of hfa_dev_init_stats().">
<polygon fill="white" stroke="black" points="273,-120.5 273,-141.5 399,-141.5 399,-120.5 273,-120.5"/>
<text text-anchor="middle" x="336" y="-128.5" font-family="FreeSans" font-size="10.00">hfa_dev_stats_cleanup</text>
</a>
</g>
<!-- Node22&#45;&gt;Node23 -->
<g id="edge44" class="edge"><title>Node22&#45;&gt;Node23</title>
<path fill="none" stroke="midnightblue" d="M203.293,-101.51C226.455,-106.657 254.529,-112.895 278.88,-118.307"/>
<polygon fill="midnightblue" stroke="midnightblue" points="278.19,-121.739 288.711,-120.491 279.708,-114.905 278.19,-121.739"/>
</g>
<!-- Node25 -->
<g id="node49" class="node"><title>Node25</title>
<a xlink:href="cvm-hfa-stats_8c.html#a75504ae5d9797d314ee11704fc86cdb1" target="_top" xlink:title="This routine prints statistics of each core.">
<polygon fill="white" stroke="black" points="281.5,-80.5 281.5,-101.5 390.5,-101.5 390.5,-80.5 281.5,-80.5"/>
<text text-anchor="middle" x="336" y="-88.5" font-family="FreeSans" font-size="10.00">hfa_dev_stats_print</text>
</a>
</g>
<!-- Node22&#45;&gt;Node25 -->
<g id="edge48" class="edge"><title>Node22&#45;&gt;Node25</title>
<path fill="none" stroke="midnightblue" d="M205.662,-91C225.965,-91 249.72,-91 271.349,-91"/>
<polygon fill="midnightblue" stroke="midnightblue" points="271.443,-94.5001 281.443,-91 271.443,-87.5001 271.443,-94.5001"/>
</g>
<!-- Node24 -->
<g id="node47" class="node"><title>Node24</title>
<a xlink:href="cvm-hfa-stats_8c.html#a7a2acbe48c3850d43256938ee996aa16" target="_top" xlink:title="This routine frees memory to STATS ARENA.">
<polygon fill="white" stroke="black" points="461.5,-120.5 461.5,-141.5 586.5,-141.5 586.5,-120.5 461.5,-120.5"/>
<text text-anchor="middle" x="524" y="-128.5" font-family="FreeSans" font-size="10.00">hfa_stats_memoryfree</text>
</a>
</g>
<!-- Node23&#45;&gt;Node24 -->
<g id="edge46" class="edge"><title>Node23&#45;&gt;Node24</title>
<path fill="none" stroke="midnightblue" d="M399.124,-131C415.888,-131 434.126,-131 451.354,-131"/>
<polygon fill="midnightblue" stroke="midnightblue" points="451.362,-134.5 461.362,-131 451.362,-127.5 451.362,-134.5"/>
</g>
<!-- Node27 -->
<g id="node53" class="node"><title>Node27</title>
<a xlink:href="cvm-hfa_8h.html#a760b4a245f0bf0c6823c9edb7eba6425" target="_top" xlink:title="Indicates whether device has its own HFA memory.">
<polygon fill="white" stroke="black" points="258.5,-40.5 258.5,-61.5 413.5,-61.5 413.5,-40.5 258.5,-40.5"/>
<text text-anchor="middle" x="336" y="-48.5" font-family="FreeSans" font-size="10.00">hfa_dev_haspvt_hfamemory</text>
</a>
</g>
<!-- Node26&#45;&gt;Node27 -->
<g id="edge52" class="edge"><title>Node26&#45;&gt;Node27</title>
<path fill="none" stroke="midnightblue" d="M202.354,-51C216.368,-51 232.244,-51 248.037,-51"/>
<polygon fill="midnightblue" stroke="midnightblue" points="248.382,-54.5001 258.382,-51 248.382,-47.5001 248.382,-54.5001"/>
</g>
</g>
</svg>
