<?xml version="1.0" encoding="UTF-8" standalone="no"?>
<!DOCTYPE svg PUBLIC "-//W3C//DTD SVG 1.1//EN"
 "http://www.w3.org/Graphics/SVG/1.1/DTD/svg11.dtd">
<!-- Generated by graphviz version 2.24.0 (20090616.2323)
 -->
<!-- Title: cleanup_matchlist Pages: 1 -->
<svg width="338pt" height="30pt"
 viewBox="0.00 0.00 338.00 30.00" xmlns="http://www.w3.org/2000/svg" xmlns:xlink="http://www.w3.org/1999/xlink">
<g id="graph1" class="graph" transform="scale(1 1) rotate(0) translate(4 26)">
<title>cleanup_matchlist</title>
<polygon fill="white" stroke="white" points="-4,5 -4,-26 335,-26 335,5 -4,5"/>
<!-- Node1 -->
<g id="node1" class="node"><title>Node1</title>
<polygon fill="#bfbfbf" stroke="black" points="0.5,-0.5 0.5,-21.5 103.5,-21.5 103.5,-0.5 0.5,-0.5"/>
<text text-anchor="middle" x="52" y="-8.5" font-family="FreeSans" font-size="10.00">cleanup_matchlist</text>
</g>
<!-- Node2 -->
<g id="node3" class="node"><title>Node2</title>
<a xlink:href="hfa-se-xml-parser_8c.html#a6247b3328e66a331e8a47d4085b547e9" target="_top" xlink:title="Parse xml matches.">
<polygon fill="white" stroke="black" points="140,-0.5 140,-21.5 254,-21.5 254,-0.5 140,-0.5"/>
<text text-anchor="middle" x="197" y="-8.5" font-family="FreeSans" font-size="10.00">parse_xml_matches</text>
</a>
</g>
<!-- Node1&#45;&gt;Node2 -->
<g id="edge2" class="edge"><title>Node1&#45;&gt;Node2</title>
<path fill="none" stroke="midnightblue" d="M113.579,-11C122.249,-11 131.133,-11 139.718,-11"/>
<polygon fill="midnightblue" stroke="midnightblue" points="113.53,-7.5001 103.53,-11 113.53,-14.5001 113.53,-7.5001"/>
</g>
<!-- Node3 -->
<g id="node5" class="node"><title>Node3</title>
<a xlink:href="hfa-se-xml-parser_8c.html#a3c04138a5bfe5d72780bb7e82a18e627" target="_top" xlink:title="main">
<polygon fill="white" stroke="black" points="290,-0.5 290,-21.5 330,-21.5 330,-0.5 290,-0.5"/>
<text text-anchor="middle" x="310" y="-8.5" font-family="FreeSans" font-size="10.00">main</text>
</a>
</g>
<!-- Node2&#45;&gt;Node3 -->
<g id="edge4" class="edge"><title>Node2&#45;&gt;Node3</title>
<path fill="none" stroke="midnightblue" d="M264.311,-11C273.563,-11 282.414,-11 289.82,-11"/>
<polygon fill="midnightblue" stroke="midnightblue" points="264.162,-7.5001 254.162,-11 264.162,-14.5001 264.162,-7.5001"/>
</g>
</g>
</svg>
