<?xml version="1.0" encoding="UTF-8" standalone="no"?>
<!DOCTYPE svg PUBLIC "-//W3C//DTD SVG 1.1//EN"
 "http://www.w3.org/Graphics/SVG/1.1/DTD/svg11.dtd">
<!-- Generated by graphviz version 2.24.0 (20090616.2323)
 -->
<!-- Title: process_options Pages: 1 -->
<!--zoomable 289 -->
<svg id="main" version="1.1" xmlns="http://www.w3.org/2000/svg" xmlns:xlink="http://www.w3.org/1999/xlink" xml:space="preserve" onload="init(evt)">
        <defs>
                <circle id="rim" cx="0" cy="0" r="7"/>
                <circle id="rim2" cx="0" cy="0" r="3.5"/>
                <g id="zoomPlus">
                        <use xlink:href="#rim" fill="#404040">
                                <set attributeName="fill" to="#808080" begin="zoomplus.mouseover" end="zoomplus.mouseout"/>
                        </use>
                        <path d="M-4,0h8M0,-4v8" fill="none" stroke="white" stroke-width="1.5" pointer-events="none"/>
                </g>
                <g id="zoomMin">
                        <use xlink:href="#rim" fill="#404040">
                                <set attributeName="fill" to="#808080" begin="zoomminus.mouseover" end="zoomminus.mouseout"/>
                        </use>
                        <path d="M-4,0h8" fill="none" stroke="white" stroke-width="1.5" pointer-events="none"/>
                </g>
                <g id="dirArrow">
                        <path fill="none" stroke="white" stroke-width="1.5" d="M0,-3.0v7 M-2.5,-0.5L0,-3.0L2.5,-0.5"/>
                </g>
               <g id="resetDef">
                       <use xlink:href="#rim2" fill="#404040">
                               <set attributeName="fill" to="#808080" begin="reset.mouseover" end="reset.mouseout"/>
                       </use>
               </g>
        </defs>

<script type="text/javascript">
var viewWidth = 1284;
var viewHeight = 289;
var sectionId = 'dynsection-10';
</script>
<script xlink:href="svgpan.js"/>
<svg id="graph" class="graph">
<g id="viewport">
<title>process_options</title>
<polygon fill="white" stroke="white" points="-4,5 -4,-285 1281,-285 1281,5 -4,5"/>
<!-- Node1 -->
<g id="node1" class="node"><title>Node1</title>
<polygon fill="#bfbfbf" stroke="black" points="0,-120.5 0,-141.5 94,-141.5 94,-120.5 0,-120.5"/>
<text text-anchor="middle" x="47" y="-128.5" font-family="FreeSans" font-size="10.00">process_options</text>
</g>
<!-- Node2 -->
<g id="node3" class="node"><title>Node2</title>
<a xlink:href="hfa-lnx_8c.html#a78ffddbcd7cdd164889cfb53ea367886" target="_top" xlink:title="entry">
<polygon fill="white" stroke="black" points="130.5,-120.5 130.5,-141.5 171.5,-141.5 171.5,-120.5 130.5,-120.5"/>
<text text-anchor="middle" x="151" y="-128.5" font-family="FreeSans" font-size="10.00">entry</text>
</a>
</g>
<!-- Node1&#45;&gt;Node2 -->
<g id="edge2" class="edge"><title>Node1&#45;&gt;Node2</title>
<path fill="none" stroke="midnightblue" d="M104.264,-131C113.572,-131 122.653,-131 130.297,-131"/>
<polygon fill="midnightblue" stroke="midnightblue" points="104.131,-127.5 94.1313,-131 104.131,-134.5 104.131,-127.5"/>
</g>
<!-- Node3 -->
<g id="node5" class="node"><title>Node3</title>
<a xlink:href="cvm-hfa-pp_8c.html#adcc1149c628372e2e566c246870929cb" target="_top" xlink:title="infoentry">
<polygon fill="white" stroke="black" points="208.5,-120.5 208.5,-141.5 267.5,-141.5 267.5,-120.5 208.5,-120.5"/>
<text text-anchor="middle" x="238" y="-128.5" font-family="FreeSans" font-size="10.00">infoentry</text>
</a>
</g>
<!-- Node2&#45;&gt;Node3 -->
<g id="edge4" class="edge"><title>Node2&#45;&gt;Node3</title>
<path fill="none" stroke="midnightblue" d="M181.692,-131C190.337,-131 199.723,-131 208.309,-131"/>
<polygon fill="midnightblue" stroke="midnightblue" points="181.618,-127.5 171.618,-131 181.618,-134.5 181.618,-127.5"/>
</g>
<!-- Node4 -->
<g id="node7" class="node"><title>Node4</title>
<a xlink:href="ppdfa_8h.html#a81b3389c2c25a4ba308f71501f980e38" target="_top" xlink:title="pp">
<polygon fill="white" stroke="black" points="304.5,-120.5 304.5,-141.5 333.5,-141.5 333.5,-120.5 304.5,-120.5"/>
<text text-anchor="middle" x="319" y="-128.5" font-family="FreeSans" font-size="10.00">pp</text>
</a>
</g>
<!-- Node3&#45;&gt;Node4 -->
<g id="edge6" class="edge"><title>Node3&#45;&gt;Node4</title>
<path fill="none" stroke="midnightblue" d="M277.846,-131C287.302,-131 296.805,-131 304.293,-131"/>
<polygon fill="midnightblue" stroke="midnightblue" points="277.702,-127.5 267.701,-131 277.701,-134.5 277.702,-127.5"/>
</g>
<!-- Node5 -->
<g id="node9" class="node"><title>Node5</title>
<a xlink:href="cvm-hfa-search_8c.html#a6dbb15dc58155b2c94b19784ad42ef89" target="_top" xlink:title="This routine post&#45;processes the search results from the HFA engine and reports the pattern matches fo...">
<polygon fill="white" stroke="black" points="370.5,-120.5 370.5,-141.5 517.5,-141.5 517.5,-120.5 370.5,-120.5"/>
<text text-anchor="middle" x="444" y="-128.5" font-family="FreeSans" font-size="10.00">hfa_searchctx_getmatches</text>
</a>
</g>
<!-- Node4&#45;&gt;Node5 -->
<g id="edge8" class="edge"><title>Node4&#45;&gt;Node5</title>
<path fill="none" stroke="midnightblue" d="M343.986,-131C351.825,-131 360.914,-131 370.354,-131"/>
<polygon fill="midnightblue" stroke="midnightblue" points="343.83,-127.5 333.83,-131 343.83,-134.5 343.83,-127.5"/>
</g>
<!-- Node6 -->
<g id="node11" class="node"><title>Node6</title>
<a xlink:href="flow_8c.html#a2976ab60901b133a56214323fb901663" target="_top" xlink:title="Low level API to poll a flow.">
<polygon fill="white" stroke="black" points="554.5,-259.5 554.5,-280.5 683.5,-280.5 683.5,-259.5 554.5,-259.5"/>
<text text-anchor="middle" x="619" y="-267.5" font-family="FreeSans" font-size="10.00">__hfaf_process_pktflow</text>
</a>
</g>
<!-- Node5&#45;&gt;Node6 -->
<g id="edge10" class="edge"><title>Node5&#45;&gt;Node6</title>
<path fill="none" stroke="midnightblue" d="M461.543,-148.979C482.494,-169.954 519.1,-205.063 554,-231 568.365,-241.676 585.812,-252.015 599.012,-259.363"/>
<polygon fill="midnightblue" stroke="midnightblue" points="463.839,-146.323 454.316,-141.68 458.865,-151.249 463.839,-146.323"/>
</g>
<!-- Node12 -->
<g id="node23" class="node"><title>Node12</title>
<a xlink:href="hfa-lnx-async_8c.html#a972f8b60ef804914c009c2ef85bac50e" target="_top" xlink:title="Process search for given payload and graph.">
<polygon fill="white" stroke="black" points="573,-200.5 573,-221.5 665,-221.5 665,-200.5 573,-200.5"/>
<text text-anchor="middle" x="619" y="-208.5" font-family="FreeSans" font-size="10.00">process_search</text>
</a>
</g>
<!-- Node5&#45;&gt;Node12 -->
<g id="edge22" class="edge"><title>Node5&#45;&gt;Node12</title>
<path fill="none" stroke="midnightblue" d="M469.659,-146.921C491.497,-159.997 524.007,-178.357 554,-191 562.269,-194.485 571.357,-197.664 580.048,-200.411"/>
<polygon fill="midnightblue" stroke="midnightblue" points="471.358,-143.858 460.991,-141.673 467.732,-149.846 471.358,-143.858"/>
</g>
<!-- Node16 -->
<g id="node32" class="node"><title>Node16</title>
<a xlink:href="hfa-lnx-ctx_8c.html#a71e1d3d18cc48b90a1ecde583ffb3f7a" target="_top" xlink:title="poll_searchctx">
<polygon fill="white" stroke="black" points="576,-160.5 576,-181.5 662,-181.5 662,-160.5 576,-160.5"/>
<text text-anchor="middle" x="619" y="-168.5" font-family="FreeSans" font-size="10.00">poll_searchctx</text>
</a>
</g>
<!-- Node5&#45;&gt;Node16 -->
<g id="edge32" class="edge"><title>Node5&#45;&gt;Node16</title>
<path fill="none" stroke="midnightblue" d="M499.885,-143.774C524.439,-149.386 552.83,-155.875 575.735,-161.111"/>
<polygon fill="midnightblue" stroke="midnightblue" points="500.508,-140.326 489.979,-141.51 498.948,-147.15 500.508,-140.326"/>
</g>
<!-- Node19 -->
<g id="node38" class="node"><title>Node19</title>
<a xlink:href="hfa-lnx-linkgraph_8c.html#a78ffddbcd7cdd164889cfb53ea367886" target="_top" xlink:title="entry">
<polygon fill="white" stroke="black" points="598.5,-120.5 598.5,-141.5 639.5,-141.5 639.5,-120.5 598.5,-120.5"/>
<text text-anchor="middle" x="619" y="-128.5" font-family="FreeSans" font-size="10.00">entry</text>
</a>
</g>
<!-- Node5&#45;&gt;Node19 -->
<g id="edge38" class="edge"><title>Node5&#45;&gt;Node19</title>
<path fill="none" stroke="midnightblue" d="M527.738,-131C554.018,-131 580.75,-131 598.431,-131"/>
<polygon fill="midnightblue" stroke="midnightblue" points="527.709,-127.5 517.709,-131 527.709,-134.5 527.709,-127.5"/>
</g>
<!-- Node20 -->
<g id="node40" class="node"><title>Node20</title>
<a xlink:href="hfa-lnx-nctx-lock_8c.html#adb0c831ef0f9af5441a6769c377d9c95" target="_top" xlink:title="Post process the results from HFA and record found matches.">
<polygon fill="white" stroke="black" points="579,-80.5 579,-101.5 659,-101.5 659,-80.5 579,-80.5"/>
<text text-anchor="middle" x="619" y="-88.5" font-family="FreeSans" font-size="10.00">post_process</text>
</a>
</g>
<!-- Node5&#45;&gt;Node20 -->
<g id="edge40" class="edge"><title>Node5&#45;&gt;Node20</title>
<path fill="none" stroke="midnightblue" d="M499.97,-118.207C525.678,-112.331 555.577,-105.497 578.978,-100.148"/>
<polygon fill="midnightblue" stroke="midnightblue" points="498.948,-114.85 489.979,-120.49 500.508,-121.674 498.948,-114.85"/>
</g>
<!-- Node23 -->
<g id="node47" class="node"><title>Node23</title>
<a xlink:href="hfa-se-async_8c.html#a3c04138a5bfe5d72780bb7e82a18e627" target="_top" xlink:title="main">
<polygon fill="white" stroke="black" points="599,-40.5 599,-61.5 639,-61.5 639,-40.5 599,-40.5"/>
<text text-anchor="middle" x="619" y="-48.5" font-family="FreeSans" font-size="10.00">main</text>
</a>
</g>
<!-- Node5&#45;&gt;Node23 -->
<g id="edge48" class="edge"><title>Node5&#45;&gt;Node23</title>
<path fill="none" stroke="midnightblue" d="M469.659,-115.079C491.497,-102.003 524.007,-83.6427 554,-71 568.579,-64.8547 585.705,-59.663 598.717,-56.1103"/>
<polygon fill="midnightblue" stroke="midnightblue" points="467.732,-112.154 460.991,-120.327 471.358,-118.142 467.732,-112.154"/>
</g>
<!-- Node24 -->
<g id="node49" class="node"><title>Node24</title>
<a xlink:href="hfa-se-wqe-lock_8c.html#a06b5fcfab0e1d5eb36b633ec080ad7f9" target="_top" xlink:title="Process search for given contexts.">
<polygon fill="white" stroke="black" points="579,-0.5 579,-21.5 659,-21.5 659,-0.5 579,-0.5"/>
<text text-anchor="middle" x="619" y="-8.5" font-family="FreeSans" font-size="10.00">process_nctx</text>
</a>
</g>
<!-- Node5&#45;&gt;Node24 -->
<g id="edge50" class="edge"><title>Node5&#45;&gt;Node24</title>
<path fill="none" stroke="midnightblue" d="M459.6,-112.53C479.402,-90.1933 515.629,-52.876 554,-31 561.59,-26.6727 570.223,-23.176 578.663,-20.3913"/>
<polygon fill="midnightblue" stroke="midnightblue" points="456.768,-110.453 452.845,-120.294 462.049,-115.048 456.768,-110.453"/>
</g>
<!-- Node7 -->
<g id="node13" class="node"><title>Node7</title>
<a xlink:href="flow_8h.html#ab1b3378af88a440a6c3c0851be942e65" target="_top" xlink:title="All submitted search parameters in Paramlist of flow are polled If low level API __hfaf_process_pktfl...">
<polygon fill="white" stroke="black" points="720.5,-259.5 720.5,-280.5 839.5,-280.5 839.5,-259.5 720.5,-259.5"/>
<text text-anchor="middle" x="780" y="-267.5" font-family="FreeSans" font-size="10.00">hfaf_process_pktflow</text>
</a>
</g>
<!-- Node6&#45;&gt;Node7 -->
<g id="edge12" class="edge"><title>Node6&#45;&gt;Node7</title>
<path fill="none" stroke="midnightblue" d="M693.622,-270C702.594,-270 711.665,-270 720.384,-270"/>
<polygon fill="midnightblue" stroke="midnightblue" points="693.557,-266.5 683.557,-270 693.557,-273.5 693.557,-266.5"/>
</g>
<!-- Node8 -->
<g id="node15" class="node"><title>Node8</title>
<a xlink:href="hfa-se-flow_8c.html#a2d83c733eacd7afc955c3af18edcb52a" target="_top" xlink:title="Polls for a submitted search instruction of a flow.">
<polygon fill="white" stroke="black" points="879.5,-259.5 879.5,-280.5 964.5,-280.5 964.5,-259.5 879.5,-259.5"/>
<text text-anchor="middle" x="922" y="-267.5" font-family="FreeSans" font-size="10.00">__processflow</text>
</a>
</g>
<!-- Node7&#45;&gt;Node8 -->
<g id="edge14" class="edge"><title>Node7&#45;&gt;Node8</title>
<path fill="none" stroke="midnightblue" d="M850.083,-270C859.981,-270 869.902,-270 879.078,-270"/>
<polygon fill="midnightblue" stroke="midnightblue" points="849.809,-266.5 839.809,-270 849.809,-273.5 849.809,-266.5"/>
</g>
<!-- Node9 -->
<g id="node17" class="node"><title>Node9</title>
<a xlink:href="hfa-se-flow_8c.html#a786591694a8f8fb46cedbc8a580c88f6" target="_top" xlink:title="Submitting or Polling flows from the software recently used cache IF Cache is empty, it tries to refill it.">
<polygon fill="white" stroke="black" points="1004.5,-259.5 1004.5,-280.5 1067.5,-280.5 1067.5,-259.5 1004.5,-259.5"/>
<text text-anchor="middle" x="1036" y="-267.5" font-family="FreeSans" font-size="10.00">do_cache</text>
</a>
</g>
<!-- Node8&#45;&gt;Node9 -->
<g id="edge16" class="edge"><title>Node8&#45;&gt;Node9</title>
<path fill="none" stroke="midnightblue" d="M974.784,-270C984.902,-270 995.197,-270 1004.39,-270"/>
<polygon fill="midnightblue" stroke="midnightblue" points="974.774,-266.5 964.774,-270 974.774,-273.5 974.774,-266.5"/>
</g>
<!-- Node10 -->
<g id="node19" class="node"><title>Node10</title>
<a xlink:href="hfa-se-flow_8c.html#aba72a61590283e37ffd78b4defd38220" target="_top" xlink:title="Receive network packets and process.">
<polygon fill="white" stroke="black" points="1104,-259.5 1104,-280.5 1200,-280.5 1200,-259.5 1104,-259.5"/>
<text text-anchor="middle" x="1152" y="-267.5" font-family="FreeSans" font-size="10.00">process_packets</text>
</a>
</g>
<!-- Node9&#45;&gt;Node10 -->
<g id="edge18" class="edge"><title>Node9&#45;&gt;Node10</title>
<path fill="none" stroke="midnightblue" d="M1077.71,-270C1086.17,-270 1095.13,-270 1103.79,-270"/>
<polygon fill="midnightblue" stroke="midnightblue" points="1077.7,-266.5 1067.7,-270 1077.7,-273.5 1077.7,-266.5"/>
</g>
<!-- Node11 -->
<g id="node21" class="node"><title>Node11</title>
<a xlink:href="hfa-se-flow-wqe_8c.html#a3c04138a5bfe5d72780bb7e82a18e627" target="_top" xlink:title="Implementation.">
<polygon fill="white" stroke="black" points="1236,-259.5 1236,-280.5 1276,-280.5 1276,-259.5 1236,-259.5"/>
<text text-anchor="middle" x="1256" y="-267.5" font-family="FreeSans" font-size="10.00">main</text>
</a>
</g>
<!-- Node10&#45;&gt;Node11 -->
<g id="edge20" class="edge"><title>Node10&#45;&gt;Node11</title>
<path fill="none" stroke="midnightblue" d="M1210.15,-270C1219.41,-270 1228.42,-270 1235.96,-270"/>
<polygon fill="midnightblue" stroke="midnightblue" points="1210.04,-266.5 1200.04,-270 1210.04,-273.5 1210.04,-266.5"/>
</g>
<!-- Node13 -->
<g id="node25" class="node"><title>Node13</title>
<a xlink:href="hfa-lnx-async_8c.html#a1e97b1d598034fdc92d57054a6c386e6" target="_top" xlink:title="tasklet_callback">
<polygon fill="white" stroke="black" points="734,-219.5 734,-240.5 826,-240.5 826,-219.5 734,-219.5"/>
<text text-anchor="middle" x="780" y="-227.5" font-family="FreeSans" font-size="10.00">tasklet_callback</text>
</a>
</g>
<!-- Node12&#45;&gt;Node13 -->
<g id="edge24" class="edge"><title>Node12&#45;&gt;Node13</title>
<path fill="none" stroke="midnightblue" d="M675.242,-217.637C694.401,-219.898 715.583,-222.398 733.857,-224.555"/>
<polygon fill="midnightblue" stroke="midnightblue" points="675.477,-214.141 665.136,-216.445 674.657,-221.093 675.477,-214.141"/>
</g>
<!-- Node15 -->
<g id="node29" class="node"><title>Node15</title>
<a xlink:href="hfa-lnx-async_8c.html#a7dea7d59754828b1173c4c7ec5d42f3e" target="_top" xlink:title="thread_callback">
<polygon fill="white" stroke="black" points="734,-179.5 734,-200.5 826,-200.5 826,-179.5 734,-179.5"/>
<text text-anchor="middle" x="780" y="-187.5" font-family="FreeSans" font-size="10.00">thread_callback</text>
</a>
</g>
<!-- Node12&#45;&gt;Node15 -->
<g id="edge28" class="edge"><title>Node12&#45;&gt;Node15</title>
<path fill="none" stroke="midnightblue" d="M675.242,-203.664C694.401,-201.165 715.583,-198.402 733.857,-196.019"/>
<polygon fill="midnightblue" stroke="midnightblue" points="674.599,-200.218 665.136,-204.982 675.505,-207.159 674.599,-200.218"/>
</g>
<!-- Node14 -->
<g id="node27" class="node"><title>Node14</title>
<a xlink:href="hfa-lnx-async_8c.html#a78ffddbcd7cdd164889cfb53ea367886" target="_top" xlink:title="entry">
<polygon fill="white" stroke="black" points="901.5,-199.5 901.5,-220.5 942.5,-220.5 942.5,-199.5 901.5,-199.5"/>
<text text-anchor="middle" x="922" y="-207.5" font-family="FreeSans" font-size="10.00">entry</text>
</a>
</g>
<!-- Node13&#45;&gt;Node14 -->
<g id="edge26" class="edge"><title>Node13&#45;&gt;Node14</title>
<path fill="none" stroke="midnightblue" d="M836.147,-222.092C859.168,-218.85 884.37,-215.3 901.476,-212.891"/>
<polygon fill="midnightblue" stroke="midnightblue" points="835.517,-218.646 826.103,-223.507 836.494,-225.578 835.517,-218.646"/>
</g>
<!-- Node15&#45;&gt;Node14 -->
<g id="edge30" class="edge"><title>Node15&#45;&gt;Node14</title>
<path fill="none" stroke="midnightblue" d="M836.147,-197.908C859.168,-201.15 884.37,-204.7 901.476,-207.109"/>
<polygon fill="midnightblue" stroke="midnightblue" points="836.494,-194.422 826.103,-196.493 835.517,-201.354 836.494,-194.422"/>
</g>
<!-- Node17 -->
<g id="node34" class="node"><title>Node17</title>
<a xlink:href="hfa-lnx-ctx_8c.html#a934a9fc08c4aab25d6f0d861e4a4f762" target="_top" xlink:title="poll">
<polygon fill="white" stroke="black" points="763.5,-139.5 763.5,-160.5 796.5,-160.5 796.5,-139.5 763.5,-139.5"/>
<text text-anchor="middle" x="780" y="-147.5" font-family="FreeSans" font-size="10.00">poll</text>
</a>
</g>
<!-- Node16&#45;&gt;Node17 -->
<g id="edge34" class="edge"><title>Node16&#45;&gt;Node17</title>
<path fill="none" stroke="midnightblue" d="M672.199,-164.061C703.953,-159.919 742.135,-154.939 763.478,-152.155"/>
<polygon fill="midnightblue" stroke="midnightblue" points="671.608,-160.608 662.145,-165.372 672.514,-167.55 671.608,-160.608"/>
</g>
<!-- Node18 -->
<g id="node36" class="node"><title>Node18</title>
<a xlink:href="hfa-lnx-ctx_8c.html#a97df0ba8293c1b8436547946fd9d0d17" target="_top" xlink:title="process_pkt">
<polygon fill="white" stroke="black" points="885,-139.5 885,-160.5 959,-160.5 959,-139.5 885,-139.5"/>
<text text-anchor="middle" x="922" y="-147.5" font-family="FreeSans" font-size="10.00">process_pkt</text>
</a>
</g>
<!-- Node17&#45;&gt;Node18 -->
<g id="edge36" class="edge"><title>Node17&#45;&gt;Node18</title>
<path fill="none" stroke="midnightblue" d="M806.858,-150C828.909,-150 860.376,-150 884.843,-150"/>
<polygon fill="midnightblue" stroke="midnightblue" points="806.567,-146.5 796.567,-150 806.567,-153.5 806.567,-146.5"/>
</g>
<!-- Node21 -->
<g id="node42" class="node"><title>Node21</title>
<a xlink:href="hfa-lnx-nctx-lock_8c.html#a48d3743fb7abc7d3c6b68359678e52a1" target="_top" xlink:title="Poll for the pending search instructions in the HW (blocked till instruction completes) and process t...">
<polygon fill="white" stroke="black" points="763.5,-90.5 763.5,-111.5 796.5,-111.5 796.5,-90.5 763.5,-90.5"/>
<text text-anchor="middle" x="780" y="-98.5" font-family="FreeSans" font-size="10.00">poll</text>
</a>
</g>
<!-- Node20&#45;&gt;Node21 -->
<g id="edge42" class="edge"><title>Node20&#45;&gt;Node21</title>
<path fill="none" stroke="midnightblue" d="M669.363,-94.1281C701.538,-96.1266 741.22,-98.5913 763.249,-99.9596"/>
<polygon fill="midnightblue" stroke="midnightblue" points="669.41,-90.6244 659.212,-93.4976 668.976,-97.6109 669.41,-90.6244"/>
</g>
<!-- Node22 -->
<g id="node44" class="node"><title>Node22</title>
<a xlink:href="hfa-lnx-nctx-lock_8c.html#a972f8b60ef804914c009c2ef85bac50e" target="_top" xlink:title="Performs search process for each core.">
<polygon fill="white" stroke="black" points="876,-71.5 876,-92.5 968,-92.5 968,-71.5 876,-71.5"/>
<text text-anchor="middle" x="922" y="-79.5" font-family="FreeSans" font-size="10.00">process_search</text>
</a>
</g>
<!-- Node20&#45;&gt;Node22 -->
<g id="edge46" class="edge"><title>Node20&#45;&gt;Node22</title>
<path fill="none" stroke="midnightblue" d="M669.524,-85.0106C685.631,-83.3661 703.542,-81.8128 720,-81 773.268,-78.3694 786.668,-80.6748 840,-81 851.532,-81.0703 863.976,-81.1962 875.599,-81.3356"/>
<polygon fill="midnightblue" stroke="midnightblue" points="668.81,-81.5664 659.233,-86.0975 669.546,-88.5277 668.81,-81.5664"/>
</g>
<!-- Node21&#45;&gt;Node22 -->
<g id="edge44" class="edge"><title>Node21&#45;&gt;Node22</title>
<path fill="none" stroke="midnightblue" d="M806.532,-97.4499C825.979,-94.8479 852.875,-91.2491 875.817,-88.1794"/>
<polygon fill="midnightblue" stroke="midnightblue" points="806.015,-93.9879 796.567,-98.7833 806.943,-100.926 806.015,-93.9879"/>
</g>
<!-- Node25 -->
<g id="node51" class="node"><title>Node25</title>
<a xlink:href="hfa-se-wqe-lock_8c.html#a3c04138a5bfe5d72780bb7e82a18e627" target="_top" xlink:title="main">
<polygon fill="white" stroke="black" points="760,-0.5 760,-21.5 800,-21.5 800,-0.5 760,-0.5"/>
<text text-anchor="middle" x="780" y="-8.5" font-family="FreeSans" font-size="10.00">main</text>
</a>
</g>
<!-- Node24&#45;&gt;Node25 -->
<g id="edge52" class="edge"><title>Node24&#45;&gt;Node25</title>
<path fill="none" stroke="midnightblue" d="M669.298,-11C699.9,-11 737.313,-11 759.869,-11"/>
<polygon fill="midnightblue" stroke="midnightblue" points="669.212,-7.5001 659.212,-11 669.212,-14.5001 669.212,-7.5001"/>
</g>
</g>
</svg>
        <g id="navigator" transform="translate(0 0)" fill="#404254">
                <rect fill="#f2f5e9" fill-opacity="0.5" stroke="#606060" stroke-width=".5" x="0" y="0" width="60" height="60"/>
                <use id="zoomplus" xlink:href="#zoomPlus" x="17" y="9" onmousedown="handleZoom(evt,'in')"/>
                <use id="zoomminus" xlink:href="#zoomMin" x="42" y="9" onmousedown="handleZoom(evt,'out')"/>
                <use id="reset" xlink:href="#resetDef" x="30" y="36" onmousedown="handleReset()"/>
                <g id="arrowUp" xlink:href="#dirArrow" transform="translate(30 24)" onmousedown="handlePan(0,-1)">
                  <use xlink:href="#rim" fill="#404040">
                        <set attributeName="fill" to="#808080" begin="arrowUp.mouseover" end="arrowUp.mouseout"/>
                  </use>
                  <path fill="none" stroke="white" stroke-width="1.5" d="M0,-3.0v7 M-2.5,-0.5L0,-3.0L2.5,-0.5"/>
                </g>
                <g id="arrowRight" xlink:href="#dirArrow" transform="rotate(90) translate(36 -43)" onmousedown="handlePan(1,0)">
                  <use xlink:href="#rim" fill="#404040">
                        <set attributeName="fill" to="#808080" begin="arrowRight.mouseover" end="arrowRight.mouseout"/>
                  </use>
                  <path fill="none" stroke="white" stroke-width="1.5" d="M0,-3.0v7 M-2.5,-0.5L0,-3.0L2.5,-0.5"/>
                </g>
                <g id="arrowDown" xlink:href="#dirArrow" transform="rotate(180) translate(-30 -48)" onmousedown="handlePan(0,1)">
                  <use xlink:href="#rim" fill="#404040">
                        <set attributeName="fill" to="#808080" begin="arrowDown.mouseover" end="arrowDown.mouseout"/>
                  </use>
                  <path fill="none" stroke="white" stroke-width="1.5" d="M0,-3.0v7 M-2.5,-0.5L0,-3.0L2.5,-0.5"/>
                </g>
                <g id="arrowLeft" xlink:href="#dirArrow" transform="rotate(270) translate(-36 17)" onmousedown="handlePan(-1,0)">
                  <use xlink:href="#rim" fill="#404040">
                        <set attributeName="fill" to="#808080" begin="arrowLeft.mouseover" end="arrowLeft.mouseout"/>
                  </use>
                  <path fill="none" stroke="white" stroke-width="1.5" d="M0,-3.0v7 M-2.5,-0.5L0,-3.0L2.5,-0.5"/>
                </g>
        </g>
        <svg viewBox="0 0 15 15" width="100%" height="30px" preserveAspectRatio="xMaxYMin meet">
         <g id="arrow_out" transform="scale(0.3 0.3)">
          <a xlink:href="hfa-lnx_8c_a4c3443f524b4c0d95639694f0b74e850_icgraph_org.svg" target="_base">
           <rect id="button" ry="5" rx="5" y="6" x="6" height="38" width="38"
                fill="#f2f5e9" fill-opacity="0.5" stroke="#606060" stroke-width="1.0"/>
           <path id="arrow"
             d="M 11.500037,31.436501 C 11.940474,20.09759 22.043105,11.32322 32.158766,21.979434 L 37.068811,17.246167 C 37.068811,17.246167 37.088388,32 37.088388,32 L 22.160133,31.978069 C 22.160133,31.978069 26.997745,27.140456 26.997745,27.140456 C 18.528582,18.264221 13.291696,25.230495 11.500037,31.436501 z"
             style="fill:#404040;"/>
          </a>
         </g>
        </svg>
</svg>
