<?xml version="1.0" encoding="UTF-8" standalone="no"?>
<!DOCTYPE svg PUBLIC "-//W3C//DTD SVG 1.1//EN"
 "http://www.w3.org/Graphics/SVG/1.1/DTD/svg11.dtd">
<!-- Generated by graphviz version 2.24.0 (20090616.2323)
 -->
<!-- Title: poll Pages: 1 -->
<svg width="1358pt" height="762pt"
 viewBox="0.00 0.00 1358.00 762.00" xmlns="http://www.w3.org/2000/svg" xmlns:xlink="http://www.w3.org/1999/xlink">
<g id="graph1" class="graph" transform="scale(1 1) rotate(0) translate(4 758)">
<title>poll</title>
<polygon fill="white" stroke="white" points="-4,5 -4,-758 1355,-758 1355,5 -4,5"/>
<!-- Node1 -->
<g id="node1" class="node"><title>Node1</title>
<polygon fill="#bfbfbf" stroke="black" points="0.5,-650.5 0.5,-671.5 33.5,-671.5 33.5,-650.5 0.5,-650.5"/>
<text text-anchor="middle" x="17" y="-658.5" font-family="FreeSans" font-size="10.00">poll</text>
</g>
<!-- Node2 -->
<g id="node3" class="node"><title>Node2</title>
<a xlink:href="cvm-hfa-search_8c.html#a6a8e1d7e70e0a10520302df5651e5fc5" target="_top" xlink:title="This routine provides the status of an outstanding pattern search operation initiated using hfa_searc...">
<polygon fill="white" stroke="black" points="840,-692.5 840,-713.5 1012,-713.5 1012,-692.5 840,-692.5"/>
<text text-anchor="middle" x="926" y="-700.5" font-family="FreeSans" font-size="10.00">hfa_searchctx_get_searchstatus</text>
</a>
</g>
<!-- Node1&#45;&gt;Node2 -->
<g id="edge2" class="edge"><title>Node1&#45;&gt;Node2</title>
<path fill="none" stroke="midnightblue" d="M33.6291,-665.783C72.7452,-676.599 173.791,-702 260,-702 260,-702 260,-702 615,-702 686.988,-702 768.349,-702.271 829.793,-702.531"/>
<polygon fill="midnightblue" stroke="midnightblue" points="829.849,-706.031 839.864,-702.574 829.88,-699.031 829.849,-706.031"/>
</g>
<!-- Node6 -->
<g id="node11" class="node"><title>Node6</title>
<a xlink:href="hfa-lnx-nctx_8c.html#a4fbafc7a7cdf59be14583808c4469e83" target="_top" xlink:title="Post process the results from HFA and record found matches.">
<polygon fill="white" stroke="black" points="70,-590.5 70,-611.5 150,-611.5 150,-590.5 70,-590.5"/>
<text text-anchor="middle" x="110" y="-598.5" font-family="FreeSans" font-size="10.00">post_process</text>
</a>
</g>
<!-- Node1&#45;&gt;Node6 -->
<g id="edge10" class="edge"><title>Node1&#45;&gt;Node6</title>
<path fill="none" stroke="midnightblue" d="M33.6265,-650.273C47.9094,-641.058 68.7131,-627.637 85.0023,-617.128"/>
<polygon fill="midnightblue" stroke="midnightblue" points="87.0119,-619.996 93.5174,-611.634 83.217,-614.114 87.0119,-619.996"/>
</g>
<!-- Node3 -->
<g id="node5" class="node"><title>Node3</title>
<a xlink:href="cvm-hfa_8c.html#a4753d2dd586e19676b1a59dd16baaeed" target="_top" xlink:title="Obtain status of submitted insruction.">
<polygon fill="white" stroke="black" points="1048.5,-692.5 1048.5,-713.5 1181.5,-713.5 1181.5,-692.5 1048.5,-692.5"/>
<text text-anchor="middle" x="1115" y="-700.5" font-family="FreeSans" font-size="10.00">hfa_dev_getasyncstatus</text>
</a>
</g>
<!-- Node2&#45;&gt;Node3 -->
<g id="edge4" class="edge"><title>Node2&#45;&gt;Node3</title>
<path fill="none" stroke="midnightblue" d="M1012.2,-703C1020.95,-703 1029.79,-703 1038.43,-703"/>
<polygon fill="midnightblue" stroke="midnightblue" points="1038.45,-706.5 1048.45,-703 1038.45,-699.5 1038.45,-706.5"/>
</g>
<!-- Node4 -->
<g id="node7" class="node"><title>Node4</title>
<a xlink:href="cvm-hfa-instr_8h.html#a56f2522dcba965745a1bc239fc432dca" target="_top" xlink:title="Gets done from RWORD0.">
<polygon fill="white" stroke="black" points="1222.5,-712.5 1222.5,-733.5 1345.5,-733.5 1345.5,-712.5 1222.5,-712.5"/>
<text text-anchor="middle" x="1284" y="-720.5" font-family="FreeSans" font-size="10.00">cvm_hfa_rslt_getdone</text>
</a>
</g>
<!-- Node3&#45;&gt;Node4 -->
<g id="edge6" class="edge"><title>Node3&#45;&gt;Node4</title>
<path fill="none" stroke="midnightblue" d="M1181.79,-710.905C1191.83,-712.092 1202.21,-713.321 1212.34,-714.519"/>
<polygon fill="midnightblue" stroke="midnightblue" points="1212.02,-718.006 1222.36,-715.706 1212.84,-711.055 1212.02,-718.006"/>
</g>
<!-- Node5 -->
<g id="node9" class="node"><title>Node5</title>
<a xlink:href="cvm-hfa-instr_8h.html#a9700a50b68b6616506528eb725a8bda1" target="_top" xlink:title="Gets reason from RWORD0.">
<polygon fill="white" stroke="black" points="1218.5,-672.5 1218.5,-693.5 1349.5,-693.5 1349.5,-672.5 1218.5,-672.5"/>
<text text-anchor="middle" x="1284" y="-680.5" font-family="FreeSans" font-size="10.00">cvm_hfa_rslt_getreason</text>
</a>
</g>
<!-- Node3&#45;&gt;Node5 -->
<g id="edge8" class="edge"><title>Node3&#45;&gt;Node5</title>
<path fill="none" stroke="midnightblue" d="M1181.79,-695.095C1190.41,-694.075 1199.29,-693.025 1208.05,-691.989"/>
<polygon fill="midnightblue" stroke="midnightblue" points="1208.73,-695.433 1218.24,-690.782 1207.9,-688.481 1208.73,-695.433"/>
</g>
<!-- Node7 -->
<g id="node13" class="node"><title>Node7</title>
<a xlink:href="cvm-hfa-search_8h.html#ab50a2d84e35b5a4a03a23fc90e4dffa0" target="_top" xlink:title="This routine retrieves the reason code after a search operation has been completed by the HFA engine...">
<polygon fill="white" stroke="black" points="680,-72 680,-106 802,-106 802,-72 680,-72"/>
<text text-anchor="start" x="688" y="-93" font-family="FreeSans" font-size="10.00">hfa_searchparam_get</text>
<text text-anchor="middle" x="741" y="-80" font-family="FreeSans" font-size="10.00">_hwsearch_reason</text>
</a>
</g>
<!-- Node6&#45;&gt;Node7 -->
<g id="edge12" class="edge"><title>Node6&#45;&gt;Node7</title>
<path fill="none" stroke="midnightblue" d="M112.057,-590.144C125.256,-524.092 204.203,-179 413,-179 413,-179 413,-179 522,-179 522.564,-179 625.547,-136.592 690.074,-109.997"/>
<polygon fill="midnightblue" stroke="midnightblue" points="691.777,-113.081 699.688,-106.034 689.109,-106.609 691.777,-113.081"/>
</g>
<!-- Node8 -->
<g id="node15" class="node"><title>Node8</title>
<a xlink:href="cvm-hfa-common_8h.html#ad117ba199386b8d427cbb04f288b5905" target="_top" xlink:title="Dump HFA related registers.">
<polygon fill="white" stroke="black" points="695.5,-612.5 695.5,-633.5 786.5,-633.5 786.5,-612.5 695.5,-612.5"/>
<text text-anchor="middle" x="741" y="-620.5" font-family="FreeSans" font-size="10.00">hfa_dump_regs</text>
</a>
</g>
<!-- Node6&#45;&gt;Node8 -->
<g id="edge14" class="edge"><title>Node6&#45;&gt;Node8</title>
<path fill="none" stroke="midnightblue" d="M150.135,-605.34C208.094,-611.222 318.634,-621 413,-621 413,-621 413,-621 522,-621 577.441,-621 640.773,-621.649 685.021,-622.207"/>
<polygon fill="midnightblue" stroke="midnightblue" points="685.237,-625.71 695.281,-622.34 685.327,-618.711 685.237,-625.71"/>
</g>
<!-- Node9 -->
<g id="node17" class="node"><title>Node9</title>
<a xlink:href="cvm-hfa-search_8h.html#ad18e328b50b109e1e44821f3d006bd9d" target="_top" xlink:title="This routine returns the data&#45;buffer offset.">
<polygon fill="white" stroke="black" points="680,-560 680,-594 802,-594 802,-560 680,-560"/>
<text text-anchor="start" x="688" y="-581" font-family="FreeSans" font-size="10.00">hfa_searchparam_get</text>
<text text-anchor="middle" x="741" y="-568" font-family="FreeSans" font-size="10.00">_hwsearch_pdboff</text>
</a>
</g>
<!-- Node6&#45;&gt;Node9 -->
<g id="edge16" class="edge"><title>Node6&#45;&gt;Node9</title>
<path fill="none" stroke="midnightblue" d="M150.135,-596.66C208.094,-590.778 318.634,-581 413,-581 413,-581 413,-581 522,-581 571.287,-581 626.803,-579.975 669.606,-578.962"/>
<polygon fill="midnightblue" stroke="midnightblue" points="669.734,-582.46 679.646,-578.72 669.564,-575.462 669.734,-582.46"/>
</g>
<!-- Node10 -->
<g id="node19" class="node"><title>Node10</title>
<a xlink:href="cvm-hfa-search_8c.html#a6dbb15dc58155b2c94b19784ad42ef89" target="_top" xlink:title="This routine post&#45;processes the search results from the HFA engine and reports the pattern matches fo...">
<polygon fill="white" stroke="black" points="186.5,-455.5 186.5,-476.5 333.5,-476.5 333.5,-455.5 186.5,-455.5"/>
<text text-anchor="middle" x="260" y="-463.5" font-family="FreeSans" font-size="10.00">hfa_searchctx_getmatches</text>
</a>
</g>
<!-- Node6&#45;&gt;Node10 -->
<g id="edge18" class="edge"><title>Node6&#45;&gt;Node10</title>
<path fill="none" stroke="midnightblue" d="M121.77,-590.407C147.51,-567.241 209.021,-511.882 240.586,-483.472"/>
<polygon fill="midnightblue" stroke="midnightblue" points="243.193,-485.835 248.284,-476.544 238.51,-480.632 243.193,-485.835"/>
</g>
<!-- Node41 -->
<g id="node86" class="node"><title>Node41</title>
<a xlink:href="app-utils_8c.html#a633038357891aa5147b77fe939f300bf" target="_top" xlink:title="Print pattern matches via match buffer and cleanup all matches.">
<polygon fill="white" stroke="black" points="679,-652.5 679,-673.5 803,-673.5 803,-652.5 679,-652.5"/>
<text text-anchor="middle" x="741" y="-660.5" font-family="FreeSans" font-size="10.00">hfautils_print_matches</text>
</a>
</g>
<!-- Node6&#45;&gt;Node41 -->
<g id="edge110" class="edge"><title>Node6&#45;&gt;Node41</title>
<path fill="none" stroke="midnightblue" d="M134.567,-611.568C149.249,-617.498 168.409,-624.573 186,-629 284.806,-653.863 311.114,-661 413,-661 413,-661 413,-661 522,-661 570.929,-661 626.004,-661.505 668.683,-662.008"/>
<polygon fill="midnightblue" stroke="midnightblue" points="668.657,-665.508 678.699,-662.129 668.742,-658.508 668.657,-665.508"/>
</g>
<!-- Node11 -->
<g id="node21" class="node"><title>Node11</title>
<a xlink:href="cvm-hfa-common_8h.html#a0da7c57174fb96d75ae9cc2ed3116a05" target="_top" xlink:title="Dump buffer pointed by &quot;buf&quot; in readable format.">
<polygon fill="white" stroke="black" points="370,-376.5 370,-397.5 456,-397.5 456,-376.5 370,-376.5"/>
<text text-anchor="middle" x="413" y="-384.5" font-family="FreeSans" font-size="10.00">hfa_dump_buf</text>
</a>
</g>
<!-- Node10&#45;&gt;Node11 -->
<g id="edge20" class="edge"><title>Node10&#45;&gt;Node11</title>
<path fill="none" stroke="midnightblue" d="M278.905,-455.436C300.684,-443.365 337.633,-423.191 370,-407 373.364,-405.317 376.897,-403.598 380.431,-401.909"/>
<polygon fill="midnightblue" stroke="midnightblue" points="382.12,-404.982 389.675,-397.555 379.137,-398.65 382.12,-404.982"/>
</g>
<!-- Node12 -->
<g id="node23" class="node"><title>Node12</title>
<a xlink:href="cvm-hfa-pp_8c.html#a02d24f276578f8a39a93968262a08f1d" target="_top" xlink:title="pp">
<polygon fill="white" stroke="black" points="398.5,-416.5 398.5,-437.5 427.5,-437.5 427.5,-416.5 398.5,-416.5"/>
<text text-anchor="middle" x="413" y="-424.5" font-family="FreeSans" font-size="10.00">pp</text>
</a>
</g>
<!-- Node10&#45;&gt;Node12 -->
<g id="edge22" class="edge"><title>Node10&#45;&gt;Node12</title>
<path fill="none" stroke="midnightblue" d="M301.404,-455.446C329.339,-448.325 365.246,-439.173 388.678,-433.2"/>
<polygon fill="midnightblue" stroke="midnightblue" points="389.666,-436.56 398.492,-430.698 387.937,-429.777 389.666,-436.56"/>
</g>
<!-- Node13 -->
<g id="node25" class="node"><title>Node13</title>
<a xlink:href="pp_8h.html#af7a68f9e08d3b54012ad008a4f47e1cd" target="_top" xlink:title="pphfa">
<polygon fill="white" stroke="black" points="500,-456.5 500,-477.5 544,-477.5 544,-456.5 500,-456.5"/>
<text text-anchor="middle" x="522" y="-464.5" font-family="FreeSans" font-size="10.00">pphfa</text>
</a>
</g>
<!-- Node12&#45;&gt;Node13 -->
<g id="edge24" class="edge"><title>Node12&#45;&gt;Node13</title>
<path fill="none" stroke="midnightblue" d="M427.7,-432.395C443.581,-438.222 469.374,-447.688 489.974,-455.247"/>
<polygon fill="midnightblue" stroke="midnightblue" points="489.009,-458.622 499.603,-458.781 491.421,-452.05 489.009,-458.622"/>
</g>
<!-- Node14 -->
<g id="node27" class="node"><title>Node14</title>
<a xlink:href="cvm-hfa-res_8c.html#ad0de0b790a5786053d59797884dbdd23" target="_top" xlink:title="Rinit">
<polygon fill="white" stroke="black" points="504,-416.5 504,-437.5 540,-437.5 540,-416.5 504,-416.5"/>
<text text-anchor="middle" x="522" y="-424.5" font-family="FreeSans" font-size="10.00">Rinit</text>
</a>
</g>
<!-- Node12&#45;&gt;Node14 -->
<g id="edge26" class="edge"><title>Node12&#45;&gt;Node14</title>
<path fill="none" stroke="midnightblue" d="M427.7,-427C444.602,-427 472.733,-427 493.88,-427"/>
<polygon fill="midnightblue" stroke="midnightblue" points="493.913,-430.5 503.913,-427 493.913,-423.5 493.913,-430.5"/>
</g>
<!-- Node15 -->
<g id="node29" class="node"><title>Node15</title>
<a xlink:href="cvm-hfa-pp_8c.html#adcc1149c628372e2e566c246870929cb" target="_top" xlink:title="infoentry">
<polygon fill="white" stroke="black" points="492.5,-336.5 492.5,-357.5 551.5,-357.5 551.5,-336.5 492.5,-336.5"/>
<text text-anchor="middle" x="522" y="-344.5" font-family="FreeSans" font-size="10.00">infoentry</text>
</a>
</g>
<!-- Node12&#45;&gt;Node15 -->
<g id="edge28" class="edge"><title>Node12&#45;&gt;Node15</title>
<path fill="none" stroke="midnightblue" d="M427.742,-421.859C436.44,-418.421 447.394,-413.363 456,-407 475.232,-392.781 473.909,-382.644 492,-367 493.335,-365.846 494.739,-364.703 496.182,-363.584"/>
<polygon fill="midnightblue" stroke="midnightblue" points="498.564,-366.182 504.643,-357.505 494.48,-360.497 498.564,-366.182"/>
</g>
<!-- Node48 -->
<g id="node100" class="node"><title>Node48</title>
<a xlink:href="cvm-hfa-res_8c.html#a6c56aa24fa6551b23e4283ae2d5bcad8" target="_top" xlink:title="Rreport1">
<polygon fill="white" stroke="black" points="493.5,-296.5 493.5,-317.5 550.5,-317.5 550.5,-296.5 493.5,-296.5"/>
<text text-anchor="middle" x="522" y="-304.5" font-family="FreeSans" font-size="10.00">Rreport1</text>
</a>
</g>
<!-- Node12&#45;&gt;Node48 -->
<g id="edge104" class="edge"><title>Node12&#45;&gt;Node48</title>
<path fill="none" stroke="midnightblue" d="M427.707,-423.051C436.83,-419.962 448.248,-414.85 456,-407 483.397,-379.258 466.798,-356.75 492,-327 492.842,-326.006 493.746,-325.041 494.695,-324.108"/>
<polygon fill="midnightblue" stroke="midnightblue" points="497.113,-326.65 502.611,-317.593 492.665,-321.245 497.113,-326.65"/>
</g>
<!-- Node50 -->
<g id="node104" class="node"><title>Node50</title>
<a xlink:href="cvm-hfa-res_8c.html#a38aa04fce135199ec3bb8726da163846" target="_top" xlink:title="Rfinish">
<polygon fill="white" stroke="black" points="498,-376.5 498,-397.5 546,-397.5 546,-376.5 498,-376.5"/>
<text text-anchor="middle" x="522" y="-384.5" font-family="FreeSans" font-size="10.00">Rfinish</text>
</a>
</g>
<!-- Node12&#45;&gt;Node50 -->
<g id="edge108" class="edge"><title>Node12&#45;&gt;Node50</title>
<path fill="none" stroke="midnightblue" d="M427.7,-421.605C443.181,-415.924 468.082,-406.786 488.409,-399.327"/>
<polygon fill="midnightblue" stroke="midnightblue" points="489.777,-402.553 497.959,-395.822 487.366,-395.982 489.777,-402.553"/>
</g>
<!-- Node16 -->
<g id="node31" class="node"><title>Node16</title>
<a xlink:href="hfa-lnx_8c.html#a78ffddbcd7cdd164889cfb53ea367886" target="_top" xlink:title="entry">
<polygon fill="white" stroke="black" points="594.5,-376.5 594.5,-397.5 635.5,-397.5 635.5,-376.5 594.5,-376.5"/>
<text text-anchor="middle" x="615" y="-384.5" font-family="FreeSans" font-size="10.00">entry</text>
</a>
</g>
<!-- Node15&#45;&gt;Node16 -->
<g id="edge30" class="edge"><title>Node15&#45;&gt;Node16</title>
<path fill="none" stroke="midnightblue" d="M546.435,-357.51C558.155,-362.551 572.31,-368.639 584.708,-373.971"/>
<polygon fill="midnightblue" stroke="midnightblue" points="583.625,-377.315 594.194,-378.051 586.391,-370.885 583.625,-377.315"/>
</g>
<!-- Node47 -->
<g id="node98" class="node"><title>Node47</title>
<a xlink:href="cvm-hfa-pp_8c.html#a85b4c8af06430f26eab8afdeea3a7395" target="_top" xlink:title="hashidx">
<polygon fill="white" stroke="black" points="588,-336.5 588,-357.5 642,-357.5 642,-336.5 588,-336.5"/>
<text text-anchor="middle" x="615" y="-344.5" font-family="FreeSans" font-size="10.00">hashidx</text>
</a>
</g>
<!-- Node15&#45;&gt;Node47 -->
<g id="edge102" class="edge"><title>Node15&#45;&gt;Node47</title>
<path fill="none" stroke="midnightblue" d="M551.681,-347C559.92,-347 568.973,-347 577.592,-347"/>
<polygon fill="midnightblue" stroke="midnightblue" points="577.807,-350.5 587.807,-347 577.807,-343.5 577.807,-350.5"/>
</g>
<!-- Node16&#45;&gt;Node7 -->
<g id="edge82" class="edge"><title>Node16&#45;&gt;Node7</title>
<path fill="none" stroke="midnightblue" d="M633.461,-376.447C636.773,-373.768 639.849,-370.608 642,-367 699.932,-269.82 608.576,-204.333 678,-115 678.49,-114.369 678.998,-113.754 679.523,-113.153"/>
<polygon fill="midnightblue" stroke="midnightblue" points="682.162,-115.482 687.178,-106.15 677.437,-110.317 682.162,-115.482"/>
</g>
<!-- Node16&#45;&gt;Node8 -->
<g id="edge84" class="edge"><title>Node16&#45;&gt;Node8</title>
<path fill="none" stroke="midnightblue" d="M616.74,-397.581C623.369,-436.702 648.182,-572.47 678,-603 680.481,-605.54 683.282,-607.758 686.29,-609.695"/>
<polygon fill="midnightblue" stroke="midnightblue" points="684.747,-612.839 695.22,-614.443 688.034,-606.658 684.747,-612.839"/>
</g>
<!-- Node16&#45;&gt;Node9 -->
<g id="edge86" class="edge"><title>Node16&#45;&gt;Node9</title>
<path fill="none" stroke="midnightblue" d="M616.195,-397.758C619.931,-426.473 633.909,-505.809 678,-551 678.93,-551.953 679.899,-552.872 680.903,-553.759"/>
<polygon fill="midnightblue" stroke="midnightblue" points="679.084,-556.768 689.193,-559.941 683.269,-551.157 679.084,-556.768"/>
</g>
<!-- Node16&#45;&gt;Node10 -->
<g id="edge88" class="edge"><title>Node16&#45;&gt;Node10</title>
<path fill="none" stroke="midnightblue" d="M612.043,-397.702C605.435,-419.273 587.211,-467.567 552,-487 469.304,-532.64 352.791,-500.949 295.14,-480.151"/>
<polygon fill="midnightblue" stroke="midnightblue" points="296.005,-476.739 285.412,-476.542 293.57,-483.302 296.005,-476.739"/>
</g>
<!-- Node17 -->
<g id="node33" class="node"><title>Node17</title>
<a xlink:href="hfa-lnx_8c.html#a4c3443f524b4c0d95639694f0b74e850" target="_top" xlink:title="Process command line options, Read graph and payload.">
<polygon fill="white" stroke="black" points="694,-296.5 694,-317.5 788,-317.5 788,-296.5 694,-296.5"/>
<text text-anchor="middle" x="741" y="-304.5" font-family="FreeSans" font-size="10.00">process_options</text>
</a>
</g>
<!-- Node16&#45;&gt;Node17 -->
<g id="edge32" class="edge"><title>Node16&#45;&gt;Node17</title>
<path fill="none" stroke="midnightblue" d="M630.558,-376.301C634.418,-373.426 638.46,-370.217 642,-367 659.698,-350.912 657.899,-339.961 678,-327 681.125,-324.985 684.469,-323.159 687.926,-321.508"/>
<polygon fill="midnightblue" stroke="midnightblue" points="689.436,-324.669 697.267,-317.532 686.695,-318.228 689.436,-324.669"/>
</g>
<!-- Node21 -->
<g id="node41" class="node"><title>Node21</title>
<a xlink:href="cvm-hfa_8c.html#a873768042b716d60996ec5d858fc8fd9" target="_top" xlink:title="This function must be called by application to initialize HFA engine and setup resources for HFA hard...">
<polygon fill="white" stroke="red" points="704,-336.5 704,-357.5 778,-357.5 778,-336.5 704,-336.5"/>
<text text-anchor="middle" x="741" y="-344.5" font-family="FreeSans" font-size="10.00">hfa_dev_init</text>
</a>
</g>
<!-- Node16&#45;&gt;Node21 -->
<g id="edge40" class="edge"><title>Node16&#45;&gt;Node21</title>
<path fill="none" stroke="midnightblue" d="M635.525,-380.484C652.38,-375.133 676.83,-367.372 697.946,-360.668"/>
<polygon fill="midnightblue" stroke="midnightblue" points="699.212,-363.938 707.684,-357.577 697.093,-357.267 699.212,-363.938"/>
</g>
<!-- Node35 -->
<g id="node69" class="node"><title>Node35</title>
<a xlink:href="hfa-lnx_8c.html#a546f3769e735d4bef0bfab1cba56921c" target="_top" xlink:title="Load graph to HFA memory and cache.">
<polygon fill="white" stroke="red" points="706.5,-256.5 706.5,-277.5 775.5,-277.5 775.5,-256.5 706.5,-256.5"/>
<text text-anchor="middle" x="741" y="-264.5" font-family="FreeSans" font-size="10.00">graph_load</text>
</a>
</g>
<!-- Node16&#45;&gt;Node35 -->
<g id="edge68" class="edge"><title>Node16&#45;&gt;Node35</title>
<path fill="none" stroke="midnightblue" d="M632.149,-376.362C635.71,-373.618 639.219,-370.453 642,-367 666.457,-336.635 648.885,-312.933 678,-287 683.297,-282.282 689.709,-278.676 696.388,-275.921"/>
<polygon fill="midnightblue" stroke="midnightblue" points="697.986,-279.07 706.267,-272.462 695.673,-272.463 697.986,-279.07"/>
</g>
<!-- Node36 -->
<g id="node71" class="node"><title>Node36</title>
<a xlink:href="hfa-lnx_8c.html#a924d2733ebc7a856f8c3fd293193ba44" target="_top" xlink:title="Initialize search context.">
<polygon fill="white" stroke="red" points="703.5,-216.5 703.5,-237.5 778.5,-237.5 778.5,-216.5 703.5,-216.5"/>
<text text-anchor="middle" x="741" y="-224.5" font-family="FreeSans" font-size="10.00">initialize_ctx</text>
</a>
</g>
<!-- Node16&#45;&gt;Node36 -->
<g id="edge70" class="edge"><title>Node16&#45;&gt;Node36</title>
<path fill="none" stroke="midnightblue" d="M632.774,-376.403C636.216,-373.694 639.519,-370.532 642,-367 674.005,-321.436 638.942,-286.685 678,-247 682.49,-242.438 688.015,-238.914 693.909,-236.193"/>
<polygon fill="midnightblue" stroke="midnightblue" points="695.309,-239.405 703.382,-232.544 692.793,-232.873 695.309,-239.405"/>
</g>
<!-- Node37 -->
<g id="node73" class="node"><title>Node37</title>
<a xlink:href="app-utils_8c.html#a4b47f3c9c5a0b3eaee64e264171628a3" target="_top" xlink:title="This routine reads data of chunksize/a packet from given payload(Normal/PCAP) file and returns data b...">
<polygon fill="white" stroke="red" points="678,-176.5 678,-197.5 804,-197.5 804,-176.5 678,-176.5"/>
<text text-anchor="middle" x="741" y="-184.5" font-family="FreeSans" font-size="10.00">hfautils_parse_payload</text>
</a>
</g>
<!-- Node16&#45;&gt;Node37 -->
<g id="edge72" class="edge"><title>Node16&#45;&gt;Node37</title>
<path fill="none" stroke="midnightblue" d="M633.242,-376.311C636.569,-373.641 639.708,-370.519 642,-367 681.779,-305.923 628.725,-260.71 678,-207 679.2,-205.692 680.485,-204.469 681.84,-203.326"/>
<polygon fill="midnightblue" stroke="midnightblue" points="683.959,-206.118 690.27,-197.608 680.029,-200.325 683.959,-206.118"/>
</g>
<!-- Node38 -->
<g id="node75" class="node"><title>Node38</title>
<a xlink:href="cvm-hfa-search_8h.html#ae9741e867075c9b8cc63a7d889d5bf20" target="_top" xlink:title="This routine is a variant of hfa_searchparam_set_inputiovec() when the previously searched input IO v...">
<polygon fill="white" stroke="black" points="680.5,-124 680.5,-158 801.5,-158 801.5,-124 680.5,-124"/>
<text text-anchor="start" x="688.5" y="-145" font-family="FreeSans" font-size="10.00">hfa_searchparam_set</text>
<text text-anchor="middle" x="741" y="-132" font-family="FreeSans" font-size="10.00">_inputiovec_0_n</text>
</a>
</g>
<!-- Node16&#45;&gt;Node38 -->
<g id="edge74" class="edge"><title>Node16&#45;&gt;Node38</title>
<path fill="none" stroke="midnightblue" d="M633.36,-376.386C636.679,-373.711 639.784,-370.568 642,-367 689.644,-290.271 621.297,-237.3 678,-167 678.601,-166.255 679.227,-165.53 679.876,-164.827"/>
<polygon fill="midnightblue" stroke="midnightblue" points="682.395,-167.273 687.602,-158.046 677.777,-162.012 682.395,-167.273"/>
</g>
<!-- Node39 -->
<g id="node77" class="node"><title>Node39</title>
<a xlink:href="cvm-hfa-search_8h.html#a12882fa53f8ec49b9b2950711161db42" target="_top" xlink:title="This routine sets the output buffer in the sparam.">
<polygon fill="white" stroke="black" points="680.5,-508 680.5,-542 801.5,-542 801.5,-508 680.5,-508"/>
<text text-anchor="start" x="688.5" y="-529" font-family="FreeSans" font-size="10.00">hfa_searchparam_set</text>
<text text-anchor="middle" x="741" y="-516" font-family="FreeSans" font-size="10.00">_output</text>
</a>
</g>
<!-- Node16&#45;&gt;Node39 -->
<g id="edge76" class="edge"><title>Node16&#45;&gt;Node39</title>
<path fill="none" stroke="midnightblue" d="M618.366,-397.795C625.727,-419.757 645.268,-470.006 678,-499 679.309,-500.16 680.677,-501.272 682.093,-502.339"/>
<polygon fill="midnightblue" stroke="midnightblue" points="680.366,-505.392 690.645,-507.961 684.211,-499.543 680.366,-505.392"/>
</g>
<!-- Node40 -->
<g id="node79" class="node"><title>Node40</title>
<a xlink:href="cvm-hfa-search_8c.html#a57d7540278164eb6b6c132be00db0de5" target="_top" xlink:title="This routine performs a pattern search using the given parameters in a blocking manner.">
<polygon fill="white" stroke="red" points="679.5,-416.5 679.5,-437.5 802.5,-437.5 802.5,-416.5 679.5,-416.5"/>
<text text-anchor="middle" x="741" y="-424.5" font-family="FreeSans" font-size="10.00">hfa_searchctx_search</text>
</a>
</g>
<!-- Node16&#45;&gt;Node40 -->
<g id="edge78" class="edge"><title>Node16&#45;&gt;Node40</title>
<path fill="none" stroke="midnightblue" d="M635.525,-393.516C652.38,-398.867 676.83,-406.628 697.946,-413.332"/>
<polygon fill="midnightblue" stroke="midnightblue" points="697.093,-416.733 707.684,-416.423 699.212,-410.062 697.093,-416.733"/>
</g>
<!-- Node16&#45;&gt;Node41 -->
<g id="edge90" class="edge"><title>Node16&#45;&gt;Node41</title>
<path fill="none" stroke="midnightblue" d="M616.237,-397.679C621.5,-441.376 643.36,-605.991 678,-643 679.24,-644.325 680.567,-645.562 681.966,-646.718"/>
<polygon fill="midnightblue" stroke="midnightblue" points="680.386,-649.87 690.653,-652.485 684.258,-644.038 680.386,-649.87"/>
</g>
<!-- Node45 -->
<g id="node94" class="node"><title>Node45</title>
<a xlink:href="cvm-hfa-search_8h.html#ac5bcfbfda7036d9aca28a3c5828847a5" target="_top" xlink:title="This routine retrieves flags returned by post&#45;processor.">
<polygon fill="white" stroke="black" points="680,-456 680,-490 802,-490 802,-456 680,-456"/>
<text text-anchor="start" x="688" y="-477" font-family="FreeSans" font-size="10.00">hfa_searchparam_get</text>
<text text-anchor="middle" x="741" y="-464" font-family="FreeSans" font-size="10.00">_ppoflags</text>
</a>
</g>
<!-- Node16&#45;&gt;Node45 -->
<g id="edge98" class="edge"><title>Node16&#45;&gt;Node45</title>
<path fill="none" stroke="midnightblue" d="M623.861,-397.569C635.265,-410.626 656.216,-432.845 678,-447 680.17,-448.41 682.43,-449.769 684.747,-451.076"/>
<polygon fill="midnightblue" stroke="midnightblue" points="683.422,-454.332 693.908,-455.85 686.657,-448.124 683.422,-454.332"/>
</g>
<!-- Node46 -->
<g id="node96" class="node"><title>Node46</title>
<a xlink:href="hfa-lnx_8c.html#a5c6551bf9ea9cf51ae7f2076c4cbe8ef" target="_top" xlink:title="Application cleanup will be done by this routine.">
<polygon fill="white" stroke="red" points="714,-376.5 714,-397.5 768,-397.5 768,-376.5 714,-376.5"/>
<text text-anchor="middle" x="741" y="-384.5" font-family="FreeSans" font-size="10.00">cleanup</text>
</a>
</g>
<!-- Node16&#45;&gt;Node46 -->
<g id="edge100" class="edge"><title>Node16&#45;&gt;Node46</title>
<path fill="none" stroke="midnightblue" d="M635.525,-387C653.946,-387 681.436,-387 703.733,-387"/>
<polygon fill="midnightblue" stroke="midnightblue" points="703.879,-390.5 713.879,-387 703.879,-383.5 703.879,-390.5"/>
</g>
<!-- Node18 -->
<g id="node35" class="node"><title>Node18</title>
<a xlink:href="app-utils_8c.html#a8d5ec2ca8ebb2e04916983e6053a5c79" target="_top" xlink:title="Return size of a file(compressed or uncompressed).">
<polygon fill="white" stroke="red" points="878.5,-0.5 878.5,-21.5 973.5,-21.5 973.5,-0.5 878.5,-0.5"/>
<text text-anchor="middle" x="926" y="-8.5" font-family="FreeSans" font-size="10.00">hfautils_file_size</text>
</a>
</g>
<!-- Node17&#45;&gt;Node18 -->
<g id="edge34" class="edge"><title>Node17&#45;&gt;Node18</title>
<path fill="none" stroke="midnightblue" d="M788.055,-298.738C794.121,-295.891 799.704,-292.084 804,-287 878.155,-199.237 762.441,-115.77 840,-31 847.526,-22.774 857.718,-17.6079 868.453,-14.4269"/>
<polygon fill="midnightblue" stroke="midnightblue" points="869.5,-17.775 878.404,-12.0329 867.862,-10.9692 869.5,-17.775"/>
</g>
<!-- Node19 -->
<g id="node37" class="node"><title>Node19</title>
<a xlink:href="app-utils_8c.html#a12339c67618c4b3a54c32f43d378c273" target="_top" xlink:title="Read data from a file to a buffer(compressed or uncompressed).">
<polygon fill="white" stroke="red" points="877.5,-92.5 877.5,-113.5 974.5,-113.5 974.5,-92.5 877.5,-92.5"/>
<text text-anchor="middle" x="926" y="-100.5" font-family="FreeSans" font-size="10.00">hfautils_read_file</text>
</a>
</g>
<!-- Node17&#45;&gt;Node19 -->
<g id="edge36" class="edge"><title>Node17&#45;&gt;Node19</title>
<path fill="none" stroke="midnightblue" d="M788.028,-298.291C794.022,-295.503 799.591,-291.831 804,-287 854.304,-231.879 787.561,-176.094 840,-123 847.428,-115.479 857.095,-110.559 867.255,-107.384"/>
<polygon fill="midnightblue" stroke="midnightblue" points="868.282,-110.733 877.091,-104.846 866.534,-103.955 868.282,-110.733"/>
</g>
<!-- Node20 -->
<g id="node39" class="node"><title>Node20</title>
<a xlink:href="app-utils_8c.html#a1944a739d03e86dcaee1a7d245cfeba0" target="_top" xlink:title="Initialize the attributes needed for parsing the payload file.">
<polygon fill="white" stroke="red" points="869.5,-40 869.5,-74 982.5,-74 982.5,-40 869.5,-40"/>
<text text-anchor="start" x="877.5" y="-61" font-family="FreeSans" font-size="10.00">hfautils_init_payload</text>
<text text-anchor="middle" x="926" y="-48" font-family="FreeSans" font-size="10.00">_attributes</text>
</a>
</g>
<!-- Node17&#45;&gt;Node20 -->
<g id="edge38" class="edge"><title>Node17&#45;&gt;Node20</title>
<path fill="none" stroke="midnightblue" d="M788.211,-298.455C794.179,-295.643 799.692,-291.922 804,-287 864.641,-217.725 778.882,-151.855 840,-83 845.46,-76.8484 852.32,-72.1278 859.772,-68.5099"/>
<polygon fill="midnightblue" stroke="midnightblue" points="861.568,-71.5543 869.466,-64.4921 858.888,-65.0877 861.568,-71.5543"/>
</g>
<!-- Node22 -->
<g id="node43" class="node"><title>Node22</title>
<a xlink:href="cvm-hfa-stats_8c.html#a2fcf955b47370bfa46705ee5a23a70cf" target="_top" xlink:title="This routine allocates memory for counters to maintain statistics of each processing core...">
<polygon fill="white" stroke="red" points="875,-412.5 875,-433.5 977,-433.5 977,-412.5 875,-412.5"/>
<text text-anchor="middle" x="926" y="-420.5" font-family="FreeSans" font-size="10.00">hfa_dev_stats_init</text>
</a>
</g>
<!-- Node21&#45;&gt;Node22 -->
<g id="edge42" class="edge"><title>Node21&#45;&gt;Node22</title>
<path fill="none" stroke="midnightblue" d="M778.266,-355.597C787.063,-358.488 796.156,-362.23 804,-367 823.333,-378.757 820.218,-392.014 840,-403 847.692,-407.272 856.258,-410.633 864.92,-413.278"/>
<polygon fill="midnightblue" stroke="midnightblue" points="864.127,-416.69 874.698,-415.97 865.985,-409.941 864.127,-416.69"/>
</g>
<!-- Node23 -->
<g id="node45" class="node"><title>Node23</title>
<a xlink:href="cvm-hfa_8c.html#a27982497398da2118cd5287ed51732e7" target="_top" xlink:title="Provides device&#45;specific information This is a utility routine used to obtain HFA device&#45;specific det...">
<polygon fill="white" stroke="black" points="870.5,-372.5 870.5,-393.5 981.5,-393.5 981.5,-372.5 870.5,-372.5"/>
<text text-anchor="middle" x="926" y="-380.5" font-family="FreeSans" font-size="10.00">hfa_dev_getdevinfo</text>
</a>
</g>
<!-- Node21&#45;&gt;Node23 -->
<g id="edge44" class="edge"><title>Node21&#45;&gt;Node23</title>
<path fill="none" stroke="midnightblue" d="M778.438,-354.285C802.322,-358.933 833.907,-365.079 861.726,-370.493"/>
<polygon fill="midnightblue" stroke="midnightblue" points="861.298,-373.975 871.783,-372.45 862.636,-367.104 861.298,-373.975"/>
</g>
<!-- Node24 -->
<g id="node47" class="node"><title>Node24</title>
<a xlink:href="pp_8h.html#a6f5982b2671e9682262a26b0d2996396" target="_top" xlink:title="Constructs a readable version string for the PP library.">
<polygon fill="white" stroke="black" points="866,-332.5 866,-353.5 986,-353.5 986,-332.5 866,-332.5"/>
<text text-anchor="middle" x="926" y="-340.5" font-family="FreeSans" font-size="10.00">pp_get_version_string</text>
</a>
</g>
<!-- Node21&#45;&gt;Node24 -->
<g id="edge46" class="edge"><title>Node21&#45;&gt;Node24</title>
<path fill="none" stroke="midnightblue" d="M778.438,-346.191C800.528,-345.713 829.206,-345.093 855.398,-344.527"/>
<polygon fill="midnightblue" stroke="midnightblue" points="855.754,-348.02 865.676,-344.304 855.603,-341.021 855.754,-348.02"/>
</g>
<!-- Node25 -->
<g id="node49" class="node"><title>Node25</title>
<a xlink:href="cvm-hfa_8c.html#afd1d53fe8a402d4c5799e6e98c67baaa" target="_top" xlink:title="Displays HFA Device info.">
<polygon fill="white" stroke="red" points="867.5,-292.5 867.5,-313.5 984.5,-313.5 984.5,-292.5 867.5,-292.5"/>
<text text-anchor="middle" x="926" y="-300.5" font-family="FreeSans" font-size="10.00">hfa_dev_display_info</text>
</a>
</g>
<!-- Node21&#45;&gt;Node25 -->
<g id="edge48" class="edge"><title>Node21&#45;&gt;Node25</title>
<path fill="none" stroke="midnightblue" d="M778.12,-337.914C796.692,-333.391 819.524,-327.863 840,-323 849.843,-320.662 860.327,-318.201 870.468,-315.834"/>
<polygon fill="midnightblue" stroke="midnightblue" points="871.511,-319.185 880.457,-313.508 869.923,-312.368 871.511,-319.185"/>
</g>
<!-- Node26 -->
<g id="node51" class="node"><title>Node26</title>
<a xlink:href="cvm-hfa_8c.html#a236e64ca73680ea6761204d5c44d4e96" target="_top" xlink:title="API to set PP resource allocator for partial matches.">
<polygon fill="white" stroke="black" points="858.5,-252.5 858.5,-273.5 993.5,-273.5 993.5,-252.5 858.5,-252.5"/>
<text text-anchor="middle" x="926" y="-260.5" font-family="FreeSans" font-size="10.00">hfa_dev_set_fnp_ppalloc</text>
</a>
</g>
<!-- Node21&#45;&gt;Node26 -->
<g id="edge50" class="edge"><title>Node21&#45;&gt;Node26</title>
<path fill="none" stroke="midnightblue" d="M778.287,-339.057C787.177,-336.138 796.309,-332.219 804,-327 824.907,-312.812 818.549,-296.353 840,-283 843.345,-280.918 846.885,-279.052 850.548,-277.381"/>
<polygon fill="midnightblue" stroke="midnightblue" points="851.905,-280.607 859.862,-273.612 849.279,-274.118 851.905,-280.607"/>
</g>
<!-- Node27 -->
<g id="node53" class="node"><title>Node27</title>
<a xlink:href="cvm-hfa_8c.html#ab547f175726534d6a0a334eb35af4980" target="_top" xlink:title="Default function pointer for PP allocations.">
<polygon fill="white" stroke="black" points="866,-212.5 866,-233.5 986,-233.5 986,-212.5 866,-212.5"/>
<text text-anchor="middle" x="926" y="-220.5" font-family="FreeSans" font-size="10.00">hfa_defaultfn_ppalloc</text>
</a>
</g>
<!-- Node21&#45;&gt;Node27 -->
<g id="edge52" class="edge"><title>Node21&#45;&gt;Node27</title>
<path fill="none" stroke="midnightblue" d="M778.105,-340.922C787.402,-337.959 796.775,-333.553 804,-327 834.086,-299.713 808.861,-269.079 840,-243 844.859,-238.931 850.391,-235.654 856.253,-233.021"/>
<polygon fill="midnightblue" stroke="midnightblue" points="857.611,-236.248 865.686,-229.39 855.096,-229.716 857.611,-236.248"/>
</g>
<!-- Node28 -->
<g id="node55" class="node"><title>Node28</title>
<a xlink:href="cvm-hfa_8c.html#a148abbfdeebb207ff46884af8eeb8fa4" target="_top" xlink:title="API to set PP resource deallocator for partial matches.">
<polygon fill="white" stroke="black" points="860,-172.5 860,-193.5 992,-193.5 992,-172.5 860,-172.5"/>
<text text-anchor="middle" x="926" y="-180.5" font-family="FreeSans" font-size="10.00">hfa_dev_set_fnp_ppfree</text>
</a>
</g>
<!-- Node21&#45;&gt;Node28 -->
<g id="edge54" class="edge"><title>Node21&#45;&gt;Node28</title>
<path fill="none" stroke="midnightblue" d="M778.003,-341.703C787.52,-338.746 797.029,-334.147 804,-327 844.071,-285.921 798.34,-242.467 840,-203 843.192,-199.976 846.749,-197.378 850.549,-195.149"/>
<polygon fill="midnightblue" stroke="midnightblue" points="852.375,-198.152 859.798,-190.592 849.28,-191.873 852.375,-198.152"/>
</g>
<!-- Node29 -->
<g id="node57" class="node"><title>Node29</title>
<a xlink:href="cvm-hfa_8c.html#a832239ee7b188265bdacbbfb7e879af1" target="_top" xlink:title="Default function pointer for PP deallocations.">
<polygon fill="white" stroke="black" points="867.5,-132.5 867.5,-153.5 984.5,-153.5 984.5,-132.5 867.5,-132.5"/>
<text text-anchor="middle" x="926" y="-140.5" font-family="FreeSans" font-size="10.00">hfa_defaultfn_ppfree</text>
</a>
</g>
<!-- Node21&#45;&gt;Node29 -->
<g id="edge56" class="edge"><title>Node21&#45;&gt;Node29</title>
<path fill="none" stroke="midnightblue" d="M778.318,-342.001C787.838,-339.046 797.27,-334.374 804,-327 854.304,-271.879 787.561,-216.094 840,-163 844.994,-157.944 850.999,-154.063 857.486,-151.098"/>
<polygon fill="midnightblue" stroke="midnightblue" points="859.169,-154.203 867.273,-147.378 856.682,-147.659 859.169,-154.203"/>
</g>
<!-- Node30 -->
<g id="node59" class="node"><title>Node30</title>
<a xlink:href="cvm-hfa_8c.html#a774451b83b300f862763d189c9758e1f" target="_top" xlink:title="API to set PP buffer size function pointer.">
<polygon fill="white" stroke="black" points="860,-612.5 860,-633.5 992,-633.5 992,-612.5 860,-612.5"/>
<text text-anchor="middle" x="926" y="-620.5" font-family="FreeSans" font-size="10.00">hfa_dev_set_fnp_ppsize</text>
</a>
</g>
<!-- Node21&#45;&gt;Node30 -->
<g id="edge58" class="edge"><title>Node21&#45;&gt;Node30</title>
<path fill="none" stroke="midnightblue" d="M778.306,-351.618C787.942,-354.563 797.438,-359.325 804,-367 872.951,-447.644 767.922,-525.138 840,-603 843.191,-606.447 846.85,-609.355 850.819,-611.804"/>
<polygon fill="midnightblue" stroke="midnightblue" points="849.445,-615.033 859.943,-616.463 852.629,-608.798 849.445,-615.033"/>
</g>
<!-- Node31 -->
<g id="node61" class="node"><title>Node31</title>
<a xlink:href="cvm-hfa_8c.html#a11aab8e30488e4cfc900f60a0dabc784" target="_top" xlink:title="Default function pointer for PP size.">
<polygon fill="white" stroke="black" points="867.5,-572.5 867.5,-593.5 984.5,-593.5 984.5,-572.5 867.5,-572.5"/>
<text text-anchor="middle" x="926" y="-580.5" font-family="FreeSans" font-size="10.00">hfa_defaultfn_ppsize</text>
</a>
</g>
<!-- Node21&#45;&gt;Node31 -->
<g id="edge60" class="edge"><title>Node21&#45;&gt;Node31</title>
<path fill="none" stroke="midnightblue" d="M778.157,-351.748C787.791,-354.694 797.322,-359.425 804,-367 862.568,-433.439 778.857,-498.923 840,-563 844.906,-568.141 850.855,-572.076 857.309,-575.074"/>
<polygon fill="midnightblue" stroke="midnightblue" points="856.474,-578.502 867.064,-578.825 858.986,-571.969 856.474,-578.502"/>
</g>
<!-- Node32 -->
<g id="node63" class="node"><title>Node32</title>
<a xlink:href="cvm-hfa_8c.html#a9a0b038e0d29435cb91a21d9c62806cc" target="_top" xlink:title="API to set PP resource allocator for temporary memory.">
<polygon fill="white" stroke="black" points="857,-532.5 857,-553.5 995,-553.5 995,-532.5 857,-532.5"/>
<text text-anchor="middle" x="926" y="-540.5" font-family="FreeSans" font-size="10.00">hfa_dev_set_fnp_pptalloc</text>
</a>
</g>
<!-- Node21&#45;&gt;Node32 -->
<g id="edge62" class="edge"><title>Node21&#45;&gt;Node32</title>
<path fill="none" stroke="midnightblue" d="M778.267,-352.046C787.786,-355.001 797.231,-359.662 804,-367 852.247,-419.301 789.728,-472.643 840,-523 842.513,-525.517 845.277,-527.742 848.225,-529.708"/>
<polygon fill="midnightblue" stroke="midnightblue" points="846.532,-532.771 856.97,-534.586 849.942,-526.658 846.532,-532.771"/>
</g>
<!-- Node33 -->
<g id="node65" class="node"><title>Node33</title>
<a xlink:href="cvm-hfa_8c.html#a2cbca63c413f08d3861f9b4c2855391f" target="_top" xlink:title="API to set PP resource deallocator for temporary memory.">
<polygon fill="white" stroke="black" points="858.5,-492.5 858.5,-513.5 993.5,-513.5 993.5,-492.5 858.5,-492.5"/>
<text text-anchor="middle" x="926" y="-500.5" font-family="FreeSans" font-size="10.00">hfa_dev_set_fnp_pptfree</text>
</a>
</g>
<!-- Node21&#45;&gt;Node33 -->
<g id="edge64" class="edge"><title>Node21&#45;&gt;Node33</title>
<path fill="none" stroke="midnightblue" d="M778.246,-352.483C787.652,-355.445 797.044,-359.999 804,-367 842.047,-405.294 800.473,-446.236 840,-483 842.803,-485.607 845.877,-487.895 849.143,-489.903"/>
<polygon fill="midnightblue" stroke="midnightblue" points="847.692,-493.093 858.181,-494.586 850.912,-486.878 847.692,-493.093"/>
</g>
<!-- Node34 -->
<g id="node67" class="node"><title>Node34</title>
<a xlink:href="cvm-hfa_8c.html#af0b17e8a09b1f7a1dd438ddcb1e4cd14" target="_top" xlink:title="API to set temporary memory size function pointer.">
<polygon fill="white" stroke="black" points="858.5,-452.5 858.5,-473.5 993.5,-473.5 993.5,-452.5 858.5,-452.5"/>
<text text-anchor="middle" x="926" y="-460.5" font-family="FreeSans" font-size="10.00">hfa_dev_set_fnp_pptsize</text>
</a>
</g>
<!-- Node21&#45;&gt;Node34 -->
<g id="edge66" class="edge"><title>Node21&#45;&gt;Node34</title>
<path fill="none" stroke="midnightblue" d="M778.27,-353.366C787.461,-356.326 796.74,-360.659 804,-367 832.151,-391.586 810.902,-419.543 840,-443 842.916,-445.351 846.06,-447.435 849.36,-449.283"/>
<polygon fill="midnightblue" stroke="midnightblue" points="847.886,-452.457 858.415,-453.639 850.921,-446.149 847.886,-452.457"/>
</g>
<!-- Node40&#45;&gt;Node2 -->
<g id="edge80" class="edge"><title>Node40&#45;&gt;Node2</title>
<path fill="none" stroke="midnightblue" d="M792.306,-437.535C796.704,-440.053 800.719,-443.162 804,-447 872.951,-527.644 767.922,-605.138 840,-683 841.074,-684.16 842.201,-685.259 843.375,-686.3"/>
<polygon fill="midnightblue" stroke="midnightblue" points="841.59,-689.329 851.741,-692.362 845.697,-683.66 841.59,-689.329"/>
</g>
<!-- Node42 -->
<g id="node88" class="node"><title>Node42</title>
<a xlink:href="cvm-hfa-search_8c.html#a0ac0bca99358ad294a18f86696acf218" target="_top" xlink:title="This routine returns a match by parsing through the match buffer.">
<polygon fill="white" stroke="black" points="882,-652.5 882,-673.5 970,-673.5 970,-652.5 882,-652.5"/>
<text text-anchor="middle" x="926" y="-660.5" font-family="FreeSans" font-size="10.00">hfa_match_get</text>
</a>
</g>
<!-- Node41&#45;&gt;Node42 -->
<g id="edge92" class="edge"><title>Node41&#45;&gt;Node42</title>
<path fill="none" stroke="midnightblue" d="M803.117,-663C825.308,-663 850.124,-663 871.614,-663"/>
<polygon fill="midnightblue" stroke="midnightblue" points="871.87,-666.5 881.87,-663 871.87,-659.5 871.87,-666.5"/>
</g>
<!-- Node43 -->
<g id="node90" class="node"><title>Node43</title>
<a xlink:href="cvm-hfa-search_8c.html#a543990bc2a5e1726298e5053391e3bf5" target="_top" xlink:title="This routine cleans&#45;up the match&#45;buffers allocated by hfa_searchctx_getmatches().">
<polygon fill="white" stroke="black" points="864.5,-732.5 864.5,-753.5 987.5,-753.5 987.5,-732.5 864.5,-732.5"/>
<text text-anchor="middle" x="926" y="-740.5" font-family="FreeSans" font-size="10.00">hfa_matches_cleanup</text>
</a>
</g>
<!-- Node41&#45;&gt;Node43 -->
<g id="edge94" class="edge"><title>Node41&#45;&gt;Node43</title>
<path fill="none" stroke="midnightblue" d="M755.317,-673.697C773.908,-687.097 807.798,-709.888 840,-723 846.2,-725.525 852.788,-727.77 859.45,-729.758"/>
<polygon fill="midnightblue" stroke="midnightblue" points="858.655,-733.17 869.228,-732.488 860.538,-726.427 858.655,-733.17"/>
</g>
<!-- Node44 -->
<g id="node92" class="node"><title>Node44</title>
<a xlink:href="cvm-hfa-res_8c.html#a78813e2d747c1d659277b705ebdffc50" target="_top" xlink:title="Rfree">
<polygon fill="white" stroke="black" points="1094,-732.5 1094,-753.5 1136,-753.5 1136,-732.5 1094,-732.5"/>
<text text-anchor="middle" x="1115" y="-740.5" font-family="FreeSans" font-size="10.00">Rfree</text>
</a>
</g>
<!-- Node43&#45;&gt;Node44 -->
<g id="edge96" class="edge"><title>Node43&#45;&gt;Node44</title>
<path fill="none" stroke="midnightblue" d="M987.624,-743C1019.81,-743 1057.82,-743 1083.89,-743"/>
<polygon fill="midnightblue" stroke="midnightblue" points="1083.93,-746.5 1093.93,-743 1083.93,-739.5 1083.93,-746.5"/>
</g>
<!-- Node49 -->
<g id="node102" class="node"><title>Node49</title>
<a xlink:href="cvm-hfa-res_8c.html#a70c9e55ba1fcb934f74ad71ddca9d08f" target="_top" xlink:title="Radd">
<polygon fill="white" stroke="black" points="594.5,-296.5 594.5,-317.5 635.5,-317.5 635.5,-296.5 594.5,-296.5"/>
<text text-anchor="middle" x="615" y="-304.5" font-family="FreeSans" font-size="10.00">Radd</text>
</a>
</g>
<!-- Node48&#45;&gt;Node49 -->
<g id="edge106" class="edge"><title>Node48&#45;&gt;Node49</title>
<path fill="none" stroke="midnightblue" d="M550.662,-307C561.229,-307 573.245,-307 584.009,-307"/>
<polygon fill="midnightblue" stroke="midnightblue" points="584.256,-310.5 594.256,-307 584.256,-303.5 584.256,-310.5"/>
</g>
</g>
</svg>
