<?xml version="1.0" encoding="UTF-8" standalone="no"?>
<!DOCTYPE svg PUBLIC "-//W3C//DTD SVG 1.1//EN"
 "http://www.w3.org/Graphics/SVG/1.1/DTD/svg11.dtd">
<!-- Generated by graphviz version 2.24.0 (20090616.2323)
 -->
<!-- Title: cluster_cleanup Pages: 1 -->
<svg width="266pt" height="30pt"
 viewBox="0.00 0.00 266.00 30.00" xmlns="http://www.w3.org/2000/svg" xmlns:xlink="http://www.w3.org/1999/xlink">
<g id="graph1" class="graph" transform="scale(1 1) rotate(0) translate(4 26)">
<title>cluster_cleanup</title>
<polygon fill="white" stroke="white" points="-4,5 -4,-26 263,-26 263,5 -4,5"/>
<!-- Node1 -->
<g id="node1" class="node"><title>Node1</title>
<polygon fill="#bfbfbf" stroke="black" points="0,-0.5 0,-21.5 92,-21.5 92,-0.5 0,-0.5"/>
<text text-anchor="middle" x="46" y="-8.5" font-family="FreeSans" font-size="10.00">cluster_cleanup</text>
</g>
<!-- Node2 -->
<g id="node3" class="node"><title>Node2</title>
<a xlink:href="hfa-se-async_8c.html#acd9e54f020b77f14d54c200b65423a15" target="_top" xlink:title="Application cleanup will be done by this routine.">
<polygon fill="white" stroke="black" points="128,-0.5 128,-21.5 182,-21.5 182,-0.5 128,-0.5"/>
<text text-anchor="middle" x="155" y="-8.5" font-family="FreeSans" font-size="10.00">cleanup</text>
</a>
</g>
<!-- Node1&#45;&gt;Node2 -->
<g id="edge2" class="edge"><title>Node1&#45;&gt;Node2</title>
<path fill="none" stroke="midnightblue" d="M102.297,-11C111.238,-11 120.114,-11 127.962,-11"/>
<polygon fill="midnightblue" stroke="midnightblue" points="102.226,-7.5001 92.2258,-11 102.226,-14.5001 102.226,-7.5001"/>
</g>
<!-- Node3 -->
<g id="node5" class="node"><title>Node3</title>
<a xlink:href="hfa-se-async_8c.html#a3c04138a5bfe5d72780bb7e82a18e627" target="_top" xlink:title="main">
<polygon fill="white" stroke="black" points="218,-0.5 218,-21.5 258,-21.5 258,-0.5 218,-0.5"/>
<text text-anchor="middle" x="238" y="-8.5" font-family="FreeSans" font-size="10.00">main</text>
</a>
</g>
<!-- Node2&#45;&gt;Node3 -->
<g id="edge4" class="edge"><title>Node2&#45;&gt;Node3</title>
<path fill="none" stroke="midnightblue" d="M192.3,-11C201.105,-11 210.164,-11 217.872,-11"/>
<polygon fill="midnightblue" stroke="midnightblue" points="192.177,-7.5001 182.177,-11 192.177,-14.5001 192.177,-7.5001"/>
</g>
</g>
</svg>
