<?xml version="1.0" encoding="UTF-8" standalone="no"?>
<!DOCTYPE svg PUBLIC "-//W3C//DTD SVG 1.1//EN"
 "http://www.w3.org/Graphics/SVG/1.1/DTD/svg11.dtd">
<!-- Generated by graphviz version 2.24.0 (20090616.2323)
 -->
<!-- Title: freepktwqe Pages: 1 -->
<svg width="298pt" height="90pt"
 viewBox="0.00 0.00 298.00 90.00" xmlns="http://www.w3.org/2000/svg" xmlns:xlink="http://www.w3.org/1999/xlink">
<g id="graph1" class="graph" transform="scale(1 1) rotate(0) translate(4 86)">
<title>freepktwqe</title>
<polygon fill="white" stroke="white" points="-4,5 -4,-86 295,-86 295,5 -4,5"/>
<!-- Node1 -->
<g id="node1" class="node"><title>Node1</title>
<polygon fill="#bfbfbf" stroke="black" points="0,-40.5 0,-61.5 70,-61.5 70,-40.5 0,-40.5"/>
<text text-anchor="middle" x="35" y="-48.5" font-family="FreeSans" font-size="10.00">freepktwqe</text>
</g>
<!-- Node2 -->
<g id="node3" class="node"><title>Node2</title>
<a xlink:href="hfa-lnx-ctx_8c.html#acb147b6c8f12833e34cb9fe31a96db11" target="_top" xlink:title="send">
<polygon fill="white" stroke="black" points="123.5,-60.5 123.5,-81.5 162.5,-81.5 162.5,-60.5 123.5,-60.5"/>
<text text-anchor="middle" x="143" y="-68.5" font-family="FreeSans" font-size="10.00">send</text>
</a>
</g>
<!-- Node1&#45;&gt;Node2 -->
<g id="edge2" class="edge"><title>Node1&#45;&gt;Node2</title>
<path fill="none" stroke="midnightblue" d="M80.2389,-59.3776C95.2341,-62.1545 111.155,-65.1028 123.21,-67.3351"/>
<polygon fill="midnightblue" stroke="midnightblue" points="80.5347,-55.8729 70.0645,-57.4934 79.26,-62.7559 80.5347,-55.8729"/>
</g>
<!-- Node3 -->
<g id="node5" class="node"><title>Node3</title>
<a xlink:href="hfa-lnx-ctx_8c.html#a07eb255c008c854386962d955ebe636e" target="_top" xlink:title="sendpktwqe">
<polygon fill="white" stroke="black" points="106,-20.5 106,-41.5 180,-41.5 180,-20.5 106,-20.5"/>
<text text-anchor="middle" x="143" y="-28.5" font-family="FreeSans" font-size="10.00">sendpktwqe</text>
</a>
</g>
<!-- Node1&#45;&gt;Node3 -->
<g id="edge4" class="edge"><title>Node1&#45;&gt;Node3</title>
<path fill="none" stroke="midnightblue" d="M79.9849,-42.6695C88.6057,-41.073 97.5419,-39.4182 105.881,-37.8739"/>
<polygon fill="midnightblue" stroke="midnightblue" points="79.26,-39.2441 70.0645,-44.5066 80.5347,-46.1271 79.26,-39.2441"/>
</g>
<!-- Node4 -->
<g id="node7" class="node"><title>Node4</title>
<a xlink:href="hfa-lnx-ctx_8c.html#a064576c58038a1afa64cf8cb45271bf4" target="_top" xlink:title="freeparam">
<polygon fill="white" stroke="black" points="219.5,-40.5 219.5,-61.5 286.5,-61.5 286.5,-40.5 219.5,-40.5"/>
<text text-anchor="middle" x="253" y="-48.5" font-family="FreeSans" font-size="10.00">freeparam</text>
</a>
</g>
<!-- Node3&#45;&gt;Node4 -->
<g id="edge6" class="edge"><title>Node3&#45;&gt;Node4</title>
<path fill="none" stroke="midnightblue" d="M190.304,-39.6007C200.128,-41.387 210.287,-43.234 219.492,-44.9077"/>
<polygon fill="midnightblue" stroke="midnightblue" points="190.706,-36.1165 180.241,-37.7711 189.454,-43.0036 190.706,-36.1165"/>
</g>
<!-- Node5 -->
<g id="node9" class="node"><title>Node5</title>
<a xlink:href="hfa-lnx-ctx_8c.html#a97df0ba8293c1b8436547946fd9d0d17" target="_top" xlink:title="process_pkt">
<polygon fill="white" stroke="black" points="216,-0.5 216,-21.5 290,-21.5 290,-0.5 216,-0.5"/>
<text text-anchor="middle" x="253" y="-8.5" font-family="FreeSans" font-size="10.00">process_pkt</text>
</a>
</g>
<!-- Node3&#45;&gt;Node5 -->
<g id="edge8" class="edge"><title>Node3&#45;&gt;Node5</title>
<path fill="none" stroke="midnightblue" d="M190.14,-22.4291C198.718,-20.8695 207.556,-19.2625 215.797,-17.7641"/>
<polygon fill="midnightblue" stroke="midnightblue" points="189.454,-18.9964 180.241,-24.2289 190.706,-25.8835 189.454,-18.9964"/>
</g>
</g>
</svg>
