<?xml version="1.0" encoding="UTF-8" standalone="no"?>
<!DOCTYPE svg PUBLIC "-//W3C//DTD SVG 1.1//EN"
 "http://www.w3.org/Graphics/SVG/1.1/DTD/svg11.dtd">
<!-- Generated by graphviz version 2.24.0 (20090616.2323)
 -->
<!-- Title: main Pages: 1 -->
<svg width="404pt" height="1562pt"
 viewBox="0.00 0.00 404.00 1562.00" xmlns="http://www.w3.org/2000/svg" xmlns:xlink="http://www.w3.org/1999/xlink">
<g id="graph1" class="graph" transform="scale(1 1) rotate(0) translate(4 1558)">
<title>main</title>
<polygon fill="white" stroke="white" points="-4,5 -4,-1558 401,-1558 401,5 -4,5"/>
<!-- Node1 -->
<g id="node1" class="node"><title>Node1</title>
<polygon fill="#bfbfbf" stroke="black" points="0,-396.5 0,-417.5 40,-417.5 40,-396.5 0,-396.5"/>
<text text-anchor="middle" x="20" y="-404.5" font-family="FreeSans" font-size="10.00">main</text>
</g>
<!-- Node2 -->
<g id="node3" class="node"><title>Node2</title>
<a xlink:href="hfa-se-flow_8c.html#ab42726e951c529a41b8e09fd6e84ada2" target="_top" xlink:title="Process command line options and read graph.">
<polygon fill="white" stroke="black" points="88,-1472.5 88,-1493.5 182,-1493.5 182,-1472.5 88,-1472.5"/>
<text text-anchor="middle" x="135" y="-1480.5" font-family="FreeSans" font-size="10.00">process_options</text>
</a>
</g>
<!-- Node1&#45;&gt;Node2 -->
<g id="edge2" class="edge"><title>Node1&#45;&gt;Node2</title>
<path fill="none" stroke="midnightblue" d="M20.3346,-417.635C23.4891,-516.741 48.4948,-1277.25 76,-1374 85.6364,-1407.9 107.088,-1443.03 121.295,-1463.95"/>
<polygon fill="midnightblue" stroke="midnightblue" points="118.484,-1466.04 127.065,-1472.25 124.232,-1462.04 118.484,-1466.04"/>
</g>
<!-- Node6 -->
<g id="node11" class="node"><title>Node6</title>
<a xlink:href="hfa-se-flow_8c.html#ac9d76c71e91aeadf1fe1863b4fbfa134" target="_top" xlink:title="Initialize the interfaces to receive network traffic.">
<polygon fill="white" stroke="black" points="93.5,-1343.5 93.5,-1364.5 176.5,-1364.5 176.5,-1343.5 93.5,-1343.5"/>
<text text-anchor="middle" x="135" y="-1351.5" font-family="FreeSans" font-size="10.00">init_interfaces</text>
</a>
</g>
<!-- Node1&#45;&gt;Node6 -->
<g id="edge10" class="edge"><title>Node1&#45;&gt;Node6</title>
<path fill="none" stroke="midnightblue" d="M20.9345,-417.756C25.8276,-473.659 49.2905,-736.661 76,-951 94.3184,-1098 122.167,-1274.29 131.68,-1333.49"/>
<polygon fill="midnightblue" stroke="midnightblue" points="128.237,-1334.12 133.284,-1343.44 135.148,-1333.01 128.237,-1334.12"/>
</g>
<!-- Node10 -->
<g id="node19" class="node"><title>Node10</title>
<a xlink:href="cvm-hfa_8c.html#a873768042b716d60996ec5d858fc8fd9" target="_top" xlink:title="This function must be called by application to initialize HFA engine and setup resources for HFA hard...">
<polygon fill="white" stroke="black" points="98,-920.5 98,-941.5 172,-941.5 172,-920.5 98,-920.5"/>
<text text-anchor="middle" x="135" y="-928.5" font-family="FreeSans" font-size="10.00">hfa_dev_init</text>
</a>
</g>
<!-- Node1&#45;&gt;Node10 -->
<g id="edge18" class="edge"><title>Node1&#45;&gt;Node10</title>
<path fill="none" stroke="midnightblue" d="M22.4019,-417.944C36.7543,-483.341 111.205,-822.578 130.453,-910.284"/>
<polygon fill="midnightblue" stroke="midnightblue" points="127.049,-911.098 132.611,-920.116 133.886,-909.598 127.049,-911.098"/>
</g>
<!-- Node29 -->
<g id="node57" class="node"><title>Node29</title>
<a xlink:href="hfa-se-flow_8c.html#a546f3769e735d4bef0bfab1cba56921c" target="_top" xlink:title="Load graph to HFA memory and cache.">
<polygon fill="white" stroke="black" points="100.5,-466.5 100.5,-487.5 169.5,-487.5 169.5,-466.5 100.5,-466.5"/>
<text text-anchor="middle" x="135" y="-474.5" font-family="FreeSans" font-size="10.00">graph_load</text>
</a>
</g>
<!-- Node1&#45;&gt;Node29 -->
<g id="edge56" class="edge"><title>Node1&#45;&gt;Node29</title>
<path fill="none" stroke="midnightblue" d="M32.3145,-417.765C43.2892,-427.032 60.0386,-440.389 76,-450 83.2723,-454.379 91.3757,-458.52 99.1908,-462.183"/>
<polygon fill="midnightblue" stroke="midnightblue" points="97.9516,-465.464 108.505,-466.398 100.838,-459.086 97.9516,-465.464"/>
</g>
<!-- Node35 -->
<g id="node69" class="node"><title>Node35</title>
<a xlink:href="cvm-hfa_8c.html#a889a27e88a8ec2d15634a89f8dbe5613" target="_top" xlink:title="Create FPA pools for HFA This is a utility routine which applications can use to intialize an FPA poo...">
<polygon fill="white" stroke="black" points="78,-327.5 78,-348.5 192,-348.5 192,-327.5 78,-327.5"/>
<text text-anchor="middle" x="135" y="-335.5" font-family="FreeSans" font-size="10.00">hfa_create_fpa_pool</text>
</a>
</g>
<!-- Node1&#45;&gt;Node35 -->
<g id="edge68" class="edge"><title>Node1&#45;&gt;Node35</title>
<path fill="none" stroke="midnightblue" d="M29.772,-396.259C40.2588,-385.296 57.8677,-368.45 76,-358 79.4847,-355.992 83.2021,-354.145 87.0108,-352.455"/>
<polygon fill="midnightblue" stroke="midnightblue" points="88.633,-355.574 96.5865,-348.575 86.0041,-349.086 88.633,-355.574"/>
</g>
<!-- Node39 -->
<g id="node77" class="node"><title>Node39</title>
<a xlink:href="flow_8h.html#a36716f17966e20bc773f13b5a164705d" target="_top" xlink:title="Initialize performance counters.">
<polygon fill="white" stroke="black" points="88,-367 88,-401 182,-401 182,-367 88,-367"/>
<text text-anchor="start" x="96" y="-388" font-family="FreeSans" font-size="10.00">hfautils_init_perf</text>
<text text-anchor="middle" x="135" y="-375" font-family="FreeSans" font-size="10.00">_cntrs</text>
</a>
</g>
<!-- Node1&#45;&gt;Node39 -->
<g id="edge76" class="edge"><title>Node1&#45;&gt;Node39</title>
<path fill="none" stroke="midnightblue" d="M40.0315,-402.994C50.6988,-400.86 64.4136,-398.117 78.0842,-395.383"/>
<polygon fill="midnightblue" stroke="midnightblue" points="78.8673,-398.796 87.9866,-393.403 77.4944,-391.932 78.8673,-398.796"/>
</g>
<!-- Node40 -->
<g id="node79" class="node"><title>Node40</title>
<a xlink:href="flow_8c.html#a677d35171cfe4dd2bdb327fa50b54e5f" target="_top" xlink:title="Initially a Array is created with maxflow indexes.Each index holds Linked List head.">
<polygon fill="white" stroke="black" points="89,-287.5 89,-308.5 181,-308.5 181,-287.5 89,-287.5"/>
<text text-anchor="middle" x="135" y="-295.5" font-family="FreeSans" font-size="10.00">hfaf_flowdb_init</text>
</a>
</g>
<!-- Node1&#45;&gt;Node40 -->
<g id="edge78" class="edge"><title>Node1&#45;&gt;Node40</title>
<path fill="none" stroke="midnightblue" d="M23.9335,-396.294C31.2983,-377.697 48.9129,-339.372 76,-318 78.2687,-316.21 80.7065,-314.576 83.2534,-313.084"/>
<polygon fill="midnightblue" stroke="midnightblue" points="84.8963,-316.176 92.2459,-308.545 81.7417,-309.927 84.8963,-316.176"/>
</g>
<!-- Node42 -->
<g id="node83" class="node"><title>Node42</title>
<a xlink:href="hfa-se-flow_8c.html#aba72a61590283e37ffd78b4defd38220" target="_top" xlink:title="Receive network packets and process.">
<polygon fill="white" stroke="red" points="87,-120.5 87,-141.5 183,-141.5 183,-120.5 87,-120.5"/>
<text text-anchor="middle" x="135" y="-128.5" font-family="FreeSans" font-size="10.00">process_packets</text>
</a>
</g>
<!-- Node1&#45;&gt;Node42 -->
<g id="edge82" class="edge"><title>Node1&#45;&gt;Node42</title>
<path fill="none" stroke="midnightblue" d="M22.7613,-396.464C29.9814,-369.506 50.6296,-296.063 76,-238 89.921,-206.14 110.2,-171.217 122.99,-150.212"/>
<polygon fill="midnightblue" stroke="midnightblue" points="126.029,-151.952 128.29,-141.602 120.068,-148.283 126.029,-151.952"/>
</g>
<!-- Node49 -->
<g id="node97" class="node"><title>Node49</title>
<a xlink:href="flow_8c.html#a0e9bd00f1a2d420e5d505f24a7468944" target="_top" xlink:title="Cleanups Flow database which was created in hfaf_flowdb_init()">
<polygon fill="white" stroke="red" points="76.5,-247.5 76.5,-268.5 193.5,-268.5 193.5,-247.5 76.5,-247.5"/>
<text text-anchor="middle" x="135" y="-255.5" font-family="FreeSans" font-size="10.00">hfaf_flowdb_cleanup</text>
</a>
</g>
<!-- Node1&#45;&gt;Node49 -->
<g id="edge96" class="edge"><title>Node1&#45;&gt;Node49</title>
<path fill="none" stroke="midnightblue" d="M21.6441,-396.298C25.9633,-371.806 39.8939,-311.236 76,-278 77.681,-276.453 79.4864,-275.024 81.3841,-273.706"/>
<polygon fill="midnightblue" stroke="midnightblue" points="83.2967,-276.643 90.1968,-268.603 79.789,-270.585 83.2967,-276.643"/>
</g>
<!-- Node50 -->
<g id="node99" class="node"><title>Node50</title>
<a xlink:href="hfa-se-flow_8c.html#acd9e54f020b77f14d54c200b65423a15" target="_top" xlink:title="Signal handler to handle CTRL&#45;C (SIGINT).">
<polygon fill="white" stroke="red" points="108,-419.5 108,-440.5 162,-440.5 162,-419.5 108,-419.5"/>
<text text-anchor="middle" x="135" y="-427.5" font-family="FreeSans" font-size="10.00">cleanup</text>
</a>
</g>
<!-- Node1&#45;&gt;Node50 -->
<g id="edge98" class="edge"><title>Node1&#45;&gt;Node50</title>
<path fill="none" stroke="midnightblue" d="M40.0315,-411.006C55.9596,-414.192 78.682,-418.736 97.9071,-422.581"/>
<polygon fill="midnightblue" stroke="midnightblue" points="97.3818,-426.046 107.874,-424.575 98.7547,-419.182 97.3818,-426.046"/>
</g>
<!-- Node3 -->
<g id="node5" class="node"><title>Node3</title>
<a xlink:href="app-utils_8c.html#a312f3a19b49c759fe09b5bee727b879b" target="_top" xlink:title="Initialize command line arguments.">
<polygon fill="white" stroke="black" points="258.5,-1532.5 258.5,-1553.5 367.5,-1553.5 367.5,-1532.5 258.5,-1532.5"/>
<text text-anchor="middle" x="313" y="-1540.5" font-family="FreeSans" font-size="10.00">hfautils_options_init</text>
</a>
</g>
<!-- Node2&#45;&gt;Node3 -->
<g id="edge4" class="edge"><title>Node2&#45;&gt;Node3</title>
<path fill="none" stroke="midnightblue" d="M157.258,-1493.58C176.266,-1502.33 204.498,-1514.62 230,-1523 237.608,-1525.5 245.702,-1527.84 253.738,-1529.97"/>
<polygon fill="midnightblue" stroke="midnightblue" points="252.919,-1533.37 263.475,-1532.46 254.655,-1526.59 252.919,-1533.37"/>
</g>
<!-- Node4 -->
<g id="node7" class="node"><title>Node4</title>
<a xlink:href="app-utils_8c.html#ae04c31b3e2ff1468333729059052375c" target="_top" xlink:title="Parse command line arguments.">
<polygon fill="white" stroke="red" points="243,-1492.5 243,-1513.5 383,-1513.5 383,-1492.5 243,-1492.5"/>
<text text-anchor="middle" x="313" y="-1500.5" font-family="FreeSans" font-size="10.00">hfautils_parse_arguments</text>
</a>
</g>
<!-- Node2&#45;&gt;Node4 -->
<g id="edge6" class="edge"><title>Node2&#45;&gt;Node4</title>
<path fill="none" stroke="midnightblue" d="M182.233,-1488.31C197.731,-1490.05 215.414,-1492.04 232.658,-1493.97"/>
<polygon fill="midnightblue" stroke="midnightblue" points="232.413,-1497.47 242.742,-1495.11 233.195,-1490.51 232.413,-1497.47"/>
</g>
<!-- Node5 -->
<g id="node9" class="node"><title>Node5</title>
<a xlink:href="app-utils_8c.html#a12339c67618c4b3a54c32f43d378c273" target="_top" xlink:title="Read data from a file to a buffer(compressed or uncompressed).">
<polygon fill="white" stroke="red" points="264.5,-1452.5 264.5,-1473.5 361.5,-1473.5 361.5,-1452.5 264.5,-1452.5"/>
<text text-anchor="middle" x="313" y="-1460.5" font-family="FreeSans" font-size="10.00">hfautils_read_file</text>
</a>
</g>
<!-- Node2&#45;&gt;Node5 -->
<g id="edge8" class="edge"><title>Node2&#45;&gt;Node5</title>
<path fill="none" stroke="midnightblue" d="M182.233,-1477.69C204.304,-1475.21 230.807,-1472.24 254.165,-1469.61"/>
<polygon fill="midnightblue" stroke="midnightblue" points="254.757,-1473.07 264.304,-1468.47 253.975,-1466.11 254.757,-1473.07"/>
</g>
<!-- Node7 -->
<g id="node13" class="node"><title>Node7</title>
<a xlink:href="cvm-hfa_8c.html#a4444cdb0e19b7ae88684b6e41c12a303" target="_top" xlink:title="This API allows application to control FPA pool counts at Runtime This API is for non&#45;kernel mode and...">
<polygon fill="white" stroke="black" points="254,-1412.5 254,-1433.5 372,-1433.5 372,-1412.5 254,-1412.5"/>
<text text-anchor="middle" x="313" y="-1420.5" font-family="FreeSans" font-size="10.00">hfa_set_fpapools_cnt</text>
</a>
</g>
<!-- Node6&#45;&gt;Node7 -->
<g id="edge12" class="edge"><title>Node6&#45;&gt;Node7</title>
<path fill="none" stroke="midnightblue" d="M152.279,-1364.52C170.889,-1375.47 201.651,-1392.45 230,-1403 236.685,-1405.49 243.79,-1407.75 250.92,-1409.78"/>
<polygon fill="midnightblue" stroke="midnightblue" points="250.056,-1413.17 260.623,-1412.4 251.883,-1406.41 250.056,-1413.17"/>
</g>
<!-- Node8 -->
<g id="node15" class="node"><title>Node8</title>
<a xlink:href="app-utils_8c.html#aefd985776fb6437d808b08aedd91e709" target="_top" xlink:title="Initialize WQE, IBUF and PKO fpa pools.">
<polygon fill="white" stroke="black" points="266,-1360 266,-1394 360,-1394 360,-1360 266,-1360"/>
<text text-anchor="start" x="274" y="-1381" font-family="FreeSans" font-size="10.00">hfautils_initialize</text>
<text text-anchor="middle" x="313" y="-1368" font-family="FreeSans" font-size="10.00">_wqepool</text>
</a>
</g>
<!-- Node6&#45;&gt;Node8 -->
<g id="edge14" class="edge"><title>Node6&#45;&gt;Node8</title>
<path fill="none" stroke="midnightblue" d="M176.733,-1359.39C200.319,-1362.44 230.144,-1366.29 255.874,-1369.62"/>
<polygon fill="midnightblue" stroke="midnightblue" points="255.513,-1373.1 265.88,-1370.91 256.411,-1366.16 255.513,-1373.1"/>
</g>
<!-- Node9 -->
<g id="node17" class="node"><title>Node9</title>
<a xlink:href="app-utils_8c.html#af0e2ef99a9a91fdd489c8217ec681b41" target="_top" xlink:title="Initialize the interfaces to receive network traffic.">
<polygon fill="white" stroke="black" points="254.5,-1320.5 254.5,-1341.5 371.5,-1341.5 371.5,-1320.5 254.5,-1320.5"/>
<text text-anchor="middle" x="313" y="-1328.5" font-family="FreeSans" font-size="10.00">hfautils_initinterfaces</text>
</a>
</g>
<!-- Node6&#45;&gt;Node9 -->
<g id="edge16" class="edge"><title>Node6&#45;&gt;Node9</title>
<path fill="none" stroke="midnightblue" d="M176.733,-1348.61C196.873,-1346.01 221.562,-1342.82 244.366,-1339.87"/>
<polygon fill="midnightblue" stroke="midnightblue" points="244.876,-1343.33 254.345,-1338.58 243.979,-1336.39 244.876,-1343.33"/>
</g>
<!-- Node11 -->
<g id="node21" class="node"><title>Node11</title>
<a xlink:href="cvm-hfa-stats_8c.html#a2fcf955b47370bfa46705ee5a23a70cf" target="_top" xlink:title="This routine allocates memory for counters to maintain statistics of each processing core...">
<polygon fill="white" stroke="red" points="262,-1160.5 262,-1181.5 364,-1181.5 364,-1160.5 262,-1160.5"/>
<text text-anchor="middle" x="313" y="-1168.5" font-family="FreeSans" font-size="10.00">hfa_dev_stats_init</text>
</a>
</g>
<!-- Node10&#45;&gt;Node11 -->
<g id="edge20" class="edge"><title>Node10&#45;&gt;Node11</title>
<path fill="none" stroke="midnightblue" d="M136.265,-941.688C141.076,-977.372 161.576,-1093.39 230,-1151 236.438,-1156.42 244.104,-1160.42 252.135,-1163.36"/>
<polygon fill="midnightblue" stroke="midnightblue" points="251.091,-1166.7 261.68,-1166.35 253.184,-1160.02 251.091,-1166.7"/>
</g>
<!-- Node12 -->
<g id="node23" class="node"><title>Node12</title>
<a xlink:href="cvm-hfa_8c.html#a27982497398da2118cd5287ed51732e7" target="_top" xlink:title="Provides device&#45;specific information This is a utility routine used to obtain HFA device&#45;specific det...">
<polygon fill="white" stroke="black" points="257.5,-1120.5 257.5,-1141.5 368.5,-1141.5 368.5,-1120.5 257.5,-1120.5"/>
<text text-anchor="middle" x="313" y="-1128.5" font-family="FreeSans" font-size="10.00">hfa_dev_getdevinfo</text>
</a>
</g>
<!-- Node10&#45;&gt;Node12 -->
<g id="edge22" class="edge"><title>Node10&#45;&gt;Node12</title>
<path fill="none" stroke="midnightblue" d="M137.425,-941.935C145.02,-973.509 171.416,-1065.46 230,-1111 235.346,-1115.16 241.428,-1118.47 247.812,-1121.1"/>
<polygon fill="midnightblue" stroke="midnightblue" points="246.737,-1124.43 257.332,-1124.49 249.088,-1117.84 246.737,-1124.43"/>
</g>
<!-- Node13 -->
<g id="node25" class="node"><title>Node13</title>
<a xlink:href="pp_8h.html#a6f5982b2671e9682262a26b0d2996396" target="_top" xlink:title="Constructs a readable version string for the PP library.">
<polygon fill="white" stroke="black" points="253,-1080.5 253,-1101.5 373,-1101.5 373,-1080.5 253,-1080.5"/>
<text text-anchor="middle" x="313" y="-1088.5" font-family="FreeSans" font-size="10.00">pp_get_version_string</text>
</a>
</g>
<!-- Node10&#45;&gt;Node13 -->
<g id="edge24" class="edge"><title>Node10&#45;&gt;Node13</title>
<path fill="none" stroke="midnightblue" d="M139.068,-941.761C149.659,-968.243 180.733,-1036.89 230,-1071 234.052,-1073.81 238.452,-1076.22 243.04,-1078.3"/>
<polygon fill="midnightblue" stroke="midnightblue" points="242.087,-1081.68 252.674,-1082.1 244.66,-1075.17 242.087,-1081.68"/>
</g>
<!-- Node14 -->
<g id="node27" class="node"><title>Node14</title>
<a xlink:href="cvm-hfa_8c.html#afd1d53fe8a402d4c5799e6e98c67baaa" target="_top" xlink:title="Displays HFA Device info.">
<polygon fill="white" stroke="red" points="254.5,-1040.5 254.5,-1061.5 371.5,-1061.5 371.5,-1040.5 254.5,-1040.5"/>
<text text-anchor="middle" x="313" y="-1048.5" font-family="FreeSans" font-size="10.00">hfa_dev_display_info</text>
</a>
</g>
<!-- Node10&#45;&gt;Node14 -->
<g id="edge26" class="edge"><title>Node10&#45;&gt;Node14</title>
<path fill="none" stroke="midnightblue" d="M141.939,-941.667C155.958,-962.318 189.771,-1007.77 230,-1031 234.536,-1033.62 239.402,-1035.9 244.42,-1037.88"/>
<polygon fill="midnightblue" stroke="midnightblue" points="243.616,-1041.31 254.211,-1041.33 245.944,-1034.7 243.616,-1041.31"/>
</g>
<!-- Node15 -->
<g id="node29" class="node"><title>Node15</title>
<a xlink:href="cvm-hfa_8c.html#a236e64ca73680ea6761204d5c44d4e96" target="_top" xlink:title="API to set PP resource allocator for partial matches.">
<polygon fill="white" stroke="black" points="245.5,-1000.5 245.5,-1021.5 380.5,-1021.5 380.5,-1000.5 245.5,-1000.5"/>
<text text-anchor="middle" x="313" y="-1008.5" font-family="FreeSans" font-size="10.00">hfa_dev_set_fnp_ppalloc</text>
</a>
</g>
<!-- Node10&#45;&gt;Node15 -->
<g id="edge28" class="edge"><title>Node10&#45;&gt;Node15</title>
<path fill="none" stroke="midnightblue" d="M148.68,-941.688C166.459,-955.08 198.915,-977.862 230,-991 235.824,-993.461 242.011,-995.658 248.279,-997.609"/>
<polygon fill="midnightblue" stroke="midnightblue" points="247.576,-1001.05 258.155,-1000.48 249.528,-994.327 247.576,-1001.05"/>
</g>
<!-- Node16 -->
<g id="node31" class="node"><title>Node16</title>
<a xlink:href="cvm-hfa_8c.html#ab547f175726534d6a0a334eb35af4980" target="_top" xlink:title="Default function pointer for PP allocations.">
<polygon fill="white" stroke="black" points="253,-960.5 253,-981.5 373,-981.5 373,-960.5 253,-960.5"/>
<text text-anchor="middle" x="313" y="-968.5" font-family="FreeSans" font-size="10.00">hfa_defaultfn_ppalloc</text>
</a>
</g>
<!-- Node10&#45;&gt;Node16 -->
<g id="edge30" class="edge"><title>Node10&#45;&gt;Node16</title>
<path fill="none" stroke="midnightblue" d="M172.315,-939.385C196.647,-944.853 228.868,-952.094 256.334,-958.266"/>
<polygon fill="midnightblue" stroke="midnightblue" points="255.69,-961.709 266.214,-960.486 257.225,-954.879 255.69,-961.709"/>
</g>
<!-- Node17 -->
<g id="node33" class="node"><title>Node17</title>
<a xlink:href="cvm-hfa_8c.html#a148abbfdeebb207ff46884af8eeb8fa4" target="_top" xlink:title="API to set PP resource deallocator for partial matches.">
<polygon fill="white" stroke="black" points="247,-920.5 247,-941.5 379,-941.5 379,-920.5 247,-920.5"/>
<text text-anchor="middle" x="313" y="-928.5" font-family="FreeSans" font-size="10.00">hfa_dev_set_fnp_ppfree</text>
</a>
</g>
<!-- Node10&#45;&gt;Node17 -->
<g id="edge32" class="edge"><title>Node10&#45;&gt;Node17</title>
<path fill="none" stroke="midnightblue" d="M172.315,-931C191.056,-931 214.478,-931 236.802,-931"/>
<polygon fill="midnightblue" stroke="midnightblue" points="236.961,-934.5 246.96,-931 236.96,-927.5 236.961,-934.5"/>
</g>
<!-- Node18 -->
<g id="node35" class="node"><title>Node18</title>
<a xlink:href="cvm-hfa_8c.html#a832239ee7b188265bdacbbfb7e879af1" target="_top" xlink:title="Default function pointer for PP deallocations.">
<polygon fill="white" stroke="black" points="254.5,-880.5 254.5,-901.5 371.5,-901.5 371.5,-880.5 254.5,-880.5"/>
<text text-anchor="middle" x="313" y="-888.5" font-family="FreeSans" font-size="10.00">hfa_defaultfn_ppfree</text>
</a>
</g>
<!-- Node10&#45;&gt;Node18 -->
<g id="edge34" class="edge"><title>Node10&#45;&gt;Node18</title>
<path fill="none" stroke="midnightblue" d="M172.315,-922.615C196.647,-917.147 228.868,-909.906 256.334,-903.734"/>
<polygon fill="midnightblue" stroke="midnightblue" points="257.225,-907.121 266.214,-901.514 255.69,-900.291 257.225,-907.121"/>
</g>
<!-- Node19 -->
<g id="node37" class="node"><title>Node19</title>
<a xlink:href="cvm-hfa_8c.html#a774451b83b300f862763d189c9758e1f" target="_top" xlink:title="API to set PP buffer size function pointer.">
<polygon fill="white" stroke="black" points="247,-840.5 247,-861.5 379,-861.5 379,-840.5 247,-840.5"/>
<text text-anchor="middle" x="313" y="-848.5" font-family="FreeSans" font-size="10.00">hfa_dev_set_fnp_ppsize</text>
</a>
</g>
<!-- Node10&#45;&gt;Node19 -->
<g id="edge36" class="edge"><title>Node10&#45;&gt;Node19</title>
<path fill="none" stroke="midnightblue" d="M148.68,-920.312C166.459,-906.92 198.915,-884.138 230,-871 235.824,-868.539 242.011,-866.342 248.279,-864.391"/>
<polygon fill="midnightblue" stroke="midnightblue" points="249.528,-867.673 258.155,-861.523 247.576,-860.95 249.528,-867.673"/>
</g>
<!-- Node20 -->
<g id="node39" class="node"><title>Node20</title>
<a xlink:href="cvm-hfa_8c.html#a11aab8e30488e4cfc900f60a0dabc784" target="_top" xlink:title="Default function pointer for PP size.">
<polygon fill="white" stroke="black" points="254.5,-800.5 254.5,-821.5 371.5,-821.5 371.5,-800.5 254.5,-800.5"/>
<text text-anchor="middle" x="313" y="-808.5" font-family="FreeSans" font-size="10.00">hfa_defaultfn_ppsize</text>
</a>
</g>
<!-- Node10&#45;&gt;Node20 -->
<g id="edge38" class="edge"><title>Node10&#45;&gt;Node20</title>
<path fill="none" stroke="midnightblue" d="M141.939,-920.333C155.958,-899.682 189.771,-854.234 230,-831 234.536,-828.38 239.402,-826.102 244.42,-824.122"/>
<polygon fill="midnightblue" stroke="midnightblue" points="245.944,-827.296 254.211,-820.669 243.616,-820.695 245.944,-827.296"/>
</g>
<!-- Node21 -->
<g id="node41" class="node"><title>Node21</title>
<a xlink:href="cvm-hfa_8c.html#a9a0b038e0d29435cb91a21d9c62806cc" target="_top" xlink:title="API to set PP resource allocator for temporary memory.">
<polygon fill="white" stroke="black" points="244,-760.5 244,-781.5 382,-781.5 382,-760.5 244,-760.5"/>
<text text-anchor="middle" x="313" y="-768.5" font-family="FreeSans" font-size="10.00">hfa_dev_set_fnp_pptalloc</text>
</a>
</g>
<!-- Node10&#45;&gt;Node21 -->
<g id="edge40" class="edge"><title>Node10&#45;&gt;Node21</title>
<path fill="none" stroke="midnightblue" d="M139.068,-920.239C149.659,-893.757 180.733,-825.107 230,-791 232.742,-789.102 235.643,-787.383 238.654,-785.826"/>
<polygon fill="midnightblue" stroke="midnightblue" points="240.291,-788.927 247.969,-781.626 237.414,-782.546 240.291,-788.927"/>
</g>
<!-- Node22 -->
<g id="node43" class="node"><title>Node22</title>
<a xlink:href="cvm-hfa_8c.html#a2cbca63c413f08d3861f9b4c2855391f" target="_top" xlink:title="API to set PP resource deallocator for temporary memory.">
<polygon fill="white" stroke="black" points="245.5,-720.5 245.5,-741.5 380.5,-741.5 380.5,-720.5 245.5,-720.5"/>
<text text-anchor="middle" x="313" y="-728.5" font-family="FreeSans" font-size="10.00">hfa_dev_set_fnp_pptfree</text>
</a>
</g>
<!-- Node10&#45;&gt;Node22 -->
<g id="edge42" class="edge"><title>Node10&#45;&gt;Node22</title>
<path fill="none" stroke="midnightblue" d="M137.425,-920.065C145.02,-888.491 171.416,-796.544 230,-751 232.304,-749.209 234.744,-747.575 237.286,-746.085"/>
<polygon fill="midnightblue" stroke="midnightblue" points="238.921,-749.181 246.272,-741.552 235.768,-742.931 238.921,-749.181"/>
</g>
<!-- Node23 -->
<g id="node45" class="node"><title>Node23</title>
<a xlink:href="cvm-hfa_8c.html#af0b17e8a09b1f7a1dd438ddcb1e4cd14" target="_top" xlink:title="API to set temporary memory size function pointer.">
<polygon fill="white" stroke="black" points="245.5,-680.5 245.5,-701.5 380.5,-701.5 380.5,-680.5 245.5,-680.5"/>
<text text-anchor="middle" x="313" y="-688.5" font-family="FreeSans" font-size="10.00">hfa_dev_set_fnp_pptsize</text>
</a>
</g>
<!-- Node10&#45;&gt;Node23 -->
<g id="edge44" class="edge"><title>Node10&#45;&gt;Node23</title>
<path fill="none" stroke="midnightblue" d="M136.265,-920.312C141.076,-884.628 161.576,-768.61 230,-711 231.984,-709.329 234.085,-707.794 236.277,-706.382"/>
<polygon fill="midnightblue" stroke="midnightblue" points="238.043,-709.406 245.132,-701.532 234.68,-703.266 238.043,-709.406"/>
</g>
<!-- Node24 -->
<g id="node47" class="node"><title>Node24</title>
<a xlink:href="cvm-hfa_8c.html#aa2754afcdd94eb3dcd90c374f779dd24" target="_top" xlink:title="API to set PP resource allocator for match/result buffer.">
<polygon fill="white" stroke="black" points="230,-640.5 230,-661.5 396,-661.5 396,-640.5 230,-640.5"/>
<text text-anchor="middle" x="313" y="-648.5" font-family="FreeSans" font-size="10.00">hfa_dev_set_fnp_ppmatchalloc</text>
</a>
</g>
<!-- Node10&#45;&gt;Node24 -->
<g id="edge46" class="edge"><title>Node10&#45;&gt;Node24</title>
<path fill="none" stroke="midnightblue" d="M135.474,-920.398C137.838,-880.887 151.645,-740.905 230,-671 231.707,-669.477 233.511,-668.064 235.392,-666.755"/>
<polygon fill="midnightblue" stroke="midnightblue" points="237.235,-669.732 244.087,-661.652 233.691,-663.695 237.235,-669.732"/>
</g>
<!-- Node25 -->
<g id="node49" class="node"><title>Node25</title>
<a xlink:href="cvm-hfa_8c.html#ad022f5aec72780af8b36533884693539" target="_top" xlink:title="API to set PP resource deallocator for result/match buf.">
<polygon fill="white" stroke="black" points="231.5,-600.5 231.5,-621.5 394.5,-621.5 394.5,-600.5 231.5,-600.5"/>
<text text-anchor="middle" x="313" y="-608.5" font-family="FreeSans" font-size="10.00">hfa_dev_set_fnp_ppmatchfree</text>
</a>
</g>
<!-- Node10&#45;&gt;Node25 -->
<g id="edge48" class="edge"><title>Node10&#45;&gt;Node25</title>
<path fill="none" stroke="midnightblue" d="M136.924,-920.391C145.901,-872.004 185.141,-672.814 230,-631 231.504,-629.598 233.089,-628.289 234.742,-627.067"/>
<polygon fill="midnightblue" stroke="midnightblue" points="236.836,-629.888 243.508,-621.658 233.16,-623.931 236.836,-629.888"/>
</g>
<!-- Node26 -->
<g id="node51" class="node"><title>Node26</title>
<a xlink:href="cvm-hfa_8c.html#a8b71887165c143e32600513d12f9274f" target="_top" xlink:title="API to set match buffer size function pointer.">
<polygon fill="white" stroke="black" points="231.5,-1280.5 231.5,-1301.5 394.5,-1301.5 394.5,-1280.5 231.5,-1280.5"/>
<text text-anchor="middle" x="313" y="-1288.5" font-family="FreeSans" font-size="10.00">hfa_dev_set_fnp_ppmatchsize</text>
</a>
</g>
<!-- Node10&#45;&gt;Node26 -->
<g id="edge50" class="edge"><title>Node10&#45;&gt;Node26</title>
<path fill="none" stroke="midnightblue" d="M136.504,-941.584C144.12,-993.739 180.045,-1222.81 230,-1271 231.48,-1272.43 233.044,-1273.76 234.677,-1275"/>
<polygon fill="midnightblue" stroke="midnightblue" points="233.043,-1278.11 243.366,-1280.49 236.782,-1272.19 233.043,-1278.11"/>
</g>
<!-- Node27 -->
<g id="node53" class="node"><title>Node27</title>
<a xlink:href="cvm-hfa_8c.html#abcc0595aa8b2bb2d6116d600abbf55f8" target="_top" xlink:title="API to set PP error callback.">
<polygon fill="white" stroke="black" points="245,-1240.5 245,-1261.5 381,-1261.5 381,-1240.5 245,-1240.5"/>
<text text-anchor="middle" x="313" y="-1248.5" font-family="FreeSans" font-size="10.00">hfa_dev_set_fnp_pperror</text>
</a>
</g>
<!-- Node10&#45;&gt;Node27 -->
<g id="edge52" class="edge"><title>Node10&#45;&gt;Node27</title>
<path fill="none" stroke="midnightblue" d="M136.924,-941.609C145.901,-989.996 185.141,-1189.19 230,-1231 231.897,-1232.77 233.923,-1234.39 236.051,-1235.87"/>
<polygon fill="midnightblue" stroke="midnightblue" points="234.311,-1238.91 244.708,-1240.95 237.85,-1232.87 234.311,-1238.91"/>
</g>
<!-- Node28 -->
<g id="node55" class="node"><title>Node28</title>
<a xlink:href="cvm-hfa_8c.html#ac115556b315ff135ed2fd059cdf7d066" target="_top" xlink:title="Default function pointer for PP errors.">
<polygon fill="white" stroke="black" points="257.5,-1200.5 257.5,-1221.5 368.5,-1221.5 368.5,-1200.5 257.5,-1200.5"/>
<text text-anchor="middle" x="313" y="-1208.5" font-family="FreeSans" font-size="10.00">hfa_defaultfn_pperr</text>
</a>
</g>
<!-- Node10&#45;&gt;Node28 -->
<g id="edge54" class="edge"><title>Node10&#45;&gt;Node28</title>
<path fill="none" stroke="midnightblue" d="M135.474,-941.602C137.838,-981.113 151.645,-1121.09 230,-1191 235.202,-1195.64 241.294,-1199.25 247.773,-1202.05"/>
<polygon fill="midnightblue" stroke="midnightblue" points="246.891,-1205.46 257.485,-1205.61 249.296,-1198.88 246.891,-1205.46"/>
</g>
<!-- Node30 -->
<g id="node59" class="node"><title>Node30</title>
<a xlink:href="cvm-hfa-graph_8c.html#a80a6427d5a90c7bd1e4cbfd62a808524" target="_top" xlink:title="This routine initializes a graph object which can be used to perform various operations on a graph fi...">
<polygon fill="white" stroke="black" points="259.5,-440.5 259.5,-461.5 366.5,-461.5 366.5,-440.5 259.5,-440.5"/>
<text text-anchor="middle" x="313" y="-448.5" font-family="FreeSans" font-size="10.00">hfa_dev_graph_init</text>
</a>
</g>
<!-- Node29&#45;&gt;Node30 -->
<g id="edge58" class="edge"><title>Node29&#45;&gt;Node30</title>
<path fill="none" stroke="midnightblue" d="M169.743,-471.925C192.35,-468.623 222.511,-464.217 249.326,-460.301"/>
<polygon fill="midnightblue" stroke="midnightblue" points="250.028,-463.735 259.417,-458.827 249.016,-456.809 250.028,-463.735"/>
</g>
<!-- Node31 -->
<g id="node61" class="node"><title>Node31</title>
<a xlink:href="cvm-hfa-graph_8c.html#a32df4a93ffcd7da232613b13204b2a80" target="_top" xlink:title="This routine sets the cluster&#45;mask for the graph.">
<polygon fill="white" stroke="black" points="254.5,-560.5 254.5,-581.5 371.5,-581.5 371.5,-560.5 254.5,-560.5"/>
<text text-anchor="middle" x="313" y="-568.5" font-family="FreeSans" font-size="10.00">hfa_graph_setcluster</text>
</a>
</g>
<!-- Node29&#45;&gt;Node31 -->
<g id="edge60" class="edge"><title>Node29&#45;&gt;Node31</title>
<path fill="none" stroke="midnightblue" d="M145.362,-487.568C161.799,-503.713 195.536,-534.389 230,-551 234.924,-553.373 240.151,-555.477 245.492,-557.341"/>
<polygon fill="midnightblue" stroke="midnightblue" points="244.598,-560.73 255.189,-560.442 246.731,-554.062 244.598,-560.73"/>
</g>
<!-- Node32 -->
<g id="node63" class="node"><title>Node32</title>
<a xlink:href="app-utils_8c.html#aed95bb72627cff313c596ebcfcd8af61" target="_top" xlink:title="Parse graph into chunks and load graph to HFA memory.">
<polygon fill="white" stroke="red" points="245.5,-520.5 245.5,-541.5 380.5,-541.5 380.5,-520.5 245.5,-520.5"/>
<text text-anchor="middle" x="313" y="-528.5" font-family="FreeSans" font-size="10.00">hfautils_download_graph</text>
</a>
</g>
<!-- Node29&#45;&gt;Node32 -->
<g id="edge62" class="edge"><title>Node29&#45;&gt;Node32</title>
<path fill="none" stroke="midnightblue" d="M162.18,-487.605C181.04,-494.746 206.836,-504.086 230,-511 238.167,-513.438 246.852,-515.789 255.411,-517.971"/>
<polygon fill="midnightblue" stroke="midnightblue" points="254.813,-521.428 265.362,-520.448 256.504,-514.636 254.813,-521.428"/>
</g>
<!-- Node33 -->
<g id="node65" class="node"><title>Node33</title>
<a xlink:href="cvm-hfa-graph_8c.html#a60861d15ed5f6bccc42bbde834aa2b32" target="_top" xlink:title="This routine is used to cacheload a cacheable graph in a blocking manner.">
<polygon fill="white" stroke="red" points="253,-480.5 253,-501.5 373,-501.5 373,-480.5 253,-480.5"/>
<text text-anchor="middle" x="313" y="-488.5" font-family="FreeSans" font-size="10.00">hfa_graph_cacheload</text>
</a>
</g>
<!-- Node29&#45;&gt;Node33 -->
<g id="edge64" class="edge"><title>Node29&#45;&gt;Node33</title>
<path fill="none" stroke="midnightblue" d="M169.743,-479.733C190.462,-481.362 217.525,-483.491 242.542,-485.458"/>
<polygon fill="midnightblue" stroke="midnightblue" points="242.5,-488.966 252.744,-486.261 243.049,-481.987 242.5,-488.966"/>
</g>
<!-- Node34 -->
<g id="node67" class="node"><title>Node34</title>
<a xlink:href="cvm-hfa-graph_8c.html#a5e79919f5903d97aee5e82bfc7e71597" target="_top" xlink:title="This routine is the counterpart of hfa_dev_graph_init().">
<polygon fill="white" stroke="black" points="247,-400.5 247,-421.5 379,-421.5 379,-400.5 247,-400.5"/>
<text text-anchor="middle" x="313" y="-408.5" font-family="FreeSans" font-size="10.00">hfa_dev_graph_cleanup</text>
</a>
</g>
<!-- Node29&#45;&gt;Node34 -->
<g id="edge66" class="edge"><title>Node29&#45;&gt;Node34</title>
<path fill="none" stroke="midnightblue" d="M158.971,-466.4C169.746,-461.541 182.579,-455.621 194,-450 210.232,-442.01 213.075,-437.391 230,-431 236.673,-428.48 243.771,-426.201 250.897,-424.161"/>
<polygon fill="midnightblue" stroke="midnightblue" points="251.862,-427.526 260.596,-421.527 250.028,-420.77 251.862,-427.526"/>
</g>
<!-- Node36 -->
<g id="node71" class="node"><title>Node36</title>
<a xlink:href="cvm-hfa-module_8c.html#a88fc7baac8574ccd76a0f0e03fe46a14" target="_top" xlink:title="hfa_oct_fill_hw_memory &#45; fill a hardware pool with memory.">
<polygon fill="white" stroke="black" points="246,-360.5 246,-381.5 380,-381.5 380,-360.5 246,-360.5"/>
<text text-anchor="middle" x="313" y="-368.5" font-family="FreeSans" font-size="10.00">hfa_oct_fill_hw_memory</text>
</a>
</g>
<!-- Node35&#45;&gt;Node36 -->
<g id="edge70" class="edge"><title>Node35&#45;&gt;Node36</title>
<path fill="none" stroke="midnightblue" d="M191.81,-348.532C208.99,-351.717 228.02,-355.245 245.811,-358.544"/>
<polygon fill="midnightblue" stroke="midnightblue" points="245.649,-362.073 256.119,-360.455 246.925,-355.19 245.649,-362.073"/>
</g>
<!-- Node37 -->
<g id="node73" class="node"><title>Node37</title>
<a xlink:href="cvm-hfa-module_8c.html#a6da5324c911912f256ffdd8822f1e911" target="_top" xlink:title="hfa_oct_free_hw_memory &#45; Free memory allocated by cvm_oct_fill_hw_memory">
<polygon fill="white" stroke="black" points="241.5,-320.5 241.5,-341.5 384.5,-341.5 384.5,-320.5 241.5,-320.5"/>
<text text-anchor="middle" x="313" y="-328.5" font-family="FreeSans" font-size="10.00">hfa_oct_free_hw_memory</text>
</a>
</g>
<!-- Node35&#45;&gt;Node37 -->
<g id="edge72" class="edge"><title>Node35&#45;&gt;Node37</title>
<path fill="none" stroke="midnightblue" d="M192.3,-335.747C204.772,-335.256 218.2,-334.728 231.408,-334.209"/>
<polygon fill="midnightblue" stroke="midnightblue" points="231.591,-337.704 241.446,-333.814 231.316,-330.71 231.591,-337.704"/>
</g>
<!-- Node38 -->
<g id="node75" class="node"><title>Node38</title>
<a xlink:href="cvmx-hfa_8c.html#a435a75ee9c8cd0df4249e8bfe76c0de5" target="_top" xlink:title="hfa_bootmem_alloc">
<polygon fill="white" stroke="black" points="257.5,-280.5 257.5,-301.5 368.5,-301.5 368.5,-280.5 257.5,-280.5"/>
<text text-anchor="middle" x="313" y="-288.5" font-family="FreeSans" font-size="10.00">hfa_bootmem_alloc</text>
</a>
</g>
<!-- Node35&#45;&gt;Node38 -->
<g id="edge74" class="edge"><title>Node35&#45;&gt;Node38</title>
<path fill="none" stroke="midnightblue" d="M170.995,-327.399C188.717,-322.274 210.43,-316.137 230,-311 238.949,-308.651 248.469,-306.259 257.749,-303.983"/>
<polygon fill="midnightblue" stroke="midnightblue" points="258.796,-307.331 267.686,-301.568 257.142,-300.529 258.796,-307.331"/>
</g>
<!-- Node41 -->
<g id="node81" class="node"><title>Node41</title>
<a xlink:href="flow_8c.html#a975658e6420735e18fe54a97672468c6" target="_top" xlink:title="Initializes Flow database index.">
<polygon fill="white" stroke="black" points="252.5,-240.5 252.5,-261.5 373.5,-261.5 373.5,-240.5 252.5,-240.5"/>
<text text-anchor="middle" x="313" y="-248.5" font-family="FreeSans" font-size="10.00">hfaf_flowdb_node_init</text>
</a>
</g>
<!-- Node40&#45;&gt;Node41 -->
<g id="edge80" class="edge"><title>Node40&#45;&gt;Node41</title>
<path fill="none" stroke="midnightblue" d="M170.995,-287.399C188.717,-282.274 210.43,-276.137 230,-271 238.949,-268.651 248.469,-266.259 257.749,-263.983"/>
<polygon fill="midnightblue" stroke="midnightblue" points="258.796,-267.331 267.686,-261.568 257.142,-260.529 258.796,-267.331"/>
</g>
<!-- Node43 -->
<g id="node85" class="node"><title>Node43</title>
<a xlink:href="app-utils_8c.html#a2ef10d45430fedd0dba3431f8d6ee14a" target="_top" xlink:title="Print performance statistics.">
<polygon fill="white" stroke="black" points="263.5,-80.5 263.5,-101.5 362.5,-101.5 362.5,-80.5 263.5,-80.5"/>
<text text-anchor="middle" x="313" y="-88.5" font-family="FreeSans" font-size="10.00">hfautils_printstats</text>
</a>
</g>
<!-- Node42&#45;&gt;Node43 -->
<g id="edge84" class="edge"><title>Node42&#45;&gt;Node43</title>
<path fill="none" stroke="midnightblue" d="M181.767,-120.49C204.57,-115.366 232.188,-109.16 256.194,-103.765"/>
<polygon fill="midnightblue" stroke="midnightblue" points="257.247,-107.116 266.236,-101.509 255.712,-100.286 257.247,-107.116"/>
</g>
<!-- Node44 -->
<g id="node87" class="node"><title>Node44</title>
<a xlink:href="hfa-se-flow_8c.html#a22f8c12ff92ccf01518baa93343fd971" target="_top" xlink:title="Free wqe to the WQE fpa pool.">
<polygon fill="white" stroke="black" points="285,-40.5 285,-61.5 341,-61.5 341,-40.5 285,-40.5"/>
<text text-anchor="middle" x="313" y="-48.5" font-family="FreeSans" font-size="10.00">freewqe</text>
</a>
</g>
<!-- Node42&#45;&gt;Node44 -->
<g id="edge86" class="edge"><title>Node42&#45;&gt;Node44</title>
<path fill="none" stroke="midnightblue" d="M148.68,-120.312C166.459,-106.92 198.915,-84.1383 230,-71 244.172,-65.01 260.498,-60.5893 274.901,-57.4502"/>
<polygon fill="midnightblue" stroke="midnightblue" points="275.894,-60.8196 284.99,-55.3868 274.491,-53.9615 275.894,-60.8196"/>
</g>
<!-- Node45 -->
<g id="node89" class="node"><title>Node45</title>
<a xlink:href="flow_8h.html#afe2603c8b1fe38bb2528f405a3e8c137" target="_top" xlink:title="Calculate Array index to which received flowid should be present or added.">
<polygon fill="white" stroke="black" points="265,-0.5 265,-21.5 361,-21.5 361,-0.5 265,-0.5"/>
<text text-anchor="middle" x="313" y="-8.5" font-family="FreeSans" font-size="10.00">hfaf_get_flowidx</text>
</a>
</g>
<!-- Node42&#45;&gt;Node45 -->
<g id="edge88" class="edge"><title>Node42&#45;&gt;Node45</title>
<path fill="none" stroke="midnightblue" d="M141.939,-120.333C155.958,-99.6819 189.771,-54.2339 230,-31 237.647,-26.5835 246.23,-23.1394 254.899,-20.4544"/>
<polygon fill="midnightblue" stroke="midnightblue" points="255.983,-23.7861 264.679,-17.734 254.107,-17.0421 255.983,-23.7861"/>
</g>
<!-- Node46 -->
<g id="node91" class="node"><title>Node46</title>
<a xlink:href="hfa-se-flow_8c.html#a6d3e23d8f7a3aaf1b0d6e350b7631a0e" target="_top" xlink:title="Get flow pointer from Flow database, If flow ptr is NULL then create at runtime.">
<polygon fill="white" stroke="red" points="278.5,-200.5 278.5,-221.5 347.5,-221.5 347.5,-200.5 278.5,-200.5"/>
<text text-anchor="middle" x="313" y="-208.5" font-family="FreeSans" font-size="10.00">get_flowptr</text>
</a>
</g>
<!-- Node42&#45;&gt;Node46 -->
<g id="edge90" class="edge"><title>Node42&#45;&gt;Node46</title>
<path fill="none" stroke="midnightblue" d="M148.68,-141.688C166.459,-155.08 198.915,-177.862 230,-191 242.066,-196.1 255.692,-200.062 268.364,-203.064"/>
<polygon fill="midnightblue" stroke="midnightblue" points="267.752,-206.514 278.274,-205.269 269.273,-199.681 267.752,-206.514"/>
</g>
<!-- Node47 -->
<g id="node93" class="node"><title>Node47</title>
<a xlink:href="hfa-se-flow_8c.html#a49535197bf697f5b0b5f2952e1e5063c" target="_top" xlink:title="Free packet buffer and wqe to the corresponding fpa pools.">
<polygon fill="white" stroke="black" points="293.5,-160.5 293.5,-181.5 332.5,-181.5 332.5,-160.5 293.5,-160.5"/>
<text text-anchor="middle" x="313" y="-168.5" font-family="FreeSans" font-size="10.00">send</text>
</a>
</g>
<!-- Node42&#45;&gt;Node47 -->
<g id="edge92" class="edge"><title>Node42&#45;&gt;Node47</title>
<path fill="none" stroke="midnightblue" d="M181.767,-141.51C213.918,-148.734 255.64,-158.11 283.315,-164.329"/>
<polygon fill="midnightblue" stroke="midnightblue" points="282.661,-167.769 293.185,-166.547 284.196,-160.94 282.661,-167.769"/>
</g>
<!-- Node48 -->
<g id="node95" class="node"><title>Node48</title>
<a xlink:href="hfa-se-nctx_8c.html#a508e8db841721921a39875f1b628b92c" target="_top" xlink:title="Set search parameters and submit a search instruction to HW.">
<polygon fill="white" stroke="red" points="289,-120.5 289,-141.5 337,-141.5 337,-120.5 289,-120.5"/>
<text text-anchor="middle" x="313" y="-128.5" font-family="FreeSans" font-size="10.00">submit</text>
</a>
</g>
<!-- Node42&#45;&gt;Node48 -->
<g id="edge94" class="edge"><title>Node42&#45;&gt;Node48</title>
<path fill="none" stroke="midnightblue" d="M183.169,-131C213.346,-131 251.519,-131 278.644,-131"/>
<polygon fill="midnightblue" stroke="midnightblue" points="278.818,-134.5 288.818,-131 278.818,-127.5 278.818,-134.5"/>
</g>
<!-- Node50&#45;&gt;Node34 -->
<g id="edge100" class="edge"><title>Node50&#45;&gt;Node34</title>
<path fill="none" stroke="midnightblue" d="M162.034,-427.114C181.955,-424.988 210.099,-421.984 236.698,-419.145"/>
<polygon fill="midnightblue" stroke="midnightblue" points="237.224,-422.608 246.796,-418.067 236.481,-415.648 237.224,-422.608"/>
</g>
</g>
</svg>
