<?xml version="1.0" encoding="UTF-8" standalone="no"?>
<!DOCTYPE svg PUBLIC "-//W3C//DTD SVG 1.1//EN"
 "http://www.w3.org/Graphics/SVG/1.1/DTD/svg11.dtd">
<!-- Generated by graphviz version 2.24.0 (20090616.2323)
 -->
<!-- Title: entry Pages: 1 -->
<!--zoomable 1463 -->
<svg id="main" version="1.1" xmlns="http://www.w3.org/2000/svg" xmlns:xlink="http://www.w3.org/1999/xlink" xml:space="preserve" onload="init(evt)">
        <defs>
                <circle id="rim" cx="0" cy="0" r="7"/>
                <circle id="rim2" cx="0" cy="0" r="3.5"/>
                <g id="zoomPlus">
                        <use xlink:href="#rim" fill="#404040">
                                <set attributeName="fill" to="#808080" begin="zoomplus.mouseover" end="zoomplus.mouseout"/>
                        </use>
                        <path d="M-4,0h8M0,-4v8" fill="none" stroke="white" stroke-width="1.5" pointer-events="none"/>
                </g>
                <g id="zoomMin">
                        <use xlink:href="#rim" fill="#404040">
                                <set attributeName="fill" to="#808080" begin="zoomminus.mouseover" end="zoomminus.mouseout"/>
                        </use>
                        <path d="M-4,0h8" fill="none" stroke="white" stroke-width="1.5" pointer-events="none"/>
                </g>
                <g id="dirArrow">
                        <path fill="none" stroke="white" stroke-width="1.5" d="M0,-3.0v7 M-2.5,-0.5L0,-3.0L2.5,-0.5"/>
                </g>
               <g id="resetDef">
                       <use xlink:href="#rim2" fill="#404040">
                               <set attributeName="fill" to="#808080" begin="reset.mouseover" end="reset.mouseout"/>
                       </use>
               </g>
        </defs>

<script type="text/javascript">
var viewWidth = 598;
var viewHeight = 1463;
var sectionId = 'dynsection-3';
</script>
<script xlink:href="svgpan.js"/>
<svg id="graph" class="graph">
<g id="viewport">
<title>entry</title>
<polygon fill="white" stroke="white" points="-4,5 -4,-1459 595,-1459 595,5 -4,5"/>
<!-- Node1 -->
<g id="node1" class="node"><title>Node1</title>
<polygon fill="#bfbfbf" stroke="black" points="0.5,-278.5 0.5,-299.5 41.5,-299.5 41.5,-278.5 0.5,-278.5"/>
<text text-anchor="middle" x="21" y="-286.5" font-family="FreeSans" font-size="10.00">entry</text>
</g>
<!-- Node2 -->
<g id="node3" class="node"><title>Node2</title>
<a xlink:href="hfa-lnx-wqe-lock_8c.html#a4c3443f524b4c0d95639694f0b74e850" target="_top" xlink:title="Process command line options, Read graph and payload.">
<polygon fill="white" stroke="black" points="102,-1393.5 102,-1414.5 196,-1414.5 196,-1393.5 102,-1393.5"/>
<text text-anchor="middle" x="149" y="-1401.5" font-family="FreeSans" font-size="10.00">process_options</text>
</a>
</g>
<!-- Node1&#45;&gt;Node2 -->
<g id="edge2" class="edge"><title>Node1&#45;&gt;Node2</title>
<path fill="none" stroke="midnightblue" d="M21.4024,-299.836C23.977,-366.726 39.2809,-730.25 78,-1024 96.2534,-1162.48 131.755,-1326.96 144.395,-1383.63"/>
<polygon fill="midnightblue" stroke="midnightblue" points="141.002,-1384.5 146.606,-1393.49 147.832,-1382.96 141.002,-1384.5"/>
</g>
<!-- Node5 -->
<g id="node9" class="node"><title>Node5</title>
<a xlink:href="cvm-hfa_8c.html#a873768042b716d60996ec5d858fc8fd9" target="_top" xlink:title="This function must be called by application to initialize HFA engine and setup resources for HFA hard...">
<polygon fill="white" stroke="black" points="112,-993.5 112,-1014.5 186,-1014.5 186,-993.5 112,-993.5"/>
<text text-anchor="middle" x="149" y="-1001.5" font-family="FreeSans" font-size="10.00">hfa_dev_init</text>
</a>
</g>
<!-- Node1&#45;&gt;Node5 -->
<g id="edge8" class="edge"><title>Node1&#45;&gt;Node5</title>
<path fill="none" stroke="midnightblue" d="M22.9088,-299.662C37.0859,-378.855 125.976,-875.391 145.297,-983.314"/>
<polygon fill="midnightblue" stroke="midnightblue" points="141.873,-984.05 147.08,-993.276 148.763,-982.816 141.873,-984.05"/>
</g>
<!-- Node24 -->
<g id="node47" class="node"><title>Node24</title>
<a xlink:href="hfa-lnx-wqe-lock_8c.html#a546f3769e735d4bef0bfab1cba56921c" target="_top" xlink:title="Load graph into HFA memory and cache.">
<polygon fill="white" stroke="black" points="114.5,-514.5 114.5,-535.5 183.5,-535.5 183.5,-514.5 114.5,-514.5"/>
<text text-anchor="middle" x="149" y="-522.5" font-family="FreeSans" font-size="10.00">graph_load</text>
</a>
</g>
<!-- Node1&#45;&gt;Node24 -->
<g id="edge46" class="edge"><title>Node1&#45;&gt;Node24</title>
<path fill="none" stroke="midnightblue" d="M24.4783,-299.78C32.3564,-323.556 52.8477,-381.964 78,-427 94.435,-456.428 118.155,-487.459 133.574,-506.527"/>
<polygon fill="midnightblue" stroke="midnightblue" points="130.975,-508.878 140.019,-514.398 136.391,-504.443 130.975,-508.878"/>
</g>
<!-- Node31 -->
<g id="node62" class="node"><title>Node31</title>
<a xlink:href="cvm-hfa-module_8c.html#a4e450cec58c1000d0c3b84077acb3f6a" target="_top" xlink:title="Check if ethernet driver present.">
<polygon fill="white" stroke="black" points="78.5,-318.5 78.5,-339.5 219.5,-339.5 219.5,-318.5 78.5,-318.5"/>
<text text-anchor="middle" x="149" y="-326.5" font-family="FreeSans" font-size="10.00">hfa_isethernetdrv_present</text>
</a>
</g>
<!-- Node1&#45;&gt;Node31 -->
<g id="edge62" class="edge"><title>Node1&#45;&gt;Node31</title>
<path fill="none" stroke="midnightblue" d="M41.7407,-296.63C52.5041,-300.5 65.8999,-305.177 78,-309 85.1321,-311.253 92.7055,-313.519 100.148,-315.675"/>
<polygon fill="midnightblue" stroke="midnightblue" points="99.2305,-319.053 109.807,-318.436 101.154,-312.323 99.2305,-319.053"/>
</g>
<!-- Node32 -->
<g id="node64" class="node"><title>Node32</title>
<a xlink:href="cvm-hfa_8c.html#a889a27e88a8ec2d15634a89f8dbe5613" target="_top" xlink:title="Create FPA pools for HFA This is a utility routine which applications can use to intialize an FPA poo...">
<polygon fill="white" stroke="black" points="92,-278.5 92,-299.5 206,-299.5 206,-278.5 92,-278.5"/>
<text text-anchor="middle" x="149" y="-286.5" font-family="FreeSans" font-size="10.00">hfa_create_fpa_pool</text>
</a>
</g>
<!-- Node1&#45;&gt;Node32 -->
<g id="edge64" class="edge"><title>Node1&#45;&gt;Node32</title>
<path fill="none" stroke="midnightblue" d="M41.5654,-289C52.6472,-289 67.0187,-289 81.6252,-289"/>
<polygon fill="midnightblue" stroke="midnightblue" points="81.7375,-292.5 91.7374,-289 81.7374,-285.5 81.7375,-292.5"/>
</g>
<!-- Node36 -->
<g id="node72" class="node"><title>Node36</title>
<a xlink:href="cvm-hfa-module_8c.html#aa7c6e347783a2e0d2e31b5fc4091141f" target="_top" xlink:title="Initialize and allocate memory for the SSO.">
<polygon fill="white" stroke="black" points="90.5,-238.5 90.5,-259.5 207.5,-259.5 207.5,-238.5 90.5,-238.5"/>
<text text-anchor="middle" x="149" y="-246.5" font-family="FreeSans" font-size="10.00">hfa_oct_initialize_sso</text>
</a>
</g>
<!-- Node1&#45;&gt;Node36 -->
<g id="edge72" class="edge"><title>Node1&#45;&gt;Node36</title>
<path fill="none" stroke="midnightblue" d="M41.7407,-281.37C52.5041,-277.5 65.8999,-272.823 78,-269 85.1321,-266.747 92.7055,-264.481 100.148,-262.325"/>
<polygon fill="midnightblue" stroke="midnightblue" points="101.154,-265.677 109.807,-259.564 99.2305,-258.947 101.154,-265.677"/>
</g>
<!-- Node37 -->
<g id="node74" class="node"><title>Node37</title>
<a xlink:href="hfa-se-wqe-lock_8c.html#ad221c787ef673f00ced4137e945dc550" target="_top" xlink:title="Allocates memory to store the pointer of each context.">
<polygon fill="white" stroke="black" points="118,-198.5 118,-219.5 180,-219.5 180,-198.5 118,-198.5"/>
<text text-anchor="middle" x="149" y="-206.5" font-family="FreeSans" font-size="10.00">ctxdb_init</text>
</a>
</g>
<!-- Node1&#45;&gt;Node37 -->
<g id="edge74" class="edge"><title>Node1&#45;&gt;Node37</title>
<path fill="none" stroke="midnightblue" d="M28.2092,-278.45C37.9538,-264.991 56.5934,-241.913 78,-229 87.0465,-223.543 97.6359,-219.526 107.834,-216.588"/>
<polygon fill="midnightblue" stroke="midnightblue" points="109.029,-219.893 117.831,-213.995 107.272,-213.118 109.029,-219.893"/>
</g>
<!-- Node38 -->
<g id="node76" class="node"><title>Node38</title>
<a xlink:href="hfa-se-wqe_8c.html#af83136a23f35cac6269b0e552fc58de6" target="_top" xlink:title="Initializes the search context object of each context.">
<polygon fill="white" stroke="black" points="301,-80.5 301,-101.5 377,-101.5 377,-80.5 301,-80.5"/>
<text text-anchor="middle" x="339" y="-88.5" font-family="FreeSans" font-size="10.00">Initialize_Ctx</text>
</a>
</g>
<!-- Node1&#45;&gt;Node38 -->
<g id="edge76" class="edge"><title>Node1&#45;&gt;Node38</title>
<path fill="none" stroke="midnightblue" d="M22.7866,-278.304C28.9241,-242.939 50.3031,-130.785 78,-109 138.62,-61.3187 233.653,-68.972 290.776,-79.5312"/>
<polygon fill="midnightblue" stroke="midnightblue" points="290.154,-82.9759 300.639,-81.4533 291.493,-76.1051 290.154,-82.9759"/>
</g>
<!-- Node42 -->
<g id="node84" class="node"><title>Node42</title>
<a xlink:href="cvm-hfa-module_8c.html#a85a6306007b18d70af559a54c45aa209" target="_top" xlink:title="Register intercept callback for HFA HW WQE.">
<polygon fill="white" stroke="black" points="282.5,-331 282.5,-365 395.5,-365 395.5,-331 282.5,-331"/>
<text text-anchor="start" x="290.5" y="-352" font-family="FreeSans" font-size="10.00">hfa_register_hwwqe</text>
<text text-anchor="middle" x="339" y="-339" font-family="FreeSans" font-size="10.00">_interceptcb</text>
</a>
</g>
<!-- Node1&#45;&gt;Node42 -->
<g id="edge84" class="edge"><title>Node1&#45;&gt;Node42</title>
<path fill="none" stroke="midnightblue" d="M27.1052,-299.506C36.1221,-313.844 54.4994,-338.911 78,-349 139.933,-375.589 218.008,-370.942 272.559,-362.382"/>
<polygon fill="midnightblue" stroke="midnightblue" points="273.167,-365.829 282.462,-360.744 272.025,-358.923 273.167,-365.829"/>
</g>
<!-- Node43 -->
<g id="node86" class="node"><title>Node43</title>
<a xlink:href="hfa-lnx-wqe-lock_8c.html#a14d9beff0b867b96d1b26571245087dd" target="_top" xlink:title="process_hwwqe">
<polygon fill="white" stroke="black" points="102,-40.5 102,-61.5 196,-61.5 196,-40.5 102,-40.5"/>
<text text-anchor="middle" x="149" y="-48.5" font-family="FreeSans" font-size="10.00">process_hwwqe</text>
</a>
</g>
<!-- Node1&#45;&gt;Node43 -->
<g id="edge86" class="edge"><title>Node1&#45;&gt;Node43</title>
<path fill="none" stroke="midnightblue" d="M22.5212,-278.338C28.2508,-239.549 49.6542,-106.619 78,-76 82.1517,-71.5153 87.156,-67.8348 92.5627,-64.8144"/>
<polygon fill="midnightblue" stroke="midnightblue" points="94.4446,-67.7945 101.962,-60.3289 91.4298,-61.4769 94.4446,-67.7945"/>
</g>
<!-- Node46 -->
<g id="node92" class="node"><title>Node46</title>
<a xlink:href="hfa-lnx-async_8c.html#a7dea7d59754828b1173c4c7ec5d42f3e" target="_top" xlink:title="thread_callback">
<polygon fill="white" stroke="black" points="103,-158.5 103,-179.5 195,-179.5 195,-158.5 103,-158.5"/>
<text text-anchor="middle" x="149" y="-166.5" font-family="FreeSans" font-size="10.00">thread_callback</text>
</a>
</g>
<!-- Node1&#45;&gt;Node46 -->
<g id="edge92" class="edge"><title>Node1&#45;&gt;Node46</title>
<path fill="none" stroke="midnightblue" d="M24.0367,-278.447C30.4736,-257.995 47.4608,-212.881 78,-189 82.6531,-185.361 87.9343,-182.385 93.4663,-179.95"/>
<polygon fill="midnightblue" stroke="midnightblue" points="94.8454,-183.17 102.946,-176.341 92.3553,-176.628 94.8454,-183.17"/>
</g>
<!-- Node48 -->
<g id="node99" class="node"><title>Node48</title>
<a xlink:href="hfa-lnx-async_8c.html#a1e97b1d598034fdc92d57054a6c386e6" target="_top" xlink:title="tasklet_callback">
<polygon fill="white" stroke="black" points="103,-118.5 103,-139.5 195,-139.5 195,-118.5 103,-118.5"/>
<text text-anchor="middle" x="149" y="-126.5" font-family="FreeSans" font-size="10.00">tasklet_callback</text>
</a>
</g>
<!-- Node1&#45;&gt;Node48 -->
<g id="edge102" class="edge"><title>Node1&#45;&gt;Node48</title>
<path fill="none" stroke="midnightblue" d="M22.1592,-278.433C25.5886,-252.395 38.084,-184.676 78,-149 82.4653,-145.009 87.6685,-141.809 93.1911,-139.244"/>
<polygon fill="midnightblue" stroke="midnightblue" points="94.6878,-142.416 102.713,-135.498 92.1255,-135.902 94.6878,-142.416"/>
</g>
<!-- Node49 -->
<g id="node102" class="node"><title>Node49</title>
<a xlink:href="hfa-lnx-wqe-lock_8c.html#acd9e54f020b77f14d54c200b65423a15" target="_top" xlink:title="Application cleanup will be done by this routine.">
<polygon fill="white" stroke="red" points="122,-396.5 122,-417.5 176,-417.5 176,-396.5 122,-396.5"/>
<text text-anchor="middle" x="149" y="-404.5" font-family="FreeSans" font-size="10.00">cleanup</text>
</a>
</g>
<!-- Node1&#45;&gt;Node49 -->
<g id="edge106" class="edge"><title>Node1&#45;&gt;Node49</title>
<path fill="none" stroke="midnightblue" d="M24.7175,-299.545C31.9856,-318.685 49.8695,-359.264 78,-382 87.8459,-389.958 100.407,-395.473 112.219,-399.255"/>
<polygon fill="midnightblue" stroke="midnightblue" points="111.311,-402.635 121.889,-402.039 113.247,-395.908 111.311,-402.635"/>
</g>
<!-- Node3 -->
<g id="node5" class="node"><title>Node3</title>
<a xlink:href="app-utils_8c.html#a8d5ec2ca8ebb2e04916983e6053a5c79" target="_top" xlink:title="Return size of a file(compressed or uncompressed).">
<polygon fill="white" stroke="red" points="291.5,-1393.5 291.5,-1414.5 386.5,-1414.5 386.5,-1393.5 291.5,-1393.5"/>
<text text-anchor="middle" x="339" y="-1401.5" font-family="FreeSans" font-size="10.00">hfautils_file_size</text>
</a>
</g>
<!-- Node2&#45;&gt;Node3 -->
<g id="edge4" class="edge"><title>Node2&#45;&gt;Node3</title>
<path fill="none" stroke="midnightblue" d="M196.455,-1404C222.185,-1404 254.186,-1404 281.343,-1404"/>
<polygon fill="midnightblue" stroke="midnightblue" points="281.492,-1407.5 291.492,-1404 281.492,-1400.5 281.492,-1407.5"/>
</g>
<!-- Node4 -->
<g id="node7" class="node"><title>Node4</title>
<a xlink:href="app-utils_8c.html#a12339c67618c4b3a54c32f43d378c273" target="_top" xlink:title="Read data from a file to a buffer(compressed or uncompressed).">
<polygon fill="white" stroke="red" points="290.5,-1433.5 290.5,-1454.5 387.5,-1454.5 387.5,-1433.5 290.5,-1433.5"/>
<text text-anchor="middle" x="339" y="-1441.5" font-family="FreeSans" font-size="10.00">hfautils_read_file</text>
</a>
</g>
<!-- Node2&#45;&gt;Node4 -->
<g id="edge6" class="edge"><title>Node2&#45;&gt;Node4</title>
<path fill="none" stroke="midnightblue" d="M196.455,-1413.99C221.893,-1419.35 253.459,-1425.99 280.416,-1431.67"/>
<polygon fill="midnightblue" stroke="midnightblue" points="279.992,-1435.15 290.499,-1433.79 281.434,-1428.3 279.992,-1435.15"/>
</g>
<!-- Node6 -->
<g id="node11" class="node"><title>Node6</title>
<a xlink:href="cvm-hfa-stats_8c.html#a2fcf955b47370bfa46705ee5a23a70cf" target="_top" xlink:title="This routine allocates memory for counters to maintain statistics of each processing core...">
<polygon fill="white" stroke="red" points="288,-753.5 288,-774.5 390,-774.5 390,-753.5 288,-753.5"/>
<text text-anchor="middle" x="339" y="-761.5" font-family="FreeSans" font-size="10.00">hfa_dev_stats_init</text>
</a>
</g>
<!-- Node5&#45;&gt;Node6 -->
<g id="edge10" class="edge"><title>Node5&#45;&gt;Node6</title>
<path fill="none" stroke="midnightblue" d="M150.879,-993.282C157.735,-957.504 184.84,-841.226 256,-784 262.559,-778.726 270.291,-774.807 278.354,-771.903"/>
<polygon fill="midnightblue" stroke="midnightblue" points="279.405,-775.241 287.92,-768.938 277.332,-768.555 279.405,-775.241"/>
</g>
<!-- Node7 -->
<g id="node13" class="node"><title>Node7</title>
<a xlink:href="cvm-hfa_8c.html#a27982497398da2118cd5287ed51732e7" target="_top" xlink:title="Provides device&#45;specific information This is a utility routine used to obtain HFA device&#45;specific det...">
<polygon fill="white" stroke="black" points="283.5,-713.5 283.5,-734.5 394.5,-734.5 394.5,-713.5 283.5,-713.5"/>
<text text-anchor="middle" x="339" y="-721.5" font-family="FreeSans" font-size="10.00">hfa_dev_getdevinfo</text>
</a>
</g>
<!-- Node5&#45;&gt;Node7 -->
<g id="edge12" class="edge"><title>Node5&#45;&gt;Node7</title>
<path fill="none" stroke="midnightblue" d="M150.002,-993.365C154.324,-953.737 175.008,-813.393 256,-744 261.218,-739.529 267.268,-736.022 273.678,-733.275"/>
<polygon fill="midnightblue" stroke="midnightblue" points="275.078,-736.49 283.271,-729.773 272.677,-729.915 275.078,-736.49"/>
</g>
<!-- Node8 -->
<g id="node15" class="node"><title>Node8</title>
<a xlink:href="pp_8h.html#a6f5982b2671e9682262a26b0d2996396" target="_top" xlink:title="Constructs a readable version string for the PP library.">
<polygon fill="white" stroke="black" points="279,-673.5 279,-694.5 399,-694.5 399,-673.5 279,-673.5"/>
<text text-anchor="middle" x="339" y="-681.5" font-family="FreeSans" font-size="10.00">pp_get_version_string</text>
</a>
</g>
<!-- Node5&#45;&gt;Node8 -->
<g id="edge14" class="edge"><title>Node5&#45;&gt;Node8</title>
<path fill="none" stroke="midnightblue" d="M149.357,-993.292C151.409,-949.918 165.125,-785.707 256,-704 259.963,-700.437 264.45,-697.48 269.235,-695.03"/>
<polygon fill="midnightblue" stroke="midnightblue" points="270.958,-698.098 278.747,-690.915 268.179,-691.673 270.958,-698.098"/>
</g>
<!-- Node9 -->
<g id="node17" class="node"><title>Node9</title>
<a xlink:href="cvm-hfa_8c.html#afd1d53fe8a402d4c5799e6e98c67baaa" target="_top" xlink:title="Displays HFA Device info.">
<polygon fill="white" stroke="red" points="280.5,-1353.5 280.5,-1374.5 397.5,-1374.5 397.5,-1353.5 280.5,-1353.5"/>
<text text-anchor="middle" x="339" y="-1361.5" font-family="FreeSans" font-size="10.00">hfa_dev_display_info</text>
</a>
</g>
<!-- Node5&#45;&gt;Node9 -->
<g id="edge16" class="edge"><title>Node5&#45;&gt;Node9</title>
<path fill="none" stroke="midnightblue" d="M150.895,-1014.6C160.434,-1066.82 204.779,-1296.17 256,-1344 260.372,-1348.08 265.429,-1351.38 270.845,-1354.03"/>
<polygon fill="midnightblue" stroke="midnightblue" points="269.664,-1357.32 280.243,-1357.9 272.335,-1350.85 269.664,-1357.32"/>
</g>
<!-- Node10 -->
<g id="node19" class="node"><title>Node10</title>
<a xlink:href="cvm-hfa_8c.html#a236e64ca73680ea6761204d5c44d4e96" target="_top" xlink:title="API to set PP resource allocator for partial matches.">
<polygon fill="white" stroke="black" points="271.5,-1313.5 271.5,-1334.5 406.5,-1334.5 406.5,-1313.5 271.5,-1313.5"/>
<text text-anchor="middle" x="339" y="-1321.5" font-family="FreeSans" font-size="10.00">hfa_dev_set_fnp_ppalloc</text>
</a>
</g>
<!-- Node5&#45;&gt;Node10 -->
<g id="edge18" class="edge"><title>Node5&#45;&gt;Node10</title>
<path fill="none" stroke="midnightblue" d="M149.357,-1014.71C151.409,-1058.08 165.125,-1222.29 256,-1304 257.977,-1305.78 260.085,-1307.4 262.295,-1308.89"/>
<polygon fill="midnightblue" stroke="midnightblue" points="260.841,-1312.09 271.267,-1313.97 264.289,-1306 260.841,-1312.09"/>
</g>
<!-- Node11 -->
<g id="node21" class="node"><title>Node11</title>
<a xlink:href="cvm-hfa_8c.html#ab547f175726534d6a0a334eb35af4980" target="_top" xlink:title="Default function pointer for PP allocations.">
<polygon fill="white" stroke="black" points="279,-1273.5 279,-1294.5 399,-1294.5 399,-1273.5 279,-1273.5"/>
<text text-anchor="middle" x="339" y="-1281.5" font-family="FreeSans" font-size="10.00">hfa_defaultfn_ppalloc</text>
</a>
</g>
<!-- Node5&#45;&gt;Node11 -->
<g id="edge20" class="edge"><title>Node5&#45;&gt;Node11</title>
<path fill="none" stroke="midnightblue" d="M150.002,-1014.64C154.324,-1054.26 175.008,-1194.61 256,-1264 260.047,-1267.47 264.594,-1270.36 269.421,-1272.76"/>
<polygon fill="midnightblue" stroke="midnightblue" points="268.418,-1276.13 278.992,-1276.81 271.145,-1269.69 268.418,-1276.13"/>
</g>
<!-- Node12 -->
<g id="node23" class="node"><title>Node12</title>
<a xlink:href="cvm-hfa_8c.html#a148abbfdeebb207ff46884af8eeb8fa4" target="_top" xlink:title="API to set PP resource deallocator for partial matches.">
<polygon fill="white" stroke="black" points="273,-1233.5 273,-1254.5 405,-1254.5 405,-1233.5 273,-1233.5"/>
<text text-anchor="middle" x="339" y="-1241.5" font-family="FreeSans" font-size="10.00">hfa_dev_set_fnp_ppfree</text>
</a>
</g>
<!-- Node5&#45;&gt;Node12 -->
<g id="edge22" class="edge"><title>Node5&#45;&gt;Node12</title>
<path fill="none" stroke="midnightblue" d="M150.879,-1014.72C157.735,-1050.5 184.84,-1166.77 256,-1224 258.462,-1225.98 261.089,-1227.77 263.837,-1229.38"/>
<polygon fill="midnightblue" stroke="midnightblue" points="262.463,-1232.61 272.969,-1233.98 265.608,-1226.36 262.463,-1232.61"/>
</g>
<!-- Node13 -->
<g id="node25" class="node"><title>Node13</title>
<a xlink:href="cvm-hfa_8c.html#a832239ee7b188265bdacbbfb7e879af1" target="_top" xlink:title="Default function pointer for PP deallocations.">
<polygon fill="white" stroke="black" points="280.5,-1193.5 280.5,-1214.5 397.5,-1214.5 397.5,-1193.5 280.5,-1193.5"/>
<text text-anchor="middle" x="339" y="-1201.5" font-family="FreeSans" font-size="10.00">hfa_defaultfn_ppfree</text>
</a>
</g>
<!-- Node5&#45;&gt;Node13 -->
<g id="edge24" class="edge"><title>Node5&#45;&gt;Node13</title>
<path fill="none" stroke="midnightblue" d="M152.034,-1014.51C161.608,-1045.71 194.266,-1138.47 256,-1184 260.473,-1187.3 265.417,-1190.06 270.597,-1192.37"/>
<polygon fill="midnightblue" stroke="midnightblue" points="269.538,-1195.71 280.127,-1196.06 272.067,-1189.19 269.538,-1195.71"/>
</g>
<!-- Node14 -->
<g id="node27" class="node"><title>Node14</title>
<a xlink:href="cvm-hfa_8c.html#a774451b83b300f862763d189c9758e1f" target="_top" xlink:title="API to set PP buffer size function pointer.">
<polygon fill="white" stroke="black" points="273,-1153.5 273,-1174.5 405,-1174.5 405,-1153.5 273,-1153.5"/>
<text text-anchor="middle" x="339" y="-1161.5" font-family="FreeSans" font-size="10.00">hfa_dev_set_fnp_ppsize</text>
</a>
</g>
<!-- Node5&#45;&gt;Node14 -->
<g id="edge26" class="edge"><title>Node5&#45;&gt;Node14</title>
<path fill="none" stroke="midnightblue" d="M153.978,-1014.77C166.81,-1041.26 203.708,-1109.94 256,-1144 259.101,-1146.02 262.387,-1147.84 265.792,-1149.47"/>
<polygon fill="midnightblue" stroke="midnightblue" points="264.464,-1152.71 275.038,-1153.38 267.19,-1146.26 264.464,-1152.71"/>
</g>
<!-- Node15 -->
<g id="node29" class="node"><title>Node15</title>
<a xlink:href="cvm-hfa_8c.html#a11aab8e30488e4cfc900f60a0dabc784" target="_top" xlink:title="Default function pointer for PP size.">
<polygon fill="white" stroke="black" points="280.5,-1113.5 280.5,-1134.5 397.5,-1134.5 397.5,-1113.5 280.5,-1113.5"/>
<text text-anchor="middle" x="339" y="-1121.5" font-family="FreeSans" font-size="10.00">hfa_defaultfn_ppsize</text>
</a>
</g>
<!-- Node5&#45;&gt;Node15 -->
<g id="edge28" class="edge"><title>Node5&#45;&gt;Node15</title>
<path fill="none" stroke="midnightblue" d="M157.146,-1014.64C173.516,-1035.24 212.571,-1080.61 256,-1104 260.612,-1106.48 265.533,-1108.66 270.589,-1110.57"/>
<polygon fill="midnightblue" stroke="midnightblue" points="269.84,-1114.02 280.434,-1113.93 272.098,-1107.39 269.84,-1114.02"/>
</g>
<!-- Node16 -->
<g id="node31" class="node"><title>Node16</title>
<a xlink:href="cvm-hfa_8c.html#a9a0b038e0d29435cb91a21d9c62806cc" target="_top" xlink:title="API to set PP resource allocator for temporary memory.">
<polygon fill="white" stroke="black" points="270,-1073.5 270,-1094.5 408,-1094.5 408,-1073.5 270,-1073.5"/>
<text text-anchor="middle" x="339" y="-1081.5" font-family="FreeSans" font-size="10.00">hfa_dev_set_fnp_pptalloc</text>
</a>
</g>
<!-- Node5&#45;&gt;Node16 -->
<g id="edge30" class="edge"><title>Node5&#45;&gt;Node16</title>
<path fill="none" stroke="midnightblue" d="M164.632,-1014.59C184.893,-1027.88 221.699,-1050.55 256,-1064 262.304,-1066.47 269.002,-1068.7 275.752,-1070.69"/>
<polygon fill="midnightblue" stroke="midnightblue" points="275.067,-1074.13 285.639,-1073.44 276.941,-1067.39 275.067,-1074.13"/>
</g>
<!-- Node17 -->
<g id="node33" class="node"><title>Node17</title>
<a xlink:href="cvm-hfa_8c.html#a2cbca63c413f08d3861f9b4c2855391f" target="_top" xlink:title="API to set PP resource deallocator for temporary memory.">
<polygon fill="white" stroke="black" points="271.5,-1033.5 271.5,-1054.5 406.5,-1054.5 406.5,-1033.5 271.5,-1033.5"/>
<text text-anchor="middle" x="339" y="-1041.5" font-family="FreeSans" font-size="10.00">hfa_dev_set_fnp_pptfree</text>
</a>
</g>
<!-- Node5&#45;&gt;Node17 -->
<g id="edge32" class="edge"><title>Node5&#45;&gt;Node17</title>
<path fill="none" stroke="midnightblue" d="M186.085,-1011.81C212.476,-1017.36 248.51,-1024.95 278.97,-1031.36"/>
<polygon fill="midnightblue" stroke="midnightblue" points="278.558,-1034.85 289.064,-1033.49 280,-1028 278.558,-1034.85"/>
</g>
<!-- Node18 -->
<g id="node35" class="node"><title>Node18</title>
<a xlink:href="cvm-hfa_8c.html#af0b17e8a09b1f7a1dd438ddcb1e4cd14" target="_top" xlink:title="API to set temporary memory size function pointer.">
<polygon fill="white" stroke="black" points="271.5,-993.5 271.5,-1014.5 406.5,-1014.5 406.5,-993.5 271.5,-993.5"/>
<text text-anchor="middle" x="339" y="-1001.5" font-family="FreeSans" font-size="10.00">hfa_dev_set_fnp_pptsize</text>
</a>
</g>
<!-- Node5&#45;&gt;Node18 -->
<g id="edge34" class="edge"><title>Node5&#45;&gt;Node18</title>
<path fill="none" stroke="midnightblue" d="M186.085,-1004C207.441,-1004 235.111,-1004 261.033,-1004"/>
<polygon fill="midnightblue" stroke="midnightblue" points="261.244,-1007.5 271.244,-1004 261.244,-1000.5 261.244,-1007.5"/>
</g>
<!-- Node19 -->
<g id="node37" class="node"><title>Node19</title>
<a xlink:href="cvm-hfa_8c.html#aa2754afcdd94eb3dcd90c374f779dd24" target="_top" xlink:title="API to set PP resource allocator for match/result buffer.">
<polygon fill="white" stroke="black" points="256,-953.5 256,-974.5 422,-974.5 422,-953.5 256,-953.5"/>
<text text-anchor="middle" x="339" y="-961.5" font-family="FreeSans" font-size="10.00">hfa_dev_set_fnp_ppmatchalloc</text>
</a>
</g>
<!-- Node5&#45;&gt;Node19 -->
<g id="edge36" class="edge"><title>Node5&#45;&gt;Node19</title>
<path fill="none" stroke="midnightblue" d="M186.085,-996.193C212.476,-990.637 248.51,-983.05 278.97,-976.638"/>
<polygon fill="midnightblue" stroke="midnightblue" points="280,-979.998 289.064,-974.513 278.558,-973.148 280,-979.998"/>
</g>
<!-- Node20 -->
<g id="node39" class="node"><title>Node20</title>
<a xlink:href="cvm-hfa_8c.html#ad022f5aec72780af8b36533884693539" target="_top" xlink:title="API to set PP resource deallocator for result/match buf.">
<polygon fill="white" stroke="black" points="257.5,-913.5 257.5,-934.5 420.5,-934.5 420.5,-913.5 257.5,-913.5"/>
<text text-anchor="middle" x="339" y="-921.5" font-family="FreeSans" font-size="10.00">hfa_dev_set_fnp_ppmatchfree</text>
</a>
</g>
<!-- Node5&#45;&gt;Node20 -->
<g id="edge38" class="edge"><title>Node5&#45;&gt;Node20</title>
<path fill="none" stroke="midnightblue" d="M164.632,-993.411C184.893,-980.124 221.699,-957.453 256,-944 262.304,-941.527 269.002,-939.3 275.752,-937.31"/>
<polygon fill="midnightblue" stroke="midnightblue" points="276.941,-940.612 285.639,-934.562 275.067,-933.868 276.941,-940.612"/>
</g>
<!-- Node21 -->
<g id="node41" class="node"><title>Node21</title>
<a xlink:href="cvm-hfa_8c.html#a8b71887165c143e32600513d12f9274f" target="_top" xlink:title="API to set match buffer size function pointer.">
<polygon fill="white" stroke="black" points="257.5,-873.5 257.5,-894.5 420.5,-894.5 420.5,-873.5 257.5,-873.5"/>
<text text-anchor="middle" x="339" y="-881.5" font-family="FreeSans" font-size="10.00">hfa_dev_set_fnp_ppmatchsize</text>
</a>
</g>
<!-- Node5&#45;&gt;Node21 -->
<g id="edge40" class="edge"><title>Node5&#45;&gt;Node21</title>
<path fill="none" stroke="midnightblue" d="M157.146,-993.36C173.516,-972.757 212.571,-927.389 256,-904 260.184,-901.747 264.622,-899.744 269.185,-897.964"/>
<polygon fill="midnightblue" stroke="midnightblue" points="270.416,-901.242 278.684,-894.617 268.089,-894.64 270.416,-901.242"/>
</g>
<!-- Node22 -->
<g id="node43" class="node"><title>Node22</title>
<a xlink:href="cvm-hfa_8c.html#abcc0595aa8b2bb2d6116d600abbf55f8" target="_top" xlink:title="API to set PP error callback.">
<polygon fill="white" stroke="black" points="271,-833.5 271,-854.5 407,-854.5 407,-833.5 271,-833.5"/>
<text text-anchor="middle" x="339" y="-841.5" font-family="FreeSans" font-size="10.00">hfa_dev_set_fnp_pperror</text>
</a>
</g>
<!-- Node5&#45;&gt;Node22 -->
<g id="edge42" class="edge"><title>Node5&#45;&gt;Node22</title>
<path fill="none" stroke="midnightblue" d="M153.978,-993.234C166.81,-966.739 203.708,-898.061 256,-864 259.101,-861.98 262.387,-860.164 265.792,-858.531"/>
<polygon fill="midnightblue" stroke="midnightblue" points="267.19,-861.74 275.038,-854.622 264.464,-855.292 267.19,-861.74"/>
</g>
<!-- Node23 -->
<g id="node45" class="node"><title>Node23</title>
<a xlink:href="cvm-hfa_8c.html#ac115556b315ff135ed2fd059cdf7d066" target="_top" xlink:title="Default function pointer for PP errors.">
<polygon fill="white" stroke="black" points="283.5,-793.5 283.5,-814.5 394.5,-814.5 394.5,-793.5 283.5,-793.5"/>
<text text-anchor="middle" x="339" y="-801.5" font-family="FreeSans" font-size="10.00">hfa_defaultfn_pperr</text>
</a>
</g>
<!-- Node5&#45;&gt;Node23 -->
<g id="edge44" class="edge"><title>Node5&#45;&gt;Node23</title>
<path fill="none" stroke="midnightblue" d="M152.034,-993.49C161.608,-962.287 194.266,-869.53 256,-824 261.245,-820.132 267.137,-817.002 273.298,-814.472"/>
<polygon fill="midnightblue" stroke="midnightblue" points="274.9,-817.617 283.149,-810.969 272.554,-811.022 274.9,-817.617"/>
</g>
<!-- Node25 -->
<g id="node49" class="node"><title>Node25</title>
<a xlink:href="cvm-hfa-graph_8c.html#a80a6427d5a90c7bd1e4cbfd62a808524" target="_top" xlink:title="This routine initializes a graph object which can be used to perform various operations on a graph fi...">
<polygon fill="white" stroke="black" points="285.5,-633.5 285.5,-654.5 392.5,-654.5 392.5,-633.5 285.5,-633.5"/>
<text text-anchor="middle" x="339" y="-641.5" font-family="FreeSans" font-size="10.00">hfa_dev_graph_init</text>
</a>
</g>
<!-- Node24&#45;&gt;Node25 -->
<g id="edge48" class="edge"><title>Node24&#45;&gt;Node25</title>
<path fill="none" stroke="midnightblue" d="M157.172,-535.53C173.586,-555.922 212.715,-600.828 256,-624 262.058,-627.243 268.644,-629.967 275.368,-632.255"/>
<polygon fill="midnightblue" stroke="midnightblue" points="274.685,-635.706 285.272,-635.302 276.744,-629.016 274.685,-635.706"/>
</g>
<!-- Node26 -->
<g id="node51" class="node"><title>Node26</title>
<a xlink:href="cvm-hfa-graph_8c.html#a32df4a93ffcd7da232613b13204b2a80" target="_top" xlink:title="This routine sets the cluster&#45;mask for the graph.">
<polygon fill="white" stroke="black" points="280.5,-593.5 280.5,-614.5 397.5,-614.5 397.5,-593.5 280.5,-593.5"/>
<text text-anchor="middle" x="339" y="-601.5" font-family="FreeSans" font-size="10.00">hfa_graph_setcluster</text>
</a>
</g>
<!-- Node24&#45;&gt;Node26 -->
<g id="edge50" class="edge"><title>Node24&#45;&gt;Node26</title>
<path fill="none" stroke="midnightblue" d="M165.014,-535.624C185.376,-548.704 221.985,-570.799 256,-584 262.406,-586.486 269.214,-588.728 276.068,-590.732"/>
<polygon fill="midnightblue" stroke="midnightblue" points="275.53,-594.214 286.101,-593.499 277.391,-587.466 275.53,-594.214"/>
</g>
<!-- Node27 -->
<g id="node53" class="node"><title>Node27</title>
<a xlink:href="app-utils_8c.html#aed95bb72627cff313c596ebcfcd8af61" target="_top" xlink:title="Parse graph into chunks and load graph to HFA memory.">
<polygon fill="white" stroke="red" points="271.5,-553.5 271.5,-574.5 406.5,-574.5 406.5,-553.5 271.5,-553.5"/>
<text text-anchor="middle" x="339" y="-561.5" font-family="FreeSans" font-size="10.00">hfautils_download_graph</text>
</a>
</g>
<!-- Node24&#45;&gt;Node27 -->
<g id="edge52" class="edge"><title>Node24&#45;&gt;Node27</title>
<path fill="none" stroke="midnightblue" d="M183.849,-532.153C210.046,-537.531 246.611,-545.036 277.664,-551.41"/>
<polygon fill="midnightblue" stroke="midnightblue" points="277.033,-554.853 287.532,-553.436 278.44,-547.996 277.033,-554.853"/>
</g>
<!-- Node28 -->
<g id="node55" class="node"><title>Node28</title>
<a xlink:href="cvm-hfa-graph_8c.html#a0f2f13fb51e5d56dcf049ff3c7c6ad78" target="_top" xlink:title="This routine is used to check the status of the graph.">
<polygon fill="white" stroke="red" points="467,-533.5 467,-554.5 581,-554.5 581,-533.5 467,-533.5"/>
<text text-anchor="middle" x="524" y="-541.5" font-family="FreeSans" font-size="10.00">hfa_graph_getstatus</text>
</a>
</g>
<!-- Node24&#45;&gt;Node28 -->
<g id="edge58" class="edge"><title>Node24&#45;&gt;Node28</title>
<path fill="none" stroke="midnightblue" d="M183.607,-526.753C245.595,-529.894 376.57,-536.53 456.763,-540.593"/>
<polygon fill="midnightblue" stroke="midnightblue" points="456.601,-544.089 466.765,-541.1 456.955,-537.098 456.601,-544.089"/>
</g>
<!-- Node29 -->
<g id="node57" class="node"><title>Node29</title>
<a xlink:href="cvm-hfa-graph_8c.html#aa296e0c6b36b3d5b4f8e01c2fe765bed" target="_top" xlink:title="This routine is used to cacheload a cacheable graph in a non&#45;blocking manner.">
<polygon fill="white" stroke="red" points="279,-463 279,-497 399,-497 399,-463 279,-463"/>
<text text-anchor="start" x="287" y="-484" font-family="FreeSans" font-size="10.00">hfa_graph_cacheload</text>
<text text-anchor="middle" x="339" y="-471" font-family="FreeSans" font-size="10.00">_async</text>
</a>
</g>
<!-- Node24&#45;&gt;Node29 -->
<g id="edge56" class="edge"><title>Node24&#45;&gt;Node29</title>
<path fill="none" stroke="midnightblue" d="M183.849,-516.746C207.615,-511.117 239.914,-503.468 268.89,-496.605"/>
<polygon fill="midnightblue" stroke="midnightblue" points="270.056,-499.926 278.981,-494.215 268.443,-493.114 270.056,-499.926"/>
</g>
<!-- Node30 -->
<g id="node60" class="node"><title>Node30</title>
<a xlink:href="cvm-hfa-graph_8c.html#a5e79919f5903d97aee5e82bfc7e71597" target="_top" xlink:title="This routine is the counterpart of hfa_dev_graph_init().">
<polygon fill="white" stroke="black" points="273,-423.5 273,-444.5 405,-444.5 405,-423.5 273,-423.5"/>
<text text-anchor="middle" x="339" y="-431.5" font-family="FreeSans" font-size="10.00">hfa_dev_graph_cleanup</text>
</a>
</g>
<!-- Node24&#45;&gt;Node30 -->
<g id="edge60" class="edge"><title>Node24&#45;&gt;Node30</title>
<path fill="none" stroke="midnightblue" d="M161.646,-514.441C180.838,-498.942 219.011,-470.127 256,-454 261.484,-451.609 267.301,-449.475 273.211,-447.576"/>
<polygon fill="midnightblue" stroke="midnightblue" points="274.618,-450.809 283.201,-444.599 272.618,-444.101 274.618,-450.809"/>
</g>
<!-- Node27&#45;&gt;Node28 -->
<g id="edge54" class="edge"><title>Node27&#45;&gt;Node28</title>
<path fill="none" stroke="midnightblue" d="M406.575,-556.695C422.986,-554.92 440.529,-553.024 456.918,-551.252"/>
<polygon fill="midnightblue" stroke="midnightblue" points="457.387,-554.722 466.953,-550.167 456.635,-547.762 457.387,-554.722"/>
</g>
<!-- Node33 -->
<g id="node66" class="node"><title>Node33</title>
<a xlink:href="cvm-hfa-module_8c.html#a88fc7baac8574ccd76a0f0e03fe46a14" target="_top" xlink:title="hfa_oct_fill_hw_memory &#45; fill a hardware pool with memory.">
<polygon fill="white" stroke="black" points="272,-291.5 272,-312.5 406,-312.5 406,-291.5 272,-291.5"/>
<text text-anchor="middle" x="339" y="-299.5" font-family="FreeSans" font-size="10.00">hfa_oct_fill_hw_memory</text>
</a>
</g>
<!-- Node32&#45;&gt;Node33 -->
<g id="edge66" class="edge"><title>Node32&#45;&gt;Node33</title>
<path fill="none" stroke="midnightblue" d="M206.006,-292.9C223.437,-294.093 242.912,-295.426 261.466,-296.695"/>
<polygon fill="midnightblue" stroke="midnightblue" points="261.444,-300.202 271.66,-297.393 261.922,-293.218 261.444,-300.202"/>
</g>
<!-- Node34 -->
<g id="node68" class="node"><title>Node34</title>
<a xlink:href="cvm-hfa-module_8c.html#a6da5324c911912f256ffdd8822f1e911" target="_top" xlink:title="hfa_oct_free_hw_memory &#45; Free memory allocated by cvm_oct_fill_hw_memory">
<polygon fill="white" stroke="black" points="267.5,-251.5 267.5,-272.5 410.5,-272.5 410.5,-251.5 267.5,-251.5"/>
<text text-anchor="middle" x="339" y="-259.5" font-family="FreeSans" font-size="10.00">hfa_oct_free_hw_memory</text>
</a>
</g>
<!-- Node32&#45;&gt;Node34 -->
<g id="edge68" class="edge"><title>Node32&#45;&gt;Node34</title>
<path fill="none" stroke="midnightblue" d="M206.006,-280.899C222.088,-278.614 239.909,-276.081 257.142,-273.632"/>
<polygon fill="midnightblue" stroke="midnightblue" points="257.795,-277.075 267.203,-272.203 256.81,-270.145 257.795,-277.075"/>
</g>
<!-- Node35 -->
<g id="node70" class="node"><title>Node35</title>
<a xlink:href="cvmx-hfa_8c.html#a435a75ee9c8cd0df4249e8bfe76c0de5" target="_top" xlink:title="hfa_bootmem_alloc">
<polygon fill="white" stroke="black" points="283.5,-211.5 283.5,-232.5 394.5,-232.5 394.5,-211.5 283.5,-211.5"/>
<text text-anchor="middle" x="339" y="-219.5" font-family="FreeSans" font-size="10.00">hfa_bootmem_alloc</text>
</a>
</g>
<!-- Node32&#45;&gt;Node35 -->
<g id="edge70" class="edge"><title>Node32&#45;&gt;Node35</title>
<path fill="none" stroke="midnightblue" d="M195.754,-278.491C204.034,-275.888 212.423,-272.745 220,-269 237.93,-260.138 237.905,-250.518 256,-242 261.632,-239.349 267.651,-237.029 273.777,-235.003"/>
<polygon fill="midnightblue" stroke="midnightblue" points="274.905,-238.318 283.452,-232.057 272.866,-231.622 274.905,-238.318"/>
</g>
<!-- Node39 -->
<g id="node78" class="node"><title>Node39</title>
<a xlink:href="cvm-hfa-search_8c.html#a64ba7a41c7d677da10e588a58789015b" target="_top" xlink:title="This routine initializes a Search Context.">
<polygon fill="white" stroke="red" points="460.5,-140.5 460.5,-161.5 587.5,-161.5 587.5,-140.5 460.5,-140.5"/>
<text text-anchor="middle" x="524" y="-148.5" font-family="FreeSans" font-size="10.00">hfa_dev_searchctx_init</text>
</a>
</g>
<!-- Node38&#45;&gt;Node39 -->
<g id="edge78" class="edge"><title>Node38&#45;&gt;Node39</title>
<path fill="none" stroke="midnightblue" d="M377.262,-97.9494C391.562,-101.133 407.776,-105.454 422,-111 439.053,-117.649 441.146,-123.861 458,-131 463.168,-133.189 468.656,-135.247 474.174,-137.148"/>
<polygon fill="midnightblue" stroke="midnightblue" points="473.483,-140.605 484.075,-140.396 475.664,-133.954 473.483,-140.605"/>
</g>
<!-- Node40 -->
<g id="node80" class="node"><title>Node40</title>
<a xlink:href="cvm-hfa-search_8c.html#a954753c0e6f4a59599d05f1262a25b38" target="_top" xlink:title="This routine associates a graph with sctx.">
<polygon fill="white" stroke="red" points="458,-100.5 458,-121.5 590,-121.5 590,-100.5 458,-100.5"/>
<text text-anchor="middle" x="524" y="-108.5" font-family="FreeSans" font-size="10.00">hfa_searchctx_setgraph</text>
</a>
</g>
<!-- Node38&#45;&gt;Node40 -->
<g id="edge80" class="edge"><title>Node38&#45;&gt;Node40</title>
<path fill="none" stroke="midnightblue" d="M377.332,-95.144C397.613,-97.3365 423.257,-100.109 447.41,-102.72"/>
<polygon fill="midnightblue" stroke="midnightblue" points="447.331,-106.232 457.65,-103.827 448.084,-99.2724 447.331,-106.232"/>
</g>
<!-- Node41 -->
<g id="node82" class="node"><title>Node41</title>
<a xlink:href="cvm-hfa-search_8c.html#a60c8025118f6a47f924733e47db8c77d" target="_top" xlink:title="This routine is used to specify settings used during the search and getmatches API.">
<polygon fill="white" stroke="red" points="460,-60.5 460,-81.5 588,-81.5 588,-60.5 460,-60.5"/>
<text text-anchor="middle" x="524" y="-68.5" font-family="FreeSans" font-size="10.00">hfa_searchctx_setflags</text>
</a>
</g>
<!-- Node38&#45;&gt;Node41 -->
<g id="edge82" class="edge"><title>Node38&#45;&gt;Node41</title>
<path fill="none" stroke="midnightblue" d="M377.332,-86.856C398.261,-84.5934 424.903,-81.7132 449.723,-79.03"/>
<polygon fill="midnightblue" stroke="midnightblue" points="450.292,-82.4889 459.858,-77.9343 449.539,-75.5295 450.292,-82.4889"/>
</g>
<!-- Node44 -->
<g id="node88" class="node"><title>Node44</title>
<a xlink:href="cvm-hfa-common_8h.html#ab6b5a9b432c71164f1c1aaa4db029031" target="_top" xlink:title="This routine is for getting WQE type.">
<polygon fill="white" stroke="black" points="287,-0.5 287,-21.5 391,-21.5 391,-0.5 287,-0.5"/>
<text text-anchor="middle" x="339" y="-8.5" font-family="FreeSans" font-size="10.00">hfa_get_wqe_type</text>
</a>
</g>
<!-- Node43&#45;&gt;Node44 -->
<g id="edge88" class="edge"><title>Node43&#45;&gt;Node44</title>
<path fill="none" stroke="midnightblue" d="M196.455,-41.0095C221.406,-35.7567 252.252,-29.2628 278.861,-23.6608"/>
<polygon fill="midnightblue" stroke="midnightblue" points="279.767,-27.047 288.831,-21.5619 278.325,-20.1971 279.767,-27.047"/>
</g>
<!-- Node45 -->
<g id="node90" class="node"><title>Node45</title>
<a xlink:href="cvm-hfa-search_8c.html#a4e3a1a826235d80899e23fb44c69eb0f" target="_top" xlink:title="This routine handles HFA WQE posted by HFA engine to indicate instruction completion.">
<polygon fill="white" stroke="black" points="263.5,-40.5 263.5,-61.5 414.5,-61.5 414.5,-40.5 263.5,-40.5"/>
<text text-anchor="middle" x="339" y="-48.5" font-family="FreeSans" font-size="10.00">hfa_searchctx_processwork</text>
</a>
</g>
<!-- Node43&#45;&gt;Node45 -->
<g id="edge90" class="edge"><title>Node43&#45;&gt;Node45</title>
<path fill="none" stroke="midnightblue" d="M196.455,-51C213.677,-51 233.708,-51 253.216,-51"/>
<polygon fill="midnightblue" stroke="midnightblue" points="253.353,-54.5001 263.352,-51 253.352,-47.5001 253.353,-54.5001"/>
</g>
<!-- Node47 -->
<g id="node94" class="node"><title>Node47</title>
<a xlink:href="hfa-lnx-async_8c.html#a972f8b60ef804914c009c2ef85bac50e" target="_top" xlink:title="Process search for given payload and graph.">
<polygon fill="white" stroke="red" points="293,-120.5 293,-141.5 385,-141.5 385,-120.5 293,-120.5"/>
<text text-anchor="middle" x="339" y="-128.5" font-family="FreeSans" font-size="10.00">process_search</text>
</a>
</g>
<!-- Node46&#45;&gt;Node47 -->
<g id="edge94" class="edge"><title>Node46&#45;&gt;Node47</title>
<path fill="none" stroke="midnightblue" d="M195.479,-159.704C221.8,-154.44 254.913,-147.817 282.698,-142.26"/>
<polygon fill="midnightblue" stroke="midnightblue" points="283.552,-145.659 292.672,-140.266 282.179,-138.795 283.552,-145.659"/>
</g>
<!-- Node47&#45;&gt;Node39 -->
<g id="edge96" class="edge"><title>Node47&#45;&gt;Node39</title>
<path fill="none" stroke="midnightblue" d="M385.206,-135.995C404.882,-138.122 428.322,-140.656 450.287,-143.031"/>
<polygon fill="midnightblue" stroke="midnightblue" points="449.938,-146.514 460.257,-144.109 450.691,-139.554 449.938,-146.514"/>
</g>
<!-- Node47&#45;&gt;Node40 -->
<g id="edge98" class="edge"><title>Node47&#45;&gt;Node40</title>
<path fill="none" stroke="midnightblue" d="M385.206,-126.005C404.146,-123.957 426.575,-121.532 447.819,-119.236"/>
<polygon fill="midnightblue" stroke="midnightblue" points="448.238,-122.711 457.804,-118.156 447.485,-115.752 448.238,-122.711"/>
</g>
<!-- Node47&#45;&gt;Node41 -->
<g id="edge100" class="edge"><title>Node47&#45;&gt;Node41</title>
<path fill="none" stroke="midnightblue" d="M385.346,-122.172C397.476,-119.231 410.4,-115.523 422,-111 439.053,-104.351 441.146,-98.1389 458,-91 463.168,-88.811 468.656,-86.7531 474.174,-84.8517"/>
<polygon fill="midnightblue" stroke="midnightblue" points="475.664,-88.0463 484.075,-81.6036 473.483,-81.395 475.664,-88.0463"/>
</g>
<!-- Node48&#45;&gt;Node47 -->
<g id="edge104" class="edge"><title>Node48&#45;&gt;Node47</title>
<path fill="none" stroke="midnightblue" d="M195.479,-129.489C221.684,-129.765 254.622,-130.112 282.332,-130.403"/>
<polygon fill="midnightblue" stroke="midnightblue" points="282.635,-133.907 292.672,-130.512 282.709,-126.907 282.635,-133.907"/>
</g>
<!-- Node49&#45;&gt;Node30 -->
<g id="edge112" class="edge"><title>Node49&#45;&gt;Node30</title>
<path fill="none" stroke="midnightblue" d="M176.222,-410.868C198.809,-414.078 232.061,-418.803 262.633,-423.148"/>
<polygon fill="midnightblue" stroke="midnightblue" points="262.486,-426.662 272.879,-424.604 263.47,-419.732 262.486,-426.662"/>
</g>
<!-- Node49&#45;&gt;Node42 -->
<g id="edge108" class="edge"><title>Node49&#45;&gt;Node42</title>
<path fill="none" stroke="midnightblue" d="M176.222,-398.547C201.718,-390.63 240.804,-378.492 274.286,-368.096"/>
<polygon fill="midnightblue" stroke="midnightblue" points="275.506,-371.381 284.018,-365.073 273.43,-364.696 275.506,-371.381"/>
</g>
<!-- Node50 -->
<g id="node105" class="node"><title>Node50</title>
<a xlink:href="hfa-se-wqe-lock_8c.html#ad424f3eba8cf857dc801ee7c1cf580e5" target="_top" xlink:title="Cleanup memory allocated for context.">
<polygon fill="white" stroke="red" points="295.5,-383.5 295.5,-404.5 382.5,-404.5 382.5,-383.5 295.5,-383.5"/>
<text text-anchor="middle" x="339" y="-391.5" font-family="FreeSans" font-size="10.00">ctxdb_cleanup</text>
</a>
</g>
<!-- Node49&#45;&gt;Node50 -->
<g id="edge110" class="edge"><title>Node49&#45;&gt;Node50</title>
<path fill="none" stroke="midnightblue" d="M176.222,-405.137C204.52,-403.201 249.559,-400.12 285.095,-397.688"/>
<polygon fill="midnightblue" stroke="midnightblue" points="285.577,-401.164 295.315,-396.989 285.1,-394.18 285.577,-401.164"/>
</g>
</g>
</svg>
        <g id="navigator" transform="translate(0 0)" fill="#404254">
                <rect fill="#f2f5e9" fill-opacity="0.5" stroke="#606060" stroke-width=".5" x="0" y="0" width="60" height="60"/>
                <use id="zoomplus" xlink:href="#zoomPlus" x="17" y="9" onmousedown="handleZoom(evt,'in')"/>
                <use id="zoomminus" xlink:href="#zoomMin" x="42" y="9" onmousedown="handleZoom(evt,'out')"/>
                <use id="reset" xlink:href="#resetDef" x="30" y="36" onmousedown="handleReset()"/>
                <g id="arrowUp" xlink:href="#dirArrow" transform="translate(30 24)" onmousedown="handlePan(0,-1)">
                  <use xlink:href="#rim" fill="#404040">
                        <set attributeName="fill" to="#808080" begin="arrowUp.mouseover" end="arrowUp.mouseout"/>
                  </use>
                  <path fill="none" stroke="white" stroke-width="1.5" d="M0,-3.0v7 M-2.5,-0.5L0,-3.0L2.5,-0.5"/>
                </g>
                <g id="arrowRight" xlink:href="#dirArrow" transform="rotate(90) translate(36 -43)" onmousedown="handlePan(1,0)">
                  <use xlink:href="#rim" fill="#404040">
                        <set attributeName="fill" to="#808080" begin="arrowRight.mouseover" end="arrowRight.mouseout"/>
                  </use>
                  <path fill="none" stroke="white" stroke-width="1.5" d="M0,-3.0v7 M-2.5,-0.5L0,-3.0L2.5,-0.5"/>
                </g>
                <g id="arrowDown" xlink:href="#dirArrow" transform="rotate(180) translate(-30 -48)" onmousedown="handlePan(0,1)">
                  <use xlink:href="#rim" fill="#404040">
                        <set attributeName="fill" to="#808080" begin="arrowDown.mouseover" end="arrowDown.mouseout"/>
                  </use>
                  <path fill="none" stroke="white" stroke-width="1.5" d="M0,-3.0v7 M-2.5,-0.5L0,-3.0L2.5,-0.5"/>
                </g>
                <g id="arrowLeft" xlink:href="#dirArrow" transform="rotate(270) translate(-36 17)" onmousedown="handlePan(-1,0)">
                  <use xlink:href="#rim" fill="#404040">
                        <set attributeName="fill" to="#808080" begin="arrowLeft.mouseover" end="arrowLeft.mouseout"/>
                  </use>
                  <path fill="none" stroke="white" stroke-width="1.5" d="M0,-3.0v7 M-2.5,-0.5L0,-3.0L2.5,-0.5"/>
                </g>
        </g>
        <svg viewBox="0 0 15 15" width="100%" height="30px" preserveAspectRatio="xMaxYMin meet">
         <g id="arrow_out" transform="scale(0.3 0.3)">
          <a xlink:href="hfa-lnx-wqe-lock_8c_a78ffddbcd7cdd164889cfb53ea367886_cgraph_org.svg" target="_base">
           <rect id="button" ry="5" rx="5" y="6" x="6" height="38" width="38"
                fill="#f2f5e9" fill-opacity="0.5" stroke="#606060" stroke-width="1.0"/>
           <path id="arrow"
             d="M 11.500037,31.436501 C 11.940474,20.09759 22.043105,11.32322 32.158766,21.979434 L 37.068811,17.246167 C 37.068811,17.246167 37.088388,32 37.088388,32 L 22.160133,31.978069 C 22.160133,31.978069 26.997745,27.140456 26.997745,27.140456 C 18.528582,18.264221 13.291696,25.230495 11.500037,31.436501 z"
             style="fill:#404040;"/>
          </a>
         </g>
        </svg>
</svg>
