<?xml version="1.0" encoding="UTF-8" standalone="no"?>
<!DOCTYPE svg PUBLIC "-//W3C//DTD SVG 1.1//EN"
 "http://www.w3.org/Graphics/SVG/1.1/DTD/svg11.dtd">
<!-- Generated by graphviz version 2.24.0 (20090616.2323)
 -->
<!-- Title: main Pages: 1 -->
<!--zoomable 1636 -->
<svg id="main" version="1.1" xmlns="http://www.w3.org/2000/svg" xmlns:xlink="http://www.w3.org/1999/xlink" xml:space="preserve" onload="init(evt)">
        <defs>
                <circle id="rim" cx="0" cy="0" r="7"/>
                <circle id="rim2" cx="0" cy="0" r="3.5"/>
                <g id="zoomPlus">
                        <use xlink:href="#rim" fill="#404040">
                                <set attributeName="fill" to="#808080" begin="zoomplus.mouseover" end="zoomplus.mouseout"/>
                        </use>
                        <path d="M-4,0h8M0,-4v8" fill="none" stroke="white" stroke-width="1.5" pointer-events="none"/>
                </g>
                <g id="zoomMin">
                        <use xlink:href="#rim" fill="#404040">
                                <set attributeName="fill" to="#808080" begin="zoomminus.mouseover" end="zoomminus.mouseout"/>
                        </use>
                        <path d="M-4,0h8" fill="none" stroke="white" stroke-width="1.5" pointer-events="none"/>
                </g>
                <g id="dirArrow">
                        <path fill="none" stroke="white" stroke-width="1.5" d="M0,-3.0v7 M-2.5,-0.5L0,-3.0L2.5,-0.5"/>
                </g>
               <g id="resetDef">
                       <use xlink:href="#rim2" fill="#404040">
                               <set attributeName="fill" to="#808080" begin="reset.mouseover" end="reset.mouseout"/>
                       </use>
               </g>
        </defs>

<script type="text/javascript">
var viewWidth = 598;
var viewHeight = 1636;
var sectionId = 'dynsection-8';
</script>
<script xlink:href="svgpan.js"/>
<svg id="graph" class="graph">
<g id="viewport">
<title>main</title>
<polygon fill="white" stroke="white" points="-4,5 -4,-1632 595,-1632 595,5 -4,5"/>
<!-- Node1 -->
<g id="node1" class="node"><title>Node1</title>
<polygon fill="#bfbfbf" stroke="black" points="0,-538.5 0,-559.5 40,-559.5 40,-538.5 0,-538.5"/>
<text text-anchor="middle" x="20" y="-546.5" font-family="FreeSans" font-size="10.00">main</text>
</g>
<!-- Node2 -->
<g id="node3" class="node"><title>Node2</title>
<a xlink:href="app-utils_8c.html#a4ef3fc7ca0729733044bc1430922cb2f" target="_top" xlink:title="Register signal handler for SIGINT(CTRL&#45;C).">
<polygon fill="white" stroke="black" points="76.5,-1586.5 76.5,-1607.5 237.5,-1607.5 237.5,-1586.5 76.5,-1586.5"/>
<text text-anchor="middle" x="157" y="-1594.5" font-family="FreeSans" font-size="10.00">hfautils_register_signalhandler</text>
</a>
</g>
<!-- Node1&#45;&gt;Node2 -->
<g id="edge2" class="edge"><title>Node1&#45;&gt;Node2</title>
<path fill="none" stroke="midnightblue" d="M20.059,-559.656C20.6879,-660.586 27.1409,-1446.48 76,-1537 86.5467,-1556.54 106.537,-1571.45 124.019,-1581.52"/>
<polygon fill="midnightblue" stroke="midnightblue" points="122.413,-1584.63 132.868,-1586.34 125.763,-1578.48 122.413,-1584.63"/>
</g>
<!-- Node4 -->
<g id="node7" class="node"><title>Node4</title>
<a xlink:href="hfa-se-wqe_8c.html#ab42726e951c529a41b8e09fd6e84ada2" target="_top" xlink:title="Process command line options.">
<polygon fill="white" stroke="black" points="110,-1506.5 110,-1527.5 204,-1527.5 204,-1506.5 110,-1506.5"/>
<text text-anchor="middle" x="157" y="-1514.5" font-family="FreeSans" font-size="10.00">process_options</text>
</a>
</g>
<!-- Node1&#45;&gt;Node4 -->
<g id="edge6" class="edge"><title>Node1&#45;&gt;Node4</title>
<path fill="none" stroke="midnightblue" d="M20.6359,-559.504C24.162,-616.371 42.3802,-893.091 76,-1117 97.9913,-1263.46 138.073,-1437.43 152.041,-1496.33"/>
<polygon fill="midnightblue" stroke="midnightblue" points="148.682,-1497.34 154.404,-1506.25 155.491,-1495.71 148.682,-1497.34"/>
</g>
<!-- Node8 -->
<g id="node15" class="node"><title>Node8</title>
<a xlink:href="cvm-hfa_8c.html#a873768042b716d60996ec5d858fc8fd9" target="_top" xlink:title="This function must be called by application to initialize HFA engine and setup resources for HFA hard...">
<polygon fill="white" stroke="black" points="120,-1086.5 120,-1107.5 194,-1107.5 194,-1086.5 120,-1086.5"/>
<text text-anchor="middle" x="157" y="-1094.5" font-family="FreeSans" font-size="10.00">hfa_dev_init</text>
</a>
</g>
<!-- Node1&#45;&gt;Node8 -->
<g id="edge14" class="edge"><title>Node1&#45;&gt;Node8</title>
<path fill="none" stroke="midnightblue" d="M22.7366,-559.947C39.607,-627.428 129.491,-986.965 151.924,-1076.7"/>
<polygon fill="midnightblue" stroke="midnightblue" points="148.548,-1077.62 154.369,-1086.48 155.339,-1075.93 148.548,-1077.62"/>
</g>
<!-- Node27 -->
<g id="node53" class="node"><title>Node27</title>
<a xlink:href="hfa-se-wqe_8c.html#a546f3769e735d4bef0bfab1cba56921c" target="_top" xlink:title="Load graph into HFA memory and cache.">
<polygon fill="white" stroke="black" points="122.5,-607.5 122.5,-628.5 191.5,-628.5 191.5,-607.5 122.5,-607.5"/>
<text text-anchor="middle" x="157" y="-615.5" font-family="FreeSans" font-size="10.00">graph_load</text>
</a>
</g>
<!-- Node1&#45;&gt;Node27 -->
<g id="edge52" class="edge"><title>Node1&#45;&gt;Node27</title>
<path fill="none" stroke="midnightblue" d="M29.2196,-559.643C39.5138,-570.852 57.2121,-588.208 76,-598 87.139,-603.805 100.026,-607.973 112.199,-610.946"/>
<polygon fill="midnightblue" stroke="midnightblue" points="111.68,-614.416 122.202,-613.171 113.201,-607.583 111.68,-614.416"/>
</g>
<!-- Node34 -->
<g id="node68" class="node"><title>Node34</title>
<a xlink:href="app-utils_8c.html#aefd985776fb6437d808b08aedd91e709" target="_top" xlink:title="Initialize WQE, IBUF and PKO fpa pools.">
<polygon fill="white" stroke="black" points="110,-555 110,-589 204,-589 204,-555 110,-555"/>
<text text-anchor="start" x="118" y="-576" font-family="FreeSans" font-size="10.00">hfautils_initialize</text>
<text text-anchor="middle" x="157" y="-563" font-family="FreeSans" font-size="10.00">_wqepool</text>
</a>
</g>
<!-- Node1&#45;&gt;Node34 -->
<g id="edge68" class="edge"><title>Node1&#45;&gt;Node34</title>
<path fill="none" stroke="midnightblue" d="M40.2148,-552.394C55.9573,-555.037 78.6226,-558.842 99.8046,-562.398"/>
<polygon fill="midnightblue" stroke="midnightblue" points="99.282,-565.859 109.723,-564.063 100.441,-558.956 99.282,-565.859"/>
</g>
<!-- Node35 -->
<g id="node70" class="node"><title>Node35</title>
<a xlink:href="hfa-se-wqe_8c.html#af83136a23f35cac6269b0e552fc58de6" target="_top" xlink:title="Initializes the search context object of each context.">
<polygon fill="white" stroke="black" points="119,-455.5 119,-476.5 195,-476.5 195,-455.5 119,-455.5"/>
<text text-anchor="middle" x="157" y="-463.5" font-family="FreeSans" font-size="10.00">Initialize_Ctx</text>
</a>
</g>
<!-- Node1&#45;&gt;Node35 -->
<g id="edge70" class="edge"><title>Node1&#45;&gt;Node35</title>
<path fill="none" stroke="midnightblue" d="M32.3856,-538.351C43.4059,-529.159 60.1822,-515.846 76,-506 90.9638,-496.686 108.4,-487.841 123.253,-480.848"/>
<polygon fill="midnightblue" stroke="midnightblue" points="124.98,-483.906 132.589,-476.534 122.043,-477.551 124.98,-483.906"/>
</g>
<!-- Node39 -->
<g id="node78" class="node"><title>Node39</title>
<a xlink:href="hfa-se-wqe_8c.html#acd4b8cfda13d4db8fa54b6b6be8e538c" target="_top" xlink:title="process_nctx">
<polygon fill="white" stroke="red" points="117,-224.5 117,-245.5 197,-245.5 197,-224.5 117,-224.5"/>
<text text-anchor="middle" x="157" y="-232.5" font-family="FreeSans" font-size="10.00">process_nctx</text>
</a>
</g>
<!-- Node1&#45;&gt;Node39 -->
<g id="edge78" class="edge"><title>Node1&#45;&gt;Node39</title>
<path fill="none" stroke="midnightblue" d="M24.7159,-538.191C44.6419,-492.521 122.11,-314.967 148.295,-254.951"/>
<polygon fill="midnightblue" stroke="midnightblue" points="151.513,-256.328 152.304,-245.763 145.097,-253.529 151.513,-256.328"/>
</g>
<!-- Node48 -->
<g id="node96" class="node"><title>Node48</title>
<a xlink:href="app-utils_8c.html#a1f92c93fe820ec9fc9f4d8e993883b05" target="_top" xlink:title="This routine is counter part of hfautils_init_payload_attributes().">
<polygon fill="white" stroke="black" points="288,-0 288,-34 426,-34 426,-0 288,-0"/>
<text text-anchor="start" x="296" y="-21" font-family="FreeSans" font-size="10.00">hfautils_cleanup_payload</text>
<text text-anchor="middle" x="357" y="-8" font-family="FreeSans" font-size="10.00">_attributes</text>
</a>
</g>
<!-- Node1&#45;&gt;Node48 -->
<g id="edge98" class="edge"><title>Node1&#45;&gt;Node48</title>
<path fill="none" stroke="midnightblue" d="M20.4392,-538.47C22.8616,-484.4 35.9693,-238.047 76,-175 122.536,-101.708 215.849,-59.2251 282.165,-37.1247"/>
<polygon fill="midnightblue" stroke="midnightblue" points="283.316,-40.4307 291.744,-34.0106 281.152,-33.7736 283.316,-40.4307"/>
</g>
<!-- Node49 -->
<g id="node99" class="node"><title>Node49</title>
<a xlink:href="hfa-se-wqe_8c.html#ab846ebf81c4fbc23cfe854940c82d8e8" target="_top" xlink:title="Cleanup memory allocated for context.">
<polygon fill="white" stroke="red" points="119.5,-184.5 119.5,-205.5 194.5,-205.5 194.5,-184.5 119.5,-184.5"/>
<text text-anchor="middle" x="157" y="-192.5" font-family="FreeSans" font-size="10.00">cleanup_ctx</text>
</a>
</g>
<!-- Node1&#45;&gt;Node49 -->
<g id="edge100" class="edge"><title>Node1&#45;&gt;Node49</title>
<path fill="none" stroke="midnightblue" d="M20.2663,-538.322C21.7711,-486.726 30.8381,-263.729 76,-215 84.7015,-205.611 97.0482,-200.321 109.486,-197.419"/>
<polygon fill="midnightblue" stroke="midnightblue" points="110.223,-200.842 119.413,-195.571 108.942,-193.96 110.223,-200.842"/>
</g>
<!-- Node50 -->
<g id="node101" class="node"><title>Node50</title>
<a xlink:href="hfa-se-wqe_8c.html#acd9e54f020b77f14d54c200b65423a15" target="_top" xlink:title="Application cleanup will be done by this routine.">
<polygon fill="white" stroke="red" points="130,-515.5 130,-536.5 184,-536.5 184,-515.5 130,-515.5"/>
<text text-anchor="middle" x="157" y="-523.5" font-family="FreeSans" font-size="10.00">cleanup</text>
</a>
</g>
<!-- Node1&#45;&gt;Node50 -->
<g id="edge102" class="edge"><title>Node1&#45;&gt;Node50</title>
<path fill="none" stroke="midnightblue" d="M40.2148,-545.606C61.0178,-542.114 93.9094,-536.592 119.493,-532.297"/>
<polygon fill="midnightblue" stroke="midnightblue" points="120.318,-535.707 129.6,-530.6 119.159,-528.804 120.318,-535.707"/>
</g>
<!-- Node3 -->
<g id="node5" class="node"><title>Node3</title>
<a xlink:href="app-utils_8c.html#a0f2df8f03baa5b4006040e8a18069557" target="_top" xlink:title="Signal handler to ignore CTRL&#45;C.">
<polygon fill="white" stroke="black" points="305.5,-1606.5 305.5,-1627.5 408.5,-1627.5 408.5,-1606.5 305.5,-1606.5"/>
<text text-anchor="middle" x="357" y="-1614.5" font-family="FreeSans" font-size="10.00">hfa_sigint_handler</text>
</a>
</g>
<!-- Node2&#45;&gt;Node3 -->
<g id="edge4" class="edge"><title>Node2&#45;&gt;Node3</title>
<path fill="none" stroke="midnightblue" d="M237.771,-1605.08C256.892,-1606.99 276.987,-1609 295.116,-1610.81"/>
<polygon fill="midnightblue" stroke="midnightblue" points="294.955,-1614.31 305.253,-1611.83 295.651,-1607.35 294.955,-1614.31"/>
</g>
<!-- Node5 -->
<g id="node9" class="node"><title>Node5</title>
<a xlink:href="app-utils_8c.html#a312f3a19b49c759fe09b5bee727b879b" target="_top" xlink:title="Initialize command line arguments.">
<polygon fill="white" stroke="black" points="302.5,-1526.5 302.5,-1547.5 411.5,-1547.5 411.5,-1526.5 302.5,-1526.5"/>
<text text-anchor="middle" x="357" y="-1534.5" font-family="FreeSans" font-size="10.00">hfautils_options_init</text>
</a>
</g>
<!-- Node4&#45;&gt;Node5 -->
<g id="edge8" class="edge"><title>Node4&#45;&gt;Node5</title>
<path fill="none" stroke="midnightblue" d="M204.144,-1521.71C230.487,-1524.35 263.697,-1527.67 292.427,-1530.54"/>
<polygon fill="midnightblue" stroke="midnightblue" points="292.085,-1534.03 302.384,-1531.54 292.782,-1527.06 292.085,-1534.03"/>
</g>
<!-- Node6 -->
<g id="node11" class="node"><title>Node6</title>
<a xlink:href="app-utils_8c.html#ae04c31b3e2ff1468333729059052375c" target="_top" xlink:title="Parse command line arguments.">
<polygon fill="white" stroke="red" points="287,-1486.5 287,-1507.5 427,-1507.5 427,-1486.5 287,-1486.5"/>
<text text-anchor="middle" x="357" y="-1494.5" font-family="FreeSans" font-size="10.00">hfautils_parse_arguments</text>
</a>
</g>
<!-- Node4&#45;&gt;Node6 -->
<g id="edge10" class="edge"><title>Node4&#45;&gt;Node6</title>
<path fill="none" stroke="midnightblue" d="M204.144,-1512.29C225.764,-1510.12 252.009,-1507.5 276.607,-1505.04"/>
<polygon fill="midnightblue" stroke="midnightblue" points="277.062,-1508.51 286.664,-1504.03 276.365,-1501.55 277.062,-1508.51"/>
</g>
<!-- Node7 -->
<g id="node13" class="node"><title>Node7</title>
<a xlink:href="app-utils_8c.html#a12339c67618c4b3a54c32f43d378c273" target="_top" xlink:title="Read data from a file to a buffer(compressed or uncompressed).">
<polygon fill="white" stroke="red" points="308.5,-1566.5 308.5,-1587.5 405.5,-1587.5 405.5,-1566.5 308.5,-1566.5"/>
<text text-anchor="middle" x="357" y="-1574.5" font-family="FreeSans" font-size="10.00">hfautils_read_file</text>
</a>
</g>
<!-- Node4&#45;&gt;Node7 -->
<g id="edge12" class="edge"><title>Node4&#45;&gt;Node7</title>
<path fill="none" stroke="midnightblue" d="M185.612,-1527.61C209.154,-1536.15 243.492,-1548.13 274,-1557 282.376,-1559.44 291.288,-1561.81 300.046,-1564.02"/>
<polygon fill="midnightblue" stroke="midnightblue" points="299.284,-1567.43 309.832,-1566.44 300.965,-1560.64 299.284,-1567.43"/>
</g>
<!-- Node9 -->
<g id="node17" class="node"><title>Node9</title>
<a xlink:href="cvm-hfa-stats_8c.html#a2fcf955b47370bfa46705ee5a23a70cf" target="_top" xlink:title="This routine allocates memory for counters to maintain statistics of each processing core...">
<polygon fill="white" stroke="red" points="306,-1286.5 306,-1307.5 408,-1307.5 408,-1286.5 306,-1286.5"/>
<text text-anchor="middle" x="357" y="-1294.5" font-family="FreeSans" font-size="10.00">hfa_dev_stats_init</text>
</a>
</g>
<!-- Node8&#45;&gt;Node9 -->
<g id="edge16" class="edge"><title>Node8&#45;&gt;Node9</title>
<path fill="none" stroke="midnightblue" d="M160.622,-1107.52C171.943,-1138.76 209.787,-1231.6 274,-1277 280.625,-1281.68 288.212,-1285.28 296.047,-1288.04"/>
<polygon fill="midnightblue" stroke="midnightblue" points="295.091,-1291.41 305.678,-1291 297.151,-1284.72 295.091,-1291.41"/>
</g>
<!-- Node10 -->
<g id="node19" class="node"><title>Node10</title>
<a xlink:href="cvm-hfa_8c.html#a27982497398da2118cd5287ed51732e7" target="_top" xlink:title="Provides device&#45;specific information This is a utility routine used to obtain HFA device&#45;specific det...">
<polygon fill="white" stroke="black" points="301.5,-1246.5 301.5,-1267.5 412.5,-1267.5 412.5,-1246.5 301.5,-1246.5"/>
<text text-anchor="middle" x="357" y="-1254.5" font-family="FreeSans" font-size="10.00">hfa_dev_getdevinfo</text>
</a>
</g>
<!-- Node8&#45;&gt;Node10 -->
<g id="edge18" class="edge"><title>Node8&#45;&gt;Node10</title>
<path fill="none" stroke="midnightblue" d="M162.726,-1107.76C177.401,-1134.25 219.099,-1202.92 274,-1237 279.454,-1240.39 285.439,-1243.2 291.618,-1245.54"/>
<polygon fill="midnightblue" stroke="midnightblue" points="290.847,-1248.97 301.441,-1248.83 293.072,-1242.33 290.847,-1248.97"/>
</g>
<!-- Node11 -->
<g id="node21" class="node"><title>Node11</title>
<a xlink:href="pp_8h.html#a6f5982b2671e9682262a26b0d2996396" target="_top" xlink:title="Constructs a readable version string for the PP library.">
<polygon fill="white" stroke="black" points="297,-1206.5 297,-1227.5 417,-1227.5 417,-1206.5 297,-1206.5"/>
<text text-anchor="middle" x="357" y="-1214.5" font-family="FreeSans" font-size="10.00">pp_get_version_string</text>
</a>
</g>
<!-- Node8&#45;&gt;Node11 -->
<g id="edge20" class="edge"><title>Node8&#45;&gt;Node11</title>
<path fill="none" stroke="midnightblue" d="M166.139,-1107.61C184.444,-1128.16 227.826,-1173.44 274,-1197 278.586,-1199.34 283.455,-1201.41 288.447,-1203.25"/>
<polygon fill="midnightblue" stroke="midnightblue" points="287.56,-1206.64 298.154,-1206.49 289.78,-1200 287.56,-1206.64"/>
</g>
<!-- Node12 -->
<g id="node23" class="node"><title>Node12</title>
<a xlink:href="cvm-hfa_8c.html#afd1d53fe8a402d4c5799e6e98c67baaa" target="_top" xlink:title="Displays HFA Device info.">
<polygon fill="white" stroke="red" points="298.5,-1166.5 298.5,-1187.5 415.5,-1187.5 415.5,-1166.5 298.5,-1166.5"/>
<text text-anchor="middle" x="357" y="-1174.5" font-family="FreeSans" font-size="10.00">hfa_dev_display_info</text>
</a>
</g>
<!-- Node8&#45;&gt;Node12 -->
<g id="edge22" class="edge"><title>Node8&#45;&gt;Node12</title>
<path fill="none" stroke="midnightblue" d="M174.245,-1107.5C196.558,-1120.69 236.973,-1143.27 274,-1157 280.784,-1159.52 287.998,-1161.8 295.232,-1163.85"/>
<polygon fill="midnightblue" stroke="midnightblue" points="294.504,-1167.28 305.07,-1166.5 296.323,-1160.52 294.504,-1167.28"/>
</g>
<!-- Node13 -->
<g id="node25" class="node"><title>Node13</title>
<a xlink:href="cvm-hfa_8c.html#a236e64ca73680ea6761204d5c44d4e96" target="_top" xlink:title="API to set PP resource allocator for partial matches.">
<polygon fill="white" stroke="black" points="289.5,-1126.5 289.5,-1147.5 424.5,-1147.5 424.5,-1126.5 289.5,-1126.5"/>
<text text-anchor="middle" x="357" y="-1134.5" font-family="FreeSans" font-size="10.00">hfa_dev_set_fnp_ppalloc</text>
</a>
</g>
<!-- Node8&#45;&gt;Node13 -->
<g id="edge24" class="edge"><title>Node8&#45;&gt;Node13</title>
<path fill="none" stroke="midnightblue" d="M194.15,-1104.43C222.201,-1110.04 261.347,-1117.87 294.229,-1124.45"/>
<polygon fill="midnightblue" stroke="midnightblue" points="293.721,-1127.91 304.213,-1126.44 295.094,-1121.05 293.721,-1127.91"/>
</g>
<!-- Node14 -->
<g id="node27" class="node"><title>Node14</title>
<a xlink:href="cvm-hfa_8c.html#ab547f175726534d6a0a334eb35af4980" target="_top" xlink:title="Default function pointer for PP allocations.">
<polygon fill="white" stroke="black" points="297,-1086.5 297,-1107.5 417,-1107.5 417,-1086.5 297,-1086.5"/>
<text text-anchor="middle" x="357" y="-1094.5" font-family="FreeSans" font-size="10.00">hfa_defaultfn_ppalloc</text>
</a>
</g>
<!-- Node8&#45;&gt;Node14 -->
<g id="edge26" class="edge"><title>Node8&#45;&gt;Node14</title>
<path fill="none" stroke="midnightblue" d="M194.15,-1097C220.03,-1097 255.356,-1097 286.493,-1097"/>
<polygon fill="midnightblue" stroke="midnightblue" points="286.872,-1100.5 296.872,-1097 286.872,-1093.5 286.872,-1100.5"/>
</g>
<!-- Node15 -->
<g id="node29" class="node"><title>Node15</title>
<a xlink:href="cvm-hfa_8c.html#a148abbfdeebb207ff46884af8eeb8fa4" target="_top" xlink:title="API to set PP resource deallocator for partial matches.">
<polygon fill="white" stroke="black" points="291,-1046.5 291,-1067.5 423,-1067.5 423,-1046.5 291,-1046.5"/>
<text text-anchor="middle" x="357" y="-1054.5" font-family="FreeSans" font-size="10.00">hfa_dev_set_fnp_ppfree</text>
</a>
</g>
<!-- Node8&#45;&gt;Node15 -->
<g id="edge28" class="edge"><title>Node8&#45;&gt;Node15</title>
<path fill="none" stroke="midnightblue" d="M194.15,-1089.57C222.201,-1083.96 261.347,-1076.13 294.229,-1069.55"/>
<polygon fill="midnightblue" stroke="midnightblue" points="295.094,-1072.95 304.213,-1067.56 293.721,-1066.09 295.094,-1072.95"/>
</g>
<!-- Node16 -->
<g id="node31" class="node"><title>Node16</title>
<a xlink:href="cvm-hfa_8c.html#a832239ee7b188265bdacbbfb7e879af1" target="_top" xlink:title="Default function pointer for PP deallocations.">
<polygon fill="white" stroke="black" points="298.5,-1006.5 298.5,-1027.5 415.5,-1027.5 415.5,-1006.5 298.5,-1006.5"/>
<text text-anchor="middle" x="357" y="-1014.5" font-family="FreeSans" font-size="10.00">hfa_defaultfn_ppfree</text>
</a>
</g>
<!-- Node8&#45;&gt;Node16 -->
<g id="edge30" class="edge"><title>Node8&#45;&gt;Node16</title>
<path fill="none" stroke="midnightblue" d="M174.245,-1086.5C196.558,-1073.31 236.973,-1050.73 274,-1037 280.784,-1034.48 287.998,-1032.2 295.232,-1030.15"/>
<polygon fill="midnightblue" stroke="midnightblue" points="296.323,-1033.48 305.07,-1027.5 294.504,-1026.72 296.323,-1033.48"/>
</g>
<!-- Node17 -->
<g id="node33" class="node"><title>Node17</title>
<a xlink:href="cvm-hfa_8c.html#a774451b83b300f862763d189c9758e1f" target="_top" xlink:title="API to set PP buffer size function pointer.">
<polygon fill="white" stroke="black" points="291,-966.5 291,-987.5 423,-987.5 423,-966.5 291,-966.5"/>
<text text-anchor="middle" x="357" y="-974.5" font-family="FreeSans" font-size="10.00">hfa_dev_set_fnp_ppsize</text>
</a>
</g>
<!-- Node8&#45;&gt;Node17 -->
<g id="edge32" class="edge"><title>Node8&#45;&gt;Node17</title>
<path fill="none" stroke="midnightblue" d="M166.139,-1086.39C184.444,-1065.84 227.826,-1020.56 274,-997 278.586,-994.66 283.455,-992.587 288.447,-990.751"/>
<polygon fill="midnightblue" stroke="midnightblue" points="289.78,-993.996 298.154,-987.506 287.56,-987.357 289.78,-993.996"/>
</g>
<!-- Node18 -->
<g id="node35" class="node"><title>Node18</title>
<a xlink:href="cvm-hfa_8c.html#a11aab8e30488e4cfc900f60a0dabc784" target="_top" xlink:title="Default function pointer for PP size.">
<polygon fill="white" stroke="black" points="298.5,-926.5 298.5,-947.5 415.5,-947.5 415.5,-926.5 298.5,-926.5"/>
<text text-anchor="middle" x="357" y="-934.5" font-family="FreeSans" font-size="10.00">hfa_defaultfn_ppsize</text>
</a>
</g>
<!-- Node8&#45;&gt;Node18 -->
<g id="edge34" class="edge"><title>Node8&#45;&gt;Node18</title>
<path fill="none" stroke="midnightblue" d="M162.726,-1086.24C177.401,-1059.75 219.099,-991.081 274,-957 278.644,-954.117 283.672,-951.65 288.877,-949.539"/>
<polygon fill="midnightblue" stroke="midnightblue" points="290.172,-952.792 298.393,-946.109 287.799,-946.207 290.172,-952.792"/>
</g>
<!-- Node19 -->
<g id="node37" class="node"><title>Node19</title>
<a xlink:href="cvm-hfa_8c.html#a9a0b038e0d29435cb91a21d9c62806cc" target="_top" xlink:title="API to set PP resource allocator for temporary memory.">
<polygon fill="white" stroke="black" points="288,-886.5 288,-907.5 426,-907.5 426,-886.5 288,-886.5"/>
<text text-anchor="middle" x="357" y="-894.5" font-family="FreeSans" font-size="10.00">hfa_dev_set_fnp_pptalloc</text>
</a>
</g>
<!-- Node8&#45;&gt;Node19 -->
<g id="edge36" class="edge"><title>Node8&#45;&gt;Node19</title>
<path fill="none" stroke="midnightblue" d="M160.622,-1086.48C171.943,-1055.24 209.787,-962.402 274,-917 276.723,-915.075 279.609,-913.333 282.607,-911.758"/>
<polygon fill="midnightblue" stroke="midnightblue" points="284.251,-914.855 291.892,-907.516 281.342,-908.489 284.251,-914.855"/>
</g>
<!-- Node20 -->
<g id="node39" class="node"><title>Node20</title>
<a xlink:href="cvm-hfa_8c.html#a2cbca63c413f08d3861f9b4c2855391f" target="_top" xlink:title="API to set PP resource deallocator for temporary memory.">
<polygon fill="white" stroke="black" points="289.5,-846.5 289.5,-867.5 424.5,-867.5 424.5,-846.5 289.5,-846.5"/>
<text text-anchor="middle" x="357" y="-854.5" font-family="FreeSans" font-size="10.00">hfa_dev_set_fnp_pptfree</text>
</a>
</g>
<!-- Node8&#45;&gt;Node20 -->
<g id="edge38" class="edge"><title>Node8&#45;&gt;Node20</title>
<path fill="none" stroke="midnightblue" d="M159.385,-1086.26C167.926,-1050.42 200.48,-933.969 274,-877 276.307,-875.213 278.749,-873.582 281.294,-872.094"/>
<polygon fill="midnightblue" stroke="midnightblue" points="282.927,-875.191 290.285,-867.568 279.779,-868.938 282.927,-875.191"/>
</g>
<!-- Node21 -->
<g id="node41" class="node"><title>Node21</title>
<a xlink:href="cvm-hfa_8c.html#af0b17e8a09b1f7a1dd438ddcb1e4cd14" target="_top" xlink:title="API to set temporary memory size function pointer.">
<polygon fill="white" stroke="black" points="289.5,-806.5 289.5,-827.5 424.5,-827.5 424.5,-806.5 289.5,-806.5"/>
<text text-anchor="middle" x="357" y="-814.5" font-family="FreeSans" font-size="10.00">hfa_dev_set_fnp_pptsize</text>
</a>
</g>
<!-- Node8&#45;&gt;Node21 -->
<g id="edge40" class="edge"><title>Node8&#45;&gt;Node21</title>
<path fill="none" stroke="midnightblue" d="M158.436,-1086.34C164.374,-1046.63 190.738,-906.028 274,-837 275.997,-835.345 278.109,-833.822 280.31,-832.422"/>
<polygon fill="midnightblue" stroke="midnightblue" points="282.07,-835.449 289.194,-827.606 278.735,-829.295 282.07,-835.449"/>
</g>
<!-- Node22 -->
<g id="node43" class="node"><title>Node22</title>
<a xlink:href="cvm-hfa_8c.html#aa2754afcdd94eb3dcd90c374f779dd24" target="_top" xlink:title="API to set PP resource allocator for match/result buffer.">
<polygon fill="white" stroke="black" points="274,-766.5 274,-787.5 440,-787.5 440,-766.5 274,-766.5"/>
<text text-anchor="middle" x="357" y="-774.5" font-family="FreeSans" font-size="10.00">hfa_dev_set_fnp_ppmatchalloc</text>
</a>
</g>
<!-- Node8&#45;&gt;Node22 -->
<g id="edge42" class="edge"><title>Node8&#45;&gt;Node22</title>
<path fill="none" stroke="midnightblue" d="M157.744,-1086.27C161.356,-1042.79 180.929,-878.252 274,-797 275.769,-795.456 277.637,-794.026 279.585,-792.702"/>
<polygon fill="midnightblue" stroke="midnightblue" points="281.639,-795.56 288.579,-787.554 278.161,-789.484 281.639,-795.56"/>
</g>
<!-- Node23 -->
<g id="node45" class="node"><title>Node23</title>
<a xlink:href="cvm-hfa_8c.html#ad022f5aec72780af8b36533884693539" target="_top" xlink:title="API to set PP resource deallocator for result/match buf.">
<polygon fill="white" stroke="black" points="275.5,-1446.5 275.5,-1467.5 438.5,-1467.5 438.5,-1446.5 275.5,-1446.5"/>
<text text-anchor="middle" x="357" y="-1454.5" font-family="FreeSans" font-size="10.00">hfa_dev_set_fnp_ppmatchfree</text>
</a>
</g>
<!-- Node8&#45;&gt;Node23 -->
<g id="edge44" class="edge"><title>Node8&#45;&gt;Node23</title>
<path fill="none" stroke="midnightblue" d="M159.219,-1107.61C170.356,-1159.88 221.694,-1389.44 274,-1437 275.693,-1438.54 277.484,-1439.97 279.354,-1441.29"/>
<polygon fill="midnightblue" stroke="midnightblue" points="277.625,-1444.33 288.009,-1446.43 281.203,-1438.31 277.625,-1444.33"/>
</g>
<!-- Node24 -->
<g id="node47" class="node"><title>Node24</title>
<a xlink:href="cvm-hfa_8c.html#a8b71887165c143e32600513d12f9274f" target="_top" xlink:title="API to set match buffer size function pointer.">
<polygon fill="white" stroke="black" points="275.5,-1406.5 275.5,-1427.5 438.5,-1427.5 438.5,-1406.5 275.5,-1406.5"/>
<text text-anchor="middle" x="357" y="-1414.5" font-family="FreeSans" font-size="10.00">hfa_dev_set_fnp_ppmatchsize</text>
</a>
</g>
<!-- Node8&#45;&gt;Node24 -->
<g id="edge46" class="edge"><title>Node8&#45;&gt;Node24</title>
<path fill="none" stroke="midnightblue" d="M157.744,-1107.73C161.356,-1151.21 180.929,-1315.75 274,-1397 275.769,-1398.54 277.637,-1399.97 279.585,-1401.3"/>
<polygon fill="midnightblue" stroke="midnightblue" points="278.161,-1404.52 288.579,-1406.45 281.639,-1398.44 278.161,-1404.52"/>
</g>
<!-- Node25 -->
<g id="node49" class="node"><title>Node25</title>
<a xlink:href="cvm-hfa_8c.html#abcc0595aa8b2bb2d6116d600abbf55f8" target="_top" xlink:title="API to set PP error callback.">
<polygon fill="white" stroke="black" points="289,-1366.5 289,-1387.5 425,-1387.5 425,-1366.5 289,-1366.5"/>
<text text-anchor="middle" x="357" y="-1374.5" font-family="FreeSans" font-size="10.00">hfa_dev_set_fnp_pperror</text>
</a>
</g>
<!-- Node8&#45;&gt;Node25 -->
<g id="edge48" class="edge"><title>Node8&#45;&gt;Node25</title>
<path fill="none" stroke="midnightblue" d="M158.436,-1107.66C164.374,-1147.37 190.738,-1287.97 274,-1357 275.997,-1358.66 278.109,-1360.18 280.31,-1361.58"/>
<polygon fill="midnightblue" stroke="midnightblue" points="278.735,-1364.71 289.194,-1366.39 282.07,-1358.55 278.735,-1364.71"/>
</g>
<!-- Node26 -->
<g id="node51" class="node"><title>Node26</title>
<a xlink:href="cvm-hfa_8c.html#ac115556b315ff135ed2fd059cdf7d066" target="_top" xlink:title="Default function pointer for PP errors.">
<polygon fill="white" stroke="black" points="301.5,-1326.5 301.5,-1347.5 412.5,-1347.5 412.5,-1326.5 301.5,-1326.5"/>
<text text-anchor="middle" x="357" y="-1334.5" font-family="FreeSans" font-size="10.00">hfa_defaultfn_pperr</text>
</a>
</g>
<!-- Node8&#45;&gt;Node26 -->
<g id="edge50" class="edge"><title>Node8&#45;&gt;Node26</title>
<path fill="none" stroke="midnightblue" d="M159.385,-1107.74C167.926,-1143.58 200.48,-1260.03 274,-1317 279.353,-1321.15 285.439,-1324.45 291.825,-1327.08"/>
<polygon fill="midnightblue" stroke="midnightblue" points="290.753,-1330.42 301.348,-1330.47 293.101,-1323.82 290.753,-1330.42"/>
</g>
<!-- Node28 -->
<g id="node55" class="node"><title>Node28</title>
<a xlink:href="cvm-hfa-graph_8c.html#a80a6427d5a90c7bd1e4cbfd62a808524" target="_top" xlink:title="This routine initializes a graph object which can be used to perform various operations on a graph fi...">
<polygon fill="white" stroke="black" points="303.5,-726.5 303.5,-747.5 410.5,-747.5 410.5,-726.5 303.5,-726.5"/>
<text text-anchor="middle" x="357" y="-734.5" font-family="FreeSans" font-size="10.00">hfa_dev_graph_init</text>
</a>
</g>
<!-- Node27&#45;&gt;Node28 -->
<g id="edge54" class="edge"><title>Node27&#45;&gt;Node28</title>
<path fill="none" stroke="midnightblue" d="M166.448,-628.816C184.958,-649.298 228.199,-693.772 274,-717 280.128,-720.108 286.759,-722.746 293.509,-724.983"/>
<polygon fill="midnightblue" stroke="midnightblue" points="292.855,-728.441 303.44,-727.981 294.878,-721.74 292.855,-728.441"/>
</g>
<!-- Node29 -->
<g id="node57" class="node"><title>Node29</title>
<a xlink:href="cvm-hfa-graph_8c.html#a32df4a93ffcd7da232613b13204b2a80" target="_top" xlink:title="This routine sets the cluster&#45;mask for the graph.">
<polygon fill="white" stroke="black" points="298.5,-686.5 298.5,-707.5 415.5,-707.5 415.5,-686.5 298.5,-686.5"/>
<text text-anchor="middle" x="357" y="-694.5" font-family="FreeSans" font-size="10.00">hfa_graph_setcluster</text>
</a>
</g>
<!-- Node27&#45;&gt;Node29 -->
<g id="edge56" class="edge"><title>Node27&#45;&gt;Node29</title>
<path fill="none" stroke="midnightblue" d="M174.66,-628.534C197.079,-641.519 237.268,-663.518 274,-677 280.792,-679.493 288.012,-681.762 295.249,-683.803"/>
<polygon fill="midnightblue" stroke="midnightblue" points="294.524,-687.232 305.09,-686.443 296.338,-680.471 294.524,-687.232"/>
</g>
<!-- Node30 -->
<g id="node59" class="node"><title>Node30</title>
<a xlink:href="app-utils_8c.html#aed95bb72627cff313c596ebcfcd8af61" target="_top" xlink:title="Parse graph into chunks and load graph to HFA memory.">
<polygon fill="white" stroke="red" points="289.5,-646.5 289.5,-667.5 424.5,-667.5 424.5,-646.5 289.5,-646.5"/>
<text text-anchor="middle" x="357" y="-654.5" font-family="FreeSans" font-size="10.00">hfautils_download_graph</text>
</a>
</g>
<!-- Node27&#45;&gt;Node30 -->
<g id="edge58" class="edge"><title>Node27&#45;&gt;Node30</title>
<path fill="none" stroke="midnightblue" d="M191.837,-624.793C219.628,-630.212 259.31,-637.95 292.813,-644.484"/>
<polygon fill="midnightblue" stroke="midnightblue" points="292.507,-647.99 302.992,-646.469 293.847,-641.119 292.507,-647.99"/>
</g>
<!-- Node31 -->
<g id="node61" class="node"><title>Node31</title>
<a xlink:href="cvm-hfa-graph_8c.html#a0f2f13fb51e5d56dcf049ff3c7c6ad78" target="_top" xlink:title="This routine is used to check the status of the graph.">
<polygon fill="white" stroke="red" points="476,-626.5 476,-647.5 590,-647.5 590,-626.5 476,-626.5"/>
<text text-anchor="middle" x="533" y="-634.5" font-family="FreeSans" font-size="10.00">hfa_graph_getstatus</text>
</a>
</g>
<!-- Node27&#45;&gt;Node31 -->
<g id="edge64" class="edge"><title>Node27&#45;&gt;Node31</title>
<path fill="none" stroke="midnightblue" d="M191.699,-619.753C253.94,-622.899 385.545,-629.549 465.922,-633.61"/>
<polygon fill="midnightblue" stroke="midnightblue" points="465.781,-637.108 475.945,-634.117 466.134,-630.117 465.781,-637.108"/>
</g>
<!-- Node32 -->
<g id="node63" class="node"><title>Node32</title>
<a xlink:href="cvm-hfa-graph_8c.html#aa296e0c6b36b3d5b4f8e01c2fe765bed" target="_top" xlink:title="This routine is used to cacheload a cacheable graph in a non&#45;blocking manner.">
<polygon fill="white" stroke="red" points="297,-556 297,-590 417,-590 417,-556 297,-556"/>
<text text-anchor="start" x="305" y="-577" font-family="FreeSans" font-size="10.00">hfa_graph_cacheload</text>
<text text-anchor="middle" x="357" y="-564" font-family="FreeSans" font-size="10.00">_async</text>
</a>
</g>
<!-- Node27&#45;&gt;Node32 -->
<g id="edge62" class="edge"><title>Node27&#45;&gt;Node32</title>
<path fill="none" stroke="midnightblue" d="M191.837,-610.162C218.005,-604.274 254.716,-596.014 286.885,-588.776"/>
<polygon fill="midnightblue" stroke="midnightblue" points="287.717,-592.176 296.705,-586.566 286.181,-585.347 287.717,-592.176"/>
</g>
<!-- Node33 -->
<g id="node66" class="node"><title>Node33</title>
<a xlink:href="cvm-hfa-graph_8c.html#a5e79919f5903d97aee5e82bfc7e71597" target="_top" xlink:title="This routine is the counterpart of hfa_dev_graph_init().">
<polygon fill="white" stroke="black" points="291,-516.5 291,-537.5 423,-537.5 423,-516.5 291,-516.5"/>
<text text-anchor="middle" x="357" y="-524.5" font-family="FreeSans" font-size="10.00">hfa_dev_graph_cleanup</text>
</a>
</g>
<!-- Node27&#45;&gt;Node33 -->
<g id="edge66" class="edge"><title>Node27&#45;&gt;Node33</title>
<path fill="none" stroke="midnightblue" d="M191.531,-614.961C206.809,-612.296 224.363,-607.312 238,-598 260.913,-582.355 251.043,-562.581 274,-547 276.909,-545.026 279.991,-543.246 283.19,-541.641"/>
<polygon fill="midnightblue" stroke="midnightblue" points="284.718,-544.792 292.465,-537.565 281.902,-538.383 284.718,-544.792"/>
</g>
<!-- Node30&#45;&gt;Node31 -->
<g id="edge60" class="edge"><title>Node30&#45;&gt;Node31</title>
<path fill="none" stroke="midnightblue" d="M424.543,-649.325C438.061,-647.788 452.262,-646.175 465.77,-644.64"/>
<polygon fill="midnightblue" stroke="midnightblue" points="466.401,-648.091 475.941,-643.484 465.61,-641.135 466.401,-648.091"/>
</g>
<!-- Node36 -->
<g id="node72" class="node"><title>Node36</title>
<a xlink:href="cvm-hfa-search_8c.html#a64ba7a41c7d677da10e588a58789015b" target="_top" xlink:title="This routine initializes a Search Context.">
<polygon fill="white" stroke="red" points="293.5,-436.5 293.5,-457.5 420.5,-457.5 420.5,-436.5 293.5,-436.5"/>
<text text-anchor="middle" x="357" y="-444.5" font-family="FreeSans" font-size="10.00">hfa_dev_searchctx_init</text>
</a>
</g>
<!-- Node35&#45;&gt;Node36 -->
<g id="edge72" class="edge"><title>Node35&#45;&gt;Node36</title>
<path fill="none" stroke="midnightblue" d="M195.089,-462.382C220.036,-460.012 253.459,-456.836 283.458,-453.986"/>
<polygon fill="midnightblue" stroke="midnightblue" points="283.86,-457.464 293.484,-453.034 283.197,-450.496 283.86,-457.464"/>
</g>
<!-- Node37 -->
<g id="node74" class="node"><title>Node37</title>
<a xlink:href="cvm-hfa-search_8c.html#a954753c0e6f4a59599d05f1262a25b38" target="_top" xlink:title="This routine associates a graph with sctx.">
<polygon fill="white" stroke="red" points="291,-396.5 291,-417.5 423,-417.5 423,-396.5 291,-396.5"/>
<text text-anchor="middle" x="357" y="-404.5" font-family="FreeSans" font-size="10.00">hfa_searchctx_setgraph</text>
</a>
</g>
<!-- Node35&#45;&gt;Node37 -->
<g id="edge74" class="edge"><title>Node35&#45;&gt;Node37</title>
<path fill="none" stroke="midnightblue" d="M186.597,-455.356C210.12,-447.086 243.949,-435.612 274,-427 282.489,-424.567 291.522,-422.183 300.387,-419.958"/>
<polygon fill="midnightblue" stroke="midnightblue" points="301.413,-423.31 310.285,-417.518 299.738,-416.513 301.413,-423.31"/>
</g>
<!-- Node38 -->
<g id="node76" class="node"><title>Node38</title>
<a xlink:href="cvm-hfa-search_8c.html#a60c8025118f6a47f924733e47db8c77d" target="_top" xlink:title="This routine is used to specify settings used during the search and getmatches API.">
<polygon fill="white" stroke="red" points="293,-476.5 293,-497.5 421,-497.5 421,-476.5 293,-476.5"/>
<text text-anchor="middle" x="357" y="-484.5" font-family="FreeSans" font-size="10.00">hfa_searchctx_setflags</text>
</a>
</g>
<!-- Node35&#45;&gt;Node38 -->
<g id="edge76" class="edge"><title>Node35&#45;&gt;Node38</title>
<path fill="none" stroke="midnightblue" d="M195.089,-469.999C219.833,-472.597 252.914,-476.071 282.723,-479.201"/>
<polygon fill="midnightblue" stroke="midnightblue" points="282.379,-482.684 292.69,-480.247 283.11,-475.722 282.379,-482.684"/>
</g>
<!-- Node40 -->
<g id="node80" class="node"><title>Node40</title>
<a xlink:href="app-utils_8c.html#a1944a739d03e86dcaee1a7d245cfeba0" target="_top" xlink:title="Initialize the attributes needed for parsing the payload file.">
<polygon fill="white" stroke="red" points="300.5,-172 300.5,-206 413.5,-206 413.5,-172 300.5,-172"/>
<text text-anchor="start" x="308.5" y="-193" font-family="FreeSans" font-size="10.00">hfautils_init_payload</text>
<text text-anchor="middle" x="357" y="-180" font-family="FreeSans" font-size="10.00">_attributes</text>
</a>
</g>
<!-- Node39&#45;&gt;Node40 -->
<g id="edge80" class="edge"><title>Node39&#45;&gt;Node40</title>
<path fill="none" stroke="midnightblue" d="M197.473,-225.691C224.149,-219.556 259.71,-211.377 290.487,-204.298"/>
<polygon fill="midnightblue" stroke="midnightblue" points="291.333,-207.695 300.294,-202.042 289.764,-200.873 291.333,-207.695"/>
</g>
<!-- Node41 -->
<g id="node82" class="node"><title>Node41</title>
<a xlink:href="app-utils_8c.html#a4b47f3c9c5a0b3eaee64e264171628a3" target="_top" xlink:title="This routine reads data of chunksize/a packet from given payload(Normal/PCAP) file and returns data b...">
<polygon fill="white" stroke="red" points="294,-132.5 294,-153.5 420,-153.5 420,-132.5 294,-132.5"/>
<text text-anchor="middle" x="357" y="-140.5" font-family="FreeSans" font-size="10.00">hfautils_parse_payload</text>
</a>
</g>
<!-- Node39&#45;&gt;Node41 -->
<g id="edge82" class="edge"><title>Node39&#45;&gt;Node41</title>
<path fill="none" stroke="midnightblue" d="M197.293,-230.931C211.107,-228.073 226.075,-223.222 238,-215 261.141,-199.044 250.814,-178.891 274,-163 277.276,-160.755 280.776,-158.76 284.417,-156.988"/>
<polygon fill="midnightblue" stroke="midnightblue" points="285.882,-160.169 293.709,-153.028 283.138,-153.729 285.882,-160.169"/>
</g>
<!-- Node42 -->
<g id="node84" class="node"><title>Node42</title>
<a xlink:href="hfa-se-wqe_8c.html#a04f39f57f0b34482133ae70ab812a11e" target="_top" xlink:title="Set search parameters and submit WQE to the HW.">
<polygon fill="white" stroke="red" points="320,-92.5 320,-113.5 394,-113.5 394,-92.5 320,-92.5"/>
<text text-anchor="middle" x="357" y="-100.5" font-family="FreeSans" font-size="10.00">submit_wqe</text>
</a>
</g>
<!-- Node39&#45;&gt;Node42 -->
<g id="edge84" class="edge"><title>Node39&#45;&gt;Node42</title>
<path fill="none" stroke="midnightblue" d="M197.194,-232.649C211.48,-229.996 226.783,-224.837 238,-215 271.012,-186.05 240.907,-151.857 274,-123 283.873,-114.391 296.82,-109.342 309.543,-106.422"/>
<polygon fill="midnightblue" stroke="midnightblue" points="310.463,-109.81 319.636,-104.509 309.159,-102.933 310.463,-109.81"/>
</g>
<!-- Node43 -->
<g id="node86" class="node"><title>Node43</title>
<a xlink:href="hfa-se-ctx_8c.html#aaf2d1bda55a80b5467e3ef350c514243" target="_top" xlink:title="Process search on recieved packet wqe.">
<polygon fill="white" stroke="red" points="317,-52.5 317,-73.5 397,-73.5 397,-52.5 317,-52.5"/>
<text text-anchor="middle" x="357" y="-60.5" font-family="FreeSans" font-size="10.00">process_wqe</text>
</a>
</g>
<!-- Node39&#45;&gt;Node43 -->
<g id="edge86" class="edge"><title>Node39&#45;&gt;Node43</title>
<path fill="none" stroke="midnightblue" d="M197.356,-233.349C211.831,-230.796 227.22,-225.522 238,-215 281.515,-172.524 230.365,-125.353 274,-83 282.891,-74.3702 294.825,-69.2437 306.868,-66.2529"/>
<polygon fill="midnightblue" stroke="midnightblue" points="307.838,-69.6276 316.944,-64.2128 306.449,-62.7668 307.838,-69.6276"/>
</g>
<!-- Node44 -->
<g id="node88" class="node"><title>Node44</title>
<a xlink:href="cvm-hfa-common_8h.html#ab6b5a9b432c71164f1c1aaa4db029031" target="_top" xlink:title="This routine is for getting WQE type.">
<polygon fill="white" stroke="black" points="305,-356.5 305,-377.5 409,-377.5 409,-356.5 305,-356.5"/>
<text text-anchor="middle" x="357" y="-364.5" font-family="FreeSans" font-size="10.00">hfa_get_wqe_type</text>
</a>
</g>
<!-- Node39&#45;&gt;Node44 -->
<g id="edge88" class="edge"><title>Node39&#45;&gt;Node44</title>
<path fill="none" stroke="midnightblue" d="M164.772,-245.532C181.87,-267.906 225.14,-320.307 274,-347 280.528,-350.566 287.687,-353.503 294.978,-355.92"/>
<polygon fill="midnightblue" stroke="midnightblue" points="294.371,-359.392 304.955,-358.904 296.377,-352.685 294.371,-359.392"/>
</g>
<!-- Node45 -->
<g id="node90" class="node"><title>Node45</title>
<a xlink:href="cvm-hfa-search_8c.html#a4e3a1a826235d80899e23fb44c69eb0f" target="_top" xlink:title="This routine handles HFA WQE posted by HFA engine to indicate instruction completion.">
<polygon fill="white" stroke="black" points="281.5,-316.5 281.5,-337.5 432.5,-337.5 432.5,-316.5 281.5,-316.5"/>
<text text-anchor="middle" x="357" y="-324.5" font-family="FreeSans" font-size="10.00">hfa_searchctx_processwork</text>
</a>
</g>
<!-- Node39&#45;&gt;Node45 -->
<g id="edge90" class="edge"><title>Node39&#45;&gt;Node45</title>
<path fill="none" stroke="midnightblue" d="M170.979,-245.651C192.156,-261.296 234.139,-290.426 274,-307 279.838,-309.427 286.035,-311.601 292.309,-313.539"/>
<polygon fill="midnightblue" stroke="midnightblue" points="291.613,-316.98 302.191,-316.391 293.554,-310.255 291.613,-316.98"/>
</g>
<!-- Node46 -->
<g id="node92" class="node"><title>Node46</title>
<a xlink:href="cvm-hfa-search_8h.html#ad18e328b50b109e1e44821f3d006bd9d" target="_top" xlink:title="This routine returns the data&#45;buffer offset.">
<polygon fill="white" stroke="black" points="296,-264 296,-298 418,-298 418,-264 296,-264"/>
<text text-anchor="start" x="304" y="-285" font-family="FreeSans" font-size="10.00">hfa_searchparam_get</text>
<text text-anchor="middle" x="357" y="-272" font-family="FreeSans" font-size="10.00">_hwsearch_pdboff</text>
</a>
</g>
<!-- Node39&#45;&gt;Node46 -->
<g id="edge92" class="edge"><title>Node39&#45;&gt;Node46</title>
<path fill="none" stroke="midnightblue" d="M197.473,-244.309C222.803,-250.135 256.144,-257.803 285.793,-264.622"/>
<polygon fill="midnightblue" stroke="midnightblue" points="285.159,-268.068 295.69,-266.899 286.729,-261.246 285.159,-268.068"/>
</g>
<!-- Node47 -->
<g id="node94" class="node"><title>Node47</title>
<a xlink:href="cvm-hfa-search_8c.html#a6dbb15dc58155b2c94b19784ad42ef89" target="_top" xlink:title="This routine post&#45;processes the search results from the HFA engine and reports the pattern matches fo...">
<polygon fill="white" stroke="red" points="283.5,-224.5 283.5,-245.5 430.5,-245.5 430.5,-224.5 283.5,-224.5"/>
<text text-anchor="middle" x="357" y="-232.5" font-family="FreeSans" font-size="10.00">hfa_searchctx_getmatches</text>
</a>
</g>
<!-- Node39&#45;&gt;Node47 -->
<g id="edge94" class="edge"><title>Node39&#45;&gt;Node47</title>
<path fill="none" stroke="midnightblue" d="M197.473,-235C219.238,-235 246.919,-235 273.09,-235"/>
<polygon fill="midnightblue" stroke="midnightblue" points="273.415,-238.5 283.415,-235 273.415,-231.5 273.415,-238.5"/>
</g>
<!-- Node39&#45;&gt;Node48 -->
<g id="edge96" class="edge"><title>Node39&#45;&gt;Node48</title>
<path fill="none" stroke="midnightblue" d="M197.276,-233.757C211.915,-231.276 227.439,-225.945 238,-215 292.23,-158.796 221.524,-100.845 274,-43 275.607,-41.2281 277.334,-39.5759 279.158,-38.0354"/>
<polygon fill="midnightblue" stroke="midnightblue" points="281.583,-40.6072 287.721,-31.9717 277.538,-34.8945 281.583,-40.6072"/>
</g>
<!-- Node50&#45;&gt;Node33 -->
<g id="edge104" class="edge"><title>Node50&#45;&gt;Node33</title>
<path fill="none" stroke="midnightblue" d="M184.39,-526.137C209.113,-526.261 246.682,-526.448 280.465,-526.617"/>
<polygon fill="midnightblue" stroke="midnightblue" points="280.792,-530.119 290.81,-526.669 280.827,-523.119 280.792,-530.119"/>
</g>
</g>
</svg>
        <g id="navigator" transform="translate(0 0)" fill="#404254">
                <rect fill="#f2f5e9" fill-opacity="0.5" stroke="#606060" stroke-width=".5" x="0" y="0" width="60" height="60"/>
                <use id="zoomplus" xlink:href="#zoomPlus" x="17" y="9" onmousedown="handleZoom(evt,'in')"/>
                <use id="zoomminus" xlink:href="#zoomMin" x="42" y="9" onmousedown="handleZoom(evt,'out')"/>
                <use id="reset" xlink:href="#resetDef" x="30" y="36" onmousedown="handleReset()"/>
                <g id="arrowUp" xlink:href="#dirArrow" transform="translate(30 24)" onmousedown="handlePan(0,-1)">
                  <use xlink:href="#rim" fill="#404040">
                        <set attributeName="fill" to="#808080" begin="arrowUp.mouseover" end="arrowUp.mouseout"/>
                  </use>
                  <path fill="none" stroke="white" stroke-width="1.5" d="M0,-3.0v7 M-2.5,-0.5L0,-3.0L2.5,-0.5"/>
                </g>
                <g id="arrowRight" xlink:href="#dirArrow" transform="rotate(90) translate(36 -43)" onmousedown="handlePan(1,0)">
                  <use xlink:href="#rim" fill="#404040">
                        <set attributeName="fill" to="#808080" begin="arrowRight.mouseover" end="arrowRight.mouseout"/>
                  </use>
                  <path fill="none" stroke="white" stroke-width="1.5" d="M0,-3.0v7 M-2.5,-0.5L0,-3.0L2.5,-0.5"/>
                </g>
                <g id="arrowDown" xlink:href="#dirArrow" transform="rotate(180) translate(-30 -48)" onmousedown="handlePan(0,1)">
                  <use xlink:href="#rim" fill="#404040">
                        <set attributeName="fill" to="#808080" begin="arrowDown.mouseover" end="arrowDown.mouseout"/>
                  </use>
                  <path fill="none" stroke="white" stroke-width="1.5" d="M0,-3.0v7 M-2.5,-0.5L0,-3.0L2.5,-0.5"/>
                </g>
                <g id="arrowLeft" xlink:href="#dirArrow" transform="rotate(270) translate(-36 17)" onmousedown="handlePan(-1,0)">
                  <use xlink:href="#rim" fill="#404040">
                        <set attributeName="fill" to="#808080" begin="arrowLeft.mouseover" end="arrowLeft.mouseout"/>
                  </use>
                  <path fill="none" stroke="white" stroke-width="1.5" d="M0,-3.0v7 M-2.5,-0.5L0,-3.0L2.5,-0.5"/>
                </g>
        </g>
        <svg viewBox="0 0 15 15" width="100%" height="30px" preserveAspectRatio="xMaxYMin meet">
         <g id="arrow_out" transform="scale(0.3 0.3)">
          <a xlink:href="hfa-se-wqe_8c_a3c04138a5bfe5d72780bb7e82a18e627_cgraph_org.svg" target="_base">
           <rect id="button" ry="5" rx="5" y="6" x="6" height="38" width="38"
                fill="#f2f5e9" fill-opacity="0.5" stroke="#606060" stroke-width="1.0"/>
           <path id="arrow"
             d="M 11.500037,31.436501 C 11.940474,20.09759 22.043105,11.32322 32.158766,21.979434 L 37.068811,17.246167 C 37.068811,17.246167 37.088388,32 37.088388,32 L 22.160133,31.978069 C 22.160133,31.978069 26.997745,27.140456 26.997745,27.140456 C 18.528582,18.264221 13.291696,25.230495 11.500037,31.436501 z"
             style="fill:#404040;"/>
          </a>
         </g>
        </svg>
</svg>
