<?xml version="1.0" encoding="UTF-8" standalone="no"?>
<!DOCTYPE svg PUBLIC "-//W3C//DTD SVG 1.1//EN"
 "http://www.w3.org/Graphics/SVG/1.1/DTD/svg11.dtd">
<!-- Generated by graphviz version 2.24.0 (20090616.2323)
 -->
<!-- Title: pphfa_getstats Pages: 1 -->
<!--zoomable 668 -->
<svg id="main" version="1.1" xmlns="http://www.w3.org/2000/svg" xmlns:xlink="http://www.w3.org/1999/xlink" xml:space="preserve" onload="init(evt)">
        <defs>
                <circle id="rim" cx="0" cy="0" r="7"/>
                <circle id="rim2" cx="0" cy="0" r="3.5"/>
                <g id="zoomPlus">
                        <use xlink:href="#rim" fill="#404040">
                                <set attributeName="fill" to="#808080" begin="zoomplus.mouseover" end="zoomplus.mouseout"/>
                        </use>
                        <path d="M-4,0h8M0,-4v8" fill="none" stroke="white" stroke-width="1.5" pointer-events="none"/>
                </g>
                <g id="zoomMin">
                        <use xlink:href="#rim" fill="#404040">
                                <set attributeName="fill" to="#808080" begin="zoomminus.mouseover" end="zoomminus.mouseout"/>
                        </use>
                        <path d="M-4,0h8" fill="none" stroke="white" stroke-width="1.5" pointer-events="none"/>
                </g>
                <g id="dirArrow">
                        <path fill="none" stroke="white" stroke-width="1.5" d="M0,-3.0v7 M-2.5,-0.5L0,-3.0L2.5,-0.5"/>
                </g>
               <g id="resetDef">
                       <use xlink:href="#rim2" fill="#404040">
                               <set attributeName="fill" to="#808080" begin="reset.mouseover" end="reset.mouseout"/>
                       </use>
               </g>
        </defs>

<script type="text/javascript">
var viewWidth = 1534;
var viewHeight = 668;
var sectionId = 'dynsection-6';
</script>
<script xlink:href="svgpan.js"/>
<svg id="graph" class="graph">
<g id="viewport">
<title>pphfa_getstats</title>
<polygon fill="white" stroke="white" points="-4,5 -4,-664.096 1531,-664.096 1531,5 -4,5"/>
<!-- Node1 -->
<g id="node1" class="node"><title>Node1</title>
<polygon fill="#bfbfbf" stroke="black" points="0.5,-268.5 0.5,-289.5 87.5,-289.5 87.5,-268.5 0.5,-268.5"/>
<text text-anchor="middle" x="44" y="-276.5" font-family="FreeSans" font-size="10.00">pphfa_getstats</text>
</g>
<!-- Node2 -->
<g id="node3" class="node"><title>Node2</title>
<a xlink:href="ppdfa_8h.html#ad894c2dd60b38ff45a53f69637a0a29a" target="_top" xlink:title="ppgetstats">
<polygon fill="white" stroke="black" points="124,-268.5 124,-289.5 190,-289.5 190,-268.5 124,-268.5"/>
<text text-anchor="middle" x="157" y="-276.5" font-family="FreeSans" font-size="10.00">ppgetstats</text>
</a>
</g>
<!-- Node1&#45;&gt;Node2 -->
<g id="edge2" class="edge"><title>Node1&#45;&gt;Node2</title>
<path fill="none" stroke="midnightblue" d="M97.7083,-279C106.661,-279 115.707,-279 123.944,-279"/>
<polygon fill="midnightblue" stroke="midnightblue" points="97.6888,-275.5 87.6888,-279 97.6887,-282.5 97.6888,-275.5"/>
</g>
<!-- Node3 -->
<g id="node5" class="node"><title>Node3</title>
<a xlink:href="cvm-hfa-search_8c.html#a30064f173d814bd3791b59d675c2f45f" target="_top" xlink:title="This routine cleans&#45;up a Search Context.">
<polygon fill="white" stroke="black" points="226,-288.5 226,-309.5 378,-309.5 378,-288.5 226,-288.5"/>
<text text-anchor="middle" x="302" y="-296.5" font-family="FreeSans" font-size="10.00">hfa_dev_searchctx_cleanup</text>
</a>
</g>
<!-- Node2&#45;&gt;Node3 -->
<g id="edge4" class="edge"><title>Node2&#45;&gt;Node3</title>
<path fill="none" stroke="midnightblue" d="M200.19,-284.957C208.305,-286.077 217.008,-287.277 225.784,-288.488"/>
<polygon fill="midnightblue" stroke="midnightblue" points="200.65,-281.488 190.266,-283.588 199.694,-288.422 200.65,-281.488"/>
</g>
<!-- Node45 -->
<g id="node96" class="node"><title>Node45</title>
<a xlink:href="cvm-hfa-search_8c.html#a60c8025118f6a47f924733e47db8c77d" target="_top" xlink:title="This routine is used to specify settings used during the search and getmatches API.">
<polygon fill="white" stroke="black" points="238,-486.5 238,-507.5 366,-507.5 366,-486.5 238,-486.5"/>
<text text-anchor="middle" x="302" y="-494.5" font-family="FreeSans" font-size="10.00">hfa_searchctx_setflags</text>
</a>
</g>
<!-- Node2&#45;&gt;Node45 -->
<g id="edge102" class="edge"><title>Node2&#45;&gt;Node45</title>
<path fill="none" stroke="midnightblue" d="M169.598,-297.94C199.097,-342.29 271.894,-451.737 294.907,-486.336"/>
<polygon fill="midnightblue" stroke="midnightblue" points="172.446,-295.903 163.994,-289.515 166.618,-299.779 172.446,-295.903"/>
</g>
<!-- Node48 -->
<g id="node107" class="node"><title>Node48</title>
<a xlink:href="cvm-hfa-search_8c.html#a26b545e4ea8602ce6b32dae8554de39a" target="_top" xlink:title="This routine returns a copy of Post Process statistics to the application through a pointer provided ...">
<polygon fill="white" stroke="black" points="229.5,-248.5 229.5,-269.5 374.5,-269.5 374.5,-248.5 229.5,-248.5"/>
<text text-anchor="middle" x="302" y="-256.5" font-family="FreeSans" font-size="10.00">hfa_searchctx_get_ppstats</text>
</a>
</g>
<!-- Node2&#45;&gt;Node48 -->
<g id="edge118" class="edge"><title>Node2&#45;&gt;Node48</title>
<path fill="none" stroke="midnightblue" d="M200.266,-273.032C209.442,-271.767 219.367,-270.398 229.298,-269.028"/>
<polygon fill="midnightblue" stroke="midnightblue" points="199.694,-269.578 190.266,-274.412 200.65,-276.512 199.694,-269.578"/>
</g>
<!-- Node49 -->
<g id="node109" class="node"><title>Node49</title>
<a xlink:href="cvm-hfa-search_8c.html#a48920dcf6a80687b7f6c86056f29523a" target="_top" xlink:title="This routine is used to print PP statistics while post processing is going on.">
<polygon fill="white" stroke="black" points="239.5,-98 239.5,-132 364.5,-132 364.5,-98 239.5,-98"/>
<text text-anchor="start" x="247.5" y="-119" font-family="FreeSans" font-size="10.00">hfa_searchctx_ppstats</text>
<text text-anchor="middle" x="302" y="-106" font-family="FreeSans" font-size="10.00">_print</text>
</a>
</g>
<!-- Node2&#45;&gt;Node49 -->
<g id="edge120" class="edge"><title>Node2&#45;&gt;Node49</title>
<path fill="none" stroke="midnightblue" d="M173.35,-260.508C201.632,-228.52 259.291,-163.305 286.774,-132.222"/>
<polygon fill="midnightblue" stroke="midnightblue" points="170.516,-258.429 166.514,-268.24 175.76,-263.066 170.516,-258.429"/>
</g>
<!-- Node4 -->
<g id="node7" class="node"><title>Node4</title>
<a xlink:href="flow_8c.html#a28378e8a6f53ff0e87f2e688d1c21834" target="_top" xlink:title="Low level API to create a flow Allocate Flow, Intialize searchctx, set graph and setflags,.">
<polygon fill="white" stroke="black" points="417.5,-446.5 417.5,-467.5 524.5,-467.5 524.5,-446.5 417.5,-446.5"/>
<text text-anchor="middle" x="471" y="-454.5" font-family="FreeSans" font-size="10.00">__hfaf_create_flow</text>
</a>
</g>
<!-- Node3&#45;&gt;Node4 -->
<g id="edge6" class="edge"><title>Node3&#45;&gt;Node4</title>
<path fill="none" stroke="midnightblue" d="M313.041,-318.637C330.685,-348.329 367.978,-404.612 414,-437 419.317,-440.742 425.402,-443.845 431.572,-446.398"/>
<polygon fill="midnightblue" stroke="midnightblue" points="315.876,-316.55 307.827,-309.66 309.823,-320.065 315.876,-316.55"/>
</g>
<!-- Node7 -->
<g id="node13" class="node"><title>Node7</title>
<a xlink:href="flow_8c.html#a696ee2b7ad7078c47242360be84d89bf" target="_top" xlink:title="Counterpart of __hfaf_create_flow.">
<polygon fill="white" stroke="black" points="414.5,-366.5 414.5,-387.5 527.5,-387.5 527.5,-366.5 414.5,-366.5"/>
<text text-anchor="middle" x="471" y="-374.5" font-family="FreeSans" font-size="10.00">__hfaf_destroy_flow</text>
</a>
</g>
<!-- Node3&#45;&gt;Node7 -->
<g id="edge12" class="edge"><title>Node3&#45;&gt;Node7</title>
<path fill="none" stroke="midnightblue" d="M334.086,-313.809C367.37,-329.171 418.584,-352.808 448.029,-366.398"/>
<polygon fill="midnightblue" stroke="midnightblue" points="335.338,-310.532 324.792,-309.519 332.405,-316.888 335.338,-310.532"/>
</g>
<!-- Node12 -->
<g id="node24" class="node"><title>Node12</title>
<a xlink:href="hfa-lnx-async_8c.html#a972f8b60ef804914c009c2ef85bac50e" target="_top" xlink:title="Process search for given payload and graph.">
<polygon fill="white" stroke="black" points="1181,-565.5 1181,-586.5 1273,-586.5 1273,-565.5 1181,-565.5"/>
<text text-anchor="middle" x="1227" y="-573.5" font-family="FreeSans" font-size="10.00">process_search</text>
</a>
</g>
<!-- Node3&#45;&gt;Node12 -->
<g id="edge24" class="edge"><title>Node3&#45;&gt;Node12</title>
<path fill="none" stroke="midnightblue" d="M309.569,-319.24C328.393,-368.46 378.373,-492.203 414,-517 538.936,-603.958 1028,-586.432 1180.99,-578.619"/>
<polygon fill="midnightblue" stroke="midnightblue" points="312.762,-317.789 305.946,-309.677 306.216,-320.269 312.762,-317.789"/>
</g>
<!-- Node16 -->
<g id="node33" class="node"><title>Node16</title>
<a xlink:href="hfa-lnx-ctx_8c.html#a630ea21ffa0ae1e09e74fc5add8c2715" target="_top" xlink:title="destroyctx">
<polygon fill="white" stroke="black" points="437.5,-406.5 437.5,-427.5 504.5,-427.5 504.5,-406.5 437.5,-406.5"/>
<text text-anchor="middle" x="471" y="-414.5" font-family="FreeSans" font-size="10.00">destroyctx</text>
</a>
</g>
<!-- Node3&#45;&gt;Node16 -->
<g id="edge34" class="edge"><title>Node3&#45;&gt;Node16</title>
<path fill="none" stroke="midnightblue" d="M318.492,-317.159C339.012,-338.807 376.006,-374.833 414,-397 421.247,-401.228 429.531,-404.766 437.496,-407.634"/>
<polygon fill="midnightblue" stroke="midnightblue" points="320.846,-314.552 311.466,-309.625 315.726,-319.326 320.846,-314.552"/>
</g>
<!-- Node21 -->
<g id="node44" class="node"><title>Node21</title>
<a xlink:href="hfa-lnx-linkgraph_8c.html#acd9e54f020b77f14d54c200b65423a15" target="_top" xlink:title="Cleanup will be done by this routine.">
<polygon fill="white" stroke="black" points="444,-128.5 444,-149.5 498,-149.5 498,-128.5 444,-128.5"/>
<text text-anchor="middle" x="471" y="-136.5" font-family="FreeSans" font-size="10.00">cleanup</text>
</a>
</g>
<!-- Node3&#45;&gt;Node21 -->
<g id="edge46" class="edge"><title>Node3&#45;&gt;Node21</title>
<path fill="none" stroke="midnightblue" d="M373.335,-282.979C374.968,-281.746 376.528,-280.422 378,-279 418.039,-240.305 375.543,-199.268 414,-159 421.823,-150.809 433.19,-145.97 443.718,-143.112"/>
<polygon fill="midnightblue" stroke="midnightblue" points="371.261,-280.148 364.632,-288.412 374.968,-286.086 371.261,-280.148"/>
</g>
<!-- Node24 -->
<g id="node50" class="node"><title>Node24</title>
<a xlink:href="hfa-lnx-nctx-lock_8c.html#a524accbd3a8024ee7cc3254698dbd8e3" target="_top" xlink:title="Parse through global linked list and cleanup each search node.">
<polygon fill="white" stroke="black" points="426.5,-168.5 426.5,-189.5 515.5,-189.5 515.5,-168.5 426.5,-168.5"/>
<text text-anchor="middle" x="471" y="-176.5" font-family="FreeSans" font-size="10.00">snode_cleanup</text>
</a>
</g>
<!-- Node3&#45;&gt;Node24 -->
<g id="edge52" class="edge"><title>Node3&#45;&gt;Node24</title>
<path fill="none" stroke="midnightblue" d="M371.785,-283.58C373.96,-282.182 376.041,-280.659 378,-279 407.755,-253.804 385.278,-225.368 414,-199 418.172,-195.17 423.12,-192.066 428.331,-189.552"/>
<polygon fill="midnightblue" stroke="midnightblue" points="370.092,-280.516 362.989,-288.377 373.444,-286.661 370.092,-280.516"/>
</g>
<!-- Node29 -->
<g id="node61" class="node"><title>Node29</title>
<a xlink:href="hfa-lnx-wqe-lock_8c.html#aca3baf1f311592e3e33788fee866710a" target="_top" xlink:title="Cleanup memory allocated for context.">
<polygon fill="white" stroke="black" points="427.5,-288.5 427.5,-309.5 514.5,-309.5 514.5,-288.5 427.5,-288.5"/>
<text text-anchor="middle" x="471" y="-296.5" font-family="FreeSans" font-size="10.00">ctxdb_cleanup</text>
</a>
</g>
<!-- Node3&#45;&gt;Node29 -->
<g id="edge64" class="edge"><title>Node3&#45;&gt;Node29</title>
<path fill="none" stroke="midnightblue" d="M388.379,-299C401.84,-299 415.237,-299 427.204,-299"/>
<polygon fill="midnightblue" stroke="midnightblue" points="388.095,-295.5 378.095,-299 388.095,-302.5 388.095,-295.5"/>
</g>
<!-- Node30 -->
<g id="node63" class="node"><title>Node30</title>
<a xlink:href="hfa-lnx-wqe_8c.html#a2b521122b98391a14bf2df50b7155bb1" target="_top" xlink:title="Cleanup memory allocated for context.">
<polygon fill="white" stroke="black" points="433.5,-248.5 433.5,-269.5 508.5,-269.5 508.5,-248.5 433.5,-248.5"/>
<text text-anchor="middle" x="471" y="-256.5" font-family="FreeSans" font-size="10.00">cleanup_ctx</text>
</a>
</g>
<!-- Node3&#45;&gt;Node30 -->
<g id="edge66" class="edge"><title>Node3&#45;&gt;Node30</title>
<path fill="none" stroke="midnightblue" d="M356.196,-286.173C381.402,-280.207 410.755,-273.259 433.47,-267.883"/>
<polygon fill="midnightblue" stroke="midnightblue" points="355.328,-282.781 346.403,-288.49 356.94,-289.593 355.328,-282.781"/>
</g>
<!-- Node32 -->
<g id="node67" class="node"><title>Node32</title>
<a xlink:href="hfa-lnx_8c.html#a924d2733ebc7a856f8c3fd293193ba44" target="_top" xlink:title="Initialize search context.">
<polygon fill="white" stroke="black" points="433.5,-486.5 433.5,-507.5 508.5,-507.5 508.5,-486.5 433.5,-486.5"/>
<text text-anchor="middle" x="471" y="-494.5" font-family="FreeSans" font-size="10.00">initialize_ctx</text>
</a>
</g>
<!-- Node3&#45;&gt;Node32 -->
<g id="edge70" class="edge"><title>Node3&#45;&gt;Node32</title>
<path fill="none" stroke="midnightblue" d="M309.421,-319.112C323.921,-355.724 359.445,-433.484 414,-477 419.657,-481.512 426.405,-485.045 433.246,-487.799"/>
<polygon fill="midnightblue" stroke="midnightblue" points="312.598,-317.623 305.743,-309.545 306.064,-320.135 312.598,-317.623"/>
</g>
<!-- Node43 -->
<g id="node91" class="node"><title>Node43</title>
<a xlink:href="hfa-se-async_8c.html#a1b239994494fe75dc3fd1287ea790f77" target="_top" xlink:title="Cleanup per core parameters.">
<polygon fill="white" stroke="black" points="1011.5,-71.5 1011.5,-92.5 1092.5,-92.5 1092.5,-71.5 1011.5,-71.5"/>
<text text-anchor="middle" x="1052" y="-79.5" font-family="FreeSans" font-size="10.00">core_cleanup</text>
</a>
</g>
<!-- Node3&#45;&gt;Node43 -->
<g id="edge96" class="edge"><title>Node3&#45;&gt;Node43</title>
<path fill="none" stroke="midnightblue" d="M374.084,-282.616C375.454,-281.487 376.763,-280.283 378,-279 428.604,-226.54 363.211,-171.28 414,-119 485.281,-45.6259 534.702,-62 637,-62 637,-62 637,-62 805,-62 877.923,-62 962.562,-70.7678 1011.43,-76.6929"/>
<polygon fill="midnightblue" stroke="midnightblue" points="371.977,-279.816 365.643,-288.309 375.891,-285.619 371.977,-279.816"/>
</g>
<!-- Node44 -->
<g id="node94" class="node"><title>Node44</title>
<a xlink:href="hfa-se-ngraphs_8c.html#a3c04138a5bfe5d72780bb7e82a18e627" target="_top" xlink:title="main">
<polygon fill="white" stroke="black" points="451,-208.5 451,-229.5 491,-229.5 491,-208.5 451,-208.5"/>
<text text-anchor="middle" x="471" y="-216.5" font-family="FreeSans" font-size="10.00">main</text>
</a>
</g>
<!-- Node3&#45;&gt;Node44 -->
<g id="edge100" class="edge"><title>Node3&#45;&gt;Node44</title>
<path fill="none" stroke="midnightblue" d="M367.123,-284.662C370.903,-282.978 374.56,-281.098 378,-279 398.42,-266.547 394.096,-252.261 414,-239 425.171,-231.557 439.421,-226.557 450.879,-223.418"/>
<polygon fill="midnightblue" stroke="midnightblue" points="365.542,-281.524 357.533,-288.46 368.119,-288.032 365.542,-281.524"/>
</g>
<!-- Node5 -->
<g id="node9" class="node"><title>Node5</title>
<a xlink:href="flow_8h.html#abdb62c6f71f5ca9ecddc66c90166d37b" target="_top" xlink:title="Create Packet Flow in Flowdb.">
<polygon fill="white" stroke="black" points="581.5,-446.5 581.5,-467.5 692.5,-467.5 692.5,-446.5 581.5,-446.5"/>
<text text-anchor="middle" x="637" y="-454.5" font-family="FreeSans" font-size="10.00">hfaf_create_pktflow</text>
</a>
</g>
<!-- Node4&#45;&gt;Node5 -->
<g id="edge8" class="edge"><title>Node4&#45;&gt;Node5</title>
<path fill="none" stroke="midnightblue" d="M535.262,-457C550.48,-457 566.584,-457 581.381,-457"/>
<polygon fill="midnightblue" stroke="midnightblue" points="534.895,-453.5 524.895,-457 534.895,-460.5 534.895,-453.5"/>
</g>
<!-- Node6 -->
<g id="node11" class="node"><title>Node6</title>
<a xlink:href="hfa-se-flow-wqe_8c.html#a6d3e23d8f7a3aaf1b0d6e350b7631a0e" target="_top" xlink:title="Get flow pointer from Flow database, If flow ptr is NULL then create at runtime.">
<polygon fill="white" stroke="black" points="770.5,-446.5 770.5,-467.5 839.5,-467.5 839.5,-446.5 770.5,-446.5"/>
<text text-anchor="middle" x="805" y="-454.5" font-family="FreeSans" font-size="10.00">get_flowptr</text>
</a>
</g>
<!-- Node5&#45;&gt;Node6 -->
<g id="edge10" class="edge"><title>Node5&#45;&gt;Node6</title>
<path fill="none" stroke="midnightblue" d="M703.006,-457C726.009,-457 750.902,-457 770.337,-457"/>
<polygon fill="midnightblue" stroke="midnightblue" points="702.942,-453.5 692.942,-457 702.942,-460.5 702.942,-453.5"/>
</g>
<!-- Node7&#45;&gt;Node5 -->
<g id="edge20" class="edge"><title>Node7&#45;&gt;Node5</title>
<path fill="none" stroke="midnightblue" d="M513.409,-390.998C518.376,-392.897 523.332,-394.914 528,-397 561.526,-411.985 598.592,-433.527 619.712,-446.309"/>
<polygon fill="midnightblue" stroke="midnightblue" points="514.512,-387.675 503.919,-387.507 512.095,-394.245 514.512,-387.675"/>
</g>
<!-- Node8 -->
<g id="node15" class="node"><title>Node8</title>
<a xlink:href="flow_8c.html#a93974ea83df979435eb77f3c5d4ab848" target="_top" xlink:title="Cleanup Flowdb Node (Per Index)">
<polygon fill="white" stroke="black" points="564,-328.5 564,-349.5 710,-349.5 710,-328.5 564,-328.5"/>
<text text-anchor="middle" x="637" y="-336.5" font-family="FreeSans" font-size="10.00">hfaf_flowdb_node_cleanup</text>
</a>
</g>
<!-- Node7&#45;&gt;Node8 -->
<g id="edge14" class="edge"><title>Node7&#45;&gt;Node8</title>
<path fill="none" stroke="midnightblue" d="M527.208,-364.133C547.976,-359.379 571.251,-354.051 591.008,-349.528"/>
<polygon fill="midnightblue" stroke="midnightblue" points="526.207,-360.772 517.24,-366.415 527.769,-367.595 526.207,-360.772"/>
</g>
<!-- Node11 -->
<g id="node22" class="node"><title>Node11</title>
<a xlink:href="flow_8h.html#a8d99fe33dc3203530d360196cc7decb4" target="_top" xlink:title="Counterpart of hfaf_create_pktflow().">
<polygon fill="white" stroke="black" points="579,-288.5 579,-309.5 695,-309.5 695,-288.5 579,-288.5"/>
<text text-anchor="middle" x="637" y="-296.5" font-family="FreeSans" font-size="10.00">hfaf_destroy_pktflow</text>
</a>
</g>
<!-- Node7&#45;&gt;Node11 -->
<g id="edge22" class="edge"><title>Node7&#45;&gt;Node11</title>
<path fill="none" stroke="midnightblue" d="M509.369,-362.254C515.782,-359.208 522.222,-355.766 528,-352 546.184,-340.148 545.001,-329.495 564,-319 570.901,-315.188 578.578,-312.064 586.287,-309.515"/>
<polygon fill="midnightblue" stroke="midnightblue" points="507.764,-359.138 500.073,-366.424 510.629,-365.525 507.764,-359.138"/>
</g>
<!-- Node9 -->
<g id="node17" class="node"><title>Node9</title>
<a xlink:href="flow_8h.html#a2a51025bf645e4e1eec8cac2b4f8a8c0" target="_top" xlink:title="Cleanups Flow database which was created in hfaf_flowdb_init()">
<polygon fill="white" stroke="black" points="746.5,-288.5 746.5,-309.5 863.5,-309.5 863.5,-288.5 746.5,-288.5"/>
<text text-anchor="middle" x="805" y="-296.5" font-family="FreeSans" font-size="10.00">hfaf_flowdb_cleanup</text>
</a>
</g>
<!-- Node8&#45;&gt;Node9 -->
<g id="edge16" class="edge"><title>Node8&#45;&gt;Node9</title>
<path fill="none" stroke="midnightblue" d="M690.922,-326.161C713.509,-320.784 739.438,-314.61 760.863,-309.509"/>
<polygon fill="midnightblue" stroke="midnightblue" points="690.057,-322.769 681.14,-328.49 691.679,-329.579 690.057,-322.769"/>
</g>
<!-- Node10 -->
<g id="node19" class="node"><title>Node10</title>
<a xlink:href="hfa-se-flow-wqe_8c.html#a3c04138a5bfe5d72780bb7e82a18e627" target="_top" xlink:title="Implementation.">
<polygon fill="white" stroke="black" points="901,-288.5 901,-309.5 941,-309.5 941,-288.5 901,-288.5"/>
<text text-anchor="middle" x="921" y="-296.5" font-family="FreeSans" font-size="10.00">main</text>
</a>
</g>
<!-- Node9&#45;&gt;Node10 -->
<g id="edge18" class="edge"><title>Node9&#45;&gt;Node10</title>
<path fill="none" stroke="midnightblue" d="M873.966,-299C883.733,-299 893.07,-299 900.813,-299"/>
<polygon fill="midnightblue" stroke="midnightblue" points="873.68,-295.5 863.68,-299 873.68,-302.5 873.68,-295.5"/>
</g>
<!-- Node13 -->
<g id="node26" class="node"><title>Node13</title>
<a xlink:href="hfa-lnx-async_8c.html#a1e97b1d598034fdc92d57054a6c386e6" target="_top" xlink:title="tasklet_callback">
<polygon fill="white" stroke="black" points="1342,-585.5 1342,-606.5 1434,-606.5 1434,-585.5 1342,-585.5"/>
<text text-anchor="middle" x="1388" y="-593.5" font-family="FreeSans" font-size="10.00">tasklet_callback</text>
</a>
</g>
<!-- Node12&#45;&gt;Node13 -->
<g id="edge26" class="edge"><title>Node12&#45;&gt;Node13</title>
<path fill="none" stroke="midnightblue" d="M1283.24,-582.987C1302.4,-585.367 1323.58,-587.998 1341.86,-590.268"/>
<polygon fill="midnightblue" stroke="midnightblue" points="1283.49,-579.491 1273.14,-581.731 1282.63,-586.437 1283.49,-579.491"/>
</g>
<!-- Node15 -->
<g id="node30" class="node"><title>Node15</title>
<a xlink:href="hfa-lnx-async_8c.html#a7dea7d59754828b1173c4c7ec5d42f3e" target="_top" xlink:title="thread_callback">
<polygon fill="white" stroke="black" points="1342,-545.5 1342,-566.5 1434,-566.5 1434,-545.5 1342,-545.5"/>
<text text-anchor="middle" x="1388" y="-553.5" font-family="FreeSans" font-size="10.00">thread_callback</text>
</a>
</g>
<!-- Node12&#45;&gt;Node15 -->
<g id="edge30" class="edge"><title>Node12&#45;&gt;Node15</title>
<path fill="none" stroke="midnightblue" d="M1283.24,-569.013C1302.4,-566.633 1323.58,-564.002 1341.86,-561.732"/>
<polygon fill="midnightblue" stroke="midnightblue" points="1282.63,-565.563 1273.14,-570.269 1283.49,-572.509 1282.63,-565.563"/>
</g>
<!-- Node14 -->
<g id="node28" class="node"><title>Node14</title>
<a xlink:href="hfa-lnx-async_8c.html#a78ffddbcd7cdd164889cfb53ea367886" target="_top" xlink:title="entry">
<polygon fill="white" stroke="black" points="1484.5,-565.5 1484.5,-586.5 1525.5,-586.5 1525.5,-565.5 1484.5,-565.5"/>
<text text-anchor="middle" x="1505" y="-573.5" font-family="FreeSans" font-size="10.00">entry</text>
</a>
</g>
<!-- Node13&#45;&gt;Node14 -->
<g id="edge28" class="edge"><title>Node13&#45;&gt;Node14</title>
<path fill="none" stroke="midnightblue" d="M1444.13,-586.405C1458.52,-583.945 1473.1,-581.452 1484.39,-579.524"/>
<polygon fill="midnightblue" stroke="midnightblue" points="1443.51,-582.96 1434.24,-588.095 1444.69,-589.86 1443.51,-582.96"/>
</g>
<!-- Node15&#45;&gt;Node14 -->
<g id="edge32" class="edge"><title>Node15&#45;&gt;Node14</title>
<path fill="none" stroke="midnightblue" d="M1444.13,-565.595C1458.52,-568.055 1473.1,-570.548 1484.39,-572.476"/>
<polygon fill="midnightblue" stroke="midnightblue" points="1444.69,-562.14 1434.24,-563.905 1443.51,-569.04 1444.69,-562.14"/>
</g>
<!-- Node17 -->
<g id="node35" class="node"><title>Node17</title>
<a xlink:href="hfa-lnx-ctx_8c.html#a78ffddbcd7cdd164889cfb53ea367886" target="_top" xlink:title="entry">
<polygon fill="white" stroke="black" points="900.5,-407.5 900.5,-428.5 941.5,-428.5 941.5,-407.5 900.5,-407.5"/>
<text text-anchor="middle" x="921" y="-415.5" font-family="FreeSans" font-size="10.00">entry</text>
</a>
</g>
<!-- Node16&#45;&gt;Node17 -->
<g id="edge36" class="edge"><title>Node16&#45;&gt;Node17</title>
<path fill="none" stroke="midnightblue" d="M514.957,-417.098C609.934,-417.309 831.281,-417.801 900.161,-417.954"/>
<polygon fill="midnightblue" stroke="midnightblue" points="514.831,-413.597 504.823,-417.075 514.815,-420.597 514.831,-413.597"/>
</g>
<!-- Node18 -->
<g id="node37" class="node"><title>Node18</title>
<a xlink:href="hfa-lnx-ctx_8c.html#a3c1f07835ef5be8d3adfbaf09af5ca28" target="_top" xlink:title="core_exit">
<polygon fill="white" stroke="black" points="607,-368.5 607,-389.5 667,-389.5 667,-368.5 607,-368.5"/>
<text text-anchor="middle" x="637" y="-376.5" font-family="FreeSans" font-size="10.00">core_exit</text>
</a>
</g>
<!-- Node16&#45;&gt;Node18 -->
<g id="edge38" class="edge"><title>Node16&#45;&gt;Node18</title>
<path fill="none" stroke="midnightblue" d="M514.482,-407.046C543.527,-400.398 580.993,-391.821 606.806,-385.912"/>
<polygon fill="midnightblue" stroke="midnightblue" points="513.559,-403.667 504.593,-409.31 515.121,-410.49 513.559,-403.667"/>
</g>
<!-- Node19 -->
<g id="node39" class="node"><title>Node19</title>
<a xlink:href="hfa-lnx-ctx_8c.html#a4c3443f524b4c0d95639694f0b74e850" target="_top" xlink:title="Process command line options, Read graph and payload.">
<polygon fill="white" stroke="black" points="758,-368.5 758,-389.5 852,-389.5 852,-368.5 758,-368.5"/>
<text text-anchor="middle" x="805" y="-376.5" font-family="FreeSans" font-size="10.00">process_options</text>
</a>
</g>
<!-- Node18&#45;&gt;Node19 -->
<g id="edge40" class="edge"><title>Node18&#45;&gt;Node19</title>
<path fill="none" stroke="midnightblue" d="M677.301,-379C701.506,-379 732.422,-379 757.771,-379"/>
<polygon fill="midnightblue" stroke="midnightblue" points="677.035,-375.5 667.035,-379 677.035,-382.5 677.035,-375.5"/>
</g>
<!-- Node20 -->
<g id="node42" class="node"><title>Node20</title>
<a xlink:href="hfa-lnx-ctx_8c.html#aaf98ef7cdde3a0dfb2e49919de3298b1" target="_top" xlink:title="exit">
<polygon fill="white" stroke="black" points="788.5,-328.5 788.5,-349.5 821.5,-349.5 821.5,-328.5 788.5,-328.5"/>
<text text-anchor="middle" x="805" y="-336.5" font-family="FreeSans" font-size="10.00">exit</text>
</a>
</g>
<!-- Node18&#45;&gt;Node20 -->
<g id="edge44" class="edge"><title>Node18&#45;&gt;Node20</title>
<path fill="none" stroke="midnightblue" d="M677.102,-369.452C712.664,-360.985 762.825,-349.042 788.48,-342.933"/>
<polygon fill="midnightblue" stroke="midnightblue" points="675.952,-366.128 667.035,-371.849 677.574,-372.937 675.952,-366.128"/>
</g>
<!-- Node19&#45;&gt;Node17 -->
<g id="edge42" class="edge"><title>Node19&#45;&gt;Node17</title>
<path fill="none" stroke="midnightblue" d="M845.989,-392.781C864.328,-398.946 885.155,-405.949 900.202,-411.008"/>
<polygon fill="midnightblue" stroke="midnightblue" points="846.985,-389.423 836.391,-389.554 844.755,-396.058 846.985,-389.423"/>
</g>
<!-- Node22 -->
<g id="node46" class="node"><title>Node22</title>
<a xlink:href="hfa-lnx-linkgraph_8c.html#a78ffddbcd7cdd164889cfb53ea367886" target="_top" xlink:title="entry">
<polygon fill="white" stroke="black" points="1206.5,-270.5 1206.5,-291.5 1247.5,-291.5 1247.5,-270.5 1206.5,-270.5"/>
<text text-anchor="middle" x="1227" y="-278.5" font-family="FreeSans" font-size="10.00">entry</text>
</a>
</g>
<!-- Node21&#45;&gt;Node22 -->
<g id="edge48" class="edge"><title>Node21&#45;&gt;Node22</title>
<path fill="none" stroke="midnightblue" d="M508.313,-139.185C570.038,-139.474 697.288,-140 805,-140 805,-140 805,-140 921,-140 1045.59,-140 1174.69,-237.611 1214.55,-270.402"/>
<polygon fill="midnightblue" stroke="midnightblue" points="508.292,-135.685 498.275,-139.137 508.259,-142.684 508.292,-135.685"/>
</g>
<!-- Node23 -->
<g id="node48" class="node"><title>Node23</title>
<a xlink:href="hfa-lnx-linkgraph_8c.html#aaf98ef7cdde3a0dfb2e49919de3298b1" target="_top" xlink:title="exit">
<polygon fill="white" stroke="black" points="620.5,-90.5 620.5,-111.5 653.5,-111.5 653.5,-90.5 620.5,-90.5"/>
<text text-anchor="middle" x="637" y="-98.5" font-family="FreeSans" font-size="10.00">exit</text>
</a>
</g>
<!-- Node21&#45;&gt;Node23 -->
<g id="edge50" class="edge"><title>Node21&#45;&gt;Node23</title>
<path fill="none" stroke="midnightblue" d="M507.898,-130.554C542.898,-122.541 593.919,-110.862 620.107,-104.867"/>
<polygon fill="midnightblue" stroke="midnightblue" points="507.007,-127.167 498.04,-132.81 508.569,-133.99 507.007,-127.167"/>
</g>
<!-- Node25 -->
<g id="node52" class="node"><title>Node25</title>
<a xlink:href="hfa-lnx-nctx-lock_8c.html#acd9e54f020b77f14d54c200b65423a15" target="_top" xlink:title="Application cleanup will be done by this routine.">
<polygon fill="white" stroke="black" points="610,-168.5 610,-189.5 664,-189.5 664,-168.5 610,-168.5"/>
<text text-anchor="middle" x="637" y="-176.5" font-family="FreeSans" font-size="10.00">cleanup</text>
</a>
</g>
<!-- Node24&#45;&gt;Node25 -->
<g id="edge54" class="edge"><title>Node24&#45;&gt;Node25</title>
<path fill="none" stroke="midnightblue" d="M526.027,-179C554.126,-179 587.069,-179 609.722,-179"/>
<polygon fill="midnightblue" stroke="midnightblue" points="525.922,-175.5 515.922,-179 525.922,-182.5 525.922,-175.5"/>
</g>
<!-- Node28 -->
<g id="node58" class="node"><title>Node28</title>
<a xlink:href="hfa-lnx-nctx-lock_8c.html#a2c813b2ff20c5bf67f487908476604d6" target="_top" xlink:title="Initialize search context object for nctxts and a global list to track nctxts.">
<polygon fill="white" stroke="black" points="587.5,-248.5 587.5,-269.5 686.5,-269.5 686.5,-248.5 587.5,-248.5"/>
<text text-anchor="middle" x="637" y="-256.5" font-family="FreeSans" font-size="10.00">initialize_ctx_glist</text>
</a>
</g>
<!-- Node24&#45;&gt;Node28 -->
<g id="edge60" class="edge"><title>Node24&#45;&gt;Node28</title>
<path fill="none" stroke="midnightblue" d="M518.846,-193.72C522.035,-195.325 525.12,-197.081 528,-199 547.904,-212.261 543.643,-226.444 564,-239 571.158,-243.415 579.299,-246.873 587.485,-249.576"/>
<polygon fill="midnightblue" stroke="midnightblue" points="520.224,-190.502 509.668,-189.595 517.354,-196.887 520.224,-190.502"/>
</g>
<!-- Node26 -->
<g id="node54" class="node"><title>Node26</title>
<a xlink:href="hfa-lnx-nctx-lock_8c.html#a78ffddbcd7cdd164889cfb53ea367886" target="_top" xlink:title="entry">
<polygon fill="white" stroke="black" points="784.5,-228.5 784.5,-249.5 825.5,-249.5 825.5,-228.5 784.5,-228.5"/>
<text text-anchor="middle" x="805" y="-236.5" font-family="FreeSans" font-size="10.00">entry</text>
</a>
</g>
<!-- Node25&#45;&gt;Node26 -->
<g id="edge56" class="edge"><title>Node25&#45;&gt;Node26</title>
<path fill="none" stroke="midnightblue" d="M674.121,-188.16C685.71,-191.289 698.474,-195.014 710,-199 736.045,-208.008 765.133,-220.653 784.178,-229.3"/>
<polygon fill="midnightblue" stroke="midnightblue" points="674.861,-184.736 664.3,-185.572 673.078,-191.505 674.861,-184.736"/>
</g>
<!-- Node27 -->
<g id="node56" class="node"><title>Node27</title>
<a xlink:href="hfa-lnx-nctx-lock_8c.html#aaf98ef7cdde3a0dfb2e49919de3298b1" target="_top" xlink:title="exit">
<polygon fill="white" stroke="black" points="788.5,-168.5 788.5,-189.5 821.5,-189.5 821.5,-168.5 788.5,-168.5"/>
<text text-anchor="middle" x="805" y="-176.5" font-family="FreeSans" font-size="10.00">exit</text>
</a>
</g>
<!-- Node25&#45;&gt;Node27 -->
<g id="edge58" class="edge"><title>Node25&#45;&gt;Node27</title>
<path fill="none" stroke="midnightblue" d="M674.398,-179C710.026,-179 762.017,-179 788.365,-179"/>
<polygon fill="midnightblue" stroke="midnightblue" points="674.366,-175.5 664.366,-179 674.366,-182.5 674.366,-175.5"/>
</g>
<!-- Node28&#45;&gt;Node26 -->
<g id="edge62" class="edge"><title>Node28&#45;&gt;Node26</title>
<path fill="none" stroke="midnightblue" d="M697.08,-251.848C727.543,-248.221 762.584,-244.05 784.263,-241.469"/>
<polygon fill="midnightblue" stroke="midnightblue" points="696.467,-248.396 686.951,-253.053 697.294,-255.347 696.467,-248.396"/>
</g>
<!-- Node31 -->
<g id="node65" class="node"><title>Node31</title>
<a xlink:href="hfa-lnx-wqe_8c.html#a972f8b60ef804914c009c2ef85bac50e" target="_top" xlink:title="process_search">
<polygon fill="white" stroke="black" points="591,-208.5 591,-229.5 683,-229.5 683,-208.5 591,-208.5"/>
<text text-anchor="middle" x="637" y="-216.5" font-family="FreeSans" font-size="10.00">process_search</text>
</a>
</g>
<!-- Node30&#45;&gt;Node31 -->
<g id="edge68" class="edge"><title>Node30&#45;&gt;Node31</title>
<path fill="none" stroke="midnightblue" d="M518.449,-247.567C542.012,-241.889 570.289,-235.075 593.316,-229.526"/>
<polygon fill="midnightblue" stroke="midnightblue" points="517.57,-244.178 508.668,-249.923 519.21,-250.983 517.57,-244.178"/>
</g>
<!-- Node33 -->
<g id="node69" class="node"><title>Node33</title>
<a xlink:href="hfa-lnx_8c.html#a78ffddbcd7cdd164889cfb53ea367886" target="_top" xlink:title="entry">
<polygon fill="white" stroke="black" points="616.5,-486.5 616.5,-507.5 657.5,-507.5 657.5,-486.5 616.5,-486.5"/>
<text text-anchor="middle" x="637" y="-494.5" font-family="FreeSans" font-size="10.00">entry</text>
</a>
</g>
<!-- Node32&#45;&gt;Node33 -->
<g id="edge72" class="edge"><title>Node32&#45;&gt;Node33</title>
<path fill="none" stroke="midnightblue" d="M518.79,-497C551.005,-497 591.907,-497 616.181,-497"/>
<polygon fill="midnightblue" stroke="midnightblue" points="518.668,-493.5 508.668,-497 518.668,-500.5 518.668,-493.5"/>
</g>
<!-- Node34 -->
<g id="node71" class="node"><title>Node34</title>
<a xlink:href="cvm-hfa-pp_8c.html#adcc1149c628372e2e566c246870929cb" target="_top" xlink:title="infoentry">
<polygon fill="white" stroke="black" points="775.5,-526.5 775.5,-547.5 834.5,-547.5 834.5,-526.5 775.5,-526.5"/>
<text text-anchor="middle" x="805" y="-534.5" font-family="FreeSans" font-size="10.00">infoentry</text>
</a>
</g>
<!-- Node33&#45;&gt;Node34 -->
<g id="edge74" class="edge"><title>Node33&#45;&gt;Node34</title>
<path fill="none" stroke="midnightblue" d="M667.723,-504.315C698.397,-511.618 745.21,-522.764 775.46,-529.967"/>
<polygon fill="midnightblue" stroke="midnightblue" points="668.139,-500.816 657.6,-501.905 666.517,-507.626 668.139,-500.816"/>
</g>
<!-- Node35 -->
<g id="node73" class="node"><title>Node35</title>
<a xlink:href="ppdfa_8h.html#a81b3389c2c25a4ba308f71501f980e38" target="_top" xlink:title="pp">
<polygon fill="white" stroke="black" points="906.5,-487.5 906.5,-508.5 935.5,-508.5 935.5,-487.5 906.5,-487.5"/>
<text text-anchor="middle" x="921" y="-495.5" font-family="FreeSans" font-size="10.00">pp</text>
</a>
</g>
<!-- Node34&#45;&gt;Node35 -->
<g id="edge76" class="edge"><title>Node34&#45;&gt;Node35</title>
<path fill="none" stroke="midnightblue" d="M844.088,-523.858C865.496,-516.661 890.764,-508.166 906.335,-502.93"/>
<polygon fill="midnightblue" stroke="midnightblue" points="842.935,-520.553 834.572,-527.058 845.166,-527.188 842.935,-520.553"/>
</g>
<!-- Node36 -->
<g id="node75" class="node"><title>Node36</title>
<a xlink:href="cvm-hfa-search_8c.html#a6dbb15dc58155b2c94b19784ad42ef89" target="_top" xlink:title="This routine post&#45;processes the search results from the HFA engine and reports the pattern matches fo...">
<polygon fill="white" stroke="black" points="978.5,-433.5 978.5,-454.5 1125.5,-454.5 1125.5,-433.5 978.5,-433.5"/>
<text text-anchor="middle" x="1052" y="-441.5" font-family="FreeSans" font-size="10.00">hfa_searchctx_getmatches</text>
</a>
</g>
<!-- Node35&#45;&gt;Node36 -->
<g id="edge78" class="edge"><title>Node35&#45;&gt;Node36</title>
<path fill="none" stroke="midnightblue" d="M944.884,-488.155C967.868,-478.68 1002.52,-464.395 1026.15,-454.657"/>
<polygon fill="midnightblue" stroke="midnightblue" points="943.431,-484.968 935.52,-492.015 946.099,-491.439 943.431,-484.968"/>
</g>
<!-- Node36&#45;&gt;Node12 -->
<g id="edge84" class="edge"><title>Node36&#45;&gt;Node12</title>
<path fill="none" stroke="midnightblue" d="M1074.08,-460.657C1110.59,-488.194 1182.51,-542.443 1212.91,-565.371"/>
<polygon fill="midnightblue" stroke="midnightblue" points="1076.12,-457.807 1066.03,-454.579 1071.9,-463.395 1076.12,-457.807"/>
</g>
<!-- Node36&#45;&gt;Node22 -->
<g id="edge88" class="edge"><title>Node36&#45;&gt;Node22</title>
<path fill="none" stroke="midnightblue" d="M1070.99,-426.309C1107.48,-392.323 1186.36,-318.853 1215.7,-291.522"/>
<polygon fill="midnightblue" stroke="midnightblue" points="1068.41,-423.928 1063.48,-433.305 1073.19,-429.05 1068.41,-423.928"/>
</g>
<!-- Node37 -->
<g id="node77" class="node"><title>Node37</title>
<a xlink:href="flow_8c.html#a2976ab60901b133a56214323fb901663" target="_top" xlink:title="Low level API to poll a flow.">
<polygon fill="white" stroke="black" points="1162.5,-413.5 1162.5,-434.5 1291.5,-434.5 1291.5,-413.5 1162.5,-413.5"/>
<text text-anchor="middle" x="1227" y="-421.5" font-family="FreeSans" font-size="10.00">__hfaf_process_pktflow</text>
</a>
</g>
<!-- Node36&#45;&gt;Node37 -->
<g id="edge80" class="edge"><title>Node36&#45;&gt;Node37</title>
<path fill="none" stroke="midnightblue" d="M1135.73,-434.431C1144.65,-433.412 1153.61,-432.387 1162.26,-431.399"/>
<polygon fill="midnightblue" stroke="midnightblue" points="1135.25,-430.963 1125.71,-435.576 1136.04,-437.918 1135.25,-430.963"/>
</g>
<!-- Node39 -->
<g id="node82" class="node"><title>Node39</title>
<a xlink:href="hfa-lnx-ctx_8c.html#a71e1d3d18cc48b90a1ecde583ffb3f7a" target="_top" xlink:title="poll_searchctx">
<polygon fill="white" stroke="red" points="1184,-373.5 1184,-394.5 1270,-394.5 1270,-373.5 1184,-373.5"/>
<text text-anchor="middle" x="1227" y="-381.5" font-family="FreeSans" font-size="10.00">poll_searchctx</text>
</a>
</g>
<!-- Node36&#45;&gt;Node39 -->
<g id="edge86" class="edge"><title>Node36&#45;&gt;Node39</title>
<path fill="none" stroke="midnightblue" d="M1089.49,-429.838C1110.68,-421.966 1137.72,-412.145 1162,-404 1171.51,-400.808 1181.88,-397.531 1191.48,-394.577"/>
<polygon fill="midnightblue" stroke="midnightblue" points="1088.04,-426.643 1079.9,-433.417 1090.49,-433.201 1088.04,-426.643"/>
</g>
<!-- Node40 -->
<g id="node85" class="node"><title>Node40</title>
<a xlink:href="hfa-lnx-nctx-lock_8c.html#adb0c831ef0f9af5441a6769c377d9c95" target="_top" xlink:title="Post process the results from HFA and record found matches.">
<polygon fill="white" stroke="red" points="1187,-493.5 1187,-514.5 1267,-514.5 1267,-493.5 1187,-493.5"/>
<text text-anchor="middle" x="1227" y="-501.5" font-family="FreeSans" font-size="10.00">post_process</text>
</a>
</g>
<!-- Node36&#45;&gt;Node40 -->
<g id="edge90" class="edge"><title>Node36&#45;&gt;Node40</title>
<path fill="none" stroke="midnightblue" d="M1089.49,-458.162C1110.68,-466.034 1137.72,-475.855 1162,-484 1171.51,-487.192 1181.88,-490.469 1191.48,-493.423"/>
<polygon fill="midnightblue" stroke="midnightblue" points="1090.49,-454.799 1079.9,-454.583 1088.04,-461.357 1090.49,-454.799"/>
</g>
<!-- Node41 -->
<g id="node87" class="node"><title>Node41</title>
<a xlink:href="hfa-se-async_8c.html#a3c04138a5bfe5d72780bb7e82a18e627" target="_top" xlink:title="main">
<polygon fill="white" stroke="black" points="1207,-103.5 1207,-124.5 1247,-124.5 1247,-103.5 1207,-103.5"/>
<text text-anchor="middle" x="1227" y="-111.5" font-family="FreeSans" font-size="10.00">main</text>
</a>
</g>
<!-- Node36&#45;&gt;Node41 -->
<g id="edge92" class="edge"><title>Node36&#45;&gt;Node41</title>
<path fill="none" stroke="midnightblue" d="M1062.47,-424.257C1095.41,-362.138 1196.23,-172.014 1221.31,-124.732"/>
<polygon fill="midnightblue" stroke="midnightblue" points="1059.22,-422.92 1057.62,-433.394 1065.4,-426.199 1059.22,-422.92"/>
</g>
<!-- Node42 -->
<g id="node89" class="node"><title>Node42</title>
<a xlink:href="hfa-se-wqe-lock_8c.html#a06b5fcfab0e1d5eb36b633ec080ad7f9" target="_top" xlink:title="Process search for given contexts.">
<polygon fill="white" stroke="red" points="1187,-453.5 1187,-474.5 1267,-474.5 1267,-453.5 1187,-453.5"/>
<text text-anchor="middle" x="1227" y="-461.5" font-family="FreeSans" font-size="10.00">process_nctx</text>
</a>
</g>
<!-- Node36&#45;&gt;Node42 -->
<g id="edge94" class="edge"><title>Node36&#45;&gt;Node42</title>
<path fill="none" stroke="midnightblue" d="M1136.07,-453.608C1153.75,-455.628 1171.61,-457.67 1186.77,-459.402"/>
<polygon fill="midnightblue" stroke="midnightblue" points="1136.04,-450.082 1125.71,-452.424 1135.25,-457.037 1136.04,-450.082"/>
</g>
<!-- Node38 -->
<g id="node79" class="node"><title>Node38</title>
<a xlink:href="flow_8h.html#ab1b3378af88a440a6c3c0851be942e65" target="_top" xlink:title="All submitted search parameters in Paramlist of flow are polled If low level API __hfaf_process_pktfl...">
<polygon fill="white" stroke="red" points="1328.5,-413.5 1328.5,-434.5 1447.5,-434.5 1447.5,-413.5 1328.5,-413.5"/>
<text text-anchor="middle" x="1388" y="-421.5" font-family="FreeSans" font-size="10.00">hfaf_process_pktflow</text>
</a>
</g>
<!-- Node37&#45;&gt;Node38 -->
<g id="edge82" class="edge"><title>Node37&#45;&gt;Node38</title>
<path fill="none" stroke="midnightblue" d="M1301.62,-424C1310.59,-424 1319.66,-424 1328.38,-424"/>
<polygon fill="midnightblue" stroke="midnightblue" points="1301.56,-420.5 1291.56,-424 1301.56,-427.5 1301.56,-420.5"/>
</g>
<!-- Node43&#45;&gt;Node41 -->
<g id="edge98" class="edge"><title>Node43&#45;&gt;Node41</title>
<path fill="none" stroke="midnightblue" d="M1102.55,-91.2442C1137.24,-97.5859 1181.4,-105.662 1206.71,-110.29"/>
<polygon fill="midnightblue" stroke="midnightblue" points="1103.05,-87.7778 1092.59,-89.4219 1101.8,-94.6636 1103.05,-87.7778"/>
</g>
<!-- Node45&#45;&gt;Node4 -->
<g id="edge104" class="edge"><title>Node45&#45;&gt;Node4</title>
<path fill="none" stroke="midnightblue" d="M356.243,-484.161C378.964,-478.784 405.048,-472.61 426.601,-467.509"/>
<polygon fill="midnightblue" stroke="midnightblue" points="355.328,-480.781 346.403,-486.49 356.94,-487.593 355.328,-480.781"/>
</g>
<!-- Node45&#45;&gt;Node12 -->
<g id="edge106" class="edge"><title>Node45&#45;&gt;Node12</title>
<path fill="none" stroke="midnightblue" d="M311.51,-516.521C327.727,-547.399 363.904,-606.7 414,-633 502.071,-679.236 537.53,-652 637,-652 637,-652 637,-652 921,-652 1028.29,-652 1150.66,-607.45 1202.13,-586.567"/>
<polygon fill="midnightblue" stroke="midnightblue" points="314.61,-514.895 306.954,-507.572 308.372,-518.071 314.61,-514.895"/>
</g>
<!-- Node45&#45;&gt;Node28 -->
<g id="edge114" class="edge"><title>Node45&#45;&gt;Node28</title>
<path fill="none" stroke="midnightblue" d="M312.68,-477.375C330.049,-447.232 367.231,-389.611 414,-357 457.809,-326.453 483.323,-348.263 528,-319 548.008,-305.895 543.643,-291.556 564,-279 571.158,-274.585 579.299,-271.127 587.485,-268.424"/>
<polygon fill="midnightblue" stroke="midnightblue" points="309.607,-475.699 307.749,-486.13 315.706,-479.134 309.607,-475.699"/>
</g>
<!-- Node45&#45;&gt;Node32 -->
<g id="edge116" class="edge"><title>Node45&#45;&gt;Node32</title>
<path fill="none" stroke="midnightblue" d="M376.538,-497C396.144,-497 416.477,-497 433.233,-497"/>
<polygon fill="midnightblue" stroke="midnightblue" points="376.374,-493.5 366.374,-497 376.374,-500.5 376.374,-493.5"/>
</g>
<!-- Node46 -->
<g id="node100" class="node"><title>Node46</title>
<a xlink:href="hfa-lnx-ctx_8c.html#a6926aada806433e15eae2c50298b4aa9" target="_top" xlink:title="createctx">
<polygon fill="white" stroke="black" points="774,-486.5 774,-507.5 836,-507.5 836,-486.5 774,-486.5"/>
<text text-anchor="middle" x="805" y="-494.5" font-family="FreeSans" font-size="10.00">createctx</text>
</a>
</g>
<!-- Node45&#45;&gt;Node46 -->
<g id="edge108" class="edge"><title>Node45&#45;&gt;Node46</title>
<path fill="none" stroke="midnightblue" d="M360.189,-509.402C377.428,-512.53 396.402,-515.441 414,-517 545.042,-528.608 579.152,-530.624 710,-517 731.458,-514.766 755.208,-509.766 773.593,-505.324"/>
<polygon fill="midnightblue" stroke="midnightblue" points="360.736,-505.944 350.263,-507.544 359.448,-512.824 360.736,-505.944"/>
</g>
<!-- Node47 -->
<g id="node103" class="node"><title>Node47</title>
<a xlink:href="hfa-lnx-linkgraph_8c.html#a6604748091c732cb29568c12d0f77b4e" target="_top" xlink:title="Initialize search ctx for each subgraph.">
<polygon fill="white" stroke="black" points="433,-602.5 433,-623.5 509,-623.5 509,-602.5 433,-602.5"/>
<text text-anchor="middle" x="471" y="-610.5" font-family="FreeSans" font-size="10.00">Initialize_Ctx</text>
</a>
</g>
<!-- Node45&#45;&gt;Node47 -->
<g id="edge112" class="edge"><title>Node45&#45;&gt;Node47</title>
<path fill="none" stroke="midnightblue" d="M320.361,-514.552C341.635,-534.237 378.347,-566.247 414,-588 423.04,-593.515 433.512,-598.472 442.994,-602.489"/>
<polygon fill="midnightblue" stroke="midnightblue" points="322.69,-511.938 312.998,-507.658 317.906,-517.048 322.69,-511.938"/>
</g>
<!-- Node46&#45;&gt;Node17 -->
<g id="edge110" class="edge"><title>Node46&#45;&gt;Node17</title>
<path fill="none" stroke="midnightblue" d="M846.04,-485.935C852.288,-483.453 858.484,-480.495 864,-477 884.693,-463.889 903.311,-441.763 913.3,-428.654"/>
<polygon fill="midnightblue" stroke="midnightblue" points="844.494,-482.771 836.268,-489.449 846.863,-489.358 844.494,-482.771"/>
</g>
<!-- Node50 -->
<g id="node111" class="node"><title>Node50</title>
<a xlink:href="cvm-hfa-stats_8h.html#a957f886c7087bce4eb7045c31e34add2" target="_top" xlink:title="This routine prints search context statistics.">
<polygon fill="white" stroke="black" points="414.5,-0 414.5,-34 527.5,-34 527.5,-0 414.5,-0"/>
<text text-anchor="start" x="422.5" y="-21" font-family="FreeSans" font-size="10.00">hfa_searchctx_stats</text>
<text text-anchor="middle" x="471" y="-8" font-family="FreeSans" font-size="10.00">_print</text>
</a>
</g>
<!-- Node49&#45;&gt;Node50 -->
<g id="edge122" class="edge"><title>Node49&#45;&gt;Node50</title>
<path fill="none" stroke="midnightblue" d="M338.5,-92.6506C360.286,-79.4398 388.575,-62.5104 414,-48 422.022,-43.4214 430.754,-38.5954 438.917,-34.1502"/>
<polygon fill="midnightblue" stroke="midnightblue" points="336.618,-89.6988 329.89,-97.8833 340.253,-95.6808 336.618,-89.6988"/>
</g>
</g>
</svg>
        <g id="navigator" transform="translate(0 0)" fill="#404254">
                <rect fill="#f2f5e9" fill-opacity="0.5" stroke="#606060" stroke-width=".5" x="0" y="0" width="60" height="60"/>
                <use id="zoomplus" xlink:href="#zoomPlus" x="17" y="9" onmousedown="handleZoom(evt,'in')"/>
                <use id="zoomminus" xlink:href="#zoomMin" x="42" y="9" onmousedown="handleZoom(evt,'out')"/>
                <use id="reset" xlink:href="#resetDef" x="30" y="36" onmousedown="handleReset()"/>
                <g id="arrowUp" xlink:href="#dirArrow" transform="translate(30 24)" onmousedown="handlePan(0,-1)">
                  <use xlink:href="#rim" fill="#404040">
                        <set attributeName="fill" to="#808080" begin="arrowUp.mouseover" end="arrowUp.mouseout"/>
                  </use>
                  <path fill="none" stroke="white" stroke-width="1.5" d="M0,-3.0v7 M-2.5,-0.5L0,-3.0L2.5,-0.5"/>
                </g>
                <g id="arrowRight" xlink:href="#dirArrow" transform="rotate(90) translate(36 -43)" onmousedown="handlePan(1,0)">
                  <use xlink:href="#rim" fill="#404040">
                        <set attributeName="fill" to="#808080" begin="arrowRight.mouseover" end="arrowRight.mouseout"/>
                  </use>
                  <path fill="none" stroke="white" stroke-width="1.5" d="M0,-3.0v7 M-2.5,-0.5L0,-3.0L2.5,-0.5"/>
                </g>
                <g id="arrowDown" xlink:href="#dirArrow" transform="rotate(180) translate(-30 -48)" onmousedown="handlePan(0,1)">
                  <use xlink:href="#rim" fill="#404040">
                        <set attributeName="fill" to="#808080" begin="arrowDown.mouseover" end="arrowDown.mouseout"/>
                  </use>
                  <path fill="none" stroke="white" stroke-width="1.5" d="M0,-3.0v7 M-2.5,-0.5L0,-3.0L2.5,-0.5"/>
                </g>
                <g id="arrowLeft" xlink:href="#dirArrow" transform="rotate(270) translate(-36 17)" onmousedown="handlePan(-1,0)">
                  <use xlink:href="#rim" fill="#404040">
                        <set attributeName="fill" to="#808080" begin="arrowLeft.mouseover" end="arrowLeft.mouseout"/>
                  </use>
                  <path fill="none" stroke="white" stroke-width="1.5" d="M0,-3.0v7 M-2.5,-0.5L0,-3.0L2.5,-0.5"/>
                </g>
        </g>
        <svg viewBox="0 0 15 15" width="100%" height="30px" preserveAspectRatio="xMaxYMin meet">
         <g id="arrow_out" transform="scale(0.3 0.3)">
          <a xlink:href="pp_8h_a808d5057ee5670ce724a6a88fc22b799_icgraph_org.svg" target="_base">
           <rect id="button" ry="5" rx="5" y="6" x="6" height="38" width="38"
                fill="#f2f5e9" fill-opacity="0.5" stroke="#606060" stroke-width="1.0"/>
           <path id="arrow"
             d="M 11.500037,31.436501 C 11.940474,20.09759 22.043105,11.32322 32.158766,21.979434 L 37.068811,17.246167 C 37.068811,17.246167 37.088388,32 37.088388,32 L 22.160133,31.978069 C 22.160133,31.978069 26.997745,27.140456 26.997745,27.140456 C 18.528582,18.264221 13.291696,25.230495 11.500037,31.436501 z"
             style="fill:#404040;"/>
          </a>
         </g>
        </svg>
</svg>
