<?xml version="1.0" encoding="UTF-8" standalone="no"?>
<!DOCTYPE svg PUBLIC "-//W3C//DTD SVG 1.1//EN"
 "http://www.w3.org/Graphics/SVG/1.1/DTD/svg11.dtd">
<!-- Generated by graphviz version 2.24.0 (20090616.2323)
 -->
<!-- Title: pphfa_cleanup Pages: 1 -->
<svg width="1584pt" height="525pt"
 viewBox="0.00 0.00 1584.00 525.00" xmlns="http://www.w3.org/2000/svg" xmlns:xlink="http://www.w3.org/1999/xlink">
<g id="graph1" class="graph" transform="scale(1 1) rotate(0) translate(4 521)">
<title>pphfa_cleanup</title>
<polygon fill="white" stroke="white" points="-4,5 -4,-521 1581,-521 1581,5 -4,5"/>
<!-- Node1 -->
<g id="node1" class="node"><title>Node1</title>
<polygon fill="#bfbfbf" stroke="black" points="0.5,-197.5 0.5,-218.5 87.5,-218.5 87.5,-197.5 0.5,-197.5"/>
<text text-anchor="middle" x="44" y="-205.5" font-family="FreeSans" font-size="10.00">pphfa_cleanup</text>
</g>
<!-- Node2 -->
<g id="node3" class="node"><title>Node2</title>
<a xlink:href="ppdfa_8h.html#a41ce9d3103c639e474783d3843e09071" target="_top" xlink:title="ppcleanup">
<polygon fill="white" stroke="black" points="124,-197.5 124,-218.5 190,-218.5 190,-197.5 124,-197.5"/>
<text text-anchor="middle" x="157" y="-205.5" font-family="FreeSans" font-size="10.00">ppcleanup</text>
</a>
</g>
<!-- Node1&#45;&gt;Node2 -->
<g id="edge2" class="edge"><title>Node1&#45;&gt;Node2</title>
<path fill="none" stroke="midnightblue" d="M97.7083,-208C106.661,-208 115.707,-208 123.944,-208"/>
<polygon fill="midnightblue" stroke="midnightblue" points="97.6888,-204.5 87.6888,-208 97.6887,-211.5 97.6888,-204.5"/>
</g>
<!-- Node3 -->
<g id="node5" class="node"><title>Node3</title>
<a xlink:href="cvm-hfa-search_8c.html#a30064f173d814bd3791b59d675c2f45f" target="_top" xlink:title="This routine cleans&#45;up a Search Context.">
<polygon fill="white" stroke="black" points="226,-217.5 226,-238.5 378,-238.5 378,-217.5 226,-217.5"/>
<text text-anchor="middle" x="302" y="-225.5" font-family="FreeSans" font-size="10.00">hfa_dev_searchctx_cleanup</text>
</a>
</g>
<!-- Node2&#45;&gt;Node3 -->
<g id="edge4" class="edge"><title>Node2&#45;&gt;Node3</title>
<path fill="none" stroke="midnightblue" d="M200.19,-213.957C208.305,-215.077 217.008,-216.277 225.784,-217.488"/>
<polygon fill="midnightblue" stroke="midnightblue" points="200.65,-210.488 190.266,-212.588 199.694,-217.422 200.65,-210.488"/>
</g>
<!-- Node50 -->
<g id="node107" class="node"><title>Node50</title>
<a xlink:href="cvm-hfa-search_8c.html#a77a278e03921213c66dbe904006cbab3" target="_top" xlink:title="This is a utility routine to reuse a previously intialized search context with minimal clean up...">
<polygon fill="white" stroke="black" points="239.5,-177.5 239.5,-198.5 364.5,-198.5 364.5,-177.5 239.5,-177.5"/>
<text text-anchor="middle" x="302" y="-185.5" font-family="FreeSans" font-size="10.00">hfa_savedctx_cleanup</text>
</a>
</g>
<!-- Node2&#45;&gt;Node50 -->
<g id="edge114" class="edge"><title>Node2&#45;&gt;Node50</title>
<path fill="none" stroke="midnightblue" d="M200.207,-202.04C212.465,-200.35 226.065,-198.474 239.229,-196.658"/>
<polygon fill="midnightblue" stroke="midnightblue" points="199.694,-198.578 190.266,-203.412 200.65,-205.512 199.694,-198.578"/>
</g>
<!-- Node4 -->
<g id="node7" class="node"><title>Node4</title>
<a xlink:href="flow_8c.html#a28378e8a6f53ff0e87f2e688d1c21834" target="_top" xlink:title="Low level API to create a flow Allocate Flow, Intialize searchctx, set graph and setflags,.">
<polygon fill="white" stroke="black" points="417.5,-482.5 417.5,-503.5 524.5,-503.5 524.5,-482.5 417.5,-482.5"/>
<text text-anchor="middle" x="471" y="-490.5" font-family="FreeSans" font-size="10.00">__hfaf_create_flow</text>
</a>
</g>
<!-- Node3&#45;&gt;Node4 -->
<g id="edge6" class="edge"><title>Node3&#45;&gt;Node4</title>
<path fill="none" stroke="midnightblue" d="M306.975,-248.342C318.682,-292.479 351.785,-398.263 414,-463 421.904,-471.224 432.558,-477.657 442.516,-482.421"/>
<polygon fill="midnightblue" stroke="midnightblue" points="310.329,-247.329 304.455,-238.511 303.548,-249.067 310.329,-247.329"/>
</g>
<!-- Node7 -->
<g id="node13" class="node"><title>Node7</title>
<a xlink:href="flow_8c.html#a696ee2b7ad7078c47242360be84d89bf" target="_top" xlink:title="Counterpart of __hfaf_create_flow.">
<polygon fill="white" stroke="black" points="414.5,-432.5 414.5,-453.5 527.5,-453.5 527.5,-432.5 414.5,-432.5"/>
<text text-anchor="middle" x="471" y="-440.5" font-family="FreeSans" font-size="10.00">__hfaf_destroy_flow</text>
</a>
</g>
<!-- Node3&#45;&gt;Node7 -->
<g id="edge12" class="edge"><title>Node3&#45;&gt;Node7</title>
<path fill="none" stroke="midnightblue" d="M312.374,-247.947C330.28,-281.27 369.386,-349.387 414,-398 426.276,-411.376 442.777,-423.943 454.865,-432.378"/>
<polygon fill="midnightblue" stroke="midnightblue" points="315.291,-245.978 307.515,-238.783 309.107,-249.257 315.291,-245.978"/>
</g>
<!-- Node12 -->
<g id="node24" class="node"><title>Node12</title>
<a xlink:href="hfa-lnx-async_8c.html#a972f8b60ef804914c009c2ef85bac50e" target="_top" xlink:title="Process search for given payload and graph.">
<polygon fill="white" stroke="black" points="1181,-455.5 1181,-476.5 1273,-476.5 1273,-455.5 1181,-455.5"/>
<text text-anchor="middle" x="1227" y="-463.5" font-family="FreeSans" font-size="10.00">process_search</text>
</a>
</g>
<!-- Node3&#45;&gt;Node12 -->
<g id="edge24" class="edge"><title>Node3&#45;&gt;Node12</title>
<path fill="none" stroke="midnightblue" d="M314.225,-247.187C332.448,-274.042 369.417,-322.213 414,-346 502.703,-393.328 536.46,-384 637,-384 637,-384 637,-384 921,-384 948.293,-384 1117.24,-433.301 1191.75,-455.448"/>
<polygon fill="midnightblue" stroke="midnightblue" points="317.015,-245.061 308.579,-238.652 311.177,-248.923 317.015,-245.061"/>
</g>
<!-- Node16 -->
<g id="node33" class="node"><title>Node16</title>
<a xlink:href="hfa-lnx-ctx_8c.html#a630ea21ffa0ae1e09e74fc5add8c2715" target="_top" xlink:title="destroyctx">
<polygon fill="white" stroke="black" points="437.5,-178.5 437.5,-199.5 504.5,-199.5 504.5,-178.5 437.5,-178.5"/>
<text text-anchor="middle" x="471" y="-186.5" font-family="FreeSans" font-size="10.00">destroyctx</text>
</a>
</g>
<!-- Node3&#45;&gt;Node16 -->
<g id="edge34" class="edge"><title>Node3&#45;&gt;Node16</title>
<path fill="none" stroke="midnightblue" d="M357.594,-215.171C383.93,-209.093 414.526,-202.033 437.296,-196.778"/>
<polygon fill="midnightblue" stroke="midnightblue" points="356.691,-211.787 347.734,-217.446 358.265,-218.608 356.691,-211.787"/>
</g>
<!-- Node21 -->
<g id="node44" class="node"><title>Node21</title>
<a xlink:href="hfa-lnx-linkgraph_8c.html#acd9e54f020b77f14d54c200b65423a15" target="_top" xlink:title="Cleanup will be done by this routine.">
<polygon fill="white" stroke="black" points="444,-256.5 444,-277.5 498,-277.5 498,-256.5 444,-256.5"/>
<text text-anchor="middle" x="471" y="-264.5" font-family="FreeSans" font-size="10.00">cleanup</text>
</a>
</g>
<!-- Node3&#45;&gt;Node21 -->
<g id="edge46" class="edge"><title>Node3&#45;&gt;Node21</title>
<path fill="none" stroke="midnightblue" d="M357.711,-240.856C386.591,-247.521 420.567,-255.362 443.725,-260.706"/>
<polygon fill="midnightblue" stroke="midnightblue" points="358.265,-237.392 347.734,-238.554 356.691,-244.213 358.265,-237.392"/>
</g>
<!-- Node24 -->
<g id="node50" class="node"><title>Node24</title>
<a xlink:href="hfa-lnx-nctx-lock_8c.html#a524accbd3a8024ee7cc3254698dbd8e3" target="_top" xlink:title="Parse through global linked list and cleanup each search node.">
<polygon fill="white" stroke="black" points="426.5,-138.5 426.5,-159.5 515.5,-159.5 515.5,-138.5 426.5,-138.5"/>
<text text-anchor="middle" x="471" y="-146.5" font-family="FreeSans" font-size="10.00">snode_cleanup</text>
</a>
</g>
<!-- Node3&#45;&gt;Node24 -->
<g id="edge52" class="edge"><title>Node3&#45;&gt;Node24</title>
<path fill="none" stroke="midnightblue" d="M367.092,-213.611C370.879,-211.94 374.547,-210.076 378,-208 398.216,-195.845 394.287,-181.955 414,-169 419.697,-165.256 426.175,-162.124 432.671,-159.535"/>
<polygon fill="midnightblue" stroke="midnightblue" points="365.515,-210.471 357.488,-217.386 368.075,-216.986 365.515,-210.471"/>
</g>
<!-- Node29 -->
<g id="node61" class="node"><title>Node29</title>
<a xlink:href="hfa-lnx-wqe-lock_8c.html#aca3baf1f311592e3e33788fee866710a" target="_top" xlink:title="Cleanup memory allocated for context.">
<polygon fill="white" stroke="black" points="427.5,-98.5 427.5,-119.5 514.5,-119.5 514.5,-98.5 427.5,-98.5"/>
<text text-anchor="middle" x="471" y="-106.5" font-family="FreeSans" font-size="10.00">ctxdb_cleanup</text>
</a>
</g>
<!-- Node3&#45;&gt;Node29 -->
<g id="edge64" class="edge"><title>Node3&#45;&gt;Node29</title>
<path fill="none" stroke="midnightblue" d="M371.775,-212.568C373.953,-211.173 376.037,-209.654 378,-208 407.505,-183.135 385.515,-155.027 414,-129 418.181,-125.18 423.134,-122.082 428.348,-119.571"/>
<polygon fill="midnightblue" stroke="midnightblue" points="370.084,-209.503 362.971,-217.355 373.428,-215.653 370.084,-209.503"/>
</g>
<!-- Node30 -->
<g id="node63" class="node"><title>Node30</title>
<a xlink:href="hfa-lnx-wqe_8c.html#a2b521122b98391a14bf2df50b7155bb1" target="_top" xlink:title="Cleanup memory allocated for context.">
<polygon fill="white" stroke="black" points="433.5,-58.5 433.5,-79.5 508.5,-79.5 508.5,-58.5 433.5,-58.5"/>
<text text-anchor="middle" x="471" y="-66.5" font-family="FreeSans" font-size="10.00">cleanup_ctx</text>
</a>
</g>
<!-- Node3&#45;&gt;Node30 -->
<g id="edge66" class="edge"><title>Node3&#45;&gt;Node30</title>
<path fill="none" stroke="midnightblue" d="M373.331,-211.975C374.965,-210.743 376.527,-209.421 378,-208 417.777,-169.646 375.791,-128.916 414,-89 419.294,-83.4696 426.204,-79.467 433.377,-76.5705"/>
<polygon fill="midnightblue" stroke="midnightblue" points="371.258,-209.143 364.623,-217.403 374.961,-215.083 371.258,-209.143"/>
</g>
<!-- Node32 -->
<g id="node67" class="node"><title>Node32</title>
<a xlink:href="hfa-lnx_8c.html#a924d2733ebc7a856f8c3fd293193ba44" target="_top" xlink:title="Initialize search context.">
<polygon fill="white" stroke="black" points="433.5,-315.5 433.5,-336.5 508.5,-336.5 508.5,-315.5 433.5,-315.5"/>
<text text-anchor="middle" x="471" y="-323.5" font-family="FreeSans" font-size="10.00">initialize_ctx</text>
</a>
</g>
<!-- Node3&#45;&gt;Node32 -->
<g id="edge70" class="edge"><title>Node3&#45;&gt;Node32</title>
<path fill="none" stroke="midnightblue" d="M329.094,-243.712C363.836,-263.857 423.134,-298.243 452.871,-315.487"/>
<polygon fill="midnightblue" stroke="midnightblue" points="330.814,-240.663 320.408,-238.674 327.303,-246.719 330.814,-240.663"/>
</g>
<!-- Node48 -->
<g id="node102" class="node"><title>Node48</title>
<a xlink:href="hfa-se-async_8c.html#a1b239994494fe75dc3fd1287ea790f77" target="_top" xlink:title="Cleanup per core parameters.">
<polygon fill="white" stroke="black" points="1011.5,-215.5 1011.5,-236.5 1092.5,-236.5 1092.5,-215.5 1011.5,-215.5"/>
<text text-anchor="middle" x="1052" y="-223.5" font-family="FreeSans" font-size="10.00">core_cleanup</text>
</a>
</g>
<!-- Node3&#45;&gt;Node48 -->
<g id="edge108" class="edge"><title>Node3&#45;&gt;Node48</title>
<path fill="none" stroke="midnightblue" d="M388.356,-228C456.008,-228 552.499,-228 637,-228 637,-228 637,-228 805,-228 877.687,-228 962.403,-227.123 1011.35,-226.531"/>
<polygon fill="midnightblue" stroke="midnightblue" points="388.17,-224.5 378.17,-228 388.17,-231.5 388.17,-224.5"/>
</g>
<!-- Node49 -->
<g id="node105" class="node"><title>Node49</title>
<a xlink:href="hfa-se-ngraphs_8c.html#a3c04138a5bfe5d72780bb7e82a18e627" target="_top" xlink:title="main">
<polygon fill="white" stroke="black" points="451,-18.5 451,-39.5 491,-39.5 491,-18.5 451,-18.5"/>
<text text-anchor="middle" x="471" y="-26.5" font-family="FreeSans" font-size="10.00">main</text>
</a>
</g>
<!-- Node3&#45;&gt;Node49 -->
<g id="edge112" class="edge"><title>Node3&#45;&gt;Node49</title>
<path fill="none" stroke="midnightblue" d="M374.081,-211.614C375.452,-210.485 376.762,-209.282 378,-208 428.338,-155.886 365.79,-103.088 414,-49 423.351,-38.5093 438.53,-33.5214 450.873,-31.1497"/>
<polygon fill="midnightblue" stroke="midnightblue" points="371.975,-208.813 365.637,-217.304 375.886,-214.618 371.975,-208.813"/>
</g>
<!-- Node5 -->
<g id="node9" class="node"><title>Node5</title>
<a xlink:href="flow_8h.html#abdb62c6f71f5ca9ecddc66c90166d37b" target="_top" xlink:title="Create Packet Flow in Flowdb.">
<polygon fill="white" stroke="black" points="581.5,-492.5 581.5,-513.5 692.5,-513.5 692.5,-492.5 581.5,-492.5"/>
<text text-anchor="middle" x="637" y="-500.5" font-family="FreeSans" font-size="10.00">hfaf_create_pktflow</text>
</a>
</g>
<!-- Node4&#45;&gt;Node5 -->
<g id="edge8" class="edge"><title>Node4&#45;&gt;Node5</title>
<path fill="none" stroke="midnightblue" d="M535.262,-496.871C550.48,-497.788 566.584,-498.758 581.381,-499.649"/>
<polygon fill="midnightblue" stroke="midnightblue" points="535.088,-493.354 524.895,-496.247 534.667,-500.342 535.088,-493.354"/>
</g>
<!-- Node6 -->
<g id="node11" class="node"><title>Node6</title>
<a xlink:href="hfa-se-flow-wqe_8c.html#a6d3e23d8f7a3aaf1b0d6e350b7631a0e" target="_top" xlink:title="Get flow pointer from Flow database, If flow ptr is NULL then create at runtime.">
<polygon fill="white" stroke="black" points="770.5,-492.5 770.5,-513.5 839.5,-513.5 839.5,-492.5 770.5,-492.5"/>
<text text-anchor="middle" x="805" y="-500.5" font-family="FreeSans" font-size="10.00">get_flowptr</text>
</a>
</g>
<!-- Node5&#45;&gt;Node6 -->
<g id="edge10" class="edge"><title>Node5&#45;&gt;Node6</title>
<path fill="none" stroke="midnightblue" d="M703.006,-503C726.009,-503 750.902,-503 770.337,-503"/>
<polygon fill="midnightblue" stroke="midnightblue" points="702.942,-499.5 692.942,-503 702.942,-506.5 702.942,-499.5"/>
</g>
<!-- Node7&#45;&gt;Node5 -->
<g id="edge20" class="edge"><title>Node7&#45;&gt;Node5</title>
<path fill="none" stroke="midnightblue" d="M502.539,-457.861C520.345,-465.921 543.145,-475.698 564,-483 573.798,-486.431 584.5,-489.649 594.616,-492.458"/>
<polygon fill="midnightblue" stroke="midnightblue" points="503.755,-454.568 493.205,-453.587 500.84,-460.933 503.755,-454.568"/>
</g>
<!-- Node8 -->
<g id="node15" class="node"><title>Node8</title>
<a xlink:href="flow_8c.html#a93974ea83df979435eb77f3c5d4ab848" target="_top" xlink:title="Cleanup Flowdb Node (Per Index)">
<polygon fill="white" stroke="black" points="564,-412.5 564,-433.5 710,-433.5 710,-412.5 564,-412.5"/>
<text text-anchor="middle" x="637" y="-420.5" font-family="FreeSans" font-size="10.00">hfaf_flowdb_node_cleanup</text>
</a>
</g>
<!-- Node7&#45;&gt;Node8 -->
<g id="edge14" class="edge"><title>Node7&#45;&gt;Node8</title>
<path fill="none" stroke="midnightblue" d="M537.65,-434.97C546.273,-433.931 555.141,-432.863 563.862,-431.812"/>
<polygon fill="midnightblue" stroke="midnightblue" points="537.173,-431.502 527.663,-436.173 538.01,-438.452 537.173,-431.502"/>
</g>
<!-- Node11 -->
<g id="node22" class="node"><title>Node11</title>
<a xlink:href="flow_8h.html#a8d99fe33dc3203530d360196cc7decb4" target="_top" xlink:title="Counterpart of hfaf_create_pktflow().">
<polygon fill="white" stroke="black" points="579,-452.5 579,-473.5 695,-473.5 695,-452.5 579,-452.5"/>
<text text-anchor="middle" x="637" y="-460.5" font-family="FreeSans" font-size="10.00">hfaf_destroy_pktflow</text>
</a>
</g>
<!-- Node7&#45;&gt;Node11 -->
<g id="edge22" class="edge"><title>Node7&#45;&gt;Node11</title>
<path fill="none" stroke="midnightblue" d="M537.904,-451.061C551.481,-452.696 565.655,-454.404 578.898,-456"/>
<polygon fill="midnightblue" stroke="midnightblue" points="538.01,-447.548 527.663,-449.827 537.173,-454.498 538.01,-447.548"/>
</g>
<!-- Node9 -->
<g id="node17" class="node"><title>Node9</title>
<a xlink:href="flow_8h.html#a2a51025bf645e4e1eec8cac2b4f8a8c0" target="_top" xlink:title="Cleanups Flow database which was created in hfaf_flowdb_init()">
<polygon fill="white" stroke="black" points="746.5,-412.5 746.5,-433.5 863.5,-433.5 863.5,-412.5 746.5,-412.5"/>
<text text-anchor="middle" x="805" y="-420.5" font-family="FreeSans" font-size="10.00">hfaf_flowdb_cleanup</text>
</a>
</g>
<!-- Node8&#45;&gt;Node9 -->
<g id="edge16" class="edge"><title>Node8&#45;&gt;Node9</title>
<path fill="none" stroke="midnightblue" d="M720.469,-423C729.241,-423 738.02,-423 746.424,-423"/>
<polygon fill="midnightblue" stroke="midnightblue" points="720.199,-419.5 710.199,-423 720.198,-426.5 720.199,-419.5"/>
</g>
<!-- Node10 -->
<g id="node19" class="node"><title>Node10</title>
<a xlink:href="hfa-se-flow-wqe_8c.html#a3c04138a5bfe5d72780bb7e82a18e627" target="_top" xlink:title="Implementation.">
<polygon fill="white" stroke="black" points="901,-412.5 901,-433.5 941,-433.5 941,-412.5 901,-412.5"/>
<text text-anchor="middle" x="921" y="-420.5" font-family="FreeSans" font-size="10.00">main</text>
</a>
</g>
<!-- Node9&#45;&gt;Node10 -->
<g id="edge18" class="edge"><title>Node9&#45;&gt;Node10</title>
<path fill="none" stroke="midnightblue" d="M873.966,-423C883.733,-423 893.07,-423 900.813,-423"/>
<polygon fill="midnightblue" stroke="midnightblue" points="873.68,-419.5 863.68,-423 873.68,-426.5 873.68,-419.5"/>
</g>
<!-- Node13 -->
<g id="node26" class="node"><title>Node13</title>
<a xlink:href="hfa-lnx-async_8c.html#a1e97b1d598034fdc92d57054a6c386e6" target="_top" xlink:title="tasklet_callback">
<polygon fill="white" stroke="black" points="1342,-495.5 1342,-516.5 1434,-516.5 1434,-495.5 1342,-495.5"/>
<text text-anchor="middle" x="1388" y="-503.5" font-family="FreeSans" font-size="10.00">tasklet_callback</text>
</a>
</g>
<!-- Node12&#45;&gt;Node13 -->
<g id="edge26" class="edge"><title>Node12&#45;&gt;Node13</title>
<path fill="none" stroke="midnightblue" d="M1279.26,-478.984C1300.77,-484.327 1325.35,-490.436 1345.7,-495.491"/>
<polygon fill="midnightblue" stroke="midnightblue" points="1279.85,-475.524 1269.3,-476.51 1278.16,-482.318 1279.85,-475.524"/>
</g>
<!-- Node15 -->
<g id="node30" class="node"><title>Node15</title>
<a xlink:href="hfa-lnx-async_8c.html#a7dea7d59754828b1173c4c7ec5d42f3e" target="_top" xlink:title="thread_callback">
<polygon fill="white" stroke="black" points="1342,-455.5 1342,-476.5 1434,-476.5 1434,-455.5 1342,-455.5"/>
<text text-anchor="middle" x="1388" y="-463.5" font-family="FreeSans" font-size="10.00">thread_callback</text>
</a>
</g>
<!-- Node12&#45;&gt;Node15 -->
<g id="edge30" class="edge"><title>Node12&#45;&gt;Node15</title>
<path fill="none" stroke="midnightblue" d="M1283.24,-466C1302.4,-466 1323.58,-466 1341.86,-466"/>
<polygon fill="midnightblue" stroke="midnightblue" points="1283.14,-462.5 1273.14,-466 1283.14,-469.5 1283.14,-462.5"/>
</g>
<!-- Node14 -->
<g id="node28" class="node"><title>Node14</title>
<a xlink:href="hfa-lnx-async_8c.html#a78ffddbcd7cdd164889cfb53ea367886" target="_top" xlink:title="entry">
<polygon fill="white" stroke="black" points="1509.5,-475.5 1509.5,-496.5 1550.5,-496.5 1550.5,-475.5 1509.5,-475.5"/>
<text text-anchor="middle" x="1530" y="-483.5" font-family="FreeSans" font-size="10.00">entry</text>
</a>
</g>
<!-- Node13&#45;&gt;Node14 -->
<g id="edge28" class="edge"><title>Node13&#45;&gt;Node14</title>
<path fill="none" stroke="midnightblue" d="M1444.15,-498.092C1467.17,-494.85 1492.37,-491.3 1509.48,-488.891"/>
<polygon fill="midnightblue" stroke="midnightblue" points="1443.52,-494.646 1434.1,-499.507 1444.49,-501.578 1443.52,-494.646"/>
</g>
<!-- Node15&#45;&gt;Node14 -->
<g id="edge32" class="edge"><title>Node15&#45;&gt;Node14</title>
<path fill="none" stroke="midnightblue" d="M1444.15,-473.908C1467.17,-477.15 1492.37,-480.7 1509.48,-483.109"/>
<polygon fill="midnightblue" stroke="midnightblue" points="1444.49,-470.422 1434.1,-472.493 1443.52,-477.354 1444.49,-470.422"/>
</g>
<!-- Node17 -->
<g id="node35" class="node"><title>Node17</title>
<a xlink:href="hfa-lnx-ctx_8c.html#a78ffddbcd7cdd164889cfb53ea367886" target="_top" xlink:title="entry">
<polygon fill="white" stroke="black" points="900.5,-139.5 900.5,-160.5 941.5,-160.5 941.5,-139.5 900.5,-139.5"/>
<text text-anchor="middle" x="921" y="-147.5" font-family="FreeSans" font-size="10.00">entry</text>
</a>
</g>
<!-- Node16&#45;&gt;Node17 -->
<g id="edge36" class="edge"><title>Node16&#45;&gt;Node17</title>
<path fill="none" stroke="midnightblue" d="M514.755,-191.327C587.894,-194.255 739.253,-196.207 864,-171 876.405,-168.493 889.704,-163.723 900.334,-159.361"/>
<polygon fill="midnightblue" stroke="midnightblue" points="514.684,-187.82 504.544,-190.89 514.386,-194.814 514.684,-187.82"/>
</g>
<!-- Node18 -->
<g id="node37" class="node"><title>Node18</title>
<a xlink:href="hfa-lnx-ctx_8c.html#a3c1f07835ef5be8d3adfbaf09af5ca28" target="_top" xlink:title="core_exit">
<polygon fill="white" stroke="black" points="607,-140.5 607,-161.5 667,-161.5 667,-140.5 607,-140.5"/>
<text text-anchor="middle" x="637" y="-148.5" font-family="FreeSans" font-size="10.00">core_exit</text>
</a>
</g>
<!-- Node16&#45;&gt;Node18 -->
<g id="edge38" class="edge"><title>Node16&#45;&gt;Node18</title>
<path fill="none" stroke="midnightblue" d="M514.482,-179.046C543.527,-172.398 580.993,-163.821 606.806,-157.912"/>
<polygon fill="midnightblue" stroke="midnightblue" points="513.559,-175.667 504.593,-181.31 515.121,-182.49 513.559,-175.667"/>
</g>
<!-- Node19 -->
<g id="node39" class="node"><title>Node19</title>
<a xlink:href="hfa-lnx-ctx_8c.html#a4c3443f524b4c0d95639694f0b74e850" target="_top" xlink:title="Process command line options, Read graph and payload.">
<polygon fill="white" stroke="black" points="758,-100.5 758,-121.5 852,-121.5 852,-100.5 758,-100.5"/>
<text text-anchor="middle" x="805" y="-108.5" font-family="FreeSans" font-size="10.00">process_options</text>
</a>
</g>
<!-- Node18&#45;&gt;Node19 -->
<g id="edge40" class="edge"><title>Node18&#45;&gt;Node19</title>
<path fill="none" stroke="midnightblue" d="M676.99,-141.479C702.176,-135.482 734.718,-127.734 760.688,-121.55"/>
<polygon fill="midnightblue" stroke="midnightblue" points="675.952,-138.128 667.035,-143.849 677.574,-144.937 675.952,-138.128"/>
</g>
<!-- Node20 -->
<g id="node42" class="node"><title>Node20</title>
<a xlink:href="hfa-lnx-ctx_8c.html#aaf98ef7cdde3a0dfb2e49919de3298b1" target="_top" xlink:title="exit">
<polygon fill="white" stroke="black" points="788.5,-140.5 788.5,-161.5 821.5,-161.5 821.5,-140.5 788.5,-140.5"/>
<text text-anchor="middle" x="805" y="-148.5" font-family="FreeSans" font-size="10.00">exit</text>
</a>
</g>
<!-- Node18&#45;&gt;Node20 -->
<g id="edge44" class="edge"><title>Node18&#45;&gt;Node20</title>
<path fill="none" stroke="midnightblue" d="M677.102,-151C712.664,-151 762.825,-151 788.48,-151"/>
<polygon fill="midnightblue" stroke="midnightblue" points="677.035,-147.5 667.035,-151 677.035,-154.5 677.035,-147.5"/>
</g>
<!-- Node19&#45;&gt;Node17 -->
<g id="edge42" class="edge"><title>Node19&#45;&gt;Node17</title>
<path fill="none" stroke="midnightblue" d="M845.989,-124.781C864.328,-130.946 885.155,-137.949 900.202,-143.008"/>
<polygon fill="midnightblue" stroke="midnightblue" points="846.985,-121.423 836.391,-121.554 844.755,-128.058 846.985,-121.423"/>
</g>
<!-- Node22 -->
<g id="node46" class="node"><title>Node22</title>
<a xlink:href="hfa-lnx-linkgraph_8c.html#a78ffddbcd7cdd164889cfb53ea367886" target="_top" xlink:title="entry">
<polygon fill="white" stroke="black" points="1206.5,-255.5 1206.5,-276.5 1247.5,-276.5 1247.5,-255.5 1206.5,-255.5"/>
<text text-anchor="middle" x="1227" y="-263.5" font-family="FreeSans" font-size="10.00">entry</text>
</a>
</g>
<!-- Node21&#45;&gt;Node22 -->
<g id="edge48" class="edge"><title>Node21&#45;&gt;Node22</title>
<path fill="none" stroke="midnightblue" d="M508.313,-266.815C570.038,-266.526 697.288,-266 805,-266 805,-266 805,-266 921,-266 1028.31,-266 1156.79,-266 1206.22,-266"/>
<polygon fill="midnightblue" stroke="midnightblue" points="508.259,-263.316 498.275,-266.863 508.292,-270.315 508.259,-263.316"/>
</g>
<!-- Node23 -->
<g id="node48" class="node"><title>Node23</title>
<a xlink:href="hfa-lnx-linkgraph_8c.html#aaf98ef7cdde3a0dfb2e49919de3298b1" target="_top" xlink:title="exit">
<polygon fill="white" stroke="black" points="620.5,-294.5 620.5,-315.5 653.5,-315.5 653.5,-294.5 620.5,-294.5"/>
<text text-anchor="middle" x="637" y="-302.5" font-family="FreeSans" font-size="10.00">exit</text>
</a>
</g>
<!-- Node21&#45;&gt;Node23 -->
<g id="edge50" class="edge"><title>Node21&#45;&gt;Node23</title>
<path fill="none" stroke="midnightblue" d="M507.898,-275.446C542.898,-283.459 593.919,-295.138 620.107,-301.133"/>
<polygon fill="midnightblue" stroke="midnightblue" points="508.569,-272.01 498.04,-273.19 507.007,-278.833 508.569,-272.01"/>
</g>
<!-- Node25 -->
<g id="node52" class="node"><title>Node25</title>
<a xlink:href="hfa-lnx-nctx-lock_8c.html#acd9e54f020b77f14d54c200b65423a15" target="_top" xlink:title="Application cleanup will be done by this routine.">
<polygon fill="white" stroke="black" points="610,-80.5 610,-101.5 664,-101.5 664,-80.5 610,-80.5"/>
<text text-anchor="middle" x="637" y="-88.5" font-family="FreeSans" font-size="10.00">cleanup</text>
</a>
</g>
<!-- Node24&#45;&gt;Node25 -->
<g id="edge54" class="edge"><title>Node24&#45;&gt;Node25</title>
<path fill="none" stroke="midnightblue" d="M510.601,-135.164C541.273,-124.447 582.948,-109.886 609.911,-100.465"/>
<polygon fill="midnightblue" stroke="midnightblue" points="509.347,-131.894 501.061,-138.497 511.656,-138.502 509.347,-131.894"/>
</g>
<!-- Node28 -->
<g id="node58" class="node"><title>Node28</title>
<a xlink:href="hfa-lnx-nctx-lock_8c.html#a2c813b2ff20c5bf67f487908476604d6" target="_top" xlink:title="Initialize search context object for nctxts and a global list to track nctxts.">
<polygon fill="white" stroke="black" points="587.5,-40.5 587.5,-61.5 686.5,-61.5 686.5,-40.5 587.5,-40.5"/>
<text text-anchor="middle" x="637" y="-48.5" font-family="FreeSans" font-size="10.00">initialize_ctx_glist</text>
</a>
</g>
<!-- Node24&#45;&gt;Node28 -->
<g id="edge60" class="edge"><title>Node24&#45;&gt;Node28</title>
<path fill="none" stroke="midnightblue" d="M521.378,-133.606C523.701,-132.198 525.925,-130.666 528,-129 551.66,-110.008 539.689,-89.1517 564,-71 570.844,-65.8898 578.919,-62.0853 587.158,-59.2528"/>
<polygon fill="midnightblue" stroke="midnightblue" points="519.304,-130.739 512.035,-138.448 522.525,-136.954 519.304,-130.739"/>
</g>
<!-- Node26 -->
<g id="node54" class="node"><title>Node26</title>
<a xlink:href="hfa-lnx-nctx-lock_8c.html#a78ffddbcd7cdd164889cfb53ea367886" target="_top" xlink:title="entry">
<polygon fill="white" stroke="black" points="784.5,-20.5 784.5,-41.5 825.5,-41.5 825.5,-20.5 784.5,-20.5"/>
<text text-anchor="middle" x="805" y="-28.5" font-family="FreeSans" font-size="10.00">entry</text>
</a>
</g>
<!-- Node25&#45;&gt;Node26 -->
<g id="edge56" class="edge"><title>Node25&#45;&gt;Node26</title>
<path fill="none" stroke="midnightblue" d="M674.115,-82.6722C685.795,-79.5657 698.613,-75.6442 710,-71 726.948,-64.0878 729.265,-58.4126 746,-51 758.46,-45.481 772.947,-40.5498 784.448,-36.9648"/>
<polygon fill="midnightblue" stroke="midnightblue" points="673.038,-79.3347 664.208,-85.19 674.762,-86.119 673.038,-79.3347"/>
</g>
<!-- Node27 -->
<g id="node56" class="node"><title>Node27</title>
<a xlink:href="hfa-lnx-nctx-lock_8c.html#aaf98ef7cdde3a0dfb2e49919de3298b1" target="_top" xlink:title="exit">
<polygon fill="white" stroke="black" points="788.5,-60.5 788.5,-81.5 821.5,-81.5 821.5,-60.5 788.5,-60.5"/>
<text text-anchor="middle" x="805" y="-68.5" font-family="FreeSans" font-size="10.00">exit</text>
</a>
</g>
<!-- Node25&#45;&gt;Node27 -->
<g id="edge58" class="edge"><title>Node25&#45;&gt;Node27</title>
<path fill="none" stroke="midnightblue" d="M674.398,-86.5479C710.026,-82.3064 762.017,-76.117 788.365,-72.9803"/>
<polygon fill="midnightblue" stroke="midnightblue" points="673.882,-83.0845 664.366,-87.7421 674.71,-90.0354 673.882,-83.0845"/>
</g>
<!-- Node28&#45;&gt;Node26 -->
<g id="edge62" class="edge"><title>Node28&#45;&gt;Node26</title>
<path fill="none" stroke="midnightblue" d="M697.08,-43.8476C727.543,-40.2211 762.584,-36.0495 784.263,-33.4687"/>
<polygon fill="midnightblue" stroke="midnightblue" points="696.467,-40.3958 686.951,-45.0535 697.294,-47.3467 696.467,-40.3958"/>
</g>
<!-- Node31 -->
<g id="node65" class="node"><title>Node31</title>
<a xlink:href="hfa-lnx-wqe_8c.html#a972f8b60ef804914c009c2ef85bac50e" target="_top" xlink:title="process_search">
<polygon fill="white" stroke="black" points="591,-0.5 591,-21.5 683,-21.5 683,-0.5 591,-0.5"/>
<text text-anchor="middle" x="637" y="-8.5" font-family="FreeSans" font-size="10.00">process_search</text>
</a>
</g>
<!-- Node30&#45;&gt;Node31 -->
<g id="edge68" class="edge"><title>Node30&#45;&gt;Node31</title>
<path fill="none" stroke="midnightblue" d="M512.956,-54.9591C518.061,-53.051 523.174,-51.0434 528,-49 544.473,-42.0248 547.293,-37.3941 564,-31 573.204,-27.4772 583.281,-24.302 592.929,-21.5729"/>
<polygon fill="midnightblue" stroke="midnightblue" points="511.434,-51.7881 503.227,-58.4887 513.821,-58.3684 511.434,-51.7881"/>
</g>
<!-- Node33 -->
<g id="node69" class="node"><title>Node33</title>
<a xlink:href="hfa-lnx_8c.html#a78ffddbcd7cdd164889cfb53ea367886" target="_top" xlink:title="entry">
<polygon fill="white" stroke="black" points="616.5,-334.5 616.5,-355.5 657.5,-355.5 657.5,-334.5 616.5,-334.5"/>
<text text-anchor="middle" x="637" y="-342.5" font-family="FreeSans" font-size="10.00">entry</text>
</a>
</g>
<!-- Node32&#45;&gt;Node33 -->
<g id="edge72" class="edge"><title>Node32&#45;&gt;Node33</title>
<path fill="none" stroke="midnightblue" d="M518.79,-331.47C551.005,-335.157 591.907,-339.839 616.181,-342.617"/>
<polygon fill="midnightblue" stroke="midnightblue" points="519.001,-327.971 508.668,-330.311 518.205,-334.926 519.001,-327.971"/>
</g>
<!-- Node34 -->
<g id="node71" class="node"><title>Node34</title>
<a xlink:href="cvm-hfa-pp_8c.html#adcc1149c628372e2e566c246870929cb" target="_top" xlink:title="infoentry">
<polygon fill="white" stroke="black" points="775.5,-334.5 775.5,-355.5 834.5,-355.5 834.5,-334.5 775.5,-334.5"/>
<text text-anchor="middle" x="805" y="-342.5" font-family="FreeSans" font-size="10.00">infoentry</text>
</a>
</g>
<!-- Node33&#45;&gt;Node34 -->
<g id="edge74" class="edge"><title>Node33&#45;&gt;Node34</title>
<path fill="none" stroke="midnightblue" d="M667.723,-345C698.397,-345 745.21,-345 775.46,-345"/>
<polygon fill="midnightblue" stroke="midnightblue" points="667.6,-341.5 657.6,-345 667.6,-348.5 667.6,-341.5"/>
</g>
<!-- Node35 -->
<g id="node73" class="node"><title>Node35</title>
<a xlink:href="ppdfa_8h.html#a81b3389c2c25a4ba308f71501f980e38" target="_top" xlink:title="pp">
<polygon fill="white" stroke="black" points="906.5,-334.5 906.5,-355.5 935.5,-355.5 935.5,-334.5 906.5,-334.5"/>
<text text-anchor="middle" x="921" y="-342.5" font-family="FreeSans" font-size="10.00">pp</text>
</a>
</g>
<!-- Node34&#45;&gt;Node35 -->
<g id="edge76" class="edge"><title>Node34&#45;&gt;Node35</title>
<path fill="none" stroke="midnightblue" d="M844.667,-345C865.95,-345 890.904,-345 906.335,-345"/>
<polygon fill="midnightblue" stroke="midnightblue" points="844.572,-341.5 834.572,-345 844.572,-348.5 844.572,-341.5"/>
</g>
<!-- Node36 -->
<g id="node75" class="node"><title>Node36</title>
<a xlink:href="cvm-hfa-search_8c.html#a6dbb15dc58155b2c94b19784ad42ef89" target="_top" xlink:title="This routine post&#45;processes the search results from the HFA engine and reports the pattern matches fo...">
<polygon fill="white" stroke="black" points="978.5,-334.5 978.5,-355.5 1125.5,-355.5 1125.5,-334.5 978.5,-334.5"/>
<text text-anchor="middle" x="1052" y="-342.5" font-family="FreeSans" font-size="10.00">hfa_searchctx_getmatches</text>
</a>
</g>
<!-- Node35&#45;&gt;Node36 -->
<g id="edge78" class="edge"><title>Node35&#45;&gt;Node36</title>
<path fill="none" stroke="midnightblue" d="M945.68,-345C955.155,-345 966.525,-345 978.253,-345"/>
<polygon fill="midnightblue" stroke="midnightblue" points="945.52,-341.5 935.52,-345 945.52,-348.5 945.52,-341.5"/>
</g>
<!-- Node36&#45;&gt;Node12 -->
<g id="edge86" class="edge"><title>Node36&#45;&gt;Node12</title>
<path fill="none" stroke="midnightblue" d="M1110.95,-359.84C1116.38,-362.662 1121.52,-366.016 1126,-370 1153.92,-394.844 1133.74,-421.539 1162,-446 1167.45,-450.713 1173.99,-454.316 1180.79,-457.07"/>
<polygon fill="midnightblue" stroke="midnightblue" points="1112.13,-356.533 1101.58,-355.574 1109.23,-362.904 1112.13,-356.533"/>
</g>
<!-- Node36&#45;&gt;Node22 -->
<g id="edge92" class="edge"><title>Node36&#45;&gt;Node22</title>
<path fill="none" stroke="midnightblue" d="M1078.08,-329.148C1099.94,-316.324 1132.25,-298.417 1162,-286 1176.49,-279.951 1193.47,-274.789 1206.44,-271.225"/>
<polygon fill="midnightblue" stroke="midnightblue" points="1076.21,-326.19 1069.39,-334.303 1079.78,-332.211 1076.21,-326.19"/>
</g>
<!-- Node37 -->
<g id="node77" class="node"><title>Node37</title>
<a xlink:href="flow_8c.html#a2976ab60901b133a56214323fb901663" target="_top" xlink:title="Low level API to poll a flow.">
<polygon fill="white" stroke="black" points="1162.5,-375.5 1162.5,-396.5 1291.5,-396.5 1291.5,-375.5 1162.5,-375.5"/>
<text text-anchor="middle" x="1227" y="-383.5" font-family="FreeSans" font-size="10.00">__hfaf_process_pktflow</text>
</a>
</g>
<!-- Node36&#45;&gt;Node37 -->
<g id="edge80" class="edge"><title>Node36&#45;&gt;Node37</title>
<path fill="none" stroke="midnightblue" d="M1106.83,-357.845C1131.04,-363.517 1159.14,-370.102 1182.09,-375.477"/>
<polygon fill="midnightblue" stroke="midnightblue" points="1107.6,-354.432 1097.07,-355.559 1106,-361.247 1107.6,-354.432"/>
</g>
<!-- Node40 -->
<g id="node84" class="node"><title>Node40</title>
<a xlink:href="hfa-lnx-ctx_8c.html#a71e1d3d18cc48b90a1ecde583ffb3f7a" target="_top" xlink:title="poll_searchctx">
<polygon fill="white" stroke="black" points="1184,-335.5 1184,-356.5 1270,-356.5 1270,-335.5 1184,-335.5"/>
<text text-anchor="middle" x="1227" y="-343.5" font-family="FreeSans" font-size="10.00">poll_searchctx</text>
</a>
</g>
<!-- Node36&#45;&gt;Node40 -->
<g id="edge88" class="edge"><title>Node36&#45;&gt;Node40</title>
<path fill="none" stroke="midnightblue" d="M1135.98,-345.48C1152.56,-345.575 1169.3,-345.67 1183.82,-345.753"/>
<polygon fill="midnightblue" stroke="midnightblue" points="1135.73,-341.978 1125.71,-345.421 1135.69,-348.978 1135.73,-341.978"/>
</g>
<!-- Node42 -->
<g id="node89" class="node"><title>Node42</title>
<a xlink:href="hfa-lnx-nctx-lock_8c.html#adb0c831ef0f9af5441a6769c377d9c95" target="_top" xlink:title="Post process the results from HFA and record found matches.">
<polygon fill="white" stroke="black" points="1187,-295.5 1187,-316.5 1267,-316.5 1267,-295.5 1187,-295.5"/>
<text text-anchor="middle" x="1227" y="-303.5" font-family="FreeSans" font-size="10.00">post_process</text>
</a>
</g>
<!-- Node36&#45;&gt;Node42 -->
<g id="edge94" class="edge"><title>Node36&#45;&gt;Node42</title>
<path fill="none" stroke="midnightblue" d="M1109.22,-332.249C1134.55,-326.604 1163.74,-320.098 1186.73,-314.975"/>
<polygon fill="midnightblue" stroke="midnightblue" points="1108.36,-328.855 1099.36,-334.446 1109.88,-335.687 1108.36,-328.855"/>
</g>
<!-- Node45 -->
<g id="node96" class="node"><title>Node45</title>
<a xlink:href="hfa-se-async_8c.html#a3c04138a5bfe5d72780bb7e82a18e627" target="_top" xlink:title="main">
<polygon fill="white" stroke="black" points="1207,-215.5 1207,-236.5 1247,-236.5 1247,-215.5 1207,-215.5"/>
<text text-anchor="middle" x="1227" y="-223.5" font-family="FreeSans" font-size="10.00">main</text>
</a>
</g>
<!-- Node36&#45;&gt;Node45 -->
<g id="edge102" class="edge"><title>Node36&#45;&gt;Node45</title>
<path fill="none" stroke="midnightblue" d="M1067.64,-326.723C1087.48,-304.618 1123.75,-267.682 1162,-246 1175.97,-238.082 1193.44,-232.932 1206.75,-229.844"/>
<polygon fill="midnightblue" stroke="midnightblue" points="1064.85,-324.59 1060.87,-334.407 1070.11,-329.218 1064.85,-324.59"/>
</g>
<!-- Node46 -->
<g id="node98" class="node"><title>Node46</title>
<a xlink:href="hfa-se-wqe-lock_8c.html#a06b5fcfab0e1d5eb36b633ec080ad7f9" target="_top" xlink:title="Process search for given contexts.">
<polygon fill="white" stroke="black" points="1187,-415.5 1187,-436.5 1267,-436.5 1267,-415.5 1187,-415.5"/>
<text text-anchor="middle" x="1227" y="-423.5" font-family="FreeSans" font-size="10.00">process_nctx</text>
</a>
</g>
<!-- Node36&#45;&gt;Node46 -->
<g id="edge104" class="edge"><title>Node36&#45;&gt;Node46</title>
<path fill="none" stroke="midnightblue" d="M1103.66,-359.02C1111.42,-362.09 1119.12,-365.729 1126,-370 1145.22,-381.935 1142.61,-394.329 1162,-406 1169.59,-410.568 1178.31,-414.175 1186.84,-416.994"/>
<polygon fill="midnightblue" stroke="midnightblue" points="1104.81,-355.714 1094.22,-355.555 1102.4,-362.286 1104.81,-355.714"/>
</g>
<!-- Node38 -->
<g id="node79" class="node"><title>Node38</title>
<a xlink:href="flow_8h.html#ab1b3378af88a440a6c3c0851be942e65" target="_top" xlink:title="All submitted search parameters in Paramlist of flow are polled If low level API __hfaf_process_pktfl...">
<polygon fill="white" stroke="black" points="1328.5,-375.5 1328.5,-396.5 1447.5,-396.5 1447.5,-375.5 1328.5,-375.5"/>
<text text-anchor="middle" x="1388" y="-383.5" font-family="FreeSans" font-size="10.00">hfaf_process_pktflow</text>
</a>
</g>
<!-- Node37&#45;&gt;Node38 -->
<g id="edge82" class="edge"><title>Node37&#45;&gt;Node38</title>
<path fill="none" stroke="midnightblue" d="M1301.62,-386C1310.59,-386 1319.66,-386 1328.38,-386"/>
<polygon fill="midnightblue" stroke="midnightblue" points="1301.56,-382.5 1291.56,-386 1301.56,-389.5 1301.56,-382.5"/>
</g>
<!-- Node39 -->
<g id="node81" class="node"><title>Node39</title>
<a xlink:href="hfa-se-flow_8c.html#a2d83c733eacd7afc955c3af18edcb52a" target="_top" xlink:title="Polls for a submitted search instruction of a flow.">
<polygon fill="white" stroke="red" points="1487.5,-375.5 1487.5,-396.5 1572.5,-396.5 1572.5,-375.5 1487.5,-375.5"/>
<text text-anchor="middle" x="1530" y="-383.5" font-family="FreeSans" font-size="10.00">__processflow</text>
</a>
</g>
<!-- Node38&#45;&gt;Node39 -->
<g id="edge84" class="edge"><title>Node38&#45;&gt;Node39</title>
<path fill="none" stroke="midnightblue" d="M1458.08,-386C1467.98,-386 1477.9,-386 1487.08,-386"/>
<polygon fill="midnightblue" stroke="midnightblue" points="1457.81,-382.5 1447.81,-386 1457.81,-389.5 1457.81,-382.5"/>
</g>
<!-- Node41 -->
<g id="node86" class="node"><title>Node41</title>
<a xlink:href="hfa-lnx-ctx_8c.html#a934a9fc08c4aab25d6f0d861e4a4f762" target="_top" xlink:title="poll">
<polygon fill="white" stroke="red" points="1371.5,-335.5 1371.5,-356.5 1404.5,-356.5 1404.5,-335.5 1371.5,-335.5"/>
<text text-anchor="middle" x="1388" y="-343.5" font-family="FreeSans" font-size="10.00">poll</text>
</a>
</g>
<!-- Node40&#45;&gt;Node41 -->
<g id="edge90" class="edge"><title>Node40&#45;&gt;Node41</title>
<path fill="none" stroke="midnightblue" d="M1280.2,-346C1311.95,-346 1350.13,-346 1371.48,-346"/>
<polygon fill="midnightblue" stroke="midnightblue" points="1280.15,-342.5 1270.15,-346 1280.15,-349.5 1280.15,-342.5"/>
</g>
<!-- Node43 -->
<g id="node91" class="node"><title>Node43</title>
<a xlink:href="hfa-lnx-nctx-lock_8c.html#a48d3743fb7abc7d3c6b68359678e52a1" target="_top" xlink:title="Poll for the pending search instructions in the HW (blocked till instruction completes) and process t...">
<polygon fill="white" stroke="black" points="1371.5,-295.5 1371.5,-316.5 1404.5,-316.5 1404.5,-295.5 1371.5,-295.5"/>
<text text-anchor="middle" x="1388" y="-303.5" font-family="FreeSans" font-size="10.00">poll</text>
</a>
</g>
<!-- Node42&#45;&gt;Node43 -->
<g id="edge96" class="edge"><title>Node42&#45;&gt;Node43</title>
<path fill="none" stroke="midnightblue" d="M1277.36,-306C1309.54,-306 1349.22,-306 1371.25,-306"/>
<polygon fill="midnightblue" stroke="midnightblue" points="1277.21,-302.5 1267.21,-306 1277.21,-309.5 1277.21,-302.5"/>
</g>
<!-- Node44 -->
<g id="node93" class="node"><title>Node44</title>
<a xlink:href="hfa-lnx-nctx-lock_8c.html#a972f8b60ef804914c009c2ef85bac50e" target="_top" xlink:title="Performs search process for each core.">
<polygon fill="white" stroke="black" points="1484,-276.5 1484,-297.5 1576,-297.5 1576,-276.5 1484,-276.5"/>
<text text-anchor="middle" x="1530" y="-284.5" font-family="FreeSans" font-size="10.00">process_search</text>
</a>
</g>
<!-- Node42&#45;&gt;Node44 -->
<g id="edge100" class="edge"><title>Node42&#45;&gt;Node44</title>
<path fill="none" stroke="midnightblue" d="M1276.85,-294.122C1293.06,-290.799 1311.21,-287.647 1328,-286 1381.08,-280.795 1394.67,-285.675 1448,-286 1459.53,-286.07 1471.98,-286.196 1483.6,-286.336"/>
<polygon fill="midnightblue" stroke="midnightblue" points="1276.09,-290.705 1267.03,-296.202 1277.54,-297.553 1276.09,-290.705"/>
</g>
<!-- Node43&#45;&gt;Node44 -->
<g id="edge98" class="edge"><title>Node43&#45;&gt;Node44</title>
<path fill="none" stroke="midnightblue" d="M1414.53,-302.45C1433.98,-299.848 1460.88,-296.249 1483.82,-293.179"/>
<polygon fill="midnightblue" stroke="midnightblue" points="1414.01,-298.988 1404.57,-303.783 1414.94,-305.926 1414.01,-298.988"/>
</g>
<!-- Node47 -->
<g id="node100" class="node"><title>Node47</title>
<a xlink:href="hfa-se-wqe-lock_8c.html#a3c04138a5bfe5d72780bb7e82a18e627" target="_top" xlink:title="main">
<polygon fill="white" stroke="black" points="1368,-415.5 1368,-436.5 1408,-436.5 1408,-415.5 1368,-415.5"/>
<text text-anchor="middle" x="1388" y="-423.5" font-family="FreeSans" font-size="10.00">main</text>
</a>
</g>
<!-- Node46&#45;&gt;Node47 -->
<g id="edge106" class="edge"><title>Node46&#45;&gt;Node47</title>
<path fill="none" stroke="midnightblue" d="M1277.3,-426C1307.9,-426 1345.31,-426 1367.87,-426"/>
<polygon fill="midnightblue" stroke="midnightblue" points="1277.21,-422.5 1267.21,-426 1277.21,-429.5 1277.21,-422.5"/>
</g>
<!-- Node48&#45;&gt;Node45 -->
<g id="edge110" class="edge"><title>Node48&#45;&gt;Node45</title>
<path fill="none" stroke="midnightblue" d="M1103,-226C1137.61,-226 1181.51,-226 1206.71,-226"/>
<polygon fill="midnightblue" stroke="midnightblue" points="1102.59,-222.5 1092.59,-226 1102.59,-229.5 1102.59,-222.5"/>
</g>
</g>
</svg>
