<?xml version="1.0" encoding="UTF-8" standalone="no"?>
<!DOCTYPE svg PUBLIC "-//W3C//DTD SVG 1.1//EN"
 "http://www.w3.org/Graphics/SVG/1.1/DTD/svg11.dtd">
<!-- Generated by graphviz version 2.24.0 (20090616.2323)
 -->
<!-- Title: pphfa_assignstats Pages: 1 -->
<svg width="1798pt" height="317pt"
 viewBox="0.00 0.00 1798.00 317.00" xmlns="http://www.w3.org/2000/svg" xmlns:xlink="http://www.w3.org/1999/xlink">
<g id="graph1" class="graph" transform="scale(1 1) rotate(0) translate(4 313)">
<title>pphfa_assignstats</title>
<polygon fill="white" stroke="white" points="-4,5 -4,-313 1795,-313 1795,5 -4,5"/>
<!-- Node1 -->
<g id="node1" class="node"><title>Node1</title>
<polygon fill="#bfbfbf" stroke="black" points="0,-189.5 0,-210.5 102,-210.5 102,-189.5 0,-189.5"/>
<text text-anchor="middle" x="51" y="-197.5" font-family="FreeSans" font-size="10.00">pphfa_assignstats</text>
</g>
<!-- Node2 -->
<g id="node3" class="node"><title>Node2</title>
<a xlink:href="ppdfa_8h.html#a63d3c222edf17b8cbd525dcd5d76bd44" target="_top" xlink:title="ppassignstats">
<polygon fill="white" stroke="black" points="138.5,-189.5 138.5,-210.5 219.5,-210.5 219.5,-189.5 138.5,-189.5"/>
<text text-anchor="middle" x="179" y="-197.5" font-family="FreeSans" font-size="10.00">ppassignstats</text>
</a>
</g>
<!-- Node1&#45;&gt;Node2 -->
<g id="edge2" class="edge"><title>Node1&#45;&gt;Node2</title>
<path fill="none" stroke="midnightblue" d="M112.526,-200C121.272,-200 130.081,-200 138.297,-200"/>
<polygon fill="midnightblue" stroke="midnightblue" points="112.325,-196.5 102.325,-200 112.325,-203.5 112.325,-196.5"/>
</g>
<!-- Node3 -->
<g id="node5" class="node"><title>Node3</title>
<a xlink:href="cvm-hfa-search_8c.html#a60c8025118f6a47f924733e47db8c77d" target="_top" xlink:title="This routine is used to specify settings used during the search and getmatches API.">
<polygon fill="white" stroke="black" points="256,-189.5 256,-210.5 384,-210.5 384,-189.5 256,-189.5"/>
<text text-anchor="middle" x="320" y="-197.5" font-family="FreeSans" font-size="10.00">hfa_searchctx_setflags</text>
</a>
</g>
<!-- Node2&#45;&gt;Node3 -->
<g id="edge4" class="edge"><title>Node2&#45;&gt;Node3</title>
<path fill="none" stroke="midnightblue" d="M229.863,-200C238.324,-200 247.194,-200 255.932,-200"/>
<polygon fill="midnightblue" stroke="midnightblue" points="229.783,-196.5 219.783,-200 229.783,-203.5 229.783,-196.5"/>
</g>
<!-- Node4 -->
<g id="node7" class="node"><title>Node4</title>
<a xlink:href="flow_8c.html#a28378e8a6f53ff0e87f2e688d1c21834" target="_top" xlink:title="Low level API to create a flow Allocate Flow, Intialize searchctx, set graph and setflags,.">
<polygon fill="white" stroke="black" points="420.5,-287.5 420.5,-308.5 527.5,-308.5 527.5,-287.5 420.5,-287.5"/>
<text text-anchor="middle" x="474" y="-295.5" font-family="FreeSans" font-size="10.00">__hfaf_create_flow</text>
</a>
</g>
<!-- Node3&#45;&gt;Node4 -->
<g id="edge6" class="edge"><title>Node3&#45;&gt;Node4</title>
<path fill="none" stroke="midnightblue" d="M340.656,-216.95C360.32,-232.624 391.117,-255.996 420,-273 428.992,-278.294 439.294,-283.302 448.473,-287.425"/>
<polygon fill="midnightblue" stroke="midnightblue" points="342.683,-214.088 332.7,-210.542 338.293,-219.54 342.683,-214.088"/>
</g>
<!-- Node7 -->
<g id="node13" class="node"><title>Node7</title>
<a xlink:href="hfa-lnx-async_8c.html#a972f8b60ef804914c009c2ef85bac50e" target="_top" xlink:title="Process search for given payload and graph.">
<polygon fill="white" stroke="black" points="1087,-243.5 1087,-264.5 1179,-264.5 1179,-243.5 1087,-243.5"/>
<text text-anchor="middle" x="1133" y="-251.5" font-family="FreeSans" font-size="10.00">process_search</text>
</a>
</g>
<!-- Node3&#45;&gt;Node7 -->
<g id="edge12" class="edge"><title>Node3&#45;&gt;Node7</title>
<path fill="none" stroke="midnightblue" d="M350.509,-214.855C369.94,-223.642 395.903,-234.164 420,-240 506.78,-261.017 530.711,-259 620,-259 620,-259 620,-259 833,-259 922.856,-259 1027.83,-256.73 1086.75,-255.249"/>
<polygon fill="midnightblue" stroke="midnightblue" points="351.806,-211.598 341.261,-210.58 348.87,-217.953 351.806,-211.598"/>
</g>
<!-- Node11 -->
<g id="node22" class="node"><title>Node11</title>
<a xlink:href="hfa-lnx-ctx_8c.html#a6926aada806433e15eae2c50298b4aa9" target="_top" xlink:title="createctx">
<polygon fill="white" stroke="black" points="443,-209.5 443,-230.5 505,-230.5 505,-209.5 443,-209.5"/>
<text text-anchor="middle" x="474" y="-217.5" font-family="FreeSans" font-size="10.00">createctx</text>
</a>
</g>
<!-- Node3&#45;&gt;Node11 -->
<g id="edge22" class="edge"><title>Node3&#45;&gt;Node11</title>
<path fill="none" stroke="midnightblue" d="M394.386,-209.66C411.392,-211.869 428.569,-214.1 442.592,-215.921"/>
<polygon fill="midnightblue" stroke="midnightblue" points="394.785,-206.183 384.418,-208.366 393.883,-213.125 394.785,-206.183"/>
</g>
<!-- Node13 -->
<g id="node26" class="node"><title>Node13</title>
<a xlink:href="hfa-lnx-linkgraph_8c.html#a6604748091c732cb29568c12d0f77b4e" target="_top" xlink:title="Initialize search ctx for each subgraph.">
<polygon fill="white" stroke="black" points="436,-169.5 436,-190.5 512,-190.5 512,-169.5 436,-169.5"/>
<text text-anchor="middle" x="474" y="-177.5" font-family="FreeSans" font-size="10.00">Initialize_Ctx</text>
</a>
</g>
<!-- Node3&#45;&gt;Node13 -->
<g id="edge26" class="edge"><title>Node3&#45;&gt;Node13</title>
<path fill="none" stroke="midnightblue" d="M394.73,-190.295C408.955,-188.447 423.284,-186.586 435.772,-184.965"/>
<polygon fill="midnightblue" stroke="midnightblue" points="393.883,-186.875 384.418,-191.634 394.785,-193.817 393.883,-186.875"/>
</g>
<!-- Node14 -->
<g id="node28" class="node"><title>Node14</title>
<a xlink:href="hfa-lnx-nctx-lock_8c.html#a2c813b2ff20c5bf67f487908476604d6" target="_top" xlink:title="Initialize search context object for nctxts and a global list to track nctxts.">
<polygon fill="white" stroke="black" points="424.5,-129.5 424.5,-150.5 523.5,-150.5 523.5,-129.5 424.5,-129.5"/>
<text text-anchor="middle" x="474" y="-137.5" font-family="FreeSans" font-size="10.00">initialize_ctx_glist</text>
</a>
</g>
<!-- Node3&#45;&gt;Node14 -->
<g id="edge28" class="edge"><title>Node3&#45;&gt;Node14</title>
<path fill="none" stroke="midnightblue" d="M355.328,-185.611C374.429,-177.896 398.454,-168.298 420,-160 428.117,-156.874 436.953,-153.563 445.083,-150.554"/>
<polygon fill="midnightblue" stroke="midnightblue" points="353.784,-182.46 345.827,-189.457 356.41,-188.949 353.784,-182.46"/>
</g>
<!-- Node16 -->
<g id="node32" class="node"><title>Node16</title>
<a xlink:href="hfa-lnx_8c.html#a924d2733ebc7a856f8c3fd293193ba44" target="_top" xlink:title="Initialize search context.">
<polygon fill="white" stroke="black" points="436.5,-89.5 436.5,-110.5 511.5,-110.5 511.5,-89.5 436.5,-89.5"/>
<text text-anchor="middle" x="474" y="-97.5" font-family="FreeSans" font-size="10.00">initialize_ctx</text>
</a>
</g>
<!-- Node3&#45;&gt;Node16 -->
<g id="edge32" class="edge"><title>Node3&#45;&gt;Node16</title>
<path fill="none" stroke="midnightblue" d="M338.22,-182.406C357.323,-164.721 388.843,-137.622 420,-120 426.352,-116.407 433.473,-113.237 440.407,-110.541"/>
<polygon fill="midnightblue" stroke="midnightblue" points="335.719,-179.954 330.831,-189.354 340.514,-185.054 335.719,-179.954"/>
</g>
<!-- Node5 -->
<g id="node9" class="node"><title>Node5</title>
<a xlink:href="flow_8h.html#abdb62c6f71f5ca9ecddc66c90166d37b" target="_top" xlink:title="Create Packet Flow in Flowdb.">
<polygon fill="white" stroke="black" points="564.5,-287.5 564.5,-308.5 675.5,-308.5 675.5,-287.5 564.5,-287.5"/>
<text text-anchor="middle" x="620" y="-295.5" font-family="FreeSans" font-size="10.00">hfaf_create_pktflow</text>
</a>
</g>
<!-- Node4&#45;&gt;Node5 -->
<g id="edge8" class="edge"><title>Node4&#45;&gt;Node5</title>
<path fill="none" stroke="midnightblue" d="M537.707,-298C546.468,-298 555.411,-298 564.019,-298"/>
<polygon fill="midnightblue" stroke="midnightblue" points="537.536,-294.5 527.536,-298 537.536,-301.5 537.536,-294.5"/>
</g>
<!-- Node6 -->
<g id="node11" class="node"><title>Node6</title>
<a xlink:href="hfa-se-flow-wqe_8c.html#a6d3e23d8f7a3aaf1b0d6e350b7631a0e" target="_top" xlink:title="Get flow pointer from Flow database, If flow ptr is NULL then create at runtime.">
<polygon fill="white" stroke="black" points="712.5,-287.5 712.5,-308.5 781.5,-308.5 781.5,-287.5 712.5,-287.5"/>
<text text-anchor="middle" x="747" y="-295.5" font-family="FreeSans" font-size="10.00">get_flowptr</text>
</a>
</g>
<!-- Node5&#45;&gt;Node6 -->
<g id="edge10" class="edge"><title>Node5&#45;&gt;Node6</title>
<path fill="none" stroke="midnightblue" d="M685.924,-298C694.986,-298 703.982,-298 712.172,-298"/>
<polygon fill="midnightblue" stroke="midnightblue" points="685.704,-294.5 675.704,-298 685.704,-301.5 685.704,-294.5"/>
</g>
<!-- Node8 -->
<g id="node15" class="node"><title>Node8</title>
<a xlink:href="hfa-lnx-async_8c.html#a1e97b1d598034fdc92d57054a6c386e6" target="_top" xlink:title="tasklet_callback">
<polygon fill="white" stroke="black" points="1248,-281.5 1248,-302.5 1340,-302.5 1340,-281.5 1248,-281.5"/>
<text text-anchor="middle" x="1294" y="-289.5" font-family="FreeSans" font-size="10.00">tasklet_callback</text>
</a>
</g>
<!-- Node7&#45;&gt;Node8 -->
<g id="edge14" class="edge"><title>Node7&#45;&gt;Node8</title>
<path fill="none" stroke="midnightblue" d="M1187.79,-266.932C1207.86,-271.669 1230.32,-276.97 1249.39,-281.472"/>
<polygon fill="midnightblue" stroke="midnightblue" points="1188.38,-263.476 1177.85,-264.585 1186.78,-270.289 1188.38,-263.476"/>
</g>
<!-- Node10 -->
<g id="node19" class="node"><title>Node10</title>
<a xlink:href="hfa-lnx-async_8c.html#a7dea7d59754828b1173c4c7ec5d42f3e" target="_top" xlink:title="thread_callback">
<polygon fill="white" stroke="black" points="1248,-241.5 1248,-262.5 1340,-262.5 1340,-241.5 1248,-241.5"/>
<text text-anchor="middle" x="1294" y="-249.5" font-family="FreeSans" font-size="10.00">thread_callback</text>
</a>
</g>
<!-- Node7&#45;&gt;Node10 -->
<g id="edge18" class="edge"><title>Node7&#45;&gt;Node10</title>
<path fill="none" stroke="midnightblue" d="M1189.24,-253.301C1208.4,-253.063 1229.58,-252.8 1247.86,-252.573"/>
<polygon fill="midnightblue" stroke="midnightblue" points="1189.09,-249.803 1179.14,-253.427 1189.18,-256.802 1189.09,-249.803"/>
</g>
<!-- Node9 -->
<g id="node17" class="node"><title>Node9</title>
<a xlink:href="hfa-lnx-async_8c.html#a78ffddbcd7cdd164889cfb53ea367886" target="_top" xlink:title="entry">
<polygon fill="white" stroke="black" points="1415.5,-241.5 1415.5,-262.5 1456.5,-262.5 1456.5,-241.5 1415.5,-241.5"/>
<text text-anchor="middle" x="1436" y="-249.5" font-family="FreeSans" font-size="10.00">entry</text>
</a>
</g>
<!-- Node8&#45;&gt;Node9 -->
<g id="edge16" class="edge"><title>Node8&#45;&gt;Node9</title>
<path fill="none" stroke="midnightblue" d="M1341.04,-278.751C1366.15,-271.677 1395.79,-263.327 1415.2,-257.861"/>
<polygon fill="midnightblue" stroke="midnightblue" points="1339.99,-275.41 1331.31,-281.49 1341.88,-282.148 1339.99,-275.41"/>
</g>
<!-- Node10&#45;&gt;Node9 -->
<g id="edge20" class="edge"><title>Node10&#45;&gt;Node9</title>
<path fill="none" stroke="midnightblue" d="M1350.15,-252C1373.17,-252 1398.37,-252 1415.48,-252"/>
<polygon fill="midnightblue" stroke="midnightblue" points="1350.1,-248.5 1340.1,-252 1350.1,-255.5 1350.1,-248.5"/>
</g>
<!-- Node12 -->
<g id="node24" class="node"><title>Node12</title>
<a xlink:href="hfa-lnx-ctx_8c.html#a78ffddbcd7cdd164889cfb53ea367886" target="_top" xlink:title="entry">
<polygon fill="white" stroke="black" points="599.5,-209.5 599.5,-230.5 640.5,-230.5 640.5,-209.5 599.5,-209.5"/>
<text text-anchor="middle" x="620" y="-217.5" font-family="FreeSans" font-size="10.00">entry</text>
</a>
</g>
<!-- Node11&#45;&gt;Node12 -->
<g id="edge24" class="edge"><title>Node11&#45;&gt;Node12</title>
<path fill="none" stroke="midnightblue" d="M515.388,-220C542.699,-220 577.327,-220 599.081,-220"/>
<polygon fill="midnightblue" stroke="midnightblue" points="515.321,-216.5 505.321,-220 515.321,-223.5 515.321,-216.5"/>
</g>
<!-- Node15 -->
<g id="node30" class="node"><title>Node15</title>
<a xlink:href="hfa-lnx-nctx-lock_8c.html#a78ffddbcd7cdd164889cfb53ea367886" target="_top" xlink:title="entry">
<polygon fill="white" stroke="black" points="599.5,-129.5 599.5,-150.5 640.5,-150.5 640.5,-129.5 599.5,-129.5"/>
<text text-anchor="middle" x="620" y="-137.5" font-family="FreeSans" font-size="10.00">entry</text>
</a>
</g>
<!-- Node14&#45;&gt;Node15 -->
<g id="edge30" class="edge"><title>Node14&#45;&gt;Node15</title>
<path fill="none" stroke="midnightblue" d="M533.986,-140C557.188,-140 582.203,-140 599.242,-140"/>
<polygon fill="midnightblue" stroke="midnightblue" points="533.837,-136.5 523.837,-140 533.837,-143.5 533.837,-136.5"/>
</g>
<!-- Node17 -->
<g id="node34" class="node"><title>Node17</title>
<a xlink:href="hfa-lnx_8c.html#a78ffddbcd7cdd164889cfb53ea367886" target="_top" xlink:title="entry">
<polygon fill="white" stroke="black" points="599.5,-89.5 599.5,-110.5 640.5,-110.5 640.5,-89.5 599.5,-89.5"/>
<text text-anchor="middle" x="620" y="-97.5" font-family="FreeSans" font-size="10.00">entry</text>
</a>
</g>
<!-- Node16&#45;&gt;Node17 -->
<g id="edge34" class="edge"><title>Node16&#45;&gt;Node17</title>
<path fill="none" stroke="midnightblue" d="M521.738,-100C547.951,-100 579.12,-100 599.215,-100"/>
<polygon fill="midnightblue" stroke="midnightblue" points="521.599,-96.5001 511.599,-100 521.599,-103.5 521.599,-96.5001"/>
</g>
<!-- Node18 -->
<g id="node36" class="node"><title>Node18</title>
<a xlink:href="cvm-hfa-pp_8c.html#adcc1149c628372e2e566c246870929cb" target="_top" xlink:title="infoentry">
<polygon fill="white" stroke="black" points="717.5,-108.5 717.5,-129.5 776.5,-129.5 776.5,-108.5 717.5,-108.5"/>
<text text-anchor="middle" x="747" y="-116.5" font-family="FreeSans" font-size="10.00">infoentry</text>
</a>
</g>
<!-- Node17&#45;&gt;Node18 -->
<g id="edge36" class="edge"><title>Node17&#45;&gt;Node18</title>
<path fill="none" stroke="midnightblue" d="M650.645,-104.585C670.883,-107.612 697.268,-111.56 717.309,-114.558"/>
<polygon fill="midnightblue" stroke="midnightblue" points="651.095,-101.113 640.687,-103.095 650.059,-108.036 651.095,-101.113"/>
</g>
<!-- Node19 -->
<g id="node38" class="node"><title>Node19</title>
<a xlink:href="ppdfa_8h.html#a81b3389c2c25a4ba308f71501f980e38" target="_top" xlink:title="pp">
<polygon fill="white" stroke="black" points="818.5,-109.5 818.5,-130.5 847.5,-130.5 847.5,-109.5 818.5,-109.5"/>
<text text-anchor="middle" x="833" y="-117.5" font-family="FreeSans" font-size="10.00">pp</text>
</a>
</g>
<!-- Node18&#45;&gt;Node19 -->
<g id="edge38" class="edge"><title>Node18&#45;&gt;Node19</title>
<path fill="none" stroke="midnightblue" d="M786.695,-119.462C797.877,-119.592 809.36,-119.725 818.094,-119.827"/>
<polygon fill="midnightblue" stroke="midnightblue" points="786.636,-115.961 776.596,-119.344 786.555,-122.96 786.636,-115.961"/>
</g>
<!-- Node20 -->
<g id="node40" class="node"><title>Node20</title>
<a xlink:href="cvm-hfa-search_8c.html#a6dbb15dc58155b2c94b19784ad42ef89" target="_top" xlink:title="This routine post&#45;processes the search results from the HFA engine and reports the pattern matches fo...">
<polygon fill="white" stroke="black" points="884.5,-119.5 884.5,-140.5 1031.5,-140.5 1031.5,-119.5 884.5,-119.5"/>
<text text-anchor="middle" x="958" y="-127.5" font-family="FreeSans" font-size="10.00">hfa_searchctx_getmatches</text>
</a>
</g>
<!-- Node19&#45;&gt;Node20 -->
<g id="edge40" class="edge"><title>Node19&#45;&gt;Node20</title>
<path fill="none" stroke="midnightblue" d="M857.986,-121.999C865.825,-122.626 874.914,-123.353 884.354,-124.108"/>
<polygon fill="midnightblue" stroke="midnightblue" points="858.077,-118.495 847.83,-121.186 857.519,-125.473 858.077,-118.495"/>
</g>
<!-- Node20&#45;&gt;Node7 -->
<g id="edge54" class="edge"><title>Node20&#45;&gt;Node7</title>
<path fill="none" stroke="midnightblue" d="M973.714,-148.4C993.632,-170.703 1029.98,-208.134 1068,-231 1076.31,-235.997 1085.87,-240.134 1095.05,-243.456"/>
<polygon fill="midnightblue" stroke="midnightblue" points="976.143,-145.861 966.916,-140.654 970.882,-150.479 976.143,-145.861"/>
</g>
<!-- Node21 -->
<g id="node42" class="node"><title>Node21</title>
<a xlink:href="flow_8c.html#a2976ab60901b133a56214323fb901663" target="_top" xlink:title="Low level API to poll a flow.">
<polygon fill="white" stroke="black" points="1068.5,-200.5 1068.5,-221.5 1197.5,-221.5 1197.5,-200.5 1068.5,-200.5"/>
<text text-anchor="middle" x="1133" y="-208.5" font-family="FreeSans" font-size="10.00">__hfaf_process_pktflow</text>
</a>
</g>
<!-- Node20&#45;&gt;Node21 -->
<g id="edge42" class="edge"><title>Node20&#45;&gt;Node21</title>
<path fill="none" stroke="midnightblue" d="M983.24,-145.983C1005.06,-159.309 1037.76,-178.129 1068,-191 1076.26,-194.514 1085.34,-197.705 1094.03,-200.454"/>
<polygon fill="midnightblue" stroke="midnightblue" points="984.942,-142.92 974.595,-140.642 981.263,-148.875 984.942,-142.92"/>
</g>
<!-- Node27 -->
<g id="node55" class="node"><title>Node27</title>
<a xlink:href="hfa-lnx-ctx_8c.html#a71e1d3d18cc48b90a1ecde583ffb3f7a" target="_top" xlink:title="poll_searchctx">
<polygon fill="white" stroke="black" points="1090,-160.5 1090,-181.5 1176,-181.5 1176,-160.5 1090,-160.5"/>
<text text-anchor="middle" x="1133" y="-168.5" font-family="FreeSans" font-size="10.00">poll_searchctx</text>
</a>
</g>
<!-- Node20&#45;&gt;Node27 -->
<g id="edge56" class="edge"><title>Node20&#45;&gt;Node27</title>
<path fill="none" stroke="midnightblue" d="M1013.06,-142.9C1037.86,-148.71 1066.71,-155.469 1089.9,-160.901"/>
<polygon fill="midnightblue" stroke="midnightblue" points="1013.6,-139.432 1003.07,-140.559 1012,-146.247 1013.6,-139.432"/>
</g>
<!-- Node30 -->
<g id="node61" class="node"><title>Node30</title>
<a xlink:href="hfa-lnx-linkgraph_8c.html#a78ffddbcd7cdd164889cfb53ea367886" target="_top" xlink:title="entry">
<polygon fill="white" stroke="black" points="1112.5,-120.5 1112.5,-141.5 1153.5,-141.5 1153.5,-120.5 1112.5,-120.5"/>
<text text-anchor="middle" x="1133" y="-128.5" font-family="FreeSans" font-size="10.00">entry</text>
</a>
</g>
<!-- Node20&#45;&gt;Node30 -->
<g id="edge62" class="edge"><title>Node20&#45;&gt;Node30</title>
<path fill="none" stroke="midnightblue" d="M1041.74,-130.479C1068.02,-130.629 1094.75,-130.781 1112.43,-130.882"/>
<polygon fill="midnightblue" stroke="midnightblue" points="1041.73,-126.978 1031.71,-130.421 1041.69,-133.978 1041.73,-126.978"/>
</g>
<!-- Node31 -->
<g id="node63" class="node"><title>Node31</title>
<a xlink:href="hfa-lnx-nctx-lock_8c.html#adb0c831ef0f9af5441a6769c377d9c95" target="_top" xlink:title="Post process the results from HFA and record found matches.">
<polygon fill="white" stroke="black" points="1093,-80.5 1093,-101.5 1173,-101.5 1173,-80.5 1093,-80.5"/>
<text text-anchor="middle" x="1133" y="-88.5" font-family="FreeSans" font-size="10.00">post_process</text>
</a>
</g>
<!-- Node20&#45;&gt;Node31 -->
<g id="edge64" class="edge"><title>Node20&#45;&gt;Node31</title>
<path fill="none" stroke="midnightblue" d="M1015.22,-117.249C1040.55,-111.604 1069.74,-105.098 1092.73,-99.9753"/>
<polygon fill="midnightblue" stroke="midnightblue" points="1014.36,-113.855 1005.36,-119.446 1015.88,-120.687 1014.36,-113.855"/>
</g>
<!-- Node34 -->
<g id="node70" class="node"><title>Node34</title>
<a xlink:href="hfa-se-async_8c.html#a3c04138a5bfe5d72780bb7e82a18e627" target="_top" xlink:title="main">
<polygon fill="white" stroke="black" points="1113,-40.5 1113,-61.5 1153,-61.5 1153,-40.5 1113,-40.5"/>
<text text-anchor="middle" x="1133" y="-48.5" font-family="FreeSans" font-size="10.00">main</text>
</a>
</g>
<!-- Node20&#45;&gt;Node34 -->
<g id="edge72" class="edge"><title>Node20&#45;&gt;Node34</title>
<path fill="none" stroke="midnightblue" d="M984.079,-114.148C1005.94,-101.324 1038.25,-83.4165 1068,-71 1082.6,-64.906 1099.73,-59.7119 1112.73,-56.1453"/>
<polygon fill="midnightblue" stroke="midnightblue" points="982.206,-111.19 975.391,-119.303 985.777,-117.211 982.206,-111.19"/>
</g>
<!-- Node35 -->
<g id="node72" class="node"><title>Node35</title>
<a xlink:href="hfa-se-wqe-lock_8c.html#a06b5fcfab0e1d5eb36b633ec080ad7f9" target="_top" xlink:title="Process search for given contexts.">
<polygon fill="white" stroke="black" points="1093,-0.5 1093,-21.5 1173,-21.5 1173,-0.5 1093,-0.5"/>
<text text-anchor="middle" x="1133" y="-8.5" font-family="FreeSans" font-size="10.00">process_nctx</text>
</a>
</g>
<!-- Node20&#45;&gt;Node35 -->
<g id="edge74" class="edge"><title>Node20&#45;&gt;Node35</title>
<path fill="none" stroke="midnightblue" d="M973.639,-111.723C993.48,-89.6176 1029.75,-52.6817 1068,-31 1075.6,-26.6917 1084.24,-23.203 1092.68,-20.42"/>
<polygon fill="midnightblue" stroke="midnightblue" points="970.854,-109.59 966.869,-119.407 976.106,-114.218 970.854,-109.59"/>
</g>
<!-- Node22 -->
<g id="node44" class="node"><title>Node22</title>
<a xlink:href="flow_8h.html#ab1b3378af88a440a6c3c0851be942e65" target="_top" xlink:title="All submitted search parameters in Paramlist of flow are polled If low level API __hfaf_process_pktfl...">
<polygon fill="white" stroke="black" points="1234.5,-200.5 1234.5,-221.5 1353.5,-221.5 1353.5,-200.5 1234.5,-200.5"/>
<text text-anchor="middle" x="1294" y="-208.5" font-family="FreeSans" font-size="10.00">hfaf_process_pktflow</text>
</a>
</g>
<!-- Node21&#45;&gt;Node22 -->
<g id="edge44" class="edge"><title>Node21&#45;&gt;Node22</title>
<path fill="none" stroke="midnightblue" d="M1207.62,-211C1216.59,-211 1225.66,-211 1234.38,-211"/>
<polygon fill="midnightblue" stroke="midnightblue" points="1207.56,-207.5 1197.56,-211 1207.56,-214.5 1207.56,-207.5"/>
</g>
<!-- Node23 -->
<g id="node46" class="node"><title>Node23</title>
<a xlink:href="hfa-se-flow_8c.html#a2d83c733eacd7afc955c3af18edcb52a" target="_top" xlink:title="Polls for a submitted search instruction of a flow.">
<polygon fill="white" stroke="black" points="1393.5,-200.5 1393.5,-221.5 1478.5,-221.5 1478.5,-200.5 1393.5,-200.5"/>
<text text-anchor="middle" x="1436" y="-208.5" font-family="FreeSans" font-size="10.00">__processflow</text>
</a>
</g>
<!-- Node22&#45;&gt;Node23 -->
<g id="edge46" class="edge"><title>Node22&#45;&gt;Node23</title>
<path fill="none" stroke="midnightblue" d="M1364.08,-211C1373.98,-211 1383.9,-211 1393.08,-211"/>
<polygon fill="midnightblue" stroke="midnightblue" points="1363.81,-207.5 1353.81,-211 1363.81,-214.5 1363.81,-207.5"/>
</g>
<!-- Node24 -->
<g id="node48" class="node"><title>Node24</title>
<a xlink:href="hfa-se-flow_8c.html#a786591694a8f8fb46cedbc8a580c88f6" target="_top" xlink:title="Submitting or Polling flows from the software recently used cache IF Cache is empty, it tries to refill it.">
<polygon fill="white" stroke="black" points="1518.5,-200.5 1518.5,-221.5 1581.5,-221.5 1581.5,-200.5 1518.5,-200.5"/>
<text text-anchor="middle" x="1550" y="-208.5" font-family="FreeSans" font-size="10.00">do_cache</text>
</a>
</g>
<!-- Node23&#45;&gt;Node24 -->
<g id="edge48" class="edge"><title>Node23&#45;&gt;Node24</title>
<path fill="none" stroke="midnightblue" d="M1488.78,-211C1498.9,-211 1509.2,-211 1518.39,-211"/>
<polygon fill="midnightblue" stroke="midnightblue" points="1488.77,-207.5 1478.77,-211 1488.77,-214.5 1488.77,-207.5"/>
</g>
<!-- Node25 -->
<g id="node50" class="node"><title>Node25</title>
<a xlink:href="hfa-se-flow_8c.html#aba72a61590283e37ffd78b4defd38220" target="_top" xlink:title="Receive network packets and process.">
<polygon fill="white" stroke="black" points="1618,-200.5 1618,-221.5 1714,-221.5 1714,-200.5 1618,-200.5"/>
<text text-anchor="middle" x="1666" y="-208.5" font-family="FreeSans" font-size="10.00">process_packets</text>
</a>
</g>
<!-- Node24&#45;&gt;Node25 -->
<g id="edge50" class="edge"><title>Node24&#45;&gt;Node25</title>
<path fill="none" stroke="midnightblue" d="M1591.71,-211C1600.17,-211 1609.13,-211 1617.79,-211"/>
<polygon fill="midnightblue" stroke="midnightblue" points="1591.7,-207.5 1581.7,-211 1591.7,-214.5 1591.7,-207.5"/>
</g>
<!-- Node26 -->
<g id="node52" class="node"><title>Node26</title>
<a xlink:href="hfa-se-flow-wqe_8c.html#a3c04138a5bfe5d72780bb7e82a18e627" target="_top" xlink:title="Implementation.">
<polygon fill="white" stroke="black" points="1750,-200.5 1750,-221.5 1790,-221.5 1790,-200.5 1750,-200.5"/>
<text text-anchor="middle" x="1770" y="-208.5" font-family="FreeSans" font-size="10.00">main</text>
</a>
</g>
<!-- Node25&#45;&gt;Node26 -->
<g id="edge52" class="edge"><title>Node25&#45;&gt;Node26</title>
<path fill="none" stroke="midnightblue" d="M1724.15,-211C1733.41,-211 1742.42,-211 1749.96,-211"/>
<polygon fill="midnightblue" stroke="midnightblue" points="1724.04,-207.5 1714.04,-211 1724.04,-214.5 1724.04,-207.5"/>
</g>
<!-- Node28 -->
<g id="node57" class="node"><title>Node28</title>
<a xlink:href="hfa-lnx-ctx_8c.html#a934a9fc08c4aab25d6f0d861e4a4f762" target="_top" xlink:title="poll">
<polygon fill="white" stroke="black" points="1277.5,-160.5 1277.5,-181.5 1310.5,-181.5 1310.5,-160.5 1277.5,-160.5"/>
<text text-anchor="middle" x="1294" y="-168.5" font-family="FreeSans" font-size="10.00">poll</text>
</a>
</g>
<!-- Node27&#45;&gt;Node28 -->
<g id="edge58" class="edge"><title>Node27&#45;&gt;Node28</title>
<path fill="none" stroke="midnightblue" d="M1186.2,-171C1217.95,-171 1256.13,-171 1277.48,-171"/>
<polygon fill="midnightblue" stroke="midnightblue" points="1186.15,-167.5 1176.15,-171 1186.15,-174.5 1186.15,-167.5"/>
</g>
<!-- Node29 -->
<g id="node59" class="node"><title>Node29</title>
<a xlink:href="hfa-lnx-ctx_8c.html#a97df0ba8293c1b8436547946fd9d0d17" target="_top" xlink:title="process_pkt">
<polygon fill="white" stroke="black" points="1399,-160.5 1399,-181.5 1473,-181.5 1473,-160.5 1399,-160.5"/>
<text text-anchor="middle" x="1436" y="-168.5" font-family="FreeSans" font-size="10.00">process_pkt</text>
</a>
</g>
<!-- Node28&#45;&gt;Node29 -->
<g id="edge60" class="edge"><title>Node28&#45;&gt;Node29</title>
<path fill="none" stroke="midnightblue" d="M1320.86,-171C1342.91,-171 1374.38,-171 1398.84,-171"/>
<polygon fill="midnightblue" stroke="midnightblue" points="1320.57,-167.5 1310.57,-171 1320.57,-174.5 1320.57,-167.5"/>
</g>
<!-- Node32 -->
<g id="node65" class="node"><title>Node32</title>
<a xlink:href="hfa-lnx-nctx-lock_8c.html#a48d3743fb7abc7d3c6b68359678e52a1" target="_top" xlink:title="Poll for the pending search instructions in the HW (blocked till instruction completes) and process t...">
<polygon fill="white" stroke="black" points="1277.5,-100.5 1277.5,-121.5 1310.5,-121.5 1310.5,-100.5 1277.5,-100.5"/>
<text text-anchor="middle" x="1294" y="-108.5" font-family="FreeSans" font-size="10.00">poll</text>
</a>
</g>
<!-- Node31&#45;&gt;Node32 -->
<g id="edge66" class="edge"><title>Node31&#45;&gt;Node32</title>
<path fill="none" stroke="midnightblue" d="M1183.36,-97.2562C1215.54,-101.253 1255.22,-106.183 1277.25,-108.919"/>
<polygon fill="midnightblue" stroke="midnightblue" points="1183.57,-93.7548 1173.21,-95.9953 1182.7,-100.701 1183.57,-93.7548"/>
</g>
<!-- Node33 -->
<g id="node67" class="node"><title>Node33</title>
<a xlink:href="hfa-lnx-nctx-lock_8c.html#a972f8b60ef804914c009c2ef85bac50e" target="_top" xlink:title="Performs search process for each core.">
<polygon fill="white" stroke="black" points="1390,-81.5 1390,-102.5 1482,-102.5 1482,-81.5 1390,-81.5"/>
<text text-anchor="middle" x="1436" y="-89.5" font-family="FreeSans" font-size="10.00">process_search</text>
</a>
</g>
<!-- Node31&#45;&gt;Node33 -->
<g id="edge70" class="edge"><title>Node31&#45;&gt;Node33</title>
<path fill="none" stroke="midnightblue" d="M1183.37,-90.8253C1228.17,-90.7116 1295.45,-90.643 1354,-91 1365.53,-91.0703 1377.98,-91.1962 1389.6,-91.3356"/>
<polygon fill="midnightblue" stroke="midnightblue" points="1183.32,-87.3253 1173.33,-90.8525 1183.34,-94.3253 1183.32,-87.3253"/>
</g>
<!-- Node32&#45;&gt;Node33 -->
<g id="edge68" class="edge"><title>Node32&#45;&gt;Node33</title>
<path fill="none" stroke="midnightblue" d="M1320.53,-107.45C1339.98,-104.848 1366.88,-101.249 1389.82,-98.1794"/>
<polygon fill="midnightblue" stroke="midnightblue" points="1320.01,-103.988 1310.57,-108.783 1320.94,-110.926 1320.01,-103.988"/>
</g>
<!-- Node36 -->
<g id="node74" class="node"><title>Node36</title>
<a xlink:href="hfa-se-wqe-lock_8c.html#a3c04138a5bfe5d72780bb7e82a18e627" target="_top" xlink:title="main">
<polygon fill="white" stroke="black" points="1274,-0.5 1274,-21.5 1314,-21.5 1314,-0.5 1274,-0.5"/>
<text text-anchor="middle" x="1294" y="-8.5" font-family="FreeSans" font-size="10.00">main</text>
</a>
</g>
<!-- Node35&#45;&gt;Node36 -->
<g id="edge76" class="edge"><title>Node35&#45;&gt;Node36</title>
<path fill="none" stroke="midnightblue" d="M1183.3,-11C1213.9,-11 1251.31,-11 1273.87,-11"/>
<polygon fill="midnightblue" stroke="midnightblue" points="1183.21,-7.5001 1173.21,-11 1183.21,-14.5001 1183.21,-7.5001"/>
</g>
</g>
</svg>
