<?xml version="1.0" encoding="UTF-8" standalone="no"?>
<!DOCTYPE svg PUBLIC "-//W3C//DTD SVG 1.1//EN"
 "http://www.w3.org/Graphics/SVG/1.1/DTD/svg11.dtd">
<!-- Generated by graphviz version 2.24.0 (20090616.2323)
 -->
<!-- Title: ppgetstats Pages: 1 -->
<!--zoomable 668 -->
<svg id="main" version="1.1" xmlns="http://www.w3.org/2000/svg" xmlns:xlink="http://www.w3.org/1999/xlink" xml:space="preserve" onload="init(evt)">
        <defs>
                <circle id="rim" cx="0" cy="0" r="7"/>
                <circle id="rim2" cx="0" cy="0" r="3.5"/>
                <g id="zoomPlus">
                        <use xlink:href="#rim" fill="#404040">
                                <set attributeName="fill" to="#808080" begin="zoomplus.mouseover" end="zoomplus.mouseout"/>
                        </use>
                        <path d="M-4,0h8M0,-4v8" fill="none" stroke="white" stroke-width="1.5" pointer-events="none"/>
                </g>
                <g id="zoomMin">
                        <use xlink:href="#rim" fill="#404040">
                                <set attributeName="fill" to="#808080" begin="zoomminus.mouseover" end="zoomminus.mouseout"/>
                        </use>
                        <path d="M-4,0h8" fill="none" stroke="white" stroke-width="1.5" pointer-events="none"/>
                </g>
                <g id="dirArrow">
                        <path fill="none" stroke="white" stroke-width="1.5" d="M0,-3.0v7 M-2.5,-0.5L0,-3.0L2.5,-0.5"/>
                </g>
               <g id="resetDef">
                       <use xlink:href="#rim2" fill="#404040">
                               <set attributeName="fill" to="#808080" begin="reset.mouseover" end="reset.mouseout"/>
                       </use>
               </g>
        </defs>

<script type="text/javascript">
var viewWidth = 1410;
var viewHeight = 668;
var sectionId = 'dynsection-10';
</script>
<script xlink:href="svgpan.js"/>
<svg id="graph" class="graph">
<g id="viewport">
<title>ppgetstats</title>
<polygon fill="white" stroke="white" points="-4,5 -4,-664.096 1407,-664.096 1407,5 -4,5"/>
<!-- Node1 -->
<g id="node1" class="node"><title>Node1</title>
<polygon fill="#bfbfbf" stroke="black" points="0,-268.5 0,-289.5 66,-289.5 66,-268.5 0,-268.5"/>
<text text-anchor="middle" x="33" y="-276.5" font-family="FreeSans" font-size="10.00">ppgetstats</text>
</g>
<!-- Node2 -->
<g id="node3" class="node"><title>Node2</title>
<a xlink:href="cvm-hfa-search_8c.html#a30064f173d814bd3791b59d675c2f45f" target="_top" xlink:title="This routine cleans&#45;up a Search Context.">
<polygon fill="white" stroke="black" points="102,-288.5 102,-309.5 254,-309.5 254,-288.5 102,-288.5"/>
<text text-anchor="middle" x="178" y="-296.5" font-family="FreeSans" font-size="10.00">hfa_dev_searchctx_cleanup</text>
</a>
</g>
<!-- Node1&#45;&gt;Node2 -->
<g id="edge2" class="edge"><title>Node1&#45;&gt;Node2</title>
<path fill="none" stroke="midnightblue" d="M76.1903,-284.957C84.3048,-286.077 93.0082,-287.277 101.784,-288.488"/>
<polygon fill="midnightblue" stroke="midnightblue" points="76.6504,-281.488 66.2659,-283.588 75.6939,-288.422 76.6504,-281.488"/>
</g>
<!-- Node45 -->
<g id="node96" class="node"><title>Node45</title>
<a xlink:href="cvm-hfa-search_8c.html#a60c8025118f6a47f924733e47db8c77d" target="_top" xlink:title="This routine is used to specify settings used during the search and getmatches API.">
<polygon fill="white" stroke="black" points="114,-486.5 114,-507.5 242,-507.5 242,-486.5 114,-486.5"/>
<text text-anchor="middle" x="178" y="-494.5" font-family="FreeSans" font-size="10.00">hfa_searchctx_setflags</text>
</a>
</g>
<!-- Node1&#45;&gt;Node45 -->
<g id="edge102" class="edge"><title>Node1&#45;&gt;Node45</title>
<path fill="none" stroke="midnightblue" d="M45.5977,-297.94C75.0968,-342.29 147.894,-451.737 170.907,-486.336"/>
<polygon fill="midnightblue" stroke="midnightblue" points="48.4461,-295.903 39.9937,-289.515 42.6176,-299.779 48.4461,-295.903"/>
</g>
<!-- Node48 -->
<g id="node107" class="node"><title>Node48</title>
<a xlink:href="cvm-hfa-search_8c.html#a26b545e4ea8602ce6b32dae8554de39a" target="_top" xlink:title="This routine returns a copy of Post Process statistics to the application through a pointer provided ...">
<polygon fill="white" stroke="black" points="105.5,-248.5 105.5,-269.5 250.5,-269.5 250.5,-248.5 105.5,-248.5"/>
<text text-anchor="middle" x="178" y="-256.5" font-family="FreeSans" font-size="10.00">hfa_searchctx_get_ppstats</text>
</a>
</g>
<!-- Node1&#45;&gt;Node48 -->
<g id="edge118" class="edge"><title>Node1&#45;&gt;Node48</title>
<path fill="none" stroke="midnightblue" d="M76.2664,-273.032C85.4416,-271.767 95.367,-270.398 105.298,-269.028"/>
<polygon fill="midnightblue" stroke="midnightblue" points="75.6939,-269.578 66.2659,-274.412 76.6504,-276.512 75.6939,-269.578"/>
</g>
<!-- Node49 -->
<g id="node109" class="node"><title>Node49</title>
<a xlink:href="cvm-hfa-search_8c.html#a48920dcf6a80687b7f6c86056f29523a" target="_top" xlink:title="This routine is used to print PP statistics while post processing is going on.">
<polygon fill="white" stroke="black" points="115.5,-98 115.5,-132 240.5,-132 240.5,-98 115.5,-98"/>
<text text-anchor="start" x="123.5" y="-119" font-family="FreeSans" font-size="10.00">hfa_searchctx_ppstats</text>
<text text-anchor="middle" x="178" y="-106" font-family="FreeSans" font-size="10.00">_print</text>
</a>
</g>
<!-- Node1&#45;&gt;Node49 -->
<g id="edge120" class="edge"><title>Node1&#45;&gt;Node49</title>
<path fill="none" stroke="midnightblue" d="M49.3496,-260.508C77.6319,-228.52 135.291,-163.305 162.774,-132.222"/>
<polygon fill="midnightblue" stroke="midnightblue" points="46.5155,-258.429 42.5139,-268.24 51.7598,-263.066 46.5155,-258.429"/>
</g>
<!-- Node3 -->
<g id="node5" class="node"><title>Node3</title>
<a xlink:href="flow_8c.html#a28378e8a6f53ff0e87f2e688d1c21834" target="_top" xlink:title="Low level API to create a flow Allocate Flow, Intialize searchctx, set graph and setflags,.">
<polygon fill="white" stroke="black" points="293.5,-446.5 293.5,-467.5 400.5,-467.5 400.5,-446.5 293.5,-446.5"/>
<text text-anchor="middle" x="347" y="-454.5" font-family="FreeSans" font-size="10.00">__hfaf_create_flow</text>
</a>
</g>
<!-- Node2&#45;&gt;Node3 -->
<g id="edge4" class="edge"><title>Node2&#45;&gt;Node3</title>
<path fill="none" stroke="midnightblue" d="M189.041,-318.637C206.685,-348.329 243.978,-404.612 290,-437 295.317,-440.742 301.402,-443.845 307.572,-446.398"/>
<polygon fill="midnightblue" stroke="midnightblue" points="191.876,-316.55 183.827,-309.66 185.823,-320.065 191.876,-316.55"/>
</g>
<!-- Node6 -->
<g id="node11" class="node"><title>Node6</title>
<a xlink:href="flow_8c.html#a696ee2b7ad7078c47242360be84d89bf" target="_top" xlink:title="Counterpart of __hfaf_create_flow.">
<polygon fill="white" stroke="black" points="290.5,-366.5 290.5,-387.5 403.5,-387.5 403.5,-366.5 290.5,-366.5"/>
<text text-anchor="middle" x="347" y="-374.5" font-family="FreeSans" font-size="10.00">__hfaf_destroy_flow</text>
</a>
</g>
<!-- Node2&#45;&gt;Node6 -->
<g id="edge10" class="edge"><title>Node2&#45;&gt;Node6</title>
<path fill="none" stroke="midnightblue" d="M210.086,-313.809C243.37,-329.171 294.584,-352.808 324.029,-366.398"/>
<polygon fill="midnightblue" stroke="midnightblue" points="211.338,-310.532 200.792,-309.519 208.405,-316.888 211.338,-310.532"/>
</g>
<!-- Node11 -->
<g id="node22" class="node"><title>Node11</title>
<a xlink:href="hfa-lnx-async_8c.html#a972f8b60ef804914c009c2ef85bac50e" target="_top" xlink:title="Process search for given payload and graph.">
<polygon fill="white" stroke="black" points="1057,-565.5 1057,-586.5 1149,-586.5 1149,-565.5 1057,-565.5"/>
<text text-anchor="middle" x="1103" y="-573.5" font-family="FreeSans" font-size="10.00">process_search</text>
</a>
</g>
<!-- Node2&#45;&gt;Node11 -->
<g id="edge22" class="edge"><title>Node2&#45;&gt;Node11</title>
<path fill="none" stroke="midnightblue" d="M185.569,-319.24C204.393,-368.46 254.373,-492.203 290,-517 414.936,-603.958 904.003,-586.432 1056.99,-578.619"/>
<polygon fill="midnightblue" stroke="midnightblue" points="188.762,-317.789 181.946,-309.677 182.216,-320.269 188.762,-317.789"/>
</g>
<!-- Node15 -->
<g id="node31" class="node"><title>Node15</title>
<a xlink:href="hfa-lnx-ctx_8c.html#a630ea21ffa0ae1e09e74fc5add8c2715" target="_top" xlink:title="destroyctx">
<polygon fill="white" stroke="black" points="313.5,-406.5 313.5,-427.5 380.5,-427.5 380.5,-406.5 313.5,-406.5"/>
<text text-anchor="middle" x="347" y="-414.5" font-family="FreeSans" font-size="10.00">destroyctx</text>
</a>
</g>
<!-- Node2&#45;&gt;Node15 -->
<g id="edge32" class="edge"><title>Node2&#45;&gt;Node15</title>
<path fill="none" stroke="midnightblue" d="M194.492,-317.159C215.012,-338.807 252.006,-374.833 290,-397 297.247,-401.228 305.531,-404.766 313.496,-407.634"/>
<polygon fill="midnightblue" stroke="midnightblue" points="196.846,-314.552 187.466,-309.625 191.726,-319.326 196.846,-314.552"/>
</g>
<!-- Node20 -->
<g id="node42" class="node"><title>Node20</title>
<a xlink:href="hfa-lnx-linkgraph_8c.html#acd9e54f020b77f14d54c200b65423a15" target="_top" xlink:title="Cleanup will be done by this routine.">
<polygon fill="white" stroke="black" points="320,-128.5 320,-149.5 374,-149.5 374,-128.5 320,-128.5"/>
<text text-anchor="middle" x="347" y="-136.5" font-family="FreeSans" font-size="10.00">cleanup</text>
</a>
</g>
<!-- Node2&#45;&gt;Node20 -->
<g id="edge44" class="edge"><title>Node2&#45;&gt;Node20</title>
<path fill="none" stroke="midnightblue" d="M249.335,-282.979C250.968,-281.746 252.528,-280.422 254,-279 294.039,-240.305 251.543,-199.268 290,-159 297.823,-150.809 309.19,-145.97 319.718,-143.112"/>
<polygon fill="midnightblue" stroke="midnightblue" points="247.261,-280.148 240.632,-288.412 250.968,-286.086 247.261,-280.148"/>
</g>
<!-- Node23 -->
<g id="node48" class="node"><title>Node23</title>
<a xlink:href="hfa-lnx-nctx-lock_8c.html#a524accbd3a8024ee7cc3254698dbd8e3" target="_top" xlink:title="Parse through global linked list and cleanup each search node.">
<polygon fill="white" stroke="black" points="302.5,-168.5 302.5,-189.5 391.5,-189.5 391.5,-168.5 302.5,-168.5"/>
<text text-anchor="middle" x="347" y="-176.5" font-family="FreeSans" font-size="10.00">snode_cleanup</text>
</a>
</g>
<!-- Node2&#45;&gt;Node23 -->
<g id="edge50" class="edge"><title>Node2&#45;&gt;Node23</title>
<path fill="none" stroke="midnightblue" d="M247.785,-283.58C249.96,-282.182 252.041,-280.659 254,-279 283.755,-253.804 261.278,-225.368 290,-199 294.172,-195.17 299.12,-192.066 304.331,-189.552"/>
<polygon fill="midnightblue" stroke="midnightblue" points="246.092,-280.516 238.989,-288.377 249.444,-286.661 246.092,-280.516"/>
</g>
<!-- Node28 -->
<g id="node59" class="node"><title>Node28</title>
<a xlink:href="hfa-lnx-wqe-lock_8c.html#aca3baf1f311592e3e33788fee866710a" target="_top" xlink:title="Cleanup memory allocated for context.">
<polygon fill="white" stroke="black" points="303.5,-288.5 303.5,-309.5 390.5,-309.5 390.5,-288.5 303.5,-288.5"/>
<text text-anchor="middle" x="347" y="-296.5" font-family="FreeSans" font-size="10.00">ctxdb_cleanup</text>
</a>
</g>
<!-- Node2&#45;&gt;Node28 -->
<g id="edge62" class="edge"><title>Node2&#45;&gt;Node28</title>
<path fill="none" stroke="midnightblue" d="M264.379,-299C277.84,-299 291.237,-299 303.204,-299"/>
<polygon fill="midnightblue" stroke="midnightblue" points="264.095,-295.5 254.095,-299 264.095,-302.5 264.095,-295.5"/>
</g>
<!-- Node29 -->
<g id="node61" class="node"><title>Node29</title>
<a xlink:href="hfa-lnx-wqe_8c.html#a2b521122b98391a14bf2df50b7155bb1" target="_top" xlink:title="Cleanup memory allocated for context.">
<polygon fill="white" stroke="black" points="309.5,-248.5 309.5,-269.5 384.5,-269.5 384.5,-248.5 309.5,-248.5"/>
<text text-anchor="middle" x="347" y="-256.5" font-family="FreeSans" font-size="10.00">cleanup_ctx</text>
</a>
</g>
<!-- Node2&#45;&gt;Node29 -->
<g id="edge64" class="edge"><title>Node2&#45;&gt;Node29</title>
<path fill="none" stroke="midnightblue" d="M232.196,-286.173C257.402,-280.207 286.755,-273.259 309.47,-267.883"/>
<polygon fill="midnightblue" stroke="midnightblue" points="231.328,-282.781 222.403,-288.49 232.94,-289.593 231.328,-282.781"/>
</g>
<!-- Node31 -->
<g id="node65" class="node"><title>Node31</title>
<a xlink:href="hfa-lnx_8c.html#a924d2733ebc7a856f8c3fd293193ba44" target="_top" xlink:title="Initialize search context.">
<polygon fill="white" stroke="black" points="309.5,-486.5 309.5,-507.5 384.5,-507.5 384.5,-486.5 309.5,-486.5"/>
<text text-anchor="middle" x="347" y="-494.5" font-family="FreeSans" font-size="10.00">initialize_ctx</text>
</a>
</g>
<!-- Node2&#45;&gt;Node31 -->
<g id="edge68" class="edge"><title>Node2&#45;&gt;Node31</title>
<path fill="none" stroke="midnightblue" d="M185.421,-319.112C199.921,-355.724 235.445,-433.484 290,-477 295.657,-481.512 302.405,-485.045 309.246,-487.799"/>
<polygon fill="midnightblue" stroke="midnightblue" points="188.598,-317.623 181.743,-309.545 182.064,-320.135 188.598,-317.623"/>
</g>
<!-- Node43 -->
<g id="node91" class="node"><title>Node43</title>
<a xlink:href="hfa-se-async_8c.html#a1b239994494fe75dc3fd1287ea790f77" target="_top" xlink:title="Cleanup per core parameters.">
<polygon fill="white" stroke="black" points="887.5,-71.5 887.5,-92.5 968.5,-92.5 968.5,-71.5 887.5,-71.5"/>
<text text-anchor="middle" x="928" y="-79.5" font-family="FreeSans" font-size="10.00">core_cleanup</text>
</a>
</g>
<!-- Node2&#45;&gt;Node43 -->
<g id="edge96" class="edge"><title>Node2&#45;&gt;Node43</title>
<path fill="none" stroke="midnightblue" d="M250.084,-282.616C251.454,-281.487 252.763,-280.283 254,-279 304.604,-226.54 239.211,-171.28 290,-119 361.281,-45.6259 410.702,-62 513,-62 513,-62 513,-62 681,-62 753.923,-62 838.562,-70.7678 887.434,-76.6929"/>
<polygon fill="midnightblue" stroke="midnightblue" points="247.977,-279.816 241.643,-288.309 251.891,-285.619 247.977,-279.816"/>
</g>
<!-- Node44 -->
<g id="node94" class="node"><title>Node44</title>
<a xlink:href="hfa-se-ngraphs_8c.html#a3c04138a5bfe5d72780bb7e82a18e627" target="_top" xlink:title="main">
<polygon fill="white" stroke="black" points="327,-208.5 327,-229.5 367,-229.5 367,-208.5 327,-208.5"/>
<text text-anchor="middle" x="347" y="-216.5" font-family="FreeSans" font-size="10.00">main</text>
</a>
</g>
<!-- Node2&#45;&gt;Node44 -->
<g id="edge100" class="edge"><title>Node2&#45;&gt;Node44</title>
<path fill="none" stroke="midnightblue" d="M243.123,-284.662C246.903,-282.978 250.56,-281.098 254,-279 274.42,-266.547 270.096,-252.261 290,-239 301.171,-231.557 315.421,-226.557 326.879,-223.418"/>
<polygon fill="midnightblue" stroke="midnightblue" points="241.542,-281.524 233.533,-288.46 244.119,-288.032 241.542,-281.524"/>
</g>
<!-- Node4 -->
<g id="node7" class="node"><title>Node4</title>
<a xlink:href="flow_8h.html#abdb62c6f71f5ca9ecddc66c90166d37b" target="_top" xlink:title="Create Packet Flow in Flowdb.">
<polygon fill="white" stroke="black" points="457.5,-446.5 457.5,-467.5 568.5,-467.5 568.5,-446.5 457.5,-446.5"/>
<text text-anchor="middle" x="513" y="-454.5" font-family="FreeSans" font-size="10.00">hfaf_create_pktflow</text>
</a>
</g>
<!-- Node3&#45;&gt;Node4 -->
<g id="edge6" class="edge"><title>Node3&#45;&gt;Node4</title>
<path fill="none" stroke="midnightblue" d="M411.262,-457C426.48,-457 442.584,-457 457.381,-457"/>
<polygon fill="midnightblue" stroke="midnightblue" points="410.895,-453.5 400.895,-457 410.895,-460.5 410.895,-453.5"/>
</g>
<!-- Node5 -->
<g id="node9" class="node"><title>Node5</title>
<a xlink:href="hfa-se-flow-wqe_8c.html#a6d3e23d8f7a3aaf1b0d6e350b7631a0e" target="_top" xlink:title="Get flow pointer from Flow database, If flow ptr is NULL then create at runtime.">
<polygon fill="white" stroke="black" points="646.5,-446.5 646.5,-467.5 715.5,-467.5 715.5,-446.5 646.5,-446.5"/>
<text text-anchor="middle" x="681" y="-454.5" font-family="FreeSans" font-size="10.00">get_flowptr</text>
</a>
</g>
<!-- Node4&#45;&gt;Node5 -->
<g id="edge8" class="edge"><title>Node4&#45;&gt;Node5</title>
<path fill="none" stroke="midnightblue" d="M579.006,-457C602.009,-457 626.902,-457 646.337,-457"/>
<polygon fill="midnightblue" stroke="midnightblue" points="578.942,-453.5 568.942,-457 578.942,-460.5 578.942,-453.5"/>
</g>
<!-- Node6&#45;&gt;Node4 -->
<g id="edge18" class="edge"><title>Node6&#45;&gt;Node4</title>
<path fill="none" stroke="midnightblue" d="M389.409,-390.998C394.376,-392.897 399.332,-394.914 404,-397 437.526,-411.985 474.592,-433.527 495.712,-446.309"/>
<polygon fill="midnightblue" stroke="midnightblue" points="390.512,-387.675 379.919,-387.507 388.095,-394.245 390.512,-387.675"/>
</g>
<!-- Node7 -->
<g id="node13" class="node"><title>Node7</title>
<a xlink:href="flow_8c.html#a93974ea83df979435eb77f3c5d4ab848" target="_top" xlink:title="Cleanup Flowdb Node (Per Index)">
<polygon fill="white" stroke="black" points="440,-328.5 440,-349.5 586,-349.5 586,-328.5 440,-328.5"/>
<text text-anchor="middle" x="513" y="-336.5" font-family="FreeSans" font-size="10.00">hfaf_flowdb_node_cleanup</text>
</a>
</g>
<!-- Node6&#45;&gt;Node7 -->
<g id="edge12" class="edge"><title>Node6&#45;&gt;Node7</title>
<path fill="none" stroke="midnightblue" d="M403.208,-364.133C423.976,-359.379 447.251,-354.051 467.008,-349.528"/>
<polygon fill="midnightblue" stroke="midnightblue" points="402.207,-360.772 393.24,-366.415 403.769,-367.595 402.207,-360.772"/>
</g>
<!-- Node10 -->
<g id="node20" class="node"><title>Node10</title>
<a xlink:href="flow_8h.html#a8d99fe33dc3203530d360196cc7decb4" target="_top" xlink:title="Counterpart of hfaf_create_pktflow().">
<polygon fill="white" stroke="black" points="455,-288.5 455,-309.5 571,-309.5 571,-288.5 455,-288.5"/>
<text text-anchor="middle" x="513" y="-296.5" font-family="FreeSans" font-size="10.00">hfaf_destroy_pktflow</text>
</a>
</g>
<!-- Node6&#45;&gt;Node10 -->
<g id="edge20" class="edge"><title>Node6&#45;&gt;Node10</title>
<path fill="none" stroke="midnightblue" d="M385.369,-362.254C391.782,-359.208 398.222,-355.766 404,-352 422.184,-340.148 421.001,-329.495 440,-319 446.901,-315.188 454.578,-312.064 462.287,-309.515"/>
<polygon fill="midnightblue" stroke="midnightblue" points="383.764,-359.138 376.073,-366.424 386.629,-365.525 383.764,-359.138"/>
</g>
<!-- Node8 -->
<g id="node15" class="node"><title>Node8</title>
<a xlink:href="flow_8h.html#a2a51025bf645e4e1eec8cac2b4f8a8c0" target="_top" xlink:title="Cleanups Flow database which was created in hfaf_flowdb_init()">
<polygon fill="white" stroke="black" points="622.5,-288.5 622.5,-309.5 739.5,-309.5 739.5,-288.5 622.5,-288.5"/>
<text text-anchor="middle" x="681" y="-296.5" font-family="FreeSans" font-size="10.00">hfaf_flowdb_cleanup</text>
</a>
</g>
<!-- Node7&#45;&gt;Node8 -->
<g id="edge14" class="edge"><title>Node7&#45;&gt;Node8</title>
<path fill="none" stroke="midnightblue" d="M566.922,-326.161C589.509,-320.784 615.438,-314.61 636.863,-309.509"/>
<polygon fill="midnightblue" stroke="midnightblue" points="566.057,-322.769 557.14,-328.49 567.679,-329.579 566.057,-322.769"/>
</g>
<!-- Node9 -->
<g id="node17" class="node"><title>Node9</title>
<a xlink:href="hfa-se-flow-wqe_8c.html#a3c04138a5bfe5d72780bb7e82a18e627" target="_top" xlink:title="Implementation.">
<polygon fill="white" stroke="black" points="777,-288.5 777,-309.5 817,-309.5 817,-288.5 777,-288.5"/>
<text text-anchor="middle" x="797" y="-296.5" font-family="FreeSans" font-size="10.00">main</text>
</a>
</g>
<!-- Node8&#45;&gt;Node9 -->
<g id="edge16" class="edge"><title>Node8&#45;&gt;Node9</title>
<path fill="none" stroke="midnightblue" d="M749.966,-299C759.733,-299 769.07,-299 776.813,-299"/>
<polygon fill="midnightblue" stroke="midnightblue" points="749.68,-295.5 739.68,-299 749.68,-302.5 749.68,-295.5"/>
</g>
<!-- Node12 -->
<g id="node24" class="node"><title>Node12</title>
<a xlink:href="hfa-lnx-async_8c.html#a1e97b1d598034fdc92d57054a6c386e6" target="_top" xlink:title="tasklet_callback">
<polygon fill="white" stroke="black" points="1218,-585.5 1218,-606.5 1310,-606.5 1310,-585.5 1218,-585.5"/>
<text text-anchor="middle" x="1264" y="-593.5" font-family="FreeSans" font-size="10.00">tasklet_callback</text>
</a>
</g>
<!-- Node11&#45;&gt;Node12 -->
<g id="edge24" class="edge"><title>Node11&#45;&gt;Node12</title>
<path fill="none" stroke="midnightblue" d="M1159.24,-582.987C1178.4,-585.367 1199.58,-587.998 1217.86,-590.268"/>
<polygon fill="midnightblue" stroke="midnightblue" points="1159.49,-579.491 1149.14,-581.731 1158.63,-586.437 1159.49,-579.491"/>
</g>
<!-- Node14 -->
<g id="node28" class="node"><title>Node14</title>
<a xlink:href="hfa-lnx-async_8c.html#a7dea7d59754828b1173c4c7ec5d42f3e" target="_top" xlink:title="thread_callback">
<polygon fill="white" stroke="black" points="1218,-545.5 1218,-566.5 1310,-566.5 1310,-545.5 1218,-545.5"/>
<text text-anchor="middle" x="1264" y="-553.5" font-family="FreeSans" font-size="10.00">thread_callback</text>
</a>
</g>
<!-- Node11&#45;&gt;Node14 -->
<g id="edge28" class="edge"><title>Node11&#45;&gt;Node14</title>
<path fill="none" stroke="midnightblue" d="M1159.24,-569.013C1178.4,-566.633 1199.58,-564.002 1217.86,-561.732"/>
<polygon fill="midnightblue" stroke="midnightblue" points="1158.63,-565.563 1149.14,-570.269 1159.49,-572.509 1158.63,-565.563"/>
</g>
<!-- Node13 -->
<g id="node26" class="node"><title>Node13</title>
<a xlink:href="hfa-lnx-async_8c.html#a78ffddbcd7cdd164889cfb53ea367886" target="_top" xlink:title="entry">
<polygon fill="white" stroke="black" points="1360.5,-565.5 1360.5,-586.5 1401.5,-586.5 1401.5,-565.5 1360.5,-565.5"/>
<text text-anchor="middle" x="1381" y="-573.5" font-family="FreeSans" font-size="10.00">entry</text>
</a>
</g>
<!-- Node12&#45;&gt;Node13 -->
<g id="edge26" class="edge"><title>Node12&#45;&gt;Node13</title>
<path fill="none" stroke="midnightblue" d="M1320.13,-586.405C1334.52,-583.945 1349.1,-581.452 1360.39,-579.524"/>
<polygon fill="midnightblue" stroke="midnightblue" points="1319.51,-582.96 1310.24,-588.095 1320.69,-589.86 1319.51,-582.96"/>
</g>
<!-- Node14&#45;&gt;Node13 -->
<g id="edge30" class="edge"><title>Node14&#45;&gt;Node13</title>
<path fill="none" stroke="midnightblue" d="M1320.13,-565.595C1334.52,-568.055 1349.1,-570.548 1360.39,-572.476"/>
<polygon fill="midnightblue" stroke="midnightblue" points="1320.69,-562.14 1310.24,-563.905 1319.51,-569.04 1320.69,-562.14"/>
</g>
<!-- Node16 -->
<g id="node33" class="node"><title>Node16</title>
<a xlink:href="hfa-lnx-ctx_8c.html#a78ffddbcd7cdd164889cfb53ea367886" target="_top" xlink:title="entry">
<polygon fill="white" stroke="black" points="776.5,-407.5 776.5,-428.5 817.5,-428.5 817.5,-407.5 776.5,-407.5"/>
<text text-anchor="middle" x="797" y="-415.5" font-family="FreeSans" font-size="10.00">entry</text>
</a>
</g>
<!-- Node15&#45;&gt;Node16 -->
<g id="edge34" class="edge"><title>Node15&#45;&gt;Node16</title>
<path fill="none" stroke="midnightblue" d="M390.957,-417.098C485.934,-417.309 707.281,-417.801 776.161,-417.954"/>
<polygon fill="midnightblue" stroke="midnightblue" points="390.831,-413.597 380.823,-417.075 390.815,-420.597 390.831,-413.597"/>
</g>
<!-- Node17 -->
<g id="node35" class="node"><title>Node17</title>
<a xlink:href="hfa-lnx-ctx_8c.html#a3c1f07835ef5be8d3adfbaf09af5ca28" target="_top" xlink:title="core_exit">
<polygon fill="white" stroke="black" points="483,-368.5 483,-389.5 543,-389.5 543,-368.5 483,-368.5"/>
<text text-anchor="middle" x="513" y="-376.5" font-family="FreeSans" font-size="10.00">core_exit</text>
</a>
</g>
<!-- Node15&#45;&gt;Node17 -->
<g id="edge36" class="edge"><title>Node15&#45;&gt;Node17</title>
<path fill="none" stroke="midnightblue" d="M390.482,-407.046C419.527,-400.398 456.993,-391.821 482.806,-385.912"/>
<polygon fill="midnightblue" stroke="midnightblue" points="389.559,-403.667 380.593,-409.31 391.121,-410.49 389.559,-403.667"/>
</g>
<!-- Node18 -->
<g id="node37" class="node"><title>Node18</title>
<a xlink:href="hfa-lnx-ctx_8c.html#a4c3443f524b4c0d95639694f0b74e850" target="_top" xlink:title="Process command line options, Read graph and payload.">
<polygon fill="white" stroke="black" points="634,-368.5 634,-389.5 728,-389.5 728,-368.5 634,-368.5"/>
<text text-anchor="middle" x="681" y="-376.5" font-family="FreeSans" font-size="10.00">process_options</text>
</a>
</g>
<!-- Node17&#45;&gt;Node18 -->
<g id="edge38" class="edge"><title>Node17&#45;&gt;Node18</title>
<path fill="none" stroke="midnightblue" d="M553.301,-379C577.506,-379 608.422,-379 633.771,-379"/>
<polygon fill="midnightblue" stroke="midnightblue" points="553.035,-375.5 543.035,-379 553.035,-382.5 553.035,-375.5"/>
</g>
<!-- Node19 -->
<g id="node40" class="node"><title>Node19</title>
<a xlink:href="hfa-lnx-ctx_8c.html#aaf98ef7cdde3a0dfb2e49919de3298b1" target="_top" xlink:title="exit">
<polygon fill="white" stroke="black" points="664.5,-328.5 664.5,-349.5 697.5,-349.5 697.5,-328.5 664.5,-328.5"/>
<text text-anchor="middle" x="681" y="-336.5" font-family="FreeSans" font-size="10.00">exit</text>
</a>
</g>
<!-- Node17&#45;&gt;Node19 -->
<g id="edge42" class="edge"><title>Node17&#45;&gt;Node19</title>
<path fill="none" stroke="midnightblue" d="M553.102,-369.452C588.664,-360.985 638.825,-349.042 664.48,-342.933"/>
<polygon fill="midnightblue" stroke="midnightblue" points="551.952,-366.128 543.035,-371.849 553.574,-372.937 551.952,-366.128"/>
</g>
<!-- Node18&#45;&gt;Node16 -->
<g id="edge40" class="edge"><title>Node18&#45;&gt;Node16</title>
<path fill="none" stroke="midnightblue" d="M721.989,-392.781C740.328,-398.946 761.155,-405.949 776.202,-411.008"/>
<polygon fill="midnightblue" stroke="midnightblue" points="722.985,-389.423 712.391,-389.554 720.755,-396.058 722.985,-389.423"/>
</g>
<!-- Node21 -->
<g id="node44" class="node"><title>Node21</title>
<a xlink:href="hfa-lnx-linkgraph_8c.html#a78ffddbcd7cdd164889cfb53ea367886" target="_top" xlink:title="entry">
<polygon fill="white" stroke="black" points="1082.5,-270.5 1082.5,-291.5 1123.5,-291.5 1123.5,-270.5 1082.5,-270.5"/>
<text text-anchor="middle" x="1103" y="-278.5" font-family="FreeSans" font-size="10.00">entry</text>
</a>
</g>
<!-- Node20&#45;&gt;Node21 -->
<g id="edge46" class="edge"><title>Node20&#45;&gt;Node21</title>
<path fill="none" stroke="midnightblue" d="M384.313,-139.185C446.038,-139.474 573.288,-140 681,-140 681,-140 681,-140 797,-140 921.591,-140 1050.69,-237.611 1090.55,-270.402"/>
<polygon fill="midnightblue" stroke="midnightblue" points="384.292,-135.685 374.275,-139.137 384.259,-142.684 384.292,-135.685"/>
</g>
<!-- Node22 -->
<g id="node46" class="node"><title>Node22</title>
<a xlink:href="hfa-lnx-linkgraph_8c.html#aaf98ef7cdde3a0dfb2e49919de3298b1" target="_top" xlink:title="exit">
<polygon fill="white" stroke="black" points="496.5,-90.5 496.5,-111.5 529.5,-111.5 529.5,-90.5 496.5,-90.5"/>
<text text-anchor="middle" x="513" y="-98.5" font-family="FreeSans" font-size="10.00">exit</text>
</a>
</g>
<!-- Node20&#45;&gt;Node22 -->
<g id="edge48" class="edge"><title>Node20&#45;&gt;Node22</title>
<path fill="none" stroke="midnightblue" d="M383.898,-130.554C418.898,-122.541 469.919,-110.862 496.107,-104.867"/>
<polygon fill="midnightblue" stroke="midnightblue" points="383.007,-127.167 374.04,-132.81 384.569,-133.99 383.007,-127.167"/>
</g>
<!-- Node24 -->
<g id="node50" class="node"><title>Node24</title>
<a xlink:href="hfa-lnx-nctx-lock_8c.html#acd9e54f020b77f14d54c200b65423a15" target="_top" xlink:title="Application cleanup will be done by this routine.">
<polygon fill="white" stroke="black" points="486,-168.5 486,-189.5 540,-189.5 540,-168.5 486,-168.5"/>
<text text-anchor="middle" x="513" y="-176.5" font-family="FreeSans" font-size="10.00">cleanup</text>
</a>
</g>
<!-- Node23&#45;&gt;Node24 -->
<g id="edge52" class="edge"><title>Node23&#45;&gt;Node24</title>
<path fill="none" stroke="midnightblue" d="M402.027,-179C430.126,-179 463.069,-179 485.722,-179"/>
<polygon fill="midnightblue" stroke="midnightblue" points="401.922,-175.5 391.922,-179 401.922,-182.5 401.922,-175.5"/>
</g>
<!-- Node27 -->
<g id="node56" class="node"><title>Node27</title>
<a xlink:href="hfa-lnx-nctx-lock_8c.html#a2c813b2ff20c5bf67f487908476604d6" target="_top" xlink:title="Initialize search context object for nctxts and a global list to track nctxts.">
<polygon fill="white" stroke="black" points="463.5,-248.5 463.5,-269.5 562.5,-269.5 562.5,-248.5 463.5,-248.5"/>
<text text-anchor="middle" x="513" y="-256.5" font-family="FreeSans" font-size="10.00">initialize_ctx_glist</text>
</a>
</g>
<!-- Node23&#45;&gt;Node27 -->
<g id="edge58" class="edge"><title>Node23&#45;&gt;Node27</title>
<path fill="none" stroke="midnightblue" d="M394.846,-193.72C398.035,-195.325 401.12,-197.081 404,-199 423.904,-212.261 419.643,-226.444 440,-239 447.158,-243.415 455.299,-246.873 463.485,-249.576"/>
<polygon fill="midnightblue" stroke="midnightblue" points="396.224,-190.502 385.668,-189.595 393.354,-196.887 396.224,-190.502"/>
</g>
<!-- Node25 -->
<g id="node52" class="node"><title>Node25</title>
<a xlink:href="hfa-lnx-nctx-lock_8c.html#a78ffddbcd7cdd164889cfb53ea367886" target="_top" xlink:title="entry">
<polygon fill="white" stroke="black" points="660.5,-228.5 660.5,-249.5 701.5,-249.5 701.5,-228.5 660.5,-228.5"/>
<text text-anchor="middle" x="681" y="-236.5" font-family="FreeSans" font-size="10.00">entry</text>
</a>
</g>
<!-- Node24&#45;&gt;Node25 -->
<g id="edge54" class="edge"><title>Node24&#45;&gt;Node25</title>
<path fill="none" stroke="midnightblue" d="M550.121,-188.16C561.71,-191.289 574.474,-195.014 586,-199 612.045,-208.008 641.133,-220.653 660.178,-229.3"/>
<polygon fill="midnightblue" stroke="midnightblue" points="550.861,-184.736 540.3,-185.572 549.078,-191.505 550.861,-184.736"/>
</g>
<!-- Node26 -->
<g id="node54" class="node"><title>Node26</title>
<a xlink:href="hfa-lnx-nctx-lock_8c.html#aaf98ef7cdde3a0dfb2e49919de3298b1" target="_top" xlink:title="exit">
<polygon fill="white" stroke="black" points="664.5,-168.5 664.5,-189.5 697.5,-189.5 697.5,-168.5 664.5,-168.5"/>
<text text-anchor="middle" x="681" y="-176.5" font-family="FreeSans" font-size="10.00">exit</text>
</a>
</g>
<!-- Node24&#45;&gt;Node26 -->
<g id="edge56" class="edge"><title>Node24&#45;&gt;Node26</title>
<path fill="none" stroke="midnightblue" d="M550.398,-179C586.026,-179 638.017,-179 664.365,-179"/>
<polygon fill="midnightblue" stroke="midnightblue" points="550.366,-175.5 540.366,-179 550.366,-182.5 550.366,-175.5"/>
</g>
<!-- Node27&#45;&gt;Node25 -->
<g id="edge60" class="edge"><title>Node27&#45;&gt;Node25</title>
<path fill="none" stroke="midnightblue" d="M573.08,-251.848C603.543,-248.221 638.584,-244.05 660.263,-241.469"/>
<polygon fill="midnightblue" stroke="midnightblue" points="572.467,-248.396 562.951,-253.053 573.294,-255.347 572.467,-248.396"/>
</g>
<!-- Node30 -->
<g id="node63" class="node"><title>Node30</title>
<a xlink:href="hfa-lnx-wqe_8c.html#a972f8b60ef804914c009c2ef85bac50e" target="_top" xlink:title="process_search">
<polygon fill="white" stroke="black" points="467,-208.5 467,-229.5 559,-229.5 559,-208.5 467,-208.5"/>
<text text-anchor="middle" x="513" y="-216.5" font-family="FreeSans" font-size="10.00">process_search</text>
</a>
</g>
<!-- Node29&#45;&gt;Node30 -->
<g id="edge66" class="edge"><title>Node29&#45;&gt;Node30</title>
<path fill="none" stroke="midnightblue" d="M394.449,-247.567C418.012,-241.889 446.289,-235.075 469.316,-229.526"/>
<polygon fill="midnightblue" stroke="midnightblue" points="393.57,-244.178 384.668,-249.923 395.21,-250.983 393.57,-244.178"/>
</g>
<!-- Node32 -->
<g id="node67" class="node"><title>Node32</title>
<a xlink:href="hfa-lnx_8c.html#a78ffddbcd7cdd164889cfb53ea367886" target="_top" xlink:title="entry">
<polygon fill="white" stroke="black" points="492.5,-486.5 492.5,-507.5 533.5,-507.5 533.5,-486.5 492.5,-486.5"/>
<text text-anchor="middle" x="513" y="-494.5" font-family="FreeSans" font-size="10.00">entry</text>
</a>
</g>
<!-- Node31&#45;&gt;Node32 -->
<g id="edge70" class="edge"><title>Node31&#45;&gt;Node32</title>
<path fill="none" stroke="midnightblue" d="M394.79,-497C427.005,-497 467.907,-497 492.181,-497"/>
<polygon fill="midnightblue" stroke="midnightblue" points="394.668,-493.5 384.668,-497 394.668,-500.5 394.668,-493.5"/>
</g>
<!-- Node33 -->
<g id="node69" class="node"><title>Node33</title>
<a xlink:href="cvm-hfa-pp_8c.html#adcc1149c628372e2e566c246870929cb" target="_top" xlink:title="infoentry">
<polygon fill="white" stroke="black" points="651.5,-526.5 651.5,-547.5 710.5,-547.5 710.5,-526.5 651.5,-526.5"/>
<text text-anchor="middle" x="681" y="-534.5" font-family="FreeSans" font-size="10.00">infoentry</text>
</a>
</g>
<!-- Node32&#45;&gt;Node33 -->
<g id="edge72" class="edge"><title>Node32&#45;&gt;Node33</title>
<path fill="none" stroke="midnightblue" d="M543.723,-504.315C574.397,-511.618 621.21,-522.764 651.46,-529.967"/>
<polygon fill="midnightblue" stroke="midnightblue" points="544.139,-500.816 533.6,-501.905 542.517,-507.626 544.139,-500.816"/>
</g>
<!-- Node34 -->
<g id="node71" class="node"><title>Node34</title>
<a xlink:href="ppdfa_8h.html#a81b3389c2c25a4ba308f71501f980e38" target="_top" xlink:title="pp">
<polygon fill="white" stroke="black" points="782.5,-487.5 782.5,-508.5 811.5,-508.5 811.5,-487.5 782.5,-487.5"/>
<text text-anchor="middle" x="797" y="-495.5" font-family="FreeSans" font-size="10.00">pp</text>
</a>
</g>
<!-- Node33&#45;&gt;Node34 -->
<g id="edge74" class="edge"><title>Node33&#45;&gt;Node34</title>
<path fill="none" stroke="midnightblue" d="M720.088,-523.858C741.496,-516.661 766.764,-508.166 782.335,-502.93"/>
<polygon fill="midnightblue" stroke="midnightblue" points="718.935,-520.553 710.572,-527.058 721.166,-527.188 718.935,-520.553"/>
</g>
<!-- Node35 -->
<g id="node73" class="node"><title>Node35</title>
<a xlink:href="cvm-hfa-search_8c.html#a6dbb15dc58155b2c94b19784ad42ef89" target="_top" xlink:title="This routine post&#45;processes the search results from the HFA engine and reports the pattern matches fo...">
<polygon fill="white" stroke="black" points="854.5,-433.5 854.5,-454.5 1001.5,-454.5 1001.5,-433.5 854.5,-433.5"/>
<text text-anchor="middle" x="928" y="-441.5" font-family="FreeSans" font-size="10.00">hfa_searchctx_getmatches</text>
</a>
</g>
<!-- Node34&#45;&gt;Node35 -->
<g id="edge76" class="edge"><title>Node34&#45;&gt;Node35</title>
<path fill="none" stroke="midnightblue" d="M820.884,-488.155C843.868,-478.68 878.524,-464.395 902.148,-454.657"/>
<polygon fill="midnightblue" stroke="midnightblue" points="819.431,-484.968 811.52,-492.015 822.099,-491.439 819.431,-484.968"/>
</g>
<!-- Node35&#45;&gt;Node11 -->
<g id="edge82" class="edge"><title>Node35&#45;&gt;Node11</title>
<path fill="none" stroke="midnightblue" d="M950.083,-460.657C986.591,-488.194 1058.51,-542.443 1088.91,-565.371"/>
<polygon fill="midnightblue" stroke="midnightblue" points="952.116,-457.807 942.025,-454.579 947.901,-463.395 952.116,-457.807"/>
</g>
<!-- Node35&#45;&gt;Node21 -->
<g id="edge88" class="edge"><title>Node35&#45;&gt;Node21</title>
<path fill="none" stroke="midnightblue" d="M946.994,-426.309C983.482,-392.323 1062.36,-318.853 1091.7,-291.522"/>
<polygon fill="midnightblue" stroke="midnightblue" points="944.414,-423.928 939.482,-433.305 949.185,-429.05 944.414,-423.928"/>
</g>
<!-- Node36 -->
<g id="node75" class="node"><title>Node36</title>
<a xlink:href="flow_8c.html#a2976ab60901b133a56214323fb901663" target="_top" xlink:title="Low level API to poll a flow.">
<polygon fill="white" stroke="black" points="1038.5,-413.5 1038.5,-434.5 1167.5,-434.5 1167.5,-413.5 1038.5,-413.5"/>
<text text-anchor="middle" x="1103" y="-421.5" font-family="FreeSans" font-size="10.00">__hfaf_process_pktflow</text>
</a>
</g>
<!-- Node35&#45;&gt;Node36 -->
<g id="edge78" class="edge"><title>Node35&#45;&gt;Node36</title>
<path fill="none" stroke="midnightblue" d="M1011.73,-434.431C1020.65,-433.412 1029.61,-432.387 1038.26,-431.399"/>
<polygon fill="midnightblue" stroke="midnightblue" points="1011.25,-430.963 1001.71,-435.576 1012.04,-437.918 1011.25,-430.963"/>
</g>
<!-- Node38 -->
<g id="node80" class="node"><title>Node38</title>
<a xlink:href="hfa-lnx-ctx_8c.html#a71e1d3d18cc48b90a1ecde583ffb3f7a" target="_top" xlink:title="poll_searchctx">
<polygon fill="white" stroke="black" points="1060,-373.5 1060,-394.5 1146,-394.5 1146,-373.5 1060,-373.5"/>
<text text-anchor="middle" x="1103" y="-381.5" font-family="FreeSans" font-size="10.00">poll_searchctx</text>
</a>
</g>
<!-- Node35&#45;&gt;Node38 -->
<g id="edge84" class="edge"><title>Node35&#45;&gt;Node38</title>
<path fill="none" stroke="midnightblue" d="M965.49,-429.838C986.682,-421.966 1013.72,-412.145 1038,-404 1047.51,-400.808 1057.88,-397.531 1067.48,-394.577"/>
<polygon fill="midnightblue" stroke="midnightblue" points="964.041,-426.643 955.895,-433.417 966.488,-433.201 964.041,-426.643"/>
</g>
<!-- Node40 -->
<g id="node85" class="node"><title>Node40</title>
<a xlink:href="hfa-lnx-nctx-lock_8c.html#adb0c831ef0f9af5441a6769c377d9c95" target="_top" xlink:title="Post process the results from HFA and record found matches.">
<polygon fill="white" stroke="red" points="1063,-493.5 1063,-514.5 1143,-514.5 1143,-493.5 1063,-493.5"/>
<text text-anchor="middle" x="1103" y="-501.5" font-family="FreeSans" font-size="10.00">post_process</text>
</a>
</g>
<!-- Node35&#45;&gt;Node40 -->
<g id="edge90" class="edge"><title>Node35&#45;&gt;Node40</title>
<path fill="none" stroke="midnightblue" d="M965.49,-458.162C986.682,-466.034 1013.72,-475.855 1038,-484 1047.51,-487.192 1057.88,-490.469 1067.48,-493.423"/>
<polygon fill="midnightblue" stroke="midnightblue" points="966.488,-454.799 955.895,-454.583 964.041,-461.357 966.488,-454.799"/>
</g>
<!-- Node41 -->
<g id="node87" class="node"><title>Node41</title>
<a xlink:href="hfa-se-async_8c.html#a3c04138a5bfe5d72780bb7e82a18e627" target="_top" xlink:title="main">
<polygon fill="white" stroke="black" points="1083,-103.5 1083,-124.5 1123,-124.5 1123,-103.5 1083,-103.5"/>
<text text-anchor="middle" x="1103" y="-111.5" font-family="FreeSans" font-size="10.00">main</text>
</a>
</g>
<!-- Node35&#45;&gt;Node41 -->
<g id="edge92" class="edge"><title>Node35&#45;&gt;Node41</title>
<path fill="none" stroke="midnightblue" d="M938.47,-424.257C971.411,-362.138 1072.23,-172.014 1097.31,-124.732"/>
<polygon fill="midnightblue" stroke="midnightblue" points="935.217,-422.92 933.624,-433.394 941.402,-426.199 935.217,-422.92"/>
</g>
<!-- Node42 -->
<g id="node89" class="node"><title>Node42</title>
<a xlink:href="hfa-se-wqe-lock_8c.html#a06b5fcfab0e1d5eb36b633ec080ad7f9" target="_top" xlink:title="Process search for given contexts.">
<polygon fill="white" stroke="red" points="1063,-453.5 1063,-474.5 1143,-474.5 1143,-453.5 1063,-453.5"/>
<text text-anchor="middle" x="1103" y="-461.5" font-family="FreeSans" font-size="10.00">process_nctx</text>
</a>
</g>
<!-- Node35&#45;&gt;Node42 -->
<g id="edge94" class="edge"><title>Node35&#45;&gt;Node42</title>
<path fill="none" stroke="midnightblue" d="M1012.07,-453.608C1029.75,-455.628 1047.61,-457.67 1062.77,-459.402"/>
<polygon fill="midnightblue" stroke="midnightblue" points="1012.04,-450.082 1001.71,-452.424 1011.25,-457.037 1012.04,-450.082"/>
</g>
<!-- Node37 -->
<g id="node77" class="node"><title>Node37</title>
<a xlink:href="flow_8h.html#ab1b3378af88a440a6c3c0851be942e65" target="_top" xlink:title="All submitted search parameters in Paramlist of flow are polled If low level API __hfaf_process_pktfl...">
<polygon fill="white" stroke="red" points="1204.5,-413.5 1204.5,-434.5 1323.5,-434.5 1323.5,-413.5 1204.5,-413.5"/>
<text text-anchor="middle" x="1264" y="-421.5" font-family="FreeSans" font-size="10.00">hfaf_process_pktflow</text>
</a>
</g>
<!-- Node36&#45;&gt;Node37 -->
<g id="edge80" class="edge"><title>Node36&#45;&gt;Node37</title>
<path fill="none" stroke="midnightblue" d="M1177.62,-424C1186.59,-424 1195.66,-424 1204.38,-424"/>
<polygon fill="midnightblue" stroke="midnightblue" points="1177.56,-420.5 1167.56,-424 1177.56,-427.5 1177.56,-420.5"/>
</g>
<!-- Node39 -->
<g id="node82" class="node"><title>Node39</title>
<a xlink:href="hfa-lnx-ctx_8c.html#a934a9fc08c4aab25d6f0d861e4a4f762" target="_top" xlink:title="poll">
<polygon fill="white" stroke="red" points="1247.5,-373.5 1247.5,-394.5 1280.5,-394.5 1280.5,-373.5 1247.5,-373.5"/>
<text text-anchor="middle" x="1264" y="-381.5" font-family="FreeSans" font-size="10.00">poll</text>
</a>
</g>
<!-- Node38&#45;&gt;Node39 -->
<g id="edge86" class="edge"><title>Node38&#45;&gt;Node39</title>
<path fill="none" stroke="midnightblue" d="M1156.2,-384C1187.95,-384 1226.13,-384 1247.48,-384"/>
<polygon fill="midnightblue" stroke="midnightblue" points="1156.15,-380.5 1146.15,-384 1156.15,-387.5 1156.15,-380.5"/>
</g>
<!-- Node43&#45;&gt;Node41 -->
<g id="edge98" class="edge"><title>Node43&#45;&gt;Node41</title>
<path fill="none" stroke="midnightblue" d="M978.554,-91.2442C1013.24,-97.5859 1057.4,-105.662 1082.71,-110.29"/>
<polygon fill="midnightblue" stroke="midnightblue" points="979.055,-87.7778 968.588,-89.4219 977.796,-94.6636 979.055,-87.7778"/>
</g>
<!-- Node45&#45;&gt;Node3 -->
<g id="edge104" class="edge"><title>Node45&#45;&gt;Node3</title>
<path fill="none" stroke="midnightblue" d="M232.243,-484.161C254.964,-478.784 281.048,-472.61 302.601,-467.509"/>
<polygon fill="midnightblue" stroke="midnightblue" points="231.328,-480.781 222.403,-486.49 232.94,-487.593 231.328,-480.781"/>
</g>
<!-- Node45&#45;&gt;Node11 -->
<g id="edge106" class="edge"><title>Node45&#45;&gt;Node11</title>
<path fill="none" stroke="midnightblue" d="M187.51,-516.521C203.727,-547.399 239.904,-606.7 290,-633 378.071,-679.236 413.53,-652 513,-652 513,-652 513,-652 797,-652 904.288,-652 1026.66,-607.45 1078.13,-586.567"/>
<polygon fill="midnightblue" stroke="midnightblue" points="190.61,-514.895 182.954,-507.572 184.372,-518.071 190.61,-514.895"/>
</g>
<!-- Node45&#45;&gt;Node27 -->
<g id="edge114" class="edge"><title>Node45&#45;&gt;Node27</title>
<path fill="none" stroke="midnightblue" d="M188.68,-477.375C206.049,-447.232 243.231,-389.611 290,-357 333.809,-326.453 359.323,-348.263 404,-319 424.008,-305.895 419.643,-291.556 440,-279 447.158,-274.585 455.299,-271.127 463.485,-268.424"/>
<polygon fill="midnightblue" stroke="midnightblue" points="185.607,-475.699 183.749,-486.13 191.706,-479.134 185.607,-475.699"/>
</g>
<!-- Node45&#45;&gt;Node31 -->
<g id="edge116" class="edge"><title>Node45&#45;&gt;Node31</title>
<path fill="none" stroke="midnightblue" d="M252.538,-497C272.144,-497 292.477,-497 309.233,-497"/>
<polygon fill="midnightblue" stroke="midnightblue" points="252.374,-493.5 242.374,-497 252.374,-500.5 252.374,-493.5"/>
</g>
<!-- Node46 -->
<g id="node100" class="node"><title>Node46</title>
<a xlink:href="hfa-lnx-ctx_8c.html#a6926aada806433e15eae2c50298b4aa9" target="_top" xlink:title="createctx">
<polygon fill="white" stroke="black" points="650,-486.5 650,-507.5 712,-507.5 712,-486.5 650,-486.5"/>
<text text-anchor="middle" x="681" y="-494.5" font-family="FreeSans" font-size="10.00">createctx</text>
</a>
</g>
<!-- Node45&#45;&gt;Node46 -->
<g id="edge108" class="edge"><title>Node45&#45;&gt;Node46</title>
<path fill="none" stroke="midnightblue" d="M236.189,-509.402C253.428,-512.53 272.402,-515.441 290,-517 421.042,-528.608 455.152,-530.624 586,-517 607.458,-514.766 631.208,-509.766 649.593,-505.324"/>
<polygon fill="midnightblue" stroke="midnightblue" points="236.736,-505.944 226.263,-507.544 235.448,-512.824 236.736,-505.944"/>
</g>
<!-- Node47 -->
<g id="node103" class="node"><title>Node47</title>
<a xlink:href="hfa-lnx-linkgraph_8c.html#a6604748091c732cb29568c12d0f77b4e" target="_top" xlink:title="Initialize search ctx for each subgraph.">
<polygon fill="white" stroke="black" points="309,-602.5 309,-623.5 385,-623.5 385,-602.5 309,-602.5"/>
<text text-anchor="middle" x="347" y="-610.5" font-family="FreeSans" font-size="10.00">Initialize_Ctx</text>
</a>
</g>
<!-- Node45&#45;&gt;Node47 -->
<g id="edge112" class="edge"><title>Node45&#45;&gt;Node47</title>
<path fill="none" stroke="midnightblue" d="M196.361,-514.552C217.635,-534.237 254.347,-566.247 290,-588 299.04,-593.515 309.512,-598.472 318.994,-602.489"/>
<polygon fill="midnightblue" stroke="midnightblue" points="198.69,-511.938 188.998,-507.658 193.906,-517.048 198.69,-511.938"/>
</g>
<!-- Node46&#45;&gt;Node16 -->
<g id="edge110" class="edge"><title>Node46&#45;&gt;Node16</title>
<path fill="none" stroke="midnightblue" d="M722.04,-485.935C728.288,-483.453 734.484,-480.495 740,-477 760.693,-463.889 779.311,-441.763 789.3,-428.654"/>
<polygon fill="midnightblue" stroke="midnightblue" points="720.494,-482.771 712.268,-489.449 722.863,-489.358 720.494,-482.771"/>
</g>
<!-- Node50 -->
<g id="node111" class="node"><title>Node50</title>
<a xlink:href="cvm-hfa-stats_8h.html#a957f886c7087bce4eb7045c31e34add2" target="_top" xlink:title="This routine prints search context statistics.">
<polygon fill="white" stroke="black" points="290.5,-0 290.5,-34 403.5,-34 403.5,-0 290.5,-0"/>
<text text-anchor="start" x="298.5" y="-21" font-family="FreeSans" font-size="10.00">hfa_searchctx_stats</text>
<text text-anchor="middle" x="347" y="-8" font-family="FreeSans" font-size="10.00">_print</text>
</a>
</g>
<!-- Node49&#45;&gt;Node50 -->
<g id="edge122" class="edge"><title>Node49&#45;&gt;Node50</title>
<path fill="none" stroke="midnightblue" d="M214.5,-92.6506C236.286,-79.4398 264.575,-62.5104 290,-48 298.022,-43.4214 306.754,-38.5954 314.917,-34.1502"/>
<polygon fill="midnightblue" stroke="midnightblue" points="212.618,-89.6988 205.89,-97.8833 216.253,-95.6808 212.618,-89.6988"/>
</g>
</g>
</svg>
        <g id="navigator" transform="translate(0 0)" fill="#404254">
                <rect fill="#f2f5e9" fill-opacity="0.5" stroke="#606060" stroke-width=".5" x="0" y="0" width="60" height="60"/>
                <use id="zoomplus" xlink:href="#zoomPlus" x="17" y="9" onmousedown="handleZoom(evt,'in')"/>
                <use id="zoomminus" xlink:href="#zoomMin" x="42" y="9" onmousedown="handleZoom(evt,'out')"/>
                <use id="reset" xlink:href="#resetDef" x="30" y="36" onmousedown="handleReset()"/>
                <g id="arrowUp" xlink:href="#dirArrow" transform="translate(30 24)" onmousedown="handlePan(0,-1)">
                  <use xlink:href="#rim" fill="#404040">
                        <set attributeName="fill" to="#808080" begin="arrowUp.mouseover" end="arrowUp.mouseout"/>
                  </use>
                  <path fill="none" stroke="white" stroke-width="1.5" d="M0,-3.0v7 M-2.5,-0.5L0,-3.0L2.5,-0.5"/>
                </g>
                <g id="arrowRight" xlink:href="#dirArrow" transform="rotate(90) translate(36 -43)" onmousedown="handlePan(1,0)">
                  <use xlink:href="#rim" fill="#404040">
                        <set attributeName="fill" to="#808080" begin="arrowRight.mouseover" end="arrowRight.mouseout"/>
                  </use>
                  <path fill="none" stroke="white" stroke-width="1.5" d="M0,-3.0v7 M-2.5,-0.5L0,-3.0L2.5,-0.5"/>
                </g>
                <g id="arrowDown" xlink:href="#dirArrow" transform="rotate(180) translate(-30 -48)" onmousedown="handlePan(0,1)">
                  <use xlink:href="#rim" fill="#404040">
                        <set attributeName="fill" to="#808080" begin="arrowDown.mouseover" end="arrowDown.mouseout"/>
                  </use>
                  <path fill="none" stroke="white" stroke-width="1.5" d="M0,-3.0v7 M-2.5,-0.5L0,-3.0L2.5,-0.5"/>
                </g>
                <g id="arrowLeft" xlink:href="#dirArrow" transform="rotate(270) translate(-36 17)" onmousedown="handlePan(-1,0)">
                  <use xlink:href="#rim" fill="#404040">
                        <set attributeName="fill" to="#808080" begin="arrowLeft.mouseover" end="arrowLeft.mouseout"/>
                  </use>
                  <path fill="none" stroke="white" stroke-width="1.5" d="M0,-3.0v7 M-2.5,-0.5L0,-3.0L2.5,-0.5"/>
                </g>
        </g>
        <svg viewBox="0 0 15 15" width="100%" height="30px" preserveAspectRatio="xMaxYMin meet">
         <g id="arrow_out" transform="scale(0.3 0.3)">
          <a xlink:href="ppdfa_8h_ad894c2dd60b38ff45a53f69637a0a29a_icgraph_org.svg" target="_base">
           <rect id="button" ry="5" rx="5" y="6" x="6" height="38" width="38"
                fill="#f2f5e9" fill-opacity="0.5" stroke="#606060" stroke-width="1.0"/>
           <path id="arrow"
             d="M 11.500037,31.436501 C 11.940474,20.09759 22.043105,11.32322 32.158766,21.979434 L 37.068811,17.246167 C 37.068811,17.246167 37.088388,32 37.088388,32 L 22.160133,31.978069 C 22.160133,31.978069 26.997745,27.140456 26.997745,27.140456 C 18.528582,18.264221 13.291696,25.230495 11.500037,31.436501 z"
             style="fill:#404040;"/>
          </a>
         </g>
        </svg>
</svg>
