<?xml version="1.0" encoding="UTF-8" standalone="no"?>
<!DOCTYPE svg PUBLIC "-//W3C//DTD SVG 1.1//EN"
 "http://www.w3.org/Graphics/SVG/1.1/DTD/svg11.dtd">
<!-- Generated by graphviz version 2.24.0 (20090616.2323)
 -->
<!-- Title: pp Pages: 1 -->
<!--zoomable 1442 -->
<svg id="main" version="1.1" xmlns="http://www.w3.org/2000/svg" xmlns:xlink="http://www.w3.org/1999/xlink" xml:space="preserve" onload="init(evt)">
        <defs>
                <circle id="rim" cx="0" cy="0" r="7"/>
                <circle id="rim2" cx="0" cy="0" r="3.5"/>
                <g id="zoomPlus">
                        <use xlink:href="#rim" fill="#404040">
                                <set attributeName="fill" to="#808080" begin="zoomplus.mouseover" end="zoomplus.mouseout"/>
                        </use>
                        <path d="M-4,0h8M0,-4v8" fill="none" stroke="white" stroke-width="1.5" pointer-events="none"/>
                </g>
                <g id="zoomMin">
                        <use xlink:href="#rim" fill="#404040">
                                <set attributeName="fill" to="#808080" begin="zoomminus.mouseover" end="zoomminus.mouseout"/>
                        </use>
                        <path d="M-4,0h8" fill="none" stroke="white" stroke-width="1.5" pointer-events="none"/>
                </g>
                <g id="dirArrow">
                        <path fill="none" stroke="white" stroke-width="1.5" d="M0,-3.0v7 M-2.5,-0.5L0,-3.0L2.5,-0.5"/>
                </g>
               <g id="resetDef">
                       <use xlink:href="#rim2" fill="#404040">
                               <set attributeName="fill" to="#808080" begin="reset.mouseover" end="reset.mouseout"/>
                       </use>
               </g>
        </defs>

<script type="text/javascript">
var viewWidth = 610;
var viewHeight = 1442;
var sectionId = 'dynsection-0';
</script>
<script xlink:href="svgpan.js"/>
<svg id="graph" class="graph">
<g id="viewport">
<title>pp</title>
<polygon fill="white" stroke="white" points="-4,5 -4,-1438 607,-1438 607,5 -4,5"/>
<!-- Node1 -->
<g id="node1" class="node"><title>Node1</title>
<polygon fill="#bfbfbf" stroke="black" points="0.5,-276.5 0.5,-297.5 29.5,-297.5 29.5,-276.5 0.5,-276.5"/>
<text text-anchor="middle" x="15" y="-284.5" font-family="FreeSans" font-size="10.00">pp</text>
</g>
<!-- Node2 -->
<g id="node3" class="node"><title>Node2</title>
<a xlink:href="pp_8h.html#af7a68f9e08d3b54012ad008a4f47e1cd" target="_top" xlink:title="pphfa">
<polygon fill="white" stroke="black" points="74,-356.5 74,-377.5 118,-377.5 118,-356.5 74,-356.5"/>
<text text-anchor="middle" x="96" y="-364.5" font-family="FreeSans" font-size="10.00">pphfa</text>
</a>
</g>
<!-- Node1&#45;&gt;Node2 -->
<g id="edge2" class="edge"><title>Node1&#45;&gt;Node2</title>
<path fill="none" stroke="midnightblue" d="M22.5213,-297.534C31.8445,-310.161 48.6372,-331.551 66,-347 67.286,-348.144 68.6419,-349.274 70.0378,-350.378"/>
<polygon fill="midnightblue" stroke="midnightblue" points="68.1166,-353.308 78.2628,-356.359 72.2336,-347.647 68.1166,-353.308"/>
</g>
<!-- Node3 -->
<g id="node5" class="node"><title>Node3</title>
<a xlink:href="cvm-hfa-res_8c.html#ad0de0b790a5786053d59797884dbdd23" target="_top" xlink:title="Rinit">
<polygon fill="white" stroke="black" points="78,-316.5 78,-337.5 114,-337.5 114,-316.5 78,-316.5"/>
<text text-anchor="middle" x="96" y="-324.5" font-family="FreeSans" font-size="10.00">Rinit</text>
</a>
</g>
<!-- Node1&#45;&gt;Node3 -->
<g id="edge4" class="edge"><title>Node1&#45;&gt;Node3</title>
<path fill="none" stroke="midnightblue" d="M29.8566,-294.337C40.7351,-299.709 55.8068,-307.152 68.8159,-313.576"/>
<polygon fill="midnightblue" stroke="midnightblue" points="67.3186,-316.74 77.8346,-318.029 70.4181,-310.463 67.3186,-316.74"/>
</g>
<!-- Node4 -->
<g id="node7" class="node"><title>Node4</title>
<a xlink:href="cvm-hfa-pp_8c.html#adcc1149c628372e2e566c246870929cb" target="_top" xlink:title="infoentry">
<polygon fill="white" stroke="black" points="66.5,-276.5 66.5,-297.5 125.5,-297.5 125.5,-276.5 66.5,-276.5"/>
<text text-anchor="middle" x="96" y="-284.5" font-family="FreeSans" font-size="10.00">infoentry</text>
</a>
</g>
<!-- Node1&#45;&gt;Node4 -->
<g id="edge6" class="edge"><title>Node1&#45;&gt;Node4</title>
<path fill="none" stroke="midnightblue" d="M29.8566,-287C37.3697,-287 46.8828,-287 56.3351,-287"/>
<polygon fill="midnightblue" stroke="midnightblue" points="56.4707,-290.5 66.4707,-287 56.4706,-283.5 56.4707,-290.5"/>
</g>
<!-- Node48 -->
<g id="node96" class="node"><title>Node48</title>
<a xlink:href="cvm-hfa-res_8c.html#a6c56aa24fa6551b23e4283ae2d5bcad8" target="_top" xlink:title="Rreport1">
<polygon fill="white" stroke="black" points="67.5,-236.5 67.5,-257.5 124.5,-257.5 124.5,-236.5 67.5,-236.5"/>
<text text-anchor="middle" x="96" y="-244.5" font-family="FreeSans" font-size="10.00">Rreport1</text>
</a>
</g>
<!-- Node1&#45;&gt;Node48 -->
<g id="edge96" class="edge"><title>Node1&#45;&gt;Node48</title>
<path fill="none" stroke="midnightblue" d="M29.8566,-279.663C39.8288,-274.739 53.3246,-268.074 65.5252,-262.049"/>
<polygon fill="midnightblue" stroke="midnightblue" points="67.1062,-265.172 74.5227,-257.606 64.0067,-258.896 67.1062,-265.172"/>
</g>
<!-- Node50 -->
<g id="node100" class="node"><title>Node50</title>
<a xlink:href="cvm-hfa-res_8c.html#a38aa04fce135199ec3bb8726da163846" target="_top" xlink:title="Rfinish">
<polygon fill="white" stroke="black" points="72,-196.5 72,-217.5 120,-217.5 120,-196.5 72,-196.5"/>
<text text-anchor="middle" x="96" y="-204.5" font-family="FreeSans" font-size="10.00">Rfinish</text>
</a>
</g>
<!-- Node1&#45;&gt;Node50 -->
<g id="edge100" class="edge"><title>Node1&#45;&gt;Node50</title>
<path fill="none" stroke="midnightblue" d="M22.5213,-276.466C31.8445,-263.839 48.6372,-242.449 66,-227 67.286,-225.856 68.6419,-224.726 70.0378,-223.622"/>
<polygon fill="midnightblue" stroke="midnightblue" points="72.2336,-226.353 78.2628,-217.641 68.1166,-220.692 72.2336,-226.353"/>
</g>
<!-- Node5 -->
<g id="node9" class="node"><title>Node5</title>
<a xlink:href="hfa-lnx_8c.html#a78ffddbcd7cdd164889cfb53ea367886" target="_top" xlink:title="entry">
<polygon fill="white" stroke="black" points="168.5,-316.5 168.5,-337.5 209.5,-337.5 209.5,-316.5 168.5,-316.5"/>
<text text-anchor="middle" x="189" y="-324.5" font-family="FreeSans" font-size="10.00">entry</text>
</a>
</g>
<!-- Node4&#45;&gt;Node5 -->
<g id="edge8" class="edge"><title>Node4&#45;&gt;Node5</title>
<path fill="none" stroke="midnightblue" d="M120.435,-297.51C132.155,-302.551 146.31,-308.639 158.708,-313.971"/>
<polygon fill="midnightblue" stroke="midnightblue" points="157.625,-317.315 168.194,-318.051 160.391,-310.885 157.625,-317.315"/>
</g>
<!-- Node47 -->
<g id="node94" class="node"><title>Node47</title>
<a xlink:href="cvm-hfa-pp_8c.html#a85b4c8af06430f26eab8afdeea3a7395" target="_top" xlink:title="hashidx">
<polygon fill="white" stroke="black" points="162,-276.5 162,-297.5 216,-297.5 216,-276.5 162,-276.5"/>
<text text-anchor="middle" x="189" y="-284.5" font-family="FreeSans" font-size="10.00">hashidx</text>
</a>
</g>
<!-- Node4&#45;&gt;Node47 -->
<g id="edge94" class="edge"><title>Node4&#45;&gt;Node47</title>
<path fill="none" stroke="midnightblue" d="M125.681,-287C133.92,-287 142.973,-287 151.592,-287"/>
<polygon fill="midnightblue" stroke="midnightblue" points="151.807,-290.5 161.807,-287 151.807,-283.5 151.807,-290.5"/>
</g>
<!-- Node6 -->
<g id="node11" class="node"><title>Node6</title>
<a xlink:href="hfa-lnx_8c.html#a4c3443f524b4c0d95639694f0b74e850" target="_top" xlink:title="Process command line options, Read graph and payload.">
<polygon fill="white" stroke="black" points="279,-1349.5 279,-1370.5 373,-1370.5 373,-1349.5 279,-1349.5"/>
<text text-anchor="middle" x="326" y="-1357.5" font-family="FreeSans" font-size="10.00">process_options</text>
</a>
</g>
<!-- Node5&#45;&gt;Node6 -->
<g id="edge10" class="edge"><title>Node5&#45;&gt;Node6</title>
<path fill="none" stroke="midnightblue" d="M189.766,-337.72C194.159,-398.271 217.178,-703.549 252,-951 273.066,-1100.7 309.211,-1279.29 321.647,-1339.24"/>
<polygon fill="midnightblue" stroke="midnightblue" points="318.28,-1340.23 323.746,-1349.31 325.132,-1338.8 318.28,-1340.23"/>
</g>
<!-- Node10 -->
<g id="node19" class="node"><title>Node10</title>
<a xlink:href="cvm-hfa_8c.html#a873768042b716d60996ec5d858fc8fd9" target="_top" xlink:title="This function must be called by application to initialize HFA engine and setup resources for HFA hard...">
<polygon fill="white" stroke="black" points="289,-920.5 289,-941.5 363,-941.5 363,-920.5 289,-920.5"/>
<text text-anchor="middle" x="326" y="-928.5" font-family="FreeSans" font-size="10.00">hfa_dev_init</text>
</a>
</g>
<!-- Node5&#45;&gt;Node10 -->
<g id="edge18" class="edge"><title>Node5&#45;&gt;Node10</title>
<path fill="none" stroke="midnightblue" d="M191.436,-337.74C207.597,-408.99 299.368,-813.584 321.295,-910.255"/>
<polygon fill="midnightblue" stroke="midnightblue" points="317.936,-911.272 323.562,-920.25 324.763,-909.724 317.936,-911.272"/>
</g>
<!-- Node29 -->
<g id="node57" class="node"><title>Node29</title>
<a xlink:href="hfa-lnx_8c.html#a546f3769e735d4bef0bfab1cba56921c" target="_top" xlink:title="Load graph to HFA memory and cache.">
<polygon fill="white" stroke="red" points="291.5,-540.5 291.5,-561.5 360.5,-561.5 360.5,-540.5 291.5,-540.5"/>
<text text-anchor="middle" x="326" y="-548.5" font-family="FreeSans" font-size="10.00">graph_load</text>
</a>
</g>
<!-- Node5&#45;&gt;Node29 -->
<g id="edge56" class="edge"><title>Node5&#45;&gt;Node29</title>
<path fill="none" stroke="midnightblue" d="M190.878,-337.555C197.8,-375.326 222.994,-503.008 252,-531 259.992,-538.712 270.637,-543.522 281.356,-546.501"/>
<polygon fill="midnightblue" stroke="midnightblue" points="280.617,-549.923 291.147,-548.754 282.187,-543.101 280.617,-549.923"/>
</g>
<!-- Node35 -->
<g id="node69" class="node"><title>Node35</title>
<a xlink:href="hfa-lnx_8c.html#a924d2733ebc7a856f8c3fd293193ba44" target="_top" xlink:title="Initialize search context.">
<polygon fill="white" stroke="red" points="288.5,-500.5 288.5,-521.5 363.5,-521.5 363.5,-500.5 288.5,-500.5"/>
<text text-anchor="middle" x="326" y="-508.5" font-family="FreeSans" font-size="10.00">initialize_ctx</text>
</a>
</g>
<!-- Node5&#45;&gt;Node35 -->
<g id="edge68" class="edge"><title>Node5&#45;&gt;Node35</title>
<path fill="none" stroke="midnightblue" d="M189.846,-337.653C192.746,-366.798 204.894,-448.504 252,-491 259.485,-497.753 269.02,-502.26 278.736,-505.26"/>
<polygon fill="midnightblue" stroke="midnightblue" points="277.884,-508.655 288.443,-507.785 279.646,-501.88 277.884,-508.655"/>
</g>
<!-- Node36 -->
<g id="node71" class="node"><title>Node36</title>
<a xlink:href="app-utils_8c.html#a4b47f3c9c5a0b3eaee64e264171628a3" target="_top" xlink:title="This routine reads data of chunksize/a packet from given payload(Normal/PCAP) file and returns data b...">
<polygon fill="white" stroke="red" points="263,-460.5 263,-481.5 389,-481.5 389,-460.5 263,-460.5"/>
<text text-anchor="middle" x="326" y="-468.5" font-family="FreeSans" font-size="10.00">hfautils_parse_payload</text>
</a>
</g>
<!-- Node5&#45;&gt;Node36 -->
<g id="edge70" class="edge"><title>Node5&#45;&gt;Node36</title>
<path fill="none" stroke="midnightblue" d="M191.344,-337.833C197.15,-361.992 214.519,-420.545 252,-451 254.079,-452.689 256.288,-454.236 258.594,-455.653"/>
<polygon fill="midnightblue" stroke="midnightblue" points="257.414,-458.985 267.9,-460.498 260.647,-452.776 257.414,-458.985"/>
</g>
<!-- Node37 -->
<g id="node73" class="node"><title>Node37</title>
<a xlink:href="cvm-hfa-search_8h.html#ae9741e867075c9b8cc63a7d889d5bf20" target="_top" xlink:title="This routine is a variant of hfa_searchparam_set_inputiovec() when the previously searched input IO v...">
<polygon fill="white" stroke="black" points="265.5,-408 265.5,-442 386.5,-442 386.5,-408 265.5,-408"/>
<text text-anchor="start" x="273.5" y="-429" font-family="FreeSans" font-size="10.00">hfa_searchparam_set</text>
<text text-anchor="middle" x="326" y="-416" font-family="FreeSans" font-size="10.00">_inputiovec_0_n</text>
</a>
</g>
<!-- Node5&#45;&gt;Node37 -->
<g id="edge72" class="edge"><title>Node5&#45;&gt;Node37</title>
<path fill="none" stroke="midnightblue" d="M195.643,-337.58C205.918,-353.135 227.102,-382.151 252,-399 254.248,-400.522 256.596,-401.964 259.012,-403.33"/>
<polygon fill="midnightblue" stroke="midnightblue" points="257.521,-406.498 268.016,-407.949 260.716,-400.27 257.521,-406.498"/>
</g>
<!-- Node38 -->
<g id="node75" class="node"><title>Node38</title>
<a xlink:href="cvm-hfa-search_8h.html#a12882fa53f8ec49b9b2950711161db42" target="_top" xlink:title="This routine sets the output buffer in the sparam.">
<polygon fill="white" stroke="black" points="265.5,-356 265.5,-390 386.5,-390 386.5,-356 265.5,-356"/>
<text text-anchor="start" x="273.5" y="-377" font-family="FreeSans" font-size="10.00">hfa_searchparam_set</text>
<text text-anchor="middle" x="326" y="-364" font-family="FreeSans" font-size="10.00">_output</text>
</a>
</g>
<!-- Node5&#45;&gt;Node38 -->
<g id="edge74" class="edge"><title>Node5&#45;&gt;Node38</title>
<path fill="none" stroke="midnightblue" d="M209.51,-333.887C224.393,-338.884 245.349,-345.92 265.391,-352.65"/>
<polygon fill="midnightblue" stroke="midnightblue" points="264.532,-356.053 275.126,-355.918 266.76,-349.417 264.532,-356.053"/>
</g>
<!-- Node39 -->
<g id="node77" class="node"><title>Node39</title>
<a xlink:href="cvm-hfa-search_8c.html#a57d7540278164eb6b6c132be00db0de5" target="_top" xlink:title="This routine performs a pattern search using the given parameters in a blocking manner.">
<polygon fill="white" stroke="red" points="264.5,-316.5 264.5,-337.5 387.5,-337.5 387.5,-316.5 264.5,-316.5"/>
<text text-anchor="middle" x="326" y="-324.5" font-family="FreeSans" font-size="10.00">hfa_searchctx_search</text>
</a>
</g>
<!-- Node5&#45;&gt;Node39 -->
<g id="edge76" class="edge"><title>Node5&#45;&gt;Node39</title>
<path fill="none" stroke="midnightblue" d="M209.51,-327C221.626,-327 237.767,-327 254.164,-327"/>
<polygon fill="midnightblue" stroke="midnightblue" points="254.373,-330.5 264.373,-327 254.372,-323.5 254.373,-330.5"/>
</g>
<!-- Node40 -->
<g id="node79" class="node"><title>Node40</title>
<a xlink:href="cvm-hfa-search_8h.html#ab50a2d84e35b5a4a03a23fc90e4dffa0" target="_top" xlink:title="This routine retrieves the reason code after a search operation has been completed by the HFA engine...">
<polygon fill="white" stroke="black" points="265,-264 265,-298 387,-298 387,-264 265,-264"/>
<text text-anchor="start" x="273" y="-285" font-family="FreeSans" font-size="10.00">hfa_searchparam_get</text>
<text text-anchor="middle" x="326" y="-272" font-family="FreeSans" font-size="10.00">_hwsearch_reason</text>
</a>
</g>
<!-- Node5&#45;&gt;Node40 -->
<g id="edge78" class="edge"><title>Node5&#45;&gt;Node40</title>
<path fill="none" stroke="midnightblue" d="M209.51,-320.113C224.393,-315.116 245.349,-308.08 265.391,-301.35"/>
<polygon fill="midnightblue" stroke="midnightblue" points="266.76,-304.583 275.126,-298.082 264.532,-297.947 266.76,-304.583"/>
</g>
<!-- Node41 -->
<g id="node81" class="node"><title>Node41</title>
<a xlink:href="cvm-hfa-common_8h.html#ad117ba199386b8d427cbb04f288b5905" target="_top" xlink:title="Dump HFA related registers.">
<polygon fill="white" stroke="black" points="280.5,-224.5 280.5,-245.5 371.5,-245.5 371.5,-224.5 280.5,-224.5"/>
<text text-anchor="middle" x="326" y="-232.5" font-family="FreeSans" font-size="10.00">hfa_dump_regs</text>
</a>
</g>
<!-- Node5&#45;&gt;Node41 -->
<g id="edge80" class="edge"><title>Node5&#45;&gt;Node41</title>
<path fill="none" stroke="midnightblue" d="M205.134,-316.392C208.899,-313.562 212.753,-310.352 216,-307 235.556,-286.808 229.035,-271.209 252,-255 257.625,-251.03 263.999,-247.848 270.589,-245.297"/>
<polygon fill="midnightblue" stroke="midnightblue" points="271.989,-248.518 280.336,-241.993 269.742,-241.888 271.989,-248.518"/>
</g>
<!-- Node42 -->
<g id="node83" class="node"><title>Node42</title>
<a xlink:href="cvm-hfa-search_8h.html#ad18e328b50b109e1e44821f3d006bd9d" target="_top" xlink:title="This routine returns the data&#45;buffer offset.">
<polygon fill="white" stroke="black" points="265,-172 265,-206 387,-206 387,-172 265,-172"/>
<text text-anchor="start" x="273" y="-193" font-family="FreeSans" font-size="10.00">hfa_searchparam_get</text>
<text text-anchor="middle" x="326" y="-180" font-family="FreeSans" font-size="10.00">_hwsearch_pdboff</text>
</a>
</g>
<!-- Node5&#45;&gt;Node42 -->
<g id="edge82" class="edge"><title>Node5&#45;&gt;Node42</title>
<path fill="none" stroke="midnightblue" d="M206.278,-316.464C209.832,-313.714 213.306,-310.521 216,-307 242.681,-272.129 220.412,-245.498 252,-215 253.433,-213.617 254.943,-212.307 256.518,-211.066"/>
<polygon fill="midnightblue" stroke="midnightblue" points="258.541,-213.923 264.864,-205.422 254.62,-208.124 258.541,-213.923"/>
</g>
<!-- Node43 -->
<g id="node85" class="node"><title>Node43</title>
<a xlink:href="cvm-hfa-search_8c.html#a6dbb15dc58155b2c94b19784ad42ef89" target="_top" xlink:title="This routine post&#45;processes the search results from the HFA engine and reports the pattern matches fo...">
<polygon fill="white" stroke="red" points="252.5,-132.5 252.5,-153.5 399.5,-153.5 399.5,-132.5 252.5,-132.5"/>
<text text-anchor="middle" x="326" y="-140.5" font-family="FreeSans" font-size="10.00">hfa_searchctx_getmatches</text>
</a>
</g>
<!-- Node5&#45;&gt;Node43 -->
<g id="edge84" class="edge"><title>Node5&#45;&gt;Node43</title>
<path fill="none" stroke="midnightblue" d="M206.899,-316.489C210.334,-313.774 213.602,-310.589 216,-307 252.654,-252.151 205.797,-210.088 252,-163 253.282,-161.694 254.639,-160.47 256.06,-159.324"/>
<polygon fill="midnightblue" stroke="midnightblue" points="258.381,-161.988 264.818,-153.573 254.538,-156.137 258.381,-161.988"/>
</g>
<!-- Node44 -->
<g id="node87" class="node"><title>Node44</title>
<a xlink:href="app-utils_8c.html#a633038357891aa5147b77fe939f300bf" target="_top" xlink:title="Print pattern matches via match buffer and cleanup all matches.">
<polygon fill="white" stroke="red" points="264,-92.5 264,-113.5 388,-113.5 388,-92.5 264,-92.5"/>
<text text-anchor="middle" x="326" y="-100.5" font-family="FreeSans" font-size="10.00">hfautils_print_matches</text>
</a>
</g>
<!-- Node5&#45;&gt;Node44 -->
<g id="edge86" class="edge"><title>Node5&#45;&gt;Node44</title>
<path fill="none" stroke="midnightblue" d="M207.319,-316.36C210.641,-313.687 213.757,-310.551 216,-307 260.491,-236.543 195.199,-183.969 252,-123 253.216,-121.695 254.508,-120.471 255.864,-119.324"/>
<polygon fill="midnightblue" stroke="midnightblue" points="257.992,-122.109 264.255,-113.563 254.03,-116.338 257.992,-122.109"/>
</g>
<!-- Node45 -->
<g id="node89" class="node"><title>Node45</title>
<a xlink:href="cvm-hfa-search_8h.html#ac5bcfbfda7036d9aca28a3c5828847a5" target="_top" xlink:title="This routine retrieves flags returned by post&#45;processor.">
<polygon fill="white" stroke="black" points="265,-40 265,-74 387,-74 387,-40 265,-40"/>
<text text-anchor="start" x="273" y="-61" font-family="FreeSans" font-size="10.00">hfa_searchparam_get</text>
<text text-anchor="middle" x="326" y="-48" font-family="FreeSans" font-size="10.00">_ppoflags</text>
</a>
</g>
<!-- Node5&#45;&gt;Node45 -->
<g id="edge88" class="edge"><title>Node5&#45;&gt;Node45</title>
<path fill="none" stroke="midnightblue" d="M207.412,-316.418C210.728,-313.741 213.818,-310.589 216,-307 268.386,-220.843 187.34,-160.372 252,-83 253.343,-81.3935 254.791,-79.8862 256.327,-78.4719"/>
<polygon fill="midnightblue" stroke="midnightblue" points="258.811,-80.9807 264.662,-72.1479 254.58,-75.4042 258.811,-80.9807"/>
</g>
<!-- Node46 -->
<g id="node91" class="node"><title>Node46</title>
<a xlink:href="hfa-lnx_8c.html#a5c6551bf9ea9cf51ae7f2076c4cbe8ef" target="_top" xlink:title="Application cleanup will be done by this routine.">
<polygon fill="white" stroke="red" points="299,-0.5 299,-21.5 353,-21.5 353,-0.5 299,-0.5"/>
<text text-anchor="middle" x="326" y="-8.5" font-family="FreeSans" font-size="10.00">cleanup</text>
</a>
</g>
<!-- Node5&#45;&gt;Node46 -->
<g id="edge90" class="edge"><title>Node5&#45;&gt;Node46</title>
<path fill="none" stroke="midnightblue" d="M207.495,-316.468C210.804,-313.787 213.871,-310.621 216,-307 278.695,-200.358 170.592,-124.144 252,-31 261.212,-20.4598 275.347,-15.2048 288.805,-12.6711"/>
<polygon fill="midnightblue" stroke="midnightblue" points="289.472,-16.1112 298.871,-11.2216 288.474,-9.1827 289.472,-16.1112"/>
</g>
<!-- Node7 -->
<g id="node13" class="node"><title>Node7</title>
<a xlink:href="app-utils_8c.html#a8d5ec2ca8ebb2e04916983e6053a5c79" target="_top" xlink:title="Return size of a file(compressed or uncompressed).">
<polygon fill="white" stroke="red" points="471.5,-1412.5 471.5,-1433.5 566.5,-1433.5 566.5,-1412.5 471.5,-1412.5"/>
<text text-anchor="middle" x="519" y="-1420.5" font-family="FreeSans" font-size="10.00">hfautils_file_size</text>
</a>
</g>
<!-- Node6&#45;&gt;Node7 -->
<g id="edge12" class="edge"><title>Node6&#45;&gt;Node7</title>
<path fill="none" stroke="midnightblue" d="M350.126,-1370.53C372.189,-1379.89 405.876,-1393.53 436,-1403 444.131,-1405.56 452.796,-1407.97 461.346,-1410.18"/>
<polygon fill="midnightblue" stroke="midnightblue" points="460.739,-1413.64 471.291,-1412.68 462.444,-1406.85 460.739,-1413.64"/>
</g>
<!-- Node8 -->
<g id="node15" class="node"><title>Node8</title>
<a xlink:href="app-utils_8c.html#a12339c67618c4b3a54c32f43d378c273" target="_top" xlink:title="Read data from a file to a buffer(compressed or uncompressed).">
<polygon fill="white" stroke="red" points="470.5,-1372.5 470.5,-1393.5 567.5,-1393.5 567.5,-1372.5 470.5,-1372.5"/>
<text text-anchor="middle" x="519" y="-1380.5" font-family="FreeSans" font-size="10.00">hfautils_read_file</text>
</a>
</g>
<!-- Node6&#45;&gt;Node8 -->
<g id="edge14" class="edge"><title>Node6&#45;&gt;Node8</title>
<path fill="none" stroke="midnightblue" d="M373.213,-1365.63C399.452,-1368.75 432.337,-1372.67 460.23,-1376"/>
<polygon fill="midnightblue" stroke="midnightblue" points="459.915,-1379.48 470.259,-1377.19 460.743,-1372.53 459.915,-1379.48"/>
</g>
<!-- Node9 -->
<g id="node17" class="node"><title>Node9</title>
<a xlink:href="app-utils_8c.html#a1944a739d03e86dcaee1a7d245cfeba0" target="_top" xlink:title="Initialize the attributes needed for parsing the payload file.">
<polygon fill="white" stroke="red" points="462.5,-1320 462.5,-1354 575.5,-1354 575.5,-1320 462.5,-1320"/>
<text text-anchor="start" x="470.5" y="-1341" font-family="FreeSans" font-size="10.00">hfautils_init_payload</text>
<text text-anchor="middle" x="519" y="-1328" font-family="FreeSans" font-size="10.00">_attributes</text>
</a>
</g>
<!-- Node6&#45;&gt;Node9 -->
<g id="edge16" class="edge"><title>Node6&#45;&gt;Node9</title>
<path fill="none" stroke="midnightblue" d="M373.213,-1354.37C396.956,-1351.54 426.141,-1348.07 452.144,-1344.97"/>
<polygon fill="midnightblue" stroke="midnightblue" points="452.796,-1348.41 462.311,-1343.76 451.967,-1341.46 452.796,-1348.41"/>
</g>
<!-- Node11 -->
<g id="node21" class="node"><title>Node11</title>
<a xlink:href="cvm-hfa-stats_8c.html#a2fcf955b47370bfa46705ee5a23a70cf" target="_top" xlink:title="This routine allocates memory for counters to maintain statistics of each processing core...">
<polygon fill="white" stroke="red" points="468,-1280.5 468,-1301.5 570,-1301.5 570,-1280.5 468,-1280.5"/>
<text text-anchor="middle" x="519" y="-1288.5" font-family="FreeSans" font-size="10.00">hfa_dev_stats_init</text>
</a>
</g>
<!-- Node10&#45;&gt;Node11 -->
<g id="edge20" class="edge"><title>Node10&#45;&gt;Node11</title>
<path fill="none" stroke="midnightblue" d="M327.992,-941.602C338.012,-993.84 384.456,-1223.25 436,-1271 442.252,-1276.79 449.883,-1280.99 457.958,-1284.02"/>
<polygon fill="midnightblue" stroke="midnightblue" points="456.995,-1287.39 467.585,-1287.06 459.106,-1280.71 456.995,-1287.39"/>
</g>
<!-- Node12 -->
<g id="node23" class="node"><title>Node12</title>
<a xlink:href="cvm-hfa_8c.html#a27982497398da2118cd5287ed51732e7" target="_top" xlink:title="Provides device&#45;specific information This is a utility routine used to obtain HFA device&#45;specific det...">
<polygon fill="white" stroke="black" points="463.5,-1240.5 463.5,-1261.5 574.5,-1261.5 574.5,-1240.5 463.5,-1240.5"/>
<text text-anchor="middle" x="519" y="-1248.5" font-family="FreeSans" font-size="10.00">hfa_dev_getdevinfo</text>
</a>
</g>
<!-- Node10&#45;&gt;Node12 -->
<g id="edge22" class="edge"><title>Node10&#45;&gt;Node12</title>
<path fill="none" stroke="midnightblue" d="M326.474,-941.716C328.995,-985.121 344.472,-1149.43 436,-1231 441.204,-1235.64 447.298,-1239.25 453.778,-1242.05"/>
<polygon fill="midnightblue" stroke="midnightblue" points="452.897,-1245.45 463.491,-1245.6 455.301,-1238.88 452.897,-1245.45"/>
</g>
<!-- Node13 -->
<g id="node25" class="node"><title>Node13</title>
<a xlink:href="pp_8h.html#a6f5982b2671e9682262a26b0d2996396" target="_top" xlink:title="Constructs a readable version string for the PP library.">
<polygon fill="white" stroke="black" points="459,-1200.5 459,-1221.5 579,-1221.5 579,-1200.5 459,-1200.5"/>
<text text-anchor="middle" x="519" y="-1208.5" font-family="FreeSans" font-size="10.00">pp_get_version_string</text>
</a>
</g>
<!-- Node10&#45;&gt;Node13 -->
<g id="edge24" class="edge"><title>Node10&#45;&gt;Node13</title>
<path fill="none" stroke="midnightblue" d="M327.132,-941.643C331.941,-981.297 354.334,-1121.72 436,-1191 439.995,-1194.39 444.469,-1197.22 449.213,-1199.59"/>
<polygon fill="midnightblue" stroke="midnightblue" points="448.044,-1202.9 458.616,-1203.59 450.786,-1196.46 448.044,-1202.9"/>
</g>
<!-- Node14 -->
<g id="node27" class="node"><title>Node14</title>
<a xlink:href="cvm-hfa_8c.html#afd1d53fe8a402d4c5799e6e98c67baaa" target="_top" xlink:title="Displays HFA Device info.">
<polygon fill="white" stroke="red" points="460.5,-1160.5 460.5,-1181.5 577.5,-1181.5 577.5,-1160.5 460.5,-1160.5"/>
<text text-anchor="middle" x="519" y="-1168.5" font-family="FreeSans" font-size="10.00">hfa_dev_display_info</text>
</a>
</g>
<!-- Node10&#45;&gt;Node14 -->
<g id="edge26" class="edge"><title>Node10&#45;&gt;Node14</title>
<path fill="none" stroke="midnightblue" d="M328.031,-941.724C335.395,-977.522 364.14,-1093.86 436,-1151 440.423,-1154.52 445.369,-1157.43 450.585,-1159.84"/>
<polygon fill="midnightblue" stroke="midnightblue" points="449.624,-1163.23 460.21,-1163.66 452.206,-1156.72 449.624,-1163.23"/>
</g>
<!-- Node15 -->
<g id="node29" class="node"><title>Node15</title>
<a xlink:href="cvm-hfa_8c.html#a236e64ca73680ea6761204d5c44d4e96" target="_top" xlink:title="API to set PP resource allocator for partial matches.">
<polygon fill="white" stroke="black" points="451.5,-1120.5 451.5,-1141.5 586.5,-1141.5 586.5,-1120.5 451.5,-1120.5"/>
<text text-anchor="middle" x="519" y="-1128.5" font-family="FreeSans" font-size="10.00">hfa_dev_set_fnp_ppalloc</text>
</a>
</g>
<!-- Node10&#45;&gt;Node15 -->
<g id="edge28" class="edge"><title>Node10&#45;&gt;Node15</title>
<path fill="none" stroke="midnightblue" d="M329.211,-941.514C339.311,-972.728 373.53,-1065.51 436,-1111 438.554,-1112.86 441.258,-1114.55 444.069,-1116.08"/>
<polygon fill="midnightblue" stroke="midnightblue" points="442.823,-1119.36 453.36,-1120.47 445.811,-1113.03 442.823,-1119.36"/>
</g>
<!-- Node16 -->
<g id="node31" class="node"><title>Node16</title>
<a xlink:href="cvm-hfa_8c.html#ab547f175726534d6a0a334eb35af4980" target="_top" xlink:title="Default function pointer for PP allocations.">
<polygon fill="white" stroke="black" points="459,-1080.5 459,-1101.5 579,-1101.5 579,-1080.5 459,-1080.5"/>
<text text-anchor="middle" x="519" y="-1088.5" font-family="FreeSans" font-size="10.00">hfa_defaultfn_ppalloc</text>
</a>
</g>
<!-- Node10&#45;&gt;Node16 -->
<g id="edge30" class="edge"><title>Node10&#45;&gt;Node16</title>
<path fill="none" stroke="midnightblue" d="M331.203,-941.766C344.591,-968.261 382.934,-1036.94 436,-1071 440.147,-1073.66 444.618,-1075.97 449.257,-1077.97"/>
<polygon fill="midnightblue" stroke="midnightblue" points="448.377,-1081.38 458.968,-1081.66 450.864,-1074.84 448.377,-1081.38"/>
</g>
<!-- Node17 -->
<g id="node33" class="node"><title>Node17</title>
<a xlink:href="cvm-hfa_8c.html#a148abbfdeebb207ff46884af8eeb8fa4" target="_top" xlink:title="API to set PP resource deallocator for partial matches.">
<polygon fill="white" stroke="black" points="453,-1040.5 453,-1061.5 585,-1061.5 585,-1040.5 453,-1040.5"/>
<text text-anchor="middle" x="519" y="-1048.5" font-family="FreeSans" font-size="10.00">hfa_dev_set_fnp_ppfree</text>
</a>
</g>
<!-- Node10&#45;&gt;Node17 -->
<g id="edge32" class="edge"><title>Node10&#45;&gt;Node17</title>
<path fill="none" stroke="midnightblue" d="M334.445,-941.631C351.398,-962.219 391.755,-1007.56 436,-1031 440.277,-1033.27 444.814,-1035.28 449.474,-1037.07"/>
<polygon fill="midnightblue" stroke="midnightblue" points="448.575,-1040.46 459.17,-1040.43 450.869,-1033.85 448.575,-1040.46"/>
</g>
<!-- Node18 -->
<g id="node35" class="node"><title>Node18</title>
<a xlink:href="cvm-hfa_8c.html#a832239ee7b188265bdacbbfb7e879af1" target="_top" xlink:title="Default function pointer for PP deallocations.">
<polygon fill="white" stroke="black" points="460.5,-1000.5 460.5,-1021.5 577.5,-1021.5 577.5,-1000.5 460.5,-1000.5"/>
<text text-anchor="middle" x="519" y="-1008.5" font-family="FreeSans" font-size="10.00">hfa_defaultfn_ppfree</text>
</a>
</g>
<!-- Node10&#45;&gt;Node18 -->
<g id="edge34" class="edge"><title>Node10&#45;&gt;Node18</title>
<path fill="none" stroke="midnightblue" d="M342.117,-941.563C362.995,-954.822 400.885,-977.465 436,-991 442.412,-993.471 449.223,-995.704 456.079,-997.702"/>
<polygon fill="midnightblue" stroke="midnightblue" points="455.544,-1001.18 466.115,-1000.46 457.402,-994.436 455.544,-1001.18"/>
</g>
<!-- Node19 -->
<g id="node37" class="node"><title>Node19</title>
<a xlink:href="cvm-hfa_8c.html#a774451b83b300f862763d189c9758e1f" target="_top" xlink:title="API to set PP buffer size function pointer.">
<polygon fill="white" stroke="black" points="453,-960.5 453,-981.5 585,-981.5 585,-960.5 453,-960.5"/>
<text text-anchor="middle" x="519" y="-968.5" font-family="FreeSans" font-size="10.00">hfa_dev_set_fnp_ppsize</text>
</a>
</g>
<!-- Node10&#45;&gt;Node19 -->
<g id="edge36" class="edge"><title>Node10&#45;&gt;Node19</title>
<path fill="none" stroke="midnightblue" d="M363.212,-938.712C390.097,-944.284 427.006,-951.934 458.15,-958.389"/>
<polygon fill="midnightblue" stroke="midnightblue" points="457.537,-961.836 468.039,-960.438 458.957,-954.981 457.537,-961.836"/>
</g>
<!-- Node20 -->
<g id="node39" class="node"><title>Node20</title>
<a xlink:href="cvm-hfa_8c.html#a11aab8e30488e4cfc900f60a0dabc784" target="_top" xlink:title="Default function pointer for PP size.">
<polygon fill="white" stroke="black" points="460.5,-920.5 460.5,-941.5 577.5,-941.5 577.5,-920.5 460.5,-920.5"/>
<text text-anchor="middle" x="519" y="-928.5" font-family="FreeSans" font-size="10.00">hfa_defaultfn_ppsize</text>
</a>
</g>
<!-- Node10&#45;&gt;Node20 -->
<g id="edge38" class="edge"><title>Node10&#45;&gt;Node20</title>
<path fill="none" stroke="midnightblue" d="M363.212,-931C387.807,-931 420.79,-931 450.074,-931"/>
<polygon fill="midnightblue" stroke="midnightblue" points="450.258,-934.5 460.258,-931 450.258,-927.5 450.258,-934.5"/>
</g>
<!-- Node21 -->
<g id="node41" class="node"><title>Node21</title>
<a xlink:href="cvm-hfa_8c.html#a9a0b038e0d29435cb91a21d9c62806cc" target="_top" xlink:title="API to set PP resource allocator for temporary memory.">
<polygon fill="white" stroke="black" points="450,-880.5 450,-901.5 588,-901.5 588,-880.5 450,-880.5"/>
<text text-anchor="middle" x="519" y="-888.5" font-family="FreeSans" font-size="10.00">hfa_dev_set_fnp_pptalloc</text>
</a>
</g>
<!-- Node10&#45;&gt;Node21 -->
<g id="edge40" class="edge"><title>Node10&#45;&gt;Node21</title>
<path fill="none" stroke="midnightblue" d="M363.212,-923.288C390.097,-917.716 427.006,-910.066 458.15,-903.611"/>
<polygon fill="midnightblue" stroke="midnightblue" points="458.957,-907.019 468.039,-901.562 457.537,-900.164 458.957,-907.019"/>
</g>
<!-- Node22 -->
<g id="node43" class="node"><title>Node22</title>
<a xlink:href="cvm-hfa_8c.html#a2cbca63c413f08d3861f9b4c2855391f" target="_top" xlink:title="API to set PP resource deallocator for temporary memory.">
<polygon fill="white" stroke="black" points="451.5,-840.5 451.5,-861.5 586.5,-861.5 586.5,-840.5 451.5,-840.5"/>
<text text-anchor="middle" x="519" y="-848.5" font-family="FreeSans" font-size="10.00">hfa_dev_set_fnp_pptfree</text>
</a>
</g>
<!-- Node10&#45;&gt;Node22 -->
<g id="edge42" class="edge"><title>Node10&#45;&gt;Node22</title>
<path fill="none" stroke="midnightblue" d="M342.117,-920.437C362.995,-907.178 400.885,-884.535 436,-871 442.412,-868.529 449.223,-866.296 456.079,-864.298"/>
<polygon fill="midnightblue" stroke="midnightblue" points="457.402,-867.564 466.115,-861.536 455.544,-860.815 457.402,-867.564"/>
</g>
<!-- Node23 -->
<g id="node45" class="node"><title>Node23</title>
<a xlink:href="cvm-hfa_8c.html#af0b17e8a09b1f7a1dd438ddcb1e4cd14" target="_top" xlink:title="API to set temporary memory size function pointer.">
<polygon fill="white" stroke="black" points="451.5,-800.5 451.5,-821.5 586.5,-821.5 586.5,-800.5 451.5,-800.5"/>
<text text-anchor="middle" x="519" y="-808.5" font-family="FreeSans" font-size="10.00">hfa_dev_set_fnp_pptsize</text>
</a>
</g>
<!-- Node10&#45;&gt;Node23 -->
<g id="edge44" class="edge"><title>Node10&#45;&gt;Node23</title>
<path fill="none" stroke="midnightblue" d="M334.445,-920.369C351.398,-899.781 391.755,-854.437 436,-831 440.277,-828.734 444.814,-826.721 449.474,-824.933"/>
<polygon fill="midnightblue" stroke="midnightblue" points="450.869,-828.154 459.17,-821.57 448.575,-821.54 450.869,-828.154"/>
</g>
<!-- Node24 -->
<g id="node47" class="node"><title>Node24</title>
<a xlink:href="cvm-hfa_8c.html#aa2754afcdd94eb3dcd90c374f779dd24" target="_top" xlink:title="API to set PP resource allocator for match/result buffer.">
<polygon fill="white" stroke="black" points="436,-760.5 436,-781.5 602,-781.5 602,-760.5 436,-760.5"/>
<text text-anchor="middle" x="519" y="-768.5" font-family="FreeSans" font-size="10.00">hfa_dev_set_fnp_ppmatchalloc</text>
</a>
</g>
<!-- Node10&#45;&gt;Node24 -->
<g id="edge46" class="edge"><title>Node10&#45;&gt;Node24</title>
<path fill="none" stroke="midnightblue" d="M331.203,-920.234C344.591,-893.739 382.934,-825.062 436,-791 439.181,-788.958 442.551,-787.125 446.043,-785.479"/>
<polygon fill="midnightblue" stroke="midnightblue" points="447.625,-788.611 455.517,-781.543 444.94,-782.147 447.625,-788.611"/>
</g>
<!-- Node25 -->
<g id="node49" class="node"><title>Node25</title>
<a xlink:href="cvm-hfa_8c.html#ad022f5aec72780af8b36533884693539" target="_top" xlink:title="API to set PP resource deallocator for result/match buf.">
<polygon fill="white" stroke="black" points="437.5,-720.5 437.5,-741.5 600.5,-741.5 600.5,-720.5 437.5,-720.5"/>
<text text-anchor="middle" x="519" y="-728.5" font-family="FreeSans" font-size="10.00">hfa_dev_set_fnp_ppmatchfree</text>
</a>
</g>
<!-- Node10&#45;&gt;Node25 -->
<g id="edge48" class="edge"><title>Node10&#45;&gt;Node25</title>
<path fill="none" stroke="midnightblue" d="M329.211,-920.486C339.311,-889.272 373.53,-796.486 436,-751 438.554,-749.141 441.258,-747.452 444.069,-745.919"/>
<polygon fill="midnightblue" stroke="midnightblue" points="445.811,-748.967 453.36,-741.533 442.823,-742.637 445.811,-748.967"/>
</g>
<!-- Node26 -->
<g id="node51" class="node"><title>Node26</title>
<a xlink:href="cvm-hfa_8c.html#a8b71887165c143e32600513d12f9274f" target="_top" xlink:title="API to set match buffer size function pointer.">
<polygon fill="white" stroke="black" points="437.5,-680.5 437.5,-701.5 600.5,-701.5 600.5,-680.5 437.5,-680.5"/>
<text text-anchor="middle" x="519" y="-688.5" font-family="FreeSans" font-size="10.00">hfa_dev_set_fnp_ppmatchsize</text>
</a>
</g>
<!-- Node10&#45;&gt;Node26 -->
<g id="edge50" class="edge"><title>Node10&#45;&gt;Node26</title>
<path fill="none" stroke="midnightblue" d="M328.031,-920.276C335.395,-884.478 364.14,-768.143 436,-711 438.081,-709.345 440.278,-707.824 442.564,-706.426"/>
<polygon fill="midnightblue" stroke="midnightblue" points="444.524,-709.351 451.77,-701.622 441.285,-703.146 444.524,-709.351"/>
</g>
<!-- Node27 -->
<g id="node53" class="node"><title>Node27</title>
<a xlink:href="cvm-hfa_8c.html#abcc0595aa8b2bb2d6116d600abbf55f8" target="_top" xlink:title="API to set PP error callback.">
<polygon fill="white" stroke="black" points="451,-640.5 451,-661.5 587,-661.5 587,-640.5 451,-640.5"/>
<text text-anchor="middle" x="519" y="-648.5" font-family="FreeSans" font-size="10.00">hfa_dev_set_fnp_pperror</text>
</a>
</g>
<!-- Node10&#45;&gt;Node27 -->
<g id="edge52" class="edge"><title>Node10&#45;&gt;Node27</title>
<path fill="none" stroke="midnightblue" d="M327.132,-920.357C331.941,-880.703 354.334,-740.277 436,-671 437.791,-669.481 439.678,-668.073 441.642,-666.769"/>
<polygon fill="midnightblue" stroke="midnightblue" points="443.687,-669.635 450.694,-661.688 440.261,-663.531 443.687,-669.635"/>
</g>
<!-- Node28 -->
<g id="node55" class="node"><title>Node28</title>
<a xlink:href="cvm-hfa_8c.html#ac115556b315ff135ed2fd059cdf7d066" target="_top" xlink:title="Default function pointer for PP errors.">
<polygon fill="white" stroke="black" points="463.5,-600.5 463.5,-621.5 574.5,-621.5 574.5,-600.5 463.5,-600.5"/>
<text text-anchor="middle" x="519" y="-608.5" font-family="FreeSans" font-size="10.00">hfa_defaultfn_pperr</text>
</a>
</g>
<!-- Node10&#45;&gt;Node28 -->
<g id="edge54" class="edge"><title>Node10&#45;&gt;Node28</title>
<path fill="none" stroke="midnightblue" d="M326.474,-920.284C328.995,-876.879 344.472,-712.565 436,-631 441.204,-626.362 447.298,-622.753 453.778,-619.952"/>
<polygon fill="midnightblue" stroke="midnightblue" points="455.301,-623.122 463.491,-616.4 452.897,-616.548 455.301,-623.122"/>
</g>
<!-- Node30 -->
<g id="node59" class="node"><title>Node30</title>
<a xlink:href="cvm-hfa-graph_8c.html#a80a6427d5a90c7bd1e4cbfd62a808524" target="_top" xlink:title="This routine initializes a graph object which can be used to perform various operations on a graph fi...">
<polygon fill="white" stroke="black" points="465.5,-560.5 465.5,-581.5 572.5,-581.5 572.5,-560.5 465.5,-560.5"/>
<text text-anchor="middle" x="519" y="-568.5" font-family="FreeSans" font-size="10.00">hfa_dev_graph_init</text>
</a>
</g>
<!-- Node29&#45;&gt;Node30 -->
<g id="edge58" class="edge"><title>Node29&#45;&gt;Node30</title>
<path fill="none" stroke="midnightblue" d="M360.505,-554.576C386.823,-557.303 423.809,-561.136 455.434,-564.413"/>
<polygon fill="midnightblue" stroke="midnightblue" points="455.186,-567.906 465.493,-565.455 455.907,-560.943 455.186,-567.906"/>
</g>
<!-- Node31 -->
<g id="node61" class="node"><title>Node31</title>
<a xlink:href="cvm-hfa-graph_8c.html#a32df4a93ffcd7da232613b13204b2a80" target="_top" xlink:title="This routine sets the cluster&#45;mask for the graph.">
<polygon fill="white" stroke="black" points="460.5,-520.5 460.5,-541.5 577.5,-541.5 577.5,-520.5 460.5,-520.5"/>
<text text-anchor="middle" x="519" y="-528.5" font-family="FreeSans" font-size="10.00">hfa_graph_setcluster</text>
</a>
</g>
<!-- Node29&#45;&gt;Node31 -->
<g id="edge60" class="edge"><title>Node29&#45;&gt;Node31</title>
<path fill="none" stroke="midnightblue" d="M360.505,-547.424C385.345,-544.85 419.69,-541.291 450.059,-538.144"/>
<polygon fill="midnightblue" stroke="midnightblue" points="450.601,-541.607 460.187,-537.095 449.879,-534.644 450.601,-541.607"/>
</g>
<!-- Node32 -->
<g id="node63" class="node"><title>Node32</title>
<a xlink:href="app-utils_8c.html#aed95bb72627cff313c596ebcfcd8af61" target="_top" xlink:title="Parse graph into chunks and load graph to HFA memory.">
<polygon fill="white" stroke="red" points="451.5,-480.5 451.5,-501.5 586.5,-501.5 586.5,-480.5 451.5,-480.5"/>
<text text-anchor="middle" x="519" y="-488.5" font-family="FreeSans" font-size="10.00">hfautils_download_graph</text>
</a>
</g>
<!-- Node29&#45;&gt;Node32 -->
<g id="edge62" class="edge"><title>Node29&#45;&gt;Node32</title>
<path fill="none" stroke="midnightblue" d="M360.836,-543.442C373.4,-540.234 387.545,-536.055 400,-531 416.96,-524.117 418.947,-517.649 436,-511 442.309,-508.54 449.01,-506.321 455.762,-504.335"/>
<polygon fill="midnightblue" stroke="midnightblue" points="456.95,-507.638 465.651,-501.592 455.079,-500.893 456.95,-507.638"/>
</g>
<!-- Node33 -->
<g id="node65" class="node"><title>Node33</title>
<a xlink:href="cvm-hfa-graph_8c.html#a60861d15ed5f6bccc42bbde834aa2b32" target="_top" xlink:title="This routine is used to cacheload a cacheable graph in a blocking manner.">
<polygon fill="white" stroke="red" points="459,-440.5 459,-461.5 579,-461.5 579,-440.5 459,-440.5"/>
<text text-anchor="middle" x="519" y="-448.5" font-family="FreeSans" font-size="10.00">hfa_graph_cacheload</text>
</a>
</g>
<!-- Node29&#45;&gt;Node33 -->
<g id="edge64" class="edge"><title>Node29&#45;&gt;Node33</title>
<path fill="none" stroke="midnightblue" d="M360.854,-547.208C374.124,-544.396 388.746,-539.505 400,-531 424.81,-512.25 410.934,-489.407 436,-471 440.15,-467.953 444.701,-465.364 449.469,-463.166"/>
<polygon fill="midnightblue" stroke="midnightblue" points="450.878,-466.372 458.857,-459.402 448.272,-459.875 450.878,-466.372"/>
</g>
<!-- Node34 -->
<g id="node67" class="node"><title>Node34</title>
<a xlink:href="cvm-hfa-graph_8c.html#a5e79919f5903d97aee5e82bfc7e71597" target="_top" xlink:title="This routine is the counterpart of hfa_dev_graph_init().">
<polygon fill="white" stroke="black" points="453,-210.5 453,-231.5 585,-231.5 585,-210.5 453,-210.5"/>
<text text-anchor="middle" x="519" y="-218.5" font-family="FreeSans" font-size="10.00">hfa_dev_graph_cleanup</text>
</a>
</g>
<!-- Node29&#45;&gt;Node34 -->
<g id="edge66" class="edge"><title>Node29&#45;&gt;Node34</title>
<path fill="none" stroke="midnightblue" d="M360.626,-548.514C374.334,-545.915 389.333,-540.83 400,-531 434.736,-498.989 419.317,-475.192 436,-431 462.451,-360.934 495.645,-278.496 510.789,-241.169"/>
<polygon fill="midnightblue" stroke="midnightblue" points="514.039,-242.467 514.56,-231.885 507.554,-239.832 514.039,-242.467"/>
</g>
<!-- Node46&#45;&gt;Node34 -->
<g id="edge92" class="edge"><title>Node46&#45;&gt;Node34</title>
<path fill="none" stroke="midnightblue" d="M353.088,-13.4531C368.101,-15.9383 386.419,-20.939 400,-31 460.604,-75.8975 497.644,-161.691 512.069,-200.742"/>
<polygon fill="midnightblue" stroke="midnightblue" points="508.875,-202.207 515.538,-210.444 515.466,-199.849 508.875,-202.207"/>
</g>
<!-- Node49 -->
<g id="node98" class="node"><title>Node49</title>
<a xlink:href="cvm-hfa-res_8c.html#a70c9e55ba1fcb934f74ad71ddca9d08f" target="_top" xlink:title="Radd">
<polygon fill="white" stroke="black" points="168.5,-236.5 168.5,-257.5 209.5,-257.5 209.5,-236.5 168.5,-236.5"/>
<text text-anchor="middle" x="189" y="-244.5" font-family="FreeSans" font-size="10.00">Radd</text>
</a>
</g>
<!-- Node48&#45;&gt;Node49 -->
<g id="edge98" class="edge"><title>Node48&#45;&gt;Node49</title>
<path fill="none" stroke="midnightblue" d="M124.662,-247C135.229,-247 147.245,-247 158.009,-247"/>
<polygon fill="midnightblue" stroke="midnightblue" points="158.256,-250.5 168.256,-247 158.256,-243.5 158.256,-250.5"/>
</g>
</g>
</svg>
        <g id="navigator" transform="translate(0 0)" fill="#404254">
                <rect fill="#f2f5e9" fill-opacity="0.5" stroke="#606060" stroke-width=".5" x="0" y="0" width="60" height="60"/>
                <use id="zoomplus" xlink:href="#zoomPlus" x="17" y="9" onmousedown="handleZoom(evt,'in')"/>
                <use id="zoomminus" xlink:href="#zoomMin" x="42" y="9" onmousedown="handleZoom(evt,'out')"/>
                <use id="reset" xlink:href="#resetDef" x="30" y="36" onmousedown="handleReset()"/>
                <g id="arrowUp" xlink:href="#dirArrow" transform="translate(30 24)" onmousedown="handlePan(0,-1)">
                  <use xlink:href="#rim" fill="#404040">
                        <set attributeName="fill" to="#808080" begin="arrowUp.mouseover" end="arrowUp.mouseout"/>
                  </use>
                  <path fill="none" stroke="white" stroke-width="1.5" d="M0,-3.0v7 M-2.5,-0.5L0,-3.0L2.5,-0.5"/>
                </g>
                <g id="arrowRight" xlink:href="#dirArrow" transform="rotate(90) translate(36 -43)" onmousedown="handlePan(1,0)">
                  <use xlink:href="#rim" fill="#404040">
                        <set attributeName="fill" to="#808080" begin="arrowRight.mouseover" end="arrowRight.mouseout"/>
                  </use>
                  <path fill="none" stroke="white" stroke-width="1.5" d="M0,-3.0v7 M-2.5,-0.5L0,-3.0L2.5,-0.5"/>
                </g>
                <g id="arrowDown" xlink:href="#dirArrow" transform="rotate(180) translate(-30 -48)" onmousedown="handlePan(0,1)">
                  <use xlink:href="#rim" fill="#404040">
                        <set attributeName="fill" to="#808080" begin="arrowDown.mouseover" end="arrowDown.mouseout"/>
                  </use>
                  <path fill="none" stroke="white" stroke-width="1.5" d="M0,-3.0v7 M-2.5,-0.5L0,-3.0L2.5,-0.5"/>
                </g>
                <g id="arrowLeft" xlink:href="#dirArrow" transform="rotate(270) translate(-36 17)" onmousedown="handlePan(-1,0)">
                  <use xlink:href="#rim" fill="#404040">
                        <set attributeName="fill" to="#808080" begin="arrowLeft.mouseover" end="arrowLeft.mouseout"/>
                  </use>
                  <path fill="none" stroke="white" stroke-width="1.5" d="M0,-3.0v7 M-2.5,-0.5L0,-3.0L2.5,-0.5"/>
                </g>
        </g>
        <svg viewBox="0 0 15 15" width="100%" height="30px" preserveAspectRatio="xMaxYMin meet">
         <g id="arrow_out" transform="scale(0.3 0.3)">
          <a xlink:href="ppdfa_8h_a81b3389c2c25a4ba308f71501f980e38_cgraph_org.svg" target="_base">
           <rect id="button" ry="5" rx="5" y="6" x="6" height="38" width="38"
                fill="#f2f5e9" fill-opacity="0.5" stroke="#606060" stroke-width="1.0"/>
           <path id="arrow"
             d="M 11.500037,31.436501 C 11.940474,20.09759 22.043105,11.32322 32.158766,21.979434 L 37.068811,17.246167 C 37.068811,17.246167 37.088388,32 37.088388,32 L 22.160133,31.978069 C 22.160133,31.978069 26.997745,27.140456 26.997745,27.140456 C 18.528582,18.264221 13.291696,25.230495 11.500037,31.436501 z"
             style="fill:#404040;"/>
          </a>
         </g>
        </svg>
</svg>
