<?xml version="1.0" encoding="UTF-8" standalone="no"?>
<!DOCTYPE svg PUBLIC "-//W3C//DTD SVG 1.1//EN"
 "http://www.w3.org/Graphics/SVG/1.1/DTD/svg11.dtd">
<!-- Generated by graphviz version 2.24.0 (20090616.2323)
 -->
<!-- Title: hfa_rptr_overload_t Pages: 1 -->
<svg width="116pt" height="200pt"
 viewBox="0.00 0.00 116.00 200.00" xmlns="http://www.w3.org/2000/svg" xmlns:xlink="http://www.w3.org/1999/xlink">
<g id="graph1" class="graph" transform="scale(1 1) rotate(0) translate(4 196)">
<title>hfa_rptr_overload_t</title>
<polygon fill="white" stroke="white" points="-4,5 -4,-196 113,-196 113,5 -4,5"/>
<!-- Node1 -->
<g id="node1" class="node"><title>Node1</title>
<polygon fill="#bfbfbf" stroke="black" points="-0.5,-0.5 -0.5,-63.5 108.5,-63.5 108.5,-0.5 -0.5,-0.5"/>
<text text-anchor="middle" x="54" y="-50.5" font-family="FreeSans" font-size="10.00">hfa_rptr_overload_t</text>
<polyline fill="none" stroke="black" points="-0.5,-42.5 108.5,-42.5 "/>
<text text-anchor="start" x="7.5" y="-29.5" font-family="FreeSans" font-size="10.00">+ rptrbase</text>
<polyline fill="none" stroke="black" points="-0.5,-21.5 108.5,-21.5 "/>
<text text-anchor="middle" x="54" y="-8.5" font-family="FreeSans" font-size="10.00"> </text>
</g>
<!-- Node2 -->
<g id="node2" class="node"><title>Node2</title>
<a xlink:href="structhfa__rptr__reserve__t.html" target="_top" xlink:title="Reserve elements saved by HFA API in rptr.">
<polygon fill="white" stroke="black" points="2,-115 2,-191 106,-191 106,-115 2,-115"/>
<text text-anchor="middle" x="54" y="-178" font-family="FreeSans" font-size="10.00">hfa_rptr_reserve_t</text>
<polyline fill="none" stroke="black" points="2,-170 106,-170 "/>
<text text-anchor="start" x="10" y="-157" font-family="FreeSans" font-size="10.00">+ start_ptr</text>
<text text-anchor="start" x="10" y="-144" font-family="FreeSans" font-size="10.00">+ ilen</text>
<polyline fill="none" stroke="black" points="2,-136 106,-136 "/>
<text text-anchor="middle" x="54" y="-123" font-family="FreeSans" font-size="10.00"> </text>
</a>
</g>
<!-- Node2&#45;&gt;Node1 -->
<g id="edge2" class="edge"><title>Node2&#45;&gt;Node1</title>
<path fill="none" stroke="#404040" d="M54,-114.715C54,-102.356 54,-88.5611 54,-75.8335"/>
<polygon fill="none" stroke="#404040" points="54.0001,-75.5543 50,-69.5544 54,-63.5543 58,-69.5543 54.0001,-75.5543"/>
<text text-anchor="middle" x="74" y="-86.5" font-family="FreeSans" font-size="10.00"> reserve</text>
</g>
</g>
</svg>
