<?xml version="1.0" encoding="UTF-8" standalone="no"?>
<!DOCTYPE svg PUBLIC "-//W3C//DTD SVG 1.1//EN"
 "http://www.w3.org/Graphics/SVG/1.1/DTD/svg11.dtd">
<!-- Generated by graphviz version 2.24.0 (20090616.2323)
 -->
<!-- Title: hfa_cluster Pages: 1 -->
<svg width="98pt" height="380pt"
 viewBox="0.00 0.00 98.00 380.00" xmlns="http://www.w3.org/2000/svg" xmlns:xlink="http://www.w3.org/1999/xlink">
<g id="graph1" class="graph" transform="scale(1 1) rotate(0) translate(4 376)">
<title>hfa_cluster</title>
<polygon fill="white" stroke="white" points="-4,5 -4,-376 95,-376 95,5 -4,5"/>
<!-- Node1 -->
<g id="node1" class="node"><title>Node1</title>
<polygon fill="#bfbfbf" stroke="black" points="7.5,-1 7.5,-77 82.5,-77 82.5,-1 7.5,-1"/>
<text text-anchor="middle" x="45" y="-64" font-family="FreeSans" font-size="10.00">hfa_cluster</text>
<polyline fill="none" stroke="black" points="7.5,-56 82.5,-56 "/>
<text text-anchor="start" x="15.5" y="-43" font-family="FreeSans" font-size="10.00">+ s</text>
<text text-anchor="start" x="15.5" y="-30" font-family="FreeSans" font-size="10.00">+ coremask</text>
<polyline fill="none" stroke="black" points="7.5,-22 82.5,-22 "/>
<text text-anchor="middle" x="45" y="-9" font-family="FreeSans" font-size="10.00"> </text>
</g>
<!-- Node2 -->
<g id="node2" class="node"><title>Node2</title>
<a xlink:href="structhfa__mempool__t.html" target="_top" xlink:title="Menber of alist/flist of hfa_memlist_t.">
<polygon fill="white" stroke="black" points="-0.5,-129 -0.5,-205 90.5,-205 90.5,-129 -0.5,-129"/>
<text text-anchor="middle" x="45" y="-192" font-family="FreeSans" font-size="10.00">hfa_mempool_t</text>
<polyline fill="none" stroke="black" points="-0.5,-184 90.5,-184 "/>
<text text-anchor="start" x="7.5" y="-171" font-family="FreeSans" font-size="10.00">+ pmemlist</text>
<text text-anchor="start" x="7.5" y="-158" font-family="FreeSans" font-size="10.00">+ pclist</text>
<polyline fill="none" stroke="black" points="-0.5,-150 90.5,-150 "/>
<text text-anchor="middle" x="45" y="-137" font-family="FreeSans" font-size="10.00"> </text>
</a>
</g>
<!-- Node2&#45;&gt;Node1 -->
<g id="edge2" class="edge"><title>Node2&#45;&gt;Node1</title>
<path fill="none" stroke="#404040" d="M45,-128.942C45,-116.545 45,-102.583 45,-89.4249"/>
<polygon fill="none" stroke="#404040" points="45.0001,-89.132 41,-83.1321 45,-77.132 49,-83.132 45.0001,-89.132"/>
<text text-anchor="middle" x="56.5" y="-100.5" font-family="FreeSans" font-size="10.00"> pool</text>
</g>
<!-- Node3 -->
<g id="node4" class="node"><title>Node3</title>
<a xlink:href="structhfa__memlist__t.html" target="_top" xlink:title="Allocated Free memory/cache list.">
<polygon fill="white" stroke="black" points="3,-269 3,-371 87,-371 87,-269 3,-269"/>
<text text-anchor="middle" x="45" y="-358" font-family="FreeSans" font-size="10.00">hfa_memlist_t</text>
<polyline fill="none" stroke="black" points="3,-350 87,-350 "/>
<text text-anchor="start" x="11" y="-337" font-family="FreeSans" font-size="10.00">+ lock</text>
<text text-anchor="start" x="11" y="-324" font-family="FreeSans" font-size="10.00">+ list_refcnt</text>
<text text-anchor="start" x="11" y="-311" font-family="FreeSans" font-size="10.00">+ alist</text>
<text text-anchor="start" x="11" y="-298" font-family="FreeSans" font-size="10.00">+ flist</text>
<polyline fill="none" stroke="black" points="3,-290 87,-290 "/>
<text text-anchor="middle" x="45" y="-277" font-family="FreeSans" font-size="10.00"> </text>
</a>
</g>
<!-- Node3&#45;&gt;Node2 -->
<g id="edge4" class="edge"><title>Node3&#45;&gt;Node2</title>
<path fill="none" stroke="#404040" d="M45,-268.628C45,-252.163 45,-233.952 45,-217.546"/>
<polygon fill="none" stroke="#404040" points="45.0001,-217.412 41,-211.412 45,-205.412 49,-211.412 45.0001,-217.412"/>
<text text-anchor="middle" x="67" y="-241" font-family="FreeSans" font-size="10.00"> pclist</text>
<text text-anchor="middle" x="67" y="-228" font-family="FreeSans" font-size="10.00">pmemlist</text>
</g>
</g>
</svg>
