<?xml version="1.0" encoding="UTF-8" standalone="no"?>
<!DOCTYPE svg PUBLIC "-//W3C//DTD SVG 1.1//EN"
 "http://www.w3.org/Graphics/SVG/1.1/DTD/svg11.dtd">
<!-- Generated by graphviz version 2.24.0 (20090616.2323)
 -->
<!-- Title: state_dfa_t Pages: 1 -->
<svg width="178pt" height="252pt"
 viewBox="0.00 0.00 178.00 252.00" xmlns="http://www.w3.org/2000/svg" xmlns:xlink="http://www.w3.org/1999/xlink">
<g id="graph1" class="graph" transform="scale(1 1) rotate(0) translate(4 248)">
<title>state_dfa_t</title>
<polygon fill="white" stroke="white" points="-4,5 -4,-248 175,-248 175,5 -4,5"/>
<!-- Node1 -->
<g id="node1" class="node"><title>Node1</title>
<polygon fill="#bfbfbf" stroke="black" points="49.5,-0.5 49.5,-63.5 118.5,-63.5 118.5,-0.5 49.5,-0.5"/>
<text text-anchor="middle" x="84" y="-50.5" font-family="FreeSans" font-size="10.00">state_dfa_t</text>
<polyline fill="none" stroke="black" points="49.5,-42.5 118.5,-42.5 "/>
<text text-anchor="middle" x="84" y="-29.5" font-family="FreeSans" font-size="10.00"> </text>
<polyline fill="none" stroke="black" points="49.5,-21.5 118.5,-21.5 "/>
<text text-anchor="middle" x="84" y="-8.5" font-family="FreeSans" font-size="10.00"> </text>
</g>
<!-- Node2 -->
<g id="node2" class="node"><title>Node2</title>
<a xlink:href="structppmemcb__t.html" target="_top" xlink:title="{ppmemcb_t\n|+ uarg\l|}">
<polygon fill="white" stroke="black" points="0,-147.5 0,-210.5 74,-210.5 74,-147.5 0,-147.5"/>
<text text-anchor="middle" x="37" y="-197.5" font-family="FreeSans" font-size="10.00">ppmemcb_t</text>
<polyline fill="none" stroke="black" points="0,-189.5 74,-189.5 "/>
<text text-anchor="start" x="8" y="-176.5" font-family="FreeSans" font-size="10.00">+ uarg</text>
<polyline fill="none" stroke="black" points="0,-168.5 74,-168.5 "/>
<text text-anchor="middle" x="37" y="-155.5" font-family="FreeSans" font-size="10.00"> </text>
</a>
</g>
<!-- Node2&#45;&gt;Node1 -->
<g id="edge2" class="edge"><title>Node2&#45;&gt;Node1</title>
<path fill="none" stroke="#404040" d="M47.0827,-147.465C53.8126,-126.416 62.7505,-98.4613 70.146,-75.3305"/>
<polygon fill="none" stroke="#404040" points="70.1985,-75.1663 68.2157,-68.2331 73.853,-63.7363 75.8357,-70.6695 70.1985,-75.1663"/>
<text text-anchor="middle" x="80.5" y="-86.5" font-family="FreeSans" font-size="10.00"> mcb</text>
</g>
<!-- Node3 -->
<g id="node4" class="node"><title>Node3</title>
<a xlink:href="structppstats__t.html" target="_top" xlink:title="{ppstats_t\n|+ curr_rword\l+ tot_rwords\l+ rstack\l+ sstack\l+ scycle\l+ ccycle\l|}">
<polygon fill="white" stroke="black" points="91.5,-115 91.5,-243 170.5,-243 170.5,-115 91.5,-115"/>
<text text-anchor="middle" x="131" y="-230" font-family="FreeSans" font-size="10.00">ppstats_t</text>
<polyline fill="none" stroke="black" points="91.5,-222 170.5,-222 "/>
<text text-anchor="start" x="99.5" y="-209" font-family="FreeSans" font-size="10.00">+ curr_rword</text>
<text text-anchor="start" x="99.5" y="-196" font-family="FreeSans" font-size="10.00">+ tot_rwords</text>
<text text-anchor="start" x="99.5" y="-183" font-family="FreeSans" font-size="10.00">+ rstack</text>
<text text-anchor="start" x="99.5" y="-170" font-family="FreeSans" font-size="10.00">+ sstack</text>
<text text-anchor="start" x="99.5" y="-157" font-family="FreeSans" font-size="10.00">+ scycle</text>
<text text-anchor="start" x="99.5" y="-144" font-family="FreeSans" font-size="10.00">+ ccycle</text>
<polyline fill="none" stroke="black" points="91.5,-136 170.5,-136 "/>
<text text-anchor="middle" x="131" y="-123" font-family="FreeSans" font-size="10.00"> </text>
</a>
</g>
<!-- Node3&#45;&gt;Node1 -->
<g id="edge4" class="edge"><title>Node3&#45;&gt;Node1</title>
<path fill="none" stroke="#404040" d="M110.522,-114.951C106.21,-101.466 101.761,-87.549 97.7665,-75.057"/>
<polygon fill="none" stroke="#404040" points="97.7508,-75.0075 92.1135,-70.5107 94.0962,-63.5775 99.7335,-68.0743 97.7508,-75.0075"/>
<text text-anchor="middle" x="116" y="-86.5" font-family="FreeSans" font-size="10.00"> stats</text>
</g>
</g>
</svg>
