<?xml version="1.0" encoding="UTF-8" standalone="no"?>
<!DOCTYPE svg PUBLIC "-//W3C//DTD SVG 1.1//EN"
 "http://www.w3.org/Graphics/SVG/1.1/DTD/svg11.dtd">
<!-- Generated by graphviz version 2.24.0 (20090616.2323)
 -->
<!-- Title: hfa_searchparams Pages: 1 -->
<!--zoomable 624 -->
<svg id="main" version="1.1" xmlns="http://www.w3.org/2000/svg" xmlns:xlink="http://www.w3.org/1999/xlink" xml:space="preserve" onload="init(evt)">
        <defs>
                <circle id="rim" cx="0" cy="0" r="7"/>
                <circle id="rim2" cx="0" cy="0" r="3.5"/>
                <g id="zoomPlus">
                        <use xlink:href="#rim" fill="#404040">
                                <set attributeName="fill" to="#808080" begin="zoomplus.mouseover" end="zoomplus.mouseout"/>
                        </use>
                        <path d="M-4,0h8M0,-4v8" fill="none" stroke="white" stroke-width="1.5" pointer-events="none"/>
                </g>
                <g id="zoomMin">
                        <use xlink:href="#rim" fill="#404040">
                                <set attributeName="fill" to="#808080" begin="zoomminus.mouseover" end="zoomminus.mouseout"/>
                        </use>
                        <path d="M-4,0h8" fill="none" stroke="white" stroke-width="1.5" pointer-events="none"/>
                </g>
                <g id="dirArrow">
                        <path fill="none" stroke="white" stroke-width="1.5" d="M0,-3.0v7 M-2.5,-0.5L0,-3.0L2.5,-0.5"/>
                </g>
               <g id="resetDef">
                       <use xlink:href="#rim2" fill="#404040">
                               <set attributeName="fill" to="#808080" begin="reset.mouseover" end="reset.mouseout"/>
                       </use>
               </g>
        </defs>

<script type="text/javascript">
var viewWidth = 347;
var viewHeight = 624;
var sectionId = 'dynsection-0';
</script>
<script xlink:href="svgpan.js"/>
<svg id="graph" class="graph">
<g id="viewport">
<title>hfa_searchparams</title>
<polygon fill="white" stroke="white" points="-4,5 -4,-620 344,-620 344,5 -4,5"/>
<!-- Node1 -->
<g id="node1" class="node"><title>Node1</title>
<polygon fill="#bfbfbf" stroke="black" points="84.5,-1 84.5,-129 191.5,-129 191.5,-1 84.5,-1"/>
<text text-anchor="middle" x="138" y="-116" font-family="FreeSans" font-size="10.00">hfa_searchparams</text>
<polyline fill="none" stroke="black" points="84.5,-108 191.5,-108 "/>
<text text-anchor="start" x="92.5" y="-95" font-family="FreeSans" font-size="10.00">+ wqe</text>
<text text-anchor="start" x="92.5" y="-82" font-family="FreeSans" font-size="10.00">+ clusterno</text>
<text text-anchor="start" x="92.5" y="-69" font-family="FreeSans" font-size="10.00">+ input_0_n</text>
<text text-anchor="start" x="92.5" y="-56" font-family="FreeSans" font-size="10.00">+ input_n</text>
<text text-anchor="start" x="92.5" y="-43" font-family="FreeSans" font-size="10.00">+ matchcb</text>
<text text-anchor="start" x="92.5" y="-30" font-family="FreeSans" font-size="10.00">+ cbarg</text>
<polyline fill="none" stroke="black" points="84.5,-22 191.5,-22 "/>
<text text-anchor="middle" x="138" y="-9" font-family="FreeSans" font-size="10.00"> </text>
</g>
<!-- Node2 -->
<g id="node2" class="node"><title>Node2</title>
<a xlink:href="unionhfa__output__t.html" target="_top" xlink:title="Output search parameter provided by application Depending upon used mode &#45; Single or Gather...">
<polygon fill="white" stroke="black" points="100.5,-181 100.5,-283 175.5,-283 175.5,-181 100.5,-181"/>
<text text-anchor="middle" x="138" y="-270" font-family="FreeSans" font-size="10.00">hfa_output_t</text>
<polyline fill="none" stroke="black" points="100.5,-262 175.5,-262 "/>
<text text-anchor="start" x="108.5" y="-249" font-family="FreeSans" font-size="10.00">+ ptr</text>
<text text-anchor="start" x="108.5" y="-236" font-family="FreeSans" font-size="10.00">+ length</text>
<text text-anchor="start" x="108.5" y="-223" font-family="FreeSans" font-size="10.00">+ is_iovec</text>
<text text-anchor="start" x="108.5" y="-210" font-family="FreeSans" font-size="10.00">+ @14</text>
<polyline fill="none" stroke="black" points="100.5,-202 175.5,-202 "/>
<text text-anchor="middle" x="138" y="-189" font-family="FreeSans" font-size="10.00"> </text>
</a>
</g>
<!-- Node2&#45;&gt;Node1 -->
<g id="edge2" class="edge"><title>Node2&#45;&gt;Node1</title>
<path fill="none" stroke="#404040" d="M138,-180.987C138,-168.502 138,-154.87 138,-141.479"/>
<polygon fill="none" stroke="#404040" points="138,-141.29 134,-135.29 138,-129.29 142,-135.29 138,-141.29"/>
<text text-anchor="middle" x="154.5" y="-152.5" font-family="FreeSans" font-size="10.00"> output</text>
</g>
<!-- Node3 -->
<g id="node4" class="node"><title>Node3</title>
<a xlink:href="structhfa__output__t_1_1sparam__data__gather.html" target="_top" xlink:title="Output buffer &#45; gather mode.">
<polygon fill="white" stroke="black" points="200,-391.5 200,-480.5 320,-480.5 320,-391.5 200,-391.5"/>
<text text-anchor="start" x="208" y="-467.5" font-family="FreeSans" font-size="10.00">hfa_output_t::sparam</text>
<text text-anchor="middle" x="260" y="-454.5" font-family="FreeSans" font-size="10.00">_data_gather</text>
<polyline fill="none" stroke="black" points="200,-446.5 320,-446.5 "/>
<text text-anchor="start" x="208" y="-433.5" font-family="FreeSans" font-size="10.00">+ ioveclen</text>
<text text-anchor="start" x="208" y="-420.5" font-family="FreeSans" font-size="10.00">+ is_iovec</text>
<polyline fill="none" stroke="black" points="200,-412.5 320,-412.5 "/>
<text text-anchor="middle" x="260" y="-399.5" font-family="FreeSans" font-size="10.00"> </text>
</a>
</g>
<!-- Node3&#45;&gt;Node2 -->
<g id="edge4" class="edge"><title>Node3&#45;&gt;Node2</title>
<path fill="none" stroke="#404040" d="M233.377,-391.483C216.244,-362.834 193.738,-325.201 174.891,-293.687"/>
<polygon fill="none" stroke="#404040" points="174.812,-293.554 168.299,-290.458 168.653,-283.256 175.165,-286.352 174.812,-293.554"/>
<text text-anchor="middle" x="221.5" y="-331.5" font-family="FreeSans" font-size="10.00"> g</text>
</g>
<!-- Node4 -->
<g id="node6" class="node"><title>Node4</title>
<a xlink:href="structppiovec__t.html" target="_top" xlink:title="{ppiovec_t\n|+ ptr\l+ len\l|}">
<polygon fill="white" stroke="black" points="73.5,-539 73.5,-615 136.5,-615 136.5,-539 73.5,-539"/>
<text text-anchor="middle" x="105" y="-602" font-family="FreeSans" font-size="10.00">ppiovec_t</text>
<polyline fill="none" stroke="black" points="73.5,-594 136.5,-594 "/>
<text text-anchor="start" x="81.5" y="-581" font-family="FreeSans" font-size="10.00">+ ptr</text>
<text text-anchor="start" x="81.5" y="-568" font-family="FreeSans" font-size="10.00">+ len</text>
<polyline fill="none" stroke="black" points="73.5,-560 136.5,-560 "/>
<text text-anchor="middle" x="105" y="-547" font-family="FreeSans" font-size="10.00"> </text>
</a>
</g>
<!-- Node4&#45;&gt;Node3 -->
<g id="edge6" class="edge"><title>Node4&#45;&gt;Node3</title>
<path fill="none" stroke="#404040" d="M136.741,-548.126C155.501,-531.06 179.835,-508.924 201.92,-488.834"/>
<polygon fill="none" stroke="#404040" points="202.023,-488.74 203.77,-481.744 210.9,-480.665 209.153,-487.662 202.023,-488.74"/>
<text text-anchor="middle" x="199.5" y="-510.5" font-family="FreeSans" font-size="10.00"> piovec</text>
</g>
<!-- Node6 -->
<g id="node10" class="node"><title>Node6</title>
<a xlink:href="structhfa__input__t.html" target="_top" xlink:title="Gather input search parameter.">
<polygon fill="white" stroke="black" points="-0.5,-302.5 -0.5,-365.5 68.5,-365.5 68.5,-302.5 -0.5,-302.5"/>
<text text-anchor="middle" x="34" y="-352.5" font-family="FreeSans" font-size="10.00">hfa_input_t</text>
<polyline fill="none" stroke="black" points="-0.5,-344.5 68.5,-344.5 "/>
<text text-anchor="start" x="7.5" y="-331.5" font-family="FreeSans" font-size="10.00">+ ioveclen</text>
<polyline fill="none" stroke="black" points="-0.5,-323.5 68.5,-323.5 "/>
<text text-anchor="middle" x="34" y="-310.5" font-family="FreeSans" font-size="10.00"> </text>
</a>
</g>
<!-- Node4&#45;&gt;Node6 -->
<g id="edge12" class="edge"><title>Node4&#45;&gt;Node6</title>
<path fill="none" stroke="#404040" d="M78.0726,-538.779C68.655,-523.627 58.9562,-505.632 53,-488 40.9142,-452.222 36.3673,-409.449 34.7268,-378.07"/>
<polygon fill="none" stroke="#404040" points="34.7148,-377.786 30.4621,-371.962 34.2022,-365.797 38.4548,-371.621 34.7148,-377.786"/>
<text text-anchor="middle" x="84.5" y="-510.5" font-family="FreeSans" font-size="10.00"> piovec</text>
</g>
<!-- Node5 -->
<g id="node8" class="node"><title>Node5</title>
<a xlink:href="structhfa__output__t_1_1sparam__data__direct.html" target="_top" xlink:title="Direct output buffer (Non&#45;iovec)">
<polygon fill="white" stroke="black" points="62,-385 62,-487 182,-487 182,-385 62,-385"/>
<text text-anchor="start" x="70" y="-474" font-family="FreeSans" font-size="10.00">hfa_output_t::sparam</text>
<text text-anchor="middle" x="122" y="-461" font-family="FreeSans" font-size="10.00">_data_direct</text>
<polyline fill="none" stroke="black" points="62,-453 182,-453 "/>
<text text-anchor="start" x="70" y="-440" font-family="FreeSans" font-size="10.00">+ ptr</text>
<text text-anchor="start" x="70" y="-427" font-family="FreeSans" font-size="10.00">+ len</text>
<text text-anchor="start" x="70" y="-414" font-family="FreeSans" font-size="10.00">+ is_iovec</text>
<polyline fill="none" stroke="black" points="62,-406 182,-406 "/>
<text text-anchor="middle" x="122" y="-393" font-family="FreeSans" font-size="10.00"> </text>
</a>
</g>
<!-- Node5&#45;&gt;Node2 -->
<g id="edge8" class="edge"><title>Node5&#45;&gt;Node2</title>
<path fill="none" stroke="#404040" d="M126.017,-384.786C128.147,-357.625 130.783,-324.015 133.04,-295.239"/>
<polygon fill="none" stroke="#404040" points="133.043,-295.199 129.525,-288.904 133.982,-283.236 137.5,-289.53 133.043,-295.199"/>
<text text-anchor="middle" x="137.5" y="-331.5" font-family="FreeSans" font-size="10.00"> d</text>
</g>
<!-- Node6&#45;&gt;Node1 -->
<g id="edge10" class="edge"><title>Node6&#45;&gt;Node1</title>
<path fill="none" stroke="#404040" d="M30.2598,-302.398C27.7334,-270.382 27.2795,-220.007 43,-180 50.7192,-160.355 63.1527,-141.563 76.5161,-125.071"/>
<polygon fill="none" stroke="#404040" points="76.7317,-124.815 77.5383,-117.649 84.4632,-115.638 83.6566,-122.804 76.7317,-124.815"/>
<text text-anchor="middle" x="67.5" y="-236" font-family="FreeSans" font-size="10.00"> input_0_n</text>
<text text-anchor="middle" x="67.5" y="-223" font-family="FreeSans" font-size="10.00">input_n</text>
</g>
<!-- Node7 -->
<g id="node13" class="node"><title>Node7</title>
<a xlink:href="structhfa__search__hwpp__ofields__t.html" target="_top" xlink:title="HFA hardware and Post processing fields returned to Application.">
<polygon fill="white" stroke="black" points="193,-187.5 193,-276.5 339,-276.5 339,-187.5 193,-187.5"/>
<text text-anchor="middle" x="266" y="-263.5" font-family="FreeSans" font-size="10.00">hfa_search_hwpp_ofields_t</text>
<polyline fill="none" stroke="black" points="193,-255.5 339,-255.5 "/>
<text text-anchor="start" x="201" y="-242.5" font-family="FreeSans" font-size="10.00">+ reason</text>
<text text-anchor="start" x="201" y="-229.5" font-family="FreeSans" font-size="10.00">+ oflags</text>
<text text-anchor="start" x="201" y="-216.5" font-family="FreeSans" font-size="10.00">+ pdboffset</text>
<polyline fill="none" stroke="black" points="193,-208.5 339,-208.5 "/>
<text text-anchor="middle" x="266" y="-195.5" font-family="FreeSans" font-size="10.00"> </text>
</a>
</g>
<!-- Node7&#45;&gt;Node1 -->
<g id="edge14" class="edge"><title>Node7&#45;&gt;Node1</title>
<path fill="none" stroke="#404040" d="M231.698,-187.247C220.246,-172.306 207.164,-155.237 194.481,-138.69"/>
<polygon fill="none" stroke="#404040" points="194.375,-138.552 187.55,-136.223 187.075,-129.027 193.9,-131.356 194.375,-138.552"/>
<text text-anchor="middle" x="226.5" y="-152.5" font-family="FreeSans" font-size="10.00"> ofields</text>
</g>
</g>
</svg>
        <g id="navigator" transform="translate(0 0)" fill="#404254">
                <rect fill="#f2f5e9" fill-opacity="0.5" stroke="#606060" stroke-width=".5" x="0" y="0" width="60" height="60"/>
                <use id="zoomplus" xlink:href="#zoomPlus" x="17" y="9" onmousedown="handleZoom(evt,'in')"/>
                <use id="zoomminus" xlink:href="#zoomMin" x="42" y="9" onmousedown="handleZoom(evt,'out')"/>
                <use id="reset" xlink:href="#resetDef" x="30" y="36" onmousedown="handleReset()"/>
                <g id="arrowUp" xlink:href="#dirArrow" transform="translate(30 24)" onmousedown="handlePan(0,-1)">
                  <use xlink:href="#rim" fill="#404040">
                        <set attributeName="fill" to="#808080" begin="arrowUp.mouseover" end="arrowUp.mouseout"/>
                  </use>
                  <path fill="none" stroke="white" stroke-width="1.5" d="M0,-3.0v7 M-2.5,-0.5L0,-3.0L2.5,-0.5"/>
                </g>
                <g id="arrowRight" xlink:href="#dirArrow" transform="rotate(90) translate(36 -43)" onmousedown="handlePan(1,0)">
                  <use xlink:href="#rim" fill="#404040">
                        <set attributeName="fill" to="#808080" begin="arrowRight.mouseover" end="arrowRight.mouseout"/>
                  </use>
                  <path fill="none" stroke="white" stroke-width="1.5" d="M0,-3.0v7 M-2.5,-0.5L0,-3.0L2.5,-0.5"/>
                </g>
                <g id="arrowDown" xlink:href="#dirArrow" transform="rotate(180) translate(-30 -48)" onmousedown="handlePan(0,1)">
                  <use xlink:href="#rim" fill="#404040">
                        <set attributeName="fill" to="#808080" begin="arrowDown.mouseover" end="arrowDown.mouseout"/>
                  </use>
                  <path fill="none" stroke="white" stroke-width="1.5" d="M0,-3.0v7 M-2.5,-0.5L0,-3.0L2.5,-0.5"/>
                </g>
                <g id="arrowLeft" xlink:href="#dirArrow" transform="rotate(270) translate(-36 17)" onmousedown="handlePan(-1,0)">
                  <use xlink:href="#rim" fill="#404040">
                        <set attributeName="fill" to="#808080" begin="arrowLeft.mouseover" end="arrowLeft.mouseout"/>
                  </use>
                  <path fill="none" stroke="white" stroke-width="1.5" d="M0,-3.0v7 M-2.5,-0.5L0,-3.0L2.5,-0.5"/>
                </g>
        </g>
        <svg viewBox="0 0 15 15" width="100%" height="30px" preserveAspectRatio="xMaxYMin meet">
         <g id="arrow_out" transform="scale(0.3 0.3)">
          <a xlink:href="structhfa__searchparams__coll__graph_org.svg" target="_base">
           <rect id="button" ry="5" rx="5" y="6" x="6" height="38" width="38"
                fill="#f2f5e9" fill-opacity="0.5" stroke="#606060" stroke-width="1.0"/>
           <path id="arrow"
             d="M 11.500037,31.436501 C 11.940474,20.09759 22.043105,11.32322 32.158766,21.979434 L 37.068811,17.246167 C 37.068811,17.246167 37.088388,32 37.088388,32 L 22.160133,31.978069 C 22.160133,31.978069 26.997745,27.140456 26.997745,27.140456 C 18.528582,18.264221 13.291696,25.230495 11.500037,31.436501 z"
             style="fill:#404040;"/>
          </a>
         </g>
        </svg>
</svg>
