<?xml version="1.0" encoding="UTF-8" standalone="no"?>
<!DOCTYPE svg PUBLIC "-//W3C//DTD SVG 1.1//EN"
 "http://www.w3.org/Graphics/SVG/1.1/DTD/svg11.dtd">
<!-- Generated by graphviz version 2.24.0 (20090616.2323)
 -->
<!-- Title: hfa_graph_t Pages: 1 -->
<!--zoomable 830 -->
<svg id="main" version="1.1" xmlns="http://www.w3.org/2000/svg" xmlns:xlink="http://www.w3.org/1999/xlink" xml:space="preserve" onload="init(evt)">
        <defs>
                <circle id="rim" cx="0" cy="0" r="7"/>
                <circle id="rim2" cx="0" cy="0" r="3.5"/>
                <g id="zoomPlus">
                        <use xlink:href="#rim" fill="#404040">
                                <set attributeName="fill" to="#808080" begin="zoomplus.mouseover" end="zoomplus.mouseout"/>
                        </use>
                        <path d="M-4,0h8M0,-4v8" fill="none" stroke="white" stroke-width="1.5" pointer-events="none"/>
                </g>
                <g id="zoomMin">
                        <use xlink:href="#rim" fill="#404040">
                                <set attributeName="fill" to="#808080" begin="zoomminus.mouseover" end="zoomminus.mouseout"/>
                        </use>
                        <path d="M-4,0h8" fill="none" stroke="white" stroke-width="1.5" pointer-events="none"/>
                </g>
                <g id="dirArrow">
                        <path fill="none" stroke="white" stroke-width="1.5" d="M0,-3.0v7 M-2.5,-0.5L0,-3.0L2.5,-0.5"/>
                </g>
               <g id="resetDef">
                       <use xlink:href="#rim2" fill="#404040">
                               <set attributeName="fill" to="#808080" begin="reset.mouseover" end="reset.mouseout"/>
                       </use>
               </g>
        </defs>

<script type="text/javascript">
var viewWidth = 217;
var viewHeight = 830;
var sectionId = 'dynsection-0';
</script>
<script xlink:href="svgpan.js"/>
<svg id="graph" class="graph">
<g id="viewport">
<title>hfa_graph_t</title>
<polygon fill="white" stroke="white" points="-4,5 -4,-826 214,-826 214,5 -4,5"/>
<!-- Node1 -->
<g id="node1" class="node"><title>Node1</title>
<polygon fill="#bfbfbf" stroke="black" points="48,-0.5 48,-193.5 176,-193.5 176,-0.5 48,-0.5"/>
<text text-anchor="middle" x="112" y="-180.5" font-family="FreeSans" font-size="10.00">hfa_graph_t</text>
<polyline fill="none" stroke="black" points="48,-172.5 176,-172.5 "/>
<text text-anchor="start" x="56" y="-159.5" font-family="FreeSans" font-size="10.00">+ list</text>
<text text-anchor="start" x="56" y="-146.5" font-family="FreeSans" font-size="10.00">+ lock</text>
<text text-anchor="start" x="56" y="-133.5" font-family="FreeSans" font-size="10.00">+ isinit</text>
<text text-anchor="start" x="56" y="-120.5" font-family="FreeSans" font-size="10.00">+ info</text>
<text text-anchor="start" x="56" y="-107.5" font-family="FreeSans" font-size="10.00">+ state</text>
<text text-anchor="start" x="56" y="-94.5" font-family="FreeSans" font-size="10.00">+ gtype</text>
<text text-anchor="start" x="56" y="-81.5" font-family="FreeSans" font-size="10.00">+ curr_seek</text>
<text text-anchor="start" x="56" y="-68.5" font-family="FreeSans" font-size="10.00">+ totlen</text>
<text text-anchor="start" x="56" y="-55.5" font-family="FreeSans" font-size="10.00">+ clmsk</text>
<text text-anchor="start" x="56" y="-42.5" font-family="FreeSans" font-size="10.00">+ submittedinstr_clmsk</text>
<text text-anchor="start" x="56" y="-29.5" font-family="FreeSans" font-size="10.00">and 13 more...</text>
<polyline fill="none" stroke="black" points="48,-21.5 176,-21.5 "/>
<text text-anchor="middle" x="112" y="-8.5" font-family="FreeSans" font-size="10.00"> </text>
</g>
<!-- Node2 -->
<g id="node2" class="node"><title>Node2</title>
<a xlink:href="structppinfo__t.html" target="_top" xlink:title="{ppinfo_t\n|+ base\l+ snode\l+ snode2\l+ info\l|}">
<polygon fill="white" stroke="black" points="37,-245 37,-347 99,-347 99,-245 37,-245"/>
<text text-anchor="middle" x="68" y="-334" font-family="FreeSans" font-size="10.00">ppinfo_t</text>
<polyline fill="none" stroke="black" points="37,-326 99,-326 "/>
<text text-anchor="start" x="45" y="-313" font-family="FreeSans" font-size="10.00">+ base</text>
<text text-anchor="start" x="45" y="-300" font-family="FreeSans" font-size="10.00">+ snode</text>
<text text-anchor="start" x="45" y="-287" font-family="FreeSans" font-size="10.00">+ snode2</text>
<text text-anchor="start" x="45" y="-274" font-family="FreeSans" font-size="10.00">+ info</text>
<polyline fill="none" stroke="black" points="37,-266 99,-266 "/>
<text text-anchor="middle" x="68" y="-253" font-family="FreeSans" font-size="10.00"> </text>
</a>
</g>
<!-- Node2&#45;&gt;Node1 -->
<g id="edge2" class="edge"><title>Node2&#45;&gt;Node1</title>
<path fill="none" stroke="#404040" d="M79.3311,-244.753C82.0094,-232.639 84.9662,-219.267 87.9738,-205.664"/>
<polygon fill="none" stroke="#404040" points="88.0335,-205.393 85.4233,-198.671 90.6243,-193.676 93.2346,-200.398 88.0335,-205.393"/>
<text text-anchor="middle" x="93" y="-216.5" font-family="FreeSans" font-size="10.00"> irt</text>
</g>
<!-- Node3 -->
<g id="node4" class="node"><title>Node3</title>
<a xlink:href="structpp__tstamp__t.html" target="_top" xlink:title="{pp_tstamp_t\n|+ version\l+ uuid\l|}">
<polygon fill="white" stroke="black" points="9.5,-444 9.5,-520 84.5,-520 84.5,-444 9.5,-444"/>
<text text-anchor="middle" x="47" y="-507" font-family="FreeSans" font-size="10.00">pp_tstamp_t</text>
<polyline fill="none" stroke="black" points="9.5,-499 84.5,-499 "/>
<text text-anchor="start" x="17.5" y="-486" font-family="FreeSans" font-size="10.00">+ version</text>
<text text-anchor="start" x="17.5" y="-473" font-family="FreeSans" font-size="10.00">+ uuid</text>
<polyline fill="none" stroke="black" points="9.5,-465 84.5,-465 "/>
<text text-anchor="middle" x="47" y="-452" font-family="FreeSans" font-size="10.00"> </text>
</a>
</g>
<!-- Node3&#45;&gt;Node2 -->
<g id="edge4" class="edge"><title>Node3&#45;&gt;Node2</title>
<path fill="none" stroke="#404040" d="M51.3003,-443.911C54.0494,-419.562 57.6819,-387.389 60.8568,-359.269"/>
<polygon fill="none" stroke="#404040" points="60.8854,-359.014 57.5839,-352.603 62.2318,-347.09 65.5334,-353.501 60.8854,-359.014"/>
<text text-anchor="middle" x="76.5" y="-370.5" font-family="FreeSans" font-size="10.00"> stamp</text>
</g>
<!-- Node4 -->
<g id="node6" class="node"><title>Node4</title>
<a xlink:href="structpp__tstampopt__t.html" target="_top" xlink:title="{pp_tstampopt_t\n|+ linkable\l+ memonly\l+ cachealgo\l+ dfa\l+ strings\l+ cachesize\l+ target\l+ optlevel\l+ unused1\l+ linked\land 7 more...\l|}">
<polygon fill="white" stroke="black" points="0,-628.5 0,-821.5 90,-821.5 90,-628.5 0,-628.5"/>
<text text-anchor="middle" x="45" y="-808.5" font-family="FreeSans" font-size="10.00">pp_tstampopt_t</text>
<polyline fill="none" stroke="black" points="0,-800.5 90,-800.5 "/>
<text text-anchor="start" x="8" y="-787.5" font-family="FreeSans" font-size="10.00">+ linkable</text>
<text text-anchor="start" x="8" y="-774.5" font-family="FreeSans" font-size="10.00">+ memonly</text>
<text text-anchor="start" x="8" y="-761.5" font-family="FreeSans" font-size="10.00">+ cachealgo</text>
<text text-anchor="start" x="8" y="-748.5" font-family="FreeSans" font-size="10.00">+ dfa</text>
<text text-anchor="start" x="8" y="-735.5" font-family="FreeSans" font-size="10.00">+ strings</text>
<text text-anchor="start" x="8" y="-722.5" font-family="FreeSans" font-size="10.00">+ cachesize</text>
<text text-anchor="start" x="8" y="-709.5" font-family="FreeSans" font-size="10.00">+ target</text>
<text text-anchor="start" x="8" y="-696.5" font-family="FreeSans" font-size="10.00">+ optlevel</text>
<text text-anchor="start" x="8" y="-683.5" font-family="FreeSans" font-size="10.00">+ unused1</text>
<text text-anchor="start" x="8" y="-670.5" font-family="FreeSans" font-size="10.00">+ linked</text>
<text text-anchor="start" x="8" y="-657.5" font-family="FreeSans" font-size="10.00">and 7 more...</text>
<polyline fill="none" stroke="black" points="0,-649.5 90,-649.5 "/>
<text text-anchor="middle" x="45" y="-636.5" font-family="FreeSans" font-size="10.00"> </text>
</a>
</g>
<!-- Node4&#45;&gt;Node3 -->
<g id="edge6" class="edge"><title>Node4&#45;&gt;Node3</title>
<path fill="none" stroke="#404040" d="M45.7962,-628.262C46.0664,-595.436 46.3573,-560.092 46.5854,-532.372"/>
<polygon fill="none" stroke="#404040" points="46.5867,-532.208 42.6362,-526.176 46.6855,-520.209 50.636,-526.242 46.5867,-532.208"/>
<text text-anchor="middle" x="66" y="-594.5" font-family="FreeSans" font-size="10.00"> options</text>
</g>
<!-- Node5 -->
<g id="node8" class="node"><title>Node5</title>
<a xlink:href="structhfa__dev.html" target="_top" xlink:title="HFA Device Structure.">
<polygon fill="white" stroke="black" points="118.5,-264.5 118.5,-327.5 173.5,-327.5 173.5,-264.5 118.5,-264.5"/>
<text text-anchor="middle" x="146" y="-314.5" font-family="FreeSans" font-size="10.00">hfa_dev</text>
<polyline fill="none" stroke="black" points="118.5,-306.5 173.5,-306.5 "/>
<text text-anchor="start" x="126.5" y="-293.5" font-family="FreeSans" font-size="10.00">+ punit</text>
<polyline fill="none" stroke="black" points="118.5,-285.5 173.5,-285.5 "/>
<text text-anchor="middle" x="146" y="-272.5" font-family="FreeSans" font-size="10.00"> </text>
</a>
</g>
<!-- Node5&#45;&gt;Node1 -->
<g id="edge8" class="edge"><title>Node5&#45;&gt;Node1</title>
<path fill="none" stroke="#404040" d="M140.613,-264.468C137.832,-248.193 134.257,-227.271 130.583,-205.767"/>
<polygon fill="none" stroke="#404040" points="130.557,-205.614 125.604,-200.374 128.536,-193.786 133.49,-199.026 130.557,-205.614"/>
<text text-anchor="middle" x="147.5" y="-216.5" font-family="FreeSans" font-size="10.00"> pdev</text>
</g>
<!-- Node6 -->
<g id="node10" class="node"><title>Node6</title>
<a xlink:href="structhfa__devinfo__t.html" target="_top" xlink:title="HFA Device Info.">
<polygon fill="white" stroke="black" points="105,-398.5 105,-565.5 209,-565.5 209,-398.5 105,-398.5"/>
<text text-anchor="middle" x="157" y="-552.5" font-family="FreeSans" font-size="10.00">hfa_devinfo_t</text>
<polyline fill="none" stroke="black" points="105,-544.5 209,-544.5 "/>
<text text-anchor="start" x="113" y="-531.5" font-family="FreeSans" font-size="10.00">+ hwhasownmem</text>
<text text-anchor="start" x="113" y="-518.5" font-family="FreeSans" font-size="10.00">+ name</text>
<text text-anchor="start" x="113" y="-505.5" font-family="FreeSans" font-size="10.00">+ nclusters</text>
<text text-anchor="start" x="113" y="-492.5" font-family="FreeSans" font-size="10.00">+ clmsk</text>
<text text-anchor="start" x="113" y="-479.5" font-family="FreeSans" font-size="10.00">+ chipid</text>
<text text-anchor="start" x="113" y="-466.5" font-family="FreeSans" font-size="10.00">+ pass</text>
<text text-anchor="start" x="113" y="-453.5" font-family="FreeSans" font-size="10.00">+ minfo</text>
<text text-anchor="start" x="113" y="-440.5" font-family="FreeSans" font-size="10.00">+ cinfo</text>
<text text-anchor="start" x="113" y="-427.5" font-family="FreeSans" font-size="10.00">+ mbasealignbits</text>
<polyline fill="none" stroke="black" points="105,-419.5 209,-419.5 "/>
<text text-anchor="middle" x="157" y="-406.5" font-family="FreeSans" font-size="10.00"> </text>
</a>
</g>
<!-- Node6&#45;&gt;Node5 -->
<g id="edge10" class="edge"><title>Node6&#45;&gt;Node5</title>
<path fill="none" stroke="#404040" d="M152.047,-398.25C150.854,-378.076 149.626,-357.316 148.591,-339.817"/>
<polygon fill="none" stroke="#404040" points="148.584,-339.686 144.236,-333.933 147.875,-327.707 152.222,-333.461 148.584,-339.686"/>
<text text-anchor="middle" x="169.5" y="-370.5" font-family="FreeSans" font-size="10.00"> devinfo</text>
</g>
<!-- Node7 -->
<g id="node12" class="node"><title>Node7</title>
<a xlink:href="structhfa__memchunk__t.html" target="_top" xlink:title="Memory Chunk attributes.">
<polygon fill="white" stroke="black" points="108,-687 108,-763 208,-763 208,-687 108,-687"/>
<text text-anchor="middle" x="158" y="-750" font-family="FreeSans" font-size="10.00">hfa_memchunk_t</text>
<polyline fill="none" stroke="black" points="108,-742 208,-742 "/>
<text text-anchor="start" x="116" y="-729" font-family="FreeSans" font-size="10.00">+ addr</text>
<text text-anchor="start" x="116" y="-716" font-family="FreeSans" font-size="10.00">+ size</text>
<polyline fill="none" stroke="black" points="108,-708 208,-708 "/>
<text text-anchor="middle" x="158" y="-695" font-family="FreeSans" font-size="10.00"> </text>
</a>
</g>
<!-- Node7&#45;&gt;Node6 -->
<g id="edge12" class="edge"><title>Node7&#45;&gt;Node6</title>
<path fill="none" stroke="#404040" d="M157.843,-686.764C157.722,-657.517 157.551,-615.869 157.394,-577.761"/>
<polygon fill="none" stroke="#404040" points="157.393,-577.533 153.369,-571.549 157.344,-565.533 161.368,-571.516 157.393,-577.533"/>
<text text-anchor="middle" x="172.5" y="-601" font-family="FreeSans" font-size="10.00"> minfo</text>
<text text-anchor="middle" x="172.5" y="-588" font-family="FreeSans" font-size="10.00">cinfo</text>
</g>
</g>
</svg>
        <g id="navigator" transform="translate(0 0)" fill="#404254">
                <rect fill="#f2f5e9" fill-opacity="0.5" stroke="#606060" stroke-width=".5" x="0" y="0" width="60" height="60"/>
                <use id="zoomplus" xlink:href="#zoomPlus" x="17" y="9" onmousedown="handleZoom(evt,'in')"/>
                <use id="zoomminus" xlink:href="#zoomMin" x="42" y="9" onmousedown="handleZoom(evt,'out')"/>
                <use id="reset" xlink:href="#resetDef" x="30" y="36" onmousedown="handleReset()"/>
                <g id="arrowUp" xlink:href="#dirArrow" transform="translate(30 24)" onmousedown="handlePan(0,-1)">
                  <use xlink:href="#rim" fill="#404040">
                        <set attributeName="fill" to="#808080" begin="arrowUp.mouseover" end="arrowUp.mouseout"/>
                  </use>
                  <path fill="none" stroke="white" stroke-width="1.5" d="M0,-3.0v7 M-2.5,-0.5L0,-3.0L2.5,-0.5"/>
                </g>
                <g id="arrowRight" xlink:href="#dirArrow" transform="rotate(90) translate(36 -43)" onmousedown="handlePan(1,0)">
                  <use xlink:href="#rim" fill="#404040">
                        <set attributeName="fill" to="#808080" begin="arrowRight.mouseover" end="arrowRight.mouseout"/>
                  </use>
                  <path fill="none" stroke="white" stroke-width="1.5" d="M0,-3.0v7 M-2.5,-0.5L0,-3.0L2.5,-0.5"/>
                </g>
                <g id="arrowDown" xlink:href="#dirArrow" transform="rotate(180) translate(-30 -48)" onmousedown="handlePan(0,1)">
                  <use xlink:href="#rim" fill="#404040">
                        <set attributeName="fill" to="#808080" begin="arrowDown.mouseover" end="arrowDown.mouseout"/>
                  </use>
                  <path fill="none" stroke="white" stroke-width="1.5" d="M0,-3.0v7 M-2.5,-0.5L0,-3.0L2.5,-0.5"/>
                </g>
                <g id="arrowLeft" xlink:href="#dirArrow" transform="rotate(270) translate(-36 17)" onmousedown="handlePan(-1,0)">
                  <use xlink:href="#rim" fill="#404040">
                        <set attributeName="fill" to="#808080" begin="arrowLeft.mouseover" end="arrowLeft.mouseout"/>
                  </use>
                  <path fill="none" stroke="white" stroke-width="1.5" d="M0,-3.0v7 M-2.5,-0.5L0,-3.0L2.5,-0.5"/>
                </g>
        </g>
        <svg viewBox="0 0 15 15" width="100%" height="30px" preserveAspectRatio="xMaxYMin meet">
         <g id="arrow_out" transform="scale(0.3 0.3)">
          <a xlink:href="structhfa__graph__t__coll__graph_org.svg" target="_base">
           <rect id="button" ry="5" rx="5" y="6" x="6" height="38" width="38"
                fill="#f2f5e9" fill-opacity="0.5" stroke="#606060" stroke-width="1.0"/>
           <path id="arrow"
             d="M 11.500037,31.436501 C 11.940474,20.09759 22.043105,11.32322 32.158766,21.979434 L 37.068811,17.246167 C 37.068811,17.246167 37.088388,32 37.088388,32 L 22.160133,31.978069 C 22.160133,31.978069 26.997745,27.140456 26.997745,27.140456 C 18.528582,18.264221 13.291696,25.230495 11.500037,31.436501 z"
             style="fill:#404040;"/>
          </a>
         </g>
        </svg>
</svg>
