<?xml version="1.0" encoding="UTF-8" standalone="no"?>
<!DOCTYPE svg PUBLIC "-//W3C//DTD SVG 1.1//EN"
 "http://www.w3.org/Graphics/SVG/1.1/DTD/svg11.dtd">
<!-- Generated by graphviz version 2.24.0 (20090616.2323)
 -->
<!-- Title: hfaf_flow_t Pages: 1 -->
<!--zoomable 1240 -->
<svg id="main" version="1.1" xmlns="http://www.w3.org/2000/svg" xmlns:xlink="http://www.w3.org/1999/xlink" xml:space="preserve" onload="init(evt)">
        <defs>
                <circle id="rim" cx="0" cy="0" r="7"/>
                <circle id="rim2" cx="0" cy="0" r="3.5"/>
                <g id="zoomPlus">
                        <use xlink:href="#rim" fill="#404040">
                                <set attributeName="fill" to="#808080" begin="zoomplus.mouseover" end="zoomplus.mouseout"/>
                        </use>
                        <path d="M-4,0h8M0,-4v8" fill="none" stroke="white" stroke-width="1.5" pointer-events="none"/>
                </g>
                <g id="zoomMin">
                        <use xlink:href="#rim" fill="#404040">
                                <set attributeName="fill" to="#808080" begin="zoomminus.mouseover" end="zoomminus.mouseout"/>
                        </use>
                        <path d="M-4,0h8" fill="none" stroke="white" stroke-width="1.5" pointer-events="none"/>
                </g>
                <g id="dirArrow">
                        <path fill="none" stroke="white" stroke-width="1.5" d="M0,-3.0v7 M-2.5,-0.5L0,-3.0L2.5,-0.5"/>
                </g>
               <g id="resetDef">
                       <use xlink:href="#rim2" fill="#404040">
                               <set attributeName="fill" to="#808080" begin="reset.mouseover" end="reset.mouseout"/>
                       </use>
               </g>
        </defs>

<script type="text/javascript">
var viewWidth = 510;
var viewHeight = 1240;
var sectionId = 'dynsection-0';
</script>
<script xlink:href="svgpan.js"/>
<svg id="graph" class="graph">
<g id="viewport">
<title>hfaf_flow_t</title>
<polygon fill="white" stroke="white" points="-4,5 -4,-1236 507,-1236 507,5 -4,5"/>
<!-- Node1 -->
<g id="node1" class="node"><title>Node1</title>
<polygon fill="#bfbfbf" stroke="black" points="218,-0.5 218,-141.5 292,-141.5 292,-0.5 218,-0.5"/>
<text text-anchor="middle" x="255" y="-128.5" font-family="FreeSans" font-size="10.00">hfaf_flow_t</text>
<polyline fill="none" stroke="black" points="218,-120.5 292,-120.5 "/>
<text text-anchor="start" x="226" y="-107.5" font-family="FreeSans" font-size="10.00">+ lock</text>
<text text-anchor="start" x="226" y="-94.5" font-family="FreeSans" font-size="10.00">+ flowid</text>
<text text-anchor="start" x="226" y="-81.5" font-family="FreeSans" font-size="10.00">+ paramlist</text>
<text text-anchor="start" x="226" y="-68.5" font-family="FreeSans" font-size="10.00">+ sctx</text>
<text text-anchor="start" x="226" y="-55.5" font-family="FreeSans" font-size="10.00">+ matchcb</text>
<text text-anchor="start" x="226" y="-42.5" font-family="FreeSans" font-size="10.00">+ added</text>
<text text-anchor="start" x="226" y="-29.5" font-family="FreeSans" font-size="10.00">+ submitted</text>
<polyline fill="none" stroke="black" points="218,-21.5 292,-21.5 "/>
<text text-anchor="middle" x="255" y="-8.5" font-family="FreeSans" font-size="10.00"> </text>
</g>
<!-- Node2 -->
<g id="node2" class="node"><title>Node2</title>
<a xlink:href="structhfa__searchctx.html" target="_top" xlink:title="Search context data structure.">
<polygon fill="white" stroke="black" points="212.5,-205 212.5,-281 297.5,-281 297.5,-205 212.5,-205"/>
<text text-anchor="middle" x="255" y="-268" font-family="FreeSans" font-size="10.00">hfa_searchctx</text>
<polyline fill="none" stroke="black" points="212.5,-260 297.5,-260 "/>
<text text-anchor="start" x="220.5" y="-247" font-family="FreeSans" font-size="10.00">+ flags</text>
<text text-anchor="start" x="220.5" y="-234" font-family="FreeSans" font-size="10.00">+ ctx_status</text>
<polyline fill="none" stroke="black" points="212.5,-226 297.5,-226 "/>
<text text-anchor="middle" x="255" y="-213" font-family="FreeSans" font-size="10.00"> </text>
</a>
</g>
<!-- Node2&#45;&gt;Node1 -->
<g id="edge2" class="edge"><title>Node2&#45;&gt;Node1</title>
<path fill="none" stroke="#404040" d="M255,-204.828C255,-189.637 255,-171.528 255,-153.615"/>
<polygon fill="none" stroke="#404040" points="255,-153.595 251,-147.595 255,-141.595 259,-147.595 255,-153.595"/>
<text text-anchor="middle" x="276.5" y="-177" font-family="FreeSans" font-size="10.00"> sctx</text>
<text text-anchor="middle" x="276.5" y="-164" font-family="FreeSans" font-size="10.00">matchcb</text>
</g>
<!-- Node3 -->
<g id="node4" class="node"><title>Node3</title>
<a xlink:href="structhfa__graph__t.html" target="_top" xlink:title="Graph structure.">
<polygon fill="white" stroke="black" points="87,-332.5 87,-525.5 215,-525.5 215,-332.5 87,-332.5"/>
<text text-anchor="middle" x="151" y="-512.5" font-family="FreeSans" font-size="10.00">hfa_graph_t</text>
<polyline fill="none" stroke="black" points="87,-504.5 215,-504.5 "/>
<text text-anchor="start" x="95" y="-491.5" font-family="FreeSans" font-size="10.00">+ list</text>
<text text-anchor="start" x="95" y="-478.5" font-family="FreeSans" font-size="10.00">+ lock</text>
<text text-anchor="start" x="95" y="-465.5" font-family="FreeSans" font-size="10.00">+ isinit</text>
<text text-anchor="start" x="95" y="-452.5" font-family="FreeSans" font-size="10.00">+ info</text>
<text text-anchor="start" x="95" y="-439.5" font-family="FreeSans" font-size="10.00">+ state</text>
<text text-anchor="start" x="95" y="-426.5" font-family="FreeSans" font-size="10.00">+ gtype</text>
<text text-anchor="start" x="95" y="-413.5" font-family="FreeSans" font-size="10.00">+ curr_seek</text>
<text text-anchor="start" x="95" y="-400.5" font-family="FreeSans" font-size="10.00">+ totlen</text>
<text text-anchor="start" x="95" y="-387.5" font-family="FreeSans" font-size="10.00">+ clmsk</text>
<text text-anchor="start" x="95" y="-374.5" font-family="FreeSans" font-size="10.00">+ submittedinstr_clmsk</text>
<text text-anchor="start" x="95" y="-361.5" font-family="FreeSans" font-size="10.00">and 13 more...</text>
<polyline fill="none" stroke="black" points="87,-353.5 215,-353.5 "/>
<text text-anchor="middle" x="151" y="-340.5" font-family="FreeSans" font-size="10.00"> </text>
</a>
</g>
<!-- Node3&#45;&gt;Node2 -->
<g id="edge4" class="edge"><title>Node3&#45;&gt;Node2</title>
<path fill="none" stroke="#404040" d="M204.98,-332.459C212.86,-318.365 220.68,-304.38 227.714,-291.801"/>
<polygon fill="none" stroke="#404040" points="227.818,-291.614 227.255,-284.425 233.674,-281.141 234.237,-288.33 227.818,-291.614"/>
<text text-anchor="middle" x="240.5" y="-304.5" font-family="FreeSans" font-size="10.00"> pgraph</text>
</g>
<!-- Node4 -->
<g id="node6" class="node"><title>Node4</title>
<a xlink:href="structppinfo__t.html" target="_top" xlink:title="{ppinfo_t\n|+ base\l+ snode\l+ snode2\l+ info\l|}">
<polygon fill="white" stroke="black" points="26,-616 26,-718 88,-718 88,-616 26,-616"/>
<text text-anchor="middle" x="57" y="-705" font-family="FreeSans" font-size="10.00">ppinfo_t</text>
<polyline fill="none" stroke="black" points="26,-697 88,-697 "/>
<text text-anchor="start" x="34" y="-684" font-family="FreeSans" font-size="10.00">+ base</text>
<text text-anchor="start" x="34" y="-671" font-family="FreeSans" font-size="10.00">+ snode</text>
<text text-anchor="start" x="34" y="-658" font-family="FreeSans" font-size="10.00">+ snode2</text>
<text text-anchor="start" x="34" y="-645" font-family="FreeSans" font-size="10.00">+ info</text>
<polyline fill="none" stroke="black" points="26,-637 88,-637 "/>
<text text-anchor="middle" x="57" y="-624" font-family="FreeSans" font-size="10.00"> </text>
</a>
</g>
<!-- Node4&#45;&gt;Node3 -->
<g id="edge6" class="edge"><title>Node4&#45;&gt;Node3</title>
<path fill="none" stroke="#404040" d="M77.1654,-615.943C86.3161,-592.774 97.5079,-564.437 108.384,-536.901"/>
<polygon fill="none" stroke="#404040" points="108.447,-536.741 106.931,-529.691 112.855,-525.58 114.371,-532.63 108.447,-536.741"/>
<text text-anchor="middle" x="110" y="-548.5" font-family="FreeSans" font-size="10.00"> irt</text>
</g>
<!-- Node5 -->
<g id="node8" class="node"><title>Node5</title>
<a xlink:href="structpp__tstamp__t.html" target="_top" xlink:title="{pp_tstamp_t\n|+ version\l+ uuid\l|}">
<polygon fill="white" stroke="black" points="8.5,-854 8.5,-930 83.5,-930 83.5,-854 8.5,-854"/>
<text text-anchor="middle" x="46" y="-917" font-family="FreeSans" font-size="10.00">pp_tstamp_t</text>
<polyline fill="none" stroke="black" points="8.5,-909 83.5,-909 "/>
<text text-anchor="start" x="16.5" y="-896" font-family="FreeSans" font-size="10.00">+ version</text>
<text text-anchor="start" x="16.5" y="-883" font-family="FreeSans" font-size="10.00">+ uuid</text>
<polyline fill="none" stroke="black" points="8.5,-875 83.5,-875 "/>
<text text-anchor="middle" x="46" y="-862" font-family="FreeSans" font-size="10.00"> </text>
</a>
</g>
<!-- Node5&#45;&gt;Node4 -->
<g id="edge8" class="edge"><title>Node5&#45;&gt;Node4</title>
<path fill="none" stroke="#404040" d="M47.866,-853.832C49.5214,-819.972 51.9717,-769.852 53.9178,-730.045"/>
<polygon fill="none" stroke="#404040" points="53.9181,-730.037 50.2159,-723.849 54.5041,-718.052 58.2063,-724.24 53.9181,-730.037"/>
<text text-anchor="middle" x="68.5" y="-780.5" font-family="FreeSans" font-size="10.00"> stamp</text>
</g>
<!-- Node6 -->
<g id="node10" class="node"><title>Node6</title>
<a xlink:href="structpp__tstampopt__t.html" target="_top" xlink:title="{pp_tstampopt_t\n|+ linkable\l+ memonly\l+ cachealgo\l+ dfa\l+ strings\l+ cachesize\l+ target\l+ optlevel\l+ unused1\l+ linked\land 7 more...\l|}">
<polygon fill="white" stroke="black" points="0,-1038.5 0,-1231.5 90,-1231.5 90,-1038.5 0,-1038.5"/>
<text text-anchor="middle" x="45" y="-1218.5" font-family="FreeSans" font-size="10.00">pp_tstampopt_t</text>
<polyline fill="none" stroke="black" points="0,-1210.5 90,-1210.5 "/>
<text text-anchor="start" x="8" y="-1197.5" font-family="FreeSans" font-size="10.00">+ linkable</text>
<text text-anchor="start" x="8" y="-1184.5" font-family="FreeSans" font-size="10.00">+ memonly</text>
<text text-anchor="start" x="8" y="-1171.5" font-family="FreeSans" font-size="10.00">+ cachealgo</text>
<text text-anchor="start" x="8" y="-1158.5" font-family="FreeSans" font-size="10.00">+ dfa</text>
<text text-anchor="start" x="8" y="-1145.5" font-family="FreeSans" font-size="10.00">+ strings</text>
<text text-anchor="start" x="8" y="-1132.5" font-family="FreeSans" font-size="10.00">+ cachesize</text>
<text text-anchor="start" x="8" y="-1119.5" font-family="FreeSans" font-size="10.00">+ target</text>
<text text-anchor="start" x="8" y="-1106.5" font-family="FreeSans" font-size="10.00">+ optlevel</text>
<text text-anchor="start" x="8" y="-1093.5" font-family="FreeSans" font-size="10.00">+ unused1</text>
<text text-anchor="start" x="8" y="-1080.5" font-family="FreeSans" font-size="10.00">+ linked</text>
<text text-anchor="start" x="8" y="-1067.5" font-family="FreeSans" font-size="10.00">and 7 more...</text>
<polyline fill="none" stroke="black" points="0,-1059.5 90,-1059.5 "/>
<text text-anchor="middle" x="45" y="-1046.5" font-family="FreeSans" font-size="10.00"> </text>
</a>
</g>
<!-- Node6&#45;&gt;Node5 -->
<g id="edge10" class="edge"><title>Node6&#45;&gt;Node5</title>
<path fill="none" stroke="#404040" d="M45.3981,-1038.26C45.5332,-1005.44 45.6786,-970.092 45.7927,-942.372"/>
<polygon fill="none" stroke="#404040" points="45.7933,-942.209 41.8181,-936.192 45.8428,-930.209 49.818,-936.225 45.7933,-942.209"/>
<text text-anchor="middle" x="65" y="-1004.5" font-family="FreeSans" font-size="10.00"> options</text>
</g>
<!-- Node7 -->
<g id="node12" class="node"><title>Node7</title>
<a xlink:href="structhfa__dev.html" target="_top" xlink:title="HFA Device Structure.">
<polygon fill="white" stroke="black" points="123.5,-635.5 123.5,-698.5 178.5,-698.5 178.5,-635.5 123.5,-635.5"/>
<text text-anchor="middle" x="151" y="-685.5" font-family="FreeSans" font-size="10.00">hfa_dev</text>
<polyline fill="none" stroke="black" points="123.5,-677.5 178.5,-677.5 "/>
<text text-anchor="start" x="131.5" y="-664.5" font-family="FreeSans" font-size="10.00">+ punit</text>
<polyline fill="none" stroke="black" points="123.5,-656.5 178.5,-656.5 "/>
<text text-anchor="middle" x="151" y="-643.5" font-family="FreeSans" font-size="10.00"> </text>
</a>
</g>
<!-- Node7&#45;&gt;Node3 -->
<g id="edge12" class="edge"><title>Node7&#45;&gt;Node3</title>
<path fill="none" stroke="#404040" d="M151,-635.395C151,-610.175 151,-573.283 151,-537.64"/>
<polygon fill="none" stroke="#404040" points="151,-537.619 147,-531.619 151,-525.619 155,-531.619 151,-537.619"/>
<text text-anchor="middle" x="164.5" y="-548.5" font-family="FreeSans" font-size="10.00"> pdev</text>
</g>
<!-- Node8 -->
<g id="node14" class="node"><title>Node8</title>
<a xlink:href="structhfa__devinfo__t.html" target="_top" xlink:title="HFA Device Info.">
<polygon fill="white" stroke="black" points="105,-808.5 105,-975.5 209,-975.5 209,-808.5 105,-808.5"/>
<text text-anchor="middle" x="157" y="-962.5" font-family="FreeSans" font-size="10.00">hfa_devinfo_t</text>
<polyline fill="none" stroke="black" points="105,-954.5 209,-954.5 "/>
<text text-anchor="start" x="113" y="-941.5" font-family="FreeSans" font-size="10.00">+ hwhasownmem</text>
<text text-anchor="start" x="113" y="-928.5" font-family="FreeSans" font-size="10.00">+ name</text>
<text text-anchor="start" x="113" y="-915.5" font-family="FreeSans" font-size="10.00">+ nclusters</text>
<text text-anchor="start" x="113" y="-902.5" font-family="FreeSans" font-size="10.00">+ clmsk</text>
<text text-anchor="start" x="113" y="-889.5" font-family="FreeSans" font-size="10.00">+ chipid</text>
<text text-anchor="start" x="113" y="-876.5" font-family="FreeSans" font-size="10.00">+ pass</text>
<text text-anchor="start" x="113" y="-863.5" font-family="FreeSans" font-size="10.00">+ minfo</text>
<text text-anchor="start" x="113" y="-850.5" font-family="FreeSans" font-size="10.00">+ cinfo</text>
<text text-anchor="start" x="113" y="-837.5" font-family="FreeSans" font-size="10.00">+ mbasealignbits</text>
<polyline fill="none" stroke="black" points="105,-829.5 209,-829.5 "/>
<text text-anchor="middle" x="157" y="-816.5" font-family="FreeSans" font-size="10.00"> </text>
</a>
</g>
<!-- Node8&#45;&gt;Node7 -->
<g id="edge14" class="edge"><title>Node8&#45;&gt;Node7</title>
<path fill="none" stroke="#404040" d="M154.766,-808.218C153.882,-775.064 152.902,-738.342 152.164,-710.658"/>
<polygon fill="none" stroke="#404040" points="152.163,-710.614 148.005,-704.723 151.843,-698.619 156.002,-704.51 152.163,-710.614"/>
<text text-anchor="middle" x="174.5" y="-780.5" font-family="FreeSans" font-size="10.00"> devinfo</text>
</g>
<!-- Node9 -->
<g id="node16" class="node"><title>Node9</title>
<a xlink:href="structhfa__memchunk__t.html" target="_top" xlink:title="Memory Chunk attributes.">
<polygon fill="white" stroke="black" points="108,-1097 108,-1173 208,-1173 208,-1097 108,-1097"/>
<text text-anchor="middle" x="158" y="-1160" font-family="FreeSans" font-size="10.00">hfa_memchunk_t</text>
<polyline fill="none" stroke="black" points="108,-1152 208,-1152 "/>
<text text-anchor="start" x="116" y="-1139" font-family="FreeSans" font-size="10.00">+ addr</text>
<text text-anchor="start" x="116" y="-1126" font-family="FreeSans" font-size="10.00">+ size</text>
<polyline fill="none" stroke="black" points="108,-1118 208,-1118 "/>
<text text-anchor="middle" x="158" y="-1105" font-family="FreeSans" font-size="10.00"> </text>
</a>
</g>
<!-- Node9&#45;&gt;Node8 -->
<g id="edge16" class="edge"><title>Node9&#45;&gt;Node8</title>
<path fill="none" stroke="#404040" d="M157.843,-1096.76C157.722,-1067.52 157.551,-1025.87 157.394,-987.761"/>
<polygon fill="none" stroke="#404040" points="157.393,-987.533 153.369,-981.549 157.344,-975.533 161.368,-981.516 157.393,-987.533"/>
<text text-anchor="middle" x="173.5" y="-1011" font-family="FreeSans" font-size="10.00"> minfo</text>
<text text-anchor="middle" x="173.5" y="-998" font-family="FreeSans" font-size="10.00">cinfo</text>
</g>
<!-- Node10 -->
<g id="node18" class="node"><title>Node10</title>
<a xlink:href="structhfa__savedsearchctx.html" target="_top" xlink:title="Hardware and software search context.">
<polygon fill="white" stroke="black" points="273,-397.5 273,-460.5 387,-460.5 387,-397.5 273,-397.5"/>
<text text-anchor="middle" x="330" y="-447.5" font-family="FreeSans" font-size="10.00">hfa_savedsearchctx</text>
<polyline fill="none" stroke="black" points="273,-439.5 387,-439.5 "/>
<text text-anchor="middle" x="330" y="-426.5" font-family="FreeSans" font-size="10.00"> </text>
<polyline fill="none" stroke="black" points="273,-418.5 387,-418.5 "/>
<text text-anchor="middle" x="330" y="-405.5" font-family="FreeSans" font-size="10.00"> </text>
</a>
</g>
<!-- Node10&#45;&gt;Node2 -->
<g id="edge18" class="edge"><title>Node10&#45;&gt;Node2</title>
<path fill="none" stroke="#404040" d="M317.277,-397.448C305.688,-368.706 288.384,-325.792 274.955,-292.489"/>
<polygon fill="none" stroke="#404040" points="274.87,-292.278 268.917,-288.209 270.382,-281.148 276.336,-285.217 274.87,-292.278"/>
<text text-anchor="middle" x="306.5" y="-304.5" font-family="FreeSans" font-size="10.00"> savedctx</text>
</g>
<!-- Node11 -->
<g id="node20" class="node"><title>Node11</title>
<a xlink:href="unioncvm__hfa__snode__t.html" target="_top" xlink:title="Type for saved node data(WORD0).">
<polygon fill="white" stroke="black" points="196,-577 196,-757 298,-757 298,-577 196,-577"/>
<text text-anchor="middle" x="247" y="-744" font-family="FreeSans" font-size="10.00">cvm_hfa_snode_t</text>
<polyline fill="none" stroke="black" points="196,-736 298,-736 "/>
<text text-anchor="start" x="204" y="-723" font-family="FreeSans" font-size="10.00">+ u64</text>
<text text-anchor="start" x="204" y="-710" font-family="FreeSans" font-size="10.00">+ zerobdn</text>
<text text-anchor="start" x="204" y="-697" font-family="FreeSans" font-size="10.00">+ nbdnodes</text>
<text text-anchor="start" x="204" y="-684" font-family="FreeSans" font-size="10.00">+ ndnodes</text>
<text text-anchor="start" x="204" y="-671" font-family="FreeSans" font-size="10.00">+ dnodeid</text>
<text text-anchor="start" x="204" y="-658" font-family="FreeSans" font-size="10.00">+ hash</text>
<text text-anchor="start" x="204" y="-645" font-family="FreeSans" font-size="10.00">+ ntype</text>
<text text-anchor="start" x="204" y="-632" font-family="FreeSans" font-size="10.00">+ smdtomtype</text>
<text text-anchor="start" x="204" y="-619" font-family="FreeSans" font-size="10.00">+ nextnode</text>
<text text-anchor="start" x="204" y="-606" font-family="FreeSans" font-size="10.00">+ s</text>
<polyline fill="none" stroke="black" points="196,-598 298,-598 "/>
<text text-anchor="middle" x="247" y="-585" font-family="FreeSans" font-size="10.00"> </text>
</a>
</g>
<!-- Node11&#45;&gt;Node10 -->
<g id="edge20" class="edge"><title>Node11&#45;&gt;Node10</title>
<path fill="none" stroke="#404040" d="M278.497,-576.683C291.032,-540.739 304.862,-501.082 315.032,-471.921"/>
<polygon fill="none" stroke="#404040" points="315.062,-471.833 313.261,-464.851 319.014,-460.502 320.815,-467.485 315.062,-471.833"/>
<text text-anchor="middle" x="304.5" y="-548.5" font-family="FreeSans" font-size="10.00"> enode</text>
</g>
<!-- Node12 -->
<g id="node22" class="node"><title>Node12</title>
<a xlink:href="unioncvm__hfa__snode2__t.html" target="_top" xlink:title="Type for saved node data(WORD1).">
<polygon fill="white" stroke="black" points="316,-609.5 316,-724.5 424,-724.5 424,-609.5 316,-609.5"/>
<text text-anchor="middle" x="370" y="-711.5" font-family="FreeSans" font-size="10.00">cvm_hfa_snode2_t</text>
<polyline fill="none" stroke="black" points="316,-703.5 424,-703.5 "/>
<text text-anchor="start" x="324" y="-690.5" font-family="FreeSans" font-size="10.00">+ u64</text>
<text text-anchor="start" x="324" y="-677.5" font-family="FreeSans" font-size="10.00">+ rsvd0</text>
<text text-anchor="start" x="324" y="-664.5" font-family="FreeSans" font-size="10.00">+ srepl</text>
<text text-anchor="start" x="324" y="-651.5" font-family="FreeSans" font-size="10.00">+ rsvd1</text>
<text text-anchor="start" x="324" y="-638.5" font-family="FreeSans" font-size="10.00">+ s</text>
<polyline fill="none" stroke="black" points="316,-630.5 424,-630.5 "/>
<text text-anchor="middle" x="370" y="-617.5" font-family="FreeSans" font-size="10.00"> </text>
</a>
</g>
<!-- Node12&#45;&gt;Node10 -->
<g id="edge22" class="edge"><title>Node12&#45;&gt;Node10</title>
<path fill="none" stroke="#404040" d="M360.317,-609.387C353.239,-567.272 343.787,-511.03 337.33,-472.612"/>
<polygon fill="none" stroke="#404040" points="337.293,-472.393 332.354,-467.138 335.304,-460.558 340.243,-465.812 337.293,-472.393"/>
<text text-anchor="middle" x="370.5" y="-548.5" font-family="FreeSans" font-size="10.00"> enode2</text>
</g>
<!-- Node13 -->
<g id="node24" class="node"><title>Node13</title>
<a xlink:href="structppstate__t.html" target="_top" xlink:title="{ppstate_t\n|+ state\l|}">
<polygon fill="white" stroke="black" points="442,-635.5 442,-698.5 502,-698.5 502,-635.5 442,-635.5"/>
<text text-anchor="middle" x="472" y="-685.5" font-family="FreeSans" font-size="10.00">ppstate_t</text>
<polyline fill="none" stroke="black" points="442,-677.5 502,-677.5 "/>
<text text-anchor="start" x="450" y="-664.5" font-family="FreeSans" font-size="10.00">+ state</text>
<polyline fill="none" stroke="black" points="442,-656.5 502,-656.5 "/>
<text text-anchor="middle" x="472" y="-643.5" font-family="FreeSans" font-size="10.00"> </text>
</a>
</g>
<!-- Node13&#45;&gt;Node10 -->
<g id="edge24" class="edge"><title>Node13&#45;&gt;Node10</title>
<path fill="none" stroke="#404040" d="M460.361,-635.495C453.3,-617.617 443.619,-595.072 433,-576 412.185,-538.615 384.067,-499.044 362.468,-470.387"/>
<polygon fill="none" stroke="#404040" points="362.386,-470.279 355.57,-467.924 355.123,-460.727 361.939,-463.082 362.386,-470.279"/>
<text text-anchor="middle" x="433" y="-548.5" font-family="FreeSans" font-size="10.00"> state</text>
</g>
</g>
</svg>
        <g id="navigator" transform="translate(0 0)" fill="#404254">
                <rect fill="#f2f5e9" fill-opacity="0.5" stroke="#606060" stroke-width=".5" x="0" y="0" width="60" height="60"/>
                <use id="zoomplus" xlink:href="#zoomPlus" x="17" y="9" onmousedown="handleZoom(evt,'in')"/>
                <use id="zoomminus" xlink:href="#zoomMin" x="42" y="9" onmousedown="handleZoom(evt,'out')"/>
                <use id="reset" xlink:href="#resetDef" x="30" y="36" onmousedown="handleReset()"/>
                <g id="arrowUp" xlink:href="#dirArrow" transform="translate(30 24)" onmousedown="handlePan(0,-1)">
                  <use xlink:href="#rim" fill="#404040">
                        <set attributeName="fill" to="#808080" begin="arrowUp.mouseover" end="arrowUp.mouseout"/>
                  </use>
                  <path fill="none" stroke="white" stroke-width="1.5" d="M0,-3.0v7 M-2.5,-0.5L0,-3.0L2.5,-0.5"/>
                </g>
                <g id="arrowRight" xlink:href="#dirArrow" transform="rotate(90) translate(36 -43)" onmousedown="handlePan(1,0)">
                  <use xlink:href="#rim" fill="#404040">
                        <set attributeName="fill" to="#808080" begin="arrowRight.mouseover" end="arrowRight.mouseout"/>
                  </use>
                  <path fill="none" stroke="white" stroke-width="1.5" d="M0,-3.0v7 M-2.5,-0.5L0,-3.0L2.5,-0.5"/>
                </g>
                <g id="arrowDown" xlink:href="#dirArrow" transform="rotate(180) translate(-30 -48)" onmousedown="handlePan(0,1)">
                  <use xlink:href="#rim" fill="#404040">
                        <set attributeName="fill" to="#808080" begin="arrowDown.mouseover" end="arrowDown.mouseout"/>
                  </use>
                  <path fill="none" stroke="white" stroke-width="1.5" d="M0,-3.0v7 M-2.5,-0.5L0,-3.0L2.5,-0.5"/>
                </g>
                <g id="arrowLeft" xlink:href="#dirArrow" transform="rotate(270) translate(-36 17)" onmousedown="handlePan(-1,0)">
                  <use xlink:href="#rim" fill="#404040">
                        <set attributeName="fill" to="#808080" begin="arrowLeft.mouseover" end="arrowLeft.mouseout"/>
                  </use>
                  <path fill="none" stroke="white" stroke-width="1.5" d="M0,-3.0v7 M-2.5,-0.5L0,-3.0L2.5,-0.5"/>
                </g>
        </g>
        <svg viewBox="0 0 15 15" width="100%" height="30px" preserveAspectRatio="xMaxYMin meet">
         <g id="arrow_out" transform="scale(0.3 0.3)">
          <a xlink:href="structhfaf__flow__t__coll__graph_org.svg" target="_base">
           <rect id="button" ry="5" rx="5" y="6" x="6" height="38" width="38"
                fill="#f2f5e9" fill-opacity="0.5" stroke="#606060" stroke-width="1.0"/>
           <path id="arrow"
             d="M 11.500037,31.436501 C 11.940474,20.09759 22.043105,11.32322 32.158766,21.979434 L 37.068811,17.246167 C 37.068811,17.246167 37.088388,32 37.088388,32 L 22.160133,31.978069 C 22.160133,31.978069 26.997745,27.140456 26.997745,27.140456 C 18.528582,18.264221 13.291696,25.230495 11.500037,31.436501 z"
             style="fill:#404040;"/>
          </a>
         </g>
        </svg>
</svg>
