<?xml version="1.0" encoding="UTF-8" standalone="no"?>
<!DOCTYPE svg PUBLIC "-//W3C//DTD SVG 1.1//EN"
 "http://www.w3.org/Graphics/SVG/1.1/DTD/svg11.dtd">
<!-- Generated by graphviz version 2.24.0 (20090616.2323)
 -->
<!-- Title: hfa_mempool_t Pages: 1 -->
<svg width="98pt" height="252pt"
 viewBox="0.00 0.00 98.00 252.00" xmlns="http://www.w3.org/2000/svg" xmlns:xlink="http://www.w3.org/1999/xlink">
<g id="graph1" class="graph" transform="scale(1 1) rotate(0) translate(4 248)">
<title>hfa_mempool_t</title>
<polygon fill="white" stroke="white" points="-4,5 -4,-248 95,-248 95,5 -4,5"/>
<!-- Node1 -->
<g id="node1" class="node"><title>Node1</title>
<polygon fill="#bfbfbf" stroke="black" points="-0.5,-1 -0.5,-77 90.5,-77 90.5,-1 -0.5,-1"/>
<text text-anchor="middle" x="45" y="-64" font-family="FreeSans" font-size="10.00">hfa_mempool_t</text>
<polyline fill="none" stroke="black" points="-0.5,-56 90.5,-56 "/>
<text text-anchor="start" x="7.5" y="-43" font-family="FreeSans" font-size="10.00">+ pmemlist</text>
<text text-anchor="start" x="7.5" y="-30" font-family="FreeSans" font-size="10.00">+ pclist</text>
<polyline fill="none" stroke="black" points="-0.5,-22 90.5,-22 "/>
<text text-anchor="middle" x="45" y="-9" font-family="FreeSans" font-size="10.00"> </text>
</g>
<!-- Node2 -->
<g id="node2" class="node"><title>Node2</title>
<a xlink:href="structhfa__memlist__t.html" target="_top" xlink:title="Allocated Free memory/cache list.">
<polygon fill="white" stroke="black" points="3,-141 3,-243 87,-243 87,-141 3,-141"/>
<text text-anchor="middle" x="45" y="-230" font-family="FreeSans" font-size="10.00">hfa_memlist_t</text>
<polyline fill="none" stroke="black" points="3,-222 87,-222 "/>
<text text-anchor="start" x="11" y="-209" font-family="FreeSans" font-size="10.00">+ lock</text>
<text text-anchor="start" x="11" y="-196" font-family="FreeSans" font-size="10.00">+ list_refcnt</text>
<text text-anchor="start" x="11" y="-183" font-family="FreeSans" font-size="10.00">+ alist</text>
<text text-anchor="start" x="11" y="-170" font-family="FreeSans" font-size="10.00">+ flist</text>
<polyline fill="none" stroke="black" points="3,-162 87,-162 "/>
<text text-anchor="middle" x="45" y="-149" font-family="FreeSans" font-size="10.00"> </text>
</a>
</g>
<!-- Node2&#45;&gt;Node1 -->
<g id="edge2" class="edge"><title>Node2&#45;&gt;Node1</title>
<path fill="none" stroke="#404040" d="M45,-140.628C45,-124.163 45,-105.952 45,-89.5465"/>
<polygon fill="none" stroke="#404040" points="45.0001,-89.4124 41,-83.4124 45,-77.4124 49,-83.4124 45.0001,-89.4124"/>
<text text-anchor="middle" x="67" y="-113" font-family="FreeSans" font-size="10.00"> pclist</text>
<text text-anchor="middle" x="67" y="-100" font-family="FreeSans" font-size="10.00">pmemlist</text>
</g>
</g>
</svg>
