<?xml version="1.0" encoding="UTF-8" standalone="no"?>
<!DOCTYPE svg PUBLIC "-//W3C//DTD SVG 1.1//EN"
 "http://www.w3.org/Graphics/SVG/1.1/DTD/svg11.dtd">
<!-- Generated by graphviz version 2.24.0 (20090616.2323)
 -->
<!-- Title: ppinfo_t Pages: 1 -->
<svg width="98pt" height="484pt"
 viewBox="0.00 0.00 98.00 484.00" xmlns="http://www.w3.org/2000/svg" xmlns:xlink="http://www.w3.org/1999/xlink">
<g id="graph1" class="graph" transform="scale(1 1) rotate(0) translate(4 480)">
<title>ppinfo_t</title>
<polygon fill="white" stroke="white" points="-4,5 -4,-480 95,-480 95,5 -4,5"/>
<!-- Node1 -->
<g id="node1" class="node"><title>Node1</title>
<polygon fill="#bfbfbf" stroke="black" points="14,-1 14,-103 76,-103 76,-1 14,-1"/>
<text text-anchor="middle" x="45" y="-90" font-family="FreeSans" font-size="10.00">ppinfo_t</text>
<polyline fill="none" stroke="black" points="14,-82 76,-82 "/>
<text text-anchor="start" x="22" y="-69" font-family="FreeSans" font-size="10.00">+ base</text>
<text text-anchor="start" x="22" y="-56" font-family="FreeSans" font-size="10.00">+ snode</text>
<text text-anchor="start" x="22" y="-43" font-family="FreeSans" font-size="10.00">+ snode2</text>
<text text-anchor="start" x="22" y="-30" font-family="FreeSans" font-size="10.00">+ info</text>
<polyline fill="none" stroke="black" points="14,-22 76,-22 "/>
<text text-anchor="middle" x="45" y="-9" font-family="FreeSans" font-size="10.00"> </text>
</g>
<!-- Node2 -->
<g id="node2" class="node"><title>Node2</title>
<a xlink:href="structpp__tstamp__t.html" target="_top" xlink:title="{pp_tstamp_t\n|+ version\l+ uuid\l|}">
<polygon fill="white" stroke="black" points="7.5,-155 7.5,-231 82.5,-231 82.5,-155 7.5,-155"/>
<text text-anchor="middle" x="45" y="-218" font-family="FreeSans" font-size="10.00">pp_tstamp_t</text>
<polyline fill="none" stroke="black" points="7.5,-210 82.5,-210 "/>
<text text-anchor="start" x="15.5" y="-197" font-family="FreeSans" font-size="10.00">+ version</text>
<text text-anchor="start" x="15.5" y="-184" font-family="FreeSans" font-size="10.00">+ uuid</text>
<polyline fill="none" stroke="black" points="7.5,-176 82.5,-176 "/>
<text text-anchor="middle" x="45" y="-163" font-family="FreeSans" font-size="10.00"> </text>
</a>
</g>
<!-- Node2&#45;&gt;Node1 -->
<g id="edge2" class="edge"><title>Node2&#45;&gt;Node1</title>
<path fill="none" stroke="#404040" d="M45,-154.843C45,-142.667 45,-128.847 45,-115.378"/>
<polygon fill="none" stroke="#404040" points="45.0001,-115.164 41,-109.164 45,-103.164 49,-109.164 45.0001,-115.164"/>
<text text-anchor="middle" x="61.5" y="-126.5" font-family="FreeSans" font-size="10.00"> stamp</text>
</g>
<!-- Node3 -->
<g id="node4" class="node"><title>Node3</title>
<a xlink:href="structpp__tstampopt__t.html" target="_top" xlink:title="{pp_tstampopt_t\n|+ linkable\l+ memonly\l+ cachealgo\l+ dfa\l+ strings\l+ cachesize\l+ target\l+ optlevel\l+ unused1\l+ linked\land 7 more...\l|}">
<polygon fill="white" stroke="black" points="0,-282.5 0,-475.5 90,-475.5 90,-282.5 0,-282.5"/>
<text text-anchor="middle" x="45" y="-462.5" font-family="FreeSans" font-size="10.00">pp_tstampopt_t</text>
<polyline fill="none" stroke="black" points="0,-454.5 90,-454.5 "/>
<text text-anchor="start" x="8" y="-441.5" font-family="FreeSans" font-size="10.00">+ linkable</text>
<text text-anchor="start" x="8" y="-428.5" font-family="FreeSans" font-size="10.00">+ memonly</text>
<text text-anchor="start" x="8" y="-415.5" font-family="FreeSans" font-size="10.00">+ cachealgo</text>
<text text-anchor="start" x="8" y="-402.5" font-family="FreeSans" font-size="10.00">+ dfa</text>
<text text-anchor="start" x="8" y="-389.5" font-family="FreeSans" font-size="10.00">+ strings</text>
<text text-anchor="start" x="8" y="-376.5" font-family="FreeSans" font-size="10.00">+ cachesize</text>
<text text-anchor="start" x="8" y="-363.5" font-family="FreeSans" font-size="10.00">+ target</text>
<text text-anchor="start" x="8" y="-350.5" font-family="FreeSans" font-size="10.00">+ optlevel</text>
<text text-anchor="start" x="8" y="-337.5" font-family="FreeSans" font-size="10.00">+ unused1</text>
<text text-anchor="start" x="8" y="-324.5" font-family="FreeSans" font-size="10.00">+ linked</text>
<text text-anchor="start" x="8" y="-311.5" font-family="FreeSans" font-size="10.00">and 7 more...</text>
<polyline fill="none" stroke="black" points="0,-303.5 90,-303.5 "/>
<text text-anchor="middle" x="45" y="-290.5" font-family="FreeSans" font-size="10.00"> </text>
</a>
</g>
<!-- Node3&#45;&gt;Node2 -->
<g id="edge4" class="edge"><title>Node3&#45;&gt;Node2</title>
<path fill="none" stroke="#404040" d="M45,-282.459C45,-268.934 45,-255.51 45,-243.332"/>
<polygon fill="none" stroke="#404040" points="45.0001,-243.141 41,-237.141 45,-231.141 49,-237.141 45.0001,-243.141"/>
<text text-anchor="middle" x="64" y="-254.5" font-family="FreeSans" font-size="10.00"> options</text>
</g>
</g>
</svg>
