<?xml version="1.0" encoding="UTF-8" standalone="no"?>
<!DOCTYPE svg PUBLIC "-//W3C//DTD SVG 1.1//EN"
 "http://www.w3.org/Graphics/SVG/1.1/DTD/svg11.dtd">
<!-- Generated by graphviz version 2.24.0 (20090616.2323)
 -->
<!-- Title: hfa_ctx_stats_t Pages: 1 -->
<svg width="102pt" height="238pt"
 viewBox="0.00 0.00 102.00 238.00" xmlns="http://www.w3.org/2000/svg" xmlns:xlink="http://www.w3.org/1999/xlink">
<g id="graph1" class="graph" transform="scale(1 1) rotate(0) translate(4 234)">
<title>hfa_ctx_stats_t</title>
<polygon fill="white" stroke="white" points="-4,5 -4,-234 99,-234 99,5 -4,5"/>
<!-- Node1 -->
<g id="node1" class="node"><title>Node1</title>
<polygon fill="#bfbfbf" stroke="black" points="3,-0.5 3,-89.5 91,-89.5 91,-0.5 3,-0.5"/>
<text text-anchor="middle" x="47" y="-76.5" font-family="FreeSans" font-size="10.00">hfa_ctx_stats_t</text>
<polyline fill="none" stroke="black" points="3,-68.5 91,-68.5 "/>
<text text-anchor="start" x="11" y="-55.5" font-family="FreeSans" font-size="10.00">+ htestats</text>
<text text-anchor="start" x="11" y="-42.5" font-family="FreeSans" font-size="10.00">+ nmatches</text>
<text text-anchor="start" x="11" y="-29.5" font-family="FreeSans" font-size="10.00">+ dfamatches</text>
<polyline fill="none" stroke="black" points="3,-21.5 91,-21.5 "/>
<text text-anchor="middle" x="47" y="-8.5" font-family="FreeSans" font-size="10.00"> </text>
</g>
<!-- Node2 -->
<g id="node2" class="node"><title>Node2</title>
<a xlink:href="structhfa__instr__cntrs__t.html" target="_top" xlink:title="Data structure for instructon counters.">
<polygon fill="white" stroke="black" points="-0.5,-140.5 -0.5,-229.5 94.5,-229.5 94.5,-140.5 -0.5,-140.5"/>
<text text-anchor="middle" x="47" y="-216.5" font-family="FreeSans" font-size="10.00">hfa_instr_cntrs_t</text>
<polyline fill="none" stroke="black" points="-0.5,-208.5 94.5,-208.5 "/>
<text text-anchor="start" x="7.5" y="-195.5" font-family="FreeSans" font-size="10.00">+ pending</text>
<text text-anchor="start" x="7.5" y="-182.5" font-family="FreeSans" font-size="10.00">+ success</text>
<text text-anchor="start" x="7.5" y="-169.5" font-family="FreeSans" font-size="10.00">+ failed</text>
<polyline fill="none" stroke="black" points="-0.5,-161.5 94.5,-161.5 "/>
<text text-anchor="middle" x="47" y="-148.5" font-family="FreeSans" font-size="10.00"> </text>
</a>
</g>
<!-- Node2&#45;&gt;Node1 -->
<g id="edge2" class="edge"><title>Node2&#45;&gt;Node1</title>
<path fill="none" stroke="#404040" d="M47,-140.318C47,-128.068 47,-114.623 47,-101.792"/>
<polygon fill="none" stroke="#404040" points="47.0001,-101.737 43,-95.7375 47,-89.7375 51,-95.7375 47.0001,-101.737"/>
<text text-anchor="middle" x="62.5" y="-112.5" font-family="FreeSans" font-size="10.00"> gwalk</text>
</g>
</g>
</svg>
