<?xml version="1.0" encoding="UTF-8" standalone="no"?>
<!DOCTYPE svg PUBLIC "-//W3C//DTD SVG 1.1//EN"
 "http://www.w3.org/Graphics/SVG/1.1/DTD/svg11.dtd">
<!-- Generated by graphviz version 2.24.0 (20090616.2323)
 -->
<!-- Title: searchparam_t Pages: 1 -->
<!--zoomable 804 -->
<svg id="main" version="1.1" xmlns="http://www.w3.org/2000/svg" xmlns:xlink="http://www.w3.org/1999/xlink" xml:space="preserve" onload="init(evt)">
        <defs>
                <circle id="rim" cx="0" cy="0" r="7"/>
                <circle id="rim2" cx="0" cy="0" r="3.5"/>
                <g id="zoomPlus">
                        <use xlink:href="#rim" fill="#404040">
                                <set attributeName="fill" to="#808080" begin="zoomplus.mouseover" end="zoomplus.mouseout"/>
                        </use>
                        <path d="M-4,0h8M0,-4v8" fill="none" stroke="white" stroke-width="1.5" pointer-events="none"/>
                </g>
                <g id="zoomMin">
                        <use xlink:href="#rim" fill="#404040">
                                <set attributeName="fill" to="#808080" begin="zoomminus.mouseover" end="zoomminus.mouseout"/>
                        </use>
                        <path d="M-4,0h8" fill="none" stroke="white" stroke-width="1.5" pointer-events="none"/>
                </g>
                <g id="dirArrow">
                        <path fill="none" stroke="white" stroke-width="1.5" d="M0,-3.0v7 M-2.5,-0.5L0,-3.0L2.5,-0.5"/>
                </g>
               <g id="resetDef">
                       <use xlink:href="#rim2" fill="#404040">
                               <set attributeName="fill" to="#808080" begin="reset.mouseover" end="reset.mouseout"/>
                       </use>
               </g>
        </defs>

<script type="text/javascript">
var viewWidth = 399;
var viewHeight = 804;
var sectionId = 'dynsection-0';
</script>
<script xlink:href="svgpan.js"/>
<svg id="graph" class="graph">
<g id="viewport">
<title>searchparam_t</title>
<polygon fill="white" stroke="white" points="-4,5 -4,-800 396,-800 396,5 -4,5"/>
<!-- Node1 -->
<g id="node1" class="node"><title>Node1</title>
<polygon fill="#bfbfbf" stroke="black" points="-0.5,-1 -0.5,-129 88.5,-129 88.5,-1 -0.5,-1"/>
<text text-anchor="middle" x="44" y="-116" font-family="FreeSans" font-size="10.00">searchparam_t</text>
<polyline fill="none" stroke="black" points="-0.5,-108 88.5,-108 "/>
<text text-anchor="start" x="7.5" y="-95" font-family="FreeSans" font-size="10.00">+ list</text>
<text text-anchor="start" x="7.5" y="-82" font-family="FreeSans" font-size="10.00">+ status</text>
<text text-anchor="start" x="7.5" y="-69" font-family="FreeSans" font-size="10.00">+ pktwqe</text>
<text text-anchor="start" x="7.5" y="-56" font-family="FreeSans" font-size="10.00">+ rptr</text>
<text text-anchor="start" x="7.5" y="-43" font-family="FreeSans" font-size="10.00">+ cb</text>
<text text-anchor="start" x="7.5" y="-30" font-family="FreeSans" font-size="10.00">+ cba</text>
<polyline fill="none" stroke="black" points="-0.5,-22 88.5,-22 "/>
<text text-anchor="middle" x="44" y="-9" font-family="FreeSans" font-size="10.00"> </text>
</g>
<!-- Node2 -->
<g id="node2" class="node"><title>Node2</title>
<a xlink:href="structppiovec__t.html" target="_top" xlink:title="{ppiovec_t\n|+ ptr\l+ len\l|}">
<polygon fill="white" stroke="black" points="31.5,-719 31.5,-795 94.5,-795 94.5,-719 31.5,-719"/>
<text text-anchor="middle" x="63" y="-782" font-family="FreeSans" font-size="10.00">ppiovec_t</text>
<polyline fill="none" stroke="black" points="31.5,-774 94.5,-774 "/>
<text text-anchor="start" x="39.5" y="-761" font-family="FreeSans" font-size="10.00">+ ptr</text>
<text text-anchor="start" x="39.5" y="-748" font-family="FreeSans" font-size="10.00">+ len</text>
<polyline fill="none" stroke="black" points="31.5,-740 94.5,-740 "/>
<text text-anchor="middle" x="63" y="-727" font-family="FreeSans" font-size="10.00"> </text>
</a>
</g>
<!-- Node2&#45;&gt;Node1 -->
<g id="edge2" class="edge"><title>Node2&#45;&gt;Node1</title>
<path fill="none" stroke="#404040" d="M35.9863,-718.858C19.2785,-691.545 1,-653.17 1,-616 1,-616 1,-616 1,-245 1,-210.243 8.67856,-172.718 17.5461,-140.971"/>
<polygon fill="none" stroke="#404040" points="17.6453,-140.629 15.4758,-133.752 20.9894,-129.104 23.1589,-135.982 17.6453,-140.629"/>
<text text-anchor="middle" x="14" y="-409.5" font-family="FreeSans" font-size="10.00"> input</text>
</g>
<!-- Node5 -->
<g id="node8" class="node"><title>Node5</title>
<a xlink:href="structhfa__output__t_1_1sparam__data__gather.html" target="_top" xlink:title="Output buffer &#45; gather mode.">
<polygon fill="white" stroke="black" points="112,-571.5 112,-660.5 232,-660.5 232,-571.5 112,-571.5"/>
<text text-anchor="start" x="120" y="-647.5" font-family="FreeSans" font-size="10.00">hfa_output_t::sparam</text>
<text text-anchor="middle" x="172" y="-634.5" font-family="FreeSans" font-size="10.00">_data_gather</text>
<polyline fill="none" stroke="black" points="112,-626.5 232,-626.5 "/>
<text text-anchor="start" x="120" y="-613.5" font-family="FreeSans" font-size="10.00">+ ioveclen</text>
<text text-anchor="start" x="120" y="-600.5" font-family="FreeSans" font-size="10.00">+ is_iovec</text>
<polyline fill="none" stroke="black" points="112,-592.5 232,-592.5 "/>
<text text-anchor="middle" x="172" y="-579.5" font-family="FreeSans" font-size="10.00"> </text>
</a>
</g>
<!-- Node2&#45;&gt;Node5 -->
<g id="edge10" class="edge"><title>Node2&#45;&gt;Node5</title>
<path fill="none" stroke="#404040" d="M92.497,-718.843C103.984,-703.985 117.362,-686.678 129.832,-670.548"/>
<polygon fill="none" stroke="#404040" points="130.114,-670.183 130.619,-662.989 137.453,-660.689 136.948,-667.882 130.114,-670.183"/>
<text text-anchor="middle" x="135.5" y="-690.5" font-family="FreeSans" font-size="10.00"> piovec</text>
</g>
<!-- Node7 -->
<g id="node13" class="node"><title>Node7</title>
<a xlink:href="structhfa__input__t.html" target="_top" xlink:title="Gather input search parameter.">
<polygon fill="white" stroke="black" points="28.5,-482.5 28.5,-545.5 97.5,-545.5 97.5,-482.5 28.5,-482.5"/>
<text text-anchor="middle" x="63" y="-532.5" font-family="FreeSans" font-size="10.00">hfa_input_t</text>
<polyline fill="none" stroke="black" points="28.5,-524.5 97.5,-524.5 "/>
<text text-anchor="start" x="36.5" y="-511.5" font-family="FreeSans" font-size="10.00">+ ioveclen</text>
<polyline fill="none" stroke="black" points="28.5,-503.5 97.5,-503.5 "/>
<text text-anchor="middle" x="63" y="-490.5" font-family="FreeSans" font-size="10.00"> </text>
</a>
</g>
<!-- Node2&#45;&gt;Node7 -->
<g id="edge16" class="edge"><title>Node2&#45;&gt;Node7</title>
<path fill="none" stroke="#404040" d="M63,-718.764C63,-675.149 63,-603.953 63,-558.05"/>
<polygon fill="none" stroke="#404040" points="63.0001,-557.817 59,-551.817 63,-545.817 67,-551.817 63.0001,-557.817"/>
<text text-anchor="middle" x="80.5" y="-690.5" font-family="FreeSans" font-size="10.00"> piovec</text>
</g>
<!-- Node3 -->
<g id="node4" class="node"><title>Node3</title>
<a xlink:href="structhfa__searchparams.html" target="_top" xlink:title="Search Parameters set by Application.">
<polygon fill="white" stroke="black" points="88.5,-181 88.5,-309 195.5,-309 195.5,-181 88.5,-181"/>
<text text-anchor="middle" x="142" y="-296" font-family="FreeSans" font-size="10.00">hfa_searchparams</text>
<polyline fill="none" stroke="black" points="88.5,-288 195.5,-288 "/>
<text text-anchor="start" x="96.5" y="-275" font-family="FreeSans" font-size="10.00">+ wqe</text>
<text text-anchor="start" x="96.5" y="-262" font-family="FreeSans" font-size="10.00">+ clusterno</text>
<text text-anchor="start" x="96.5" y="-249" font-family="FreeSans" font-size="10.00">+ input_0_n</text>
<text text-anchor="start" x="96.5" y="-236" font-family="FreeSans" font-size="10.00">+ input_n</text>
<text text-anchor="start" x="96.5" y="-223" font-family="FreeSans" font-size="10.00">+ matchcb</text>
<text text-anchor="start" x="96.5" y="-210" font-family="FreeSans" font-size="10.00">+ cbarg</text>
<polyline fill="none" stroke="black" points="88.5,-202 195.5,-202 "/>
<text text-anchor="middle" x="142" y="-189" font-family="FreeSans" font-size="10.00"> </text>
</a>
</g>
<!-- Node3&#45;&gt;Node1 -->
<g id="edge4" class="edge"><title>Node3&#45;&gt;Node1</title>
<path fill="none" stroke="#404040" d="M107.035,-180.778C99.8347,-167.554 92.1931,-153.518 84.807,-139.952"/>
<polygon fill="none" stroke="#404040" points="84.6898,-139.736 78.3077,-136.379 78.9517,-129.197 85.3338,-132.554 84.6898,-139.736"/>
<text text-anchor="middle" x="116" y="-152.5" font-family="FreeSans" font-size="10.00"> sparam</text>
</g>
<!-- Node4 -->
<g id="node6" class="node"><title>Node4</title>
<a xlink:href="unionhfa__output__t.html" target="_top" xlink:title="Output search parameter provided by application Depending upon used mode &#45; Single or Gather...">
<polygon fill="white" stroke="black" points="293.5,-361 293.5,-463 368.5,-463 368.5,-361 293.5,-361"/>
<text text-anchor="middle" x="331" y="-450" font-family="FreeSans" font-size="10.00">hfa_output_t</text>
<polyline fill="none" stroke="black" points="293.5,-442 368.5,-442 "/>
<text text-anchor="start" x="301.5" y="-429" font-family="FreeSans" font-size="10.00">+ ptr</text>
<text text-anchor="start" x="301.5" y="-416" font-family="FreeSans" font-size="10.00">+ length</text>
<text text-anchor="start" x="301.5" y="-403" font-family="FreeSans" font-size="10.00">+ is_iovec</text>
<text text-anchor="start" x="301.5" y="-390" font-family="FreeSans" font-size="10.00">+ @14</text>
<polyline fill="none" stroke="black" points="293.5,-382 368.5,-382 "/>
<text text-anchor="middle" x="331" y="-369" font-family="FreeSans" font-size="10.00"> </text>
</a>
</g>
<!-- Node4&#45;&gt;Node3 -->
<g id="edge6" class="edge"><title>Node4&#45;&gt;Node3</title>
<path fill="none" stroke="#404040" d="M293.386,-368.35C290.602,-365.472 287.791,-362.663 285,-360 260.167,-336.306 230.909,-312.188 205.348,-292.198"/>
<polygon fill="none" stroke="#404040" points="205.23,-292.106 198.037,-291.587 195.75,-284.749 202.942,-285.267 205.23,-292.106"/>
<text text-anchor="middle" x="278.5" y="-332.5" font-family="FreeSans" font-size="10.00"> output</text>
</g>
<!-- Node5&#45;&gt;Node4 -->
<g id="edge8" class="edge"><title>Node5&#45;&gt;Node4</title>
<path fill="none" stroke="#404040" d="M206.697,-571.483C229.883,-541.735 260.619,-502.3 285.726,-470.088"/>
<polygon fill="none" stroke="#404040" points="285.945,-469.806 286.479,-462.615 293.322,-460.341 292.789,-467.532 285.945,-469.806"/>
<text text-anchor="middle" x="279.5" y="-511.5" font-family="FreeSans" font-size="10.00"> g</text>
</g>
<!-- Node6 -->
<g id="node11" class="node"><title>Node6</title>
<a xlink:href="structhfa__output__t_1_1sparam__data__direct.html" target="_top" xlink:title="Direct output buffer (Non&#45;iovec)">
<polygon fill="white" stroke="black" points="271,-565 271,-667 391,-667 391,-565 271,-565"/>
<text text-anchor="start" x="279" y="-654" font-family="FreeSans" font-size="10.00">hfa_output_t::sparam</text>
<text text-anchor="middle" x="331" y="-641" font-family="FreeSans" font-size="10.00">_data_direct</text>
<polyline fill="none" stroke="black" points="271,-633 391,-633 "/>
<text text-anchor="start" x="279" y="-620" font-family="FreeSans" font-size="10.00">+ ptr</text>
<text text-anchor="start" x="279" y="-607" font-family="FreeSans" font-size="10.00">+ len</text>
<text text-anchor="start" x="279" y="-594" font-family="FreeSans" font-size="10.00">+ is_iovec</text>
<polyline fill="none" stroke="black" points="271,-586 391,-586 "/>
<text text-anchor="middle" x="331" y="-573" font-family="FreeSans" font-size="10.00"> </text>
</a>
</g>
<!-- Node6&#45;&gt;Node4 -->
<g id="edge12" class="edge"><title>Node6&#45;&gt;Node4</title>
<path fill="none" stroke="#404040" d="M331,-564.786C331,-537.625 331,-504.015 331,-475.239"/>
<polygon fill="none" stroke="#404040" points="331,-475.236 327,-469.236 331,-463.236 335,-469.236 331,-475.236"/>
<text text-anchor="middle" x="335.5" y="-511.5" font-family="FreeSans" font-size="10.00"> d</text>
</g>
<!-- Node7&#45;&gt;Node3 -->
<g id="edge14" class="edge"><title>Node7&#45;&gt;Node3</title>
<path fill="none" stroke="#404040" d="M60.4463,-482.232C58.9098,-450.522 59.271,-400.776 72,-360 76.2442,-346.404 82.4342,-332.765 89.4031,-319.873"/>
<polygon fill="none" stroke="#404040" points="89.5099,-319.684 88.98,-312.492 95.4146,-309.237 95.9445,-316.429 89.5099,-319.684"/>
<text text-anchor="middle" x="96.5" y="-416" font-family="FreeSans" font-size="10.00"> input_0_n</text>
<text text-anchor="middle" x="96.5" y="-403" font-family="FreeSans" font-size="10.00">input_n</text>
</g>
<!-- Node8 -->
<g id="node16" class="node"><title>Node8</title>
<a xlink:href="structhfa__search__hwpp__ofields__t.html" target="_top" xlink:title="HFA hardware and Post processing fields returned to Application.">
<polygon fill="white" stroke="black" points="130,-367.5 130,-456.5 276,-456.5 276,-367.5 130,-367.5"/>
<text text-anchor="middle" x="203" y="-443.5" font-family="FreeSans" font-size="10.00">hfa_search_hwpp_ofields_t</text>
<polyline fill="none" stroke="black" points="130,-435.5 276,-435.5 "/>
<text text-anchor="start" x="138" y="-422.5" font-family="FreeSans" font-size="10.00">+ reason</text>
<text text-anchor="start" x="138" y="-409.5" font-family="FreeSans" font-size="10.00">+ oflags</text>
<text text-anchor="start" x="138" y="-396.5" font-family="FreeSans" font-size="10.00">+ pdboffset</text>
<polyline fill="none" stroke="black" points="130,-388.5 276,-388.5 "/>
<text text-anchor="middle" x="203" y="-375.5" font-family="FreeSans" font-size="10.00"> </text>
</a>
</g>
<!-- Node8&#45;&gt;Node3 -->
<g id="edge18" class="edge"><title>Node8&#45;&gt;Node3</title>
<path fill="none" stroke="#404040" d="M186.653,-367.247C181.399,-352.864 175.426,-336.51 169.595,-320.548"/>
<polygon fill="none" stroke="#404040" points="169.504,-320.299 163.689,-316.036 165.387,-309.027 171.203,-313.291 169.504,-320.299"/>
<text text-anchor="middle" x="194.5" y="-332.5" font-family="FreeSans" font-size="10.00"> ofields</text>
</g>
</g>
</svg>
        <g id="navigator" transform="translate(0 0)" fill="#404254">
                <rect fill="#f2f5e9" fill-opacity="0.5" stroke="#606060" stroke-width=".5" x="0" y="0" width="60" height="60"/>
                <use id="zoomplus" xlink:href="#zoomPlus" x="17" y="9" onmousedown="handleZoom(evt,'in')"/>
                <use id="zoomminus" xlink:href="#zoomMin" x="42" y="9" onmousedown="handleZoom(evt,'out')"/>
                <use id="reset" xlink:href="#resetDef" x="30" y="36" onmousedown="handleReset()"/>
                <g id="arrowUp" xlink:href="#dirArrow" transform="translate(30 24)" onmousedown="handlePan(0,-1)">
                  <use xlink:href="#rim" fill="#404040">
                        <set attributeName="fill" to="#808080" begin="arrowUp.mouseover" end="arrowUp.mouseout"/>
                  </use>
                  <path fill="none" stroke="white" stroke-width="1.5" d="M0,-3.0v7 M-2.5,-0.5L0,-3.0L2.5,-0.5"/>
                </g>
                <g id="arrowRight" xlink:href="#dirArrow" transform="rotate(90) translate(36 -43)" onmousedown="handlePan(1,0)">
                  <use xlink:href="#rim" fill="#404040">
                        <set attributeName="fill" to="#808080" begin="arrowRight.mouseover" end="arrowRight.mouseout"/>
                  </use>
                  <path fill="none" stroke="white" stroke-width="1.5" d="M0,-3.0v7 M-2.5,-0.5L0,-3.0L2.5,-0.5"/>
                </g>
                <g id="arrowDown" xlink:href="#dirArrow" transform="rotate(180) translate(-30 -48)" onmousedown="handlePan(0,1)">
                  <use xlink:href="#rim" fill="#404040">
                        <set attributeName="fill" to="#808080" begin="arrowDown.mouseover" end="arrowDown.mouseout"/>
                  </use>
                  <path fill="none" stroke="white" stroke-width="1.5" d="M0,-3.0v7 M-2.5,-0.5L0,-3.0L2.5,-0.5"/>
                </g>
                <g id="arrowLeft" xlink:href="#dirArrow" transform="rotate(270) translate(-36 17)" onmousedown="handlePan(-1,0)">
                  <use xlink:href="#rim" fill="#404040">
                        <set attributeName="fill" to="#808080" begin="arrowLeft.mouseover" end="arrowLeft.mouseout"/>
                  </use>
                  <path fill="none" stroke="white" stroke-width="1.5" d="M0,-3.0v7 M-2.5,-0.5L0,-3.0L2.5,-0.5"/>
                </g>
        </g>
        <svg viewBox="0 0 15 15" width="100%" height="30px" preserveAspectRatio="xMaxYMin meet">
         <g id="arrow_out" transform="scale(0.3 0.3)">
          <a xlink:href="structsearchparam__t__coll__graph_org.svg" target="_base">
           <rect id="button" ry="5" rx="5" y="6" x="6" height="38" width="38"
                fill="#f2f5e9" fill-opacity="0.5" stroke="#606060" stroke-width="1.0"/>
           <path id="arrow"
             d="M 11.500037,31.436501 C 11.940474,20.09759 22.043105,11.32322 32.158766,21.979434 L 37.068811,17.246167 C 37.068811,17.246167 37.088388,32 37.088388,32 L 22.160133,31.978069 C 22.160133,31.978069 26.997745,27.140456 26.997745,27.140456 C 18.528582,18.264221 13.291696,25.230495 11.500037,31.436501 z"
             style="fill:#404040;"/>
          </a>
         </g>
        </svg>
</svg>
