<?xml version="1.0" encoding="UTF-8" standalone="no"?>
<!DOCTYPE svg PUBLIC "-//W3C//DTD SVG 1.1//EN"
 "http://www.w3.org/Graphics/SVG/1.1/DTD/svg11.dtd">
<!-- Generated by graphviz version 2.24.0 (20090616.2323)
 -->
<!-- Title: hfa_input_t Pages: 1 -->
<svg width="77pt" height="200pt"
 viewBox="0.00 0.00 77.00 200.00" xmlns="http://www.w3.org/2000/svg" xmlns:xlink="http://www.w3.org/1999/xlink">
<g id="graph1" class="graph" transform="scale(1 1) rotate(0) translate(4 196)">
<title>hfa_input_t</title>
<polygon fill="white" stroke="white" points="-4,5 -4,-196 74,-196 74,5 -4,5"/>
<!-- Node1 -->
<g id="node1" class="node"><title>Node1</title>
<polygon fill="#bfbfbf" stroke="black" points="-0.5,-0.5 -0.5,-63.5 68.5,-63.5 68.5,-0.5 -0.5,-0.5"/>
<text text-anchor="middle" x="34" y="-50.5" font-family="FreeSans" font-size="10.00">hfa_input_t</text>
<polyline fill="none" stroke="black" points="-0.5,-42.5 68.5,-42.5 "/>
<text text-anchor="start" x="7.5" y="-29.5" font-family="FreeSans" font-size="10.00">+ ioveclen</text>
<polyline fill="none" stroke="black" points="-0.5,-21.5 68.5,-21.5 "/>
<text text-anchor="middle" x="34" y="-8.5" font-family="FreeSans" font-size="10.00"> </text>
</g>
<!-- Node2 -->
<g id="node2" class="node"><title>Node2</title>
<a xlink:href="structppiovec__t.html" target="_top" xlink:title="{ppiovec_t\n|+ ptr\l+ len\l|}">
<polygon fill="white" stroke="black" points="2.5,-115 2.5,-191 65.5,-191 65.5,-115 2.5,-115"/>
<text text-anchor="middle" x="34" y="-178" font-family="FreeSans" font-size="10.00">ppiovec_t</text>
<polyline fill="none" stroke="black" points="2.5,-170 65.5,-170 "/>
<text text-anchor="start" x="10.5" y="-157" font-family="FreeSans" font-size="10.00">+ ptr</text>
<text text-anchor="start" x="10.5" y="-144" font-family="FreeSans" font-size="10.00">+ len</text>
<polyline fill="none" stroke="black" points="2.5,-136 65.5,-136 "/>
<text text-anchor="middle" x="34" y="-123" font-family="FreeSans" font-size="10.00"> </text>
</a>
</g>
<!-- Node2&#45;&gt;Node1 -->
<g id="edge2" class="edge"><title>Node2&#45;&gt;Node1</title>
<path fill="none" stroke="#404040" d="M34,-114.715C34,-102.356 34,-88.5611 34,-75.8335"/>
<polygon fill="none" stroke="#404040" points="34.0001,-75.5543 30,-69.5544 34,-63.5543 38,-69.5543 34.0001,-75.5543"/>
<text text-anchor="middle" x="51.5" y="-86.5" font-family="FreeSans" font-size="10.00"> piovec</text>
</g>
</g>
</svg>
