<?xml version="1.0" encoding="UTF-8" standalone="no"?>
<!DOCTYPE svg PUBLIC "-//W3C//DTD SVG 1.1//EN"
 "http://www.w3.org/Graphics/SVG/1.1/DTD/svg11.dtd">
<!-- Generated by graphviz version 2.24.0 (20090616.2323)
 -->
<!-- Title: hfa_ctx_t Pages: 1 -->
<!--zoomable 1330 -->
<svg id="main" version="1.1" xmlns="http://www.w3.org/2000/svg" xmlns:xlink="http://www.w3.org/1999/xlink" xml:space="preserve" onload="init(evt)">
        <defs>
                <circle id="rim" cx="0" cy="0" r="7"/>
                <circle id="rim2" cx="0" cy="0" r="3.5"/>
                <g id="zoomPlus">
                        <use xlink:href="#rim" fill="#404040">
                                <set attributeName="fill" to="#808080" begin="zoomplus.mouseover" end="zoomplus.mouseout"/>
                        </use>
                        <path d="M-4,0h8M0,-4v8" fill="none" stroke="white" stroke-width="1.5" pointer-events="none"/>
                </g>
                <g id="zoomMin">
                        <use xlink:href="#rim" fill="#404040">
                                <set attributeName="fill" to="#808080" begin="zoomminus.mouseover" end="zoomminus.mouseout"/>
                        </use>
                        <path d="M-4,0h8" fill="none" stroke="white" stroke-width="1.5" pointer-events="none"/>
                </g>
                <g id="dirArrow">
                        <path fill="none" stroke="white" stroke-width="1.5" d="M0,-3.0v7 M-2.5,-0.5L0,-3.0L2.5,-0.5"/>
                </g>
               <g id="resetDef">
                       <use xlink:href="#rim2" fill="#404040">
                               <set attributeName="fill" to="#808080" begin="reset.mouseover" end="reset.mouseout"/>
                       </use>
               </g>
        </defs>

<script type="text/javascript">
var viewWidth = 815;
var viewHeight = 1330;
var sectionId = 'dynsection-0';
</script>
<script xlink:href="svgpan.js"/>
<svg id="graph" class="graph">
<g id="viewport">
<title>hfa_ctx_t</title>
<polygon fill="white" stroke="white" points="-4,5 -4,-1326 812,-1326 812,5 -4,5"/>
<!-- Node1 -->
<g id="node1" class="node"><title>Node1</title>
<polygon fill="#bfbfbf" stroke="black" points="124.5,-0.5 124.5,-141.5 213.5,-141.5 213.5,-0.5 124.5,-0.5"/>
<text text-anchor="middle" x="169" y="-128.5" font-family="FreeSans" font-size="10.00">hfa_ctx_t</text>
<polyline fill="none" stroke="black" points="124.5,-120.5 213.5,-120.5 "/>
<text text-anchor="start" x="132.5" y="-107.5" font-family="FreeSans" font-size="10.00">+ curr_payload</text>
<text text-anchor="start" x="132.5" y="-94.5" font-family="FreeSans" font-size="10.00">+ curr_psize</text>
<text text-anchor="start" x="132.5" y="-81.5" font-family="FreeSans" font-size="10.00">+ lock</text>
<text text-anchor="start" x="132.5" y="-68.5" font-family="FreeSans" font-size="10.00">+ ctxid</text>
<text text-anchor="start" x="132.5" y="-55.5" font-family="FreeSans" font-size="10.00">+ rptr</text>
<text text-anchor="start" x="132.5" y="-42.5" font-family="FreeSans" font-size="10.00">+ ctx_status</text>
<text text-anchor="start" x="132.5" y="-29.5" font-family="FreeSans" font-size="10.00">+ status</text>
<polyline fill="none" stroke="black" points="124.5,-21.5 213.5,-21.5 "/>
<text text-anchor="middle" x="169" y="-8.5" font-family="FreeSans" font-size="10.00"> </text>
</g>
<!-- Node2 -->
<g id="node2" class="node"><title>Node2</title>
<a xlink:href="structppiovec__t.html" target="_top" xlink:title="{ppiovec_t\n|+ ptr\l+ len\l|}">
<polygon fill="white" stroke="black" points="8.5,-944 8.5,-1020 71.5,-1020 71.5,-944 8.5,-944"/>
<text text-anchor="middle" x="40" y="-1007" font-family="FreeSans" font-size="10.00">ppiovec_t</text>
<polyline fill="none" stroke="black" points="8.5,-999 71.5,-999 "/>
<text text-anchor="start" x="16.5" y="-986" font-family="FreeSans" font-size="10.00">+ ptr</text>
<text text-anchor="start" x="16.5" y="-973" font-family="FreeSans" font-size="10.00">+ len</text>
<polyline fill="none" stroke="black" points="8.5,-965 71.5,-965 "/>
<text text-anchor="middle" x="40" y="-952" font-family="FreeSans" font-size="10.00"> </text>
</a>
</g>
<!-- Node2&#45;&gt;Node1 -->
<g id="edge2" class="edge"><title>Node2&#45;&gt;Node1</title>
<path fill="none" stroke="#404040" d="M28.9639,-943.749C17.1242,-899.271 0,-823.456 0,-757 0,-757 0,-757 0,-257 0,-187.958 64.5746,-133.201 113.891,-101.45"/>
<polygon fill="none" stroke="#404040" points="113.983,-101.393 116.947,-94.8188 124.155,-95.0265 121.191,-101.6 113.983,-101.393"/>
<text text-anchor="middle" x="14.5" y="-466.5" font-family="FreeSans" font-size="10.00"> iovec</text>
</g>
<!-- Node17 -->
<g id="node32" class="node"><title>Node17</title>
<a xlink:href="structhfa__output__t_1_1sparam__data__gather.html" target="_top" xlink:title="Output buffer &#45; gather mode.">
<polygon fill="white" stroke="black" points="206,-712.5 206,-801.5 326,-801.5 326,-712.5 206,-712.5"/>
<text text-anchor="start" x="214" y="-788.5" font-family="FreeSans" font-size="10.00">hfa_output_t::sparam</text>
<text text-anchor="middle" x="266" y="-775.5" font-family="FreeSans" font-size="10.00">_data_gather</text>
<polyline fill="none" stroke="black" points="206,-767.5 326,-767.5 "/>
<text text-anchor="start" x="214" y="-754.5" font-family="FreeSans" font-size="10.00">+ ioveclen</text>
<text text-anchor="start" x="214" y="-741.5" font-family="FreeSans" font-size="10.00">+ is_iovec</text>
<polyline fill="none" stroke="black" points="206,-733.5 326,-733.5 "/>
<text text-anchor="middle" x="266" y="-720.5" font-family="FreeSans" font-size="10.00"> </text>
</a>
</g>
<!-- Node2&#45;&gt;Node17 -->
<g id="edge34" class="edge"><title>Node2&#45;&gt;Node17</title>
<path fill="none" stroke="#404040" d="M71.5358,-958.379C104.544,-932.926 157.03,-890.348 197,-848 207.631,-836.737 218.199,-823.874 227.752,-811.436"/>
<polygon fill="none" stroke="#404040" points="227.951,-811.172 228.371,-803.973 235.178,-801.592 234.758,-808.791 227.951,-811.172"/>
<text text-anchor="middle" x="195.5" y="-870.5" font-family="FreeSans" font-size="10.00"> piovec</text>
</g>
<!-- Node19 -->
<g id="node37" class="node"><title>Node19</title>
<a xlink:href="structhfa__input__t.html" target="_top" xlink:title="Gather input search parameter.">
<polygon fill="white" stroke="black" points="22.5,-584.5 22.5,-647.5 91.5,-647.5 91.5,-584.5 22.5,-584.5"/>
<text text-anchor="middle" x="57" y="-634.5" font-family="FreeSans" font-size="10.00">hfa_input_t</text>
<polyline fill="none" stroke="black" points="22.5,-626.5 91.5,-626.5 "/>
<text text-anchor="start" x="30.5" y="-613.5" font-family="FreeSans" font-size="10.00">+ ioveclen</text>
<polyline fill="none" stroke="black" points="22.5,-605.5 91.5,-605.5 "/>
<text text-anchor="middle" x="57" y="-592.5" font-family="FreeSans" font-size="10.00"> </text>
</a>
</g>
<!-- Node2&#45;&gt;Node19 -->
<g id="edge40" class="edge"><title>Node2&#45;&gt;Node19</title>
<path fill="none" stroke="#404040" d="M41.7712,-943.867C44.9481,-875.471 51.5963,-732.339 54.959,-659.942"/>
<polygon fill="none" stroke="#404040" points="54.9708,-659.685 51.2536,-653.506 55.5277,-647.698 59.2449,-653.877 54.9708,-659.685"/>
<text text-anchor="middle" x="63.5" y="-870.5" font-family="FreeSans" font-size="10.00"> piovec</text>
</g>
<!-- Node3 -->
<g id="node4" class="node"><title>Node3</title>
<a xlink:href="structhfa__searchctx.html" target="_top" xlink:title="Search context data structure.">
<polygon fill="white" stroke="black" points="409.5,-219 409.5,-295 494.5,-295 494.5,-219 409.5,-219"/>
<text text-anchor="middle" x="452" y="-282" font-family="FreeSans" font-size="10.00">hfa_searchctx</text>
<polyline fill="none" stroke="black" points="409.5,-274 494.5,-274 "/>
<text text-anchor="start" x="417.5" y="-261" font-family="FreeSans" font-size="10.00">+ flags</text>
<text text-anchor="start" x="417.5" y="-248" font-family="FreeSans" font-size="10.00">+ ctx_status</text>
<polyline fill="none" stroke="black" points="409.5,-240 494.5,-240 "/>
<text text-anchor="middle" x="452" y="-227" font-family="FreeSans" font-size="10.00"> </text>
</a>
</g>
<!-- Node3&#45;&gt;Node1 -->
<g id="edge4" class="edge"><title>Node3&#45;&gt;Node1</title>
<path fill="none" stroke="#404040" d="M409.326,-228.953C359.859,-196.441 278.21,-142.777 224.015,-107.159"/>
<polygon fill="none" stroke="#404040" points="223.923,-107.098 216.712,-107.145 213.895,-100.507 221.106,-100.46 223.923,-107.098"/>
<text text-anchor="middle" x="330.5" y="-164.5" font-family="FreeSans" font-size="10.00"> sctx</text>
</g>
<!-- Node4 -->
<g id="node6" class="node"><title>Node4</title>
<a xlink:href="structhfa__graph__t.html" target="_top" xlink:title="Graph structure.">
<polygon fill="white" stroke="black" points="388,-372.5 388,-565.5 516,-565.5 516,-372.5 388,-372.5"/>
<text text-anchor="middle" x="452" y="-552.5" font-family="FreeSans" font-size="10.00">hfa_graph_t</text>
<polyline fill="none" stroke="black" points="388,-544.5 516,-544.5 "/>
<text text-anchor="start" x="396" y="-531.5" font-family="FreeSans" font-size="10.00">+ list</text>
<text text-anchor="start" x="396" y="-518.5" font-family="FreeSans" font-size="10.00">+ lock</text>
<text text-anchor="start" x="396" y="-505.5" font-family="FreeSans" font-size="10.00">+ isinit</text>
<text text-anchor="start" x="396" y="-492.5" font-family="FreeSans" font-size="10.00">+ info</text>
<text text-anchor="start" x="396" y="-479.5" font-family="FreeSans" font-size="10.00">+ state</text>
<text text-anchor="start" x="396" y="-466.5" font-family="FreeSans" font-size="10.00">+ gtype</text>
<text text-anchor="start" x="396" y="-453.5" font-family="FreeSans" font-size="10.00">+ curr_seek</text>
<text text-anchor="start" x="396" y="-440.5" font-family="FreeSans" font-size="10.00">+ totlen</text>
<text text-anchor="start" x="396" y="-427.5" font-family="FreeSans" font-size="10.00">+ clmsk</text>
<text text-anchor="start" x="396" y="-414.5" font-family="FreeSans" font-size="10.00">+ submittedinstr_clmsk</text>
<text text-anchor="start" x="396" y="-401.5" font-family="FreeSans" font-size="10.00">and 13 more...</text>
<polyline fill="none" stroke="black" points="388,-393.5 516,-393.5 "/>
<text text-anchor="middle" x="452" y="-380.5" font-family="FreeSans" font-size="10.00"> </text>
</a>
</g>
<!-- Node4&#45;&gt;Node3 -->
<g id="edge6" class="edge"><title>Node4&#45;&gt;Node3</title>
<path fill="none" stroke="#404040" d="M452,-372.306C452,-349.91 452,-326.956 452,-307.485"/>
<polygon fill="none" stroke="#404040" points="452,-307.232 448,-301.232 452,-295.232 456,-301.232 452,-307.232"/>
<text text-anchor="middle" x="470.5" y="-344.5" font-family="FreeSans" font-size="10.00"> pgraph</text>
</g>
<!-- Node5 -->
<g id="node8" class="node"><title>Node5</title>
<a xlink:href="structppinfo__t.html" target="_top" xlink:title="{ppinfo_t\n|+ base\l+ snode\l+ snode2\l+ info\l|}">
<polygon fill="white" stroke="black" points="421,-706 421,-808 483,-808 483,-706 421,-706"/>
<text text-anchor="middle" x="452" y="-795" font-family="FreeSans" font-size="10.00">ppinfo_t</text>
<polyline fill="none" stroke="black" points="421,-787 483,-787 "/>
<text text-anchor="start" x="429" y="-774" font-family="FreeSans" font-size="10.00">+ base</text>
<text text-anchor="start" x="429" y="-761" font-family="FreeSans" font-size="10.00">+ snode</text>
<text text-anchor="start" x="429" y="-748" font-family="FreeSans" font-size="10.00">+ snode2</text>
<text text-anchor="start" x="429" y="-735" font-family="FreeSans" font-size="10.00">+ info</text>
<polyline fill="none" stroke="black" points="421,-727 483,-727 "/>
<text text-anchor="middle" x="452" y="-714" font-family="FreeSans" font-size="10.00"> </text>
</a>
</g>
<!-- Node5&#45;&gt;Node4 -->
<g id="edge8" class="edge"><title>Node5&#45;&gt;Node4</title>
<path fill="none" stroke="#404040" d="M452,-705.843C452,-670.383 452,-621.83 452,-577.913"/>
<polygon fill="none" stroke="#404040" points="452,-577.663 448,-571.663 452,-565.663 456,-571.663 452,-577.663"/>
<text text-anchor="middle" x="458" y="-613.5" font-family="FreeSans" font-size="10.00"> irt</text>
</g>
<!-- Node6 -->
<g id="node10" class="node"><title>Node6</title>
<a xlink:href="structpp__tstamp__t.html" target="_top" xlink:title="{pp_tstamp_t\n|+ version\l+ uuid\l|}">
<polygon fill="white" stroke="black" points="427.5,-944 427.5,-1020 502.5,-1020 502.5,-944 427.5,-944"/>
<text text-anchor="middle" x="465" y="-1007" font-family="FreeSans" font-size="10.00">pp_tstamp_t</text>
<polyline fill="none" stroke="black" points="427.5,-999 502.5,-999 "/>
<text text-anchor="start" x="435.5" y="-986" font-family="FreeSans" font-size="10.00">+ version</text>
<text text-anchor="start" x="435.5" y="-973" font-family="FreeSans" font-size="10.00">+ uuid</text>
<polyline fill="none" stroke="black" points="427.5,-965 502.5,-965 "/>
<text text-anchor="middle" x="465" y="-952" font-family="FreeSans" font-size="10.00"> </text>
</a>
</g>
<!-- Node6&#45;&gt;Node5 -->
<g id="edge10" class="edge"><title>Node6&#45;&gt;Node5</title>
<path fill="none" stroke="#404040" d="M462.795,-943.832C460.838,-909.972 457.943,-859.852 455.643,-820.045"/>
<polygon fill="none" stroke="#404040" points="455.642,-820.032 451.302,-814.272 454.95,-808.052 459.289,-813.811 455.642,-820.032"/>
<text text-anchor="middle" x="475.5" y="-870.5" font-family="FreeSans" font-size="10.00"> stamp</text>
</g>
<!-- Node7 -->
<g id="node12" class="node"><title>Node7</title>
<a xlink:href="structpp__tstampopt__t.html" target="_top" xlink:title="{pp_tstampopt_t\n|+ linkable\l+ memonly\l+ cachealgo\l+ dfa\l+ strings\l+ cachesize\l+ target\l+ optlevel\l+ unused1\l+ linked\land 7 more...\l|}">
<polygon fill="white" stroke="black" points="421,-1128.5 421,-1321.5 511,-1321.5 511,-1128.5 421,-1128.5"/>
<text text-anchor="middle" x="466" y="-1308.5" font-family="FreeSans" font-size="10.00">pp_tstampopt_t</text>
<polyline fill="none" stroke="black" points="421,-1300.5 511,-1300.5 "/>
<text text-anchor="start" x="429" y="-1287.5" font-family="FreeSans" font-size="10.00">+ linkable</text>
<text text-anchor="start" x="429" y="-1274.5" font-family="FreeSans" font-size="10.00">+ memonly</text>
<text text-anchor="start" x="429" y="-1261.5" font-family="FreeSans" font-size="10.00">+ cachealgo</text>
<text text-anchor="start" x="429" y="-1248.5" font-family="FreeSans" font-size="10.00">+ dfa</text>
<text text-anchor="start" x="429" y="-1235.5" font-family="FreeSans" font-size="10.00">+ strings</text>
<text text-anchor="start" x="429" y="-1222.5" font-family="FreeSans" font-size="10.00">+ cachesize</text>
<text text-anchor="start" x="429" y="-1209.5" font-family="FreeSans" font-size="10.00">+ target</text>
<text text-anchor="start" x="429" y="-1196.5" font-family="FreeSans" font-size="10.00">+ optlevel</text>
<text text-anchor="start" x="429" y="-1183.5" font-family="FreeSans" font-size="10.00">+ unused1</text>
<text text-anchor="start" x="429" y="-1170.5" font-family="FreeSans" font-size="10.00">+ linked</text>
<text text-anchor="start" x="429" y="-1157.5" font-family="FreeSans" font-size="10.00">and 7 more...</text>
<polyline fill="none" stroke="black" points="421,-1149.5 511,-1149.5 "/>
<text text-anchor="middle" x="466" y="-1136.5" font-family="FreeSans" font-size="10.00"> </text>
</a>
</g>
<!-- Node7&#45;&gt;Node6 -->
<g id="edge12" class="edge"><title>Node7&#45;&gt;Node6</title>
<path fill="none" stroke="#404040" d="M465.602,-1128.26C465.467,-1095.44 465.321,-1060.09 465.207,-1032.37"/>
<polygon fill="none" stroke="#404040" points="465.207,-1032.21 461.182,-1026.23 465.157,-1020.21 469.182,-1026.19 465.207,-1032.21"/>
<text text-anchor="middle" x="485" y="-1094.5" font-family="FreeSans" font-size="10.00"> options</text>
</g>
<!-- Node8 -->
<g id="node14" class="node"><title>Node8</title>
<a xlink:href="structhfa__dev.html" target="_top" xlink:title="HFA Device Structure.">
<polygon fill="white" stroke="black" points="346.5,-725.5 346.5,-788.5 401.5,-788.5 401.5,-725.5 346.5,-725.5"/>
<text text-anchor="middle" x="374" y="-775.5" font-family="FreeSans" font-size="10.00">hfa_dev</text>
<polyline fill="none" stroke="black" points="346.5,-767.5 401.5,-767.5 "/>
<text text-anchor="start" x="354.5" y="-754.5" font-family="FreeSans" font-size="10.00">+ punit</text>
<polyline fill="none" stroke="black" points="346.5,-746.5 401.5,-746.5 "/>
<text text-anchor="middle" x="374" y="-733.5" font-family="FreeSans" font-size="10.00"> </text>
</a>
</g>
<!-- Node8&#45;&gt;Node4 -->
<g id="edge14" class="edge"><title>Node8&#45;&gt;Node4</title>
<path fill="none" stroke="#404040" d="M382.57,-725.355C392.192,-689.831 408.33,-630.244 422.627,-577.455"/>
<polygon fill="none" stroke="#404040" points="422.698,-577.19 420.406,-570.353 425.835,-565.607 428.128,-572.444 422.698,-577.19"/>
<text text-anchor="middle" x="433.5" y="-613.5" font-family="FreeSans" font-size="10.00"> pdev</text>
</g>
<!-- Node9 -->
<g id="node16" class="node"><title>Node9</title>
<a xlink:href="structhfa__devinfo__t.html" target="_top" xlink:title="HFA Device Info.">
<polygon fill="white" stroke="black" points="303,-898.5 303,-1065.5 407,-1065.5 407,-898.5 303,-898.5"/>
<text text-anchor="middle" x="355" y="-1052.5" font-family="FreeSans" font-size="10.00">hfa_devinfo_t</text>
<polyline fill="none" stroke="black" points="303,-1044.5 407,-1044.5 "/>
<text text-anchor="start" x="311" y="-1031.5" font-family="FreeSans" font-size="10.00">+ hwhasownmem</text>
<text text-anchor="start" x="311" y="-1018.5" font-family="FreeSans" font-size="10.00">+ name</text>
<text text-anchor="start" x="311" y="-1005.5" font-family="FreeSans" font-size="10.00">+ nclusters</text>
<text text-anchor="start" x="311" y="-992.5" font-family="FreeSans" font-size="10.00">+ clmsk</text>
<text text-anchor="start" x="311" y="-979.5" font-family="FreeSans" font-size="10.00">+ chipid</text>
<text text-anchor="start" x="311" y="-966.5" font-family="FreeSans" font-size="10.00">+ pass</text>
<text text-anchor="start" x="311" y="-953.5" font-family="FreeSans" font-size="10.00">+ minfo</text>
<text text-anchor="start" x="311" y="-940.5" font-family="FreeSans" font-size="10.00">+ cinfo</text>
<text text-anchor="start" x="311" y="-927.5" font-family="FreeSans" font-size="10.00">+ mbasealignbits</text>
<polyline fill="none" stroke="black" points="303,-919.5 407,-919.5 "/>
<text text-anchor="middle" x="355" y="-906.5" font-family="FreeSans" font-size="10.00"> </text>
</a>
</g>
<!-- Node9&#45;&gt;Node8 -->
<g id="edge16" class="edge"><title>Node9&#45;&gt;Node8</title>
<path fill="none" stroke="#404040" d="M362.075,-898.218C364.875,-865.064 367.976,-828.342 370.313,-800.658"/>
<polygon fill="none" stroke="#404040" points="370.32,-800.576 366.839,-794.261 371.33,-788.619 374.811,-794.934 370.32,-800.576"/>
<text text-anchor="middle" x="384.5" y="-870.5" font-family="FreeSans" font-size="10.00"> devinfo</text>
</g>
<!-- Node10 -->
<g id="node18" class="node"><title>Node10</title>
<a xlink:href="structhfa__memchunk__t.html" target="_top" xlink:title="Memory Chunk attributes.">
<polygon fill="white" stroke="black" points="303,-1187 303,-1263 403,-1263 403,-1187 303,-1187"/>
<text text-anchor="middle" x="353" y="-1250" font-family="FreeSans" font-size="10.00">hfa_memchunk_t</text>
<polyline fill="none" stroke="black" points="303,-1242 403,-1242 "/>
<text text-anchor="start" x="311" y="-1229" font-family="FreeSans" font-size="10.00">+ addr</text>
<text text-anchor="start" x="311" y="-1216" font-family="FreeSans" font-size="10.00">+ size</text>
<polyline fill="none" stroke="black" points="303,-1208 403,-1208 "/>
<text text-anchor="middle" x="353" y="-1195" font-family="FreeSans" font-size="10.00"> </text>
</a>
</g>
<!-- Node10&#45;&gt;Node9 -->
<g id="edge18" class="edge"><title>Node10&#45;&gt;Node9</title>
<path fill="none" stroke="#404040" d="M353.315,-1186.76C353.555,-1157.52 353.898,-1115.87 354.212,-1077.76"/>
<polygon fill="none" stroke="#404040" points="354.214,-1077.53 350.263,-1071.5 354.312,-1065.53 358.263,-1071.57 354.214,-1077.53"/>
<text text-anchor="middle" x="370.5" y="-1101" font-family="FreeSans" font-size="10.00"> minfo</text>
<text text-anchor="middle" x="370.5" y="-1088" font-family="FreeSans" font-size="10.00">cinfo</text>
</g>
<!-- Node11 -->
<g id="node20" class="node"><title>Node11</title>
<a xlink:href="structhfa__savedsearchctx.html" target="_top" xlink:title="Hardware and software search context.">
<polygon fill="white" stroke="black" points="577,-437.5 577,-500.5 691,-500.5 691,-437.5 577,-437.5"/>
<text text-anchor="middle" x="634" y="-487.5" font-family="FreeSans" font-size="10.00">hfa_savedsearchctx</text>
<polyline fill="none" stroke="black" points="577,-479.5 691,-479.5 "/>
<text text-anchor="middle" x="634" y="-466.5" font-family="FreeSans" font-size="10.00"> </text>
<polyline fill="none" stroke="black" points="577,-458.5 691,-458.5 "/>
<text text-anchor="middle" x="634" y="-445.5" font-family="FreeSans" font-size="10.00"> </text>
</a>
</g>
<!-- Node11&#45;&gt;Node3 -->
<g id="edge20" class="edge"><title>Node11&#45;&gt;Node3</title>
<path fill="none" stroke="#404040" d="M606.753,-437.261C576.486,-402.005 527.309,-344.722 492.524,-304.204"/>
<polygon fill="none" stroke="#404040" points="492.49,-304.164 485.547,-302.217 484.673,-295.059 491.617,-297.006 492.49,-304.164"/>
<text text-anchor="middle" x="555.5" y="-344.5" font-family="FreeSans" font-size="10.00"> savedctx</text>
</g>
<!-- Node12 -->
<g id="node22" class="node"><title>Node12</title>
<a xlink:href="unioncvm__hfa__snode__t.html" target="_top" xlink:title="Type for saved node data(WORD0).">
<polygon fill="white" stroke="black" points="501,-667 501,-847 603,-847 603,-667 501,-667"/>
<text text-anchor="middle" x="552" y="-834" font-family="FreeSans" font-size="10.00">cvm_hfa_snode_t</text>
<polyline fill="none" stroke="black" points="501,-826 603,-826 "/>
<text text-anchor="start" x="509" y="-813" font-family="FreeSans" font-size="10.00">+ u64</text>
<text text-anchor="start" x="509" y="-800" font-family="FreeSans" font-size="10.00">+ zerobdn</text>
<text text-anchor="start" x="509" y="-787" font-family="FreeSans" font-size="10.00">+ nbdnodes</text>
<text text-anchor="start" x="509" y="-774" font-family="FreeSans" font-size="10.00">+ ndnodes</text>
<text text-anchor="start" x="509" y="-761" font-family="FreeSans" font-size="10.00">+ dnodeid</text>
<text text-anchor="start" x="509" y="-748" font-family="FreeSans" font-size="10.00">+ hash</text>
<text text-anchor="start" x="509" y="-735" font-family="FreeSans" font-size="10.00">+ ntype</text>
<text text-anchor="start" x="509" y="-722" font-family="FreeSans" font-size="10.00">+ smdtomtype</text>
<text text-anchor="start" x="509" y="-709" font-family="FreeSans" font-size="10.00">+ nextnode</text>
<text text-anchor="start" x="509" y="-696" font-family="FreeSans" font-size="10.00">+ s</text>
<polyline fill="none" stroke="black" points="501,-688 603,-688 "/>
<text text-anchor="middle" x="552" y="-675" font-family="FreeSans" font-size="10.00"> </text>
</a>
</g>
<!-- Node12&#45;&gt;Node11 -->
<g id="edge22" class="edge"><title>Node12&#45;&gt;Node11</title>
<path fill="none" stroke="#404040" d="M577.72,-666.665C592.394,-615.127 610.116,-552.887 621.701,-512.195"/>
<polygon fill="none" stroke="#404040" points="621.731,-512.091 619.527,-505.225 625.017,-500.55 627.221,-507.416 621.731,-512.091"/>
<text text-anchor="middle" x="616.5" y="-613.5" font-family="FreeSans" font-size="10.00"> enode</text>
</g>
<!-- Node13 -->
<g id="node24" class="node"><title>Node13</title>
<a xlink:href="unioncvm__hfa__snode2__t.html" target="_top" xlink:title="Type for saved node data(WORD1).">
<polygon fill="white" stroke="black" points="621,-699.5 621,-814.5 729,-814.5 729,-699.5 621,-699.5"/>
<text text-anchor="middle" x="675" y="-801.5" font-family="FreeSans" font-size="10.00">cvm_hfa_snode2_t</text>
<polyline fill="none" stroke="black" points="621,-793.5 729,-793.5 "/>
<text text-anchor="start" x="629" y="-780.5" font-family="FreeSans" font-size="10.00">+ u64</text>
<text text-anchor="start" x="629" y="-767.5" font-family="FreeSans" font-size="10.00">+ rsvd0</text>
<text text-anchor="start" x="629" y="-754.5" font-family="FreeSans" font-size="10.00">+ srepl</text>
<text text-anchor="start" x="629" y="-741.5" font-family="FreeSans" font-size="10.00">+ rsvd1</text>
<text text-anchor="start" x="629" y="-728.5" font-family="FreeSans" font-size="10.00">+ s</text>
<polyline fill="none" stroke="black" points="621,-720.5 729,-720.5 "/>
<text text-anchor="middle" x="675" y="-707.5" font-family="FreeSans" font-size="10.00"> </text>
</a>
</g>
<!-- Node13&#45;&gt;Node11 -->
<g id="edge24" class="edge"><title>Node13&#45;&gt;Node11</title>
<path fill="none" stroke="#404040" d="M666.802,-699.411C658.96,-644.328 647.307,-562.476 640.207,-512.604"/>
<polygon fill="none" stroke="#404040" points="640.197,-512.529 635.391,-507.153 638.506,-500.649 643.311,-506.026 640.197,-512.529"/>
<text text-anchor="middle" x="678.5" y="-613.5" font-family="FreeSans" font-size="10.00"> enode2</text>
</g>
<!-- Node14 -->
<g id="node26" class="node"><title>Node14</title>
<a xlink:href="structppstate__t.html" target="_top" xlink:title="{ppstate_t\n|+ state\l|}">
<polygon fill="white" stroke="black" points="747,-725.5 747,-788.5 807,-788.5 807,-725.5 747,-725.5"/>
<text text-anchor="middle" x="777" y="-775.5" font-family="FreeSans" font-size="10.00">ppstate_t</text>
<polyline fill="none" stroke="black" points="747,-767.5 807,-767.5 "/>
<text text-anchor="start" x="755" y="-754.5" font-family="FreeSans" font-size="10.00">+ state</text>
<polyline fill="none" stroke="black" points="747,-746.5 807,-746.5 "/>
<text text-anchor="middle" x="777" y="-733.5" font-family="FreeSans" font-size="10.00"> </text>
</a>
</g>
<!-- Node14&#45;&gt;Node11 -->
<g id="edge26" class="edge"><title>Node14&#45;&gt;Node11</title>
<path fill="none" stroke="#404040" d="M763.531,-725.385C756.049,-707.869 746.55,-685.711 738,-666 722.16,-629.486 720.162,-619.417 702,-584 689.324,-559.282 673.626,-532.522 660.507,-511.04"/>
<polygon fill="none" stroke="#404040" points="660.396,-510.859 653.844,-507.846 654.106,-500.64 660.657,-503.653 660.396,-510.859"/>
<text text-anchor="middle" x="742" y="-613.5" font-family="FreeSans" font-size="10.00"> state</text>
</g>
<!-- Node15 -->
<g id="node28" class="node"><title>Node15</title>
<a xlink:href="structhfa__searchparams.html" target="_top" xlink:title="Search Parameters set by Application.">
<polygon fill="white" stroke="black" points="115.5,-193 115.5,-321 222.5,-321 222.5,-193 115.5,-193"/>
<text text-anchor="middle" x="169" y="-308" font-family="FreeSans" font-size="10.00">hfa_searchparams</text>
<polyline fill="none" stroke="black" points="115.5,-300 222.5,-300 "/>
<text text-anchor="start" x="123.5" y="-287" font-family="FreeSans" font-size="10.00">+ wqe</text>
<text text-anchor="start" x="123.5" y="-274" font-family="FreeSans" font-size="10.00">+ clusterno</text>
<text text-anchor="start" x="123.5" y="-261" font-family="FreeSans" font-size="10.00">+ input_0_n</text>
<text text-anchor="start" x="123.5" y="-248" font-family="FreeSans" font-size="10.00">+ input_n</text>
<text text-anchor="start" x="123.5" y="-235" font-family="FreeSans" font-size="10.00">+ matchcb</text>
<text text-anchor="start" x="123.5" y="-222" font-family="FreeSans" font-size="10.00">+ cbarg</text>
<polyline fill="none" stroke="black" points="115.5,-214 222.5,-214 "/>
<text text-anchor="middle" x="169" y="-201" font-family="FreeSans" font-size="10.00"> </text>
</a>
</g>
<!-- Node15&#45;&gt;Node1 -->
<g id="edge28" class="edge"><title>Node15&#45;&gt;Node1</title>
<path fill="none" stroke="#404040" d="M169,-192.989C169,-180.487 169,-167.208 169,-154.188"/>
<polygon fill="none" stroke="#404040" points="169,-153.818 165,-147.818 169,-141.818 173,-147.818 169,-153.818"/>
<text text-anchor="middle" x="189" y="-164.5" font-family="FreeSans" font-size="10.00"> sparam</text>
</g>
<!-- Node16 -->
<g id="node30" class="node"><title>Node16</title>
<a xlink:href="unionhfa__output__t.html" target="_top" xlink:title="Output search parameter provided by application Depending upon used mode &#45; Single or Gather...">
<polygon fill="white" stroke="black" points="131.5,-418 131.5,-520 206.5,-520 206.5,-418 131.5,-418"/>
<text text-anchor="middle" x="169" y="-507" font-family="FreeSans" font-size="10.00">hfa_output_t</text>
<polyline fill="none" stroke="black" points="131.5,-499 206.5,-499 "/>
<text text-anchor="start" x="139.5" y="-486" font-family="FreeSans" font-size="10.00">+ ptr</text>
<text text-anchor="start" x="139.5" y="-473" font-family="FreeSans" font-size="10.00">+ length</text>
<text text-anchor="start" x="139.5" y="-460" font-family="FreeSans" font-size="10.00">+ is_iovec</text>
<text text-anchor="start" x="139.5" y="-447" font-family="FreeSans" font-size="10.00">+ @14</text>
<polyline fill="none" stroke="black" points="131.5,-439 206.5,-439 "/>
<text text-anchor="middle" x="169" y="-426" font-family="FreeSans" font-size="10.00"> </text>
</a>
</g>
<!-- Node16&#45;&gt;Node15 -->
<g id="edge30" class="edge"><title>Node16&#45;&gt;Node15</title>
<path fill="none" stroke="#404040" d="M169,-417.951C169,-392.657 169,-361.592 169,-333.523"/>
<polygon fill="none" stroke="#404040" points="169,-333.288 165,-327.288 169,-321.288 173,-327.287 169,-333.288"/>
<text text-anchor="middle" x="185.5" y="-344.5" font-family="FreeSans" font-size="10.00"> output</text>
</g>
<!-- Node17&#45;&gt;Node16 -->
<g id="edge32" class="edge"><title>Node17&#45;&gt;Node16</title>
<path fill="none" stroke="#404040" d="M250.95,-712.316C234.64,-663.889 208.488,-586.243 190.124,-531.718"/>
<polygon fill="none" stroke="#404040" points="190.044,-531.482 184.338,-527.072 186.214,-520.11 191.92,-524.519 190.044,-531.482"/>
<text text-anchor="middle" x="234.5" y="-613.5" font-family="FreeSans" font-size="10.00"> g</text>
</g>
<!-- Node18 -->
<g id="node35" class="node"><title>Node18</title>
<a xlink:href="structhfa__output__t_1_1sparam__data__direct.html" target="_top" xlink:title="Direct output buffer (Non&#45;iovec)">
<polygon fill="white" stroke="black" points="68,-706 68,-808 188,-808 188,-706 68,-706"/>
<text text-anchor="start" x="76" y="-795" font-family="FreeSans" font-size="10.00">hfa_output_t::sparam</text>
<text text-anchor="middle" x="128" y="-782" font-family="FreeSans" font-size="10.00">_data_direct</text>
<polyline fill="none" stroke="black" points="68,-774 188,-774 "/>
<text text-anchor="start" x="76" y="-761" font-family="FreeSans" font-size="10.00">+ ptr</text>
<text text-anchor="start" x="76" y="-748" font-family="FreeSans" font-size="10.00">+ len</text>
<text text-anchor="start" x="76" y="-735" font-family="FreeSans" font-size="10.00">+ is_iovec</text>
<polyline fill="none" stroke="black" points="68,-727 188,-727 "/>
<text text-anchor="middle" x="128" y="-714" font-family="FreeSans" font-size="10.00"> </text>
</a>
</g>
<!-- Node18&#45;&gt;Node16 -->
<g id="edge36" class="edge"><title>Node18&#45;&gt;Node16</title>
<path fill="none" stroke="#404040" d="M135.283,-705.843C142.185,-657.359 152.572,-584.395 159.992,-532.275"/>
<polygon fill="none" stroke="#404040" points="160.025,-532.045 156.91,-525.541 161.716,-520.165 164.831,-526.668 160.025,-532.045"/>
<text text-anchor="middle" x="157.5" y="-613.5" font-family="FreeSans" font-size="10.00"> d</text>
</g>
<!-- Node19&#45;&gt;Node15 -->
<g id="edge38" class="edge"><title>Node19&#45;&gt;Node15</title>
<path fill="none" stroke="#404040" d="M53.2179,-584.219C48.8158,-536.307 45.4123,-443.574 74,-372 81.7888,-352.499 94.1745,-333.815 107.464,-317.386"/>
<polygon fill="none" stroke="#404040" points="107.644,-317.171 108.442,-310.004 115.364,-307.984 114.567,-315.151 107.644,-317.171"/>
<text text-anchor="middle" x="98.5" y="-473" font-family="FreeSans" font-size="10.00"> input_0_n</text>
<text text-anchor="middle" x="98.5" y="-460" font-family="FreeSans" font-size="10.00">input_n</text>
</g>
<!-- Node20 -->
<g id="node40" class="node"><title>Node20</title>
<a xlink:href="structhfa__search__hwpp__ofields__t.html" target="_top" xlink:title="HFA hardware and Post processing fields returned to Application.">
<polygon fill="white" stroke="black" points="224,-424.5 224,-513.5 370,-513.5 370,-424.5 224,-424.5"/>
<text text-anchor="middle" x="297" y="-500.5" font-family="FreeSans" font-size="10.00">hfa_search_hwpp_ofields_t</text>
<polyline fill="none" stroke="black" points="224,-492.5 370,-492.5 "/>
<text text-anchor="start" x="232" y="-479.5" font-family="FreeSans" font-size="10.00">+ reason</text>
<text text-anchor="start" x="232" y="-466.5" font-family="FreeSans" font-size="10.00">+ oflags</text>
<text text-anchor="start" x="232" y="-453.5" font-family="FreeSans" font-size="10.00">+ pdboffset</text>
<polyline fill="none" stroke="black" points="224,-445.5 370,-445.5 "/>
<text text-anchor="middle" x="297" y="-432.5" font-family="FreeSans" font-size="10.00"> </text>
</a>
</g>
<!-- Node20&#45;&gt;Node15 -->
<g id="edge42" class="edge"><title>Node20&#45;&gt;Node15</title>
<path fill="none" stroke="#404040" d="M270.011,-424.299C253.8,-397.45 232.762,-362.606 214.086,-331.673"/>
<polygon fill="none" stroke="#404040" points="214.055,-331.623 207.53,-328.554 207.853,-321.35 214.378,-324.419 214.055,-331.623"/>
<text text-anchor="middle" x="243.5" y="-344.5" font-family="FreeSans" font-size="10.00"> ofields</text>
</g>
</g>
</svg>
        <g id="navigator" transform="translate(0 0)" fill="#404254">
                <rect fill="#f2f5e9" fill-opacity="0.5" stroke="#606060" stroke-width=".5" x="0" y="0" width="60" height="60"/>
                <use id="zoomplus" xlink:href="#zoomPlus" x="17" y="9" onmousedown="handleZoom(evt,'in')"/>
                <use id="zoomminus" xlink:href="#zoomMin" x="42" y="9" onmousedown="handleZoom(evt,'out')"/>
                <use id="reset" xlink:href="#resetDef" x="30" y="36" onmousedown="handleReset()"/>
                <g id="arrowUp" xlink:href="#dirArrow" transform="translate(30 24)" onmousedown="handlePan(0,-1)">
                  <use xlink:href="#rim" fill="#404040">
                        <set attributeName="fill" to="#808080" begin="arrowUp.mouseover" end="arrowUp.mouseout"/>
                  </use>
                  <path fill="none" stroke="white" stroke-width="1.5" d="M0,-3.0v7 M-2.5,-0.5L0,-3.0L2.5,-0.5"/>
                </g>
                <g id="arrowRight" xlink:href="#dirArrow" transform="rotate(90) translate(36 -43)" onmousedown="handlePan(1,0)">
                  <use xlink:href="#rim" fill="#404040">
                        <set attributeName="fill" to="#808080" begin="arrowRight.mouseover" end="arrowRight.mouseout"/>
                  </use>
                  <path fill="none" stroke="white" stroke-width="1.5" d="M0,-3.0v7 M-2.5,-0.5L0,-3.0L2.5,-0.5"/>
                </g>
                <g id="arrowDown" xlink:href="#dirArrow" transform="rotate(180) translate(-30 -48)" onmousedown="handlePan(0,1)">
                  <use xlink:href="#rim" fill="#404040">
                        <set attributeName="fill" to="#808080" begin="arrowDown.mouseover" end="arrowDown.mouseout"/>
                  </use>
                  <path fill="none" stroke="white" stroke-width="1.5" d="M0,-3.0v7 M-2.5,-0.5L0,-3.0L2.5,-0.5"/>
                </g>
                <g id="arrowLeft" xlink:href="#dirArrow" transform="rotate(270) translate(-36 17)" onmousedown="handlePan(-1,0)">
                  <use xlink:href="#rim" fill="#404040">
                        <set attributeName="fill" to="#808080" begin="arrowLeft.mouseover" end="arrowLeft.mouseout"/>
                  </use>
                  <path fill="none" stroke="white" stroke-width="1.5" d="M0,-3.0v7 M-2.5,-0.5L0,-3.0L2.5,-0.5"/>
                </g>
        </g>
        <svg viewBox="0 0 15 15" width="100%" height="30px" preserveAspectRatio="xMaxYMin meet">
         <g id="arrow_out" transform="scale(0.3 0.3)">
          <a xlink:href="structhfa__ctx__t__coll__graph_org.svg" target="_base">
           <rect id="button" ry="5" rx="5" y="6" x="6" height="38" width="38"
                fill="#f2f5e9" fill-opacity="0.5" stroke="#606060" stroke-width="1.0"/>
           <path id="arrow"
             d="M 11.500037,31.436501 C 11.940474,20.09759 22.043105,11.32322 32.158766,21.979434 L 37.068811,17.246167 C 37.068811,17.246167 37.088388,32 37.088388,32 L 22.160133,31.978069 C 22.160133,31.978069 26.997745,27.140456 26.997745,27.140456 C 18.528582,18.264221 13.291696,25.230495 11.500037,31.436501 z"
             style="fill:#404040;"/>
          </a>
         </g>
        </svg>
</svg>
