<?xml version="1.0" encoding="UTF-8" standalone="no"?>
<!DOCTYPE svg PUBLIC "-//W3C//DTD SVG 1.1//EN"
 "http://www.w3.org/Graphics/SVG/1.1/DTD/svg11.dtd">
<!-- Generated by graphviz version 2.24.0 (20090616.2323)
 -->
<!-- Title: ppdfa_tstamp_t Pages: 1 -->
<svg width="112pt" height="330pt"
 viewBox="0.00 0.00 112.00 330.00" xmlns="http://www.w3.org/2000/svg" xmlns:xlink="http://www.w3.org/1999/xlink">
<g id="graph1" class="graph" transform="scale(1 1) rotate(0) translate(4 326)">
<title>ppdfa_tstamp_t</title>
<polygon fill="white" stroke="white" points="-4,5 -4,-326 109,-326 109,5 -4,5"/>
<!-- Node1 -->
<g id="node1" class="node"><title>Node1</title>
<polygon fill="#bfbfbf" stroke="black" points="7,-1 7,-77 97,-77 97,-1 7,-1"/>
<text text-anchor="middle" x="52" y="-64" font-family="FreeSans" font-size="10.00">ppdfa_tstamp_t</text>
<polyline fill="none" stroke="black" points="7,-56 97,-56 "/>
<text text-anchor="start" x="15" y="-43" font-family="FreeSans" font-size="10.00">+ version</text>
<text text-anchor="start" x="15" y="-30" font-family="FreeSans" font-size="10.00">+ uuid</text>
<polyline fill="none" stroke="black" points="7,-22 97,-22 "/>
<text text-anchor="middle" x="52" y="-9" font-family="FreeSans" font-size="10.00"> </text>
</g>
<!-- Node2 -->
<g id="node2" class="node"><title>Node2</title>
<a xlink:href="structppdfa__tstampopt__t.html" target="_top" xlink:title="{ppdfa_tstampopt_t\n|+ linkable\l+ memonly\l+ cachealgo\l+ dfa\l+ strings\l+ cachesize\l+ target\l+ optlevel\l+ unused1\l+ linked\land 7 more...\l|}">
<polygon fill="white" stroke="black" points="-0.5,-128.5 -0.5,-321.5 104.5,-321.5 104.5,-128.5 -0.5,-128.5"/>
<text text-anchor="middle" x="52" y="-308.5" font-family="FreeSans" font-size="10.00">ppdfa_tstampopt_t</text>
<polyline fill="none" stroke="black" points="-0.5,-300.5 104.5,-300.5 "/>
<text text-anchor="start" x="7.5" y="-287.5" font-family="FreeSans" font-size="10.00">+ linkable</text>
<text text-anchor="start" x="7.5" y="-274.5" font-family="FreeSans" font-size="10.00">+ memonly</text>
<text text-anchor="start" x="7.5" y="-261.5" font-family="FreeSans" font-size="10.00">+ cachealgo</text>
<text text-anchor="start" x="7.5" y="-248.5" font-family="FreeSans" font-size="10.00">+ dfa</text>
<text text-anchor="start" x="7.5" y="-235.5" font-family="FreeSans" font-size="10.00">+ strings</text>
<text text-anchor="start" x="7.5" y="-222.5" font-family="FreeSans" font-size="10.00">+ cachesize</text>
<text text-anchor="start" x="7.5" y="-209.5" font-family="FreeSans" font-size="10.00">+ target</text>
<text text-anchor="start" x="7.5" y="-196.5" font-family="FreeSans" font-size="10.00">+ optlevel</text>
<text text-anchor="start" x="7.5" y="-183.5" font-family="FreeSans" font-size="10.00">+ unused1</text>
<text text-anchor="start" x="7.5" y="-170.5" font-family="FreeSans" font-size="10.00">+ linked</text>
<text text-anchor="start" x="7.5" y="-157.5" font-family="FreeSans" font-size="10.00">and 7 more...</text>
<polyline fill="none" stroke="black" points="-0.5,-149.5 104.5,-149.5 "/>
<text text-anchor="middle" x="52" y="-136.5" font-family="FreeSans" font-size="10.00"> </text>
</a>
</g>
<!-- Node2&#45;&gt;Node1 -->
<g id="edge2" class="edge"><title>Node2&#45;&gt;Node1</title>
<path fill="none" stroke="#404040" d="M52,-128.459C52,-114.934 52,-101.51 52,-89.3322"/>
<polygon fill="none" stroke="#404040" points="52.0001,-89.1405 48,-83.1406 52,-77.1405 56,-83.1405 52.0001,-89.1405"/>
<text text-anchor="middle" x="71" y="-100.5" font-family="FreeSans" font-size="10.00"> options</text>
</g>
</g>
</svg>
