<?xml version="1.0" encoding="UTF-8" standalone="no"?>
<!DOCTYPE svg PUBLIC "-//W3C//DTD SVG 1.1//EN"
 "http://www.w3.org/Graphics/SVG/1.1/DTD/svg11.dtd">
<!-- Generated by graphviz version 2.24.0 (20090616.2323)
 -->
<!-- Title: hfa_searchnode_t Pages: 1 -->
<svg width="812pt" height="1304pt"
 viewBox="0.00 0.00 812.00 1304.00" xmlns="http://www.w3.org/2000/svg" xmlns:xlink="http://www.w3.org/1999/xlink">
<g id="graph1" class="graph" transform="scale(1 1) rotate(0) translate(4 1300)">
<title>hfa_searchnode_t</title>
<polygon fill="white" stroke="white" points="-4,5 -4,-1300 809,-1300 809,5 -4,5"/>
<!-- Node1 -->
<g id="node1" class="node"><title>Node1</title>
<polygon fill="#bfbfbf" stroke="black" points="115,-0.5 115,-115.5 217,-115.5 217,-0.5 115,-0.5"/>
<text text-anchor="middle" x="166" y="-102.5" font-family="FreeSans" font-size="10.00">hfa_searchnode_t</text>
<polyline fill="none" stroke="black" points="115,-94.5 217,-94.5 "/>
<text text-anchor="start" x="123" y="-81.5" font-family="FreeSans" font-size="10.00">+ glist</text>
<text text-anchor="start" x="123" y="-68.5" font-family="FreeSans" font-size="10.00">+ slist</text>
<text text-anchor="start" x="123" y="-55.5" font-family="FreeSans" font-size="10.00">+ rptr</text>
<text text-anchor="start" x="123" y="-42.5" font-family="FreeSans" font-size="10.00">+ status</text>
<text text-anchor="start" x="123" y="-29.5" font-family="FreeSans" font-size="10.00">+ lock</text>
<polyline fill="none" stroke="black" points="115,-21.5 217,-21.5 "/>
<text text-anchor="middle" x="166" y="-8.5" font-family="FreeSans" font-size="10.00"> </text>
</g>
<!-- Node2 -->
<g id="node2" class="node"><title>Node2</title>
<a xlink:href="structppiovec__t.html" target="_top" xlink:title="{ppiovec_t\n|+ ptr\l+ len\l|}">
<polygon fill="white" stroke="black" points="7.5,-918 7.5,-994 70.5,-994 70.5,-918 7.5,-918"/>
<text text-anchor="middle" x="39" y="-981" font-family="FreeSans" font-size="10.00">ppiovec_t</text>
<polyline fill="none" stroke="black" points="7.5,-973 70.5,-973 "/>
<text text-anchor="start" x="15.5" y="-960" font-family="FreeSans" font-size="10.00">+ ptr</text>
<text text-anchor="start" x="15.5" y="-947" font-family="FreeSans" font-size="10.00">+ len</text>
<polyline fill="none" stroke="black" points="7.5,-939 70.5,-939 "/>
<text text-anchor="middle" x="39" y="-926" font-family="FreeSans" font-size="10.00"> </text>
</a>
</g>
<!-- Node2&#45;&gt;Node1 -->
<g id="edge2" class="edge"><title>Node2&#45;&gt;Node1</title>
<path fill="none" stroke="#404040" d="M28.2398,-917.731C16.6961,-873.237 0,-797.405 0,-731 0,-731 0,-731 0,-231 0,-168.502 57.1015,-119.805 104.324,-90.219"/>
<polygon fill="none" stroke="#404040" points="104.582,-90.0627 107.635,-83.5301 114.84,-83.8363 111.786,-90.369 104.582,-90.0627"/>
<text text-anchor="middle" x="13" y="-440.5" font-family="FreeSans" font-size="10.00"> input</text>
</g>
<!-- Node17 -->
<g id="node32" class="node"><title>Node17</title>
<a xlink:href="structhfa__output__t_1_1sparam__data__gather.html" target="_top" xlink:title="Output buffer &#45; gather mode.">
<polygon fill="white" stroke="black" points="205,-686.5 205,-775.5 325,-775.5 325,-686.5 205,-686.5"/>
<text text-anchor="start" x="213" y="-762.5" font-family="FreeSans" font-size="10.00">hfa_output_t::sparam</text>
<text text-anchor="middle" x="265" y="-749.5" font-family="FreeSans" font-size="10.00">_data_gather</text>
<polyline fill="none" stroke="black" points="205,-741.5 325,-741.5 "/>
<text text-anchor="start" x="213" y="-728.5" font-family="FreeSans" font-size="10.00">+ ioveclen</text>
<text text-anchor="start" x="213" y="-715.5" font-family="FreeSans" font-size="10.00">+ is_iovec</text>
<polyline fill="none" stroke="black" points="205,-707.5 325,-707.5 "/>
<text text-anchor="middle" x="265" y="-694.5" font-family="FreeSans" font-size="10.00"> </text>
</a>
</g>
<!-- Node2&#45;&gt;Node17 -->
<g id="edge34" class="edge"><title>Node2&#45;&gt;Node17</title>
<path fill="none" stroke="#404040" d="M70.5358,-932.379C103.544,-906.926 156.03,-864.348 196,-822 206.631,-810.737 217.199,-797.874 226.752,-785.436"/>
<polygon fill="none" stroke="#404040" points="226.951,-785.172 227.371,-777.973 234.178,-775.592 233.758,-782.791 226.951,-785.172"/>
<text text-anchor="middle" x="194.5" y="-844.5" font-family="FreeSans" font-size="10.00"> piovec</text>
</g>
<!-- Node19 -->
<g id="node37" class="node"><title>Node19</title>
<a xlink:href="structhfa__input__t.html" target="_top" xlink:title="Gather input search parameter.">
<polygon fill="white" stroke="black" points="20.5,-558.5 20.5,-621.5 89.5,-621.5 89.5,-558.5 20.5,-558.5"/>
<text text-anchor="middle" x="55" y="-608.5" font-family="FreeSans" font-size="10.00">hfa_input_t</text>
<polyline fill="none" stroke="black" points="20.5,-600.5 89.5,-600.5 "/>
<text text-anchor="start" x="28.5" y="-587.5" font-family="FreeSans" font-size="10.00">+ ioveclen</text>
<polyline fill="none" stroke="black" points="20.5,-579.5 89.5,-579.5 "/>
<text text-anchor="middle" x="55" y="-566.5" font-family="FreeSans" font-size="10.00"> </text>
</a>
</g>
<!-- Node2&#45;&gt;Node19 -->
<g id="edge40" class="edge"><title>Node2&#45;&gt;Node19</title>
<path fill="none" stroke="#404040" d="M40.667,-917.867C43.657,-849.471 49.9141,-706.339 53.079,-633.942"/>
<polygon fill="none" stroke="#404040" points="53.0901,-633.687 49.356,-627.518 53.6143,-621.698 57.3484,-627.867 53.0901,-633.687"/>
<text text-anchor="middle" x="61.5" y="-844.5" font-family="FreeSans" font-size="10.00"> piovec</text>
</g>
<!-- Node3 -->
<g id="node4" class="node"><title>Node3</title>
<a xlink:href="structhfa__searchctx.html" target="_top" xlink:title="Search context data structure.">
<polygon fill="white" stroke="black" points="406.5,-193 406.5,-269 491.5,-269 491.5,-193 406.5,-193"/>
<text text-anchor="middle" x="449" y="-256" font-family="FreeSans" font-size="10.00">hfa_searchctx</text>
<polyline fill="none" stroke="black" points="406.5,-248 491.5,-248 "/>
<text text-anchor="start" x="414.5" y="-235" font-family="FreeSans" font-size="10.00">+ flags</text>
<text text-anchor="start" x="414.5" y="-222" font-family="FreeSans" font-size="10.00">+ ctx_status</text>
<polyline fill="none" stroke="black" points="406.5,-214 491.5,-214 "/>
<text text-anchor="middle" x="449" y="-201" font-family="FreeSans" font-size="10.00"> </text>
</a>
</g>
<!-- Node3&#45;&gt;Node1 -->
<g id="edge4" class="edge"><title>Node3&#45;&gt;Node1</title>
<path fill="none" stroke="#404040" d="M406.326,-204.913C358.844,-175.887 281.71,-128.734 227.667,-95.6978"/>
<polygon fill="none" stroke="#404040" points="227.421,-95.5472 220.216,-95.8306 217.183,-89.2883 224.388,-89.0049 227.421,-95.5472"/>
<text text-anchor="middle" x="317" y="-138.5" font-family="FreeSans" font-size="10.00"> ctx</text>
</g>
<!-- Node4 -->
<g id="node6" class="node"><title>Node4</title>
<a xlink:href="structhfa__graph__t.html" target="_top" xlink:title="Graph structure.">
<polygon fill="white" stroke="black" points="385,-346.5 385,-539.5 513,-539.5 513,-346.5 385,-346.5"/>
<text text-anchor="middle" x="449" y="-526.5" font-family="FreeSans" font-size="10.00">hfa_graph_t</text>
<polyline fill="none" stroke="black" points="385,-518.5 513,-518.5 "/>
<text text-anchor="start" x="393" y="-505.5" font-family="FreeSans" font-size="10.00">+ list</text>
<text text-anchor="start" x="393" y="-492.5" font-family="FreeSans" font-size="10.00">+ lock</text>
<text text-anchor="start" x="393" y="-479.5" font-family="FreeSans" font-size="10.00">+ isinit</text>
<text text-anchor="start" x="393" y="-466.5" font-family="FreeSans" font-size="10.00">+ info</text>
<text text-anchor="start" x="393" y="-453.5" font-family="FreeSans" font-size="10.00">+ state</text>
<text text-anchor="start" x="393" y="-440.5" font-family="FreeSans" font-size="10.00">+ gtype</text>
<text text-anchor="start" x="393" y="-427.5" font-family="FreeSans" font-size="10.00">+ curr_seek</text>
<text text-anchor="start" x="393" y="-414.5" font-family="FreeSans" font-size="10.00">+ totlen</text>
<text text-anchor="start" x="393" y="-401.5" font-family="FreeSans" font-size="10.00">+ clmsk</text>
<text text-anchor="start" x="393" y="-388.5" font-family="FreeSans" font-size="10.00">+ submittedinstr_clmsk</text>
<text text-anchor="start" x="393" y="-375.5" font-family="FreeSans" font-size="10.00">and 13 more...</text>
<polyline fill="none" stroke="black" points="385,-367.5 513,-367.5 "/>
<text text-anchor="middle" x="449" y="-354.5" font-family="FreeSans" font-size="10.00"> </text>
</a>
</g>
<!-- Node4&#45;&gt;Node3 -->
<g id="edge6" class="edge"><title>Node4&#45;&gt;Node3</title>
<path fill="none" stroke="#404040" d="M449,-346.306C449,-323.91 449,-300.956 449,-281.485"/>
<polygon fill="none" stroke="#404040" points="449,-281.232 445,-275.232 449,-269.232 453,-275.232 449,-281.232"/>
<text text-anchor="middle" x="467.5" y="-318.5" font-family="FreeSans" font-size="10.00"> pgraph</text>
</g>
<!-- Node5 -->
<g id="node8" class="node"><title>Node5</title>
<a xlink:href="structppinfo__t.html" target="_top" xlink:title="{ppinfo_t\n|+ base\l+ snode\l+ snode2\l+ info\l|}">
<polygon fill="white" stroke="black" points="418,-680 418,-782 480,-782 480,-680 418,-680"/>
<text text-anchor="middle" x="449" y="-769" font-family="FreeSans" font-size="10.00">ppinfo_t</text>
<polyline fill="none" stroke="black" points="418,-761 480,-761 "/>
<text text-anchor="start" x="426" y="-748" font-family="FreeSans" font-size="10.00">+ base</text>
<text text-anchor="start" x="426" y="-735" font-family="FreeSans" font-size="10.00">+ snode</text>
<text text-anchor="start" x="426" y="-722" font-family="FreeSans" font-size="10.00">+ snode2</text>
<text text-anchor="start" x="426" y="-709" font-family="FreeSans" font-size="10.00">+ info</text>
<polyline fill="none" stroke="black" points="418,-701 480,-701 "/>
<text text-anchor="middle" x="449" y="-688" font-family="FreeSans" font-size="10.00"> </text>
</a>
</g>
<!-- Node5&#45;&gt;Node4 -->
<g id="edge8" class="edge"><title>Node5&#45;&gt;Node4</title>
<path fill="none" stroke="#404040" d="M449,-679.843C449,-644.383 449,-595.83 449,-551.913"/>
<polygon fill="none" stroke="#404040" points="449,-551.663 445,-545.663 449,-539.663 453,-545.663 449,-551.663"/>
<text text-anchor="middle" x="455" y="-587.5" font-family="FreeSans" font-size="10.00"> irt</text>
</g>
<!-- Node6 -->
<g id="node10" class="node"><title>Node6</title>
<a xlink:href="structpp__tstamp__t.html" target="_top" xlink:title="{pp_tstamp_t\n|+ version\l+ uuid\l|}">
<polygon fill="white" stroke="black" points="424.5,-918 424.5,-994 499.5,-994 499.5,-918 424.5,-918"/>
<text text-anchor="middle" x="462" y="-981" font-family="FreeSans" font-size="10.00">pp_tstamp_t</text>
<polyline fill="none" stroke="black" points="424.5,-973 499.5,-973 "/>
<text text-anchor="start" x="432.5" y="-960" font-family="FreeSans" font-size="10.00">+ version</text>
<text text-anchor="start" x="432.5" y="-947" font-family="FreeSans" font-size="10.00">+ uuid</text>
<polyline fill="none" stroke="black" points="424.5,-939 499.5,-939 "/>
<text text-anchor="middle" x="462" y="-926" font-family="FreeSans" font-size="10.00"> </text>
</a>
</g>
<!-- Node6&#45;&gt;Node5 -->
<g id="edge10" class="edge"><title>Node6&#45;&gt;Node5</title>
<path fill="none" stroke="#404040" d="M459.795,-917.832C457.838,-883.972 454.943,-833.852 452.643,-794.045"/>
<polygon fill="none" stroke="#404040" points="452.642,-794.032 448.302,-788.272 451.95,-782.052 456.289,-787.811 452.642,-794.032"/>
<text text-anchor="middle" x="472.5" y="-844.5" font-family="FreeSans" font-size="10.00"> stamp</text>
</g>
<!-- Node7 -->
<g id="node12" class="node"><title>Node7</title>
<a xlink:href="structpp__tstampopt__t.html" target="_top" xlink:title="{pp_tstampopt_t\n|+ linkable\l+ memonly\l+ cachealgo\l+ dfa\l+ strings\l+ cachesize\l+ target\l+ optlevel\l+ unused1\l+ linked\land 7 more...\l|}">
<polygon fill="white" stroke="black" points="418,-1102.5 418,-1295.5 508,-1295.5 508,-1102.5 418,-1102.5"/>
<text text-anchor="middle" x="463" y="-1282.5" font-family="FreeSans" font-size="10.00">pp_tstampopt_t</text>
<polyline fill="none" stroke="black" points="418,-1274.5 508,-1274.5 "/>
<text text-anchor="start" x="426" y="-1261.5" font-family="FreeSans" font-size="10.00">+ linkable</text>
<text text-anchor="start" x="426" y="-1248.5" font-family="FreeSans" font-size="10.00">+ memonly</text>
<text text-anchor="start" x="426" y="-1235.5" font-family="FreeSans" font-size="10.00">+ cachealgo</text>
<text text-anchor="start" x="426" y="-1222.5" font-family="FreeSans" font-size="10.00">+ dfa</text>
<text text-anchor="start" x="426" y="-1209.5" font-family="FreeSans" font-size="10.00">+ strings</text>
<text text-anchor="start" x="426" y="-1196.5" font-family="FreeSans" font-size="10.00">+ cachesize</text>
<text text-anchor="start" x="426" y="-1183.5" font-family="FreeSans" font-size="10.00">+ target</text>
<text text-anchor="start" x="426" y="-1170.5" font-family="FreeSans" font-size="10.00">+ optlevel</text>
<text text-anchor="start" x="426" y="-1157.5" font-family="FreeSans" font-size="10.00">+ unused1</text>
<text text-anchor="start" x="426" y="-1144.5" font-family="FreeSans" font-size="10.00">+ linked</text>
<text text-anchor="start" x="426" y="-1131.5" font-family="FreeSans" font-size="10.00">and 7 more...</text>
<polyline fill="none" stroke="black" points="418,-1123.5 508,-1123.5 "/>
<text text-anchor="middle" x="463" y="-1110.5" font-family="FreeSans" font-size="10.00"> </text>
</a>
</g>
<!-- Node7&#45;&gt;Node6 -->
<g id="edge12" class="edge"><title>Node7&#45;&gt;Node6</title>
<path fill="none" stroke="#404040" d="M462.602,-1102.26C462.467,-1069.44 462.321,-1034.09 462.207,-1006.37"/>
<polygon fill="none" stroke="#404040" points="462.207,-1006.21 458.182,-1000.23 462.157,-994.209 466.182,-1000.19 462.207,-1006.21"/>
<text text-anchor="middle" x="482" y="-1068.5" font-family="FreeSans" font-size="10.00"> options</text>
</g>
<!-- Node8 -->
<g id="node14" class="node"><title>Node8</title>
<a xlink:href="structhfa__dev.html" target="_top" xlink:title="HFA Device Structure.">
<polygon fill="white" stroke="black" points="344.5,-699.5 344.5,-762.5 399.5,-762.5 399.5,-699.5 344.5,-699.5"/>
<text text-anchor="middle" x="372" y="-749.5" font-family="FreeSans" font-size="10.00">hfa_dev</text>
<polyline fill="none" stroke="black" points="344.5,-741.5 399.5,-741.5 "/>
<text text-anchor="start" x="352.5" y="-728.5" font-family="FreeSans" font-size="10.00">+ punit</text>
<polyline fill="none" stroke="black" points="344.5,-720.5 399.5,-720.5 "/>
<text text-anchor="middle" x="372" y="-707.5" font-family="FreeSans" font-size="10.00"> </text>
</a>
</g>
<!-- Node8&#45;&gt;Node4 -->
<g id="edge14" class="edge"><title>Node8&#45;&gt;Node4</title>
<path fill="none" stroke="#404040" d="M380.362,-699.423C389.555,-664.735 404.778,-607.385 418,-558 418.577,-555.847 419.16,-553.67 419.747,-551.477"/>
<polygon fill="none" stroke="#404040" points="419.819,-551.212 417.51,-544.38 422.928,-539.622 425.237,-546.453 419.819,-551.212"/>
<text text-anchor="middle" x="431.5" y="-587.5" font-family="FreeSans" font-size="10.00"> pdev</text>
</g>
<!-- Node9 -->
<g id="node16" class="node"><title>Node9</title>
<a xlink:href="structhfa__devinfo__t.html" target="_top" xlink:title="HFA Device Info.">
<polygon fill="white" stroke="black" points="300,-872.5 300,-1039.5 404,-1039.5 404,-872.5 300,-872.5"/>
<text text-anchor="middle" x="352" y="-1026.5" font-family="FreeSans" font-size="10.00">hfa_devinfo_t</text>
<polyline fill="none" stroke="black" points="300,-1018.5 404,-1018.5 "/>
<text text-anchor="start" x="308" y="-1005.5" font-family="FreeSans" font-size="10.00">+ hwhasownmem</text>
<text text-anchor="start" x="308" y="-992.5" font-family="FreeSans" font-size="10.00">+ name</text>
<text text-anchor="start" x="308" y="-979.5" font-family="FreeSans" font-size="10.00">+ nclusters</text>
<text text-anchor="start" x="308" y="-966.5" font-family="FreeSans" font-size="10.00">+ clmsk</text>
<text text-anchor="start" x="308" y="-953.5" font-family="FreeSans" font-size="10.00">+ chipid</text>
<text text-anchor="start" x="308" y="-940.5" font-family="FreeSans" font-size="10.00">+ pass</text>
<text text-anchor="start" x="308" y="-927.5" font-family="FreeSans" font-size="10.00">+ minfo</text>
<text text-anchor="start" x="308" y="-914.5" font-family="FreeSans" font-size="10.00">+ cinfo</text>
<text text-anchor="start" x="308" y="-901.5" font-family="FreeSans" font-size="10.00">+ mbasealignbits</text>
<polyline fill="none" stroke="black" points="300,-893.5 404,-893.5 "/>
<text text-anchor="middle" x="352" y="-880.5" font-family="FreeSans" font-size="10.00"> </text>
</a>
</g>
<!-- Node9&#45;&gt;Node8 -->
<g id="edge16" class="edge"><title>Node9&#45;&gt;Node8</title>
<path fill="none" stroke="#404040" d="M359.447,-872.218C362.394,-839.064 365.658,-802.342 368.119,-774.658"/>
<polygon fill="none" stroke="#404040" points="368.127,-774.572 364.674,-768.241 369.189,-762.619 372.642,-768.949 368.127,-774.572"/>
<text text-anchor="middle" x="381.5" y="-844.5" font-family="FreeSans" font-size="10.00"> devinfo</text>
</g>
<!-- Node10 -->
<g id="node18" class="node"><title>Node10</title>
<a xlink:href="structhfa__memchunk__t.html" target="_top" xlink:title="Memory Chunk attributes.">
<polygon fill="white" stroke="black" points="300,-1161 300,-1237 400,-1237 400,-1161 300,-1161"/>
<text text-anchor="middle" x="350" y="-1224" font-family="FreeSans" font-size="10.00">hfa_memchunk_t</text>
<polyline fill="none" stroke="black" points="300,-1216 400,-1216 "/>
<text text-anchor="start" x="308" y="-1203" font-family="FreeSans" font-size="10.00">+ addr</text>
<text text-anchor="start" x="308" y="-1190" font-family="FreeSans" font-size="10.00">+ size</text>
<polyline fill="none" stroke="black" points="300,-1182 400,-1182 "/>
<text text-anchor="middle" x="350" y="-1169" font-family="FreeSans" font-size="10.00"> </text>
</a>
</g>
<!-- Node10&#45;&gt;Node9 -->
<g id="edge18" class="edge"><title>Node10&#45;&gt;Node9</title>
<path fill="none" stroke="#404040" d="M350.315,-1160.76C350.555,-1131.52 350.898,-1089.87 351.212,-1051.76"/>
<polygon fill="none" stroke="#404040" points="351.214,-1051.53 347.263,-1045.5 351.312,-1039.53 355.263,-1045.57 351.214,-1051.53"/>
<text text-anchor="middle" x="367.5" y="-1075" font-family="FreeSans" font-size="10.00"> minfo</text>
<text text-anchor="middle" x="367.5" y="-1062" font-family="FreeSans" font-size="10.00">cinfo</text>
</g>
<!-- Node11 -->
<g id="node20" class="node"><title>Node11</title>
<a xlink:href="structhfa__savedsearchctx.html" target="_top" xlink:title="Hardware and software search context.">
<polygon fill="white" stroke="black" points="574,-411.5 574,-474.5 688,-474.5 688,-411.5 574,-411.5"/>
<text text-anchor="middle" x="631" y="-461.5" font-family="FreeSans" font-size="10.00">hfa_savedsearchctx</text>
<polyline fill="none" stroke="black" points="574,-453.5 688,-453.5 "/>
<text text-anchor="middle" x="631" y="-440.5" font-family="FreeSans" font-size="10.00"> </text>
<polyline fill="none" stroke="black" points="574,-432.5 688,-432.5 "/>
<text text-anchor="middle" x="631" y="-419.5" font-family="FreeSans" font-size="10.00"> </text>
</a>
</g>
<!-- Node11&#45;&gt;Node3 -->
<g id="edge20" class="edge"><title>Node11&#45;&gt;Node3</title>
<path fill="none" stroke="#404040" d="M603.753,-411.261C573.486,-376.005 524.309,-318.722 489.524,-278.204"/>
<polygon fill="none" stroke="#404040" points="489.49,-278.164 482.547,-276.217 481.673,-269.059 488.617,-271.006 489.49,-278.164"/>
<text text-anchor="middle" x="552.5" y="-318.5" font-family="FreeSans" font-size="10.00"> savedctx</text>
</g>
<!-- Node12 -->
<g id="node22" class="node"><title>Node12</title>
<a xlink:href="unioncvm__hfa__snode__t.html" target="_top" xlink:title="Type for saved node data(WORD0).">
<polygon fill="white" stroke="black" points="498,-641 498,-821 600,-821 600,-641 498,-641"/>
<text text-anchor="middle" x="549" y="-808" font-family="FreeSans" font-size="10.00">cvm_hfa_snode_t</text>
<polyline fill="none" stroke="black" points="498,-800 600,-800 "/>
<text text-anchor="start" x="506" y="-787" font-family="FreeSans" font-size="10.00">+ u64</text>
<text text-anchor="start" x="506" y="-774" font-family="FreeSans" font-size="10.00">+ zerobdn</text>
<text text-anchor="start" x="506" y="-761" font-family="FreeSans" font-size="10.00">+ nbdnodes</text>
<text text-anchor="start" x="506" y="-748" font-family="FreeSans" font-size="10.00">+ ndnodes</text>
<text text-anchor="start" x="506" y="-735" font-family="FreeSans" font-size="10.00">+ dnodeid</text>
<text text-anchor="start" x="506" y="-722" font-family="FreeSans" font-size="10.00">+ hash</text>
<text text-anchor="start" x="506" y="-709" font-family="FreeSans" font-size="10.00">+ ntype</text>
<text text-anchor="start" x="506" y="-696" font-family="FreeSans" font-size="10.00">+ smdtomtype</text>
<text text-anchor="start" x="506" y="-683" font-family="FreeSans" font-size="10.00">+ nextnode</text>
<text text-anchor="start" x="506" y="-670" font-family="FreeSans" font-size="10.00">+ s</text>
<polyline fill="none" stroke="black" points="498,-662 600,-662 "/>
<text text-anchor="middle" x="549" y="-649" font-family="FreeSans" font-size="10.00"> </text>
</a>
</g>
<!-- Node12&#45;&gt;Node11 -->
<g id="edge22" class="edge"><title>Node12&#45;&gt;Node11</title>
<path fill="none" stroke="#404040" d="M574.72,-640.665C589.394,-589.127 607.116,-526.887 618.701,-486.195"/>
<polygon fill="none" stroke="#404040" points="618.731,-486.091 616.527,-479.225 622.017,-474.55 624.221,-481.416 618.731,-486.091"/>
<text text-anchor="middle" x="613.5" y="-587.5" font-family="FreeSans" font-size="10.00"> enode</text>
</g>
<!-- Node13 -->
<g id="node24" class="node"><title>Node13</title>
<a xlink:href="unioncvm__hfa__snode2__t.html" target="_top" xlink:title="Type for saved node data(WORD1).">
<polygon fill="white" stroke="black" points="618,-673.5 618,-788.5 726,-788.5 726,-673.5 618,-673.5"/>
<text text-anchor="middle" x="672" y="-775.5" font-family="FreeSans" font-size="10.00">cvm_hfa_snode2_t</text>
<polyline fill="none" stroke="black" points="618,-767.5 726,-767.5 "/>
<text text-anchor="start" x="626" y="-754.5" font-family="FreeSans" font-size="10.00">+ u64</text>
<text text-anchor="start" x="626" y="-741.5" font-family="FreeSans" font-size="10.00">+ rsvd0</text>
<text text-anchor="start" x="626" y="-728.5" font-family="FreeSans" font-size="10.00">+ srepl</text>
<text text-anchor="start" x="626" y="-715.5" font-family="FreeSans" font-size="10.00">+ rsvd1</text>
<text text-anchor="start" x="626" y="-702.5" font-family="FreeSans" font-size="10.00">+ s</text>
<polyline fill="none" stroke="black" points="618,-694.5 726,-694.5 "/>
<text text-anchor="middle" x="672" y="-681.5" font-family="FreeSans" font-size="10.00"> </text>
</a>
</g>
<!-- Node13&#45;&gt;Node11 -->
<g id="edge24" class="edge"><title>Node13&#45;&gt;Node11</title>
<path fill="none" stroke="#404040" d="M663.802,-673.411C655.96,-618.328 644.307,-536.476 637.207,-486.604"/>
<polygon fill="none" stroke="#404040" points="637.197,-486.529 632.391,-481.153 635.506,-474.649 640.311,-480.026 637.197,-486.529"/>
<text text-anchor="middle" x="675.5" y="-587.5" font-family="FreeSans" font-size="10.00"> enode2</text>
</g>
<!-- Node14 -->
<g id="node26" class="node"><title>Node14</title>
<a xlink:href="structppstate__t.html" target="_top" xlink:title="{ppstate_t\n|+ state\l|}">
<polygon fill="white" stroke="black" points="744,-699.5 744,-762.5 804,-762.5 804,-699.5 744,-699.5"/>
<text text-anchor="middle" x="774" y="-749.5" font-family="FreeSans" font-size="10.00">ppstate_t</text>
<polyline fill="none" stroke="black" points="744,-741.5 804,-741.5 "/>
<text text-anchor="start" x="752" y="-728.5" font-family="FreeSans" font-size="10.00">+ state</text>
<polyline fill="none" stroke="black" points="744,-720.5 804,-720.5 "/>
<text text-anchor="middle" x="774" y="-707.5" font-family="FreeSans" font-size="10.00"> </text>
</a>
</g>
<!-- Node14&#45;&gt;Node11 -->
<g id="edge26" class="edge"><title>Node14&#45;&gt;Node11</title>
<path fill="none" stroke="#404040" d="M760.531,-699.385C753.049,-681.869 743.55,-659.711 735,-640 719.16,-603.486 717.162,-593.417 699,-558 686.324,-533.282 670.626,-506.522 657.507,-485.04"/>
<polygon fill="none" stroke="#404040" points="657.396,-484.859 650.844,-481.846 651.106,-474.64 657.657,-477.653 657.396,-484.859"/>
<text text-anchor="middle" x="739" y="-587.5" font-family="FreeSans" font-size="10.00"> state</text>
</g>
<!-- Node15 -->
<g id="node28" class="node"><title>Node15</title>
<a xlink:href="structhfa__searchparams.html" target="_top" xlink:title="Search Parameters set by Application.">
<polygon fill="white" stroke="black" points="112.5,-167 112.5,-295 219.5,-295 219.5,-167 112.5,-167"/>
<text text-anchor="middle" x="166" y="-282" font-family="FreeSans" font-size="10.00">hfa_searchparams</text>
<polyline fill="none" stroke="black" points="112.5,-274 219.5,-274 "/>
<text text-anchor="start" x="120.5" y="-261" font-family="FreeSans" font-size="10.00">+ wqe</text>
<text text-anchor="start" x="120.5" y="-248" font-family="FreeSans" font-size="10.00">+ clusterno</text>
<text text-anchor="start" x="120.5" y="-235" font-family="FreeSans" font-size="10.00">+ input_0_n</text>
<text text-anchor="start" x="120.5" y="-222" font-family="FreeSans" font-size="10.00">+ input_n</text>
<text text-anchor="start" x="120.5" y="-209" font-family="FreeSans" font-size="10.00">+ matchcb</text>
<text text-anchor="start" x="120.5" y="-196" font-family="FreeSans" font-size="10.00">+ cbarg</text>
<polyline fill="none" stroke="black" points="112.5,-188 219.5,-188 "/>
<text text-anchor="middle" x="166" y="-175" font-family="FreeSans" font-size="10.00"> </text>
</a>
</g>
<!-- Node15&#45;&gt;Node1 -->
<g id="edge28" class="edge"><title>Node15&#45;&gt;Node1</title>
<path fill="none" stroke="#404040" d="M166,-166.581C166,-153.914 166,-140.569 166,-127.737"/>
<polygon fill="none" stroke="#404040" points="166,-127.629 162,-121.629 166,-115.629 170,-121.629 166,-127.629"/>
<text text-anchor="middle" x="186" y="-138.5" font-family="FreeSans" font-size="10.00"> sparam</text>
</g>
<!-- Node16 -->
<g id="node30" class="node"><title>Node16</title>
<a xlink:href="unionhfa__output__t.html" target="_top" xlink:title="Output search parameter provided by application Depending upon used mode &#45; Single or Gather...">
<polygon fill="white" stroke="black" points="128.5,-392 128.5,-494 203.5,-494 203.5,-392 128.5,-392"/>
<text text-anchor="middle" x="166" y="-481" font-family="FreeSans" font-size="10.00">hfa_output_t</text>
<polyline fill="none" stroke="black" points="128.5,-473 203.5,-473 "/>
<text text-anchor="start" x="136.5" y="-460" font-family="FreeSans" font-size="10.00">+ ptr</text>
<text text-anchor="start" x="136.5" y="-447" font-family="FreeSans" font-size="10.00">+ length</text>
<text text-anchor="start" x="136.5" y="-434" font-family="FreeSans" font-size="10.00">+ is_iovec</text>
<text text-anchor="start" x="136.5" y="-421" font-family="FreeSans" font-size="10.00">+ @14</text>
<polyline fill="none" stroke="black" points="128.5,-413 203.5,-413 "/>
<text text-anchor="middle" x="166" y="-400" font-family="FreeSans" font-size="10.00"> </text>
</a>
</g>
<!-- Node16&#45;&gt;Node15 -->
<g id="edge30" class="edge"><title>Node16&#45;&gt;Node15</title>
<path fill="none" stroke="#404040" d="M166,-391.951C166,-366.657 166,-335.592 166,-307.523"/>
<polygon fill="none" stroke="#404040" points="166,-307.288 162,-301.288 166,-295.288 170,-301.287 166,-307.288"/>
<text text-anchor="middle" x="182.5" y="-318.5" font-family="FreeSans" font-size="10.00"> output</text>
</g>
<!-- Node17&#45;&gt;Node16 -->
<g id="edge32" class="edge"><title>Node17&#45;&gt;Node16</title>
<path fill="none" stroke="#404040" d="M249.64,-686.316C232.993,-637.889 206.302,-560.243 187.559,-505.718"/>
<polygon fill="none" stroke="#404040" points="187.47,-505.458 181.737,-501.084 183.569,-494.11 189.302,-498.483 187.47,-505.458"/>
<text text-anchor="middle" x="232.5" y="-587.5" font-family="FreeSans" font-size="10.00"> g</text>
</g>
<!-- Node18 -->
<g id="node35" class="node"><title>Node18</title>
<a xlink:href="structhfa__output__t_1_1sparam__data__direct.html" target="_top" xlink:title="Direct output buffer (Non&#45;iovec)">
<polygon fill="white" stroke="black" points="67,-680 67,-782 187,-782 187,-680 67,-680"/>
<text text-anchor="start" x="75" y="-769" font-family="FreeSans" font-size="10.00">hfa_output_t::sparam</text>
<text text-anchor="middle" x="127" y="-756" font-family="FreeSans" font-size="10.00">_data_direct</text>
<polyline fill="none" stroke="black" points="67,-748 187,-748 "/>
<text text-anchor="start" x="75" y="-735" font-family="FreeSans" font-size="10.00">+ ptr</text>
<text text-anchor="start" x="75" y="-722" font-family="FreeSans" font-size="10.00">+ len</text>
<text text-anchor="start" x="75" y="-709" font-family="FreeSans" font-size="10.00">+ is_iovec</text>
<polyline fill="none" stroke="black" points="67,-701 187,-701 "/>
<text text-anchor="middle" x="127" y="-688" font-family="FreeSans" font-size="10.00"> </text>
</a>
</g>
<!-- Node18&#45;&gt;Node16 -->
<g id="edge36" class="edge"><title>Node18&#45;&gt;Node16</title>
<path fill="none" stroke="#404040" d="M133.927,-679.843C140.493,-631.359 150.374,-558.395 157.432,-506.275"/>
<polygon fill="none" stroke="#404040" points="157.461,-506.056 154.302,-499.573 159.071,-494.165 162.23,-500.647 157.461,-506.056"/>
<text text-anchor="middle" x="154.5" y="-587.5" font-family="FreeSans" font-size="10.00"> d</text>
</g>
<!-- Node19&#45;&gt;Node15 -->
<g id="edge38" class="edge"><title>Node19&#45;&gt;Node15</title>
<path fill="none" stroke="#404040" d="M51.0523,-558.229C46.4081,-510.329 42.5662,-417.612 71,-346 78.749,-326.484 91.1201,-307.793 104.408,-291.363"/>
<polygon fill="none" stroke="#404040" points="104.589,-291.148 105.387,-283.981 112.309,-281.962 111.511,-289.129 104.589,-291.148"/>
<text text-anchor="middle" x="95.5" y="-447" font-family="FreeSans" font-size="10.00"> input_0_n</text>
<text text-anchor="middle" x="95.5" y="-434" font-family="FreeSans" font-size="10.00">input_n</text>
</g>
<!-- Node20 -->
<g id="node40" class="node"><title>Node20</title>
<a xlink:href="structhfa__search__hwpp__ofields__t.html" target="_top" xlink:title="HFA hardware and Post processing fields returned to Application.">
<polygon fill="white" stroke="black" points="221,-398.5 221,-487.5 367,-487.5 367,-398.5 221,-398.5"/>
<text text-anchor="middle" x="294" y="-474.5" font-family="FreeSans" font-size="10.00">hfa_search_hwpp_ofields_t</text>
<polyline fill="none" stroke="black" points="221,-466.5 367,-466.5 "/>
<text text-anchor="start" x="229" y="-453.5" font-family="FreeSans" font-size="10.00">+ reason</text>
<text text-anchor="start" x="229" y="-440.5" font-family="FreeSans" font-size="10.00">+ oflags</text>
<text text-anchor="start" x="229" y="-427.5" font-family="FreeSans" font-size="10.00">+ pdboffset</text>
<polyline fill="none" stroke="black" points="221,-419.5 367,-419.5 "/>
<text text-anchor="middle" x="294" y="-406.5" font-family="FreeSans" font-size="10.00"> </text>
</a>
</g>
<!-- Node20&#45;&gt;Node15 -->
<g id="edge42" class="edge"><title>Node20&#45;&gt;Node15</title>
<path fill="none" stroke="#404040" d="M267.011,-398.299C250.8,-371.45 229.762,-336.606 211.086,-305.673"/>
<polygon fill="none" stroke="#404040" points="211.055,-305.623 204.53,-302.554 204.853,-295.35 211.378,-298.419 211.055,-305.623"/>
<text text-anchor="middle" x="240.5" y="-318.5" font-family="FreeSans" font-size="10.00"> ofields</text>
</g>
</g>
</svg>
