<?xml version="1.0" encoding="UTF-8" standalone="no"?>
<!DOCTYPE svg PUBLIC "-//W3C//DTD SVG 1.1//EN"
 "http://www.w3.org/Graphics/SVG/1.1/DTD/svg11.dtd">
<!-- Generated by graphviz version 2.24.0 (20090616.2323)
 -->
<!-- Title: hfa_wqe_pktdata_overload Pages: 1 -->
<svg width="152pt" height="216pt"
 viewBox="0.00 0.00 152.00 216.00" xmlns="http://www.w3.org/2000/svg" xmlns:xlink="http://www.w3.org/1999/xlink">
<g id="graph1" class="graph" transform="scale(1 1) rotate(0) translate(4 212)">
<title>hfa_wqe_pktdata_overload</title>
<polygon fill="white" stroke="white" points="-4,5 -4,-212 149,-212 149,5 -4,5"/>
<!-- Node1 -->
<g id="node1" class="node"><title>Node1</title>
<polygon fill="#bfbfbf" stroke="black" points="-0.5,-1 -0.5,-207 144.5,-207 144.5,-1 -0.5,-1"/>
<text text-anchor="middle" x="72" y="-194" font-family="FreeSans" font-size="10.00">hfa_wqe_pktdata_overload</text>
<polyline fill="none" stroke="black" points="-0.5,-186 144.5,-186 "/>
<text text-anchor="start" x="7.5" y="-173" font-family="FreeSans" font-size="10.00">+ psctx</text>
<text text-anchor="start" x="7.5" y="-160" font-family="FreeSans" font-size="10.00">+ psparam</text>
<text text-anchor="start" x="7.5" y="-147" font-family="FreeSans" font-size="10.00">+ rptr</text>
<text text-anchor="start" x="7.5" y="-134" font-family="FreeSans" font-size="10.00">+ pktwqe</text>
<text text-anchor="start" x="7.5" y="-121" font-family="FreeSans" font-size="10.00">+ pnctx</text>
<text text-anchor="start" x="7.5" y="-108" font-family="FreeSans" font-size="10.00">+ pgraph</text>
<text text-anchor="start" x="7.5" y="-95" font-family="FreeSans" font-size="10.00">+ itype</text>
<text text-anchor="start" x="7.5" y="-82" font-family="FreeSans" font-size="10.00">+ clno</text>
<text text-anchor="start" x="7.5" y="-69" font-family="FreeSans" font-size="10.00">+ unused0</text>
<text text-anchor="start" x="7.5" y="-56" font-family="FreeSans" font-size="10.00">+ unused1</text>
<text text-anchor="start" x="7.5" y="-43" font-family="FreeSans" font-size="10.00">+ unused2</text>
<text text-anchor="start" x="7.5" y="-30" font-family="FreeSans" font-size="10.00">+ unused3</text>
<polyline fill="none" stroke="black" points="-0.5,-22 144.5,-22 "/>
<text text-anchor="middle" x="72" y="-9" font-family="FreeSans" font-size="10.00"> </text>
</g>
</g>
</svg>
