<?xml version="1.0" encoding="UTF-8" standalone="no"?>
<!DOCTYPE svg PUBLIC "-//W3C//DTD SVG 1.1//EN"
 "http://www.w3.org/Graphics/SVG/1.1/DTD/svg11.dtd">
<!-- Generated by graphviz version 2.24.0 (20090616.2323)
 -->
<!-- Title: hfaf_flowdb_t Pages: 1 -->
<svg width="215pt" height="622pt"
 viewBox="0.00 0.00 215.00 622.00" xmlns="http://www.w3.org/2000/svg" xmlns:xlink="http://www.w3.org/1999/xlink">
<g id="graph1" class="graph" transform="scale(1 1) rotate(0) translate(4 618)">
<title>hfaf_flowdb_t</title>
<polygon fill="white" stroke="white" points="-4,5 -4,-618 212,-618 212,5 -4,5"/>
<!-- Node1 -->
<g id="node1" class="node"><title>Node1</title>
<polygon fill="#bfbfbf" stroke="black" points="85,-0.5 85,-115.5 169,-115.5 169,-0.5 85,-0.5"/>
<text text-anchor="middle" x="127" y="-102.5" font-family="FreeSans" font-size="10.00">hfaf_flowdb_t</text>
<polyline fill="none" stroke="black" points="85,-94.5 169,-94.5 "/>
<text text-anchor="start" x="93" y="-81.5" font-family="FreeSans" font-size="10.00">+ totflows</text>
<text text-anchor="start" x="93" y="-68.5" font-family="FreeSans" font-size="10.00">+ maxflows</text>
<text text-anchor="start" x="93" y="-55.5" font-family="FreeSans" font-size="10.00">+ bitmsk</text>
<text text-anchor="start" x="93" y="-42.5" font-family="FreeSans" font-size="10.00">+ wqegrp_bits</text>
<text text-anchor="start" x="93" y="-29.5" font-family="FreeSans" font-size="10.00">+ lock</text>
<polyline fill="none" stroke="black" points="85,-21.5 169,-21.5 "/>
<text text-anchor="middle" x="127" y="-8.5" font-family="FreeSans" font-size="10.00"> </text>
</g>
<!-- Node2 -->
<g id="node2" class="node"><title>Node2</title>
<a xlink:href="structhfa__dev.html" target="_top" xlink:title="HFA Device Structure.">
<polygon fill="white" stroke="black" points="24.5,-179.5 24.5,-242.5 79.5,-242.5 79.5,-179.5 24.5,-179.5"/>
<text text-anchor="middle" x="52" y="-229.5" font-family="FreeSans" font-size="10.00">hfa_dev</text>
<polyline fill="none" stroke="black" points="24.5,-221.5 79.5,-221.5 "/>
<text text-anchor="start" x="32.5" y="-208.5" font-family="FreeSans" font-size="10.00">+ punit</text>
<polyline fill="none" stroke="black" points="24.5,-200.5 79.5,-200.5 "/>
<text text-anchor="middle" x="52" y="-187.5" font-family="FreeSans" font-size="10.00"> </text>
</a>
</g>
<!-- Node2&#45;&gt;Node1 -->
<g id="edge2" class="edge"><title>Node2&#45;&gt;Node1</title>
<path fill="none" stroke="#404040" d="M67.54,-179.298C75.0369,-164.005 84.3417,-145.023 93.3473,-126.651"/>
<polygon fill="none" stroke="#404040" points="93.4656,-126.41 92.5149,-119.262 98.7476,-115.635 99.6983,-122.783 93.4656,-126.41"/>
<text text-anchor="middle" x="103.5" y="-138.5" font-family="FreeSans" font-size="10.00"> pdev</text>
</g>
<!-- Node3 -->
<g id="node4" class="node"><title>Node3</title>
<a xlink:href="structhfa__devinfo__t.html" target="_top" xlink:title="HFA Device Info.">
<polygon fill="white" stroke="black" points="0,-306.5 0,-473.5 104,-473.5 104,-306.5 0,-306.5"/>
<text text-anchor="middle" x="52" y="-460.5" font-family="FreeSans" font-size="10.00">hfa_devinfo_t</text>
<polyline fill="none" stroke="black" points="0,-452.5 104,-452.5 "/>
<text text-anchor="start" x="8" y="-439.5" font-family="FreeSans" font-size="10.00">+ hwhasownmem</text>
<text text-anchor="start" x="8" y="-426.5" font-family="FreeSans" font-size="10.00">+ name</text>
<text text-anchor="start" x="8" y="-413.5" font-family="FreeSans" font-size="10.00">+ nclusters</text>
<text text-anchor="start" x="8" y="-400.5" font-family="FreeSans" font-size="10.00">+ clmsk</text>
<text text-anchor="start" x="8" y="-387.5" font-family="FreeSans" font-size="10.00">+ chipid</text>
<text text-anchor="start" x="8" y="-374.5" font-family="FreeSans" font-size="10.00">+ pass</text>
<text text-anchor="start" x="8" y="-361.5" font-family="FreeSans" font-size="10.00">+ minfo</text>
<text text-anchor="start" x="8" y="-348.5" font-family="FreeSans" font-size="10.00">+ cinfo</text>
<text text-anchor="start" x="8" y="-335.5" font-family="FreeSans" font-size="10.00">+ mbasealignbits</text>
<polyline fill="none" stroke="black" points="0,-327.5 104,-327.5 "/>
<text text-anchor="middle" x="52" y="-314.5" font-family="FreeSans" font-size="10.00"> </text>
</a>
</g>
<!-- Node3&#45;&gt;Node2 -->
<g id="edge4" class="edge"><title>Node3&#45;&gt;Node2</title>
<path fill="none" stroke="#404040" d="M52,-306.265C52,-288.636 52,-270.707 52,-255.23"/>
<polygon fill="none" stroke="#404040" points="52.0001,-254.866 48,-248.866 52,-242.866 56,-248.866 52.0001,-254.866"/>
<text text-anchor="middle" x="71.5" y="-278.5" font-family="FreeSans" font-size="10.00"> devinfo</text>
</g>
<!-- Node4 -->
<g id="node6" class="node"><title>Node4</title>
<a xlink:href="structhfa__memchunk__t.html" target="_top" xlink:title="Memory Chunk attributes.">
<polygon fill="white" stroke="black" points="2,-537 2,-613 102,-613 102,-537 2,-537"/>
<text text-anchor="middle" x="52" y="-600" font-family="FreeSans" font-size="10.00">hfa_memchunk_t</text>
<polyline fill="none" stroke="black" points="2,-592 102,-592 "/>
<text text-anchor="start" x="10" y="-579" font-family="FreeSans" font-size="10.00">+ addr</text>
<text text-anchor="start" x="10" y="-566" font-family="FreeSans" font-size="10.00">+ size</text>
<polyline fill="none" stroke="black" points="2,-558 102,-558 "/>
<text text-anchor="middle" x="52" y="-545" font-family="FreeSans" font-size="10.00"> </text>
</a>
</g>
<!-- Node4&#45;&gt;Node3 -->
<g id="edge6" class="edge"><title>Node4&#45;&gt;Node3</title>
<path fill="none" stroke="#404040" d="M52,-536.668C52,-521.72 52,-503.858 52,-485.827"/>
<polygon fill="none" stroke="#404040" points="52.0001,-485.669 48,-479.669 52,-473.669 56,-479.669 52.0001,-485.669"/>
<text text-anchor="middle" x="67.5" y="-509" font-family="FreeSans" font-size="10.00"> minfo</text>
<text text-anchor="middle" x="67.5" y="-496" font-family="FreeSans" font-size="10.00">cinfo</text>
</g>
<!-- Node5 -->
<g id="node8" class="node"><title>Node5</title>
<a xlink:href="structhfaf__flowdb__node__t.html" target="_top" xlink:title="{hfaf_flowdb_node_t\n|+ lock\l+ list\l+ ncnt\l|}">
<polygon fill="white" stroke="black" points="96.5,-166.5 96.5,-255.5 207.5,-255.5 207.5,-166.5 96.5,-166.5"/>
<text text-anchor="middle" x="152" y="-242.5" font-family="FreeSans" font-size="10.00">hfaf_flowdb_node_t</text>
<polyline fill="none" stroke="black" points="96.5,-234.5 207.5,-234.5 "/>
<text text-anchor="start" x="104.5" y="-221.5" font-family="FreeSans" font-size="10.00">+ lock</text>
<text text-anchor="start" x="104.5" y="-208.5" font-family="FreeSans" font-size="10.00">+ list</text>
<text text-anchor="start" x="104.5" y="-195.5" font-family="FreeSans" font-size="10.00">+ ncnt</text>
<polyline fill="none" stroke="black" points="96.5,-187.5 207.5,-187.5 "/>
<text text-anchor="middle" x="152" y="-174.5" font-family="FreeSans" font-size="10.00"> </text>
</a>
</g>
<!-- Node5&#45;&gt;Node1 -->
<g id="edge8" class="edge"><title>Node5&#45;&gt;Node1</title>
<path fill="none" stroke="#404040" d="M144.702,-166.335C142.716,-154.179 140.516,-140.719 138.362,-127.536"/>
<polygon fill="none" stroke="#404040" points="138.339,-127.396 133.424,-122.12 136.404,-115.553 141.319,-120.83 138.339,-127.396"/>
<text text-anchor="middle" x="159" y="-138.5" font-family="FreeSans" font-size="10.00"> pnodes</text>
</g>
</g>
</svg>
