<?xml version="1.0" encoding="UTF-8" standalone="no"?>
<!DOCTYPE svg PUBLIC "-//W3C//DTD SVG 1.1//EN"
 "http://www.w3.org/Graphics/SVG/1.1/DTD/svg11.dtd">
<!-- Generated by graphviz version 2.24.0 (20090616.2323)
 -->
<!-- Title: ppdfa_tstampopt_t Pages: 1 -->
<svg width="112pt" height="202pt"
 viewBox="0.00 0.00 112.00 202.00" xmlns="http://www.w3.org/2000/svg" xmlns:xlink="http://www.w3.org/1999/xlink">
<g id="graph1" class="graph" transform="scale(1 1) rotate(0) translate(4 198)">
<title>ppdfa_tstampopt_t</title>
<polygon fill="white" stroke="white" points="-4,5 -4,-198 109,-198 109,5 -4,5"/>
<!-- Node1 -->
<g id="node1" class="node"><title>Node1</title>
<polygon fill="#bfbfbf" stroke="black" points="-0.5,-0.5 -0.5,-193.5 104.5,-193.5 104.5,-0.5 -0.5,-0.5"/>
<text text-anchor="middle" x="52" y="-180.5" font-family="FreeSans" font-size="10.00">ppdfa_tstampopt_t</text>
<polyline fill="none" stroke="black" points="-0.5,-172.5 104.5,-172.5 "/>
<text text-anchor="start" x="7.5" y="-159.5" font-family="FreeSans" font-size="10.00">+ linkable</text>
<text text-anchor="start" x="7.5" y="-146.5" font-family="FreeSans" font-size="10.00">+ memonly</text>
<text text-anchor="start" x="7.5" y="-133.5" font-family="FreeSans" font-size="10.00">+ cachealgo</text>
<text text-anchor="start" x="7.5" y="-120.5" font-family="FreeSans" font-size="10.00">+ dfa</text>
<text text-anchor="start" x="7.5" y="-107.5" font-family="FreeSans" font-size="10.00">+ strings</text>
<text text-anchor="start" x="7.5" y="-94.5" font-family="FreeSans" font-size="10.00">+ cachesize</text>
<text text-anchor="start" x="7.5" y="-81.5" font-family="FreeSans" font-size="10.00">+ target</text>
<text text-anchor="start" x="7.5" y="-68.5" font-family="FreeSans" font-size="10.00">+ optlevel</text>
<text text-anchor="start" x="7.5" y="-55.5" font-family="FreeSans" font-size="10.00">+ unused1</text>
<text text-anchor="start" x="7.5" y="-42.5" font-family="FreeSans" font-size="10.00">+ linked</text>
<text text-anchor="start" x="7.5" y="-29.5" font-family="FreeSans" font-size="10.00">and 7 more...</text>
<polyline fill="none" stroke="black" points="-0.5,-21.5 104.5,-21.5 "/>
<text text-anchor="middle" x="52" y="-8.5" font-family="FreeSans" font-size="10.00"> </text>
</g>
</g>
</svg>
