<?xml version="1.0" encoding="UTF-8" standalone="no"?>
<!DOCTYPE svg PUBLIC "-//W3C//DTD SVG 1.1//EN"
 "http://www.w3.org/Graphics/SVG/1.1/DTD/svg11.dtd">
<!-- Generated by graphviz version 2.24.0 (20090616.2323)
 -->
<!-- Title: hfa_output_t::sparam_data_gather Pages: 1 -->
<svg width="128pt" height="226pt"
 viewBox="0.00 0.00 128.00 226.00" xmlns="http://www.w3.org/2000/svg" xmlns:xlink="http://www.w3.org/1999/xlink">
<g id="graph1" class="graph" transform="scale(1 1) rotate(0) translate(4 222)">
<title>hfa_output_t::sparam_data_gather</title>
<polygon fill="white" stroke="white" points="-4,5 -4,-222 125,-222 125,5 -4,5"/>
<!-- Node1 -->
<g id="node1" class="node"><title>Node1</title>
<polygon fill="#bfbfbf" stroke="black" points="0,-0.5 0,-89.5 120,-89.5 120,-0.5 0,-0.5"/>
<text text-anchor="start" x="8" y="-76.5" font-family="FreeSans" font-size="10.00">hfa_output_t::sparam</text>
<text text-anchor="middle" x="60" y="-63.5" font-family="FreeSans" font-size="10.00">_data_gather</text>
<polyline fill="none" stroke="black" points="0,-55.5 120,-55.5 "/>
<text text-anchor="start" x="8" y="-42.5" font-family="FreeSans" font-size="10.00">+ ioveclen</text>
<text text-anchor="start" x="8" y="-29.5" font-family="FreeSans" font-size="10.00">+ is_iovec</text>
<polyline fill="none" stroke="black" points="0,-21.5 120,-21.5 "/>
<text text-anchor="middle" x="60" y="-8.5" font-family="FreeSans" font-size="10.00"> </text>
</g>
<!-- Node2 -->
<g id="node2" class="node"><title>Node2</title>
<a xlink:href="structppiovec__t.html" target="_top" xlink:title="{ppiovec_t\n|+ ptr\l+ len\l|}">
<polygon fill="white" stroke="black" points="28.5,-141 28.5,-217 91.5,-217 91.5,-141 28.5,-141"/>
<text text-anchor="middle" x="60" y="-204" font-family="FreeSans" font-size="10.00">ppiovec_t</text>
<polyline fill="none" stroke="black" points="28.5,-196 91.5,-196 "/>
<text text-anchor="start" x="36.5" y="-183" font-family="FreeSans" font-size="10.00">+ ptr</text>
<text text-anchor="start" x="36.5" y="-170" font-family="FreeSans" font-size="10.00">+ len</text>
<polyline fill="none" stroke="black" points="28.5,-162 91.5,-162 "/>
<text text-anchor="middle" x="60" y="-149" font-family="FreeSans" font-size="10.00"> </text>
</a>
</g>
<!-- Node2&#45;&gt;Node1 -->
<g id="edge2" class="edge"><title>Node2&#45;&gt;Node1</title>
<path fill="none" stroke="#404040" d="M60,-140.959C60,-128.88 60,-115.246 60,-102.128"/>
<polygon fill="none" stroke="#404040" points="60.0001,-101.777 56,-95.7773 60,-89.7772 64,-95.7772 60.0001,-101.777"/>
<text text-anchor="middle" x="77.5" y="-112.5" font-family="FreeSans" font-size="10.00"> piovec</text>
</g>
</g>
</svg>
