<?xml version="1.0" encoding="UTF-8" standalone="no"?>
<!DOCTYPE svg PUBLIC "-//W3C//DTD SVG 1.1//EN"
 "http://www.w3.org/Graphics/SVG/1.1/DTD/svg11.dtd">
<!-- Generated by graphviz version 2.24.0 (20090616.2323)
 -->
<!-- Title: arg_dfa_t Pages: 1 -->
<!--zoomable 484 -->
<svg id="main" version="1.1" xmlns="http://www.w3.org/2000/svg" xmlns:xlink="http://www.w3.org/1999/xlink" xml:space="preserve" onload="init(evt)">
        <defs>
                <circle id="rim" cx="0" cy="0" r="7"/>
                <circle id="rim2" cx="0" cy="0" r="3.5"/>
                <g id="zoomPlus">
                        <use xlink:href="#rim" fill="#404040">
                                <set attributeName="fill" to="#808080" begin="zoomplus.mouseover" end="zoomplus.mouseout"/>
                        </use>
                        <path d="M-4,0h8M0,-4v8" fill="none" stroke="white" stroke-width="1.5" pointer-events="none"/>
                </g>
                <g id="zoomMin">
                        <use xlink:href="#rim" fill="#404040">
                                <set attributeName="fill" to="#808080" begin="zoomminus.mouseover" end="zoomminus.mouseout"/>
                        </use>
                        <path d="M-4,0h8" fill="none" stroke="white" stroke-width="1.5" pointer-events="none"/>
                </g>
                <g id="dirArrow">
                        <path fill="none" stroke="white" stroke-width="1.5" d="M0,-3.0v7 M-2.5,-0.5L0,-3.0L2.5,-0.5"/>
                </g>
               <g id="resetDef">
                       <use xlink:href="#rim2" fill="#404040">
                               <set attributeName="fill" to="#808080" begin="reset.mouseover" end="reset.mouseout"/>
                       </use>
               </g>
        </defs>

<script type="text/javascript">
var viewWidth = 178;
var viewHeight = 484;
var sectionId = 'dynsection-0';
</script>
<script xlink:href="svgpan.js"/>
<svg id="graph" class="graph">
<g id="viewport">
<title>arg_dfa_t</title>
<polygon fill="white" stroke="white" points="-4,5 -4,-480 175,-480 175,5 -4,5"/>
<!-- Node1 -->
<g id="node1" class="node"><title>Node1</title>
<polygon fill="#bfbfbf" stroke="black" points="50,-1 50,-181 118,-181 118,-1 50,-1"/>
<text text-anchor="middle" x="84" y="-168" font-family="FreeSans" font-size="10.00">arg_dfa_t</text>
<polyline fill="none" stroke="black" points="50,-160 118,-160 "/>
<text text-anchor="start" x="58" y="-147" font-family="FreeSans" font-size="10.00">+ rptr</text>
<text text-anchor="start" x="58" y="-134" font-family="FreeSans" font-size="10.00">+ cb</text>
<text text-anchor="start" x="58" y="-121" font-family="FreeSans" font-size="10.00">+ cbarg</text>
<text text-anchor="start" x="58" y="-108" font-family="FreeSans" font-size="10.00">+ rbuf</text>
<text text-anchor="start" x="58" y="-95" font-family="FreeSans" font-size="10.00">+ radd</text>
<text text-anchor="start" x="58" y="-82" font-family="FreeSans" font-size="10.00">+ rcount</text>
<text text-anchor="start" x="58" y="-69" font-family="FreeSans" font-size="10.00">+ raddi</text>
<text text-anchor="start" x="58" y="-56" font-family="FreeSans" font-size="10.00">+ unused0</text>
<text text-anchor="start" x="58" y="-43" font-family="FreeSans" font-size="10.00">+ rerr</text>
<text text-anchor="start" x="58" y="-30" font-family="FreeSans" font-size="10.00">+ unused</text>
<polyline fill="none" stroke="black" points="50,-22 118,-22 "/>
<text text-anchor="middle" x="84" y="-9" font-family="FreeSans" font-size="10.00"> </text>
</g>
<!-- Node2 -->
<g id="node2" class="node"><title>Node2</title>
<a xlink:href="structstate__dfa__t.html" target="_top" xlink:title="{state_dfa_t\n||}">
<polygon fill="white" stroke="black" points="49.5,-232.5 49.5,-295.5 118.5,-295.5 118.5,-232.5 49.5,-232.5"/>
<text text-anchor="middle" x="84" y="-282.5" font-family="FreeSans" font-size="10.00">state_dfa_t</text>
<polyline fill="none" stroke="black" points="49.5,-274.5 118.5,-274.5 "/>
<text text-anchor="middle" x="84" y="-261.5" font-family="FreeSans" font-size="10.00"> </text>
<polyline fill="none" stroke="black" points="49.5,-253.5 118.5,-253.5 "/>
<text text-anchor="middle" x="84" y="-240.5" font-family="FreeSans" font-size="10.00"> </text>
</a>
</g>
<!-- Node2&#45;&gt;Node1 -->
<g id="edge2" class="edge"><title>Node2&#45;&gt;Node1</title>
<path fill="none" stroke="#404040" d="M84,-232.269C84,-220.838 84,-207.239 84,-193.063"/>
<polygon fill="none" stroke="#404040" points="84.0001,-193.055 80,-187.055 84,-181.055 88,-187.055 84.0001,-193.055"/>
<text text-anchor="middle" x="97" y="-204.5" font-family="FreeSans" font-size="10.00"> state</text>
</g>
<!-- Node3 -->
<g id="node4" class="node"><title>Node3</title>
<a xlink:href="structppmemcb__t.html" target="_top" xlink:title="{ppmemcb_t\n|+ uarg\l|}">
<polygon fill="white" stroke="black" points="0,-379.5 0,-442.5 74,-442.5 74,-379.5 0,-379.5"/>
<text text-anchor="middle" x="37" y="-429.5" font-family="FreeSans" font-size="10.00">ppmemcb_t</text>
<polyline fill="none" stroke="black" points="0,-421.5 74,-421.5 "/>
<text text-anchor="start" x="8" y="-408.5" font-family="FreeSans" font-size="10.00">+ uarg</text>
<polyline fill="none" stroke="black" points="0,-400.5 74,-400.5 "/>
<text text-anchor="middle" x="37" y="-387.5" font-family="FreeSans" font-size="10.00"> </text>
</a>
</g>
<!-- Node3&#45;&gt;Node2 -->
<g id="edge4" class="edge"><title>Node3&#45;&gt;Node2</title>
<path fill="none" stroke="#404040" d="M47.0827,-379.465C53.8126,-358.416 62.7505,-330.461 70.146,-307.33"/>
<polygon fill="none" stroke="#404040" points="70.1985,-307.166 68.2157,-300.233 73.853,-295.736 75.8357,-302.669 70.1985,-307.166"/>
<text text-anchor="middle" x="80.5" y="-318.5" font-family="FreeSans" font-size="10.00"> mcb</text>
</g>
<!-- Node4 -->
<g id="node6" class="node"><title>Node4</title>
<a xlink:href="structppstats__t.html" target="_top" xlink:title="{ppstats_t\n|+ curr_rword\l+ tot_rwords\l+ rstack\l+ sstack\l+ scycle\l+ ccycle\l|}">
<polygon fill="white" stroke="black" points="91.5,-347 91.5,-475 170.5,-475 170.5,-347 91.5,-347"/>
<text text-anchor="middle" x="131" y="-462" font-family="FreeSans" font-size="10.00">ppstats_t</text>
<polyline fill="none" stroke="black" points="91.5,-454 170.5,-454 "/>
<text text-anchor="start" x="99.5" y="-441" font-family="FreeSans" font-size="10.00">+ curr_rword</text>
<text text-anchor="start" x="99.5" y="-428" font-family="FreeSans" font-size="10.00">+ tot_rwords</text>
<text text-anchor="start" x="99.5" y="-415" font-family="FreeSans" font-size="10.00">+ rstack</text>
<text text-anchor="start" x="99.5" y="-402" font-family="FreeSans" font-size="10.00">+ sstack</text>
<text text-anchor="start" x="99.5" y="-389" font-family="FreeSans" font-size="10.00">+ scycle</text>
<text text-anchor="start" x="99.5" y="-376" font-family="FreeSans" font-size="10.00">+ ccycle</text>
<polyline fill="none" stroke="black" points="91.5,-368 170.5,-368 "/>
<text text-anchor="middle" x="131" y="-355" font-family="FreeSans" font-size="10.00"> </text>
</a>
</g>
<!-- Node4&#45;&gt;Node2 -->
<g id="edge6" class="edge"><title>Node4&#45;&gt;Node2</title>
<path fill="none" stroke="#404040" d="M110.522,-346.951C106.21,-333.466 101.761,-319.549 97.7665,-307.057"/>
<polygon fill="none" stroke="#404040" points="97.7508,-307.007 92.1135,-302.511 94.0962,-295.577 99.7335,-300.074 97.7508,-307.007"/>
<text text-anchor="middle" x="116" y="-318.5" font-family="FreeSans" font-size="10.00"> stats</text>
</g>
</g>
</svg>
        <g id="navigator" transform="translate(0 0)" fill="#404254">
                <rect fill="#f2f5e9" fill-opacity="0.5" stroke="#606060" stroke-width=".5" x="0" y="0" width="60" height="60"/>
                <use id="zoomplus" xlink:href="#zoomPlus" x="17" y="9" onmousedown="handleZoom(evt,'in')"/>
                <use id="zoomminus" xlink:href="#zoomMin" x="42" y="9" onmousedown="handleZoom(evt,'out')"/>
                <use id="reset" xlink:href="#resetDef" x="30" y="36" onmousedown="handleReset()"/>
                <g id="arrowUp" xlink:href="#dirArrow" transform="translate(30 24)" onmousedown="handlePan(0,-1)">
                  <use xlink:href="#rim" fill="#404040">
                        <set attributeName="fill" to="#808080" begin="arrowUp.mouseover" end="arrowUp.mouseout"/>
                  </use>
                  <path fill="none" stroke="white" stroke-width="1.5" d="M0,-3.0v7 M-2.5,-0.5L0,-3.0L2.5,-0.5"/>
                </g>
                <g id="arrowRight" xlink:href="#dirArrow" transform="rotate(90) translate(36 -43)" onmousedown="handlePan(1,0)">
                  <use xlink:href="#rim" fill="#404040">
                        <set attributeName="fill" to="#808080" begin="arrowRight.mouseover" end="arrowRight.mouseout"/>
                  </use>
                  <path fill="none" stroke="white" stroke-width="1.5" d="M0,-3.0v7 M-2.5,-0.5L0,-3.0L2.5,-0.5"/>
                </g>
                <g id="arrowDown" xlink:href="#dirArrow" transform="rotate(180) translate(-30 -48)" onmousedown="handlePan(0,1)">
                  <use xlink:href="#rim" fill="#404040">
                        <set attributeName="fill" to="#808080" begin="arrowDown.mouseover" end="arrowDown.mouseout"/>
                  </use>
                  <path fill="none" stroke="white" stroke-width="1.5" d="M0,-3.0v7 M-2.5,-0.5L0,-3.0L2.5,-0.5"/>
                </g>
                <g id="arrowLeft" xlink:href="#dirArrow" transform="rotate(270) translate(-36 17)" onmousedown="handlePan(-1,0)">
                  <use xlink:href="#rim" fill="#404040">
                        <set attributeName="fill" to="#808080" begin="arrowLeft.mouseover" end="arrowLeft.mouseout"/>
                  </use>
                  <path fill="none" stroke="white" stroke-width="1.5" d="M0,-3.0v7 M-2.5,-0.5L0,-3.0L2.5,-0.5"/>
                </g>
        </g>
        <svg viewBox="0 0 15 15" width="100%" height="30px" preserveAspectRatio="xMaxYMin meet">
         <g id="arrow_out" transform="scale(0.3 0.3)">
          <a xlink:href="structarg__dfa__t__coll__graph_org.svg" target="_base">
           <rect id="button" ry="5" rx="5" y="6" x="6" height="38" width="38"
                fill="#f2f5e9" fill-opacity="0.5" stroke="#606060" stroke-width="1.0"/>
           <path id="arrow"
             d="M 11.500037,31.436501 C 11.940474,20.09759 22.043105,11.32322 32.158766,21.979434 L 37.068811,17.246167 C 37.068811,17.246167 37.088388,32 37.088388,32 L 22.160133,31.978069 C 22.160133,31.978069 26.997745,27.140456 26.997745,27.140456 C 18.528582,18.264221 13.291696,25.230495 11.500037,31.436501 z"
             style="fill:#404040;"/>
          </a>
         </g>
        </svg>
</svg>
