<?xml version="1.0" encoding="UTF-8" standalone="no"?>
<!DOCTYPE svg PUBLIC "-//W3C//DTD SVG 1.1//EN"
 "http://www.w3.org/Graphics/SVG/1.1/DTD/svg11.dtd">
<!-- Generated by graphviz version 2.24.0 (20090616.2323)
 -->
<!-- Title: cvmx_hfa_word3_t Pages: 1 -->
<svg width="116pt" height="228pt"
 viewBox="0.00 0.00 116.00 228.00" xmlns="http://www.w3.org/2000/svg" xmlns:xlink="http://www.w3.org/1999/xlink">
<g id="graph1" class="graph" transform="scale(1 1) rotate(0) translate(4 224)">
<title>cvmx_hfa_word3_t</title>
<polygon fill="white" stroke="white" points="-4,5 -4,-224 113,-224 113,5 -4,5"/>
<!-- Node1 -->
<g id="node1" class="node"><title>Node1</title>
<polygon fill="#bfbfbf" stroke="black" points="0,-0.5 0,-219.5 108,-219.5 108,-0.5 0,-0.5"/>
<text text-anchor="middle" x="54" y="-206.5" font-family="FreeSans" font-size="10.00">cvmx_hfa_word3_t</text>
<polyline fill="none" stroke="black" points="0,-198.5 108,-198.5 "/>
<text text-anchor="start" x="8" y="-185.5" font-family="FreeSans" font-size="10.00">+ u64</text>
<text text-anchor="start" x="8" y="-172.5" font-family="FreeSans" font-size="10.00">+ varies0</text>
<text text-anchor="start" x="8" y="-159.5" font-family="FreeSans" font-size="10.00">+ wqptr</text>
<text text-anchor="start" x="8" y="-146.5" font-family="FreeSans" font-size="10.00">+ @34</text>
<text text-anchor="start" x="8" y="-133.5" font-family="FreeSans" font-size="10.00">+ unused1</text>
<text text-anchor="start" x="8" y="-120.5" font-family="FreeSans" font-size="10.00">+ vgid</text>
<text text-anchor="start" x="8" y="-107.5" font-family="FreeSans" font-size="10.00">+ unused0</text>
<text text-anchor="start" x="8" y="-94.5" font-family="FreeSans" font-size="10.00">+ f3</text>
<text text-anchor="start" x="8" y="-81.5" font-family="FreeSans" font-size="10.00">+ walk</text>
<text text-anchor="start" x="8" y="-68.5" font-family="FreeSans" font-size="10.00">+ f4</text>
<text text-anchor="start" x="8" y="-55.5" font-family="FreeSans" font-size="10.00">+ cload</text>
<text text-anchor="start" x="8" y="-42.5" font-family="FreeSans" font-size="10.00">+ mload</text>
<text text-anchor="start" x="8" y="-29.5" font-family="FreeSans" font-size="10.00">+ free</text>
<polyline fill="none" stroke="black" points="0,-21.5 108,-21.5 "/>
<text text-anchor="middle" x="54" y="-8.5" font-family="FreeSans" font-size="10.00"> </text>
</g>
</g>
</svg>
