<?xml version="1.0" encoding="UTF-8" standalone="no"?>
<!DOCTYPE svg PUBLIC "-//W3C//DTD SVG 1.1//EN"
 "http://www.w3.org/Graphics/SVG/1.1/DTD/svg11.dtd">
<!-- Generated by graphviz version 2.24.0 (20090616.2323)
 -->
<!-- Title: cvmx_hfa_command_t Pages: 1 -->
<svg width="494pt" height="382pt"
 viewBox="0.00 0.00 494.00 382.00" xmlns="http://www.w3.org/2000/svg" xmlns:xlink="http://www.w3.org/1999/xlink">
<g id="graph1" class="graph" transform="scale(1 1) rotate(0) translate(4 378)">
<title>cvmx_hfa_command_t</title>
<polygon fill="white" stroke="white" points="-4,5 -4,-378 491,-378 491,5 -4,5"/>
<!-- Node1 -->
<g id="node1" class="node"><title>Node1</title>
<polygon fill="#bfbfbf" stroke="black" points="179,-1 179,-77 307,-77 307,-1 179,-1"/>
<text text-anchor="middle" x="243" y="-64" font-family="FreeSans" font-size="10.00">cvmx_hfa_command_t</text>
<polyline fill="none" stroke="black" points="179,-56 307,-56 "/>
<text text-anchor="start" x="187" y="-43" font-family="FreeSans" font-size="10.00">+ u64</text>
<text text-anchor="start" x="187" y="-30" font-family="FreeSans" font-size="10.00">+ @40</text>
<polyline fill="none" stroke="black" points="179,-22 307,-22 "/>
<text text-anchor="middle" x="243" y="-9" font-family="FreeSans" font-size="10.00"> </text>
</g>
<!-- Node2 -->
<g id="node2" class="node"><title>Node2</title>
<a xlink:href="unioncvmx__hfa__word3__t.html" target="_top" xlink:title="{cvmx_hfa_word3_t\n|+ u64\l+ varies0\l+ wqptr\l+ @34\l+ unused1\l+ vgid\l+ unused0\l+ f3\l+ walk\l+ f4\l+ cload\l+ mload\l+ free\l|}">
<polygon fill="white" stroke="black" points="0,-141.5 0,-360.5 108,-360.5 108,-141.5 0,-141.5"/>
<text text-anchor="middle" x="54" y="-347.5" font-family="FreeSans" font-size="10.00">cvmx_hfa_word3_t</text>
<polyline fill="none" stroke="black" points="0,-339.5 108,-339.5 "/>
<text text-anchor="start" x="8" y="-326.5" font-family="FreeSans" font-size="10.00">+ u64</text>
<text text-anchor="start" x="8" y="-313.5" font-family="FreeSans" font-size="10.00">+ varies0</text>
<text text-anchor="start" x="8" y="-300.5" font-family="FreeSans" font-size="10.00">+ wqptr</text>
<text text-anchor="start" x="8" y="-287.5" font-family="FreeSans" font-size="10.00">+ @34</text>
<text text-anchor="start" x="8" y="-274.5" font-family="FreeSans" font-size="10.00">+ unused1</text>
<text text-anchor="start" x="8" y="-261.5" font-family="FreeSans" font-size="10.00">+ vgid</text>
<text text-anchor="start" x="8" y="-248.5" font-family="FreeSans" font-size="10.00">+ unused0</text>
<text text-anchor="start" x="8" y="-235.5" font-family="FreeSans" font-size="10.00">+ f3</text>
<text text-anchor="start" x="8" y="-222.5" font-family="FreeSans" font-size="10.00">+ walk</text>
<text text-anchor="start" x="8" y="-209.5" font-family="FreeSans" font-size="10.00">+ f4</text>
<text text-anchor="start" x="8" y="-196.5" font-family="FreeSans" font-size="10.00">+ cload</text>
<text text-anchor="start" x="8" y="-183.5" font-family="FreeSans" font-size="10.00">+ mload</text>
<text text-anchor="start" x="8" y="-170.5" font-family="FreeSans" font-size="10.00">+ free</text>
<polyline fill="none" stroke="black" points="0,-162.5 108,-162.5 "/>
<text text-anchor="middle" x="54" y="-149.5" font-family="FreeSans" font-size="10.00"> </text>
</a>
</g>
<!-- Node2&#45;&gt;Node1 -->
<g id="edge2" class="edge"><title>Node2&#45;&gt;Node1</title>
<path fill="none" stroke="#404040" d="M106.362,-141.458C109.758,-136.772 113.305,-132.259 117,-128 131.802,-110.938 150.527,-95.4577 168.984,-82.3694"/>
<polygon fill="none" stroke="#404040" points="169.003,-82.3565 171.675,-75.6587 178.885,-75.549 176.213,-82.2468 169.003,-82.3565"/>
<text text-anchor="middle" x="167.5" y="-100.5" font-family="FreeSans" font-size="10.00"> word3</text>
</g>
<!-- Node3 -->
<g id="node4" class="node"><title>Node3</title>
<a xlink:href="unioncvmx__hfa__word0__t.html" target="_top" xlink:title="{cvmx_hfa_word0_t\n|+ u64\l+ varies0\l+ store_full\l+ varies1\l+ itype\l+ varies2\l+ @16\l+ f1\l+ unused1\l+ snode\land 17 more...\l|}">
<polygon fill="white" stroke="black" points="126,-154.5 126,-347.5 234,-347.5 234,-154.5 126,-154.5"/>
<text text-anchor="middle" x="180" y="-334.5" font-family="FreeSans" font-size="10.00">cvmx_hfa_word0_t</text>
<polyline fill="none" stroke="black" points="126,-326.5 234,-326.5 "/>
<text text-anchor="start" x="134" y="-313.5" font-family="FreeSans" font-size="10.00">+ u64</text>
<text text-anchor="start" x="134" y="-300.5" font-family="FreeSans" font-size="10.00">+ varies0</text>
<text text-anchor="start" x="134" y="-287.5" font-family="FreeSans" font-size="10.00">+ store_full</text>
<text text-anchor="start" x="134" y="-274.5" font-family="FreeSans" font-size="10.00">+ varies1</text>
<text text-anchor="start" x="134" y="-261.5" font-family="FreeSans" font-size="10.00">+ itype</text>
<text text-anchor="start" x="134" y="-248.5" font-family="FreeSans" font-size="10.00">+ varies2</text>
<text text-anchor="start" x="134" y="-235.5" font-family="FreeSans" font-size="10.00">+ @16</text>
<text text-anchor="start" x="134" y="-222.5" font-family="FreeSans" font-size="10.00">+ f1</text>
<text text-anchor="start" x="134" y="-209.5" font-family="FreeSans" font-size="10.00">+ unused1</text>
<text text-anchor="start" x="134" y="-196.5" font-family="FreeSans" font-size="10.00">+ snode</text>
<text text-anchor="start" x="134" y="-183.5" font-family="FreeSans" font-size="10.00">and 17 more...</text>
<polyline fill="none" stroke="black" points="126,-175.5 234,-175.5 "/>
<text text-anchor="middle" x="180" y="-162.5" font-family="FreeSans" font-size="10.00"> </text>
</a>
</g>
<!-- Node3&#45;&gt;Node1 -->
<g id="edge4" class="edge"><title>Node3&#45;&gt;Node1</title>
<path fill="none" stroke="#404040" d="M208.735,-154.306C215.453,-131.697 222.341,-108.519 228.163,-88.9291"/>
<polygon fill="none" stroke="#404040" points="228.22,-88.7352 226.095,-81.8444 231.638,-77.2324 233.764,-84.1233 228.22,-88.7352"/>
<text text-anchor="middle" x="241.5" y="-100.5" font-family="FreeSans" font-size="10.00"> word0</text>
</g>
<!-- Node4 -->
<g id="node6" class="node"><title>Node4</title>
<a xlink:href="unioncvmx__hfa__word1__t.html" target="_top" xlink:title="{cvmx_hfa_word1_t\n|+ u64\l+ varies0\l+ rptr\l+ @22\l+ rmax\l+ f2\l+ walk\l+ unused1\l+ unused0\l+ cload\l+ mload\l+ unused\l+ free\l|}">
<polygon fill="white" stroke="black" points="252,-141.5 252,-360.5 360,-360.5 360,-141.5 252,-141.5"/>
<text text-anchor="middle" x="306" y="-347.5" font-family="FreeSans" font-size="10.00">cvmx_hfa_word1_t</text>
<polyline fill="none" stroke="black" points="252,-339.5 360,-339.5 "/>
<text text-anchor="start" x="260" y="-326.5" font-family="FreeSans" font-size="10.00">+ u64</text>
<text text-anchor="start" x="260" y="-313.5" font-family="FreeSans" font-size="10.00">+ varies0</text>
<text text-anchor="start" x="260" y="-300.5" font-family="FreeSans" font-size="10.00">+ rptr</text>
<text text-anchor="start" x="260" y="-287.5" font-family="FreeSans" font-size="10.00">+ @22</text>
<text text-anchor="start" x="260" y="-274.5" font-family="FreeSans" font-size="10.00">+ rmax</text>
<text text-anchor="start" x="260" y="-261.5" font-family="FreeSans" font-size="10.00">+ f2</text>
<text text-anchor="start" x="260" y="-248.5" font-family="FreeSans" font-size="10.00">+ walk</text>
<text text-anchor="start" x="260" y="-235.5" font-family="FreeSans" font-size="10.00">+ unused1</text>
<text text-anchor="start" x="260" y="-222.5" font-family="FreeSans" font-size="10.00">+ unused0</text>
<text text-anchor="start" x="260" y="-209.5" font-family="FreeSans" font-size="10.00">+ cload</text>
<text text-anchor="start" x="260" y="-196.5" font-family="FreeSans" font-size="10.00">+ mload</text>
<text text-anchor="start" x="260" y="-183.5" font-family="FreeSans" font-size="10.00">+ unused</text>
<text text-anchor="start" x="260" y="-170.5" font-family="FreeSans" font-size="10.00">+ free</text>
<polyline fill="none" stroke="black" points="252,-162.5 360,-162.5 "/>
<text text-anchor="middle" x="306" y="-149.5" font-family="FreeSans" font-size="10.00"> </text>
</a>
</g>
<!-- Node4&#45;&gt;Node1 -->
<g id="edge6" class="edge"><title>Node4&#45;&gt;Node1</title>
<path fill="none" stroke="#404040" d="M275.485,-141.16C271.068,-125.958 266.493,-110.568 262,-96 261.267,-93.6249 260.507,-91.1981 259.729,-88.7498"/>
<polygon fill="none" stroke="#404040" points="259.703,-88.6683 254.052,-84.1888 256.013,-77.2496 261.664,-81.7291 259.703,-88.6683"/>
<text text-anchor="middle" x="281.5" y="-100.5" font-family="FreeSans" font-size="10.00"> word1</text>
</g>
<!-- Node5 -->
<g id="node8" class="node"><title>Node5</title>
<a xlink:href="unioncvmx__hfa__word2__t.html" target="_top" xlink:title="{cvmx_hfa_word2_t\n|+ u64\l+ varies0\l+ clmsk\l+ varies1\l+ @28\l+ dlen\l+ f5\l+ unused\l+ dptr\l+ walk\l+ cload\l+ mload\l+ unused1\l+ unused0\l+ free\l|}">
<polygon fill="white" stroke="black" points="378,-128.5 378,-373.5 486,-373.5 486,-128.5 378,-128.5"/>
<text text-anchor="middle" x="432" y="-360.5" font-family="FreeSans" font-size="10.00">cvmx_hfa_word2_t</text>
<polyline fill="none" stroke="black" points="378,-352.5 486,-352.5 "/>
<text text-anchor="start" x="386" y="-339.5" font-family="FreeSans" font-size="10.00">+ u64</text>
<text text-anchor="start" x="386" y="-326.5" font-family="FreeSans" font-size="10.00">+ varies0</text>
<text text-anchor="start" x="386" y="-313.5" font-family="FreeSans" font-size="10.00">+ clmsk</text>
<text text-anchor="start" x="386" y="-300.5" font-family="FreeSans" font-size="10.00">+ varies1</text>
<text text-anchor="start" x="386" y="-287.5" font-family="FreeSans" font-size="10.00">+ @28</text>
<text text-anchor="start" x="386" y="-274.5" font-family="FreeSans" font-size="10.00">+ dlen</text>
<text text-anchor="start" x="386" y="-261.5" font-family="FreeSans" font-size="10.00">+ f5</text>
<text text-anchor="start" x="386" y="-248.5" font-family="FreeSans" font-size="10.00">+ unused</text>
<text text-anchor="start" x="386" y="-235.5" font-family="FreeSans" font-size="10.00">+ dptr</text>
<text text-anchor="start" x="386" y="-222.5" font-family="FreeSans" font-size="10.00">+ walk</text>
<text text-anchor="start" x="386" y="-209.5" font-family="FreeSans" font-size="10.00">+ cload</text>
<text text-anchor="start" x="386" y="-196.5" font-family="FreeSans" font-size="10.00">+ mload</text>
<text text-anchor="start" x="386" y="-183.5" font-family="FreeSans" font-size="10.00">+ unused1</text>
<text text-anchor="start" x="386" y="-170.5" font-family="FreeSans" font-size="10.00">+ unused0</text>
<text text-anchor="start" x="386" y="-157.5" font-family="FreeSans" font-size="10.00">+ free</text>
<polyline fill="none" stroke="black" points="378,-149.5 486,-149.5 "/>
<text text-anchor="middle" x="432" y="-136.5" font-family="FreeSans" font-size="10.00"> </text>
</a>
</g>
<!-- Node5&#45;&gt;Node1 -->
<g id="edge8" class="edge"><title>Node5&#45;&gt;Node1</title>
<path fill="none" stroke="#404040" d="M377.891,-139.081C375.03,-135.243 372.066,-131.534 369,-128 354.198,-110.938 335.473,-95.4577 317.016,-82.3694"/>
<polygon fill="none" stroke="#404040" points="316.997,-82.3565 309.787,-82.2468 307.115,-75.549 314.325,-75.6587 316.997,-82.3565"/>
<text text-anchor="middle" x="364.5" y="-100.5" font-family="FreeSans" font-size="10.00"> word2</text>
</g>
</g>
</svg>
