<?xml version="1.0" encoding="UTF-8" standalone="no"?>
<!DOCTYPE svg PUBLIC "-//W3C//DTD SVG 1.1//EN"
 "http://www.w3.org/Graphics/SVG/1.1/DTD/svg11.dtd">
<!-- Generated by graphviz version 2.24.0 (20090616.2323)
 -->
<!-- Title: hfa_output_t Pages: 1 -->
<svg width="266pt" height="394pt"
 viewBox="0.00 0.00 266.00 394.00" xmlns="http://www.w3.org/2000/svg" xmlns:xlink="http://www.w3.org/1999/xlink">
<g id="graph1" class="graph" transform="scale(1 1) rotate(0) translate(4 390)">
<title>hfa_output_t</title>
<polygon fill="white" stroke="white" points="-4,5 -4,-390 263,-390 263,5 -4,5"/>
<!-- Node1 -->
<g id="node1" class="node"><title>Node1</title>
<polygon fill="#bfbfbf" stroke="black" points="125.5,-1 125.5,-103 200.5,-103 200.5,-1 125.5,-1"/>
<text text-anchor="middle" x="163" y="-90" font-family="FreeSans" font-size="10.00">hfa_output_t</text>
<polyline fill="none" stroke="black" points="125.5,-82 200.5,-82 "/>
<text text-anchor="start" x="133.5" y="-69" font-family="FreeSans" font-size="10.00">+ ptr</text>
<text text-anchor="start" x="133.5" y="-56" font-family="FreeSans" font-size="10.00">+ length</text>
<text text-anchor="start" x="133.5" y="-43" font-family="FreeSans" font-size="10.00">+ is_iovec</text>
<text text-anchor="start" x="133.5" y="-30" font-family="FreeSans" font-size="10.00">+ @14</text>
<polyline fill="none" stroke="black" points="125.5,-22 200.5,-22 "/>
<text text-anchor="middle" x="163" y="-9" font-family="FreeSans" font-size="10.00"> </text>
</g>
<!-- Node2 -->
<g id="node2" class="node"><title>Node2</title>
<a xlink:href="structhfa__output__t_1_1sparam__data__gather.html" target="_top" xlink:title="Output buffer &#45; gather mode.">
<polygon fill="white" stroke="black" points="0,-161.5 0,-250.5 120,-250.5 120,-161.5 0,-161.5"/>
<text text-anchor="start" x="8" y="-237.5" font-family="FreeSans" font-size="10.00">hfa_output_t::sparam</text>
<text text-anchor="middle" x="60" y="-224.5" font-family="FreeSans" font-size="10.00">_data_gather</text>
<polyline fill="none" stroke="black" points="0,-216.5 120,-216.5 "/>
<text text-anchor="start" x="8" y="-203.5" font-family="FreeSans" font-size="10.00">+ ioveclen</text>
<text text-anchor="start" x="8" y="-190.5" font-family="FreeSans" font-size="10.00">+ is_iovec</text>
<polyline fill="none" stroke="black" points="0,-182.5 120,-182.5 "/>
<text text-anchor="middle" x="60" y="-169.5" font-family="FreeSans" font-size="10.00"> </text>
</a>
</g>
<!-- Node2&#45;&gt;Node1 -->
<g id="edge2" class="edge"><title>Node2&#45;&gt;Node1</title>
<path fill="none" stroke="#404040" d="M89.7919,-161.457C99.7831,-146.518 111.109,-129.585 121.814,-113.579"/>
<polygon fill="none" stroke="#404040" points="122.068,-113.199 122.079,-105.988 128.739,-103.225 128.729,-110.436 122.068,-113.199"/>
<text text-anchor="middle" x="119.5" y="-126.5" font-family="FreeSans" font-size="10.00"> g</text>
</g>
<!-- Node3 -->
<g id="node4" class="node"><title>Node3</title>
<a xlink:href="structppiovec__t.html" target="_top" xlink:title="{ppiovec_t\n|+ ptr\l+ len\l|}">
<polygon fill="white" stroke="black" points="28.5,-309 28.5,-385 91.5,-385 91.5,-309 28.5,-309"/>
<text text-anchor="middle" x="60" y="-372" font-family="FreeSans" font-size="10.00">ppiovec_t</text>
<polyline fill="none" stroke="black" points="28.5,-364 91.5,-364 "/>
<text text-anchor="start" x="36.5" y="-351" font-family="FreeSans" font-size="10.00">+ ptr</text>
<text text-anchor="start" x="36.5" y="-338" font-family="FreeSans" font-size="10.00">+ len</text>
<polyline fill="none" stroke="black" points="28.5,-330 91.5,-330 "/>
<text text-anchor="middle" x="60" y="-317" font-family="FreeSans" font-size="10.00"> </text>
</a>
</g>
<!-- Node3&#45;&gt;Node2 -->
<g id="edge4" class="edge"><title>Node3&#45;&gt;Node2</title>
<path fill="none" stroke="#404040" d="M60,-308.843C60,-294.685 60,-278.306 60,-262.838"/>
<polygon fill="none" stroke="#404040" points="60.0001,-262.689 56,-256.689 60,-250.689 64,-256.689 60.0001,-262.689"/>
<text text-anchor="middle" x="77.5" y="-280.5" font-family="FreeSans" font-size="10.00"> piovec</text>
</g>
<!-- Node4 -->
<g id="node6" class="node"><title>Node4</title>
<a xlink:href="structhfa__output__t_1_1sparam__data__direct.html" target="_top" xlink:title="Direct output buffer (Non&#45;iovec)">
<polygon fill="white" stroke="black" points="138,-155 138,-257 258,-257 258,-155 138,-155"/>
<text text-anchor="start" x="146" y="-244" font-family="FreeSans" font-size="10.00">hfa_output_t::sparam</text>
<text text-anchor="middle" x="198" y="-231" font-family="FreeSans" font-size="10.00">_data_direct</text>
<polyline fill="none" stroke="black" points="138,-223 258,-223 "/>
<text text-anchor="start" x="146" y="-210" font-family="FreeSans" font-size="10.00">+ ptr</text>
<text text-anchor="start" x="146" y="-197" font-family="FreeSans" font-size="10.00">+ len</text>
<text text-anchor="start" x="146" y="-184" font-family="FreeSans" font-size="10.00">+ is_iovec</text>
<polyline fill="none" stroke="black" points="138,-176 258,-176 "/>
<text text-anchor="middle" x="198" y="-163" font-family="FreeSans" font-size="10.00"> </text>
</a>
</g>
<!-- Node4&#45;&gt;Node1 -->
<g id="edge6" class="edge"><title>Node4&#45;&gt;Node1</title>
<path fill="none" stroke="#404040" d="M186.346,-154.72C183.453,-141.992 180.319,-128.205 177.315,-114.987"/>
<polygon fill="none" stroke="#404040" points="177.263,-114.757 172.033,-109.793 174.604,-103.056 179.834,-108.02 177.263,-114.757"/>
<text text-anchor="middle" x="185.5" y="-126.5" font-family="FreeSans" font-size="10.00"> d</text>
</g>
</g>
</svg>
